<?xml version="1.0" encoding="UTF-8" standalone="no"?>
<!DOCTYPE svg PUBLIC "-//W3C//DTD SVG 1.1//EN"
 "http://www.w3.org/Graphics/SVG/1.1/DTD/svg11.dtd">
<!-- Generated by graphviz version 2.43.0 (0)
 -->
<!-- Title: /home/runner/work/doxygen/doxygen/src/docbookvisitor.h Pages: 1 -->
<!--zoomable 313 -->
<svg id="main" version="1.1" xmlns="http://www.w3.org/2000/svg" xmlns:xlink="http://www.w3.org/1999/xlink" xml:space="preserve" onload="init(evt)">
<style type="text/css"><![CDATA[
.edge:hover path { stroke: red; }
.edge:hover polygon { stroke: red; fill: red; }
]]></style>
<script type="text/javascript"><![CDATA[
var edges = document.getElementsByTagName('g');
if (edges && edges.length) {
  for (var i=0;i<edges.length;i++) {
    if (edges[i].id.substr(0,4)=='edge') {
      edges[i].setAttribute('class','edge');
    }
  }
}
]]></script>
        <defs>
                <circle id="rim" cx="0" cy="0" r="7"/>
                <circle id="rim2" cx="0" cy="0" r="3.5"/>
                <g id="zoomPlus">
                        <use xlink:href="#rim" fill="#404040">
                                <set attributeName="fill" to="#808080" begin="zoomplus.mouseover" end="zoomplus.mouseout"/>
                        </use>
                        <path d="M-4,0h8M0,-4v8" fill="none" stroke="white" stroke-width="1.5" pointer-events="none"/>
                </g>
                <g id="zoomMin">
                        <use xlink:href="#rim" fill="#404040">
                                <set attributeName="fill" to="#808080" begin="zoomminus.mouseover" end="zoomminus.mouseout"/>
                        </use>
                        <path d="M-4,0h8" fill="none" stroke="white" stroke-width="1.5" pointer-events="none"/>
                </g>
                <g id="dirArrow">
                        <path fill="none" stroke="white" stroke-width="1.5" d="M0,-3.0v7 M-2.5,-0.5L0,-3.0L2.5,-0.5"/>
                </g>
               <g id="resetDef">
                       <use xlink:href="#rim2" fill="#404040">
                               <set attributeName="fill" to="#808080" begin="reset.mouseover" end="reset.mouseout"/>
                       </use>
               </g>
        </defs>

<script type="text/javascript">
var viewWidth = 1063;
var viewHeight = 313;
var sectionId = 'dynsection-0';
</script>
<script xlink:href="../../svgpan.js"/>
<svg id="graph" class="graph">
<g id="viewport">
<title>/home/runner/work/doxygen/doxygen/src/docbookvisitor.h</title>
<!-- Node1 -->
<g id="node1" class="node">
<title>Node1</title>
<g id="a_node1"><a xlink:title=" ">
<polygon fill="#999999" stroke="#666666" points="579,-305 417,-305 417,-275 579,-275 579,-305"/>
<text text-anchor="start" x="425" y="-293" font-family="Helvetica,sans-Serif" font-size="10.00">/home/runner/work/doxygen</text>
<text text-anchor="middle" x="498" y="-282" font-family="Helvetica,sans-Serif" font-size="10.00">/doxygen/src/docbookvisitor.h</text>
</a>
</g>
</g>
<!-- Node2 -->
<g id="node2" class="node">
<title>Node2</title>
<g id="a_node2"><a xlink:title=" ">
<polygon fill="#e0e0e0" stroke="#999999" points="432,-239 372,-239 372,-220 432,-220 432,-239"/>
<text text-anchor="middle" x="402" y="-227" font-family="Helvetica,sans-Serif" font-size="10.00">iostream</text>
</a>
</g>
</g>
<!-- Node1&#45;&gt;Node2 -->
<g id="edge1" class="edge">
<title>Node1&#45;&gt;Node2</title>
<path fill="none" stroke="#63b8ff" d="M474.76,-274.84C459.6,-265.6 439.89,-253.59 424.81,-244.4"/>
<polygon fill="#63b8ff" stroke="#63b8ff" points="426.46,-241.31 416.1,-239.09 422.82,-247.29 426.46,-241.31"/>
</g>
<!-- Node3 -->
<g id="node3" class="node">
<title>Node3</title>
<g id="a_node3"><a xlink:href="../../d5/d75/containers_8h.html" target="_top" xlink:title=" ">
<polygon fill="white" stroke="#666666" points="285.5,-184 208.5,-184 208.5,-165 285.5,-165 285.5,-184"/>
<text text-anchor="middle" x="247" y="-172" font-family="Helvetica,sans-Serif" font-size="10.00">containers.h</text>
</a>
</g>
</g>
<!-- Node1&#45;&gt;Node3 -->
<g id="edge2" class="edge">
<title>Node1&#45;&gt;Node3</title>
<path fill="none" stroke="#63b8ff" d="M490.13,-274.72C480.61,-258.84 463.08,-233.63 441,-220 396.68,-192.65 337.29,-182.08 295.95,-178.01"/>
<polygon fill="#63b8ff" stroke="#63b8ff" points="296.12,-174.51 285.85,-177.11 295.5,-181.48 296.12,-174.51"/>
</g>
<!-- Node11 -->
<g id="node11" class="node">
<title>Node11</title>
<g id="a_node11"><a xlink:href="../../d2/d3c/docvisitor_8h.html" target="_top" xlink:title=" ">
<polygon fill="white" stroke="#666666" points="637.5,-184 564.5,-184 564.5,-165 637.5,-165 637.5,-184"/>
<text text-anchor="middle" x="601" y="-172" font-family="Helvetica,sans-Serif" font-size="10.00">docvisitor.h</text>
</a>
</g>
</g>
<!-- Node1&#45;&gt;Node11 -->
<g id="edge10" class="edge">
<title>Node1&#45;&gt;Node11</title>
<path fill="none" stroke="#63b8ff" d="M511.05,-274.63C530.25,-253.47 566.01,-214.05 586.18,-191.83"/>
<polygon fill="#63b8ff" stroke="#63b8ff" points="588.95,-193.99 593.08,-184.23 583.77,-189.28 588.95,-193.99"/>
</g>
<!-- Node13 -->
<g id="node13" class="node">
<title>Node13</title>
<g id="a_node13"><a xlink:href="../../d7/d5c/qcstring_8h.html" target="_top" xlink:title=" ">
<polygon fill="white" stroke="#666666" points="594.5,-129 529.5,-129 529.5,-110 594.5,-110 594.5,-129"/>
<text text-anchor="middle" x="562" y="-117" font-family="Helvetica,sans-Serif" font-size="10.00">qcstring.h</text>
</a>
</g>
</g>
<!-- Node1&#45;&gt;Node13 -->
<g id="edge47" class="edge">
<title>Node1&#45;&gt;Node13</title>
<path fill="none" stroke="#63b8ff" d="M503.34,-274.86C512.05,-251.84 529.85,-204.81 545,-165 548.31,-156.29 552,-146.63 555.09,-138.54"/>
<polygon fill="#63b8ff" stroke="#63b8ff" points="558.43,-139.62 558.73,-129.03 551.89,-137.12 558.43,-139.62"/>
</g>
<!-- Node22 -->
<g id="node22" class="node">
<title>Node22</title>
<g id="a_node22"><a xlink:href="../../de/d2b/docnode_8h.html" target="_top" xlink:title=" ">
<polygon fill="white" stroke="#666666" points="768.5,-239 701.5,-239 701.5,-220 768.5,-220 768.5,-239"/>
<text text-anchor="middle" x="735" y="-227" font-family="Helvetica,sans-Serif" font-size="10.00">docnode.h</text>
</a>
</g>
</g>
<!-- Node1&#45;&gt;Node22 -->
<g id="edge24" class="edge">
<title>Node1&#45;&gt;Node22</title>
<path fill="none" stroke="#63b8ff" d="M554.77,-274.99C596.75,-264.62 653.09,-250.72 691.53,-241.23"/>
<polygon fill="#63b8ff" stroke="#63b8ff" points="692.51,-244.59 701.38,-238.8 690.83,-237.8 692.51,-244.59"/>
</g>
<!-- Node4 -->
<g id="node4" class="node">
<title>Node4</title>
<g id="a_node4"><a xlink:title=" ">
<polygon fill="#e0e0e0" stroke="#999999" points="983.5,-74 936.5,-74 936.5,-55 983.5,-55 983.5,-74"/>
<text text-anchor="middle" x="960" y="-62" font-family="Helvetica,sans-Serif" font-size="10.00">vector</text>
</a>
</g>
</g>
<!-- Node3&#45;&gt;Node4 -->
<g id="edge3" class="edge">
<title>Node3&#45;&gt;Node4</title>
<path fill="none" stroke="#63b8ff" d="M285.65,-169.62C388.56,-158.92 677.7,-126.39 926.32,-73.98"/>
<polygon fill="#63b8ff" stroke="#63b8ff" points="927.21,-77.37 936.26,-71.87 925.75,-70.52 927.21,-77.37"/>
</g>
<!-- Node5 -->
<g id="node5" class="node">
<title>Node5</title>
<g id="a_node5"><a xlink:title=" ">
<polygon fill="#e0e0e0" stroke="#999999" points="309,-19 265,-19 265,0 309,0 309,-19"/>
<text text-anchor="middle" x="287" y="-7" font-family="Helvetica,sans-Serif" font-size="10.00">string</text>
</a>
</g>
</g>
<!-- Node3&#45;&gt;Node5 -->
<g id="edge4" class="edge">
<title>Node3&#45;&gt;Node5</title>
<path fill="none" stroke="#63b8ff" d="M230.97,-164.95C218.59,-157.35 202.35,-144.97 195,-129 191.47,-121.33 191.92,-117.86 195,-110 209.23,-73.64 243.68,-42.6 266.15,-25.27"/>
<polygon fill="#63b8ff" stroke="#63b8ff" points="268.47,-27.9 274.39,-19.11 264.28,-22.3 268.47,-27.9"/>
</g>
<!-- Node6 -->
<g id="node6" class="node">
<title>Node6</title>
<g id="a_node6"><a xlink:title=" ">
<polygon fill="#e0e0e0" stroke="#999999" points="236,-129 204,-129 204,-110 236,-110 236,-129"/>
<text text-anchor="middle" x="220" y="-117" font-family="Helvetica,sans-Serif" font-size="10.00">set</text>
</a>
</g>
</g>
<!-- Node3&#45;&gt;Node6 -->
<g id="edge5" class="edge">
<title>Node3&#45;&gt;Node6</title>
<path fill="none" stroke="#63b8ff" d="M242.54,-164.75C238.88,-157.57 233.59,-147.18 229.05,-138.27"/>
<polygon fill="#63b8ff" stroke="#63b8ff" points="232.03,-136.41 224.38,-129.09 225.8,-139.59 232.03,-136.41"/>
</g>
<!-- Node7 -->
<g id="node7" class="node">
<title>Node7</title>
<g id="a_node7"><a xlink:title=" ">
<polygon fill="#e0e0e0" stroke="#999999" points="292,-129 254,-129 254,-110 292,-110 292,-129"/>
<text text-anchor="middle" x="273" y="-117" font-family="Helvetica,sans-Serif" font-size="10.00">map</text>
</a>
</g>
</g>
<!-- Node3&#45;&gt;Node7 -->
<g id="edge6" class="edge">
<title>Node3&#45;&gt;Node7</title>
<path fill="none" stroke="#63b8ff" d="M251.29,-164.75C254.81,-157.57 259.91,-147.18 264.28,-138.27"/>
<polygon fill="#63b8ff" stroke="#63b8ff" points="267.52,-139.61 268.79,-129.09 261.24,-136.53 267.52,-139.61"/>
</g>
<!-- Node8 -->
<g id="node8" class="node">
<title>Node8</title>
<g id="a_node8"><a xlink:title=" ">
<polygon fill="#e0e0e0" stroke="#999999" points="86,-129 0,-129 0,-110 86,-110 86,-129"/>
<text text-anchor="middle" x="43" y="-117" font-family="Helvetica,sans-Serif" font-size="10.00">unordered_set</text>
</a>
</g>
</g>
<!-- Node3&#45;&gt;Node8 -->
<g id="edge7" class="edge">
<title>Node3&#45;&gt;Node8</title>
<path fill="none" stroke="#63b8ff" d="M214.22,-164.98C179.38,-155.93 124.13,-141.58 85.86,-131.64"/>
<polygon fill="#63b8ff" stroke="#63b8ff" points="86.59,-128.21 76.03,-129.08 84.83,-134.98 86.59,-128.21"/>
</g>
<!-- Node9 -->
<g id="node9" class="node">
<title>Node9</title>
<g id="a_node9"><a xlink:title=" ">
<polygon fill="#e0e0e0" stroke="#999999" points="403.5,-129 310.5,-129 310.5,-110 403.5,-110 403.5,-129"/>
<text text-anchor="middle" x="357" y="-117" font-family="Helvetica,sans-Serif" font-size="10.00">unordered_map</text>
</a>
</g>
</g>
<!-- Node3&#45;&gt;Node9 -->
<g id="edge8" class="edge">
<title>Node3&#45;&gt;Node9</title>
<path fill="none" stroke="#63b8ff" d="M264.67,-164.98C282.29,-156.5 309.58,-143.35 329.93,-133.54"/>
<polygon fill="#63b8ff" stroke="#63b8ff" points="331.52,-136.66 339.01,-129.17 328.48,-130.36 331.52,-136.66"/>
</g>
<!-- Node10 -->
<g id="node10" class="node">
<title>Node10</title>
<g id="a_node10"><a xlink:title=" ">
<polygon fill="#e0e0e0" stroke="#999999" points="147.5,-129 104.5,-129 104.5,-110 147.5,-110 147.5,-129"/>
<text text-anchor="middle" x="126" y="-117" font-family="Helvetica,sans-Serif" font-size="10.00">stack</text>
</a>
</g>
</g>
<!-- Node3&#45;&gt;Node10 -->
<g id="edge9" class="edge">
<title>Node3&#45;&gt;Node10</title>
<path fill="none" stroke="#63b8ff" d="M227.56,-164.98C208.01,-156.42 177.62,-143.11 155.18,-133.28"/>
<polygon fill="#63b8ff" stroke="#63b8ff" points="156.36,-129.98 145.79,-129.17 153.55,-136.39 156.36,-129.98"/>
</g>
<!-- Node12 -->
<g id="node12" class="node">
<title>Node12</title>
<g id="a_node12"><a xlink:title=" ">
<polygon fill="#e0e0e0" stroke="#999999" points="918,-74 860,-74 860,-55 918,-55 918,-74"/>
<text text-anchor="middle" x="889" y="-62" font-family="Helvetica,sans-Serif" font-size="10.00">memory</text>
</a>
</g>
</g>
<!-- Node11&#45;&gt;Node12 -->
<g id="edge11" class="edge">
<title>Node11&#45;&gt;Node12</title>
<path fill="none" stroke="#63b8ff" d="M614.91,-164.79C636.77,-151.41 680.83,-125.71 721,-110 744.3,-100.89 807.91,-84.91 849.82,-74.78"/>
<polygon fill="#63b8ff" stroke="#63b8ff" points="850.81,-78.14 859.72,-72.4 849.17,-71.34 850.81,-78.14"/>
</g>
<!-- Node11&#45;&gt;Node13 -->
<g id="edge12" class="edge">
<title>Node11&#45;&gt;Node13</title>
<path fill="none" stroke="#63b8ff" d="M594.56,-164.75C589.11,-157.34 581.14,-146.5 574.44,-137.41"/>
<polygon fill="#63b8ff" stroke="#63b8ff" points="577.07,-135.07 568.32,-129.09 571.43,-139.22 577.07,-135.07"/>
</g>
<!-- Node13&#45;&gt;Node5 -->
<g id="edge13" class="edge">
<title>Node13&#45;&gt;Node5</title>
<path fill="none" stroke="#63b8ff" d="M529.37,-115.69C472.38,-110.24 357.63,-96.74 325,-74 309.22,-63.01 298.91,-43.16 293.06,-28.57"/>
<polygon fill="#63b8ff" stroke="#63b8ff" points="296.3,-27.26 289.57,-19.08 289.73,-29.68 296.3,-27.26"/>
</g>
<!-- Node14 -->
<g id="node14" class="node">
<title>Node14</title>
<g id="a_node14"><a xlink:title=" ">
<polygon fill="#e0e0e0" stroke="#999999" points="774,-74 710,-74 710,-55 774,-55 774,-74"/>
<text text-anchor="middle" x="742" y="-62" font-family="Helvetica,sans-Serif" font-size="10.00">algorithm</text>
</a>
</g>
</g>
<!-- Node13&#45;&gt;Node14 -->
<g id="edge14" class="edge">
<title>Node13&#45;&gt;Node14</title>
<path fill="none" stroke="#63b8ff" d="M590.92,-109.98C621.27,-101.05 669.17,-86.94 702.88,-77.02"/>
<polygon fill="#63b8ff" stroke="#63b8ff" points="704.25,-80.26 712.85,-74.08 702.27,-73.55 704.25,-80.26"/>
</g>
<!-- Node15 -->
<g id="node15" class="node">
<title>Node15</title>
<g id="a_node15"><a xlink:title=" ">
<polygon fill="#e0e0e0" stroke="#999999" points="841.5,-74 792.5,-74 792.5,-55 841.5,-55 841.5,-74"/>
<text text-anchor="middle" x="817" y="-62" font-family="Helvetica,sans-Serif" font-size="10.00">cctype</text>
</a>
</g>
</g>
<!-- Node13&#45;&gt;Node15 -->
<g id="edge15" class="edge">
<title>Node13&#45;&gt;Node15</title>
<path fill="none" stroke="#63b8ff" d="M594.68,-112.41C636.04,-104.59 709.7,-90.32 782.37,-74.06"/>
<polygon fill="#63b8ff" stroke="#63b8ff" points="783.16,-77.47 792.15,-71.85 781.62,-70.64 783.16,-77.47"/>
</g>
<!-- Node16 -->
<g id="node16" class="node">
<title>Node16</title>
<g id="a_node16"><a xlink:title=" ">
<polygon fill="#e0e0e0" stroke="#999999" points="384,-74 334,-74 334,-55 384,-55 384,-74"/>
<text text-anchor="middle" x="359" y="-62" font-family="Helvetica,sans-Serif" font-size="10.00">cstring</text>
</a>
</g>
</g>
<!-- Node13&#45;&gt;Node16 -->
<g id="edge16" class="edge">
<title>Node13&#45;&gt;Node16</title>
<path fill="none" stroke="#63b8ff" d="M529.38,-109.98C492.4,-100.33 432.32,-84.64 394.27,-74.71"/>
<polygon fill="#63b8ff" stroke="#63b8ff" points="394.72,-71.21 384.16,-72.07 392.95,-77.98 394.72,-71.21"/>
</g>
<!-- Node17 -->
<g id="node17" class="node">
<title>Node17</title>
<g id="a_node17"><a xlink:title=" ">
<polygon fill="#e0e0e0" stroke="#999999" points="448,-74 402,-74 402,-55 448,-55 448,-74"/>
<text text-anchor="middle" x="425" y="-62" font-family="Helvetica,sans-Serif" font-size="10.00">cstdio</text>
</a>
</g>
</g>
<!-- Node13&#45;&gt;Node17 -->
<g id="edge17" class="edge">
<title>Node13&#45;&gt;Node17</title>
<path fill="none" stroke="#63b8ff" d="M539.99,-109.98C517.55,-101.3 482.52,-87.75 457.01,-77.88"/>
<polygon fill="#63b8ff" stroke="#63b8ff" points="458,-74.51 447.41,-74.17 455.48,-81.04 458,-74.51"/>
</g>
<!-- Node18 -->
<g id="node18" class="node">
<title>Node18</title>
<g id="a_node18"><a xlink:title=" ">
<polygon fill="#e0e0e0" stroke="#999999" points="515.5,-74 466.5,-74 466.5,-55 515.5,-55 515.5,-74"/>
<text text-anchor="middle" x="491" y="-62" font-family="Helvetica,sans-Serif" font-size="10.00">cstdlib</text>
</a>
</g>
</g>
<!-- Node13&#45;&gt;Node18 -->
<g id="edge18" class="edge">
<title>Node13&#45;&gt;Node18</title>
<path fill="none" stroke="#63b8ff" d="M550.59,-109.98C539.89,-102 523.66,-89.88 510.84,-80.31"/>
<polygon fill="#63b8ff" stroke="#63b8ff" points="512.72,-77.35 502.61,-74.17 508.53,-82.96 512.72,-77.35"/>
</g>
<!-- Node19 -->
<g id="node19" class="node">
<title>Node19</title>
<g id="a_node19"><a xlink:title=" ">
<polygon fill="#e0e0e0" stroke="#999999" points="681,-19 631,-19 631,0 681,0 681,-19"/>
<text text-anchor="middle" x="656" y="-7" font-family="Helvetica,sans-Serif" font-size="10.00">cstdint</text>
</a>
</g>
</g>
<!-- Node13&#45;&gt;Node19 -->
<g id="edge19" class="edge">
<title>Node13&#45;&gt;Node19</title>
<path fill="none" stroke="#63b8ff" d="M594.6,-113.46C617.73,-108 647.2,-96.79 662,-74 670.66,-60.66 667.72,-42.31 663.46,-28.76"/>
<polygon fill="#63b8ff" stroke="#63b8ff" points="666.66,-27.32 659.97,-19.11 660.08,-29.71 666.66,-27.32"/>
</g>
<!-- Node20 -->
<g id="node20" class="node">
<title>Node20</title>
<g id="a_node20"><a xlink:title=" ">
<polygon fill="#e0e0e0" stroke="#999999" points="590.5,-74 533.5,-74 533.5,-55 590.5,-55 590.5,-74"/>
<text text-anchor="middle" x="562" y="-62" font-family="Helvetica,sans-Serif" font-size="10.00">ostream</text>
</a>
</g>
</g>
<!-- Node13&#45;&gt;Node20 -->
<g id="edge20" class="edge">
<title>Node13&#45;&gt;Node20</title>
<path fill="none" stroke="#63b8ff" d="M562,-109.75C562,-102.8 562,-92.85 562,-84.13"/>
<polygon fill="#63b8ff" stroke="#63b8ff" points="565.5,-84.09 562,-74.09 558.5,-84.09 565.5,-84.09"/>
</g>
<!-- Node21 -->
<g id="node21" class="node">
<title>Node21</title>
<g id="a_node21"><a xlink:href="../../db/d7c/utf8_8h.html" target="_top" xlink:title="Various UTF8 related helper functions.">
<polygon fill="white" stroke="#666666" points="653.5,-74 608.5,-74 608.5,-55 653.5,-55 653.5,-74"/>
<text text-anchor="middle" x="631" y="-62" font-family="Helvetica,sans-Serif" font-size="10.00">utf8.h</text>
</a>
</g>
</g>
<!-- Node13&#45;&gt;Node21 -->
<g id="edge21" class="edge">
<title>Node13&#45;&gt;Node21</title>
<path fill="none" stroke="#63b8ff" d="M573.09,-109.98C583.49,-102 599.26,-89.88 611.72,-80.31"/>
<polygon fill="#63b8ff" stroke="#63b8ff" points="613.91,-83.04 619.71,-74.17 609.65,-77.49 613.91,-83.04"/>
</g>
<!-- Node21&#45;&gt;Node5 -->
<g id="edge23" class="edge">
<title>Node21&#45;&gt;Node5</title>
<path fill="none" stroke="#63b8ff" d="M608.35,-57.13C605.22,-56.35 602.04,-55.62 599,-55 497.75,-34.41 376.12,-19.98 319.26,-13.83"/>
<polygon fill="#63b8ff" stroke="#63b8ff" points="319.41,-10.33 309.09,-12.74 318.66,-17.29 319.41,-10.33"/>
</g>
<!-- Node21&#45;&gt;Node19 -->
<g id="edge22" class="edge">
<title>Node21&#45;&gt;Node19</title>
<path fill="none" stroke="#63b8ff" d="M635.13,-54.75C638.51,-47.57 643.42,-37.18 647.62,-28.27"/>
<polygon fill="#63b8ff" stroke="#63b8ff" points="650.85,-29.63 651.95,-19.09 644.52,-26.64 650.85,-29.63"/>
</g>
<!-- Node22&#45;&gt;Node4 -->
<g id="edge26" class="edge">
<title>Node22&#45;&gt;Node4</title>
<path fill="none" stroke="#63b8ff" d="M768.87,-228.22C817.34,-226.53 908.12,-218.54 976,-184 1013.24,-165.05 1054.57,-146.37 1034,-110 1025.14,-94.33 1008.31,-83.57 992.94,-76.56"/>
<polygon fill="#63b8ff" stroke="#63b8ff" points="994.21,-73.3 983.64,-72.67 991.51,-79.76 994.21,-73.3"/>
</g>
<!-- Node22&#45;&gt;Node11 -->
<g id="edge30" class="edge">
<title>Node22&#45;&gt;Node11</title>
<path fill="none" stroke="#63b8ff" d="M713.47,-219.98C691.53,-211.3 657.26,-197.75 632.31,-187.88"/>
<polygon fill="#63b8ff" stroke="#63b8ff" points="633.51,-184.59 622.92,-184.17 630.93,-191.1 633.51,-184.59"/>
</g>
<!-- Node22&#45;&gt;Node12 -->
<g id="edge27" class="edge">
<title>Node22&#45;&gt;Node12</title>
<path fill="none" stroke="#63b8ff" d="M735.82,-219.94C737.43,-207 741.95,-182.13 754,-165 781.97,-125.25 830.87,-95.03 861.5,-78.82"/>
<polygon fill="#63b8ff" stroke="#63b8ff" points="863.47,-81.74 870.76,-74.05 860.27,-75.52 863.47,-81.74"/>
</g>
<!-- Node22&#45;&gt;Node13 -->
<g id="edge29" class="edge">
<title>Node22&#45;&gt;Node13</title>
<path fill="none" stroke="#63b8ff" d="M701.16,-225.05C654.14,-219.47 572.81,-206.75 555,-184 545.08,-171.33 548.65,-152.64 553.6,-138.81"/>
<polygon fill="#63b8ff" stroke="#63b8ff" points="556.92,-139.95 557.46,-129.37 550.44,-137.3 556.92,-139.95"/>
</g>
<!-- Node23 -->
<g id="node23" class="node">
<title>Node23</title>
<g id="a_node23"><a xlink:title=" ">
<polygon fill="#e0e0e0" stroke="#999999" points="927,-129 877,-129 877,-110 927,-110 927,-129"/>
<text text-anchor="middle" x="902" y="-117" font-family="Helvetica,sans-Serif" font-size="10.00">stdio.h</text>
</a>
</g>
</g>
<!-- Node22&#45;&gt;Node23 -->
<g id="edge25" class="edge">
<title>Node22&#45;&gt;Node23</title>
<path fill="none" stroke="#63b8ff" d="M768.61,-226.07C820.49,-221.54 916.25,-209.82 937,-184 948.98,-169.1 934.42,-149.53 920.6,-136.07"/>
<polygon fill="#63b8ff" stroke="#63b8ff" points="922.92,-133.45 913.18,-129.3 918.2,-138.62 922.92,-133.45"/>
</g>
<!-- Node24 -->
<g id="node24" class="node">
<title>Node24</title>
<g id="a_node24"><a xlink:title=" ">
<polygon fill="#e0e0e0" stroke="#999999" points="706.5,-184 655.5,-184 655.5,-165 706.5,-165 706.5,-184"/>
<text text-anchor="middle" x="681" y="-172" font-family="Helvetica,sans-Serif" font-size="10.00">variant</text>
</a>
</g>
</g>
<!-- Node22&#45;&gt;Node24 -->
<g id="edge28" class="edge">
<title>Node22&#45;&gt;Node24</title>
<path fill="none" stroke="#63b8ff" d="M726.08,-219.75C718.22,-212.03 706.57,-200.6 697.08,-191.28"/>
<polygon fill="#63b8ff" stroke="#63b8ff" points="699.34,-188.6 689.75,-184.09 694.44,-193.59 699.34,-188.6"/>
</g>
<!-- Node25 -->
<g id="node25" class="node">
<title>Node25</title>
<g id="a_node25"><a xlink:href="../../de/d9c/docparser_8h.html" target="_top" xlink:title=" ">
<polygon fill="white" stroke="#666666" points="928.5,-184 855.5,-184 855.5,-165 928.5,-165 928.5,-184"/>
<text text-anchor="middle" x="892" y="-172" font-family="Helvetica,sans-Serif" font-size="10.00">docparser.h</text>
</a>
</g>
</g>
<!-- Node22&#45;&gt;Node25 -->
<g id="edge31" class="edge">
<title>Node22&#45;&gt;Node25</title>
<path fill="none" stroke="#63b8ff" d="M760.22,-219.98C786.36,-211.16 827.4,-197.31 856.73,-187.41"/>
<polygon fill="#63b8ff" stroke="#63b8ff" points="858.22,-190.6 866.58,-184.08 855.98,-183.96 858.22,-190.6"/>
</g>
<!-- Node26 -->
<g id="node26" class="node">
<title>Node26</title>
<g id="a_node26"><a xlink:href="../../d7/d50/growvector_8h.html" target="_top" xlink:title=" ">
<polygon fill="white" stroke="#666666" points="1025,-129 945,-129 945,-110 1025,-110 1025,-129"/>
<text text-anchor="middle" x="985" y="-117" font-family="Helvetica,sans-Serif" font-size="10.00">growvector.h</text>
</a>
</g>
</g>
<!-- Node22&#45;&gt;Node26 -->
<g id="edge46" class="edge">
<title>Node22&#45;&gt;Node26</title>
<path fill="none" stroke="#63b8ff" d="M768.77,-225.29C822.79,-219.57 925.46,-206.08 954,-184 968.38,-172.87 976.5,-153.34 980.79,-138.87"/>
<polygon fill="#63b8ff" stroke="#63b8ff" points="984.22,-139.57 983.36,-129.01 977.45,-137.81 984.22,-139.57"/>
</g>
<!-- Node28 -->
<g id="node28" class="node">
<title>Node28</title>
<g id="a_node28"><a xlink:href="../../d0/d73/htmlattrib_8h.html" target="_top" xlink:title=" ">
<polygon fill="white" stroke="#666666" points="837,-184 763,-184 763,-165 837,-165 837,-184"/>
<text text-anchor="middle" x="800" y="-172" font-family="Helvetica,sans-Serif" font-size="10.00">htmlattrib.h</text>
</a>
</g>
</g>
<!-- Node22&#45;&gt;Node28 -->
<g id="edge39" class="edge">
<title>Node22&#45;&gt;Node28</title>
<path fill="none" stroke="#63b8ff" d="M745.44,-219.98C755.15,-212.07 769.82,-200.11 781.5,-190.58"/>
<polygon fill="#63b8ff" stroke="#63b8ff" points="783.83,-193.2 789.37,-184.17 779.4,-187.78 783.83,-193.2"/>
</g>
<!-- Node29 -->
<g id="node29" class="node">
<title>Node29</title>
<g id="a_node29"><a xlink:href="../../db/dc6/htmlentity_8h.html" target="_top" xlink:title=" ">
<polygon fill="white" stroke="#666666" points="469.5,-184 394.5,-184 394.5,-165 469.5,-165 469.5,-184"/>
<text text-anchor="middle" x="432" y="-172" font-family="Helvetica,sans-Serif" font-size="10.00">htmlentity.h</text>
</a>
</g>
</g>
<!-- Node22&#45;&gt;Node29 -->
<g id="edge42" class="edge">
<title>Node22&#45;&gt;Node29</title>
<path fill="none" stroke="#63b8ff" d="M701.42,-222.63C647.41,-213.18 541.09,-194.58 479.39,-183.79"/>
<polygon fill="#63b8ff" stroke="#63b8ff" points="479.97,-180.34 469.52,-182.06 478.77,-187.23 479.97,-180.34"/>
</g>
<!-- Node25&#45;&gt;Node12 -->
<g id="edge33" class="edge">
<title>Node25&#45;&gt;Node12</title>
<path fill="none" stroke="#63b8ff" d="M885.63,-164.84C879.74,-156.25 871.39,-142.45 868,-129 863.97,-113.03 870.85,-95.26 877.79,-82.59"/>
<polygon fill="#63b8ff" stroke="#63b8ff" points="880.8,-84.39 882.93,-74.01 874.79,-80.79 880.8,-84.39"/>
</g>
<!-- Node25&#45;&gt;Node13 -->
<g id="edge34" class="edge">
<title>Node25&#45;&gt;Node13</title>
<path fill="none" stroke="#63b8ff" d="M855.36,-166.64C852.19,-166.07 849.04,-165.52 846,-165 760.73,-150.44 660.74,-135.2 605.05,-126.87"/>
<polygon fill="#63b8ff" stroke="#63b8ff" points="605.25,-123.36 594.85,-125.35 604.22,-130.29 605.25,-123.36"/>
</g>
<!-- Node25&#45;&gt;Node23 -->
<g id="edge32" class="edge">
<title>Node25&#45;&gt;Node23</title>
<path fill="none" stroke="#63b8ff" d="M893.65,-164.75C894.96,-157.8 896.84,-147.85 898.48,-139.13"/>
<polygon fill="#63b8ff" stroke="#63b8ff" points="901.96,-139.56 900.38,-129.09 895.09,-138.27 901.96,-139.56"/>
</g>
<!-- Node25&#45;&gt;Node26 -->
<g id="edge35" class="edge">
<title>Node25&#45;&gt;Node26</title>
<path fill="none" stroke="#63b8ff" d="M906.94,-164.98C921.5,-156.69 943.87,-143.94 960.93,-134.22"/>
<polygon fill="#63b8ff" stroke="#63b8ff" points="962.83,-137.16 969.79,-129.17 959.36,-131.08 962.83,-137.16"/>
</g>
<!-- Node26&#45;&gt;Node4 -->
<g id="edge36" class="edge">
<title>Node26&#45;&gt;Node4</title>
<path fill="none" stroke="#63b8ff" d="M980.87,-109.75C977.49,-102.57 972.58,-92.18 968.38,-83.27"/>
<polygon fill="#63b8ff" stroke="#63b8ff" points="971.48,-81.64 964.05,-74.09 965.15,-84.63 971.48,-81.64"/>
</g>
<!-- Node26&#45;&gt;Node12 -->
<g id="edge37" class="edge">
<title>Node26&#45;&gt;Node12</title>
<path fill="none" stroke="#63b8ff" d="M969.58,-109.98C954.55,-101.69 931.46,-88.94 913.84,-79.22"/>
<polygon fill="#63b8ff" stroke="#63b8ff" points="915.15,-75.94 904.7,-74.17 911.77,-82.07 915.15,-75.94"/>
</g>
<!-- Node27 -->
<g id="node27" class="node">
<title>Node27</title>
<g id="a_node27"><a xlink:title=" ">
<polygon fill="#e0e0e0" stroke="#999999" points="1054.5,-74 1001.5,-74 1001.5,-55 1054.5,-55 1054.5,-74"/>
<text text-anchor="middle" x="1028" y="-62" font-family="Helvetica,sans-Serif" font-size="10.00">iterator</text>
</a>
</g>
</g>
<!-- Node26&#45;&gt;Node27 -->
<g id="edge38" class="edge">
<title>Node26&#45;&gt;Node27</title>
<path fill="none" stroke="#63b8ff" d="M992.1,-109.75C998.17,-102.26 1007.09,-91.28 1014.51,-82.13"/>
<polygon fill="#63b8ff" stroke="#63b8ff" points="1017.45,-84.06 1021.03,-74.09 1012.01,-79.65 1017.45,-84.06"/>
</g>
<!-- Node28&#45;&gt;Node4 -->
<g id="edge40" class="edge">
<title>Node28&#45;&gt;Node4</title>
<path fill="none" stroke="#63b8ff" d="M807.68,-164.82C819.61,-151.7 843.75,-126.62 868,-110 886.86,-97.08 910.04,-85.89 928.41,-77.96"/>
<polygon fill="#63b8ff" stroke="#63b8ff" points="929.94,-81.12 937.8,-74.02 927.22,-74.67 929.94,-81.12"/>
</g>
<!-- Node28&#45;&gt;Node13 -->
<g id="edge41" class="edge">
<title>Node28&#45;&gt;Node13</title>
<path fill="none" stroke="#63b8ff" d="M762.81,-165.22C720,-155.68 649.8,-140.05 604.76,-130.02"/>
<polygon fill="#63b8ff" stroke="#63b8ff" points="605.24,-126.54 594.72,-127.79 603.72,-133.38 605.24,-126.54"/>
</g>
<!-- Node29&#45;&gt;Node5 -->
<g id="edge44" class="edge">
<title>Node29&#45;&gt;Node5</title>
<path fill="none" stroke="#63b8ff" d="M431.68,-164.85C430.72,-151.33 426.91,-125.16 412,-110 376.52,-73.93 338.68,-110.84 304,-74 292.64,-61.94 288.7,-43.13 287.41,-29.11"/>
<polygon fill="#63b8ff" stroke="#63b8ff" points="290.91,-28.91 286.86,-19.12 283.92,-29.29 290.91,-28.91"/>
</g>
<!-- Node29&#45;&gt;Node9 -->
<g id="edge43" class="edge">
<title>Node29&#45;&gt;Node9</title>
<path fill="none" stroke="#63b8ff" d="M419.95,-164.98C408.54,-156.92 391.17,-144.65 377.57,-135.03"/>
<polygon fill="#63b8ff" stroke="#63b8ff" points="379.46,-132.08 369.27,-129.17 375.42,-137.8 379.46,-132.08"/>
</g>
<!-- Node29&#45;&gt;Node13 -->
<g id="edge45" class="edge">
<title>Node29&#45;&gt;Node13</title>
<path fill="none" stroke="#63b8ff" d="M452.89,-164.98C474.08,-156.34 507.13,-142.87 531.3,-133.02"/>
<polygon fill="#63b8ff" stroke="#63b8ff" points="532.79,-136.19 540.73,-129.17 530.15,-129.7 532.79,-136.19"/>
</g>
</g>
</svg>
        <g id="navigator" transform="translate(0 0)" fill="#404254">
                <rect fill="#f2f5e9" fill-opacity="0.5" stroke="#606060" stroke-width=".5" x="0" y="0" width="60" height="60"/>
                <use id="zoomplus" xlink:href="#zoomPlus" x="17" y="9" onmousedown="handleZoom(evt,'in')"/>
                <use id="zoomminus" xlink:href="#zoomMin" x="42" y="9" onmousedown="handleZoom(evt,'out')"/>
                <use id="reset" xlink:href="#resetDef" x="30" y="36" onmousedown="handleReset()"/>
                <g id="arrowUp" xlink:href="#dirArrow" transform="translate(30 24)" onmousedown="handlePan(0,-1)">
                  <use xlink:href="#rim" fill="#404040">
                        <set attributeName="fill" to="#808080" begin="arrowUp.mouseover" end="arrowUp.mouseout"/>
                  </use>
                  <path fill="none" stroke="white" stroke-width="1.5" d="M0,-3.0v7 M-2.5,-0.5L0,-3.0L2.5,-0.5"/>
                </g>
                <g id="arrowRight" xlink:href="#dirArrow" transform="rotate(90) translate(36 -43)" onmousedown="handlePan(1,0)">
                  <use xlink:href="#rim" fill="#404040">
                        <set attributeName="fill" to="#808080" begin="arrowRight.mouseover" end="arrowRight.mouseout"/>
                  </use>
                  <path fill="none" stroke="white" stroke-width="1.5" d="M0,-3.0v7 M-2.5,-0.5L0,-3.0L2.5,-0.5"/>
                </g>
                <g id="arrowDown" xlink:href="#dirArrow" transform="rotate(180) translate(-30 -48)" onmousedown="handlePan(0,1)">
                  <use xlink:href="#rim" fill="#404040">
                        <set attributeName="fill" to="#808080" begin="arrowDown.mouseover" end="arrowDown.mouseout"/>
                  </use>
                  <path fill="none" stroke="white" stroke-width="1.5" d="M0,-3.0v7 M-2.5,-0.5L0,-3.0L2.5,-0.5"/>
                </g>
                <g id="arrowLeft" xlink:href="#dirArrow" transform="rotate(270) translate(-36 17)" onmousedown="handlePan(-1,0)">
                  <use xlink:href="#rim" fill="#404040">
                        <set attributeName="fill" to="#808080" begin="arrowLeft.mouseover" end="arrowLeft.mouseout"/>
                  </use>
                  <path fill="none" stroke="white" stroke-width="1.5" d="M0,-3.0v7 M-2.5,-0.5L0,-3.0L2.5,-0.5"/>
                </g>
        </g>
        <svg viewBox="0 0 15 15" width="100%" height="30px" preserveAspectRatio="xMaxYMin meet">
         <g id="arrow_out" transform="scale(0.3 0.3)">
          <a xlink:href="docbookvisitor_8h__incl_org.svg" target="_base">
           <rect id="button" ry="5" rx="5" y="6" x="6" height="38" width="38"
                fill="#f2f5e9" fill-opacity="0.5" stroke="#606060" stroke-width="1.0"/>
           <path id="arrow"
             d="M 11.500037,31.436501 C 11.940474,20.09759 22.043105,11.32322 32.158766,21.979434 L 37.068811,17.246167 C 37.068811,17.246167 37.088388,32 37.088388,32 L 22.160133,31.978069 C 22.160133,31.978069 26.997745,27.140456 26.997745,27.140456 C 18.528582,18.264221 13.291696,25.230495 11.500037,31.436501 z"
             style="fill:#404040;"/>
          </a>
         </g>
        </svg>
</svg>
