<?xml version="1.0" encoding="UTF-8" standalone="no"?>
<!DOCTYPE svg PUBLIC "-//W3C//DTD SVG 1.1//EN"
 "http://www.w3.org/Graphics/SVG/1.1/DTD/svg11.dtd">
<!-- Generated by graphviz version 2.43.0 (0)
 -->
<!-- Title: RTFGenerator Pages: 1 -->
<svg width="596pt" height="229pt"
 viewBox="0.00 0.00 596.00 229.00" xmlns="http://www.w3.org/2000/svg" xmlns:xlink="http://www.w3.org/1999/xlink">
<g id="graph0" class="graph" transform="scale(1 1) rotate(0) translate(4 225)">
<title>RTFGenerator</title>
<!-- Node1 -->
<g id="node1" class="node">
<title>Node1</title>
<g id="a_node1"><a xlink:title="Generator for RTF output.">
<polygon fill="#999999" stroke="#666666" points="351.5,-19 268.5,-19 268.5,0 351.5,0 351.5,-19"/>
<text text-anchor="middle" x="310" y="-7" font-family="Helvetica,sans-Serif" font-size="10.00">RTFGenerator</text>
</a>
</g>
</g>
<!-- Node2 -->
<g id="node2" class="node">
<title>Node2</title>
<g id="a_node2"><a xlink:href="../../d3/d8e/class_output_generator.html" target="_top" xlink:title="Abstract output generator.">
<polygon fill="white" stroke="#666666" points="257,-86.5 159,-86.5 159,-67.5 257,-67.5 257,-86.5"/>
<text text-anchor="middle" x="208" y="-74.5" font-family="Helvetica,sans-Serif" font-size="10.00">OutputGenerator</text>
</a>
</g>
</g>
<!-- Node2&#45;&gt;Node1 -->
<g id="edge1" class="edge">
<title>Node2&#45;&gt;Node1</title>
<path fill="none" stroke="#63b8ff" d="M229.93,-61.92C250.21,-48.89 279.71,-29.95 296.66,-19.07"/>
<polygon fill="#63b8ff" stroke="#63b8ff" points="227.86,-59.09 221.33,-67.44 231.64,-64.98 227.86,-59.09"/>
</g>
<!-- Node3 -->
<g id="node3" class="node">
<title>Node3</title>
<g id="a_node3"><a xlink:href="../../df/d27/class_base_output_doc_interface.html" target="_top" xlink:title="Base Interface used for generating output outside of the comment blocks.">
<polygon fill="white" stroke="#666666" points="136,-165 0,-165 0,-146 136,-146 136,-165"/>
<text text-anchor="middle" x="68" y="-153" font-family="Helvetica,sans-Serif" font-size="10.00">BaseOutputDocInterface</text>
</a>
</g>
</g>
<!-- Node3&#45;&gt;Node2 -->
<g id="edge2" class="edge">
<title>Node3&#45;&gt;Node2</title>
<path fill="none" stroke="#63b8ff" d="M92.77,-140.96C121.44,-125.3 167.8,-99.97 192.06,-86.71"/>
<polygon fill="#63b8ff" stroke="#63b8ff" points="90.88,-138.01 83.79,-145.87 94.24,-144.15 90.88,-138.01"/>
</g>
<!-- Node4 -->
<g id="node4" class="node">
<title>Node4</title>
<g id="a_node4"><a xlink:href="../../d5/d9c/class_code_output_interface.html" target="_top" xlink:title="Output interface for code parser.">
<polygon fill="white" stroke="#666666" points="127,-221 9,-221 9,-202 127,-202 127,-221"/>
<text text-anchor="middle" x="68" y="-209" font-family="Helvetica,sans-Serif" font-size="10.00">CodeOutputInterface</text>
</a>
</g>
</g>
<!-- Node4&#45;&gt;Node3 -->
<g id="edge3" class="edge">
<title>Node4&#45;&gt;Node3</title>
<path fill="none" stroke="#63b8ff" d="M68,-191.3C68,-182.41 68,-172.28 68,-165.25"/>
<polygon fill="#63b8ff" stroke="#63b8ff" points="64.5,-191.58 68,-201.58 71.5,-191.58 64.5,-191.58"/>
</g>
<!-- Node5 -->
<g id="node5" class="node">
<title>Node5</title>
<g id="a_node5"><a xlink:href="../../d3/d30/class_text_stream.html" target="_top" xlink:title="Text streaming class that buffers data.">
<polygon fill="white" stroke="#666666" points="226,-165 154,-165 154,-146 226,-146 226,-165"/>
<text text-anchor="middle" x="190" y="-153" font-family="Helvetica,sans-Serif" font-size="10.00">TextStream</text>
</a>
</g>
</g>
<!-- Node5&#45;&gt;Node2 -->
<g id="edge4" class="edge">
<title>Node5&#45;&gt;Node2</title>
<path fill="none" stroke="#9a32cd" stroke-dasharray="5,2" d="M188.13,-135.43C187.8,-126.35 188.25,-115.44 191,-106 193.03,-99.01 197.28,-92.01 201.03,-86.76"/>
<polygon fill="#9a32cd" stroke="#9a32cd" points="184.66,-135.97 188.84,-145.71 191.64,-135.49 184.66,-135.97"/>
<text text-anchor="middle" x="202" y="-114.5" font-family="Helvetica,sans-Serif" font-size="10.00"> m_t</text>
</g>
<!-- Node6 -->
<g id="node6" class="node">
<title>Node6</title>
<g id="a_node6"><a xlink:href="../../d9/d45/class_q_c_string.html" target="_top" xlink:title="This is an alternative implementation of QCString.">
<polygon fill="white" stroke="#666666" points="321.5,-165 262.5,-165 262.5,-146 321.5,-146 321.5,-165"/>
<text text-anchor="middle" x="292" y="-153" font-family="Helvetica,sans-Serif" font-size="10.00">QCString</text>
</a>
</g>
</g>
<!-- Node6&#45;&gt;Node1 -->
<g id="edge6" class="edge">
<title>Node6&#45;&gt;Node1</title>
<path fill="none" stroke="#9a32cd" stroke-dasharray="5,2" d="M294.91,-135.69C295.29,-133.11 295.66,-130.49 296,-128 301.5,-87.28 306.95,-38.47 309.07,-19.06"/>
<polygon fill="#9a32cd" stroke="#9a32cd" points="291.44,-135.27 293.4,-145.68 298.36,-136.31 291.44,-135.27"/>
<text text-anchor="middle" x="351" y="-80" font-family="Helvetica,sans-Serif" font-size="10.00"> m_relPath</text>
<text text-anchor="middle" x="351" y="-69" font-family="Helvetica,sans-Serif" font-size="10.00">m_sourceFileName</text>
</g>
<!-- Node6&#45;&gt;Node2 -->
<g id="edge5" class="edge">
<title>Node6&#45;&gt;Node2</title>
<path fill="none" stroke="#9a32cd" stroke-dasharray="5,2" d="M256.31,-141.68C249.05,-138 241.86,-133.47 236,-128 223.49,-116.32 215.15,-97.77 211.03,-86.84"/>
<polygon fill="#9a32cd" stroke="#9a32cd" points="254.89,-144.88 265.44,-145.88 257.82,-138.52 254.89,-144.88"/>
<text text-anchor="middle" x="266" y="-120" font-family="Helvetica,sans-Serif" font-size="10.00"> m_dir</text>
<text text-anchor="middle" x="266" y="-109" font-family="Helvetica,sans-Serif" font-size="10.00">m_fileName</text>
</g>
<!-- Node7 -->
<g id="node7" class="node">
<title>Node7</title>
<g id="a_node7"><a xlink:href="../../d3/d18/struct_r_t_f_generator_1_1_r_t_f_list_item_info.html" target="_top" xlink:title=" ">
<polygon fill="white" stroke="#666666" points="588,-86.5 422,-86.5 422,-67.5 588,-67.5 588,-86.5"/>
<text text-anchor="middle" x="505" y="-74.5" font-family="Helvetica,sans-Serif" font-size="10.00">RTFGenerator::RTFListItemInfo</text>
</a>
</g>
</g>
<!-- Node7&#45;&gt;Node1 -->
<g id="edge7" class="edge">
<title>Node7&#45;&gt;Node1</title>
<path fill="none" stroke="#9a32cd" stroke-dasharray="5,2" d="M469.7,-64.14C430.99,-51.14 369.81,-30.59 335.5,-19.07"/>
<polygon fill="#9a32cd" stroke="#9a32cd" points="468.91,-67.57 479.51,-67.44 471.14,-60.93 468.91,-67.57"/>
<text text-anchor="middle" x="457.5" y="-40" font-family="Helvetica,sans-Serif" font-size="10.00"> m_listItemInfo</text>
</g>
</g>
</svg>
