<?xml version="1.0" encoding="UTF-8" standalone="no"?>
<!DOCTYPE svg PUBLIC "-//W3C//DTD SVG 1.1//EN"
 "http://www.w3.org/Graphics/SVG/1.1/DTD/svg11.dtd">
<!-- Generated by graphviz version 2.43.0 (0)
 -->
<!-- Title: RTFGenerator Pages: 1 -->
<svg width="339pt" height="170pt"
 viewBox="0.00 0.00 339.00 170.00" xmlns="http://www.w3.org/2000/svg" xmlns:xlink="http://www.w3.org/1999/xlink">
<g id="graph0" class="graph" transform="scale(1 1) rotate(0) translate(4 166)">
<title>RTFGenerator</title>
<!-- Node1 -->
<g id="node1" class="node">
<title>Node1</title>
<g id="a_node1"><a xlink:title="Generator for RTF output.">
<polygon fill="#999999" stroke="#666666" points="254.5,-19 171.5,-19 171.5,0 254.5,0 254.5,-19"/>
<text text-anchor="middle" x="213" y="-7" font-family="Helvetica,sans-Serif" font-size="10.00">RTFGenerator</text>
</a>
</g>
</g>
<!-- Node2 -->
<g id="node2" class="node">
<title>Node2</title>
<g id="a_node2"><a xlink:href="../../d3/d8e/class_output_generator.html" target="_top" xlink:title="Base class for specific output generators.">
<polygon fill="white" stroke="#666666" points="262,-85 164,-85 164,-66 262,-66 262,-85"/>
<text text-anchor="middle" x="213" y="-73" font-family="Helvetica,sans-Serif" font-size="10.00">OutputGenerator</text>
</a>
</g>
</g>
<!-- Node2&#45;&gt;Node1 -->
<g id="edge1" class="edge">
<title>Node2&#45;&gt;Node1</title>
<path fill="none" stroke="#63b8ff" d="M213,-55.58C213,-43.63 213,-28.72 213,-19.41"/>
<polygon fill="#63b8ff" stroke="#63b8ff" points="209.5,-55.87 213,-65.87 216.5,-55.87 209.5,-55.87"/>
</g>
<!-- Node3 -->
<g id="node3" class="node">
<title>Node3</title>
<g id="a_node3"><a xlink:href="../../d3/d30/class_text_stream.html" target="_top" xlink:title="Text streaming class that buffers data.">
<polygon fill="white" stroke="#666666" points="72,-162 0,-162 0,-143 72,-143 72,-162"/>
<text text-anchor="middle" x="36" y="-150" font-family="Helvetica,sans-Serif" font-size="10.00">TextStream</text>
</a>
</g>
</g>
<!-- Node3&#45;&gt;Node2 -->
<g id="edge2" class="edge">
<title>Node3&#45;&gt;Node2</title>
<path fill="none" stroke="#9a32cd" stroke-dasharray="5,2" d="M45.44,-133.85C52.04,-123.25 61.83,-110.42 74,-103 81.76,-98.27 127.01,-90.15 163.8,-84.14"/>
<polygon fill="#9a32cd" stroke="#9a32cd" points="42.28,-132.33 40.31,-142.74 48.34,-135.83 42.28,-132.33"/>
<text text-anchor="middle" x="85" y="-111.5" font-family="Helvetica,sans-Serif" font-size="10.00" fill="grey"> m_t</text>
</g>
<!-- Node5 -->
<g id="node5" class="node">
<title>Node5</title>
<g id="a_node5"><a xlink:href="../../d2/df7/class_r_t_f_code_generator.html" target="_top" xlink:title="Generator for RTF code fragments.">
<polygon fill="white" stroke="#666666" points="146,-85 38,-85 38,-66 146,-66 146,-85"/>
<text text-anchor="middle" x="92" y="-73" font-family="Helvetica,sans-Serif" font-size="10.00">RTFCodeGenerator</text>
</a>
</g>
</g>
<!-- Node3&#45;&gt;Node5 -->
<g id="edge6" class="edge">
<title>Node3&#45;&gt;Node5</title>
<path fill="none" stroke="#9a32cd" stroke-dasharray="5,2" d="M20.16,-134.91C12.78,-125.11 7,-112.77 14,-103 19.91,-94.75 28.55,-89.03 37.94,-85.08"/>
<polygon fill="#9a32cd" stroke="#9a32cd" points="17.65,-137.35 26.78,-142.72 22.99,-132.83 17.65,-137.35"/>
<text text-anchor="middle" x="25" y="-111.5" font-family="Helvetica,sans-Serif" font-size="10.00" fill="grey"> m_t</text>
</g>
<!-- Node4 -->
<g id="node4" class="node">
<title>Node4</title>
<g id="a_node4"><a xlink:href="../../d9/d45/class_q_c_string.html" target="_top" xlink:title="This is an alternative implementation of QCString.">
<polygon fill="white" stroke="#666666" points="252.5,-162 193.5,-162 193.5,-143 252.5,-143 252.5,-162"/>
<text text-anchor="middle" x="223" y="-150" font-family="Helvetica,sans-Serif" font-size="10.00">QCString</text>
</a>
</g>
</g>
<!-- Node4&#45;&gt;Node1 -->
<g id="edge4" class="edge">
<title>Node4&#45;&gt;Node1</title>
<path fill="none" stroke="#9a32cd" stroke-dasharray="5,2" d="M262.06,-141.96C270.32,-138.07 278.03,-132.63 283,-125 288.34,-116.81 284.53,-112.66 283,-103 280.3,-85.92 280.19,-80.64 271,-66 258.85,-46.64 238.46,-29.31 225.38,-19.35"/>
<polygon fill="#9a32cd" stroke="#9a32cd" points="260.61,-138.77 252.61,-145.71 263.2,-145.27 260.61,-138.77"/>
<text text-anchor="middle" x="305" y="-73" font-family="Helvetica,sans-Serif" font-size="10.00" fill="grey"> m_relPath</text>
</g>
<!-- Node4&#45;&gt;Node2 -->
<g id="edge3" class="edge">
<title>Node4&#45;&gt;Node2</title>
<path fill="none" stroke="#9a32cd" stroke-dasharray="5,2" d="M220.53,-132.97C218.49,-117.65 215.68,-96.59 214.13,-85"/>
<polygon fill="#9a32cd" stroke="#9a32cd" points="217.06,-133.45 221.85,-142.9 224,-132.52 217.06,-133.45"/>
<text text-anchor="middle" x="249" y="-117" font-family="Helvetica,sans-Serif" font-size="10.00" fill="grey"> m_dir</text>
<text text-anchor="middle" x="249" y="-106" font-family="Helvetica,sans-Serif" font-size="10.00" fill="grey">m_fileName</text>
</g>
<!-- Node4&#45;&gt;Node5 -->
<g id="edge7" class="edge">
<title>Node4&#45;&gt;Node5</title>
<path fill="none" stroke="#9a32cd" stroke-dasharray="5,2" d="M183.24,-149.95C161.05,-147.22 134.11,-140.59 115,-125 102.44,-114.75 96.33,-96.03 93.7,-85.09"/>
<polygon fill="#9a32cd" stroke="#9a32cd" points="183.07,-153.45 193.37,-150.97 183.78,-146.49 183.07,-153.45"/>
<text text-anchor="middle" x="163.5" y="-111.5" font-family="Helvetica,sans-Serif" font-size="10.00" fill="grey"> m_sourceFileName</text>
</g>
<!-- Node5&#45;&gt;Node1 -->
<g id="edge5" class="edge">
<title>Node5&#45;&gt;Node1</title>
<path fill="none" stroke="#9a32cd" stroke-dasharray="5,2" d="M111.95,-59.69C122.38,-52.34 135.53,-43.63 148,-37 161.02,-30.08 176.25,-23.78 188.7,-19.06"/>
<polygon fill="#9a32cd" stroke="#9a32cd" points="109.65,-57.04 103.58,-65.73 113.74,-62.72 109.65,-57.04"/>
<text text-anchor="middle" x="178.5" y="-40" font-family="Helvetica,sans-Serif" font-size="10.00" fill="grey"> m_codeGen</text>
</g>
</g>
</svg>
