<?xml version="1.0" encoding="UTF-8" standalone="no"?>
<!DOCTYPE svg PUBLIC "-//W3C//DTD SVG 1.1//EN"
 "http://www.w3.org/Graphics/SVG/1.1/DTD/svg11.dtd">
<!-- Generated by graphviz version 2.43.0 (0)
 -->
<!-- Title: CodeOutputInterface Pages: 1 -->
<svg width="583pt" height="304pt"
 viewBox="0.00 0.00 583.00 304.00" xmlns="http://www.w3.org/2000/svg" xmlns:xlink="http://www.w3.org/1999/xlink">
<g id="graph0" class="graph" transform="scale(1 1) rotate(0) translate(4 300)">
<title>CodeOutputInterface</title>
<!-- Node1 -->
<g id="node1" class="node">
<title>Node1</title>
<g id="a_node1"><a xlink:title="Output interface for code parser.">
<polygon fill="#999999" stroke="#666666" points="118,-111 0,-111 0,-92 118,-92 118,-111"/>
<text text-anchor="middle" x="59" y="-99" font-family="Helvetica,sans-Serif" font-size="10.00">CodeOutputInterface</text>
</a>
</g>
</g>
<!-- Node2 -->
<g id="node2" class="node">
<title>Node2</title>
<g id="a_node2"><a xlink:href="../../df/d27/class_base_output_doc_interface.html" target="_top" xlink:title="Base Interface used for generating output outside of the comment blocks.">
<polygon fill="white" stroke="#666666" points="293.5,-204 157.5,-204 157.5,-185 293.5,-185 293.5,-204"/>
<text text-anchor="middle" x="225.5" y="-192" font-family="Helvetica,sans-Serif" font-size="10.00">BaseOutputDocInterface</text>
</a>
</g>
</g>
<!-- Node1&#45;&gt;Node2 -->
<g id="edge1" class="edge">
<title>Node1&#45;&gt;Node2</title>
<path fill="none" stroke="#63b8ff" d="M76.41,-118.26C94.06,-135.35 123.69,-161.42 154,-176.5 160.79,-179.88 168.26,-182.66 175.74,-184.94"/>
<polygon fill="#63b8ff" stroke="#63b8ff" points="78.76,-115.66 69.19,-111.12 73.84,-120.64 78.76,-115.66"/>
</g>
<!-- Node10 -->
<g id="node10" class="node">
<title>Node10</title>
<g id="a_node10"><a xlink:href="../../dd/d8a/class_dev_null_code_doc_interface.html" target="_top" xlink:title="Class implementing CodeOutputInterface by throwing away everything.">
<polygon fill="white" stroke="#666666" points="297,-167 154,-167 154,-148 297,-148 297,-167"/>
<text text-anchor="middle" x="225.5" y="-155" font-family="Helvetica,sans-Serif" font-size="10.00">DevNullCodeDocInterface</text>
</a>
</g>
</g>
<!-- Node1&#45;&gt;Node10 -->
<g id="edge9" class="edge">
<title>Node1&#45;&gt;Node10</title>
<path fill="none" stroke="#63b8ff" d="M90.59,-115.08C108.78,-122.85 132.45,-132.43 154,-139.5 163.36,-142.57 173.56,-145.44 183.22,-147.95"/>
<polygon fill="#63b8ff" stroke="#63b8ff" points="91.92,-111.84 81.35,-111.09 89.14,-118.27 91.92,-111.84"/>
</g>
<!-- Node11 -->
<g id="node11" class="node">
<title>Node11</title>
<g id="a_node11"><a xlink:href="../../d7/d80/class_docbook_code_generator.html" target="_top" xlink:title=" ">
<polygon fill="white" stroke="#666666" points="292,-130 159,-130 159,-111 292,-111 292,-130"/>
<text text-anchor="middle" x="225.5" y="-118" font-family="Helvetica,sans-Serif" font-size="10.00">DocbookCodeGenerator</text>
</a>
</g>
</g>
<!-- Node1&#45;&gt;Node11 -->
<g id="edge10" class="edge">
<title>Node1&#45;&gt;Node11</title>
<path fill="none" stroke="#63b8ff" d="M128.44,-109.4C138.53,-110.57 148.91,-111.77 158.95,-112.93"/>
<polygon fill="#63b8ff" stroke="#63b8ff" points="128.8,-105.92 118.46,-108.25 127.99,-112.88 128.8,-105.92"/>
</g>
<!-- Node12 -->
<g id="node12" class="node">
<title>Node12</title>
<g id="a_node12"><a xlink:href="../../da/db6/class_html_code_generator.html" target="_top" xlink:title=" ">
<polygon fill="white" stroke="#666666" points="282.5,-93 168.5,-93 168.5,-74 282.5,-74 282.5,-93"/>
<text text-anchor="middle" x="225.5" y="-81" font-family="Helvetica,sans-Serif" font-size="10.00">HtmlCodeGenerator</text>
</a>
</g>
</g>
<!-- Node1&#45;&gt;Node12 -->
<g id="edge11" class="edge">
<title>Node1&#45;&gt;Node12</title>
<path fill="none" stroke="#63b8ff" d="M128.51,-94C141.8,-92.55 155.6,-91.04 168.43,-89.63"/>
<polygon fill="#63b8ff" stroke="#63b8ff" points="128.02,-90.54 118.46,-95.1 128.78,-97.49 128.02,-90.54"/>
</g>
<!-- Node13 -->
<g id="node13" class="node">
<title>Node13</title>
<g id="a_node13"><a xlink:href="../../d0/d37/class_latex_code_generator.html" target="_top" xlink:title=" ">
<polygon fill="white" stroke="#666666" points="284,-56 167,-56 167,-37 284,-37 284,-56"/>
<text text-anchor="middle" x="225.5" y="-44" font-family="Helvetica,sans-Serif" font-size="10.00">LatexCodeGenerator</text>
</a>
</g>
</g>
<!-- Node1&#45;&gt;Node13 -->
<g id="edge12" class="edge">
<title>Node1&#45;&gt;Node13</title>
<path fill="none" stroke="#63b8ff" d="M92.39,-88.15C110.37,-80.98 133.25,-72.25 154,-65.5 164.37,-62.13 175.72,-58.88 186.24,-56.05"/>
<polygon fill="#63b8ff" stroke="#63b8ff" points="90.91,-84.98 82.94,-91.96 93.53,-91.47 90.91,-84.98"/>
</g>
<!-- Node14 -->
<g id="node14" class="node">
<title>Node14</title>
<g id="a_node14"><a xlink:href="../../dd/d66/class_x_m_l_code_generator.html" target="_top" xlink:title=" ">
<polygon fill="white" stroke="#666666" points="281,-19 170,-19 170,0 281,0 281,-19"/>
<text text-anchor="middle" x="225.5" y="-7" font-family="Helvetica,sans-Serif" font-size="10.00">XMLCodeGenerator</text>
</a>
</g>
</g>
<!-- Node1&#45;&gt;Node14 -->
<g id="edge13" class="edge">
<title>Node1&#45;&gt;Node14</title>
<path fill="none" stroke="#63b8ff" d="M76.82,-85.02C94.61,-68.47 124.16,-43.35 154,-28.5 161.6,-24.72 170.06,-21.61 178.39,-19.09"/>
<polygon fill="#63b8ff" stroke="#63b8ff" points="74.36,-82.53 69.52,-91.95 79.18,-87.6 74.36,-82.53"/>
</g>
<!-- Node3 -->
<g id="node3" class="node">
<title>Node3</title>
<g id="a_node3"><a xlink:href="../../d3/d8e/class_output_generator.html" target="_top" xlink:title="Abstract output generator.">
<polygon fill="white" stroke="#666666" points="431,-222 333,-222 333,-203 431,-203 431,-222"/>
<text text-anchor="middle" x="382" y="-210" font-family="Helvetica,sans-Serif" font-size="10.00">OutputGenerator</text>
</a>
</g>
</g>
<!-- Node2&#45;&gt;Node3 -->
<g id="edge2" class="edge">
<title>Node2&#45;&gt;Node3</title>
<path fill="none" stroke="#63b8ff" d="M304.06,-203.54C313.91,-204.68 323.75,-205.83 332.95,-206.9"/>
<polygon fill="#63b8ff" stroke="#63b8ff" points="304.15,-200.02 293.82,-202.34 303.34,-206.98 304.15,-200.02"/>
</g>
<!-- Node9 -->
<g id="node9" class="node">
<title>Node9</title>
<g id="a_node9"><a xlink:href="../../df/dc8/class_output_list.html" target="_top" xlink:title="Class representing a list of output generators that are written to in parallel.">
<polygon fill="white" stroke="#666666" points="415.5,-185 348.5,-185 348.5,-166 415.5,-166 415.5,-185"/>
<text text-anchor="middle" x="382" y="-173" font-family="Helvetica,sans-Serif" font-size="10.00">OutputList</text>
</a>
</g>
</g>
<!-- Node2&#45;&gt;Node9 -->
<g id="edge8" class="edge">
<title>Node2&#45;&gt;Node9</title>
<path fill="none" stroke="#63b8ff" d="M304.04,-184.96C319.63,-183.05 335.2,-181.13 348.22,-179.53"/>
<polygon fill="#63b8ff" stroke="#63b8ff" points="303.31,-181.53 293.82,-186.22 304.17,-188.47 303.31,-181.53"/>
</g>
<!-- Node4 -->
<g id="node4" class="node">
<title>Node4</title>
<g id="a_node4"><a xlink:href="../../d1/d72/class_docbook_generator.html" target="_top" xlink:title=" ">
<polygon fill="white" stroke="#666666" points="575,-296 467,-296 467,-277 575,-277 575,-296"/>
<text text-anchor="middle" x="521" y="-284" font-family="Helvetica,sans-Serif" font-size="10.00">DocbookGenerator</text>
</a>
</g>
</g>
<!-- Node3&#45;&gt;Node4 -->
<g id="edge3" class="edge">
<title>Node3&#45;&gt;Node4</title>
<path fill="none" stroke="#63b8ff" d="M403.49,-228.38C419.96,-240.58 444.05,-257.19 467,-268.5 473.45,-271.68 480.6,-274.52 487.51,-276.96"/>
<polygon fill="#63b8ff" stroke="#63b8ff" points="405.28,-225.34 395.19,-222.12 401.07,-230.93 405.28,-225.34"/>
</g>
<!-- Node5 -->
<g id="node5" class="node">
<title>Node5</title>
<g id="a_node5"><a xlink:href="../../d7/d41/class_html_generator.html" target="_top" xlink:title="Generator for HTML output.">
<polygon fill="white" stroke="#666666" points="565.5,-259 476.5,-259 476.5,-240 565.5,-240 565.5,-259"/>
<text text-anchor="middle" x="521" y="-247" font-family="Helvetica,sans-Serif" font-size="10.00">HtmlGenerator</text>
</a>
</g>
</g>
<!-- Node3&#45;&gt;Node5 -->
<g id="edge4" class="edge">
<title>Node3&#45;&gt;Node5</title>
<path fill="none" stroke="#63b8ff" d="M428.13,-224.69C446.4,-229.62 467.19,-235.24 484.36,-239.88"/>
<polygon fill="#63b8ff" stroke="#63b8ff" points="428.85,-221.26 418.28,-222.03 427.02,-228.01 428.85,-221.26"/>
</g>
<!-- Node6 -->
<g id="node6" class="node">
<title>Node6</title>
<g id="a_node6"><a xlink:href="../../d3/d77/class_latex_generator.html" target="_top" xlink:title="Generator for LaTeX output.">
<polygon fill="white" stroke="#666666" points="567,-222 475,-222 475,-203 567,-203 567,-222"/>
<text text-anchor="middle" x="521" y="-210" font-family="Helvetica,sans-Serif" font-size="10.00">LatexGenerator</text>
</a>
</g>
</g>
<!-- Node3&#45;&gt;Node6 -->
<g id="edge5" class="edge">
<title>Node3&#45;&gt;Node6</title>
<path fill="none" stroke="#63b8ff" d="M441.44,-212.5C452.63,-212.5 464.19,-212.5 474.89,-212.5"/>
<polygon fill="#63b8ff" stroke="#63b8ff" points="441.3,-209 431.3,-212.5 441.3,-216 441.3,-209"/>
</g>
<!-- Node7 -->
<g id="node7" class="node">
<title>Node7</title>
<g id="a_node7"><a xlink:href="../../de/da5/class_man_generator.html" target="_top" xlink:title="Generator for Man page output.">
<polygon fill="white" stroke="#666666" points="564,-185 478,-185 478,-166 564,-166 564,-185"/>
<text text-anchor="middle" x="521" y="-173" font-family="Helvetica,sans-Serif" font-size="10.00">ManGenerator</text>
</a>
</g>
</g>
<!-- Node3&#45;&gt;Node7 -->
<g id="edge6" class="edge">
<title>Node3&#45;&gt;Node7</title>
<path fill="none" stroke="#63b8ff" d="M428.13,-200.31C446.4,-195.38 467.19,-189.76 484.36,-185.12"/>
<polygon fill="#63b8ff" stroke="#63b8ff" points="427.02,-196.99 418.28,-202.97 428.85,-203.74 427.02,-196.99"/>
</g>
<!-- Node8 -->
<g id="node8" class="node">
<title>Node8</title>
<g id="a_node8"><a xlink:href="../../d0/da4/class_r_t_f_generator.html" target="_top" xlink:title="Generator for RTF output.">
<polygon fill="white" stroke="#666666" points="562.5,-148 479.5,-148 479.5,-129 562.5,-129 562.5,-148"/>
<text text-anchor="middle" x="521" y="-136" font-family="Helvetica,sans-Serif" font-size="10.00">RTFGenerator</text>
</a>
</g>
</g>
<!-- Node3&#45;&gt;Node8 -->
<g id="edge7" class="edge">
<title>Node3&#45;&gt;Node8</title>
<path fill="none" stroke="#63b8ff" d="M423.75,-198.7C426.27,-197.4 428.7,-196 431,-194.5 450.21,-181.95 447.7,-169.91 467,-157.5 472.84,-153.75 479.51,-150.61 486.11,-148.04"/>
<polygon fill="#63b8ff" stroke="#63b8ff" points="422.06,-195.63 414.44,-202.99 424.99,-201.99 422.06,-195.63"/>
</g>
</g>
</svg>
