<?xml version="1.0" encoding="UTF-8" standalone="no"?>
<!DOCTYPE svg PUBLIC "-//W3C//DTD SVG 1.1//EN"
 "http://www.w3.org/Graphics/SVG/1.1/DTD/svg11.dtd">
<!-- Generated by graphviz version 2.43.0 (0)
 -->
<!-- Title: DefinitionMixin&lt; Base &gt; Pages: 1 -->
<!--zoomable 493 -->
<svg id="main" version="1.1" xmlns="http://www.w3.org/2000/svg" xmlns:xlink="http://www.w3.org/1999/xlink" xml:space="preserve" onload="init(evt)">
<style type="text/css"><![CDATA[
.edge:hover path { stroke: red; }
.edge:hover polygon { stroke: red; fill: red; }
]]></style>
<script type="text/javascript"><![CDATA[
var edges = document.getElementsByTagName('g');
if (edges && edges.length) {
  for (var i=0;i<edges.length;i++) {
    if (edges[i].id.substr(0,4)=='edge') {
      edges[i].setAttribute('class','edge');
    }
  }
}
]]></script>
        <defs>
                <circle id="rim" cx="0" cy="0" r="7"/>
                <circle id="rim2" cx="0" cy="0" r="3.5"/>
                <g id="zoomPlus">
                        <use xlink:href="#rim" fill="#404040">
                                <set attributeName="fill" to="#808080" begin="zoomplus.mouseover" end="zoomplus.mouseout"/>
                        </use>
                        <path d="M-4,0h8M0,-4v8" fill="none" stroke="white" stroke-width="1.5" pointer-events="none"/>
                </g>
                <g id="zoomMin">
                        <use xlink:href="#rim" fill="#404040">
                                <set attributeName="fill" to="#808080" begin="zoomminus.mouseover" end="zoomminus.mouseout"/>
                        </use>
                        <path d="M-4,0h8" fill="none" stroke="white" stroke-width="1.5" pointer-events="none"/>
                </g>
                <g id="dirArrow">
                        <path fill="none" stroke="white" stroke-width="1.5" d="M0,-3.0v7 M-2.5,-0.5L0,-3.0L2.5,-0.5"/>
                </g>
               <g id="resetDef">
                       <use xlink:href="#rim2" fill="#404040">
                               <set attributeName="fill" to="#808080" begin="reset.mouseover" end="reset.mouseout"/>
                       </use>
               </g>
        </defs>

<script type="text/javascript">
var viewWidth = 695;
var viewHeight = 493;
var sectionId = 'dynsection-1';
</script>
<script xlink:href="../../svgpan.js"/>
<svg id="graph" class="graph">
<g id="viewport">
<title>DefinitionMixin&lt; Base &gt;</title>
<!-- Node1 -->
<g id="node1" class="node">
<title>Node1</title>
<g id="a_node1"><a xlink:title=" ">
<polygon fill="#999999" stroke="#666666" points="313.5,-19 176.5,-19 176.5,0 313.5,0 313.5,-19"/>
<text text-anchor="middle" x="245" y="-7" font-family="Helvetica,sans-Serif" font-size="10.00">DefinitionMixin&lt; Base &gt;</text>
</a>
</g>
</g>
<!-- Node2 -->
<g id="node2" class="node">
<title>Node2</title>
<g id="a_node2"><a xlink:title=" ">
<polygon fill="white" stroke="#666666" points="249.5,-85 208.5,-85 208.5,-66 249.5,-66 249.5,-85"/>
<text text-anchor="middle" x="229" y="-73" font-family="Helvetica,sans-Serif" font-size="10.00">Base</text>
</a>
</g>
</g>
<!-- Node2&#45;&gt;Node1 -->
<g id="edge1" class="edge">
<title>Node2&#45;&gt;Node1</title>
<path fill="none" stroke="#63b8ff" d="M233.64,-55.95C236.64,-43.93 240.42,-28.82 242.77,-19.41"/>
<polygon fill="#63b8ff" stroke="#63b8ff" points="230.19,-55.32 231.16,-65.87 236.98,-57.02 230.19,-55.32"/>
</g>
<!-- Node3 -->
<g id="node3" class="node">
<title>Node3</title>
<g id="a_node3"><a xlink:href="../../d3/ddf/class_definition_impl.html" target="_top" xlink:title=" ">
<polygon fill="white" stroke="#666666" points="354,-85 268,-85 268,-66 354,-66 354,-85"/>
<text text-anchor="middle" x="311" y="-73" font-family="Helvetica,sans-Serif" font-size="10.00">DefinitionImpl</text>
</a>
</g>
</g>
<!-- Node3&#45;&gt;Node1 -->
<g id="edge2" class="edge">
<title>Node3&#45;&gt;Node1</title>
<path fill="none" stroke="#9a32cd" stroke-dasharray="5,2" d="M294.84,-58.83C282.06,-46.44 264.68,-29.59 254.18,-19.41"/>
<polygon fill="#9a32cd" stroke="#9a32cd" points="292.48,-61.42 302.1,-65.87 297.36,-56.39 292.48,-61.42"/>
<text text-anchor="middle" x="301" y="-40" font-family="Helvetica,sans-Serif" font-size="10.00"> m_impl</text>
</g>
<!-- Node4 -->
<g id="node4" class="node">
<title>Node4</title>
<g id="a_node4"><a xlink:href="../../dd/d50/class_definition_impl_1_1_i_m_p_l.html" target="_top" xlink:title="Private data associated with a Symbol DefinitionImpl object.">
<polygon fill="white" stroke="#666666" points="368.5,-151 253.5,-151 253.5,-132 368.5,-132 368.5,-151"/>
<text text-anchor="middle" x="311" y="-139" font-family="Helvetica,sans-Serif" font-size="10.00">DefinitionImpl::IMPL</text>
</a>
</g>
</g>
<!-- Node4&#45;&gt;Node3 -->
<g id="edge3" class="edge">
<title>Node4&#45;&gt;Node3</title>
<path fill="none" stroke="#9a32cd" stroke-dasharray="5,2" d="M311,-121.58C311,-109.63 311,-94.72 311,-85.41"/>
<polygon fill="#9a32cd" stroke="#9a32cd" points="307.5,-121.87 311,-131.87 314.5,-121.87 307.5,-121.87"/>
<text text-anchor="middle" x="331" y="-106" font-family="Helvetica,sans-Serif" font-size="10.00"> m_impl</text>
</g>
<!-- Node5 -->
<g id="node5" class="node">
<title>Node5</title>
<g id="a_node5"><a xlink:href="../../d5/dcc/class_definition.html" target="_top" xlink:title="The common base class of all entity definitions found in the sources.">
<polygon fill="white" stroke="#666666" points="64,-485 0,-485 0,-466 64,-466 64,-485"/>
<text text-anchor="middle" x="32" y="-473" font-family="Helvetica,sans-Serif" font-size="10.00">Definition</text>
</a>
</g>
</g>
<!-- Node5&#45;&gt;Node4 -->
<g id="edge4" class="edge">
<title>Node5&#45;&gt;Node4</title>
<path fill="none" stroke="#9a32cd" stroke-dasharray="5,2" d="M28.72,-455.74C21.69,-409.55 9.71,-288.33 61,-209 80.04,-179.55 95.92,-180.63 129,-169 169.21,-154.86 216.98,-148.26 253.49,-145.18"/>
<polygon fill="#9a32cd" stroke="#9a32cd" points="25.29,-456.49 30.36,-465.79 32.2,-455.36 25.29,-456.49"/>
<text text-anchor="middle" x="50.5" y="-367.5" font-family="Helvetica,sans-Serif" font-size="10.00"> def</text>
<text text-anchor="middle" x="50.5" y="-356.5" font-family="Helvetica,sans-Serif" font-size="10.00">outerScope</text>
</g>
<!-- Node13 -->
<g id="node13" class="node">
<title>Node13</title>
<g id="a_node13"><a xlink:href="../../de/db0/class_file_def.html" target="_top" xlink:title="A model of a file symbol.">
<polygon fill="white" stroke="#666666" points="135.5,-423.5 84.5,-423.5 84.5,-404.5 135.5,-404.5 135.5,-423.5"/>
<text text-anchor="middle" x="110" y="-411.5" font-family="Helvetica,sans-Serif" font-size="10.00">FileDef</text>
</a>
</g>
</g>
<!-- Node5&#45;&gt;Node13 -->
<g id="edge15" class="edge">
<title>Node5&#45;&gt;Node13</title>
<path fill="none" stroke="#63b8ff" d="M51.28,-459.79C66.24,-448.38 86.46,-432.96 98.85,-423.51"/>
<polygon fill="#63b8ff" stroke="#63b8ff" points="49,-457.13 43.18,-465.98 53.25,-462.69 49,-457.13"/>
</g>
<!-- Node6 -->
<g id="node6" class="node">
<title>Node6</title>
<g id="a_node6"><a xlink:href="../../d1/df9/class_section_refs.html" target="_top" xlink:title="class that represents a list of constant references to sections.">
<polygon fill="white" stroke="#666666" points="222,-279 148,-279 148,-260 222,-260 222,-279"/>
<text text-anchor="middle" x="185" y="-267" font-family="Helvetica,sans-Serif" font-size="10.00">SectionRefs</text>
</a>
</g>
</g>
<!-- Node6&#45;&gt;Node4 -->
<g id="edge5" class="edge">
<title>Node6&#45;&gt;Node4</title>
<path fill="none" stroke="#9a32cd" stroke-dasharray="5,2" d="M181.44,-249.6C178.43,-227.44 177.31,-190.95 197,-169 204.9,-160.19 229.22,-153.91 253.38,-149.68"/>
<polygon fill="#9a32cd" stroke="#9a32cd" points="178.02,-250.42 183.08,-259.73 184.93,-249.3 178.02,-250.42"/>
<text text-anchor="middle" x="227.5" y="-177.5" font-family="Helvetica,sans-Serif" font-size="10.00"> sectionRefs</text>
</g>
<!-- Node7 -->
<g id="node7" class="node">
<title>Node7</title>
<g id="a_node7"><a xlink:href="../../d3/d3b/class_group_list.html" target="_top" xlink:title=" ">
<polygon fill="white" stroke="#666666" points="303.5,-279 240.5,-279 240.5,-260 303.5,-260 303.5,-279"/>
<text text-anchor="middle" x="272" y="-267" font-family="Helvetica,sans-Serif" font-size="10.00">GroupList</text>
</a>
</g>
</g>
<!-- Node7&#45;&gt;Node4 -->
<g id="edge6" class="edge">
<title>Node7&#45;&gt;Node4</title>
<path fill="none" stroke="#9a32cd" stroke-dasharray="5,2" d="M266.44,-249.97C261.26,-228.96 256.21,-194.34 270,-169 274.3,-161.11 282.06,-155.21 289.69,-151.01"/>
<polygon fill="#9a32cd" stroke="#9a32cd" points="263.13,-251.12 269.14,-259.84 269.88,-249.28 263.13,-251.12"/>
<text text-anchor="middle" x="304.5" y="-177.5" font-family="Helvetica,sans-Serif" font-size="10.00"> partOfGroups</text>
</g>
<!-- Node8 -->
<g id="node8" class="node">
<title>Node8</title>
<g id="a_node8"><a xlink:title=" ">
<polygon fill="white" stroke="#666666" points="325,-429 219,-429 219,-399 325,-399 325,-429"/>
<text text-anchor="start" x="227" y="-417" font-family="Helvetica,sans-Serif" font-size="10.00">std::vector&lt; const</text>
<text text-anchor="middle" x="272" y="-406" font-family="Helvetica,sans-Serif" font-size="10.00"> GroupDef * &gt;</text>
</a>
</g>
</g>
<!-- Node8&#45;&gt;Node7 -->
<g id="edge7" class="edge">
<title>Node8&#45;&gt;Node7</title>
<path fill="none" stroke="#63b8ff" d="M272,-388.4C272,-356 272,-300.61 272,-279.25"/>
<polygon fill="#63b8ff" stroke="#63b8ff" points="268.5,-388.82 272,-398.82 275.5,-388.82 268.5,-388.82"/>
</g>
<!-- Node9 -->
<g id="node9" class="node">
<title>Node9</title>
<g id="a_node9"><a xlink:href="../../d7/dd5/struct_doc_info.html" target="_top" xlink:title="Data associated with a detailed description.">
<polygon fill="white" stroke="#666666" points="503,-279 449,-279 449,-260 503,-260 503,-279"/>
<text text-anchor="middle" x="476" y="-267" font-family="Helvetica,sans-Serif" font-size="10.00">DocInfo</text>
</a>
</g>
</g>
<!-- Node9&#45;&gt;Node4 -->
<g id="edge8" class="edge">
<title>Node9&#45;&gt;Node4</title>
<path fill="none" stroke="#9a32cd" stroke-dasharray="5,2" d="M466.61,-250.84C459.23,-238.12 448.04,-221.14 435,-209 405.32,-181.37 361.99,-161.61 335.2,-151.13"/>
<polygon fill="#9a32cd" stroke="#9a32cd" points="463.76,-252.91 471.68,-259.95 469.88,-249.51 463.76,-252.91"/>
<text text-anchor="middle" x="439" y="-183" font-family="Helvetica,sans-Serif" font-size="10.00"> details</text>
<text text-anchor="middle" x="439" y="-172" font-family="Helvetica,sans-Serif" font-size="10.00">inbodyDocs</text>
</g>
<!-- Node10 -->
<g id="node10" class="node">
<title>Node10</title>
<g id="a_node10"><a xlink:href="../../d9/d45/class_q_c_string.html" target="_top" xlink:title="This is an alternative implementation of QCString.">
<polygon fill="white" stroke="#666666" points="505.5,-423.5 446.5,-423.5 446.5,-404.5 505.5,-404.5 505.5,-423.5"/>
<text text-anchor="middle" x="476" y="-411.5" font-family="Helvetica,sans-Serif" font-size="10.00">QCString</text>
</a>
</g>
</g>
<!-- Node10&#45;&gt;Node4 -->
<g id="edge16" class="edge">
<title>Node10&#45;&gt;Node4</title>
<path fill="none" stroke="#9a32cd" stroke-dasharray="5,2" d="M446.35,-399.84C419.65,-386.34 381.67,-362.69 362,-330 324.73,-268.07 372.21,-233.2 339,-169 335.37,-161.99 329.14,-155.81 323.47,-151.18"/>
<polygon fill="#9a32cd" stroke="#9a32cd" points="445.09,-403.13 455.62,-404.36 448.16,-396.83 445.09,-403.13"/>
<text text-anchor="middle" x="401" y="-322" font-family="Helvetica,sans-Serif" font-size="10.00"> briefSignatures</text>
<text text-anchor="middle" x="401" y="-311" font-family="Helvetica,sans-Serif" font-size="10.00">defFileExt</text>
<text text-anchor="middle" x="401" y="-300" font-family="Helvetica,sans-Serif" font-size="10.00">defFileName</text>
<text text-anchor="middle" x="401" y="-289" font-family="Helvetica,sans-Serif" font-size="10.00">docSignatures</text>
<text text-anchor="middle" x="401" y="-278" font-family="Helvetica,sans-Serif" font-size="10.00">id</text>
<text text-anchor="middle" x="401" y="-267" font-family="Helvetica,sans-Serif" font-size="10.00">localName</text>
<text text-anchor="middle" x="401" y="-256" font-family="Helvetica,sans-Serif" font-size="10.00">name</text>
<text text-anchor="middle" x="401" y="-245" font-family="Helvetica,sans-Serif" font-size="10.00">qualifiedName</text>
<text text-anchor="middle" x="401" y="-234" font-family="Helvetica,sans-Serif" font-size="10.00">ref</text>
<text text-anchor="middle" x="401" y="-223" font-family="Helvetica,sans-Serif" font-size="10.00">symbolName</text>
<text text-anchor="middle" x="401" y="-212" font-family="Helvetica,sans-Serif" font-size="10.00">...</text>
</g>
<!-- Node10&#45;&gt;Node9 -->
<g id="edge9" class="edge">
<title>Node10&#45;&gt;Node9</title>
<path fill="none" stroke="#9a32cd" stroke-dasharray="5,2" d="M476,-394.04C476,-362.75 476,-301.53 476,-279.05"/>
<polygon fill="#9a32cd" stroke="#9a32cd" points="472.5,-394.09 476,-404.09 479.5,-394.09 472.5,-394.09"/>
<text text-anchor="middle" x="486.5" y="-367.5" font-family="Helvetica,sans-Serif" font-size="10.00"> doc</text>
<text text-anchor="middle" x="486.5" y="-356.5" font-family="Helvetica,sans-Serif" font-size="10.00">file</text>
</g>
<!-- Node11 -->
<g id="node11" class="node">
<title>Node11</title>
<g id="a_node11"><a xlink:href="../../d0/da7/struct_brief_info.html" target="_top" xlink:title="Data associated with a brief description.">
<polygon fill="white" stroke="#666666" points="580.5,-279 521.5,-279 521.5,-260 580.5,-260 580.5,-279"/>
<text text-anchor="middle" x="551" y="-267" font-family="Helvetica,sans-Serif" font-size="10.00">BriefInfo</text>
</a>
</g>
</g>
<!-- Node10&#45;&gt;Node11 -->
<g id="edge11" class="edge">
<title>Node10&#45;&gt;Node11</title>
<path fill="none" stroke="#9a32cd" stroke-dasharray="5,2" d="M490.08,-396.52C493.88,-391.69 497.81,-386.28 501,-381 522.69,-345.15 540.87,-298.26 547.89,-279.16"/>
<polygon fill="#9a32cd" stroke="#9a32cd" points="487.22,-394.49 483.6,-404.45 492.64,-398.92 487.22,-394.49"/>
<text text-anchor="middle" x="534" y="-373" font-family="Helvetica,sans-Serif" font-size="10.00"> doc</text>
<text text-anchor="middle" x="534" y="-362" font-family="Helvetica,sans-Serif" font-size="10.00">file</text>
<text text-anchor="middle" x="534" y="-351" font-family="Helvetica,sans-Serif" font-size="10.00">tooltip</text>
</g>
<!-- Node11&#45;&gt;Node4 -->
<g id="edge10" class="edge">
<title>Node11&#45;&gt;Node4</title>
<path fill="none" stroke="#9a32cd" stroke-dasharray="5,2" d="M542.79,-250.6C530.91,-227.09 506.53,-186.72 472,-169 440.25,-152.7 400.75,-146.03 368.82,-143.45"/>
<polygon fill="#9a32cd" stroke="#9a32cd" points="539.73,-252.32 547.23,-259.8 546.03,-249.27 539.73,-252.32"/>
<text text-anchor="middle" x="512" y="-177.5" font-family="Helvetica,sans-Serif" font-size="10.00"> brief</text>
</g>
<!-- Node12 -->
<g id="node12" class="node">
<title>Node12</title>
<g id="a_node12"><a xlink:href="../../db/dab/struct_body_info.html" target="_top" xlink:title="Data associated with description found in the body.">
<polygon fill="white" stroke="#666666" points="130,-279 70,-279 70,-260 130,-260 130,-279"/>
<text text-anchor="middle" x="100" y="-267" font-family="Helvetica,sans-Serif" font-size="10.00">BodyInfo</text>
</a>
</g>
</g>
<!-- Node12&#45;&gt;Node4 -->
<g id="edge12" class="edge">
<title>Node12&#45;&gt;Node4</title>
<path fill="none" stroke="#9a32cd" stroke-dasharray="5,2" d="M104.66,-250.03C111.45,-227.14 126.38,-188.74 154,-169 169.74,-157.75 215.22,-150.88 253.2,-146.96"/>
<polygon fill="#9a32cd" stroke="#9a32cd" points="101.23,-249.31 101.96,-259.88 107.98,-251.16 101.23,-249.31"/>
<text text-anchor="middle" x="168" y="-177.5" font-family="Helvetica,sans-Serif" font-size="10.00"> body</text>
</g>
<!-- Node13&#45;&gt;Node12 -->
<g id="edge13" class="edge">
<title>Node13&#45;&gt;Node12</title>
<path fill="none" stroke="#9a32cd" stroke-dasharray="5,2" d="M108.67,-394.04C106.47,-362.75 102.18,-301.53 100.6,-279.05"/>
<polygon fill="#9a32cd" stroke="#9a32cd" points="105.18,-394.36 109.37,-404.09 112.17,-393.87 105.18,-394.36"/>
<text text-anchor="middle" x="126" y="-362" font-family="Helvetica,sans-Serif" font-size="10.00"> fileDef</text>
</g>
<!-- Node14 -->
<g id="node14" class="node">
<title>Node14</title>
<g id="a_node14"><a xlink:href="../../d0/d46/class_definition_mutable.html" target="_top" xlink:title=" ">
<polygon fill="white" stroke="#666666" points="186,-485 82,-485 82,-466 186,-466 186,-485"/>
<text text-anchor="middle" x="134" y="-473" font-family="Helvetica,sans-Serif" font-size="10.00">DefinitionMutable</text>
</a>
</g>
</g>
<!-- Node14&#45;&gt;Node13 -->
<g id="edge14" class="edge">
<title>Node14&#45;&gt;Node13</title>
<path fill="none" stroke="#63b8ff" d="M126.74,-456.5C122.32,-445.55 116.89,-432.07 113.43,-423.51"/>
<polygon fill="#63b8ff" stroke="#63b8ff" points="123.57,-458.01 130.56,-465.98 130.07,-455.39 123.57,-458.01"/>
</g>
<!-- Node15 -->
<g id="node15" class="node">
<title>Node15</title>
<g id="a_node15"><a xlink:href="../../d1/d7d/class_member_vector.html" target="_top" xlink:title="A vector of MemberDef object.">
<polygon fill="white" stroke="#666666" points="687,-279 599,-279 599,-260 687,-260 687,-279"/>
<text text-anchor="middle" x="643" y="-267" font-family="Helvetica,sans-Serif" font-size="10.00">MemberVector</text>
</a>
</g>
</g>
<!-- Node15&#45;&gt;Node4 -->
<g id="edge17" class="edge">
<title>Node15&#45;&gt;Node4</title>
<path fill="none" stroke="#9a32cd" stroke-dasharray="5,2" d="M630.57,-251.7C611.73,-227.84 573.41,-185.24 529,-169 476.9,-149.94 413.6,-143.99 368.67,-142.4"/>
<polygon fill="#9a32cd" stroke="#9a32cd" points="627.94,-254.02 636.8,-259.83 633.5,-249.76 627.94,-254.02"/>
<text text-anchor="middle" x="625.5" y="-183" font-family="Helvetica,sans-Serif" font-size="10.00"> referencedByMembers</text>
<text text-anchor="middle" x="625.5" y="-172" font-family="Helvetica,sans-Serif" font-size="10.00">referencesMembers</text>
</g>
</g>
</svg>
        <g id="navigator" transform="translate(0 0)" fill="#404254">
                <rect fill="#f2f5e9" fill-opacity="0.5" stroke="#606060" stroke-width=".5" x="0" y="0" width="60" height="60"/>
                <use id="zoomplus" xlink:href="#zoomPlus" x="17" y="9" onmousedown="handleZoom(evt,'in')"/>
                <use id="zoomminus" xlink:href="#zoomMin" x="42" y="9" onmousedown="handleZoom(evt,'out')"/>
                <use id="reset" xlink:href="#resetDef" x="30" y="36" onmousedown="handleReset()"/>
                <g id="arrowUp" xlink:href="#dirArrow" transform="translate(30 24)" onmousedown="handlePan(0,-1)">
                  <use xlink:href="#rim" fill="#404040">
                        <set attributeName="fill" to="#808080" begin="arrowUp.mouseover" end="arrowUp.mouseout"/>
                  </use>
                  <path fill="none" stroke="white" stroke-width="1.5" d="M0,-3.0v7 M-2.5,-0.5L0,-3.0L2.5,-0.5"/>
                </g>
                <g id="arrowRight" xlink:href="#dirArrow" transform="rotate(90) translate(36 -43)" onmousedown="handlePan(1,0)">
                  <use xlink:href="#rim" fill="#404040">
                        <set attributeName="fill" to="#808080" begin="arrowRight.mouseover" end="arrowRight.mouseout"/>
                  </use>
                  <path fill="none" stroke="white" stroke-width="1.5" d="M0,-3.0v7 M-2.5,-0.5L0,-3.0L2.5,-0.5"/>
                </g>
                <g id="arrowDown" xlink:href="#dirArrow" transform="rotate(180) translate(-30 -48)" onmousedown="handlePan(0,1)">
                  <use xlink:href="#rim" fill="#404040">
                        <set attributeName="fill" to="#808080" begin="arrowDown.mouseover" end="arrowDown.mouseout"/>
                  </use>
                  <path fill="none" stroke="white" stroke-width="1.5" d="M0,-3.0v7 M-2.5,-0.5L0,-3.0L2.5,-0.5"/>
                </g>
                <g id="arrowLeft" xlink:href="#dirArrow" transform="rotate(270) translate(-36 17)" onmousedown="handlePan(-1,0)">
                  <use xlink:href="#rim" fill="#404040">
                        <set attributeName="fill" to="#808080" begin="arrowLeft.mouseover" end="arrowLeft.mouseout"/>
                  </use>
                  <path fill="none" stroke="white" stroke-width="1.5" d="M0,-3.0v7 M-2.5,-0.5L0,-3.0L2.5,-0.5"/>
                </g>
        </g>
        <svg viewBox="0 0 15 15" width="100%" height="30px" preserveAspectRatio="xMaxYMin meet">
         <g id="arrow_out" transform="scale(0.3 0.3)">
          <a xlink:href="class_definition_mixin__coll__graph_org.svg" target="_base">
           <rect id="button" ry="5" rx="5" y="6" x="6" height="38" width="38"
                fill="#f2f5e9" fill-opacity="0.5" stroke="#606060" stroke-width="1.0"/>
           <path id="arrow"
             d="M 11.500037,31.436501 C 11.940474,20.09759 22.043105,11.32322 32.158766,21.979434 L 37.068811,17.246167 C 37.068811,17.246167 37.088388,32 37.088388,32 L 22.160133,31.978069 C 22.160133,31.978069 26.997745,27.140456 26.997745,27.140456 C 18.528582,18.264221 13.291696,25.230495 11.500037,31.436501 z"
             style="fill:#404040;"/>
          </a>
         </g>
        </svg>
</svg>
