<?xml version="1.0" encoding="UTF-8" standalone="no"?>
<!DOCTYPE svg PUBLIC "-//W3C//DTD SVG 1.1//EN"
 "http://www.w3.org/Graphics/SVG/1.1/DTD/svg11.dtd">
<!-- Generated by graphviz version 2.43.0 (0)
 -->
<!-- Title: /home/runner/work/doxygen/doxygen/src/docparser_p.h Pages: 1 -->
<svg width="1940pt" height="313pt"
 viewBox="0.00 0.00 1939.50 313.00" xmlns="http://www.w3.org/2000/svg" xmlns:xlink="http://www.w3.org/1999/xlink">
<g id="graph0" class="graph" transform="scale(1 1) rotate(0) translate(4 309)">
<title>/home/runner/work/doxygen/doxygen/src/docparser_p.h</title>
<!-- Node1 -->
<g id="node1" class="node">
<title>Node1</title>
<g id="a_node1"><a xlink:title="Private header shared between docparser.cpp and docnode.cpp.">
<polygon fill="#999999" stroke="#666666" points="423,-305 269,-305 269,-275 423,-275 423,-305"/>
<text text-anchor="start" x="277" y="-293" font-family="Helvetica,sans-Serif" font-size="10.00">/home/runner/work/doxygen</text>
<text text-anchor="middle" x="346" y="-282" font-family="Helvetica,sans-Serif" font-size="10.00">/doxygen/src/docparser_p.h</text>
</a>
</g>
</g>
<!-- Node2 -->
<g id="node2" class="node">
<title>Node2</title>
<g id="a_node2"><a xlink:title=" ">
<polygon fill="#e0e0e0" stroke="#999999" points="52,-239 0,-239 0,-220 52,-220 52,-239"/>
<text text-anchor="middle" x="26" y="-227" font-family="Helvetica,sans-Serif" font-size="10.00">cassert</text>
</a>
</g>
</g>
<!-- Node1&#45;&gt;Node2 -->
<g id="edge1" class="edge">
<title>Node1&#45;&gt;Node2</title>
<path fill="none" stroke="#63b8ff" d="M268.92,-275.93C212.61,-266.22 134.45,-252.38 66,-239 64.75,-238.75 63.47,-238.5 62.18,-238.24"/>
<polygon fill="#63b8ff" stroke="#63b8ff" points="62.72,-234.78 52.22,-236.2 61.32,-241.64 62.72,-234.78"/>
</g>
<!-- Node3 -->
<g id="node3" class="node">
<title>Node3</title>
<g id="a_node3"><a xlink:title=" ">
<polygon fill="#e0e0e0" stroke="#999999" points="189.5,-129 146.5,-129 146.5,-110 189.5,-110 189.5,-129"/>
<text text-anchor="middle" x="168" y="-117" font-family="Helvetica,sans-Serif" font-size="10.00">stack</text>
</a>
</g>
</g>
<!-- Node1&#45;&gt;Node3 -->
<g id="edge2" class="edge">
<title>Node1&#45;&gt;Node3</title>
<path fill="none" stroke="#63b8ff" d="M328.65,-274.91C316.72,-265.09 300.64,-251.54 287,-239 248.4,-203.53 205.32,-159.43 183.09,-136.32"/>
<polygon fill="#63b8ff" stroke="#63b8ff" points="185.59,-133.87 176.14,-129.07 180.54,-138.71 185.59,-133.87"/>
</g>
<!-- Node4 -->
<g id="node4" class="node">
<title>Node4</title>
<g id="a_node4"><a xlink:title=" ">
<polygon fill="#e0e0e0" stroke="#999999" points="225.5,-74 172.5,-74 172.5,-55 225.5,-55 225.5,-74"/>
<text text-anchor="middle" x="199" y="-62" font-family="Helvetica,sans-Serif" font-size="10.00">iterator</text>
</a>
</g>
</g>
<!-- Node1&#45;&gt;Node4 -->
<g id="edge3" class="edge">
<title>Node1&#45;&gt;Node4</title>
<path fill="none" stroke="#63b8ff" d="M268.83,-283.47C206.04,-277.17 124.59,-264.28 104,-239 67.79,-194.55 73.24,-158.38 104,-110 116.77,-89.92 141.24,-78.75 162.15,-72.62"/>
<polygon fill="#63b8ff" stroke="#63b8ff" points="163.28,-75.94 172.06,-70 161.49,-69.17 163.28,-75.94"/>
</g>
<!-- Node5 -->
<g id="node5" class="node">
<title>Node5</title>
<g id="a_node5"><a xlink:title=" ">
<polygon fill="#e0e0e0" stroke="#999999" points="533.5,-74 486.5,-74 486.5,-55 533.5,-55 533.5,-74"/>
<text text-anchor="middle" x="510" y="-62" font-family="Helvetica,sans-Serif" font-size="10.00">vector</text>
</a>
</g>
</g>
<!-- Node1&#45;&gt;Node5 -->
<g id="edge4" class="edge">
<title>Node1&#45;&gt;Node5</title>
<path fill="none" stroke="#63b8ff" d="M304.63,-274.89C227.61,-246.54 75.39,-179.4 137,-110 159.37,-84.81 388.64,-71.29 476.23,-67.02"/>
<polygon fill="#63b8ff" stroke="#63b8ff" points="476.6,-70.5 486.43,-66.53 476.27,-63.51 476.6,-70.5"/>
</g>
<!-- Node6 -->
<g id="node6" class="node">
<title>Node6</title>
<g id="a_node6"><a xlink:title=" ">
<polygon fill="#e0e0e0" stroke="#999999" points="343.5,-239 296.5,-239 296.5,-220 343.5,-220 343.5,-239"/>
<text text-anchor="middle" x="320" y="-227" font-family="Helvetica,sans-Serif" font-size="10.00">deque</text>
</a>
</g>
</g>
<!-- Node1&#45;&gt;Node6 -->
<g id="edge5" class="edge">
<title>Node1&#45;&gt;Node6</title>
<path fill="none" stroke="#63b8ff" d="M339.71,-274.84C336.2,-266.95 331.8,-257.05 328.05,-248.61"/>
<polygon fill="#63b8ff" stroke="#63b8ff" points="331.16,-246.98 323.9,-239.27 324.76,-249.83 331.16,-246.98"/>
</g>
<!-- Node7 -->
<g id="node7" class="node">
<title>Node7</title>
<g id="a_node7"><a xlink:href="../../d5/d75/containers_8h.html" target="_top" xlink:title=" ">
<polygon fill="white" stroke="#666666" points="410.5,-184 333.5,-184 333.5,-165 410.5,-165 410.5,-184"/>
<text text-anchor="middle" x="372" y="-172" font-family="Helvetica,sans-Serif" font-size="10.00">containers.h</text>
</a>
</g>
</g>
<!-- Node1&#45;&gt;Node7 -->
<g id="edge6" class="edge">
<title>Node1&#45;&gt;Node7</title>
<path fill="none" stroke="#63b8ff" d="M349.29,-274.63C353.97,-254.21 362.54,-216.81 367.71,-194.24"/>
<polygon fill="#63b8ff" stroke="#63b8ff" points="371.18,-194.76 370,-184.23 364.36,-193.2 371.18,-194.76"/>
</g>
<!-- Node13 -->
<g id="node13" class="node">
<title>Node13</title>
<g id="a_node13"><a xlink:href="../../de/d9c/docparser_8h.html" target="_top" xlink:title=" ">
<polygon fill="white" stroke="#666666" points="649.5,-184 576.5,-184 576.5,-165 649.5,-165 649.5,-184"/>
<text text-anchor="middle" x="613" y="-172" font-family="Helvetica,sans-Serif" font-size="10.00">docparser.h</text>
</a>
</g>
</g>
<!-- Node1&#45;&gt;Node13 -->
<g id="edge14" class="edge">
<title>Node1&#45;&gt;Node13</title>
<path fill="none" stroke="#63b8ff" d="M379.01,-274.97C431.46,-252.67 533.04,-209.49 583.32,-188.12"/>
<polygon fill="#63b8ff" stroke="#63b8ff" points="584.83,-191.28 592.66,-184.14 582.09,-184.84 584.83,-191.28"/>
</g>
<!-- Node26 -->
<g id="node26" class="node">
<title>Node26</title>
<g id="a_node26"><a xlink:href="../../de/d2b/docnode_8h.html" target="_top" xlink:title=" ">
<polygon fill="white" stroke="#666666" points="749.5,-239 682.5,-239 682.5,-220 749.5,-220 749.5,-239"/>
<text text-anchor="middle" x="716" y="-227" font-family="Helvetica,sans-Serif" font-size="10.00">docnode.h</text>
</a>
</g>
</g>
<!-- Node1&#45;&gt;Node26 -->
<g id="edge33" class="edge">
<title>Node1&#45;&gt;Node26</title>
<path fill="none" stroke="#63b8ff" d="M423.11,-276.81C498.59,-264.87 610.9,-247.12 672.2,-237.43"/>
<polygon fill="#63b8ff" stroke="#63b8ff" points="672.97,-240.85 682.3,-235.83 671.88,-233.93 672.97,-240.85"/>
</g>
<!-- Node31 -->
<g id="node31" class="node">
<title>Node31</title>
<g id="a_node31"><a xlink:href="../../d0/d0c/doctokenizer_8h.html" target="_top" xlink:title=" ">
<polygon fill="white" stroke="#666666" points="1047.5,-239 960.5,-239 960.5,-220 1047.5,-220 1047.5,-239"/>
<text text-anchor="middle" x="1004" y="-227" font-family="Helvetica,sans-Serif" font-size="10.00">doctokenizer.h</text>
</a>
</g>
</g>
<!-- Node1&#45;&gt;Node31 -->
<g id="edge51" class="edge">
<title>Node1&#45;&gt;Node31</title>
<path fill="none" stroke="#63b8ff" d="M423.09,-282.15C557.99,-270.15 833.57,-245.65 950.08,-235.29"/>
<polygon fill="#63b8ff" stroke="#63b8ff" points="950.53,-238.77 960.19,-234.4 949.91,-231.79 950.53,-238.77"/>
</g>
<!-- Node32 -->
<g id="node32" class="node">
<title>Node32</title>
<g id="a_node32"><a xlink:href="../../de/d07/searchindex_8h.html" target="_top" xlink:title="Web server based search engine.">
<polygon fill="white" stroke="#666666" points="1258.5,-184 1173.5,-184 1173.5,-165 1258.5,-165 1258.5,-184"/>
<text text-anchor="middle" x="1216" y="-172" font-family="Helvetica,sans-Serif" font-size="10.00">searchindex.h</text>
</a>
</g>
</g>
<!-- Node1&#45;&gt;Node32 -->
<g id="edge56" class="edge">
<title>Node1&#45;&gt;Node32</title>
<path fill="none" stroke="#63b8ff" d="M423.26,-286.58C581.65,-281.13 938.26,-266.19 1057,-239 1105.89,-227.81 1159.41,-203.78 1190.21,-188.7"/>
<polygon fill="#63b8ff" stroke="#63b8ff" points="1191.98,-191.73 1199.38,-184.15 1188.87,-185.46 1191.98,-191.73"/>
</g>
<!-- Node7&#45;&gt;Node3 -->
<g id="edge13" class="edge">
<title>Node7&#45;&gt;Node3</title>
<path fill="none" stroke="#63b8ff" d="M338.15,-164.96C305.22,-156.62 253.53,-143.42 199.43,-129.08"/>
<polygon fill="#63b8ff" stroke="#63b8ff" points="200.23,-125.67 189.67,-126.49 198.43,-132.44 200.23,-125.67"/>
</g>
<!-- Node7&#45;&gt;Node5 -->
<g id="edge7" class="edge">
<title>Node7&#45;&gt;Node5</title>
<path fill="none" stroke="#63b8ff" d="M379.01,-164.98C389.89,-152.08 411.91,-127.27 434,-110 449.22,-98.1 467.92,-87.11 482.97,-79.03"/>
<polygon fill="#63b8ff" stroke="#63b8ff" points="485.02,-81.9 492.25,-74.16 481.77,-75.7 485.02,-81.9"/>
</g>
<!-- Node8 -->
<g id="node8" class="node">
<title>Node8</title>
<g id="a_node8"><a xlink:title=" ">
<polygon fill="#e0e0e0" stroke="#999999" points="1133,-19 1089,-19 1089,0 1133,0 1133,-19"/>
<text text-anchor="middle" x="1111" y="-7" font-family="Helvetica,sans-Serif" font-size="10.00">string</text>
</a>
</g>
</g>
<!-- Node7&#45;&gt;Node8 -->
<g id="edge8" class="edge">
<title>Node7&#45;&gt;Node8</title>
<path fill="none" stroke="#63b8ff" d="M376.05,-164.65C382.21,-151.76 394.84,-127.46 410,-110 435.48,-80.65 441.83,-69.24 478,-55 534.16,-32.89 958,-16.02 1078.9,-11.63"/>
<polygon fill="#63b8ff" stroke="#63b8ff" points="1079.13,-15.12 1089,-11.26 1078.88,-8.13 1079.13,-15.12"/>
</g>
<!-- Node9 -->
<g id="node9" class="node">
<title>Node9</title>
<g id="a_node9"><a xlink:title=" ">
<polygon fill="#e0e0e0" stroke="#999999" points="240,-129 208,-129 208,-110 240,-110 240,-129"/>
<text text-anchor="middle" x="224" y="-117" font-family="Helvetica,sans-Serif" font-size="10.00">set</text>
</a>
</g>
</g>
<!-- Node7&#45;&gt;Node9 -->
<g id="edge9" class="edge">
<title>Node7&#45;&gt;Node9</title>
<path fill="none" stroke="#63b8ff" d="M348.22,-164.98C321.29,-155.34 277.57,-139.68 249.83,-129.75"/>
<polygon fill="#63b8ff" stroke="#63b8ff" points="250.98,-126.45 240.39,-126.37 248.62,-133.04 250.98,-126.45"/>
</g>
<!-- Node10 -->
<g id="node10" class="node">
<title>Node10</title>
<g id="a_node10"><a xlink:title=" ">
<polygon fill="#e0e0e0" stroke="#999999" points="514,-129 476,-129 476,-110 514,-110 514,-129"/>
<text text-anchor="middle" x="495" y="-117" font-family="Helvetica,sans-Serif" font-size="10.00">map</text>
</a>
</g>
</g>
<!-- Node7&#45;&gt;Node10 -->
<g id="edge10" class="edge">
<title>Node7&#45;&gt;Node10</title>
<path fill="none" stroke="#63b8ff" d="M391.76,-164.98C411.96,-156.28 443.55,-142.67 466.46,-132.8"/>
<polygon fill="#63b8ff" stroke="#63b8ff" points="467.89,-135.99 475.69,-128.82 465.12,-129.56 467.89,-135.99"/>
</g>
<!-- Node11 -->
<g id="node11" class="node">
<title>Node11</title>
<g id="a_node11"><a xlink:title=" ">
<polygon fill="#e0e0e0" stroke="#999999" points="344,-129 258,-129 258,-110 344,-110 344,-129"/>
<text text-anchor="middle" x="301" y="-117" font-family="Helvetica,sans-Serif" font-size="10.00">unordered_set</text>
</a>
</g>
</g>
<!-- Node7&#45;&gt;Node11 -->
<g id="edge11" class="edge">
<title>Node7&#45;&gt;Node11</title>
<path fill="none" stroke="#63b8ff" d="M360.59,-164.98C349.89,-157 333.66,-144.88 320.84,-135.31"/>
<polygon fill="#63b8ff" stroke="#63b8ff" points="322.72,-132.35 312.61,-129.17 318.53,-137.96 322.72,-132.35"/>
</g>
<!-- Node12 -->
<g id="node12" class="node">
<title>Node12</title>
<g id="a_node12"><a xlink:title=" ">
<polygon fill="#e0e0e0" stroke="#999999" points="905.5,-129 812.5,-129 812.5,-110 905.5,-110 905.5,-129"/>
<text text-anchor="middle" x="859" y="-117" font-family="Helvetica,sans-Serif" font-size="10.00">unordered_map</text>
</a>
</g>
</g>
<!-- Node7&#45;&gt;Node12 -->
<g id="edge12" class="edge">
<title>Node7&#45;&gt;Node12</title>
<path fill="none" stroke="#63b8ff" d="M410.62,-169.3C496.12,-159.99 701.74,-137.61 802.05,-126.7"/>
<polygon fill="#63b8ff" stroke="#63b8ff" points="802.73,-130.14 812.29,-125.58 801.97,-123.19 802.73,-130.14"/>
</g>
<!-- Node14 -->
<g id="node14" class="node">
<title>Node14</title>
<g id="a_node14"><a xlink:title=" ">
<polygon fill="#e0e0e0" stroke="#999999" points="756,-129 706,-129 706,-110 756,-110 756,-129"/>
<text text-anchor="middle" x="731" y="-117" font-family="Helvetica,sans-Serif" font-size="10.00">stdio.h</text>
</a>
</g>
</g>
<!-- Node13&#45;&gt;Node14 -->
<g id="edge15" class="edge">
<title>Node13&#45;&gt;Node14</title>
<path fill="none" stroke="#63b8ff" d="M631.96,-164.98C651.03,-156.42 680.66,-143.11 702.55,-133.28"/>
<polygon fill="#63b8ff" stroke="#63b8ff" points="704.01,-136.46 711.7,-129.17 701.14,-130.07 704.01,-136.46"/>
</g>
<!-- Node15 -->
<g id="node15" class="node">
<title>Node15</title>
<g id="a_node15"><a xlink:title=" ">
<polygon fill="#e0e0e0" stroke="#999999" points="717,-74 659,-74 659,-55 717,-55 717,-74"/>
<text text-anchor="middle" x="688" y="-62" font-family="Helvetica,sans-Serif" font-size="10.00">memory</text>
</a>
</g>
</g>
<!-- Node13&#45;&gt;Node15 -->
<g id="edge16" class="edge">
<title>Node13&#45;&gt;Node15</title>
<path fill="none" stroke="#63b8ff" d="M619.14,-164.66C631.62,-146.69 660.12,-105.64 676.28,-82.38"/>
<polygon fill="#63b8ff" stroke="#63b8ff" points="679.16,-84.37 681.99,-74.16 673.41,-80.38 679.16,-84.37"/>
</g>
<!-- Node16 -->
<g id="node16" class="node">
<title>Node16</title>
<g id="a_node16"><a xlink:href="../../d7/d5c/qcstring_8h.html" target="_top" xlink:title=" ">
<polygon fill="white" stroke="#666666" points="1179.5,-129 1114.5,-129 1114.5,-110 1179.5,-110 1179.5,-129"/>
<text text-anchor="middle" x="1147" y="-117" font-family="Helvetica,sans-Serif" font-size="10.00">qcstring.h</text>
</a>
</g>
</g>
<!-- Node13&#45;&gt;Node16 -->
<g id="edge17" class="edge">
<title>Node13&#45;&gt;Node16</title>
<path fill="none" stroke="#63b8ff" d="M649.7,-169.86C745.39,-160.36 1002.09,-134.88 1104.22,-124.75"/>
<polygon fill="#63b8ff" stroke="#63b8ff" points="1104.58,-128.23 1114.19,-123.76 1103.89,-121.26 1104.58,-128.23"/>
</g>
<!-- Node25 -->
<g id="node25" class="node">
<title>Node25</title>
<g id="a_node25"><a xlink:href="../../d7/d50/growvector_8h.html" target="_top" xlink:title=" ">
<polygon fill="white" stroke="#666666" points="612,-129 532,-129 532,-110 612,-110 612,-129"/>
<text text-anchor="middle" x="572" y="-117" font-family="Helvetica,sans-Serif" font-size="10.00">growvector.h</text>
</a>
</g>
</g>
<!-- Node13&#45;&gt;Node25 -->
<g id="edge29" class="edge">
<title>Node13&#45;&gt;Node25</title>
<path fill="none" stroke="#63b8ff" d="M606.23,-164.75C600.44,-157.26 591.94,-146.28 584.86,-137.13"/>
<polygon fill="#63b8ff" stroke="#63b8ff" points="587.53,-134.86 578.64,-129.09 581.99,-139.14 587.53,-134.86"/>
</g>
<!-- Node16&#45;&gt;Node8 -->
<g id="edge18" class="edge">
<title>Node16&#45;&gt;Node8</title>
<path fill="none" stroke="#63b8ff" d="M1179.5,-117.15C1237.09,-113.58 1347.67,-100.73 1311,-55 1290.33,-29.22 1194.33,-17.42 1143.22,-12.89"/>
<polygon fill="#63b8ff" stroke="#63b8ff" points="1143.3,-9.38 1133.04,-12.03 1142.71,-16.36 1143.3,-9.38"/>
</g>
<!-- Node17 -->
<g id="node17" class="node">
<title>Node17</title>
<g id="a_node17"><a xlink:title=" ">
<polygon fill="#e0e0e0" stroke="#999999" points="959,-74 895,-74 895,-55 959,-55 959,-74"/>
<text text-anchor="middle" x="927" y="-62" font-family="Helvetica,sans-Serif" font-size="10.00">algorithm</text>
</a>
</g>
</g>
<!-- Node16&#45;&gt;Node17 -->
<g id="edge19" class="edge">
<title>Node16&#45;&gt;Node17</title>
<path fill="none" stroke="#63b8ff" d="M1114.06,-110.57C1075.42,-101.25 1011.26,-85.8 969.05,-75.63"/>
<polygon fill="#63b8ff" stroke="#63b8ff" points="969.63,-72.17 959.09,-73.23 967.99,-78.97 969.63,-72.17"/>
</g>
<!-- Node18 -->
<g id="node18" class="node">
<title>Node18</title>
<g id="a_node18"><a xlink:title=" ">
<polygon fill="#e0e0e0" stroke="#999999" points="1026.5,-74 977.5,-74 977.5,-55 1026.5,-55 1026.5,-74"/>
<text text-anchor="middle" x="1002" y="-62" font-family="Helvetica,sans-Serif" font-size="10.00">cctype</text>
</a>
</g>
</g>
<!-- Node16&#45;&gt;Node18 -->
<g id="edge20" class="edge">
<title>Node16&#45;&gt;Node18</title>
<path fill="none" stroke="#63b8ff" d="M1123.7,-109.98C1099.75,-101.23 1062.22,-87.51 1035.17,-77.62"/>
<polygon fill="#63b8ff" stroke="#63b8ff" points="1036.31,-74.32 1025.72,-74.17 1033.91,-80.89 1036.31,-74.32"/>
</g>
<!-- Node19 -->
<g id="node19" class="node">
<title>Node19</title>
<g id="a_node19"><a xlink:title=" ">
<polygon fill="#e0e0e0" stroke="#999999" points="1095,-74 1045,-74 1045,-55 1095,-55 1095,-74"/>
<text text-anchor="middle" x="1070" y="-62" font-family="Helvetica,sans-Serif" font-size="10.00">cstring</text>
</a>
</g>
</g>
<!-- Node16&#45;&gt;Node19 -->
<g id="edge21" class="edge">
<title>Node16&#45;&gt;Node19</title>
<path fill="none" stroke="#63b8ff" d="M1134.63,-109.98C1122.91,-101.92 1105.08,-89.65 1091.11,-80.03"/>
<polygon fill="#63b8ff" stroke="#63b8ff" points="1092.82,-76.96 1082.6,-74.17 1088.85,-82.72 1092.82,-76.96"/>
</g>
<!-- Node20 -->
<g id="node20" class="node">
<title>Node20</title>
<g id="a_node20"><a xlink:title=" ">
<polygon fill="#e0e0e0" stroke="#999999" points="1159,-74 1113,-74 1113,-55 1159,-55 1159,-74"/>
<text text-anchor="middle" x="1136" y="-62" font-family="Helvetica,sans-Serif" font-size="10.00">cstdio</text>
</a>
</g>
</g>
<!-- Node16&#45;&gt;Node20 -->
<g id="edge22" class="edge">
<title>Node16&#45;&gt;Node20</title>
<path fill="none" stroke="#63b8ff" d="M1145.18,-109.75C1143.74,-102.8 1141.68,-92.85 1139.87,-84.13"/>
<polygon fill="#63b8ff" stroke="#63b8ff" points="1143.24,-83.17 1137.78,-74.09 1136.39,-84.59 1143.24,-83.17"/>
</g>
<!-- Node21 -->
<g id="node21" class="node">
<title>Node21</title>
<g id="a_node21"><a xlink:title=" ">
<polygon fill="#e0e0e0" stroke="#999999" points="1226.5,-74 1177.5,-74 1177.5,-55 1226.5,-55 1226.5,-74"/>
<text text-anchor="middle" x="1202" y="-62" font-family="Helvetica,sans-Serif" font-size="10.00">cstdlib</text>
</a>
</g>
</g>
<!-- Node16&#45;&gt;Node21 -->
<g id="edge23" class="edge">
<title>Node16&#45;&gt;Node21</title>
<path fill="none" stroke="#63b8ff" d="M1156.08,-109.75C1164.09,-102.03 1175.96,-90.6 1185.62,-81.28"/>
<polygon fill="#63b8ff" stroke="#63b8ff" points="1188.31,-83.55 1193.09,-74.09 1183.46,-78.51 1188.31,-83.55"/>
</g>
<!-- Node22 -->
<g id="node22" class="node">
<title>Node22</title>
<g id="a_node22"><a xlink:title=" ">
<polygon fill="#e0e0e0" stroke="#999999" points="853,-19 803,-19 803,0 853,0 853,-19"/>
<text text-anchor="middle" x="828" y="-7" font-family="Helvetica,sans-Serif" font-size="10.00">cstdint</text>
</a>
</g>
</g>
<!-- Node16&#45;&gt;Node22 -->
<g id="edge24" class="edge">
<title>Node16&#45;&gt;Node22</title>
<path fill="none" stroke="#63b8ff" d="M1114.42,-112.39C1109.59,-111.55 1104.67,-110.73 1100,-110 1038.66,-100.47 863.97,-120.64 823,-74 812.3,-61.82 815.5,-42.76 820.18,-28.7"/>
<polygon fill="#63b8ff" stroke="#63b8ff" points="823.54,-29.71 823.85,-19.12 817.01,-27.2 823.54,-29.71"/>
</g>
<!-- Node23 -->
<g id="node23" class="node">
<title>Node23</title>
<g id="a_node23"><a xlink:title=" ">
<polygon fill="#e0e0e0" stroke="#999999" points="1301.5,-74 1244.5,-74 1244.5,-55 1301.5,-55 1301.5,-74"/>
<text text-anchor="middle" x="1273" y="-62" font-family="Helvetica,sans-Serif" font-size="10.00">ostream</text>
</a>
</g>
</g>
<!-- Node16&#45;&gt;Node23 -->
<g id="edge25" class="edge">
<title>Node16&#45;&gt;Node23</title>
<path fill="none" stroke="#63b8ff" d="M1167.24,-109.98C1187.7,-101.38 1219.53,-87.99 1242.93,-78.15"/>
<polygon fill="#63b8ff" stroke="#63b8ff" points="1244.53,-81.27 1252.39,-74.17 1241.81,-74.82 1244.53,-81.27"/>
</g>
<!-- Node24 -->
<g id="node24" class="node">
<title>Node24</title>
<g id="a_node24"><a xlink:href="../../db/d7c/utf8_8h.html" target="_top" xlink:title="Various UTF8 related helper functions.">
<polygon fill="white" stroke="#666666" points="876.5,-74 831.5,-74 831.5,-55 876.5,-55 876.5,-74"/>
<text text-anchor="middle" x="854" y="-62" font-family="Helvetica,sans-Serif" font-size="10.00">utf8.h</text>
</a>
</g>
</g>
<!-- Node16&#45;&gt;Node24 -->
<g id="edge26" class="edge">
<title>Node16&#45;&gt;Node24</title>
<path fill="none" stroke="#63b8ff" d="M1114.39,-112.55C1109.57,-111.68 1104.66,-110.81 1100,-110 1008.05,-93.95 981.93,-94.36 886.44,-73.91"/>
<polygon fill="#63b8ff" stroke="#63b8ff" points="887.18,-70.49 876.66,-71.8 885.7,-77.33 887.18,-70.49"/>
</g>
<!-- Node24&#45;&gt;Node8 -->
<g id="edge28" class="edge">
<title>Node24&#45;&gt;Node8</title>
<path fill="none" stroke="#63b8ff" d="M876.68,-57.28C879.8,-56.48 882.98,-55.7 886,-55 954.27,-39.2 1035.01,-24.09 1078.81,-16.19"/>
<polygon fill="#63b8ff" stroke="#63b8ff" points="1079.64,-19.6 1088.86,-14.39 1078.4,-12.71 1079.64,-19.6"/>
</g>
<!-- Node24&#45;&gt;Node22 -->
<g id="edge27" class="edge">
<title>Node24&#45;&gt;Node22</title>
<path fill="none" stroke="#63b8ff" d="M849.71,-54.75C846.19,-47.57 841.09,-37.18 836.72,-28.27"/>
<polygon fill="#63b8ff" stroke="#63b8ff" points="839.76,-26.53 832.21,-19.09 833.48,-29.61 839.76,-26.53"/>
</g>
<!-- Node25&#45;&gt;Node4 -->
<g id="edge32" class="edge">
<title>Node25&#45;&gt;Node4</title>
<path fill="none" stroke="#63b8ff" d="M531.91,-111.43C528.9,-110.93 525.9,-110.45 523,-110 419,-93.84 295.73,-77.75 235.63,-70.1"/>
<polygon fill="#63b8ff" stroke="#63b8ff" points="235.87,-66.61 225.5,-68.82 234.98,-73.55 235.87,-66.61"/>
</g>
<!-- Node25&#45;&gt;Node5 -->
<g id="edge30" class="edge">
<title>Node25&#45;&gt;Node5</title>
<path fill="none" stroke="#63b8ff" d="M562.04,-109.98C552.87,-102.15 539.06,-90.34 527.97,-80.86"/>
<polygon fill="#63b8ff" stroke="#63b8ff" points="530.02,-78.01 520.14,-74.17 525.47,-83.33 530.02,-78.01"/>
</g>
<!-- Node25&#45;&gt;Node15 -->
<g id="edge31" class="edge">
<title>Node25&#45;&gt;Node15</title>
<path fill="none" stroke="#63b8ff" d="M590.64,-109.98C609.3,-101.46 638.25,-88.23 659.74,-78.41"/>
<polygon fill="#63b8ff" stroke="#63b8ff" points="661.38,-81.51 669.02,-74.17 658.47,-75.14 661.38,-81.51"/>
</g>
<!-- Node26&#45;&gt;Node5 -->
<g id="edge35" class="edge">
<title>Node26&#45;&gt;Node5</title>
<path fill="none" stroke="#63b8ff" d="M682.15,-227.36C624.64,-223.31 509.92,-205.54 467,-129 457.27,-111.66 473.53,-92.94 488.76,-80.35"/>
<polygon fill="#63b8ff" stroke="#63b8ff" points="491.17,-82.92 496.95,-74.04 486.89,-77.37 491.17,-82.92"/>
</g>
<!-- Node26&#45;&gt;Node13 -->
<g id="edge42" class="edge">
<title>Node26&#45;&gt;Node13</title>
<path fill="none" stroke="#63b8ff" d="M699.45,-219.98C683.11,-211.57 657.87,-198.59 638.87,-188.81"/>
<polygon fill="#63b8ff" stroke="#63b8ff" points="640.34,-185.63 629.85,-184.17 637.14,-191.86 640.34,-185.63"/>
</g>
<!-- Node26&#45;&gt;Node14 -->
<g id="edge34" class="edge">
<title>Node26&#45;&gt;Node14</title>
<path fill="none" stroke="#63b8ff" d="M717.23,-219.66C719.66,-202.17 725.12,-162.8 728.39,-139.27"/>
<polygon fill="#63b8ff" stroke="#63b8ff" points="731.89,-139.54 729.8,-129.16 724.95,-138.58 731.89,-139.54"/>
</g>
<!-- Node26&#45;&gt;Node15 -->
<g id="edge36" class="edge">
<title>Node26&#45;&gt;Node15</title>
<path fill="none" stroke="#63b8ff" d="M714.18,-219.74C710.62,-202.44 702.6,-162.66 697,-129 694.51,-114.03 692.12,-97 690.43,-84.35"/>
<polygon fill="#63b8ff" stroke="#63b8ff" points="693.86,-83.61 689.09,-74.15 686.92,-84.52 693.86,-83.61"/>
</g>
<!-- Node26&#45;&gt;Node16 -->
<g id="edge38" class="edge">
<title>Node26&#45;&gt;Node16</title>
<path fill="none" stroke="#63b8ff" d="M749.89,-228.88C811.6,-228.52 945.55,-222.84 1050,-184 1080.29,-172.73 1110.75,-150.62 1129.24,-135.7"/>
<polygon fill="#63b8ff" stroke="#63b8ff" points="1131.6,-138.29 1137.08,-129.22 1127.14,-132.89 1131.6,-138.29"/>
</g>
<!-- Node26&#45;&gt;Node25 -->
<g id="edge50" class="edge">
<title>Node26&#45;&gt;Node25</title>
<path fill="none" stroke="#63b8ff" d="M682.25,-229.06C647.29,-227.59 594.18,-219.2 568,-184 558.53,-171.27 560.95,-152.84 564.89,-139.11"/>
<polygon fill="#63b8ff" stroke="#63b8ff" points="568.32,-139.9 568.18,-129.31 561.68,-137.67 568.32,-139.9"/>
</g>
<!-- Node27 -->
<g id="node27" class="node">
<title>Node27</title>
<g id="a_node27"><a xlink:title=" ">
<polygon fill="#e0e0e0" stroke="#999999" points="1690.5,-74 1639.5,-74 1639.5,-55 1690.5,-55 1690.5,-74"/>
<text text-anchor="middle" x="1665" y="-62" font-family="Helvetica,sans-Serif" font-size="10.00">variant</text>
</a>
</g>
</g>
<!-- Node26&#45;&gt;Node27 -->
<g id="edge37" class="edge">
<title>Node26&#45;&gt;Node27</title>
<path fill="none" stroke="#63b8ff" d="M749.77,-227.35C890.64,-222.14 1431.19,-197.94 1585,-129 1610.39,-117.62 1634.72,-96.33 1649.74,-81.55"/>
<polygon fill="#63b8ff" stroke="#63b8ff" points="1652.54,-83.7 1657.08,-74.12 1647.56,-78.78 1652.54,-83.7"/>
</g>
<!-- Node28 -->
<g id="node28" class="node">
<title>Node28</title>
<g id="a_node28"><a xlink:href="../../d2/d3c/docvisitor_8h.html" target="_top" xlink:title=" ">
<polygon fill="white" stroke="#666666" points="855.5,-184 782.5,-184 782.5,-165 855.5,-165 855.5,-184"/>
<text text-anchor="middle" x="819" y="-172" font-family="Helvetica,sans-Serif" font-size="10.00">docvisitor.h</text>
</a>
</g>
</g>
<!-- Node26&#45;&gt;Node28 -->
<g id="edge39" class="edge">
<title>Node26&#45;&gt;Node28</title>
<path fill="none" stroke="#63b8ff" d="M732.55,-219.98C748.89,-211.57 774.13,-198.59 793.13,-188.81"/>
<polygon fill="#63b8ff" stroke="#63b8ff" points="794.86,-191.86 802.15,-184.17 791.66,-185.63 794.86,-191.86"/>
</g>
<!-- Node29 -->
<g id="node29" class="node">
<title>Node29</title>
<g id="a_node29"><a xlink:href="../../d0/d73/htmlattrib_8h.html" target="_top" xlink:title=" ">
<polygon fill="white" stroke="#666666" points="1041,-184 967,-184 967,-165 1041,-165 1041,-184"/>
<text text-anchor="middle" x="1004" y="-172" font-family="Helvetica,sans-Serif" font-size="10.00">htmlattrib.h</text>
</a>
</g>
</g>
<!-- Node26&#45;&gt;Node29 -->
<g id="edge43" class="edge">
<title>Node26&#45;&gt;Node29</title>
<path fill="none" stroke="#63b8ff" d="M749.67,-222.32C794.5,-214.08 876.55,-199.01 956.59,-184.26"/>
<polygon fill="#63b8ff" stroke="#63b8ff" points="957.64,-187.62 966.84,-182.37 956.37,-180.74 957.64,-187.62"/>
</g>
<!-- Node30 -->
<g id="node30" class="node">
<title>Node30</title>
<g id="a_node30"><a xlink:href="../../db/dc6/htmlentity_8h.html" target="_top" xlink:title=" ">
<polygon fill="white" stroke="#666666" points="948.5,-184 873.5,-184 873.5,-165 948.5,-165 948.5,-184"/>
<text text-anchor="middle" x="911" y="-172" font-family="Helvetica,sans-Serif" font-size="10.00">htmlentity.h</text>
</a>
</g>
</g>
<!-- Node26&#45;&gt;Node30 -->
<g id="edge46" class="edge">
<title>Node26&#45;&gt;Node30</title>
<path fill="none" stroke="#63b8ff" d="M747.33,-219.98C780.49,-210.97 833,-196.7 869.56,-186.76"/>
<polygon fill="#63b8ff" stroke="#63b8ff" points="870.69,-190.08 879.42,-184.08 868.86,-183.33 870.69,-190.08"/>
</g>
<!-- Node28&#45;&gt;Node15 -->
<g id="edge40" class="edge">
<title>Node28&#45;&gt;Node15</title>
<path fill="none" stroke="#63b8ff" d="M813.14,-164.88C803.99,-151.85 785.23,-126.87 765,-110 750.07,-97.55 731.21,-86.59 715.89,-78.66"/>
<polygon fill="#63b8ff" stroke="#63b8ff" points="717.38,-75.49 706.87,-74.12 714.24,-81.74 717.38,-75.49"/>
</g>
<!-- Node28&#45;&gt;Node16 -->
<g id="edge41" class="edge">
<title>Node28&#45;&gt;Node16</title>
<path fill="none" stroke="#63b8ff" d="M855.64,-166.64C858.81,-166.07 861.96,-165.52 865,-165 949.68,-150.5 1048.96,-135.23 1104.26,-126.89"/>
<polygon fill="#63b8ff" stroke="#63b8ff" points="1105.02,-130.31 1114.39,-125.36 1103.98,-123.39 1105.02,-130.31"/>
</g>
<!-- Node29&#45;&gt;Node5 -->
<g id="edge44" class="edge">
<title>Node29&#45;&gt;Node5</title>
<path fill="none" stroke="#63b8ff" d="M995.07,-164.68C980.02,-150.41 947.98,-122.59 915,-110 880.63,-96.88 634.72,-75.7 543.73,-68.22"/>
<polygon fill="#63b8ff" stroke="#63b8ff" points="543.93,-64.73 533.68,-67.4 543.36,-71.7 543.93,-64.73"/>
</g>
<!-- Node29&#45;&gt;Node16 -->
<g id="edge45" class="edge">
<title>Node29&#45;&gt;Node16</title>
<path fill="none" stroke="#63b8ff" d="M1026.98,-164.98C1050.5,-156.27 1087.29,-142.63 1113.94,-132.75"/>
<polygon fill="#63b8ff" stroke="#63b8ff" points="1115.45,-135.93 1123.61,-129.17 1113.01,-129.36 1115.45,-135.93"/>
</g>
<!-- Node30&#45;&gt;Node8 -->
<g id="edge48" class="edge">
<title>Node30&#45;&gt;Node8</title>
<path fill="none" stroke="#63b8ff" d="M914.65,-164.81C919.53,-151.69 926.33,-126.6 915,-110 888.14,-70.65 791.99,-91.17 823,-55 855.66,-16.9 1010.66,-11.13 1078.77,-10.46"/>
<polygon fill="#63b8ff" stroke="#63b8ff" points="1078.95,-13.96 1088.92,-10.39 1078.9,-6.96 1078.95,-13.96"/>
</g>
<!-- Node30&#45;&gt;Node12 -->
<g id="edge47" class="edge">
<title>Node30&#45;&gt;Node12</title>
<path fill="none" stroke="#63b8ff" d="M902.41,-164.75C894.84,-157.03 883.62,-145.6 874.49,-136.28"/>
<polygon fill="#63b8ff" stroke="#63b8ff" points="876.93,-133.78 867.43,-129.09 871.93,-138.68 876.93,-133.78"/>
</g>
<!-- Node30&#45;&gt;Node16 -->
<g id="edge49" class="edge">
<title>Node30&#45;&gt;Node16</title>
<path fill="none" stroke="#63b8ff" d="M948.66,-165.04C991.15,-155.5 1060.13,-140.01 1104.52,-130.04"/>
<polygon fill="#63b8ff" stroke="#63b8ff" points="1105.43,-133.42 1114.42,-127.82 1103.89,-126.59 1105.43,-133.42"/>
</g>
<!-- Node31&#45;&gt;Node14 -->
<g id="edge52" class="edge">
<title>Node31&#45;&gt;Node14</title>
<path fill="none" stroke="#63b8ff" d="M960.39,-224.07C902.49,-217.51 804.04,-203.83 774,-184 757.37,-173.02 745.49,-153.18 738.48,-138.58"/>
<polygon fill="#63b8ff" stroke="#63b8ff" points="741.52,-136.8 734.25,-129.09 735.13,-139.65 741.52,-136.8"/>
</g>
<!-- Node31&#45;&gt;Node15 -->
<g id="edge53" class="edge">
<title>Node31&#45;&gt;Node15</title>
<path fill="none" stroke="#63b8ff" d="M1017.99,-219.99C1035.68,-208.09 1062.43,-185.64 1050,-165 1016.31,-109.07 813.62,-79.74 727.1,-69.63"/>
<polygon fill="#63b8ff" stroke="#63b8ff" points="727.48,-66.15 717.14,-68.49 726.68,-73.11 727.48,-66.15"/>
</g>
<!-- Node31&#45;&gt;Node16 -->
<g id="edge55" class="edge">
<title>Node31&#45;&gt;Node16</title>
<path fill="none" stroke="#63b8ff" d="M1047.56,-220.82C1071.83,-214.55 1101.08,-203.42 1121,-184 1133.38,-171.93 1140.08,-153.12 1143.56,-139.11"/>
<polygon fill="#63b8ff" stroke="#63b8ff" points="1147.03,-139.62 1145.71,-129.11 1140.19,-138.15 1147.03,-139.62"/>
</g>
<!-- Node31&#45;&gt;Node29 -->
<g id="edge54" class="edge">
<title>Node31&#45;&gt;Node29</title>
<path fill="none" stroke="#63b8ff" d="M1004,-219.75C1004,-212.8 1004,-202.85 1004,-194.13"/>
<polygon fill="#63b8ff" stroke="#63b8ff" points="1007.5,-194.09 1004,-184.09 1000.5,-194.09 1007.5,-194.09"/>
</g>
<!-- Node32&#45;&gt;Node5 -->
<g id="edge58" class="edge">
<title>Node32&#45;&gt;Node5</title>
<path fill="none" stroke="#63b8ff" d="M1185.49,-164.96C1135.73,-151.34 1033.86,-124.75 946,-110 797.24,-85.02 617.41,-72.04 543.84,-67.46"/>
<polygon fill="#63b8ff" stroke="#63b8ff" points="543.97,-63.96 533.78,-66.84 543.54,-70.95 543.97,-63.96"/>
</g>
<!-- Node32&#45;&gt;Node8 -->
<g id="edge61" class="edge">
<title>Node32&#45;&gt;Node8</title>
<path fill="none" stroke="#63b8ff" d="M1235.48,-164.98C1276.18,-146.04 1363.61,-98.65 1328,-55 1305.1,-26.92 1198.34,-16.07 1143.58,-12.3"/>
<polygon fill="#63b8ff" stroke="#63b8ff" points="1143.57,-8.79 1133.36,-11.63 1143.11,-15.77 1143.57,-8.79"/>
</g>
<!-- Node32&#45;&gt;Node10 -->
<g id="edge59" class="edge">
<title>Node32&#45;&gt;Node10</title>
<path fill="none" stroke="#63b8ff" d="M1173.27,-171.33C1037.59,-164.37 620.25,-142.33 524.02,-128.54"/>
<polygon fill="#63b8ff" stroke="#63b8ff" points="524.57,-125.09 514.14,-126.95 523.45,-132 524.57,-125.09"/>
</g>
<!-- Node32&#45;&gt;Node12 -->
<g id="edge60" class="edge">
<title>Node32&#45;&gt;Node12</title>
<path fill="none" stroke="#63b8ff" d="M1173.29,-167.16C1109.08,-157.63 987.58,-139.59 915.91,-128.95"/>
<polygon fill="#63b8ff" stroke="#63b8ff" points="916.12,-125.44 905.71,-127.44 915.09,-132.37 916.12,-125.44"/>
</g>
<!-- Node32&#45;&gt;Node15 -->
<g id="edge57" class="edge">
<title>Node32&#45;&gt;Node15</title>
<path fill="none" stroke="#63b8ff" d="M1194.44,-164.95C1172.22,-156.1 1136.6,-141.79 1106,-129 1086.35,-120.78 1082.57,-115.54 1062,-110 999.48,-93.17 809.89,-75.75 727.23,-68.72"/>
<polygon fill="#63b8ff" stroke="#63b8ff" points="727.49,-65.23 717.23,-67.88 726.9,-72.21 727.49,-65.23"/>
</g>
<!-- Node32&#45;&gt;Node16 -->
<g id="edge64" class="edge">
<title>Node32&#45;&gt;Node16</title>
<path fill="none" stroke="#63b8ff" d="M1204.91,-164.98C1194.51,-157 1178.74,-144.88 1166.28,-135.31"/>
<polygon fill="#63b8ff" stroke="#63b8ff" points="1168.35,-132.49 1158.29,-129.17 1164.09,-138.04 1168.35,-132.49"/>
</g>
<!-- Node32&#45;&gt;Node27 -->
<g id="edge63" class="edge">
<title>Node32&#45;&gt;Node27</title>
<path fill="none" stroke="#63b8ff" d="M1258.71,-170.47C1312.91,-165.74 1408.76,-154.34 1487,-129 1504.96,-123.18 1507.5,-117.1 1525,-110 1559.73,-95.9 1600.72,-83.32 1629.34,-75.17"/>
<polygon fill="#63b8ff" stroke="#63b8ff" points="1630.61,-78.45 1639.29,-72.37 1628.71,-71.71 1630.61,-78.45"/>
</g>
<!-- Node33 -->
<g id="node33" class="node">
<title>Node33</title>
<g id="a_node33"><a xlink:title=" ">
<polygon fill="#e0e0e0" stroke="#999999" points="1576,-129 1534,-129 1534,-110 1576,-110 1576,-129"/>
<text text-anchor="middle" x="1555" y="-117" font-family="Helvetica,sans-Serif" font-size="10.00">array</text>
</a>
</g>
</g>
<!-- Node32&#45;&gt;Node33 -->
<g id="edge62" class="edge">
<title>Node32&#45;&gt;Node33</title>
<path fill="none" stroke="#63b8ff" d="M1258.5,-168.54C1317.47,-161.38 1427.32,-147 1520,-129 1521.28,-128.75 1522.58,-128.49 1523.89,-128.21"/>
<polygon fill="#63b8ff" stroke="#63b8ff" points="1524.98,-131.55 1533.97,-125.94 1523.45,-124.73 1524.98,-131.55"/>
</g>
<!-- Node34 -->
<g id="node34" class="node">
<title>Node34</title>
<g id="a_node34"><a xlink:href="../../dd/d72/growbuf_8h.html" target="_top" xlink:title=" ">
<polygon fill="white" stroke="#666666" points="1477.5,-129 1412.5,-129 1412.5,-110 1477.5,-110 1477.5,-129"/>
<text text-anchor="middle" x="1445" y="-117" font-family="Helvetica,sans-Serif" font-size="10.00">growbuf.h</text>
</a>
</g>
</g>
<!-- Node32&#45;&gt;Node34 -->
<g id="edge65" class="edge">
<title>Node32&#45;&gt;Node34</title>
<path fill="none" stroke="#63b8ff" d="M1252.79,-164.98C1293.64,-155.53 1359.48,-140.29 1402.5,-130.34"/>
<polygon fill="#63b8ff" stroke="#63b8ff" points="1403.42,-133.71 1412.38,-128.05 1401.85,-126.9 1403.42,-133.71"/>
</g>
<!-- Node38 -->
<g id="node38" class="node">
<title>Node38</title>
<g id="a_node38"><a xlink:href="../../da/d73/dispatcher_8h.html" target="_top" xlink:title=" ">
<polygon fill="white" stroke="#666666" points="1756,-129 1680,-129 1680,-110 1756,-110 1756,-129"/>
<text text-anchor="middle" x="1718" y="-117" font-family="Helvetica,sans-Serif" font-size="10.00">dispatcher.h</text>
</a>
</g>
</g>
<!-- Node32&#45;&gt;Node38 -->
<g id="edge70" class="edge">
<title>Node32&#45;&gt;Node38</title>
<path fill="none" stroke="#63b8ff" d="M1258.8,-168.98C1351.79,-159.16 1571.78,-135.94 1669.62,-125.61"/>
<polygon fill="#63b8ff" stroke="#63b8ff" points="1670.24,-129.06 1679.82,-124.53 1669.51,-122.1 1670.24,-129.06"/>
</g>
<!-- Node34&#45;&gt;Node8 -->
<g id="edge69" class="edge">
<title>Node34&#45;&gt;Node8</title>
<path fill="none" stroke="#63b8ff" d="M1439.2,-109.82C1429.3,-95.76 1407.67,-68.24 1382,-55 1303.3,-14.42 1196.17,-9.3 1143.28,-9.54"/>
<polygon fill="#63b8ff" stroke="#63b8ff" points="1143.1,-6.05 1133.14,-9.66 1143.18,-13.05 1143.1,-6.05"/>
</g>
<!-- Node35 -->
<g id="node35" class="node">
<title>Node35</title>
<g id="a_node35"><a xlink:title=" ">
<polygon fill="#e0e0e0" stroke="#999999" points="1621.5,-74 1576.5,-74 1576.5,-55 1621.5,-55 1621.5,-74"/>
<text text-anchor="middle" x="1599" y="-62" font-family="Helvetica,sans-Serif" font-size="10.00">utility</text>
</a>
</g>
</g>
<!-- Node34&#45;&gt;Node35 -->
<g id="edge66" class="edge">
<title>Node34&#45;&gt;Node35</title>
<path fill="none" stroke="#63b8ff" d="M1469.74,-109.98C1496.06,-100.93 1537.79,-86.56 1566.69,-76.62"/>
<polygon fill="#63b8ff" stroke="#63b8ff" points="1568.01,-79.87 1576.33,-73.3 1565.73,-73.25 1568.01,-79.87"/>
</g>
<!-- Node36 -->
<g id="node36" class="node">
<title>Node36</title>
<g id="a_node36"><a xlink:title=" ">
<polygon fill="#e0e0e0" stroke="#999999" points="1558.5,-74 1505.5,-74 1505.5,-55 1558.5,-55 1558.5,-74"/>
<text text-anchor="middle" x="1532" y="-62" font-family="Helvetica,sans-Serif" font-size="10.00">stdlib.h</text>
</a>
</g>
</g>
<!-- Node34&#45;&gt;Node36 -->
<g id="edge67" class="edge">
<title>Node34&#45;&gt;Node36</title>
<path fill="none" stroke="#63b8ff" d="M1458.98,-109.98C1472.47,-101.77 1493.13,-89.18 1509.04,-79.49"/>
<polygon fill="#63b8ff" stroke="#63b8ff" points="1511.05,-82.36 1517.77,-74.17 1507.41,-76.38 1511.05,-82.36"/>
</g>
<!-- Node37 -->
<g id="node37" class="node">
<title>Node37</title>
<g id="a_node37"><a xlink:title=" ">
<polygon fill="#e0e0e0" stroke="#999999" points="1487.5,-74 1434.5,-74 1434.5,-55 1487.5,-55 1487.5,-74"/>
<text text-anchor="middle" x="1461" y="-62" font-family="Helvetica,sans-Serif" font-size="10.00">string.h</text>
</a>
</g>
</g>
<!-- Node34&#45;&gt;Node37 -->
<g id="edge68" class="edge">
<title>Node34&#45;&gt;Node37</title>
<path fill="none" stroke="#63b8ff" d="M1447.64,-109.75C1449.76,-102.72 1452.81,-92.62 1455.46,-83.84"/>
<polygon fill="#63b8ff" stroke="#63b8ff" points="1458.87,-84.67 1458.41,-74.09 1452.17,-82.65 1458.87,-84.67"/>
</g>
<!-- Node38&#45;&gt;Node27 -->
<g id="edge74" class="edge">
<title>Node38&#45;&gt;Node27</title>
<path fill="none" stroke="#63b8ff" d="M1709.25,-109.75C1701.53,-102.03 1690.1,-90.6 1680.78,-81.28"/>
<polygon fill="#63b8ff" stroke="#63b8ff" points="1683.14,-78.69 1673.59,-74.09 1678.19,-83.64 1683.14,-78.69"/>
</g>
<!-- Node38&#45;&gt;Node35 -->
<g id="edge72" class="edge">
<title>Node38&#45;&gt;Node35</title>
<path fill="none" stroke="#63b8ff" d="M1698.88,-109.98C1679.65,-101.42 1649.77,-88.11 1627.69,-78.28"/>
<polygon fill="#63b8ff" stroke="#63b8ff" points="1629.03,-75.04 1618.47,-74.17 1626.18,-81.44 1629.03,-75.04"/>
</g>
<!-- Node39 -->
<g id="node39" class="node">
<title>Node39</title>
<g id="a_node39"><a xlink:title=" ">
<polygon fill="#e0e0e0" stroke="#999999" points="1761.5,-74 1708.5,-74 1708.5,-55 1761.5,-55 1761.5,-74"/>
<text text-anchor="middle" x="1735" y="-62" font-family="Helvetica,sans-Serif" font-size="10.00">cstddef</text>
</a>
</g>
</g>
<!-- Node38&#45;&gt;Node39 -->
<g id="edge71" class="edge">
<title>Node38&#45;&gt;Node39</title>
<path fill="none" stroke="#63b8ff" d="M1720.81,-109.75C1723.06,-102.72 1726.3,-92.62 1729.12,-83.84"/>
<polygon fill="#63b8ff" stroke="#63b8ff" points="1732.52,-84.68 1732.25,-74.09 1725.86,-82.54 1732.52,-84.68"/>
</g>
<!-- Node40 -->
<g id="node40" class="node">
<title>Node40</title>
<g id="a_node40"><a xlink:title=" ">
<polygon fill="#e0e0e0" stroke="#999999" points="1844.5,-74 1779.5,-74 1779.5,-55 1844.5,-55 1844.5,-74"/>
<text text-anchor="middle" x="1812" y="-62" font-family="Helvetica,sans-Serif" font-size="10.00">functional</text>
</a>
</g>
</g>
<!-- Node38&#45;&gt;Node40 -->
<g id="edge73" class="edge">
<title>Node38&#45;&gt;Node40</title>
<path fill="none" stroke="#63b8ff" d="M1733.1,-109.98C1747.82,-101.69 1770.42,-88.94 1787.67,-79.22"/>
<polygon fill="#63b8ff" stroke="#63b8ff" points="1789.63,-82.13 1796.62,-74.17 1786.19,-76.03 1789.63,-82.13"/>
</g>
<!-- Node41 -->
<g id="node41" class="node">
<title>Node41</title>
<g id="a_node41"><a xlink:title=" ">
<polygon fill="#e0e0e0" stroke="#999999" points="1931.5,-74 1862.5,-74 1862.5,-55 1931.5,-55 1931.5,-74"/>
<text text-anchor="middle" x="1897" y="-62" font-family="Helvetica,sans-Serif" font-size="10.00">type_traits</text>
</a>
</g>
</g>
<!-- Node38&#45;&gt;Node41 -->
<g id="edge75" class="edge">
<title>Node38&#45;&gt;Node41</title>
<path fill="none" stroke="#63b8ff" d="M1746.76,-109.98C1776.94,-101.05 1824.57,-86.94 1858.1,-77.02"/>
<polygon fill="#63b8ff" stroke="#63b8ff" points="1859.42,-80.28 1868.02,-74.08 1857.43,-73.57 1859.42,-80.28"/>
</g>
</g>
</svg>
