<?xml version="1.0" encoding="UTF-8" standalone="no"?>
<!DOCTYPE svg PUBLIC "-//W3C//DTD SVG 1.1//EN"
 "http://www.w3.org/Graphics/SVG/1.1/DTD/svg11.dtd">
<!-- Generated by graphviz version 2.43.0 (0)
 -->
<!-- Title: /home/runner/work/doxygen/doxygen/src/latexgen.h Pages: 1 -->
<!--zoomable 368 -->
<svg id="main" version="1.1" xmlns="http://www.w3.org/2000/svg" xmlns:xlink="http://www.w3.org/1999/xlink" xml:space="preserve" onload="init(evt)">
<style type="text/css"><![CDATA[
.edge:hover path { stroke: red; }
.edge:hover polygon { stroke: red; fill: red; }
]]></style>
<script type="text/javascript"><![CDATA[
var edges = document.getElementsByTagName('g');
if (edges && edges.length) {
  for (var i=0;i<edges.length;i++) {
    if (edges[i].id.substr(0,4)=='edge') {
      edges[i].setAttribute('class','edge');
    }
  }
}
]]></script>
        <defs>
                <circle id="rim" cx="0" cy="0" r="7"/>
                <circle id="rim2" cx="0" cy="0" r="3.5"/>
                <g id="zoomPlus">
                        <use xlink:href="#rim" fill="#404040">
                                <set attributeName="fill" to="#808080" begin="zoomplus.mouseover" end="zoomplus.mouseout"/>
                        </use>
                        <path d="M-4,0h8M0,-4v8" fill="none" stroke="white" stroke-width="1.5" pointer-events="none"/>
                </g>
                <g id="zoomMin">
                        <use xlink:href="#rim" fill="#404040">
                                <set attributeName="fill" to="#808080" begin="zoomminus.mouseover" end="zoomminus.mouseout"/>
                        </use>
                        <path d="M-4,0h8" fill="none" stroke="white" stroke-width="1.5" pointer-events="none"/>
                </g>
                <g id="dirArrow">
                        <path fill="none" stroke="white" stroke-width="1.5" d="M0,-3.0v7 M-2.5,-0.5L0,-3.0L2.5,-0.5"/>
                </g>
               <g id="resetDef">
                       <use xlink:href="#rim2" fill="#404040">
                               <set attributeName="fill" to="#808080" begin="reset.mouseover" end="reset.mouseout"/>
                       </use>
               </g>
        </defs>

<script type="text/javascript">
var viewWidth = 1128;
var viewHeight = 368;
var sectionId = 'dynsection-0';
</script>
<script xlink:href="../../svgpan.js"/>
<svg id="graph" class="graph">
<g id="viewport">
<title>/home/runner/work/doxygen/doxygen/src/latexgen.h</title>
<!-- Node1 -->
<g id="node1" class="node">
<title>Node1</title>
<g id="a_node1"><a xlink:title=" ">
<polygon fill="#999999" stroke="#666666" points="414.5,-360 260.5,-360 260.5,-330 414.5,-330 414.5,-360"/>
<text text-anchor="start" x="268.5" y="-348" font-family="Helvetica,sans-Serif" font-size="10.00">/home/runner/work/doxygen</text>
<text text-anchor="middle" x="337.5" y="-337" font-family="Helvetica,sans-Serif" font-size="10.00">/doxygen/src/latexgen.h</text>
</a>
</g>
</g>
<!-- Node2 -->
<g id="node2" class="node">
<title>Node2</title>
<g id="a_node2"><a xlink:href="../../db/d16/config_8h.html" target="_top" xlink:title=" ">
<polygon fill="white" stroke="#666666" points="324,-294 269,-294 269,-275 324,-275 324,-294"/>
<text text-anchor="middle" x="296.5" y="-282" font-family="Helvetica,sans-Serif" font-size="10.00">config.h</text>
</a>
</g>
</g>
<!-- Node1&#45;&gt;Node2 -->
<g id="edge1" class="edge">
<title>Node1&#45;&gt;Node2</title>
<path fill="none" stroke="#63b8ff" d="M327.58,-329.84C321.81,-321.61 314.5,-311.18 308.42,-302.51"/>
<polygon fill="#63b8ff" stroke="#63b8ff" points="311.25,-300.45 302.64,-294.27 305.52,-304.46 311.25,-300.45"/>
</g>
<!-- Node4 -->
<g id="node4" class="node">
<title>Node4</title>
<g id="a_node4"><a xlink:href="../../df/d06/outputgen_8h.html" target="_top" xlink:title=" ">
<polygon fill="white" stroke="#666666" points="579,-294 504,-294 504,-275 579,-275 579,-294"/>
<text text-anchor="middle" x="541.5" y="-282" font-family="Helvetica,sans-Serif" font-size="10.00">outputgen.h</text>
</a>
</g>
</g>
<!-- Node1&#45;&gt;Node4 -->
<g id="edge3" class="edge">
<title>Node1&#45;&gt;Node4</title>
<path fill="none" stroke="#63b8ff" d="M386.36,-329.99C421.72,-319.85 468.9,-306.32 501.91,-296.85"/>
<polygon fill="#63b8ff" stroke="#63b8ff" points="503.02,-300.17 511.67,-294.05 501.09,-293.45 503.02,-300.17"/>
</g>
<!-- Node3 -->
<g id="node3" class="node">
<title>Node3</title>
<g id="a_node3"><a xlink:title=" ">
<polygon fill="#e0e0e0" stroke="#999999" points="87,-239 0,-239 0,-220 87,-220 87,-239"/>
<text text-anchor="middle" x="43.5" y="-227" font-family="Helvetica,sans-Serif" font-size="10.00">configvalues.h</text>
</a>
</g>
</g>
<!-- Node2&#45;&gt;Node3 -->
<g id="edge2" class="edge">
<title>Node2&#45;&gt;Node3</title>
<path fill="none" stroke="#63b8ff" d="M268.94,-277.73C227.07,-268.96 146.75,-252.13 94.16,-241.11"/>
<polygon fill="#63b8ff" stroke="#63b8ff" points="94.86,-237.68 84.36,-239.06 93.43,-244.53 94.86,-237.68"/>
</g>
<!-- Node5 -->
<g id="node5" class="node">
<title>Node5</title>
<g id="a_node5"><a xlink:title=" ">
<polygon fill="#e0e0e0" stroke="#999999" points="182.5,-129 124.5,-129 124.5,-110 182.5,-110 182.5,-129"/>
<text text-anchor="middle" x="153.5" y="-117" font-family="Helvetica,sans-Serif" font-size="10.00">memory</text>
</a>
</g>
</g>
<!-- Node4&#45;&gt;Node5 -->
<g id="edge4" class="edge">
<title>Node4&#45;&gt;Node5</title>
<path fill="none" stroke="#63b8ff" d="M503.59,-281.58C448.52,-277.88 343.8,-267.45 259.5,-239 210.7,-222.53 185.28,-227.37 157.5,-184 149.03,-170.77 148.73,-152.65 150.15,-139.15"/>
<polygon fill="#63b8ff" stroke="#63b8ff" points="153.63,-139.5 151.59,-129.11 146.7,-138.51 153.63,-139.5"/>
</g>
<!-- Node6 -->
<g id="node6" class="node">
<title>Node6</title>
<g id="a_node6"><a xlink:title=" ">
<polygon fill="#e0e0e0" stroke="#999999" points="926,-239 883,-239 883,-220 926,-220 926,-239"/>
<text text-anchor="middle" x="904.5" y="-227" font-family="Helvetica,sans-Serif" font-size="10.00">stack</text>
</a>
</g>
</g>
<!-- Node4&#45;&gt;Node6 -->
<g id="edge5" class="edge">
<title>Node4&#45;&gt;Node6</title>
<path fill="none" stroke="#63b8ff" d="M579.45,-279.54C640.6,-272.89 764.57,-258.29 868.5,-239 869.96,-238.73 871.45,-238.44 872.95,-238.13"/>
<polygon fill="#63b8ff" stroke="#63b8ff" points="873.85,-241.52 882.87,-235.96 872.35,-234.68 873.85,-241.52"/>
</g>
<!-- Node7 -->
<g id="node7" class="node">
<title>Node7</title>
<g id="a_node7"><a xlink:title=" ">
<polygon fill="#e0e0e0" stroke="#999999" points="1046.5,-129 986.5,-129 986.5,-110 1046.5,-110 1046.5,-129"/>
<text text-anchor="middle" x="1016.5" y="-117" font-family="Helvetica,sans-Serif" font-size="10.00">iostream</text>
</a>
</g>
</g>
<!-- Node4&#45;&gt;Node7 -->
<g id="edge6" class="edge">
<title>Node4&#45;&gt;Node7</title>
<path fill="none" stroke="#63b8ff" d="M568.13,-274.95C595.58,-266.1 639.6,-251.79 677.5,-239 789.97,-201.03 922.66,-153.99 983.28,-132.38"/>
<polygon fill="#63b8ff" stroke="#63b8ff" points="984.48,-135.66 992.72,-129.01 982.13,-129.07 984.48,-135.66"/>
</g>
<!-- Node8 -->
<g id="node8" class="node">
<title>Node8</title>
<g id="a_node8"><a xlink:title=" ">
<polygon fill="#e0e0e0" stroke="#999999" points="1120,-129 1065,-129 1065,-110 1120,-110 1120,-129"/>
<text text-anchor="middle" x="1092.5" y="-117" font-family="Helvetica,sans-Serif" font-size="10.00">fstream</text>
</a>
</g>
</g>
<!-- Node4&#45;&gt;Node8 -->
<g id="edge7" class="edge">
<title>Node4&#45;&gt;Node8</title>
<path fill="none" stroke="#63b8ff" d="M579.03,-281.79C664.49,-277.48 871.16,-264.66 935.5,-239 994.72,-215.38 1051.06,-163.19 1077.23,-136.66"/>
<polygon fill="#63b8ff" stroke="#63b8ff" points="1079.9,-138.93 1084.35,-129.31 1074.88,-134.06 1079.9,-138.93"/>
</g>
<!-- Node9 -->
<g id="node9" class="node">
<title>Node9</title>
<g id="a_node9"><a xlink:href="../../d9/d49/types_8h.html" target="_top" xlink:title="This file contains a number of basic enums and types.">
<polygon fill="white" stroke="#666666" points="477,-184 424,-184 424,-165 477,-165 477,-184"/>
<text text-anchor="middle" x="450.5" y="-172" font-family="Helvetica,sans-Serif" font-size="10.00">types.h</text>
</a>
</g>
</g>
<!-- Node4&#45;&gt;Node9 -->
<g id="edge8" class="edge">
<title>Node4&#45;&gt;Node9</title>
<path fill="none" stroke="#63b8ff" d="M534.05,-274.66C518.85,-256.61 484.02,-215.28 464.47,-192.08"/>
<polygon fill="#63b8ff" stroke="#63b8ff" points="466.92,-189.55 457.8,-184.16 461.56,-194.06 466.92,-189.55"/>
</g>
<!-- Node20 -->
<g id="node20" class="node">
<title>Node20</title>
<g id="a_node20"><a xlink:href="../../d1/db5/index_8h.html" target="_top" xlink:title=" ">
<polygon fill="white" stroke="#666666" points="437,-239 384,-239 384,-220 437,-220 437,-239"/>
<text text-anchor="middle" x="410.5" y="-227" font-family="Helvetica,sans-Serif" font-size="10.00">index.h</text>
</a>
</g>
</g>
<!-- Node4&#45;&gt;Node20 -->
<g id="edge21" class="edge">
<title>Node4&#45;&gt;Node20</title>
<path fill="none" stroke="#63b8ff" d="M520.45,-274.98C499.09,-266.34 465.8,-252.87 441.44,-243.02"/>
<polygon fill="#63b8ff" stroke="#63b8ff" points="442.51,-239.68 431.93,-239.17 439.89,-246.17 442.51,-239.68"/>
</g>
<!-- Node21 -->
<g id="node21" class="node">
<title>Node21</title>
<g id="a_node21"><a xlink:href="../../d1/d2a/section_8h.html" target="_top" xlink:title=" ">
<polygon fill="white" stroke="#666666" points="603,-239 542,-239 542,-220 603,-220 603,-239"/>
<text text-anchor="middle" x="572.5" y="-227" font-family="Helvetica,sans-Serif" font-size="10.00">section.h</text>
</a>
</g>
</g>
<!-- Node4&#45;&gt;Node21 -->
<g id="edge23" class="edge">
<title>Node4&#45;&gt;Node21</title>
<path fill="none" stroke="#63b8ff" d="M546.62,-274.75C550.86,-267.49 557.03,-256.95 562.28,-247.98"/>
<polygon fill="#63b8ff" stroke="#63b8ff" points="565.45,-249.49 567.48,-239.09 559.41,-245.95 565.45,-249.49"/>
</g>
<!-- Node25 -->
<g id="node25" class="node">
<title>Node25</title>
<g id="a_node25"><a xlink:href="../../d4/d7d/textstream_8h.html" target="_top" xlink:title=" ">
<polygon fill="white" stroke="#666666" points="826.5,-184 746.5,-184 746.5,-165 826.5,-165 826.5,-184"/>
<text text-anchor="middle" x="786.5" y="-172" font-family="Helvetica,sans-Serif" font-size="10.00">textstream.h</text>
</a>
</g>
</g>
<!-- Node4&#45;&gt;Node25 -->
<g id="edge35" class="edge">
<title>Node4&#45;&gt;Node25</title>
<path fill="none" stroke="#63b8ff" d="M561.14,-274.84C604.25,-255.84 707.35,-210.39 757.77,-188.17"/>
<polygon fill="#63b8ff" stroke="#63b8ff" points="759.37,-191.28 767.11,-184.05 756.55,-184.88 759.37,-191.28"/>
</g>
<!-- Node28 -->
<g id="node28" class="node">
<title>Node28</title>
<g id="a_node28"><a xlink:href="../../de/d9c/docparser_8h.html" target="_top" xlink:title=" ">
<polygon fill="white" stroke="#666666" points="341,-239 268,-239 268,-220 341,-220 341,-239"/>
<text text-anchor="middle" x="304.5" y="-227" font-family="Helvetica,sans-Serif" font-size="10.00">docparser.h</text>
</a>
</g>
</g>
<!-- Node4&#45;&gt;Node28 -->
<g id="edge44" class="edge">
<title>Node4&#45;&gt;Node28</title>
<path fill="none" stroke="#63b8ff" d="M503.95,-275.1C462.53,-265.84 395.86,-250.93 351.13,-240.93"/>
<polygon fill="#63b8ff" stroke="#63b8ff" points="351.62,-237.45 341.1,-238.68 350.09,-244.28 351.62,-237.45"/>
</g>
<!-- Node10 -->
<g id="node10" class="node">
<title>Node10</title>
<g id="a_node10"><a xlink:href="../../d7/d5c/qcstring_8h.html" target="_top" xlink:title=" ">
<polygon fill="white" stroke="#666666" points="428,-129 363,-129 363,-110 428,-110 428,-129"/>
<text text-anchor="middle" x="395.5" y="-117" font-family="Helvetica,sans-Serif" font-size="10.00">qcstring.h</text>
</a>
</g>
</g>
<!-- Node9&#45;&gt;Node10 -->
<g id="edge9" class="edge">
<title>Node9&#45;&gt;Node10</title>
<path fill="none" stroke="#63b8ff" d="M441.42,-164.75C433.41,-157.03 421.54,-145.6 411.88,-136.28"/>
<polygon fill="#63b8ff" stroke="#63b8ff" points="414.04,-133.51 404.41,-129.09 409.19,-138.55 414.04,-133.51"/>
</g>
<!-- Node11 -->
<g id="node11" class="node">
<title>Node11</title>
<g id="a_node11"><a xlink:title=" ">
<polygon fill="#e0e0e0" stroke="#999999" points="707.5,-19 663.5,-19 663.5,0 707.5,0 707.5,-19"/>
<text text-anchor="middle" x="685.5" y="-7" font-family="Helvetica,sans-Serif" font-size="10.00">string</text>
</a>
</g>
</g>
<!-- Node10&#45;&gt;Node11 -->
<g id="edge10" class="edge">
<title>Node10&#45;&gt;Node11</title>
<path fill="none" stroke="#63b8ff" d="M395.39,-109.57C395.74,-95.67 398.6,-68.98 414.5,-55 449.44,-24.27 588.67,-14.53 652.82,-11.64"/>
<polygon fill="#63b8ff" stroke="#63b8ff" points="653.32,-15.12 663.17,-11.2 653.03,-8.13 653.32,-15.12"/>
</g>
<!-- Node12 -->
<g id="node12" class="node">
<title>Node12</title>
<g id="a_node12"><a xlink:title=" ">
<polygon fill="#e0e0e0" stroke="#999999" points="487.5,-74 423.5,-74 423.5,-55 487.5,-55 487.5,-74"/>
<text text-anchor="middle" x="455.5" y="-62" font-family="Helvetica,sans-Serif" font-size="10.00">algorithm</text>
</a>
</g>
</g>
<!-- Node10&#45;&gt;Node12 -->
<g id="edge11" class="edge">
<title>Node10&#45;&gt;Node12</title>
<path fill="none" stroke="#63b8ff" d="M405.14,-109.98C414.01,-102.15 427.37,-90.34 438.11,-80.86"/>
<polygon fill="#63b8ff" stroke="#63b8ff" points="440.51,-83.41 445.68,-74.17 435.87,-78.17 440.51,-83.41"/>
</g>
<!-- Node13 -->
<g id="node13" class="node">
<title>Node13</title>
<g id="a_node13"><a xlink:title=" ">
<polygon fill="#e0e0e0" stroke="#999999" points="555,-74 506,-74 506,-55 555,-55 555,-74"/>
<text text-anchor="middle" x="530.5" y="-62" font-family="Helvetica,sans-Serif" font-size="10.00">cctype</text>
</a>
</g>
</g>
<!-- Node10&#45;&gt;Node13 -->
<g id="edge12" class="edge">
<title>Node10&#45;&gt;Node13</title>
<path fill="none" stroke="#63b8ff" d="M417.19,-109.98C439.3,-101.3 473.82,-87.75 498.95,-77.88"/>
<polygon fill="#63b8ff" stroke="#63b8ff" points="500.39,-81.08 508.42,-74.17 497.83,-74.57 500.39,-81.08"/>
</g>
<!-- Node14 -->
<g id="node14" class="node">
<title>Node14</title>
<g id="a_node14"><a xlink:title=" ">
<polygon fill="#e0e0e0" stroke="#999999" points="303.5,-74 253.5,-74 253.5,-55 303.5,-55 303.5,-74"/>
<text text-anchor="middle" x="278.5" y="-62" font-family="Helvetica,sans-Serif" font-size="10.00">cstring</text>
</a>
</g>
</g>
<!-- Node10&#45;&gt;Node14 -->
<g id="edge13" class="edge">
<title>Node10&#45;&gt;Node14</title>
<path fill="none" stroke="#63b8ff" d="M376.7,-109.98C357.88,-101.46 328.68,-88.23 307,-78.41"/>
<polygon fill="#63b8ff" stroke="#63b8ff" points="308.19,-75.11 297.64,-74.17 305.3,-81.48 308.19,-75.11"/>
</g>
<!-- Node15 -->
<g id="node15" class="node">
<title>Node15</title>
<g id="a_node15"><a xlink:title=" ">
<polygon fill="#e0e0e0" stroke="#999999" points="619.5,-74 573.5,-74 573.5,-55 619.5,-55 619.5,-74"/>
<text text-anchor="middle" x="596.5" y="-62" font-family="Helvetica,sans-Serif" font-size="10.00">cstdio</text>
</a>
</g>
</g>
<!-- Node10&#45;&gt;Node15 -->
<g id="edge14" class="edge">
<title>Node10&#45;&gt;Node15</title>
<path fill="none" stroke="#63b8ff" d="M427.9,-109.99C459.93,-101.57 510.6,-88.25 563.53,-74.25"/>
<polygon fill="#63b8ff" stroke="#63b8ff" points="564.66,-77.57 573.43,-71.63 562.87,-70.81 564.66,-77.57"/>
</g>
<!-- Node16 -->
<g id="node16" class="node">
<title>Node16</title>
<g id="a_node16"><a xlink:title=" ">
<polygon fill="#e0e0e0" stroke="#999999" points="122,-74 73,-74 73,-55 122,-55 122,-74"/>
<text text-anchor="middle" x="97.5" y="-62" font-family="Helvetica,sans-Serif" font-size="10.00">cstdlib</text>
</a>
</g>
</g>
<!-- Node10&#45;&gt;Node16 -->
<g id="edge15" class="edge">
<title>Node10&#45;&gt;Node16</title>
<path fill="none" stroke="#63b8ff" d="M362.78,-113.37C305.68,-104.35 189.16,-85.69 132.22,-74.19"/>
<polygon fill="#63b8ff" stroke="#63b8ff" points="132.82,-70.74 122.31,-72.13 131.39,-77.6 132.82,-70.74"/>
</g>
<!-- Node17 -->
<g id="node17" class="node">
<title>Node17</title>
<g id="a_node17"><a xlink:title=" ">
<polygon fill="#e0e0e0" stroke="#999999" points="369.5,-19 319.5,-19 319.5,0 369.5,0 369.5,-19"/>
<text text-anchor="middle" x="344.5" y="-7" font-family="Helvetica,sans-Serif" font-size="10.00">cstdint</text>
</a>
</g>
</g>
<!-- Node10&#45;&gt;Node17 -->
<g id="edge16" class="edge">
<title>Node10&#45;&gt;Node17</title>
<path fill="none" stroke="#63b8ff" d="M362.99,-113.53C323.01,-106.68 258.7,-92.99 244.5,-74 223.9,-46.45 272.91,-27.79 309.37,-18.17"/>
<polygon fill="#63b8ff" stroke="#63b8ff" points="310.4,-21.52 319.25,-15.69 308.69,-14.73 310.4,-21.52"/>
</g>
<!-- Node18 -->
<g id="node18" class="node">
<title>Node18</title>
<g id="a_node18"><a xlink:title=" ">
<polygon fill="#e0e0e0" stroke="#999999" points="197,-74 140,-74 140,-55 197,-55 197,-74"/>
<text text-anchor="middle" x="168.5" y="-62" font-family="Helvetica,sans-Serif" font-size="10.00">ostream</text>
</a>
</g>
</g>
<!-- Node10&#45;&gt;Node18 -->
<g id="edge17" class="edge">
<title>Node10&#45;&gt;Node18</title>
<path fill="none" stroke="#63b8ff" d="M362.98,-110.91C321.78,-101.29 250.88,-84.73 207.02,-74.49"/>
<polygon fill="#63b8ff" stroke="#63b8ff" points="207.55,-71.02 197.02,-72.16 205.96,-77.84 207.55,-71.02"/>
</g>
<!-- Node19 -->
<g id="node19" class="node">
<title>Node19</title>
<g id="a_node19"><a xlink:href="../../db/d7c/utf8_8h.html" target="_top" xlink:title="Various UTF8 related helper functions.">
<polygon fill="white" stroke="#666666" points="367,-74 322,-74 322,-55 367,-55 367,-74"/>
<text text-anchor="middle" x="344.5" y="-62" font-family="Helvetica,sans-Serif" font-size="10.00">utf8.h</text>
</a>
</g>
</g>
<!-- Node10&#45;&gt;Node19 -->
<g id="edge18" class="edge">
<title>Node10&#45;&gt;Node19</title>
<path fill="none" stroke="#63b8ff" d="M387.08,-109.75C379.73,-102.11 368.87,-90.82 359.96,-81.56"/>
<polygon fill="#63b8ff" stroke="#63b8ff" points="362.22,-78.87 352.76,-74.09 357.18,-83.72 362.22,-78.87"/>
</g>
<!-- Node19&#45;&gt;Node11 -->
<g id="edge20" class="edge">
<title>Node19&#45;&gt;Node11</title>
<path fill="none" stroke="#63b8ff" d="M367.14,-58C371.87,-56.93 376.84,-55.88 381.5,-55 480,-36.51 597.67,-21.19 653.31,-14.35"/>
<polygon fill="#63b8ff" stroke="#63b8ff" points="653.77,-17.82 663.28,-13.13 652.92,-10.87 653.77,-17.82"/>
</g>
<!-- Node19&#45;&gt;Node17 -->
<g id="edge19" class="edge">
<title>Node19&#45;&gt;Node17</title>
<path fill="none" stroke="#63b8ff" d="M344.5,-54.75C344.5,-47.8 344.5,-37.85 344.5,-29.13"/>
<polygon fill="#63b8ff" stroke="#63b8ff" points="348,-29.09 344.5,-19.09 341,-29.09 348,-29.09"/>
</g>
<!-- Node20&#45;&gt;Node10 -->
<g id="edge22" class="edge">
<title>Node20&#45;&gt;Node10</title>
<path fill="none" stroke="#63b8ff" d="M409.27,-219.66C406.84,-202.17 401.38,-162.8 398.11,-139.27"/>
<polygon fill="#63b8ff" stroke="#63b8ff" points="401.55,-138.58 396.7,-129.16 394.61,-139.54 401.55,-138.58"/>
</g>
<!-- Node21&#45;&gt;Node10 -->
<g id="edge26" class="edge">
<title>Node21&#45;&gt;Node10</title>
<path fill="none" stroke="#63b8ff" d="M562.08,-219.83C546.32,-206.95 515.22,-182.43 486.5,-165 466.62,-152.94 443,-141.46 424.8,-133.19"/>
<polygon fill="#63b8ff" stroke="#63b8ff" points="426.13,-129.95 415.57,-129.05 423.27,-136.33 426.13,-129.95"/>
</g>
<!-- Node21&#45;&gt;Node11 -->
<g id="edge24" class="edge">
<title>Node21&#45;&gt;Node11</title>
<path fill="none" stroke="#63b8ff" d="M588.92,-219.9C602.73,-212.02 622.27,-199.29 635.5,-184 674.76,-138.64 683.26,-64.14 685.05,-29.42"/>
<polygon fill="#63b8ff" stroke="#63b8ff" points="688.56,-29.39 685.44,-19.27 681.56,-29.13 688.56,-29.39"/>
</g>
<!-- Node22 -->
<g id="node22" class="node">
<title>Node22</title>
<g id="a_node22"><a xlink:title=" ">
<polygon fill="#e0e0e0" stroke="#999999" points="654,-129 561,-129 561,-110 654,-110 654,-129"/>
<text text-anchor="middle" x="607.5" y="-117" font-family="Helvetica,sans-Serif" font-size="10.00">unordered_map</text>
</a>
</g>
</g>
<!-- Node21&#45;&gt;Node22 -->
<g id="edge25" class="edge">
<title>Node21&#45;&gt;Node22</title>
<path fill="none" stroke="#63b8ff" d="M586.87,-219.96C598.37,-212.21 613.68,-199.62 620.5,-184 626.89,-169.35 622.19,-151.41 616.74,-138.34"/>
<polygon fill="#63b8ff" stroke="#63b8ff" points="619.8,-136.64 612.4,-129.06 613.46,-139.6 619.8,-136.64"/>
</g>
<!-- Node23 -->
<g id="node23" class="node">
<title>Node23</title>
<g id="a_node23"><a xlink:href="../../da/de1/linkedmap_8h.html" target="_top" xlink:title=" ">
<polygon fill="white" stroke="#666666" points="611,-184 534,-184 534,-165 611,-165 611,-184"/>
<text text-anchor="middle" x="572.5" y="-172" font-family="Helvetica,sans-Serif" font-size="10.00">linkedmap.h</text>
</a>
</g>
</g>
<!-- Node21&#45;&gt;Node23 -->
<g id="edge27" class="edge">
<title>Node21&#45;&gt;Node23</title>
<path fill="none" stroke="#63b8ff" d="M572.5,-219.75C572.5,-212.8 572.5,-202.85 572.5,-194.13"/>
<polygon fill="#63b8ff" stroke="#63b8ff" points="576,-194.09 572.5,-184.09 569,-194.09 576,-194.09"/>
</g>
<!-- Node23&#45;&gt;Node5 -->
<g id="edge30" class="edge">
<title>Node23&#45;&gt;Node5</title>
<path fill="none" stroke="#63b8ff" d="M533.96,-169.51C454.39,-161.2 273.29,-141.85 193.08,-129.07"/>
<polygon fill="#63b8ff" stroke="#63b8ff" points="193.34,-125.57 182.9,-127.39 192.2,-132.47 193.34,-125.57"/>
</g>
<!-- Node23&#45;&gt;Node10 -->
<g id="edge34" class="edge">
<title>Node23&#45;&gt;Node10</title>
<path fill="none" stroke="#63b8ff" d="M544.06,-164.98C514.22,-156.05 467.12,-141.94 433.97,-132.02"/>
<polygon fill="#63b8ff" stroke="#63b8ff" points="434.74,-128.6 424.16,-129.08 432.74,-135.3 434.74,-128.6"/>
</g>
<!-- Node23&#45;&gt;Node11 -->
<g id="edge31" class="edge">
<title>Node23&#45;&gt;Node11</title>
<path fill="none" stroke="#63b8ff" d="M565.32,-164.68C555.78,-151.83 541.37,-127.58 552.5,-110 572.49,-78.42 598.54,-96.35 628.5,-74 646.23,-60.78 662.67,-41.38 673.29,-27.51"/>
<polygon fill="#63b8ff" stroke="#63b8ff" points="676.22,-29.42 679.38,-19.31 670.61,-25.25 676.22,-29.42"/>
</g>
<!-- Node23&#45;&gt;Node12 -->
<g id="edge32" class="edge">
<title>Node23&#45;&gt;Node12</title>
<path fill="none" stroke="#63b8ff" d="M558.5,-164.81C545.45,-156.41 525.77,-142.93 510.5,-129 494.59,-114.48 478.74,-95.59 468.17,-82.19"/>
<polygon fill="#63b8ff" stroke="#63b8ff" points="470.93,-80.04 462.04,-74.29 465.4,-84.33 470.93,-80.04"/>
</g>
<!-- Node23&#45;&gt;Node13 -->
<g id="edge33" class="edge">
<title>Node23&#45;&gt;Node13</title>
<path fill="none" stroke="#63b8ff" d="M555.61,-164.95C542.79,-157.43 526.12,-145.15 518.5,-129 511.7,-114.59 516.14,-96.62 521.44,-83.48"/>
<polygon fill="#63b8ff" stroke="#63b8ff" points="524.73,-84.69 525.68,-74.14 518.36,-81.8 524.73,-84.69"/>
</g>
<!-- Node23&#45;&gt;Node22 -->
<g id="edge28" class="edge">
<title>Node23&#45;&gt;Node22</title>
<path fill="none" stroke="#63b8ff" d="M578.28,-164.75C583.12,-157.42 590.18,-146.73 596.14,-137.7"/>
<polygon fill="#63b8ff" stroke="#63b8ff" points="599.24,-139.36 601.83,-129.09 593.4,-135.5 599.24,-139.36"/>
</g>
<!-- Node24 -->
<g id="node24" class="node">
<title>Node24</title>
<g id="a_node24"><a xlink:title=" ">
<polygon fill="#e0e0e0" stroke="#999999" points="332,-129 285,-129 285,-110 332,-110 332,-129"/>
<text text-anchor="middle" x="308.5" y="-117" font-family="Helvetica,sans-Serif" font-size="10.00">vector</text>
</a>
</g>
</g>
<!-- Node23&#45;&gt;Node24 -->
<g id="edge29" class="edge">
<title>Node23&#45;&gt;Node24</title>
<path fill="none" stroke="#63b8ff" d="M533.83,-165.74C482.19,-155.37 391.54,-137.17 342.43,-127.31"/>
<polygon fill="#63b8ff" stroke="#63b8ff" points="342.82,-123.82 332.32,-125.28 341.44,-130.68 342.82,-123.82"/>
</g>
<!-- Node25&#45;&gt;Node7 -->
<g id="edge37" class="edge">
<title>Node25&#45;&gt;Node7</title>
<path fill="none" stroke="#63b8ff" d="M823.45,-164.98C865.3,-155.34 933.27,-139.68 976.38,-129.74"/>
<polygon fill="#63b8ff" stroke="#63b8ff" points="977.29,-133.13 986.25,-127.47 975.72,-126.31 977.29,-133.13"/>
</g>
<!-- Node25&#45;&gt;Node8 -->
<g id="edge41" class="edge">
<title>Node25&#45;&gt;Node8</title>
<path fill="none" stroke="#63b8ff" d="M826.75,-167.64C877.51,-160.07 967.68,-146.04 1054.62,-129.07"/>
<polygon fill="#63b8ff" stroke="#63b8ff" points="1055.52,-132.46 1064.66,-127.09 1054.17,-125.59 1055.52,-132.46"/>
</g>
<!-- Node25&#45;&gt;Node10 -->
<g id="edge43" class="edge">
<title>Node25&#45;&gt;Node10</title>
<path fill="none" stroke="#63b8ff" d="M746.49,-168.08C672.42,-158.04 514.52,-136.63 438.35,-126.31"/>
<polygon fill="#63b8ff" stroke="#63b8ff" points="438.54,-122.8 428.16,-124.93 437.6,-129.74 438.54,-122.8"/>
</g>
<!-- Node25&#45;&gt;Node11 -->
<g id="edge36" class="edge">
<title>Node25&#45;&gt;Node11</title>
<path fill="none" stroke="#63b8ff" d="M826.67,-167.35C867.28,-160.22 925.92,-147.09 939.5,-129 944.57,-122.25 944.26,-116.98 939.5,-110 888.97,-35.94 774.29,-17 717.95,-12.16"/>
<polygon fill="#63b8ff" stroke="#63b8ff" points="718.06,-8.66 707.82,-11.39 717.53,-15.64 718.06,-8.66"/>
</g>
<!-- Node25&#45;&gt;Node15 -->
<g id="edge40" class="edge">
<title>Node25&#45;&gt;Node15</title>
<path fill="none" stroke="#63b8ff" d="M771.27,-164.84C738.26,-146.08 659.87,-101.52 620.27,-79.01"/>
<polygon fill="#63b8ff" stroke="#63b8ff" points="621.96,-75.95 611.54,-74.05 618.5,-82.03 621.96,-75.95"/>
</g>
<!-- Node25&#45;&gt;Node17 -->
<g id="edge39" class="edge">
<title>Node25&#45;&gt;Node17</title>
<path fill="none" stroke="#63b8ff" d="M778.26,-164.76C756.35,-142.17 693.89,-81.71 628.5,-55 544.04,-20.5 435.38,-12.58 380.15,-10.87"/>
<polygon fill="#63b8ff" stroke="#63b8ff" points="379.93,-7.36 369.84,-10.61 379.75,-14.36 379.93,-7.36"/>
</g>
<!-- Node26 -->
<g id="node26" class="node">
<title>Node26</title>
<g id="a_node26"><a xlink:title=" ">
<polygon fill="#e0e0e0" stroke="#999999" points="842.5,-129 786.5,-129 786.5,-110 842.5,-110 842.5,-129"/>
<text text-anchor="middle" x="814.5" y="-117" font-family="Helvetica,sans-Serif" font-size="10.00">sstream</text>
</a>
</g>
</g>
<!-- Node25&#45;&gt;Node26 -->
<g id="edge38" class="edge">
<title>Node25&#45;&gt;Node26</title>
<path fill="none" stroke="#63b8ff" d="M791.12,-164.75C794.96,-157.49 800.52,-146.95 805.26,-137.98"/>
<polygon fill="#63b8ff" stroke="#63b8ff" points="808.39,-139.57 809.96,-129.09 802.2,-136.3 808.39,-139.57"/>
</g>
<!-- Node27 -->
<g id="node27" class="node">
<title>Node27</title>
<g id="a_node27"><a xlink:title=" ">
<polygon fill="#e0e0e0" stroke="#999999" points="930,-129 861,-129 861,-110 930,-110 930,-129"/>
<text text-anchor="middle" x="895.5" y="-117" font-family="Helvetica,sans-Serif" font-size="10.00">type_traits</text>
</a>
</g>
</g>
<!-- Node25&#45;&gt;Node27 -->
<g id="edge42" class="edge">
<title>Node25&#45;&gt;Node27</title>
<path fill="none" stroke="#63b8ff" d="M804.01,-164.98C821.47,-156.5 848.51,-143.35 868.67,-133.54"/>
<polygon fill="#63b8ff" stroke="#63b8ff" points="870.21,-136.69 877.67,-129.17 867.14,-130.4 870.21,-136.69"/>
</g>
<!-- Node28&#45;&gt;Node5 -->
<g id="edge46" class="edge">
<title>Node28&#45;&gt;Node5</title>
<path fill="none" stroke="#63b8ff" d="M267.72,-225.26C238.15,-220.74 197.54,-209.91 172.5,-184 160.89,-171.98 156.34,-153.17 154.57,-139.14"/>
<polygon fill="#63b8ff" stroke="#63b8ff" points="158.05,-138.78 153.67,-129.13 151.08,-139.4 158.05,-138.78"/>
</g>
<!-- Node28&#45;&gt;Node10 -->
<g id="edge47" class="edge">
<title>Node28&#45;&gt;Node10</title>
<path fill="none" stroke="#63b8ff" d="M311.95,-219.66C327.15,-201.61 361.98,-160.28 381.53,-137.08"/>
<polygon fill="#63b8ff" stroke="#63b8ff" points="384.44,-139.06 388.2,-129.16 379.08,-134.55 384.44,-139.06"/>
</g>
<!-- Node29 -->
<g id="node29" class="node">
<title>Node29</title>
<g id="a_node29"><a xlink:title=" ">
<polygon fill="#e0e0e0" stroke="#999999" points="329.5,-184 279.5,-184 279.5,-165 329.5,-165 329.5,-184"/>
<text text-anchor="middle" x="304.5" y="-172" font-family="Helvetica,sans-Serif" font-size="10.00">stdio.h</text>
</a>
</g>
</g>
<!-- Node28&#45;&gt;Node29 -->
<g id="edge45" class="edge">
<title>Node28&#45;&gt;Node29</title>
<path fill="none" stroke="#63b8ff" d="M304.5,-219.75C304.5,-212.8 304.5,-202.85 304.5,-194.13"/>
<polygon fill="#63b8ff" stroke="#63b8ff" points="308,-194.09 304.5,-184.09 301,-194.09 308,-194.09"/>
</g>
<!-- Node30 -->
<g id="node30" class="node">
<title>Node30</title>
<g id="a_node30"><a xlink:href="../../d7/d50/growvector_8h.html" target="_top" xlink:title=" ">
<polygon fill="white" stroke="#666666" points="261.5,-184 181.5,-184 181.5,-165 261.5,-165 261.5,-184"/>
<text text-anchor="middle" x="221.5" y="-172" font-family="Helvetica,sans-Serif" font-size="10.00">growvector.h</text>
</a>
</g>
</g>
<!-- Node28&#45;&gt;Node30 -->
<g id="edge48" class="edge">
<title>Node28&#45;&gt;Node30</title>
<path fill="none" stroke="#63b8ff" d="M291.16,-219.98C278.41,-211.84 258.95,-199.41 243.83,-189.76"/>
<polygon fill="#63b8ff" stroke="#63b8ff" points="245.39,-186.6 235.08,-184.17 241.62,-192.5 245.39,-186.6"/>
</g>
<!-- Node30&#45;&gt;Node5 -->
<g id="edge50" class="edge">
<title>Node30&#45;&gt;Node5</title>
<path fill="none" stroke="#63b8ff" d="M210.57,-164.98C200.42,-157.07 185.08,-145.11 172.85,-135.58"/>
<polygon fill="#63b8ff" stroke="#63b8ff" points="174.66,-132.56 164.62,-129.17 170.36,-138.08 174.66,-132.56"/>
</g>
<!-- Node30&#45;&gt;Node24 -->
<g id="edge49" class="edge">
<title>Node30&#45;&gt;Node24</title>
<path fill="none" stroke="#63b8ff" d="M235.48,-164.98C248.97,-156.77 269.63,-144.18 285.54,-134.49"/>
<polygon fill="#63b8ff" stroke="#63b8ff" points="287.55,-137.36 294.27,-129.17 283.91,-131.38 287.55,-137.36"/>
</g>
<!-- Node31 -->
<g id="node31" class="node">
<title>Node31</title>
<g id="a_node31"><a xlink:title=" ">
<polygon fill="#e0e0e0" stroke="#999999" points="254,-129 201,-129 201,-110 254,-110 254,-129"/>
<text text-anchor="middle" x="227.5" y="-117" font-family="Helvetica,sans-Serif" font-size="10.00">iterator</text>
</a>
</g>
</g>
<!-- Node30&#45;&gt;Node31 -->
<g id="edge51" class="edge">
<title>Node30&#45;&gt;Node31</title>
<path fill="none" stroke="#63b8ff" d="M222.49,-164.75C223.28,-157.8 224.4,-147.85 225.39,-139.13"/>
<polygon fill="#63b8ff" stroke="#63b8ff" points="228.88,-139.42 226.53,-129.09 221.92,-138.63 228.88,-139.42"/>
</g>
</g>
</svg>
        <g id="navigator" transform="translate(0 0)" fill="#404254">
                <rect fill="#f2f5e9" fill-opacity="0.5" stroke="#606060" stroke-width=".5" x="0" y="0" width="60" height="60"/>
                <use id="zoomplus" xlink:href="#zoomPlus" x="17" y="9" onmousedown="handleZoom(evt,'in')"/>
                <use id="zoomminus" xlink:href="#zoomMin" x="42" y="9" onmousedown="handleZoom(evt,'out')"/>
                <use id="reset" xlink:href="#resetDef" x="30" y="36" onmousedown="handleReset()"/>
                <g id="arrowUp" xlink:href="#dirArrow" transform="translate(30 24)" onmousedown="handlePan(0,-1)">
                  <use xlink:href="#rim" fill="#404040">
                        <set attributeName="fill" to="#808080" begin="arrowUp.mouseover" end="arrowUp.mouseout"/>
                  </use>
                  <path fill="none" stroke="white" stroke-width="1.5" d="M0,-3.0v7 M-2.5,-0.5L0,-3.0L2.5,-0.5"/>
                </g>
                <g id="arrowRight" xlink:href="#dirArrow" transform="rotate(90) translate(36 -43)" onmousedown="handlePan(1,0)">
                  <use xlink:href="#rim" fill="#404040">
                        <set attributeName="fill" to="#808080" begin="arrowRight.mouseover" end="arrowRight.mouseout"/>
                  </use>
                  <path fill="none" stroke="white" stroke-width="1.5" d="M0,-3.0v7 M-2.5,-0.5L0,-3.0L2.5,-0.5"/>
                </g>
                <g id="arrowDown" xlink:href="#dirArrow" transform="rotate(180) translate(-30 -48)" onmousedown="handlePan(0,1)">
                  <use xlink:href="#rim" fill="#404040">
                        <set attributeName="fill" to="#808080" begin="arrowDown.mouseover" end="arrowDown.mouseout"/>
                  </use>
                  <path fill="none" stroke="white" stroke-width="1.5" d="M0,-3.0v7 M-2.5,-0.5L0,-3.0L2.5,-0.5"/>
                </g>
                <g id="arrowLeft" xlink:href="#dirArrow" transform="rotate(270) translate(-36 17)" onmousedown="handlePan(-1,0)">
                  <use xlink:href="#rim" fill="#404040">
                        <set attributeName="fill" to="#808080" begin="arrowLeft.mouseover" end="arrowLeft.mouseout"/>
                  </use>
                  <path fill="none" stroke="white" stroke-width="1.5" d="M0,-3.0v7 M-2.5,-0.5L0,-3.0L2.5,-0.5"/>
                </g>
        </g>
        <svg viewBox="0 0 15 15" width="100%" height="30px" preserveAspectRatio="xMaxYMin meet">
         <g id="arrow_out" transform="scale(0.3 0.3)">
          <a xlink:href="latexgen_8h__incl_org.svg" target="_base">
           <rect id="button" ry="5" rx="5" y="6" x="6" height="38" width="38"
                fill="#f2f5e9" fill-opacity="0.5" stroke="#606060" stroke-width="1.0"/>
           <path id="arrow"
             d="M 11.500037,31.436501 C 11.940474,20.09759 22.043105,11.32322 32.158766,21.979434 L 37.068811,17.246167 C 37.068811,17.246167 37.088388,32 37.088388,32 L 22.160133,31.978069 C 22.160133,31.978069 26.997745,27.140456 26.997745,27.140456 C 18.528582,18.264221 13.291696,25.230495 11.500037,31.436501 z"
             style="fill:#404040;"/>
          </a>
         </g>
        </svg>
</svg>
