<?xml version="1.0" encoding="UTF-8" standalone="no"?>
<!DOCTYPE svg PUBLIC "-//W3C//DTD SVG 1.1//EN"
 "http://www.w3.org/Graphics/SVG/1.1/DTD/svg11.dtd">
<!-- Generated by graphviz version 2.43.0 (0)
 -->
<!-- Title: /home/runner/work/doxygen/doxygen/src/dotclassgraph.h Pages: 1 -->
<svg width="1119pt" height="423pt"
 viewBox="0.00 0.00 1118.98 423.00" xmlns="http://www.w3.org/2000/svg" xmlns:xlink="http://www.w3.org/1999/xlink">
<g id="graph0" class="graph" transform="scale(1 1) rotate(0) translate(4 419)">
<title>/home/runner/work/doxygen/doxygen/src/dotclassgraph.h</title>
<!-- Node1 -->
<g id="node1" class="node">
<title>Node1</title>
<g id="a_node1"><a xlink:title=" ">
<polygon fill="#999999" stroke="#666666" points="1018.98,-415 859.98,-415 859.98,-385 1018.98,-385 1018.98,-415"/>
<text text-anchor="start" x="867.98" y="-403" font-family="Helvetica,sans-Serif" font-size="10.00">/home/runner/work/doxygen</text>
<text text-anchor="middle" x="939.48" y="-392" font-family="Helvetica,sans-Serif" font-size="10.00">/doxygen/src/dotclassgraph.h</text>
</a>
</g>
</g>
<!-- Node2 -->
<g id="node2" class="node">
<title>Node2</title>
<g id="a_node2"><a xlink:title=" ">
<polygon fill="#e0e0e0" stroke="#999999" points="867.48,-129 809.48,-129 809.48,-110 867.48,-110 867.48,-129"/>
<text text-anchor="middle" x="838.48" y="-117" font-family="Helvetica,sans-Serif" font-size="10.00">memory</text>
</a>
</g>
</g>
<!-- Node1&#45;&gt;Node2 -->
<g id="edge1" class="edge">
<title>Node1&#45;&gt;Node2</title>
<path fill="none" stroke="#63b8ff" d="M938.06,-384.92C933.38,-340.3 917.36,-202.77 894.48,-165 886.92,-152.51 874.49,-142.11 863.26,-134.51"/>
<polygon fill="#63b8ff" stroke="#63b8ff" points="864.95,-131.43 854.63,-129.03 861.19,-137.34 864.95,-131.43"/>
</g>
<!-- Node3 -->
<g id="node3" class="node">
<title>Node3</title>
<g id="a_node3"><a xlink:href="../../d1/da6/classdef_8h.html" target="_top" xlink:title=" ">
<polygon fill="white" stroke="#666666" points="489.98,-349 424.98,-349 424.98,-330 489.98,-330 489.98,-349"/>
<text text-anchor="middle" x="457.48" y="-337" font-family="Helvetica,sans-Serif" font-size="10.00">classdef.h</text>
</a>
</g>
</g>
<!-- Node1&#45;&gt;Node3 -->
<g id="edge2" class="edge">
<title>Node1&#45;&gt;Node3</title>
<path fill="none" stroke="#63b8ff" d="M859.89,-389.34C756.89,-376.84 581.1,-355.5 500.35,-345.7"/>
<polygon fill="#63b8ff" stroke="#63b8ff" points="500.41,-342.18 490.06,-344.45 499.56,-349.13 500.41,-342.18"/>
</g>
<!-- Node27 -->
<g id="node27" class="node">
<title>Node27</title>
<g id="a_node27"><a xlink:href="../../d8/d3b/dotnode_8h.html" target="_top" xlink:title=" ">
<polygon fill="white" stroke="#666666" points="1002.98,-294 937.98,-294 937.98,-275 1002.98,-275 1002.98,-294"/>
<text text-anchor="middle" x="970.48" y="-282" font-family="Helvetica,sans-Serif" font-size="10.00">dotnode.h</text>
</a>
</g>
</g>
<!-- Node1&#45;&gt;Node27 -->
<g id="edge50" class="edge">
<title>Node1&#45;&gt;Node27</title>
<path fill="none" stroke="#63b8ff" d="M943.41,-384.63C949.01,-364.12 959.29,-326.47 965.45,-303.93"/>
<polygon fill="#63b8ff" stroke="#63b8ff" points="968.84,-304.8 968.1,-294.23 962.09,-302.95 968.84,-304.8"/>
</g>
<!-- Node30 -->
<g id="node30" class="node">
<title>Node30</title>
<g id="a_node30"><a xlink:href="../../d0/daa/dotgraph_8h.html" target="_top" xlink:title=" ">
<polygon fill="white" stroke="#666666" points="1110.98,-239 1041.98,-239 1041.98,-220 1110.98,-220 1110.98,-239"/>
<text text-anchor="middle" x="1076.48" y="-227" font-family="Helvetica,sans-Serif" font-size="10.00">dotgraph.h</text>
</a>
</g>
</g>
<!-- Node1&#45;&gt;Node30 -->
<g id="edge64" class="edge">
<title>Node1&#45;&gt;Node30</title>
<path fill="none" stroke="#63b8ff" d="M950.93,-384.92C976.08,-353.99 1036.05,-280.23 1062.98,-247.1"/>
<polygon fill="#63b8ff" stroke="#63b8ff" points="1065.77,-249.22 1069.36,-239.25 1060.34,-244.81 1065.77,-249.22"/>
</g>
<!-- Node4 -->
<g id="node4" class="node">
<title>Node4</title>
<g id="a_node4"><a xlink:title=" ">
<polygon fill="#e0e0e0" stroke="#999999" points="121.98,-129 74.98,-129 74.98,-110 121.98,-110 121.98,-129"/>
<text text-anchor="middle" x="98.48" y="-117" font-family="Helvetica,sans-Serif" font-size="10.00">vector</text>
</a>
</g>
</g>
<!-- Node3&#45;&gt;Node4 -->
<g id="edge3" class="edge">
<title>Node3&#45;&gt;Node4</title>
<path fill="none" stroke="#63b8ff" d="M424.92,-339.37C338.01,-339.67 100.67,-326.85 4.48,-184 -13.71,-156.98 30.84,-138.37 64.65,-128.58"/>
<polygon fill="#63b8ff" stroke="#63b8ff" points="66,-131.84 74.72,-125.82 64.15,-125.09 66,-131.84"/>
</g>
<!-- Node5 -->
<g id="node5" class="node">
<title>Node5</title>
<g id="a_node5"><a xlink:title=" ">
<polygon fill="#e0e0e0" stroke="#999999" points="549.48,-184 517.48,-184 517.48,-165 549.48,-165 549.48,-184"/>
<text text-anchor="middle" x="533.48" y="-172" font-family="Helvetica,sans-Serif" font-size="10.00">set</text>
</a>
</g>
</g>
<!-- Node3&#45;&gt;Node5 -->
<g id="edge4" class="edge">
<title>Node3&#45;&gt;Node5</title>
<path fill="none" stroke="#63b8ff" d="M474.31,-329.96C487.46,-322.37 505.03,-310 514.48,-294 532.96,-262.71 535.08,-219.07 534.55,-194.41"/>
<polygon fill="#63b8ff" stroke="#63b8ff" points="538.04,-194.11 534.16,-184.26 531.05,-194.38 538.04,-194.11"/>
</g>
<!-- Node6 -->
<g id="node6" class="node">
<title>Node6</title>
<g id="a_node6"><a xlink:href="../../d5/d75/containers_8h.html" target="_top" xlink:title=" ">
<polygon fill="white" stroke="#666666" points="685.98,-239 608.98,-239 608.98,-220 685.98,-220 685.98,-239"/>
<text text-anchor="middle" x="647.48" y="-227" font-family="Helvetica,sans-Serif" font-size="10.00">containers.h</text>
</a>
</g>
</g>
<!-- Node3&#45;&gt;Node6 -->
<g id="edge5" class="edge">
<title>Node3&#45;&gt;Node6</title>
<path fill="none" stroke="#63b8ff" d="M476.4,-329.87C494.82,-321.29 523.48,-307.5 547.48,-294 575.46,-278.26 606.5,-258.11 626.46,-244.77"/>
<polygon fill="#63b8ff" stroke="#63b8ff" points="628.46,-247.65 634.8,-239.17 624.55,-241.84 628.46,-247.65"/>
</g>
<!-- Node12 -->
<g id="node12" class="node">
<title>Node12</title>
<g id="a_node12"><a xlink:href="../../df/da1/definition_8h.html" target="_top" xlink:title=" ">
<polygon fill="white" stroke="#666666" points="391.98,-294 320.98,-294 320.98,-275 391.98,-275 391.98,-294"/>
<text text-anchor="middle" x="356.48" y="-282" font-family="Helvetica,sans-Serif" font-size="10.00">definition.h</text>
</a>
</g>
</g>
<!-- Node3&#45;&gt;Node12 -->
<g id="edge13" class="edge">
<title>Node3&#45;&gt;Node12</title>
<path fill="none" stroke="#63b8ff" d="M441.25,-329.98C425.3,-321.61 400.7,-308.7 382.1,-298.95"/>
<polygon fill="#63b8ff" stroke="#63b8ff" points="383.49,-295.72 373,-294.17 380.23,-301.92 383.49,-295.72"/>
</g>
<!-- Node25 -->
<g id="node25" class="node">
<title>Node25</title>
<g id="a_node25"><a xlink:href="../../df/d9b/arguments_8h.html" target="_top" xlink:title=" ">
<polygon fill="white" stroke="#666666" points="175.48,-184 97.48,-184 97.48,-165 175.48,-165 175.48,-184"/>
<text text-anchor="middle" x="136.48" y="-172" font-family="Helvetica,sans-Serif" font-size="10.00">arguments.h</text>
</a>
</g>
</g>
<!-- Node3&#45;&gt;Node25 -->
<g id="edge41" class="edge">
<title>Node3&#45;&gt;Node25</title>
<path fill="none" stroke="#63b8ff" d="M424.84,-331.52C394.54,-324.36 348.66,-311.76 311.48,-294 250.01,-264.64 185.65,-215.53 154.93,-190.77"/>
<polygon fill="#63b8ff" stroke="#63b8ff" points="156.81,-187.79 146.85,-184.19 152.39,-193.22 156.81,-187.79"/>
</g>
<!-- Node26 -->
<g id="node26" class="node">
<title>Node26</title>
<g id="a_node26"><a xlink:href="../../d9/d11/membergroup_8h.html" target="_top" xlink:title=" ">
<polygon fill="white" stroke="#666666" points="504.98,-294 409.98,-294 409.98,-275 504.98,-275 504.98,-294"/>
<text text-anchor="middle" x="457.48" y="-282" font-family="Helvetica,sans-Serif" font-size="10.00">membergroup.h</text>
</a>
</g>
</g>
<!-- Node3&#45;&gt;Node26 -->
<g id="edge44" class="edge">
<title>Node3&#45;&gt;Node26</title>
<path fill="none" stroke="#63b8ff" d="M457.48,-329.75C457.48,-322.8 457.48,-312.85 457.48,-304.13"/>
<polygon fill="#63b8ff" stroke="#63b8ff" points="460.98,-304.09 457.48,-294.09 453.98,-304.09 460.98,-304.09"/>
</g>
<!-- Node6&#45;&gt;Node4 -->
<g id="edge6" class="edge">
<title>Node6&#45;&gt;Node4</title>
<path fill="none" stroke="#63b8ff" d="M608.7,-225.76C524.05,-219.51 325.14,-203.23 260.48,-184 242.38,-178.62 239.84,-172.42 222.48,-165 192.35,-152.12 157.11,-139.72 131.92,-131.29"/>
<polygon fill="#63b8ff" stroke="#63b8ff" points="132.71,-127.87 122.11,-128.05 130.51,-134.51 132.71,-127.87"/>
</g>
<!-- Node6&#45;&gt;Node5 -->
<g id="edge8" class="edge">
<title>Node6&#45;&gt;Node5</title>
<path fill="none" stroke="#63b8ff" d="M629.17,-219.98C610.06,-211.1 579.98,-197.12 558.65,-187.2"/>
<polygon fill="#63b8ff" stroke="#63b8ff" points="560.08,-184.01 549.54,-182.97 557.13,-190.36 560.08,-184.01"/>
</g>
<!-- Node7 -->
<g id="node7" class="node">
<title>Node7</title>
<g id="a_node7"><a xlink:title=" ">
<polygon fill="#e0e0e0" stroke="#999999" points="784.48,-19 740.48,-19 740.48,0 784.48,0 784.48,-19"/>
<text text-anchor="middle" x="762.48" y="-7" font-family="Helvetica,sans-Serif" font-size="10.00">string</text>
</a>
</g>
</g>
<!-- Node6&#45;&gt;Node7 -->
<g id="edge7" class="edge">
<title>Node6&#45;&gt;Node7</title>
<path fill="none" stroke="#63b8ff" d="M684.86,-219.87C704.54,-213.35 727.28,-202.29 740.48,-184 774.49,-136.89 769.95,-63.26 765.49,-29.08"/>
<polygon fill="#63b8ff" stroke="#63b8ff" points="768.94,-28.49 764.03,-19.1 762.01,-29.5 768.94,-28.49"/>
</g>
<!-- Node8 -->
<g id="node8" class="node">
<title>Node8</title>
<g id="a_node8"><a xlink:title=" ">
<polygon fill="#e0e0e0" stroke="#999999" points="885.48,-184 847.48,-184 847.48,-165 885.48,-165 885.48,-184"/>
<text text-anchor="middle" x="866.48" y="-172" font-family="Helvetica,sans-Serif" font-size="10.00">map</text>
</a>
</g>
</g>
<!-- Node6&#45;&gt;Node8 -->
<g id="edge9" class="edge">
<title>Node6&#45;&gt;Node8</title>
<path fill="none" stroke="#63b8ff" d="M682.67,-219.98C725.62,-209.59 797.46,-192.2 837.42,-182.53"/>
<polygon fill="#63b8ff" stroke="#63b8ff" points="838.43,-185.89 847.33,-180.13 836.79,-179.09 838.43,-185.89"/>
</g>
<!-- Node9 -->
<g id="node9" class="node">
<title>Node9</title>
<g id="a_node9"><a xlink:title=" ">
<polygon fill="#e0e0e0" stroke="#999999" points="715.48,-184 629.48,-184 629.48,-165 715.48,-165 715.48,-184"/>
<text text-anchor="middle" x="672.48" y="-172" font-family="Helvetica,sans-Serif" font-size="10.00">unordered_set</text>
</a>
</g>
</g>
<!-- Node6&#45;&gt;Node9 -->
<g id="edge10" class="edge">
<title>Node6&#45;&gt;Node9</title>
<path fill="none" stroke="#63b8ff" d="M651.61,-219.75C655,-212.57 659.9,-202.18 664.1,-193.27"/>
<polygon fill="#63b8ff" stroke="#63b8ff" points="667.33,-194.63 668.43,-184.09 661,-191.64 667.33,-194.63"/>
</g>
<!-- Node10 -->
<g id="node10" class="node">
<title>Node10</title>
<g id="a_node10"><a xlink:title=" ">
<polygon fill="#e0e0e0" stroke="#999999" points="556.98,-129 463.98,-129 463.98,-110 556.98,-110 556.98,-129"/>
<text text-anchor="middle" x="510.48" y="-117" font-family="Helvetica,sans-Serif" font-size="10.00">unordered_map</text>
</a>
</g>
</g>
<!-- Node6&#45;&gt;Node10 -->
<g id="edge11" class="edge">
<title>Node6&#45;&gt;Node10</title>
<path fill="none" stroke="#63b8ff" d="M672.99,-219.94C702.06,-208.84 743.29,-188.12 724.48,-165 705.04,-141.1 624.15,-129.61 567.6,-124.41"/>
<polygon fill="#63b8ff" stroke="#63b8ff" points="567.61,-120.9 557.34,-123.51 566.99,-127.87 567.61,-120.9"/>
</g>
<!-- Node11 -->
<g id="node11" class="node">
<title>Node11</title>
<g id="a_node11"><a xlink:title=" ">
<polygon fill="#e0e0e0" stroke="#999999" points="610.98,-184 567.98,-184 567.98,-165 610.98,-165 610.98,-184"/>
<text text-anchor="middle" x="589.48" y="-172" font-family="Helvetica,sans-Serif" font-size="10.00">stack</text>
</a>
</g>
</g>
<!-- Node6&#45;&gt;Node11 -->
<g id="edge12" class="edge">
<title>Node6&#45;&gt;Node11</title>
<path fill="none" stroke="#63b8ff" d="M638.16,-219.98C629.67,-212.23 616.92,-200.58 606.6,-191.14"/>
<polygon fill="#63b8ff" stroke="#63b8ff" points="608.71,-188.33 598.97,-184.17 603.99,-193.5 608.71,-188.33"/>
</g>
<!-- Node12&#45;&gt;Node4 -->
<g id="edge14" class="edge">
<title>Node12&#45;&gt;Node4</title>
<path fill="none" stroke="#63b8ff" d="M320.85,-281.44C237.88,-276.29 37.3,-261.59 17.48,-239 -4.21,-214.28 0.74,-193.31 17.48,-165 27.73,-147.68 47.37,-136.66 64.74,-129.91"/>
<polygon fill="#63b8ff" stroke="#63b8ff" points="66.36,-133.05 74.62,-126.42 64.03,-126.45 66.36,-133.05"/>
</g>
<!-- Node13 -->
<g id="node13" class="node">
<title>Node13</title>
<g id="a_node13"><a xlink:href="../../d9/d49/types_8h.html" target="_top" xlink:title="This file contains a number of basic enums and types.">
<polygon fill="white" stroke="#666666" points="462.98,-239 409.98,-239 409.98,-220 462.98,-220 462.98,-239"/>
<text text-anchor="middle" x="436.48" y="-227" font-family="Helvetica,sans-Serif" font-size="10.00">types.h</text>
</a>
</g>
</g>
<!-- Node12&#45;&gt;Node13 -->
<g id="edge15" class="edge">
<title>Node12&#45;&gt;Node13</title>
<path fill="none" stroke="#63b8ff" d="M369.33,-274.98C381.62,-266.84 400.39,-254.41 414.96,-244.76"/>
<polygon fill="#63b8ff" stroke="#63b8ff" points="416.99,-247.61 423.39,-239.17 413.12,-241.78 416.99,-247.61"/>
</g>
<!-- Node23 -->
<g id="node23" class="node">
<title>Node23</title>
<g id="a_node23"><a xlink:href="../../d1/d02/reflist_8h.html" target="_top" xlink:title=" ">
<polygon fill="white" stroke="#666666" points="391.98,-239 338.98,-239 338.98,-220 391.98,-220 391.98,-239"/>
<text text-anchor="middle" x="365.48" y="-227" font-family="Helvetica,sans-Serif" font-size="10.00">reflist.h</text>
</a>
</g>
</g>
<!-- Node12&#45;&gt;Node23 -->
<g id="edge28" class="edge">
<title>Node12&#45;&gt;Node23</title>
<path fill="none" stroke="#63b8ff" d="M357.97,-274.75C359.15,-267.8 360.84,-257.85 362.32,-249.13"/>
<polygon fill="#63b8ff" stroke="#63b8ff" points="365.8,-249.53 364.02,-239.09 358.9,-248.36 365.8,-249.53"/>
</g>
<!-- Node14 -->
<g id="node14" class="node">
<title>Node14</title>
<g id="a_node14"><a xlink:href="../../d7/d5c/qcstring_8h.html" target="_top" xlink:title=" ">
<polygon fill="white" stroke="#666666" points="445.98,-129 380.98,-129 380.98,-110 445.98,-110 445.98,-129"/>
<text text-anchor="middle" x="413.48" y="-117" font-family="Helvetica,sans-Serif" font-size="10.00">qcstring.h</text>
</a>
</g>
</g>
<!-- Node13&#45;&gt;Node14 -->
<g id="edge16" class="edge">
<title>Node13&#45;&gt;Node14</title>
<path fill="none" stroke="#63b8ff" d="M434.6,-219.66C430.86,-202.09 422.41,-162.45 417.41,-138.95"/>
<polygon fill="#63b8ff" stroke="#63b8ff" points="420.83,-138.21 415.33,-129.16 413.99,-139.67 420.83,-138.21"/>
</g>
<!-- Node14&#45;&gt;Node7 -->
<g id="edge17" class="edge">
<title>Node14&#45;&gt;Node7</title>
<path fill="none" stroke="#63b8ff" d="M446,-111.7C449.2,-111.09 452.4,-110.52 455.48,-110 574.44,-90.03 623.74,-140.33 724.48,-74 740.54,-63.43 750.81,-43.51 756.57,-28.79"/>
<polygon fill="#63b8ff" stroke="#63b8ff" points="759.93,-29.79 759.99,-19.2 753.34,-27.45 759.93,-29.79"/>
</g>
<!-- Node15 -->
<g id="node15" class="node">
<title>Node15</title>
<g id="a_node15"><a xlink:title=" ">
<polygon fill="#e0e0e0" stroke="#999999" points="271.48,-74 207.48,-74 207.48,-55 271.48,-55 271.48,-74"/>
<text text-anchor="middle" x="239.48" y="-62" font-family="Helvetica,sans-Serif" font-size="10.00">algorithm</text>
</a>
</g>
</g>
<!-- Node14&#45;&gt;Node15 -->
<g id="edge18" class="edge">
<title>Node14&#45;&gt;Node15</title>
<path fill="none" stroke="#63b8ff" d="M385.53,-109.98C356.19,-101.05 309.88,-86.94 277.3,-77.02"/>
<polygon fill="#63b8ff" stroke="#63b8ff" points="278.24,-73.65 267.66,-74.08 276.2,-80.34 278.24,-73.65"/>
</g>
<!-- Node16 -->
<g id="node16" class="node">
<title>Node16</title>
<g id="a_node16"><a xlink:title=" ">
<polygon fill="#e0e0e0" stroke="#999999" points="338.98,-74 289.98,-74 289.98,-55 338.98,-55 338.98,-74"/>
<text text-anchor="middle" x="314.48" y="-62" font-family="Helvetica,sans-Serif" font-size="10.00">cctype</text>
</a>
</g>
</g>
<!-- Node14&#45;&gt;Node16 -->
<g id="edge19" class="edge">
<title>Node14&#45;&gt;Node16</title>
<path fill="none" stroke="#63b8ff" d="M397.58,-109.98C381.94,-101.61 357.83,-88.7 339.6,-78.95"/>
<polygon fill="#63b8ff" stroke="#63b8ff" points="341.15,-75.8 330.68,-74.17 337.84,-81.98 341.15,-75.8"/>
</g>
<!-- Node17 -->
<g id="node17" class="node">
<title>Node17</title>
<g id="a_node17"><a xlink:title=" ">
<polygon fill="#e0e0e0" stroke="#999999" points="651.48,-74 601.48,-74 601.48,-55 651.48,-55 651.48,-74"/>
<text text-anchor="middle" x="626.48" y="-62" font-family="Helvetica,sans-Serif" font-size="10.00">cstring</text>
</a>
</g>
</g>
<!-- Node14&#45;&gt;Node17 -->
<g id="edge20" class="edge">
<title>Node14&#45;&gt;Node17</title>
<path fill="none" stroke="#63b8ff" d="M446.15,-110.39C480.07,-101.97 534.95,-88.34 591.42,-74.26"/>
<polygon fill="#63b8ff" stroke="#63b8ff" points="592.38,-77.63 601.23,-71.82 590.68,-70.84 592.38,-77.63"/>
</g>
<!-- Node18 -->
<g id="node18" class="node">
<title>Node18</title>
<g id="a_node18"><a xlink:title=" ">
<polygon fill="#e0e0e0" stroke="#999999" points="715.48,-74 669.48,-74 669.48,-55 715.48,-55 715.48,-74"/>
<text text-anchor="middle" x="692.48" y="-62" font-family="Helvetica,sans-Serif" font-size="10.00">cstdio</text>
</a>
</g>
</g>
<!-- Node14&#45;&gt;Node18 -->
<g id="edge21" class="edge">
<title>Node14&#45;&gt;Node18</title>
<path fill="none" stroke="#63b8ff" d="M446.02,-111.83C449.22,-111.2 452.41,-110.58 455.48,-110 543.27,-93.41 568.44,-93.84 659.54,-74.05"/>
<polygon fill="#63b8ff" stroke="#63b8ff" points="660.45,-77.43 669.47,-71.87 658.95,-70.59 660.45,-77.43"/>
</g>
<!-- Node19 -->
<g id="node19" class="node">
<title>Node19</title>
<g id="a_node19"><a xlink:title=" ">
<polygon fill="#e0e0e0" stroke="#999999" points="507.98,-74 458.98,-74 458.98,-55 507.98,-55 507.98,-74"/>
<text text-anchor="middle" x="483.48" y="-62" font-family="Helvetica,sans-Serif" font-size="10.00">cstdlib</text>
</a>
</g>
</g>
<!-- Node14&#45;&gt;Node19 -->
<g id="edge22" class="edge">
<title>Node14&#45;&gt;Node19</title>
<path fill="none" stroke="#63b8ff" d="M424.73,-109.98C435.28,-102 451.28,-89.88 463.92,-80.31"/>
<polygon fill="#63b8ff" stroke="#63b8ff" points="466.17,-83 472.03,-74.17 461.94,-77.42 466.17,-83"/>
</g>
<!-- Node20 -->
<g id="node20" class="node">
<title>Node20</title>
<g id="a_node20"><a xlink:title=" ">
<polygon fill="#e0e0e0" stroke="#999999" points="418.48,-19 368.48,-19 368.48,0 418.48,0 418.48,-19"/>
<text text-anchor="middle" x="393.48" y="-7" font-family="Helvetica,sans-Serif" font-size="10.00">cstdint</text>
</a>
</g>
</g>
<!-- Node14&#45;&gt;Node20 -->
<g id="edge23" class="edge">
<title>Node14&#45;&gt;Node20</title>
<path fill="none" stroke="#63b8ff" d="M406.59,-109.93C400.21,-101.4 391.18,-87.65 387.48,-74 383.5,-59.28 385.53,-42.03 388.27,-29.23"/>
<polygon fill="#63b8ff" stroke="#63b8ff" points="391.72,-29.84 390.72,-19.29 384.92,-28.17 391.72,-29.84"/>
</g>
<!-- Node21 -->
<g id="node21" class="node">
<title>Node21</title>
<g id="a_node21"><a xlink:title=" ">
<polygon fill="#e0e0e0" stroke="#999999" points="582.98,-74 525.98,-74 525.98,-55 582.98,-55 582.98,-74"/>
<text text-anchor="middle" x="554.48" y="-62" font-family="Helvetica,sans-Serif" font-size="10.00">ostream</text>
</a>
</g>
</g>
<!-- Node14&#45;&gt;Node21 -->
<g id="edge24" class="edge">
<title>Node14&#45;&gt;Node21</title>
<path fill="none" stroke="#63b8ff" d="M436.14,-109.98C459.33,-101.27 495.6,-87.63 521.88,-77.75"/>
<polygon fill="#63b8ff" stroke="#63b8ff" points="523.29,-80.97 531.42,-74.17 520.82,-74.41 523.29,-80.97"/>
</g>
<!-- Node22 -->
<g id="node22" class="node">
<title>Node22</title>
<g id="a_node22"><a xlink:href="../../db/d7c/utf8_8h.html" target="_top" xlink:title="Various UTF8 related helper functions.">
<polygon fill="white" stroke="#666666" points="440.98,-74 395.98,-74 395.98,-55 440.98,-55 440.98,-74"/>
<text text-anchor="middle" x="418.48" y="-62" font-family="Helvetica,sans-Serif" font-size="10.00">utf8.h</text>
</a>
</g>
</g>
<!-- Node14&#45;&gt;Node22 -->
<g id="edge25" class="edge">
<title>Node14&#45;&gt;Node22</title>
<path fill="none" stroke="#63b8ff" d="M414.31,-109.75C414.96,-102.8 415.9,-92.85 416.72,-84.13"/>
<polygon fill="#63b8ff" stroke="#63b8ff" points="420.22,-84.37 417.67,-74.09 413.25,-83.72 420.22,-84.37"/>
</g>
<!-- Node22&#45;&gt;Node7 -->
<g id="edge27" class="edge">
<title>Node22&#45;&gt;Node7</title>
<path fill="none" stroke="#63b8ff" d="M441.13,-57.13C444.26,-56.35 447.44,-55.62 450.48,-55 551.73,-34.41 673.36,-19.98 730.23,-13.83"/>
<polygon fill="#63b8ff" stroke="#63b8ff" points="730.82,-17.29 740.39,-12.74 730.07,-10.33 730.82,-17.29"/>
</g>
<!-- Node22&#45;&gt;Node20 -->
<g id="edge26" class="edge">
<title>Node22&#45;&gt;Node20</title>
<path fill="none" stroke="#63b8ff" d="M414.35,-54.75C410.97,-47.57 406.07,-37.18 401.86,-28.27"/>
<polygon fill="#63b8ff" stroke="#63b8ff" points="404.96,-26.64 397.53,-19.09 398.63,-29.63 404.96,-26.64"/>
</g>
<!-- Node23&#45;&gt;Node2 -->
<g id="edge31" class="edge">
<title>Node23&#45;&gt;Node2</title>
<path fill="none" stroke="#63b8ff" d="M380.81,-219.94C406.41,-206.05 459.87,-178.77 508.48,-165 610.75,-136.04 736.34,-125.72 799,-122.21"/>
<polygon fill="#63b8ff" stroke="#63b8ff" points="799.43,-125.69 809.23,-121.67 799.06,-118.7 799.43,-125.69"/>
</g>
<!-- Node23&#45;&gt;Node4 -->
<g id="edge29" class="edge">
<title>Node23&#45;&gt;Node4</title>
<path fill="none" stroke="#63b8ff" d="M338.88,-221.17C310.78,-213.14 265.4,-199.35 227.48,-184 190.14,-168.88 148.61,-147.59 123.02,-133.92"/>
<polygon fill="#63b8ff" stroke="#63b8ff" points="124.49,-130.74 114.03,-129.08 121.18,-136.9 124.49,-130.74"/>
</g>
<!-- Node23&#45;&gt;Node10 -->
<g id="edge30" class="edge">
<title>Node23&#45;&gt;Node10</title>
<path fill="none" stroke="#63b8ff" d="M377.35,-219.66C402.22,-201.14 460.03,-158.08 490.64,-135.28"/>
<polygon fill="#63b8ff" stroke="#63b8ff" points="492.93,-137.94 498.86,-129.16 488.75,-132.32 492.93,-137.94"/>
</g>
<!-- Node23&#45;&gt;Node14 -->
<g id="edge32" class="edge">
<title>Node23&#45;&gt;Node14</title>
<path fill="none" stroke="#63b8ff" d="M369.41,-219.66C377.29,-201.93 395.16,-161.73 405.56,-138.32"/>
<polygon fill="#63b8ff" stroke="#63b8ff" points="408.77,-139.72 409.63,-129.16 402.37,-136.87 408.77,-139.72"/>
</g>
<!-- Node24 -->
<g id="node24" class="node">
<title>Node24</title>
<g id="a_node24"><a xlink:href="../../da/de1/linkedmap_8h.html" target="_top" xlink:title=" ">
<polygon fill="white" stroke="#666666" points="346.98,-184 269.98,-184 269.98,-165 346.98,-165 346.98,-184"/>
<text text-anchor="middle" x="308.48" y="-172" font-family="Helvetica,sans-Serif" font-size="10.00">linkedmap.h</text>
</a>
</g>
</g>
<!-- Node23&#45;&gt;Node24 -->
<g id="edge33" class="edge">
<title>Node23&#45;&gt;Node24</title>
<path fill="none" stroke="#63b8ff" d="M356.32,-219.98C347.98,-212.23 335.45,-200.58 325.3,-191.14"/>
<polygon fill="#63b8ff" stroke="#63b8ff" points="327.51,-188.42 317.81,-184.17 322.75,-193.54 327.51,-188.42"/>
</g>
<!-- Node24&#45;&gt;Node2 -->
<g id="edge36" class="edge">
<title>Node24&#45;&gt;Node2</title>
<path fill="none" stroke="#63b8ff" d="M347.02,-169.65C444.59,-159.89 700.56,-134.29 799.06,-124.44"/>
<polygon fill="#63b8ff" stroke="#63b8ff" points="799.58,-127.91 809.19,-123.43 798.89,-120.94 799.58,-127.91"/>
</g>
<!-- Node24&#45;&gt;Node4 -->
<g id="edge35" class="edge">
<title>Node24&#45;&gt;Node4</title>
<path fill="none" stroke="#63b8ff" d="M274.74,-164.98C235.47,-155.07 171.01,-138.81 131.88,-128.93"/>
<polygon fill="#63b8ff" stroke="#63b8ff" points="132.59,-125.5 122.04,-126.45 130.88,-132.29 132.59,-125.5"/>
</g>
<!-- Node24&#45;&gt;Node7 -->
<g id="edge37" class="edge">
<title>Node24&#45;&gt;Node7</title>
<path fill="none" stroke="#63b8ff" d="M289.52,-164.89C248.95,-145.36 160.38,-96.23 198.48,-55 216.64,-35.35 612.67,-16.9 730,-11.85"/>
<polygon fill="#63b8ff" stroke="#63b8ff" points="730.32,-15.34 740.16,-11.42 730.02,-8.35 730.32,-15.34"/>
</g>
<!-- Node24&#45;&gt;Node10 -->
<g id="edge34" class="edge">
<title>Node24&#45;&gt;Node10</title>
<path fill="none" stroke="#63b8ff" d="M340.94,-164.98C375.44,-155.93 430.14,-141.58 468.04,-131.64"/>
<polygon fill="#63b8ff" stroke="#63b8ff" points="468.99,-135.01 477.77,-129.08 467.21,-128.23 468.99,-135.01"/>
</g>
<!-- Node24&#45;&gt;Node14 -->
<g id="edge40" class="edge">
<title>Node24&#45;&gt;Node14</title>
<path fill="none" stroke="#63b8ff" d="M325.35,-164.98C342.09,-156.54 367.98,-143.47 387.37,-133.68"/>
<polygon fill="#63b8ff" stroke="#63b8ff" points="388.95,-136.8 396.3,-129.17 385.8,-130.55 388.95,-136.8"/>
</g>
<!-- Node24&#45;&gt;Node15 -->
<g id="edge38" class="edge">
<title>Node24&#45;&gt;Node15</title>
<path fill="none" stroke="#63b8ff" d="M302.83,-164.66C291.41,-146.77 265.36,-106 250.47,-82.69"/>
<polygon fill="#63b8ff" stroke="#63b8ff" points="253.35,-80.7 245.01,-74.16 247.45,-84.47 253.35,-80.7"/>
</g>
<!-- Node24&#45;&gt;Node16 -->
<g id="edge39" class="edge">
<title>Node24&#45;&gt;Node16</title>
<path fill="none" stroke="#63b8ff" d="M308.97,-164.66C309.94,-147.17 312.13,-107.8 313.44,-84.27"/>
<polygon fill="#63b8ff" stroke="#63b8ff" points="316.94,-84.34 314,-74.16 309.95,-83.95 316.94,-84.34"/>
</g>
<!-- Node25&#45;&gt;Node4 -->
<g id="edge42" class="edge">
<title>Node25&#45;&gt;Node4</title>
<path fill="none" stroke="#63b8ff" d="M130.21,-164.75C124.89,-157.34 117.13,-146.5 110.61,-137.41"/>
<polygon fill="#63b8ff" stroke="#63b8ff" points="113.31,-135.18 104.64,-129.09 107.62,-139.26 113.31,-135.18"/>
</g>
<!-- Node25&#45;&gt;Node14 -->
<g id="edge43" class="edge">
<title>Node25&#45;&gt;Node14</title>
<path fill="none" stroke="#63b8ff" d="M175.58,-166.02C227.03,-156.17 317.16,-138.93 370.48,-128.73"/>
<polygon fill="#63b8ff" stroke="#63b8ff" points="371.47,-132.1 380.64,-126.78 370.16,-125.23 371.47,-132.1"/>
</g>
<!-- Node26&#45;&gt;Node2 -->
<g id="edge47" class="edge">
<title>Node26&#45;&gt;Node2</title>
<path fill="none" stroke="#63b8ff" d="M505.16,-279.09C554.06,-273.53 631.77,-261.81 695.48,-239 743.24,-221.9 758,-218.17 795.48,-184 809.89,-170.86 821.89,-151.98 829.51,-138.22"/>
<polygon fill="#63b8ff" stroke="#63b8ff" points="832.67,-139.73 834.27,-129.26 826.49,-136.45 832.67,-139.73"/>
</g>
<!-- Node26&#45;&gt;Node4 -->
<g id="edge45" class="edge">
<title>Node26&#45;&gt;Node4</title>
<path fill="none" stroke="#63b8ff" d="M409.84,-276.11C407.02,-275.72 404.21,-275.35 401.48,-275 324.8,-265.2 107.24,-296.42 55.48,-239 33.46,-214.57 43.16,-195.49 55.48,-165 60.17,-153.41 69.48,-143.16 78.24,-135.43"/>
<polygon fill="#63b8ff" stroke="#63b8ff" points="80.48,-138.12 85.99,-129.07 76.04,-132.71 80.48,-138.12"/>
</g>
<!-- Node26&#45;&gt;Node8 -->
<g id="edge46" class="edge">
<title>Node26&#45;&gt;Node8</title>
<path fill="none" stroke="#63b8ff" d="M505.27,-281.57C588.86,-277.51 757.64,-266.15 809.48,-239 829.5,-228.51 845.91,-207.97 855.89,-193.08"/>
<polygon fill="#63b8ff" stroke="#63b8ff" points="859.08,-194.59 861.5,-184.28 853.18,-190.83 859.08,-194.59"/>
</g>
<!-- Node26&#45;&gt;Node13 -->
<g id="edge48" class="edge">
<title>Node26&#45;&gt;Node13</title>
<path fill="none" stroke="#63b8ff" d="M454.01,-274.75C451.2,-267.65 447.14,-257.4 443.64,-248.56"/>
<polygon fill="#63b8ff" stroke="#63b8ff" points="446.82,-247.1 439.88,-239.09 440.31,-249.68 446.82,-247.1"/>
</g>
<!-- Node26&#45;&gt;Node23 -->
<g id="edge49" class="edge">
<title>Node26&#45;&gt;Node23</title>
<path fill="none" stroke="#63b8ff" d="M442.7,-274.98C428.3,-266.69 406.17,-253.94 389.29,-244.22"/>
<polygon fill="#63b8ff" stroke="#63b8ff" points="390.94,-241.13 380.53,-239.17 387.45,-247.19 390.94,-241.13"/>
</g>
<!-- Node27&#45;&gt;Node4 -->
<g id="edge51" class="edge">
<title>Node27&#45;&gt;Node4</title>
<path fill="none" stroke="#63b8ff" d="M937.65,-283C842.96,-281.17 561.32,-273.05 330.48,-239 221.36,-222.9 157.29,-270.2 88.48,-184 78.29,-171.23 83.03,-152.29 88.95,-138.41"/>
<polygon fill="#63b8ff" stroke="#63b8ff" points="92.12,-139.9 93.28,-129.37 85.81,-136.88 92.12,-139.9"/>
</g>
<!-- Node27&#45;&gt;Node8 -->
<g id="edge52" class="edge">
<title>Node27&#45;&gt;Node8</title>
<path fill="none" stroke="#63b8ff" d="M961.97,-274.66C944.44,-256.46 904.08,-214.55 881.86,-191.47"/>
<polygon fill="#63b8ff" stroke="#63b8ff" points="884.28,-188.93 874.82,-184.16 879.23,-193.79 884.28,-188.93"/>
</g>
<!-- Node28 -->
<g id="node28" class="node">
<title>Node28</title>
<g id="a_node28"><a xlink:title=" ">
<polygon fill="#e0e0e0" stroke="#999999" points="984.98,-239 937.98,-239 937.98,-220 984.98,-220 984.98,-239"/>
<text text-anchor="middle" x="961.48" y="-227" font-family="Helvetica,sans-Serif" font-size="10.00">deque</text>
</a>
</g>
</g>
<!-- Node27&#45;&gt;Node28 -->
<g id="edge53" class="edge">
<title>Node27&#45;&gt;Node28</title>
<path fill="none" stroke="#63b8ff" d="M969,-274.75C967.82,-267.8 966.13,-257.85 964.65,-249.13"/>
<polygon fill="#63b8ff" stroke="#63b8ff" points="968.06,-248.36 962.94,-239.09 961.16,-249.53 968.06,-248.36"/>
</g>
<!-- Node29 -->
<g id="node29" class="node">
<title>Node29</title>
<g id="a_node29"><a xlink:title=" ">
<polygon fill="#e0e0e0" stroke="#999999" points="1001.48,-184 941.48,-184 941.48,-165 1001.48,-165 1001.48,-184"/>
<text text-anchor="middle" x="971.48" y="-172" font-family="Helvetica,sans-Serif" font-size="10.00">iostream</text>
</a>
</g>
</g>
<!-- Node27&#45;&gt;Node29 -->
<g id="edge54" class="edge">
<title>Node27&#45;&gt;Node29</title>
<path fill="none" stroke="#63b8ff" d="M976.85,-274.84C982.74,-266.25 991.09,-252.45 994.48,-239 998.51,-223.06 991.22,-205.52 983.8,-192.93"/>
<polygon fill="#63b8ff" stroke="#63b8ff" points="986.65,-190.88 978.3,-184.37 980.76,-194.67 986.65,-190.88"/>
</g>
<!-- Node27&#45;&gt;Node30 -->
<g id="edge55" class="edge">
<title>Node27&#45;&gt;Node30</title>
<path fill="none" stroke="#63b8ff" d="M987.51,-274.98C1004.41,-266.54 1030.55,-253.47 1050.13,-243.68"/>
<polygon fill="#63b8ff" stroke="#63b8ff" points="1051.76,-246.77 1059.14,-239.17 1048.63,-240.51 1051.76,-246.77"/>
</g>
<!-- Node30&#45;&gt;Node8 -->
<g id="edge57" class="edge">
<title>Node30&#45;&gt;Node8</title>
<path fill="none" stroke="#63b8ff" d="M1042.74,-219.98C1002.05,-209.71 934.31,-192.62 895.73,-182.88"/>
<polygon fill="#63b8ff" stroke="#63b8ff" points="896.23,-179.4 885.67,-180.34 894.51,-186.18 896.23,-179.4"/>
</g>
<!-- Node30&#45;&gt;Node14 -->
<g id="edge58" class="edge">
<title>Node30&#45;&gt;Node14</title>
<path fill="none" stroke="#63b8ff" d="M1070.77,-219.99C1060.61,-205.66 1037.83,-177.06 1010.48,-165 900.16,-116.34 593.47,-143.87 456.39,-128.82"/>
<polygon fill="#63b8ff" stroke="#63b8ff" points="456.78,-125.34 446.43,-127.6 455.93,-132.29 456.78,-125.34"/>
</g>
<!-- Node30&#45;&gt;Node29 -->
<g id="edge56" class="edge">
<title>Node30&#45;&gt;Node29</title>
<path fill="none" stroke="#63b8ff" d="M1059.61,-219.98C1042.87,-211.54 1016.98,-198.47 997.59,-188.68"/>
<polygon fill="#63b8ff" stroke="#63b8ff" points="999.16,-185.55 988.66,-184.17 996.01,-191.8 999.16,-185.55"/>
</g>
<!-- Node31 -->
<g id="node31" class="node">
<title>Node31</title>
<g id="a_node31"><a xlink:href="../../df/d9c/dir_8h.html" target="_top" xlink:title=" ">
<polygon fill="white" stroke="#666666" points="1095.48,-184 1057.48,-184 1057.48,-165 1095.48,-165 1095.48,-184"/>
<text text-anchor="middle" x="1076.48" y="-172" font-family="Helvetica,sans-Serif" font-size="10.00">dir.h</text>
</a>
</g>
</g>
<!-- Node30&#45;&gt;Node31 -->
<g id="edge59" class="edge">
<title>Node30&#45;&gt;Node31</title>
<path fill="none" stroke="#63b8ff" d="M1076.48,-219.75C1076.48,-212.8 1076.48,-202.85 1076.48,-194.13"/>
<polygon fill="#63b8ff" stroke="#63b8ff" points="1079.98,-194.09 1076.48,-184.09 1072.98,-194.09 1079.98,-194.09"/>
</g>
<!-- Node31&#45;&gt;Node2 -->
<g id="edge61" class="edge">
<title>Node31&#45;&gt;Node2</title>
<path fill="none" stroke="#63b8ff" d="M1057.32,-168.43C1052.79,-167.27 1047.97,-166.07 1043.48,-165 985.99,-151.36 919.03,-137.13 877.69,-128.55"/>
<polygon fill="#63b8ff" stroke="#63b8ff" points="878.26,-125.09 867.76,-126.49 876.84,-131.94 878.26,-125.09"/>
</g>
<!-- Node31&#45;&gt;Node7 -->
<g id="edge60" class="edge">
<title>Node31&#45;&gt;Node7</title>
<path fill="none" stroke="#63b8ff" d="M1068.47,-164.72C1056.02,-151.47 1030.83,-126.22 1005.48,-110 935.72,-65.37 842.6,-33.97 794.4,-19.5"/>
<polygon fill="#63b8ff" stroke="#63b8ff" points="795.12,-16.07 784.54,-16.6 793.14,-22.78 795.12,-16.07"/>
</g>
<!-- Node32 -->
<g id="node32" class="node">
<title>Node32</title>
<g id="a_node32"><a xlink:href="../../df/d45/fileinfo_8h.html" target="_top" xlink:title=" ">
<polygon fill="white" stroke="#666666" points="995.98,-129 936.98,-129 936.98,-110 995.98,-110 995.98,-129"/>
<text text-anchor="middle" x="966.48" y="-117" font-family="Helvetica,sans-Serif" font-size="10.00">fileinfo.h</text>
</a>
</g>
</g>
<!-- Node31&#45;&gt;Node32 -->
<g id="edge62" class="edge">
<title>Node31&#45;&gt;Node32</title>
<path fill="none" stroke="#63b8ff" d="M1058.81,-164.98C1041.19,-156.5 1013.9,-143.35 993.56,-133.54"/>
<polygon fill="#63b8ff" stroke="#63b8ff" points="995,-130.36 984.48,-129.17 991.97,-136.66 995,-130.36"/>
</g>
<!-- Node32&#45;&gt;Node7 -->
<g id="edge63" class="edge">
<title>Node32&#45;&gt;Node7</title>
<path fill="none" stroke="#63b8ff" d="M950.13,-109.84C914.53,-91 829.81,-46.14 787.47,-23.73"/>
<polygon fill="#63b8ff" stroke="#63b8ff" points="789.1,-20.63 778.63,-19.05 785.83,-26.82 789.1,-20.63"/>
</g>
</g>
</svg>
