<?xml version="1.0" encoding="UTF-8" standalone="no"?>
<!DOCTYPE svg PUBLIC "-//W3C//DTD SVG 1.1//EN"
 "http://www.w3.org/Graphics/SVG/1.1/DTD/svg11.dtd">
<!-- Generated by graphviz version 2.43.0 (0)
 -->
<!-- Title: FileDefImpl Pages: 1 -->
<!--zoomable 527 -->
<svg id="main" version="1.1" xmlns="http://www.w3.org/2000/svg" xmlns:xlink="http://www.w3.org/1999/xlink" xml:space="preserve" onload="init(evt)">
<style type="text/css"><![CDATA[
.edge:hover path { stroke: red; }
.edge:hover polygon { stroke: red; fill: red; }
]]></style>
<script type="text/javascript"><![CDATA[
var edges = document.getElementsByTagName('g');
if (edges && edges.length) {
  for (var i=0;i<edges.length;i++) {
    if (edges[i].id.substr(0,4)=='edge') {
      edges[i].setAttribute('class','edge');
    }
  }
}
]]></script>
        <defs>
                <circle id="rim" cx="0" cy="0" r="7"/>
                <circle id="rim2" cx="0" cy="0" r="3.5"/>
                <g id="zoomPlus">
                        <use xlink:href="#rim" fill="#404040">
                                <set attributeName="fill" to="#808080" begin="zoomplus.mouseover" end="zoomplus.mouseout"/>
                        </use>
                        <path d="M-4,0h8M0,-4v8" fill="none" stroke="white" stroke-width="1.5" pointer-events="none"/>
                </g>
                <g id="zoomMin">
                        <use xlink:href="#rim" fill="#404040">
                                <set attributeName="fill" to="#808080" begin="zoomminus.mouseover" end="zoomminus.mouseout"/>
                        </use>
                        <path d="M-4,0h8" fill="none" stroke="white" stroke-width="1.5" pointer-events="none"/>
                </g>
                <g id="dirArrow">
                        <path fill="none" stroke="white" stroke-width="1.5" d="M0,-3.0v7 M-2.5,-0.5L0,-3.0L2.5,-0.5"/>
                </g>
               <g id="resetDef">
                       <use xlink:href="#rim2" fill="#404040">
                               <set attributeName="fill" to="#808080" begin="reset.mouseover" end="reset.mouseout"/>
                       </use>
               </g>
        </defs>

<script type="text/javascript">
var viewWidth = 1672;
var viewHeight = 527;
var sectionId = 'dynsection-1';
</script>
<script xlink:href="../../svgpan.js"/>
<svg id="graph" class="graph">
<g id="viewport">
<title>FileDefImpl</title>
<!-- Node1 -->
<g id="node1" class="node">
<title>Node1</title>
<g id="a_node1"><a xlink:title=" ">
<polygon fill="#999999" stroke="#666666" points="1664,-213.98 1591,-213.98 1591,-194.98 1664,-194.98 1664,-213.98"/>
<text text-anchor="middle" x="1627.5" y="-201.98" font-family="Helvetica,sans-Serif" font-size="10.00">FileDefImpl</text>
</a>
</g>
</g>
<!-- Node2 -->
<g id="node2" class="node">
<title>Node2</title>
<g id="a_node2"><a xlink:href="../../dd/d10/class_definition_mixin.html" target="_top" xlink:title=" ">
<polygon fill="white" stroke="#666666" points="1461,-407.98 1313,-407.98 1313,-388.98 1461,-388.98 1461,-407.98"/>
<text text-anchor="middle" x="1387" y="-395.98" font-family="Helvetica,sans-Serif" font-size="10.00">DefinitionMixin&lt; FileDef &gt;</text>
</a>
</g>
</g>
<!-- Node2&#45;&gt;Node1 -->
<g id="edge1" class="edge">
<title>Node2&#45;&gt;Node1</title>
<path fill="none" stroke="#63b8ff" d="M1471.56,-402.12C1506.52,-399.42 1545.36,-390.31 1573,-366.48 1620.11,-325.87 1625.93,-242.88 1626.5,-214.36"/>
<polygon fill="#63b8ff" stroke="#63b8ff" points="1471.1,-398.65 1461.33,-402.75 1471.52,-405.63 1471.1,-398.65"/>
</g>
<!-- Node3 -->
<g id="node3" class="node">
<title>Node3</title>
<g id="a_node3"><a xlink:href="../../de/db0/class_file_def.html" target="_top" xlink:title="A model of a file symbol.">
<polygon fill="white" stroke="#666666" points="219.5,-428.98 168.5,-428.98 168.5,-409.98 219.5,-409.98 219.5,-428.98"/>
<text text-anchor="middle" x="194" y="-416.98" font-family="Helvetica,sans-Serif" font-size="10.00">FileDef</text>
</a>
</g>
</g>
<!-- Node3&#45;&gt;Node2 -->
<g id="edge2" class="edge">
<title>Node3&#45;&gt;Node2</title>
<path fill="none" stroke="#63b8ff" d="M229.31,-432.35C266.22,-445.02 326.92,-462.48 381,-462.48 381,-462.48 381,-462.48 1144.5,-462.48 1228.43,-462.48 1323.46,-425.92 1364.85,-408.07"/>
<polygon fill="#63b8ff" stroke="#63b8ff" points="230.15,-428.93 219.55,-428.92 227.83,-435.54 230.15,-428.93"/>
</g>
<!-- Node14 -->
<g id="node14" class="node">
<title>Node14</title>
<g id="a_node14"><a xlink:href="../../db/dab/struct_body_info.html" target="_top" xlink:title="Data associated with description found in the body.">
<polygon fill="white" stroke="#666666" points="412,-396.98 352,-396.98 352,-377.98 412,-377.98 412,-396.98"/>
<text text-anchor="middle" x="382" y="-384.98" font-family="Helvetica,sans-Serif" font-size="10.00">BodyInfo</text>
</a>
</g>
</g>
<!-- Node3&#45;&gt;Node14 -->
<g id="edge16" class="edge">
<title>Node3&#45;&gt;Node14</title>
<path fill="none" stroke="#9a32cd" stroke-dasharray="5,2" d="M230,-413.46C265.23,-407.4 318.94,-398.16 351.91,-392.49"/>
<polygon fill="#9a32cd" stroke="#9a32cd" points="228.96,-410.09 219.7,-415.23 230.15,-416.99 228.96,-410.09"/>
<text text-anchor="middle" x="292.5" y="-409.48" font-family="Helvetica,sans-Serif" font-size="10.00"> fileDef</text>
</g>
<!-- Node4 -->
<g id="node4" class="node">
<title>Node4</title>
<g id="a_node4"><a xlink:href="../../d0/d46/class_definition_mutable.html" target="_top" xlink:title=" ">
<polygon fill="white" stroke="#666666" points="104,-461.98 0,-461.98 0,-442.98 104,-442.98 104,-461.98"/>
<text text-anchor="middle" x="52" y="-449.98" font-family="Helvetica,sans-Serif" font-size="10.00">DefinitionMutable</text>
</a>
</g>
</g>
<!-- Node4&#45;&gt;Node3 -->
<g id="edge3" class="edge">
<title>Node4&#45;&gt;Node3</title>
<path fill="none" stroke="#63b8ff" d="M103.42,-440.6C125.52,-435.39 150.47,-429.51 168.41,-425.28"/>
<polygon fill="#63b8ff" stroke="#63b8ff" points="102.42,-437.24 93.49,-442.94 104.03,-444.05 102.42,-437.24"/>
</g>
<!-- Node23 -->
<g id="node23" class="node">
<title>Node23</title>
<g id="a_node23"><a xlink:href="../../d4/dd4/class_dir_def.html" target="_top" xlink:title="A model of a directory symbol.">
<polygon fill="white" stroke="#666666" points="218,-474.98 170,-474.98 170,-455.98 218,-455.98 218,-474.98"/>
<text text-anchor="middle" x="194" y="-462.98" font-family="Helvetica,sans-Serif" font-size="10.00">DirDef</text>
</a>
</g>
</g>
<!-- Node4&#45;&gt;Node23 -->
<g id="edge30" class="edge">
<title>Node4&#45;&gt;Node23</title>
<path fill="none" stroke="#63b8ff" d="M114.49,-458.19C134.14,-460.02 154.7,-461.93 169.84,-463.33"/>
<polygon fill="#63b8ff" stroke="#63b8ff" points="114.62,-454.69 104.34,-457.25 113.97,-461.66 114.62,-454.69"/>
</g>
<!-- Node5 -->
<g id="node5" class="node">
<title>Node5</title>
<g id="a_node5"><a xlink:href="../../d5/dcc/class_definition.html" target="_top" xlink:title="The common base class of all entity definitions found in the sources.">
<polygon fill="white" stroke="#666666" points="84,-399.98 20,-399.98 20,-380.98 84,-380.98 84,-399.98"/>
<text text-anchor="middle" x="52" y="-387.98" font-family="Helvetica,sans-Serif" font-size="10.00">Definition</text>
</a>
</g>
</g>
<!-- Node5&#45;&gt;Node3 -->
<g id="edge4" class="edge">
<title>Node5&#45;&gt;Node3</title>
<path fill="none" stroke="#63b8ff" d="M94.06,-398.6C103.57,-400.5 113.64,-402.55 123,-404.48 138.09,-407.61 154.99,-411.23 168.4,-414.13"/>
<polygon fill="#63b8ff" stroke="#63b8ff" points="94.52,-395.12 84.03,-396.6 93.15,-401.99 94.52,-395.12"/>
</g>
<!-- Node7 -->
<g id="node7" class="node">
<title>Node7</title>
<g id="a_node7"><a xlink:href="../../dd/d50/class_definition_impl_1_1_i_m_p_l.html" target="_top" xlink:title="Private data associated with a Symbol DefinitionImpl object.">
<polygon fill="white" stroke="#666666" points="692,-323.98 577,-323.98 577,-304.98 692,-304.98 692,-323.98"/>
<text text-anchor="middle" x="634.5" y="-311.98" font-family="Helvetica,sans-Serif" font-size="10.00">DefinitionImpl::IMPL</text>
</a>
</g>
</g>
<!-- Node5&#45;&gt;Node7 -->
<g id="edge7" class="edge">
<title>Node5&#45;&gt;Node7</title>
<path fill="none" stroke="#9a32cd" stroke-dasharray="5,2" d="M94.38,-386.32C180.88,-377.41 387.1,-355.14 559,-328.48 567.45,-327.17 576.42,-325.63 585.09,-324.05"/>
<polygon fill="#9a32cd" stroke="#9a32cd" points="93.78,-382.86 84.19,-387.36 94.49,-389.83 93.78,-382.86"/>
<text text-anchor="middle" x="292.5" y="-380.48" font-family="Helvetica,sans-Serif" font-size="10.00"> def</text>
<text text-anchor="middle" x="292.5" y="-369.48" font-family="Helvetica,sans-Serif" font-size="10.00">outerScope</text>
</g>
<!-- Node5&#45;&gt;Node23 -->
<g id="edge31" class="edge">
<title>Node5&#45;&gt;Node23</title>
<path fill="none" stroke="#63b8ff" d="M79.49,-405.12C96.92,-414.7 120.26,-427.45 141,-438.48 151.95,-444.31 164.28,-450.72 174.18,-455.83"/>
<polygon fill="#63b8ff" stroke="#63b8ff" points="80.92,-401.91 70.47,-400.15 77.55,-408.04 80.92,-401.91"/>
</g>
<!-- Node6 -->
<g id="node6" class="node">
<title>Node6</title>
<g id="a_node6"><a xlink:href="../../d3/ddf/class_definition_impl.html" target="_top" xlink:title=" ">
<polygon fill="white" stroke="#666666" points="879.5,-386.98 793.5,-386.98 793.5,-367.98 879.5,-367.98 879.5,-386.98"/>
<text text-anchor="middle" x="836.5" y="-374.98" font-family="Helvetica,sans-Serif" font-size="10.00">DefinitionImpl</text>
</a>
</g>
</g>
<!-- Node6&#45;&gt;Node2 -->
<g id="edge5" class="edge">
<title>Node6&#45;&gt;Node2</title>
<path fill="none" stroke="#9a32cd" stroke-dasharray="5,2" d="M889.53,-385.01C900.56,-386.37 912.15,-387.63 923,-388.48 1060.46,-399.29 1221.54,-400.1 1312.9,-399.47"/>
<polygon fill="#9a32cd" stroke="#9a32cd" points="889.96,-381.54 879.6,-383.74 889.07,-388.48 889.96,-381.54"/>
<text text-anchor="middle" x="1143.5" y="-401.48" font-family="Helvetica,sans-Serif" font-size="10.00"> m_impl</text>
</g>
<!-- Node16 -->
<g id="node16" class="node">
<title>Node16</title>
<g id="a_node16"><a xlink:href="../../dd/d10/class_definition_mixin.html" target="_top" xlink:title=" ">
<polygon fill="white" stroke="#666666" points="1212,-374.98 1075,-374.98 1075,-355.98 1212,-355.98 1212,-374.98"/>
<text text-anchor="middle" x="1143.5" y="-362.98" font-family="Helvetica,sans-Serif" font-size="10.00">DefinitionMixin&lt; Base &gt;</text>
</a>
</g>
</g>
<!-- Node6&#45;&gt;Node16 -->
<g id="edge21" class="edge">
<title>Node6&#45;&gt;Node16</title>
<path fill="none" stroke="#9a32cd" stroke-dasharray="5,2" d="M889.75,-375.43C940.87,-373.42 1018.96,-370.34 1074.81,-368.15"/>
<polygon fill="#9a32cd" stroke="#9a32cd" points="889.44,-371.94 879.59,-375.83 889.72,-378.93 889.44,-371.94"/>
<text text-anchor="middle" x="988" y="-376.48" font-family="Helvetica,sans-Serif" font-size="10.00"> m_impl</text>
</g>
<!-- Node7&#45;&gt;Node6 -->
<g id="edge6" class="edge">
<title>Node7&#45;&gt;Node6</title>
<path fill="none" stroke="#9a32cd" stroke-dasharray="5,2" d="M671.6,-327.47C698.12,-336.84 735.11,-349.53 768,-359.48 777.63,-362.4 788.12,-365.32 797.89,-367.93"/>
<polygon fill="#9a32cd" stroke="#9a32cd" points="672.57,-324.1 661.98,-324.06 670.23,-330.7 672.57,-324.1"/>
<text text-anchor="middle" x="730" y="-356.48" font-family="Helvetica,sans-Serif" font-size="10.00"> m_impl</text>
</g>
<!-- Node8 -->
<g id="node8" class="node">
<title>Node8</title>
<g id="a_node8"><a xlink:href="../../d1/df9/class_section_refs.html" target="_top" xlink:title="class that represents a list of constant references to sections.">
<polygon fill="white" stroke="#666666" points="419,-320.98 345,-320.98 345,-301.98 419,-301.98 419,-320.98"/>
<text text-anchor="middle" x="382" y="-308.98" font-family="Helvetica,sans-Serif" font-size="10.00">SectionRefs</text>
</a>
</g>
</g>
<!-- Node8&#45;&gt;Node7 -->
<g id="edge8" class="edge">
<title>Node8&#45;&gt;Node7</title>
<path fill="none" stroke="#9a32cd" stroke-dasharray="5,2" d="M429.31,-312.04C471.01,-312.54 532.41,-313.27 576.99,-313.81"/>
<polygon fill="#9a32cd" stroke="#9a32cd" points="429.2,-308.54 419.16,-311.92 429.11,-315.54 429.2,-308.54"/>
<text text-anchor="middle" x="501.5" y="-316.48" font-family="Helvetica,sans-Serif" font-size="10.00"> sectionRefs</text>
</g>
<!-- Node9 -->
<g id="node9" class="node">
<title>Node9</title>
<g id="a_node9"><a xlink:href="../../d3/d3b/class_group_list.html" target="_top" xlink:title=" ">
<polygon fill="white" stroke="#666666" points="413.5,-283.98 350.5,-283.98 350.5,-264.98 413.5,-264.98 413.5,-283.98"/>
<text text-anchor="middle" x="382" y="-271.98" font-family="Helvetica,sans-Serif" font-size="10.00">GroupList</text>
</a>
</g>
</g>
<!-- Node9&#45;&gt;Node7 -->
<g id="edge9" class="edge">
<title>Node9&#45;&gt;Node7</title>
<path fill="none" stroke="#9a32cd" stroke-dasharray="5,2" d="M423.75,-278.26C459.55,-281.89 512.96,-288.07 559,-296.48 571.7,-298.8 585.47,-301.95 597.68,-304.96"/>
<polygon fill="#9a32cd" stroke="#9a32cd" points="423.98,-274.77 413.68,-277.26 423.29,-281.73 423.98,-274.77"/>
<text text-anchor="middle" x="501.5" y="-299.48" font-family="Helvetica,sans-Serif" font-size="10.00"> partOfGroups</text>
</g>
<!-- Node10 -->
<g id="node10" class="node">
<title>Node10</title>
<g id="a_node10"><a xlink:title=" ">
<polygon fill="white" stroke="#666666" points="247,-289.48 141,-289.48 141,-259.48 247,-259.48 247,-289.48"/>
<text text-anchor="start" x="149" y="-277.48" font-family="Helvetica,sans-Serif" font-size="10.00">std::vector&lt; const</text>
<text text-anchor="middle" x="194" y="-266.48" font-family="Helvetica,sans-Serif" font-size="10.00"> GroupDef * &gt;</text>
</a>
</g>
</g>
<!-- Node10&#45;&gt;Node9 -->
<g id="edge10" class="edge">
<title>Node10&#45;&gt;Node9</title>
<path fill="none" stroke="#63b8ff" d="M257.67,-274.48C288.86,-274.48 325.17,-274.48 350.27,-274.48"/>
<polygon fill="#63b8ff" stroke="#63b8ff" points="257.31,-270.98 247.31,-274.48 257.31,-277.98 257.31,-270.98"/>
</g>
<!-- Node11 -->
<g id="node11" class="node">
<title>Node11</title>
<g id="a_node11"><a xlink:href="../../d7/dd5/struct_doc_info.html" target="_top" xlink:title="Data associated with a detailed description.">
<polygon fill="white" stroke="#666666" points="409,-246.98 355,-246.98 355,-227.98 409,-227.98 409,-246.98"/>
<text text-anchor="middle" x="382" y="-234.98" font-family="Helvetica,sans-Serif" font-size="10.00">DocInfo</text>
</a>
</g>
</g>
<!-- Node11&#45;&gt;Node7 -->
<g id="edge11" class="edge">
<title>Node11&#45;&gt;Node7</title>
<path fill="none" stroke="#9a32cd" stroke-dasharray="5,2" d="M419.37,-235.04C456,-233.93 513.47,-235.92 559,-254.48 586.68,-265.77 612.27,-290.85 625.02,-304.74"/>
<polygon fill="#9a32cd" stroke="#9a32cd" points="419.02,-231.55 409.16,-235.45 419.29,-238.55 419.02,-231.55"/>
<text text-anchor="middle" x="501.5" y="-268.48" font-family="Helvetica,sans-Serif" font-size="10.00"> details</text>
<text text-anchor="middle" x="501.5" y="-257.48" font-family="Helvetica,sans-Serif" font-size="10.00">inbodyDocs</text>
</g>
<!-- Node12 -->
<g id="node12" class="node">
<title>Node12</title>
<g id="a_node12"><a xlink:href="../../d9/d45/class_q_c_string.html" target="_top" xlink:title="This is an alternative implementation of QCString.">
<polygon fill="white" stroke="#666666" points="223.5,-73.98 164.5,-73.98 164.5,-54.98 223.5,-54.98 223.5,-73.98"/>
<text text-anchor="middle" x="194" y="-61.98" font-family="Helvetica,sans-Serif" font-size="10.00">QCString</text>
</a>
</g>
</g>
<!-- Node12&#45;&gt;Node1 -->
<g id="edge28" class="edge">
<title>Node12&#45;&gt;Node1</title>
<path fill="none" stroke="#9a32cd" stroke-dasharray="5,2" d="M221.22,-50.28C256.48,-32.54 321.61,-4.48 381,-4.48 381,-4.48 381,-4.48 1388,-4.48 1471.6,-4.48 1510.17,16.66 1573,-38.48 1621.02,-80.63 1626.23,-166.07 1626.57,-194.81"/>
<polygon fill="#9a32cd" stroke="#9a32cd" points="219.39,-47.29 212.1,-54.98 222.59,-53.51 219.39,-47.29"/>
<text text-anchor="middle" x="836.5" y="-84.48" font-family="Helvetica,sans-Serif" font-size="10.00"> m_docname</text>
<text text-anchor="middle" x="836.5" y="-73.48" font-family="Helvetica,sans-Serif" font-size="10.00">m_fileName</text>
<text text-anchor="middle" x="836.5" y="-62.48" font-family="Helvetica,sans-Serif" font-size="10.00">m_filePath</text>
<text text-anchor="middle" x="836.5" y="-51.48" font-family="Helvetica,sans-Serif" font-size="10.00">m_fileVersion</text>
<text text-anchor="middle" x="836.5" y="-40.48" font-family="Helvetica,sans-Serif" font-size="10.00">m_inclByDepFileName</text>
<text text-anchor="middle" x="836.5" y="-29.48" font-family="Helvetica,sans-Serif" font-size="10.00">m_inclDepFileName</text>
<text text-anchor="middle" x="836.5" y="-18.48" font-family="Helvetica,sans-Serif" font-size="10.00">m_outputDiskName</text>
<text text-anchor="middle" x="836.5" y="-7.48" font-family="Helvetica,sans-Serif" font-size="10.00">m_path</text>
</g>
<!-- Node12&#45;&gt;Node7 -->
<g id="edge17" class="edge">
<title>Node12&#45;&gt;Node7</title>
<path fill="none" stroke="#9a32cd" stroke-dasharray="5,2" d="M233.86,-70.05C299.11,-79.41 423.86,-97.41 426,-98.48 527.38,-149.2 606.57,-270.18 627.84,-304.97"/>
<polygon fill="#9a32cd" stroke="#9a32cd" points="234.32,-66.58 223.92,-68.62 233.32,-73.51 234.32,-66.58"/>
<text text-anchor="middle" x="382" y="-211.48" font-family="Helvetica,sans-Serif" font-size="10.00"> briefSignatures</text>
<text text-anchor="middle" x="382" y="-200.48" font-family="Helvetica,sans-Serif" font-size="10.00">defFileExt</text>
<text text-anchor="middle" x="382" y="-189.48" font-family="Helvetica,sans-Serif" font-size="10.00">defFileName</text>
<text text-anchor="middle" x="382" y="-178.48" font-family="Helvetica,sans-Serif" font-size="10.00">docSignatures</text>
<text text-anchor="middle" x="382" y="-167.48" font-family="Helvetica,sans-Serif" font-size="10.00">id</text>
<text text-anchor="middle" x="382" y="-156.48" font-family="Helvetica,sans-Serif" font-size="10.00">localName</text>
<text text-anchor="middle" x="382" y="-145.48" font-family="Helvetica,sans-Serif" font-size="10.00">name</text>
<text text-anchor="middle" x="382" y="-134.48" font-family="Helvetica,sans-Serif" font-size="10.00">qualifiedName</text>
<text text-anchor="middle" x="382" y="-123.48" font-family="Helvetica,sans-Serif" font-size="10.00">ref</text>
<text text-anchor="middle" x="382" y="-112.48" font-family="Helvetica,sans-Serif" font-size="10.00">symbolName</text>
<text text-anchor="middle" x="382" y="-101.48" font-family="Helvetica,sans-Serif" font-size="10.00">...</text>
</g>
<!-- Node12&#45;&gt;Node11 -->
<g id="edge12" class="edge">
<title>Node12&#45;&gt;Node11</title>
<path fill="none" stroke="#9a32cd" stroke-dasharray="5,2" d="M208.81,-81.96C232.82,-111.57 284.79,-172.4 338,-213.48 345.04,-218.92 353.45,-223.9 360.97,-227.9"/>
<polygon fill="#9a32cd" stroke="#9a32cd" points="211.53,-79.76 202.54,-74.15 206.07,-84.14 211.53,-79.76"/>
<text text-anchor="middle" x="292.5" y="-209.48" font-family="Helvetica,sans-Serif" font-size="10.00"> doc</text>
<text text-anchor="middle" x="292.5" y="-198.48" font-family="Helvetica,sans-Serif" font-size="10.00">file</text>
</g>
<!-- Node13 -->
<g id="node13" class="node">
<title>Node13</title>
<g id="a_node13"><a xlink:href="../../d0/da7/struct_brief_info.html" target="_top" xlink:title="Data associated with a brief description.">
<polygon fill="white" stroke="#666666" points="411.5,-51.98 352.5,-51.98 352.5,-32.98 411.5,-32.98 411.5,-51.98"/>
<text text-anchor="middle" x="382" y="-39.98" font-family="Helvetica,sans-Serif" font-size="10.00">BriefInfo</text>
</a>
</g>
</g>
<!-- Node12&#45;&gt;Node13 -->
<g id="edge14" class="edge">
<title>Node12&#45;&gt;Node13</title>
<path fill="none" stroke="#9a32cd" stroke-dasharray="5,2" d="M227.58,-51.4C239.19,-47.38 252.5,-43.49 265,-41.48 294.43,-36.77 328.6,-37.84 352.2,-39.58"/>
<polygon fill="#9a32cd" stroke="#9a32cd" points="226.08,-48.22 217.87,-54.92 228.47,-54.8 226.08,-48.22"/>
<text text-anchor="middle" x="292.5" y="-66.48" font-family="Helvetica,sans-Serif" font-size="10.00"> doc</text>
<text text-anchor="middle" x="292.5" y="-55.48" font-family="Helvetica,sans-Serif" font-size="10.00">file</text>
<text text-anchor="middle" x="292.5" y="-44.48" font-family="Helvetica,sans-Serif" font-size="10.00">tooltip</text>
</g>
<!-- Node13&#45;&gt;Node7 -->
<g id="edge13" class="edge">
<title>Node13&#45;&gt;Node7</title>
<path fill="none" stroke="#9a32cd" stroke-dasharray="5,2" d="M421.66,-35.87C460.86,-31.48 520.99,-31.44 559,-63.48 635.45,-127.95 635.52,-266.98 634.03,-304.81"/>
<polygon fill="#9a32cd" stroke="#9a32cd" points="421.17,-32.4 411.69,-37.13 422.05,-39.34 421.17,-32.4"/>
<text text-anchor="middle" x="501.5" y="-66.48" font-family="Helvetica,sans-Serif" font-size="10.00"> brief</text>
</g>
<!-- Node14&#45;&gt;Node7 -->
<g id="edge15" class="edge">
<title>Node14&#45;&gt;Node7</title>
<path fill="none" stroke="#9a32cd" stroke-dasharray="5,2" d="M422.54,-387.06C459.03,-385.53 514.19,-380.28 559,-363.48 583.64,-354.25 608.41,-335.67 622.27,-324.23"/>
<polygon fill="#9a32cd" stroke="#9a32cd" points="422.18,-383.57 412.31,-387.42 422.42,-390.57 422.18,-383.57"/>
<text text-anchor="middle" x="501.5" y="-388.48" font-family="Helvetica,sans-Serif" font-size="10.00"> body</text>
</g>
<!-- Node15 -->
<g id="node15" class="node">
<title>Node15</title>
<g id="a_node15"><a xlink:href="../../d1/d7d/class_member_vector.html" target="_top" xlink:title="A vector of MemberDef object.">
<polygon fill="white" stroke="#666666" points="426,-433.98 338,-433.98 338,-414.98 426,-414.98 426,-433.98"/>
<text text-anchor="middle" x="382" y="-421.98" font-family="Helvetica,sans-Serif" font-size="10.00">MemberVector</text>
</a>
</g>
</g>
<!-- Node15&#45;&gt;Node7 -->
<g id="edge18" class="edge">
<title>Node15&#45;&gt;Node7</title>
<path fill="none" stroke="#9a32cd" stroke-dasharray="5,2" d="M436.48,-421.33C480.34,-418 538.41,-411.63 559,-400.48 592.53,-382.33 617.85,-342.67 628.28,-324.25"/>
<polygon fill="#9a32cd" stroke="#9a32cd" points="435.96,-417.86 426.24,-422.08 436.47,-424.84 435.96,-417.86"/>
<text text-anchor="middle" x="501.5" y="-433.48" font-family="Helvetica,sans-Serif" font-size="10.00"> referencedByMembers</text>
<text text-anchor="middle" x="501.5" y="-422.48" font-family="Helvetica,sans-Serif" font-size="10.00">referencesMembers</text>
</g>
<!-- Node16&#45;&gt;Node2 -->
<g id="edge19" class="edge">
<title>Node16&#45;&gt;Node2</title>
<path fill="none" stroke="orange" stroke-dasharray="5,2" d="M1222.18,-376.1C1252.45,-380.23 1286.87,-384.94 1316.32,-388.96"/>
<polygon fill="orange" stroke="orange" points="1222.47,-372.61 1212.09,-374.72 1221.53,-379.54 1222.47,-372.61"/>
<text text-anchor="middle" x="1264.5" y="-388.48" font-family="Helvetica,sans-Serif" font-size="10.00"> &lt; FileDef &gt;</text>
</g>
<!-- Node17 -->
<g id="node17" class="node">
<title>Node17</title>
<g id="a_node17"><a xlink:title=" ">
<polygon fill="white" stroke="#666666" points="857,-349.98 816,-349.98 816,-330.98 857,-330.98 857,-349.98"/>
<text text-anchor="middle" x="836.5" y="-337.98" font-family="Helvetica,sans-Serif" font-size="10.00">Base</text>
</a>
</g>
</g>
<!-- Node17&#45;&gt;Node16 -->
<g id="edge20" class="edge">
<title>Node17&#45;&gt;Node16</title>
<path fill="none" stroke="#63b8ff" d="M867.31,-342.93C915.06,-346.84 1009.92,-354.62 1074.79,-359.93"/>
<polygon fill="#63b8ff" stroke="#63b8ff" points="867.3,-339.41 857.04,-342.09 866.72,-346.39 867.3,-339.41"/>
</g>
<!-- Node18 -->
<g id="node18" class="node">
<title>Node18</title>
<g id="a_node18"><a xlink:href="../../d5/d53/class_include_info_list.html" target="_top" xlink:title=" ">
<polygon fill="white" stroke="#666666" points="1431,-345.98 1343,-345.98 1343,-326.98 1431,-326.98 1431,-345.98"/>
<text text-anchor="middle" x="1387" y="-333.98" font-family="Helvetica,sans-Serif" font-size="10.00">IncludeInfoList</text>
</a>
</g>
</g>
<!-- Node18&#45;&gt;Node1 -->
<g id="edge22" class="edge">
<title>Node18&#45;&gt;Node1</title>
<path fill="none" stroke="#9a32cd" stroke-dasharray="5,2" d="M1441.09,-341.89C1480.93,-343.17 1534.92,-338.71 1573,-311.48 1606.79,-287.32 1620.44,-235.61 1624.79,-214.14"/>
<polygon fill="#9a32cd" stroke="#9a32cd" points="1441.18,-338.39 1431.03,-341.44 1440.86,-345.38 1441.18,-338.39"/>
<text text-anchor="middle" x="1526" y="-354.48" font-family="Helvetica,sans-Serif" font-size="10.00"> m_includeList</text>
<text text-anchor="middle" x="1526" y="-343.48" font-family="Helvetica,sans-Serif" font-size="10.00">m_includedByList</text>
</g>
<!-- Node19 -->
<g id="node19" class="node">
<title>Node19</title>
<g id="a_node19"><a xlink:title=" ">
<polygon fill="white" stroke="#666666" points="1216,-337.98 1071,-337.98 1071,-318.98 1216,-318.98 1216,-337.98"/>
<text text-anchor="middle" x="1143.5" y="-325.98" font-family="Helvetica,sans-Serif" font-size="10.00">std::vector&lt; IncludeInfo &gt;</text>
</a>
</g>
</g>
<!-- Node19&#45;&gt;Node18 -->
<g id="edge23" class="edge">
<title>Node19&#45;&gt;Node18</title>
<path fill="none" stroke="#63b8ff" d="M1226.6,-331.2C1265.61,-332.5 1310.63,-333.99 1342.85,-335.05"/>
<polygon fill="#63b8ff" stroke="#63b8ff" points="1226.41,-327.7 1216.3,-330.86 1226.18,-334.69 1226.41,-327.7"/>
</g>
<!-- Node20 -->
<g id="node20" class="node">
<title>Node20</title>
<g id="a_node20"><a xlink:href="../../d2/db7/class_linked_ref_map.html" target="_top" xlink:title=" ">
<polygon fill="white" stroke="#666666" points="1205,-180.48 1082,-180.48 1082,-150.48 1205,-150.48 1205,-180.48"/>
<text text-anchor="start" x="1090" y="-168.48" font-family="Helvetica,sans-Serif" font-size="10.00">LinkedRefMap&lt; const</text>
<text text-anchor="middle" x="1143.5" y="-157.48" font-family="Helvetica,sans-Serif" font-size="10.00"> NamespaceDef &gt;</text>
</a>
</g>
</g>
<!-- Node20&#45;&gt;Node1 -->
<g id="edge24" class="edge">
<title>Node20&#45;&gt;Node1</title>
<path fill="none" stroke="#9a32cd" stroke-dasharray="5,2" d="M1215.1,-154.43C1279.38,-146.03 1376.83,-137.48 1461,-147.48 1511.85,-153.53 1525.33,-155.79 1573,-174.48 1586.88,-179.93 1601.58,-188.39 1612.05,-194.94"/>
<polygon fill="#9a32cd" stroke="#9a32cd" points="1214.52,-150.97 1205.07,-155.77 1215.45,-157.91 1214.52,-150.97"/>
<text text-anchor="middle" x="1387" y="-150.48" font-family="Helvetica,sans-Serif" font-size="10.00"> m_usingDirList</text>
</g>
<!-- Node28 -->
<g id="node28" class="node">
<title>Node28</title>
<g id="a_node28"><a xlink:href="../../da/df0/class_namespace_linked_ref_map.html" target="_top" xlink:title=" ">
<polygon fill="white" stroke="#666666" points="1458.5,-185.98 1315.5,-185.98 1315.5,-166.98 1458.5,-166.98 1458.5,-185.98"/>
<text text-anchor="middle" x="1387" y="-173.98" font-family="Helvetica,sans-Serif" font-size="10.00">NamespaceLinkedRefMap</text>
</a>
</g>
</g>
<!-- Node20&#45;&gt;Node28 -->
<g id="edge37" class="edge">
<title>Node20&#45;&gt;Node28</title>
<path fill="none" stroke="#63b8ff" d="M1215.18,-168.7C1246.77,-170.14 1283.92,-171.83 1315.49,-173.27"/>
<polygon fill="#63b8ff" stroke="#63b8ff" points="1215.28,-165.2 1205.13,-168.25 1214.96,-172.2 1215.28,-165.2"/>
</g>
<!-- Node21 -->
<g id="node21" class="node">
<title>Node21</title>
<g id="a_node21"><a xlink:href="../../d2/db7/class_linked_ref_map.html" target="_top" xlink:title="Container class representing a vector of objects with keys.">
<polygon fill="white" stroke="#666666" points="905,-228.48 768,-228.48 768,-198.48 905,-198.48 905,-228.48"/>
<text text-anchor="start" x="776" y="-216.48" font-family="Helvetica,sans-Serif" font-size="10.00">LinkedRefMap&lt; T, Hash,</text>
<text text-anchor="middle" x="836.5" y="-205.48" font-family="Helvetica,sans-Serif" font-size="10.00"> KeyEqual, Map &gt;</text>
</a>
</g>
</g>
<!-- Node21&#45;&gt;Node20 -->
<g id="edge25" class="edge">
<title>Node21&#45;&gt;Node20</title>
<path fill="none" stroke="orange" stroke-dasharray="5,2" d="M915.28,-199.76C917.88,-199.32 920.46,-198.9 923,-198.48 976.63,-189.75 1037.77,-180.63 1081.88,-174.19"/>
<polygon fill="orange" stroke="orange" points="914.43,-196.35 905.15,-201.46 915.59,-203.25 914.43,-196.35"/>
<text text-anchor="middle" x="988" y="-201.48" font-family="Helvetica,sans-Serif" font-size="10.00"> &lt; const NamespaceDef &gt;</text>
</g>
<!-- Node22 -->
<g id="node22" class="node">
<title>Node22</title>
<g id="a_node22"><a xlink:href="../../d2/db7/class_linked_ref_map.html" target="_top" xlink:title=" ">
<polygon fill="white" stroke="#666666" points="1205,-276.48 1082,-276.48 1082,-246.48 1205,-246.48 1205,-276.48"/>
<text text-anchor="start" x="1090" y="-264.48" font-family="Helvetica,sans-Serif" font-size="10.00">LinkedRefMap&lt; const</text>
<text text-anchor="middle" x="1143.5" y="-253.48" font-family="Helvetica,sans-Serif" font-size="10.00"> ClassDef &gt;</text>
</a>
</g>
</g>
<!-- Node21&#45;&gt;Node22 -->
<g id="edge27" class="edge">
<title>Node21&#45;&gt;Node22</title>
<path fill="none" stroke="orange" stroke-dasharray="5,2" d="M915.28,-227.21C917.88,-227.65 920.46,-228.07 923,-228.48 976.63,-237.22 1037.77,-246.34 1081.88,-252.78"/>
<polygon fill="orange" stroke="orange" points="915.59,-223.72 905.15,-225.51 914.43,-230.62 915.59,-223.72"/>
<text text-anchor="middle" x="988" y="-250.48" font-family="Helvetica,sans-Serif" font-size="10.00"> &lt; const ClassDef &gt;</text>
</g>
<!-- Node31 -->
<g id="node31" class="node">
<title>Node31</title>
<g id="a_node31"><a xlink:href="../../d2/db7/class_linked_ref_map.html" target="_top" xlink:title=" ">
<polygon fill="white" stroke="#666666" points="1205,-228.48 1082,-228.48 1082,-198.48 1205,-198.48 1205,-228.48"/>
<text text-anchor="start" x="1090" y="-216.48" font-family="Helvetica,sans-Serif" font-size="10.00">LinkedRefMap&lt; const</text>
<text text-anchor="middle" x="1143.5" y="-205.48" font-family="Helvetica,sans-Serif" font-size="10.00"> ConceptDef &gt;</text>
</a>
</g>
</g>
<!-- Node21&#45;&gt;Node31 -->
<g id="edge42" class="edge">
<title>Node21&#45;&gt;Node31</title>
<path fill="none" stroke="orange" stroke-dasharray="5,2" d="M915.33,-213.48C967.13,-213.48 1034.18,-213.48 1081.98,-213.48"/>
<polygon fill="orange" stroke="orange" points="915.19,-209.98 905.19,-213.48 915.19,-216.98 915.19,-209.98"/>
<text text-anchor="middle" x="988" y="-216.48" font-family="Helvetica,sans-Serif" font-size="10.00"> &lt; const ConceptDef &gt;</text>
</g>
<!-- Node22&#45;&gt;Node1 -->
<g id="edge26" class="edge">
<title>Node22&#45;&gt;Node1</title>
<path fill="none" stroke="#9a32cd" stroke-dasharray="5,2" d="M1215.1,-273.24C1320.42,-289.37 1512.74,-312.99 1573,-281.48 1600.55,-267.08 1616.77,-231.31 1623.23,-214.07"/>
<polygon fill="#9a32cd" stroke="#9a32cd" points="1215.61,-269.78 1205.19,-271.71 1214.53,-276.7 1215.61,-269.78"/>
<text text-anchor="middle" x="1387" y="-299.48" font-family="Helvetica,sans-Serif" font-size="10.00"> m_usingDeclList</text>
</g>
<!-- Node29 -->
<g id="node29" class="node">
<title>Node29</title>
<g id="a_node29"><a xlink:href="../../da/d08/class_class_linked_ref_map.html" target="_top" xlink:title=" ">
<polygon fill="white" stroke="#666666" points="1443,-259.98 1331,-259.98 1331,-240.98 1443,-240.98 1443,-259.98"/>
<text text-anchor="middle" x="1387" y="-247.98" font-family="Helvetica,sans-Serif" font-size="10.00">ClassLinkedRefMap</text>
</a>
</g>
</g>
<!-- Node22&#45;&gt;Node29 -->
<g id="edge39" class="edge">
<title>Node22&#45;&gt;Node29</title>
<path fill="none" stroke="#63b8ff" d="M1215.3,-258.26C1252.12,-256.58 1296.46,-254.56 1330.72,-253"/>
<polygon fill="#63b8ff" stroke="#63b8ff" points="1214.96,-254.77 1205.13,-258.72 1215.28,-261.76 1214.96,-254.77"/>
</g>
<!-- Node23&#45;&gt;Node1 -->
<g id="edge29" class="edge">
<title>Node23&#45;&gt;Node1</title>
<path fill="none" stroke="#9a32cd" stroke-dasharray="5,2" d="M227.77,-477.82C264.52,-490.52 326.17,-508.48 381,-508.48 381,-508.48 381,-508.48 1388,-508.48 1483.89,-508.48 1514.94,-473.79 1573,-397.48 1617.84,-338.54 1625.1,-244.07 1626.27,-214"/>
<polygon fill="#9a32cd" stroke="#9a32cd" points="228.69,-474.43 218.09,-474.39 226.35,-481.03 228.69,-474.43"/>
<text text-anchor="middle" x="836.5" y="-511.48" font-family="Helvetica,sans-Serif" font-size="10.00"> m_dir</text>
</g>
<!-- Node24 -->
<g id="node24" class="node">
<title>Node24</title>
<g id="a_node24"><a xlink:href="../../dd/d5a/class_member_lists.html" target="_top" xlink:title=" ">
<polygon fill="white" stroke="#666666" points="1427,-100.98 1347,-100.98 1347,-81.98 1427,-81.98 1427,-100.98"/>
<text text-anchor="middle" x="1387" y="-88.98" font-family="Helvetica,sans-Serif" font-size="10.00">MemberLists</text>
</a>
</g>
</g>
<!-- Node24&#45;&gt;Node1 -->
<g id="edge32" class="edge">
<title>Node24&#45;&gt;Node1</title>
<path fill="none" stroke="#9a32cd" stroke-dasharray="5,2" d="M1437.15,-85.6C1476.95,-83.37 1532.79,-86.22 1573,-112.48 1603.32,-132.29 1618.57,-175.69 1624.06,-194.95"/>
<polygon fill="#9a32cd" stroke="#9a32cd" points="1436.89,-82.11 1427.15,-86.29 1437.36,-89.09 1436.89,-82.11"/>
<text text-anchor="middle" x="1526" y="-115.48" font-family="Helvetica,sans-Serif" font-size="10.00"> m_memberLists</text>
</g>
<!-- Node25 -->
<g id="node25" class="node">
<title>Node25</title>
<g id="a_node25"><a xlink:title=" ">
<polygon fill="white" stroke="#666666" points="1210.5,-112.48 1076.5,-112.48 1076.5,-82.48 1210.5,-82.48 1210.5,-112.48"/>
<text text-anchor="start" x="1084.5" y="-100.48" font-family="Helvetica,sans-Serif" font-size="10.00">std::vector&lt; std::unique</text>
<text text-anchor="middle" x="1143.5" y="-89.48" font-family="Helvetica,sans-Serif" font-size="10.00">_ptr&lt; MemberList &gt; &gt;</text>
</a>
</g>
</g>
<!-- Node25&#45;&gt;Node24 -->
<g id="edge33" class="edge">
<title>Node25&#45;&gt;Node24</title>
<path fill="none" stroke="#63b8ff" d="M1220.99,-95.58C1262.9,-94.54 1313.05,-93.3 1346.98,-92.45"/>
<polygon fill="#63b8ff" stroke="#63b8ff" points="1220.72,-92.09 1210.81,-95.84 1220.89,-99.09 1220.72,-92.09"/>
</g>
<!-- Node26 -->
<g id="node26" class="node">
<title>Node26</title>
<g id="a_node26"><a xlink:href="../../df/d11/class_member_group_list.html" target="_top" xlink:title=" ">
<polygon fill="white" stroke="#666666" points="1439,-60.98 1335,-60.98 1335,-41.98 1439,-41.98 1439,-60.98"/>
<text text-anchor="middle" x="1387" y="-48.98" font-family="Helvetica,sans-Serif" font-size="10.00">MemberGroupList</text>
</a>
</g>
</g>
<!-- Node26&#45;&gt;Node1 -->
<g id="edge34" class="edge">
<title>Node26&#45;&gt;Node1</title>
<path fill="none" stroke="#9a32cd" stroke-dasharray="5,2" d="M1449.26,-42.62C1488.37,-40.35 1538.11,-44.14 1573,-70.48 1614.18,-101.57 1623.73,-169.4 1625.89,-194.7"/>
<polygon fill="#9a32cd" stroke="#9a32cd" points="1448.76,-39.15 1439.04,-43.37 1449.27,-46.13 1448.76,-39.15"/>
<text text-anchor="middle" x="1526" y="-73.48" font-family="Helvetica,sans-Serif" font-size="10.00"> m_memberGroups</text>
</g>
<!-- Node27 -->
<g id="node27" class="node">
<title>Node27</title>
<g id="a_node27"><a xlink:title=" ">
<polygon fill="white" stroke="#666666" points="1213,-64.48 1074,-64.48 1074,-34.48 1213,-34.48 1213,-64.48"/>
<text text-anchor="start" x="1082" y="-52.48" font-family="Helvetica,sans-Serif" font-size="10.00">std::vector&lt; std::unique</text>
<text text-anchor="middle" x="1143.5" y="-41.48" font-family="Helvetica,sans-Serif" font-size="10.00">_ptr&lt; MemberGroup &gt; &gt;</text>
</a>
</g>
</g>
<!-- Node27&#45;&gt;Node26 -->
<g id="edge35" class="edge">
<title>Node27&#45;&gt;Node26</title>
<path fill="none" stroke="#63b8ff" d="M1223.24,-50.14C1259.93,-50.44 1302.53,-50.79 1334.94,-51.06"/>
<polygon fill="#63b8ff" stroke="#63b8ff" points="1223.09,-46.63 1213.06,-50.05 1223.03,-53.63 1223.09,-46.63"/>
</g>
<!-- Node28&#45;&gt;Node1 -->
<g id="edge36" class="edge">
<title>Node28&#45;&gt;Node1</title>
<path fill="none" stroke="#9a32cd" stroke-dasharray="5,2" d="M1469.09,-177.78C1501.59,-179.33 1539.27,-182.43 1573,-188.48 1581.59,-190.03 1590.75,-192.46 1599.02,-194.97"/>
<polygon fill="#9a32cd" stroke="#9a32cd" points="1468.87,-174.27 1458.73,-177.33 1468.57,-181.26 1468.87,-174.27"/>
<text text-anchor="middle" x="1526" y="-191.48" font-family="Helvetica,sans-Serif" font-size="10.00"> m_namespaces</text>
</g>
<!-- Node29&#45;&gt;Node1 -->
<g id="edge38" class="edge">
<title>Node29&#45;&gt;Node1</title>
<path fill="none" stroke="#9a32cd" stroke-dasharray="5,2" d="M1453.38,-239.11C1488.84,-232.78 1533.39,-224.56 1573,-216.48 1578.78,-215.3 1584.9,-213.99 1590.86,-212.68"/>
<polygon fill="#9a32cd" stroke="#9a32cd" points="1452.39,-235.73 1443.15,-240.93 1453.61,-242.62 1452.39,-235.73"/>
<text text-anchor="middle" x="1526" y="-269.48" font-family="Helvetica,sans-Serif" font-size="10.00"> m_classes</text>
<text text-anchor="middle" x="1526" y="-258.48" font-family="Helvetica,sans-Serif" font-size="10.00">m_exceptions</text>
<text text-anchor="middle" x="1526" y="-247.48" font-family="Helvetica,sans-Serif" font-size="10.00">m_interfaces</text>
<text text-anchor="middle" x="1526" y="-236.48" font-family="Helvetica,sans-Serif" font-size="10.00">m_structs</text>
</g>
<!-- Node30 -->
<g id="node30" class="node">
<title>Node30</title>
<g id="a_node30"><a xlink:href="../../d4/daa/class_concept_linked_ref_map.html" target="_top" xlink:title=" ">
<polygon fill="white" stroke="#666666" points="1449.5,-222.98 1324.5,-222.98 1324.5,-203.98 1449.5,-203.98 1449.5,-222.98"/>
<text text-anchor="middle" x="1387" y="-210.98" font-family="Helvetica,sans-Serif" font-size="10.00">ConceptLinkedRefMap</text>
</a>
</g>
</g>
<!-- Node30&#45;&gt;Node1 -->
<g id="edge40" class="edge">
<title>Node30&#45;&gt;Node1</title>
<path fill="none" stroke="#9a32cd" stroke-dasharray="5,2" d="M1459.8,-206.63C1466.29,-206.17 1472.76,-205.78 1479,-205.48 1517.11,-203.68 1560.83,-203.64 1590.71,-203.92"/>
<polygon fill="#9a32cd" stroke="#9a32cd" points="1459.34,-203.15 1449.63,-207.39 1459.86,-210.13 1459.34,-203.15"/>
<text text-anchor="middle" x="1526" y="-208.48" font-family="Helvetica,sans-Serif" font-size="10.00"> m_concepts</text>
</g>
<!-- Node31&#45;&gt;Node30 -->
<g id="edge41" class="edge">
<title>Node31&#45;&gt;Node30</title>
<path fill="none" stroke="#63b8ff" d="M1215.14,-213.48C1249.66,-213.48 1290.81,-213.48 1324.08,-213.48"/>
<polygon fill="#63b8ff" stroke="#63b8ff" points="1215.13,-209.98 1205.13,-213.48 1215.13,-216.98 1215.13,-209.98"/>
</g>
</g>
</svg>
        <g id="navigator" transform="translate(0 0)" fill="#404254">
                <rect fill="#f2f5e9" fill-opacity="0.5" stroke="#606060" stroke-width=".5" x="0" y="0" width="60" height="60"/>
                <use id="zoomplus" xlink:href="#zoomPlus" x="17" y="9" onmousedown="handleZoom(evt,'in')"/>
                <use id="zoomminus" xlink:href="#zoomMin" x="42" y="9" onmousedown="handleZoom(evt,'out')"/>
                <use id="reset" xlink:href="#resetDef" x="30" y="36" onmousedown="handleReset()"/>
                <g id="arrowUp" xlink:href="#dirArrow" transform="translate(30 24)" onmousedown="handlePan(0,-1)">
                  <use xlink:href="#rim" fill="#404040">
                        <set attributeName="fill" to="#808080" begin="arrowUp.mouseover" end="arrowUp.mouseout"/>
                  </use>
                  <path fill="none" stroke="white" stroke-width="1.5" d="M0,-3.0v7 M-2.5,-0.5L0,-3.0L2.5,-0.5"/>
                </g>
                <g id="arrowRight" xlink:href="#dirArrow" transform="rotate(90) translate(36 -43)" onmousedown="handlePan(1,0)">
                  <use xlink:href="#rim" fill="#404040">
                        <set attributeName="fill" to="#808080" begin="arrowRight.mouseover" end="arrowRight.mouseout"/>
                  </use>
                  <path fill="none" stroke="white" stroke-width="1.5" d="M0,-3.0v7 M-2.5,-0.5L0,-3.0L2.5,-0.5"/>
                </g>
                <g id="arrowDown" xlink:href="#dirArrow" transform="rotate(180) translate(-30 -48)" onmousedown="handlePan(0,1)">
                  <use xlink:href="#rim" fill="#404040">
                        <set attributeName="fill" to="#808080" begin="arrowDown.mouseover" end="arrowDown.mouseout"/>
                  </use>
                  <path fill="none" stroke="white" stroke-width="1.5" d="M0,-3.0v7 M-2.5,-0.5L0,-3.0L2.5,-0.5"/>
                </g>
                <g id="arrowLeft" xlink:href="#dirArrow" transform="rotate(270) translate(-36 17)" onmousedown="handlePan(-1,0)">
                  <use xlink:href="#rim" fill="#404040">
                        <set attributeName="fill" to="#808080" begin="arrowLeft.mouseover" end="arrowLeft.mouseout"/>
                  </use>
                  <path fill="none" stroke="white" stroke-width="1.5" d="M0,-3.0v7 M-2.5,-0.5L0,-3.0L2.5,-0.5"/>
                </g>
        </g>
        <svg viewBox="0 0 15 15" width="100%" height="30px" preserveAspectRatio="xMaxYMin meet">
         <g id="arrow_out" transform="scale(0.3 0.3)">
          <a xlink:href="class_file_def_impl__coll__graph_org.svg" target="_base">
           <rect id="button" ry="5" rx="5" y="6" x="6" height="38" width="38"
                fill="#f2f5e9" fill-opacity="0.5" stroke="#606060" stroke-width="1.0"/>
           <path id="arrow"
             d="M 11.500037,31.436501 C 11.940474,20.09759 22.043105,11.32322 32.158766,21.979434 L 37.068811,17.246167 C 37.068811,17.246167 37.088388,32 37.088388,32 L 22.160133,31.978069 C 22.160133,31.978069 26.997745,27.140456 26.997745,27.140456 C 18.528582,18.264221 13.291696,25.230495 11.500037,31.436501 z"
             style="fill:#404040;"/>
          </a>
         </g>
        </svg>
</svg>
