<?xml version="1.0" encoding="UTF-8" standalone="no"?>
<!DOCTYPE svg PUBLIC "-//W3C//DTD SVG 1.1//EN"
 "http://www.w3.org/Graphics/SVG/1.1/DTD/svg11.dtd">
<!-- Generated by graphviz version 2.43.0 (0)
 -->
<!-- Title: /home/runner/work/doxygen/doxygen/src/anchor.cpp Pages: 1 -->
<svg width="805pt" height="148pt"
 viewBox="0.00 0.00 804.50 148.00" xmlns="http://www.w3.org/2000/svg" xmlns:xlink="http://www.w3.org/1999/xlink">
<g id="graph0" class="graph" transform="scale(1 1) rotate(0) translate(4 144)">
<title>/home/runner/work/doxygen/doxygen/src/anchor.cpp</title>
<!-- Node1 -->
<g id="node1" class="node">
<title>Node1</title>
<g id="a_node1"><a xlink:title=" ">
<polygon fill="#999999" stroke="#666666" points="344,-140 190,-140 190,-110 344,-110 344,-140"/>
<text text-anchor="start" x="198" y="-128" font-family="Helvetica,sans-Serif" font-size="10.00">/home/runner/work/doxygen</text>
<text text-anchor="middle" x="267" y="-117" font-family="Helvetica,sans-Serif" font-size="10.00">/doxygen/src/anchor.cpp</text>
</a>
</g>
</g>
<!-- Node2 -->
<g id="node2" class="node">
<title>Node2</title>
<g id="a_node2"><a xlink:title=" ">
<polygon fill="#e0e0e0" stroke="#999999" points="48,-74 0,-74 0,-55 48,-55 48,-74"/>
<text text-anchor="middle" x="24" y="-62" font-family="Helvetica,sans-Serif" font-size="10.00">mutex</text>
</a>
</g>
</g>
<!-- Node1&#45;&gt;Node2 -->
<g id="edge1" class="edge">
<title>Node1&#45;&gt;Node2</title>
<path fill="none" stroke="#63b8ff" d="M206.73,-109.96C167.1,-100.65 113.83,-88.02 58.18,-74.26"/>
<polygon fill="#63b8ff" stroke="#63b8ff" points="58.69,-70.78 48.14,-71.77 57,-77.57 58.69,-70.78"/>
</g>
<!-- Node3 -->
<g id="node3" class="node">
<title>Node3</title>
<g id="a_node3"><a xlink:title=" ">
<polygon fill="#e0e0e0" stroke="#999999" points="130,-74 66,-74 66,-55 130,-55 130,-74"/>
<text text-anchor="middle" x="98" y="-62" font-family="Helvetica,sans-Serif" font-size="10.00">algorithm</text>
</a>
</g>
</g>
<!-- Node1&#45;&gt;Node3 -->
<g id="edge2" class="edge">
<title>Node1&#45;&gt;Node3</title>
<path fill="none" stroke="#63b8ff" d="M226.52,-109.99C197.82,-100.05 159.72,-86.86 132.47,-77.43"/>
<polygon fill="#63b8ff" stroke="#63b8ff" points="133.55,-74.1 122.96,-74.14 131.26,-80.72 133.55,-74.1"/>
</g>
<!-- Node4 -->
<g id="node4" class="node">
<title>Node4</title>
<g id="a_node4"><a xlink:title=" ">
<polygon fill="#e0e0e0" stroke="#999999" points="174,-19 130,-19 130,0 174,0 174,-19"/>
<text text-anchor="middle" x="152" y="-7" font-family="Helvetica,sans-Serif" font-size="10.00">string</text>
</a>
</g>
</g>
<!-- Node1&#45;&gt;Node4 -->
<g id="edge3" class="edge">
<title>Node1&#45;&gt;Node4</title>
<path fill="none" stroke="#63b8ff" d="M258.17,-109.76C248.64,-95.05 232.45,-71.92 215,-55 203.01,-43.37 187.75,-32.51 175.25,-24.43"/>
<polygon fill="#63b8ff" stroke="#63b8ff" points="177.05,-21.43 166.72,-19.07 173.32,-27.36 177.05,-21.43"/>
</g>
<!-- Node5 -->
<g id="node5" class="node">
<title>Node5</title>
<g id="a_node5"><a xlink:title=" ">
<polygon fill="#e0e0e0" stroke="#999999" points="622.5,-19 529.5,-19 529.5,0 622.5,0 622.5,-19"/>
<text text-anchor="middle" x="576" y="-7" font-family="Helvetica,sans-Serif" font-size="10.00">unordered_map</text>
</a>
</g>
</g>
<!-- Node1&#45;&gt;Node5 -->
<g id="edge4" class="edge">
<title>Node1&#45;&gt;Node5</title>
<path fill="none" stroke="#63b8ff" d="M289.57,-109.97C318.55,-92.14 367.45,-62.73 387,-55 430.02,-37.99 481.23,-26.43 519.49,-19.36"/>
<polygon fill="#63b8ff" stroke="#63b8ff" points="520.2,-22.79 529.42,-17.58 518.96,-15.9 520.2,-22.79"/>
</g>
<!-- Node6 -->
<g id="node6" class="node">
<title>Node6</title>
<g id="a_node6"><a xlink:href="../../df/df8/anchor_8h.html" target="_top" xlink:title=" ">
<polygon fill="white" stroke="#666666" points="206,-74 148,-74 148,-55 206,-55 206,-74"/>
<text text-anchor="middle" x="177" y="-62" font-family="Helvetica,sans-Serif" font-size="10.00">anchor.h</text>
</a>
</g>
</g>
<!-- Node1&#45;&gt;Node6 -->
<g id="edge5" class="edge">
<title>Node1&#45;&gt;Node6</title>
<path fill="none" stroke="#63b8ff" d="M245.21,-109.84C231.13,-100.68 212.87,-88.82 198.79,-79.66"/>
<polygon fill="#63b8ff" stroke="#63b8ff" points="200.51,-76.61 190.22,-74.09 196.7,-82.48 200.51,-76.61"/>
</g>
<!-- Node8 -->
<g id="node8" class="node">
<title>Node8</title>
<g id="a_node8"><a xlink:href="../../d5/d75/containers_8h.html" target="_top" xlink:title=" ">
<polygon fill="white" stroke="#666666" points="339.5,-74 262.5,-74 262.5,-55 339.5,-55 339.5,-74"/>
<text text-anchor="middle" x="301" y="-62" font-family="Helvetica,sans-Serif" font-size="10.00">containers.h</text>
</a>
</g>
</g>
<!-- Node1&#45;&gt;Node8 -->
<g id="edge8" class="edge">
<title>Node1&#45;&gt;Node8</title>
<path fill="none" stroke="#63b8ff" d="M275.23,-109.84C279.91,-101.78 285.82,-91.62 290.8,-83.06"/>
<polygon fill="#63b8ff" stroke="#63b8ff" points="293.91,-84.67 295.91,-74.27 287.85,-81.15 293.91,-84.67"/>
</g>
<!-- Node14 -->
<g id="node14" class="node">
<title>Node14</title>
<g id="a_node14"><a xlink:href="../../db/d7c/utf8_8h.html" target="_top" xlink:title="Various UTF8 related helper functions.">
<polygon fill="white" stroke="#666666" points="441.5,-74 396.5,-74 396.5,-55 441.5,-55 441.5,-74"/>
<text text-anchor="middle" x="419" y="-62" font-family="Helvetica,sans-Serif" font-size="10.00">utf8.h</text>
</a>
</g>
</g>
<!-- Node1&#45;&gt;Node14 -->
<g id="edge16" class="edge">
<title>Node1&#45;&gt;Node14</title>
<path fill="none" stroke="#63b8ff" d="M303.41,-109.99C328.88,-100.18 362.59,-87.21 387.03,-77.81"/>
<polygon fill="#63b8ff" stroke="#63b8ff" points="388.48,-81 396.55,-74.14 385.96,-74.46 388.48,-81"/>
</g>
<!-- Node16 -->
<g id="node16" class="node">
<title>Node16</title>
<g id="a_node16"><a xlink:href="../../db/d16/config_8h.html" target="_top" xlink:title=" ">
<polygon fill="white" stroke="#666666" points="659.5,-74 604.5,-74 604.5,-55 659.5,-55 659.5,-74"/>
<text text-anchor="middle" x="632" y="-62" font-family="Helvetica,sans-Serif" font-size="10.00">config.h</text>
</a>
</g>
</g>
<!-- Node1&#45;&gt;Node16 -->
<g id="edge19" class="edge">
<title>Node1&#45;&gt;Node16</title>
<path fill="none" stroke="#63b8ff" d="M344.41,-111.59C421.2,-99.29 535.65,-80.94 594.33,-71.54"/>
<polygon fill="#63b8ff" stroke="#63b8ff" points="594.96,-74.98 604.28,-69.94 593.85,-68.07 594.96,-74.98"/>
</g>
<!-- Node6&#45;&gt;Node4 -->
<g id="edge7" class="edge">
<title>Node6&#45;&gt;Node4</title>
<path fill="none" stroke="#63b8ff" d="M172.87,-54.75C169.49,-47.57 164.58,-37.18 160.38,-28.27"/>
<polygon fill="#63b8ff" stroke="#63b8ff" points="163.48,-26.64 156.05,-19.09 157.15,-29.63 163.48,-26.64"/>
</g>
<!-- Node7 -->
<g id="node7" class="node">
<title>Node7</title>
<g id="a_node7"><a xlink:title=" ">
<polygon fill="#e0e0e0" stroke="#999999" points="112,-19 54,-19 54,0 112,0 112,-19"/>
<text text-anchor="middle" x="83" y="-7" font-family="Helvetica,sans-Serif" font-size="10.00">memory</text>
</a>
</g>
</g>
<!-- Node6&#45;&gt;Node7 -->
<g id="edge6" class="edge">
<title>Node6&#45;&gt;Node7</title>
<path fill="none" stroke="#63b8ff" d="M161.9,-54.98C147.18,-46.69 124.58,-33.94 107.33,-24.22"/>
<polygon fill="#63b8ff" stroke="#63b8ff" points="108.81,-21.03 98.38,-19.17 105.37,-27.13 108.81,-21.03"/>
</g>
<!-- Node8&#45;&gt;Node4 -->
<g id="edge10" class="edge">
<title>Node8&#45;&gt;Node4</title>
<path fill="none" stroke="#63b8ff" d="M277.06,-54.98C251.86,-46.02 212.04,-31.86 184.12,-21.92"/>
<polygon fill="#63b8ff" stroke="#63b8ff" points="185.01,-18.53 174.42,-18.47 182.67,-25.12 185.01,-18.53"/>
</g>
<!-- Node8&#45;&gt;Node5 -->
<g id="edge14" class="edge">
<title>Node8&#45;&gt;Node5</title>
<path fill="none" stroke="#63b8ff" d="M339.53,-56.07C387.02,-46.92 468.03,-31.31 521.78,-20.95"/>
<polygon fill="#63b8ff" stroke="#63b8ff" points="522.67,-24.34 531.82,-19.01 521.34,-17.47 522.67,-24.34"/>
</g>
<!-- Node9 -->
<g id="node9" class="node">
<title>Node9</title>
<g id="a_node9"><a xlink:title=" ">
<polygon fill="#e0e0e0" stroke="#999999" points="239.5,-19 192.5,-19 192.5,0 239.5,0 239.5,-19"/>
<text text-anchor="middle" x="216" y="-7" font-family="Helvetica,sans-Serif" font-size="10.00">vector</text>
</a>
</g>
</g>
<!-- Node8&#45;&gt;Node9 -->
<g id="edge9" class="edge">
<title>Node8&#45;&gt;Node9</title>
<path fill="none" stroke="#63b8ff" d="M287.34,-54.98C274.16,-46.77 253.97,-34.18 238.43,-24.49"/>
<polygon fill="#63b8ff" stroke="#63b8ff" points="240.24,-21.49 229.91,-19.17 236.54,-27.43 240.24,-21.49"/>
</g>
<!-- Node10 -->
<g id="node10" class="node">
<title>Node10</title>
<g id="a_node10"><a xlink:title=" ">
<polygon fill="#e0e0e0" stroke="#999999" points="290,-19 258,-19 258,0 290,0 290,-19"/>
<text text-anchor="middle" x="274" y="-7" font-family="Helvetica,sans-Serif" font-size="10.00">set</text>
</a>
</g>
</g>
<!-- Node8&#45;&gt;Node10 -->
<g id="edge11" class="edge">
<title>Node8&#45;&gt;Node10</title>
<path fill="none" stroke="#63b8ff" d="M296.54,-54.75C292.88,-47.57 287.59,-37.18 283.05,-28.27"/>
<polygon fill="#63b8ff" stroke="#63b8ff" points="286.03,-26.41 278.38,-19.09 279.8,-29.59 286.03,-26.41"/>
</g>
<!-- Node11 -->
<g id="node11" class="node">
<title>Node11</title>
<g id="a_node11"><a xlink:title=" ">
<polygon fill="#e0e0e0" stroke="#999999" points="346,-19 308,-19 308,0 346,0 346,-19"/>
<text text-anchor="middle" x="327" y="-7" font-family="Helvetica,sans-Serif" font-size="10.00">map</text>
</a>
</g>
</g>
<!-- Node8&#45;&gt;Node11 -->
<g id="edge12" class="edge">
<title>Node8&#45;&gt;Node11</title>
<path fill="none" stroke="#63b8ff" d="M305.29,-54.75C308.81,-47.57 313.91,-37.18 318.28,-28.27"/>
<polygon fill="#63b8ff" stroke="#63b8ff" points="321.52,-29.61 322.79,-19.09 315.24,-26.53 321.52,-29.61"/>
</g>
<!-- Node12 -->
<g id="node12" class="node">
<title>Node12</title>
<g id="a_node12"><a xlink:title=" ">
<polygon fill="#e0e0e0" stroke="#999999" points="450,-19 364,-19 364,0 450,0 450,-19"/>
<text text-anchor="middle" x="407" y="-7" font-family="Helvetica,sans-Serif" font-size="10.00">unordered_set</text>
</a>
</g>
</g>
<!-- Node8&#45;&gt;Node12 -->
<g id="edge13" class="edge">
<title>Node8&#45;&gt;Node12</title>
<path fill="none" stroke="#63b8ff" d="M318.03,-54.98C334.93,-46.54 361.06,-33.47 380.64,-23.68"/>
<polygon fill="#63b8ff" stroke="#63b8ff" points="382.28,-26.77 389.66,-19.17 379.15,-20.51 382.28,-26.77"/>
</g>
<!-- Node13 -->
<g id="node13" class="node">
<title>Node13</title>
<g id="a_node13"><a xlink:title=" ">
<polygon fill="#e0e0e0" stroke="#999999" points="511.5,-19 468.5,-19 468.5,0 511.5,0 511.5,-19"/>
<text text-anchor="middle" x="490" y="-7" font-family="Helvetica,sans-Serif" font-size="10.00">stack</text>
</a>
</g>
</g>
<!-- Node8&#45;&gt;Node13 -->
<g id="edge15" class="edge">
<title>Node8&#45;&gt;Node13</title>
<path fill="none" stroke="#63b8ff" d="M331.37,-54.98C366.22,-45.21 423.12,-29.26 458.46,-19.35"/>
<polygon fill="#63b8ff" stroke="#63b8ff" points="459.57,-22.67 468.25,-16.6 457.68,-15.93 459.57,-22.67"/>
</g>
<!-- Node14&#45;&gt;Node4 -->
<g id="edge18" class="edge">
<title>Node14&#45;&gt;Node4</title>
<path fill="none" stroke="#63b8ff" d="M396.42,-59.87C355.87,-53.22 267.84,-38.17 184.21,-19.13"/>
<polygon fill="#63b8ff" stroke="#63b8ff" points="184.83,-15.68 174.3,-16.85 183.26,-22.5 184.83,-15.68"/>
</g>
<!-- Node15 -->
<g id="node15" class="node">
<title>Node15</title>
<g id="a_node15"><a xlink:title=" ">
<polygon fill="#e0e0e0" stroke="#999999" points="691,-19 641,-19 641,0 691,0 691,-19"/>
<text text-anchor="middle" x="666" y="-7" font-family="Helvetica,sans-Serif" font-size="10.00">cstdint</text>
</a>
</g>
</g>
<!-- Node14&#45;&gt;Node15 -->
<g id="edge17" class="edge">
<title>Node14&#45;&gt;Node15</title>
<path fill="none" stroke="#63b8ff" d="M441.76,-59.05C479.11,-51.68 555.98,-36.24 630.72,-19.22"/>
<polygon fill="#63b8ff" stroke="#63b8ff" points="631.81,-22.57 640.78,-16.92 630.25,-15.74 631.81,-22.57"/>
</g>
<!-- Node17 -->
<g id="node17" class="node">
<title>Node17</title>
<g id="a_node17"><a xlink:title=" ">
<polygon fill="#e0e0e0" stroke="#999999" points="796.5,-19 709.5,-19 709.5,0 796.5,0 796.5,-19"/>
<text text-anchor="middle" x="753" y="-7" font-family="Helvetica,sans-Serif" font-size="10.00">configvalues.h</text>
</a>
</g>
</g>
<!-- Node16&#45;&gt;Node17 -->
<g id="edge20" class="edge">
<title>Node16&#45;&gt;Node17</title>
<path fill="none" stroke="#63b8ff" d="M651.44,-54.98C670.99,-46.42 701.38,-33.11 723.82,-23.28"/>
<polygon fill="#63b8ff" stroke="#63b8ff" points="725.45,-26.39 733.21,-19.17 722.64,-19.98 725.45,-26.39"/>
</g>
</g>
</svg>
