<?xml version="1.0" encoding="UTF-8" standalone="no"?>
<!DOCTYPE svg PUBLIC "-//W3C//DTD SVG 1.1//EN"
 "http://www.w3.org/Graphics/SVG/1.1/DTD/svg11.dtd">
<!-- Generated by graphviz version 2.43.0 (0)
 -->
<!-- Title: /home/runner/work/doxygen/doxygen/src/dotcallgraph.h Pages: 1 -->
<!--zoomable 478 -->
<svg id="main" version="1.1" xmlns="http://www.w3.org/2000/svg" xmlns:xlink="http://www.w3.org/1999/xlink" xml:space="preserve" onload="init(evt)">
<style type="text/css"><![CDATA[
.edge:hover path { stroke: red; }
.edge:hover polygon { stroke: red; fill: red; }
]]></style>
<script type="text/javascript"><![CDATA[
var edges = document.getElementsByTagName('g');
if (edges && edges.length) {
  for (var i=0;i<edges.length;i++) {
    if (edges[i].id.substr(0,4)=='edge') {
      edges[i].setAttribute('class','edge');
    }
  }
}
]]></script>
        <defs>
                <circle id="rim" cx="0" cy="0" r="7"/>
                <circle id="rim2" cx="0" cy="0" r="3.5"/>
                <g id="zoomPlus">
                        <use xlink:href="#rim" fill="#404040">
                                <set attributeName="fill" to="#808080" begin="zoomplus.mouseover" end="zoomplus.mouseout"/>
                        </use>
                        <path d="M-4,0h8M0,-4v8" fill="none" stroke="white" stroke-width="1.5" pointer-events="none"/>
                </g>
                <g id="zoomMin">
                        <use xlink:href="#rim" fill="#404040">
                                <set attributeName="fill" to="#808080" begin="zoomminus.mouseover" end="zoomminus.mouseout"/>
                        </use>
                        <path d="M-4,0h8" fill="none" stroke="white" stroke-width="1.5" pointer-events="none"/>
                </g>
                <g id="dirArrow">
                        <path fill="none" stroke="white" stroke-width="1.5" d="M0,-3.0v7 M-2.5,-0.5L0,-3.0L2.5,-0.5"/>
                </g>
               <g id="resetDef">
                       <use xlink:href="#rim2" fill="#404040">
                               <set attributeName="fill" to="#808080" begin="reset.mouseover" end="reset.mouseout"/>
                       </use>
               </g>
        </defs>

<script type="text/javascript">
var viewWidth = 1355;
var viewHeight = 478;
var sectionId = 'dynsection-0';
</script>
<script xlink:href="../../svgpan.js"/>
<svg id="graph" class="graph">
<g id="viewport">
<title>/home/runner/work/doxygen/doxygen/src/dotcallgraph.h</title>
<!-- Node1 -->
<g id="node1" class="node">
<title>Node1</title>
<g id="a_node1"><a xlink:title=" ">
<polygon fill="#999999" stroke="#666666" points="281,-470 127,-470 127,-440 281,-440 281,-470"/>
<text text-anchor="start" x="135" y="-458" font-family="Helvetica,sans-Serif" font-size="10.00">/home/runner/work/doxygen</text>
<text text-anchor="middle" x="204" y="-447" font-family="Helvetica,sans-Serif" font-size="10.00">/doxygen/src/dotcallgraph.h</text>
</a>
</g>
</g>
<!-- Node2 -->
<g id="node2" class="node">
<title>Node2</title>
<g id="a_node2"><a xlink:title=" ">
<polygon fill="#e0e0e0" stroke="#999999" points="335,-129 277,-129 277,-110 335,-110 335,-129"/>
<text text-anchor="middle" x="306" y="-117" font-family="Helvetica,sans-Serif" font-size="10.00">memory</text>
</a>
</g>
</g>
<!-- Node1&#45;&gt;Node2 -->
<g id="edge1" class="edge">
<title>Node1&#45;&gt;Node2</title>
<path fill="none" stroke="#63b8ff" d="M208.14,-439.81C214,-418.46 224,-376.72 224,-340.5 224,-340.5 224,-340.5 224,-283.5 224,-224.36 267.61,-164.79 291.22,-136.87"/>
<polygon fill="#63b8ff" stroke="#63b8ff" points="293.92,-139.1 297.84,-129.26 288.64,-134.51 293.92,-139.1"/>
</g>
<!-- Node3 -->
<g id="node3" class="node">
<title>Node3</title>
<g id="a_node3"><a xlink:href="../../d8/d3b/dotnode_8h.html" target="_top" xlink:title=" ">
<polygon fill="white" stroke="#666666" points="195.5,-294 130.5,-294 130.5,-275 195.5,-275 195.5,-294"/>
<text text-anchor="middle" x="163" y="-282" font-family="Helvetica,sans-Serif" font-size="10.00">dotnode.h</text>
</a>
</g>
</g>
<!-- Node1&#45;&gt;Node3 -->
<g id="edge2" class="edge">
<title>Node1&#45;&gt;Node3</title>
<path fill="none" stroke="#63b8ff" d="M200.57,-439.92C193.21,-409.65 175.86,-338.35 167.57,-304.27"/>
<polygon fill="#63b8ff" stroke="#63b8ff" points="170.9,-303.14 165.13,-294.25 164.09,-304.8 170.9,-303.14"/>
</g>
<!-- Node8 -->
<g id="node8" class="node">
<title>Node8</title>
<g id="a_node8"><a xlink:href="../../d0/daa/dotgraph_8h.html" target="_top" xlink:title=" ">
<polygon fill="white" stroke="#666666" points="130.5,-239 61.5,-239 61.5,-220 130.5,-220 130.5,-239"/>
<text text-anchor="middle" x="96" y="-227" font-family="Helvetica,sans-Serif" font-size="10.00">dotgraph.h</text>
</a>
</g>
</g>
<!-- Node1&#45;&gt;Node8 -->
<g id="edge27" class="edge">
<title>Node1&#45;&gt;Node8</title>
<path fill="none" stroke="#63b8ff" d="M196.12,-439.64C181,-411.88 147.17,-348.73 122,-294 115.08,-278.95 108,-261.51 102.99,-248.72"/>
<polygon fill="#63b8ff" stroke="#63b8ff" points="106.18,-247.29 99.3,-239.23 99.66,-249.82 106.18,-247.29"/>
</g>
<!-- Node21 -->
<g id="node21" class="node">
<title>Node21</title>
<g id="a_node21"><a xlink:href="../../d4/d46/memberdef_8h.html" target="_top" xlink:title=" ">
<polygon fill="white" stroke="#666666" points="792,-404 710,-404 710,-385 792,-385 792,-404"/>
<text text-anchor="middle" x="751" y="-392" font-family="Helvetica,sans-Serif" font-size="10.00">memberdef.h</text>
</a>
</g>
</g>
<!-- Node1&#45;&gt;Node21 -->
<g id="edge28" class="edge">
<title>Node1&#45;&gt;Node21</title>
<path fill="none" stroke="#63b8ff" d="M281.21,-445.74C394.73,-433.6 603.59,-411.27 699.89,-400.97"/>
<polygon fill="#63b8ff" stroke="#63b8ff" points="700.39,-404.43 709.96,-399.89 699.65,-397.47 700.39,-404.43"/>
</g>
<!-- Node4 -->
<g id="node4" class="node">
<title>Node4</title>
<g id="a_node4"><a xlink:title=" ">
<polygon fill="#e0e0e0" stroke="#999999" points="864.5,-129 817.5,-129 817.5,-110 864.5,-110 864.5,-129"/>
<text text-anchor="middle" x="841" y="-117" font-family="Helvetica,sans-Serif" font-size="10.00">vector</text>
</a>
</g>
</g>
<!-- Node3&#45;&gt;Node4 -->
<g id="edge3" class="edge">
<title>Node3&#45;&gt;Node4</title>
<path fill="none" stroke="#63b8ff" d="M195.8,-281.93C286.68,-277.31 540.22,-262.62 620,-239 699.66,-215.41 783.36,-161.15 820.81,-135.04"/>
<polygon fill="#63b8ff" stroke="#63b8ff" points="823.15,-137.68 829.31,-129.05 819.12,-131.96 823.15,-137.68"/>
</g>
<!-- Node5 -->
<g id="node5" class="node">
<title>Node5</title>
<g id="a_node5"><a xlink:title=" ">
<polygon fill="#e0e0e0" stroke="#999999" points="337,-184 299,-184 299,-165 337,-165 337,-184"/>
<text text-anchor="middle" x="318" y="-172" font-family="Helvetica,sans-Serif" font-size="10.00">map</text>
</a>
</g>
</g>
<!-- Node3&#45;&gt;Node5 -->
<g id="edge4" class="edge">
<title>Node3&#45;&gt;Node5</title>
<path fill="none" stroke="#63b8ff" d="M175.42,-274.84C201.95,-256.36 264.38,-212.86 297.12,-190.05"/>
<polygon fill="#63b8ff" stroke="#63b8ff" points="299.31,-192.79 305.52,-184.2 295.31,-187.04 299.31,-192.79"/>
</g>
<!-- Node6 -->
<g id="node6" class="node">
<title>Node6</title>
<g id="a_node6"><a xlink:title=" ">
<polygon fill="#e0e0e0" stroke="#999999" points="195.5,-239 148.5,-239 148.5,-220 195.5,-220 195.5,-239"/>
<text text-anchor="middle" x="172" y="-227" font-family="Helvetica,sans-Serif" font-size="10.00">deque</text>
</a>
</g>
</g>
<!-- Node3&#45;&gt;Node6 -->
<g id="edge5" class="edge">
<title>Node3&#45;&gt;Node6</title>
<path fill="none" stroke="#63b8ff" d="M164.49,-274.75C165.67,-267.8 167.36,-257.85 168.84,-249.13"/>
<polygon fill="#63b8ff" stroke="#63b8ff" points="172.32,-249.53 170.54,-239.09 165.42,-248.36 172.32,-249.53"/>
</g>
<!-- Node7 -->
<g id="node7" class="node">
<title>Node7</title>
<g id="a_node7"><a xlink:title=" ">
<polygon fill="#e0e0e0" stroke="#999999" points="60,-184 0,-184 0,-165 60,-165 60,-184"/>
<text text-anchor="middle" x="30" y="-172" font-family="Helvetica,sans-Serif" font-size="10.00">iostream</text>
</a>
</g>
</g>
<!-- Node3&#45;&gt;Node7 -->
<g id="edge6" class="edge">
<title>Node3&#45;&gt;Node7</title>
<path fill="none" stroke="#63b8ff" d="M130.33,-277.73C106.04,-271.85 73.66,-260.43 53,-239 41.19,-226.74 35.38,-207.96 32.56,-194"/>
<polygon fill="#63b8ff" stroke="#63b8ff" points="35.99,-193.34 30.88,-184.06 29.09,-194.5 35.99,-193.34"/>
</g>
<!-- Node3&#45;&gt;Node8 -->
<g id="edge7" class="edge">
<title>Node3&#45;&gt;Node8</title>
<path fill="none" stroke="#63b8ff" d="M152.24,-274.98C142.23,-267.07 127.11,-255.11 115.07,-245.58"/>
<polygon fill="#63b8ff" stroke="#63b8ff" points="116.97,-242.63 106.96,-239.17 112.63,-248.12 116.97,-242.63"/>
</g>
<!-- Node8&#45;&gt;Node5 -->
<g id="edge9" class="edge">
<title>Node8&#45;&gt;Node5</title>
<path fill="none" stroke="#63b8ff" d="M130.69,-220.22C174.33,-209.8 248.47,-192.1 289.15,-182.39"/>
<polygon fill="#63b8ff" stroke="#63b8ff" points="290.06,-185.77 298.98,-180.04 288.44,-178.96 290.06,-185.77"/>
</g>
<!-- Node8&#45;&gt;Node7 -->
<g id="edge8" class="edge">
<title>Node8&#45;&gt;Node7</title>
<path fill="none" stroke="#63b8ff" d="M85.4,-219.98C75.54,-212.07 60.65,-200.11 48.78,-190.58"/>
<polygon fill="#63b8ff" stroke="#63b8ff" points="50.79,-187.7 40.8,-184.17 46.4,-193.16 50.79,-187.7"/>
</g>
<!-- Node9 -->
<g id="node9" class="node">
<title>Node9</title>
<g id="a_node9"><a xlink:href="../../d7/d5c/qcstring_8h.html" target="_top" xlink:title=" ">
<polygon fill="white" stroke="#666666" points="444.5,-129 379.5,-129 379.5,-110 444.5,-110 444.5,-129"/>
<text text-anchor="middle" x="412" y="-117" font-family="Helvetica,sans-Serif" font-size="10.00">qcstring.h</text>
</a>
</g>
</g>
<!-- Node8&#45;&gt;Node9 -->
<g id="edge10" class="edge">
<title>Node8&#45;&gt;Node9</title>
<path fill="none" stroke="#63b8ff" d="M121.06,-219.94C177.18,-200.76 313.05,-154.32 377.27,-132.37"/>
<polygon fill="#63b8ff" stroke="#63b8ff" points="378.61,-135.61 386.94,-129.07 376.34,-128.99 378.61,-135.61"/>
</g>
<!-- Node19 -->
<g id="node19" class="node">
<title>Node19</title>
<g id="a_node19"><a xlink:href="../../df/d9c/dir_8h.html" target="_top" xlink:title=" ">
<polygon fill="white" stroke="#666666" points="116,-184 78,-184 78,-165 116,-165 116,-184"/>
<text text-anchor="middle" x="97" y="-172" font-family="Helvetica,sans-Serif" font-size="10.00">dir.h</text>
</a>
</g>
</g>
<!-- Node8&#45;&gt;Node19 -->
<g id="edge22" class="edge">
<title>Node8&#45;&gt;Node19</title>
<path fill="none" stroke="#63b8ff" d="M96.17,-219.75C96.3,-212.8 96.48,-202.85 96.65,-194.13"/>
<polygon fill="#63b8ff" stroke="#63b8ff" points="100.15,-194.15 96.84,-184.09 93.15,-194.02 100.15,-194.15"/>
</g>
<!-- Node10 -->
<g id="node10" class="node">
<title>Node10</title>
<g id="a_node10"><a xlink:title=" ">
<polygon fill="#e0e0e0" stroke="#999999" points="376,-19 332,-19 332,0 376,0 376,-19"/>
<text text-anchor="middle" x="354" y="-7" font-family="Helvetica,sans-Serif" font-size="10.00">string</text>
</a>
</g>
</g>
<!-- Node9&#45;&gt;Node10 -->
<g id="edge11" class="edge">
<title>Node9&#45;&gt;Node10</title>
<path fill="none" stroke="#63b8ff" d="M379.46,-112.4C357.98,-106.5 331.42,-95.21 318,-74 307.91,-58.07 321.72,-39.2 335.04,-26.2"/>
<polygon fill="#63b8ff" stroke="#63b8ff" points="337.6,-28.6 342.65,-19.28 332.9,-23.42 337.6,-28.6"/>
</g>
<!-- Node11 -->
<g id="node11" class="node">
<title>Node11</title>
<g id="a_node11"><a xlink:title=" ">
<polygon fill="#e0e0e0" stroke="#999999" points="567,-74 503,-74 503,-55 567,-55 567,-74"/>
<text text-anchor="middle" x="535" y="-62" font-family="Helvetica,sans-Serif" font-size="10.00">algorithm</text>
</a>
</g>
</g>
<!-- Node9&#45;&gt;Node11 -->
<g id="edge12" class="edge">
<title>Node9&#45;&gt;Node11</title>
<path fill="none" stroke="#63b8ff" d="M431.76,-109.98C451.73,-101.38 482.8,-87.99 505.65,-78.15"/>
<polygon fill="#63b8ff" stroke="#63b8ff" points="507.08,-81.34 514.88,-74.17 504.31,-74.91 507.08,-81.34"/>
</g>
<!-- Node12 -->
<g id="node12" class="node">
<title>Node12</title>
<g id="a_node12"><a xlink:title=" ">
<polygon fill="#e0e0e0" stroke="#999999" points="634.5,-74 585.5,-74 585.5,-55 634.5,-55 634.5,-74"/>
<text text-anchor="middle" x="610" y="-62" font-family="Helvetica,sans-Serif" font-size="10.00">cctype</text>
</a>
</g>
</g>
<!-- Node9&#45;&gt;Node12 -->
<g id="edge13" class="edge">
<title>Node9&#45;&gt;Node12</title>
<path fill="none" stroke="#63b8ff" d="M443.81,-109.98C479.88,-100.33 538.49,-84.64 575.6,-74.71"/>
<polygon fill="#63b8ff" stroke="#63b8ff" points="576.7,-78.04 585.46,-72.07 574.89,-71.27 576.7,-78.04"/>
</g>
<!-- Node13 -->
<g id="node13" class="node">
<title>Node13</title>
<g id="a_node13"><a xlink:title=" ">
<polygon fill="#e0e0e0" stroke="#999999" points="138,-74 88,-74 88,-55 138,-55 138,-74"/>
<text text-anchor="middle" x="113" y="-62" font-family="Helvetica,sans-Serif" font-size="10.00">cstring</text>
</a>
</g>
</g>
<!-- Node9&#45;&gt;Node13 -->
<g id="edge14" class="edge">
<title>Node9&#45;&gt;Node13</title>
<path fill="none" stroke="#63b8ff" d="M379.21,-113.84C330.81,-106.78 237.2,-92.43 148.19,-74.11"/>
<polygon fill="#63b8ff" stroke="#63b8ff" points="148.7,-70.64 138.2,-72.03 147.28,-77.5 148.7,-70.64"/>
</g>
<!-- Node14 -->
<g id="node14" class="node">
<title>Node14</title>
<g id="a_node14"><a xlink:title=" ">
<polygon fill="#e0e0e0" stroke="#999999" points="202,-74 156,-74 156,-55 202,-55 202,-74"/>
<text text-anchor="middle" x="179" y="-62" font-family="Helvetica,sans-Serif" font-size="10.00">cstdio</text>
</a>
</g>
</g>
<!-- Node9&#45;&gt;Node14 -->
<g id="edge15" class="edge">
<title>Node9&#45;&gt;Node14</title>
<path fill="none" stroke="#63b8ff" d="M379.36,-111.59C339.7,-103.1 270.8,-88.11 212,-74 211.9,-73.98 211.8,-73.95 211.7,-73.93"/>
<polygon fill="#63b8ff" stroke="#63b8ff" points="212.6,-70.55 202.05,-71.54 210.92,-77.34 212.6,-70.55"/>
</g>
<!-- Node15 -->
<g id="node15" class="node">
<title>Node15</title>
<g id="a_node15"><a xlink:title=" ">
<polygon fill="#e0e0e0" stroke="#999999" points="269.5,-74 220.5,-74 220.5,-55 269.5,-55 269.5,-74"/>
<text text-anchor="middle" x="245" y="-62" font-family="Helvetica,sans-Serif" font-size="10.00">cstdlib</text>
</a>
</g>
</g>
<!-- Node9&#45;&gt;Node15 -->
<g id="edge16" class="edge">
<title>Node9&#45;&gt;Node15</title>
<path fill="none" stroke="#63b8ff" d="M385.17,-109.98C356.38,-100.85 310.58,-86.31 279.22,-76.36"/>
<polygon fill="#63b8ff" stroke="#63b8ff" points="280.18,-72.99 269.59,-73.3 278.06,-79.66 280.18,-72.99"/>
</g>
<!-- Node16 -->
<g id="node16" class="node">
<title>Node16</title>
<g id="a_node16"><a xlink:title=" ">
<polygon fill="#e0e0e0" stroke="#999999" points="474,-19 424,-19 424,0 474,0 474,-19"/>
<text text-anchor="middle" x="449" y="-7" font-family="Helvetica,sans-Serif" font-size="10.00">cstdint</text>
</a>
</g>
</g>
<!-- Node9&#45;&gt;Node16 -->
<g id="edge17" class="edge">
<title>Node9&#45;&gt;Node16</title>
<path fill="none" stroke="#63b8ff" d="M424.78,-110C435.39,-102.1 449.72,-89.27 456,-74 461.93,-59.57 459.23,-41.84 455.6,-28.78"/>
<polygon fill="#63b8ff" stroke="#63b8ff" points="458.87,-27.54 452.49,-19.08 452.21,-29.68 458.87,-27.54"/>
</g>
<!-- Node17 -->
<g id="node17" class="node">
<title>Node17</title>
<g id="a_node17"><a xlink:title=" ">
<polygon fill="#e0e0e0" stroke="#999999" points="383.5,-74 326.5,-74 326.5,-55 383.5,-55 383.5,-74"/>
<text text-anchor="middle" x="355" y="-62" font-family="Helvetica,sans-Serif" font-size="10.00">ostream</text>
</a>
</g>
</g>
<!-- Node9&#45;&gt;Node17 -->
<g id="edge18" class="edge">
<title>Node9&#45;&gt;Node17</title>
<path fill="none" stroke="#63b8ff" d="M402.84,-109.98C394.5,-102.23 381.97,-90.58 371.82,-81.14"/>
<polygon fill="#63b8ff" stroke="#63b8ff" points="374.03,-78.42 364.32,-74.17 369.26,-83.54 374.03,-78.42"/>
</g>
<!-- Node18 -->
<g id="node18" class="node">
<title>Node18</title>
<g id="a_node18"><a xlink:href="../../db/d7c/utf8_8h.html" target="_top" xlink:title="Various UTF8 related helper functions.">
<polygon fill="white" stroke="#666666" points="446.5,-74 401.5,-74 401.5,-55 446.5,-55 446.5,-74"/>
<text text-anchor="middle" x="424" y="-62" font-family="Helvetica,sans-Serif" font-size="10.00">utf8.h</text>
</a>
</g>
</g>
<!-- Node9&#45;&gt;Node18 -->
<g id="edge19" class="edge">
<title>Node9&#45;&gt;Node18</title>
<path fill="none" stroke="#63b8ff" d="M413.98,-109.75C415.57,-102.72 417.86,-92.62 419.85,-83.84"/>
<polygon fill="#63b8ff" stroke="#63b8ff" points="423.26,-84.62 422.06,-74.09 416.43,-83.07 423.26,-84.62"/>
</g>
<!-- Node18&#45;&gt;Node10 -->
<g id="edge21" class="edge">
<title>Node18&#45;&gt;Node10</title>
<path fill="none" stroke="#63b8ff" d="M412.75,-54.98C402.2,-47 386.2,-34.88 373.56,-25.31"/>
<polygon fill="#63b8ff" stroke="#63b8ff" points="375.54,-22.42 365.45,-19.17 371.31,-28 375.54,-22.42"/>
</g>
<!-- Node18&#45;&gt;Node16 -->
<g id="edge20" class="edge">
<title>Node18&#45;&gt;Node16</title>
<path fill="none" stroke="#63b8ff" d="M428.13,-54.75C431.51,-47.57 436.42,-37.18 440.62,-28.27"/>
<polygon fill="#63b8ff" stroke="#63b8ff" points="443.85,-29.63 444.95,-19.09 437.52,-26.64 443.85,-29.63"/>
</g>
<!-- Node19&#45;&gt;Node2 -->
<g id="edge24" class="edge">
<title>Node19&#45;&gt;Node2</title>
<path fill="none" stroke="#63b8ff" d="M116.29,-168.61C150.41,-159.96 222.05,-141.79 266.87,-130.42"/>
<polygon fill="#63b8ff" stroke="#63b8ff" points="268,-133.75 276.83,-127.9 266.28,-126.96 268,-133.75"/>
</g>
<!-- Node19&#45;&gt;Node10 -->
<g id="edge23" class="edge">
<title>Node19&#45;&gt;Node10</title>
<path fill="none" stroke="#63b8ff" d="M83.22,-164.82C72.18,-156.99 57.51,-144.35 51,-129 41.31,-106.14 63.8,-58.63 68,-55 105.46,-22.63 254.67,-13.73 321.43,-11.34"/>
<polygon fill="#63b8ff" stroke="#63b8ff" points="321.9,-14.83 331.78,-11 321.67,-7.83 321.9,-14.83"/>
</g>
<!-- Node20 -->
<g id="node20" class="node">
<title>Node20</title>
<g id="a_node20"><a xlink:href="../../df/d45/fileinfo_8h.html" target="_top" xlink:title=" ">
<polygon fill="white" stroke="#666666" points="118.5,-129 59.5,-129 59.5,-110 118.5,-110 118.5,-129"/>
<text text-anchor="middle" x="89" y="-117" font-family="Helvetica,sans-Serif" font-size="10.00">fileinfo.h</text>
</a>
</g>
</g>
<!-- Node19&#45;&gt;Node20 -->
<g id="edge25" class="edge">
<title>Node19&#45;&gt;Node20</title>
<path fill="none" stroke="#63b8ff" d="M95.68,-164.75C94.63,-157.8 93.13,-147.85 91.81,-139.13"/>
<polygon fill="#63b8ff" stroke="#63b8ff" points="95.25,-138.45 90.3,-129.09 88.33,-139.5 95.25,-138.45"/>
</g>
<!-- Node20&#45;&gt;Node10 -->
<g id="edge26" class="edge">
<title>Node20&#45;&gt;Node10</title>
<path fill="none" stroke="#63b8ff" d="M83.91,-109.97C76.68,-96.6 65.69,-70.64 79,-55 109.81,-18.81 255.43,-11.96 321.39,-10.73"/>
<polygon fill="#63b8ff" stroke="#63b8ff" points="321.69,-14.23 331.63,-10.57 321.58,-7.23 321.69,-14.23"/>
</g>
<!-- Node21&#45;&gt;Node2 -->
<g id="edge30" class="edge">
<title>Node21&#45;&gt;Node2</title>
<path fill="none" stroke="#63b8ff" d="M709.66,-392.97C593.23,-390.37 271,-375.08 271,-285.5 271,-285.5 271,-285.5 271,-228.5 271,-195.3 286.15,-159.03 296.52,-138.11"/>
<polygon fill="#63b8ff" stroke="#63b8ff" points="299.66,-139.64 301.13,-129.15 293.44,-136.44 299.66,-139.64"/>
</g>
<!-- Node21&#45;&gt;Node4 -->
<g id="edge29" class="edge">
<title>Node21&#45;&gt;Node4</title>
<path fill="none" stroke="#63b8ff" d="M792.01,-393.27C910.85,-391.52 1247,-378.37 1247,-285.5 1247,-285.5 1247,-285.5 1247,-228.5 1247,-195.84 1237.29,-182.94 1210,-165 1155.24,-129 955.06,-122.11 874.71,-120.8"/>
<polygon fill="#63b8ff" stroke="#63b8ff" points="874.68,-117.3 864.63,-120.66 874.58,-124.3 874.68,-117.3"/>
</g>
<!-- Node22 -->
<g id="node22" class="node">
<title>Node22</title>
<g id="a_node22"><a xlink:title=" ">
<polygon fill="#e0e0e0" stroke="#999999" points="1347,-349 1275,-349 1275,-330 1347,-330 1347,-349"/>
<text text-anchor="middle" x="1311" y="-337" font-family="Helvetica,sans-Serif" font-size="10.00">sys/types.h</text>
</a>
</g>
</g>
<!-- Node21&#45;&gt;Node22 -->
<g id="edge31" class="edge">
<title>Node21&#45;&gt;Node22</title>
<path fill="none" stroke="#63b8ff" d="M792.11,-391.05C878.94,-385.63 1087.34,-371.3 1261,-349 1262.25,-348.84 1263.52,-348.67 1264.8,-348.49"/>
<polygon fill="#63b8ff" stroke="#63b8ff" points="1265.35,-351.95 1274.73,-347.02 1264.33,-345.03 1265.35,-351.95"/>
</g>
<!-- Node23 -->
<g id="node23" class="node">
<title>Node23</title>
<g id="a_node23"><a xlink:href="../../d9/d49/types_8h.html" target="_top" xlink:title="This file contains a number of basic enums and types.">
<polygon fill="white" stroke="#666666" points="466.5,-239 413.5,-239 413.5,-220 466.5,-220 466.5,-239"/>
<text text-anchor="middle" x="440" y="-227" font-family="Helvetica,sans-Serif" font-size="10.00">types.h</text>
</a>
</g>
</g>
<!-- Node21&#45;&gt;Node23 -->
<g id="edge32" class="edge">
<title>Node21&#45;&gt;Node23</title>
<path fill="none" stroke="#63b8ff" d="M721.78,-384.92C675.01,-370.43 581.45,-338.3 511,-294 489.7,-280.61 468.64,-260.7 455.06,-246.76"/>
<polygon fill="#63b8ff" stroke="#63b8ff" points="457.41,-244.16 447.98,-239.33 452.35,-248.99 457.41,-244.16"/>
</g>
<!-- Node24 -->
<g id="node24" class="node">
<title>Node24</title>
<g id="a_node24"><a xlink:href="../../df/da1/definition_8h.html" target="_top" xlink:title=" ">
<polygon fill="white" stroke="#666666" points="767.5,-294 696.5,-294 696.5,-275 767.5,-275 767.5,-294"/>
<text text-anchor="middle" x="732" y="-282" font-family="Helvetica,sans-Serif" font-size="10.00">definition.h</text>
</a>
</g>
</g>
<!-- Node21&#45;&gt;Node24 -->
<g id="edge34" class="edge">
<title>Node21&#45;&gt;Node24</title>
<path fill="none" stroke="#63b8ff" d="M749.45,-384.66C746.37,-367.17 739.44,-327.8 735.3,-304.27"/>
<polygon fill="#63b8ff" stroke="#63b8ff" points="738.7,-303.4 733.52,-294.16 731.81,-304.61 738.7,-303.4"/>
</g>
<!-- Node28 -->
<g id="node28" class="node">
<title>Node28</title>
<g id="a_node28"><a xlink:href="../../df/d9b/arguments_8h.html" target="_top" xlink:title=" ">
<polygon fill="white" stroke="#666666" points="867,-294 789,-294 789,-275 867,-275 867,-294"/>
<text text-anchor="middle" x="828" y="-282" font-family="Helvetica,sans-Serif" font-size="10.00">arguments.h</text>
</a>
</g>
</g>
<!-- Node21&#45;&gt;Node28 -->
<g id="edge50" class="edge">
<title>Node21&#45;&gt;Node28</title>
<path fill="none" stroke="#63b8ff" d="M755.88,-384.59C762.89,-372.05 776.46,-348.62 790,-330 797.17,-320.14 805.97,-309.75 813.29,-301.49"/>
<polygon fill="#63b8ff" stroke="#63b8ff" points="815.91,-303.8 820.01,-294.03 810.71,-299.12 815.91,-303.8"/>
</g>
<!-- Node29 -->
<g id="node29" class="node">
<title>Node29</title>
<g id="a_node29"><a xlink:href="../../d1/da6/classdef_8h.html" target="_top" xlink:title=" ">
<polygon fill="white" stroke="#666666" points="863.5,-349 798.5,-349 798.5,-330 863.5,-330 863.5,-349"/>
<text text-anchor="middle" x="831" y="-337" font-family="Helvetica,sans-Serif" font-size="10.00">classdef.h</text>
</a>
</g>
</g>
<!-- Node21&#45;&gt;Node29 -->
<g id="edge53" class="edge">
<title>Node21&#45;&gt;Node29</title>
<path fill="none" stroke="#63b8ff" d="M763.85,-384.98C776.14,-376.84 794.91,-364.41 809.48,-354.76"/>
<polygon fill="#63b8ff" stroke="#63b8ff" points="811.51,-357.61 817.91,-349.17 807.64,-351.78 811.51,-357.61"/>
</g>
<!-- Node23&#45;&gt;Node9 -->
<g id="edge33" class="edge">
<title>Node23&#45;&gt;Node9</title>
<path fill="none" stroke="#63b8ff" d="M437.27,-219.67C434.54,-210.72 430.29,-196.45 427,-184 423.02,-168.92 418.98,-151.7 416.1,-138.99"/>
<polygon fill="#63b8ff" stroke="#63b8ff" points="419.5,-138.15 413.9,-129.16 412.67,-139.69 419.5,-138.15"/>
</g>
<!-- Node24&#45;&gt;Node4 -->
<g id="edge35" class="edge">
<title>Node24&#45;&gt;Node4</title>
<path fill="none" stroke="#63b8ff" d="M762.38,-274.97C780.94,-268.2 803.6,-256.85 817,-239 839.19,-209.45 842.21,-164.51 841.93,-139.31"/>
<polygon fill="#63b8ff" stroke="#63b8ff" points="845.43,-139.14 841.63,-129.25 838.43,-139.35 845.43,-139.14"/>
</g>
<!-- Node24&#45;&gt;Node23 -->
<g id="edge36" class="edge">
<title>Node24&#45;&gt;Node23</title>
<path fill="none" stroke="#63b8ff" d="M696.19,-277.49C647.44,-269.22 557.49,-253.71 481,-239 479.72,-238.75 478.41,-238.5 477.09,-238.24"/>
<polygon fill="#63b8ff" stroke="#63b8ff" points="477.38,-234.73 466.88,-236.19 476,-241.59 477.38,-234.73"/>
</g>
<!-- Node25 -->
<g id="node25" class="node">
<title>Node25</title>
<g id="a_node25"><a xlink:href="../../d1/d02/reflist_8h.html" target="_top" xlink:title=" ">
<polygon fill="white" stroke="#666666" points="610.5,-239 557.5,-239 557.5,-220 610.5,-220 610.5,-239"/>
<text text-anchor="middle" x="584" y="-227" font-family="Helvetica,sans-Serif" font-size="10.00">reflist.h</text>
</a>
</g>
</g>
<!-- Node24&#45;&gt;Node25 -->
<g id="edge37" class="edge">
<title>Node24&#45;&gt;Node25</title>
<path fill="none" stroke="#63b8ff" d="M708.22,-274.98C683.77,-266.23 645.47,-252.51 617.85,-242.62"/>
<polygon fill="#63b8ff" stroke="#63b8ff" points="618.81,-239.25 608.21,-239.17 616.45,-245.84 618.81,-239.25"/>
</g>
<!-- Node25&#45;&gt;Node2 -->
<g id="edge40" class="edge">
<title>Node25&#45;&gt;Node2</title>
<path fill="none" stroke="#63b8ff" d="M561.72,-219.84C512.49,-200.72 394.34,-154.82 337.54,-132.75"/>
<polygon fill="#63b8ff" stroke="#63b8ff" points="338.59,-129.41 328,-129.05 336.05,-135.93 338.59,-129.41"/>
</g>
<!-- Node25&#45;&gt;Node4 -->
<g id="edge38" class="edge">
<title>Node25&#45;&gt;Node4</title>
<path fill="none" stroke="#63b8ff" d="M604.6,-219.84C649.92,-200.8 758.43,-155.2 811.19,-133.03"/>
<polygon fill="#63b8ff" stroke="#63b8ff" points="812.8,-136.15 820.66,-129.05 810.09,-129.69 812.8,-136.15"/>
</g>
<!-- Node25&#45;&gt;Node9 -->
<g id="edge41" class="edge">
<title>Node25&#45;&gt;Node9</title>
<path fill="none" stroke="#63b8ff" d="M572.49,-219.87C555.48,-207.26 522.46,-183.3 493,-165 474.88,-153.75 453.74,-142.18 437.61,-133.67"/>
<polygon fill="#63b8ff" stroke="#63b8ff" points="439.22,-130.56 428.74,-129.03 435.98,-136.76 439.22,-130.56"/>
</g>
<!-- Node26 -->
<g id="node26" class="node">
<title>Node26</title>
<g id="a_node26"><a xlink:title=" ">
<polygon fill="#e0e0e0" stroke="#999999" points="776.5,-129 683.5,-129 683.5,-110 776.5,-110 776.5,-129"/>
<text text-anchor="middle" x="730" y="-117" font-family="Helvetica,sans-Serif" font-size="10.00">unordered_map</text>
</a>
</g>
</g>
<!-- Node25&#45;&gt;Node26 -->
<g id="edge39" class="edge">
<title>Node25&#45;&gt;Node26</title>
<path fill="none" stroke="#63b8ff" d="M595.7,-219.84C620.58,-201.44 678.99,-158.23 709.94,-135.34"/>
<polygon fill="#63b8ff" stroke="#63b8ff" points="712.29,-137.96 718.24,-129.2 708.12,-132.33 712.29,-137.96"/>
</g>
<!-- Node27 -->
<g id="node27" class="node">
<title>Node27</title>
<g id="a_node27"><a xlink:href="../../da/de1/linkedmap_8h.html" target="_top" xlink:title=" ">
<polygon fill="white" stroke="#666666" points="622.5,-184 545.5,-184 545.5,-165 622.5,-165 622.5,-184"/>
<text text-anchor="middle" x="584" y="-172" font-family="Helvetica,sans-Serif" font-size="10.00">linkedmap.h</text>
</a>
</g>
</g>
<!-- Node25&#45;&gt;Node27 -->
<g id="edge42" class="edge">
<title>Node25&#45;&gt;Node27</title>
<path fill="none" stroke="#63b8ff" d="M584,-219.75C584,-212.8 584,-202.85 584,-194.13"/>
<polygon fill="#63b8ff" stroke="#63b8ff" points="587.5,-194.09 584,-184.09 580.5,-194.09 587.5,-194.09"/>
</g>
<!-- Node27&#45;&gt;Node2 -->
<g id="edge45" class="edge">
<title>Node27&#45;&gt;Node2</title>
<path fill="none" stroke="#63b8ff" d="M545.35,-166.13C492.48,-156.05 398.13,-138.06 345.05,-127.95"/>
<polygon fill="#63b8ff" stroke="#63b8ff" points="345.49,-124.47 335.01,-126.03 344.18,-131.34 345.49,-124.47"/>
</g>
<!-- Node27&#45;&gt;Node4 -->
<g id="edge44" class="edge">
<title>Node27&#45;&gt;Node4</title>
<path fill="none" stroke="#63b8ff" d="M622.75,-165.51C673.05,-155.14 759.98,-137.21 807.54,-127.4"/>
<polygon fill="#63b8ff" stroke="#63b8ff" points="808.26,-130.83 817.34,-125.38 806.84,-123.97 808.26,-130.83"/>
</g>
<!-- Node27&#45;&gt;Node9 -->
<g id="edge49" class="edge">
<title>Node27&#45;&gt;Node9</title>
<path fill="none" stroke="#63b8ff" d="M556.37,-164.98C527.49,-156.09 481.99,-142.07 449.8,-132.15"/>
<polygon fill="#63b8ff" stroke="#63b8ff" points="450.44,-128.68 439.85,-129.08 448.38,-135.37 450.44,-128.68"/>
</g>
<!-- Node27&#45;&gt;Node10 -->
<g id="edge46" class="edge">
<title>Node27&#45;&gt;Node10</title>
<path fill="none" stroke="#63b8ff" d="M594.57,-164.93C618.9,-144.22 674.49,-90.52 644,-55 641.9,-52.55 461.6,-26.12 386.38,-15.19"/>
<polygon fill="#63b8ff" stroke="#63b8ff" points="386.48,-11.67 376.08,-13.7 385.48,-18.6 386.48,-11.67"/>
</g>
<!-- Node27&#45;&gt;Node11 -->
<g id="edge47" class="edge">
<title>Node27&#45;&gt;Node11</title>
<path fill="none" stroke="#63b8ff" d="M579.99,-164.66C571.95,-146.93 553.7,-106.73 543.08,-83.32"/>
<polygon fill="#63b8ff" stroke="#63b8ff" points="546.25,-81.82 538.93,-74.16 539.87,-84.71 546.25,-81.82"/>
</g>
<!-- Node27&#45;&gt;Node12 -->
<g id="edge48" class="edge">
<title>Node27&#45;&gt;Node12</title>
<path fill="none" stroke="#63b8ff" d="M586.13,-164.66C590.36,-147.09 599.9,-107.45 605.56,-83.95"/>
<polygon fill="#63b8ff" stroke="#63b8ff" points="608.98,-84.7 607.92,-74.16 602.17,-83.06 608.98,-84.7"/>
</g>
<!-- Node27&#45;&gt;Node26 -->
<g id="edge43" class="edge">
<title>Node27&#45;&gt;Node26</title>
<path fill="none" stroke="#63b8ff" d="M607.46,-164.98C631.58,-156.23 669.37,-142.51 696.6,-132.62"/>
<polygon fill="#63b8ff" stroke="#63b8ff" points="697.91,-135.87 706.12,-129.17 695.52,-129.29 697.91,-135.87"/>
</g>
<!-- Node28&#45;&gt;Node4 -->
<g id="edge51" class="edge">
<title>Node28&#45;&gt;Node4</title>
<path fill="none" stroke="#63b8ff" d="M835.15,-274.97C841.77,-266.48 851.15,-252.75 855,-239 863.86,-207.33 859.99,-197.51 855,-165 853.65,-156.19 850.87,-146.74 848.15,-138.82"/>
<polygon fill="#63b8ff" stroke="#63b8ff" points="851.34,-137.35 844.6,-129.18 844.77,-139.77 851.34,-137.35"/>
</g>
<!-- Node28&#45;&gt;Node9 -->
<g id="edge52" class="edge">
<title>Node28&#45;&gt;Node9</title>
<path fill="none" stroke="#63b8ff" d="M788.75,-276.92C784.78,-276.27 780.81,-275.62 777,-275 675.74,-258.57 642.04,-282.22 549,-239 496.21,-214.48 448.15,-163.48 425.56,-137.1"/>
<polygon fill="#63b8ff" stroke="#63b8ff" points="428.02,-134.58 418.91,-129.17 422.66,-139.08 428.02,-134.58"/>
</g>
<!-- Node29&#45;&gt;Node4 -->
<g id="edge54" class="edge">
<title>Node29&#45;&gt;Node4</title>
<path fill="none" stroke="#63b8ff" d="M863.61,-335.13C969.03,-323.05 1288.24,-276.57 1190,-165 1169.33,-141.53 958.43,-127.14 874.85,-122.31"/>
<polygon fill="#63b8ff" stroke="#63b8ff" points="874.8,-118.81 864.62,-121.73 874.4,-125.79 874.8,-118.81"/>
</g>
<!-- Node29&#45;&gt;Node24 -->
<g id="edge64" class="edge">
<title>Node29&#45;&gt;Node24</title>
<path fill="none" stroke="#63b8ff" d="M815.09,-329.98C799.45,-321.61 775.34,-308.7 757.12,-298.95"/>
<polygon fill="#63b8ff" stroke="#63b8ff" points="758.66,-295.8 748.2,-294.17 755.36,-301.98 758.66,-295.8"/>
</g>
<!-- Node29&#45;&gt;Node28 -->
<g id="edge65" class="edge">
<title>Node29&#45;&gt;Node28</title>
<path fill="none" stroke="#63b8ff" d="M830.5,-329.75C830.11,-322.8 829.55,-312.85 829.05,-304.13"/>
<polygon fill="#63b8ff" stroke="#63b8ff" points="832.55,-303.88 828.49,-294.09 825.56,-304.27 832.55,-303.88"/>
</g>
<!-- Node30 -->
<g id="node30" class="node">
<title>Node30</title>
<g id="a_node30"><a xlink:title=" ">
<polygon fill="#e0e0e0" stroke="#999999" points="1181,-184 1149,-184 1149,-165 1181,-165 1181,-184"/>
<text text-anchor="middle" x="1165" y="-172" font-family="Helvetica,sans-Serif" font-size="10.00">set</text>
</a>
</g>
</g>
<!-- Node29&#45;&gt;Node30 -->
<g id="edge55" class="edge">
<title>Node29&#45;&gt;Node30</title>
<path fill="none" stroke="#63b8ff" d="M848.49,-329.97C903.77,-302.99 1074.92,-219.46 1139.76,-187.82"/>
<polygon fill="#63b8ff" stroke="#63b8ff" points="1141.42,-190.9 1148.87,-183.37 1138.35,-184.61 1141.42,-190.9"/>
</g>
<!-- Node31 -->
<g id="node31" class="node">
<title>Node31</title>
<g id="a_node31"><a xlink:href="../../d5/d75/containers_8h.html" target="_top" xlink:title=" ">
<polygon fill="white" stroke="#666666" points="1005.5,-239 928.5,-239 928.5,-220 1005.5,-220 1005.5,-239"/>
<text text-anchor="middle" x="967" y="-227" font-family="Helvetica,sans-Serif" font-size="10.00">containers.h</text>
</a>
</g>
</g>
<!-- Node29&#45;&gt;Node31 -->
<g id="edge56" class="edge">
<title>Node29&#45;&gt;Node31</title>
<path fill="none" stroke="#63b8ff" d="M842.13,-329.66C865.36,-311.22 919.22,-268.45 948.02,-245.57"/>
<polygon fill="#63b8ff" stroke="#63b8ff" points="950.44,-248.12 956.1,-239.16 946.09,-242.64 950.44,-248.12"/>
</g>
<!-- Node34 -->
<g id="node34" class="node">
<title>Node34</title>
<g id="a_node34"><a xlink:href="../../d9/d11/membergroup_8h.html" target="_top" xlink:title=" ">
<polygon fill="white" stroke="#666666" points="614.5,-294 519.5,-294 519.5,-275 614.5,-275 614.5,-294"/>
<text text-anchor="middle" x="567" y="-282" font-family="Helvetica,sans-Serif" font-size="10.00">membergroup.h</text>
</a>
</g>
</g>
<!-- Node29&#45;&gt;Node34 -->
<g id="edge66" class="edge">
<title>Node29&#45;&gt;Node34</title>
<path fill="none" stroke="#63b8ff" d="M798.36,-331.95C753.65,-322.97 672.83,-306.75 619.54,-296.05"/>
<polygon fill="#63b8ff" stroke="#63b8ff" points="620.09,-292.59 609.6,-294.05 618.71,-299.45 620.09,-292.59"/>
</g>
<!-- Node31&#45;&gt;Node4 -->
<g id="edge57" class="edge">
<title>Node31&#45;&gt;Node4</title>
<path fill="none" stroke="#63b8ff" d="M1005.66,-224.16C1055.28,-217.07 1131.65,-200.13 1102,-165 1073.34,-131.05 939.13,-123 875.13,-121.09"/>
<polygon fill="#63b8ff" stroke="#63b8ff" points="874.85,-117.58 864.76,-120.82 874.66,-124.58 874.85,-117.58"/>
</g>
<!-- Node31&#45;&gt;Node5 -->
<g id="edge60" class="edge">
<title>Node31&#45;&gt;Node5</title>
<path fill="none" stroke="#63b8ff" d="M928.35,-225.34C809.74,-215.66 452.7,-186.5 347.48,-177.91"/>
<polygon fill="#63b8ff" stroke="#63b8ff" points="347.53,-174.4 337.28,-177.07 346.96,-181.38 347.53,-174.4"/>
</g>
<!-- Node31&#45;&gt;Node10 -->
<g id="edge58" class="edge">
<title>Node31&#45;&gt;Node10</title>
<path fill="none" stroke="#63b8ff" d="M960.73,-219.87C941.76,-193.88 885.6,-117.59 874,-110 792.56,-56.69 757.43,-74.21 662,-55 648.56,-52.29 462.85,-25.91 386.46,-15.09"/>
<polygon fill="#63b8ff" stroke="#63b8ff" points="386.83,-11.61 376.44,-13.67 385.85,-18.54 386.83,-11.61"/>
</g>
<!-- Node31&#45;&gt;Node26 -->
<g id="edge62" class="edge">
<title>Node31&#45;&gt;Node26</title>
<path fill="none" stroke="#63b8ff" d="M948.01,-219.84C906.39,-200.88 806.98,-155.58 758.1,-133.31"/>
<polygon fill="#63b8ff" stroke="#63b8ff" points="759.31,-130.01 748.76,-129.05 756.4,-136.38 759.31,-130.01"/>
</g>
<!-- Node31&#45;&gt;Node30 -->
<g id="edge59" class="edge">
<title>Node31&#45;&gt;Node30</title>
<path fill="none" stroke="#63b8ff" d="M999.88,-219.97C1033.78,-211.13 1088.15,-196.84 1135,-184 1136.26,-183.65 1137.55,-183.3 1138.86,-182.94"/>
<polygon fill="#63b8ff" stroke="#63b8ff" points="1140.14,-186.21 1148.82,-180.14 1138.25,-179.47 1140.14,-186.21"/>
</g>
<!-- Node32 -->
<g id="node32" class="node">
<title>Node32</title>
<g id="a_node32"><a xlink:title=" ">
<polygon fill="#e0e0e0" stroke="#999999" points="1031,-184 945,-184 945,-165 1031,-165 1031,-184"/>
<text text-anchor="middle" x="988" y="-172" font-family="Helvetica,sans-Serif" font-size="10.00">unordered_set</text>
</a>
</g>
</g>
<!-- Node31&#45;&gt;Node32 -->
<g id="edge61" class="edge">
<title>Node31&#45;&gt;Node32</title>
<path fill="none" stroke="#63b8ff" d="M970.47,-219.75C973.28,-212.65 977.34,-202.4 980.85,-193.56"/>
<polygon fill="#63b8ff" stroke="#63b8ff" points="984.17,-194.68 984.6,-184.09 977.66,-192.1 984.17,-194.68"/>
</g>
<!-- Node33 -->
<g id="node33" class="node">
<title>Node33</title>
<g id="a_node33"><a xlink:title=" ">
<polygon fill="#e0e0e0" stroke="#999999" points="1092.5,-184 1049.5,-184 1049.5,-165 1092.5,-165 1092.5,-184"/>
<text text-anchor="middle" x="1071" y="-172" font-family="Helvetica,sans-Serif" font-size="10.00">stack</text>
</a>
</g>
</g>
<!-- Node31&#45;&gt;Node33 -->
<g id="edge63" class="edge">
<title>Node31&#45;&gt;Node33</title>
<path fill="none" stroke="#63b8ff" d="M983.71,-219.98C1000.21,-211.57 1025.7,-198.59 1044.88,-188.81"/>
<polygon fill="#63b8ff" stroke="#63b8ff" points="1046.67,-191.83 1053.99,-184.17 1043.49,-185.59 1046.67,-191.83"/>
</g>
<!-- Node34&#45;&gt;Node2 -->
<g id="edge69" class="edge">
<title>Node34&#45;&gt;Node2</title>
<path fill="none" stroke="#63b8ff" d="M519.45,-278.39C485.32,-272.92 439.46,-261.72 405,-239 369.88,-215.85 373.18,-197.1 346,-165 337.94,-155.49 328.65,-145.11 321.05,-136.78"/>
<polygon fill="#63b8ff" stroke="#63b8ff" points="323.46,-134.23 314.12,-129.23 318.31,-138.96 323.46,-134.23"/>
</g>
<!-- Node34&#45;&gt;Node4 -->
<g id="edge67" class="edge">
<title>Node34&#45;&gt;Node4</title>
<path fill="none" stroke="#63b8ff" d="M614.55,-278.28C668.89,-271.51 753.59,-258.23 779,-239 812.21,-213.87 829.32,-165.78 836.59,-139.24"/>
<polygon fill="#63b8ff" stroke="#63b8ff" points="840.04,-139.87 839.12,-129.32 833.26,-138.14 840.04,-139.87"/>
</g>
<!-- Node34&#45;&gt;Node5 -->
<g id="edge68" class="edge">
<title>Node34&#45;&gt;Node5</title>
<path fill="none" stroke="#63b8ff" d="M519.46,-281.22C477.65,-277.32 416.53,-266.87 371,-239 352.31,-227.56 337.07,-207.2 327.81,-192.62"/>
<polygon fill="#63b8ff" stroke="#63b8ff" points="330.78,-190.76 322.61,-184.02 324.79,-194.39 330.78,-190.76"/>
</g>
<!-- Node34&#45;&gt;Node23 -->
<g id="edge70" class="edge">
<title>Node34&#45;&gt;Node23</title>
<path fill="none" stroke="#63b8ff" d="M546.6,-274.98C525.98,-266.38 493.89,-252.99 470.31,-243.15"/>
<polygon fill="#63b8ff" stroke="#63b8ff" points="471.35,-239.79 460.78,-239.17 468.66,-246.25 471.35,-239.79"/>
</g>
<!-- Node34&#45;&gt;Node25 -->
<g id="edge71" class="edge">
<title>Node34&#45;&gt;Node25</title>
<path fill="none" stroke="#63b8ff" d="M569.81,-274.75C572.06,-267.72 575.3,-257.62 578.12,-248.84"/>
<polygon fill="#63b8ff" stroke="#63b8ff" points="581.52,-249.68 581.25,-239.09 574.86,-247.54 581.52,-249.68"/>
</g>
</g>
</svg>
        <g id="navigator" transform="translate(0 0)" fill="#404254">
                <rect fill="#f2f5e9" fill-opacity="0.5" stroke="#606060" stroke-width=".5" x="0" y="0" width="60" height="60"/>
                <use id="zoomplus" xlink:href="#zoomPlus" x="17" y="9" onmousedown="handleZoom(evt,'in')"/>
                <use id="zoomminus" xlink:href="#zoomMin" x="42" y="9" onmousedown="handleZoom(evt,'out')"/>
                <use id="reset" xlink:href="#resetDef" x="30" y="36" onmousedown="handleReset()"/>
                <g id="arrowUp" xlink:href="#dirArrow" transform="translate(30 24)" onmousedown="handlePan(0,-1)">
                  <use xlink:href="#rim" fill="#404040">
                        <set attributeName="fill" to="#808080" begin="arrowUp.mouseover" end="arrowUp.mouseout"/>
                  </use>
                  <path fill="none" stroke="white" stroke-width="1.5" d="M0,-3.0v7 M-2.5,-0.5L0,-3.0L2.5,-0.5"/>
                </g>
                <g id="arrowRight" xlink:href="#dirArrow" transform="rotate(90) translate(36 -43)" onmousedown="handlePan(1,0)">
                  <use xlink:href="#rim" fill="#404040">
                        <set attributeName="fill" to="#808080" begin="arrowRight.mouseover" end="arrowRight.mouseout"/>
                  </use>
                  <path fill="none" stroke="white" stroke-width="1.5" d="M0,-3.0v7 M-2.5,-0.5L0,-3.0L2.5,-0.5"/>
                </g>
                <g id="arrowDown" xlink:href="#dirArrow" transform="rotate(180) translate(-30 -48)" onmousedown="handlePan(0,1)">
                  <use xlink:href="#rim" fill="#404040">
                        <set attributeName="fill" to="#808080" begin="arrowDown.mouseover" end="arrowDown.mouseout"/>
                  </use>
                  <path fill="none" stroke="white" stroke-width="1.5" d="M0,-3.0v7 M-2.5,-0.5L0,-3.0L2.5,-0.5"/>
                </g>
                <g id="arrowLeft" xlink:href="#dirArrow" transform="rotate(270) translate(-36 17)" onmousedown="handlePan(-1,0)">
                  <use xlink:href="#rim" fill="#404040">
                        <set attributeName="fill" to="#808080" begin="arrowLeft.mouseover" end="arrowLeft.mouseout"/>
                  </use>
                  <path fill="none" stroke="white" stroke-width="1.5" d="M0,-3.0v7 M-2.5,-0.5L0,-3.0L2.5,-0.5"/>
                </g>
        </g>
        <svg viewBox="0 0 15 15" width="100%" height="30px" preserveAspectRatio="xMaxYMin meet">
         <g id="arrow_out" transform="scale(0.3 0.3)">
          <a xlink:href="dotcallgraph_8h__incl_org.svg" target="_base">
           <rect id="button" ry="5" rx="5" y="6" x="6" height="38" width="38"
                fill="#f2f5e9" fill-opacity="0.5" stroke="#606060" stroke-width="1.0"/>
           <path id="arrow"
             d="M 11.500037,31.436501 C 11.940474,20.09759 22.043105,11.32322 32.158766,21.979434 L 37.068811,17.246167 C 37.068811,17.246167 37.088388,32 37.088388,32 L 22.160133,31.978069 C 22.160133,31.978069 26.997745,27.140456 26.997745,27.140456 C 18.528582,18.264221 13.291696,25.230495 11.500037,31.436501 z"
             style="fill:#404040;"/>
          </a>
         </g>
        </svg>
</svg>
