<?xml version="1.0" encoding="UTF-8" standalone="no"?>
<!DOCTYPE svg PUBLIC "-//W3C//DTD SVG 1.1//EN"
 "http://www.w3.org/Graphics/SVG/1.1/DTD/svg11.dtd">
<!-- Generated by graphviz version 2.43.0 (0)
 -->
<!-- Title: Graphical Class Hierarchy Pages: 1 -->
<svg width="2494pt" height="858pt"
 viewBox="0.00 0.00 2494.00 858.00" xmlns="http://www.w3.org/2000/svg" xmlns:xlink="http://www.w3.org/1999/xlink">
<g id="graph0" class="graph" transform="scale(1 1) rotate(0) translate(4 854)">
<title>Graphical Class Hierarchy</title>
<!-- Node0 -->
<g id="node1" class="node">
<title>Node0</title>
<g id="a_node1"><a xlink:href="d8/dfb/class_translator.html" target="_top" xlink:title="Abstract base class for all translatable text fragments.">
<polygon fill="white" stroke="#666666" points="65,-93 0,-93 0,-74 65,-74 65,-93"/>
<text text-anchor="middle" x="32.5" y="-81" font-family="Helvetica,sans-Serif" font-size="10.00">Translator</text>
</a>
</g>
</g>
<!-- Node1 -->
<g id="node2" class="node">
<title>Node1</title>
<g id="a_node2"><a xlink:href="db/d6c/class_translator_adapter_base.html" target="_top" xlink:title="Base of the translator adapter tree.">
<polygon fill="white" stroke="#666666" points="228,-167 101,-167 101,-148 228,-148 228,-167"/>
<text text-anchor="middle" x="164.5" y="-155" font-family="Helvetica,sans-Serif" font-size="10.00">TranslatorAdapterBase</text>
</a>
</g>
</g>
<!-- Node0&#45;&gt;Node1 -->
<g id="edge1" class="edge">
<title>Node0&#45;&gt;Node1</title>
<path fill="none" stroke="#63b8ff" d="M49.9,-99.97C62.81,-112.12 81.78,-128.26 101,-138.5 108.01,-142.23 115.85,-145.34 123.56,-147.9"/>
<polygon fill="#63b8ff" stroke="#63b8ff" points="52.32,-97.44 42.69,-93.01 47.45,-102.47 52.32,-97.44"/>
</g>
<!-- Node52 -->
<g id="node53" class="node">
<title>Node52</title>
<g id="a_node53"><a xlink:href="d2/d4c/class_translator_brazilian.html" target="_top" xlink:title=" ">
<polygon fill="white" stroke="#666666" points="218,-130 111,-130 111,-111 218,-111 218,-130"/>
<text text-anchor="middle" x="164.5" y="-118" font-family="Helvetica,sans-Serif" font-size="10.00">TranslatorBrazilian</text>
</a>
</g>
</g>
<!-- Node0&#45;&gt;Node52 -->
<g id="edge52" class="edge">
<title>Node0&#45;&gt;Node52</title>
<path fill="none" stroke="#63b8ff" d="M75.32,-95.4C92.92,-100.41 113.13,-106.16 129.75,-110.9"/>
<polygon fill="#63b8ff" stroke="#63b8ff" points="75.88,-91.92 65.3,-92.55 73.96,-98.66 75.88,-91.92"/>
</g>
<!-- Node53 -->
<g id="node54" class="node">
<title>Node53</title>
<g id="a_node54"><a xlink:href="d9/d1b/class_translator_dutch.html" target="_top" xlink:title=" ">
<polygon fill="white" stroke="#666666" points="211,-93 118,-93 118,-74 211,-74 211,-93"/>
<text text-anchor="middle" x="164.5" y="-81" font-family="Helvetica,sans-Serif" font-size="10.00">TranslatorDutch</text>
</a>
</g>
</g>
<!-- Node0&#45;&gt;Node53 -->
<g id="edge53" class="edge">
<title>Node0&#45;&gt;Node53</title>
<path fill="none" stroke="#63b8ff" d="M75.32,-83.5C88.87,-83.5 103.97,-83.5 117.79,-83.5"/>
<polygon fill="#63b8ff" stroke="#63b8ff" points="75.3,-80 65.3,-83.5 75.3,-87 75.3,-80"/>
</g>
<!-- Node54 -->
<g id="node55" class="node">
<title>Node54</title>
<g id="a_node55"><a xlink:href="d6/d78/class_translator_english.html" target="_top" xlink:title=" ">
<polygon fill="white" stroke="#666666" points="214.5,-56 114.5,-56 114.5,-37 214.5,-37 214.5,-56"/>
<text text-anchor="middle" x="164.5" y="-44" font-family="Helvetica,sans-Serif" font-size="10.00">TranslatorEnglish</text>
</a>
</g>
</g>
<!-- Node0&#45;&gt;Node54 -->
<g id="edge54" class="edge">
<title>Node0&#45;&gt;Node54</title>
<path fill="none" stroke="#63b8ff" d="M75.32,-71.6C92.92,-66.59 113.13,-60.84 129.75,-56.1"/>
<polygon fill="#63b8ff" stroke="#63b8ff" points="73.96,-68.34 65.3,-74.45 75.88,-75.08 73.96,-68.34"/>
</g>
<!-- Node57 -->
<g id="node58" class="node">
<title>Node57</title>
<g id="a_node58"><a xlink:href="dc/df2/class_translator_portuguese.html" target="_top" xlink:title=" ">
<polygon fill="white" stroke="#666666" points="224,-19 105,-19 105,0 224,0 224,-19"/>
<text text-anchor="middle" x="164.5" y="-7" font-family="Helvetica,sans-Serif" font-size="10.00">TranslatorPortuguese</text>
</a>
</g>
</g>
<!-- Node0&#45;&gt;Node57 -->
<g id="edge57" class="edge">
<title>Node0&#45;&gt;Node57</title>
<path fill="none" stroke="#63b8ff" d="M49.8,-66.63C62.66,-54.21 81.6,-37.76 101,-27.5 107.29,-24.17 114.27,-21.4 121.22,-19.1"/>
<polygon fill="#63b8ff" stroke="#63b8ff" points="47.26,-64.23 42.63,-73.76 52.19,-69.19 47.26,-64.23"/>
</g>
<!-- Node2 -->
<g id="node3" class="node">
<title>Node2</title>
<g id="a_node3"><a xlink:href="db/d71/class_translator_adapter__1__9__6.html" target="_top" xlink:title=" ">
<polygon fill="white" stroke="#666666" points="401,-167 264,-167 264,-148 401,-148 401,-167"/>
<text text-anchor="middle" x="332.5" y="-155" font-family="Helvetica,sans-Serif" font-size="10.00">TranslatorAdapter_1_9_6</text>
</a>
</g>
</g>
<!-- Node1&#45;&gt;Node2 -->
<g id="edge2" class="edge">
<title>Node1&#45;&gt;Node2</title>
<path fill="none" stroke="#63b8ff" d="M238.49,-157.5C246.95,-157.5 255.56,-157.5 263.94,-157.5"/>
<polygon fill="#63b8ff" stroke="#63b8ff" points="238.26,-154 228.26,-157.5 238.26,-161 238.26,-154"/>
</g>
<!-- Node3 -->
<g id="node4" class="node">
<title>Node3</title>
<g id="a_node4"><a xlink:href="dd/dba/class_translator_adapter__1__9__5.html" target="_top" xlink:title=" ">
<polygon fill="white" stroke="#666666" points="574,-222 437,-222 437,-203 574,-203 574,-222"/>
<text text-anchor="middle" x="505.5" y="-210" font-family="Helvetica,sans-Serif" font-size="10.00">TranslatorAdapter_1_9_5</text>
</a>
</g>
</g>
<!-- Node2&#45;&gt;Node3 -->
<g id="edge3" class="edge">
<title>Node2&#45;&gt;Node3</title>
<path fill="none" stroke="#63b8ff" d="M369.3,-170.55C389.15,-177.63 414.33,-186.37 437,-193.5 447.34,-196.75 458.64,-200.04 469,-202.94"/>
<polygon fill="#63b8ff" stroke="#63b8ff" points="370.32,-167.2 359.73,-167.11 367.96,-173.79 370.32,-167.2"/>
</g>
<!-- Node49 -->
<g id="node50" class="node">
<title>Node49</title>
<g id="a_node50"><a xlink:href="dd/d8a/class_translator_czech.html" target="_top" xlink:title=" ">
<polygon fill="white" stroke="#666666" points="552.5,-185 458.5,-185 458.5,-166 552.5,-166 552.5,-185"/>
<text text-anchor="middle" x="505.5" y="-173" font-family="Helvetica,sans-Serif" font-size="10.00">TranslatorCzech</text>
</a>
</g>
</g>
<!-- Node2&#45;&gt;Node49 -->
<g id="edge49" class="edge">
<title>Node2&#45;&gt;Node49</title>
<path fill="none" stroke="#63b8ff" d="M411.09,-165.67C427.28,-167.37 443.84,-169.11 458.44,-170.65"/>
<polygon fill="#63b8ff" stroke="#63b8ff" points="411.4,-162.18 401.08,-164.61 410.66,-169.14 411.4,-162.18"/>
</g>
<!-- Node50 -->
<g id="node51" class="node">
<title>Node50</title>
<g id="a_node51"><a xlink:href="dc/d44/class_translator_spanish.html" target="_top" xlink:title=" ">
<polygon fill="white" stroke="#666666" points="557,-148 454,-148 454,-129 557,-129 557,-148"/>
<text text-anchor="middle" x="505.5" y="-136" font-family="Helvetica,sans-Serif" font-size="10.00">TranslatorSpanish</text>
</a>
</g>
</g>
<!-- Node2&#45;&gt;Node50 -->
<g id="edge50" class="edge">
<title>Node2&#45;&gt;Node50</title>
<path fill="none" stroke="#63b8ff" d="M411.05,-148.88C425.54,-147.27 440.34,-145.63 453.76,-144.14"/>
<polygon fill="#63b8ff" stroke="#63b8ff" points="410.64,-145.41 401.08,-149.99 411.41,-152.36 410.64,-145.41"/>
</g>
<!-- Node51 -->
<g id="node52" class="node">
<title>Node51</title>
<g id="a_node52"><a xlink:href="d5/d5c/class_translator_swedish.html" target="_top" xlink:title=" ">
<polygon fill="white" stroke="#666666" points="558,-111 453,-111 453,-92 558,-92 558,-111"/>
<text text-anchor="middle" x="505.5" y="-99" font-family="Helvetica,sans-Serif" font-size="10.00">TranslatorSwedish</text>
</a>
</g>
</g>
<!-- Node2&#45;&gt;Node51 -->
<g id="edge51" class="edge">
<title>Node2&#45;&gt;Node51</title>
<path fill="none" stroke="#63b8ff" d="M366.9,-144.36C387.05,-136.65 413.32,-126.99 437,-119.5 446.37,-116.54 456.56,-113.65 466.13,-111.08"/>
<polygon fill="#63b8ff" stroke="#63b8ff" points="365.62,-141.1 357.54,-147.96 368.13,-147.63 365.62,-141.1"/>
</g>
<!-- Node4 -->
<g id="node5" class="node">
<title>Node4</title>
<g id="a_node5"><a xlink:href="d0/d33/class_translator_adapter__1__9__4.html" target="_top" xlink:title=" ">
<polygon fill="white" stroke="#666666" points="747,-240 610,-240 610,-221 747,-221 747,-240"/>
<text text-anchor="middle" x="678.5" y="-228" font-family="Helvetica,sans-Serif" font-size="10.00">TranslatorAdapter_1_9_4</text>
</a>
</g>
</g>
<!-- Node3&#45;&gt;Node4 -->
<g id="edge4" class="edge">
<title>Node3&#45;&gt;Node4</title>
<path fill="none" stroke="#63b8ff" d="M584.1,-220.67C592.69,-221.57 601.39,-222.49 609.85,-223.38"/>
<polygon fill="#63b8ff" stroke="#63b8ff" points="584.4,-217.18 574.08,-219.61 583.66,-224.14 584.4,-217.18"/>
</g>
<!-- Node48 -->
<g id="node49" class="node">
<title>Node48</title>
<g id="a_node49"><a xlink:href="da/d1a/class_translator_french.html" target="_top" xlink:title=" ">
<polygon fill="white" stroke="#666666" points="727,-203 630,-203 630,-184 727,-184 727,-203"/>
<text text-anchor="middle" x="678.5" y="-191" font-family="Helvetica,sans-Serif" font-size="10.00">TranslatorFrench</text>
</a>
</g>
</g>
<!-- Node3&#45;&gt;Node48 -->
<g id="edge48" class="edge">
<title>Node3&#45;&gt;Node48</title>
<path fill="none" stroke="#63b8ff" d="M584.24,-203.86C599.81,-202.13 615.72,-200.36 629.9,-198.79"/>
<polygon fill="#63b8ff" stroke="#63b8ff" points="583.64,-200.41 574.08,-204.99 584.41,-207.36 583.64,-200.41"/>
</g>
<!-- Node5 -->
<g id="node6" class="node">
<title>Node5</title>
<g id="a_node6"><a xlink:href="d3/d2e/class_translator_adapter__1__9__2.html" target="_top" xlink:title=" ">
<polygon fill="white" stroke="#666666" points="920,-314 783,-314 783,-295 920,-295 920,-314"/>
<text text-anchor="middle" x="851.5" y="-302" font-family="Helvetica,sans-Serif" font-size="10.00">TranslatorAdapter_1_9_2</text>
</a>
</g>
</g>
<!-- Node4&#45;&gt;Node5 -->
<g id="edge5" class="edge">
<title>Node4&#45;&gt;Node5</title>
<path fill="none" stroke="#63b8ff" d="M703.82,-245.34C724.35,-257.4 754.83,-274.2 783,-285.5 791.93,-289.08 801.77,-292.26 811.12,-294.95"/>
<polygon fill="#63b8ff" stroke="#63b8ff" points="705.51,-242.27 695.13,-240.17 701.93,-248.29 705.51,-242.27"/>
</g>
<!-- Node44 -->
<g id="node45" class="node">
<title>Node44</title>
<g id="a_node45"><a xlink:href="da/dbb/class_translator_bulgarian.html" target="_top" xlink:title=" ">
<polygon fill="white" stroke="#666666" points="907,-277 796,-277 796,-258 907,-258 907,-277"/>
<text text-anchor="middle" x="851.5" y="-265" font-family="Helvetica,sans-Serif" font-size="10.00">TranslatorBulgarian</text>
</a>
</g>
</g>
<!-- Node4&#45;&gt;Node44 -->
<g id="edge44" class="edge">
<title>Node4&#45;&gt;Node44</title>
<path fill="none" stroke="#63b8ff" d="M733.35,-242.15C756.84,-247.23 784.04,-253.12 806.32,-257.94"/>
<polygon fill="#63b8ff" stroke="#63b8ff" points="734.05,-238.72 723.54,-240.03 732.57,-245.56 734.05,-238.72"/>
</g>
<!-- Node45 -->
<g id="node46" class="node">
<title>Node45</title>
<g id="a_node46"><a xlink:href="d6/db6/class_translator_chinese.html" target="_top" xlink:title=" ">
<polygon fill="white" stroke="#666666" points="903.5,-240 799.5,-240 799.5,-221 903.5,-221 903.5,-240"/>
<text text-anchor="middle" x="851.5" y="-228" font-family="Helvetica,sans-Serif" font-size="10.00">TranslatorChinese</text>
</a>
</g>
</g>
<!-- Node4&#45;&gt;Node45 -->
<g id="edge45" class="edge">
<title>Node4&#45;&gt;Node45</title>
<path fill="none" stroke="#63b8ff" d="M757.41,-230.5C771.69,-230.5 786.26,-230.5 799.49,-230.5"/>
<polygon fill="#63b8ff" stroke="#63b8ff" points="757.08,-227 747.08,-230.5 757.08,-234 757.08,-227"/>
</g>
<!-- Node46 -->
<g id="node47" class="node">
<title>Node46</title>
<g id="a_node47"><a xlink:href="df/d75/class_translator_greek.html" target="_top" xlink:title=" ">
<polygon fill="white" stroke="#666666" points="898.5,-203 804.5,-203 804.5,-184 898.5,-184 898.5,-203"/>
<text text-anchor="middle" x="851.5" y="-191" font-family="Helvetica,sans-Serif" font-size="10.00">TranslatorGreek</text>
</a>
</g>
</g>
<!-- Node4&#45;&gt;Node46 -->
<g id="edge46" class="edge">
<title>Node4&#45;&gt;Node46</title>
<path fill="none" stroke="#63b8ff" d="M733.35,-218.85C756.84,-213.77 784.04,-207.88 806.32,-203.06"/>
<polygon fill="#63b8ff" stroke="#63b8ff" points="732.57,-215.44 723.54,-220.97 734.05,-222.28 732.57,-215.44"/>
</g>
<!-- Node47 -->
<g id="node48" class="node">
<title>Node47</title>
<g id="a_node48"><a xlink:href="d1/d8a/class_translator_hindi.html" target="_top" xlink:title=" ">
<polygon fill="white" stroke="#666666" points="896.5,-166 806.5,-166 806.5,-147 896.5,-147 896.5,-166"/>
<text text-anchor="middle" x="851.5" y="-154" font-family="Helvetica,sans-Serif" font-size="10.00">TranslatorHindi</text>
</a>
</g>
</g>
<!-- Node4&#45;&gt;Node47 -->
<g id="edge47" class="edge">
<title>Node4&#45;&gt;Node47</title>
<path fill="none" stroke="#63b8ff" d="M735.42,-217.32C739.44,-215.6 743.35,-213.67 747,-211.5 766.72,-199.77 763.2,-186.1 783,-174.5 790.12,-170.33 798.21,-167.11 806.27,-164.62"/>
<polygon fill="#63b8ff" stroke="#63b8ff" points="733.97,-214.13 725.86,-220.95 736.46,-220.67 733.97,-214.13"/>
</g>
<!-- Node6 -->
<g id="node7" class="node">
<title>Node6</title>
<g id="a_node7"><a xlink:href="de/dde/class_translator_adapter__1__8__19.html" target="_top" xlink:title=" ">
<polygon fill="white" stroke="#666666" points="1099,-314 956,-314 956,-295 1099,-295 1099,-314"/>
<text text-anchor="middle" x="1027.5" y="-302" font-family="Helvetica,sans-Serif" font-size="10.00">TranslatorAdapter_1_8_19</text>
</a>
</g>
</g>
<!-- Node5&#45;&gt;Node6 -->
<g id="edge6" class="edge">
<title>Node5&#45;&gt;Node6</title>
<path fill="none" stroke="#63b8ff" d="M930.47,-304.5C938.89,-304.5 947.42,-304.5 955.75,-304.5"/>
<polygon fill="#63b8ff" stroke="#63b8ff" points="930.27,-301 920.27,-304.5 930.27,-308 930.27,-301"/>
</g>
<!-- Node7 -->
<g id="node8" class="node">
<title>Node7</title>
<g id="a_node8"><a xlink:href="d4/d2e/class_translator_adapter__1__8__15.html" target="_top" xlink:title=" ">
<polygon fill="white" stroke="#666666" points="1278,-314 1135,-314 1135,-295 1278,-295 1278,-314"/>
<text text-anchor="middle" x="1206.5" y="-302" font-family="Helvetica,sans-Serif" font-size="10.00">TranslatorAdapter_1_8_15</text>
</a>
</g>
</g>
<!-- Node6&#45;&gt;Node7 -->
<g id="edge7" class="edge">
<title>Node6&#45;&gt;Node7</title>
<path fill="none" stroke="#63b8ff" d="M1109.49,-304.5C1117.97,-304.5 1126.54,-304.5 1134.89,-304.5"/>
<polygon fill="#63b8ff" stroke="#63b8ff" points="1109.22,-301 1099.22,-304.5 1109.22,-308 1109.22,-301"/>
</g>
<!-- Node8 -->
<g id="node9" class="node">
<title>Node8</title>
<g id="a_node9"><a xlink:href="de/d2f/class_translator_adapter__1__8__4.html" target="_top" xlink:title=" ">
<polygon fill="white" stroke="#666666" points="1459.5,-481 1322.5,-481 1322.5,-462 1459.5,-462 1459.5,-481"/>
<text text-anchor="middle" x="1391" y="-469" font-family="Helvetica,sans-Serif" font-size="10.00">TranslatorAdapter_1_8_4</text>
</a>
</g>
</g>
<!-- Node7&#45;&gt;Node8 -->
<g id="edge8" class="edge">
<title>Node7&#45;&gt;Node8</title>
<path fill="none" stroke="#63b8ff" d="M1215.89,-323.78C1230.81,-355.7 1265.04,-419.29 1314,-452.5 1319.74,-456.39 1326.21,-459.49 1332.89,-461.95"/>
<polygon fill="#63b8ff" stroke="#63b8ff" points="1218.89,-321.93 1211.58,-314.26 1212.52,-324.81 1218.89,-321.93"/>
</g>
<!-- Node35 -->
<g id="node36" class="node">
<title>Node35</title>
<g id="a_node36"><a xlink:href="dd/df6/class_translator_chinesetraditional.html" target="_top" xlink:title=" ">
<polygon fill="white" stroke="#666666" points="1468,-444 1314,-444 1314,-425 1468,-425 1468,-444"/>
<text text-anchor="middle" x="1391" y="-432" font-family="Helvetica,sans-Serif" font-size="10.00">TranslatorChinesetraditional</text>
</a>
</g>
</g>
<!-- Node7&#45;&gt;Node35 -->
<g id="edge35" class="edge">
<title>Node7&#45;&gt;Node35</title>
<path fill="none" stroke="#63b8ff" d="M1219.88,-322.77C1237.71,-347.63 1273.03,-391.74 1314,-415.5 1320.71,-419.39 1328.19,-422.49 1335.78,-424.96"/>
<polygon fill="#63b8ff" stroke="#63b8ff" points="1222.53,-320.45 1213.93,-314.26 1216.79,-324.46 1222.53,-320.45"/>
</g>
<!-- Node36 -->
<g id="node37" class="node">
<title>Node36</title>
<g id="a_node37"><a xlink:href="d6/d07/class_translator_german.html" target="_top" xlink:title=" ">
<polygon fill="white" stroke="#666666" points="1443,-407 1339,-407 1339,-388 1443,-388 1443,-407"/>
<text text-anchor="middle" x="1391" y="-395" font-family="Helvetica,sans-Serif" font-size="10.00">TranslatorGerman</text>
</a>
</g>
</g>
<!-- Node7&#45;&gt;Node36 -->
<g id="edge36" class="edge">
<title>Node7&#45;&gt;Node36</title>
<path fill="none" stroke="#63b8ff" d="M1226.32,-320.77C1246.65,-337.56 1280.63,-363.35 1314,-378.5 1322.42,-382.32 1331.73,-385.46 1340.86,-387.99"/>
<polygon fill="#63b8ff" stroke="#63b8ff" points="1228.39,-317.94 1218.48,-314.19 1223.89,-323.3 1228.39,-317.94"/>
</g>
<!-- Node37 -->
<g id="node38" class="node">
<title>Node37</title>
<g id="a_node38"><a xlink:href="db/d5f/class_translator_hungarian.html" target="_top" xlink:title=" ">
<polygon fill="white" stroke="#666666" points="1448.5,-370 1333.5,-370 1333.5,-351 1448.5,-351 1448.5,-370"/>
<text text-anchor="middle" x="1391" y="-358" font-family="Helvetica,sans-Serif" font-size="10.00">TranslatorHungarian</text>
</a>
</g>
</g>
<!-- Node7&#45;&gt;Node37 -->
<g id="edge37" class="edge">
<title>Node7&#45;&gt;Node37</title>
<path fill="none" stroke="#63b8ff" d="M1242.72,-317.62C1263.35,-325.09 1289.98,-334.34 1314,-341.5 1325.21,-344.84 1337.46,-348.08 1348.8,-350.91"/>
<polygon fill="#63b8ff" stroke="#63b8ff" points="1243.71,-314.26 1233.11,-314.12 1241.31,-320.84 1243.71,-314.26"/>
</g>
<!-- Node38 -->
<g id="node39" class="node">
<title>Node38</title>
<g id="a_node39"><a xlink:href="d2/df8/class_translator_italian.html" target="_top" xlink:title=" ">
<polygon fill="white" stroke="#666666" points="1438.5,-333 1343.5,-333 1343.5,-314 1438.5,-314 1438.5,-333"/>
<text text-anchor="middle" x="1391" y="-321" font-family="Helvetica,sans-Serif" font-size="10.00">TranslatorItalian</text>
</a>
</g>
</g>
<!-- Node7&#45;&gt;Node38 -->
<g id="edge38" class="edge">
<title>Node7&#45;&gt;Node38</title>
<path fill="none" stroke="#63b8ff" d="M1288.15,-312.9C1307.01,-314.86 1326.48,-316.89 1343.29,-318.64"/>
<polygon fill="#63b8ff" stroke="#63b8ff" points="1288.37,-309.4 1278.06,-311.85 1287.64,-316.36 1288.37,-309.4"/>
</g>
<!-- Node39 -->
<g id="node40" class="node">
<title>Node39</title>
<g id="a_node40"><a xlink:href="d1/d6a/class_translator_japanese.html" target="_top" xlink:title=" ">
<polygon fill="white" stroke="#666666" points="1445.5,-296 1336.5,-296 1336.5,-277 1445.5,-277 1445.5,-296"/>
<text text-anchor="middle" x="1391" y="-284" font-family="Helvetica,sans-Serif" font-size="10.00">TranslatorJapanese</text>
</a>
</g>
</g>
<!-- Node7&#45;&gt;Node39 -->
<g id="edge39" class="edge">
<title>Node7&#45;&gt;Node39</title>
<path fill="none" stroke="#63b8ff" d="M1288.14,-296.55C1304.45,-294.94 1321.22,-293.28 1336.33,-291.79"/>
<polygon fill="#63b8ff" stroke="#63b8ff" points="1287.67,-293.08 1278.06,-297.54 1288.35,-300.04 1287.67,-293.08"/>
</g>
<!-- Node40 -->
<g id="node41" class="node">
<title>Node40</title>
<g id="a_node41"><a xlink:href="db/dcc/class_translator_korean.html" target="_top" xlink:title=" ">
<polygon fill="white" stroke="#666666" points="1440,-259 1342,-259 1342,-240 1440,-240 1440,-259"/>
<text text-anchor="middle" x="1391" y="-247" font-family="Helvetica,sans-Serif" font-size="10.00">TranslatorKorean</text>
</a>
</g>
</g>
<!-- Node7&#45;&gt;Node40 -->
<g id="edge40" class="edge">
<title>Node7&#45;&gt;Node40</title>
<path fill="none" stroke="#63b8ff" d="M1242.27,-291.41C1262.94,-283.89 1289.78,-274.56 1314,-267.5 1324.41,-264.47 1335.74,-261.57 1346.39,-259.02"/>
<polygon fill="#63b8ff" stroke="#63b8ff" points="1240.84,-288.21 1232.66,-294.95 1243.25,-294.78 1240.84,-288.21"/>
</g>
<!-- Node41 -->
<g id="node42" class="node">
<title>Node41</title>
<g id="a_node42"><a xlink:href="da/d32/class_translator_romanian.html" target="_top" xlink:title=" ">
<polygon fill="white" stroke="#666666" points="1448,-222 1334,-222 1334,-203 1448,-203 1448,-222"/>
<text text-anchor="middle" x="1391" y="-210" font-family="Helvetica,sans-Serif" font-size="10.00">TranslatorRomanian</text>
</a>
</g>
</g>
<!-- Node7&#45;&gt;Node41 -->
<g id="edge41" class="edge">
<title>Node7&#45;&gt;Node41</title>
<path fill="none" stroke="#63b8ff" d="M1226.28,-288.14C1246.58,-271.29 1280.54,-245.44 1314,-230.5 1321.55,-227.13 1329.82,-224.34 1338.04,-222.05"/>
<polygon fill="#63b8ff" stroke="#63b8ff" points="1223.83,-285.63 1218.46,-294.76 1228.35,-290.97 1223.83,-285.63"/>
</g>
<!-- Node42 -->
<g id="node43" class="node">
<title>Node42</title>
<g id="a_node43"><a xlink:href="d0/dab/class_translator_russian.html" target="_top" xlink:title=" ">
<polygon fill="white" stroke="#666666" points="1442.5,-185 1339.5,-185 1339.5,-166 1442.5,-166 1442.5,-185"/>
<text text-anchor="middle" x="1391" y="-173" font-family="Helvetica,sans-Serif" font-size="10.00">TranslatorRussian</text>
</a>
</g>
</g>
<!-- Node7&#45;&gt;Node42 -->
<g id="edge42" class="edge">
<title>Node7&#45;&gt;Node42</title>
<path fill="none" stroke="#63b8ff" d="M1219.84,-286.16C1237.62,-261.21 1272.88,-217.01 1314,-193.5 1321.77,-189.06 1330.58,-185.71 1339.39,-183.19"/>
<polygon fill="#63b8ff" stroke="#63b8ff" points="1216.74,-284.49 1213.9,-294.69 1222.49,-288.48 1216.74,-284.49"/>
</g>
<!-- Node43 -->
<g id="node44" class="node">
<title>Node43</title>
<g id="a_node44"><a xlink:href="d2/d53/class_translator_slovak.html" target="_top" xlink:title=" ">
<polygon fill="white" stroke="#666666" points="1440,-148 1342,-148 1342,-129 1440,-129 1440,-148"/>
<text text-anchor="middle" x="1391" y="-136" font-family="Helvetica,sans-Serif" font-size="10.00">TranslatorSlovak</text>
</a>
</g>
</g>
<!-- Node7&#45;&gt;Node43 -->
<g id="edge43" class="edge">
<title>Node7&#45;&gt;Node43</title>
<path fill="none" stroke="#63b8ff" d="M1215.66,-285.57C1230.4,-253.69 1264.62,-189.55 1314,-156.5 1322.23,-150.99 1331.94,-147.17 1341.63,-144.5"/>
<polygon fill="#63b8ff" stroke="#63b8ff" points="1212.46,-284.15 1211.56,-294.7 1218.84,-287.01 1212.46,-284.15"/>
</g>
<!-- Node9 -->
<g id="node10" class="node">
<title>Node9</title>
<g id="a_node10"><a xlink:href="d2/d75/class_translator_adapter__1__8__2.html" target="_top" xlink:title=" ">
<polygon fill="white" stroke="#666666" points="1641,-536 1504,-536 1504,-517 1641,-517 1641,-536"/>
<text text-anchor="middle" x="1572.5" y="-524" font-family="Helvetica,sans-Serif" font-size="10.00">TranslatorAdapter_1_8_2</text>
</a>
</g>
</g>
<!-- Node8&#45;&gt;Node9 -->
<g id="edge9" class="edge">
<title>Node8&#45;&gt;Node9</title>
<path fill="none" stroke="#63b8ff" d="M1430.67,-484.32C1452.2,-491.35 1479.52,-500.12 1504,-507.5 1514.61,-510.7 1526.2,-514.02 1536.74,-516.98"/>
<polygon fill="#63b8ff" stroke="#63b8ff" points="1431.51,-480.91 1420.92,-481.12 1429.33,-487.56 1431.51,-480.91"/>
</g>
<!-- Node32 -->
<g id="node33" class="node">
<title>Node32</title>
<g id="a_node33"><a xlink:href="d2/d07/class_translator_esperanto.html" target="_top" xlink:title=" ">
<polygon fill="white" stroke="#666666" points="1629,-499 1516,-499 1516,-480 1629,-480 1629,-499"/>
<text text-anchor="middle" x="1572.5" y="-487" font-family="Helvetica,sans-Serif" font-size="10.00">TranslatorEsperanto</text>
</a>
</g>
</g>
<!-- Node8&#45;&gt;Node32 -->
<g id="edge32" class="edge">
<title>Node8&#45;&gt;Node32</title>
<path fill="none" stroke="#63b8ff" d="M1469.73,-479.3C1485.29,-480.85 1501.33,-482.46 1515.95,-483.93"/>
<polygon fill="#63b8ff" stroke="#63b8ff" points="1469.9,-475.79 1459.61,-478.28 1469.21,-482.76 1469.9,-475.79"/>
</g>
<!-- Node33 -->
<g id="node34" class="node">
<title>Node33</title>
<g id="a_node34"><a xlink:href="d8/d83/class_translator_latvian.html" target="_top" xlink:title=" ">
<polygon fill="white" stroke="#666666" points="1623,-462 1522,-462 1522,-443 1623,-443 1623,-462"/>
<text text-anchor="middle" x="1572.5" y="-450" font-family="Helvetica,sans-Serif" font-size="10.00">TranslatorLatvian</text>
</a>
</g>
</g>
<!-- Node8&#45;&gt;Node33 -->
<g id="edge33" class="edge">
<title>Node8&#45;&gt;Node33</title>
<path fill="none" stroke="#63b8ff" d="M1469.89,-463.26C1487.52,-461.39 1505.78,-459.46 1521.86,-457.75"/>
<polygon fill="#63b8ff" stroke="#63b8ff" points="1469.18,-459.81 1459.61,-464.34 1469.92,-466.77 1469.18,-459.81"/>
</g>
<!-- Node34 -->
<g id="node35" class="node">
<title>Node34</title>
<g id="a_node35"><a xlink:href="d1/d56/class_translator_ukrainian.html" target="_top" xlink:title=" ">
<polygon fill="white" stroke="#666666" points="1628.5,-425 1516.5,-425 1516.5,-406 1628.5,-406 1628.5,-425"/>
<text text-anchor="middle" x="1572.5" y="-413" font-family="Helvetica,sans-Serif" font-size="10.00">TranslatorUkrainian</text>
</a>
</g>
</g>
<!-- Node8&#45;&gt;Node34 -->
<g id="edge34" class="edge">
<title>Node8&#45;&gt;Node34</title>
<path fill="none" stroke="#63b8ff" d="M1447.94,-459.16C1454.77,-457.17 1461.6,-454.95 1468,-452.5 1484.9,-446.04 1487.15,-440.09 1504,-433.5 1512.13,-430.32 1521.03,-427.5 1529.62,-425.1"/>
<polygon fill="#63b8ff" stroke="#63b8ff" points="1446.68,-455.87 1437.96,-461.9 1448.54,-462.62 1446.68,-455.87"/>
</g>
<!-- Node10 -->
<g id="node11" class="node">
<title>Node10</title>
<g id="a_node11"><a xlink:href="de/d49/class_translator_adapter__1__8__0.html" target="_top" xlink:title="Adapter class for languages that only contain translations up to version 1.8.0.">
<polygon fill="white" stroke="#666666" points="1814,-573 1677,-573 1677,-554 1814,-554 1814,-573"/>
<text text-anchor="middle" x="1745.5" y="-561" font-family="Helvetica,sans-Serif" font-size="10.00">TranslatorAdapter_1_8_0</text>
</a>
</g>
</g>
<!-- Node9&#45;&gt;Node10 -->
<g id="edge10" class="edge">
<title>Node9&#45;&gt;Node10</title>
<path fill="none" stroke="#63b8ff" d="M1627.35,-538.15C1650.84,-543.23 1678.04,-549.12 1700.32,-553.94"/>
<polygon fill="#63b8ff" stroke="#63b8ff" points="1628.05,-534.72 1617.54,-536.03 1626.57,-541.56 1628.05,-534.72"/>
</g>
<!-- Node30 -->
<g id="node31" class="node">
<title>Node30</title>
<g id="a_node31"><a xlink:href="d9/d82/class_translator_croatian.html" target="_top" xlink:title=" ">
<polygon fill="white" stroke="#666666" points="1798.5,-536 1692.5,-536 1692.5,-517 1798.5,-517 1798.5,-536"/>
<text text-anchor="middle" x="1745.5" y="-524" font-family="Helvetica,sans-Serif" font-size="10.00">TranslatorCroatian</text>
</a>
</g>
</g>
<!-- Node9&#45;&gt;Node30 -->
<g id="edge30" class="edge">
<title>Node9&#45;&gt;Node30</title>
<path fill="none" stroke="#63b8ff" d="M1651.19,-526.5C1665.16,-526.5 1679.41,-526.5 1692.44,-526.5"/>
<polygon fill="#63b8ff" stroke="#63b8ff" points="1651.08,-523 1641.08,-526.5 1651.08,-530 1651.08,-523"/>
</g>
<!-- Node31 -->
<g id="node32" class="node">
<title>Node31</title>
<g id="a_node32"><a xlink:href="de/d82/class_translator_polish.html" target="_top" xlink:title=" ">
<polygon fill="white" stroke="#666666" points="1792.5,-499 1698.5,-499 1698.5,-480 1792.5,-480 1792.5,-499"/>
<text text-anchor="middle" x="1745.5" y="-487" font-family="Helvetica,sans-Serif" font-size="10.00">TranslatorPolish</text>
</a>
</g>
</g>
<!-- Node9&#45;&gt;Node31 -->
<g id="edge31" class="edge">
<title>Node9&#45;&gt;Node31</title>
<path fill="none" stroke="#63b8ff" d="M1627.35,-514.85C1650.84,-509.77 1678.04,-503.88 1700.32,-499.06"/>
<polygon fill="#63b8ff" stroke="#63b8ff" points="1626.57,-511.44 1617.54,-516.97 1628.05,-518.28 1626.57,-511.44"/>
</g>
<!-- Node11 -->
<g id="node12" class="node">
<title>Node11</title>
<g id="a_node12"><a xlink:href="da/d24/class_translator_adapter__1__7__5.html" target="_top" xlink:title="Adapter class for languages that only contain translations up to version 1.7.5.">
<polygon fill="white" stroke="#666666" points="1987,-647 1850,-647 1850,-628 1987,-628 1987,-647"/>
<text text-anchor="middle" x="1918.5" y="-635" font-family="Helvetica,sans-Serif" font-size="10.00">TranslatorAdapter_1_7_5</text>
</a>
</g>
</g>
<!-- Node10&#45;&gt;Node11 -->
<g id="edge11" class="edge">
<title>Node10&#45;&gt;Node11</title>
<path fill="none" stroke="#63b8ff" d="M1770.82,-578.34C1791.35,-590.4 1821.83,-607.2 1850,-618.5 1858.93,-622.08 1868.77,-625.26 1878.12,-627.95"/>
<polygon fill="#63b8ff" stroke="#63b8ff" points="1772.51,-575.27 1762.13,-573.17 1768.93,-581.29 1772.51,-575.27"/>
</g>
<!-- Node26 -->
<g id="node27" class="node">
<title>Node26</title>
<g id="a_node27"><a xlink:href="da/db8/class_translator_armenian.html" target="_top" xlink:title=" ">
<polygon fill="white" stroke="#666666" points="1974.5,-610 1862.5,-610 1862.5,-591 1974.5,-591 1974.5,-610"/>
<text text-anchor="middle" x="1918.5" y="-598" font-family="Helvetica,sans-Serif" font-size="10.00">TranslatorArmenian</text>
</a>
</g>
</g>
<!-- Node10&#45;&gt;Node26 -->
<g id="edge26" class="edge">
<title>Node10&#45;&gt;Node26</title>
<path fill="none" stroke="#63b8ff" d="M1800.35,-575.15C1823.84,-580.23 1851.04,-586.12 1873.32,-590.94"/>
<polygon fill="#63b8ff" stroke="#63b8ff" points="1801.05,-571.72 1790.54,-573.03 1799.57,-578.56 1801.05,-571.72"/>
</g>
<!-- Node27 -->
<g id="node28" class="node">
<title>Node27</title>
<g id="a_node28"><a xlink:href="d9/dc1/class_translator_catalan.html" target="_top" xlink:title=" ">
<polygon fill="white" stroke="#666666" points="1969.5,-573 1867.5,-573 1867.5,-554 1969.5,-554 1969.5,-573"/>
<text text-anchor="middle" x="1918.5" y="-561" font-family="Helvetica,sans-Serif" font-size="10.00">TranslatorCatalan</text>
</a>
</g>
</g>
<!-- Node10&#45;&gt;Node27 -->
<g id="edge27" class="edge">
<title>Node10&#45;&gt;Node27</title>
<path fill="none" stroke="#63b8ff" d="M1824.15,-563.5C1838.8,-563.5 1853.76,-563.5 1867.28,-563.5"/>
<polygon fill="#63b8ff" stroke="#63b8ff" points="1824.08,-560 1814.08,-563.5 1824.08,-567 1824.08,-560"/>
</g>
<!-- Node28 -->
<g id="node29" class="node">
<title>Node28</title>
<g id="a_node29"><a xlink:href="d7/d21/class_translator_danish.html" target="_top" xlink:title=" ">
<polygon fill="white" stroke="#666666" points="1967.5,-536 1869.5,-536 1869.5,-517 1967.5,-517 1967.5,-536"/>
<text text-anchor="middle" x="1918.5" y="-524" font-family="Helvetica,sans-Serif" font-size="10.00">TranslatorDanish</text>
</a>
</g>
</g>
<!-- Node10&#45;&gt;Node28 -->
<g id="edge28" class="edge">
<title>Node10&#45;&gt;Node28</title>
<path fill="none" stroke="#63b8ff" d="M1800.35,-551.85C1823.84,-546.77 1851.04,-540.88 1873.32,-536.06"/>
<polygon fill="#63b8ff" stroke="#63b8ff" points="1799.57,-548.44 1790.54,-553.97 1801.05,-555.28 1799.57,-548.44"/>
</g>
<!-- Node29 -->
<g id="node30" class="node">
<title>Node29</title>
<g id="a_node30"><a xlink:href="df/dc8/class_translator_indonesian.html" target="_top" xlink:title=" ">
<polygon fill="white" stroke="#666666" points="1977.5,-499 1859.5,-499 1859.5,-480 1977.5,-480 1977.5,-499"/>
<text text-anchor="middle" x="1918.5" y="-487" font-family="Helvetica,sans-Serif" font-size="10.00">TranslatorIndonesian</text>
</a>
</g>
</g>
<!-- Node10&#45;&gt;Node29 -->
<g id="edge29" class="edge">
<title>Node10&#45;&gt;Node29</title>
<path fill="none" stroke="#63b8ff" d="M1802.42,-550.32C1806.44,-548.6 1810.35,-546.67 1814,-544.5 1833.72,-532.77 1830.2,-519.1 1850,-507.5 1855.86,-504.07 1862.39,-501.28 1869.01,-499.01"/>
<polygon fill="#63b8ff" stroke="#63b8ff" points="1800.97,-547.13 1792.86,-553.95 1803.46,-553.67 1800.97,-547.13"/>
</g>
<!-- Node12 -->
<g id="node13" class="node">
<title>Node12</title>
<g id="a_node13"><a xlink:href="d3/da1/class_translator_adapter__1__6__0.html" target="_top" xlink:title="Adapter class for languages that only contain translations up to version 1.6.0.">
<polygon fill="white" stroke="#666666" points="2160,-684 2023,-684 2023,-665 2160,-665 2160,-684"/>
<text text-anchor="middle" x="2091.5" y="-672" font-family="Helvetica,sans-Serif" font-size="10.00">TranslatorAdapter_1_6_0</text>
</a>
</g>
</g>
<!-- Node11&#45;&gt;Node12 -->
<g id="edge12" class="edge">
<title>Node11&#45;&gt;Node12</title>
<path fill="none" stroke="#63b8ff" d="M1973.35,-649.15C1996.84,-654.23 2024.04,-660.12 2046.32,-664.94"/>
<polygon fill="#63b8ff" stroke="#63b8ff" points="1974.05,-645.72 1963.54,-647.03 1972.57,-652.56 1974.05,-645.72"/>
</g>
<!-- Node24 -->
<g id="node25" class="node">
<title>Node24</title>
<g id="a_node25"><a xlink:href="d5/d43/class_translator_persian.html" target="_top" xlink:title=" ">
<polygon fill="white" stroke="#666666" points="2142,-647 2041,-647 2041,-628 2142,-628 2142,-647"/>
<text text-anchor="middle" x="2091.5" y="-635" font-family="Helvetica,sans-Serif" font-size="10.00">TranslatorPersian</text>
</a>
</g>
</g>
<!-- Node11&#45;&gt;Node24 -->
<g id="edge24" class="edge">
<title>Node11&#45;&gt;Node24</title>
<path fill="none" stroke="#63b8ff" d="M1997.26,-637.5C2012.06,-637.5 2027.18,-637.5 2040.81,-637.5"/>
<polygon fill="#63b8ff" stroke="#63b8ff" points="1997.08,-634 1987.08,-637.5 1997.08,-641 1997.08,-634"/>
</g>
<!-- Node25 -->
<g id="node26" class="node">
<title>Node25</title>
<g id="a_node26"><a xlink:href="dd/d80/class_translator_turkish.html" target="_top" xlink:title=" ">
<polygon fill="white" stroke="#666666" points="2141,-610 2042,-610 2042,-591 2141,-591 2141,-610"/>
<text text-anchor="middle" x="2091.5" y="-598" font-family="Helvetica,sans-Serif" font-size="10.00">TranslatorTurkish</text>
</a>
</g>
</g>
<!-- Node11&#45;&gt;Node25 -->
<g id="edge25" class="edge">
<title>Node11&#45;&gt;Node25</title>
<path fill="none" stroke="#63b8ff" d="M1973.35,-625.85C1996.84,-620.77 2024.04,-614.88 2046.32,-610.06"/>
<polygon fill="#63b8ff" stroke="#63b8ff" points="1972.57,-622.44 1963.54,-627.97 1974.05,-629.28 1972.57,-622.44"/>
</g>
<!-- Node13 -->
<g id="node14" class="node">
<title>Node13</title>
<g id="a_node14"><a xlink:href="d4/d2b/class_translator_adapter__1__4__6.html" target="_top" xlink:title="Adapter class for languages that only contain translations up to version 1.4.6.">
<polygon fill="white" stroke="#666666" points="2333,-795 2196,-795 2196,-776 2333,-776 2333,-795"/>
<text text-anchor="middle" x="2264.5" y="-783" font-family="Helvetica,sans-Serif" font-size="10.00">TranslatorAdapter_1_4_6</text>
</a>
</g>
</g>
<!-- Node12&#45;&gt;Node13 -->
<g id="edge13" class="edge">
<title>Node12&#45;&gt;Node13</title>
<path fill="none" stroke="#63b8ff" d="M2107.01,-691.8C2125.54,-712.78 2159.59,-747.79 2196,-767.5 2202.29,-770.91 2209.27,-773.7 2216.28,-775.98"/>
<polygon fill="#63b8ff" stroke="#63b8ff" points="2109.46,-689.28 2100.27,-684 2104.17,-693.86 2109.46,-689.28"/>
</g>
<!-- Node18 -->
<g id="node19" class="node">
<title>Node18</title>
<g id="a_node19"><a xlink:href="d3/d65/class_translator_afrikaans.html" target="_top" xlink:title=" ">
<polygon fill="white" stroke="#666666" points="2319.5,-758 2209.5,-758 2209.5,-739 2319.5,-739 2319.5,-758"/>
<text text-anchor="middle" x="2264.5" y="-746" font-family="Helvetica,sans-Serif" font-size="10.00">TranslatorAfrikaans</text>
</a>
</g>
</g>
<!-- Node12&#45;&gt;Node18 -->
<g id="edge18" class="edge">
<title>Node12&#45;&gt;Node18</title>
<path fill="none" stroke="#63b8ff" d="M2116.03,-689.31C2136.52,-701.7 2167.35,-719.11 2196,-730.5 2204.11,-733.73 2213,-736.56 2221.59,-738.97"/>
<polygon fill="#63b8ff" stroke="#63b8ff" points="2117.74,-686.26 2107.39,-684.01 2114.08,-692.22 2117.74,-686.26"/>
</g>
<!-- Node19 -->
<g id="node20" class="node">
<title>Node19</title>
<g id="a_node20"><a xlink:href="de/df7/class_translator_finnish.html" target="_top" xlink:title=" ">
<polygon fill="white" stroke="#666666" points="2314,-721 2215,-721 2215,-702 2314,-702 2314,-721"/>
<text text-anchor="middle" x="2264.5" y="-709" font-family="Helvetica,sans-Serif" font-size="10.00">TranslatorFinnish</text>
</a>
</g>
</g>
<!-- Node12&#45;&gt;Node19 -->
<g id="edge19" class="edge">
<title>Node12&#45;&gt;Node19</title>
<path fill="none" stroke="#63b8ff" d="M2146.35,-686.15C2169.84,-691.23 2197.04,-697.12 2219.32,-701.94"/>
<polygon fill="#63b8ff" stroke="#63b8ff" points="2147.05,-682.72 2136.54,-684.03 2145.57,-689.56 2147.05,-682.72"/>
</g>
<!-- Node20 -->
<g id="node21" class="node">
<title>Node20</title>
<g id="a_node21"><a xlink:href="d9/ddf/class_translator_macedonian.html" target="_top" xlink:title=" ">
<polygon fill="white" stroke="#666666" points="2326.5,-684 2202.5,-684 2202.5,-665 2326.5,-665 2326.5,-684"/>
<text text-anchor="middle" x="2264.5" y="-672" font-family="Helvetica,sans-Serif" font-size="10.00">TranslatorMacedonian</text>
</a>
</g>
</g>
<!-- Node12&#45;&gt;Node20 -->
<g id="edge20" class="edge">
<title>Node12&#45;&gt;Node20</title>
<path fill="none" stroke="#63b8ff" d="M2170.28,-674.5C2181,-674.5 2191.88,-674.5 2202.24,-674.5"/>
<polygon fill="#63b8ff" stroke="#63b8ff" points="2170.08,-671 2160.08,-674.5 2170.08,-678 2170.08,-671"/>
</g>
<!-- Node21 -->
<g id="node22" class="node">
<title>Node21</title>
<g id="a_node22"><a xlink:href="d5/d0a/class_translator_serbian.html" target="_top" xlink:title=" ">
<polygon fill="white" stroke="#666666" points="2315,-647 2214,-647 2214,-628 2315,-628 2315,-647"/>
<text text-anchor="middle" x="2264.5" y="-635" font-family="Helvetica,sans-Serif" font-size="10.00">TranslatorSerbian</text>
</a>
</g>
</g>
<!-- Node12&#45;&gt;Node21 -->
<g id="edge21" class="edge">
<title>Node12&#45;&gt;Node21</title>
<path fill="none" stroke="#63b8ff" d="M2146.35,-662.85C2169.84,-657.77 2197.04,-651.88 2219.32,-647.06"/>
<polygon fill="#63b8ff" stroke="#63b8ff" points="2145.57,-659.44 2136.54,-664.97 2147.05,-666.28 2145.57,-659.44"/>
</g>
<!-- Node22 -->
<g id="node23" class="node">
<title>Node22</title>
<g id="a_node23"><a xlink:href="dc/d03/class_translator_serbian_cyrillic.html" target="_top" xlink:title=" ">
<polygon fill="white" stroke="#666666" points="2332,-610 2197,-610 2197,-591 2332,-591 2332,-610"/>
<text text-anchor="middle" x="2264.5" y="-598" font-family="Helvetica,sans-Serif" font-size="10.00">TranslatorSerbianCyrillic</text>
</a>
</g>
</g>
<!-- Node12&#45;&gt;Node22 -->
<g id="edge22" class="edge">
<title>Node12&#45;&gt;Node22</title>
<path fill="none" stroke="#63b8ff" d="M2148.42,-661.32C2152.44,-659.6 2156.35,-657.67 2160,-655.5 2179.72,-643.77 2176.2,-630.1 2196,-618.5 2201.86,-615.07 2208.39,-612.28 2215.01,-610.01"/>
<polygon fill="#63b8ff" stroke="#63b8ff" points="2146.97,-658.13 2138.86,-664.95 2149.46,-664.67 2146.97,-658.13"/>
</g>
<!-- Node23 -->
<g id="node24" class="node">
<title>Node23</title>
<g id="a_node24"><a xlink:href="df/d20/class_translator_vietnamese.html" target="_top" xlink:title=" ">
<polygon fill="white" stroke="#666666" points="2326,-573 2203,-573 2203,-554 2326,-554 2326,-573"/>
<text text-anchor="middle" x="2264.5" y="-561" font-family="Helvetica,sans-Serif" font-size="10.00">TranslatorVietnamese</text>
</a>
</g>
</g>
<!-- Node12&#45;&gt;Node23 -->
<g id="edge23" class="edge">
<title>Node12&#45;&gt;Node23</title>
<path fill="none" stroke="#63b8ff" d="M2153.48,-660.18C2155.77,-658.76 2157.96,-657.21 2160,-655.5 2188.06,-632.04 2167.78,-604.76 2196,-581.5 2200.12,-578.11 2204.81,-575.35 2209.77,-573.1"/>
<polygon fill="#63b8ff" stroke="#63b8ff" points="2151.48,-657.27 2144.21,-664.97 2154.7,-663.49 2151.48,-657.27"/>
</g>
<!-- Node14 -->
<g id="node15" class="node">
<title>Node14</title>
<g id="a_node15"><a xlink:href="d3/de9/class_translator_arabic.html" target="_top" xlink:title=" ">
<polygon fill="white" stroke="#666666" points="2475,-850 2380,-850 2380,-831 2475,-831 2475,-850"/>
<text text-anchor="middle" x="2427.5" y="-838" font-family="Helvetica,sans-Serif" font-size="10.00">TranslatorArabic</text>
</a>
</g>
</g>
<!-- Node13&#45;&gt;Node14 -->
<g id="edge14" class="edge">
<title>Node13&#45;&gt;Node14</title>
<path fill="none" stroke="#63b8ff" d="M2300.94,-798.57C2320.87,-805.81 2346.25,-814.88 2369,-822.5 2377.43,-825.33 2386.6,-828.26 2395.09,-830.92"/>
<polygon fill="#63b8ff" stroke="#63b8ff" points="2301.94,-795.2 2291.35,-795.06 2299.54,-801.78 2301.94,-795.2"/>
</g>
<!-- Node15 -->
<g id="node16" class="node">
<title>Node15</title>
<g id="a_node16"><a xlink:href="dc/d53/class_translator_lithuanian.html" target="_top" xlink:title=" ">
<polygon fill="white" stroke="#666666" points="2485.5,-813 2369.5,-813 2369.5,-794 2485.5,-794 2485.5,-813"/>
<text text-anchor="middle" x="2427.5" y="-801" font-family="Helvetica,sans-Serif" font-size="10.00">TranslatorLithuanian</text>
</a>
</g>
</g>
<!-- Node13&#45;&gt;Node15 -->
<g id="edge15" class="edge">
<title>Node13&#45;&gt;Node15</title>
<path fill="none" stroke="#63b8ff" d="M2343.53,-794.22C2352.27,-795.2 2361.05,-796.18 2369.46,-797.12"/>
<polygon fill="#63b8ff" stroke="#63b8ff" points="2343.64,-790.71 2333.31,-793.08 2342.86,-797.67 2343.64,-790.71"/>
</g>
<!-- Node16 -->
<g id="node17" class="node">
<title>Node16</title>
<g id="a_node17"><a xlink:href="dd/d38/class_translator_norwegian.html" target="_top" xlink:title=" ">
<polygon fill="white" stroke="#666666" points="2486,-776 2369,-776 2369,-757 2486,-757 2486,-776"/>
<text text-anchor="middle" x="2427.5" y="-764" font-family="Helvetica,sans-Serif" font-size="10.00">TranslatorNorwegian</text>
</a>
</g>
</g>
<!-- Node13&#45;&gt;Node16 -->
<g id="edge16" class="edge">
<title>Node13&#45;&gt;Node16</title>
<path fill="none" stroke="#63b8ff" d="M2343.38,-776.31C2352,-775.29 2360.66,-774.27 2368.96,-773.29"/>
<polygon fill="#63b8ff" stroke="#63b8ff" points="2342.83,-772.85 2333.31,-777.5 2343.65,-779.8 2342.83,-772.85"/>
</g>
<!-- Node17 -->
<g id="node18" class="node">
<title>Node17</title>
<g id="a_node18"><a xlink:href="dd/d0b/class_translator_slovene.html" target="_top" xlink:title=" ">
<polygon fill="white" stroke="#666666" points="2479.5,-739 2375.5,-739 2375.5,-720 2479.5,-720 2479.5,-739"/>
<text text-anchor="middle" x="2427.5" y="-727" font-family="Helvetica,sans-Serif" font-size="10.00">TranslatorSlovene</text>
</a>
</g>
</g>
<!-- Node13&#45;&gt;Node17 -->
<g id="edge17" class="edge">
<title>Node13&#45;&gt;Node17</title>
<path fill="none" stroke="#63b8ff" d="M2317.12,-773.03C2322.54,-771.34 2327.92,-769.49 2333,-767.5 2349.85,-760.91 2352.35,-755.58 2369,-748.5 2377.13,-745.04 2386.11,-741.81 2394.51,-739.02"/>
<polygon fill="#63b8ff" stroke="#63b8ff" points="2315.98,-769.71 2307.38,-775.9 2317.96,-776.43 2315.98,-769.71"/>
</g>
<!-- Node55 -->
<g id="node56" class="node">
<title>Node55</title>
<g id="a_node56"><a xlink:href="d0/d16/class_translator_japanese_en.html" target="_top" xlink:title=" ">
<polygon fill="white" stroke="#666666" points="393,-75 272,-75 272,-56 393,-56 393,-75"/>
<text text-anchor="middle" x="332.5" y="-63" font-family="Helvetica,sans-Serif" font-size="10.00">TranslatorJapaneseEn</text>
</a>
</g>
</g>
<!-- Node54&#45;&gt;Node55 -->
<g id="edge55" class="edge">
<title>Node54&#45;&gt;Node55</title>
<path fill="none" stroke="#63b8ff" d="M225.15,-53.33C240.31,-55.06 256.6,-56.93 271.77,-58.66"/>
<polygon fill="#63b8ff" stroke="#63b8ff" points="225.19,-49.81 214.86,-52.15 224.39,-56.76 225.19,-49.81"/>
</g>
<!-- Node56 -->
<g id="node57" class="node">
<title>Node56</title>
<g id="a_node57"><a xlink:href="d0/d3a/class_translator_korean_en.html" target="_top" xlink:title=" ">
<polygon fill="white" stroke="#666666" points="387.5,-38 277.5,-38 277.5,-19 387.5,-19 387.5,-38"/>
<text text-anchor="middle" x="332.5" y="-26" font-family="Helvetica,sans-Serif" font-size="10.00">TranslatorKoreanEn</text>
</a>
</g>
</g>
<!-- Node54&#45;&gt;Node56 -->
<g id="edge56" class="edge">
<title>Node54&#45;&gt;Node56</title>
<path fill="none" stroke="#63b8ff" d="M225.25,-40.02C242.28,-38.17 260.73,-36.17 277.41,-34.37"/>
<polygon fill="#63b8ff" stroke="#63b8ff" points="224.42,-36.59 214.86,-41.15 225.18,-43.55 224.42,-36.59"/>
</g>
</g>
</svg>
