<?xml version="1.0" encoding="UTF-8" standalone="no"?>
<!DOCTYPE svg PUBLIC "-//W3C//DTD SVG 1.1//EN"
 "http://www.w3.org/Graphics/SVG/1.1/DTD/svg11.dtd">
<!-- Generated by graphviz version 2.43.0 (0)
 -->
<!-- Title: Graphical Class Hierarchy Pages: 1 -->
<svg width="330pt" height="286pt"
 viewBox="0.00 0.00 330.00 286.00" xmlns="http://www.w3.org/2000/svg" xmlns:xlink="http://www.w3.org/1999/xlink">
<g id="graph0" class="graph" transform="scale(1 1) rotate(0) translate(4 282)">
<title>Graphical Class Hierarchy</title>
<!-- Node0 -->
<g id="node1" class="node">
<title>Node0</title>
<g id="a_node1"><a xlink:href="db/d75/structfmt_1_1formatter.html" target="_top" xlink:title=" ">
<polygon fill="white" stroke="#666666" points="113,-153.5 0,-153.5 0,-123.5 113,-123.5 113,-153.5"/>
<text text-anchor="start" x="8" y="-141.5" font-family="Helvetica,sans-Serif" font-size="10.00">fmt::formatter&lt; std</text>
<text text-anchor="middle" x="56.5" y="-130.5" font-family="Helvetica,sans-Serif" font-size="10.00">::string &gt;</text>
</a>
</g>
</g>
<!-- Node1 -->
<g id="node2" class="node">
<title>Node1</title>
<g id="a_node2"><a xlink:href="d9/d4a/structfmt_1_1formatter_3_01_member_type_01_4.html" target="_top" xlink:title="adds support for formatting MemberType">
<polygon fill="white" stroke="#666666" points="321.5,-278 149.5,-278 149.5,-259 321.5,-259 321.5,-278"/>
<text text-anchor="middle" x="235.5" y="-266" font-family="Helvetica,sans-Serif" font-size="10.00">fmt::formatter&lt; MemberType &gt;</text>
</a>
</g>
</g>
<!-- Node0&#45;&gt;Node1 -->
<g id="edge1" class="edge">
<title>Node0&#45;&gt;Node1</title>
<path fill="none" stroke="#63b8ff" d="M70.37,-162.42C85.61,-188.34 113.47,-228.88 149,-250.5 154.57,-253.89 160.68,-256.65 167,-258.89"/>
<polygon fill="#63b8ff" stroke="#63b8ff" points="73.33,-160.55 65.33,-153.6 67.25,-164.02 73.33,-160.55"/>
</g>
<!-- Node2 -->
<g id="node3" class="node">
<title>Node2</title>
<g id="a_node3"><a xlink:href="d2/d84/structfmt_1_1formatter_3_01_method_types_01_4.html" target="_top" xlink:title="adds support for formatting MethodTypes">
<polygon fill="white" stroke="#666666" points="322,-241 149,-241 149,-222 322,-222 322,-241"/>
<text text-anchor="middle" x="235.5" y="-229" font-family="Helvetica,sans-Serif" font-size="10.00">fmt::formatter&lt; MethodTypes &gt;</text>
</a>
</g>
</g>
<!-- Node0&#45;&gt;Node2 -->
<g id="edge2" class="edge">
<title>Node0&#45;&gt;Node2</title>
<path fill="none" stroke="#63b8ff" d="M78.8,-161.07C96.11,-178.06 122.02,-200.56 149,-213.5 156.11,-216.91 163.86,-219.68 171.7,-221.92"/>
<polygon fill="#63b8ff" stroke="#63b8ff" points="81.01,-158.33 71.47,-153.71 76.04,-163.26 81.01,-158.33"/>
</g>
<!-- Node3 -->
<g id="node4" class="node">
<title>Node3</title>
<g id="a_node4"><a xlink:href="d3/d53/structfmt_1_1formatter_3_01_protection_01_4.html" target="_top" xlink:title="adds support for formatting Protected">
<polygon fill="white" stroke="#666666" points="314.5,-204 156.5,-204 156.5,-185 314.5,-185 314.5,-204"/>
<text text-anchor="middle" x="235.5" y="-192" font-family="Helvetica,sans-Serif" font-size="10.00">fmt::formatter&lt; Protection &gt;</text>
</a>
</g>
</g>
<!-- Node0&#45;&gt;Node3 -->
<g id="edge3" class="edge">
<title>Node0&#45;&gt;Node3</title>
<path fill="none" stroke="#63b8ff" d="M98.87,-157.6C114.36,-164.24 132.26,-171.31 149,-176.5 159.43,-179.73 170.76,-182.57 181.65,-184.98"/>
<polygon fill="#63b8ff" stroke="#63b8ff" points="100.13,-154.33 89.57,-153.54 97.33,-160.75 100.13,-154.33"/>
</g>
<!-- Node4 -->
<g id="node5" class="node">
<title>Node4</title>
<g id="a_node5"><a xlink:href="d1/dc4/structfmt_1_1formatter_3_01_q_c_string_01_4.html" target="_top" xlink:title="adds support for formatting QCString">
<polygon fill="white" stroke="#666666" points="311.5,-167 159.5,-167 159.5,-148 311.5,-148 311.5,-167"/>
<text text-anchor="middle" x="235.5" y="-155" font-family="Helvetica,sans-Serif" font-size="10.00">fmt::formatter&lt; QCString &gt;</text>
</a>
</g>
</g>
<!-- Node0&#45;&gt;Node4 -->
<g id="edge4" class="edge">
<title>Node0&#45;&gt;Node4</title>
<path fill="none" stroke="#63b8ff" d="M123.21,-145.55C134.99,-146.82 147.36,-148.15 159.39,-149.44"/>
<polygon fill="#63b8ff" stroke="#63b8ff" points="123.33,-142.05 113.02,-144.46 122.59,-149.01 123.33,-142.05"/>
</g>
<!-- Node5 -->
<g id="node6" class="node">
<title>Node5</title>
<g id="a_node6"><a xlink:href="db/dff/structfmt_1_1formatter_3_01_relates_type_01_4.html" target="_top" xlink:title="adds support for formatting RelatesType">
<polygon fill="white" stroke="#666666" points="319.5,-130 151.5,-130 151.5,-111 319.5,-111 319.5,-130"/>
<text text-anchor="middle" x="235.5" y="-118" font-family="Helvetica,sans-Serif" font-size="10.00">fmt::formatter&lt; RelatesType &gt;</text>
</a>
</g>
</g>
<!-- Node0&#45;&gt;Node5 -->
<g id="edge5" class="edge">
<title>Node0&#45;&gt;Node5</title>
<path fill="none" stroke="#63b8ff" d="M123.19,-131.82C132.36,-130.89 141.87,-129.92 151.3,-128.96"/>
<polygon fill="#63b8ff" stroke="#63b8ff" points="122.61,-128.36 113.02,-132.85 123.32,-135.32 122.61,-128.36"/>
</g>
<!-- Node6 -->
<g id="node7" class="node">
<title>Node6</title>
<g id="a_node7"><a xlink:href="db/db7/structfmt_1_1formatter_3_01_relationship_01_4.html" target="_top" xlink:title="adds support for formatting RelationShip">
<polygon fill="white" stroke="#666666" points="320.5,-93 150.5,-93 150.5,-74 320.5,-74 320.5,-93"/>
<text text-anchor="middle" x="235.5" y="-81" font-family="Helvetica,sans-Serif" font-size="10.00">fmt::formatter&lt; Relationship &gt;</text>
</a>
</g>
</g>
<!-- Node0&#45;&gt;Node6 -->
<g id="edge6" class="edge">
<title>Node0&#45;&gt;Node6</title>
<path fill="none" stroke="#63b8ff" d="M101.69,-119.5C116.55,-113.55 133.33,-107.29 149,-102.5 160.63,-98.94 173.34,-95.75 185.33,-93.05"/>
<polygon fill="#63b8ff" stroke="#63b8ff" points="100.18,-116.34 92.24,-123.35 102.82,-122.82 100.18,-116.34"/>
</g>
<!-- Node7 -->
<g id="node8" class="node">
<title>Node7</title>
<g id="a_node8"><a xlink:href="db/dad/structfmt_1_1formatter_3_01_specifier_01_4.html" target="_top" xlink:title="adds support for formatting Specifier">
<polygon fill="white" stroke="#666666" points="311,-56 160,-56 160,-37 311,-37 311,-56"/>
<text text-anchor="middle" x="235.5" y="-44" font-family="Helvetica,sans-Serif" font-size="10.00">fmt::formatter&lt; Specifier &gt;</text>
</a>
</g>
</g>
<!-- Node0&#45;&gt;Node7 -->
<g id="edge7" class="edge">
<title>Node0&#45;&gt;Node7</title>
<path fill="none" stroke="#63b8ff" d="M79.26,-116.34C96.66,-99.89 122.45,-78.2 149,-65.5 157.09,-61.63 166,-58.53 174.91,-56.06"/>
<polygon fill="#63b8ff" stroke="#63b8ff" points="76.64,-114 71.89,-123.47 81.51,-119.03 76.64,-114"/>
</g>
<!-- Node8 -->
<g id="node9" class="node">
<title>Node8</title>
<g id="a_node9"><a xlink:href="df/dca/structfmt_1_1formatter_3_01_src_lang_ext_01_4.html" target="_top" xlink:title="adds support for formatting SrcLangExt">
<polygon fill="white" stroke="#666666" points="317,-19 154,-19 154,0 317,0 317,-19"/>
<text text-anchor="middle" x="235.5" y="-7" font-family="Helvetica,sans-Serif" font-size="10.00">fmt::formatter&lt; SrcLangExt &gt;</text>
</a>
</g>
</g>
<!-- Node0&#45;&gt;Node8 -->
<g id="edge8" class="edge">
<title>Node0&#45;&gt;Node8</title>
<path fill="none" stroke="#63b8ff" d="M70.77,-114.67C86.19,-89.26 114.06,-49.82 149,-28.5 155.36,-24.62 162.42,-21.53 169.67,-19.07"/>
<polygon fill="#63b8ff" stroke="#63b8ff" points="67.72,-112.94 65.66,-123.33 73.75,-116.5 67.72,-112.94"/>
</g>
</g>
</svg>
