<?xml version="1.0" encoding="UTF-8" standalone="no"?>
<!DOCTYPE svg PUBLIC "-//W3C//DTD SVG 1.1//EN"
 "http://www.w3.org/Graphics/SVG/1.1/DTD/svg11.dtd">
<!-- Generated by graphviz version 2.43.0 (0)
 -->
<!-- Title: Graphical Class Hierarchy Pages: 1 -->
<svg width="2321pt" height="878pt"
 viewBox="0.00 0.00 2321.00 878.00" xmlns="http://www.w3.org/2000/svg" xmlns:xlink="http://www.w3.org/1999/xlink">
<g id="graph0" class="graph" transform="scale(1 1) rotate(0) translate(4 874)">
<title>Graphical Class Hierarchy</title>
<!-- Node0 -->
<g id="node1" class="node">
<title>Node0</title>
<g id="a_node1"><a xlink:href="d8/dfb/class_translator.html" target="_top" xlink:title="Abstract base class for all translatable text fragments.">
<polygon fill="white" stroke="#666666" points="65,-111 0,-111 0,-92 65,-92 65,-111"/>
<text text-anchor="middle" x="32.5" y="-99" font-family="Helvetica,sans-Serif" font-size="10.00">Translator</text>
</a>
</g>
</g>
<!-- Node1 -->
<g id="node2" class="node">
<title>Node1</title>
<g id="a_node2"><a xlink:href="db/d6c/class_translator_adapter_base.html" target="_top" xlink:title="Base of the translator adapter tree.">
<polygon fill="white" stroke="#666666" points="228,-204 101,-204 101,-185 228,-185 228,-204"/>
<text text-anchor="middle" x="164.5" y="-192" font-family="Helvetica,sans-Serif" font-size="10.00">TranslatorAdapterBase</text>
</a>
</g>
</g>
<!-- Node0&#45;&gt;Node1 -->
<g id="edge1" class="edge">
<title>Node0&#45;&gt;Node1</title>
<path fill="none" stroke="#63b8ff" d="M45.63,-119.62C57.77,-136.41 77.93,-160.93 101,-175.5 107.04,-179.31 113.89,-182.4 120.79,-184.89"/>
<polygon fill="#63b8ff" stroke="#63b8ff" points="48.34,-117.39 39.75,-111.2 42.61,-121.4 48.34,-117.39"/>
</g>
<!-- Node50 -->
<g id="node51" class="node">
<title>Node50</title>
<g id="a_node51"><a xlink:href="d2/d4c/class_translator_brazilian.html" target="_top" xlink:title=" ">
<polygon fill="white" stroke="#666666" points="218,-167 111,-167 111,-148 218,-148 218,-167"/>
<text text-anchor="middle" x="164.5" y="-155" font-family="Helvetica,sans-Serif" font-size="10.00">TranslatorBrazilian</text>
</a>
</g>
</g>
<!-- Node0&#45;&gt;Node50 -->
<g id="edge50" class="edge">
<title>Node0&#45;&gt;Node50</title>
<path fill="none" stroke="#63b8ff" d="M57.79,-116.41C70.38,-123.72 86.18,-132.26 101,-138.5 109.47,-142.06 118.83,-145.27 127.68,-148"/>
<polygon fill="#63b8ff" stroke="#63b8ff" points="59.25,-113.2 48.86,-111.12 55.68,-119.23 59.25,-113.2"/>
</g>
<!-- Node51 -->
<g id="node52" class="node">
<title>Node51</title>
<g id="a_node52"><a xlink:href="dd/d8a/class_translator_czech.html" target="_top" xlink:title=" ">
<polygon fill="white" stroke="#666666" points="211.5,-130 117.5,-130 117.5,-111 211.5,-111 211.5,-130"/>
<text text-anchor="middle" x="164.5" y="-118" font-family="Helvetica,sans-Serif" font-size="10.00">TranslatorCzech</text>
</a>
</g>
</g>
<!-- Node0&#45;&gt;Node51 -->
<g id="edge51" class="edge">
<title>Node0&#45;&gt;Node51</title>
<path fill="none" stroke="#63b8ff" d="M75.22,-107.6C88.63,-109.56 103.57,-111.74 117.29,-113.75"/>
<polygon fill="#63b8ff" stroke="#63b8ff" points="75.7,-104.13 65.3,-106.15 74.69,-111.06 75.7,-104.13"/>
</g>
<!-- Node52 -->
<g id="node53" class="node">
<title>Node52</title>
<g id="a_node53"><a xlink:href="d9/d1b/class_translator_dutch.html" target="_top" xlink:title=" ">
<polygon fill="white" stroke="#666666" points="211,-93 118,-93 118,-74 211,-74 211,-93"/>
<text text-anchor="middle" x="164.5" y="-81" font-family="Helvetica,sans-Serif" font-size="10.00">TranslatorDutch</text>
</a>
</g>
</g>
<!-- Node0&#45;&gt;Node52 -->
<g id="edge52" class="edge">
<title>Node0&#45;&gt;Node52</title>
<path fill="none" stroke="#63b8ff" d="M75.32,-95.71C88.87,-93.83 103.97,-91.74 117.79,-89.83"/>
<polygon fill="#63b8ff" stroke="#63b8ff" points="74.73,-92.26 65.3,-97.1 75.69,-99.19 74.73,-92.26"/>
</g>
<!-- Node53 -->
<g id="node54" class="node">
<title>Node53</title>
<g id="a_node54"><a xlink:href="d6/d78/class_translator_english.html" target="_top" xlink:title=" ">
<polygon fill="white" stroke="#666666" points="214.5,-56 114.5,-56 114.5,-37 214.5,-37 214.5,-56"/>
<text text-anchor="middle" x="164.5" y="-44" font-family="Helvetica,sans-Serif" font-size="10.00">TranslatorEnglish</text>
</a>
</g>
</g>
<!-- Node0&#45;&gt;Node53 -->
<g id="edge53" class="edge">
<title>Node0&#45;&gt;Node53</title>
<path fill="none" stroke="#63b8ff" d="M57.5,-86.65C70.12,-79.28 86.03,-70.67 101,-64.5 108.73,-61.32 117.21,-58.47 125.36,-56.03"/>
<polygon fill="#63b8ff" stroke="#63b8ff" points="55.37,-83.85 48.57,-91.97 58.95,-89.86 55.37,-83.85"/>
</g>
<!-- Node56 -->
<g id="node57" class="node">
<title>Node56</title>
<g id="a_node57"><a xlink:href="dc/df2/class_translator_portuguese.html" target="_top" xlink:title=" ">
<polygon fill="white" stroke="#666666" points="224,-19 105,-19 105,0 224,0 224,-19"/>
<text text-anchor="middle" x="164.5" y="-7" font-family="Helvetica,sans-Serif" font-size="10.00">TranslatorPortuguese</text>
</a>
</g>
</g>
<!-- Node0&#45;&gt;Node56 -->
<g id="edge56" class="edge">
<title>Node0&#45;&gt;Node56</title>
<path fill="none" stroke="#63b8ff" d="M45.59,-83.3C57.69,-66.45 77.82,-41.9 101,-27.5 106.47,-24.1 112.6,-21.33 118.83,-19.06"/>
<polygon fill="#63b8ff" stroke="#63b8ff" points="42.55,-81.54 39.72,-91.76 48.3,-85.54 42.55,-81.54"/>
</g>
<!-- Node2 -->
<g id="node3" class="node">
<title>Node2</title>
<g id="a_node3"><a xlink:href="dd/dba/class_translator_adapter__1__9__5.html" target="_top" xlink:title=" ">
<polygon fill="white" stroke="#666666" points="401,-204 264,-204 264,-185 401,-185 401,-204"/>
<text text-anchor="middle" x="332.5" y="-192" font-family="Helvetica,sans-Serif" font-size="10.00">TranslatorAdapter_1_9_5</text>
</a>
</g>
</g>
<!-- Node1&#45;&gt;Node2 -->
<g id="edge2" class="edge">
<title>Node1&#45;&gt;Node2</title>
<path fill="none" stroke="#63b8ff" d="M238.49,-194.5C246.95,-194.5 255.56,-194.5 263.94,-194.5"/>
<polygon fill="#63b8ff" stroke="#63b8ff" points="238.26,-191 228.26,-194.5 238.26,-198 238.26,-191"/>
</g>
<!-- Node3 -->
<g id="node4" class="node">
<title>Node3</title>
<g id="a_node4"><a xlink:href="d0/d33/class_translator_adapter__1__9__4.html" target="_top" xlink:title=" ">
<polygon fill="white" stroke="#666666" points="574,-222 437,-222 437,-203 574,-203 574,-222"/>
<text text-anchor="middle" x="505.5" y="-210" font-family="Helvetica,sans-Serif" font-size="10.00">TranslatorAdapter_1_9_4</text>
</a>
</g>
</g>
<!-- Node2&#45;&gt;Node3 -->
<g id="edge3" class="edge">
<title>Node2&#45;&gt;Node3</title>
<path fill="none" stroke="#63b8ff" d="M411.1,-202.67C419.69,-203.57 428.39,-204.49 436.85,-205.38"/>
<polygon fill="#63b8ff" stroke="#63b8ff" points="411.4,-199.18 401.08,-201.61 410.66,-206.14 411.4,-199.18"/>
</g>
<!-- Node49 -->
<g id="node50" class="node">
<title>Node49</title>
<g id="a_node50"><a xlink:href="da/d1a/class_translator_french.html" target="_top" xlink:title=" ">
<polygon fill="white" stroke="#666666" points="554,-185 457,-185 457,-166 554,-166 554,-185"/>
<text text-anchor="middle" x="505.5" y="-173" font-family="Helvetica,sans-Serif" font-size="10.00">TranslatorFrench</text>
</a>
</g>
</g>
<!-- Node2&#45;&gt;Node49 -->
<g id="edge49" class="edge">
<title>Node2&#45;&gt;Node49</title>
<path fill="none" stroke="#63b8ff" d="M411.24,-185.86C426.81,-184.13 442.72,-182.36 456.9,-180.79"/>
<polygon fill="#63b8ff" stroke="#63b8ff" points="410.64,-182.41 401.08,-186.99 411.41,-189.36 410.64,-182.41"/>
</g>
<!-- Node4 -->
<g id="node5" class="node">
<title>Node4</title>
<g id="a_node5"><a xlink:href="d3/d2e/class_translator_adapter__1__9__2.html" target="_top" xlink:title=" ">
<polygon fill="white" stroke="#666666" points="747,-315 610,-315 610,-296 747,-296 747,-315"/>
<text text-anchor="middle" x="678.5" y="-303" font-family="Helvetica,sans-Serif" font-size="10.00">TranslatorAdapter_1_9_2</text>
</a>
</g>
</g>
<!-- Node3&#45;&gt;Node4 -->
<g id="edge4" class="edge">
<title>Node3&#45;&gt;Node4</title>
<path fill="none" stroke="#63b8ff" d="M524.79,-228.61C544.56,-245.26 577.59,-270.94 610,-286.5 617.79,-290.24 626.45,-293.37 634.9,-295.93"/>
<polygon fill="#63b8ff" stroke="#63b8ff" points="527.05,-225.93 517.18,-222.08 522.49,-231.25 527.05,-225.93"/>
</g>
<!-- Node44 -->
<g id="node45" class="node">
<title>Node44</title>
<g id="a_node45"><a xlink:href="da/dbb/class_translator_bulgarian.html" target="_top" xlink:title=" ">
<polygon fill="white" stroke="#666666" points="734,-278 623,-278 623,-259 734,-259 734,-278"/>
<text text-anchor="middle" x="678.5" y="-266" font-family="Helvetica,sans-Serif" font-size="10.00">TranslatorBulgarian</text>
</a>
</g>
</g>
<!-- Node3&#45;&gt;Node44 -->
<g id="edge44" class="edge">
<title>Node3&#45;&gt;Node44</title>
<path fill="none" stroke="#63b8ff" d="M541.45,-225.67C561.42,-233.03 586.98,-242.16 610,-249.5 620.32,-252.79 631.63,-256.09 641.98,-259"/>
<polygon fill="#63b8ff" stroke="#63b8ff" points="542.45,-222.31 531.85,-222.12 540.01,-228.87 542.45,-222.31"/>
</g>
<!-- Node45 -->
<g id="node46" class="node">
<title>Node45</title>
<g id="a_node46"><a xlink:href="d6/db6/class_translator_chinese.html" target="_top" xlink:title=" ">
<polygon fill="white" stroke="#666666" points="730.5,-241 626.5,-241 626.5,-222 730.5,-222 730.5,-241"/>
<text text-anchor="middle" x="678.5" y="-229" font-family="Helvetica,sans-Serif" font-size="10.00">TranslatorChinese</text>
</a>
</g>
</g>
<!-- Node3&#45;&gt;Node45 -->
<g id="edge45" class="edge">
<title>Node3&#45;&gt;Node45</title>
<path fill="none" stroke="#63b8ff" d="M584.41,-221.16C598.69,-222.74 613.26,-224.36 626.49,-225.83"/>
<polygon fill="#63b8ff" stroke="#63b8ff" points="584.41,-217.64 574.08,-220.01 583.64,-224.59 584.41,-217.64"/>
</g>
<!-- Node46 -->
<g id="node47" class="node">
<title>Node46</title>
<g id="a_node47"><a xlink:href="df/d75/class_translator_greek.html" target="_top" xlink:title=" ">
<polygon fill="white" stroke="#666666" points="725.5,-204 631.5,-204 631.5,-185 725.5,-185 725.5,-204"/>
<text text-anchor="middle" x="678.5" y="-192" font-family="Helvetica,sans-Serif" font-size="10.00">TranslatorGreek</text>
</a>
</g>
</g>
<!-- Node3&#45;&gt;Node46 -->
<g id="edge46" class="edge">
<title>Node3&#45;&gt;Node46</title>
<path fill="none" stroke="#63b8ff" d="M584.09,-204.33C600.28,-202.63 616.84,-200.89 631.44,-199.35"/>
<polygon fill="#63b8ff" stroke="#63b8ff" points="583.66,-200.86 574.08,-205.39 584.4,-207.82 583.66,-200.86"/>
</g>
<!-- Node47 -->
<g id="node48" class="node">
<title>Node47</title>
<g id="a_node48"><a xlink:href="d1/d8a/class_translator_hindi.html" target="_top" xlink:title=" ">
<polygon fill="white" stroke="#666666" points="723.5,-167 633.5,-167 633.5,-148 723.5,-148 723.5,-167"/>
<text text-anchor="middle" x="678.5" y="-155" font-family="Helvetica,sans-Serif" font-size="10.00">TranslatorHindi</text>
</a>
</g>
</g>
<!-- Node3&#45;&gt;Node47 -->
<g id="edge47" class="edge">
<title>Node3&#45;&gt;Node47</title>
<path fill="none" stroke="#63b8ff" d="M555.11,-200.01C561.52,-198.02 567.96,-195.83 574,-193.5 590.68,-187.05 593.27,-181.84 610,-175.5 618.39,-172.32 627.57,-169.48 636.39,-167.04"/>
<polygon fill="#63b8ff" stroke="#63b8ff" points="553.7,-196.78 545.11,-202.99 555.69,-203.49 553.7,-196.78"/>
</g>
<!-- Node48 -->
<g id="node49" class="node">
<title>Node48</title>
<g id="a_node49"><a xlink:href="d5/d5c/class_translator_swedish.html" target="_top" xlink:title=" ">
<polygon fill="white" stroke="#666666" points="731,-130 626,-130 626,-111 731,-111 731,-130"/>
<text text-anchor="middle" x="678.5" y="-118" font-family="Helvetica,sans-Serif" font-size="10.00">TranslatorSwedish</text>
</a>
</g>
</g>
<!-- Node3&#45;&gt;Node48 -->
<g id="edge48" class="edge">
<title>Node3&#45;&gt;Node48</title>
<path fill="none" stroke="#63b8ff" d="M565.54,-198.76C568.51,-197.19 571.35,-195.44 574,-193.5 597.56,-176.22 586.32,-155.62 610,-138.5 614.82,-135.02 620.26,-132.21 625.92,-129.95"/>
<polygon fill="#63b8ff" stroke="#63b8ff" points="564,-195.61 556.36,-202.94 566.91,-201.98 564,-195.61"/>
</g>
<!-- Node5 -->
<g id="node6" class="node">
<title>Node5</title>
<g id="a_node6"><a xlink:href="de/dde/class_translator_adapter__1__8__19.html" target="_top" xlink:title=" ">
<polygon fill="white" stroke="#666666" points="926,-315 783,-315 783,-296 926,-296 926,-315"/>
<text text-anchor="middle" x="854.5" y="-303" font-family="Helvetica,sans-Serif" font-size="10.00">TranslatorAdapter_1_8_19</text>
</a>
</g>
</g>
<!-- Node4&#45;&gt;Node5 -->
<g id="edge5" class="edge">
<title>Node4&#45;&gt;Node5</title>
<path fill="none" stroke="#63b8ff" d="M757.47,-305.5C765.89,-305.5 774.42,-305.5 782.75,-305.5"/>
<polygon fill="#63b8ff" stroke="#63b8ff" points="757.27,-302 747.27,-305.5 757.27,-309 757.27,-302"/>
</g>
<!-- Node6 -->
<g id="node7" class="node">
<title>Node6</title>
<g id="a_node7"><a xlink:href="d4/d2e/class_translator_adapter__1__8__15.html" target="_top" xlink:title=" ">
<polygon fill="white" stroke="#666666" points="1105,-334 962,-334 962,-315 1105,-315 1105,-334"/>
<text text-anchor="middle" x="1033.5" y="-322" font-family="Helvetica,sans-Serif" font-size="10.00">TranslatorAdapter_1_8_15</text>
</a>
</g>
</g>
<!-- Node5&#45;&gt;Node6 -->
<g id="edge6" class="edge">
<title>Node5&#45;&gt;Node6</title>
<path fill="none" stroke="#63b8ff" d="M936.21,-314.16C944.78,-315.08 953.45,-316.01 961.89,-316.92"/>
<polygon fill="#63b8ff" stroke="#63b8ff" points="936.53,-310.68 926.22,-313.09 935.79,-317.64 936.53,-310.68"/>
</g>
<!-- Node43 -->
<g id="node44" class="node">
<title>Node43</title>
<g id="a_node44"><a xlink:href="dc/d44/class_translator_spanish.html" target="_top" xlink:title=" ">
<polygon fill="white" stroke="#666666" points="1085,-297 982,-297 982,-278 1085,-278 1085,-297"/>
<text text-anchor="middle" x="1033.5" y="-285" font-family="Helvetica,sans-Serif" font-size="10.00">TranslatorSpanish</text>
</a>
</g>
</g>
<!-- Node5&#45;&gt;Node43 -->
<g id="edge43" class="edge">
<title>Node5&#45;&gt;Node43</title>
<path fill="none" stroke="#63b8ff" d="M936.32,-297.28C951.8,-295.71 967.59,-294.1 981.78,-292.66"/>
<polygon fill="#63b8ff" stroke="#63b8ff" points="935.81,-293.81 926.22,-298.31 936.52,-300.78 935.81,-293.81"/>
</g>
<!-- Node7 -->
<g id="node8" class="node">
<title>Node7</title>
<g id="a_node8"><a xlink:href="de/d2f/class_translator_adapter__1__8__4.html" target="_top" xlink:title=" ">
<polygon fill="white" stroke="#666666" points="1286.5,-501 1149.5,-501 1149.5,-482 1286.5,-482 1286.5,-501"/>
<text text-anchor="middle" x="1218" y="-489" font-family="Helvetica,sans-Serif" font-size="10.00">TranslatorAdapter_1_8_4</text>
</a>
</g>
</g>
<!-- Node6&#45;&gt;Node7 -->
<g id="edge7" class="edge">
<title>Node6&#45;&gt;Node7</title>
<path fill="none" stroke="#63b8ff" d="M1042.89,-343.78C1057.81,-375.7 1092.04,-439.29 1141,-472.5 1146.74,-476.39 1153.21,-479.49 1159.89,-481.95"/>
<polygon fill="#63b8ff" stroke="#63b8ff" points="1045.89,-341.93 1038.58,-334.26 1039.52,-344.81 1045.89,-341.93"/>
</g>
<!-- Node34 -->
<g id="node35" class="node">
<title>Node34</title>
<g id="a_node35"><a xlink:href="dd/df6/class_translator_chinesetraditional.html" target="_top" xlink:title=" ">
<polygon fill="white" stroke="#666666" points="1295,-464 1141,-464 1141,-445 1295,-445 1295,-464"/>
<text text-anchor="middle" x="1218" y="-452" font-family="Helvetica,sans-Serif" font-size="10.00">TranslatorChinesetraditional</text>
</a>
</g>
</g>
<!-- Node6&#45;&gt;Node34 -->
<g id="edge34" class="edge">
<title>Node6&#45;&gt;Node34</title>
<path fill="none" stroke="#63b8ff" d="M1046.88,-342.77C1064.71,-367.63 1100.03,-411.74 1141,-435.5 1147.71,-439.39 1155.19,-442.49 1162.78,-444.96"/>
<polygon fill="#63b8ff" stroke="#63b8ff" points="1049.53,-340.45 1040.93,-334.26 1043.79,-344.46 1049.53,-340.45"/>
</g>
<!-- Node35 -->
<g id="node36" class="node">
<title>Node35</title>
<g id="a_node36"><a xlink:href="d6/d07/class_translator_german.html" target="_top" xlink:title=" ">
<polygon fill="white" stroke="#666666" points="1270,-427 1166,-427 1166,-408 1270,-408 1270,-427"/>
<text text-anchor="middle" x="1218" y="-415" font-family="Helvetica,sans-Serif" font-size="10.00">TranslatorGerman</text>
</a>
</g>
</g>
<!-- Node6&#45;&gt;Node35 -->
<g id="edge35" class="edge">
<title>Node6&#45;&gt;Node35</title>
<path fill="none" stroke="#63b8ff" d="M1053.32,-340.77C1073.65,-357.56 1107.63,-383.35 1141,-398.5 1149.42,-402.32 1158.73,-405.46 1167.86,-407.99"/>
<polygon fill="#63b8ff" stroke="#63b8ff" points="1055.39,-337.94 1045.48,-334.19 1050.89,-343.3 1055.39,-337.94"/>
</g>
<!-- Node36 -->
<g id="node37" class="node">
<title>Node36</title>
<g id="a_node37"><a xlink:href="db/d5f/class_translator_hungarian.html" target="_top" xlink:title=" ">
<polygon fill="white" stroke="#666666" points="1275.5,-390 1160.5,-390 1160.5,-371 1275.5,-371 1275.5,-390"/>
<text text-anchor="middle" x="1218" y="-378" font-family="Helvetica,sans-Serif" font-size="10.00">TranslatorHungarian</text>
</a>
</g>
</g>
<!-- Node6&#45;&gt;Node36 -->
<g id="edge36" class="edge">
<title>Node6&#45;&gt;Node36</title>
<path fill="none" stroke="#63b8ff" d="M1069.72,-337.62C1090.35,-345.09 1116.98,-354.34 1141,-361.5 1152.21,-364.84 1164.46,-368.08 1175.8,-370.91"/>
<polygon fill="#63b8ff" stroke="#63b8ff" points="1070.71,-334.26 1060.11,-334.12 1068.31,-340.84 1070.71,-334.26"/>
</g>
<!-- Node37 -->
<g id="node38" class="node">
<title>Node37</title>
<g id="a_node38"><a xlink:href="d2/df8/class_translator_italian.html" target="_top" xlink:title=" ">
<polygon fill="white" stroke="#666666" points="1265.5,-353 1170.5,-353 1170.5,-334 1265.5,-334 1265.5,-353"/>
<text text-anchor="middle" x="1218" y="-341" font-family="Helvetica,sans-Serif" font-size="10.00">TranslatorItalian</text>
</a>
</g>
</g>
<!-- Node6&#45;&gt;Node37 -->
<g id="edge37" class="edge">
<title>Node6&#45;&gt;Node37</title>
<path fill="none" stroke="#63b8ff" d="M1115.15,-332.9C1134.01,-334.86 1153.48,-336.89 1170.29,-338.64"/>
<polygon fill="#63b8ff" stroke="#63b8ff" points="1115.37,-329.4 1105.06,-331.85 1114.64,-336.36 1115.37,-329.4"/>
</g>
<!-- Node38 -->
<g id="node39" class="node">
<title>Node38</title>
<g id="a_node39"><a xlink:href="d1/d6a/class_translator_japanese.html" target="_top" xlink:title=" ">
<polygon fill="white" stroke="#666666" points="1272.5,-316 1163.5,-316 1163.5,-297 1272.5,-297 1272.5,-316"/>
<text text-anchor="middle" x="1218" y="-304" font-family="Helvetica,sans-Serif" font-size="10.00">TranslatorJapanese</text>
</a>
</g>
</g>
<!-- Node6&#45;&gt;Node38 -->
<g id="edge38" class="edge">
<title>Node6&#45;&gt;Node38</title>
<path fill="none" stroke="#63b8ff" d="M1115.14,-316.55C1131.45,-314.94 1148.22,-313.28 1163.33,-311.79"/>
<polygon fill="#63b8ff" stroke="#63b8ff" points="1114.67,-313.08 1105.06,-317.54 1115.35,-320.04 1114.67,-313.08"/>
</g>
<!-- Node39 -->
<g id="node40" class="node">
<title>Node39</title>
<g id="a_node40"><a xlink:href="db/dcc/class_translator_korean.html" target="_top" xlink:title=" ">
<polygon fill="white" stroke="#666666" points="1267,-279 1169,-279 1169,-260 1267,-260 1267,-279"/>
<text text-anchor="middle" x="1218" y="-267" font-family="Helvetica,sans-Serif" font-size="10.00">TranslatorKorean</text>
</a>
</g>
</g>
<!-- Node6&#45;&gt;Node39 -->
<g id="edge39" class="edge">
<title>Node6&#45;&gt;Node39</title>
<path fill="none" stroke="#63b8ff" d="M1085.31,-312.12C1092,-310.11 1098.71,-307.89 1105,-305.5 1121.72,-299.14 1124.18,-293.6 1141,-287.5 1149.92,-284.26 1159.65,-281.45 1169.07,-279.07"/>
<polygon fill="#63b8ff" stroke="#63b8ff" points="1084.22,-308.79 1075.58,-314.92 1086.16,-315.52 1084.22,-308.79"/>
</g>
<!-- Node40 -->
<g id="node41" class="node">
<title>Node40</title>
<g id="a_node41"><a xlink:href="da/d32/class_translator_romanian.html" target="_top" xlink:title=" ">
<polygon fill="white" stroke="#666666" points="1275,-242 1161,-242 1161,-223 1275,-223 1275,-242"/>
<text text-anchor="middle" x="1218" y="-230" font-family="Helvetica,sans-Serif" font-size="10.00">TranslatorRomanian</text>
</a>
</g>
</g>
<!-- Node6&#45;&gt;Node40 -->
<g id="edge40" class="edge">
<title>Node6&#45;&gt;Node40</title>
<path fill="none" stroke="#63b8ff" d="M1096.5,-310.73C1099.48,-309.17 1102.33,-307.43 1105,-305.5 1128.65,-288.35 1117.09,-267.28 1141,-250.5 1146.99,-246.29 1153.84,-243.06 1160.91,-240.58"/>
<polygon fill="#63b8ff" stroke="#63b8ff" points="1094.96,-307.59 1087.29,-314.9 1097.84,-313.97 1094.96,-307.59"/>
</g>
<!-- Node41 -->
<g id="node42" class="node">
<title>Node41</title>
<g id="a_node42"><a xlink:href="d0/dab/class_translator_russian.html" target="_top" xlink:title=" ">
<polygon fill="white" stroke="#666666" points="1269.5,-205 1166.5,-205 1166.5,-186 1269.5,-186 1269.5,-205"/>
<text text-anchor="middle" x="1218" y="-193" font-family="Helvetica,sans-Serif" font-size="10.00">TranslatorRussian</text>
</a>
</g>
</g>
<!-- Node6&#45;&gt;Node41 -->
<g id="edge41" class="edge">
<title>Node6&#45;&gt;Node41</title>
<path fill="none" stroke="#63b8ff" d="M1099.38,-309.86C1101.35,-308.53 1103.24,-307.08 1105,-305.5 1137.7,-276.2 1107.85,-242.29 1141,-213.5 1148.17,-207.28 1157.1,-203.11 1166.29,-200.34"/>
<polygon fill="#63b8ff" stroke="#63b8ff" points="1097.25,-307.05 1090.22,-314.97 1100.66,-313.16 1097.25,-307.05"/>
</g>
<!-- Node42 -->
<g id="node43" class="node">
<title>Node42</title>
<g id="a_node43"><a xlink:href="d2/d53/class_translator_slovak.html" target="_top" xlink:title=" ">
<polygon fill="white" stroke="#666666" points="1267,-168 1169,-168 1169,-149 1267,-149 1267,-168"/>
<text text-anchor="middle" x="1218" y="-156" font-family="Helvetica,sans-Serif" font-size="10.00">TranslatorSlovak</text>
</a>
</g>
</g>
<!-- Node6&#45;&gt;Node42 -->
<g id="edge42" class="edge">
<title>Node6&#45;&gt;Node42</title>
<path fill="none" stroke="#63b8ff" d="M1100.37,-309.51C1102,-308.27 1103.55,-306.94 1105,-305.5 1147.28,-263.6 1098.09,-217.75 1141,-176.5 1148.63,-169.17 1158.66,-164.64 1168.93,-161.88"/>
<polygon fill="#63b8ff" stroke="#63b8ff" points="1098.32,-306.66 1091.66,-314.9 1102.01,-312.61 1098.32,-306.66"/>
</g>
<!-- Node8 -->
<g id="node9" class="node">
<title>Node8</title>
<g id="a_node9"><a xlink:href="d2/d75/class_translator_adapter__1__8__2.html" target="_top" xlink:title=" ">
<polygon fill="white" stroke="#666666" points="1468,-556 1331,-556 1331,-537 1468,-537 1468,-556"/>
<text text-anchor="middle" x="1399.5" y="-544" font-family="Helvetica,sans-Serif" font-size="10.00">TranslatorAdapter_1_8_2</text>
</a>
</g>
</g>
<!-- Node7&#45;&gt;Node8 -->
<g id="edge8" class="edge">
<title>Node7&#45;&gt;Node8</title>
<path fill="none" stroke="#63b8ff" d="M1257.67,-504.32C1279.2,-511.35 1306.52,-520.12 1331,-527.5 1341.61,-530.7 1353.2,-534.02 1363.74,-536.98"/>
<polygon fill="#63b8ff" stroke="#63b8ff" points="1258.51,-500.91 1247.92,-501.12 1256.33,-507.56 1258.51,-500.91"/>
</g>
<!-- Node31 -->
<g id="node32" class="node">
<title>Node31</title>
<g id="a_node32"><a xlink:href="d2/d07/class_translator_esperanto.html" target="_top" xlink:title=" ">
<polygon fill="white" stroke="#666666" points="1456,-519 1343,-519 1343,-500 1456,-500 1456,-519"/>
<text text-anchor="middle" x="1399.5" y="-507" font-family="Helvetica,sans-Serif" font-size="10.00">TranslatorEsperanto</text>
</a>
</g>
</g>
<!-- Node7&#45;&gt;Node31 -->
<g id="edge31" class="edge">
<title>Node7&#45;&gt;Node31</title>
<path fill="none" stroke="#63b8ff" d="M1296.73,-499.3C1312.29,-500.85 1328.33,-502.46 1342.95,-503.93"/>
<polygon fill="#63b8ff" stroke="#63b8ff" points="1296.9,-495.79 1286.61,-498.28 1296.21,-502.76 1296.9,-495.79"/>
</g>
<!-- Node32 -->
<g id="node33" class="node">
<title>Node32</title>
<g id="a_node33"><a xlink:href="d8/d83/class_translator_latvian.html" target="_top" xlink:title=" ">
<polygon fill="white" stroke="#666666" points="1450,-482 1349,-482 1349,-463 1450,-463 1450,-482"/>
<text text-anchor="middle" x="1399.5" y="-470" font-family="Helvetica,sans-Serif" font-size="10.00">TranslatorLatvian</text>
</a>
</g>
</g>
<!-- Node7&#45;&gt;Node32 -->
<g id="edge32" class="edge">
<title>Node7&#45;&gt;Node32</title>
<path fill="none" stroke="#63b8ff" d="M1296.89,-483.26C1314.52,-481.39 1332.78,-479.46 1348.86,-477.75"/>
<polygon fill="#63b8ff" stroke="#63b8ff" points="1296.18,-479.81 1286.61,-484.34 1296.92,-486.77 1296.18,-479.81"/>
</g>
<!-- Node33 -->
<g id="node34" class="node">
<title>Node33</title>
<g id="a_node34"><a xlink:href="d1/d56/class_translator_ukrainian.html" target="_top" xlink:title=" ">
<polygon fill="white" stroke="#666666" points="1455.5,-445 1343.5,-445 1343.5,-426 1455.5,-426 1455.5,-445"/>
<text text-anchor="middle" x="1399.5" y="-433" font-family="Helvetica,sans-Serif" font-size="10.00">TranslatorUkrainian</text>
</a>
</g>
</g>
<!-- Node7&#45;&gt;Node33 -->
<g id="edge33" class="edge">
<title>Node7&#45;&gt;Node33</title>
<path fill="none" stroke="#63b8ff" d="M1274.94,-479.16C1281.77,-477.17 1288.6,-474.95 1295,-472.5 1311.9,-466.04 1314.15,-460.09 1331,-453.5 1339.13,-450.32 1348.03,-447.5 1356.62,-445.1"/>
<polygon fill="#63b8ff" stroke="#63b8ff" points="1273.68,-475.87 1264.96,-481.9 1275.54,-482.62 1273.68,-475.87"/>
</g>
<!-- Node9 -->
<g id="node10" class="node">
<title>Node9</title>
<g id="a_node10"><a xlink:href="de/d49/class_translator_adapter__1__8__0.html" target="_top" xlink:title="Adapter class for languages that only contain translations up to version 1.8.0.">
<polygon fill="white" stroke="#666666" points="1641,-593 1504,-593 1504,-574 1641,-574 1641,-593"/>
<text text-anchor="middle" x="1572.5" y="-581" font-family="Helvetica,sans-Serif" font-size="10.00">TranslatorAdapter_1_8_0</text>
</a>
</g>
</g>
<!-- Node8&#45;&gt;Node9 -->
<g id="edge9" class="edge">
<title>Node8&#45;&gt;Node9</title>
<path fill="none" stroke="#63b8ff" d="M1454.35,-558.15C1477.84,-563.23 1505.04,-569.12 1527.32,-573.94"/>
<polygon fill="#63b8ff" stroke="#63b8ff" points="1455.05,-554.72 1444.54,-556.03 1453.57,-561.56 1455.05,-554.72"/>
</g>
<!-- Node29 -->
<g id="node30" class="node">
<title>Node29</title>
<g id="a_node30"><a xlink:href="d9/d82/class_translator_croatian.html" target="_top" xlink:title=" ">
<polygon fill="white" stroke="#666666" points="1625.5,-556 1519.5,-556 1519.5,-537 1625.5,-537 1625.5,-556"/>
<text text-anchor="middle" x="1572.5" y="-544" font-family="Helvetica,sans-Serif" font-size="10.00">TranslatorCroatian</text>
</a>
</g>
</g>
<!-- Node8&#45;&gt;Node29 -->
<g id="edge29" class="edge">
<title>Node8&#45;&gt;Node29</title>
<path fill="none" stroke="#63b8ff" d="M1478.19,-546.5C1492.16,-546.5 1506.41,-546.5 1519.44,-546.5"/>
<polygon fill="#63b8ff" stroke="#63b8ff" points="1478.08,-543 1468.08,-546.5 1478.08,-550 1478.08,-543"/>
</g>
<!-- Node30 -->
<g id="node31" class="node">
<title>Node30</title>
<g id="a_node31"><a xlink:href="de/d82/class_translator_polish.html" target="_top" xlink:title=" ">
<polygon fill="white" stroke="#666666" points="1619.5,-519 1525.5,-519 1525.5,-500 1619.5,-500 1619.5,-519"/>
<text text-anchor="middle" x="1572.5" y="-507" font-family="Helvetica,sans-Serif" font-size="10.00">TranslatorPolish</text>
</a>
</g>
</g>
<!-- Node8&#45;&gt;Node30 -->
<g id="edge30" class="edge">
<title>Node8&#45;&gt;Node30</title>
<path fill="none" stroke="#63b8ff" d="M1454.35,-534.85C1477.84,-529.77 1505.04,-523.88 1527.32,-519.06"/>
<polygon fill="#63b8ff" stroke="#63b8ff" points="1453.57,-531.44 1444.54,-536.97 1455.05,-538.28 1453.57,-531.44"/>
</g>
<!-- Node10 -->
<g id="node11" class="node">
<title>Node10</title>
<g id="a_node11"><a xlink:href="da/d24/class_translator_adapter__1__7__5.html" target="_top" xlink:title="Adapter class for languages that only contain translations up to version 1.7.5.">
<polygon fill="white" stroke="#666666" points="1814,-667 1677,-667 1677,-648 1814,-648 1814,-667"/>
<text text-anchor="middle" x="1745.5" y="-655" font-family="Helvetica,sans-Serif" font-size="10.00">TranslatorAdapter_1_7_5</text>
</a>
</g>
</g>
<!-- Node9&#45;&gt;Node10 -->
<g id="edge10" class="edge">
<title>Node9&#45;&gt;Node10</title>
<path fill="none" stroke="#63b8ff" d="M1597.82,-598.34C1618.35,-610.4 1648.83,-627.2 1677,-638.5 1685.93,-642.08 1695.77,-645.26 1705.12,-647.95"/>
<polygon fill="#63b8ff" stroke="#63b8ff" points="1599.51,-595.27 1589.13,-593.17 1595.93,-601.29 1599.51,-595.27"/>
</g>
<!-- Node25 -->
<g id="node26" class="node">
<title>Node25</title>
<g id="a_node26"><a xlink:href="da/db8/class_translator_armenian.html" target="_top" xlink:title=" ">
<polygon fill="white" stroke="#666666" points="1801.5,-630 1689.5,-630 1689.5,-611 1801.5,-611 1801.5,-630"/>
<text text-anchor="middle" x="1745.5" y="-618" font-family="Helvetica,sans-Serif" font-size="10.00">TranslatorArmenian</text>
</a>
</g>
</g>
<!-- Node9&#45;&gt;Node25 -->
<g id="edge25" class="edge">
<title>Node9&#45;&gt;Node25</title>
<path fill="none" stroke="#63b8ff" d="M1627.35,-595.15C1650.84,-600.23 1678.04,-606.12 1700.32,-610.94"/>
<polygon fill="#63b8ff" stroke="#63b8ff" points="1628.05,-591.72 1617.54,-593.03 1626.57,-598.56 1628.05,-591.72"/>
</g>
<!-- Node26 -->
<g id="node27" class="node">
<title>Node26</title>
<g id="a_node27"><a xlink:href="d9/dc1/class_translator_catalan.html" target="_top" xlink:title=" ">
<polygon fill="white" stroke="#666666" points="1796.5,-593 1694.5,-593 1694.5,-574 1796.5,-574 1796.5,-593"/>
<text text-anchor="middle" x="1745.5" y="-581" font-family="Helvetica,sans-Serif" font-size="10.00">TranslatorCatalan</text>
</a>
</g>
</g>
<!-- Node9&#45;&gt;Node26 -->
<g id="edge26" class="edge">
<title>Node9&#45;&gt;Node26</title>
<path fill="none" stroke="#63b8ff" d="M1651.15,-583.5C1665.8,-583.5 1680.76,-583.5 1694.28,-583.5"/>
<polygon fill="#63b8ff" stroke="#63b8ff" points="1651.08,-580 1641.08,-583.5 1651.08,-587 1651.08,-580"/>
</g>
<!-- Node27 -->
<g id="node28" class="node">
<title>Node27</title>
<g id="a_node28"><a xlink:href="d7/d21/class_translator_danish.html" target="_top" xlink:title=" ">
<polygon fill="white" stroke="#666666" points="1794.5,-556 1696.5,-556 1696.5,-537 1794.5,-537 1794.5,-556"/>
<text text-anchor="middle" x="1745.5" y="-544" font-family="Helvetica,sans-Serif" font-size="10.00">TranslatorDanish</text>
</a>
</g>
</g>
<!-- Node9&#45;&gt;Node27 -->
<g id="edge27" class="edge">
<title>Node9&#45;&gt;Node27</title>
<path fill="none" stroke="#63b8ff" d="M1627.35,-571.85C1650.84,-566.77 1678.04,-560.88 1700.32,-556.06"/>
<polygon fill="#63b8ff" stroke="#63b8ff" points="1626.57,-568.44 1617.54,-573.97 1628.05,-575.28 1626.57,-568.44"/>
</g>
<!-- Node28 -->
<g id="node29" class="node">
<title>Node28</title>
<g id="a_node29"><a xlink:href="df/dc8/class_translator_indonesian.html" target="_top" xlink:title=" ">
<polygon fill="white" stroke="#666666" points="1804.5,-519 1686.5,-519 1686.5,-500 1804.5,-500 1804.5,-519"/>
<text text-anchor="middle" x="1745.5" y="-507" font-family="Helvetica,sans-Serif" font-size="10.00">TranslatorIndonesian</text>
</a>
</g>
</g>
<!-- Node9&#45;&gt;Node28 -->
<g id="edge28" class="edge">
<title>Node9&#45;&gt;Node28</title>
<path fill="none" stroke="#63b8ff" d="M1629.42,-570.32C1633.44,-568.6 1637.35,-566.67 1641,-564.5 1660.72,-552.77 1657.2,-539.1 1677,-527.5 1682.86,-524.07 1689.39,-521.28 1696.01,-519.01"/>
<polygon fill="#63b8ff" stroke="#63b8ff" points="1627.97,-567.13 1619.86,-573.95 1630.46,-573.67 1627.97,-567.13"/>
</g>
<!-- Node11 -->
<g id="node12" class="node">
<title>Node11</title>
<g id="a_node12"><a xlink:href="d3/da1/class_translator_adapter__1__6__0.html" target="_top" xlink:title="Adapter class for languages that only contain translations up to version 1.6.0.">
<polygon fill="white" stroke="#666666" points="1987,-704 1850,-704 1850,-685 1987,-685 1987,-704"/>
<text text-anchor="middle" x="1918.5" y="-692" font-family="Helvetica,sans-Serif" font-size="10.00">TranslatorAdapter_1_6_0</text>
</a>
</g>
</g>
<!-- Node10&#45;&gt;Node11 -->
<g id="edge11" class="edge">
<title>Node10&#45;&gt;Node11</title>
<path fill="none" stroke="#63b8ff" d="M1800.35,-669.15C1823.84,-674.23 1851.04,-680.12 1873.32,-684.94"/>
<polygon fill="#63b8ff" stroke="#63b8ff" points="1801.05,-665.72 1790.54,-667.03 1799.57,-672.56 1801.05,-665.72"/>
</g>
<!-- Node23 -->
<g id="node24" class="node">
<title>Node23</title>
<g id="a_node24"><a xlink:href="d5/d43/class_translator_persian.html" target="_top" xlink:title=" ">
<polygon fill="white" stroke="#666666" points="1969,-667 1868,-667 1868,-648 1969,-648 1969,-667"/>
<text text-anchor="middle" x="1918.5" y="-655" font-family="Helvetica,sans-Serif" font-size="10.00">TranslatorPersian</text>
</a>
</g>
</g>
<!-- Node10&#45;&gt;Node23 -->
<g id="edge23" class="edge">
<title>Node10&#45;&gt;Node23</title>
<path fill="none" stroke="#63b8ff" d="M1824.26,-657.5C1839.06,-657.5 1854.18,-657.5 1867.81,-657.5"/>
<polygon fill="#63b8ff" stroke="#63b8ff" points="1824.08,-654 1814.08,-657.5 1824.08,-661 1824.08,-654"/>
</g>
<!-- Node24 -->
<g id="node25" class="node">
<title>Node24</title>
<g id="a_node25"><a xlink:href="dd/d80/class_translator_turkish.html" target="_top" xlink:title=" ">
<polygon fill="white" stroke="#666666" points="1968,-630 1869,-630 1869,-611 1968,-611 1968,-630"/>
<text text-anchor="middle" x="1918.5" y="-618" font-family="Helvetica,sans-Serif" font-size="10.00">TranslatorTurkish</text>
</a>
</g>
</g>
<!-- Node10&#45;&gt;Node24 -->
<g id="edge24" class="edge">
<title>Node10&#45;&gt;Node24</title>
<path fill="none" stroke="#63b8ff" d="M1800.35,-645.85C1823.84,-640.77 1851.04,-634.88 1873.32,-630.06"/>
<polygon fill="#63b8ff" stroke="#63b8ff" points="1799.57,-642.44 1790.54,-647.97 1801.05,-649.28 1799.57,-642.44"/>
</g>
<!-- Node12 -->
<g id="node13" class="node">
<title>Node12</title>
<g id="a_node13"><a xlink:href="d4/d2b/class_translator_adapter__1__4__6.html" target="_top" xlink:title="Adapter class for languages that only contain translations up to version 1.4.6.">
<polygon fill="white" stroke="#666666" points="2160,-815 2023,-815 2023,-796 2160,-796 2160,-815"/>
<text text-anchor="middle" x="2091.5" y="-803" font-family="Helvetica,sans-Serif" font-size="10.00">TranslatorAdapter_1_4_6</text>
</a>
</g>
</g>
<!-- Node11&#45;&gt;Node12 -->
<g id="edge12" class="edge">
<title>Node11&#45;&gt;Node12</title>
<path fill="none" stroke="#63b8ff" d="M1934.01,-711.8C1952.54,-732.78 1986.59,-767.79 2023,-787.5 2029.29,-790.91 2036.27,-793.7 2043.28,-795.98"/>
<polygon fill="#63b8ff" stroke="#63b8ff" points="1936.46,-709.28 1927.27,-704 1931.17,-713.86 1936.46,-709.28"/>
</g>
<!-- Node17 -->
<g id="node18" class="node">
<title>Node17</title>
<g id="a_node18"><a xlink:href="d3/d65/class_translator_afrikaans.html" target="_top" xlink:title=" ">
<polygon fill="white" stroke="#666666" points="2146.5,-778 2036.5,-778 2036.5,-759 2146.5,-759 2146.5,-778"/>
<text text-anchor="middle" x="2091.5" y="-766" font-family="Helvetica,sans-Serif" font-size="10.00">TranslatorAfrikaans</text>
</a>
</g>
</g>
<!-- Node11&#45;&gt;Node17 -->
<g id="edge17" class="edge">
<title>Node11&#45;&gt;Node17</title>
<path fill="none" stroke="#63b8ff" d="M1943.03,-709.31C1963.52,-721.7 1994.35,-739.11 2023,-750.5 2031.11,-753.73 2040,-756.56 2048.59,-758.97"/>
<polygon fill="#63b8ff" stroke="#63b8ff" points="1944.74,-706.26 1934.39,-704.01 1941.08,-712.22 1944.74,-706.26"/>
</g>
<!-- Node18 -->
<g id="node19" class="node">
<title>Node18</title>
<g id="a_node19"><a xlink:href="de/df7/class_translator_finnish.html" target="_top" xlink:title=" ">
<polygon fill="white" stroke="#666666" points="2141,-741 2042,-741 2042,-722 2141,-722 2141,-741"/>
<text text-anchor="middle" x="2091.5" y="-729" font-family="Helvetica,sans-Serif" font-size="10.00">TranslatorFinnish</text>
</a>
</g>
</g>
<!-- Node11&#45;&gt;Node18 -->
<g id="edge18" class="edge">
<title>Node11&#45;&gt;Node18</title>
<path fill="none" stroke="#63b8ff" d="M1973.35,-706.15C1996.84,-711.23 2024.04,-717.12 2046.32,-721.94"/>
<polygon fill="#63b8ff" stroke="#63b8ff" points="1974.05,-702.72 1963.54,-704.03 1972.57,-709.56 1974.05,-702.72"/>
</g>
<!-- Node19 -->
<g id="node20" class="node">
<title>Node19</title>
<g id="a_node20"><a xlink:href="d9/ddf/class_translator_macedonian.html" target="_top" xlink:title=" ">
<polygon fill="white" stroke="#666666" points="2153.5,-704 2029.5,-704 2029.5,-685 2153.5,-685 2153.5,-704"/>
<text text-anchor="middle" x="2091.5" y="-692" font-family="Helvetica,sans-Serif" font-size="10.00">TranslatorMacedonian</text>
</a>
</g>
</g>
<!-- Node11&#45;&gt;Node19 -->
<g id="edge19" class="edge">
<title>Node11&#45;&gt;Node19</title>
<path fill="none" stroke="#63b8ff" d="M1997.28,-694.5C2008,-694.5 2018.88,-694.5 2029.24,-694.5"/>
<polygon fill="#63b8ff" stroke="#63b8ff" points="1997.08,-691 1987.08,-694.5 1997.08,-698 1997.08,-691"/>
</g>
<!-- Node20 -->
<g id="node21" class="node">
<title>Node20</title>
<g id="a_node21"><a xlink:href="d5/d0a/class_translator_serbian.html" target="_top" xlink:title=" ">
<polygon fill="white" stroke="#666666" points="2142,-667 2041,-667 2041,-648 2142,-648 2142,-667"/>
<text text-anchor="middle" x="2091.5" y="-655" font-family="Helvetica,sans-Serif" font-size="10.00">TranslatorSerbian</text>
</a>
</g>
</g>
<!-- Node11&#45;&gt;Node20 -->
<g id="edge20" class="edge">
<title>Node11&#45;&gt;Node20</title>
<path fill="none" stroke="#63b8ff" d="M1973.35,-682.85C1996.84,-677.77 2024.04,-671.88 2046.32,-667.06"/>
<polygon fill="#63b8ff" stroke="#63b8ff" points="1972.57,-679.44 1963.54,-684.97 1974.05,-686.28 1972.57,-679.44"/>
</g>
<!-- Node21 -->
<g id="node22" class="node">
<title>Node21</title>
<g id="a_node22"><a xlink:href="dc/d03/class_translator_serbian_cyrillic.html" target="_top" xlink:title=" ">
<polygon fill="white" stroke="#666666" points="2159,-630 2024,-630 2024,-611 2159,-611 2159,-630"/>
<text text-anchor="middle" x="2091.5" y="-618" font-family="Helvetica,sans-Serif" font-size="10.00">TranslatorSerbianCyrillic</text>
</a>
</g>
</g>
<!-- Node11&#45;&gt;Node21 -->
<g id="edge21" class="edge">
<title>Node11&#45;&gt;Node21</title>
<path fill="none" stroke="#63b8ff" d="M1975.42,-681.32C1979.44,-679.6 1983.35,-677.67 1987,-675.5 2006.72,-663.77 2003.2,-650.1 2023,-638.5 2028.86,-635.07 2035.39,-632.28 2042.01,-630.01"/>
<polygon fill="#63b8ff" stroke="#63b8ff" points="1973.97,-678.13 1965.86,-684.95 1976.46,-684.67 1973.97,-678.13"/>
</g>
<!-- Node22 -->
<g id="node23" class="node">
<title>Node22</title>
<g id="a_node23"><a xlink:href="df/d20/class_translator_vietnamese.html" target="_top" xlink:title=" ">
<polygon fill="white" stroke="#666666" points="2153,-593 2030,-593 2030,-574 2153,-574 2153,-593"/>
<text text-anchor="middle" x="2091.5" y="-581" font-family="Helvetica,sans-Serif" font-size="10.00">TranslatorVietnamese</text>
</a>
</g>
</g>
<!-- Node11&#45;&gt;Node22 -->
<g id="edge22" class="edge">
<title>Node11&#45;&gt;Node22</title>
<path fill="none" stroke="#63b8ff" d="M1980.48,-680.18C1982.77,-678.76 1984.96,-677.21 1987,-675.5 2015.06,-652.04 1994.78,-624.76 2023,-601.5 2027.12,-598.11 2031.81,-595.35 2036.77,-593.1"/>
<polygon fill="#63b8ff" stroke="#63b8ff" points="1978.48,-677.27 1971.21,-684.97 1981.7,-683.49 1978.48,-677.27"/>
</g>
<!-- Node13 -->
<g id="node14" class="node">
<title>Node13</title>
<g id="a_node14"><a xlink:href="d3/de9/class_translator_arabic.html" target="_top" xlink:title=" ">
<polygon fill="white" stroke="#666666" points="2302,-870 2207,-870 2207,-851 2302,-851 2302,-870"/>
<text text-anchor="middle" x="2254.5" y="-858" font-family="Helvetica,sans-Serif" font-size="10.00">TranslatorArabic</text>
</a>
</g>
</g>
<!-- Node12&#45;&gt;Node13 -->
<g id="edge13" class="edge">
<title>Node12&#45;&gt;Node13</title>
<path fill="none" stroke="#63b8ff" d="M2127.94,-818.57C2147.87,-825.81 2173.25,-834.88 2196,-842.5 2204.43,-845.33 2213.6,-848.26 2222.09,-850.92"/>
<polygon fill="#63b8ff" stroke="#63b8ff" points="2128.94,-815.2 2118.35,-815.06 2126.54,-821.78 2128.94,-815.2"/>
</g>
<!-- Node14 -->
<g id="node15" class="node">
<title>Node14</title>
<g id="a_node15"><a xlink:href="dc/d53/class_translator_lithuanian.html" target="_top" xlink:title=" ">
<polygon fill="white" stroke="#666666" points="2312.5,-833 2196.5,-833 2196.5,-814 2312.5,-814 2312.5,-833"/>
<text text-anchor="middle" x="2254.5" y="-821" font-family="Helvetica,sans-Serif" font-size="10.00">TranslatorLithuanian</text>
</a>
</g>
</g>
<!-- Node12&#45;&gt;Node14 -->
<g id="edge14" class="edge">
<title>Node12&#45;&gt;Node14</title>
<path fill="none" stroke="#63b8ff" d="M2170.53,-814.22C2179.27,-815.2 2188.05,-816.18 2196.46,-817.12"/>
<polygon fill="#63b8ff" stroke="#63b8ff" points="2170.64,-810.71 2160.31,-813.08 2169.86,-817.67 2170.64,-810.71"/>
</g>
<!-- Node15 -->
<g id="node16" class="node">
<title>Node15</title>
<g id="a_node16"><a xlink:href="dd/d38/class_translator_norwegian.html" target="_top" xlink:title=" ">
<polygon fill="white" stroke="#666666" points="2313,-796 2196,-796 2196,-777 2313,-777 2313,-796"/>
<text text-anchor="middle" x="2254.5" y="-784" font-family="Helvetica,sans-Serif" font-size="10.00">TranslatorNorwegian</text>
</a>
</g>
</g>
<!-- Node12&#45;&gt;Node15 -->
<g id="edge15" class="edge">
<title>Node12&#45;&gt;Node15</title>
<path fill="none" stroke="#63b8ff" d="M2170.38,-796.31C2179,-795.29 2187.66,-794.27 2195.96,-793.29"/>
<polygon fill="#63b8ff" stroke="#63b8ff" points="2169.83,-792.85 2160.31,-797.5 2170.65,-799.8 2169.83,-792.85"/>
</g>
<!-- Node16 -->
<g id="node17" class="node">
<title>Node16</title>
<g id="a_node17"><a xlink:href="dd/d0b/class_translator_slovene.html" target="_top" xlink:title=" ">
<polygon fill="white" stroke="#666666" points="2306.5,-759 2202.5,-759 2202.5,-740 2306.5,-740 2306.5,-759"/>
<text text-anchor="middle" x="2254.5" y="-747" font-family="Helvetica,sans-Serif" font-size="10.00">TranslatorSlovene</text>
</a>
</g>
</g>
<!-- Node12&#45;&gt;Node16 -->
<g id="edge16" class="edge">
<title>Node12&#45;&gt;Node16</title>
<path fill="none" stroke="#63b8ff" d="M2144.12,-793.03C2149.54,-791.34 2154.92,-789.49 2160,-787.5 2176.85,-780.91 2179.35,-775.58 2196,-768.5 2204.13,-765.04 2213.11,-761.81 2221.51,-759.02"/>
<polygon fill="#63b8ff" stroke="#63b8ff" points="2142.98,-789.71 2134.38,-795.9 2144.96,-796.43 2142.98,-789.71"/>
</g>
<!-- Node54 -->
<g id="node55" class="node">
<title>Node54</title>
<g id="a_node55"><a xlink:href="d0/d16/class_translator_japanese_en.html" target="_top" xlink:title=" ">
<polygon fill="white" stroke="#666666" points="393,-75 272,-75 272,-56 393,-56 393,-75"/>
<text text-anchor="middle" x="332.5" y="-63" font-family="Helvetica,sans-Serif" font-size="10.00">TranslatorJapaneseEn</text>
</a>
</g>
</g>
<!-- Node53&#45;&gt;Node54 -->
<g id="edge54" class="edge">
<title>Node53&#45;&gt;Node54</title>
<path fill="none" stroke="#63b8ff" d="M225.15,-53.33C240.31,-55.06 256.6,-56.93 271.77,-58.66"/>
<polygon fill="#63b8ff" stroke="#63b8ff" points="225.19,-49.81 214.86,-52.15 224.39,-56.76 225.19,-49.81"/>
</g>
<!-- Node55 -->
<g id="node56" class="node">
<title>Node55</title>
<g id="a_node56"><a xlink:href="d0/d3a/class_translator_korean_en.html" target="_top" xlink:title=" ">
<polygon fill="white" stroke="#666666" points="387.5,-38 277.5,-38 277.5,-19 387.5,-19 387.5,-38"/>
<text text-anchor="middle" x="332.5" y="-26" font-family="Helvetica,sans-Serif" font-size="10.00">TranslatorKoreanEn</text>
</a>
</g>
</g>
<!-- Node53&#45;&gt;Node55 -->
<g id="edge55" class="edge">
<title>Node53&#45;&gt;Node55</title>
<path fill="none" stroke="#63b8ff" d="M225.25,-40.02C242.28,-38.17 260.73,-36.17 277.41,-34.37"/>
<polygon fill="#63b8ff" stroke="#63b8ff" points="224.42,-36.59 214.86,-41.15 225.18,-43.55 224.42,-36.59"/>
</g>
</g>
</svg>
