<?xml version="1.0" encoding="UTF-8" standalone="no"?>
<!DOCTYPE svg PUBLIC "-//W3C//DTD SVG 1.1//EN"
 "http://www.w3.org/Graphics/SVG/1.1/DTD/svg11.dtd">
<!-- Generated by graphviz version 2.43.0 (0)
 -->
<!-- Title: Graphical Class Hierarchy Pages: 1 -->
<svg width="2321pt" height="914pt"
 viewBox="0.00 0.00 2321.00 914.00" xmlns="http://www.w3.org/2000/svg" xmlns:xlink="http://www.w3.org/1999/xlink">
<g id="graph0" class="graph" transform="scale(1 1) rotate(0) translate(4 910)">
<title>Graphical Class Hierarchy</title>
<!-- Node0 -->
<g id="node1" class="node">
<title>Node0</title>
<g id="a_node1"><a xlink:href="d8/dfb/class_translator.html" target="_top" xlink:title="Abstract base class for all translatable text fragments.">
<polygon fill="white" stroke="#666666" points="65,-148 0,-148 0,-129 65,-129 65,-148"/>
<text text-anchor="middle" x="32.5" y="-136" font-family="Helvetica,sans-Serif" font-size="10.00">Translator</text>
</a>
</g>
</g>
<!-- Node1 -->
<g id="node2" class="node">
<title>Node1</title>
<g id="a_node2"><a xlink:href="db/d6c/class_translator_adapter_base.html" target="_top" xlink:title="Base of the translator adapter tree.">
<polygon fill="white" stroke="#666666" points="228,-278 101,-278 101,-259 228,-259 228,-278"/>
<text text-anchor="middle" x="164.5" y="-266" font-family="Helvetica,sans-Serif" font-size="10.00">TranslatorAdapterBase</text>
</a>
</g>
</g>
<!-- Node0&#45;&gt;Node1 -->
<g id="edge1" class="edge">
<title>Node0&#45;&gt;Node1</title>
<path fill="none" stroke="#63b8ff" d="M40.13,-157.54C49.72,-182.32 69.81,-225.31 101,-249.5 106.02,-253.39 111.83,-256.49 117.85,-258.96"/>
<polygon fill="#63b8ff" stroke="#63b8ff" points="43.41,-156.31 36.66,-148.14 36.84,-158.73 43.41,-156.31"/>
</g>
<!-- Node48 -->
<g id="node49" class="node">
<title>Node48</title>
<g id="a_node49"><a xlink:href="d2/d4c/class_translator_brazilian.html" target="_top" xlink:title=" ">
<polygon fill="white" stroke="#666666" points="218,-241 111,-241 111,-222 218,-222 218,-241"/>
<text text-anchor="middle" x="164.5" y="-229" font-family="Helvetica,sans-Serif" font-size="10.00">TranslatorBrazilian</text>
</a>
</g>
</g>
<!-- Node0&#45;&gt;Node48 -->
<g id="edge48" class="edge">
<title>Node0&#45;&gt;Node48</title>
<path fill="none" stroke="#63b8ff" d="M45.63,-156.62C57.77,-173.41 77.93,-197.93 101,-212.5 107.04,-216.31 113.89,-219.4 120.79,-221.89"/>
<polygon fill="#63b8ff" stroke="#63b8ff" points="48.34,-154.39 39.75,-148.2 42.61,-158.4 48.34,-154.39"/>
</g>
<!-- Node49 -->
<g id="node50" class="node">
<title>Node49</title>
<g id="a_node50"><a xlink:href="dd/d8a/class_translator_czech.html" target="_top" xlink:title=" ">
<polygon fill="white" stroke="#666666" points="211.5,-204 117.5,-204 117.5,-185 211.5,-185 211.5,-204"/>
<text text-anchor="middle" x="164.5" y="-192" font-family="Helvetica,sans-Serif" font-size="10.00">TranslatorCzech</text>
</a>
</g>
</g>
<!-- Node0&#45;&gt;Node49 -->
<g id="edge49" class="edge">
<title>Node0&#45;&gt;Node49</title>
<path fill="none" stroke="#63b8ff" d="M57.79,-153.41C70.38,-160.72 86.18,-169.26 101,-175.5 109.47,-179.06 118.83,-182.27 127.68,-185"/>
<polygon fill="#63b8ff" stroke="#63b8ff" points="59.25,-150.2 48.86,-148.12 55.68,-156.23 59.25,-150.2"/>
</g>
<!-- Node50 -->
<g id="node51" class="node">
<title>Node50</title>
<g id="a_node51"><a xlink:href="d9/d1b/class_translator_dutch.html" target="_top" xlink:title=" ">
<polygon fill="white" stroke="#666666" points="211,-167 118,-167 118,-148 211,-148 211,-167"/>
<text text-anchor="middle" x="164.5" y="-155" font-family="Helvetica,sans-Serif" font-size="10.00">TranslatorDutch</text>
</a>
</g>
</g>
<!-- Node0&#45;&gt;Node50 -->
<g id="edge50" class="edge">
<title>Node0&#45;&gt;Node50</title>
<path fill="none" stroke="#63b8ff" d="M75.32,-144.61C88.87,-146.59 103.97,-148.8 117.79,-150.82"/>
<polygon fill="#63b8ff" stroke="#63b8ff" points="75.7,-141.13 65.3,-143.15 74.69,-148.06 75.7,-141.13"/>
</g>
<!-- Node51 -->
<g id="node52" class="node">
<title>Node51</title>
<g id="a_node52"><a xlink:href="d6/d78/class_translator_english.html" target="_top" xlink:title=" ">
<polygon fill="white" stroke="#666666" points="214.5,-130 114.5,-130 114.5,-111 214.5,-111 214.5,-130"/>
<text text-anchor="middle" x="164.5" y="-118" font-family="Helvetica,sans-Serif" font-size="10.00">TranslatorEnglish</text>
</a>
</g>
</g>
<!-- Node0&#45;&gt;Node51 -->
<g id="edge51" class="edge">
<title>Node0&#45;&gt;Node51</title>
<path fill="none" stroke="#63b8ff" d="M75.37,-132.7C87.77,-130.99 101.47,-129.09 114.29,-127.31"/>
<polygon fill="#63b8ff" stroke="#63b8ff" points="74.73,-129.26 65.3,-134.1 75.69,-136.19 74.73,-129.26"/>
</g>
<!-- Node54 -->
<g id="node55" class="node">
<title>Node54</title>
<g id="a_node55"><a xlink:href="dc/df2/class_translator_portuguese.html" target="_top" xlink:title=" ">
<polygon fill="white" stroke="#666666" points="224,-93 105,-93 105,-74 224,-74 224,-93"/>
<text text-anchor="middle" x="164.5" y="-81" font-family="Helvetica,sans-Serif" font-size="10.00">TranslatorPortuguese</text>
</a>
</g>
</g>
<!-- Node0&#45;&gt;Node54 -->
<g id="edge54" class="edge">
<title>Node0&#45;&gt;Node54</title>
<path fill="none" stroke="#63b8ff" d="M57.5,-123.65C70.12,-116.28 86.03,-107.67 101,-101.5 108.73,-98.32 117.21,-95.47 125.36,-93.03"/>
<polygon fill="#63b8ff" stroke="#63b8ff" points="55.37,-120.85 48.57,-128.97 58.95,-126.86 55.37,-120.85"/>
</g>
<!-- Node55 -->
<g id="node56" class="node">
<title>Node55</title>
<g id="a_node56"><a xlink:href="dc/d44/class_translator_spanish.html" target="_top" xlink:title=" ">
<polygon fill="white" stroke="#666666" points="216,-56 113,-56 113,-37 216,-37 216,-56"/>
<text text-anchor="middle" x="164.5" y="-44" font-family="Helvetica,sans-Serif" font-size="10.00">TranslatorSpanish</text>
</a>
</g>
</g>
<!-- Node0&#45;&gt;Node55 -->
<g id="edge55" class="edge">
<title>Node0&#45;&gt;Node55</title>
<path fill="none" stroke="#63b8ff" d="M45.59,-120.3C57.69,-103.45 77.82,-78.9 101,-64.5 106.47,-61.1 112.6,-58.33 118.83,-56.06"/>
<polygon fill="#63b8ff" stroke="#63b8ff" points="42.55,-118.54 39.72,-128.76 48.3,-122.54 42.55,-118.54"/>
</g>
<!-- Node56 -->
<g id="node57" class="node">
<title>Node56</title>
<g id="a_node57"><a xlink:href="d5/d5c/class_translator_swedish.html" target="_top" xlink:title=" ">
<polygon fill="white" stroke="#666666" points="217,-19 112,-19 112,0 217,0 217,-19"/>
<text text-anchor="middle" x="164.5" y="-7" font-family="Helvetica,sans-Serif" font-size="10.00">TranslatorSwedish</text>
</a>
</g>
</g>
<!-- Node0&#45;&gt;Node56 -->
<g id="edge56" class="edge">
<title>Node0&#45;&gt;Node56</title>
<path fill="none" stroke="#63b8ff" d="M40.08,-119.39C49.61,-94.53 69.64,-51.46 101,-27.5 105.49,-24.07 110.6,-21.3 115.94,-19.05"/>
<polygon fill="#63b8ff" stroke="#63b8ff" points="36.78,-118.23 36.63,-128.82 43.35,-120.63 36.78,-118.23"/>
</g>
<!-- Node2 -->
<g id="node3" class="node">
<title>Node2</title>
<g id="a_node3"><a xlink:href="dd/dba/class_translator_adapter__1__9__5.html" target="_top" xlink:title=" ">
<polygon fill="white" stroke="#666666" points="401,-278 264,-278 264,-259 401,-259 401,-278"/>
<text text-anchor="middle" x="332.5" y="-266" font-family="Helvetica,sans-Serif" font-size="10.00">TranslatorAdapter_1_9_5</text>
</a>
</g>
</g>
<!-- Node1&#45;&gt;Node2 -->
<g id="edge2" class="edge">
<title>Node1&#45;&gt;Node2</title>
<path fill="none" stroke="#63b8ff" d="M238.49,-268.5C246.95,-268.5 255.56,-268.5 263.94,-268.5"/>
<polygon fill="#63b8ff" stroke="#63b8ff" points="238.26,-265 228.26,-268.5 238.26,-272 238.26,-265"/>
</g>
<!-- Node3 -->
<g id="node4" class="node">
<title>Node3</title>
<g id="a_node4"><a xlink:href="d0/d33/class_translator_adapter__1__9__4.html" target="_top" xlink:title=" ">
<polygon fill="white" stroke="#666666" points="574,-296 437,-296 437,-277 574,-277 574,-296"/>
<text text-anchor="middle" x="505.5" y="-284" font-family="Helvetica,sans-Serif" font-size="10.00">TranslatorAdapter_1_9_4</text>
</a>
</g>
</g>
<!-- Node2&#45;&gt;Node3 -->
<g id="edge3" class="edge">
<title>Node2&#45;&gt;Node3</title>
<path fill="none" stroke="#63b8ff" d="M411.1,-276.67C419.69,-277.57 428.39,-278.49 436.85,-279.38"/>
<polygon fill="#63b8ff" stroke="#63b8ff" points="411.4,-273.18 401.08,-275.61 410.66,-280.14 411.4,-273.18"/>
</g>
<!-- Node47 -->
<g id="node48" class="node">
<title>Node47</title>
<g id="a_node48"><a xlink:href="da/d1a/class_translator_french.html" target="_top" xlink:title=" ">
<polygon fill="white" stroke="#666666" points="554,-259 457,-259 457,-240 554,-240 554,-259"/>
<text text-anchor="middle" x="505.5" y="-247" font-family="Helvetica,sans-Serif" font-size="10.00">TranslatorFrench</text>
</a>
</g>
</g>
<!-- Node2&#45;&gt;Node47 -->
<g id="edge47" class="edge">
<title>Node2&#45;&gt;Node47</title>
<path fill="none" stroke="#63b8ff" d="M411.24,-259.86C426.81,-258.13 442.72,-256.36 456.9,-254.79"/>
<polygon fill="#63b8ff" stroke="#63b8ff" points="410.64,-256.41 401.08,-260.99 411.41,-263.36 410.64,-256.41"/>
</g>
<!-- Node4 -->
<g id="node5" class="node">
<title>Node4</title>
<g id="a_node5"><a xlink:href="d3/d2e/class_translator_adapter__1__9__2.html" target="_top" xlink:title=" ">
<polygon fill="white" stroke="#666666" points="747,-370 610,-370 610,-351 747,-351 747,-370"/>
<text text-anchor="middle" x="678.5" y="-358" font-family="Helvetica,sans-Serif" font-size="10.00">TranslatorAdapter_1_9_2</text>
</a>
</g>
</g>
<!-- Node3&#45;&gt;Node4 -->
<g id="edge4" class="edge">
<title>Node3&#45;&gt;Node4</title>
<path fill="none" stroke="#63b8ff" d="M530.82,-301.34C551.35,-313.4 581.83,-330.2 610,-341.5 618.93,-345.08 628.77,-348.26 638.12,-350.95"/>
<polygon fill="#63b8ff" stroke="#63b8ff" points="532.51,-298.27 522.13,-296.17 528.93,-304.29 532.51,-298.27"/>
</g>
<!-- Node43 -->
<g id="node44" class="node">
<title>Node43</title>
<g id="a_node44"><a xlink:href="da/dbb/class_translator_bulgarian.html" target="_top" xlink:title=" ">
<polygon fill="white" stroke="#666666" points="734,-333 623,-333 623,-314 734,-314 734,-333"/>
<text text-anchor="middle" x="678.5" y="-321" font-family="Helvetica,sans-Serif" font-size="10.00">TranslatorBulgarian</text>
</a>
</g>
</g>
<!-- Node3&#45;&gt;Node43 -->
<g id="edge43" class="edge">
<title>Node3&#45;&gt;Node43</title>
<path fill="none" stroke="#63b8ff" d="M560.35,-298.15C583.84,-303.23 611.04,-309.12 633.32,-313.94"/>
<polygon fill="#63b8ff" stroke="#63b8ff" points="561.05,-294.72 550.54,-296.03 559.57,-301.56 561.05,-294.72"/>
</g>
<!-- Node44 -->
<g id="node45" class="node">
<title>Node44</title>
<g id="a_node45"><a xlink:href="d6/db6/class_translator_chinese.html" target="_top" xlink:title=" ">
<polygon fill="white" stroke="#666666" points="730.5,-296 626.5,-296 626.5,-277 730.5,-277 730.5,-296"/>
<text text-anchor="middle" x="678.5" y="-284" font-family="Helvetica,sans-Serif" font-size="10.00">TranslatorChinese</text>
</a>
</g>
</g>
<!-- Node3&#45;&gt;Node44 -->
<g id="edge44" class="edge">
<title>Node3&#45;&gt;Node44</title>
<path fill="none" stroke="#63b8ff" d="M584.41,-286.5C598.69,-286.5 613.26,-286.5 626.49,-286.5"/>
<polygon fill="#63b8ff" stroke="#63b8ff" points="584.08,-283 574.08,-286.5 584.08,-290 584.08,-283"/>
</g>
<!-- Node45 -->
<g id="node46" class="node">
<title>Node45</title>
<g id="a_node46"><a xlink:href="df/d75/class_translator_greek.html" target="_top" xlink:title=" ">
<polygon fill="white" stroke="#666666" points="725.5,-259 631.5,-259 631.5,-240 725.5,-240 725.5,-259"/>
<text text-anchor="middle" x="678.5" y="-247" font-family="Helvetica,sans-Serif" font-size="10.00">TranslatorGreek</text>
</a>
</g>
</g>
<!-- Node3&#45;&gt;Node45 -->
<g id="edge45" class="edge">
<title>Node3&#45;&gt;Node45</title>
<path fill="none" stroke="#63b8ff" d="M560.35,-274.85C583.84,-269.77 611.04,-263.88 633.32,-259.06"/>
<polygon fill="#63b8ff" stroke="#63b8ff" points="559.57,-271.44 550.54,-276.97 561.05,-278.28 559.57,-271.44"/>
</g>
<!-- Node46 -->
<g id="node47" class="node">
<title>Node46</title>
<g id="a_node47"><a xlink:href="d1/d8a/class_translator_hindi.html" target="_top" xlink:title=" ">
<polygon fill="white" stroke="#666666" points="723.5,-222 633.5,-222 633.5,-203 723.5,-203 723.5,-222"/>
<text text-anchor="middle" x="678.5" y="-210" font-family="Helvetica,sans-Serif" font-size="10.00">TranslatorHindi</text>
</a>
</g>
</g>
<!-- Node3&#45;&gt;Node46 -->
<g id="edge46" class="edge">
<title>Node3&#45;&gt;Node46</title>
<path fill="none" stroke="#63b8ff" d="M562.42,-273.32C566.44,-271.6 570.35,-269.67 574,-267.5 593.72,-255.77 590.2,-242.1 610,-230.5 617.12,-226.33 625.21,-223.11 633.27,-220.62"/>
<polygon fill="#63b8ff" stroke="#63b8ff" points="560.97,-270.13 552.86,-276.95 563.46,-276.67 560.97,-270.13"/>
</g>
<!-- Node5 -->
<g id="node6" class="node">
<title>Node5</title>
<g id="a_node6"><a xlink:href="de/dde/class_translator_adapter__1__8__19.html" target="_top" xlink:title=" ">
<polygon fill="white" stroke="#666666" points="926,-370 783,-370 783,-351 926,-351 926,-370"/>
<text text-anchor="middle" x="854.5" y="-358" font-family="Helvetica,sans-Serif" font-size="10.00">TranslatorAdapter_1_8_19</text>
</a>
</g>
</g>
<!-- Node4&#45;&gt;Node5 -->
<g id="edge5" class="edge">
<title>Node4&#45;&gt;Node5</title>
<path fill="none" stroke="#63b8ff" d="M757.47,-360.5C765.89,-360.5 774.42,-360.5 782.75,-360.5"/>
<polygon fill="#63b8ff" stroke="#63b8ff" points="757.27,-357 747.27,-360.5 757.27,-364 757.27,-357"/>
</g>
<!-- Node6 -->
<g id="node7" class="node">
<title>Node6</title>
<g id="a_node7"><a xlink:href="d4/d2e/class_translator_adapter__1__8__15.html" target="_top" xlink:title=" ">
<polygon fill="white" stroke="#666666" points="1105,-370 962,-370 962,-351 1105,-351 1105,-370"/>
<text text-anchor="middle" x="1033.5" y="-358" font-family="Helvetica,sans-Serif" font-size="10.00">TranslatorAdapter_1_8_15</text>
</a>
</g>
</g>
<!-- Node5&#45;&gt;Node6 -->
<g id="edge6" class="edge">
<title>Node5&#45;&gt;Node6</title>
<path fill="none" stroke="#63b8ff" d="M936.49,-360.5C944.97,-360.5 953.54,-360.5 961.89,-360.5"/>
<polygon fill="#63b8ff" stroke="#63b8ff" points="936.22,-357 926.22,-360.5 936.22,-364 936.22,-357"/>
</g>
<!-- Node7 -->
<g id="node8" class="node">
<title>Node7</title>
<g id="a_node8"><a xlink:href="de/d2f/class_translator_adapter__1__8__4.html" target="_top" xlink:title=" ">
<polygon fill="white" stroke="#666666" points="1286.5,-537 1149.5,-537 1149.5,-518 1286.5,-518 1286.5,-537"/>
<text text-anchor="middle" x="1218" y="-525" font-family="Helvetica,sans-Serif" font-size="10.00">TranslatorAdapter_1_8_4</text>
</a>
</g>
</g>
<!-- Node6&#45;&gt;Node7 -->
<g id="edge7" class="edge">
<title>Node6&#45;&gt;Node7</title>
<path fill="none" stroke="#63b8ff" d="M1042.89,-379.78C1057.81,-411.7 1092.04,-475.29 1141,-508.5 1146.74,-512.39 1153.21,-515.49 1159.89,-517.95"/>
<polygon fill="#63b8ff" stroke="#63b8ff" points="1045.89,-377.93 1038.58,-370.26 1039.52,-380.81 1045.89,-377.93"/>
</g>
<!-- Node34 -->
<g id="node35" class="node">
<title>Node34</title>
<g id="a_node35"><a xlink:href="dd/df6/class_translator_chinesetraditional.html" target="_top" xlink:title=" ">
<polygon fill="white" stroke="#666666" points="1295,-500 1141,-500 1141,-481 1295,-481 1295,-500"/>
<text text-anchor="middle" x="1218" y="-488" font-family="Helvetica,sans-Serif" font-size="10.00">TranslatorChinesetraditional</text>
</a>
</g>
</g>
<!-- Node6&#45;&gt;Node34 -->
<g id="edge34" class="edge">
<title>Node6&#45;&gt;Node34</title>
<path fill="none" stroke="#63b8ff" d="M1046.88,-378.77C1064.71,-403.63 1100.03,-447.74 1141,-471.5 1147.71,-475.39 1155.19,-478.49 1162.78,-480.96"/>
<polygon fill="#63b8ff" stroke="#63b8ff" points="1049.53,-376.45 1040.93,-370.26 1043.79,-380.46 1049.53,-376.45"/>
</g>
<!-- Node35 -->
<g id="node36" class="node">
<title>Node35</title>
<g id="a_node36"><a xlink:href="d6/d07/class_translator_german.html" target="_top" xlink:title=" ">
<polygon fill="white" stroke="#666666" points="1270,-463 1166,-463 1166,-444 1270,-444 1270,-463"/>
<text text-anchor="middle" x="1218" y="-451" font-family="Helvetica,sans-Serif" font-size="10.00">TranslatorGerman</text>
</a>
</g>
</g>
<!-- Node6&#45;&gt;Node35 -->
<g id="edge35" class="edge">
<title>Node6&#45;&gt;Node35</title>
<path fill="none" stroke="#63b8ff" d="M1053.32,-376.77C1073.65,-393.56 1107.63,-419.35 1141,-434.5 1149.42,-438.32 1158.73,-441.46 1167.86,-443.99"/>
<polygon fill="#63b8ff" stroke="#63b8ff" points="1055.39,-373.94 1045.48,-370.19 1050.89,-379.3 1055.39,-373.94"/>
</g>
<!-- Node36 -->
<g id="node37" class="node">
<title>Node36</title>
<g id="a_node37"><a xlink:href="db/d5f/class_translator_hungarian.html" target="_top" xlink:title=" ">
<polygon fill="white" stroke="#666666" points="1275.5,-426 1160.5,-426 1160.5,-407 1275.5,-407 1275.5,-426"/>
<text text-anchor="middle" x="1218" y="-414" font-family="Helvetica,sans-Serif" font-size="10.00">TranslatorHungarian</text>
</a>
</g>
</g>
<!-- Node6&#45;&gt;Node36 -->
<g id="edge36" class="edge">
<title>Node6&#45;&gt;Node36</title>
<path fill="none" stroke="#63b8ff" d="M1069.72,-373.62C1090.35,-381.09 1116.98,-390.34 1141,-397.5 1152.21,-400.84 1164.46,-404.08 1175.8,-406.91"/>
<polygon fill="#63b8ff" stroke="#63b8ff" points="1070.71,-370.26 1060.11,-370.12 1068.31,-376.84 1070.71,-370.26"/>
</g>
<!-- Node37 -->
<g id="node38" class="node">
<title>Node37</title>
<g id="a_node38"><a xlink:href="d2/df8/class_translator_italian.html" target="_top" xlink:title=" ">
<polygon fill="white" stroke="#666666" points="1265.5,-389 1170.5,-389 1170.5,-370 1265.5,-370 1265.5,-389"/>
<text text-anchor="middle" x="1218" y="-377" font-family="Helvetica,sans-Serif" font-size="10.00">TranslatorItalian</text>
</a>
</g>
</g>
<!-- Node6&#45;&gt;Node37 -->
<g id="edge37" class="edge">
<title>Node6&#45;&gt;Node37</title>
<path fill="none" stroke="#63b8ff" d="M1115.15,-368.9C1134.01,-370.86 1153.48,-372.89 1170.29,-374.64"/>
<polygon fill="#63b8ff" stroke="#63b8ff" points="1115.37,-365.4 1105.06,-367.85 1114.64,-372.36 1115.37,-365.4"/>
</g>
<!-- Node38 -->
<g id="node39" class="node">
<title>Node38</title>
<g id="a_node39"><a xlink:href="d1/d6a/class_translator_japanese.html" target="_top" xlink:title=" ">
<polygon fill="white" stroke="#666666" points="1272.5,-352 1163.5,-352 1163.5,-333 1272.5,-333 1272.5,-352"/>
<text text-anchor="middle" x="1218" y="-340" font-family="Helvetica,sans-Serif" font-size="10.00">TranslatorJapanese</text>
</a>
</g>
</g>
<!-- Node6&#45;&gt;Node38 -->
<g id="edge38" class="edge">
<title>Node6&#45;&gt;Node38</title>
<path fill="none" stroke="#63b8ff" d="M1115.14,-352.55C1131.45,-350.94 1148.22,-349.28 1163.33,-347.79"/>
<polygon fill="#63b8ff" stroke="#63b8ff" points="1114.67,-349.08 1105.06,-353.54 1115.35,-356.04 1114.67,-349.08"/>
</g>
<!-- Node39 -->
<g id="node40" class="node">
<title>Node39</title>
<g id="a_node40"><a xlink:href="db/dcc/class_translator_korean.html" target="_top" xlink:title=" ">
<polygon fill="white" stroke="#666666" points="1267,-315 1169,-315 1169,-296 1267,-296 1267,-315"/>
<text text-anchor="middle" x="1218" y="-303" font-family="Helvetica,sans-Serif" font-size="10.00">TranslatorKorean</text>
</a>
</g>
</g>
<!-- Node6&#45;&gt;Node39 -->
<g id="edge39" class="edge">
<title>Node6&#45;&gt;Node39</title>
<path fill="none" stroke="#63b8ff" d="M1069.27,-347.41C1089.94,-339.89 1116.78,-330.56 1141,-323.5 1151.41,-320.47 1162.74,-317.57 1173.39,-315.02"/>
<polygon fill="#63b8ff" stroke="#63b8ff" points="1067.84,-344.21 1059.66,-350.95 1070.25,-350.78 1067.84,-344.21"/>
</g>
<!-- Node40 -->
<g id="node41" class="node">
<title>Node40</title>
<g id="a_node41"><a xlink:href="da/d32/class_translator_romanian.html" target="_top" xlink:title=" ">
<polygon fill="white" stroke="#666666" points="1275,-278 1161,-278 1161,-259 1275,-259 1275,-278"/>
<text text-anchor="middle" x="1218" y="-266" font-family="Helvetica,sans-Serif" font-size="10.00">TranslatorRomanian</text>
</a>
</g>
</g>
<!-- Node6&#45;&gt;Node40 -->
<g id="edge40" class="edge">
<title>Node6&#45;&gt;Node40</title>
<path fill="none" stroke="#63b8ff" d="M1053.28,-344.14C1073.58,-327.29 1107.54,-301.44 1141,-286.5 1148.55,-283.13 1156.82,-280.34 1165.04,-278.05"/>
<polygon fill="#63b8ff" stroke="#63b8ff" points="1050.83,-341.63 1045.46,-350.76 1055.35,-346.97 1050.83,-341.63"/>
</g>
<!-- Node41 -->
<g id="node42" class="node">
<title>Node41</title>
<g id="a_node42"><a xlink:href="d0/dab/class_translator_russian.html" target="_top" xlink:title=" ">
<polygon fill="white" stroke="#666666" points="1269.5,-241 1166.5,-241 1166.5,-222 1269.5,-222 1269.5,-241"/>
<text text-anchor="middle" x="1218" y="-229" font-family="Helvetica,sans-Serif" font-size="10.00">TranslatorRussian</text>
</a>
</g>
</g>
<!-- Node6&#45;&gt;Node41 -->
<g id="edge41" class="edge">
<title>Node6&#45;&gt;Node41</title>
<path fill="none" stroke="#63b8ff" d="M1046.84,-342.16C1064.62,-317.21 1099.88,-273.01 1141,-249.5 1148.77,-245.06 1157.58,-241.71 1166.39,-239.19"/>
<polygon fill="#63b8ff" stroke="#63b8ff" points="1043.74,-340.49 1040.9,-350.69 1049.49,-344.48 1043.74,-340.49"/>
</g>
<!-- Node42 -->
<g id="node43" class="node">
<title>Node42</title>
<g id="a_node43"><a xlink:href="d2/d53/class_translator_slovak.html" target="_top" xlink:title=" ">
<polygon fill="white" stroke="#666666" points="1267,-204 1169,-204 1169,-185 1267,-185 1267,-204"/>
<text text-anchor="middle" x="1218" y="-192" font-family="Helvetica,sans-Serif" font-size="10.00">TranslatorSlovak</text>
</a>
</g>
</g>
<!-- Node6&#45;&gt;Node42 -->
<g id="edge42" class="edge">
<title>Node6&#45;&gt;Node42</title>
<path fill="none" stroke="#63b8ff" d="M1042.66,-341.57C1057.4,-309.69 1091.62,-245.55 1141,-212.5 1149.23,-206.99 1158.94,-203.17 1168.63,-200.5"/>
<polygon fill="#63b8ff" stroke="#63b8ff" points="1039.46,-340.15 1038.56,-350.7 1045.84,-343.01 1039.46,-340.15"/>
</g>
<!-- Node8 -->
<g id="node9" class="node">
<title>Node8</title>
<g id="a_node9"><a xlink:href="d2/d75/class_translator_adapter__1__8__2.html" target="_top" xlink:title=" ">
<polygon fill="white" stroke="#666666" points="1468,-592 1331,-592 1331,-573 1468,-573 1468,-592"/>
<text text-anchor="middle" x="1399.5" y="-580" font-family="Helvetica,sans-Serif" font-size="10.00">TranslatorAdapter_1_8_2</text>
</a>
</g>
</g>
<!-- Node7&#45;&gt;Node8 -->
<g id="edge8" class="edge">
<title>Node7&#45;&gt;Node8</title>
<path fill="none" stroke="#63b8ff" d="M1257.67,-540.32C1279.2,-547.35 1306.52,-556.12 1331,-563.5 1341.61,-566.7 1353.2,-570.02 1363.74,-572.98"/>
<polygon fill="#63b8ff" stroke="#63b8ff" points="1258.51,-536.91 1247.92,-537.12 1256.33,-543.56 1258.51,-536.91"/>
</g>
<!-- Node31 -->
<g id="node32" class="node">
<title>Node31</title>
<g id="a_node32"><a xlink:href="d2/d07/class_translator_esperanto.html" target="_top" xlink:title=" ">
<polygon fill="white" stroke="#666666" points="1456,-555 1343,-555 1343,-536 1456,-536 1456,-555"/>
<text text-anchor="middle" x="1399.5" y="-543" font-family="Helvetica,sans-Serif" font-size="10.00">TranslatorEsperanto</text>
</a>
</g>
</g>
<!-- Node7&#45;&gt;Node31 -->
<g id="edge31" class="edge">
<title>Node7&#45;&gt;Node31</title>
<path fill="none" stroke="#63b8ff" d="M1296.73,-535.3C1312.29,-536.85 1328.33,-538.46 1342.95,-539.93"/>
<polygon fill="#63b8ff" stroke="#63b8ff" points="1296.9,-531.79 1286.61,-534.28 1296.21,-538.76 1296.9,-531.79"/>
</g>
<!-- Node32 -->
<g id="node33" class="node">
<title>Node32</title>
<g id="a_node33"><a xlink:href="d8/d83/class_translator_latvian.html" target="_top" xlink:title=" ">
<polygon fill="white" stroke="#666666" points="1450,-518 1349,-518 1349,-499 1450,-499 1450,-518"/>
<text text-anchor="middle" x="1399.5" y="-506" font-family="Helvetica,sans-Serif" font-size="10.00">TranslatorLatvian</text>
</a>
</g>
</g>
<!-- Node7&#45;&gt;Node32 -->
<g id="edge32" class="edge">
<title>Node7&#45;&gt;Node32</title>
<path fill="none" stroke="#63b8ff" d="M1296.89,-519.26C1314.52,-517.39 1332.78,-515.46 1348.86,-513.75"/>
<polygon fill="#63b8ff" stroke="#63b8ff" points="1296.18,-515.81 1286.61,-520.34 1296.92,-522.77 1296.18,-515.81"/>
</g>
<!-- Node33 -->
<g id="node34" class="node">
<title>Node33</title>
<g id="a_node34"><a xlink:href="d1/d56/class_translator_ukrainian.html" target="_top" xlink:title=" ">
<polygon fill="white" stroke="#666666" points="1455.5,-481 1343.5,-481 1343.5,-462 1455.5,-462 1455.5,-481"/>
<text text-anchor="middle" x="1399.5" y="-469" font-family="Helvetica,sans-Serif" font-size="10.00">TranslatorUkrainian</text>
</a>
</g>
</g>
<!-- Node7&#45;&gt;Node33 -->
<g id="edge33" class="edge">
<title>Node7&#45;&gt;Node33</title>
<path fill="none" stroke="#63b8ff" d="M1274.94,-515.16C1281.77,-513.17 1288.6,-510.95 1295,-508.5 1311.9,-502.04 1314.15,-496.09 1331,-489.5 1339.13,-486.32 1348.03,-483.5 1356.62,-481.1"/>
<polygon fill="#63b8ff" stroke="#63b8ff" points="1273.68,-511.87 1264.96,-517.9 1275.54,-518.62 1273.68,-511.87"/>
</g>
<!-- Node9 -->
<g id="node10" class="node">
<title>Node9</title>
<g id="a_node10"><a xlink:href="de/d49/class_translator_adapter__1__8__0.html" target="_top" xlink:title="Adapter class for languages that only contain translations up to version 1.8.0.">
<polygon fill="white" stroke="#666666" points="1641,-629 1504,-629 1504,-610 1641,-610 1641,-629"/>
<text text-anchor="middle" x="1572.5" y="-617" font-family="Helvetica,sans-Serif" font-size="10.00">TranslatorAdapter_1_8_0</text>
</a>
</g>
</g>
<!-- Node8&#45;&gt;Node9 -->
<g id="edge9" class="edge">
<title>Node8&#45;&gt;Node9</title>
<path fill="none" stroke="#63b8ff" d="M1454.35,-594.15C1477.84,-599.23 1505.04,-605.12 1527.32,-609.94"/>
<polygon fill="#63b8ff" stroke="#63b8ff" points="1455.05,-590.72 1444.54,-592.03 1453.57,-597.56 1455.05,-590.72"/>
</g>
<!-- Node29 -->
<g id="node30" class="node">
<title>Node29</title>
<g id="a_node30"><a xlink:href="d9/d82/class_translator_croatian.html" target="_top" xlink:title=" ">
<polygon fill="white" stroke="#666666" points="1625.5,-592 1519.5,-592 1519.5,-573 1625.5,-573 1625.5,-592"/>
<text text-anchor="middle" x="1572.5" y="-580" font-family="Helvetica,sans-Serif" font-size="10.00">TranslatorCroatian</text>
</a>
</g>
</g>
<!-- Node8&#45;&gt;Node29 -->
<g id="edge29" class="edge">
<title>Node8&#45;&gt;Node29</title>
<path fill="none" stroke="#63b8ff" d="M1478.19,-582.5C1492.16,-582.5 1506.41,-582.5 1519.44,-582.5"/>
<polygon fill="#63b8ff" stroke="#63b8ff" points="1478.08,-579 1468.08,-582.5 1478.08,-586 1478.08,-579"/>
</g>
<!-- Node30 -->
<g id="node31" class="node">
<title>Node30</title>
<g id="a_node31"><a xlink:href="de/d82/class_translator_polish.html" target="_top" xlink:title=" ">
<polygon fill="white" stroke="#666666" points="1619.5,-555 1525.5,-555 1525.5,-536 1619.5,-536 1619.5,-555"/>
<text text-anchor="middle" x="1572.5" y="-543" font-family="Helvetica,sans-Serif" font-size="10.00">TranslatorPolish</text>
</a>
</g>
</g>
<!-- Node8&#45;&gt;Node30 -->
<g id="edge30" class="edge">
<title>Node8&#45;&gt;Node30</title>
<path fill="none" stroke="#63b8ff" d="M1454.35,-570.85C1477.84,-565.77 1505.04,-559.88 1527.32,-555.06"/>
<polygon fill="#63b8ff" stroke="#63b8ff" points="1453.57,-567.44 1444.54,-572.97 1455.05,-574.28 1453.57,-567.44"/>
</g>
<!-- Node10 -->
<g id="node11" class="node">
<title>Node10</title>
<g id="a_node11"><a xlink:href="da/d24/class_translator_adapter__1__7__5.html" target="_top" xlink:title="Adapter class for languages that only contain translations up to version 1.7.5.">
<polygon fill="white" stroke="#666666" points="1814,-703 1677,-703 1677,-684 1814,-684 1814,-703"/>
<text text-anchor="middle" x="1745.5" y="-691" font-family="Helvetica,sans-Serif" font-size="10.00">TranslatorAdapter_1_7_5</text>
</a>
</g>
</g>
<!-- Node9&#45;&gt;Node10 -->
<g id="edge10" class="edge">
<title>Node9&#45;&gt;Node10</title>
<path fill="none" stroke="#63b8ff" d="M1597.82,-634.34C1618.35,-646.4 1648.83,-663.2 1677,-674.5 1685.93,-678.08 1695.77,-681.26 1705.12,-683.95"/>
<polygon fill="#63b8ff" stroke="#63b8ff" points="1599.51,-631.27 1589.13,-629.17 1595.93,-637.29 1599.51,-631.27"/>
</g>
<!-- Node25 -->
<g id="node26" class="node">
<title>Node25</title>
<g id="a_node26"><a xlink:href="da/db8/class_translator_armenian.html" target="_top" xlink:title=" ">
<polygon fill="white" stroke="#666666" points="1801.5,-666 1689.5,-666 1689.5,-647 1801.5,-647 1801.5,-666"/>
<text text-anchor="middle" x="1745.5" y="-654" font-family="Helvetica,sans-Serif" font-size="10.00">TranslatorArmenian</text>
</a>
</g>
</g>
<!-- Node9&#45;&gt;Node25 -->
<g id="edge25" class="edge">
<title>Node9&#45;&gt;Node25</title>
<path fill="none" stroke="#63b8ff" d="M1627.35,-631.15C1650.84,-636.23 1678.04,-642.12 1700.32,-646.94"/>
<polygon fill="#63b8ff" stroke="#63b8ff" points="1628.05,-627.72 1617.54,-629.03 1626.57,-634.56 1628.05,-627.72"/>
</g>
<!-- Node26 -->
<g id="node27" class="node">
<title>Node26</title>
<g id="a_node27"><a xlink:href="d9/dc1/class_translator_catalan.html" target="_top" xlink:title=" ">
<polygon fill="white" stroke="#666666" points="1796.5,-629 1694.5,-629 1694.5,-610 1796.5,-610 1796.5,-629"/>
<text text-anchor="middle" x="1745.5" y="-617" font-family="Helvetica,sans-Serif" font-size="10.00">TranslatorCatalan</text>
</a>
</g>
</g>
<!-- Node9&#45;&gt;Node26 -->
<g id="edge26" class="edge">
<title>Node9&#45;&gt;Node26</title>
<path fill="none" stroke="#63b8ff" d="M1651.15,-619.5C1665.8,-619.5 1680.76,-619.5 1694.28,-619.5"/>
<polygon fill="#63b8ff" stroke="#63b8ff" points="1651.08,-616 1641.08,-619.5 1651.08,-623 1651.08,-616"/>
</g>
<!-- Node27 -->
<g id="node28" class="node">
<title>Node27</title>
<g id="a_node28"><a xlink:href="d7/d21/class_translator_danish.html" target="_top" xlink:title=" ">
<polygon fill="white" stroke="#666666" points="1794.5,-592 1696.5,-592 1696.5,-573 1794.5,-573 1794.5,-592"/>
<text text-anchor="middle" x="1745.5" y="-580" font-family="Helvetica,sans-Serif" font-size="10.00">TranslatorDanish</text>
</a>
</g>
</g>
<!-- Node9&#45;&gt;Node27 -->
<g id="edge27" class="edge">
<title>Node9&#45;&gt;Node27</title>
<path fill="none" stroke="#63b8ff" d="M1627.35,-607.85C1650.84,-602.77 1678.04,-596.88 1700.32,-592.06"/>
<polygon fill="#63b8ff" stroke="#63b8ff" points="1626.57,-604.44 1617.54,-609.97 1628.05,-611.28 1626.57,-604.44"/>
</g>
<!-- Node28 -->
<g id="node29" class="node">
<title>Node28</title>
<g id="a_node29"><a xlink:href="df/dc8/class_translator_indonesian.html" target="_top" xlink:title=" ">
<polygon fill="white" stroke="#666666" points="1804.5,-555 1686.5,-555 1686.5,-536 1804.5,-536 1804.5,-555"/>
<text text-anchor="middle" x="1745.5" y="-543" font-family="Helvetica,sans-Serif" font-size="10.00">TranslatorIndonesian</text>
</a>
</g>
</g>
<!-- Node9&#45;&gt;Node28 -->
<g id="edge28" class="edge">
<title>Node9&#45;&gt;Node28</title>
<path fill="none" stroke="#63b8ff" d="M1629.42,-606.32C1633.44,-604.6 1637.35,-602.67 1641,-600.5 1660.72,-588.77 1657.2,-575.1 1677,-563.5 1682.86,-560.07 1689.39,-557.28 1696.01,-555.01"/>
<polygon fill="#63b8ff" stroke="#63b8ff" points="1627.97,-603.13 1619.86,-609.95 1630.46,-609.67 1627.97,-603.13"/>
</g>
<!-- Node11 -->
<g id="node12" class="node">
<title>Node11</title>
<g id="a_node12"><a xlink:href="d3/da1/class_translator_adapter__1__6__0.html" target="_top" xlink:title="Adapter class for languages that only contain translations up to version 1.6.0.">
<polygon fill="white" stroke="#666666" points="1987,-740 1850,-740 1850,-721 1987,-721 1987,-740"/>
<text text-anchor="middle" x="1918.5" y="-728" font-family="Helvetica,sans-Serif" font-size="10.00">TranslatorAdapter_1_6_0</text>
</a>
</g>
</g>
<!-- Node10&#45;&gt;Node11 -->
<g id="edge11" class="edge">
<title>Node10&#45;&gt;Node11</title>
<path fill="none" stroke="#63b8ff" d="M1800.35,-705.15C1823.84,-710.23 1851.04,-716.12 1873.32,-720.94"/>
<polygon fill="#63b8ff" stroke="#63b8ff" points="1801.05,-701.72 1790.54,-703.03 1799.57,-708.56 1801.05,-701.72"/>
</g>
<!-- Node23 -->
<g id="node24" class="node">
<title>Node23</title>
<g id="a_node24"><a xlink:href="d5/d43/class_translator_persian.html" target="_top" xlink:title=" ">
<polygon fill="white" stroke="#666666" points="1969,-703 1868,-703 1868,-684 1969,-684 1969,-703"/>
<text text-anchor="middle" x="1918.5" y="-691" font-family="Helvetica,sans-Serif" font-size="10.00">TranslatorPersian</text>
</a>
</g>
</g>
<!-- Node10&#45;&gt;Node23 -->
<g id="edge23" class="edge">
<title>Node10&#45;&gt;Node23</title>
<path fill="none" stroke="#63b8ff" d="M1824.26,-693.5C1839.06,-693.5 1854.18,-693.5 1867.81,-693.5"/>
<polygon fill="#63b8ff" stroke="#63b8ff" points="1824.08,-690 1814.08,-693.5 1824.08,-697 1824.08,-690"/>
</g>
<!-- Node24 -->
<g id="node25" class="node">
<title>Node24</title>
<g id="a_node25"><a xlink:href="dd/d80/class_translator_turkish.html" target="_top" xlink:title=" ">
<polygon fill="white" stroke="#666666" points="1968,-666 1869,-666 1869,-647 1968,-647 1968,-666"/>
<text text-anchor="middle" x="1918.5" y="-654" font-family="Helvetica,sans-Serif" font-size="10.00">TranslatorTurkish</text>
</a>
</g>
</g>
<!-- Node10&#45;&gt;Node24 -->
<g id="edge24" class="edge">
<title>Node10&#45;&gt;Node24</title>
<path fill="none" stroke="#63b8ff" d="M1800.35,-681.85C1823.84,-676.77 1851.04,-670.88 1873.32,-666.06"/>
<polygon fill="#63b8ff" stroke="#63b8ff" points="1799.57,-678.44 1790.54,-683.97 1801.05,-685.28 1799.57,-678.44"/>
</g>
<!-- Node12 -->
<g id="node13" class="node">
<title>Node12</title>
<g id="a_node13"><a xlink:href="d4/d2b/class_translator_adapter__1__4__6.html" target="_top" xlink:title="Adapter class for languages that only contain translations up to version 1.4.6.">
<polygon fill="white" stroke="#666666" points="2160,-851 2023,-851 2023,-832 2160,-832 2160,-851"/>
<text text-anchor="middle" x="2091.5" y="-839" font-family="Helvetica,sans-Serif" font-size="10.00">TranslatorAdapter_1_4_6</text>
</a>
</g>
</g>
<!-- Node11&#45;&gt;Node12 -->
<g id="edge12" class="edge">
<title>Node11&#45;&gt;Node12</title>
<path fill="none" stroke="#63b8ff" d="M1934.01,-747.8C1952.54,-768.78 1986.59,-803.79 2023,-823.5 2029.29,-826.91 2036.27,-829.7 2043.28,-831.98"/>
<polygon fill="#63b8ff" stroke="#63b8ff" points="1936.46,-745.28 1927.27,-740 1931.17,-749.86 1936.46,-745.28"/>
</g>
<!-- Node17 -->
<g id="node18" class="node">
<title>Node17</title>
<g id="a_node18"><a xlink:href="d3/d65/class_translator_afrikaans.html" target="_top" xlink:title=" ">
<polygon fill="white" stroke="#666666" points="2146.5,-814 2036.5,-814 2036.5,-795 2146.5,-795 2146.5,-814"/>
<text text-anchor="middle" x="2091.5" y="-802" font-family="Helvetica,sans-Serif" font-size="10.00">TranslatorAfrikaans</text>
</a>
</g>
</g>
<!-- Node11&#45;&gt;Node17 -->
<g id="edge17" class="edge">
<title>Node11&#45;&gt;Node17</title>
<path fill="none" stroke="#63b8ff" d="M1943.03,-745.31C1963.52,-757.7 1994.35,-775.11 2023,-786.5 2031.11,-789.73 2040,-792.56 2048.59,-794.97"/>
<polygon fill="#63b8ff" stroke="#63b8ff" points="1944.74,-742.26 1934.39,-740.01 1941.08,-748.22 1944.74,-742.26"/>
</g>
<!-- Node18 -->
<g id="node19" class="node">
<title>Node18</title>
<g id="a_node19"><a xlink:href="de/df7/class_translator_finnish.html" target="_top" xlink:title=" ">
<polygon fill="white" stroke="#666666" points="2141,-777 2042,-777 2042,-758 2141,-758 2141,-777"/>
<text text-anchor="middle" x="2091.5" y="-765" font-family="Helvetica,sans-Serif" font-size="10.00">TranslatorFinnish</text>
</a>
</g>
</g>
<!-- Node11&#45;&gt;Node18 -->
<g id="edge18" class="edge">
<title>Node11&#45;&gt;Node18</title>
<path fill="none" stroke="#63b8ff" d="M1973.35,-742.15C1996.84,-747.23 2024.04,-753.12 2046.32,-757.94"/>
<polygon fill="#63b8ff" stroke="#63b8ff" points="1974.05,-738.72 1963.54,-740.03 1972.57,-745.56 1974.05,-738.72"/>
</g>
<!-- Node19 -->
<g id="node20" class="node">
<title>Node19</title>
<g id="a_node20"><a xlink:href="d9/ddf/class_translator_macedonian.html" target="_top" xlink:title=" ">
<polygon fill="white" stroke="#666666" points="2153.5,-740 2029.5,-740 2029.5,-721 2153.5,-721 2153.5,-740"/>
<text text-anchor="middle" x="2091.5" y="-728" font-family="Helvetica,sans-Serif" font-size="10.00">TranslatorMacedonian</text>
</a>
</g>
</g>
<!-- Node11&#45;&gt;Node19 -->
<g id="edge19" class="edge">
<title>Node11&#45;&gt;Node19</title>
<path fill="none" stroke="#63b8ff" d="M1997.28,-730.5C2008,-730.5 2018.88,-730.5 2029.24,-730.5"/>
<polygon fill="#63b8ff" stroke="#63b8ff" points="1997.08,-727 1987.08,-730.5 1997.08,-734 1997.08,-727"/>
</g>
<!-- Node20 -->
<g id="node21" class="node">
<title>Node20</title>
<g id="a_node21"><a xlink:href="d5/d0a/class_translator_serbian.html" target="_top" xlink:title=" ">
<polygon fill="white" stroke="#666666" points="2142,-703 2041,-703 2041,-684 2142,-684 2142,-703"/>
<text text-anchor="middle" x="2091.5" y="-691" font-family="Helvetica,sans-Serif" font-size="10.00">TranslatorSerbian</text>
</a>
</g>
</g>
<!-- Node11&#45;&gt;Node20 -->
<g id="edge20" class="edge">
<title>Node11&#45;&gt;Node20</title>
<path fill="none" stroke="#63b8ff" d="M1973.35,-718.85C1996.84,-713.77 2024.04,-707.88 2046.32,-703.06"/>
<polygon fill="#63b8ff" stroke="#63b8ff" points="1972.57,-715.44 1963.54,-720.97 1974.05,-722.28 1972.57,-715.44"/>
</g>
<!-- Node21 -->
<g id="node22" class="node">
<title>Node21</title>
<g id="a_node22"><a xlink:href="dc/d03/class_translator_serbian_cyrillic.html" target="_top" xlink:title=" ">
<polygon fill="white" stroke="#666666" points="2159,-666 2024,-666 2024,-647 2159,-647 2159,-666"/>
<text text-anchor="middle" x="2091.5" y="-654" font-family="Helvetica,sans-Serif" font-size="10.00">TranslatorSerbianCyrillic</text>
</a>
</g>
</g>
<!-- Node11&#45;&gt;Node21 -->
<g id="edge21" class="edge">
<title>Node11&#45;&gt;Node21</title>
<path fill="none" stroke="#63b8ff" d="M1975.42,-717.32C1979.44,-715.6 1983.35,-713.67 1987,-711.5 2006.72,-699.77 2003.2,-686.1 2023,-674.5 2028.86,-671.07 2035.39,-668.28 2042.01,-666.01"/>
<polygon fill="#63b8ff" stroke="#63b8ff" points="1973.97,-714.13 1965.86,-720.95 1976.46,-720.67 1973.97,-714.13"/>
</g>
<!-- Node22 -->
<g id="node23" class="node">
<title>Node22</title>
<g id="a_node23"><a xlink:href="df/d20/class_translator_vietnamese.html" target="_top" xlink:title=" ">
<polygon fill="white" stroke="#666666" points="2153,-629 2030,-629 2030,-610 2153,-610 2153,-629"/>
<text text-anchor="middle" x="2091.5" y="-617" font-family="Helvetica,sans-Serif" font-size="10.00">TranslatorVietnamese</text>
</a>
</g>
</g>
<!-- Node11&#45;&gt;Node22 -->
<g id="edge22" class="edge">
<title>Node11&#45;&gt;Node22</title>
<path fill="none" stroke="#63b8ff" d="M1980.48,-716.18C1982.77,-714.76 1984.96,-713.21 1987,-711.5 2015.06,-688.04 1994.78,-660.76 2023,-637.5 2027.12,-634.11 2031.81,-631.35 2036.77,-629.1"/>
<polygon fill="#63b8ff" stroke="#63b8ff" points="1978.48,-713.27 1971.21,-720.97 1981.7,-719.49 1978.48,-713.27"/>
</g>
<!-- Node13 -->
<g id="node14" class="node">
<title>Node13</title>
<g id="a_node14"><a xlink:href="d3/de9/class_translator_arabic.html" target="_top" xlink:title=" ">
<polygon fill="white" stroke="#666666" points="2302,-906 2207,-906 2207,-887 2302,-887 2302,-906"/>
<text text-anchor="middle" x="2254.5" y="-894" font-family="Helvetica,sans-Serif" font-size="10.00">TranslatorArabic</text>
</a>
</g>
</g>
<!-- Node12&#45;&gt;Node13 -->
<g id="edge13" class="edge">
<title>Node12&#45;&gt;Node13</title>
<path fill="none" stroke="#63b8ff" d="M2127.94,-854.57C2147.87,-861.81 2173.25,-870.88 2196,-878.5 2204.43,-881.33 2213.6,-884.26 2222.09,-886.92"/>
<polygon fill="#63b8ff" stroke="#63b8ff" points="2128.94,-851.2 2118.35,-851.06 2126.54,-857.78 2128.94,-851.2"/>
</g>
<!-- Node14 -->
<g id="node15" class="node">
<title>Node14</title>
<g id="a_node15"><a xlink:href="dc/d53/class_translator_lithuanian.html" target="_top" xlink:title=" ">
<polygon fill="white" stroke="#666666" points="2312.5,-869 2196.5,-869 2196.5,-850 2312.5,-850 2312.5,-869"/>
<text text-anchor="middle" x="2254.5" y="-857" font-family="Helvetica,sans-Serif" font-size="10.00">TranslatorLithuanian</text>
</a>
</g>
</g>
<!-- Node12&#45;&gt;Node14 -->
<g id="edge14" class="edge">
<title>Node12&#45;&gt;Node14</title>
<path fill="none" stroke="#63b8ff" d="M2170.53,-850.22C2179.27,-851.2 2188.05,-852.18 2196.46,-853.12"/>
<polygon fill="#63b8ff" stroke="#63b8ff" points="2170.64,-846.71 2160.31,-849.08 2169.86,-853.67 2170.64,-846.71"/>
</g>
<!-- Node15 -->
<g id="node16" class="node">
<title>Node15</title>
<g id="a_node16"><a xlink:href="dd/d38/class_translator_norwegian.html" target="_top" xlink:title=" ">
<polygon fill="white" stroke="#666666" points="2313,-832 2196,-832 2196,-813 2313,-813 2313,-832"/>
<text text-anchor="middle" x="2254.5" y="-820" font-family="Helvetica,sans-Serif" font-size="10.00">TranslatorNorwegian</text>
</a>
</g>
</g>
<!-- Node12&#45;&gt;Node15 -->
<g id="edge15" class="edge">
<title>Node12&#45;&gt;Node15</title>
<path fill="none" stroke="#63b8ff" d="M2170.38,-832.31C2179,-831.29 2187.66,-830.27 2195.96,-829.29"/>
<polygon fill="#63b8ff" stroke="#63b8ff" points="2169.83,-828.85 2160.31,-833.5 2170.65,-835.8 2169.83,-828.85"/>
</g>
<!-- Node16 -->
<g id="node17" class="node">
<title>Node16</title>
<g id="a_node17"><a xlink:href="dd/d0b/class_translator_slovene.html" target="_top" xlink:title=" ">
<polygon fill="white" stroke="#666666" points="2306.5,-795 2202.5,-795 2202.5,-776 2306.5,-776 2306.5,-795"/>
<text text-anchor="middle" x="2254.5" y="-783" font-family="Helvetica,sans-Serif" font-size="10.00">TranslatorSlovene</text>
</a>
</g>
</g>
<!-- Node12&#45;&gt;Node16 -->
<g id="edge16" class="edge">
<title>Node12&#45;&gt;Node16</title>
<path fill="none" stroke="#63b8ff" d="M2144.12,-829.03C2149.54,-827.34 2154.92,-825.49 2160,-823.5 2176.85,-816.91 2179.35,-811.58 2196,-804.5 2204.13,-801.04 2213.11,-797.81 2221.51,-795.02"/>
<polygon fill="#63b8ff" stroke="#63b8ff" points="2142.98,-825.71 2134.38,-831.9 2144.96,-832.43 2142.98,-825.71"/>
</g>
<!-- Node52 -->
<g id="node53" class="node">
<title>Node52</title>
<g id="a_node53"><a xlink:href="d0/d16/class_translator_japanese_en.html" target="_top" xlink:title=" ">
<polygon fill="white" stroke="#666666" points="393,-149 272,-149 272,-130 393,-130 393,-149"/>
<text text-anchor="middle" x="332.5" y="-137" font-family="Helvetica,sans-Serif" font-size="10.00">TranslatorJapaneseEn</text>
</a>
</g>
</g>
<!-- Node51&#45;&gt;Node52 -->
<g id="edge52" class="edge">
<title>Node51&#45;&gt;Node52</title>
<path fill="none" stroke="#63b8ff" d="M225.15,-127.33C240.31,-129.06 256.6,-130.93 271.77,-132.66"/>
<polygon fill="#63b8ff" stroke="#63b8ff" points="225.19,-123.81 214.86,-126.15 224.39,-130.76 225.19,-123.81"/>
</g>
<!-- Node53 -->
<g id="node54" class="node">
<title>Node53</title>
<g id="a_node54"><a xlink:href="d0/d3a/class_translator_korean_en.html" target="_top" xlink:title=" ">
<polygon fill="white" stroke="#666666" points="387.5,-112 277.5,-112 277.5,-93 387.5,-93 387.5,-112"/>
<text text-anchor="middle" x="332.5" y="-100" font-family="Helvetica,sans-Serif" font-size="10.00">TranslatorKoreanEn</text>
</a>
</g>
</g>
<!-- Node51&#45;&gt;Node53 -->
<g id="edge53" class="edge">
<title>Node51&#45;&gt;Node53</title>
<path fill="none" stroke="#63b8ff" d="M225.25,-114.02C242.28,-112.17 260.73,-110.17 277.41,-108.37"/>
<polygon fill="#63b8ff" stroke="#63b8ff" points="224.42,-110.59 214.86,-115.15 225.18,-117.55 224.42,-110.59"/>
</g>
</g>
</svg>
