<?xml version="1.0" encoding="UTF-8" standalone="no"?>
<!DOCTYPE svg PUBLIC "-//W3C//DTD SVG 1.1//EN"
 "http://www.w3.org/Graphics/SVG/1.1/DTD/svg11.dtd">
<!-- Generated by graphviz version 2.43.0 (0)
 -->
<!-- Title: DirDefImpl Pages: 1 -->
<!--zoomable 629 -->
<svg id="main" version="1.1" xmlns="http://www.w3.org/2000/svg" xmlns:xlink="http://www.w3.org/1999/xlink" xml:space="preserve" onload="init(evt)">
<style type="text/css"><![CDATA[
.edge:hover path { stroke: red; }
.edge:hover polygon { stroke: red; fill: red; }
]]></style>
<script type="text/javascript"><![CDATA[
var edges = document.getElementsByTagName('g');
if (edges && edges.length) {
  for (var i=0;i<edges.length;i++) {
    if (edges[i].id.substr(0,4)=='edge') {
      edges[i].setAttribute('class','edge');
    }
  }
}
]]></script>
        <defs>
                <circle id="rim" cx="0" cy="0" r="7"/>
                <circle id="rim2" cx="0" cy="0" r="3.5"/>
                <g id="zoomPlus">
                        <use xlink:href="#rim" fill="#404040">
                                <set attributeName="fill" to="#808080" begin="zoomplus.mouseover" end="zoomplus.mouseout"/>
                        </use>
                        <path d="M-4,0h8M0,-4v8" fill="none" stroke="white" stroke-width="1.5" pointer-events="none"/>
                </g>
                <g id="zoomMin">
                        <use xlink:href="#rim" fill="#404040">
                                <set attributeName="fill" to="#808080" begin="zoomminus.mouseover" end="zoomminus.mouseout"/>
                        </use>
                        <path d="M-4,0h8" fill="none" stroke="white" stroke-width="1.5" pointer-events="none"/>
                </g>
                <g id="dirArrow">
                        <path fill="none" stroke="white" stroke-width="1.5" d="M0,-3.0v7 M-2.5,-0.5L0,-3.0L2.5,-0.5"/>
                </g>
               <g id="resetDef">
                       <use xlink:href="#rim2" fill="#404040">
                               <set attributeName="fill" to="#808080" begin="reset.mouseover" end="reset.mouseout"/>
                       </use>
               </g>
        </defs>

<script type="text/javascript">
var viewWidth = 1474;
var viewHeight = 629;
var sectionId = 'dynsection-1';
</script>
<script xlink:href="../../svgpan.js"/>
<svg id="graph" class="graph">
<g id="viewport">
<title>DirDefImpl</title>
<!-- Node1 -->
<g id="node1" class="node">
<title>Node1</title>
<g id="a_node1"><a xlink:title=" ">
<polygon fill="#999999" stroke="#666666" points="1466,-115.5 1396,-115.5 1396,-96.5 1466,-96.5 1466,-115.5"/>
<text text-anchor="middle" x="1431" y="-103.5" font-family="Helvetica,sans-Serif" font-size="10.00">DirDefImpl</text>
</a>
</g>
</g>
<!-- Node2 -->
<g id="node2" class="node">
<title>Node2</title>
<g id="a_node2"><a xlink:href="../../dd/d10/class_definition_mixin.html" target="_top" xlink:title=" ">
<polygon fill="white" stroke="#666666" points="1306,-410.5 1161,-410.5 1161,-391.5 1306,-391.5 1306,-410.5"/>
<text text-anchor="middle" x="1233.5" y="-398.5" font-family="Helvetica,sans-Serif" font-size="10.00">DefinitionMixin&lt; DirDef &gt;</text>
</a>
</g>
</g>
<!-- Node2&#45;&gt;Node1 -->
<g id="edge1" class="edge">
<title>Node2&#45;&gt;Node1</title>
<path fill="none" stroke="#63b8ff" d="M1246.71,-382.58C1284.04,-326.25 1395.83,-157.56 1423.67,-115.55"/>
<polygon fill="#63b8ff" stroke="#63b8ff" points="1243.61,-380.92 1241,-391.18 1249.45,-384.78 1243.61,-380.92"/>
</g>
<!-- Node3 -->
<g id="node3" class="node">
<title>Node3</title>
<g id="a_node3"><a xlink:href="../../d4/dd4/class_dir_def.html" target="_top" xlink:title="A model of a directory symbol.">
<polygon fill="white" stroke="#666666" points="316.5,-581.5 268.5,-581.5 268.5,-562.5 316.5,-562.5 316.5,-581.5"/>
<text text-anchor="middle" x="292.5" y="-569.5" font-family="Helvetica,sans-Serif" font-size="10.00">DirDef</text>
</a>
</g>
</g>
<!-- Node3&#45;&gt;Node1 -->
<g id="edge29" class="edge">
<title>Node3&#45;&gt;Node1</title>
<path fill="none" stroke="#9a32cd" stroke-dasharray="5,2" d="M326.4,-581.86C366.95,-593.12 438.15,-610 500.5,-610 500.5,-610 500.5,-610 1234.5,-610 1344.78,-610 1417.33,-185.3 1428.5,-115.62"/>
<polygon fill="#9a32cd" stroke="#9a32cd" points="327.1,-578.42 316.53,-579.06 325.2,-585.15 327.1,-578.42"/>
<text text-anchor="middle" x="811" y="-613" font-family="Helvetica,sans-Serif" font-size="10.00"> m_parent</text>
</g>
<!-- Node3&#45;&gt;Node2 -->
<g id="edge2" class="edge">
<title>Node3&#45;&gt;Node2</title>
<path fill="none" stroke="#63b8ff" d="M326.98,-569.91C367.9,-567.54 439.26,-564 500.5,-564 500.5,-564 500.5,-564 999.5,-564 1107.12,-564 1200.41,-445.8 1225.74,-410.71"/>
<polygon fill="#63b8ff" stroke="#63b8ff" points="326.55,-566.43 316.77,-570.51 326.96,-573.42 326.55,-566.43"/>
</g>
<!-- Node4 -->
<g id="node4" class="node">
<title>Node4</title>
<g id="a_node4"><a xlink:href="../../d0/d46/class_definition_mutable.html" target="_top" xlink:title=" ">
<polygon fill="white" stroke="#666666" points="104,-576.5 0,-576.5 0,-557.5 104,-557.5 104,-576.5"/>
<text text-anchor="middle" x="52" y="-564.5" font-family="Helvetica,sans-Serif" font-size="10.00">DefinitionMutable</text>
</a>
</g>
</g>
<!-- Node4&#45;&gt;Node3 -->
<g id="edge3" class="edge">
<title>Node4&#45;&gt;Node3</title>
<path fill="none" stroke="#63b8ff" d="M114.27,-568.28C164.53,-569.34 232.93,-570.77 268.26,-571.51"/>
<polygon fill="#63b8ff" stroke="#63b8ff" points="114.24,-564.78 104.16,-568.07 114.09,-571.78 114.24,-564.78"/>
</g>
<!-- Node15 -->
<g id="node15" class="node">
<title>Node15</title>
<g id="a_node15"><a xlink:href="../../de/db0/class_file_def.html" target="_top" xlink:title="A model of a file symbol.">
<polygon fill="white" stroke="#666666" points="219.5,-501.5 168.5,-501.5 168.5,-482.5 219.5,-482.5 219.5,-501.5"/>
<text text-anchor="middle" x="194" y="-489.5" font-family="Helvetica,sans-Serif" font-size="10.00">FileDef</text>
</a>
</g>
</g>
<!-- Node4&#45;&gt;Node15 -->
<g id="edge17" class="edge">
<title>Node4&#45;&gt;Node15</title>
<path fill="none" stroke="#63b8ff" d="M79.88,-552.6C107.88,-537.6 150.94,-514.53 175.05,-501.61"/>
<polygon fill="#63b8ff" stroke="#63b8ff" points="78.18,-549.54 71.02,-557.35 81.48,-555.71 78.18,-549.54"/>
</g>
<!-- Node5 -->
<g id="node5" class="node">
<title>Node5</title>
<g id="a_node5"><a xlink:href="../../d5/dcc/class_definition.html" target="_top" xlink:title="The common base class of all entity definitions found in the sources.">
<polygon fill="white" stroke="#666666" points="84,-501.5 20,-501.5 20,-482.5 84,-482.5 84,-501.5"/>
<text text-anchor="middle" x="52" y="-489.5" font-family="Helvetica,sans-Serif" font-size="10.00">Definition</text>
</a>
</g>
</g>
<!-- Node5&#45;&gt;Node3 -->
<g id="edge4" class="edge">
<title>Node5&#45;&gt;Node3</title>
<path fill="none" stroke="#63b8ff" d="M91.26,-504.83C141.26,-521.6 227.25,-550.45 268.34,-564.23"/>
<polygon fill="#63b8ff" stroke="#63b8ff" points="92.36,-501.51 81.77,-501.65 90.14,-508.15 92.36,-501.51"/>
</g>
<!-- Node7 -->
<g id="node7" class="node">
<title>Node7</title>
<g id="a_node7"><a xlink:href="../../dd/d50/class_definition_impl_1_1_i_m_p_l.html" target="_top" xlink:title="Private data associated with a Symbol DefinitionImpl object.">
<polygon fill="white" stroke="#666666" points="692,-403.5 577,-403.5 577,-384.5 692,-384.5 692,-403.5"/>
<text text-anchor="middle" x="634.5" y="-391.5" font-family="Helvetica,sans-Serif" font-size="10.00">DefinitionImpl::IMPL</text>
</a>
</g>
</g>
<!-- Node5&#45;&gt;Node7 -->
<g id="edge7" class="edge">
<title>Node5&#45;&gt;Node7</title>
<path fill="none" stroke="#9a32cd" stroke-dasharray="5,2" d="M94.09,-482.9C108.84,-479.82 125.62,-476.53 141,-474 325.74,-443.66 377.23,-466.8 559,-422 577.38,-417.47 597.42,-409.77 612.09,-403.59"/>
<polygon fill="#9a32cd" stroke="#9a32cd" points="93.31,-479.49 84.25,-484.99 94.76,-486.34 93.31,-479.49"/>
<text text-anchor="middle" x="292.5" y="-472" font-family="Helvetica,sans-Serif" font-size="10.00"> def</text>
<text text-anchor="middle" x="292.5" y="-461" font-family="Helvetica,sans-Serif" font-size="10.00">outerScope</text>
</g>
<!-- Node5&#45;&gt;Node15 -->
<g id="edge18" class="edge">
<title>Node5&#45;&gt;Node15</title>
<path fill="none" stroke="#63b8ff" d="M94.3,-492C118.25,-492 147.63,-492 168.08,-492"/>
<polygon fill="#63b8ff" stroke="#63b8ff" points="94.07,-488.5 84.07,-492 94.07,-495.5 94.07,-488.5"/>
</g>
<!-- Node6 -->
<g id="node6" class="node">
<title>Node6</title>
<g id="a_node6"><a xlink:href="../../d3/ddf/class_definition_impl.html" target="_top" xlink:title=" ">
<polygon fill="white" stroke="#666666" points="854,-403.5 768,-403.5 768,-384.5 854,-384.5 854,-403.5"/>
<text text-anchor="middle" x="811" y="-391.5" font-family="Helvetica,sans-Serif" font-size="10.00">DefinitionImpl</text>
</a>
</g>
</g>
<!-- Node6&#45;&gt;Node2 -->
<g id="edge5" class="edge">
<title>Node6&#45;&gt;Node2</title>
<path fill="none" stroke="#9a32cd" stroke-dasharray="5,2" d="M864.15,-393.46C884.67,-393.28 908.44,-393.09 930,-393 990.89,-392.74 1006.13,-391.53 1067,-393 1097.77,-393.74 1131.73,-395.26 1160.84,-396.78"/>
<polygon fill="#9a32cd" stroke="#9a32cd" points="864.02,-389.96 854.05,-393.56 864.08,-396.96 864.02,-389.96"/>
<text text-anchor="middle" x="998.5" y="-396" font-family="Helvetica,sans-Serif" font-size="10.00"> m_impl</text>
</g>
<!-- Node17 -->
<g id="node17" class="node">
<title>Node17</title>
<g id="a_node17"><a xlink:href="../../dd/d10/class_definition_mixin.html" target="_top" xlink:title=" ">
<polygon fill="white" stroke="#666666" points="1067,-431.5 930,-431.5 930,-412.5 1067,-412.5 1067,-431.5"/>
<text text-anchor="middle" x="998.5" y="-419.5" font-family="Helvetica,sans-Serif" font-size="10.00">DefinitionMixin&lt; Base &gt;</text>
</a>
</g>
</g>
<!-- Node6&#45;&gt;Node17 -->
<g id="edge23" class="edge">
<title>Node6&#45;&gt;Node17</title>
<path fill="none" stroke="#9a32cd" stroke-dasharray="5,2" d="M864.16,-401.87C885.99,-405.17 911.56,-409.03 934.44,-412.48"/>
<polygon fill="#9a32cd" stroke="#9a32cd" points="864.5,-398.39 854.09,-400.35 863.46,-405.31 864.5,-398.39"/>
<text text-anchor="middle" x="892" y="-411" font-family="Helvetica,sans-Serif" font-size="10.00"> m_impl</text>
</g>
<!-- Node7&#45;&gt;Node6 -->
<g id="edge6" class="edge">
<title>Node7&#45;&gt;Node6</title>
<path fill="none" stroke="#9a32cd" stroke-dasharray="5,2" d="M702.42,-394C724.37,-394 748.13,-394 767.73,-394"/>
<polygon fill="#9a32cd" stroke="#9a32cd" points="702.16,-390.5 692.16,-394 702.16,-397.5 702.16,-390.5"/>
<text text-anchor="middle" x="730" y="-397" font-family="Helvetica,sans-Serif" font-size="10.00"> m_impl</text>
</g>
<!-- Node8 -->
<g id="node8" class="node">
<title>Node8</title>
<g id="a_node8"><a xlink:href="../../d1/df9/class_section_refs.html" target="_top" xlink:title="class that represents a list of constant references to sections.">
<polygon fill="white" stroke="#666666" points="419,-535.5 345,-535.5 345,-516.5 419,-516.5 419,-535.5"/>
<text text-anchor="middle" x="382" y="-523.5" font-family="Helvetica,sans-Serif" font-size="10.00">SectionRefs</text>
</a>
</g>
</g>
<!-- Node8&#45;&gt;Node7 -->
<g id="edge8" class="edge">
<title>Node8&#45;&gt;Node7</title>
<path fill="none" stroke="#9a32cd" stroke-dasharray="5,2" d="M429.39,-530.26C467.01,-531.48 520,-527.9 559,-504 598.53,-479.77 621.91,-425.78 630.13,-403.7"/>
<polygon fill="#9a32cd" stroke="#9a32cd" points="429.36,-526.76 419.21,-529.81 429.04,-533.75 429.36,-526.76"/>
<text text-anchor="middle" x="501.5" y="-533" font-family="Helvetica,sans-Serif" font-size="10.00"> sectionRefs</text>
</g>
<!-- Node9 -->
<g id="node9" class="node">
<title>Node9</title>
<g id="a_node9"><a xlink:href="../../d3/d3b/class_group_list.html" target="_top" xlink:title=" ">
<polygon fill="white" stroke="#666666" points="413.5,-422.5 350.5,-422.5 350.5,-403.5 413.5,-403.5 413.5,-422.5"/>
<text text-anchor="middle" x="382" y="-410.5" font-family="Helvetica,sans-Serif" font-size="10.00">GroupList</text>
</a>
</g>
</g>
<!-- Node9&#45;&gt;Node7 -->
<g id="edge9" class="edge">
<title>Node9&#45;&gt;Node7</title>
<path fill="none" stroke="#9a32cd" stroke-dasharray="5,2" d="M423.76,-409.91C465.34,-406.75 530.19,-401.84 576.78,-398.3"/>
<polygon fill="#9a32cd" stroke="#9a32cd" points="423.42,-406.42 413.72,-410.67 423.95,-413.4 423.42,-406.42"/>
<text text-anchor="middle" x="501.5" y="-410" font-family="Helvetica,sans-Serif" font-size="10.00"> partOfGroups</text>
</g>
<!-- Node10 -->
<g id="node10" class="node">
<title>Node10</title>
<g id="a_node10"><a xlink:title=" ">
<polygon fill="white" stroke="#666666" points="247,-423 141,-423 141,-393 247,-393 247,-423"/>
<text text-anchor="start" x="149" y="-411" font-family="Helvetica,sans-Serif" font-size="10.00">std::vector&lt; const</text>
<text text-anchor="middle" x="194" y="-400" font-family="Helvetica,sans-Serif" font-size="10.00"> GroupDef * &gt;</text>
</a>
</g>
</g>
<!-- Node10&#45;&gt;Node9 -->
<g id="edge10" class="edge">
<title>Node10&#45;&gt;Node9</title>
<path fill="none" stroke="#63b8ff" d="M257.67,-409.68C288.86,-410.52 325.17,-411.5 350.27,-412.17"/>
<polygon fill="#63b8ff" stroke="#63b8ff" points="257.4,-406.18 247.31,-409.41 257.21,-413.17 257.4,-406.18"/>
</g>
<!-- Node11 -->
<g id="node11" class="node">
<title>Node11</title>
<g id="a_node11"><a xlink:href="../../d7/dd5/struct_doc_info.html" target="_top" xlink:title="Data associated with a detailed description.">
<polygon fill="white" stroke="#666666" points="409,-385.5 355,-385.5 355,-366.5 409,-366.5 409,-385.5"/>
<text text-anchor="middle" x="382" y="-373.5" font-family="Helvetica,sans-Serif" font-size="10.00">DocInfo</text>
</a>
</g>
</g>
<!-- Node11&#45;&gt;Node7 -->
<g id="edge11" class="edge">
<title>Node11&#45;&gt;Node7</title>
<path fill="none" stroke="#9a32cd" stroke-dasharray="5,2" d="M419.51,-372.12C455.24,-369.09 511.13,-366.38 559,-373 575.11,-375.23 592.63,-380.04 606.63,-384.5"/>
<polygon fill="#9a32cd" stroke="#9a32cd" points="418.74,-368.67 409.09,-373.06 419.37,-375.65 418.74,-368.67"/>
<text text-anchor="middle" x="501.5" y="-387" font-family="Helvetica,sans-Serif" font-size="10.00"> details</text>
<text text-anchor="middle" x="501.5" y="-376" font-family="Helvetica,sans-Serif" font-size="10.00">inbodyDocs</text>
</g>
<!-- Node12 -->
<g id="node12" class="node">
<title>Node12</title>
<g id="a_node12"><a xlink:href="../../d9/d45/class_q_c_string.html" target="_top" xlink:title="This is an alternative implementation of QCString.">
<polygon fill="white" stroke="#666666" points="223.5,-204.5 164.5,-204.5 164.5,-185.5 223.5,-185.5 223.5,-204.5"/>
<text text-anchor="middle" x="194" y="-192.5" font-family="Helvetica,sans-Serif" font-size="10.00">QCString</text>
</a>
</g>
</g>
<!-- Node12&#45;&gt;Node1 -->
<g id="edge26" class="edge">
<title>Node12&#45;&gt;Node1</title>
<path fill="none" stroke="#9a32cd" stroke-dasharray="5,2" d="M213.94,-178.87C246.06,-153.22 314.25,-106 381,-106 381,-106 381,-106 1234.5,-106 1291.01,-106 1356.71,-106 1395.74,-106"/>
<polygon fill="#9a32cd" stroke="#9a32cd" points="211.39,-176.43 205.87,-185.48 215.82,-181.85 211.39,-176.43"/>
<text text-anchor="middle" x="811" y="-131" font-family="Helvetica,sans-Serif" font-size="10.00"> m_diskName</text>
<text text-anchor="middle" x="811" y="-120" font-family="Helvetica,sans-Serif" font-size="10.00">m_dispName</text>
<text text-anchor="middle" x="811" y="-109" font-family="Helvetica,sans-Serif" font-size="10.00">m_shortName</text>
</g>
<!-- Node12&#45;&gt;Node7 -->
<g id="edge19" class="edge">
<title>Node12&#45;&gt;Node7</title>
<path fill="none" stroke="#9a32cd" stroke-dasharray="5,2" d="M233.66,-205C243.82,-207.46 254.79,-209.97 265,-212 336.02,-226.11 359.33,-208.74 426,-237 513.34,-274.02 597.02,-355.95 624.27,-384.2"/>
<polygon fill="#9a32cd" stroke="#9a32cd" points="234.37,-201.58 223.83,-202.58 232.7,-208.37 234.37,-201.58"/>
<text text-anchor="middle" x="382" y="-350" font-family="Helvetica,sans-Serif" font-size="10.00"> briefSignatures</text>
<text text-anchor="middle" x="382" y="-339" font-family="Helvetica,sans-Serif" font-size="10.00">defFileExt</text>
<text text-anchor="middle" x="382" y="-328" font-family="Helvetica,sans-Serif" font-size="10.00">defFileName</text>
<text text-anchor="middle" x="382" y="-317" font-family="Helvetica,sans-Serif" font-size="10.00">docSignatures</text>
<text text-anchor="middle" x="382" y="-306" font-family="Helvetica,sans-Serif" font-size="10.00">id</text>
<text text-anchor="middle" x="382" y="-295" font-family="Helvetica,sans-Serif" font-size="10.00">localName</text>
<text text-anchor="middle" x="382" y="-284" font-family="Helvetica,sans-Serif" font-size="10.00">name</text>
<text text-anchor="middle" x="382" y="-273" font-family="Helvetica,sans-Serif" font-size="10.00">qualifiedName</text>
<text text-anchor="middle" x="382" y="-262" font-family="Helvetica,sans-Serif" font-size="10.00">ref</text>
<text text-anchor="middle" x="382" y="-251" font-family="Helvetica,sans-Serif" font-size="10.00">symbolName</text>
<text text-anchor="middle" x="382" y="-240" font-family="Helvetica,sans-Serif" font-size="10.00">...</text>
</g>
<!-- Node12&#45;&gt;Node11 -->
<g id="edge12" class="edge">
<title>Node12&#45;&gt;Node11</title>
<path fill="none" stroke="#9a32cd" stroke-dasharray="5,2" d="M208.26,-213.03C231.81,-244.17 283.58,-308.84 338,-352 344.83,-357.42 353.05,-362.33 360.46,-366.28"/>
<polygon fill="#9a32cd" stroke="#9a32cd" points="210.93,-210.75 202.14,-204.84 205.32,-214.95 210.93,-210.75"/>
<text text-anchor="middle" x="292.5" y="-347" font-family="Helvetica,sans-Serif" font-size="10.00"> doc</text>
<text text-anchor="middle" x="292.5" y="-336" font-family="Helvetica,sans-Serif" font-size="10.00">file</text>
</g>
<!-- Node13 -->
<g id="node13" class="node">
<title>Node13</title>
<g id="a_node13"><a xlink:href="../../d0/da7/struct_brief_info.html" target="_top" xlink:title="Data associated with a brief description.">
<polygon fill="white" stroke="#666666" points="411.5,-153.5 352.5,-153.5 352.5,-134.5 411.5,-134.5 411.5,-153.5"/>
<text text-anchor="middle" x="382" y="-141.5" font-family="Helvetica,sans-Serif" font-size="10.00">BriefInfo</text>
</a>
</g>
</g>
<!-- Node12&#45;&gt;Node13 -->
<g id="edge14" class="edge">
<title>Node12&#45;&gt;Node13</title>
<path fill="none" stroke="#9a32cd" stroke-dasharray="5,2" d="M233.62,-184.41C268.97,-174.72 320.49,-160.59 352.31,-151.87"/>
<polygon fill="#9a32cd" stroke="#9a32cd" points="232.37,-181.12 223.65,-187.14 234.22,-187.87 232.37,-181.12"/>
<text text-anchor="middle" x="292.5" y="-200" font-family="Helvetica,sans-Serif" font-size="10.00"> doc</text>
<text text-anchor="middle" x="292.5" y="-189" font-family="Helvetica,sans-Serif" font-size="10.00">file</text>
<text text-anchor="middle" x="292.5" y="-178" font-family="Helvetica,sans-Serif" font-size="10.00">tooltip</text>
</g>
<!-- Node13&#45;&gt;Node7 -->
<g id="edge13" class="edge">
<title>Node13&#45;&gt;Node7</title>
<path fill="none" stroke="#9a32cd" stroke-dasharray="5,2" d="M421.56,-134.05C460.41,-126.47 520.04,-121.83 559,-152 635.3,-211.07 635.53,-346.76 634.04,-384.25"/>
<polygon fill="#9a32cd" stroke="#9a32cd" points="420.74,-130.64 411.67,-136.13 422.18,-137.49 420.74,-130.64"/>
<text text-anchor="middle" x="501.5" y="-155" font-family="Helvetica,sans-Serif" font-size="10.00"> brief</text>
</g>
<!-- Node14 -->
<g id="node14" class="node">
<title>Node14</title>
<g id="a_node14"><a xlink:href="../../db/dab/struct_body_info.html" target="_top" xlink:title="Data associated with description found in the body.">
<polygon fill="white" stroke="#666666" points="412,-498.5 352,-498.5 352,-479.5 412,-479.5 412,-498.5"/>
<text text-anchor="middle" x="382" y="-486.5" font-family="Helvetica,sans-Serif" font-size="10.00">BodyInfo</text>
</a>
</g>
</g>
<!-- Node14&#45;&gt;Node7 -->
<g id="edge15" class="edge">
<title>Node14&#45;&gt;Node7</title>
<path fill="none" stroke="#9a32cd" stroke-dasharray="5,2" d="M422.68,-490.42C459.71,-490.21 515.62,-485.87 559,-465 589.11,-450.51 614.98,-419.31 626.74,-403.54"/>
<polygon fill="#9a32cd" stroke="#9a32cd" points="422.31,-486.92 412.29,-490.38 422.27,-493.92 422.31,-486.92"/>
<text text-anchor="middle" x="501.5" y="-492" font-family="Helvetica,sans-Serif" font-size="10.00"> body</text>
</g>
<!-- Node15&#45;&gt;Node14 -->
<g id="edge16" class="edge">
<title>Node15&#45;&gt;Node14</title>
<path fill="none" stroke="#9a32cd" stroke-dasharray="5,2" d="M230,-491.44C265.23,-490.87 318.94,-490 351.91,-489.47"/>
<polygon fill="#9a32cd" stroke="#9a32cd" points="229.64,-487.94 219.7,-491.6 229.75,-494.94 229.64,-487.94"/>
<text text-anchor="middle" x="292.5" y="-493" font-family="Helvetica,sans-Serif" font-size="10.00"> fileDef</text>
</g>
<!-- Node16 -->
<g id="node16" class="node">
<title>Node16</title>
<g id="a_node16"><a xlink:href="../../d1/d7d/class_member_vector.html" target="_top" xlink:title="A vector of MemberDef object.">
<polygon fill="white" stroke="#666666" points="426,-190.5 338,-190.5 338,-171.5 426,-171.5 426,-190.5"/>
<text text-anchor="middle" x="382" y="-178.5" font-family="Helvetica,sans-Serif" font-size="10.00">MemberVector</text>
</a>
</g>
</g>
<!-- Node16&#45;&gt;Node7 -->
<g id="edge20" class="edge">
<title>Node16&#45;&gt;Node7</title>
<path fill="none" stroke="#9a32cd" stroke-dasharray="5,2" d="M434.65,-169.94C472.68,-164.87 523.72,-164.84 559,-191 624.14,-239.29 632.39,-350.61 633.38,-384.22"/>
<polygon fill="#9a32cd" stroke="#9a32cd" points="433.66,-166.55 424.29,-171.49 434.69,-173.48 433.66,-166.55"/>
<text text-anchor="middle" x="501.5" y="-205" font-family="Helvetica,sans-Serif" font-size="10.00"> referencedByMembers</text>
<text text-anchor="middle" x="501.5" y="-194" font-family="Helvetica,sans-Serif" font-size="10.00">referencesMembers</text>
</g>
<!-- Node17&#45;&gt;Node2 -->
<g id="edge21" class="edge">
<title>Node17&#45;&gt;Node2</title>
<path fill="none" stroke="orange" stroke-dasharray="5,2" d="M1077.39,-414.98C1104.39,-412.55 1134.51,-409.83 1160.97,-407.45"/>
<polygon fill="orange" stroke="orange" points="1076.85,-411.51 1067.21,-415.9 1077.48,-418.49 1076.85,-411.51"/>
<text text-anchor="middle" x="1114" y="-416" font-family="Helvetica,sans-Serif" font-size="10.00"> &lt; DirDef &gt;</text>
</g>
<!-- Node18 -->
<g id="node18" class="node">
<title>Node18</title>
<g id="a_node18"><a xlink:title=" ">
<polygon fill="white" stroke="#666666" points="831.5,-451.5 790.5,-451.5 790.5,-432.5 831.5,-432.5 831.5,-451.5"/>
<text text-anchor="middle" x="811" y="-439.5" font-family="Helvetica,sans-Serif" font-size="10.00">Base</text>
</a>
</g>
</g>
<!-- Node18&#45;&gt;Node17 -->
<g id="edge22" class="edge">
<title>Node18&#45;&gt;Node17</title>
<path fill="none" stroke="#63b8ff" d="M841.61,-438.81C865.32,-436.25 899.52,-432.56 929.85,-429.29"/>
<polygon fill="#63b8ff" stroke="#63b8ff" points="841.07,-435.35 831.5,-439.9 841.82,-442.31 841.07,-435.35"/>
</g>
<!-- Node19 -->
<g id="node19" class="node">
<title>Node19</title>
<g id="a_node19"><a xlink:href="../../dc/d2a/class_dir_list.html" target="_top" xlink:title="A list of directories.">
<polygon fill="white" stroke="#666666" points="1257.5,-75.5 1209.5,-75.5 1209.5,-56.5 1257.5,-56.5 1257.5,-75.5"/>
<text text-anchor="middle" x="1233.5" y="-63.5" font-family="Helvetica,sans-Serif" font-size="10.00">DirList</text>
</a>
</g>
</g>
<!-- Node19&#45;&gt;Node1 -->
<g id="edge24" class="edge">
<title>Node19&#45;&gt;Node1</title>
<path fill="none" stroke="#9a32cd" stroke-dasharray="5,2" d="M1267.74,-66.26C1297.22,-67.24 1341.19,-70.57 1378,-81 1390.53,-84.55 1403.74,-90.94 1413.71,-96.37"/>
<polygon fill="#9a32cd" stroke="#9a32cd" points="1267.66,-62.76 1257.57,-66 1267.48,-69.76 1267.66,-62.76"/>
<text text-anchor="middle" x="1351" y="-84" font-family="Helvetica,sans-Serif" font-size="10.00"> m_subdirs</text>
</g>
<!-- Node20 -->
<g id="node20" class="node">
<title>Node20</title>
<g id="a_node20"><a xlink:title=" ">
<polygon fill="white" stroke="#666666" points="1051.5,-78 945.5,-78 945.5,-48 1051.5,-48 1051.5,-78"/>
<text text-anchor="start" x="953.5" y="-66" font-family="Helvetica,sans-Serif" font-size="10.00">std::vector&lt; const</text>
<text text-anchor="middle" x="998.5" y="-55" font-family="Helvetica,sans-Serif" font-size="10.00"> DirDef * &gt;</text>
</a>
</g>
</g>
<!-- Node20&#45;&gt;Node19 -->
<g id="edge25" class="edge">
<title>Node20&#45;&gt;Node19</title>
<path fill="none" stroke="#63b8ff" d="M1061.91,-63.8C1110.54,-64.43 1175.34,-65.26 1209.37,-65.7"/>
<polygon fill="#63b8ff" stroke="#63b8ff" points="1061.83,-60.3 1051.79,-63.67 1061.74,-67.3 1061.83,-60.3"/>
</g>
<!-- Node21 -->
<g id="node21" class="node">
<title>Node21</title>
<g id="a_node21"><a xlink:href="../../d0/d18/class_file_list.html" target="_top" xlink:title=" ">
<polygon fill="white" stroke="#666666" points="1259,-30.5 1208,-30.5 1208,-11.5 1259,-11.5 1259,-30.5"/>
<text text-anchor="middle" x="1233.5" y="-18.5" font-family="Helvetica,sans-Serif" font-size="10.00">FileList</text>
</a>
</g>
</g>
<!-- Node21&#45;&gt;Node1 -->
<g id="edge27" class="edge">
<title>Node21&#45;&gt;Node1</title>
<path fill="none" stroke="#9a32cd" stroke-dasharray="5,2" d="M1269.09,-24.3C1299.36,-28.35 1343.72,-37.16 1378,-56 1396.66,-66.25 1413.47,-84.94 1422.65,-96.33"/>
<polygon fill="#9a32cd" stroke="#9a32cd" points="1269.36,-20.81 1259.01,-23.06 1268.5,-27.75 1269.36,-20.81"/>
<text text-anchor="middle" x="1351" y="-59" font-family="Helvetica,sans-Serif" font-size="10.00"> m_fileList</text>
</g>
<!-- Node22 -->
<g id="node22" class="node">
<title>Node22</title>
<g id="a_node22"><a xlink:title=" ">
<polygon fill="white" stroke="#666666" points="1051.5,-30 945.5,-30 945.5,0 1051.5,0 1051.5,-30"/>
<text text-anchor="start" x="953.5" y="-18" font-family="Helvetica,sans-Serif" font-size="10.00">std::vector&lt; const</text>
<text text-anchor="middle" x="998.5" y="-7" font-family="Helvetica,sans-Serif" font-size="10.00"> FileDef * &gt;</text>
</a>
</g>
</g>
<!-- Node22&#45;&gt;Node21 -->
<g id="edge28" class="edge">
<title>Node22&#45;&gt;Node21</title>
<path fill="none" stroke="#63b8ff" d="M1062.07,-16.61C1109.97,-17.84 1173.5,-19.48 1207.87,-20.37"/>
<polygon fill="#63b8ff" stroke="#63b8ff" points="1061.88,-13.11 1051.79,-16.35 1061.7,-20.1 1061.88,-13.11"/>
</g>
</g>
</svg>
        <g id="navigator" transform="translate(0 0)" fill="#404254">
                <rect fill="#f2f5e9" fill-opacity="0.5" stroke="#606060" stroke-width=".5" x="0" y="0" width="60" height="60"/>
                <use id="zoomplus" xlink:href="#zoomPlus" x="17" y="9" onmousedown="handleZoom(evt,'in')"/>
                <use id="zoomminus" xlink:href="#zoomMin" x="42" y="9" onmousedown="handleZoom(evt,'out')"/>
                <use id="reset" xlink:href="#resetDef" x="30" y="36" onmousedown="handleReset()"/>
                <g id="arrowUp" xlink:href="#dirArrow" transform="translate(30 24)" onmousedown="handlePan(0,-1)">
                  <use xlink:href="#rim" fill="#404040">
                        <set attributeName="fill" to="#808080" begin="arrowUp.mouseover" end="arrowUp.mouseout"/>
                  </use>
                  <path fill="none" stroke="white" stroke-width="1.5" d="M0,-3.0v7 M-2.5,-0.5L0,-3.0L2.5,-0.5"/>
                </g>
                <g id="arrowRight" xlink:href="#dirArrow" transform="rotate(90) translate(36 -43)" onmousedown="handlePan(1,0)">
                  <use xlink:href="#rim" fill="#404040">
                        <set attributeName="fill" to="#808080" begin="arrowRight.mouseover" end="arrowRight.mouseout"/>
                  </use>
                  <path fill="none" stroke="white" stroke-width="1.5" d="M0,-3.0v7 M-2.5,-0.5L0,-3.0L2.5,-0.5"/>
                </g>
                <g id="arrowDown" xlink:href="#dirArrow" transform="rotate(180) translate(-30 -48)" onmousedown="handlePan(0,1)">
                  <use xlink:href="#rim" fill="#404040">
                        <set attributeName="fill" to="#808080" begin="arrowDown.mouseover" end="arrowDown.mouseout"/>
                  </use>
                  <path fill="none" stroke="white" stroke-width="1.5" d="M0,-3.0v7 M-2.5,-0.5L0,-3.0L2.5,-0.5"/>
                </g>
                <g id="arrowLeft" xlink:href="#dirArrow" transform="rotate(270) translate(-36 17)" onmousedown="handlePan(-1,0)">
                  <use xlink:href="#rim" fill="#404040">
                        <set attributeName="fill" to="#808080" begin="arrowLeft.mouseover" end="arrowLeft.mouseout"/>
                  </use>
                  <path fill="none" stroke="white" stroke-width="1.5" d="M0,-3.0v7 M-2.5,-0.5L0,-3.0L2.5,-0.5"/>
                </g>
        </g>
        <svg viewBox="0 0 15 15" width="100%" height="30px" preserveAspectRatio="xMaxYMin meet">
         <g id="arrow_out" transform="scale(0.3 0.3)">
          <a xlink:href="class_dir_def_impl__coll__graph_org.svg" target="_base">
           <rect id="button" ry="5" rx="5" y="6" x="6" height="38" width="38"
                fill="#f2f5e9" fill-opacity="0.5" stroke="#606060" stroke-width="1.0"/>
           <path id="arrow"
             d="M 11.500037,31.436501 C 11.940474,20.09759 22.043105,11.32322 32.158766,21.979434 L 37.068811,17.246167 C 37.068811,17.246167 37.088388,32 37.088388,32 L 22.160133,31.978069 C 22.160133,31.978069 26.997745,27.140456 26.997745,27.140456 C 18.528582,18.264221 13.291696,25.230495 11.500037,31.436501 z"
             style="fill:#404040;"/>
          </a>
         </g>
        </svg>
</svg>
