<?xml version="1.0" encoding="UTF-8" standalone="no"?>
<!DOCTYPE svg PUBLIC "-//W3C//DTD SVG 1.1//EN"
 "http://www.w3.org/Graphics/SVG/1.1/DTD/svg11.dtd">
<!-- Generated by graphviz version 2.43.0 (0)
 -->
<!-- Title: /home/runner/work/doxygen/doxygen/src/htmlgen.h Pages: 1 -->
<!--zoomable 368 -->
<svg id="main" version="1.1" xmlns="http://www.w3.org/2000/svg" xmlns:xlink="http://www.w3.org/1999/xlink" xml:space="preserve" onload="init(evt)">
<style type="text/css"><![CDATA[
.edge:hover path { stroke: red; }
.edge:hover polygon { stroke: red; fill: red; }
]]></style>
<script type="text/javascript"><![CDATA[
var edges = document.getElementsByTagName('g');
if (edges && edges.length) {
  for (var i=0;i<edges.length;i++) {
    if (edges[i].id.substr(0,4)=='edge') {
      edges[i].setAttribute('class','edge');
    }
  }
}
]]></script>
        <defs>
                <circle id="rim" cx="0" cy="0" r="7"/>
                <circle id="rim2" cx="0" cy="0" r="3.5"/>
                <g id="zoomPlus">
                        <use xlink:href="#rim" fill="#404040">
                                <set attributeName="fill" to="#808080" begin="zoomplus.mouseover" end="zoomplus.mouseout"/>
                        </use>
                        <path d="M-4,0h8M0,-4v8" fill="none" stroke="white" stroke-width="1.5" pointer-events="none"/>
                </g>
                <g id="zoomMin">
                        <use xlink:href="#rim" fill="#404040">
                                <set attributeName="fill" to="#808080" begin="zoomminus.mouseover" end="zoomminus.mouseout"/>
                        </use>
                        <path d="M-4,0h8" fill="none" stroke="white" stroke-width="1.5" pointer-events="none"/>
                </g>
                <g id="dirArrow">
                        <path fill="none" stroke="white" stroke-width="1.5" d="M0,-3.0v7 M-2.5,-0.5L0,-3.0L2.5,-0.5"/>
                </g>
               <g id="resetDef">
                       <use xlink:href="#rim2" fill="#404040">
                               <set attributeName="fill" to="#808080" begin="reset.mouseover" end="reset.mouseout"/>
                       </use>
               </g>
        </defs>

<script type="text/javascript">
var viewWidth = 1072;
var viewHeight = 368;
var sectionId = 'dynsection-0';
</script>
<script xlink:href="../../svgpan.js"/>
<svg id="graph" class="graph">
<g id="viewport">
<title>/home/runner/work/doxygen/doxygen/src/htmlgen.h</title>
<!-- Node1 -->
<g id="node1" class="node">
<title>Node1</title>
<g id="a_node1"><a xlink:title=" ">
<polygon fill="#999999" stroke="#666666" points="683,-360 529,-360 529,-330 683,-330 683,-360"/>
<text text-anchor="start" x="537" y="-348" font-family="Helvetica,sans-Serif" font-size="10.00">/home/runner/work/doxygen</text>
<text text-anchor="middle" x="606" y="-337" font-family="Helvetica,sans-Serif" font-size="10.00">/doxygen/src/htmlgen.h</text>
</a>
</g>
</g>
<!-- Node2 -->
<g id="node2" class="node">
<title>Node2</title>
<g id="a_node2"><a xlink:href="../../df/d06/outputgen_8h.html" target="_top" xlink:title=" ">
<polygon fill="white" stroke="#666666" points="643.5,-294 568.5,-294 568.5,-275 643.5,-275 643.5,-294"/>
<text text-anchor="middle" x="606" y="-282" font-family="Helvetica,sans-Serif" font-size="10.00">outputgen.h</text>
</a>
</g>
</g>
<!-- Node1&#45;&gt;Node2 -->
<g id="edge1" class="edge">
<title>Node1&#45;&gt;Node2</title>
<path fill="none" stroke="#63b8ff" d="M606,-329.84C606,-322.21 606,-312.7 606,-304.45"/>
<polygon fill="#63b8ff" stroke="#63b8ff" points="609.5,-304.27 606,-294.27 602.5,-304.27 609.5,-304.27"/>
</g>
<!-- Node3 -->
<g id="node3" class="node">
<title>Node3</title>
<g id="a_node3"><a xlink:title=" ">
<polygon fill="#e0e0e0" stroke="#999999" points="58,-129 0,-129 0,-110 58,-110 58,-129"/>
<text text-anchor="middle" x="29" y="-117" font-family="Helvetica,sans-Serif" font-size="10.00">memory</text>
</a>
</g>
</g>
<!-- Node2&#45;&gt;Node3 -->
<g id="edge2" class="edge">
<title>Node2&#45;&gt;Node3</title>
<path fill="none" stroke="#63b8ff" d="M568.17,-281.8C472.11,-277.17 220.78,-263.06 141,-239 91.32,-224.01 67.75,-226.52 38,-184 28.92,-171.03 27.15,-152.88 27.37,-139.3"/>
<polygon fill="#63b8ff" stroke="#63b8ff" points="30.87,-139.36 27.91,-129.19 23.88,-138.99 30.87,-139.36"/>
</g>
<!-- Node4 -->
<g id="node4" class="node">
<title>Node4</title>
<g id="a_node4"><a xlink:title=" ">
<polygon fill="#e0e0e0" stroke="#999999" points="907.5,-239 864.5,-239 864.5,-220 907.5,-220 907.5,-239"/>
<text text-anchor="middle" x="886" y="-227" font-family="Helvetica,sans-Serif" font-size="10.00">stack</text>
</a>
</g>
</g>
<!-- Node2&#45;&gt;Node4 -->
<g id="edge3" class="edge">
<title>Node2&#45;&gt;Node4</title>
<path fill="none" stroke="#63b8ff" d="M643.74,-277.24C691.78,-269.12 777.29,-254.2 850,-239 851.45,-238.7 852.94,-238.38 854.44,-238.05"/>
<polygon fill="#63b8ff" stroke="#63b8ff" points="855.36,-241.43 864.34,-235.81 853.81,-234.6 855.36,-241.43"/>
</g>
<!-- Node5 -->
<g id="node5" class="node">
<title>Node5</title>
<g id="a_node5"><a xlink:title=" ">
<polygon fill="#e0e0e0" stroke="#999999" points="990,-129 930,-129 930,-110 990,-110 990,-129"/>
<text text-anchor="middle" x="960" y="-117" font-family="Helvetica,sans-Serif" font-size="10.00">iostream</text>
</a>
</g>
</g>
<!-- Node2&#45;&gt;Node5 -->
<g id="edge4" class="edge">
<title>Node2&#45;&gt;Node5</title>
<path fill="none" stroke="#63b8ff" d="M620.72,-274.95C662.39,-250.8 780.85,-182.73 822,-165 854.12,-151.16 892.02,-139.23 919.97,-131.22"/>
<polygon fill="#63b8ff" stroke="#63b8ff" points="921.12,-134.54 929.79,-128.45 919.21,-127.8 921.12,-134.54"/>
</g>
<!-- Node6 -->
<g id="node6" class="node">
<title>Node6</title>
<g id="a_node6"><a xlink:title=" ">
<polygon fill="#e0e0e0" stroke="#999999" points="1063.5,-129 1008.5,-129 1008.5,-110 1063.5,-110 1063.5,-129"/>
<text text-anchor="middle" x="1036" y="-117" font-family="Helvetica,sans-Serif" font-size="10.00">fstream</text>
</a>
</g>
</g>
<!-- Node2&#45;&gt;Node6 -->
<g id="edge5" class="edge">
<title>Node2&#45;&gt;Node6</title>
<path fill="none" stroke="#63b8ff" d="M628.51,-274.97C699.83,-247.93 920.95,-164.11 1004.02,-132.62"/>
<polygon fill="#63b8ff" stroke="#63b8ff" points="1005.34,-135.87 1013.45,-129.05 1002.86,-129.32 1005.34,-135.87"/>
</g>
<!-- Node7 -->
<g id="node7" class="node">
<title>Node7</title>
<g id="a_node7"><a xlink:href="../../d9/d49/types_8h.html" target="_top" xlink:title="This file contains a number of basic enums and types.">
<polygon fill="white" stroke="#666666" points="632.5,-184 579.5,-184 579.5,-165 632.5,-165 632.5,-184"/>
<text text-anchor="middle" x="606" y="-172" font-family="Helvetica,sans-Serif" font-size="10.00">types.h</text>
</a>
</g>
</g>
<!-- Node2&#45;&gt;Node7 -->
<g id="edge6" class="edge">
<title>Node2&#45;&gt;Node7</title>
<path fill="none" stroke="#63b8ff" d="M606,-274.66C606,-257.17 606,-217.8 606,-194.27"/>
<polygon fill="#63b8ff" stroke="#63b8ff" points="609.5,-194.16 606,-184.16 602.5,-194.16 609.5,-194.16"/>
</g>
<!-- Node18 -->
<g id="node18" class="node">
<title>Node18</title>
<g id="a_node18"><a xlink:href="../../d1/db5/index_8h.html" target="_top" xlink:title=" ">
<polygon fill="white" stroke="#666666" points="577.5,-239 524.5,-239 524.5,-220 577.5,-220 577.5,-239"/>
<text text-anchor="middle" x="551" y="-227" font-family="Helvetica,sans-Serif" font-size="10.00">index.h</text>
</a>
</g>
</g>
<!-- Node2&#45;&gt;Node18 -->
<g id="edge19" class="edge">
<title>Node2&#45;&gt;Node18</title>
<path fill="none" stroke="#63b8ff" d="M596.92,-274.75C588.91,-267.03 577.04,-255.6 567.38,-246.28"/>
<polygon fill="#63b8ff" stroke="#63b8ff" points="569.54,-243.51 559.91,-239.09 564.69,-248.55 569.54,-243.51"/>
</g>
<!-- Node19 -->
<g id="node19" class="node">
<title>Node19</title>
<g id="a_node19"><a xlink:href="../../d1/d2a/section_8h.html" target="_top" xlink:title=" ">
<polygon fill="white" stroke="#666666" points="457.5,-239 396.5,-239 396.5,-220 457.5,-220 457.5,-239"/>
<text text-anchor="middle" x="427" y="-227" font-family="Helvetica,sans-Serif" font-size="10.00">section.h</text>
</a>
</g>
</g>
<!-- Node2&#45;&gt;Node19 -->
<g id="edge21" class="edge">
<title>Node2&#45;&gt;Node19</title>
<path fill="none" stroke="#63b8ff" d="M577.24,-274.98C547.06,-266.05 499.43,-251.94 465.9,-242.02"/>
<polygon fill="#63b8ff" stroke="#63b8ff" points="466.57,-238.57 455.98,-239.08 464.58,-245.28 466.57,-238.57"/>
</g>
<!-- Node23 -->
<g id="node23" class="node">
<title>Node23</title>
<g id="a_node23"><a xlink:href="../../d4/d7d/textstream_8h.html" target="_top" xlink:title=" ">
<polygon fill="white" stroke="#666666" points="770,-184 690,-184 690,-165 770,-165 770,-184"/>
<text text-anchor="middle" x="730" y="-172" font-family="Helvetica,sans-Serif" font-size="10.00">textstream.h</text>
</a>
</g>
</g>
<!-- Node2&#45;&gt;Node23 -->
<g id="edge33" class="edge">
<title>Node2&#45;&gt;Node23</title>
<path fill="none" stroke="#63b8ff" d="M616.15,-274.66C637.23,-256.3 686.01,-213.81 712.36,-190.87"/>
<polygon fill="#63b8ff" stroke="#63b8ff" points="714.82,-193.37 720.06,-184.16 710.22,-188.09 714.82,-193.37"/>
</g>
<!-- Node26 -->
<g id="node26" class="node">
<title>Node26</title>
<g id="a_node26"><a xlink:href="../../de/d9c/docparser_8h.html" target="_top" xlink:title=" ">
<polygon fill="white" stroke="#666666" points="222.5,-239 149.5,-239 149.5,-220 222.5,-220 222.5,-239"/>
<text text-anchor="middle" x="186" y="-227" font-family="Helvetica,sans-Serif" font-size="10.00">docparser.h</text>
</a>
</g>
</g>
<!-- Node2&#45;&gt;Node26 -->
<g id="edge42" class="edge">
<title>Node2&#45;&gt;Node26</title>
<path fill="none" stroke="#63b8ff" d="M568.36,-278.75C491.43,-269.04 316.4,-246.96 232.51,-236.37"/>
<polygon fill="#63b8ff" stroke="#63b8ff" points="232.87,-232.89 222.51,-235.11 231.99,-239.83 232.87,-232.89"/>
</g>
<!-- Node8 -->
<g id="node8" class="node">
<title>Node8</title>
<g id="a_node8"><a xlink:href="../../d7/d5c/qcstring_8h.html" target="_top" xlink:title=" ">
<polygon fill="white" stroke="#666666" points="583.5,-129 518.5,-129 518.5,-110 583.5,-110 583.5,-129"/>
<text text-anchor="middle" x="551" y="-117" font-family="Helvetica,sans-Serif" font-size="10.00">qcstring.h</text>
</a>
</g>
</g>
<!-- Node7&#45;&gt;Node8 -->
<g id="edge7" class="edge">
<title>Node7&#45;&gt;Node8</title>
<path fill="none" stroke="#63b8ff" d="M596.92,-164.75C588.91,-157.03 577.04,-145.6 567.38,-136.28"/>
<polygon fill="#63b8ff" stroke="#63b8ff" points="569.54,-133.51 559.91,-129.09 564.69,-138.55 569.54,-133.51"/>
</g>
<!-- Node9 -->
<g id="node9" class="node">
<title>Node9</title>
<g id="a_node9"><a xlink:title=" ">
<polygon fill="#e0e0e0" stroke="#999999" points="547,-19 503,-19 503,0 547,0 547,-19"/>
<text text-anchor="middle" x="525" y="-7" font-family="Helvetica,sans-Serif" font-size="10.00">string</text>
</a>
</g>
</g>
<!-- Node8&#45;&gt;Node9 -->
<g id="edge8" class="edge">
<title>Node8&#45;&gt;Node9</title>
<path fill="none" stroke="#63b8ff" d="M548.87,-109.66C544.64,-92.09 535.1,-52.45 529.44,-28.95"/>
<polygon fill="#63b8ff" stroke="#63b8ff" points="532.83,-28.06 527.08,-19.16 526.02,-29.7 532.83,-28.06"/>
</g>
<!-- Node10 -->
<g id="node10" class="node">
<title>Node10</title>
<g id="a_node10"><a xlink:title=" ">
<polygon fill="#e0e0e0" stroke="#999999" points="421,-74 357,-74 357,-55 421,-55 421,-74"/>
<text text-anchor="middle" x="389" y="-62" font-family="Helvetica,sans-Serif" font-size="10.00">algorithm</text>
</a>
</g>
</g>
<!-- Node8&#45;&gt;Node10 -->
<g id="edge9" class="edge">
<title>Node8&#45;&gt;Node10</title>
<path fill="none" stroke="#63b8ff" d="M524.97,-109.98C497.89,-101.13 455.29,-87.19 424.99,-77.28"/>
<polygon fill="#63b8ff" stroke="#63b8ff" points="425.82,-73.87 415.23,-74.08 423.65,-80.52 425.82,-73.87"/>
</g>
<!-- Node11 -->
<g id="node11" class="node">
<title>Node11</title>
<g id="a_node11"><a xlink:title=" ">
<polygon fill="#e0e0e0" stroke="#999999" points="338.5,-74 289.5,-74 289.5,-55 338.5,-55 338.5,-74"/>
<text text-anchor="middle" x="314" y="-62" font-family="Helvetica,sans-Serif" font-size="10.00">cctype</text>
</a>
</g>
</g>
<!-- Node8&#45;&gt;Node11 -->
<g id="edge10" class="edge">
<title>Node8&#45;&gt;Node11</title>
<path fill="none" stroke="#63b8ff" d="M518.24,-111.63C480.01,-103.54 414.67,-89.5 348.98,-74.17"/>
<polygon fill="#63b8ff" stroke="#63b8ff" points="349.4,-70.68 338.86,-71.8 347.8,-77.49 349.4,-70.68"/>
</g>
<!-- Node12 -->
<g id="node12" class="node">
<title>Node12</title>
<g id="a_node12"><a xlink:title=" ">
<polygon fill="#e0e0e0" stroke="#999999" points="603,-74 553,-74 553,-55 603,-55 603,-74"/>
<text text-anchor="middle" x="578" y="-62" font-family="Helvetica,sans-Serif" font-size="10.00">cstring</text>
</a>
</g>
</g>
<!-- Node8&#45;&gt;Node12 -->
<g id="edge11" class="edge">
<title>Node8&#45;&gt;Node12</title>
<path fill="none" stroke="#63b8ff" d="M555.46,-109.75C559.12,-102.57 564.41,-92.18 568.95,-83.27"/>
<polygon fill="#63b8ff" stroke="#63b8ff" points="572.2,-84.59 573.62,-74.09 565.97,-81.41 572.2,-84.59"/>
</g>
<!-- Node13 -->
<g id="node13" class="node">
<title>Node13</title>
<g id="a_node13"><a xlink:title=" ">
<polygon fill="#e0e0e0" stroke="#999999" points="836,-74 790,-74 790,-55 836,-55 836,-74"/>
<text text-anchor="middle" x="813" y="-62" font-family="Helvetica,sans-Serif" font-size="10.00">cstdio</text>
</a>
</g>
</g>
<!-- Node8&#45;&gt;Node13 -->
<g id="edge12" class="edge">
<title>Node8&#45;&gt;Node13</title>
<path fill="none" stroke="#63b8ff" d="M583.86,-112.33C627.73,-104.01 707.86,-88.56 776,-74 777.27,-73.73 778.56,-73.45 779.87,-73.16"/>
<polygon fill="#63b8ff" stroke="#63b8ff" points="780.94,-76.51 789.93,-70.91 779.41,-69.68 780.94,-76.51"/>
</g>
<!-- Node14 -->
<g id="node14" class="node">
<title>Node14</title>
<g id="a_node14"><a xlink:title=" ">
<polygon fill="#e0e0e0" stroke="#999999" points="670.5,-74 621.5,-74 621.5,-55 670.5,-55 670.5,-74"/>
<text text-anchor="middle" x="646" y="-62" font-family="Helvetica,sans-Serif" font-size="10.00">cstdlib</text>
</a>
</g>
</g>
<!-- Node8&#45;&gt;Node14 -->
<g id="edge13" class="edge">
<title>Node8&#45;&gt;Node14</title>
<path fill="none" stroke="#63b8ff" d="M566.26,-109.98C581.13,-101.69 603.98,-88.94 621.42,-79.22"/>
<polygon fill="#63b8ff" stroke="#63b8ff" points="623.43,-82.1 630.46,-74.17 620.02,-75.99 623.43,-82.1"/>
</g>
<!-- Node15 -->
<g id="node15" class="node">
<title>Node15</title>
<g id="a_node15"><a xlink:title=" ">
<polygon fill="#e0e0e0" stroke="#999999" points="787,-19 737,-19 737,0 787,0 787,-19"/>
<text text-anchor="middle" x="762" y="-7" font-family="Helvetica,sans-Serif" font-size="10.00">cstdint</text>
</a>
</g>
</g>
<!-- Node8&#45;&gt;Node15 -->
<g id="edge14" class="edge">
<title>Node8&#45;&gt;Node15</title>
<path fill="none" stroke="#63b8ff" d="M583.76,-114.89C632.35,-108.89 720.24,-95.37 743,-74 755.18,-62.56 759.66,-43.68 761.25,-29.47"/>
<polygon fill="#63b8ff" stroke="#63b8ff" points="764.75,-29.54 762,-19.3 757.77,-29.02 764.75,-29.54"/>
</g>
<!-- Node16 -->
<g id="node16" class="node">
<title>Node16</title>
<g id="a_node16"><a xlink:title=" ">
<polygon fill="#e0e0e0" stroke="#999999" points="496.5,-74 439.5,-74 439.5,-55 496.5,-55 496.5,-74"/>
<text text-anchor="middle" x="468" y="-62" font-family="Helvetica,sans-Serif" font-size="10.00">ostream</text>
</a>
</g>
</g>
<!-- Node8&#45;&gt;Node16 -->
<g id="edge15" class="edge">
<title>Node8&#45;&gt;Node16</title>
<path fill="none" stroke="#63b8ff" d="M537.66,-109.98C524.91,-101.84 505.45,-89.41 490.33,-79.76"/>
<polygon fill="#63b8ff" stroke="#63b8ff" points="491.89,-76.6 481.58,-74.17 488.12,-82.5 491.89,-76.6"/>
</g>
<!-- Node17 -->
<g id="node17" class="node">
<title>Node17</title>
<g id="a_node17"><a xlink:href="../../db/d7c/utf8_8h.html" target="_top" xlink:title="Various UTF8 related helper functions.">
<polygon fill="white" stroke="#666666" points="733.5,-74 688.5,-74 688.5,-55 733.5,-55 733.5,-74"/>
<text text-anchor="middle" x="711" y="-62" font-family="Helvetica,sans-Serif" font-size="10.00">utf8.h</text>
</a>
</g>
</g>
<!-- Node8&#45;&gt;Node17 -->
<g id="edge16" class="edge">
<title>Node8&#45;&gt;Node17</title>
<path fill="none" stroke="#63b8ff" d="M576.71,-109.98C604.48,-100.78 648.8,-86.1 678.86,-76.15"/>
<polygon fill="#63b8ff" stroke="#63b8ff" points="680.07,-79.43 688.46,-72.97 677.87,-72.79 680.07,-79.43"/>
</g>
<!-- Node17&#45;&gt;Node9 -->
<g id="edge18" class="edge">
<title>Node17&#45;&gt;Node9</title>
<path fill="none" stroke="#63b8ff" d="M688.19,-57C655.3,-47.63 594.39,-30.27 557,-19.62"/>
<polygon fill="#63b8ff" stroke="#63b8ff" points="557.7,-16.18 547.12,-16.8 555.78,-22.91 557.7,-16.18"/>
</g>
<!-- Node17&#45;&gt;Node15 -->
<g id="edge17" class="edge">
<title>Node17&#45;&gt;Node15</title>
<path fill="none" stroke="#63b8ff" d="M719.42,-54.75C726.77,-47.11 737.63,-35.82 746.54,-26.56"/>
<polygon fill="#63b8ff" stroke="#63b8ff" points="749.32,-28.72 753.74,-19.09 744.28,-23.87 749.32,-28.72"/>
</g>
<!-- Node18&#45;&gt;Node8 -->
<g id="edge20" class="edge">
<title>Node18&#45;&gt;Node8</title>
<path fill="none" stroke="#63b8ff" d="M551,-219.66C551,-202.17 551,-162.8 551,-139.27"/>
<polygon fill="#63b8ff" stroke="#63b8ff" points="554.5,-139.16 551,-129.16 547.5,-139.16 554.5,-139.16"/>
</g>
<!-- Node19&#45;&gt;Node8 -->
<g id="edge24" class="edge">
<title>Node19&#45;&gt;Node8</title>
<path fill="none" stroke="#63b8ff" d="M437.15,-219.66C458.23,-201.3 507.01,-158.81 533.36,-135.87"/>
<polygon fill="#63b8ff" stroke="#63b8ff" points="535.82,-138.37 541.06,-129.16 531.22,-133.09 535.82,-138.37"/>
</g>
<!-- Node19&#45;&gt;Node9 -->
<g id="edge22" class="edge">
<title>Node19&#45;&gt;Node9</title>
<path fill="none" stroke="#63b8ff" d="M396.22,-224.24C354.77,-217.79 284.4,-204.15 269,-184 234.18,-138.45 231.08,-98.86 268,-55 296.39,-21.27 430.3,-13.11 492.77,-11.13"/>
<polygon fill="#63b8ff" stroke="#63b8ff" points="492.96,-14.63 502.86,-10.85 492.76,-7.63 492.96,-14.63"/>
</g>
<!-- Node20 -->
<g id="node20" class="node">
<title>Node20</title>
<g id="a_node20"><a xlink:title=" ">
<polygon fill="#e0e0e0" stroke="#999999" points="473.5,-129 380.5,-129 380.5,-110 473.5,-110 473.5,-129"/>
<text text-anchor="middle" x="427" y="-117" font-family="Helvetica,sans-Serif" font-size="10.00">unordered_map</text>
</a>
</g>
</g>
<!-- Node19&#45;&gt;Node20 -->
<g id="edge23" class="edge">
<title>Node19&#45;&gt;Node20</title>
<path fill="none" stroke="#63b8ff" d="M427,-219.66C427,-202.17 427,-162.8 427,-139.27"/>
<polygon fill="#63b8ff" stroke="#63b8ff" points="430.5,-139.16 427,-129.16 423.5,-139.16 430.5,-139.16"/>
</g>
<!-- Node21 -->
<g id="node21" class="node">
<title>Node21</title>
<g id="a_node21"><a xlink:href="../../da/de1/linkedmap_8h.html" target="_top" xlink:title=" ">
<polygon fill="white" stroke="#666666" points="354.5,-184 277.5,-184 277.5,-165 354.5,-165 354.5,-184"/>
<text text-anchor="middle" x="316" y="-172" font-family="Helvetica,sans-Serif" font-size="10.00">linkedmap.h</text>
</a>
</g>
</g>
<!-- Node19&#45;&gt;Node21 -->
<g id="edge25" class="edge">
<title>Node19&#45;&gt;Node21</title>
<path fill="none" stroke="#63b8ff" d="M409.17,-219.98C391.39,-211.5 363.85,-198.35 343.32,-188.54"/>
<polygon fill="#63b8ff" stroke="#63b8ff" points="344.69,-185.32 334.16,-184.17 341.67,-191.64 344.69,-185.32"/>
</g>
<!-- Node21&#45;&gt;Node3 -->
<g id="edge28" class="edge">
<title>Node21&#45;&gt;Node3</title>
<path fill="none" stroke="#63b8ff" d="M277.08,-167.08C230.01,-159.2 148.12,-145.11 68.25,-129.18"/>
<polygon fill="#63b8ff" stroke="#63b8ff" points="68.51,-125.66 58.02,-127.13 67.13,-132.53 68.51,-125.66"/>
</g>
<!-- Node21&#45;&gt;Node8 -->
<g id="edge32" class="edge">
<title>Node21&#45;&gt;Node8</title>
<path fill="none" stroke="#63b8ff" d="M353.76,-164.98C396.01,-155.46 464.3,-140.05 508.42,-130.1"/>
<polygon fill="#63b8ff" stroke="#63b8ff" points="509.28,-133.5 518.26,-127.88 507.74,-126.67 509.28,-133.5"/>
</g>
<!-- Node21&#45;&gt;Node9 -->
<g id="edge29" class="edge">
<title>Node21&#45;&gt;Node9</title>
<path fill="none" stroke="#63b8ff" d="M308.78,-164.98C291.84,-143.9 252.97,-88.61 281,-55 307.6,-23.1 432.68,-14.01 492.7,-11.46"/>
<polygon fill="#63b8ff" stroke="#63b8ff" points="492.92,-14.96 502.77,-11.07 492.64,-7.96 492.92,-14.96"/>
</g>
<!-- Node21&#45;&gt;Node10 -->
<g id="edge30" class="edge">
<title>Node21&#45;&gt;Node10</title>
<path fill="none" stroke="#63b8ff" d="M321.97,-164.66C334.06,-146.77 361.62,-106 377.38,-82.69"/>
<polygon fill="#63b8ff" stroke="#63b8ff" points="380.45,-84.4 383.15,-74.16 374.65,-80.48 380.45,-84.4"/>
</g>
<!-- Node21&#45;&gt;Node11 -->
<g id="edge31" class="edge">
<title>Node21&#45;&gt;Node11</title>
<path fill="none" stroke="#63b8ff" d="M315.84,-164.66C315.51,-147.17 314.78,-107.8 314.35,-84.27"/>
<polygon fill="#63b8ff" stroke="#63b8ff" points="317.84,-84.09 314.16,-74.16 310.85,-84.22 317.84,-84.09"/>
</g>
<!-- Node21&#45;&gt;Node20 -->
<g id="edge26" class="edge">
<title>Node21&#45;&gt;Node20</title>
<path fill="none" stroke="#63b8ff" d="M333.83,-164.98C351.61,-156.5 379.15,-143.35 399.68,-133.54"/>
<polygon fill="#63b8ff" stroke="#63b8ff" points="401.33,-136.64 408.84,-129.17 398.31,-130.32 401.33,-136.64"/>
</g>
<!-- Node22 -->
<g id="node22" class="node">
<title>Node22</title>
<g id="a_node22"><a xlink:title=" ">
<polygon fill="#e0e0e0" stroke="#999999" points="194.5,-129 147.5,-129 147.5,-110 194.5,-110 194.5,-129"/>
<text text-anchor="middle" x="171" y="-117" font-family="Helvetica,sans-Serif" font-size="10.00">vector</text>
</a>
</g>
</g>
<!-- Node21&#45;&gt;Node22 -->
<g id="edge27" class="edge">
<title>Node21&#45;&gt;Node22</title>
<path fill="none" stroke="#63b8ff" d="M292.7,-164.98C268.75,-156.23 231.22,-142.51 204.17,-132.62"/>
<polygon fill="#63b8ff" stroke="#63b8ff" points="205.31,-129.32 194.72,-129.17 202.91,-135.89 205.31,-129.32"/>
</g>
<!-- Node23&#45;&gt;Node5 -->
<g id="edge35" class="edge">
<title>Node23&#45;&gt;Node5</title>
<path fill="none" stroke="#63b8ff" d="M766.95,-164.98C808.8,-155.34 876.77,-139.68 919.88,-129.74"/>
<polygon fill="#63b8ff" stroke="#63b8ff" points="920.79,-133.13 929.75,-127.47 919.22,-126.31 920.79,-133.13"/>
</g>
<!-- Node23&#45;&gt;Node6 -->
<g id="edge39" class="edge">
<title>Node23&#45;&gt;Node6</title>
<path fill="none" stroke="#63b8ff" d="M770.25,-167.64C821.01,-160.07 911.18,-146.04 998.12,-129.07"/>
<polygon fill="#63b8ff" stroke="#63b8ff" points="999.02,-132.46 1008.16,-127.09 997.67,-125.59 999.02,-132.46"/>
</g>
<!-- Node23&#45;&gt;Node8 -->
<g id="edge41" class="edge">
<title>Node23&#45;&gt;Node8</title>
<path fill="none" stroke="#63b8ff" d="M701.24,-164.98C671.06,-156.05 623.43,-141.94 589.9,-132.02"/>
<polygon fill="#63b8ff" stroke="#63b8ff" points="590.57,-128.57 579.98,-129.08 588.58,-135.28 590.57,-128.57"/>
</g>
<!-- Node23&#45;&gt;Node9 -->
<g id="edge34" class="edge">
<title>Node23&#45;&gt;Node9</title>
<path fill="none" stroke="#63b8ff" d="M725.13,-164.71C718.51,-151.46 708.83,-126.2 721,-110 757.2,-61.79 884.59,-100.47 845,-55 826.27,-33.48 635.24,-18.06 557.57,-12.64"/>
<polygon fill="#63b8ff" stroke="#63b8ff" points="557.61,-9.13 547.39,-11.94 557.13,-16.12 557.61,-9.13"/>
</g>
<!-- Node23&#45;&gt;Node13 -->
<g id="edge38" class="edge">
<title>Node23&#45;&gt;Node13</title>
<path fill="none" stroke="#63b8ff" d="M717.18,-164.97C700.33,-152.68 674.36,-129.33 688,-110 693.53,-102.16 744.78,-85.69 779.91,-75.13"/>
<polygon fill="#63b8ff" stroke="#63b8ff" points="781.2,-78.4 789.79,-72.19 779.2,-71.69 781.2,-78.4"/>
</g>
<!-- Node23&#45;&gt;Node15 -->
<g id="edge37" class="edge">
<title>Node23&#45;&gt;Node15</title>
<path fill="none" stroke="#63b8ff" d="M770.17,-167.35C810.78,-160.22 869.42,-147.09 883,-129 892.47,-116.38 898.09,-81.57 878,-55 859.05,-29.94 824.11,-18.99 797.51,-14.21"/>
<polygon fill="#63b8ff" stroke="#63b8ff" points="797.84,-10.72 787.41,-12.61 796.74,-17.63 797.84,-10.72"/>
</g>
<!-- Node24 -->
<g id="node24" class="node">
<title>Node24</title>
<g id="a_node24"><a xlink:title=" ">
<polygon fill="#e0e0e0" stroke="#999999" points="786,-129 730,-129 730,-110 786,-110 786,-129"/>
<text text-anchor="middle" x="758" y="-117" font-family="Helvetica,sans-Serif" font-size="10.00">sstream</text>
</a>
</g>
</g>
<!-- Node23&#45;&gt;Node24 -->
<g id="edge36" class="edge">
<title>Node23&#45;&gt;Node24</title>
<path fill="none" stroke="#63b8ff" d="M734.62,-164.75C738.46,-157.49 744.02,-146.95 748.76,-137.98"/>
<polygon fill="#63b8ff" stroke="#63b8ff" points="751.89,-139.57 753.46,-129.09 745.7,-136.3 751.89,-139.57"/>
</g>
<!-- Node25 -->
<g id="node25" class="node">
<title>Node25</title>
<g id="a_node25"><a xlink:title=" ">
<polygon fill="#e0e0e0" stroke="#999999" points="873.5,-129 804.5,-129 804.5,-110 873.5,-110 873.5,-129"/>
<text text-anchor="middle" x="839" y="-117" font-family="Helvetica,sans-Serif" font-size="10.00">type_traits</text>
</a>
</g>
</g>
<!-- Node23&#45;&gt;Node25 -->
<g id="edge40" class="edge">
<title>Node23&#45;&gt;Node25</title>
<path fill="none" stroke="#63b8ff" d="M747.51,-164.98C764.97,-156.5 792.01,-143.35 812.17,-133.54"/>
<polygon fill="#63b8ff" stroke="#63b8ff" points="813.71,-136.69 821.17,-129.17 810.64,-130.4 813.71,-136.69"/>
</g>
<!-- Node26&#45;&gt;Node3 -->
<g id="edge44" class="edge">
<title>Node26&#45;&gt;Node3</title>
<path fill="none" stroke="#63b8ff" d="M149.48,-224.64C120.27,-219.76 80.02,-208.75 54,-184 41.54,-172.14 35.17,-153.31 31.99,-139.23"/>
<polygon fill="#63b8ff" stroke="#63b8ff" points="35.39,-138.34 30.07,-129.18 28.51,-139.66 35.39,-138.34"/>
</g>
<!-- Node26&#45;&gt;Node8 -->
<g id="edge45" class="edge">
<title>Node26&#45;&gt;Node8</title>
<path fill="none" stroke="#63b8ff" d="M222.71,-220.25C258.87,-211.91 315.56,-198.25 364,-184 418.57,-167.94 480.95,-146.03 518.09,-132.59"/>
<polygon fill="#63b8ff" stroke="#63b8ff" points="519.67,-135.74 527.87,-129.04 517.28,-129.17 519.67,-135.74"/>
</g>
<!-- Node27 -->
<g id="node27" class="node">
<title>Node27</title>
<g id="a_node27"><a xlink:title=" ">
<polygon fill="#e0e0e0" stroke="#999999" points="211,-184 161,-184 161,-165 211,-165 211,-184"/>
<text text-anchor="middle" x="186" y="-172" font-family="Helvetica,sans-Serif" font-size="10.00">stdio.h</text>
</a>
</g>
</g>
<!-- Node26&#45;&gt;Node27 -->
<g id="edge43" class="edge">
<title>Node26&#45;&gt;Node27</title>
<path fill="none" stroke="#63b8ff" d="M186,-219.75C186,-212.8 186,-202.85 186,-194.13"/>
<polygon fill="#63b8ff" stroke="#63b8ff" points="189.5,-194.09 186,-184.09 182.5,-194.09 189.5,-194.09"/>
</g>
<!-- Node28 -->
<g id="node28" class="node">
<title>Node28</title>
<g id="a_node28"><a xlink:href="../../d7/d50/growvector_8h.html" target="_top" xlink:title=" ">
<polygon fill="white" stroke="#666666" points="143,-184 63,-184 63,-165 143,-165 143,-184"/>
<text text-anchor="middle" x="103" y="-172" font-family="Helvetica,sans-Serif" font-size="10.00">growvector.h</text>
</a>
</g>
</g>
<!-- Node26&#45;&gt;Node28 -->
<g id="edge46" class="edge">
<title>Node26&#45;&gt;Node28</title>
<path fill="none" stroke="#63b8ff" d="M172.66,-219.98C159.91,-211.84 140.45,-199.41 125.33,-189.76"/>
<polygon fill="#63b8ff" stroke="#63b8ff" points="126.89,-186.6 116.58,-184.17 123.12,-192.5 126.89,-186.6"/>
</g>
<!-- Node28&#45;&gt;Node3 -->
<g id="edge48" class="edge">
<title>Node28&#45;&gt;Node3</title>
<path fill="none" stroke="#63b8ff" d="M91.11,-164.98C79.85,-156.92 62.71,-144.65 49.29,-135.03"/>
<polygon fill="#63b8ff" stroke="#63b8ff" points="51.27,-132.15 41.11,-129.17 47.2,-137.84 51.27,-132.15"/>
</g>
<!-- Node28&#45;&gt;Node22 -->
<g id="edge47" class="edge">
<title>Node28&#45;&gt;Node22</title>
<path fill="none" stroke="#63b8ff" d="M113.93,-164.98C124.08,-157.07 139.42,-145.11 151.65,-135.58"/>
<polygon fill="#63b8ff" stroke="#63b8ff" points="154.14,-138.08 159.88,-129.17 149.84,-132.56 154.14,-138.08"/>
</g>
<!-- Node29 -->
<g id="node29" class="node">
<title>Node29</title>
<g id="a_node29"><a xlink:title=" ">
<polygon fill="#e0e0e0" stroke="#999999" points="129.5,-129 76.5,-129 76.5,-110 129.5,-110 129.5,-129"/>
<text text-anchor="middle" x="103" y="-117" font-family="Helvetica,sans-Serif" font-size="10.00">iterator</text>
</a>
</g>
</g>
<!-- Node28&#45;&gt;Node29 -->
<g id="edge49" class="edge">
<title>Node28&#45;&gt;Node29</title>
<path fill="none" stroke="#63b8ff" d="M103,-164.75C103,-157.8 103,-147.85 103,-139.13"/>
<polygon fill="#63b8ff" stroke="#63b8ff" points="106.5,-139.09 103,-129.09 99.5,-139.09 106.5,-139.09"/>
</g>
</g>
</svg>
        <g id="navigator" transform="translate(0 0)" fill="#404254">
                <rect fill="#f2f5e9" fill-opacity="0.5" stroke="#606060" stroke-width=".5" x="0" y="0" width="60" height="60"/>
                <use id="zoomplus" xlink:href="#zoomPlus" x="17" y="9" onmousedown="handleZoom(evt,'in')"/>
                <use id="zoomminus" xlink:href="#zoomMin" x="42" y="9" onmousedown="handleZoom(evt,'out')"/>
                <use id="reset" xlink:href="#resetDef" x="30" y="36" onmousedown="handleReset()"/>
                <g id="arrowUp" xlink:href="#dirArrow" transform="translate(30 24)" onmousedown="handlePan(0,-1)">
                  <use xlink:href="#rim" fill="#404040">
                        <set attributeName="fill" to="#808080" begin="arrowUp.mouseover" end="arrowUp.mouseout"/>
                  </use>
                  <path fill="none" stroke="white" stroke-width="1.5" d="M0,-3.0v7 M-2.5,-0.5L0,-3.0L2.5,-0.5"/>
                </g>
                <g id="arrowRight" xlink:href="#dirArrow" transform="rotate(90) translate(36 -43)" onmousedown="handlePan(1,0)">
                  <use xlink:href="#rim" fill="#404040">
                        <set attributeName="fill" to="#808080" begin="arrowRight.mouseover" end="arrowRight.mouseout"/>
                  </use>
                  <path fill="none" stroke="white" stroke-width="1.5" d="M0,-3.0v7 M-2.5,-0.5L0,-3.0L2.5,-0.5"/>
                </g>
                <g id="arrowDown" xlink:href="#dirArrow" transform="rotate(180) translate(-30 -48)" onmousedown="handlePan(0,1)">
                  <use xlink:href="#rim" fill="#404040">
                        <set attributeName="fill" to="#808080" begin="arrowDown.mouseover" end="arrowDown.mouseout"/>
                  </use>
                  <path fill="none" stroke="white" stroke-width="1.5" d="M0,-3.0v7 M-2.5,-0.5L0,-3.0L2.5,-0.5"/>
                </g>
                <g id="arrowLeft" xlink:href="#dirArrow" transform="rotate(270) translate(-36 17)" onmousedown="handlePan(-1,0)">
                  <use xlink:href="#rim" fill="#404040">
                        <set attributeName="fill" to="#808080" begin="arrowLeft.mouseover" end="arrowLeft.mouseout"/>
                  </use>
                  <path fill="none" stroke="white" stroke-width="1.5" d="M0,-3.0v7 M-2.5,-0.5L0,-3.0L2.5,-0.5"/>
                </g>
        </g>
        <svg viewBox="0 0 15 15" width="100%" height="30px" preserveAspectRatio="xMaxYMin meet">
         <g id="arrow_out" transform="scale(0.3 0.3)">
          <a xlink:href="htmlgen_8h__incl_org.svg" target="_base">
           <rect id="button" ry="5" rx="5" y="6" x="6" height="38" width="38"
                fill="#f2f5e9" fill-opacity="0.5" stroke="#606060" stroke-width="1.0"/>
           <path id="arrow"
             d="M 11.500037,31.436501 C 11.940474,20.09759 22.043105,11.32322 32.158766,21.979434 L 37.068811,17.246167 C 37.068811,17.246167 37.088388,32 37.088388,32 L 22.160133,31.978069 C 22.160133,31.978069 26.997745,27.140456 26.997745,27.140456 C 18.528582,18.264221 13.291696,25.230495 11.500037,31.436501 z"
             style="fill:#404040;"/>
          </a>
         </g>
        </svg>
</svg>
