<?xml version="1.0" encoding="UTF-8" standalone="no"?>
<!DOCTYPE svg PUBLIC "-//W3C//DTD SVG 1.1//EN"
 "http://www.w3.org/Graphics/SVG/1.1/DTD/svg11.dtd">
<!-- Generated by graphviz version 2.43.0 (0)
 -->
<!-- Title: /home/runner/work/doxygen/doxygen/src/constexp.l Pages: 1 -->
<!--zoomable 258 -->
<svg id="main" version="1.1" xmlns="http://www.w3.org/2000/svg" xmlns:xlink="http://www.w3.org/1999/xlink" xml:space="preserve" onload="init(evt)">
<style type="text/css"><![CDATA[
.edge:hover path { stroke: red; }
.edge:hover polygon { stroke: red; fill: red; }
]]></style>
<script type="text/javascript"><![CDATA[
var edges = document.getElementsByTagName('g');
if (edges && edges.length) {
  for (var i=0;i<edges.length;i++) {
    if (edges[i].id.substr(0,4)=='edge') {
      edges[i].setAttribute('class','edge');
    }
  }
}
]]></script>
        <defs>
                <circle id="rim" cx="0" cy="0" r="7"/>
                <circle id="rim2" cx="0" cy="0" r="3.5"/>
                <g id="zoomPlus">
                        <use xlink:href="#rim" fill="#404040">
                                <set attributeName="fill" to="#808080" begin="zoomplus.mouseover" end="zoomplus.mouseout"/>
                        </use>
                        <path d="M-4,0h8M0,-4v8" fill="none" stroke="white" stroke-width="1.5" pointer-events="none"/>
                </g>
                <g id="zoomMin">
                        <use xlink:href="#rim" fill="#404040">
                                <set attributeName="fill" to="#808080" begin="zoomminus.mouseover" end="zoomminus.mouseout"/>
                        </use>
                        <path d="M-4,0h8" fill="none" stroke="white" stroke-width="1.5" pointer-events="none"/>
                </g>
                <g id="dirArrow">
                        <path fill="none" stroke="white" stroke-width="1.5" d="M0,-3.0v7 M-2.5,-0.5L0,-3.0L2.5,-0.5"/>
                </g>
               <g id="resetDef">
                       <use xlink:href="#rim2" fill="#404040">
                               <set attributeName="fill" to="#808080" begin="reset.mouseover" end="reset.mouseout"/>
                       </use>
               </g>
        </defs>

<script type="text/javascript">
var viewWidth = 820;
var viewHeight = 258;
var sectionId = 'dynsection-0';
</script>
<script xlink:href="../../svgpan.js"/>
<svg id="graph" class="graph">
<g id="viewport">
<title>/home/runner/work/doxygen/doxygen/src/constexp.l</title>
<!-- Node1 -->
<g id="node1" class="node">
<title>Node1</title>
<g id="a_node1"><a xlink:title=" ">
<polygon fill="#999999" stroke="#666666" points="367.5,-250 213.5,-250 213.5,-220 367.5,-220 367.5,-250"/>
<text text-anchor="start" x="221.5" y="-238" font-family="Helvetica,sans-Serif" font-size="10.00">/home/runner/work/doxygen</text>
<text text-anchor="middle" x="290.5" y="-227" font-family="Helvetica,sans-Serif" font-size="10.00">/doxygen/src/constexp.l</text>
</a>
</g>
</g>
<!-- Node2 -->
<g id="node2" class="node">
<title>Node2</title>
<g id="a_node2"><a xlink:title=" ">
<polygon fill="#e0e0e0" stroke="#999999" points="53,-184 0,-184 0,-165 53,-165 53,-184"/>
<text text-anchor="middle" x="26.5" y="-172" font-family="Helvetica,sans-Serif" font-size="10.00">stdint.h</text>
</a>
</g>
</g>
<!-- Node1&#45;&gt;Node2 -->
<g id="edge1" class="edge">
<title>Node1&#45;&gt;Node2</title>
<path fill="none" stroke="#63b8ff" d="M224.27,-219.97C180.91,-210.68 122.74,-198.03 63.19,-184.36"/>
<polygon fill="#63b8ff" stroke="#63b8ff" points="63.77,-180.9 53.24,-182.06 62.2,-187.72 63.77,-180.9"/>
</g>
<!-- Node3 -->
<g id="node3" class="node">
<title>Node3</title>
<g id="a_node3"><a xlink:href="../../da/d12/constexp__p_8h.html" target="_top" xlink:title="Private interface between Parser (constexp.y) and Lexer (constexp.l)">
<polygon fill="white" stroke="#666666" points="152,-184 71,-184 71,-165 152,-165 152,-184"/>
<text text-anchor="middle" x="111.5" y="-172" font-family="Helvetica,sans-Serif" font-size="10.00">constexp_p.h</text>
</a>
</g>
</g>
<!-- Node1&#45;&gt;Node3 -->
<g id="edge2" class="edge">
<title>Node1&#45;&gt;Node3</title>
<path fill="none" stroke="#63b8ff" d="M247.63,-219.99C217,-209.98 176.27,-196.67 147.37,-187.22"/>
<polygon fill="#63b8ff" stroke="#63b8ff" points="148.27,-183.83 137.67,-184.05 146.09,-190.49 148.27,-183.83"/>
</g>
<!-- Node5 -->
<g id="node5" class="node">
<title>Node5</title>
<g id="a_node5"><a xlink:href="../../d6/dcc/cppvalue_8h.html" target="_top" xlink:title=" ">
<polygon fill="white" stroke="#666666" points="189.5,-129 119.5,-129 119.5,-110 189.5,-110 189.5,-129"/>
<text text-anchor="middle" x="154.5" y="-117" font-family="Helvetica,sans-Serif" font-size="10.00">cppvalue.h</text>
</a>
</g>
</g>
<!-- Node1&#45;&gt;Node5 -->
<g id="edge10" class="edge">
<title>Node1&#45;&gt;Node5</title>
<path fill="none" stroke="#63b8ff" d="M256.61,-219.9C238.41,-211.27 216.32,-199 199.5,-184 184.73,-170.83 172.13,-151.94 164.06,-138.2"/>
<polygon fill="#63b8ff" stroke="#63b8ff" points="166.97,-136.24 159.01,-129.25 160.87,-139.68 166.97,-136.24"/>
</g>
<!-- Node7 -->
<g id="node7" class="node">
<title>Node7</title>
<g id="a_node7"><a xlink:href="../../d6/dd8/constexp_8h.html" target="_top" xlink:title=" ">
<polygon fill="white" stroke="#666666" points="278.5,-184 208.5,-184 208.5,-165 278.5,-165 278.5,-184"/>
<text text-anchor="middle" x="243.5" y="-172" font-family="Helvetica,sans-Serif" font-size="10.00">constexp.h</text>
</a>
</g>
</g>
<!-- Node1&#45;&gt;Node7 -->
<g id="edge7" class="edge">
<title>Node1&#45;&gt;Node7</title>
<path fill="none" stroke="#63b8ff" d="M279.12,-219.84C272.44,-211.52 263.95,-200.96 256.94,-192.23"/>
<polygon fill="#63b8ff" stroke="#63b8ff" points="259.53,-189.87 250.54,-184.27 254.08,-194.25 259.53,-189.87"/>
</g>
<!-- Node9 -->
<g id="node9" class="node">
<title>Node9</title>
<g id="a_node9"><a xlink:title=" ">
<polygon fill="#e0e0e0" stroke="#999999" points="378,-184 297,-184 297,-165 378,-165 378,-184"/>
<text text-anchor="middle" x="337.5" y="-172" font-family="Helvetica,sans-Serif" font-size="10.00">ce_parse.hpp</text>
</a>
</g>
</g>
<!-- Node1&#45;&gt;Node9 -->
<g id="edge11" class="edge">
<title>Node1&#45;&gt;Node9</title>
<path fill="none" stroke="#63b8ff" d="M301.88,-219.84C308.56,-211.52 317.05,-200.96 324.06,-192.23"/>
<polygon fill="#63b8ff" stroke="#63b8ff" points="326.92,-194.25 330.46,-184.27 321.47,-189.87 326.92,-194.25"/>
</g>
<!-- Node10 -->
<g id="node10" class="node">
<title>Node10</title>
<g id="a_node10"><a xlink:href="../../d2/d0d/message_8h.html" target="_top" xlink:title=" ">
<polygon fill="white" stroke="#666666" points="466.5,-184 396.5,-184 396.5,-165 466.5,-165 466.5,-184"/>
<text text-anchor="middle" x="431.5" y="-172" font-family="Helvetica,sans-Serif" font-size="10.00">message.h</text>
</a>
</g>
</g>
<!-- Node1&#45;&gt;Node10 -->
<g id="edge12" class="edge">
<title>Node1&#45;&gt;Node10</title>
<path fill="none" stroke="#63b8ff" d="M324.27,-219.99C347.69,-210.27 378.62,-197.44 401.23,-188.06"/>
<polygon fill="#63b8ff" stroke="#63b8ff" points="402.78,-191.2 410.68,-184.14 400.1,-184.74 402.78,-191.2"/>
</g>
<!-- Node20 -->
<g id="node20" class="node">
<title>Node20</title>
<g id="a_node20"><a xlink:href="../../db/d16/debug_8h.html" target="_top" xlink:title=" ">
<polygon fill="white" stroke="#666666" points="540.5,-184 484.5,-184 484.5,-165 540.5,-165 540.5,-184"/>
<text text-anchor="middle" x="512.5" y="-172" font-family="Helvetica,sans-Serif" font-size="10.00">debug.h</text>
</a>
</g>
</g>
<!-- Node1&#45;&gt;Node20 -->
<g id="edge26" class="edge">
<title>Node1&#45;&gt;Node20</title>
<path fill="none" stroke="#63b8ff" d="M343.67,-219.99C383.95,-209.37 438.33,-195.05 474.36,-185.55"/>
<polygon fill="#63b8ff" stroke="#63b8ff" points="475.68,-188.82 484.46,-182.89 473.9,-182.05 475.68,-188.82"/>
</g>
<!-- Node21 -->
<g id="node21" class="node">
<title>Node21</title>
<g id="a_node21"><a xlink:href="../../d6/da5/doxygen__lex_8h.html" target="_top" xlink:title=" ">
<polygon fill="white" stroke="#666666" points="646.5,-184 558.5,-184 558.5,-165 646.5,-165 646.5,-184"/>
<text text-anchor="middle" x="602.5" y="-172" font-family="Helvetica,sans-Serif" font-size="10.00">doxygen_lex.h</text>
</a>
</g>
</g>
<!-- Node1&#45;&gt;Node21 -->
<g id="edge29" class="edge">
<title>Node1&#45;&gt;Node21</title>
<path fill="none" stroke="#63b8ff" d="M365.23,-219.99C421.56,-209.43 497.51,-195.19 548.15,-185.69"/>
<polygon fill="#63b8ff" stroke="#63b8ff" points="549.06,-189.08 558.24,-183.8 547.77,-182.2 549.06,-189.08"/>
</g>
<!-- Node4 -->
<g id="node4" class="node">
<title>Node4</title>
<g id="a_node4"><a xlink:title=" ">
<polygon fill="#e0e0e0" stroke="#999999" points="308.5,-19 264.5,-19 264.5,0 308.5,0 308.5,-19"/>
<text text-anchor="middle" x="286.5" y="-7" font-family="Helvetica,sans-Serif" font-size="10.00">string</text>
</a>
</g>
</g>
<!-- Node3&#45;&gt;Node4 -->
<g id="edge3" class="edge">
<title>Node3&#45;&gt;Node4</title>
<path fill="none" stroke="#63b8ff" d="M109.12,-164.81C106.12,-152.12 102.29,-128.07 110.5,-110 136.31,-53.2 211.13,-27.31 254.46,-16.79"/>
<polygon fill="#63b8ff" stroke="#63b8ff" points="255.26,-20.19 264.23,-14.54 253.7,-13.37 255.26,-20.19"/>
</g>
<!-- Node3&#45;&gt;Node5 -->
<g id="edge4" class="edge">
<title>Node3&#45;&gt;Node5</title>
<path fill="none" stroke="#63b8ff" d="M118.6,-164.75C124.67,-157.26 133.59,-146.28 141.01,-137.13"/>
<polygon fill="#63b8ff" stroke="#63b8ff" points="143.95,-139.06 147.53,-129.09 138.51,-134.65 143.95,-139.06"/>
</g>
<!-- Node5&#45;&gt;Node4 -->
<g id="edge6" class="edge">
<title>Node5&#45;&gt;Node4</title>
<path fill="none" stroke="#63b8ff" d="M157.85,-109.59C163.28,-96.18 175.18,-70.71 192.5,-55 210.35,-38.81 235.13,-27.41 254.77,-20.2"/>
<polygon fill="#63b8ff" stroke="#63b8ff" points="255.93,-23.5 264.22,-16.9 253.63,-16.89 255.93,-23.5"/>
</g>
<!-- Node6 -->
<g id="node6" class="node">
<title>Node6</title>
<g id="a_node6"><a xlink:title=" ">
<polygon fill="#e0e0e0" stroke="#999999" points="247.5,-74 201.5,-74 201.5,-55 247.5,-55 247.5,-74"/>
<text text-anchor="middle" x="224.5" y="-62" font-family="Helvetica,sans-Serif" font-size="10.00">cstdio</text>
</a>
</g>
</g>
<!-- Node5&#45;&gt;Node6 -->
<g id="edge5" class="edge">
<title>Node5&#45;&gt;Node6</title>
<path fill="none" stroke="#63b8ff" d="M165.75,-109.98C176.3,-102 192.3,-89.88 204.94,-80.31"/>
<polygon fill="#63b8ff" stroke="#63b8ff" points="207.19,-83 213.05,-74.17 202.96,-77.42 207.19,-83"/>
</g>
<!-- Node7&#45;&gt;Node4 -->
<g id="edge8" class="edge">
<title>Node7&#45;&gt;Node4</title>
<path fill="none" stroke="#63b8ff" d="M251.66,-164.74C259,-156.29 269.4,-142.77 274.5,-129 286.9,-95.51 288.03,-53.26 287.45,-29.32"/>
<polygon fill="#63b8ff" stroke="#63b8ff" points="290.95,-29.02 287.08,-19.16 283.95,-29.29 290.95,-29.02"/>
</g>
<!-- Node8 -->
<g id="node8" class="node">
<title>Node8</title>
<g id="a_node8"><a xlink:title=" ">
<polygon fill="#e0e0e0" stroke="#999999" points="265.5,-129 207.5,-129 207.5,-110 265.5,-110 265.5,-129"/>
<text text-anchor="middle" x="236.5" y="-117" font-family="Helvetica,sans-Serif" font-size="10.00">memory</text>
</a>
</g>
</g>
<!-- Node7&#45;&gt;Node8 -->
<g id="edge9" class="edge">
<title>Node7&#45;&gt;Node8</title>
<path fill="none" stroke="#63b8ff" d="M242.34,-164.75C241.43,-157.8 240.11,-147.85 238.96,-139.13"/>
<polygon fill="#63b8ff" stroke="#63b8ff" points="242.41,-138.54 237.63,-129.09 235.47,-139.46 242.41,-138.54"/>
</g>
<!-- Node11 -->
<g id="node11" class="node">
<title>Node11</title>
<g id="a_node11"><a xlink:title=" ">
<polygon fill="#e0e0e0" stroke="#999999" points="458,-129 405,-129 405,-110 458,-110 458,-129"/>
<text text-anchor="middle" x="431.5" y="-117" font-family="Helvetica,sans-Serif" font-size="10.00">cstdarg</text>
</a>
</g>
</g>
<!-- Node10&#45;&gt;Node11 -->
<g id="edge13" class="edge">
<title>Node10&#45;&gt;Node11</title>
<path fill="none" stroke="#63b8ff" d="M431.5,-164.75C431.5,-157.8 431.5,-147.85 431.5,-139.13"/>
<polygon fill="#63b8ff" stroke="#63b8ff" points="435,-139.09 431.5,-129.09 428,-139.09 435,-139.09"/>
</g>
<!-- Node12 -->
<g id="node12" class="node">
<title>Node12</title>
<g id="a_node12"><a xlink:href="../../d7/d5c/qcstring_8h.html" target="_top" xlink:title=" ">
<polygon fill="white" stroke="#666666" points="543,-129 478,-129 478,-110 543,-110 543,-129"/>
<text text-anchor="middle" x="510.5" y="-117" font-family="Helvetica,sans-Serif" font-size="10.00">qcstring.h</text>
</a>
</g>
</g>
<!-- Node10&#45;&gt;Node12 -->
<g id="edge14" class="edge">
<title>Node10&#45;&gt;Node12</title>
<path fill="none" stroke="#63b8ff" d="M444.19,-164.98C456.33,-156.84 474.86,-144.41 489.25,-134.76"/>
<polygon fill="#63b8ff" stroke="#63b8ff" points="491.22,-137.65 497.58,-129.17 487.32,-131.84 491.22,-137.65"/>
</g>
<!-- Node12&#45;&gt;Node4 -->
<g id="edge15" class="edge">
<title>Node12&#45;&gt;Node4</title>
<path fill="none" stroke="#63b8ff" d="M477.65,-112.07C435.7,-103.48 365.88,-87.72 343.5,-74 324.44,-62.32 308.04,-42.33 297.79,-27.9"/>
<polygon fill="#63b8ff" stroke="#63b8ff" points="300.5,-25.66 291.98,-19.36 294.71,-29.6 300.5,-25.66"/>
</g>
<!-- Node12&#45;&gt;Node6 -->
<g id="edge19" class="edge">
<title>Node12&#45;&gt;Node6</title>
<path fill="none" stroke="#63b8ff" d="M477.64,-111.96C474.22,-111.29 470.79,-110.63 467.5,-110 392.49,-95.72 304.28,-79.78 257.52,-71.39"/>
<polygon fill="#63b8ff" stroke="#63b8ff" points="258.1,-67.94 247.64,-69.63 256.87,-74.83 258.1,-67.94"/>
</g>
<!-- Node13 -->
<g id="node13" class="node">
<title>Node13</title>
<g id="a_node13"><a xlink:title=" ">
<polygon fill="#e0e0e0" stroke="#999999" points="690.5,-74 626.5,-74 626.5,-55 690.5,-55 690.5,-74"/>
<text text-anchor="middle" x="658.5" y="-62" font-family="Helvetica,sans-Serif" font-size="10.00">algorithm</text>
</a>
</g>
</g>
<!-- Node12&#45;&gt;Node13 -->
<g id="edge16" class="edge">
<title>Node12&#45;&gt;Node13</title>
<path fill="none" stroke="#63b8ff" d="M534.28,-109.98C558.73,-101.23 597.03,-87.51 624.65,-77.62"/>
<polygon fill="#63b8ff" stroke="#63b8ff" points="626.05,-80.84 634.29,-74.17 623.69,-74.25 626.05,-80.84"/>
</g>
<!-- Node14 -->
<g id="node14" class="node">
<title>Node14</title>
<g id="a_node14"><a xlink:title=" ">
<polygon fill="#e0e0e0" stroke="#999999" points="758,-74 709,-74 709,-55 758,-55 758,-74"/>
<text text-anchor="middle" x="733.5" y="-62" font-family="Helvetica,sans-Serif" font-size="10.00">cctype</text>
</a>
</g>
</g>
<!-- Node12&#45;&gt;Node14 -->
<g id="edge17" class="edge">
<title>Node12&#45;&gt;Node14</title>
<path fill="none" stroke="#63b8ff" d="M543.31,-110.92C579.12,-102.61 638.38,-88.77 699.22,-74.04"/>
<polygon fill="#63b8ff" stroke="#63b8ff" points="700.1,-77.43 709,-71.67 698.45,-70.63 700.1,-77.43"/>
</g>
<!-- Node15 -->
<g id="node15" class="node">
<title>Node15</title>
<g id="a_node15"><a xlink:title=" ">
<polygon fill="#e0e0e0" stroke="#999999" points="402.5,-74 352.5,-74 352.5,-55 402.5,-55 402.5,-74"/>
<text text-anchor="middle" x="377.5" y="-62" font-family="Helvetica,sans-Serif" font-size="10.00">cstring</text>
</a>
</g>
</g>
<!-- Node12&#45;&gt;Node15 -->
<g id="edge18" class="edge">
<title>Node12&#45;&gt;Node15</title>
<path fill="none" stroke="#63b8ff" d="M489.13,-109.98C467.35,-101.3 433.34,-87.75 408.58,-77.88"/>
<polygon fill="#63b8ff" stroke="#63b8ff" points="409.84,-74.62 399.26,-74.17 407.25,-81.12 409.84,-74.62"/>
</g>
<!-- Node16 -->
<g id="node16" class="node">
<title>Node16</title>
<g id="a_node16"><a xlink:title=" ">
<polygon fill="#e0e0e0" stroke="#999999" points="470,-74 421,-74 421,-55 470,-55 470,-74"/>
<text text-anchor="middle" x="445.5" y="-62" font-family="Helvetica,sans-Serif" font-size="10.00">cstdlib</text>
</a>
</g>
</g>
<!-- Node12&#45;&gt;Node16 -->
<g id="edge20" class="edge">
<title>Node12&#45;&gt;Node16</title>
<path fill="none" stroke="#63b8ff" d="M500.06,-109.98C490.35,-102.07 475.68,-90.11 464,-80.58"/>
<polygon fill="#63b8ff" stroke="#63b8ff" points="466.1,-77.78 456.13,-74.17 461.67,-83.2 466.1,-77.78"/>
</g>
<!-- Node17 -->
<g id="node17" class="node">
<title>Node17</title>
<g id="a_node17"><a xlink:title=" ">
<polygon fill="#e0e0e0" stroke="#999999" points="811.5,-19 761.5,-19 761.5,0 811.5,0 811.5,-19"/>
<text text-anchor="middle" x="786.5" y="-7" font-family="Helvetica,sans-Serif" font-size="10.00">cstdint</text>
</a>
</g>
</g>
<!-- Node12&#45;&gt;Node17 -->
<g id="edge21" class="edge">
<title>Node12&#45;&gt;Node17</title>
<path fill="none" stroke="#63b8ff" d="M543.12,-117.04C604.67,-113.62 734.73,-103.08 767.5,-74 780,-62.91 784.43,-43.98 785.93,-29.66"/>
<polygon fill="#63b8ff" stroke="#63b8ff" points="789.44,-29.62 786.59,-19.41 782.45,-29.16 789.44,-29.62"/>
</g>
<!-- Node18 -->
<g id="node18" class="node">
<title>Node18</title>
<g id="a_node18"><a xlink:title=" ">
<polygon fill="#e0e0e0" stroke="#999999" points="608,-74 551,-74 551,-55 608,-55 608,-74"/>
<text text-anchor="middle" x="579.5" y="-62" font-family="Helvetica,sans-Serif" font-size="10.00">ostream</text>
</a>
</g>
</g>
<!-- Node12&#45;&gt;Node18 -->
<g id="edge22" class="edge">
<title>Node12&#45;&gt;Node18</title>
<path fill="none" stroke="#63b8ff" d="M521.59,-109.98C531.99,-102 547.76,-89.88 560.22,-80.31"/>
<polygon fill="#63b8ff" stroke="#63b8ff" points="562.41,-83.04 568.21,-74.17 558.15,-77.49 562.41,-83.04"/>
</g>
<!-- Node19 -->
<g id="node19" class="node">
<title>Node19</title>
<g id="a_node19"><a xlink:href="../../db/d7c/utf8_8h.html" target="_top" xlink:title="Various UTF8 related helper functions.">
<polygon fill="white" stroke="#666666" points="533,-74 488,-74 488,-55 533,-55 533,-74"/>
<text text-anchor="middle" x="510.5" y="-62" font-family="Helvetica,sans-Serif" font-size="10.00">utf8.h</text>
</a>
</g>
</g>
<!-- Node12&#45;&gt;Node19 -->
<g id="edge23" class="edge">
<title>Node12&#45;&gt;Node19</title>
<path fill="none" stroke="#63b8ff" d="M510.5,-109.75C510.5,-102.8 510.5,-92.85 510.5,-84.13"/>
<polygon fill="#63b8ff" stroke="#63b8ff" points="514,-84.09 510.5,-74.09 507,-84.09 514,-84.09"/>
</g>
<!-- Node19&#45;&gt;Node4 -->
<g id="edge25" class="edge">
<title>Node19&#45;&gt;Node4</title>
<path fill="none" stroke="#63b8ff" d="M487.84,-57.17C485.04,-56.42 482.21,-55.68 479.5,-55 423.12,-40.78 357.01,-25.93 318.63,-17.48"/>
<polygon fill="#63b8ff" stroke="#63b8ff" points="319.09,-14 308.57,-15.28 317.59,-20.84 319.09,-14"/>
</g>
<!-- Node19&#45;&gt;Node17 -->
<g id="edge24" class="edge">
<title>Node19&#45;&gt;Node17</title>
<path fill="none" stroke="#63b8ff" d="M533.17,-57.24C536.3,-56.45 539.47,-55.68 542.5,-55 616.34,-38.49 703.76,-23.68 751.34,-16.01"/>
<polygon fill="#63b8ff" stroke="#63b8ff" points="752.11,-19.44 761.43,-14.4 751,-12.52 752.11,-19.44"/>
</g>
<!-- Node20&#45;&gt;Node12 -->
<g id="edge28" class="edge">
<title>Node20&#45;&gt;Node12</title>
<path fill="none" stroke="#63b8ff" d="M512.17,-164.75C511.91,-157.8 511.53,-147.85 511.2,-139.13"/>
<polygon fill="#63b8ff" stroke="#63b8ff" points="514.7,-138.95 510.82,-129.09 507.7,-139.21 514.7,-138.95"/>
</g>
<!-- Node20&#45;&gt;Node17 -->
<g id="edge27" class="edge">
<title>Node20&#45;&gt;Node17</title>
<path fill="none" stroke="#63b8ff" d="M540.58,-165.33C607.64,-145.55 772.66,-95.14 787.5,-74 796.59,-61.04 795.17,-42.64 792.17,-28.98"/>
<polygon fill="#63b8ff" stroke="#63b8ff" points="795.53,-28.01 789.59,-19.23 788.76,-29.79 795.53,-28.01"/>
</g>
</g>
</svg>
        <g id="navigator" transform="translate(0 0)" fill="#404254">
                <rect fill="#f2f5e9" fill-opacity="0.5" stroke="#606060" stroke-width=".5" x="0" y="0" width="60" height="60"/>
                <use id="zoomplus" xlink:href="#zoomPlus" x="17" y="9" onmousedown="handleZoom(evt,'in')"/>
                <use id="zoomminus" xlink:href="#zoomMin" x="42" y="9" onmousedown="handleZoom(evt,'out')"/>
                <use id="reset" xlink:href="#resetDef" x="30" y="36" onmousedown="handleReset()"/>
                <g id="arrowUp" xlink:href="#dirArrow" transform="translate(30 24)" onmousedown="handlePan(0,-1)">
                  <use xlink:href="#rim" fill="#404040">
                        <set attributeName="fill" to="#808080" begin="arrowUp.mouseover" end="arrowUp.mouseout"/>
                  </use>
                  <path fill="none" stroke="white" stroke-width="1.5" d="M0,-3.0v7 M-2.5,-0.5L0,-3.0L2.5,-0.5"/>
                </g>
                <g id="arrowRight" xlink:href="#dirArrow" transform="rotate(90) translate(36 -43)" onmousedown="handlePan(1,0)">
                  <use xlink:href="#rim" fill="#404040">
                        <set attributeName="fill" to="#808080" begin="arrowRight.mouseover" end="arrowRight.mouseout"/>
                  </use>
                  <path fill="none" stroke="white" stroke-width="1.5" d="M0,-3.0v7 M-2.5,-0.5L0,-3.0L2.5,-0.5"/>
                </g>
                <g id="arrowDown" xlink:href="#dirArrow" transform="rotate(180) translate(-30 -48)" onmousedown="handlePan(0,1)">
                  <use xlink:href="#rim" fill="#404040">
                        <set attributeName="fill" to="#808080" begin="arrowDown.mouseover" end="arrowDown.mouseout"/>
                  </use>
                  <path fill="none" stroke="white" stroke-width="1.5" d="M0,-3.0v7 M-2.5,-0.5L0,-3.0L2.5,-0.5"/>
                </g>
                <g id="arrowLeft" xlink:href="#dirArrow" transform="rotate(270) translate(-36 17)" onmousedown="handlePan(-1,0)">
                  <use xlink:href="#rim" fill="#404040">
                        <set attributeName="fill" to="#808080" begin="arrowLeft.mouseover" end="arrowLeft.mouseout"/>
                  </use>
                  <path fill="none" stroke="white" stroke-width="1.5" d="M0,-3.0v7 M-2.5,-0.5L0,-3.0L2.5,-0.5"/>
                </g>
        </g>
        <svg viewBox="0 0 15 15" width="100%" height="30px" preserveAspectRatio="xMaxYMin meet">
         <g id="arrow_out" transform="scale(0.3 0.3)">
          <a xlink:href="constexp_8l__incl_org.svg" target="_base">
           <rect id="button" ry="5" rx="5" y="6" x="6" height="38" width="38"
                fill="#f2f5e9" fill-opacity="0.5" stroke="#606060" stroke-width="1.0"/>
           <path id="arrow"
             d="M 11.500037,31.436501 C 11.940474,20.09759 22.043105,11.32322 32.158766,21.979434 L 37.068811,17.246167 C 37.068811,17.246167 37.088388,32 37.088388,32 L 22.160133,31.978069 C 22.160133,31.978069 26.997745,27.140456 26.997745,27.140456 C 18.528582,18.264221 13.291696,25.230495 11.500037,31.436501 z"
             style="fill:#404040;"/>
          </a>
         </g>
        </svg>
</svg>
