<?xml version="1.0" encoding="UTF-8" standalone="no"?>
<!DOCTYPE svg PUBLIC "-//W3C//DTD SVG 1.1//EN"
 "http://www.w3.org/Graphics/SVG/1.1/DTD/svg11.dtd">
<!-- Generated by graphviz version 2.43.0 (0)
 -->
<!-- Title: PythonCodeParser::Private Pages: 1 -->
<!--zoomable 428 -->
<svg id="main" version="1.1" xmlns="http://www.w3.org/2000/svg" xmlns:xlink="http://www.w3.org/1999/xlink" xml:space="preserve" onload="init(evt)">
<style type="text/css"><![CDATA[
.edge:hover path { stroke: red; }
.edge:hover polygon { stroke: red; fill: red; }
]]></style>
<script type="text/javascript"><![CDATA[
var edges = document.getElementsByTagName('g');
if (edges && edges.length) {
  for (var i=0;i<edges.length;i++) {
    if (edges[i].id.substr(0,4)=='edge') {
      edges[i].setAttribute('class','edge');
    }
  }
}
]]></script>
        <defs>
                <circle id="rim" cx="0" cy="0" r="7"/>
                <circle id="rim2" cx="0" cy="0" r="3.5"/>
                <g id="zoomPlus">
                        <use xlink:href="#rim" fill="#404040">
                                <set attributeName="fill" to="#808080" begin="zoomplus.mouseover" end="zoomplus.mouseout"/>
                        </use>
                        <path d="M-4,0h8M0,-4v8" fill="none" stroke="white" stroke-width="1.5" pointer-events="none"/>
                </g>
                <g id="zoomMin">
                        <use xlink:href="#rim" fill="#404040">
                                <set attributeName="fill" to="#808080" begin="zoomminus.mouseover" end="zoomminus.mouseout"/>
                        </use>
                        <path d="M-4,0h8" fill="none" stroke="white" stroke-width="1.5" pointer-events="none"/>
                </g>
                <g id="dirArrow">
                        <path fill="none" stroke="white" stroke-width="1.5" d="M0,-3.0v7 M-2.5,-0.5L0,-3.0L2.5,-0.5"/>
                </g>
               <g id="resetDef">
                       <use xlink:href="#rim2" fill="#404040">
                               <set attributeName="fill" to="#808080" begin="reset.mouseover" end="reset.mouseout"/>
                       </use>
               </g>
        </defs>

<script type="text/javascript">
var viewWidth = 681;
var viewHeight = 428;
var sectionId = 'dynsection-0';
</script>
<script xlink:href="../../svgpan.js"/>
<svg id="graph" class="graph">
<g id="viewport">
<title>PythonCodeParser::Private</title>
<!-- Node1 -->
<g id="node1" class="node">
<title>Node1</title>
<g id="a_node1"><a xlink:title=" ">
<polygon fill="#999999" stroke="#666666" points="673,-167 527,-167 527,-148 673,-148 673,-167"/>
<text text-anchor="middle" x="600" y="-155" font-family="Helvetica,sans-Serif" font-size="10.00">PythonCodeParser::Private</text>
</a>
</g>
</g>
<!-- Node2 -->
<g id="node2" class="node">
<title>Node2</title>
<g id="a_node2"><a xlink:href="../../d4/d4f/structpycode_y_y__state.html" target="_top" xlink:title=" ">
<polygon fill="white" stroke="#666666" points="463,-167 369,-167 369,-148 463,-148 463,-167"/>
<text text-anchor="middle" x="416" y="-155" font-family="Helvetica,sans-Serif" font-size="10.00">pycodeYY_state</text>
</a>
</g>
</g>
<!-- Node2&#45;&gt;Node1 -->
<g id="edge1" class="edge">
<title>Node2&#45;&gt;Node1</title>
<path fill="none" stroke="#9a32cd" stroke-dasharray="5,2" d="M473.62,-157.5C490.47,-157.5 509.16,-157.5 526.86,-157.5"/>
<polygon fill="#9a32cd" stroke="#9a32cd" points="473.4,-154 463.4,-157.5 473.4,-161 473.4,-154"/>
<text text-anchor="middle" x="495" y="-160.5" font-family="Helvetica,sans-Serif" font-size="10.00" fill="grey"> state</text>
</g>
<!-- Node3 -->
<g id="node3" class="node">
<title>Node3</title>
<g id="a_node3"><a xlink:href="../../d9/d45/class_q_c_string.html" target="_top" xlink:title="This is an alternative implementation of QCString.">
<polygon fill="white" stroke="#666666" points="218.5,-337 159.5,-337 159.5,-318 218.5,-318 218.5,-337"/>
<text text-anchor="middle" x="189" y="-325" font-family="Helvetica,sans-Serif" font-size="10.00">QCString</text>
</a>
</g>
</g>
<!-- Node3&#45;&gt;Node2 -->
<g id="edge2" class="edge">
<title>Node3&#45;&gt;Node2</title>
<path fill="none" stroke="#9a32cd" stroke-dasharray="5,2" d="M229.17,-331.97C264.53,-333.86 316.19,-331.02 351,-304.5 397.05,-269.41 410.52,-194.3 413.95,-167.37"/>
<polygon fill="#9a32cd" stroke="#9a32cd" points="228.98,-328.45 218.76,-331.25 228.5,-335.43 228.98,-328.45"/>
<text text-anchor="middle" x="303" y="-411.5" font-family="Helvetica,sans-Serif" font-size="10.00" fill="grey"> classScope</text>
<text text-anchor="middle" x="303" y="-400.5" font-family="Helvetica,sans-Serif" font-size="10.00" fill="grey">curClassName</text>
<text text-anchor="middle" x="303" y="-389.5" font-family="Helvetica,sans-Serif" font-size="10.00" fill="grey">docBlock</text>
<text text-anchor="middle" x="303" y="-378.5" font-family="Helvetica,sans-Serif" font-size="10.00" fill="grey">exampleName</text>
<text text-anchor="middle" x="303" y="-367.5" font-family="Helvetica,sans-Serif" font-size="10.00" fill="grey">fileName</text>
<text text-anchor="middle" x="303" y="-356.5" font-family="Helvetica,sans-Serif" font-size="10.00" fill="grey">name</text>
<text text-anchor="middle" x="303" y="-345.5" font-family="Helvetica,sans-Serif" font-size="10.00" fill="grey">realScope</text>
<text text-anchor="middle" x="303" y="-334.5" font-family="Helvetica,sans-Serif" font-size="10.00" fill="grey">type</text>
</g>
<!-- Node4 -->
<g id="node4" class="node">
<title>Node4</title>
<g id="a_node4"><a xlink:href="../../db/d8e/class_output_code_list.html" target="_top" xlink:title="Class representing a list of different code generators.">
<polygon fill="white" stroke="#666666" points="235,-300 143,-300 143,-281 235,-281 235,-300"/>
<text text-anchor="middle" x="189" y="-288" font-family="Helvetica,sans-Serif" font-size="10.00">OutputCodeList</text>
</a>
</g>
</g>
<!-- Node4&#45;&gt;Node2 -->
<g id="edge3" class="edge">
<title>Node4&#45;&gt;Node2</title>
<path fill="none" stroke="#9a32cd" stroke-dasharray="5,2" d="M245.02,-291.1C278.27,-288.98 320.05,-281.65 351,-260.5 385.59,-236.86 405.08,-187.73 412.04,-167.03"/>
<polygon fill="#9a32cd" stroke="#9a32cd" points="244.82,-287.61 235,-291.6 245.17,-294.6 244.82,-287.61"/>
<text text-anchor="middle" x="303" y="-292.5" font-family="Helvetica,sans-Serif" font-size="10.00" fill="grey"> code</text>
</g>
<!-- Node5 -->
<g id="node5" class="node">
<title>Node5</title>
<g id="a_node5"><a xlink:href="../../d5/dcc/class_definition.html" target="_top" xlink:title="The common base class of all entity definitions found in the sources.">
<polygon fill="white" stroke="#666666" points="84,-213 20,-213 20,-194 84,-194 84,-213"/>
<text text-anchor="middle" x="52" y="-201" font-family="Helvetica,sans-Serif" font-size="10.00">Definition</text>
</a>
</g>
</g>
<!-- Node5&#45;&gt;Node2 -->
<g id="edge4" class="edge">
<title>Node5&#45;&gt;Node2</title>
<path fill="none" stroke="#9a32cd" stroke-dasharray="5,2" d="M94.24,-200.87C151.96,-196.81 259.98,-187.84 351,-172.5 359.78,-171.02 369.15,-169.05 377.93,-167.03"/>
<polygon fill="#9a32cd" stroke="#9a32cd" points="93.8,-197.39 84.06,-201.57 94.28,-204.37 93.8,-197.39"/>
<text text-anchor="middle" x="189" y="-210.5" font-family="Helvetica,sans-Serif" font-size="10.00" fill="grey"> currentDefinition</text>
<text text-anchor="middle" x="189" y="-199.5" font-family="Helvetica,sans-Serif" font-size="10.00" fill="grey">searchCtx</text>
</g>
<!-- Node6 -->
<g id="node6" class="node">
<title>Node6</title>
<g id="a_node6"><a xlink:href="../../de/db0/class_file_def.html" target="_top" xlink:title="A model of a file symbol.">
<polygon fill="white" stroke="#666666" points="214.5,-167 163.5,-167 163.5,-148 214.5,-148 214.5,-167"/>
<text text-anchor="middle" x="189" y="-155" font-family="Helvetica,sans-Serif" font-size="10.00">FileDef</text>
</a>
</g>
</g>
<!-- Node5&#45;&gt;Node6 -->
<g id="edge7" class="edge">
<title>Node5&#45;&gt;Node6</title>
<path fill="none" stroke="#63b8ff" d="M90.52,-190.72C113.73,-182.81 142.89,-172.87 163.24,-165.94"/>
<polygon fill="#63b8ff" stroke="#63b8ff" points="89.31,-187.43 80.97,-193.97 91.57,-194.06 89.31,-187.43"/>
</g>
<!-- Node8 -->
<g id="node8" class="node">
<title>Node8</title>
<g id="a_node8"><a xlink:href="../../da/d09/class_member_def.html" target="_top" xlink:title="A model of a class/file/namespace member symbol.">
<polygon fill="white" stroke="#666666" points="226,-263 152,-263 152,-244 226,-244 226,-263"/>
<text text-anchor="middle" x="189" y="-251" font-family="Helvetica,sans-Serif" font-size="10.00">MemberDef</text>
</a>
</g>
</g>
<!-- Node5&#45;&gt;Node8 -->
<g id="edge9" class="edge">
<title>Node5&#45;&gt;Node8</title>
<path fill="none" stroke="#63b8ff" d="M88.16,-216.52C111.24,-225.07 140.94,-236.07 161.93,-243.84"/>
<polygon fill="#63b8ff" stroke="#63b8ff" points="89.3,-213.21 78.71,-213.02 86.87,-219.78 89.3,-213.21"/>
</g>
<!-- Node6&#45;&gt;Node2 -->
<g id="edge5" class="edge">
<title>Node6&#45;&gt;Node2</title>
<path fill="none" stroke="#9a32cd" stroke-dasharray="5,2" d="M224.73,-157.5C263.35,-157.5 325.92,-157.5 368.68,-157.5"/>
<polygon fill="#9a32cd" stroke="#9a32cd" points="224.51,-154 214.51,-157.5 224.51,-161 224.51,-154"/>
<text text-anchor="middle" x="303" y="-160.5" font-family="Helvetica,sans-Serif" font-size="10.00" fill="grey"> sourceFileDef</text>
</g>
<!-- Node7 -->
<g id="node7" class="node">
<title>Node7</title>
<g id="a_node7"><a xlink:href="../../d0/d46/class_definition_mutable.html" target="_top" xlink:title=" ">
<polygon fill="white" stroke="#666666" points="104,-163 0,-163 0,-144 104,-144 104,-163"/>
<text text-anchor="middle" x="52" y="-151" font-family="Helvetica,sans-Serif" font-size="10.00">DefinitionMutable</text>
</a>
</g>
</g>
<!-- Node7&#45;&gt;Node6 -->
<g id="edge6" class="edge">
<title>Node7&#45;&gt;Node6</title>
<path fill="none" stroke="#63b8ff" d="M114.17,-155.31C131.55,-155.83 149.49,-156.36 163.34,-156.77"/>
<polygon fill="#63b8ff" stroke="#63b8ff" points="114.14,-151.81 104.04,-155.01 113.93,-158.81 114.14,-151.81"/>
</g>
<!-- Node8&#45;&gt;Node2 -->
<g id="edge8" class="edge">
<title>Node8&#45;&gt;Node2</title>
<path fill="none" stroke="#9a32cd" stroke-dasharray="5,2" d="M236.08,-249.74C269.56,-245.49 315.09,-236.49 351,-217.5 374.96,-204.82 396.54,-180.77 407.47,-167.29"/>
<polygon fill="#9a32cd" stroke="#9a32cd" points="235.63,-246.27 226.1,-250.91 236.44,-253.22 235.63,-246.27"/>
<text text-anchor="middle" x="303" y="-248.5" font-family="Helvetica,sans-Serif" font-size="10.00" fill="grey"> currentMemberDef</text>
</g>
<!-- Node9 -->
<g id="node9" class="node">
<title>Node9</title>
<g id="a_node9"><a xlink:href="../../d4/df2/class_variable_context.html" target="_top" xlink:title=" ">
<polygon fill="white" stroke="#666666" points="236.5,-130 141.5,-130 141.5,-111 236.5,-111 236.5,-130"/>
<text text-anchor="middle" x="189" y="-118" font-family="Helvetica,sans-Serif" font-size="10.00">VariableContext</text>
</a>
</g>
</g>
<!-- Node9&#45;&gt;Node2 -->
<g id="edge10" class="edge">
<title>Node9&#45;&gt;Node2</title>
<path fill="none" stroke="#9a32cd" stroke-dasharray="5,2" d="M246.85,-126.94C277.76,-130.77 316.61,-136.13 351,-142.5 359.42,-144.06 368.39,-145.99 376.88,-147.94"/>
<polygon fill="#9a32cd" stroke="#9a32cd" points="247.04,-123.44 236.69,-125.7 246.19,-130.38 247.04,-123.44"/>
<text text-anchor="middle" x="303" y="-145.5" font-family="Helvetica,sans-Serif" font-size="10.00" fill="grey"> theVarContext</text>
</g>
<!-- Node10 -->
<g id="node10" class="node">
<title>Node10</title>
<g id="a_node10"><a xlink:href="../../de/da0/class_call_context.html" target="_top" xlink:title="Represents the call context.">
<polygon fill="white" stroke="#666666" points="226,-93 152,-93 152,-74 226,-74 226,-93"/>
<text text-anchor="middle" x="189" y="-81" font-family="Helvetica,sans-Serif" font-size="10.00">CallContext</text>
</a>
</g>
</g>
<!-- Node10&#45;&gt;Node2 -->
<g id="edge11" class="edge">
<title>Node10&#45;&gt;Node2</title>
<path fill="none" stroke="#9a32cd" stroke-dasharray="5,2" d="M236.39,-86.51C269.4,-89.91 314.23,-97.15 351,-112.5 371.81,-121.19 392.54,-137.53 404.55,-147.95"/>
<polygon fill="#9a32cd" stroke="#9a32cd" points="236.4,-82.99 226.11,-85.53 235.74,-89.96 236.4,-82.99"/>
<text text-anchor="middle" x="303" y="-115.5" font-family="Helvetica,sans-Serif" font-size="10.00" fill="grey"> theCallContext</text>
</g>
<!-- Node11 -->
<g id="node11" class="node">
<title>Node11</title>
<g id="a_node11"><a xlink:href="../../da/d0c/class_symbol_resolver.html" target="_top" xlink:title="Helper class to find a class definition or check if A symbol is accessible in a given scope.">
<polygon fill="white" stroke="#666666" points="237,-56 141,-56 141,-37 237,-37 237,-56"/>
<text text-anchor="middle" x="189" y="-44" font-family="Helvetica,sans-Serif" font-size="10.00">SymbolResolver</text>
</a>
</g>
</g>
<!-- Node11&#45;&gt;Node2 -->
<g id="edge12" class="edge">
<title>Node11&#45;&gt;Node2</title>
<path fill="none" stroke="#9a32cd" stroke-dasharray="5,2" d="M247.45,-45.96C279.89,-48.04 320.02,-54.8 351,-73.5 381.14,-91.69 402.07,-129.84 410.65,-147.79"/>
<polygon fill="#9a32cd" stroke="#9a32cd" points="247.37,-42.45 237.21,-45.44 247.01,-49.44 247.37,-42.45"/>
<text text-anchor="middle" x="303" y="-76.5" font-family="Helvetica,sans-Serif" font-size="10.00" fill="grey"> symbolResolver</text>
</g>
<!-- Node12 -->
<g id="node12" class="node">
<title>Node12</title>
<g id="a_node12"><a xlink:href="../../d5/dae/class_tooltip_manager.html" target="_top" xlink:title="Class that manages the tooltips for a source file.">
<polygon fill="white" stroke="#666666" points="235,-19 143,-19 143,0 235,0 235,-19"/>
<text text-anchor="middle" x="189" y="-7" font-family="Helvetica,sans-Serif" font-size="10.00">TooltipManager</text>
</a>
</g>
</g>
<!-- Node12&#45;&gt;Node2 -->
<g id="edge13" class="edge">
<title>Node12&#45;&gt;Node2</title>
<path fill="none" stroke="#9a32cd" stroke-dasharray="5,2" d="M245.13,-4.79C278.6,-4.72 320.58,-9.86 351,-31.5 391.98,-60.66 408.37,-123.91 413.27,-147.96"/>
<polygon fill="#9a32cd" stroke="#9a32cd" points="244.98,-1.29 235.04,-4.97 245.1,-8.29 244.98,-1.29"/>
<text text-anchor="middle" x="303" y="-34.5" font-family="Helvetica,sans-Serif" font-size="10.00" fill="grey"> tooltipManager</text>
</g>
</g>
</svg>
        <g id="navigator" transform="translate(0 0)" fill="#404254">
                <rect fill="#f2f5e9" fill-opacity="0.5" stroke="#606060" stroke-width=".5" x="0" y="0" width="60" height="60"/>
                <use id="zoomplus" xlink:href="#zoomPlus" x="17" y="9" onmousedown="handleZoom(evt,'in')"/>
                <use id="zoomminus" xlink:href="#zoomMin" x="42" y="9" onmousedown="handleZoom(evt,'out')"/>
                <use id="reset" xlink:href="#resetDef" x="30" y="36" onmousedown="handleReset()"/>
                <g id="arrowUp" xlink:href="#dirArrow" transform="translate(30 24)" onmousedown="handlePan(0,-1)">
                  <use xlink:href="#rim" fill="#404040">
                        <set attributeName="fill" to="#808080" begin="arrowUp.mouseover" end="arrowUp.mouseout"/>
                  </use>
                  <path fill="none" stroke="white" stroke-width="1.5" d="M0,-3.0v7 M-2.5,-0.5L0,-3.0L2.5,-0.5"/>
                </g>
                <g id="arrowRight" xlink:href="#dirArrow" transform="rotate(90) translate(36 -43)" onmousedown="handlePan(1,0)">
                  <use xlink:href="#rim" fill="#404040">
                        <set attributeName="fill" to="#808080" begin="arrowRight.mouseover" end="arrowRight.mouseout"/>
                  </use>
                  <path fill="none" stroke="white" stroke-width="1.5" d="M0,-3.0v7 M-2.5,-0.5L0,-3.0L2.5,-0.5"/>
                </g>
                <g id="arrowDown" xlink:href="#dirArrow" transform="rotate(180) translate(-30 -48)" onmousedown="handlePan(0,1)">
                  <use xlink:href="#rim" fill="#404040">
                        <set attributeName="fill" to="#808080" begin="arrowDown.mouseover" end="arrowDown.mouseout"/>
                  </use>
                  <path fill="none" stroke="white" stroke-width="1.5" d="M0,-3.0v7 M-2.5,-0.5L0,-3.0L2.5,-0.5"/>
                </g>
                <g id="arrowLeft" xlink:href="#dirArrow" transform="rotate(270) translate(-36 17)" onmousedown="handlePan(-1,0)">
                  <use xlink:href="#rim" fill="#404040">
                        <set attributeName="fill" to="#808080" begin="arrowLeft.mouseover" end="arrowLeft.mouseout"/>
                  </use>
                  <path fill="none" stroke="white" stroke-width="1.5" d="M0,-3.0v7 M-2.5,-0.5L0,-3.0L2.5,-0.5"/>
                </g>
        </g>
        <svg viewBox="0 0 15 15" width="100%" height="30px" preserveAspectRatio="xMaxYMin meet">
         <g id="arrow_out" transform="scale(0.3 0.3)">
          <a xlink:href="struct_python_code_parser_1_1_private__coll__graph_org.svg" target="_base">
           <rect id="button" ry="5" rx="5" y="6" x="6" height="38" width="38"
                fill="#f2f5e9" fill-opacity="0.5" stroke="#606060" stroke-width="1.0"/>
           <path id="arrow"
             d="M 11.500037,31.436501 C 11.940474,20.09759 22.043105,11.32322 32.158766,21.979434 L 37.068811,17.246167 C 37.068811,17.246167 37.088388,32 37.088388,32 L 22.160133,31.978069 C 22.160133,31.978069 26.997745,27.140456 26.997745,27.140456 C 18.528582,18.264221 13.291696,25.230495 11.500037,31.436501 z"
             style="fill:#404040;"/>
          </a>
         </g>
        </svg>
</svg>
