<?xml version="1.0" encoding="UTF-8" standalone="no"?>
<!DOCTYPE svg PUBLIC "-//W3C//DTD SVG 1.1//EN"
 "http://www.w3.org/Graphics/SVG/1.1/DTD/svg11.dtd">
<!-- Generated by graphviz version 2.43.0 (0)
 -->
<!-- Title: DefinitionImpl::IMPL Pages: 1 -->
<svg width="695pt" height="361pt"
 viewBox="0.00 0.00 695.00 361.00" xmlns="http://www.w3.org/2000/svg" xmlns:xlink="http://www.w3.org/1999/xlink">
<g id="graph0" class="graph" transform="scale(1 1) rotate(0) translate(4 357)">
<title>DefinitionImpl::IMPL</title>
<!-- Node1 -->
<g id="node1" class="node">
<title>Node1</title>
<g id="a_node1"><a xlink:title="Private data associated with a Symbol DefinitionImpl object.">
<polygon fill="#999999" stroke="#666666" points="368.5,-19 253.5,-19 253.5,0 368.5,0 368.5,-19"/>
<text text-anchor="middle" x="311" y="-7" font-family="Helvetica,sans-Serif" font-size="10.00">DefinitionImpl::IMPL</text>
</a>
</g>
</g>
<!-- Node2 -->
<g id="node2" class="node">
<title>Node2</title>
<g id="a_node2"><a xlink:href="../../d5/dcc/class_definition.html" target="_top" xlink:title="The common base class of all entity definitions found in the sources.">
<polygon fill="white" stroke="#666666" points="64,-353 0,-353 0,-334 64,-334 64,-353"/>
<text text-anchor="middle" x="32" y="-341" font-family="Helvetica,sans-Serif" font-size="10.00">Definition</text>
</a>
</g>
</g>
<!-- Node2&#45;&gt;Node1 -->
<g id="edge1" class="edge">
<title>Node2&#45;&gt;Node1</title>
<path fill="none" stroke="#9a32cd" stroke-dasharray="5,2" d="M28.72,-323.74C21.69,-277.55 9.71,-156.33 61,-77 80.04,-47.55 95.92,-48.63 129,-37 169.21,-22.86 216.98,-16.26 253.49,-13.18"/>
<polygon fill="#9a32cd" stroke="#9a32cd" points="25.29,-324.49 30.36,-333.79 32.2,-323.36 25.29,-324.49"/>
<text text-anchor="middle" x="50.5" y="-235.5" font-family="Helvetica,sans-Serif" font-size="10.00"> def</text>
<text text-anchor="middle" x="50.5" y="-224.5" font-family="Helvetica,sans-Serif" font-size="10.00">outerScope</text>
</g>
<!-- Node10 -->
<g id="node10" class="node">
<title>Node10</title>
<g id="a_node10"><a xlink:href="../../de/db0/class_file_def.html" target="_top" xlink:title="A model of a file symbol.">
<polygon fill="white" stroke="#666666" points="135.5,-291.5 84.5,-291.5 84.5,-272.5 135.5,-272.5 135.5,-291.5"/>
<text text-anchor="middle" x="110" y="-279.5" font-family="Helvetica,sans-Serif" font-size="10.00">FileDef</text>
</a>
</g>
</g>
<!-- Node2&#45;&gt;Node10 -->
<g id="edge12" class="edge">
<title>Node2&#45;&gt;Node10</title>
<path fill="none" stroke="#63b8ff" d="M51.28,-327.79C66.24,-316.38 86.46,-300.96 98.85,-291.51"/>
<polygon fill="#63b8ff" stroke="#63b8ff" points="49,-325.13 43.18,-333.98 53.25,-330.69 49,-325.13"/>
</g>
<!-- Node3 -->
<g id="node3" class="node">
<title>Node3</title>
<g id="a_node3"><a xlink:href="../../d1/df9/class_section_refs.html" target="_top" xlink:title="class that represents a list of constant references to sections.">
<polygon fill="white" stroke="#666666" points="222,-147 148,-147 148,-128 222,-128 222,-147"/>
<text text-anchor="middle" x="185" y="-135" font-family="Helvetica,sans-Serif" font-size="10.00">SectionRefs</text>
</a>
</g>
</g>
<!-- Node3&#45;&gt;Node1 -->
<g id="edge2" class="edge">
<title>Node3&#45;&gt;Node1</title>
<path fill="none" stroke="#9a32cd" stroke-dasharray="5,2" d="M181.44,-117.6C178.43,-95.44 177.31,-58.95 197,-37 204.9,-28.19 229.22,-21.91 253.38,-17.68"/>
<polygon fill="#9a32cd" stroke="#9a32cd" points="178.02,-118.42 183.08,-127.73 184.93,-117.3 178.02,-118.42"/>
<text text-anchor="middle" x="227.5" y="-45.5" font-family="Helvetica,sans-Serif" font-size="10.00"> sectionRefs</text>
</g>
<!-- Node4 -->
<g id="node4" class="node">
<title>Node4</title>
<g id="a_node4"><a xlink:href="../../d3/d3b/class_group_list.html" target="_top" xlink:title=" ">
<polygon fill="white" stroke="#666666" points="303.5,-147 240.5,-147 240.5,-128 303.5,-128 303.5,-147"/>
<text text-anchor="middle" x="272" y="-135" font-family="Helvetica,sans-Serif" font-size="10.00">GroupList</text>
</a>
</g>
</g>
<!-- Node4&#45;&gt;Node1 -->
<g id="edge3" class="edge">
<title>Node4&#45;&gt;Node1</title>
<path fill="none" stroke="#9a32cd" stroke-dasharray="5,2" d="M266.44,-117.97C261.26,-96.96 256.21,-62.34 270,-37 274.3,-29.11 282.06,-23.21 289.69,-19.01"/>
<polygon fill="#9a32cd" stroke="#9a32cd" points="263.13,-119.12 269.14,-127.84 269.88,-117.28 263.13,-119.12"/>
<text text-anchor="middle" x="304.5" y="-45.5" font-family="Helvetica,sans-Serif" font-size="10.00"> partOfGroups</text>
</g>
<!-- Node5 -->
<g id="node5" class="node">
<title>Node5</title>
<g id="a_node5"><a xlink:title=" ">
<polygon fill="white" stroke="#666666" points="325,-297 219,-297 219,-267 325,-267 325,-297"/>
<text text-anchor="start" x="227" y="-285" font-family="Helvetica,sans-Serif" font-size="10.00">std::vector&lt; const</text>
<text text-anchor="middle" x="272" y="-274" font-family="Helvetica,sans-Serif" font-size="10.00"> GroupDef * &gt;</text>
</a>
</g>
</g>
<!-- Node5&#45;&gt;Node4 -->
<g id="edge4" class="edge">
<title>Node5&#45;&gt;Node4</title>
<path fill="none" stroke="#63b8ff" d="M272,-256.4C272,-224 272,-168.61 272,-147.25"/>
<polygon fill="#63b8ff" stroke="#63b8ff" points="268.5,-256.82 272,-266.82 275.5,-256.82 268.5,-256.82"/>
</g>
<!-- Node6 -->
<g id="node6" class="node">
<title>Node6</title>
<g id="a_node6"><a xlink:href="../../d7/dd5/struct_doc_info.html" target="_top" xlink:title="Data associated with a detailed description.">
<polygon fill="white" stroke="#666666" points="503,-147 449,-147 449,-128 503,-128 503,-147"/>
<text text-anchor="middle" x="476" y="-135" font-family="Helvetica,sans-Serif" font-size="10.00">DocInfo</text>
</a>
</g>
</g>
<!-- Node6&#45;&gt;Node1 -->
<g id="edge5" class="edge">
<title>Node6&#45;&gt;Node1</title>
<path fill="none" stroke="#9a32cd" stroke-dasharray="5,2" d="M466.61,-118.84C459.23,-106.12 448.04,-89.14 435,-77 405.32,-49.37 361.99,-29.61 335.2,-19.13"/>
<polygon fill="#9a32cd" stroke="#9a32cd" points="463.76,-120.91 471.68,-127.95 469.88,-117.51 463.76,-120.91"/>
<text text-anchor="middle" x="439" y="-51" font-family="Helvetica,sans-Serif" font-size="10.00"> details</text>
<text text-anchor="middle" x="439" y="-40" font-family="Helvetica,sans-Serif" font-size="10.00">inbodyDocs</text>
</g>
<!-- Node7 -->
<g id="node7" class="node">
<title>Node7</title>
<g id="a_node7"><a xlink:href="../../d9/d45/class_q_c_string.html" target="_top" xlink:title="This is an alternative implementation of QCString.">
<polygon fill="white" stroke="#666666" points="505.5,-291.5 446.5,-291.5 446.5,-272.5 505.5,-272.5 505.5,-291.5"/>
<text text-anchor="middle" x="476" y="-279.5" font-family="Helvetica,sans-Serif" font-size="10.00">QCString</text>
</a>
</g>
</g>
<!-- Node7&#45;&gt;Node1 -->
<g id="edge13" class="edge">
<title>Node7&#45;&gt;Node1</title>
<path fill="none" stroke="#9a32cd" stroke-dasharray="5,2" d="M446.35,-267.84C419.65,-254.34 381.67,-230.69 362,-198 324.73,-136.07 372.21,-101.2 339,-37 335.37,-29.99 329.14,-23.81 323.47,-19.18"/>
<polygon fill="#9a32cd" stroke="#9a32cd" points="445.09,-271.13 455.62,-272.36 448.16,-264.83 445.09,-271.13"/>
<text text-anchor="middle" x="401" y="-190" font-family="Helvetica,sans-Serif" font-size="10.00"> briefSignatures</text>
<text text-anchor="middle" x="401" y="-179" font-family="Helvetica,sans-Serif" font-size="10.00">defFileExt</text>
<text text-anchor="middle" x="401" y="-168" font-family="Helvetica,sans-Serif" font-size="10.00">defFileName</text>
<text text-anchor="middle" x="401" y="-157" font-family="Helvetica,sans-Serif" font-size="10.00">docSignatures</text>
<text text-anchor="middle" x="401" y="-146" font-family="Helvetica,sans-Serif" font-size="10.00">id</text>
<text text-anchor="middle" x="401" y="-135" font-family="Helvetica,sans-Serif" font-size="10.00">localName</text>
<text text-anchor="middle" x="401" y="-124" font-family="Helvetica,sans-Serif" font-size="10.00">name</text>
<text text-anchor="middle" x="401" y="-113" font-family="Helvetica,sans-Serif" font-size="10.00">qualifiedName</text>
<text text-anchor="middle" x="401" y="-102" font-family="Helvetica,sans-Serif" font-size="10.00">ref</text>
<text text-anchor="middle" x="401" y="-91" font-family="Helvetica,sans-Serif" font-size="10.00">symbolName</text>
<text text-anchor="middle" x="401" y="-80" font-family="Helvetica,sans-Serif" font-size="10.00">...</text>
</g>
<!-- Node7&#45;&gt;Node6 -->
<g id="edge6" class="edge">
<title>Node7&#45;&gt;Node6</title>
<path fill="none" stroke="#9a32cd" stroke-dasharray="5,2" d="M476,-262.04C476,-230.75 476,-169.53 476,-147.05"/>
<polygon fill="#9a32cd" stroke="#9a32cd" points="472.5,-262.09 476,-272.09 479.5,-262.09 472.5,-262.09"/>
<text text-anchor="middle" x="486.5" y="-235.5" font-family="Helvetica,sans-Serif" font-size="10.00"> doc</text>
<text text-anchor="middle" x="486.5" y="-224.5" font-family="Helvetica,sans-Serif" font-size="10.00">file</text>
</g>
<!-- Node8 -->
<g id="node8" class="node">
<title>Node8</title>
<g id="a_node8"><a xlink:href="../../d0/da7/struct_brief_info.html" target="_top" xlink:title="Data associated with a brief description.">
<polygon fill="white" stroke="#666666" points="580.5,-147 521.5,-147 521.5,-128 580.5,-128 580.5,-147"/>
<text text-anchor="middle" x="551" y="-135" font-family="Helvetica,sans-Serif" font-size="10.00">BriefInfo</text>
</a>
</g>
</g>
<!-- Node7&#45;&gt;Node8 -->
<g id="edge8" class="edge">
<title>Node7&#45;&gt;Node8</title>
<path fill="none" stroke="#9a32cd" stroke-dasharray="5,2" d="M490.08,-264.52C493.88,-259.69 497.81,-254.28 501,-249 522.69,-213.15 540.87,-166.26 547.89,-147.16"/>
<polygon fill="#9a32cd" stroke="#9a32cd" points="487.22,-262.49 483.6,-272.45 492.64,-266.92 487.22,-262.49"/>
<text text-anchor="middle" x="534" y="-241" font-family="Helvetica,sans-Serif" font-size="10.00"> doc</text>
<text text-anchor="middle" x="534" y="-230" font-family="Helvetica,sans-Serif" font-size="10.00">file</text>
<text text-anchor="middle" x="534" y="-219" font-family="Helvetica,sans-Serif" font-size="10.00">tooltip</text>
</g>
<!-- Node8&#45;&gt;Node1 -->
<g id="edge7" class="edge">
<title>Node8&#45;&gt;Node1</title>
<path fill="none" stroke="#9a32cd" stroke-dasharray="5,2" d="M542.79,-118.6C530.91,-95.09 506.53,-54.72 472,-37 440.25,-20.7 400.75,-14.03 368.82,-11.45"/>
<polygon fill="#9a32cd" stroke="#9a32cd" points="539.73,-120.32 547.23,-127.8 546.03,-117.27 539.73,-120.32"/>
<text text-anchor="middle" x="512" y="-45.5" font-family="Helvetica,sans-Serif" font-size="10.00"> brief</text>
</g>
<!-- Node9 -->
<g id="node9" class="node">
<title>Node9</title>
<g id="a_node9"><a xlink:href="../../db/dab/struct_body_info.html" target="_top" xlink:title="Data associated with description found in the body.">
<polygon fill="white" stroke="#666666" points="130,-147 70,-147 70,-128 130,-128 130,-147"/>
<text text-anchor="middle" x="100" y="-135" font-family="Helvetica,sans-Serif" font-size="10.00">BodyInfo</text>
</a>
</g>
</g>
<!-- Node9&#45;&gt;Node1 -->
<g id="edge9" class="edge">
<title>Node9&#45;&gt;Node1</title>
<path fill="none" stroke="#9a32cd" stroke-dasharray="5,2" d="M104.66,-118.03C111.45,-95.14 126.38,-56.74 154,-37 169.74,-25.75 215.22,-18.88 253.2,-14.96"/>
<polygon fill="#9a32cd" stroke="#9a32cd" points="101.23,-117.31 101.96,-127.88 107.98,-119.16 101.23,-117.31"/>
<text text-anchor="middle" x="168" y="-45.5" font-family="Helvetica,sans-Serif" font-size="10.00"> body</text>
</g>
<!-- Node10&#45;&gt;Node9 -->
<g id="edge10" class="edge">
<title>Node10&#45;&gt;Node9</title>
<path fill="none" stroke="#9a32cd" stroke-dasharray="5,2" d="M108.67,-262.04C106.47,-230.75 102.18,-169.53 100.6,-147.05"/>
<polygon fill="#9a32cd" stroke="#9a32cd" points="105.18,-262.36 109.37,-272.09 112.17,-261.87 105.18,-262.36"/>
<text text-anchor="middle" x="126" y="-230" font-family="Helvetica,sans-Serif" font-size="10.00"> fileDef</text>
</g>
<!-- Node11 -->
<g id="node11" class="node">
<title>Node11</title>
<g id="a_node11"><a xlink:href="../../d0/d46/class_definition_mutable.html" target="_top" xlink:title=" ">
<polygon fill="white" stroke="#666666" points="186,-353 82,-353 82,-334 186,-334 186,-353"/>
<text text-anchor="middle" x="134" y="-341" font-family="Helvetica,sans-Serif" font-size="10.00">DefinitionMutable</text>
</a>
</g>
</g>
<!-- Node11&#45;&gt;Node10 -->
<g id="edge11" class="edge">
<title>Node11&#45;&gt;Node10</title>
<path fill="none" stroke="#63b8ff" d="M126.74,-324.5C122.32,-313.55 116.89,-300.07 113.43,-291.51"/>
<polygon fill="#63b8ff" stroke="#63b8ff" points="123.57,-326.01 130.56,-333.98 130.07,-323.39 123.57,-326.01"/>
</g>
<!-- Node12 -->
<g id="node12" class="node">
<title>Node12</title>
<g id="a_node12"><a xlink:href="../../d1/d7d/class_member_vector.html" target="_top" xlink:title="A vector of MemberDef object.">
<polygon fill="white" stroke="#666666" points="687,-147 599,-147 599,-128 687,-128 687,-147"/>
<text text-anchor="middle" x="643" y="-135" font-family="Helvetica,sans-Serif" font-size="10.00">MemberVector</text>
</a>
</g>
</g>
<!-- Node12&#45;&gt;Node1 -->
<g id="edge14" class="edge">
<title>Node12&#45;&gt;Node1</title>
<path fill="none" stroke="#9a32cd" stroke-dasharray="5,2" d="M630.57,-119.7C611.73,-95.84 573.41,-53.24 529,-37 476.9,-17.94 413.6,-11.99 368.67,-10.4"/>
<polygon fill="#9a32cd" stroke="#9a32cd" points="627.94,-122.02 636.8,-127.83 633.5,-117.76 627.94,-122.02"/>
<text text-anchor="middle" x="625.5" y="-51" font-family="Helvetica,sans-Serif" font-size="10.00"> referencedByMembers</text>
<text text-anchor="middle" x="625.5" y="-40" font-family="Helvetica,sans-Serif" font-size="10.00">referencesMembers</text>
</g>
</g>
</svg>
