<?xml version="1.0" encoding="UTF-8" standalone="no"?>
<!DOCTYPE svg PUBLIC "-//W3C//DTD SVG 1.1//EN"
 "http://www.w3.org/Graphics/SVG/1.1/DTD/svg11.dtd">
<!-- Generated by graphviz version 2.43.0 (0)
 -->
<!-- Title: DocCompoundNode Pages: 1 -->
<!--zoomable 1248 -->
<svg id="main" version="1.1" xmlns="http://www.w3.org/2000/svg" xmlns:xlink="http://www.w3.org/1999/xlink" xml:space="preserve" onload="init(evt)">
<style type="text/css"><![CDATA[
.edge:hover path { stroke: red; }
.edge:hover polygon { stroke: red; fill: red; }
]]></style>
<script type="text/javascript"><![CDATA[
var edges = document.getElementsByTagName('g');
if (edges && edges.length) {
  for (var i=0;i<edges.length;i++) {
    if (edges[i].id.substr(0,4)=='edge') {
      edges[i].setAttribute('class','edge');
    }
  }
}
]]></script>
        <defs>
                <circle id="rim" cx="0" cy="0" r="7"/>
                <circle id="rim2" cx="0" cy="0" r="3.5"/>
                <g id="zoomPlus">
                        <use xlink:href="#rim" fill="#404040">
                                <set attributeName="fill" to="#808080" begin="zoomplus.mouseover" end="zoomplus.mouseout"/>
                        </use>
                        <path d="M-4,0h8M0,-4v8" fill="none" stroke="white" stroke-width="1.5" pointer-events="none"/>
                </g>
                <g id="zoomMin">
                        <use xlink:href="#rim" fill="#404040">
                                <set attributeName="fill" to="#808080" begin="zoomminus.mouseover" end="zoomminus.mouseout"/>
                        </use>
                        <path d="M-4,0h8" fill="none" stroke="white" stroke-width="1.5" pointer-events="none"/>
                </g>
                <g id="dirArrow">
                        <path fill="none" stroke="white" stroke-width="1.5" d="M0,-3.0v7 M-2.5,-0.5L0,-3.0L2.5,-0.5"/>
                </g>
               <g id="resetDef">
                       <use xlink:href="#rim2" fill="#404040">
                               <set attributeName="fill" to="#808080" begin="reset.mouseover" end="reset.mouseout"/>
                       </use>
               </g>
        </defs>

<script type="text/javascript">
var viewWidth = 481;
var viewHeight = 1248;
var sectionId = 'dynsection-0';
</script>
<script xlink:href="../../svgpan.js"/>
<svg id="graph" class="graph">
<g id="viewport">
<title>DocCompoundNode</title>
<!-- Node1 -->
<g id="node1" class="node">
<title>Node1</title>
<g id="a_node1"><a xlink:title="Base class for nodes with children.">
<polygon fill="#999999" stroke="#666666" points="210,-629 97,-629 97,-610 210,-610 210,-629"/>
<text text-anchor="middle" x="153.5" y="-617" font-family="Helvetica,sans-Serif" font-size="10.00">DocCompoundNode</text>
</a>
</g>
</g>
<!-- Node3 -->
<g id="node3" class="node">
<title>Node3</title>
<g id="a_node3"><a xlink:href="../../d1/d3f/class_doc_auto_list.html" target="_top" xlink:title="Node representing an auto List.">
<polygon fill="white" stroke="#666666" points="343,-1240 268,-1240 268,-1221 343,-1221 343,-1240"/>
<text text-anchor="middle" x="305.5" y="-1228" font-family="Helvetica,sans-Serif" font-size="10.00">DocAutoList</text>
</a>
</g>
</g>
<!-- Node1&#45;&gt;Node3 -->
<g id="edge2" class="edge">
<title>Node1&#45;&gt;Node3</title>
<path fill="none" stroke="#63b8ff" d="M154.86,-639.38C156.94,-732.23 170.14,-1122.35 246,-1211.5 251.61,-1218.09 259.52,-1222.41 267.72,-1225.24"/>
<polygon fill="#63b8ff" stroke="#63b8ff" points="158.36,-639.29 154.66,-629.36 151.36,-639.43 158.36,-639.29"/>
</g>
<!-- Node4 -->
<g id="node4" class="node">
<title>Node4</title>
<g id="a_node4"><a xlink:href="../../d8/df9/class_doc_auto_list_item.html" target="_top" xlink:title="Node representing an item of a auto list.">
<polygon fill="white" stroke="#666666" points="354.5,-1203 256.5,-1203 256.5,-1184 354.5,-1184 354.5,-1203"/>
<text text-anchor="middle" x="305.5" y="-1191" font-family="Helvetica,sans-Serif" font-size="10.00">DocAutoListItem</text>
</a>
</g>
</g>
<!-- Node1&#45;&gt;Node4 -->
<g id="edge3" class="edge">
<title>Node1&#45;&gt;Node4</title>
<path fill="none" stroke="#63b8ff" d="M155.08,-639.25C158.09,-728.28 174.65,-1091.5 246,-1174.5 249.34,-1178.39 253.49,-1181.48 258.02,-1183.95"/>
<polygon fill="#63b8ff" stroke="#63b8ff" points="158.58,-639.06 154.76,-629.17 151.58,-639.28 158.58,-639.06"/>
</g>
<!-- Node5 -->
<g id="node5" class="node">
<title>Node5</title>
<g id="a_node5"><a xlink:href="../../d3/d7c/class_doc_diagram_file_base.html" target="_top" xlink:title=" ">
<polygon fill="white" stroke="#666666" points="365,-1166 246,-1166 246,-1147 365,-1147 365,-1166"/>
<text text-anchor="middle" x="305.5" y="-1154" font-family="Helvetica,sans-Serif" font-size="10.00">DocDiagramFileBase</text>
</a>
</g>
</g>
<!-- Node1&#45;&gt;Node5 -->
<g id="edge4" class="edge">
<title>Node1&#45;&gt;Node5</title>
<path fill="none" stroke="#63b8ff" d="M155.35,-639.55C159.39,-725.35 179.25,-1060.75 246,-1137.5 249.36,-1141.37 253.52,-1144.45 258.06,-1146.91"/>
<polygon fill="#63b8ff" stroke="#63b8ff" points="158.84,-639.18 154.89,-629.35 151.85,-639.5 158.84,-639.18"/>
</g>
<!-- Node9 -->
<g id="node9" class="node">
<title>Node9</title>
<g id="a_node9"><a xlink:href="../../d9/d10/class_doc_h_ref.html" target="_top" xlink:title="Node representing a Hypertext reference.">
<polygon fill="white" stroke="#666666" points="335,-1129 276,-1129 276,-1110 335,-1110 335,-1129"/>
<text text-anchor="middle" x="305.5" y="-1117" font-family="Helvetica,sans-Serif" font-size="10.00">DocHRef</text>
</a>
</g>
</g>
<!-- Node1&#45;&gt;Node9 -->
<g id="edge8" class="edge">
<title>Node1&#45;&gt;Node9</title>
<path fill="none" stroke="#63b8ff" d="M155.64,-639.39C160.7,-721.09 183.73,-1029.84 246,-1100.5 253.55,-1109.07 265.01,-1113.8 275.79,-1116.39"/>
<polygon fill="#63b8ff" stroke="#63b8ff" points="159.11,-638.81 155.02,-629.04 152.12,-639.23 159.11,-638.81"/>
</g>
<!-- Node10 -->
<g id="node10" class="node">
<title>Node10</title>
<g id="a_node10"><a xlink:href="../../d9/dd3/class_doc_html_block_quote.html" target="_top" xlink:title="Node representing an HTML blockquote.">
<polygon fill="white" stroke="#666666" points="363.5,-1092 247.5,-1092 247.5,-1073 363.5,-1073 363.5,-1092"/>
<text text-anchor="middle" x="305.5" y="-1080" font-family="Helvetica,sans-Serif" font-size="10.00">DocHtmlBlockQuote</text>
</a>
</g>
</g>
<!-- Node1&#45;&gt;Node10 -->
<g id="edge9" class="edge">
<title>Node1&#45;&gt;Node10</title>
<path fill="none" stroke="#63b8ff" d="M155.98,-639.34C162.14,-716.95 188.22,-998.93 246,-1063.5 249.49,-1067.4 253.79,-1070.5 258.45,-1072.97"/>
<polygon fill="#63b8ff" stroke="#63b8ff" points="159.44,-638.76 155.18,-629.06 152.46,-639.3 159.44,-638.76"/>
</g>
<!-- Node11 -->
<g id="node11" class="node">
<title>Node11</title>
<g id="a_node11"><a xlink:href="../../d0/dc7/class_doc_html_caption.html" target="_top" xlink:title="Node representing a HTML table caption.">
<polygon fill="white" stroke="#666666" points="354,-1055 257,-1055 257,-1036 354,-1036 354,-1055"/>
<text text-anchor="middle" x="305.5" y="-1043" font-family="Helvetica,sans-Serif" font-size="10.00">DocHtmlCaption</text>
</a>
</g>
</g>
<!-- Node1&#45;&gt;Node11 -->
<g id="edge10" class="edge">
<title>Node1&#45;&gt;Node11</title>
<path fill="none" stroke="#63b8ff" d="M156.4,-639.56C163.78,-713.29 192.75,-968.06 246,-1026.5 249.52,-1030.37 253.84,-1033.45 258.52,-1035.91"/>
<polygon fill="#63b8ff" stroke="#63b8ff" points="159.86,-638.95 155.4,-629.34 152.89,-639.63 159.86,-638.95"/>
</g>
<!-- Node12 -->
<g id="node12" class="node">
<title>Node12</title>
<g id="a_node12"><a xlink:href="../../d1/d56/class_doc_html_cell.html" target="_top" xlink:title="Node representing a HTML table cell.">
<polygon fill="white" stroke="#666666" points="344.5,-1018 266.5,-1018 266.5,-999 344.5,-999 344.5,-1018"/>
<text text-anchor="middle" x="305.5" y="-1006" font-family="Helvetica,sans-Serif" font-size="10.00">DocHtmlCell</text>
</a>
</g>
</g>
<!-- Node1&#45;&gt;Node12 -->
<g id="edge11" class="edge">
<title>Node1&#45;&gt;Node12</title>
<path fill="none" stroke="#63b8ff" d="M156.83,-639.06C165.37,-707.8 197.1,-936.97 246,-989.5 251.46,-995.36 258.74,-999.42 266.3,-1002.23"/>
<polygon fill="#63b8ff" stroke="#63b8ff" points="160.3,-638.63 155.62,-629.13 153.35,-639.48 160.3,-638.63"/>
</g>
<!-- Node13 -->
<g id="node13" class="node">
<title>Node13</title>
<g id="a_node13"><a xlink:href="../../dd/d88/class_doc_html_desc_data.html" target="_top" xlink:title="Node representing a HTML description data.">
<polygon fill="white" stroke="#666666" points="359,-981 252,-981 252,-962 359,-962 359,-981"/>
<text text-anchor="middle" x="305.5" y="-969" font-family="Helvetica,sans-Serif" font-size="10.00">DocHtmlDescData</text>
</a>
</g>
</g>
<!-- Node1&#45;&gt;Node13 -->
<g id="edge12" class="edge">
<title>Node1&#45;&gt;Node13</title>
<path fill="none" stroke="#63b8ff" d="M153.87,-639.43C153.2,-696.39 159.22,-861.64 246,-952.5 249.69,-956.36 254.17,-959.44 258.99,-961.89"/>
<polygon fill="#63b8ff" stroke="#63b8ff" points="157.38,-639.33 154.08,-629.26 150.38,-639.18 157.38,-639.33"/>
</g>
<!-- Node14 -->
<g id="node14" class="node">
<title>Node14</title>
<g id="a_node14"><a xlink:href="../../df/d6f/class_doc_html_desc_list.html" target="_top" xlink:title="Node representing a Html description list.">
<polygon fill="white" stroke="#666666" points="356,-944 255,-944 255,-925 356,-925 356,-944"/>
<text text-anchor="middle" x="305.5" y="-932" font-family="Helvetica,sans-Serif" font-size="10.00">DocHtmlDescList</text>
</a>
</g>
</g>
<!-- Node1&#45;&gt;Node14 -->
<g id="edge13" class="edge">
<title>Node1&#45;&gt;Node14</title>
<path fill="none" stroke="#63b8ff" d="M154.69,-639.28C156.27,-691.82 167.89,-836.27 246,-915.5 249.82,-919.38 254.45,-922.47 259.4,-924.92"/>
<polygon fill="#63b8ff" stroke="#63b8ff" points="158.18,-638.93 154.47,-629 151.18,-639.07 158.18,-638.93"/>
</g>
<!-- Node15 -->
<g id="node15" class="node">
<title>Node15</title>
<g id="a_node15"><a xlink:href="../../dd/dd1/class_doc_html_desc_title.html" target="_top" xlink:title="Node representing a Html description item.">
<polygon fill="white" stroke="#666666" points="358,-907 253,-907 253,-888 358,-888 358,-907"/>
<text text-anchor="middle" x="305.5" y="-895" font-family="Helvetica,sans-Serif" font-size="10.00">DocHtmlDescTitle</text>
</a>
</g>
</g>
<!-- Node1&#45;&gt;Node15 -->
<g id="edge14" class="edge">
<title>Node1&#45;&gt;Node15</title>
<path fill="none" stroke="#63b8ff" d="M155.71,-639.35C159.72,-687.37 176.59,-810.85 246,-878.5 249.98,-882.38 254.75,-885.46 259.84,-887.92"/>
<polygon fill="#63b8ff" stroke="#63b8ff" points="159.18,-638.8 154.96,-629.08 152.2,-639.31 159.18,-638.8"/>
</g>
<!-- Node16 -->
<g id="node16" class="node">
<title>Node16</title>
<g id="a_node16"><a xlink:href="../../dc/dcc/class_doc_html_details.html" target="_top" xlink:title="Node Html details.">
<polygon fill="white" stroke="#666666" points="352.5,-870 258.5,-870 258.5,-851 352.5,-851 352.5,-870"/>
<text text-anchor="middle" x="305.5" y="-858" font-family="Helvetica,sans-Serif" font-size="10.00">DocHtmlDetails</text>
</a>
</g>
</g>
<!-- Node1&#45;&gt;Node16 -->
<g id="edge15" class="edge">
<title>Node1&#45;&gt;Node16</title>
<path fill="none" stroke="#63b8ff" d="M157.02,-639.1C163.56,-682.05 185.07,-785.08 246,-841.5 250.23,-845.42 255.28,-848.53 260.61,-851"/>
<polygon fill="#63b8ff" stroke="#63b8ff" points="160.47,-638.52 155.6,-629.11 153.54,-639.5 160.47,-638.52"/>
</g>
<!-- Node17 -->
<g id="node17" class="node">
<title>Node17</title>
<g id="a_node17"><a xlink:href="../../df/d24/class_doc_html_header.html" target="_top" xlink:title="Node Html heading.">
<polygon fill="white" stroke="#666666" points="353,-833 258,-833 258,-814 353,-814 353,-833"/>
<text text-anchor="middle" x="305.5" y="-821" font-family="Helvetica,sans-Serif" font-size="10.00">DocHtmlHeader</text>
</a>
</g>
</g>
<!-- Node1&#45;&gt;Node17 -->
<g id="edge16" class="edge">
<title>Node1&#45;&gt;Node17</title>
<path fill="none" stroke="#63b8ff" d="M158.89,-639.36C168.23,-677.07 193.67,-759.27 246,-804.5 250.52,-808.41 255.87,-811.52 261.46,-813.99"/>
<polygon fill="#63b8ff" stroke="#63b8ff" points="162.19,-638.11 156.49,-629.18 155.37,-639.72 162.19,-638.11"/>
</g>
<!-- Node18 -->
<g id="node18" class="node">
<title>Node18</title>
<g id="a_node18"><a xlink:href="../../d5/d42/class_doc_html_list.html" target="_top" xlink:title="Node representing a Html list.">
<polygon fill="white" stroke="#666666" points="344,-796 267,-796 267,-777 344,-777 344,-796"/>
<text text-anchor="middle" x="305.5" y="-784" font-family="Helvetica,sans-Serif" font-size="10.00">DocHtmlList</text>
</a>
</g>
</g>
<!-- Node1&#45;&gt;Node18 -->
<g id="edge17" class="edge">
<title>Node1&#45;&gt;Node18</title>
<path fill="none" stroke="#63b8ff" d="M161.36,-638.83C173.51,-670.36 201.79,-732.79 246,-767.5 252.13,-772.31 259.52,-775.93 266.96,-778.63"/>
<polygon fill="#63b8ff" stroke="#63b8ff" points="164.49,-637.22 157.73,-629.07 157.93,-639.66 164.49,-637.22"/>
</g>
<!-- Node19 -->
<g id="node19" class="node">
<title>Node19</title>
<g id="a_node19"><a xlink:href="../../df/da8/class_doc_html_list_item.html" target="_top" xlink:title="Node representing a HTML list item.">
<polygon fill="white" stroke="#666666" points="355,-759 256,-759 256,-740 355,-740 355,-759"/>
<text text-anchor="middle" x="305.5" y="-747" font-family="Helvetica,sans-Serif" font-size="10.00">DocHtmlListItem</text>
</a>
</g>
</g>
<!-- Node1&#45;&gt;Node19 -->
<g id="edge18" class="edge">
<title>Node1&#45;&gt;Node19</title>
<path fill="none" stroke="#63b8ff" d="M164.93,-637.76C179.85,-662.3 209.55,-705.69 246,-730.5 251.65,-734.35 258.13,-737.46 264.67,-739.96"/>
<polygon fill="#63b8ff" stroke="#63b8ff" points="167.9,-635.9 159.79,-629.08 161.87,-639.46 167.9,-635.9"/>
</g>
<!-- Node20 -->
<g id="node20" class="node">
<title>Node20</title>
<g id="a_node20"><a xlink:href="../../d3/d16/class_doc_html_row.html" target="_top" xlink:title="Node representing a HTML table row.">
<polygon fill="white" stroke="#666666" points="345.5,-722 265.5,-722 265.5,-703 345.5,-703 345.5,-722"/>
<text text-anchor="middle" x="305.5" y="-710" font-family="Helvetica,sans-Serif" font-size="10.00">DocHtmlRow</text>
</a>
</g>
</g>
<!-- Node1&#45;&gt;Node20 -->
<g id="edge19" class="edge">
<title>Node1&#45;&gt;Node20</title>
<path fill="none" stroke="#63b8ff" d="M171.38,-636.39C188.76,-652.95 217.3,-677.93 246,-693.5 252.85,-697.22 260.55,-700.36 268.06,-702.95"/>
<polygon fill="#63b8ff" stroke="#63b8ff" points="173.4,-633.47 163.79,-629.01 168.52,-638.49 173.4,-633.47"/>
</g>
<!-- Node21 -->
<g id="node21" class="node">
<title>Node21</title>
<g id="a_node21"><a xlink:href="../../de/d79/class_doc_html_table.html" target="_top" xlink:title="Node representing a HTML table.">
<polygon fill="white" stroke="#666666" points="348,-685 263,-685 263,-666 348,-666 348,-685"/>
<text text-anchor="middle" x="305.5" y="-673" font-family="Helvetica,sans-Serif" font-size="10.00">DocHtmlTable</text>
</a>
</g>
</g>
<!-- Node1&#45;&gt;Node21 -->
<g id="edge20" class="edge">
<title>Node1&#45;&gt;Node21</title>
<path fill="none" stroke="#63b8ff" d="M186.59,-633.12C204.04,-640.36 226.08,-649.25 246,-656.5 254.93,-659.75 264.72,-663.04 273.7,-665.94"/>
<polygon fill="#63b8ff" stroke="#63b8ff" points="187.47,-629.69 176.89,-629.07 184.77,-636.15 187.47,-629.69"/>
</g>
<!-- Node22 -->
<g id="node22" class="node">
<title>Node22</title>
<g id="a_node22"><a xlink:href="../../db/dc8/class_doc_image.html" target="_top" xlink:title="Node representing an image.">
<polygon fill="white" stroke="#666666" points="338.5,-648 272.5,-648 272.5,-629 338.5,-629 338.5,-648"/>
<text text-anchor="middle" x="305.5" y="-636" font-family="Helvetica,sans-Serif" font-size="10.00">DocImage</text>
</a>
</g>
</g>
<!-- Node1&#45;&gt;Node22 -->
<g id="edge21" class="edge">
<title>Node1&#45;&gt;Node22</title>
<path fill="none" stroke="#63b8ff" d="M220.49,-627.86C238.4,-630.13 257,-632.48 272.13,-634.4"/>
<polygon fill="#63b8ff" stroke="#63b8ff" points="220.72,-624.36 210.35,-626.57 219.84,-631.3 220.72,-624.36"/>
</g>
<!-- Node23 -->
<g id="node23" class="node">
<title>Node23</title>
<g id="a_node23"><a xlink:href="../../db/d6d/class_doc_internal.html" target="_top" xlink:title="Node representing an internal section of documentation.">
<polygon fill="white" stroke="#666666" points="342,-611 269,-611 269,-592 342,-592 342,-611"/>
<text text-anchor="middle" x="305.5" y="-599" font-family="Helvetica,sans-Serif" font-size="10.00">DocInternal</text>
</a>
</g>
</g>
<!-- Node1&#45;&gt;Node23 -->
<g id="edge22" class="edge">
<title>Node1&#45;&gt;Node23</title>
<path fill="none" stroke="#63b8ff" d="M220.54,-611.58C237.07,-609.59 254.18,-607.54 268.61,-605.81"/>
<polygon fill="#63b8ff" stroke="#63b8ff" points="219.87,-608.13 210.35,-612.8 220.7,-615.08 219.87,-608.13"/>
</g>
<!-- Node24 -->
<g id="node24" class="node">
<title>Node24</title>
<g id="a_node24"><a xlink:href="../../da/da2/class_doc_internal_ref.html" target="_top" xlink:title="Node representing an internal reference to some item.">
<polygon fill="white" stroke="#666666" points="350,-574 261,-574 261,-555 350,-555 350,-574"/>
<text text-anchor="middle" x="305.5" y="-562" font-family="Helvetica,sans-Serif" font-size="10.00">DocInternalRef</text>
</a>
</g>
</g>
<!-- Node1&#45;&gt;Node24 -->
<g id="edge23" class="edge">
<title>Node1&#45;&gt;Node24</title>
<path fill="none" stroke="#63b8ff" d="M185.7,-606.11C203.27,-598.76 225.7,-589.71 246,-582.5 254.31,-579.55 263.38,-576.62 271.85,-574.01"/>
<polygon fill="#63b8ff" stroke="#63b8ff" points="184.34,-602.88 176.48,-609.99 187.06,-609.34 184.34,-602.88"/>
</g>
<!-- Node25 -->
<g id="node25" class="node">
<title>Node25</title>
<g id="a_node25"><a xlink:href="../../d5/dd3/class_doc_link.html" target="_top" xlink:title="Node representing a link to some item.">
<polygon fill="white" stroke="#666666" points="333.5,-537 277.5,-537 277.5,-518 333.5,-518 333.5,-537"/>
<text text-anchor="middle" x="305.5" y="-525" font-family="Helvetica,sans-Serif" font-size="10.00">DocLink</text>
</a>
</g>
</g>
<!-- Node1&#45;&gt;Node25 -->
<g id="edge24" class="edge">
<title>Node1&#45;&gt;Node25</title>
<path fill="none" stroke="#63b8ff" d="M171.33,-602.52C188.67,-585.88 217.17,-560.85 246,-545.5 255.75,-540.31 267.24,-536.36 277.44,-533.51"/>
<polygon fill="#63b8ff" stroke="#63b8ff" points="168.45,-600.44 163.76,-609.93 173.35,-605.44 168.45,-600.44"/>
</g>
<!-- Node26 -->
<g id="node26" class="node">
<title>Node26</title>
<g id="a_node26"><a xlink:href="../../d9/dd2/class_doc_par_block.html" target="_top" xlink:title="Node representing an block of paragraphs.">
<polygon fill="white" stroke="#666666" points="344,-500 267,-500 267,-481 344,-481 344,-500"/>
<text text-anchor="middle" x="305.5" y="-488" font-family="Helvetica,sans-Serif" font-size="10.00">DocParBlock</text>
</a>
</g>
</g>
<!-- Node1&#45;&gt;Node26 -->
<g id="edge25" class="edge">
<title>Node1&#45;&gt;Node26</title>
<path fill="none" stroke="#63b8ff" d="M164.88,-601.16C179.74,-576.52 209.36,-533.03 246,-508.5 252.27,-504.3 259.56,-501.05 266.83,-498.54"/>
<polygon fill="#63b8ff" stroke="#63b8ff" points="161.8,-599.48 159.76,-609.88 167.84,-603.02 161.8,-599.48"/>
</g>
<!-- Node27 -->
<g id="node27" class="node">
<title>Node27</title>
<g id="a_node27"><a xlink:href="../../d3/d01/class_doc_para.html" target="_top" xlink:title="Node representing a paragraph in the documentation tree.">
<polygon fill="white" stroke="#666666" points="333.5,-463 277.5,-463 277.5,-444 333.5,-444 333.5,-463"/>
<text text-anchor="middle" x="305.5" y="-451" font-family="Helvetica,sans-Serif" font-size="10.00">DocPara</text>
</a>
</g>
</g>
<!-- Node1&#45;&gt;Node27 -->
<g id="edge26" class="edge">
<title>Node1&#45;&gt;Node27</title>
<path fill="none" stroke="#63b8ff" d="M161.3,-600.09C173.36,-568.46 201.52,-505.86 246,-471.5 255,-464.55 266.69,-460.26 277.26,-457.63"/>
<polygon fill="#63b8ff" stroke="#63b8ff" points="157.86,-599.3 157.7,-609.89 164.43,-601.71 157.86,-599.3"/>
</g>
<!-- Node28 -->
<g id="node28" class="node">
<title>Node28</title>
<g id="a_node28"><a xlink:href="../../d1/d01/class_doc_param_sect.html" target="_top" xlink:title="Node representing a parameter section.">
<polygon fill="white" stroke="#666666" points="349,-426 262,-426 262,-407 349,-407 349,-426"/>
<text text-anchor="middle" x="305.5" y="-414" font-family="Helvetica,sans-Serif" font-size="10.00">DocParamSect</text>
</a>
</g>
</g>
<!-- Node1&#45;&gt;Node28 -->
<g id="edge27" class="edge">
<title>Node1&#45;&gt;Node28</title>
<path fill="none" stroke="#63b8ff" d="M158.82,-599.56C168.06,-561.73 193.32,-479.32 246,-434.5 250.61,-430.57 256.07,-427.51 261.77,-425.11"/>
<polygon fill="#63b8ff" stroke="#63b8ff" points="155.3,-599.25 156.46,-609.78 162.12,-600.83 155.3,-599.25"/>
</g>
<!-- Node29 -->
<g id="node29" class="node">
<title>Node29</title>
<g id="a_node29"><a xlink:href="../../d5/d68/class_doc_ref.html" target="_top" xlink:title="Node representing a reference to some item.">
<polygon fill="white" stroke="#666666" points="331.5,-389 279.5,-389 279.5,-370 331.5,-370 331.5,-389"/>
<text text-anchor="middle" x="305.5" y="-377" font-family="Helvetica,sans-Serif" font-size="10.00">DocRef</text>
</a>
</g>
</g>
<!-- Node1&#45;&gt;Node29 -->
<g id="edge28" class="edge">
<title>Node1&#45;&gt;Node29</title>
<path fill="none" stroke="#63b8ff" d="M156.95,-599.82C163.37,-556.74 184.63,-453.44 246,-397.5 255.11,-389.2 267.97,-384.72 279.32,-382.31"/>
<polygon fill="#63b8ff" stroke="#63b8ff" points="153.47,-599.47 155.57,-609.86 160.4,-600.43 153.47,-599.47"/>
</g>
<!-- Node30 -->
<g id="node30" class="node">
<title>Node30</title>
<g id="a_node30"><a xlink:href="../../d8/ddb/class_doc_root.html" target="_top" xlink:title="Root node of documentation tree.">
<polygon fill="white" stroke="#666666" points="334.5,-352 276.5,-352 276.5,-333 334.5,-333 334.5,-352"/>
<text text-anchor="middle" x="305.5" y="-340" font-family="Helvetica,sans-Serif" font-size="10.00">DocRoot</text>
</a>
</g>
</g>
<!-- Node1&#45;&gt;Node30 -->
<g id="edge29" class="edge">
<title>Node1&#45;&gt;Node30</title>
<path fill="none" stroke="#63b8ff" d="M155.62,-599.89C159.43,-551.93 175.92,-427.75 246,-360.5 254.2,-352.63 265.77,-348.19 276.45,-345.69"/>
<polygon fill="#63b8ff" stroke="#63b8ff" points="152.13,-599.67 154.93,-609.88 159.11,-600.15 152.13,-599.67"/>
</g>
<!-- Node31 -->
<g id="node31" class="node">
<title>Node31</title>
<g id="a_node31"><a xlink:href="../../de/d87/class_doc_sec_ref_item.html" target="_top" xlink:title="Node representing a reference to a section.">
<polygon fill="white" stroke="#666666" points="351.5,-315 259.5,-315 259.5,-296 351.5,-296 351.5,-315"/>
<text text-anchor="middle" x="305.5" y="-303" font-family="Helvetica,sans-Serif" font-size="10.00">DocSecRefItem</text>
</a>
</g>
</g>
<!-- Node1&#45;&gt;Node31 -->
<g id="edge30" class="edge">
<title>Node1&#45;&gt;Node31</title>
<path fill="none" stroke="#63b8ff" d="M154.62,-599.66C156.03,-546.95 167.27,-402.12 246,-323.5 249.83,-319.67 254.46,-316.65 259.42,-314.27"/>
<polygon fill="#63b8ff" stroke="#63b8ff" points="151.11,-599.91 154.44,-609.96 158.11,-600.03 151.11,-599.91"/>
</g>
<!-- Node32 -->
<g id="node32" class="node">
<title>Node32</title>
<g id="a_node32"><a xlink:href="../../d3/ddb/class_doc_sec_ref_list.html" target="_top" xlink:title="Node representing a list of section references.">
<polygon fill="white" stroke="#666666" points="348.5,-278 262.5,-278 262.5,-259 348.5,-259 348.5,-278"/>
<text text-anchor="middle" x="305.5" y="-266" font-family="Helvetica,sans-Serif" font-size="10.00">DocSecRefList</text>
</a>
</g>
</g>
<!-- Node1&#45;&gt;Node32 -->
<g id="edge31" class="edge">
<title>Node1&#45;&gt;Node32</title>
<path fill="none" stroke="#63b8ff" d="M153.8,-599.51C152.95,-542.36 158.51,-376.68 246,-286.5 250.51,-281.85 256.2,-278.39 262.24,-275.82"/>
<polygon fill="#63b8ff" stroke="#63b8ff" points="150.31,-599.8 154.05,-609.71 157.31,-599.63 150.31,-599.8"/>
</g>
<!-- Node33 -->
<g id="node33" class="node">
<title>Node33</title>
<g id="a_node33"><a xlink:href="../../d2/da3/class_doc_section.html" target="_top" xlink:title="Node representing a normal section.">
<polygon fill="white" stroke="#666666" points="341,-241 270,-241 270,-222 341,-222 341,-241"/>
<text text-anchor="middle" x="305.5" y="-229" font-family="Helvetica,sans-Serif" font-size="10.00">DocSection</text>
</a>
</g>
</g>
<!-- Node1&#45;&gt;Node33 -->
<g id="edge32" class="edge">
<title>Node1&#45;&gt;Node33</title>
<path fill="none" stroke="#63b8ff" d="M156.8,-599.91C165.25,-531.09 196.69,-301.65 246,-249.5 252.35,-242.78 261.14,-238.55 269.98,-235.89"/>
<polygon fill="#63b8ff" stroke="#63b8ff" points="153.32,-599.51 155.6,-609.86 160.27,-600.35 153.32,-599.51"/>
</g>
<!-- Node34 -->
<g id="node34" class="node">
<title>Node34</title>
<g id="a_node34"><a xlink:href="../../dc/de6/class_doc_simple_list.html" target="_top" xlink:title="Node representing a simple list.">
<polygon fill="white" stroke="#666666" points="348.5,-204 262.5,-204 262.5,-185 348.5,-185 348.5,-204"/>
<text text-anchor="middle" x="305.5" y="-192" font-family="Helvetica,sans-Serif" font-size="10.00">DocSimpleList</text>
</a>
</g>
</g>
<!-- Node1&#45;&gt;Node34 -->
<g id="edge33" class="edge">
<title>Node1&#45;&gt;Node34</title>
<path fill="none" stroke="#63b8ff" d="M156.37,-599.41C163.65,-525.59 192.3,-270.52 246,-212.5 250.47,-207.66 256.21,-204.12 262.34,-201.51"/>
<polygon fill="#63b8ff" stroke="#63b8ff" points="152.86,-599.36 155.39,-609.65 159.83,-600.03 152.86,-599.36"/>
</g>
<!-- Node35 -->
<g id="node35" class="node">
<title>Node35</title>
<g id="a_node35"><a xlink:href="../../de/d65/class_doc_simple_sect.html" target="_top" xlink:title="Node representing a simple section.">
<polygon fill="white" stroke="#666666" points="350.5,-167 260.5,-167 260.5,-148 350.5,-148 350.5,-167"/>
<text text-anchor="middle" x="305.5" y="-155" font-family="Helvetica,sans-Serif" font-size="10.00">DocSimpleSect</text>
</a>
</g>
</g>
<!-- Node1&#45;&gt;Node35 -->
<g id="edge34" class="edge">
<title>Node1&#45;&gt;Node35</title>
<path fill="none" stroke="#63b8ff" d="M155.95,-599.64C162,-521.93 187.72,-239.62 246,-175.5 249.93,-171.18 254.87,-167.88 260.21,-165.37"/>
<polygon fill="#63b8ff" stroke="#63b8ff" points="152.43,-599.7 155.17,-609.93 159.41,-600.22 152.43,-599.7"/>
</g>
<!-- Node36 -->
<g id="node36" class="node">
<title>Node36</title>
<g id="a_node36"><a xlink:href="../../d0/d87/class_doc_text.html" target="_top" xlink:title="Root node of a text fragment.">
<polygon fill="white" stroke="#666666" points="333.5,-130 277.5,-130 277.5,-111 333.5,-111 333.5,-130"/>
<text text-anchor="middle" x="305.5" y="-118" font-family="Helvetica,sans-Serif" font-size="10.00">DocText</text>
</a>
</g>
</g>
<!-- Node1&#45;&gt;Node36 -->
<g id="edge35" class="edge">
<title>Node1&#45;&gt;Node36</title>
<path fill="none" stroke="#63b8ff" d="M155.61,-599.58C160.56,-517.78 183.18,-208.68 246,-138.5 253.94,-129.63 266.13,-125.08 277.33,-122.76"/>
<polygon fill="#63b8ff" stroke="#63b8ff" points="152.09,-599.76 155.01,-609.95 159.08,-600.17 152.09,-599.76"/>
</g>
<!-- Node37 -->
<g id="node37" class="node">
<title>Node37</title>
<g id="a_node37"><a xlink:href="../../d3/d1c/class_doc_title.html" target="_top" xlink:title="Node representing a simple section title.">
<polygon fill="white" stroke="#666666" points="334,-93 277,-93 277,-74 334,-74 334,-93"/>
<text text-anchor="middle" x="305.5" y="-81" font-family="Helvetica,sans-Serif" font-size="10.00">DocTitle</text>
</a>
</g>
</g>
<!-- Node1&#45;&gt;Node37 -->
<g id="edge36" class="edge">
<title>Node1&#45;&gt;Node37</title>
<path fill="none" stroke="#63b8ff" d="M155.32,-599.42C159.23,-513.51 178.66,-177.73 246,-101.5 253.81,-92.66 265.84,-88.1 276.97,-85.77"/>
<polygon fill="#63b8ff" stroke="#63b8ff" points="151.81,-599.5 154.88,-609.64 158.81,-599.8 151.81,-599.5"/>
</g>
<!-- Node38 -->
<g id="node38" class="node">
<title>Node38</title>
<g id="a_node38"><a xlink:href="../../d0/d89/class_doc_vhdl_flow.html" target="_top" xlink:title="Node representing a VHDL flow chart.">
<polygon fill="white" stroke="#666666" points="345.5,-56 265.5,-56 265.5,-37 345.5,-37 345.5,-56"/>
<text text-anchor="middle" x="305.5" y="-44" font-family="Helvetica,sans-Serif" font-size="10.00">DocVhdlFlow</text>
</a>
</g>
</g>
<!-- Node1&#45;&gt;Node38 -->
<g id="edge37" class="edge">
<title>Node1&#45;&gt;Node38</title>
<path fill="none" stroke="#63b8ff" d="M155.05,-599.72C157.93,-510.58 174,-146.95 246,-64.5 251.1,-58.66 258.05,-54.68 265.38,-51.99"/>
<polygon fill="#63b8ff" stroke="#63b8ff" points="151.55,-599.71 154.75,-609.81 158.55,-599.93 151.55,-599.71"/>
</g>
<!-- Node39 -->
<g id="node39" class="node">
<title>Node39</title>
<g id="a_node39"><a xlink:href="../../d0/d90/class_doc_x_ref_item.html" target="_top" xlink:title="Node representing an item of a cross&#45;referenced list.">
<polygon fill="white" stroke="#666666" points="346,-19 265,-19 265,0 346,0 346,-19"/>
<text text-anchor="middle" x="305.5" y="-7" font-family="Helvetica,sans-Serif" font-size="10.00">DocXRefItem</text>
</a>
</g>
</g>
<!-- Node1&#45;&gt;Node39 -->
<g id="edge38" class="edge">
<title>Node1&#45;&gt;Node39</title>
<path fill="none" stroke="#63b8ff" d="M154.83,-599.59C156.78,-506.63 169.45,-116.05 246,-27.5 250.93,-21.79 257.63,-17.87 264.73,-15.17"/>
<polygon fill="#63b8ff" stroke="#63b8ff" points="151.33,-599.56 154.64,-609.63 158.33,-599.7 151.33,-599.56"/>
</g>
<!-- Node2 -->
<g id="node2" class="node">
<title>Node2</title>
<g id="a_node2"><a xlink:href="../../d9/d0e/class_doc_node.html" target="_top" xlink:title="Abstract node interface with type information.">
<polygon fill="white" stroke="#666666" points="61,-629 0,-629 0,-610 61,-610 61,-629"/>
<text text-anchor="middle" x="30.5" y="-617" font-family="Helvetica,sans-Serif" font-size="10.00">DocNode</text>
</a>
</g>
</g>
<!-- Node2&#45;&gt;Node1 -->
<g id="edge1" class="edge">
<title>Node2&#45;&gt;Node1</title>
<path fill="none" stroke="#63b8ff" d="M71.11,-619.5C79.31,-619.5 88.09,-619.5 96.74,-619.5"/>
<polygon fill="#63b8ff" stroke="#63b8ff" points="71.1,-616 61.1,-619.5 71.1,-623 71.1,-616"/>
</g>
<!-- Node6 -->
<g id="node6" class="node">
<title>Node6</title>
<g id="a_node6"><a xlink:href="../../d6/ddb/class_doc_dia_file.html" target="_top" xlink:title="Node representing a dia file.">
<polygon fill="white" stroke="#666666" points="471.5,-1203 402.5,-1203 402.5,-1184 471.5,-1184 471.5,-1203"/>
<text text-anchor="middle" x="437" y="-1191" font-family="Helvetica,sans-Serif" font-size="10.00">DocDiaFile</text>
</a>
</g>
</g>
<!-- Node5&#45;&gt;Node6 -->
<g id="edge5" class="edge">
<title>Node5&#45;&gt;Node6</title>
<path fill="none" stroke="#63b8ff" d="M349.64,-1168.83C366.79,-1173.73 386.23,-1179.28 402.31,-1183.88"/>
<polygon fill="#63b8ff" stroke="#63b8ff" points="350.43,-1165.41 339.85,-1166.03 348.5,-1172.14 350.43,-1165.41"/>
</g>
<!-- Node7 -->
<g id="node7" class="node">
<title>Node7</title>
<g id="a_node7"><a xlink:href="../../df/d37/class_doc_dot_file.html" target="_top" xlink:title="Node representing a dot file.">
<polygon fill="white" stroke="#666666" points="472,-1166 402,-1166 402,-1147 472,-1147 472,-1166"/>
<text text-anchor="middle" x="437" y="-1154" font-family="Helvetica,sans-Serif" font-size="10.00">DocDotFile</text>
</a>
</g>
</g>
<!-- Node5&#45;&gt;Node7 -->
<g id="edge6" class="edge">
<title>Node5&#45;&gt;Node7</title>
<path fill="none" stroke="#63b8ff" d="M375.24,-1156.5C384.5,-1156.5 393.65,-1156.5 401.93,-1156.5"/>
<polygon fill="#63b8ff" stroke="#63b8ff" points="375.19,-1153 365.19,-1156.5 375.19,-1160 375.19,-1153"/>
</g>
<!-- Node8 -->
<g id="node8" class="node">
<title>Node8</title>
<g id="a_node8"><a xlink:href="../../d3/d7d/class_doc_msc_file.html" target="_top" xlink:title="Node representing a msc file.">
<polygon fill="white" stroke="#666666" points="473,-1129 401,-1129 401,-1110 473,-1110 473,-1129"/>
<text text-anchor="middle" x="437" y="-1117" font-family="Helvetica,sans-Serif" font-size="10.00">DocMscFile</text>
</a>
</g>
</g>
<!-- Node5&#45;&gt;Node8 -->
<g id="edge7" class="edge">
<title>Node5&#45;&gt;Node8</title>
<path fill="none" stroke="#63b8ff" d="M349.64,-1144.17C366.79,-1139.27 386.23,-1133.72 402.31,-1129.12"/>
<polygon fill="#63b8ff" stroke="#63b8ff" points="348.5,-1140.86 339.85,-1146.97 350.43,-1147.59 348.5,-1140.86"/>
</g>
</g>
</svg>
        <g id="navigator" transform="translate(0 0)" fill="#404254">
                <rect fill="#f2f5e9" fill-opacity="0.5" stroke="#606060" stroke-width=".5" x="0" y="0" width="60" height="60"/>
                <use id="zoomplus" xlink:href="#zoomPlus" x="17" y="9" onmousedown="handleZoom(evt,'in')"/>
                <use id="zoomminus" xlink:href="#zoomMin" x="42" y="9" onmousedown="handleZoom(evt,'out')"/>
                <use id="reset" xlink:href="#resetDef" x="30" y="36" onmousedown="handleReset()"/>
                <g id="arrowUp" xlink:href="#dirArrow" transform="translate(30 24)" onmousedown="handlePan(0,-1)">
                  <use xlink:href="#rim" fill="#404040">
                        <set attributeName="fill" to="#808080" begin="arrowUp.mouseover" end="arrowUp.mouseout"/>
                  </use>
                  <path fill="none" stroke="white" stroke-width="1.5" d="M0,-3.0v7 M-2.5,-0.5L0,-3.0L2.5,-0.5"/>
                </g>
                <g id="arrowRight" xlink:href="#dirArrow" transform="rotate(90) translate(36 -43)" onmousedown="handlePan(1,0)">
                  <use xlink:href="#rim" fill="#404040">
                        <set attributeName="fill" to="#808080" begin="arrowRight.mouseover" end="arrowRight.mouseout"/>
                  </use>
                  <path fill="none" stroke="white" stroke-width="1.5" d="M0,-3.0v7 M-2.5,-0.5L0,-3.0L2.5,-0.5"/>
                </g>
                <g id="arrowDown" xlink:href="#dirArrow" transform="rotate(180) translate(-30 -48)" onmousedown="handlePan(0,1)">
                  <use xlink:href="#rim" fill="#404040">
                        <set attributeName="fill" to="#808080" begin="arrowDown.mouseover" end="arrowDown.mouseout"/>
                  </use>
                  <path fill="none" stroke="white" stroke-width="1.5" d="M0,-3.0v7 M-2.5,-0.5L0,-3.0L2.5,-0.5"/>
                </g>
                <g id="arrowLeft" xlink:href="#dirArrow" transform="rotate(270) translate(-36 17)" onmousedown="handlePan(-1,0)">
                  <use xlink:href="#rim" fill="#404040">
                        <set attributeName="fill" to="#808080" begin="arrowLeft.mouseover" end="arrowLeft.mouseout"/>
                  </use>
                  <path fill="none" stroke="white" stroke-width="1.5" d="M0,-3.0v7 M-2.5,-0.5L0,-3.0L2.5,-0.5"/>
                </g>
        </g>
        <svg viewBox="0 0 15 15" width="100%" height="30px" preserveAspectRatio="xMaxYMin meet">
         <g id="arrow_out" transform="scale(0.3 0.3)">
          <a xlink:href="class_doc_compound_node__inherit__graph_org.svg" target="_base">
           <rect id="button" ry="5" rx="5" y="6" x="6" height="38" width="38"
                fill="#f2f5e9" fill-opacity="0.5" stroke="#606060" stroke-width="1.0"/>
           <path id="arrow"
             d="M 11.500037,31.436501 C 11.940474,20.09759 22.043105,11.32322 32.158766,21.979434 L 37.068811,17.246167 C 37.068811,17.246167 37.088388,32 37.088388,32 L 22.160133,31.978069 C 22.160133,31.978069 26.997745,27.140456 26.997745,27.140456 C 18.528582,18.264221 13.291696,25.230495 11.500037,31.436501 z"
             style="fill:#404040;"/>
          </a>
         </g>
        </svg>
</svg>
