<?xml version="1.0" encoding="UTF-8" standalone="no"?>
<!DOCTYPE svg PUBLIC "-//W3C//DTD SVG 1.1//EN"
 "http://www.w3.org/Graphics/SVG/1.1/DTD/svg11.dtd">
<!-- Generated by graphviz version 2.43.0 (0)
 -->
<!-- Title: /home/runner/work/doxygen/doxygen/src/dotgroupcollaboration.h Pages: 1 -->
<svg width="1183pt" height="478pt"
 viewBox="0.00 0.00 1182.98 478.00" xmlns="http://www.w3.org/2000/svg" xmlns:xlink="http://www.w3.org/1999/xlink">
<g id="graph0" class="graph" transform="scale(1 1) rotate(0) translate(4 474)">
<title>/home/runner/work/doxygen/doxygen/src/dotgroupcollaboration.h</title>
<!-- Node1 -->
<g id="node1" class="node">
<title>Node1</title>
<g id="a_node1"><a xlink:title=" ">
<polygon fill="#999999" stroke="#666666" points="245.48,-470 47.48,-470 47.48,-440 245.48,-440 245.48,-470"/>
<text text-anchor="start" x="55.48" y="-458" font-family="Helvetica,sans-Serif" font-size="10.00">/home/runner/work/doxygen</text>
<text text-anchor="middle" x="146.48" y="-447" font-family="Helvetica,sans-Serif" font-size="10.00">/doxygen/src/dotgroupcollaboration.h</text>
</a>
</g>
</g>
<!-- Node2 -->
<g id="node2" class="node">
<title>Node2</title>
<g id="a_node2"><a xlink:title=" ">
<polygon fill="#e0e0e0" stroke="#999999" points="315.48,-129 257.48,-129 257.48,-110 315.48,-110 315.48,-129"/>
<text text-anchor="middle" x="286.48" y="-117" font-family="Helvetica,sans-Serif" font-size="10.00">memory</text>
</a>
</g>
</g>
<!-- Node1&#45;&gt;Node2 -->
<g id="edge1" class="edge">
<title>Node1&#45;&gt;Node2</title>
<path fill="none" stroke="#63b8ff" d="M100.69,-439.91C57.87,-423.56 0.48,-392.03 0.48,-340.5 0.48,-340.5 0.48,-340.5 0.48,-283.5 0.48,-254.04 -1.45,-240.72 19.48,-220 60.58,-179.33 90.18,-203.85 144.48,-184 185.78,-168.91 231.98,-147.33 260.15,-133.62"/>
<polygon fill="#63b8ff" stroke="#63b8ff" points="261.88,-136.67 269.32,-129.12 258.8,-130.38 261.88,-136.67"/>
</g>
<!-- Node3 -->
<g id="node3" class="node">
<title>Node3</title>
<g id="a_node3"><a xlink:href="../../d8/d3b/dotnode_8h.html" target="_top" xlink:title=" ">
<polygon fill="white" stroke="#666666" points="205.98,-349 140.98,-349 140.98,-330 205.98,-330 205.98,-349"/>
<text text-anchor="middle" x="173.48" y="-337" font-family="Helvetica,sans-Serif" font-size="10.00">dotnode.h</text>
</a>
</g>
</g>
<!-- Node1&#45;&gt;Node3 -->
<g id="edge2" class="edge">
<title>Node1&#45;&gt;Node3</title>
<path fill="none" stroke="#63b8ff" d="M149.9,-439.63C154.76,-419.21 163.66,-381.81 169.03,-359.24"/>
<polygon fill="#63b8ff" stroke="#63b8ff" points="172.5,-359.77 171.41,-349.23 165.69,-358.15 172.5,-359.77"/>
</g>
<!-- Node8 -->
<g id="node8" class="node">
<title>Node8</title>
<g id="a_node8"><a xlink:href="../../d0/daa/dotgraph_8h.html" target="_top" xlink:title=" ">
<polygon fill="white" stroke="#666666" points="135.98,-294 66.98,-294 66.98,-275 135.98,-275 135.98,-294"/>
<text text-anchor="middle" x="101.48" y="-282" font-family="Helvetica,sans-Serif" font-size="10.00">dotgraph.h</text>
</a>
</g>
</g>
<!-- Node1&#45;&gt;Node8 -->
<g id="edge27" class="edge">
<title>Node1&#45;&gt;Node8</title>
<path fill="none" stroke="#63b8ff" d="M142.73,-439.92C134.64,-409.65 115.6,-338.35 106.5,-304.27"/>
<polygon fill="#63b8ff" stroke="#63b8ff" points="109.78,-303.01 103.82,-294.25 103.02,-304.82 109.78,-303.01"/>
</g>
<!-- Node21 -->
<g id="node21" class="node">
<title>Node21</title>
<g id="a_node21"><a xlink:href="../../d1/de6/groupdef_8h.html" target="_top" xlink:title=" ">
<polygon fill="white" stroke="#666666" points="547.48,-404 479.48,-404 479.48,-385 547.48,-385 547.48,-404"/>
<text text-anchor="middle" x="513.48" y="-392" font-family="Helvetica,sans-Serif" font-size="10.00">groupdef.h</text>
</a>
</g>
</g>
<!-- Node1&#45;&gt;Node21 -->
<g id="edge28" class="edge">
<title>Node1&#45;&gt;Node21</title>
<path fill="none" stroke="#63b8ff" d="M234.39,-439.99C308.41,-428.19 411.21,-411.8 469.16,-402.57"/>
<polygon fill="#63b8ff" stroke="#63b8ff" points="469.77,-406.01 479.09,-400.98 468.67,-399.1 469.77,-406.01"/>
</g>
<!-- Node4 -->
<g id="node4" class="node">
<title>Node4</title>
<g id="a_node4"><a xlink:title=" ">
<polygon fill="#e0e0e0" stroke="#999999" points="483.98,-129 436.98,-129 436.98,-110 483.98,-110 483.98,-129"/>
<text text-anchor="middle" x="460.48" y="-117" font-family="Helvetica,sans-Serif" font-size="10.00">vector</text>
</a>
</g>
</g>
<!-- Node3&#45;&gt;Node4 -->
<g id="edge3" class="edge">
<title>Node3&#45;&gt;Node4</title>
<path fill="none" stroke="#63b8ff" d="M184.74,-329.95C228.22,-296.93 385.6,-177.38 441.01,-135.29"/>
<polygon fill="#63b8ff" stroke="#63b8ff" points="443.15,-138.06 449,-129.22 438.92,-132.49 443.15,-138.06"/>
</g>
<!-- Node5 -->
<g id="node5" class="node">
<title>Node5</title>
<g id="a_node5"><a xlink:title=" ">
<polygon fill="#e0e0e0" stroke="#999999" points="220.48,-239 182.48,-239 182.48,-220 220.48,-220 220.48,-239"/>
<text text-anchor="middle" x="201.48" y="-227" font-family="Helvetica,sans-Serif" font-size="10.00">map</text>
</a>
</g>
</g>
<!-- Node3&#45;&gt;Node5 -->
<g id="edge4" class="edge">
<title>Node3&#45;&gt;Node5</title>
<path fill="none" stroke="#63b8ff" d="M183.92,-329.87C192.9,-321.7 205.23,-308.55 210.48,-294 215.75,-279.44 212.64,-261.96 208.7,-249.03"/>
<polygon fill="#63b8ff" stroke="#63b8ff" points="211.94,-247.7 205.36,-239.4 205.33,-250 211.94,-247.7"/>
</g>
<!-- Node6 -->
<g id="node6" class="node">
<title>Node6</title>
<g id="a_node6"><a xlink:title=" ">
<polygon fill="#e0e0e0" stroke="#999999" points="200.98,-294 153.98,-294 153.98,-275 200.98,-275 200.98,-294"/>
<text text-anchor="middle" x="177.48" y="-282" font-family="Helvetica,sans-Serif" font-size="10.00">deque</text>
</a>
</g>
</g>
<!-- Node3&#45;&gt;Node6 -->
<g id="edge5" class="edge">
<title>Node3&#45;&gt;Node6</title>
<path fill="none" stroke="#63b8ff" d="M174.14,-329.75C174.67,-322.8 175.42,-312.85 176.08,-304.13"/>
<polygon fill="#63b8ff" stroke="#63b8ff" points="179.57,-304.32 176.84,-294.09 172.59,-303.8 179.57,-304.32"/>
</g>
<!-- Node7 -->
<g id="node7" class="node">
<title>Node7</title>
<g id="a_node7"><a xlink:title=" ">
<polygon fill="#e0e0e0" stroke="#999999" points="88.48,-239 28.48,-239 28.48,-220 88.48,-220 88.48,-239"/>
<text text-anchor="middle" x="58.48" y="-227" font-family="Helvetica,sans-Serif" font-size="10.00">iostream</text>
</a>
</g>
</g>
<!-- Node3&#45;&gt;Node7 -->
<g id="edge6" class="edge">
<title>Node3&#45;&gt;Node7</title>
<path fill="none" stroke="#63b8ff" d="M140.8,-335.81C113.47,-331.64 76.06,-321.02 57.48,-294 48.51,-280.95 49.92,-262.56 52.89,-248.93"/>
<polygon fill="#63b8ff" stroke="#63b8ff" points="56.29,-249.77 55.43,-239.2 49.51,-247.99 56.29,-249.77"/>
</g>
<!-- Node3&#45;&gt;Node8 -->
<g id="edge7" class="edge">
<title>Node3&#45;&gt;Node8</title>
<path fill="none" stroke="#63b8ff" d="M161.92,-329.98C151.06,-322 134.6,-309.88 121.6,-300.31"/>
<polygon fill="#63b8ff" stroke="#63b8ff" points="123.39,-297.28 113.26,-294.17 119.24,-302.92 123.39,-297.28"/>
</g>
<!-- Node8&#45;&gt;Node5 -->
<g id="edge9" class="edge">
<title>Node8&#45;&gt;Node5</title>
<path fill="none" stroke="#63b8ff" d="M117.55,-274.98C133.35,-266.61 157.7,-253.7 176.11,-243.95"/>
<polygon fill="#63b8ff" stroke="#63b8ff" points="177.93,-246.95 185.13,-239.17 174.65,-240.76 177.93,-246.95"/>
</g>
<!-- Node8&#45;&gt;Node7 -->
<g id="edge8" class="edge">
<title>Node8&#45;&gt;Node7</title>
<path fill="none" stroke="#63b8ff" d="M94.38,-274.75C88.31,-267.26 79.4,-256.28 71.97,-247.13"/>
<polygon fill="#63b8ff" stroke="#63b8ff" points="74.47,-244.65 65.45,-239.09 69.04,-249.06 74.47,-244.65"/>
</g>
<!-- Node9 -->
<g id="node9" class="node">
<title>Node9</title>
<g id="a_node9"><a xlink:href="../../d7/d5c/qcstring_8h.html" target="_top" xlink:title=" ">
<polygon fill="white" stroke="#666666" points="870.98,-129 805.98,-129 805.98,-110 870.98,-110 870.98,-129"/>
<text text-anchor="middle" x="838.48" y="-117" font-family="Helvetica,sans-Serif" font-size="10.00">qcstring.h</text>
</a>
</g>
</g>
<!-- Node8&#45;&gt;Node9 -->
<g id="edge10" class="edge">
<title>Node8&#45;&gt;Node9</title>
<path fill="none" stroke="#63b8ff" d="M136.16,-276.26C138.97,-275.79 141.77,-275.36 144.48,-275 365.74,-245.3 429.89,-296.94 645.48,-239 664.1,-234 666.87,-227.84 684.48,-220 723.46,-202.65 737.77,-207.35 773.48,-184 793.39,-170.99 812.38,-151.29 824.64,-137.28"/>
<polygon fill="#63b8ff" stroke="#63b8ff" points="827.53,-139.29 831.35,-129.41 822.2,-134.75 827.53,-139.29"/>
</g>
<!-- Node19 -->
<g id="node19" class="node">
<title>Node19</title>
<g id="a_node19"><a xlink:href="../../df/d9c/dir_8h.html" target="_top" xlink:title=" ">
<polygon fill="white" stroke="#666666" points="135.48,-184 97.48,-184 97.48,-165 135.48,-165 135.48,-184"/>
<text text-anchor="middle" x="116.48" y="-172" font-family="Helvetica,sans-Serif" font-size="10.00">dir.h</text>
</a>
</g>
</g>
<!-- Node8&#45;&gt;Node19 -->
<g id="edge22" class="edge">
<title>Node8&#45;&gt;Node19</title>
<path fill="none" stroke="#63b8ff" d="M102.71,-274.66C105.14,-257.17 110.61,-217.8 113.88,-194.27"/>
<polygon fill="#63b8ff" stroke="#63b8ff" points="117.37,-194.54 115.28,-184.16 110.44,-193.58 117.37,-194.54"/>
</g>
<!-- Node10 -->
<g id="node10" class="node">
<title>Node10</title>
<g id="a_node10"><a xlink:title=" ">
<polygon fill="#e0e0e0" stroke="#999999" points="621.48,-19 577.48,-19 577.48,0 621.48,0 621.48,-19"/>
<text text-anchor="middle" x="599.48" y="-7" font-family="Helvetica,sans-Serif" font-size="10.00">string</text>
</a>
</g>
</g>
<!-- Node9&#45;&gt;Node10 -->
<g id="edge11" class="edge">
<title>Node9&#45;&gt;Node10</title>
<path fill="none" stroke="#63b8ff" d="M831.28,-109.67C819.57,-95.9 795.02,-69.4 768.48,-55 724.5,-31.14 667.04,-19.55 631.73,-14.33"/>
<polygon fill="#63b8ff" stroke="#63b8ff" points="631.9,-10.82 621.52,-12.9 630.94,-17.75 631.9,-10.82"/>
</g>
<!-- Node11 -->
<g id="node11" class="node">
<title>Node11</title>
<g id="a_node11"><a xlink:title=" ">
<polygon fill="#e0e0e0" stroke="#999999" points="759.48,-74 695.48,-74 695.48,-55 759.48,-55 759.48,-74"/>
<text text-anchor="middle" x="727.48" y="-62" font-family="Helvetica,sans-Serif" font-size="10.00">algorithm</text>
</a>
</g>
</g>
<!-- Node9&#45;&gt;Node11 -->
<g id="edge12" class="edge">
<title>Node9&#45;&gt;Node11</title>
<path fill="none" stroke="#63b8ff" d="M820.65,-109.98C802.87,-101.5 775.34,-88.35 754.8,-78.54"/>
<polygon fill="#63b8ff" stroke="#63b8ff" points="756.18,-75.32 745.64,-74.17 753.16,-81.64 756.18,-75.32"/>
</g>
<!-- Node12 -->
<g id="node12" class="node">
<title>Node12</title>
<g id="a_node12"><a xlink:title=" ">
<polygon fill="#e0e0e0" stroke="#999999" points="676.98,-74 627.98,-74 627.98,-55 676.98,-55 676.98,-74"/>
<text text-anchor="middle" x="652.48" y="-62" font-family="Helvetica,sans-Serif" font-size="10.00">cctype</text>
</a>
</g>
</g>
<!-- Node9&#45;&gt;Node12 -->
<g id="edge13" class="edge">
<title>Node9&#45;&gt;Node12</title>
<path fill="none" stroke="#63b8ff" d="M808.6,-109.98C775.42,-100.53 721.95,-85.29 687,-75.34"/>
<polygon fill="#63b8ff" stroke="#63b8ff" points="687.81,-71.93 677.24,-72.55 685.89,-78.66 687.81,-71.93"/>
</g>
<!-- Node13 -->
<g id="node13" class="node">
<title>Node13</title>
<g id="a_node13"><a xlink:title=" ">
<polygon fill="#e0e0e0" stroke="#999999" points="1043.48,-74 993.48,-74 993.48,-55 1043.48,-55 1043.48,-74"/>
<text text-anchor="middle" x="1018.48" y="-62" font-family="Helvetica,sans-Serif" font-size="10.00">cstring</text>
</a>
</g>
</g>
<!-- Node9&#45;&gt;Node13 -->
<g id="edge14" class="edge">
<title>Node9&#45;&gt;Node13</title>
<path fill="none" stroke="#63b8ff" d="M867.4,-109.98C899.02,-100.68 949.66,-85.76 983.49,-75.8"/>
<polygon fill="#63b8ff" stroke="#63b8ff" points="984.81,-79.07 993.41,-72.88 982.83,-72.35 984.81,-79.07"/>
</g>
<!-- Node14 -->
<g id="node14" class="node">
<title>Node14</title>
<g id="a_node14"><a xlink:title=" ">
<polygon fill="#e0e0e0" stroke="#999999" points="1107.48,-74 1061.48,-74 1061.48,-55 1107.48,-55 1107.48,-74"/>
<text text-anchor="middle" x="1084.48" y="-62" font-family="Helvetica,sans-Serif" font-size="10.00">cstdio</text>
</a>
</g>
</g>
<!-- Node9&#45;&gt;Node14 -->
<g id="edge15" class="edge">
<title>Node9&#45;&gt;Node14</title>
<path fill="none" stroke="#63b8ff" d="M871.24,-112.27C911.44,-104.49 981.9,-90.45 1051.62,-74.1"/>
<polygon fill="#63b8ff" stroke="#63b8ff" points="1052.52,-77.48 1061.45,-71.78 1050.91,-70.67 1052.52,-77.48"/>
</g>
<!-- Node15 -->
<g id="node15" class="node">
<title>Node15</title>
<g id="a_node15"><a xlink:title=" ">
<polygon fill="#e0e0e0" stroke="#999999" points="1174.98,-74 1125.98,-74 1125.98,-55 1174.98,-55 1174.98,-74"/>
<text text-anchor="middle" x="1150.48" y="-62" font-family="Helvetica,sans-Serif" font-size="10.00">cstdlib</text>
</a>
</g>
</g>
<!-- Node9&#45;&gt;Node15 -->
<g id="edge16" class="edge">
<title>Node9&#45;&gt;Node15</title>
<path fill="none" stroke="#63b8ff" d="M871.18,-114.2C921.53,-107.37 1021.25,-93.05 1115.66,-74.01"/>
<polygon fill="#63b8ff" stroke="#63b8ff" points="1116.56,-77.4 1125.66,-71.97 1115.16,-70.54 1116.56,-77.4"/>
</g>
<!-- Node16 -->
<g id="node16" class="node">
<title>Node16</title>
<g id="a_node16"><a xlink:title=" ">
<polygon fill="#e0e0e0" stroke="#999999" points="888.48,-19 838.48,-19 838.48,0 888.48,0 888.48,-19"/>
<text text-anchor="middle" x="863.48" y="-7" font-family="Helvetica,sans-Serif" font-size="10.00">cstdint</text>
</a>
</g>
</g>
<!-- Node9&#45;&gt;Node16 -->
<g id="edge17" class="edge">
<title>Node9&#45;&gt;Node16</title>
<path fill="none" stroke="#63b8ff" d="M847.23,-109.9C855.04,-101.56 865.93,-88.13 870.48,-74 875.17,-59.47 872.79,-42.2 869.59,-29.34"/>
<polygon fill="#63b8ff" stroke="#63b8ff" points="872.85,-28.01 866.72,-19.36 866.12,-29.94 872.85,-28.01"/>
</g>
<!-- Node17 -->
<g id="node17" class="node">
<title>Node17</title>
<g id="a_node17"><a xlink:title=" ">
<polygon fill="#e0e0e0" stroke="#999999" points="974.98,-74 917.98,-74 917.98,-55 974.98,-55 974.98,-74"/>
<text text-anchor="middle" x="946.48" y="-62" font-family="Helvetica,sans-Serif" font-size="10.00">ostream</text>
</a>
</g>
</g>
<!-- Node9&#45;&gt;Node17 -->
<g id="edge18" class="edge">
<title>Node9&#45;&gt;Node17</title>
<path fill="none" stroke="#63b8ff" d="M855.84,-109.98C873.05,-101.54 899.68,-88.47 919.63,-78.68"/>
<polygon fill="#63b8ff" stroke="#63b8ff" points="921.38,-81.72 928.82,-74.17 918.3,-75.43 921.38,-81.72"/>
</g>
<!-- Node18 -->
<g id="node18" class="node">
<title>Node18</title>
<g id="a_node18"><a xlink:href="../../db/d7c/utf8_8h.html" target="_top" xlink:title="Various UTF8 related helper functions.">
<polygon fill="white" stroke="#666666" points="860.98,-74 815.98,-74 815.98,-55 860.98,-55 860.98,-74"/>
<text text-anchor="middle" x="838.48" y="-62" font-family="Helvetica,sans-Serif" font-size="10.00">utf8.h</text>
</a>
</g>
</g>
<!-- Node9&#45;&gt;Node18 -->
<g id="edge19" class="edge">
<title>Node9&#45;&gt;Node18</title>
<path fill="none" stroke="#63b8ff" d="M838.48,-109.75C838.48,-102.8 838.48,-92.85 838.48,-84.13"/>
<polygon fill="#63b8ff" stroke="#63b8ff" points="841.98,-84.09 838.48,-74.09 834.98,-84.09 841.98,-84.09"/>
</g>
<!-- Node18&#45;&gt;Node10 -->
<g id="edge21" class="edge">
<title>Node18&#45;&gt;Node10</title>
<path fill="none" stroke="#63b8ff" d="M815.79,-58.25C811.07,-57.17 806.11,-56.04 801.48,-55 741.51,-41.5 671.41,-26.16 631.55,-17.47"/>
<polygon fill="#63b8ff" stroke="#63b8ff" points="632.13,-14.02 621.62,-15.31 630.64,-20.86 632.13,-14.02"/>
</g>
<!-- Node18&#45;&gt;Node16 -->
<g id="edge20" class="edge">
<title>Node18&#45;&gt;Node16</title>
<path fill="none" stroke="#63b8ff" d="M842.61,-54.75C846,-47.57 850.9,-37.18 855.1,-28.27"/>
<polygon fill="#63b8ff" stroke="#63b8ff" points="858.33,-29.63 859.43,-19.09 852,-26.64 858.33,-29.63"/>
</g>
<!-- Node19&#45;&gt;Node2 -->
<g id="edge24" class="edge">
<title>Node19&#45;&gt;Node2</title>
<path fill="none" stroke="#63b8ff" d="M135.66,-167.52C163.08,-158.97 214.06,-143.08 249.1,-132.15"/>
<polygon fill="#63b8ff" stroke="#63b8ff" points="250.47,-135.39 258.98,-129.08 248.39,-128.71 250.47,-135.39"/>
</g>
<!-- Node19&#45;&gt;Node10 -->
<g id="edge23" class="edge">
<title>Node19&#45;&gt;Node10</title>
<path fill="none" stroke="#63b8ff" d="M121.14,-164.62C128.87,-150.79 145.68,-124.19 167.48,-110 297.52,-25.38 490.63,-12.33 566.85,-10.61"/>
<polygon fill="#63b8ff" stroke="#63b8ff" points="567.29,-14.1 577.23,-10.43 567.17,-7.1 567.29,-14.1"/>
</g>
<!-- Node20 -->
<g id="node20" class="node">
<title>Node20</title>
<g id="a_node20"><a xlink:href="../../df/d45/fileinfo_8h.html" target="_top" xlink:title=" ">
<polygon fill="white" stroke="#666666" points="234.98,-129 175.98,-129 175.98,-110 234.98,-110 234.98,-129"/>
<text text-anchor="middle" x="205.48" y="-117" font-family="Helvetica,sans-Serif" font-size="10.00">fileinfo.h</text>
</a>
</g>
</g>
<!-- Node19&#45;&gt;Node20 -->
<g id="edge25" class="edge">
<title>Node19&#45;&gt;Node20</title>
<path fill="none" stroke="#63b8ff" d="M130.78,-164.98C144.59,-156.77 165.72,-144.18 182,-134.49"/>
<polygon fill="#63b8ff" stroke="#63b8ff" points="184.12,-137.29 190.92,-129.17 180.54,-131.28 184.12,-137.29"/>
</g>
<!-- Node20&#45;&gt;Node10 -->
<g id="edge26" class="edge">
<title>Node20&#45;&gt;Node10</title>
<path fill="none" stroke="#63b8ff" d="M235.1,-110.38C307.4,-90.56 492.47,-39.83 567.33,-19.31"/>
<polygon fill="#63b8ff" stroke="#63b8ff" points="568.42,-22.64 577.14,-16.62 566.57,-15.89 568.42,-22.64"/>
</g>
<!-- Node21&#45;&gt;Node2 -->
<g id="edge29" class="edge">
<title>Node21&#45;&gt;Node2</title>
<path fill="none" stroke="#63b8ff" d="M495.53,-384.86C465.44,-369.72 404.14,-335.98 363.48,-294 323.98,-253.21 317.96,-237.34 298.48,-184 293.19,-169.49 290.12,-152.22 288.41,-139.36"/>
<polygon fill="#63b8ff" stroke="#63b8ff" points="291.88,-138.89 287.24,-129.37 284.93,-139.71 291.88,-138.89"/>
</g>
<!-- Node22 -->
<g id="node22" class="node">
<title>Node22</title>
<g id="a_node22"><a xlink:href="../../df/da1/definition_8h.html" target="_top" xlink:title=" ">
<polygon fill="white" stroke="#666666" points="668.98,-294 597.98,-294 597.98,-275 668.98,-275 668.98,-294"/>
<text text-anchor="middle" x="633.48" y="-282" font-family="Helvetica,sans-Serif" font-size="10.00">definition.h</text>
</a>
</g>
</g>
<!-- Node21&#45;&gt;Node22 -->
<g id="edge30" class="edge">
<title>Node21&#45;&gt;Node22</title>
<path fill="none" stroke="#63b8ff" d="M523.3,-384.66C543.71,-366.3 590.91,-323.81 616.41,-300.87"/>
<polygon fill="#63b8ff" stroke="#63b8ff" points="618.77,-303.45 623.86,-294.16 614.09,-298.25 618.77,-303.45"/>
</g>
<!-- Node26 -->
<g id="node26" class="node">
<title>Node26</title>
<g id="a_node26"><a xlink:href="../../da/de1/linkedmap_8h.html" target="_top" xlink:title=" ">
<polygon fill="white" stroke="#666666" points="733.98,-184 656.98,-184 656.98,-165 733.98,-165 733.98,-184"/>
<text text-anchor="middle" x="695.48" y="-172" font-family="Helvetica,sans-Serif" font-size="10.00">linkedmap.h</text>
</a>
</g>
</g>
<!-- Node21&#45;&gt;Node26 -->
<g id="edge63" class="edge">
<title>Node21&#45;&gt;Node26</title>
<path fill="none" stroke="#63b8ff" d="M547.75,-387.17C578.9,-380.53 625.52,-368.32 662.48,-349 697.24,-330.83 704.54,-322.5 731.48,-294 757.02,-266.98 788.88,-252.31 770.48,-220 762.19,-205.43 747.03,-195.14 732.51,-188.15"/>
<polygon fill="#63b8ff" stroke="#63b8ff" points="733.7,-184.85 723.13,-184.02 730.88,-191.25 733.7,-184.85"/>
</g>
<!-- Node27 -->
<g id="node27" class="node">
<title>Node27</title>
<g id="a_node27"><a xlink:href="../../d6/d15/dirdef_8h.html" target="_top" xlink:title=" ">
<polygon fill="white" stroke="#666666" points="652.98,-349 599.98,-349 599.98,-330 652.98,-330 652.98,-349"/>
<text text-anchor="middle" x="626.48" y="-337" font-family="Helvetica,sans-Serif" font-size="10.00">dirdef.h</text>
</a>
</g>
</g>
<!-- Node21&#45;&gt;Node27 -->
<g id="edge47" class="edge">
<title>Node21&#45;&gt;Node27</title>
<path fill="none" stroke="#63b8ff" d="M531.64,-384.98C549.74,-376.5 577.77,-363.35 598.67,-353.54"/>
<polygon fill="#63b8ff" stroke="#63b8ff" points="600.43,-356.59 608,-349.17 597.46,-350.25 600.43,-356.59"/>
</g>
<!-- Node28 -->
<g id="node28" class="node">
<title>Node28</title>
<g id="a_node28"><a xlink:href="../../db/d51/layout_8h.html" target="_top" xlink:title=" ">
<polygon fill="white" stroke="#666666" points="541.48,-294 485.48,-294 485.48,-275 541.48,-275 541.48,-294"/>
<text text-anchor="middle" x="513.48" y="-282" font-family="Helvetica,sans-Serif" font-size="10.00">layout.h</text>
</a>
</g>
</g>
<!-- Node21&#45;&gt;Node28 -->
<g id="edge53" class="edge">
<title>Node21&#45;&gt;Node28</title>
<path fill="none" stroke="#63b8ff" d="M513.48,-384.66C513.48,-367.17 513.48,-327.8 513.48,-304.27"/>
<polygon fill="#63b8ff" stroke="#63b8ff" points="516.98,-304.16 513.48,-294.16 509.98,-304.16 516.98,-304.16"/>
</g>
<!-- Node29 -->
<g id="node29" class="node">
<title>Node29</title>
<g id="a_node29"><a xlink:href="../../d9/d11/membergroup_8h.html" target="_top" xlink:title=" ">
<polygon fill="white" stroke="#666666" points="466.98,-294 371.98,-294 371.98,-275 466.98,-275 466.98,-294"/>
<text text-anchor="middle" x="419.48" y="-282" font-family="Helvetica,sans-Serif" font-size="10.00">membergroup.h</text>
</a>
</g>
</g>
<!-- Node21&#45;&gt;Node29 -->
<g id="edge57" class="edge">
<title>Node21&#45;&gt;Node29</title>
<path fill="none" stroke="#63b8ff" d="M505.79,-384.66C490.02,-366.54 453.79,-324.91 433.65,-301.77"/>
<polygon fill="#63b8ff" stroke="#63b8ff" points="436.23,-299.4 427.02,-294.16 430.95,-304 436.23,-299.4"/>
</g>
<!-- Node22&#45;&gt;Node4 -->
<g id="edge31" class="edge">
<title>Node22&#45;&gt;Node4</title>
<path fill="none" stroke="#63b8ff" d="M620.83,-274.84C608.57,-266.25 589.65,-252.45 574.48,-239 536.25,-205.09 495.74,-160.66 474.84,-137"/>
<polygon fill="#63b8ff" stroke="#63b8ff" points="477.29,-134.49 468.06,-129.29 472.03,-139.11 477.29,-134.49"/>
</g>
<!-- Node23 -->
<g id="node23" class="node">
<title>Node23</title>
<g id="a_node23"><a xlink:href="../../d9/d49/types_8h.html" target="_top" xlink:title="This file contains a number of basic enums and types.">
<polygon fill="white" stroke="#666666" points="745.98,-239 692.98,-239 692.98,-220 745.98,-220 745.98,-239"/>
<text text-anchor="middle" x="719.48" y="-227" font-family="Helvetica,sans-Serif" font-size="10.00">types.h</text>
</a>
</g>
</g>
<!-- Node22&#45;&gt;Node23 -->
<g id="edge32" class="edge">
<title>Node22&#45;&gt;Node23</title>
<path fill="none" stroke="#63b8ff" d="M647.3,-274.98C660.64,-266.77 681.07,-254.18 696.79,-244.49"/>
<polygon fill="#63b8ff" stroke="#63b8ff" points="698.74,-247.4 705.42,-239.17 695.07,-241.44 698.74,-247.4"/>
</g>
<!-- Node24 -->
<g id="node24" class="node">
<title>Node24</title>
<g id="a_node24"><a xlink:href="../../d1/d02/reflist_8h.html" target="_top" xlink:title=" ">
<polygon fill="white" stroke="#666666" points="635.98,-239 582.98,-239 582.98,-220 635.98,-220 635.98,-239"/>
<text text-anchor="middle" x="609.48" y="-227" font-family="Helvetica,sans-Serif" font-size="10.00">reflist.h</text>
</a>
</g>
</g>
<!-- Node22&#45;&gt;Node24 -->
<g id="edge34" class="edge">
<title>Node22&#45;&gt;Node24</title>
<path fill="none" stroke="#63b8ff" d="M629.52,-274.75C626.27,-267.57 621.56,-257.18 617.53,-248.27"/>
<polygon fill="#63b8ff" stroke="#63b8ff" points="620.69,-246.75 613.37,-239.09 614.31,-249.64 620.69,-246.75"/>
</g>
<!-- Node23&#45;&gt;Node9 -->
<g id="edge33" class="edge">
<title>Node23&#45;&gt;Node9</title>
<path fill="none" stroke="#63b8ff" d="M746.16,-221.98C767.28,-215.56 796.17,-203.78 814.48,-184 825.98,-171.58 832.13,-153.11 835.32,-139.29"/>
<polygon fill="#63b8ff" stroke="#63b8ff" points="838.77,-139.9 837.28,-129.41 831.9,-138.53 838.77,-139.9"/>
</g>
<!-- Node24&#45;&gt;Node2 -->
<g id="edge37" class="edge">
<title>Node24&#45;&gt;Node2</title>
<path fill="none" stroke="#63b8ff" d="M583.87,-219.94C526.51,-200.76 387.63,-154.32 321.99,-132.37"/>
<polygon fill="#63b8ff" stroke="#63b8ff" points="322.7,-128.92 312.1,-129.07 320.48,-135.56 322.7,-128.92"/>
</g>
<!-- Node24&#45;&gt;Node4 -->
<g id="edge35" class="edge">
<title>Node24&#45;&gt;Node4</title>
<path fill="none" stroke="#63b8ff" d="M605.69,-219.94C599.36,-206.54 585.43,-180.53 566.48,-165 554.92,-155.52 520.57,-141.89 494.08,-132.22"/>
<polygon fill="#63b8ff" stroke="#63b8ff" points="494.97,-128.82 484.37,-128.72 492.59,-135.4 494.97,-128.82"/>
</g>
<!-- Node24&#45;&gt;Node9 -->
<g id="edge38" class="edge">
<title>Node24&#45;&gt;Node9</title>
<path fill="none" stroke="#63b8ff" d="M635.99,-221.96C663.63,-214.63 707.81,-201.45 743.48,-184 771.51,-170.29 800.95,-149.46 819.5,-135.43"/>
<polygon fill="#63b8ff" stroke="#63b8ff" points="821.87,-138.02 827.67,-129.15 817.61,-132.47 821.87,-138.02"/>
</g>
<!-- Node25 -->
<g id="node25" class="node">
<title>Node25</title>
<g id="a_node25"><a xlink:title=" ">
<polygon fill="#e0e0e0" stroke="#999999" points="594.98,-129 501.98,-129 501.98,-110 594.98,-110 594.98,-129"/>
<text text-anchor="middle" x="548.48" y="-117" font-family="Helvetica,sans-Serif" font-size="10.00">unordered_map</text>
</a>
</g>
</g>
<!-- Node24&#45;&gt;Node25 -->
<g id="edge36" class="edge">
<title>Node24&#45;&gt;Node25</title>
<path fill="none" stroke="#63b8ff" d="M610.9,-219.68C612.51,-206.83 613.83,-182.57 604.48,-165 597.72,-152.28 585.59,-141.96 574.34,-134.46"/>
<polygon fill="#63b8ff" stroke="#63b8ff" points="575.98,-131.36 565.63,-129.07 572.29,-137.31 575.98,-131.36"/>
</g>
<!-- Node24&#45;&gt;Node26 -->
<g id="edge39" class="edge">
<title>Node24&#45;&gt;Node26</title>
<path fill="none" stroke="#63b8ff" d="M623.3,-219.98C636.64,-211.77 657.07,-199.18 672.79,-189.49"/>
<polygon fill="#63b8ff" stroke="#63b8ff" points="674.74,-192.4 681.42,-184.17 671.07,-186.44 674.74,-192.4"/>
</g>
<!-- Node26&#45;&gt;Node2 -->
<g id="edge42" class="edge">
<title>Node26&#45;&gt;Node2</title>
<path fill="none" stroke="#63b8ff" d="M656.64,-168.47C578.59,-158.35 403.53,-135.67 325.41,-125.54"/>
<polygon fill="#63b8ff" stroke="#63b8ff" points="325.86,-122.07 315.5,-124.26 324.96,-129.02 325.86,-122.07"/>
</g>
<!-- Node26&#45;&gt;Node4 -->
<g id="edge41" class="edge">
<title>Node26&#45;&gt;Node4</title>
<path fill="none" stroke="#63b8ff" d="M656.67,-165.37C618,-157.18 556.69,-143.95 494.28,-129.12"/>
<polygon fill="#63b8ff" stroke="#63b8ff" points="494.79,-125.65 484.25,-126.73 493.17,-132.45 494.79,-125.65"/>
</g>
<!-- Node26&#45;&gt;Node9 -->
<g id="edge46" class="edge">
<title>Node26&#45;&gt;Node9</title>
<path fill="none" stroke="#63b8ff" d="M718.46,-164.98C741.98,-156.27 778.77,-142.63 805.42,-132.75"/>
<polygon fill="#63b8ff" stroke="#63b8ff" points="806.93,-135.93 815.09,-129.17 804.5,-129.36 806.93,-135.93"/>
</g>
<!-- Node26&#45;&gt;Node10 -->
<g id="edge43" class="edge">
<title>Node26&#45;&gt;Node10</title>
<path fill="none" stroke="#63b8ff" d="M687.21,-164.9C671.85,-148.49 638.71,-111.04 619.48,-74 612.07,-59.72 606.81,-42.19 603.55,-29.17"/>
<polygon fill="#63b8ff" stroke="#63b8ff" points="606.87,-28.03 601.19,-19.08 600.06,-29.62 606.87,-28.03"/>
</g>
<!-- Node26&#45;&gt;Node11 -->
<g id="edge44" class="edge">
<title>Node26&#45;&gt;Node11</title>
<path fill="none" stroke="#63b8ff" d="M698.1,-164.66C703.31,-147.09 715.06,-107.45 722.02,-83.95"/>
<polygon fill="#63b8ff" stroke="#63b8ff" points="725.43,-84.74 724.92,-74.16 718.72,-82.75 725.43,-84.74"/>
</g>
<!-- Node26&#45;&gt;Node12 -->
<g id="edge45" class="edge">
<title>Node26&#45;&gt;Node12</title>
<path fill="none" stroke="#63b8ff" d="M691.97,-164.66C684.94,-147.01 669.04,-107.09 659.7,-83.64"/>
<polygon fill="#63b8ff" stroke="#63b8ff" points="662.88,-82.15 655.93,-74.16 656.38,-84.74 662.88,-82.15"/>
</g>
<!-- Node26&#45;&gt;Node25 -->
<g id="edge40" class="edge">
<title>Node26&#45;&gt;Node25</title>
<path fill="none" stroke="#63b8ff" d="M671.87,-164.98C647.58,-156.23 609.53,-142.51 582.11,-132.62"/>
<polygon fill="#63b8ff" stroke="#63b8ff" points="583.13,-129.27 572.53,-129.17 580.75,-135.85 583.13,-129.27"/>
</g>
<!-- Node27&#45;&gt;Node4 -->
<g id="edge48" class="edge">
<title>Node27&#45;&gt;Node4</title>
<path fill="none" stroke="#63b8ff" d="M618.26,-329.91C596.77,-307.2 537.71,-243.29 496.48,-184 486.21,-169.22 476.25,-151.3 469.43,-138.26"/>
<polygon fill="#63b8ff" stroke="#63b8ff" points="472.36,-136.31 464.68,-129.01 466.13,-139.51 472.36,-136.31"/>
</g>
<!-- Node27&#45;&gt;Node5 -->
<g id="edge49" class="edge">
<title>Node27&#45;&gt;Node5</title>
<path fill="none" stroke="#63b8ff" d="M599.96,-335.84C552.07,-330.64 448.27,-317.52 363.48,-294 314.94,-280.54 260.91,-257.67 229.13,-243.36"/>
<polygon fill="#63b8ff" stroke="#63b8ff" points="230.56,-240.17 220.01,-239.22 227.66,-246.54 230.56,-240.17"/>
</g>
<!-- Node27&#45;&gt;Node9 -->
<g id="edge50" class="edge">
<title>Node27&#45;&gt;Node9</title>
<path fill="none" stroke="#63b8ff" d="M653.06,-330.67C675.27,-323.36 707.13,-311 731.48,-294 786.4,-255.66 807.93,-245.49 834.48,-184 840.58,-169.88 841.23,-152.34 840.55,-139.27"/>
<polygon fill="#63b8ff" stroke="#63b8ff" points="844.03,-138.82 839.72,-129.14 837.05,-139.39 844.03,-138.82"/>
</g>
<!-- Node27&#45;&gt;Node22 -->
<g id="edge52" class="edge">
<title>Node27&#45;&gt;Node22</title>
<path fill="none" stroke="#63b8ff" d="M627.64,-329.75C628.56,-322.8 629.87,-312.85 631.02,-304.13"/>
<polygon fill="#63b8ff" stroke="#63b8ff" points="634.51,-304.46 632.35,-294.09 627.57,-303.54 634.51,-304.46"/>
</g>
<!-- Node27&#45;&gt;Node26 -->
<g id="edge51" class="edge">
<title>Node27&#45;&gt;Node26</title>
<path fill="none" stroke="#63b8ff" d="M646.9,-329.94C677.15,-316 732.77,-285.2 755.48,-239 765.41,-218.82 743.7,-200.71 723.68,-189.04"/>
<polygon fill="#63b8ff" stroke="#63b8ff" points="725.17,-185.87 714.72,-184.15 721.82,-192.02 725.17,-185.87"/>
</g>
<!-- Node28&#45;&gt;Node2 -->
<g id="edge54" class="edge">
<title>Node28&#45;&gt;Node2</title>
<path fill="none" stroke="#63b8ff" d="M501.6,-274.97C464.91,-248.62 353.13,-168.35 306.86,-135.13"/>
<polygon fill="#63b8ff" stroke="#63b8ff" points="308.69,-132.14 298.53,-129.15 304.61,-137.82 308.69,-132.14"/>
</g>
<!-- Node28&#45;&gt;Node4 -->
<g id="edge55" class="edge">
<title>Node28&#45;&gt;Node4</title>
<path fill="none" stroke="#63b8ff" d="M497.83,-274.84C485.72,-267.18 469.82,-254.77 462.48,-239 447.36,-206.46 451.91,-163.27 456.35,-139.03"/>
<polygon fill="#63b8ff" stroke="#63b8ff" points="459.82,-139.56 458.38,-129.06 452.96,-138.17 459.82,-139.56"/>
</g>
<!-- Node28&#45;&gt;Node23 -->
<g id="edge56" class="edge">
<title>Node28&#45;&gt;Node23</title>
<path fill="none" stroke="#63b8ff" d="M541.7,-276.24C578.47,-266.78 642.84,-250.22 683.2,-239.83"/>
<polygon fill="#63b8ff" stroke="#63b8ff" points="684.11,-243.22 692.92,-237.34 682.36,-236.44 684.11,-243.22"/>
</g>
<!-- Node29&#45;&gt;Node2 -->
<g id="edge60" class="edge">
<title>Node29&#45;&gt;Node2</title>
<path fill="none" stroke="#63b8ff" d="M400.04,-274.86C384.55,-267.21 363.1,-254.8 348.48,-239 320.6,-208.86 301.66,-163.82 292.61,-138.84"/>
<polygon fill="#63b8ff" stroke="#63b8ff" points="295.84,-137.48 289.24,-129.19 289.23,-139.78 295.84,-137.48"/>
</g>
<!-- Node29&#45;&gt;Node4 -->
<g id="edge58" class="edge">
<title>Node29&#45;&gt;Node4</title>
<path fill="none" stroke="#63b8ff" d="M418.05,-274.8C415.12,-254.69 409.86,-203.72 424.48,-165 428.46,-154.49 435.94,-144.58 443.07,-136.79"/>
<polygon fill="#63b8ff" stroke="#63b8ff" points="445.96,-138.84 450.47,-129.25 440.97,-133.93 445.96,-138.84"/>
</g>
<!-- Node29&#45;&gt;Node5 -->
<g id="edge59" class="edge">
<title>Node29&#45;&gt;Node5</title>
<path fill="none" stroke="#63b8ff" d="M384.46,-274.98C341.7,-264.59 270.19,-247.2 230.41,-237.53"/>
<polygon fill="#63b8ff" stroke="#63b8ff" points="231.09,-234.1 220.55,-235.13 229.44,-240.9 231.09,-234.1"/>
</g>
<!-- Node29&#45;&gt;Node23 -->
<g id="edge61" class="edge">
<title>Node29&#45;&gt;Node23</title>
<path fill="none" stroke="#63b8ff" d="M467.31,-275.79C519.35,-267.28 604.97,-252.93 678.48,-239 679.77,-238.76 681.08,-238.5 682.4,-238.25"/>
<polygon fill="#63b8ff" stroke="#63b8ff" points="683.48,-241.6 692.6,-236.21 682.11,-234.74 683.48,-241.6"/>
</g>
<!-- Node29&#45;&gt;Node24 -->
<g id="edge62" class="edge">
<title>Node29&#45;&gt;Node24</title>
<path fill="none" stroke="#63b8ff" d="M450.01,-274.98C483.43,-265.66 536.99,-250.72 572.7,-240.76"/>
<polygon fill="#63b8ff" stroke="#63b8ff" points="574.03,-244.02 582.72,-237.97 572.15,-237.28 574.03,-244.02"/>
</g>
</g>
</svg>
