<?xml version="1.0" encoding="UTF-8" standalone="no"?>
<!DOCTYPE svg PUBLIC "-//W3C//DTD SVG 1.1//EN"
 "http://www.w3.org/Graphics/SVG/1.1/DTD/svg11.dtd">
<!-- Generated by graphviz version 2.43.0 (0)
 -->
<!-- Title: /home/runner/work/doxygen/doxygen/src/devnullgen.h Pages: 1 -->
<svg width="6457pt" height="170pt"
 viewBox="0.00 0.00 6457.00 170.00" xmlns="http://www.w3.org/2000/svg" xmlns:xlink="http://www.w3.org/1999/xlink">
<g id="graph0" class="graph" transform="scale(1 1) rotate(0) translate(4 166)">
<title>/home/runner/work/doxygen/doxygen/src/devnullgen.h</title>
<!-- Node1 -->
<g id="node1" class="node">
<title>Node1</title>
<g id="a_node1"><a xlink:title=" ">
<polygon fill="#999999" stroke="#666666" points="3298,-162 3144,-162 3144,-132 3298,-132 3298,-162"/>
<text text-anchor="start" x="3152" y="-150" font-family="Helvetica,sans-Serif" font-size="10.00">/home/runner/work/doxygen</text>
<text text-anchor="middle" x="3221" y="-139" font-family="Helvetica,sans-Serif" font-size="10.00">/doxygen/src/devnullgen.h</text>
</a>
</g>
</g>
<!-- Node2 -->
<g id="node2" class="node">
<title>Node2</title>
<g id="a_node2"><a xlink:href="../../d2/db9/outputlist_8h.html" target="_top" xlink:title=" ">
<polygon fill="white" stroke="#666666" points="3298,-96 3144,-96 3144,-66 3298,-66 3298,-96"/>
<text text-anchor="start" x="3152" y="-84" font-family="Helvetica,sans-Serif" font-size="10.00">/home/runner/work/doxygen</text>
<text text-anchor="middle" x="3221" y="-73" font-family="Helvetica,sans-Serif" font-size="10.00">/doxygen/src/outputlist.h</text>
</a>
</g>
</g>
<!-- Node1&#45;&gt;Node2 -->
<g id="edge1" class="edge">
<title>Node1&#45;&gt;Node2</title>
<path fill="none" stroke="#63b8ff" d="M3221,-121.54C3221,-112.96 3221,-103.61 3221,-96.16"/>
<polygon fill="#63b8ff" stroke="#63b8ff" points="3217.5,-121.8 3221,-131.8 3224.5,-121.8 3217.5,-121.8"/>
</g>
<!-- Node3 -->
<g id="node3" class="node">
<title>Node3</title>
<g id="a_node3"><a xlink:href="../../de/d89/classdef_8cpp.html" target="_top" xlink:title=" ">
<polygon fill="white" stroke="#666666" points="154,-30 0,-30 0,0 154,0 154,-30"/>
<text text-anchor="start" x="8" y="-18" font-family="Helvetica,sans-Serif" font-size="10.00">/home/runner/work/doxygen</text>
<text text-anchor="middle" x="77" y="-7" font-family="Helvetica,sans-Serif" font-size="10.00">/doxygen/src/classdef.cpp</text>
</a>
</g>
</g>
<!-- Node2&#45;&gt;Node3 -->
<g id="edge2" class="edge">
<title>Node2&#45;&gt;Node3</title>
<path fill="none" stroke="#63b8ff" d="M3133.67,-80.28C2698.65,-81.44 762.54,-83.42 163,-30 160.14,-29.74 157.23,-29.45 154.29,-29.12"/>
<polygon fill="#63b8ff" stroke="#63b8ff" points="3133.99,-83.78 3143.98,-80.26 3133.97,-76.78 3133.99,-83.78"/>
</g>
<!-- Node4 -->
<g id="node4" class="node">
<title>Node4</title>
<g id="a_node4"><a xlink:href="../../d6/d10/classlist_8cpp.html" target="_top" xlink:title=" ">
<polygon fill="white" stroke="#666666" points="326,-30 172,-30 172,0 326,0 326,-30"/>
<text text-anchor="start" x="180" y="-18" font-family="Helvetica,sans-Serif" font-size="10.00">/home/runner/work/doxygen</text>
<text text-anchor="middle" x="249" y="-7" font-family="Helvetica,sans-Serif" font-size="10.00">/doxygen/src/classlist.cpp</text>
</a>
</g>
</g>
<!-- Node2&#45;&gt;Node4 -->
<g id="edge3" class="edge">
<title>Node2&#45;&gt;Node4</title>
<path fill="none" stroke="#63b8ff" d="M3133.5,-80.18C2713.16,-80.81 898.5,-80.48 335,-30 332.14,-29.74 329.23,-29.45 326.29,-29.12"/>
<polygon fill="#63b8ff" stroke="#63b8ff" points="3133.76,-83.68 3143.76,-80.17 3133.75,-76.68 3133.76,-83.68"/>
</g>
<!-- Node5 -->
<g id="node5" class="node">
<title>Node5</title>
<g id="a_node5"><a xlink:href="../../da/d1f/code_8l.html" target="_top" xlink:title=" ">
<polygon fill="white" stroke="#666666" points="498,-30 344,-30 344,0 498,0 498,-30"/>
<text text-anchor="start" x="352" y="-18" font-family="Helvetica,sans-Serif" font-size="10.00">/home/runner/work/doxygen</text>
<text text-anchor="middle" x="421" y="-7" font-family="Helvetica,sans-Serif" font-size="10.00">/doxygen/src/code.l</text>
</a>
</g>
</g>
<!-- Node2&#45;&gt;Node5 -->
<g id="edge4" class="edge">
<title>Node2&#45;&gt;Node5</title>
<path fill="none" stroke="#63b8ff" d="M3133.8,-80.07C2729.49,-80.15 1034.73,-77.57 507,-30 504.14,-29.74 501.23,-29.45 498.29,-29.12"/>
<polygon fill="#63b8ff" stroke="#63b8ff" points="3133.96,-83.57 3143.96,-80.07 3133.96,-76.57 3133.96,-83.57"/>
</g>
<!-- Node6 -->
<g id="node6" class="node">
<title>Node6</title>
<g id="a_node6"><a xlink:href="../../d8/d0a/conceptdef_8cpp.html" target="_top" xlink:title=" ">
<polygon fill="white" stroke="#666666" points="671.5,-30 516.5,-30 516.5,0 671.5,0 671.5,-30"/>
<text text-anchor="start" x="524.5" y="-18" font-family="Helvetica,sans-Serif" font-size="10.00">/home/runner/work/doxygen</text>
<text text-anchor="middle" x="594" y="-7" font-family="Helvetica,sans-Serif" font-size="10.00">/doxygen/src/conceptdef.cpp</text>
</a>
</g>
</g>
<!-- Node2&#45;&gt;Node6 -->
<g id="edge5" class="edge">
<title>Node2&#45;&gt;Node6</title>
<path fill="none" stroke="#63b8ff" d="M3133.71,-79.92C2745.4,-79.32 1172.49,-74.16 681,-30 677.95,-29.73 674.85,-29.41 671.72,-29.06"/>
<polygon fill="#63b8ff" stroke="#63b8ff" points="3133.75,-83.42 3143.76,-79.94 3133.76,-76.42 3133.75,-83.42"/>
</g>
<!-- Node7 -->
<g id="node7" class="node">
<title>Node7</title>
<g id="a_node7"><a xlink:href="../../db/d12/context_8cpp.html" target="_top" xlink:title=" ">
<polygon fill="white" stroke="#666666" points="844,-30 690,-30 690,0 844,0 844,-30"/>
<text text-anchor="start" x="698" y="-18" font-family="Helvetica,sans-Serif" font-size="10.00">/home/runner/work/doxygen</text>
<text text-anchor="middle" x="767" y="-7" font-family="Helvetica,sans-Serif" font-size="10.00">/doxygen/src/context.cpp</text>
</a>
</g>
</g>
<!-- Node2&#45;&gt;Node7 -->
<g id="edge6" class="edge">
<title>Node2&#45;&gt;Node7</title>
<path fill="none" stroke="#63b8ff" d="M3133.57,-79.8C2761.56,-78.68 1308.64,-71.69 853,-30 850.14,-29.74 847.23,-29.44 844.29,-29.11"/>
<polygon fill="#63b8ff" stroke="#63b8ff" points="3133.73,-83.3 3143.74,-79.83 3133.75,-76.3 3133.73,-83.3"/>
</g>
<!-- Node8 -->
<g id="node8" class="node">
<title>Node8</title>
<g id="a_node8"><a xlink:href="../../d3/dea/definition_8cpp.html" target="_top" xlink:title=" ">
<polygon fill="white" stroke="#666666" points="1016,-30 862,-30 862,0 1016,0 1016,-30"/>
<text text-anchor="start" x="870" y="-18" font-family="Helvetica,sans-Serif" font-size="10.00">/home/runner/work/doxygen</text>
<text text-anchor="middle" x="939" y="-7" font-family="Helvetica,sans-Serif" font-size="10.00">/doxygen/src/definition.cpp</text>
</a>
</g>
</g>
<!-- Node2&#45;&gt;Node8 -->
<g id="edge7" class="edge">
<title>Node2&#45;&gt;Node8</title>
<path fill="none" stroke="#63b8ff" d="M3133.54,-79.63C2778.65,-77.87 1444.97,-68.78 1025,-30 1022.14,-29.74 1019.23,-29.43 1016.29,-29.1"/>
<polygon fill="#63b8ff" stroke="#63b8ff" points="3133.74,-83.13 3143.76,-79.68 3133.77,-76.13 3133.74,-83.13"/>
</g>
<!-- Node9 -->
<g id="node9" class="node">
<title>Node9</title>
<g id="a_node9"><a xlink:href="../../d8/d52/dirdef_8cpp.html" target="_top" xlink:title=" ">
<polygon fill="white" stroke="#666666" points="1188,-30 1034,-30 1034,0 1188,0 1188,-30"/>
<text text-anchor="start" x="1042" y="-18" font-family="Helvetica,sans-Serif" font-size="10.00">/home/runner/work/doxygen</text>
<text text-anchor="middle" x="1111" y="-7" font-family="Helvetica,sans-Serif" font-size="10.00">/doxygen/src/dirdef.cpp</text>
</a>
</g>
</g>
<!-- Node2&#45;&gt;Node9 -->
<g id="edge8" class="edge">
<title>Node2&#45;&gt;Node9</title>
<path fill="none" stroke="#63b8ff" d="M3133.75,-79.43C2796.99,-77 1581.49,-65.88 1197,-30 1194.14,-29.73 1191.23,-29.43 1188.29,-29.09"/>
<polygon fill="#63b8ff" stroke="#63b8ff" points="3133.91,-82.93 3143.94,-79.51 3133.96,-75.93 3133.91,-82.93"/>
</g>
<!-- Node10 -->
<g id="node10" class="node">
<title>Node10</title>
<g id="a_node10"><a xlink:href="../../d8/d29/docbookgen_8cpp.html" target="_top" xlink:title=" ">
<polygon fill="white" stroke="#666666" points="1367.5,-30 1206.5,-30 1206.5,0 1367.5,0 1367.5,-30"/>
<text text-anchor="start" x="1214.5" y="-18" font-family="Helvetica,sans-Serif" font-size="10.00">/home/runner/work/doxygen</text>
<text text-anchor="middle" x="1287" y="-7" font-family="Helvetica,sans-Serif" font-size="10.00">/doxygen/src/docbookgen.cpp</text>
</a>
</g>
</g>
<!-- Node2&#45;&gt;Node10 -->
<g id="edge9" class="edge">
<title>Node2&#45;&gt;Node10</title>
<path fill="none" stroke="#63b8ff" d="M3133.92,-79.11C2816.86,-75.64 1724.56,-61.61 1377,-30 1374.01,-29.73 1370.96,-29.42 1367.89,-29.08"/>
<polygon fill="#63b8ff" stroke="#63b8ff" points="3133.93,-82.61 3143.97,-79.22 3134.01,-75.61 3133.93,-82.61"/>
</g>
<!-- Node11 -->
<g id="node11" class="node">
<title>Node11</title>
<g id="a_node11"><a xlink:href="../../dc/d98/doxygen_8cpp.html" target="_top" xlink:title=" ">
<polygon fill="white" stroke="#666666" points="1540,-30 1386,-30 1386,0 1540,0 1540,-30"/>
<text text-anchor="start" x="1394" y="-18" font-family="Helvetica,sans-Serif" font-size="10.00">/home/runner/work/doxygen</text>
<text text-anchor="middle" x="1463" y="-7" font-family="Helvetica,sans-Serif" font-size="10.00">/doxygen/src/doxygen.cpp</text>
</a>
</g>
</g>
<!-- Node2&#45;&gt;Node11 -->
<g id="edge10" class="edge">
<title>Node2&#45;&gt;Node11</title>
<path fill="none" stroke="#63b8ff" d="M3133.4,-78.9C2835.22,-74.93 1860.94,-59.92 1549,-30 1546.14,-29.73 1543.23,-29.41 1540.29,-29.07"/>
<polygon fill="#63b8ff" stroke="#63b8ff" points="3133.67,-82.41 3143.72,-79.04 3133.77,-75.41 3133.67,-82.41"/>
</g>
<!-- Node12 -->
<g id="node12" class="node">
<title>Node12</title>
<g id="a_node12"><a xlink:href="../../d6/ddc/filedef_8cpp.html" target="_top" xlink:title=" ">
<polygon fill="white" stroke="#666666" points="1712,-30 1558,-30 1558,0 1712,0 1712,-30"/>
<text text-anchor="start" x="1566" y="-18" font-family="Helvetica,sans-Serif" font-size="10.00">/home/runner/work/doxygen</text>
<text text-anchor="middle" x="1635" y="-7" font-family="Helvetica,sans-Serif" font-size="10.00">/doxygen/src/filedef.cpp</text>
</a>
</g>
</g>
<!-- Node2&#45;&gt;Node12 -->
<g id="edge11" class="edge">
<title>Node2&#45;&gt;Node12</title>
<path fill="none" stroke="#63b8ff" d="M3133.54,-78.56C2856.11,-73.75 1997.82,-57.03 1721,-30 1718.14,-29.72 1715.23,-29.41 1712.29,-29.06"/>
<polygon fill="#63b8ff" stroke="#63b8ff" points="3133.5,-82.06 3143.56,-78.73 3133.62,-75.06 3133.5,-82.06"/>
</g>
<!-- Node13 -->
<g id="node13" class="node">
<title>Node13</title>
<g id="a_node13"><a xlink:href="../../d9/d74/fileparser_8cpp.html" target="_top" xlink:title=" ">
<polygon fill="white" stroke="#666666" points="1884,-30 1730,-30 1730,0 1884,0 1884,-30"/>
<text text-anchor="start" x="1738" y="-18" font-family="Helvetica,sans-Serif" font-size="10.00">/home/runner/work/doxygen</text>
<text text-anchor="middle" x="1807" y="-7" font-family="Helvetica,sans-Serif" font-size="10.00">/doxygen/src/fileparser.cpp</text>
</a>
</g>
</g>
<!-- Node2&#45;&gt;Node13 -->
<g id="edge12" class="edge">
<title>Node2&#45;&gt;Node13</title>
<path fill="none" stroke="#63b8ff" d="M3133.5,-80.44C2920.61,-80.7 2358.87,-76.51 1893,-30 1890.14,-29.71 1887.23,-29.39 1884.3,-29.05"/>
<polygon fill="#63b8ff" stroke="#63b8ff" points="3133.69,-83.94 3143.68,-80.42 3133.67,-76.94 3133.69,-83.94"/>
</g>
<!-- Node14 -->
<g id="node14" class="node">
<title>Node14</title>
<g id="a_node14"><a xlink:href="../../d9/d5b/fortrancode_8l.html" target="_top" xlink:title=" ">
<polygon fill="white" stroke="#666666" points="2056,-30 1902,-30 1902,0 2056,0 2056,-30"/>
<text text-anchor="start" x="1910" y="-18" font-family="Helvetica,sans-Serif" font-size="10.00">/home/runner/work/doxygen</text>
<text text-anchor="middle" x="1979" y="-7" font-family="Helvetica,sans-Serif" font-size="10.00">/doxygen/src/fortrancode.l</text>
</a>
</g>
</g>
<!-- Node2&#45;&gt;Node14 -->
<g id="edge13" class="edge">
<title>Node2&#45;&gt;Node14</title>
<path fill="none" stroke="#63b8ff" d="M3133.56,-79.74C2940.33,-78.39 2462.55,-70.81 2065,-30 2062.14,-29.71 2059.23,-29.38 2056.3,-29.03"/>
<polygon fill="#63b8ff" stroke="#63b8ff" points="3133.64,-83.24 3143.66,-79.8 3133.68,-76.24 3133.64,-83.24"/>
</g>
<!-- Node15 -->
<g id="node15" class="node">
<title>Node15</title>
<g id="a_node15"><a xlink:href="../../db/d41/ftvhelp_8cpp.html" target="_top" xlink:title=" ">
<polygon fill="white" stroke="#666666" points="2228,-30 2074,-30 2074,0 2228,0 2228,-30"/>
<text text-anchor="start" x="2082" y="-18" font-family="Helvetica,sans-Serif" font-size="10.00">/home/runner/work/doxygen</text>
<text text-anchor="middle" x="2151" y="-7" font-family="Helvetica,sans-Serif" font-size="10.00">/doxygen/src/ftvhelp.cpp</text>
</a>
</g>
</g>
<!-- Node2&#45;&gt;Node15 -->
<g id="edge14" class="edge">
<title>Node2&#45;&gt;Node15</title>
<path fill="none" stroke="#63b8ff" d="M3133.9,-78.81C2961.97,-75.73 2567,-65.14 2237,-30 2234.14,-29.7 2231.23,-29.36 2228.3,-29"/>
<polygon fill="#63b8ff" stroke="#63b8ff" points="3133.85,-82.3 3143.91,-78.98 3133.97,-75.31 3133.85,-82.3"/>
</g>
<!-- Node16 -->
<g id="node16" class="node">
<title>Node16</title>
<g id="a_node16"><a xlink:href="../../d6/d42/groupdef_8cpp.html" target="_top" xlink:title=" ">
<polygon fill="white" stroke="#666666" points="2400,-30 2246,-30 2246,0 2400,0 2400,-30"/>
<text text-anchor="start" x="2254" y="-18" font-family="Helvetica,sans-Serif" font-size="10.00">/home/runner/work/doxygen</text>
<text text-anchor="middle" x="2323" y="-7" font-family="Helvetica,sans-Serif" font-size="10.00">/doxygen/src/groupdef.cpp</text>
</a>
</g>
</g>
<!-- Node2&#45;&gt;Node16 -->
<g id="edge15" class="edge">
<title>Node2&#45;&gt;Node16</title>
<path fill="none" stroke="#63b8ff" d="M3133.8,-77.49C2984.84,-72.56 2671.93,-59.42 2409,-30 2406.14,-29.68 2403.24,-29.33 2400.3,-28.96"/>
<polygon fill="#63b8ff" stroke="#63b8ff" points="3133.7,-80.99 3143.81,-77.81 3133.93,-73.99 3133.7,-80.99"/>
</g>
<!-- Node17 -->
<g id="node17" class="node">
<title>Node17</title>
<g id="a_node17"><a xlink:href="../../da/db0/htmldocvisitor_8cpp.html" target="_top" xlink:title=" ">
<polygon fill="white" stroke="#666666" points="2590,-30 2418,-30 2418,0 2590,0 2590,-30"/>
<text text-anchor="start" x="2426" y="-18" font-family="Helvetica,sans-Serif" font-size="10.00">/home/runner/work/doxygen</text>
<text text-anchor="middle" x="2504" y="-7" font-family="Helvetica,sans-Serif" font-size="10.00">/doxygen/src/htmldocvisitor.cpp</text>
</a>
</g>
</g>
<!-- Node2&#45;&gt;Node17 -->
<g id="edge16" class="edge">
<title>Node2&#45;&gt;Node17</title>
<path fill="none" stroke="#63b8ff" d="M3133.48,-74.79C3012.92,-67.21 2789.1,-51.62 2599,-30 2596.1,-29.67 2593.15,-29.32 2590.18,-28.95"/>
<polygon fill="#63b8ff" stroke="#63b8ff" points="3133.55,-78.31 3143.75,-75.44 3133.99,-71.32 3133.55,-78.31"/>
</g>
<!-- Node18 -->
<g id="node18" class="node">
<title>Node18</title>
<g id="a_node18"><a xlink:href="../../d8/d6e/htmlgen_8cpp.html" target="_top" xlink:title=" ">
<polygon fill="white" stroke="#666666" points="2762,-30 2608,-30 2608,0 2762,0 2762,-30"/>
<text text-anchor="start" x="2616" y="-18" font-family="Helvetica,sans-Serif" font-size="10.00">/home/runner/work/doxygen</text>
<text text-anchor="middle" x="2685" y="-7" font-family="Helvetica,sans-Serif" font-size="10.00">/doxygen/src/htmlgen.cpp</text>
</a>
</g>
</g>
<!-- Node2&#45;&gt;Node18 -->
<g id="edge17" class="edge">
<title>Node2&#45;&gt;Node18</title>
<path fill="none" stroke="#63b8ff" d="M3133.64,-71.62C3042.86,-62.6 2896.74,-47.21 2771,-30 2768.15,-29.61 2765.25,-29.2 2762.33,-28.78"/>
<polygon fill="#63b8ff" stroke="#63b8ff" points="3133.32,-75.1 3143.61,-72.61 3134.01,-68.14 3133.32,-75.1"/>
</g>
<!-- Node19 -->
<g id="node19" class="node">
<title>Node19</title>
<g id="a_node19"><a xlink:href="../../db/d14/index_8cpp.html" target="_top" xlink:title="This file contains functions for the various index pages.">
<polygon fill="white" stroke="#666666" points="2934,-30 2780,-30 2780,0 2934,0 2934,-30"/>
<text text-anchor="start" x="2788" y="-18" font-family="Helvetica,sans-Serif" font-size="10.00">/home/runner/work/doxygen</text>
<text text-anchor="middle" x="2857" y="-7" font-family="Helvetica,sans-Serif" font-size="10.00">/doxygen/src/index.cpp</text>
</a>
</g>
</g>
<!-- Node2&#45;&gt;Node19 -->
<g id="edge18" class="edge">
<title>Node2&#45;&gt;Node19</title>
<path fill="none" stroke="#63b8ff" d="M3133.84,-64.67C3073.01,-53.98 2992.57,-39.84 2934.08,-29.55"/>
<polygon fill="#63b8ff" stroke="#63b8ff" points="3133.35,-68.14 3143.8,-66.43 3134.56,-61.25 3133.35,-68.14"/>
</g>
<!-- Node20 -->
<g id="node20" class="node">
<title>Node20</title>
<g id="a_node20"><a xlink:href="../../d1/d4e/latexdocvisitor_8cpp.html" target="_top" xlink:title=" ">
<polygon fill="white" stroke="#666666" points="3126,-30 2952,-30 2952,0 3126,0 3126,-30"/>
<text text-anchor="start" x="2960" y="-18" font-family="Helvetica,sans-Serif" font-size="10.00">/home/runner/work/doxygen</text>
<text text-anchor="middle" x="3039" y="-7" font-family="Helvetica,sans-Serif" font-size="10.00">/doxygen/src/latexdocvisitor.cpp</text>
</a>
</g>
</g>
<!-- Node2&#45;&gt;Node20 -->
<g id="edge19" class="edge">
<title>Node2&#45;&gt;Node20</title>
<path fill="none" stroke="#63b8ff" d="M3171.49,-62.59C3142.39,-52.36 3106.09,-39.59 3078.85,-30.01"/>
<polygon fill="#63b8ff" stroke="#63b8ff" points="3170.46,-65.94 3181.06,-65.95 3172.79,-59.34 3170.46,-65.94"/>
</g>
<!-- Node21 -->
<g id="node21" class="node">
<title>Node21</title>
<g id="a_node21"><a xlink:href="../../d4/d42/latexgen_8cpp.html" target="_top" xlink:title=" ">
<polygon fill="white" stroke="#666666" points="3298,-30 3144,-30 3144,0 3298,0 3298,-30"/>
<text text-anchor="start" x="3152" y="-18" font-family="Helvetica,sans-Serif" font-size="10.00">/home/runner/work/doxygen</text>
<text text-anchor="middle" x="3221" y="-7" font-family="Helvetica,sans-Serif" font-size="10.00">/doxygen/src/latexgen.cpp</text>
</a>
</g>
</g>
<!-- Node2&#45;&gt;Node21 -->
<g id="edge20" class="edge">
<title>Node2&#45;&gt;Node21</title>
<path fill="none" stroke="#63b8ff" d="M3221,-55.54C3221,-46.96 3221,-37.61 3221,-30.16"/>
<polygon fill="#63b8ff" stroke="#63b8ff" points="3217.5,-55.8 3221,-65.8 3224.5,-55.8 3217.5,-55.8"/>
</g>
<!-- Node22 -->
<g id="node22" class="node">
<title>Node22</title>
<g id="a_node22"><a xlink:href="../../d0/d7e/lexcode_8l.html" target="_top" xlink:title=" ">
<polygon fill="white" stroke="#666666" points="3470,-30 3316,-30 3316,0 3470,0 3470,-30"/>
<text text-anchor="start" x="3324" y="-18" font-family="Helvetica,sans-Serif" font-size="10.00">/home/runner/work/doxygen</text>
<text text-anchor="middle" x="3393" y="-7" font-family="Helvetica,sans-Serif" font-size="10.00">/doxygen/src/lexcode.l</text>
</a>
</g>
</g>
<!-- Node2&#45;&gt;Node22 -->
<g id="edge21" class="edge">
<title>Node2&#45;&gt;Node22</title>
<path fill="none" stroke="#63b8ff" d="M3268.15,-62.46C3295.59,-52.25 3329.71,-39.55 3355.34,-30.01"/>
<polygon fill="#63b8ff" stroke="#63b8ff" points="3266.9,-59.19 3258.75,-65.95 3269.34,-65.75 3266.9,-59.19"/>
</g>
<!-- Node23 -->
<g id="node23" class="node">
<title>Node23</title>
<g id="a_node23"><a xlink:href="../../d7/de7/mangen_8cpp.html" target="_top" xlink:title=" ">
<polygon fill="white" stroke="#666666" points="3642,-30 3488,-30 3488,0 3642,0 3642,-30"/>
<text text-anchor="start" x="3496" y="-18" font-family="Helvetica,sans-Serif" font-size="10.00">/home/runner/work/doxygen</text>
<text text-anchor="middle" x="3565" y="-7" font-family="Helvetica,sans-Serif" font-size="10.00">/doxygen/src/mangen.cpp</text>
</a>
</g>
</g>
<!-- Node2&#45;&gt;Node23 -->
<g id="edge22" class="edge">
<title>Node2&#45;&gt;Node23</title>
<path fill="none" stroke="#63b8ff" d="M3306.43,-64.11C3362.67,-53.64 3435.62,-40.07 3489.68,-30.01"/>
<polygon fill="#63b8ff" stroke="#63b8ff" points="3305.68,-60.68 3296.49,-65.95 3306.96,-67.57 3305.68,-60.68"/>
</g>
<!-- Node24 -->
<g id="node24" class="node">
<title>Node24</title>
<g id="a_node24"><a xlink:href="../../d0/d72/memberdef_8cpp.html" target="_top" xlink:title=" ">
<polygon fill="white" stroke="#666666" points="3818,-30 3660,-30 3660,0 3818,0 3818,-30"/>
<text text-anchor="start" x="3668" y="-18" font-family="Helvetica,sans-Serif" font-size="10.00">/home/runner/work/doxygen</text>
<text text-anchor="middle" x="3739" y="-7" font-family="Helvetica,sans-Serif" font-size="10.00">/doxygen/src/memberdef.cpp</text>
</a>
</g>
</g>
<!-- Node2&#45;&gt;Node24 -->
<g id="edge23" class="edge">
<title>Node2&#45;&gt;Node24</title>
<path fill="none" stroke="#63b8ff" d="M3308.11,-70.96C3395.07,-61.67 3532.47,-46.31 3651,-30 3653.91,-29.6 3656.88,-29.18 3659.87,-28.75"/>
<polygon fill="#63b8ff" stroke="#63b8ff" points="3307.6,-67.49 3298.02,-72.03 3308.34,-74.45 3307.6,-67.49"/>
</g>
<!-- Node25 -->
<g id="node25" class="node">
<title>Node25</title>
<g id="a_node25"><a xlink:href="../../d6/d18/membergroup_8cpp.html" target="_top" xlink:title=" ">
<polygon fill="white" stroke="#666666" points="4007.5,-30 3836.5,-30 3836.5,0 4007.5,0 4007.5,-30"/>
<text text-anchor="start" x="3844.5" y="-18" font-family="Helvetica,sans-Serif" font-size="10.00">/home/runner/work/doxygen</text>
<text text-anchor="middle" x="3922" y="-7" font-family="Helvetica,sans-Serif" font-size="10.00">/doxygen/src/membergroup.cpp</text>
</a>
</g>
</g>
<!-- Node2&#45;&gt;Node25 -->
<g id="edge24" class="edge">
<title>Node2&#45;&gt;Node25</title>
<path fill="none" stroke="#63b8ff" d="M3308.22,-74.56C3426.12,-66.81 3642.8,-51.15 3827,-30 3830.06,-29.65 3833.18,-29.27 3836.33,-28.88"/>
<polygon fill="#63b8ff" stroke="#63b8ff" points="3307.91,-71.08 3298.16,-75.22 3308.37,-78.06 3307.91,-71.08"/>
</g>
<!-- Node26 -->
<g id="node26" class="node">
<title>Node26</title>
<g id="a_node26"><a xlink:href="../../d0/d14/memberlist_8cpp.html" target="_top" xlink:title=" ">
<polygon fill="white" stroke="#666666" points="4184,-30 4026,-30 4026,0 4184,0 4184,-30"/>
<text text-anchor="start" x="4034" y="-18" font-family="Helvetica,sans-Serif" font-size="10.00">/home/runner/work/doxygen</text>
<text text-anchor="middle" x="4105" y="-7" font-family="Helvetica,sans-Serif" font-size="10.00">/doxygen/src/memberlist.cpp</text>
</a>
</g>
</g>
<!-- Node2&#45;&gt;Node26 -->
<g id="edge25" class="edge">
<title>Node2&#45;&gt;Node26</title>
<path fill="none" stroke="#63b8ff" d="M3308.34,-77.23C3455.09,-71.97 3760.3,-58.42 4017,-30 4019.92,-29.68 4022.89,-29.32 4025.89,-28.95"/>
<polygon fill="#63b8ff" stroke="#63b8ff" points="3307.92,-73.74 3298.05,-77.59 3308.17,-80.74 3307.92,-73.74"/>
</g>
<!-- Node27 -->
<g id="node27" class="node">
<title>Node27</title>
<g id="a_node27"><a xlink:href="../../d7/d1c/namespacedef_8cpp.html" target="_top" xlink:title=" ">
<polygon fill="white" stroke="#666666" points="4375.5,-30 4202.5,-30 4202.5,0 4375.5,0 4375.5,-30"/>
<text text-anchor="start" x="4210.5" y="-18" font-family="Helvetica,sans-Serif" font-size="10.00">/home/runner/work/doxygen</text>
<text text-anchor="middle" x="4289" y="-7" font-family="Helvetica,sans-Serif" font-size="10.00">/doxygen/src/namespacedef.cpp</text>
</a>
</g>
</g>
<!-- Node2&#45;&gt;Node27 -->
<g id="edge26" class="edge">
<title>Node2&#45;&gt;Node27</title>
<path fill="none" stroke="#63b8ff" d="M3308.21,-78.24C3478.61,-74.21 3867.53,-62.03 4193,-30 4196.1,-29.69 4199.26,-29.36 4202.44,-29"/>
<polygon fill="#63b8ff" stroke="#63b8ff" points="3307.96,-74.75 3298.05,-78.48 3308.12,-81.75 3307.96,-74.75"/>
</g>
<!-- Node28 -->
<g id="node28" class="node">
<title>Node28</title>
<g id="a_node28"><a xlink:href="../../db/dd8/outputlist_8cpp.html" target="_top" xlink:title=" ">
<polygon fill="white" stroke="#666666" points="4548,-30 4394,-30 4394,0 4548,0 4548,-30"/>
<text text-anchor="start" x="4402" y="-18" font-family="Helvetica,sans-Serif" font-size="10.00">/home/runner/work/doxygen</text>
<text text-anchor="middle" x="4471" y="-7" font-family="Helvetica,sans-Serif" font-size="10.00">/doxygen/src/outputlist.cpp</text>
</a>
</g>
</g>
<!-- Node2&#45;&gt;Node28 -->
<g id="edge27" class="edge">
<title>Node2&#45;&gt;Node28</title>
<path fill="none" stroke="#63b8ff" d="M3308.32,-79.78C3502.43,-78.51 3984.21,-71.08 4385,-30 4387.86,-29.71 4390.77,-29.38 4393.7,-29.03"/>
<polygon fill="#63b8ff" stroke="#63b8ff" points="3308.16,-76.28 3298.18,-79.84 3308.2,-83.28 3308.16,-76.28"/>
</g>
<!-- Node29 -->
<g id="node29" class="node">
<title>Node29</title>
<g id="a_node29"><a xlink:href="../../d9/db4/pagedef_8cpp.html" target="_top" xlink:title=" ">
<polygon fill="white" stroke="#666666" points="4720,-30 4566,-30 4566,0 4720,0 4720,-30"/>
<text text-anchor="start" x="4574" y="-18" font-family="Helvetica,sans-Serif" font-size="10.00">/home/runner/work/doxygen</text>
<text text-anchor="middle" x="4643" y="-7" font-family="Helvetica,sans-Serif" font-size="10.00">/doxygen/src/pagedef.cpp</text>
</a>
</g>
</g>
<!-- Node2&#45;&gt;Node29 -->
<g id="edge28" class="edge">
<title>Node2&#45;&gt;Node29</title>
<path fill="none" stroke="#63b8ff" d="M3308.25,-80.47C3521.83,-80.81 4087.75,-76.79 4557,-30 4559.86,-29.71 4562.77,-29.39 4565.7,-29.05"/>
<polygon fill="#63b8ff" stroke="#63b8ff" points="3308.05,-76.97 3298.04,-80.45 3308.03,-83.97 3308.05,-76.97"/>
</g>
<!-- Node30 -->
<g id="node30" class="node">
<title>Node30</title>
<g id="a_node30"><a xlink:href="../../d3/ded/pycode_8l.html" target="_top" xlink:title=" ">
<polygon fill="white" stroke="#666666" points="4892,-30 4738,-30 4738,0 4892,0 4892,-30"/>
<text text-anchor="start" x="4746" y="-18" font-family="Helvetica,sans-Serif" font-size="10.00">/home/runner/work/doxygen</text>
<text text-anchor="middle" x="4815" y="-7" font-family="Helvetica,sans-Serif" font-size="10.00">/doxygen/src/pycode.l</text>
</a>
</g>
</g>
<!-- Node2&#45;&gt;Node30 -->
<g id="edge29" class="edge">
<title>Node2&#45;&gt;Node30</title>
<path fill="none" stroke="#63b8ff" d="M3308.44,-78.58C3586.84,-73.81 4450.55,-57.17 4729,-30 4731.86,-29.72 4734.77,-29.41 4737.71,-29.06"/>
<polygon fill="#63b8ff" stroke="#63b8ff" points="3308.33,-75.08 3298.39,-78.75 3308.45,-82.08 3308.33,-75.08"/>
</g>
<!-- Node31 -->
<g id="node31" class="node">
<title>Node31</title>
<g id="a_node31"><a xlink:href="../../d0/d9c/rtfgen_8cpp.html" target="_top" xlink:title=" ">
<polygon fill="white" stroke="#666666" points="5064,-30 4910,-30 4910,0 5064,0 5064,-30"/>
<text text-anchor="start" x="4918" y="-18" font-family="Helvetica,sans-Serif" font-size="10.00">/home/runner/work/doxygen</text>
<text text-anchor="middle" x="4987" y="-7" font-family="Helvetica,sans-Serif" font-size="10.00">/doxygen/src/rtfgen.cpp</text>
</a>
</g>
</g>
<!-- Node2&#45;&gt;Node31 -->
<g id="edge30" class="edge">
<title>Node2&#45;&gt;Node31</title>
<path fill="none" stroke="#63b8ff" d="M3308.5,-78.92C3607.5,-74.98 4587.39,-60.06 4901,-30 4903.86,-29.73 4906.77,-29.42 4909.71,-29.07"/>
<polygon fill="#63b8ff" stroke="#63b8ff" points="3308.11,-75.42 3298.16,-79.05 3308.2,-82.42 3308.11,-75.42"/>
</g>
<!-- Node32 -->
<g id="node32" class="node">
<title>Node32</title>
<g id="a_node32"><a xlink:href="../../d2/dda/sqlcode_8l.html" target="_top" xlink:title=" ">
<polygon fill="white" stroke="#666666" points="5236,-30 5082,-30 5082,0 5236,0 5236,-30"/>
<text text-anchor="start" x="5090" y="-18" font-family="Helvetica,sans-Serif" font-size="10.00">/home/runner/work/doxygen</text>
<text text-anchor="middle" x="5159" y="-7" font-family="Helvetica,sans-Serif" font-size="10.00">/doxygen/src/sqlcode.l</text>
</a>
</g>
</g>
<!-- Node2&#45;&gt;Node32 -->
<g id="edge31" class="edge">
<title>Node2&#45;&gt;Node32</title>
<path fill="none" stroke="#63b8ff" d="M3308.2,-79.2C3626.31,-76.05 4723.95,-62.97 5073,-30 5075.86,-29.73 5078.77,-29.42 5081.71,-29.09"/>
<polygon fill="#63b8ff" stroke="#63b8ff" points="3308.08,-75.7 3298.11,-79.3 3308.15,-82.7 3308.08,-75.7"/>
</g>
<!-- Node33 -->
<g id="node33" class="node">
<title>Node33</title>
<g id="a_node33"><a xlink:href="../../d7/d56/tooltip_8cpp.html" target="_top" xlink:title=" ">
<polygon fill="white" stroke="#666666" points="5408,-30 5254,-30 5254,0 5408,0 5408,-30"/>
<text text-anchor="start" x="5262" y="-18" font-family="Helvetica,sans-Serif" font-size="10.00">/home/runner/work/doxygen</text>
<text text-anchor="middle" x="5331" y="-7" font-family="Helvetica,sans-Serif" font-size="10.00">/doxygen/src/tooltip.cpp</text>
</a>
</g>
</g>
<!-- Node2&#45;&gt;Node33 -->
<g id="edge32" class="edge">
<title>Node2&#45;&gt;Node33</title>
<path fill="none" stroke="#63b8ff" d="M3308.25,-79.43C3645.01,-77 4860.51,-65.88 5245,-30 5247.86,-29.73 5250.77,-29.43 5253.71,-29.09"/>
<polygon fill="#63b8ff" stroke="#63b8ff" points="3308.04,-75.93 3298.06,-79.51 3308.09,-82.93 3308.04,-75.93"/>
</g>
<!-- Node34 -->
<g id="node34" class="node">
<title>Node34</title>
<g id="a_node34"><a xlink:href="../../df/d2d/util_8cpp.html" target="_top" xlink:title=" ">
<polygon fill="white" stroke="#666666" points="5580,-30 5426,-30 5426,0 5580,0 5580,-30"/>
<text text-anchor="start" x="5434" y="-18" font-family="Helvetica,sans-Serif" font-size="10.00">/home/runner/work/doxygen</text>
<text text-anchor="middle" x="5503" y="-7" font-family="Helvetica,sans-Serif" font-size="10.00">/doxygen/src/util.cpp</text>
</a>
</g>
</g>
<!-- Node2&#45;&gt;Node34 -->
<g id="edge33" class="edge">
<title>Node2&#45;&gt;Node34</title>
<path fill="none" stroke="#63b8ff" d="M3308.46,-79.63C3663.35,-77.87 4997.03,-68.78 5417,-30 5419.86,-29.74 5422.77,-29.43 5425.71,-29.1"/>
<polygon fill="#63b8ff" stroke="#63b8ff" points="3308.23,-76.13 3298.24,-79.68 3308.26,-83.13 3308.23,-76.13"/>
</g>
<!-- Node35 -->
<g id="node35" class="node">
<title>Node35</title>
<g id="a_node35"><a xlink:href="../../d5/d6a/vhdlcode_8l.html" target="_top" xlink:title=" ">
<polygon fill="white" stroke="#666666" points="5752,-30 5598,-30 5598,0 5752,0 5752,-30"/>
<text text-anchor="start" x="5606" y="-18" font-family="Helvetica,sans-Serif" font-size="10.00">/home/runner/work/doxygen</text>
<text text-anchor="middle" x="5675" y="-7" font-family="Helvetica,sans-Serif" font-size="10.00">/doxygen/src/vhdlcode.l</text>
</a>
</g>
</g>
<!-- Node2&#45;&gt;Node35 -->
<g id="edge34" class="edge">
<title>Node2&#45;&gt;Node35</title>
<path fill="none" stroke="#63b8ff" d="M3308.43,-79.8C3680.44,-78.68 5133.36,-71.69 5589,-30 5591.86,-29.74 5594.77,-29.44 5597.71,-29.11"/>
<polygon fill="#63b8ff" stroke="#63b8ff" points="3308.25,-76.3 3298.26,-79.83 3308.27,-83.3 3308.25,-76.3"/>
</g>
<!-- Node36 -->
<g id="node36" class="node">
<title>Node36</title>
<g id="a_node36"><a xlink:href="../../de/dea/vhdldocgen_8cpp.html" target="_top" xlink:title=" ">
<polygon fill="white" stroke="#666666" points="5928,-30 5770,-30 5770,0 5928,0 5928,-30"/>
<text text-anchor="start" x="5778" y="-18" font-family="Helvetica,sans-Serif" font-size="10.00">/home/runner/work/doxygen</text>
<text text-anchor="middle" x="5849" y="-7" font-family="Helvetica,sans-Serif" font-size="10.00">/doxygen/src/vhdldocgen.cpp</text>
</a>
</g>
</g>
<!-- Node2&#45;&gt;Node36 -->
<g id="edge35" class="edge">
<title>Node2&#45;&gt;Node36</title>
<path fill="none" stroke="#63b8ff" d="M3308.29,-79.9C3696.59,-79.21 5269.47,-73.73 5761,-30 5763.93,-29.74 5766.91,-29.44 5769.91,-29.11"/>
<polygon fill="#63b8ff" stroke="#63b8ff" points="3308.24,-76.4 3298.24,-79.92 3308.25,-83.4 3308.24,-76.4"/>
</g>
<!-- Node37 -->
<g id="node37" class="node">
<title>Node37</title>
<g id="a_node37"><a xlink:href="../../d1/d86/vhdljjparser_8cpp.html" target="_top" xlink:title=" ">
<polygon fill="white" stroke="#666666" points="6104.5,-30 5945.5,-30 5945.5,0 6104.5,0 6104.5,-30"/>
<text text-anchor="start" x="5953.5" y="-18" font-family="Helvetica,sans-Serif" font-size="10.00">/home/runner/work/doxygen</text>
<text text-anchor="middle" x="6025" y="-7" font-family="Helvetica,sans-Serif" font-size="10.00">/doxygen/src/vhdljjparser.cpp</text>
</a>
</g>
</g>
<!-- Node2&#45;&gt;Node37 -->
<g id="edge36" class="edge">
<title>Node2&#45;&gt;Node37</title>
<path fill="none" stroke="#63b8ff" d="M3308.26,-80.03C3712.85,-79.92 5408.79,-76.65 5937,-30 5939.77,-29.76 5942.59,-29.48 5945.44,-29.17"/>
<polygon fill="#63b8ff" stroke="#63b8ff" points="3308.09,-76.53 3298.09,-80.03 3308.09,-83.53 3308.09,-76.53"/>
</g>
<!-- Node38 -->
<g id="node38" class="node">
<title>Node38</title>
<g id="a_node38"><a xlink:href="../../dc/dc1/xmlcode_8l.html" target="_top" xlink:title=" ">
<polygon fill="white" stroke="#666666" points="6277,-30 6123,-30 6123,0 6277,0 6277,-30"/>
<text text-anchor="start" x="6131" y="-18" font-family="Helvetica,sans-Serif" font-size="10.00">/home/runner/work/doxygen</text>
<text text-anchor="middle" x="6200" y="-7" font-family="Helvetica,sans-Serif" font-size="10.00">/doxygen/src/xmlcode.l</text>
</a>
</g>
</g>
<!-- Node2&#45;&gt;Node38 -->
<g id="edge37" class="edge">
<title>Node2&#45;&gt;Node38</title>
<path fill="none" stroke="#63b8ff" d="M3308.37,-80.19C3729.07,-80.84 5548.98,-80.61 6114,-30 6116.86,-29.74 6119.77,-29.45 6122.71,-29.12"/>
<polygon fill="#63b8ff" stroke="#63b8ff" points="3308.1,-76.69 3298.1,-80.17 3308.09,-83.69 3308.1,-76.69"/>
</g>
<!-- Node39 -->
<g id="node39" class="node">
<title>Node39</title>
<g id="a_node39"><a xlink:href="../../d0/dc3/xmlgen_8cpp.html" target="_top" xlink:title=" ">
<polygon fill="white" stroke="#666666" points="6449,-30 6295,-30 6295,0 6449,0 6449,-30"/>
<text text-anchor="start" x="6303" y="-18" font-family="Helvetica,sans-Serif" font-size="10.00">/home/runner/work/doxygen</text>
<text text-anchor="middle" x="6372" y="-7" font-family="Helvetica,sans-Serif" font-size="10.00">/doxygen/src/xmlgen.cpp</text>
</a>
</g>
</g>
<!-- Node2&#45;&gt;Node39 -->
<g id="edge38" class="edge">
<title>Node2&#45;&gt;Node39</title>
<path fill="none" stroke="#63b8ff" d="M3308.2,-80.29C3743.59,-81.46 5684.94,-83.54 6286,-30 6288.86,-29.74 6291.77,-29.45 6294.71,-29.12"/>
<polygon fill="#63b8ff" stroke="#63b8ff" points="3308.21,-76.79 3298.2,-80.26 3308.19,-83.79 3308.21,-76.79"/>
</g>
</g>
</svg>
