<?xml version="1.0" encoding="UTF-8" standalone="no"?>
<!DOCTYPE svg PUBLIC "-//W3C//DTD SVG 1.1//EN"
 "http://www.w3.org/Graphics/SVG/1.1/DTD/svg11.dtd">
<!-- Generated by graphviz version 2.43.0 (0)
 -->
<!-- Title: /home/runner/work/doxygen/doxygen/src/context.h Pages: 1 -->
<svg width="1600pt" height="533pt"
 viewBox="0.00 0.00 1600.00 533.00" xmlns="http://www.w3.org/2000/svg" xmlns:xlink="http://www.w3.org/1999/xlink">
<g id="graph0" class="graph" transform="scale(1 1) rotate(0) translate(4 529)">
<title>/home/runner/work/doxygen/doxygen/src/context.h</title>
<!-- Node1 -->
<g id="node1" class="node">
<title>Node1</title>
<g id="a_node1"><a xlink:title=" ">
<polygon fill="#999999" stroke="#666666" points="582,-525 428,-525 428,-495 582,-495 582,-525"/>
<text text-anchor="start" x="436" y="-513" font-family="Helvetica,sans-Serif" font-size="10.00">/home/runner/work/doxygen</text>
<text text-anchor="middle" x="505" y="-502" font-family="Helvetica,sans-Serif" font-size="10.00">/doxygen/src/context.h</text>
</a>
</g>
</g>
<!-- Node2 -->
<g id="node2" class="node">
<title>Node2</title>
<g id="a_node2"><a xlink:href="../../d9/d49/types_8h.html" target="_top" xlink:title="This file contains a number of basic enums and types.">
<polygon fill="white" stroke="#666666" points="821.5,-239 768.5,-239 768.5,-220 821.5,-220 821.5,-239"/>
<text text-anchor="middle" x="795" y="-227" font-family="Helvetica,sans-Serif" font-size="10.00">types.h</text>
</a>
</g>
</g>
<!-- Node1&#45;&gt;Node2 -->
<g id="edge1" class="edge">
<title>Node1&#45;&gt;Node2</title>
<path fill="none" stroke="#63b8ff" d="M582.2,-507.09C627.52,-502.39 683.64,-490 724,-459 788.48,-409.47 788.26,-373.96 803,-294 805.78,-278.96 803.26,-261.73 800.33,-249.02"/>
<polygon fill="#63b8ff" stroke="#63b8ff" points="803.68,-247.98 797.78,-239.18 796.9,-249.73 803.68,-247.98"/>
</g>
<!-- Node13 -->
<g id="node13" class="node">
<title>Node13</title>
<g id="a_node13"><a xlink:href="../../de/db8/template_8h.html" target="_top" xlink:title=" ">
<polygon fill="white" stroke="#666666" points="384,-239 314,-239 314,-220 384,-220 384,-239"/>
<text text-anchor="middle" x="349" y="-227" font-family="Helvetica,sans-Serif" font-size="10.00">template.h</text>
</a>
</g>
</g>
<!-- Node1&#45;&gt;Node13 -->
<g id="edge14" class="edge">
<title>Node1&#45;&gt;Node13</title>
<path fill="none" stroke="#63b8ff" d="M427.73,-498.57C328.79,-483.02 170,-449.62 170,-395.5 170,-395.5 170,-395.5 170,-338.5 170,-276.1 250.73,-248.8 303.76,-237.6"/>
<polygon fill="#63b8ff" stroke="#63b8ff" points="304.52,-241.02 313.64,-235.63 303.15,-234.16 304.52,-241.02"/>
</g>
<!-- Node24 -->
<g id="node24" class="node">
<title>Node24</title>
<g id="a_node24"><a xlink:href="../../d1/da6/classdef_8h.html" target="_top" xlink:title=" ">
<polygon fill="white" stroke="#666666" points="581.5,-349 516.5,-349 516.5,-330 581.5,-330 581.5,-349"/>
<text text-anchor="middle" x="549" y="-337" font-family="Helvetica,sans-Serif" font-size="10.00">classdef.h</text>
</a>
</g>
</g>
<!-- Node1&#45;&gt;Node24 -->
<g id="edge28" class="edge">
<title>Node1&#45;&gt;Node24</title>
<path fill="none" stroke="#63b8ff" d="M508.68,-494.92C516.59,-464.65 535.2,-393.35 544.1,-359.27"/>
<polygon fill="#63b8ff" stroke="#63b8ff" points="547.58,-359.81 546.72,-349.25 540.81,-358.05 547.58,-359.81"/>
</g>
<!-- Node30 -->
<g id="node30" class="node">
<title>Node30</title>
<g id="a_node30"><a xlink:href="../../dd/de5/searchindex__js_8h.html" target="_top" xlink:title="Javascript based search engine.">
<polygon fill="white" stroke="#666666" points="181,-184 83,-184 83,-165 181,-165 181,-184"/>
<text text-anchor="middle" x="132" y="-172" font-family="Helvetica,sans-Serif" font-size="10.00">searchindex_js.h</text>
</a>
</g>
</g>
<!-- Node1&#45;&gt;Node30 -->
<g id="edge57" class="edge">
<title>Node1&#45;&gt;Node30</title>
<path fill="none" stroke="#63b8ff" d="M427.93,-507.24C365.73,-503.24 277.31,-491.62 207,-459 167.38,-440.62 132,-439.18 132,-395.5 132,-395.5 132,-395.5 132,-283.5 132,-252.19 132,-215.77 132,-194.23"/>
<polygon fill="#63b8ff" stroke="#63b8ff" points="135.5,-194.18 132,-184.18 128.5,-194.18 135.5,-194.18"/>
</g>
<!-- Node32 -->
<g id="node32" class="node">
<title>Node32</title>
<g id="a_node32"><a xlink:href="../../dd/d78/memberlist_8h.html" target="_top" xlink:title=" ">
<polygon fill="white" stroke="#666666" points="715,-459 633,-459 633,-440 715,-440 715,-459"/>
<text text-anchor="middle" x="674" y="-447" font-family="Helvetica,sans-Serif" font-size="10.00">memberlist.h</text>
</a>
</g>
</g>
<!-- Node1&#45;&gt;Node32 -->
<g id="edge64" class="edge">
<title>Node1&#45;&gt;Node32</title>
<path fill="none" stroke="#63b8ff" d="M545.48,-494.99C574.18,-485.05 612.28,-471.86 639.54,-462.43"/>
<polygon fill="#63b8ff" stroke="#63b8ff" points="640.74,-465.72 649.05,-459.14 638.45,-459.1 640.74,-465.72"/>
</g>
<!-- Node35 -->
<g id="node35" class="node">
<title>Node35</title>
<g id="a_node35"><a xlink:href="../../d2/de7/dotgfxhierarchytable_8h.html" target="_top" xlink:title=" ">
<polygon fill="white" stroke="#666666" points="1177,-404 1049,-404 1049,-385 1177,-385 1177,-404"/>
<text text-anchor="middle" x="1113" y="-392" font-family="Helvetica,sans-Serif" font-size="10.00">dotgfxhierarchytable.h</text>
</a>
</g>
</g>
<!-- Node1&#45;&gt;Node35 -->
<g id="edge78" class="edge">
<title>Node1&#45;&gt;Node35</title>
<path fill="none" stroke="#63b8ff" d="M582.09,-504.66C699.5,-497.44 917.34,-481.51 992,-459 1029.5,-447.7 1068.96,-424.56 1092.25,-409.56"/>
<polygon fill="#63b8ff" stroke="#63b8ff" points="1094.19,-412.47 1100.63,-404.06 1090.35,-406.62 1094.19,-412.47"/>
</g>
<!-- Node3 -->
<g id="node3" class="node">
<title>Node3</title>
<g id="a_node3"><a xlink:href="../../d7/d5c/qcstring_8h.html" target="_top" xlink:title=" ">
<polygon fill="white" stroke="#666666" points="938.5,-129 873.5,-129 873.5,-110 938.5,-110 938.5,-129"/>
<text text-anchor="middle" x="906" y="-117" font-family="Helvetica,sans-Serif" font-size="10.00">qcstring.h</text>
</a>
</g>
</g>
<!-- Node2&#45;&gt;Node3 -->
<g id="edge2" class="edge">
<title>Node2&#45;&gt;Node3</title>
<path fill="none" stroke="#63b8ff" d="M804.09,-219.66C822.88,-201.38 866.25,-159.18 889.9,-136.17"/>
<polygon fill="#63b8ff" stroke="#63b8ff" points="892.38,-138.64 897.11,-129.16 887.5,-133.62 892.38,-138.64"/>
</g>
<!-- Node4 -->
<g id="node4" class="node">
<title>Node4</title>
<g id="a_node4"><a xlink:title=" ">
<polygon fill="#e0e0e0" stroke="#999999" points="886,-19 842,-19 842,0 886,0 886,-19"/>
<text text-anchor="middle" x="864" y="-7" font-family="Helvetica,sans-Serif" font-size="10.00">string</text>
</a>
</g>
</g>
<!-- Node3&#45;&gt;Node4 -->
<g id="edge3" class="edge">
<title>Node3&#45;&gt;Node4</title>
<path fill="none" stroke="#63b8ff" d="M895.18,-109.92C885.83,-101.79 872.92,-88.67 867,-74 861.26,-59.75 860.87,-42.22 861.72,-29.19"/>
<polygon fill="#63b8ff" stroke="#63b8ff" points="865.22,-29.38 862.68,-19.1 858.25,-28.72 865.22,-29.38"/>
</g>
<!-- Node5 -->
<g id="node5" class="node">
<title>Node5</title>
<g id="a_node5"><a xlink:title=" ">
<polygon fill="#e0e0e0" stroke="#999999" points="718,-74 654,-74 654,-55 718,-55 718,-74"/>
<text text-anchor="middle" x="686" y="-62" font-family="Helvetica,sans-Serif" font-size="10.00">algorithm</text>
</a>
</g>
</g>
<!-- Node3&#45;&gt;Node5 -->
<g id="edge4" class="edge">
<title>Node3&#45;&gt;Node5</title>
<path fill="none" stroke="#63b8ff" d="M873.07,-110.57C834.42,-101.25 770.27,-85.8 728.06,-75.63"/>
<polygon fill="#63b8ff" stroke="#63b8ff" points="728.63,-72.17 718.09,-73.23 726.99,-78.97 728.63,-72.17"/>
</g>
<!-- Node6 -->
<g id="node6" class="node">
<title>Node6</title>
<g id="a_node6"><a xlink:title=" ">
<polygon fill="#e0e0e0" stroke="#999999" points="1199.5,-74 1150.5,-74 1150.5,-55 1199.5,-55 1199.5,-74"/>
<text text-anchor="middle" x="1175" y="-62" font-family="Helvetica,sans-Serif" font-size="10.00">cctype</text>
</a>
</g>
</g>
<!-- Node3&#45;&gt;Node6 -->
<g id="edge5" class="edge">
<title>Node3&#45;&gt;Node6</title>
<path fill="none" stroke="#63b8ff" d="M938.59,-113.05C982.37,-105.58 1062.82,-91.33 1140.26,-74.28"/>
<polygon fill="#63b8ff" stroke="#63b8ff" points="1141.18,-77.66 1150.18,-72.08 1139.66,-70.83 1141.18,-77.66"/>
</g>
<!-- Node7 -->
<g id="node7" class="node">
<title>Node7</title>
<g id="a_node7"><a xlink:title=" ">
<polygon fill="#e0e0e0" stroke="#999999" points="926,-74 876,-74 876,-55 926,-55 926,-74"/>
<text text-anchor="middle" x="901" y="-62" font-family="Helvetica,sans-Serif" font-size="10.00">cstring</text>
</a>
</g>
</g>
<!-- Node3&#45;&gt;Node7 -->
<g id="edge6" class="edge">
<title>Node3&#45;&gt;Node7</title>
<path fill="none" stroke="#63b8ff" d="M905.18,-109.75C904.52,-102.8 903.58,-92.85 902.76,-84.13"/>
<polygon fill="#63b8ff" stroke="#63b8ff" points="906.24,-83.72 901.81,-74.09 899.27,-84.37 906.24,-83.72"/>
</g>
<!-- Node8 -->
<g id="node8" class="node">
<title>Node8</title>
<g id="a_node8"><a xlink:title=" ">
<polygon fill="#e0e0e0" stroke="#999999" points="990,-74 944,-74 944,-55 990,-55 990,-74"/>
<text text-anchor="middle" x="967" y="-62" font-family="Helvetica,sans-Serif" font-size="10.00">cstdio</text>
</a>
</g>
</g>
<!-- Node3&#45;&gt;Node8 -->
<g id="edge7" class="edge">
<title>Node3&#45;&gt;Node8</title>
<path fill="none" stroke="#63b8ff" d="M915.81,-109.98C924.82,-102.15 938.41,-90.34 949.32,-80.86"/>
<polygon fill="#63b8ff" stroke="#63b8ff" points="951.77,-83.37 957.03,-74.17 947.18,-78.09 951.77,-83.37"/>
</g>
<!-- Node9 -->
<g id="node9" class="node">
<title>Node9</title>
<g id="a_node9"><a xlink:title=" ">
<polygon fill="#e0e0e0" stroke="#999999" points="1057.5,-74 1008.5,-74 1008.5,-55 1057.5,-55 1057.5,-74"/>
<text text-anchor="middle" x="1033" y="-62" font-family="Helvetica,sans-Serif" font-size="10.00">cstdlib</text>
</a>
</g>
</g>
<!-- Node3&#45;&gt;Node9 -->
<g id="edge8" class="edge">
<title>Node3&#45;&gt;Node9</title>
<path fill="none" stroke="#63b8ff" d="M926.41,-109.98C947.02,-101.38 979.11,-87.99 1002.7,-78.15"/>
<polygon fill="#63b8ff" stroke="#63b8ff" points="1004.35,-81.25 1012.23,-74.17 1001.65,-74.79 1004.35,-81.25"/>
</g>
<!-- Node10 -->
<g id="node10" class="node">
<title>Node10</title>
<g id="a_node10"><a xlink:title=" ">
<polygon fill="#e0e0e0" stroke="#999999" points="806,-19 756,-19 756,0 806,0 806,-19"/>
<text text-anchor="middle" x="781" y="-7" font-family="Helvetica,sans-Serif" font-size="10.00">cstdint</text>
</a>
</g>
</g>
<!-- Node3&#45;&gt;Node10 -->
<g id="edge9" class="edge">
<title>Node3&#45;&gt;Node10</title>
<path fill="none" stroke="#63b8ff" d="M873.23,-112.67C836,-105.3 778.76,-91.45 766,-74 756.21,-60.61 762.53,-41.76 769.73,-28.08"/>
<polygon fill="#63b8ff" stroke="#63b8ff" points="772.91,-29.58 774.92,-19.18 766.86,-26.06 772.91,-29.58"/>
</g>
<!-- Node11 -->
<g id="node11" class="node">
<title>Node11</title>
<g id="a_node11"><a xlink:title=" ">
<polygon fill="#e0e0e0" stroke="#999999" points="1132.5,-74 1075.5,-74 1075.5,-55 1132.5,-55 1132.5,-74"/>
<text text-anchor="middle" x="1104" y="-62" font-family="Helvetica,sans-Serif" font-size="10.00">ostream</text>
</a>
</g>
</g>
<!-- Node3&#45;&gt;Node11 -->
<g id="edge10" class="edge">
<title>Node3&#45;&gt;Node11</title>
<path fill="none" stroke="#63b8ff" d="M937.82,-109.98C972.59,-100.68 1028.3,-85.76 1065.51,-75.8"/>
<polygon fill="#63b8ff" stroke="#63b8ff" points="1066.73,-79.1 1075.48,-73.13 1064.92,-72.34 1066.73,-79.1"/>
</g>
<!-- Node12 -->
<g id="node12" class="node">
<title>Node12</title>
<g id="a_node12"><a xlink:href="../../db/d7c/utf8_8h.html" target="_top" xlink:title="Various UTF8 related helper functions.">
<polygon fill="white" stroke="#666666" points="819.5,-74 774.5,-74 774.5,-55 819.5,-55 819.5,-74"/>
<text text-anchor="middle" x="797" y="-62" font-family="Helvetica,sans-Serif" font-size="10.00">utf8.h</text>
</a>
</g>
</g>
<!-- Node3&#45;&gt;Node12 -->
<g id="edge11" class="edge">
<title>Node3&#45;&gt;Node12</title>
<path fill="none" stroke="#63b8ff" d="M888.49,-109.98C871.04,-101.5 844,-88.35 823.83,-78.54"/>
<polygon fill="#63b8ff" stroke="#63b8ff" points="825.36,-75.4 814.84,-74.17 822.3,-81.69 825.36,-75.4"/>
</g>
<!-- Node12&#45;&gt;Node4 -->
<g id="edge13" class="edge">
<title>Node12&#45;&gt;Node4</title>
<path fill="none" stroke="#63b8ff" d="M807.77,-54.98C817.77,-47.07 832.89,-35.11 844.93,-25.58"/>
<polygon fill="#63b8ff" stroke="#63b8ff" points="847.37,-28.12 853.04,-19.17 843.03,-22.63 847.37,-28.12"/>
</g>
<!-- Node12&#45;&gt;Node10 -->
<g id="edge12" class="edge">
<title>Node12&#45;&gt;Node10</title>
<path fill="none" stroke="#63b8ff" d="M794.36,-54.75C792.24,-47.72 789.19,-37.62 786.54,-28.84"/>
<polygon fill="#63b8ff" stroke="#63b8ff" points="789.84,-27.65 783.6,-19.09 783.14,-29.67 789.84,-27.65"/>
</g>
<!-- Node13&#45;&gt;Node3 -->
<g id="edge19" class="edge">
<title>Node13&#45;&gt;Node3</title>
<path fill="none" stroke="#63b8ff" d="M384.27,-221.66C482.17,-202.68 757.05,-149.38 863.32,-128.78"/>
<polygon fill="#63b8ff" stroke="#63b8ff" points="864.21,-132.17 873.36,-126.83 862.88,-125.3 864.21,-132.17"/>
</g>
<!-- Node14 -->
<g id="node14" class="node">
<title>Node14</title>
<g id="a_node14"><a xlink:title=" ">
<polygon fill="#e0e0e0" stroke="#999999" points="587.5,-129 540.5,-129 540.5,-110 587.5,-110 587.5,-129"/>
<text text-anchor="middle" x="564" y="-117" font-family="Helvetica,sans-Serif" font-size="10.00">vector</text>
</a>
</g>
</g>
<!-- Node13&#45;&gt;Node14 -->
<g id="edge15" class="edge">
<title>Node13&#45;&gt;Node14</title>
<path fill="none" stroke="#63b8ff" d="M358.8,-219.83C374.26,-206.5 405.69,-180.88 436,-165 466.55,-149 504.07,-136.74 530.57,-129.17"/>
<polygon fill="#63b8ff" stroke="#63b8ff" points="531.8,-132.46 540.49,-126.41 529.92,-125.72 531.8,-132.46"/>
</g>
<!-- Node15 -->
<g id="node15" class="node">
<title>Node15</title>
<g id="a_node15"><a xlink:title=" ">
<polygon fill="#e0e0e0" stroke="#999999" points="1373,-129 1315,-129 1315,-110 1373,-110 1373,-129"/>
<text text-anchor="middle" x="1344" y="-117" font-family="Helvetica,sans-Serif" font-size="10.00">memory</text>
</a>
</g>
</g>
<!-- Node13&#45;&gt;Node15 -->
<g id="edge16" class="edge">
<title>Node13&#45;&gt;Node15</title>
<path fill="none" stroke="#63b8ff" d="M384.03,-227.66C535.59,-223.88 1130.83,-207.66 1211,-184 1227.24,-179.21 1228.92,-172.67 1244,-165 1267,-153.3 1293.74,-141.49 1313.77,-132.98"/>
<polygon fill="#63b8ff" stroke="#63b8ff" points="1315.17,-136.19 1323.03,-129.09 1312.45,-129.74 1315.17,-136.19"/>
</g>
<!-- Node16 -->
<g id="node16" class="node">
<title>Node16</title>
<g id="a_node16"><a xlink:title=" ">
<polygon fill="#e0e0e0" stroke="#999999" points="110.5,-129 45.5,-129 45.5,-110 110.5,-110 110.5,-129"/>
<text text-anchor="middle" x="78" y="-117" font-family="Helvetica,sans-Serif" font-size="10.00">functional</text>
</a>
</g>
</g>
<!-- Node13&#45;&gt;Node16 -->
<g id="edge17" class="edge">
<title>Node13&#45;&gt;Node16</title>
<path fill="none" stroke="#63b8ff" d="M313.78,-228.22C246.66,-226.86 104.41,-219.72 74,-184 63.51,-171.67 66.35,-152.63 70.69,-138.62"/>
<polygon fill="#63b8ff" stroke="#63b8ff" points="74.03,-139.67 74.11,-129.07 67.44,-137.31 74.03,-139.67"/>
</g>
<!-- Node17 -->
<g id="node17" class="node">
<title>Node17</title>
<g id="a_node17"><a xlink:title=" ">
<polygon fill="#e0e0e0" stroke="#999999" points="345.5,-184 294.5,-184 294.5,-165 345.5,-165 345.5,-184"/>
<text text-anchor="middle" x="320" y="-172" font-family="Helvetica,sans-Serif" font-size="10.00">variant</text>
</a>
</g>
</g>
<!-- Node13&#45;&gt;Node17 -->
<g id="edge18" class="edge">
<title>Node13&#45;&gt;Node17</title>
<path fill="none" stroke="#63b8ff" d="M344.22,-219.75C340.25,-212.49 334.48,-201.95 329.57,-192.98"/>
<polygon fill="#63b8ff" stroke="#63b8ff" points="332.57,-191.18 324.7,-184.09 326.43,-194.54 332.57,-191.18"/>
</g>
<!-- Node18 -->
<g id="node18" class="node">
<title>Node18</title>
<g id="a_node18"><a xlink:href="../../d5/d75/containers_8h.html" target="_top" xlink:title=" ">
<polygon fill="white" stroke="#666666" points="276.5,-184 199.5,-184 199.5,-165 276.5,-165 276.5,-184"/>
<text text-anchor="middle" x="238" y="-172" font-family="Helvetica,sans-Serif" font-size="10.00">containers.h</text>
</a>
</g>
</g>
<!-- Node13&#45;&gt;Node18 -->
<g id="edge20" class="edge">
<title>Node13&#45;&gt;Node18</title>
<path fill="none" stroke="#63b8ff" d="M331.17,-219.98C313.39,-211.5 285.86,-198.35 265.32,-188.54"/>
<polygon fill="#63b8ff" stroke="#63b8ff" points="266.7,-185.32 256.16,-184.17 263.68,-191.64 266.7,-185.32"/>
</g>
<!-- Node18&#45;&gt;Node4 -->
<g id="edge22" class="edge">
<title>Node18&#45;&gt;Node4</title>
<path fill="none" stroke="#63b8ff" d="M237.74,-164.59C237.85,-150.7 240.26,-124.03 256,-110 349.96,-26.26 690.89,-39.87 815,-19 820.3,-18.11 825.91,-17.15 831.37,-16.21"/>
<polygon fill="#63b8ff" stroke="#63b8ff" points="832.32,-19.6 841.57,-14.44 831.12,-12.7 832.32,-19.6"/>
</g>
<!-- Node18&#45;&gt;Node14 -->
<g id="edge21" class="edge">
<title>Node18&#45;&gt;Node14</title>
<path fill="none" stroke="#63b8ff" d="M276.51,-166.62C279.72,-166.07 282.92,-165.52 286,-165 373.93,-150.18 477.72,-133.88 530.11,-125.74"/>
<polygon fill="#63b8ff" stroke="#63b8ff" points="530.84,-129.17 540.18,-124.18 529.76,-122.25 530.84,-129.17"/>
</g>
<!-- Node19 -->
<g id="node19" class="node">
<title>Node19</title>
<g id="a_node19"><a xlink:title=" ">
<polygon fill="#e0e0e0" stroke="#999999" points="463,-129 431,-129 431,-110 463,-110 463,-129"/>
<text text-anchor="middle" x="447" y="-117" font-family="Helvetica,sans-Serif" font-size="10.00">set</text>
</a>
</g>
</g>
<!-- Node18&#45;&gt;Node19 -->
<g id="edge23" class="edge">
<title>Node18&#45;&gt;Node19</title>
<path fill="none" stroke="#63b8ff" d="M276.68,-165.21C312.06,-157.4 365.99,-144.89 421.32,-129"/>
<polygon fill="#63b8ff" stroke="#63b8ff" points="422.31,-132.35 430.93,-126.2 420.35,-125.63 422.31,-132.35"/>
</g>
<!-- Node20 -->
<g id="node20" class="node">
<title>Node20</title>
<g id="a_node20"><a xlink:title=" ">
<polygon fill="#e0e0e0" stroke="#999999" points="705,-129 667,-129 667,-110 705,-110 705,-129"/>
<text text-anchor="middle" x="686" y="-117" font-family="Helvetica,sans-Serif" font-size="10.00">map</text>
</a>
</g>
</g>
<!-- Node18&#45;&gt;Node20 -->
<g id="edge24" class="edge">
<title>Node18&#45;&gt;Node20</title>
<path fill="none" stroke="#63b8ff" d="M276.74,-166.42C279.87,-165.91 282.99,-165.43 286,-165 357.84,-154.66 576.47,-131.8 656.36,-123.55"/>
<polygon fill="#63b8ff" stroke="#63b8ff" points="657.1,-126.99 666.69,-122.48 656.38,-120.03 657.1,-126.99"/>
</g>
<!-- Node21 -->
<g id="node21" class="node">
<title>Node21</title>
<g id="a_node21"><a xlink:title=" ">
<polygon fill="#e0e0e0" stroke="#999999" points="351,-129 265,-129 265,-110 351,-110 351,-129"/>
<text text-anchor="middle" x="308" y="-117" font-family="Helvetica,sans-Serif" font-size="10.00">unordered_set</text>
</a>
</g>
</g>
<!-- Node18&#45;&gt;Node21 -->
<g id="edge25" class="edge">
<title>Node18&#45;&gt;Node21</title>
<path fill="none" stroke="#63b8ff" d="M249.25,-164.98C259.8,-157 275.81,-144.88 288.45,-135.31"/>
<polygon fill="#63b8ff" stroke="#63b8ff" points="290.69,-138 296.55,-129.17 286.47,-132.42 290.69,-138"/>
</g>
<!-- Node22 -->
<g id="node22" class="node">
<title>Node22</title>
<g id="a_node22"><a xlink:title=" ">
<polygon fill="#e0e0e0" stroke="#999999" points="816.5,-129 723.5,-129 723.5,-110 816.5,-110 816.5,-129"/>
<text text-anchor="middle" x="770" y="-117" font-family="Helvetica,sans-Serif" font-size="10.00">unordered_map</text>
</a>
</g>
</g>
<!-- Node18&#45;&gt;Node22 -->
<g id="edge26" class="edge">
<title>Node18&#45;&gt;Node22</title>
<path fill="none" stroke="#63b8ff" d="M276.73,-166.33C279.86,-165.84 282.98,-165.39 286,-165 472.06,-140.75 522.7,-150.97 713.22,-129"/>
<polygon fill="#63b8ff" stroke="#63b8ff" points="713.76,-132.47 723.28,-127.83 712.95,-125.51 713.76,-132.47"/>
</g>
<!-- Node23 -->
<g id="node23" class="node">
<title>Node23</title>
<g id="a_node23"><a xlink:title=" ">
<polygon fill="#e0e0e0" stroke="#999999" points="412.5,-129 369.5,-129 369.5,-110 412.5,-110 412.5,-129"/>
<text text-anchor="middle" x="391" y="-117" font-family="Helvetica,sans-Serif" font-size="10.00">stack</text>
</a>
</g>
</g>
<!-- Node18&#45;&gt;Node23 -->
<g id="edge27" class="edge">
<title>Node18&#45;&gt;Node23</title>
<path fill="none" stroke="#63b8ff" d="M262.59,-164.98C289.03,-155.82 331.15,-141.23 359.89,-131.28"/>
<polygon fill="#63b8ff" stroke="#63b8ff" points="361.15,-134.55 369.45,-127.97 358.86,-127.93 361.15,-134.55"/>
</g>
<!-- Node24&#45;&gt;Node14 -->
<g id="edge29" class="edge">
<title>Node24&#45;&gt;Node14</title>
<path fill="none" stroke="#63b8ff" d="M548.01,-329.98C547.02,-321.04 545.57,-306.55 545,-294 542.46,-237.38 553.78,-170.89 560.06,-139.17"/>
<polygon fill="#63b8ff" stroke="#63b8ff" points="563.53,-139.63 562.11,-129.13 556.68,-138.23 563.53,-139.63"/>
</g>
<!-- Node24&#45;&gt;Node18 -->
<g id="edge31" class="edge">
<title>Node24&#45;&gt;Node18</title>
<path fill="none" stroke="#63b8ff" d="M517.51,-329.88C469.16,-315.76 374.93,-284.62 305,-239 284.77,-225.8 265.14,-206.13 252.41,-192.19"/>
<polygon fill="#63b8ff" stroke="#63b8ff" points="254.7,-189.5 245.44,-184.36 249.48,-194.15 254.7,-189.5"/>
</g>
<!-- Node24&#45;&gt;Node19 -->
<g id="edge30" class="edge">
<title>Node24&#45;&gt;Node19</title>
<path fill="none" stroke="#63b8ff" d="M544.62,-329.86C532.83,-306.52 499.56,-240.18 474,-184 467.11,-168.84 459.73,-151.41 454.44,-138.65"/>
<polygon fill="#63b8ff" stroke="#63b8ff" points="457.59,-137.1 450.54,-129.19 451.11,-139.77 457.59,-137.1"/>
</g>
<!-- Node25 -->
<g id="node25" class="node">
<title>Node25</title>
<g id="a_node25"><a xlink:href="../../df/da1/definition_8h.html" target="_top" xlink:title=" ">
<polygon fill="white" stroke="#666666" points="721.5,-294 650.5,-294 650.5,-275 721.5,-275 721.5,-294"/>
<text text-anchor="middle" x="686" y="-282" font-family="Helvetica,sans-Serif" font-size="10.00">definition.h</text>
</a>
</g>
</g>
<!-- Node24&#45;&gt;Node25 -->
<g id="edge32" class="edge">
<title>Node24&#45;&gt;Node25</title>
<path fill="none" stroke="#63b8ff" d="M571.02,-329.98C593.45,-321.3 628.49,-307.75 653.99,-297.88"/>
<polygon fill="#63b8ff" stroke="#63b8ff" points="655.53,-301.04 663.59,-294.17 653,-294.51 655.53,-301.04"/>
</g>
<!-- Node28 -->
<g id="node28" class="node">
<title>Node28</title>
<g id="a_node28"><a xlink:href="../../df/d9b/arguments_8h.html" target="_top" xlink:title=" ">
<polygon fill="white" stroke="#666666" points="632,-294 554,-294 554,-275 632,-275 632,-294"/>
<text text-anchor="middle" x="593" y="-282" font-family="Helvetica,sans-Serif" font-size="10.00">arguments.h</text>
</a>
</g>
</g>
<!-- Node24&#45;&gt;Node28 -->
<g id="edge48" class="edge">
<title>Node24&#45;&gt;Node28</title>
<path fill="none" stroke="#63b8ff" d="M556.27,-329.75C562.55,-322.18 571.79,-311.05 579.44,-301.84"/>
<polygon fill="#63b8ff" stroke="#63b8ff" points="582.18,-304.02 585.87,-294.09 576.79,-299.55 582.18,-304.02"/>
</g>
<!-- Node29 -->
<g id="node29" class="node">
<title>Node29</title>
<g id="a_node29"><a xlink:href="../../d9/d11/membergroup_8h.html" target="_top" xlink:title=" ">
<polygon fill="white" stroke="#666666" points="1026.5,-294 931.5,-294 931.5,-275 1026.5,-275 1026.5,-294"/>
<text text-anchor="middle" x="979" y="-282" font-family="Helvetica,sans-Serif" font-size="10.00">membergroup.h</text>
</a>
</g>
</g>
<!-- Node24&#45;&gt;Node29 -->
<g id="edge51" class="edge">
<title>Node24&#45;&gt;Node29</title>
<path fill="none" stroke="#63b8ff" d="M581.68,-334.47C654.24,-325.53 829.62,-303.91 921.18,-292.63"/>
<polygon fill="#63b8ff" stroke="#63b8ff" points="921.88,-296.07 931.38,-291.37 921.02,-289.12 921.88,-296.07"/>
</g>
<!-- Node25&#45;&gt;Node2 -->
<g id="edge34" class="edge">
<title>Node25&#45;&gt;Node2</title>
<path fill="none" stroke="#63b8ff" d="M703.52,-274.98C720.97,-266.5 748.01,-253.35 768.18,-243.54"/>
<polygon fill="#63b8ff" stroke="#63b8ff" points="769.71,-246.69 777.17,-239.17 766.65,-240.4 769.71,-246.69"/>
</g>
<!-- Node25&#45;&gt;Node14 -->
<g id="edge33" class="edge">
<title>Node25&#45;&gt;Node14</title>
<path fill="none" stroke="#63b8ff" d="M679.45,-274.74C660,-248.76 602.42,-171.83 576.68,-137.44"/>
<polygon fill="#63b8ff" stroke="#63b8ff" points="579.39,-135.22 570.6,-129.31 573.79,-139.41 579.39,-135.22"/>
</g>
<!-- Node26 -->
<g id="node26" class="node">
<title>Node26</title>
<g id="a_node26"><a xlink:href="../../d1/d02/reflist_8h.html" target="_top" xlink:title=" ">
<polygon fill="white" stroke="#666666" points="1007.5,-239 954.5,-239 954.5,-220 1007.5,-220 1007.5,-239"/>
<text text-anchor="middle" x="981" y="-227" font-family="Helvetica,sans-Serif" font-size="10.00">reflist.h</text>
</a>
</g>
</g>
<!-- Node25&#45;&gt;Node26 -->
<g id="edge35" class="edge">
<title>Node25&#45;&gt;Node26</title>
<path fill="none" stroke="#63b8ff" d="M721.59,-277.11C778,-266.97 887.38,-247.32 944.41,-237.07"/>
<polygon fill="#63b8ff" stroke="#63b8ff" points="945.2,-240.49 954.43,-235.28 943.96,-233.6 945.2,-240.49"/>
</g>
<!-- Node26&#45;&gt;Node3 -->
<g id="edge39" class="edge">
<title>Node26&#45;&gt;Node3</title>
<path fill="none" stroke="#63b8ff" d="M987.03,-219.61C994.98,-206.68 1006.76,-182.32 996,-165 985.45,-148.01 966.28,-137.31 948.33,-130.67"/>
<polygon fill="#63b8ff" stroke="#63b8ff" points="949.14,-127.26 938.55,-127.39 946.91,-133.89 949.14,-127.26"/>
</g>
<!-- Node26&#45;&gt;Node14 -->
<g id="edge36" class="edge">
<title>Node26&#45;&gt;Node14</title>
<path fill="none" stroke="#63b8ff" d="M965.94,-219.82C941.28,-206 890.4,-179.14 844,-165 798.4,-151.1 661.49,-132.76 597.56,-124.65"/>
<polygon fill="#63b8ff" stroke="#63b8ff" points="597.95,-121.17 587.6,-123.4 597.08,-128.12 597.95,-121.17"/>
</g>
<!-- Node26&#45;&gt;Node15 -->
<g id="edge38" class="edge">
<title>Node26&#45;&gt;Node15</title>
<path fill="none" stroke="#63b8ff" d="M1007.92,-225.32C1065.93,-218.25 1200.99,-200.52 1244,-184 1274.97,-172.11 1306.61,-149.99 1325.79,-135.26"/>
<polygon fill="#63b8ff" stroke="#63b8ff" points="1327.97,-138 1333.67,-129.07 1323.64,-132.49 1327.97,-138"/>
</g>
<!-- Node26&#45;&gt;Node22 -->
<g id="edge37" class="edge">
<title>Node26&#45;&gt;Node22</title>
<path fill="none" stroke="#63b8ff" d="M980.39,-219.66C978.95,-205.88 974.11,-179.35 958,-165 948.06,-156.14 878.02,-141.13 826.33,-131.02"/>
<polygon fill="#63b8ff" stroke="#63b8ff" points="826.74,-127.54 816.26,-129.07 825.41,-134.41 826.74,-127.54"/>
</g>
<!-- Node27 -->
<g id="node27" class="node">
<title>Node27</title>
<g id="a_node27"><a xlink:href="../../da/de1/linkedmap_8h.html" target="_top" xlink:title=" ">
<polygon fill="white" stroke="#666666" points="1201.5,-184 1124.5,-184 1124.5,-165 1201.5,-165 1201.5,-184"/>
<text text-anchor="middle" x="1163" y="-172" font-family="Helvetica,sans-Serif" font-size="10.00">linkedmap.h</text>
</a>
</g>
</g>
<!-- Node26&#45;&gt;Node27 -->
<g id="edge40" class="edge">
<title>Node26&#45;&gt;Node27</title>
<path fill="none" stroke="#63b8ff" d="M1007.86,-220.68C1038.46,-211.77 1088.74,-197.13 1123.74,-186.93"/>
<polygon fill="#63b8ff" stroke="#63b8ff" points="1125,-190.21 1133.62,-184.06 1123.04,-183.49 1125,-190.21"/>
</g>
<!-- Node27&#45;&gt;Node3 -->
<g id="edge47" class="edge">
<title>Node27&#45;&gt;Node3</title>
<path fill="none" stroke="#63b8ff" d="M1124.25,-165.51C1076.99,-155.76 997.38,-139.34 948.49,-129.26"/>
<polygon fill="#63b8ff" stroke="#63b8ff" points="949.05,-125.8 938.55,-127.21 947.63,-132.66 949.05,-125.8"/>
</g>
<!-- Node27&#45;&gt;Node4 -->
<g id="edge44" class="edge">
<title>Node27&#45;&gt;Node4</title>
<path fill="none" stroke="#63b8ff" d="M1171.91,-164.69C1192.33,-143.44 1238.59,-88.64 1209,-55 1188.49,-31.67 978.07,-17.1 896.28,-12.27"/>
<polygon fill="#63b8ff" stroke="#63b8ff" points="896.25,-8.77 886.07,-11.68 895.85,-15.75 896.25,-8.77"/>
</g>
<!-- Node27&#45;&gt;Node5 -->
<g id="edge45" class="edge">
<title>Node27&#45;&gt;Node5</title>
<path fill="none" stroke="#63b8ff" d="M1124.35,-169.21C1055.12,-161.29 912.72,-143.8 865,-129 846.59,-123.29 843.91,-117.16 826,-110 793.42,-96.97 755.42,-85.09 727.23,-76.89"/>
<polygon fill="#63b8ff" stroke="#63b8ff" points="727.9,-73.44 717.32,-74.04 725.97,-80.16 727.9,-73.44"/>
</g>
<!-- Node27&#45;&gt;Node6 -->
<g id="edge46" class="edge">
<title>Node27&#45;&gt;Node6</title>
<path fill="none" stroke="#63b8ff" d="M1163.99,-164.66C1165.93,-147.17 1170.3,-107.8 1172.92,-84.27"/>
<polygon fill="#63b8ff" stroke="#63b8ff" points="1176.42,-84.48 1174.04,-74.16 1169.46,-83.71 1176.42,-84.48"/>
</g>
<!-- Node27&#45;&gt;Node14 -->
<g id="edge42" class="edge">
<title>Node27&#45;&gt;Node14</title>
<path fill="none" stroke="#63b8ff" d="M1124.36,-170.12C1039.8,-162.73 832.02,-144.53 658,-129 637.95,-127.21 615.49,-125.18 597.55,-123.55"/>
<polygon fill="#63b8ff" stroke="#63b8ff" points="597.84,-120.06 587.57,-122.65 597.21,-127.04 597.84,-120.06"/>
</g>
<!-- Node27&#45;&gt;Node15 -->
<g id="edge43" class="edge">
<title>Node27&#45;&gt;Node15</title>
<path fill="none" stroke="#63b8ff" d="M1192.09,-164.98C1222.7,-156.02 1271.05,-141.86 1304.97,-131.93"/>
<polygon fill="#63b8ff" stroke="#63b8ff" points="1306.38,-135.16 1315,-128.99 1304.42,-128.45 1306.38,-135.16"/>
</g>
<!-- Node27&#45;&gt;Node22 -->
<g id="edge41" class="edge">
<title>Node27&#45;&gt;Node22</title>
<path fill="none" stroke="#63b8ff" d="M1124.4,-168.39C1062.49,-160.19 937.17,-143.51 831,-129 829.55,-128.8 828.07,-128.6 826.58,-128.39"/>
<polygon fill="#63b8ff" stroke="#63b8ff" points="827.01,-124.92 816.63,-127.02 826.06,-131.85 827.01,-124.92"/>
</g>
<!-- Node28&#45;&gt;Node3 -->
<g id="edge50" class="edge">
<title>Node28&#45;&gt;Node3</title>
<path fill="none" stroke="#63b8ff" d="M609.39,-274.97C660.61,-248.29 817.99,-166.34 880.25,-133.91"/>
<polygon fill="#63b8ff" stroke="#63b8ff" points="882.15,-136.87 889.4,-129.15 878.92,-130.66 882.15,-136.87"/>
</g>
<!-- Node28&#45;&gt;Node14 -->
<g id="edge49" class="edge">
<title>Node28&#45;&gt;Node14</title>
<path fill="none" stroke="#63b8ff" d="M591.45,-274.74C586.9,-249.2 573.6,-174.43 567.34,-139.23"/>
<polygon fill="#63b8ff" stroke="#63b8ff" points="570.77,-138.54 565.57,-129.31 563.88,-139.77 570.77,-138.54"/>
</g>
<!-- Node29&#45;&gt;Node2 -->
<g id="edge55" class="edge">
<title>Node29&#45;&gt;Node2</title>
<path fill="none" stroke="#63b8ff" d="M949.44,-274.98C917.27,-265.72 865.8,-250.89 831.22,-240.93"/>
<polygon fill="#63b8ff" stroke="#63b8ff" points="832.09,-237.54 821.51,-238.13 830.15,-244.27 832.09,-237.54"/>
</g>
<!-- Node29&#45;&gt;Node14 -->
<g id="edge52" class="edge">
<title>Node29&#45;&gt;Node14</title>
<path fill="none" stroke="#63b8ff" d="M959.97,-274.98C931.91,-262.51 877.72,-238.71 831,-220 747.49,-186.54 647.87,-150.4 597.19,-132.28"/>
<polygon fill="#63b8ff" stroke="#63b8ff" points="598.32,-128.97 587.73,-128.9 595.97,-135.56 598.32,-128.97"/>
</g>
<!-- Node29&#45;&gt;Node15 -->
<g id="edge54" class="edge">
<title>Node29&#45;&gt;Node15</title>
<path fill="none" stroke="#63b8ff" d="M991.98,-274.94C1013.24,-261.29 1057.23,-234.65 1098,-220 1173.96,-192.71 1204.24,-220.94 1276,-184 1298.33,-172.51 1318.62,-151.55 1331.11,-136.86"/>
<polygon fill="#63b8ff" stroke="#63b8ff" points="1333.88,-139.01 1337.52,-129.06 1328.47,-134.57 1333.88,-139.01"/>
</g>
<!-- Node29&#45;&gt;Node20 -->
<g id="edge53" class="edge">
<title>Node29&#45;&gt;Node20</title>
<path fill="none" stroke="#63b8ff" d="M968.27,-274.74C941.96,-253.58 871.63,-198.98 806,-165 776.18,-149.55 739.73,-136.83 714.89,-129"/>
<polygon fill="#63b8ff" stroke="#63b8ff" points="715.91,-125.66 705.32,-126.05 713.85,-132.35 715.91,-125.66"/>
</g>
<!-- Node29&#45;&gt;Node26 -->
<g id="edge56" class="edge">
<title>Node29&#45;&gt;Node26</title>
<path fill="none" stroke="#63b8ff" d="M979.33,-274.75C979.6,-267.8 979.97,-257.85 980.3,-249.13"/>
<polygon fill="#63b8ff" stroke="#63b8ff" points="983.8,-249.21 980.68,-239.09 976.81,-248.95 983.8,-249.21"/>
</g>
<!-- Node30&#45;&gt;Node3 -->
<g id="edge63" class="edge">
<title>Node30&#45;&gt;Node3</title>
<path fill="none" stroke="#63b8ff" d="M181.22,-166.08C184.53,-165.69 187.81,-165.32 191,-165 472.27,-136.82 544.26,-151.94 826,-129 838.06,-128.02 851.12,-126.73 863.12,-125.45"/>
<polygon fill="#63b8ff" stroke="#63b8ff" points="863.78,-128.9 873.34,-124.34 863.02,-121.94 863.78,-128.9"/>
</g>
<!-- Node30&#45;&gt;Node4 -->
<g id="edge61" class="edge">
<title>Node30&#45;&gt;Node4</title>
<path fill="none" stroke="#63b8ff" d="M142.06,-164.88C169.39,-142.05 248.23,-79.99 326,-55 533.48,11.67 598.72,-45.66 815,-19 820.33,-18.34 825.96,-17.5 831.43,-16.61"/>
<polygon fill="#63b8ff" stroke="#63b8ff" points="832.37,-20 841.63,-14.86 831.18,-13.1 832.37,-20"/>
</g>
<!-- Node30&#45;&gt;Node14 -->
<g id="edge59" class="edge">
<title>Node30&#45;&gt;Node14</title>
<path fill="none" stroke="#63b8ff" d="M181.25,-166.31C184.55,-165.86 187.82,-165.42 191,-165 315.95,-148.55 464.8,-131.58 530.27,-124.25"/>
<polygon fill="#63b8ff" stroke="#63b8ff" points="530.86,-127.7 540.41,-123.11 530.09,-120.74 530.86,-127.7"/>
</g>
<!-- Node30&#45;&gt;Node16 -->
<g id="edge62" class="edge">
<title>Node30&#45;&gt;Node16</title>
<path fill="none" stroke="#63b8ff" d="M123.09,-164.75C115.22,-157.03 103.57,-145.6 94.09,-136.28"/>
<polygon fill="#63b8ff" stroke="#63b8ff" points="96.34,-133.6 86.76,-129.09 91.44,-138.59 96.34,-133.6"/>
</g>
<!-- Node30&#45;&gt;Node20 -->
<g id="edge60" class="edge">
<title>Node30&#45;&gt;Node20</title>
<path fill="none" stroke="#63b8ff" d="M181.23,-166.2C184.54,-165.78 187.82,-165.37 191,-165 370.94,-144.08 416.62,-145.61 597,-129 616.97,-127.16 639.45,-125.01 656.82,-123.34"/>
<polygon fill="#63b8ff" stroke="#63b8ff" points="657.29,-126.81 666.91,-122.36 656.62,-119.84 657.29,-126.81"/>
</g>
<!-- Node31 -->
<g id="node31" class="node">
<title>Node31</title>
<g id="a_node31"><a xlink:title=" ">
<polygon fill="#e0e0e0" stroke="#999999" points="171,-129 129,-129 129,-110 171,-110 171,-129"/>
<text text-anchor="middle" x="150" y="-117" font-family="Helvetica,sans-Serif" font-size="10.00">array</text>
</a>
</g>
</g>
<!-- Node30&#45;&gt;Node31 -->
<g id="edge58" class="edge">
<title>Node30&#45;&gt;Node31</title>
<path fill="none" stroke="#63b8ff" d="M134.98,-164.75C137.36,-157.72 140.79,-147.62 143.77,-138.84"/>
<polygon fill="#63b8ff" stroke="#63b8ff" points="147.19,-139.68 147.09,-129.09 140.56,-137.43 147.19,-139.68"/>
</g>
<!-- Node32&#45;&gt;Node2 -->
<g id="edge76" class="edge">
<title>Node32&#45;&gt;Node2</title>
<path fill="none" stroke="#63b8ff" d="M685.7,-439.88C696.51,-431.52 712.58,-418.08 724,-404 759.51,-360.26 769.14,-347.43 787,-294 791.81,-279.64 793.76,-262.57 794.54,-249.75"/>
<polygon fill="#63b8ff" stroke="#63b8ff" points="798.06,-249.51 794.98,-239.37 791.06,-249.21 798.06,-249.51"/>
</g>
<!-- Node32&#45;&gt;Node5 -->
<g id="edge66" class="edge">
<title>Node32&#45;&gt;Node5</title>
<path fill="none" stroke="#63b8ff" d="M632.89,-442.9C464.63,-418.48 -153.88,-313.33 36,-110 77.43,-65.64 506.4,-64.38 643.86,-65.14"/>
<polygon fill="#63b8ff" stroke="#63b8ff" points="643.98,-68.64 654,-65.2 644.03,-61.64 643.98,-68.64"/>
</g>
<!-- Node32&#45;&gt;Node14 -->
<g id="edge65" class="edge">
<title>Node32&#45;&gt;Node14</title>
<path fill="none" stroke="#63b8ff" d="M638.49,-439.93C595.56,-427.58 524.65,-400.39 489,-349 442.34,-281.72 445.6,-227.91 498,-165 508.61,-152.27 523.76,-141.7 536.87,-134.06"/>
<polygon fill="#63b8ff" stroke="#63b8ff" points="538.91,-136.94 545.96,-129.03 535.52,-130.81 538.91,-136.94"/>
</g>
<!-- Node32&#45;&gt;Node27 -->
<g id="edge75" class="edge">
<title>Node32&#45;&gt;Node27</title>
<path fill="none" stroke="#63b8ff" d="M715.18,-446.52C785.22,-441.2 928.97,-421.55 1022,-349 1081.34,-302.73 1131.67,-227.04 1152.6,-193.02"/>
<polygon fill="#63b8ff" stroke="#63b8ff" points="1155.74,-194.6 1157.92,-184.24 1149.75,-190.98 1155.74,-194.6"/>
</g>
<!-- Node32&#45;&gt;Node29 -->
<g id="edge77" class="edge">
<title>Node32&#45;&gt;Node29</title>
<path fill="none" stroke="#63b8ff" d="M715.14,-447.17C758.48,-444.11 827.32,-434.37 878,-404 920.36,-378.62 953.69,-329.13 969.32,-302.85"/>
<polygon fill="#63b8ff" stroke="#63b8ff" points="972.45,-304.43 974.42,-294.02 966.38,-300.93 972.45,-304.43"/>
</g>
<!-- Node33 -->
<g id="node33" class="node">
<title>Node33</title>
<g id="a_node33"><a xlink:href="../../d4/d46/memberdef_8h.html" target="_top" xlink:title=" ">
<polygon fill="white" stroke="#666666" points="715,-404 633,-404 633,-385 715,-385 715,-404"/>
<text text-anchor="middle" x="674" y="-392" font-family="Helvetica,sans-Serif" font-size="10.00">memberdef.h</text>
</a>
</g>
</g>
<!-- Node32&#45;&gt;Node33 -->
<g id="edge67" class="edge">
<title>Node32&#45;&gt;Node33</title>
<path fill="none" stroke="#63b8ff" d="M674,-439.75C674,-432.8 674,-422.85 674,-414.13"/>
<polygon fill="#63b8ff" stroke="#63b8ff" points="677.5,-414.09 674,-404.09 670.5,-414.09 677.5,-414.09"/>
</g>
<!-- Node33&#45;&gt;Node2 -->
<g id="edge71" class="edge">
<title>Node33&#45;&gt;Node2</title>
<path fill="none" stroke="#63b8ff" d="M689.35,-384.87C702.48,-376.9 721.24,-364.03 734,-349 760.49,-317.81 779.49,-273.17 788.71,-248.54"/>
<polygon fill="#63b8ff" stroke="#63b8ff" points="792.04,-249.62 792.15,-239.03 785.46,-247.24 792.04,-249.62"/>
</g>
<!-- Node33&#45;&gt;Node14 -->
<g id="edge68" class="edge">
<title>Node33&#45;&gt;Node14</title>
<path fill="none" stroke="#63b8ff" d="M632.83,-393.15C595.56,-390.62 541.51,-381.09 508,-349 486.63,-328.53 488,-315.09 488,-285.5 488,-285.5 488,-285.5 488,-228.5 488,-189.47 521.62,-154.58 544.14,-135.6"/>
<polygon fill="#63b8ff" stroke="#63b8ff" points="546.56,-138.14 552.13,-129.12 542.16,-132.7 546.56,-138.14"/>
</g>
<!-- Node33&#45;&gt;Node15 -->
<g id="edge69" class="edge">
<title>Node33&#45;&gt;Node15</title>
<path fill="none" stroke="#63b8ff" d="M715.21,-385.5C783.5,-371.51 923.71,-339.69 1036,-294 1099.02,-268.36 1106.94,-245.52 1170,-220 1226.77,-197.03 1253.55,-220.12 1303,-184 1318.69,-172.54 1329.95,-153.09 1336.65,-138.73"/>
<polygon fill="#63b8ff" stroke="#63b8ff" points="1339.95,-139.93 1340.73,-129.36 1333.53,-137.14 1339.95,-139.93"/>
</g>
<!-- Node33&#45;&gt;Node24 -->
<g id="edge74" class="edge">
<title>Node33&#45;&gt;Node24</title>
<path fill="none" stroke="#63b8ff" d="M653.92,-384.98C633.63,-376.38 602.05,-362.99 578.83,-353.15"/>
<polygon fill="#63b8ff" stroke="#63b8ff" points="580.03,-349.85 569.45,-349.17 577.29,-356.3 580.03,-349.85"/>
</g>
<!-- Node33&#45;&gt;Node25 -->
<g id="edge72" class="edge">
<title>Node33&#45;&gt;Node25</title>
<path fill="none" stroke="#63b8ff" d="M687.49,-384.75C698.3,-376.87 712.65,-364.21 719,-349 725.91,-332.45 714.54,-314.37 703.3,-301.75"/>
<polygon fill="#63b8ff" stroke="#63b8ff" points="705.59,-299.08 696.13,-294.32 700.55,-303.94 705.59,-299.08"/>
</g>
<!-- Node33&#45;&gt;Node28 -->
<g id="edge73" class="edge">
<title>Node33&#45;&gt;Node28</title>
<path fill="none" stroke="#63b8ff" d="M663.91,-384.99C654.23,-376.5 639.56,-362.78 629,-349 618.06,-334.71 608.18,-316.73 601.55,-303.55"/>
<polygon fill="#63b8ff" stroke="#63b8ff" points="604.51,-301.63 596.97,-294.18 598.22,-304.7 604.51,-301.63"/>
</g>
<!-- Node34 -->
<g id="node34" class="node">
<title>Node34</title>
<g id="a_node34"><a xlink:title=" ">
<polygon fill="#e0e0e0" stroke="#999999" points="710,-349 638,-349 638,-330 710,-330 710,-349"/>
<text text-anchor="middle" x="674" y="-337" font-family="Helvetica,sans-Serif" font-size="10.00">sys/types.h</text>
</a>
</g>
</g>
<!-- Node33&#45;&gt;Node34 -->
<g id="edge70" class="edge">
<title>Node33&#45;&gt;Node34</title>
<path fill="none" stroke="#63b8ff" d="M674,-384.75C674,-377.8 674,-367.85 674,-359.13"/>
<polygon fill="#63b8ff" stroke="#63b8ff" points="677.5,-359.09 674,-349.09 670.5,-359.09 677.5,-359.09"/>
</g>
<!-- Node35&#45;&gt;Node4 -->
<g id="edge80" class="edge">
<title>Node35&#45;&gt;Node4</title>
<path fill="none" stroke="#63b8ff" d="M1177.11,-392.33C1307.63,-388.21 1592,-369.58 1592,-285.5 1592,-285.5 1592,-285.5 1592,-118.5 1592,-58.55 1530.59,-71.66 1473,-55 1363.12,-23.22 1005.7,-13.4 896.19,-11.1"/>
<polygon fill="#63b8ff" stroke="#63b8ff" points="896.16,-7.59 886.09,-10.89 896.02,-14.59 896.16,-7.59"/>
</g>
<!-- Node35&#45;&gt;Node14 -->
<g id="edge82" class="edge">
<title>Node35&#45;&gt;Node14</title>
<path fill="none" stroke="#63b8ff" d="M1048.9,-389.78C997.48,-384.98 924.36,-374.02 865,-349 832.59,-335.34 643.26,-184.21 582.65,-135.52"/>
<polygon fill="#63b8ff" stroke="#63b8ff" points="584.67,-132.65 574.68,-129.11 580.28,-138.1 584.67,-132.65"/>
</g>
<!-- Node35&#45;&gt;Node15 -->
<g id="edge79" class="edge">
<title>Node35&#45;&gt;Node15</title>
<path fill="none" stroke="#63b8ff" d="M1177.01,-388.78C1286.49,-378.92 1498,-351.36 1498,-285.5 1498,-285.5 1498,-285.5 1498,-228.5 1498,-199.04 1499.54,-186.12 1479,-165 1453.84,-139.13 1413.36,-128.29 1383.29,-123.76"/>
<polygon fill="#63b8ff" stroke="#63b8ff" points="1383.5,-120.26 1373.12,-122.4 1382.57,-127.19 1383.5,-120.26"/>
</g>
<!-- Node35&#45;&gt;Node22 -->
<g id="edge81" class="edge">
<title>Node35&#45;&gt;Node22</title>
<path fill="none" stroke="#63b8ff" d="M1048.95,-386.37C965.91,-373.31 824.17,-337.12 760,-239 739.93,-208.31 752.53,-163.16 762.12,-138.39"/>
<polygon fill="#63b8ff" stroke="#63b8ff" points="765.37,-139.7 765.95,-129.12 758.9,-137.03 765.37,-139.7"/>
</g>
<!-- Node35&#45;&gt;Node24 -->
<g id="edge83" class="edge">
<title>Node35&#45;&gt;Node24</title>
<path fill="none" stroke="#63b8ff" d="M1048.78,-387.89C956.05,-379.72 779.31,-363.89 629,-349 616.96,-347.81 603.91,-346.45 591.91,-345.17"/>
<polygon fill="#63b8ff" stroke="#63b8ff" points="592,-341.66 581.69,-344.08 591.26,-348.62 592,-341.66"/>
</g>
<!-- Node36 -->
<g id="node36" class="node">
<title>Node36</title>
<g id="a_node36"><a xlink:href="../../d0/daa/dotgraph_8h.html" target="_top" xlink:title=" ">
<polygon fill="white" stroke="#666666" points="1247.5,-239 1178.5,-239 1178.5,-220 1247.5,-220 1247.5,-239"/>
<text text-anchor="middle" x="1213" y="-227" font-family="Helvetica,sans-Serif" font-size="10.00">dotgraph.h</text>
</a>
</g>
</g>
<!-- Node35&#45;&gt;Node36 -->
<g id="edge84" class="edge">
<title>Node35&#45;&gt;Node36</title>
<path fill="none" stroke="#63b8ff" d="M1115.12,-384.78C1120.43,-364.19 1135.78,-311.53 1162,-275 1170.25,-263.52 1182.01,-253 1192.16,-245.07"/>
<polygon fill="#63b8ff" stroke="#63b8ff" points="1194.28,-247.86 1200.19,-239.06 1190.09,-242.25 1194.28,-247.86"/>
</g>
<!-- Node40 -->
<g id="node40" class="node">
<title>Node40</title>
<g id="a_node40"><a xlink:href="../../d8/d3b/dotnode_8h.html" target="_top" xlink:title=" ">
<polygon fill="white" stroke="#666666" points="1235.5,-294 1170.5,-294 1170.5,-275 1235.5,-275 1235.5,-294"/>
<text text-anchor="middle" x="1203" y="-282" font-family="Helvetica,sans-Serif" font-size="10.00">dotnode.h</text>
</a>
</g>
</g>
<!-- Node35&#45;&gt;Node40 -->
<g id="edge93" class="edge">
<title>Node35&#45;&gt;Node40</title>
<path fill="none" stroke="#63b8ff" d="M1121.66,-384.9C1130.37,-376.12 1144.03,-361.98 1155,-349 1167.78,-333.88 1181.29,-315.8 1190.71,-302.81"/>
<polygon fill="#63b8ff" stroke="#63b8ff" points="1193.79,-304.53 1196.77,-294.36 1188.1,-300.44 1193.79,-304.53"/>
</g>
<!-- Node36&#45;&gt;Node3 -->
<g id="edge87" class="edge">
<title>Node36&#45;&gt;Node3</title>
<path fill="none" stroke="#63b8ff" d="M1215.83,-219.85C1219.64,-206.32 1224.52,-180.14 1211,-165 1177.01,-126.92 1024.3,-120.88 948.69,-120.28"/>
<polygon fill="#63b8ff" stroke="#63b8ff" points="948.57,-116.78 938.55,-120.23 948.54,-123.78 948.57,-116.78"/>
</g>
<!-- Node36&#45;&gt;Node20 -->
<g id="edge86" class="edge">
<title>Node36&#45;&gt;Node20</title>
<path fill="none" stroke="#63b8ff" d="M1193.58,-219.94C1161.18,-206.06 1093.77,-178.78 1034,-165 894.98,-132.94 854.87,-157.17 715,-129 714.9,-128.98 714.8,-128.96 714.7,-128.94"/>
<polygon fill="#63b8ff" stroke="#63b8ff" points="715.77,-125.6 705.23,-126.64 714.12,-132.4 715.77,-125.6"/>
</g>
<!-- Node37 -->
<g id="node37" class="node">
<title>Node37</title>
<g id="a_node37"><a xlink:title=" ">
<polygon fill="#e0e0e0" stroke="#999999" points="1470,-184 1410,-184 1410,-165 1470,-165 1470,-184"/>
<text text-anchor="middle" x="1440" y="-172" font-family="Helvetica,sans-Serif" font-size="10.00">iostream</text>
</a>
</g>
</g>
<!-- Node36&#45;&gt;Node37 -->
<g id="edge85" class="edge">
<title>Node36&#45;&gt;Node37</title>
<path fill="none" stroke="#63b8ff" d="M1247.98,-220.33C1288.96,-210.76 1356.75,-194.94 1399.85,-184.87"/>
<polygon fill="#63b8ff" stroke="#63b8ff" points="1400.78,-188.25 1409.72,-182.57 1399.18,-181.44 1400.78,-188.25"/>
</g>
<!-- Node38 -->
<g id="node38" class="node">
<title>Node38</title>
<g id="a_node38"><a xlink:href="../../df/d9c/dir_8h.html" target="_top" xlink:title=" ">
<polygon fill="white" stroke="#666666" points="1564,-184 1526,-184 1526,-165 1564,-165 1564,-184"/>
<text text-anchor="middle" x="1545" y="-172" font-family="Helvetica,sans-Serif" font-size="10.00">dir.h</text>
</a>
</g>
</g>
<!-- Node36&#45;&gt;Node38 -->
<g id="edge88" class="edge">
<title>Node36&#45;&gt;Node38</title>
<path fill="none" stroke="#63b8ff" d="M1247.57,-221.7C1250.76,-221.11 1253.94,-220.53 1257,-220 1351.24,-203.62 1463.36,-187.17 1515.55,-179.68"/>
<polygon fill="#63b8ff" stroke="#63b8ff" points="1516.35,-183.1 1525.75,-178.22 1515.36,-176.17 1516.35,-183.1"/>
</g>
<!-- Node38&#45;&gt;Node4 -->
<g id="edge89" class="edge">
<title>Node38&#45;&gt;Node4</title>
<path fill="none" stroke="#63b8ff" d="M1540.93,-164.93C1529.62,-142.2 1495.34,-80.41 1446,-55 1397.08,-29.8 1012.08,-15.32 896.62,-11.52"/>
<polygon fill="#63b8ff" stroke="#63b8ff" points="896.42,-8.01 886.31,-11.18 896.19,-15.01 896.42,-8.01"/>
</g>
<!-- Node38&#45;&gt;Node15 -->
<g id="edge90" class="edge">
<title>Node38&#45;&gt;Node15</title>
<path fill="none" stroke="#63b8ff" d="M1525.73,-168.42C1492.98,-159.78 1425.87,-142.09 1383,-130.78"/>
<polygon fill="#63b8ff" stroke="#63b8ff" points="1383.75,-127.36 1373.19,-128.2 1381.97,-134.13 1383.75,-127.36"/>
</g>
<!-- Node39 -->
<g id="node39" class="node">
<title>Node39</title>
<g id="a_node39"><a xlink:href="../../df/d45/fileinfo_8h.html" target="_top" xlink:title=" ">
<polygon fill="white" stroke="#666666" points="1436.5,-74 1377.5,-74 1377.5,-55 1436.5,-55 1436.5,-74"/>
<text text-anchor="middle" x="1407" y="-62" font-family="Helvetica,sans-Serif" font-size="10.00">fileinfo.h</text>
</a>
</g>
</g>
<!-- Node38&#45;&gt;Node39 -->
<g id="edge91" class="edge">
<title>Node38&#45;&gt;Node39</title>
<path fill="none" stroke="#63b8ff" d="M1533.71,-164.66C1510.14,-146.22 1455.49,-103.45 1426.26,-80.57"/>
<polygon fill="#63b8ff" stroke="#63b8ff" points="1428.1,-77.57 1418.07,-74.16 1423.79,-83.08 1428.1,-77.57"/>
</g>
<!-- Node39&#45;&gt;Node4 -->
<g id="edge92" class="edge">
<title>Node39&#45;&gt;Node4</title>
<path fill="none" stroke="#63b8ff" d="M1377.42,-60.61C1283.67,-51.46 993.59,-23.15 896.24,-13.65"/>
<polygon fill="#63b8ff" stroke="#63b8ff" points="896.41,-10.15 886.12,-12.66 895.73,-17.11 896.41,-10.15"/>
</g>
<!-- Node40&#45;&gt;Node14 -->
<g id="edge94" class="edge">
<title>Node40&#45;&gt;Node14</title>
<path fill="none" stroke="#63b8ff" d="M1170.21,-279.49C1121.02,-273.1 1025.43,-259.23 946,-239 846.85,-213.75 825.87,-194.86 728,-165 683.32,-151.37 631.16,-137.57 597.88,-129.03"/>
<polygon fill="#63b8ff" stroke="#63b8ff" points="598.32,-125.53 587.76,-126.45 596.59,-132.32 598.32,-125.53"/>
</g>
<!-- Node40&#45;&gt;Node20 -->
<g id="edge95" class="edge">
<title>Node40&#45;&gt;Node20</title>
<path fill="none" stroke="#63b8ff" d="M1178.72,-274.91C1143.29,-262.46 1075.3,-238.8 1017,-220 936.99,-194.19 916.53,-189.18 836,-165 794.11,-152.42 745.58,-138.06 715.33,-129.14"/>
<polygon fill="#63b8ff" stroke="#63b8ff" points="716.02,-125.69 705.43,-126.22 714.04,-132.41 716.02,-125.69"/>
</g>
<!-- Node40&#45;&gt;Node36 -->
<g id="edge98" class="edge">
<title>Node40&#45;&gt;Node36</title>
<path fill="none" stroke="#63b8ff" d="M1204.66,-274.75C1205.97,-267.8 1207.84,-257.85 1209.49,-249.13"/>
<polygon fill="#63b8ff" stroke="#63b8ff" points="1212.97,-249.56 1211.38,-239.09 1206.09,-248.27 1212.97,-249.56"/>
</g>
<!-- Node40&#45;&gt;Node37 -->
<g id="edge97" class="edge">
<title>Node40&#45;&gt;Node37</title>
<path fill="none" stroke="#63b8ff" d="M1228.95,-274.94C1253.33,-266.63 1290.67,-253.21 1322,-239 1355.71,-223.71 1393.09,-202.91 1416.56,-189.34"/>
<polygon fill="#63b8ff" stroke="#63b8ff" points="1418.55,-192.24 1425.43,-184.18 1415.03,-186.19 1418.55,-192.24"/>
</g>
<!-- Node41 -->
<g id="node41" class="node">
<title>Node41</title>
<g id="a_node41"><a xlink:title=" ">
<polygon fill="#e0e0e0" stroke="#999999" points="1312.5,-239 1265.5,-239 1265.5,-220 1312.5,-220 1312.5,-239"/>
<text text-anchor="middle" x="1289" y="-227" font-family="Helvetica,sans-Serif" font-size="10.00">deque</text>
</a>
</g>
</g>
<!-- Node40&#45;&gt;Node41 -->
<g id="edge96" class="edge">
<title>Node40&#45;&gt;Node41</title>
<path fill="none" stroke="#63b8ff" d="M1216.82,-274.98C1230.16,-266.77 1250.59,-254.18 1266.31,-244.49"/>
<polygon fill="#63b8ff" stroke="#63b8ff" points="1268.26,-247.4 1274.94,-239.17 1264.59,-241.44 1268.26,-247.4"/>
</g>
</g>
</svg>
