<?xml version="1.0" encoding="UTF-8" standalone="no"?>
<!DOCTYPE svg PUBLIC "-//W3C//DTD SVG 1.1//EN"
 "http://www.w3.org/Graphics/SVG/1.1/DTD/svg11.dtd">
<!-- Generated by graphviz version 2.43.0 (0)
 -->
<!-- Title: ManGenerator Pages: 1 -->
<svg width="312pt" height="216pt"
 viewBox="0.00 0.00 311.50 216.00" xmlns="http://www.w3.org/2000/svg" xmlns:xlink="http://www.w3.org/1999/xlink">
<g id="graph0" class="graph" transform="scale(1 1) rotate(0) translate(4 212)">
<title>ManGenerator</title>
<!-- Node1 -->
<g id="node1" class="node">
<title>Node1</title>
<g id="a_node1"><a xlink:title="Generator for Man page output.">
<polygon fill="#999999" stroke="#666666" points="233,-19 147,-19 147,0 233,0 233,-19"/>
<text text-anchor="middle" x="190" y="-7" font-family="Helvetica,sans-Serif" font-size="10.00">ManGenerator</text>
</a>
</g>
</g>
<!-- Node2 -->
<g id="node2" class="node">
<title>Node2</title>
<g id="a_node2"><a xlink:href="../../d3/d8e/class_output_generator.html" target="_top" xlink:title="Abstract output generator.">
<polygon fill="white" stroke="#666666" points="239,-75 141,-75 141,-56 239,-56 239,-75"/>
<text text-anchor="middle" x="190" y="-63" font-family="Helvetica,sans-Serif" font-size="10.00">OutputGenerator</text>
</a>
</g>
</g>
<!-- Node2&#45;&gt;Node1 -->
<g id="edge1" class="edge">
<title>Node2&#45;&gt;Node1</title>
<path fill="none" stroke="#63b8ff" d="M190,-45.3C190,-36.41 190,-26.28 190,-19.25"/>
<polygon fill="#63b8ff" stroke="#63b8ff" points="186.5,-45.58 190,-55.58 193.5,-45.58 186.5,-45.58"/>
</g>
<!-- Node3 -->
<g id="node3" class="node">
<title>Node3</title>
<g id="a_node3"><a xlink:href="../../df/d27/class_base_output_doc_interface.html" target="_top" xlink:title="Base Interface used for generating output outside of the comment blocks.">
<polygon fill="white" stroke="#666666" points="136,-152 0,-152 0,-133 136,-133 136,-152"/>
<text text-anchor="middle" x="68" y="-140" font-family="Helvetica,sans-Serif" font-size="10.00">BaseOutputDocInterface</text>
</a>
</g>
</g>
<!-- Node3&#45;&gt;Node2 -->
<g id="edge2" class="edge">
<title>Node3&#45;&gt;Node2</title>
<path fill="none" stroke="#63b8ff" d="M90.84,-127.46C115.92,-112.04 155.4,-87.77 176.17,-75"/>
<polygon fill="#63b8ff" stroke="#63b8ff" points="88.68,-124.68 81.99,-132.9 92.35,-130.64 88.68,-124.68"/>
</g>
<!-- Node4 -->
<g id="node4" class="node">
<title>Node4</title>
<g id="a_node4"><a xlink:href="../../d5/d9c/class_code_output_interface.html" target="_top" xlink:title="Output interface for code parser.">
<polygon fill="white" stroke="#666666" points="127,-208 9,-208 9,-189 127,-189 127,-208"/>
<text text-anchor="middle" x="68" y="-196" font-family="Helvetica,sans-Serif" font-size="10.00">CodeOutputInterface</text>
</a>
</g>
</g>
<!-- Node4&#45;&gt;Node3 -->
<g id="edge3" class="edge">
<title>Node4&#45;&gt;Node3</title>
<path fill="none" stroke="#63b8ff" d="M68,-178.3C68,-169.41 68,-159.28 68,-152.25"/>
<polygon fill="#63b8ff" stroke="#63b8ff" points="64.5,-178.58 68,-188.58 71.5,-178.58 64.5,-178.58"/>
</g>
<!-- Node5 -->
<g id="node5" class="node">
<title>Node5</title>
<g id="a_node5"><a xlink:href="../../d3/d30/class_text_stream.html" target="_top" xlink:title="Text streaming class that buffers data.">
<polygon fill="white" stroke="#666666" points="226,-152 154,-152 154,-133 226,-133 226,-152"/>
<text text-anchor="middle" x="190" y="-140" font-family="Helvetica,sans-Serif" font-size="10.00">TextStream</text>
</a>
</g>
</g>
<!-- Node5&#45;&gt;Node2 -->
<g id="edge4" class="edge">
<title>Node5&#45;&gt;Node2</title>
<path fill="none" stroke="#9a32cd" stroke-dasharray="5,2" d="M190,-122.52C190,-107.24 190,-86.48 190,-75"/>
<polygon fill="#9a32cd" stroke="#9a32cd" points="186.5,-122.9 190,-132.9 193.5,-122.9 186.5,-122.9"/>
<text text-anchor="middle" x="201" y="-101.5" font-family="Helvetica,sans-Serif" font-size="10.00"> m_t</text>
</g>
<!-- Node6 -->
<g id="node6" class="node">
<title>Node6</title>
<g id="a_node6"><a xlink:href="../../d9/d45/class_q_c_string.html" target="_top" xlink:title="This is an alternative implementation of QCString.">
<polygon fill="white" stroke="#666666" points="303.5,-152 244.5,-152 244.5,-133 303.5,-133 303.5,-152"/>
<text text-anchor="middle" x="274" y="-140" font-family="Helvetica,sans-Serif" font-size="10.00">QCString</text>
</a>
</g>
</g>
<!-- Node6&#45;&gt;Node2 -->
<g id="edge5" class="edge">
<title>Node6&#45;&gt;Node2</title>
<path fill="none" stroke="#9a32cd" stroke-dasharray="5,2" d="M256.65,-126.01C239.34,-110.55 213.38,-87.38 199.52,-75"/>
<polygon fill="#9a32cd" stroke="#9a32cd" points="254.57,-128.85 264.36,-132.9 259.24,-123.63 254.57,-128.85"/>
<text text-anchor="middle" x="271" y="-107" font-family="Helvetica,sans-Serif" font-size="10.00"> m_dir</text>
<text text-anchor="middle" x="271" y="-96" font-family="Helvetica,sans-Serif" font-size="10.00">m_fileName</text>
</g>
</g>
</svg>
