<?xml version="1.0" encoding="UTF-8" standalone="no"?>
<!DOCTYPE svg PUBLIC "-//W3C//DTD SVG 1.1//EN"
 "http://www.w3.org/Graphics/SVG/1.1/DTD/svg11.dtd">
<!-- Generated by graphviz version 2.43.0 (0)
 -->
<!-- Title: PageDefImpl Pages: 1 -->
<!--zoomable 647 -->
<svg id="main" version="1.1" xmlns="http://www.w3.org/2000/svg" xmlns:xlink="http://www.w3.org/1999/xlink" xml:space="preserve" onload="init(evt)">
<style type="text/css"><![CDATA[
.edge:hover path { stroke: red; }
.edge:hover polygon { stroke: red; fill: red; }
]]></style>
<script type="text/javascript"><![CDATA[
var edges = document.getElementsByTagName('g');
if (edges && edges.length) {
  for (var i=0;i<edges.length;i++) {
    if (edges[i].id.substr(0,4)=='edge') {
      edges[i].setAttribute('class','edge');
    }
  }
}
]]></script>
        <defs>
                <circle id="rim" cx="0" cy="0" r="7"/>
                <circle id="rim2" cx="0" cy="0" r="3.5"/>
                <g id="zoomPlus">
                        <use xlink:href="#rim" fill="#404040">
                                <set attributeName="fill" to="#808080" begin="zoomplus.mouseover" end="zoomplus.mouseout"/>
                        </use>
                        <path d="M-4,0h8M0,-4v8" fill="none" stroke="white" stroke-width="1.5" pointer-events="none"/>
                </g>
                <g id="zoomMin">
                        <use xlink:href="#rim" fill="#404040">
                                <set attributeName="fill" to="#808080" begin="zoomminus.mouseover" end="zoomminus.mouseout"/>
                        </use>
                        <path d="M-4,0h8" fill="none" stroke="white" stroke-width="1.5" pointer-events="none"/>
                </g>
                <g id="dirArrow">
                        <path fill="none" stroke="white" stroke-width="1.5" d="M0,-3.0v7 M-2.5,-0.5L0,-3.0L2.5,-0.5"/>
                </g>
               <g id="resetDef">
                       <use xlink:href="#rim2" fill="#404040">
                               <set attributeName="fill" to="#808080" begin="reset.mouseover" end="reset.mouseout"/>
                       </use>
               </g>
        </defs>

<script type="text/javascript">
var viewWidth = 985;
var viewHeight = 647;
var sectionId = 'dynsection-1';
</script>
<script xlink:href="../../svgpan.js"/>
<svg id="graph" class="graph">
<g id="viewport">
<title>PageDefImpl</title>
<!-- Node1 -->
<g id="node1" class="node">
<title>Node1</title>
<g id="a_node1"><a xlink:title=" ">
<polygon fill="#999999" stroke="#666666" points="802.9,-19 723.9,-19 723.9,0 802.9,0 802.9,-19"/>
<text text-anchor="middle" x="763.4" y="-7" font-family="Helvetica,sans-Serif" font-size="10.00">PageDefImpl</text>
</a>
</g>
</g>
<!-- Node2 -->
<g id="node2" class="node">
<title>Node2</title>
<g id="a_node2"><a xlink:href="../../dd/d10/class_definition_mixin.html" target="_top" xlink:title=" ">
<polygon fill="white" stroke="#666666" points="435.4,-85 281.4,-85 281.4,-66 435.4,-66 435.4,-85"/>
<text text-anchor="middle" x="358.4" y="-73" font-family="Helvetica,sans-Serif" font-size="10.00">DefinitionMixin&lt; PageDef &gt;</text>
</a>
</g>
</g>
<!-- Node2&#45;&gt;Node1 -->
<g id="edge1" class="edge">
<title>Node2&#45;&gt;Node1</title>
<path fill="none" stroke="#63b8ff" d="M422.61,-64.35C507.29,-50.97 653.75,-27.83 723.82,-16.75"/>
<polygon fill="#63b8ff" stroke="#63b8ff" points="421.93,-60.92 412.6,-65.94 423.02,-67.83 421.93,-60.92"/>
</g>
<!-- Node3 -->
<g id="node3" class="node">
<title>Node3</title>
<g id="a_node3"><a xlink:href="../../dd/d41/class_page_def.html" target="_top" xlink:title="A model of a page symbol.">
<polygon fill="white" stroke="#666666" points="262.9,-577.5 205.9,-577.5 205.9,-558.5 262.9,-558.5 262.9,-577.5"/>
<text text-anchor="middle" x="234.4" y="-565.5" font-family="Helvetica,sans-Serif" font-size="10.00">PageDef</text>
</a>
</g>
</g>
<!-- Node3&#45;&gt;Node2 -->
<g id="edge2" class="edge">
<title>Node3&#45;&gt;Node2</title>
<path fill="none" stroke="#63b8ff" d="M195.54,-565.69C143.79,-563.15 56,-555.82 32.4,-535 -5.94,-501.17 0.4,-475.63 0.4,-424.5 0.4,-424.5 0.4,-424.5 0.4,-146 0.4,-89.26 175.91,-77.9 281.16,-76.19"/>
<polygon fill="#63b8ff" stroke="#63b8ff" points="195.54,-569.19 205.69,-566.15 195.86,-562.2 195.54,-569.19"/>
</g>
<!-- Node4 -->
<g id="node4" class="node">
<title>Node4</title>
<g id="a_node4"><a xlink:href="../../d0/d46/class_definition_mutable.html" target="_top" xlink:title=" ">
<polygon fill="white" stroke="#666666" points="395.4,-639 291.4,-639 291.4,-620 395.4,-620 395.4,-639"/>
<text text-anchor="middle" x="343.4" y="-627" font-family="Helvetica,sans-Serif" font-size="10.00">DefinitionMutable</text>
</a>
</g>
</g>
<!-- Node4&#45;&gt;Node3 -->
<g id="edge3" class="edge">
<title>Node4&#45;&gt;Node3</title>
<path fill="none" stroke="#63b8ff" d="M318.77,-615.06C297.67,-603.54 267.94,-587.31 249.98,-577.51"/>
<polygon fill="#63b8ff" stroke="#63b8ff" points="317.32,-618.26 327.78,-619.98 320.68,-612.11 317.32,-618.26"/>
</g>
<!-- Node15 -->
<g id="node15" class="node">
<title>Node15</title>
<g id="a_node15"><a xlink:href="../../de/db0/class_file_def.html" target="_top" xlink:title="A model of a file symbol.">
<polygon fill="white" stroke="#666666" points="576.9,-577.5 525.9,-577.5 525.9,-558.5 576.9,-558.5 576.9,-577.5"/>
<text text-anchor="middle" x="551.4" y="-565.5" font-family="Helvetica,sans-Serif" font-size="10.00">FileDef</text>
</a>
</g>
</g>
<!-- Node4&#45;&gt;Node15 -->
<g id="edge17" class="edge">
<title>Node4&#45;&gt;Node15</title>
<path fill="none" stroke="#63b8ff" d="M391.2,-617.61C426.19,-609.23 474.66,-596.78 516.4,-583 521.24,-581.4 526.39,-579.48 531.19,-577.57"/>
<polygon fill="#63b8ff" stroke="#63b8ff" points="390.17,-614.25 381.25,-619.97 391.78,-621.07 390.17,-614.25"/>
</g>
<!-- Node5 -->
<g id="node5" class="node">
<title>Node5</title>
<g id="a_node5"><a xlink:href="../../d5/dcc/class_definition.html" target="_top" xlink:title="The common base class of all entity definitions found in the sources.">
<polygon fill="white" stroke="#666666" points="654.4,-639 590.4,-639 590.4,-620 654.4,-620 654.4,-639"/>
<text text-anchor="middle" x="622.4" y="-627" font-family="Helvetica,sans-Serif" font-size="10.00">Definition</text>
</a>
</g>
</g>
<!-- Node5&#45;&gt;Node1 -->
<g id="edge28" class="edge">
<title>Node5&#45;&gt;Node1</title>
<path fill="none" stroke="#9a32cd" stroke-dasharray="5,2" d="M664.92,-627.78C706.44,-624.54 763.4,-612.23 763.4,-569 763.4,-569 763.4,-569 763.4,-74.5 763.4,-54.72 763.4,-31.51 763.4,-19.2"/>
<polygon fill="#9a32cd" stroke="#9a32cd" points="664.51,-624.3 654.74,-628.42 664.94,-631.28 664.51,-624.3"/>
<text text-anchor="middle" x="799.4" y="-260" font-family="Helvetica,sans-Serif" font-size="10.00"> m_pageScope</text>
</g>
<!-- Node5&#45;&gt;Node3 -->
<g id="edge4" class="edge">
<title>Node5&#45;&gt;Node3</title>
<path fill="none" stroke="#63b8ff" d="M579.88,-626.19C513.26,-621.85 380.6,-610.34 271.4,-583 265.8,-581.6 259.89,-579.61 254.48,-577.57"/>
<polygon fill="#63b8ff" stroke="#63b8ff" points="579.79,-629.69 589.99,-626.82 580.23,-622.7 579.79,-629.69"/>
</g>
<!-- Node7 -->
<g id="node7" class="node">
<title>Node7</title>
<g id="a_node7"><a xlink:href="../../dd/d50/class_definition_impl_1_1_i_m_p_l.html" target="_top" xlink:title="Private data associated with a Symbol DefinitionImpl object.">
<polygon fill="white" stroke="#666666" points="455.9,-305 340.9,-305 340.9,-286 455.9,-286 455.9,-305"/>
<text text-anchor="middle" x="398.4" y="-293" font-family="Helvetica,sans-Serif" font-size="10.00">DefinitionImpl::IMPL</text>
</a>
</g>
</g>
<!-- Node5&#45;&gt;Node7 -->
<g id="edge7" class="edge">
<title>Node5&#45;&gt;Node7</title>
<path fill="none" stroke="#9a32cd" stroke-dasharray="5,2" d="M632.75,-610.94C647.8,-584.46 675.22,-532.25 687.4,-484 704.94,-414.49 745.8,-375.89 697.4,-323 681.45,-305.58 538.2,-299.54 455.91,-297.5"/>
<polygon fill="#9a32cd" stroke="#9a32cd" points="629.62,-609.36 627.65,-619.77 635.69,-612.86 629.62,-609.36"/>
<text text-anchor="middle" x="709.9" y="-521.5" font-family="Helvetica,sans-Serif" font-size="10.00"> def</text>
<text text-anchor="middle" x="709.9" y="-510.5" font-family="Helvetica,sans-Serif" font-size="10.00">outerScope</text>
</g>
<!-- Node5&#45;&gt;Node15 -->
<g id="edge18" class="edge">
<title>Node5&#45;&gt;Node15</title>
<path fill="none" stroke="#63b8ff" d="M604.46,-613.47C590.88,-602.09 572.72,-586.87 561.55,-577.51"/>
<polygon fill="#63b8ff" stroke="#63b8ff" points="602.31,-616.23 612.22,-619.98 606.81,-610.87 602.31,-616.23"/>
</g>
<!-- Node6 -->
<g id="node6" class="node">
<title>Node6</title>
<g id="a_node6"><a xlink:href="../../d3/ddf/class_definition_impl.html" target="_top" xlink:title=" ">
<polygon fill="white" stroke="#666666" points="441.4,-233.5 355.4,-233.5 355.4,-214.5 441.4,-214.5 441.4,-233.5"/>
<text text-anchor="middle" x="398.4" y="-221.5" font-family="Helvetica,sans-Serif" font-size="10.00">DefinitionImpl</text>
</a>
</g>
</g>
<!-- Node6&#45;&gt;Node2 -->
<g id="edge5" class="edge">
<title>Node6&#45;&gt;Node2</title>
<path fill="none" stroke="#9a32cd" stroke-dasharray="5,2" d="M403.05,-204.3C408.16,-179.53 413.55,-135.22 396.4,-103 392.31,-95.33 384.91,-89.42 377.72,-85.14"/>
<polygon fill="#9a32cd" stroke="#9a32cd" points="399.61,-203.67 400.81,-214.19 406.44,-205.22 399.61,-203.67"/>
<text text-anchor="middle" x="428.4" y="-144.5" font-family="Helvetica,sans-Serif" font-size="10.00"> m_impl</text>
</g>
<!-- Node17 -->
<g id="node17" class="node">
<title>Node17</title>
<g id="a_node17"><a xlink:href="../../dd/d10/class_definition_mixin.html" target="_top" xlink:title=" ">
<polygon fill="white" stroke="#666666" points="373.9,-156.5 236.9,-156.5 236.9,-137.5 373.9,-137.5 373.9,-156.5"/>
<text text-anchor="middle" x="305.4" y="-144.5" font-family="Helvetica,sans-Serif" font-size="10.00">DefinitionMixin&lt; Base &gt;</text>
</a>
</g>
</g>
<!-- Node6&#45;&gt;Node17 -->
<g id="edge23" class="edge">
<title>Node6&#45;&gt;Node17</title>
<path fill="none" stroke="#9a32cd" stroke-dasharray="5,2" d="M378.55,-208.2C371.5,-202.85 363.54,-196.73 356.4,-191 341.94,-179.41 325.63,-165.51 315.43,-156.72"/>
<polygon fill="#9a32cd" stroke="#9a32cd" points="376.78,-211.24 386.87,-214.46 380.98,-205.65 376.78,-211.24"/>
<text text-anchor="middle" x="376.4" y="-183" font-family="Helvetica,sans-Serif" font-size="10.00"> m_impl</text>
</g>
<!-- Node7&#45;&gt;Node6 -->
<g id="edge6" class="edge">
<title>Node7&#45;&gt;Node6</title>
<path fill="none" stroke="#9a32cd" stroke-dasharray="5,2" d="M398.4,-275.71C398.4,-262 398.4,-244.05 398.4,-233.59"/>
<polygon fill="#9a32cd" stroke="#9a32cd" points="394.9,-275.98 398.4,-285.98 401.9,-275.98 394.9,-275.98"/>
<text text-anchor="middle" x="418.4" y="-260" font-family="Helvetica,sans-Serif" font-size="10.00"> m_impl</text>
</g>
<!-- Node8 -->
<g id="node8" class="node">
<title>Node8</title>
<g id="a_node8"><a xlink:href="../../d1/df9/class_section_refs.html" target="_top" xlink:title="class that represents a list of constant references to sections.">
<polygon fill="white" stroke="#666666" points="148.4,-433 74.4,-433 74.4,-414 148.4,-414 148.4,-433"/>
<text text-anchor="middle" x="111.4" y="-421" font-family="Helvetica,sans-Serif" font-size="10.00">SectionRefs</text>
</a>
</g>
</g>
<!-- Node8&#45;&gt;Node7 -->
<g id="edge8" class="edge">
<title>Node8&#45;&gt;Node7</title>
<path fill="none" stroke="#9a32cd" stroke-dasharray="5,2" d="M104.66,-404.43C97.7,-382.27 90.39,-344.94 110.4,-323 125.58,-306.35 261.06,-300.02 340.68,-297.73"/>
<polygon fill="#9a32cd" stroke="#9a32cd" points="101.37,-405.64 107.93,-413.96 108,-403.37 101.37,-405.64"/>
<text text-anchor="middle" x="140.9" y="-331.5" font-family="Helvetica,sans-Serif" font-size="10.00"> sectionRefs</text>
</g>
<!-- Node9 -->
<g id="node9" class="node">
<title>Node9</title>
<g id="a_node9"><a xlink:href="../../d3/d3b/class_group_list.html" target="_top" xlink:title=" ">
<polygon fill="white" stroke="#666666" points="493.9,-433 430.9,-433 430.9,-414 493.9,-414 493.9,-433"/>
<text text-anchor="middle" x="462.4" y="-421" font-family="Helvetica,sans-Serif" font-size="10.00">GroupList</text>
</a>
</g>
</g>
<!-- Node9&#45;&gt;Node7 -->
<g id="edge9" class="edge">
<title>Node9&#45;&gt;Node7</title>
<path fill="none" stroke="#9a32cd" stroke-dasharray="5,2" d="M455.11,-404.47C446.69,-384.19 431.96,-350.51 416.4,-323 412.89,-316.8 408.39,-310.18 404.77,-305.1"/>
<polygon fill="#9a32cd" stroke="#9a32cd" points="451.89,-405.82 458.92,-413.75 458.36,-403.17 451.89,-405.82"/>
<text text-anchor="middle" x="462.9" y="-331.5" font-family="Helvetica,sans-Serif" font-size="10.00"> partOfGroups</text>
</g>
<!-- Node10 -->
<g id="node10" class="node">
<title>Node10</title>
<g id="a_node10"><a xlink:title=" ">
<polygon fill="white" stroke="#666666" points="507.4,-583 401.4,-583 401.4,-553 507.4,-553 507.4,-583"/>
<text text-anchor="start" x="409.4" y="-571" font-family="Helvetica,sans-Serif" font-size="10.00">std::vector&lt; const</text>
<text text-anchor="middle" x="454.4" y="-560" font-family="Helvetica,sans-Serif" font-size="10.00"> GroupDef * &gt;</text>
</a>
</g>
</g>
<!-- Node10&#45;&gt;Node9 -->
<g id="edge10" class="edge">
<title>Node10&#45;&gt;Node9</title>
<path fill="none" stroke="#63b8ff" d="M455.75,-542.83C457.57,-510.48 460.7,-454.7 461.9,-433.25"/>
<polygon fill="#63b8ff" stroke="#63b8ff" points="452.26,-542.64 455.19,-552.82 459.25,-543.03 452.26,-542.64"/>
</g>
<!-- Node11 -->
<g id="node11" class="node">
<title>Node11</title>
<g id="a_node11"><a xlink:href="../../d7/dd5/struct_doc_info.html" target="_top" xlink:title="Data associated with a detailed description.">
<polygon fill="white" stroke="#666666" points="412.4,-433 358.4,-433 358.4,-414 412.4,-414 412.4,-433"/>
<text text-anchor="middle" x="385.4" y="-421" font-family="Helvetica,sans-Serif" font-size="10.00">DocInfo</text>
</a>
</g>
</g>
<!-- Node11&#45;&gt;Node7 -->
<g id="edge11" class="edge">
<title>Node11&#45;&gt;Node7</title>
<path fill="none" stroke="#9a32cd" stroke-dasharray="5,2" d="M373.25,-405.14C360.47,-384.56 344.07,-349.68 358.4,-323 362.57,-315.22 370.15,-309.34 377.59,-305.12"/>
<polygon fill="#9a32cd" stroke="#9a32cd" points="370.49,-407.32 378.91,-413.76 376.34,-403.48 370.49,-407.32"/>
<text text-anchor="middle" x="387.4" y="-337" font-family="Helvetica,sans-Serif" font-size="10.00"> details</text>
<text text-anchor="middle" x="387.4" y="-326" font-family="Helvetica,sans-Serif" font-size="10.00">inbodyDocs</text>
</g>
<!-- Node12 -->
<g id="node12" class="node">
<title>Node12</title>
<g id="a_node12"><a xlink:href="../../d9/d45/class_q_c_string.html" target="_top" xlink:title="This is an alternative implementation of QCString.">
<polygon fill="white" stroke="#666666" points="339.9,-577.5 280.9,-577.5 280.9,-558.5 339.9,-558.5 339.9,-577.5"/>
<text text-anchor="middle" x="310.4" y="-565.5" font-family="Helvetica,sans-Serif" font-size="10.00">QCString</text>
</a>
</g>
</g>
<!-- Node12&#45;&gt;Node1 -->
<g id="edge24" class="edge">
<title>Node12&#45;&gt;Node1</title>
<path fill="none" stroke="#9a32cd" stroke-dasharray="5,2" d="M277.88,-555.09C275.69,-554.36 273.52,-553.66 271.4,-553 179.2,-524.31 132.12,-553.79 65.4,-484 46.21,-463.93 46.4,-452.26 46.4,-424.5 46.4,-424.5 46.4,-424.5 46.4,-74.5 46.4,-40.21 573.51,-17.67 723.83,-11.94"/>
<polygon fill="#9a32cd" stroke="#9a32cd" points="276.81,-558.43 287.41,-558.38 279.1,-551.81 276.81,-558.43"/>
<text text-anchor="middle" x="77.9" y="-227" font-family="Helvetica,sans-Serif" font-size="10.00"> m_fileName</text>
<text text-anchor="middle" x="77.9" y="-216" font-family="Helvetica,sans-Serif" font-size="10.00">m_title</text>
</g>
<!-- Node12&#45;&gt;Node7 -->
<g id="edge19" class="edge">
<title>Node12&#45;&gt;Node7</title>
<path fill="none" stroke="#9a32cd" stroke-dasharray="5,2" d="M277.78,-554.16C249.69,-541.15 210.98,-518.04 193.4,-484 168.71,-436.22 162.24,-406.83 193.4,-363 226.35,-316.65 292.44,-301.89 340.7,-297.56"/>
<polygon fill="#9a32cd" stroke="#9a32cd" points="276.66,-557.49 287.22,-558.35 279.5,-551.1 276.66,-557.49"/>
<text text-anchor="middle" x="232.4" y="-476" font-family="Helvetica,sans-Serif" font-size="10.00"> briefSignatures</text>
<text text-anchor="middle" x="232.4" y="-465" font-family="Helvetica,sans-Serif" font-size="10.00">defFileExt</text>
<text text-anchor="middle" x="232.4" y="-454" font-family="Helvetica,sans-Serif" font-size="10.00">defFileName</text>
<text text-anchor="middle" x="232.4" y="-443" font-family="Helvetica,sans-Serif" font-size="10.00">docSignatures</text>
<text text-anchor="middle" x="232.4" y="-432" font-family="Helvetica,sans-Serif" font-size="10.00">id</text>
<text text-anchor="middle" x="232.4" y="-421" font-family="Helvetica,sans-Serif" font-size="10.00">localName</text>
<text text-anchor="middle" x="232.4" y="-410" font-family="Helvetica,sans-Serif" font-size="10.00">name</text>
<text text-anchor="middle" x="232.4" y="-399" font-family="Helvetica,sans-Serif" font-size="10.00">qualifiedName</text>
<text text-anchor="middle" x="232.4" y="-388" font-family="Helvetica,sans-Serif" font-size="10.00">ref</text>
<text text-anchor="middle" x="232.4" y="-377" font-family="Helvetica,sans-Serif" font-size="10.00">symbolName</text>
<text text-anchor="middle" x="232.4" y="-366" font-family="Helvetica,sans-Serif" font-size="10.00">...</text>
</g>
<!-- Node12&#45;&gt;Node11 -->
<g id="edge12" class="edge">
<title>Node12&#45;&gt;Node11</title>
<path fill="none" stroke="#9a32cd" stroke-dasharray="5,2" d="M330.88,-551.97C336.5,-547.06 342.2,-541.25 346.4,-535 369.09,-501.23 380.13,-452.78 383.87,-433.2"/>
<polygon fill="#9a32cd" stroke="#9a32cd" points="328.43,-549.44 322.87,-558.46 332.84,-554.88 328.43,-549.44"/>
<text text-anchor="middle" x="373.9" y="-521.5" font-family="Helvetica,sans-Serif" font-size="10.00"> doc</text>
<text text-anchor="middle" x="373.9" y="-510.5" font-family="Helvetica,sans-Serif" font-size="10.00">file</text>
</g>
<!-- Node13 -->
<g id="node13" class="node">
<title>Node13</title>
<g id="a_node13"><a xlink:href="../../d0/da7/struct_brief_info.html" target="_top" xlink:title="Data associated with a brief description.">
<polygon fill="white" stroke="#666666" points="339.9,-433 280.9,-433 280.9,-414 339.9,-414 339.9,-433"/>
<text text-anchor="middle" x="310.4" y="-421" font-family="Helvetica,sans-Serif" font-size="10.00">BriefInfo</text>
</a>
</g>
</g>
<!-- Node12&#45;&gt;Node13 -->
<g id="edge14" class="edge">
<title>Node12&#45;&gt;Node13</title>
<path fill="none" stroke="#9a32cd" stroke-dasharray="5,2" d="M310.4,-548.04C310.4,-516.75 310.4,-455.53 310.4,-433.05"/>
<polygon fill="#9a32cd" stroke="#9a32cd" points="306.9,-548.09 310.4,-558.09 313.9,-548.09 306.9,-548.09"/>
<text text-anchor="middle" x="326.4" y="-527" font-family="Helvetica,sans-Serif" font-size="10.00"> doc</text>
<text text-anchor="middle" x="326.4" y="-516" font-family="Helvetica,sans-Serif" font-size="10.00">file</text>
<text text-anchor="middle" x="326.4" y="-505" font-family="Helvetica,sans-Serif" font-size="10.00">tooltip</text>
</g>
<!-- Node13&#45;&gt;Node7 -->
<g id="edge13" class="edge">
<title>Node13&#45;&gt;Node7</title>
<path fill="none" stroke="#9a32cd" stroke-dasharray="5,2" d="M307.48,-403.94C305.14,-382.11 304.82,-345.95 323.4,-323 330.09,-314.74 339.54,-309.04 349.48,-305.13"/>
<polygon fill="#9a32cd" stroke="#9a32cd" points="304.02,-404.45 308.8,-413.91 310.96,-403.53 304.02,-404.45"/>
<text text-anchor="middle" x="336.4" y="-331.5" font-family="Helvetica,sans-Serif" font-size="10.00"> brief</text>
</g>
<!-- Node14 -->
<g id="node14" class="node">
<title>Node14</title>
<g id="a_node14"><a xlink:href="../../db/dab/struct_body_info.html" target="_top" xlink:title="Data associated with description found in the body.">
<polygon fill="white" stroke="#666666" points="572.4,-433 512.4,-433 512.4,-414 572.4,-414 572.4,-433"/>
<text text-anchor="middle" x="542.4" y="-421" font-family="Helvetica,sans-Serif" font-size="10.00">BodyInfo</text>
</a>
</g>
</g>
<!-- Node14&#45;&gt;Node7 -->
<g id="edge15" class="edge">
<title>Node14&#45;&gt;Node7</title>
<path fill="none" stroke="#9a32cd" stroke-dasharray="5,2" d="M539.82,-403.85C535.71,-381.36 525.52,-343.98 501.4,-323 488.79,-312.03 472.22,-305.51 456.07,-301.66"/>
<polygon fill="#9a32cd" stroke="#9a32cd" points="536.38,-404.5 541.42,-413.82 543.29,-403.39 536.38,-404.5"/>
<text text-anchor="middle" x="532.4" y="-331.5" font-family="Helvetica,sans-Serif" font-size="10.00"> body</text>
</g>
<!-- Node15&#45;&gt;Node14 -->
<g id="edge16" class="edge">
<title>Node15&#45;&gt;Node14</title>
<path fill="none" stroke="#9a32cd" stroke-dasharray="5,2" d="M550.2,-548.04C548.22,-516.75 544.36,-455.53 542.94,-433.05"/>
<polygon fill="#9a32cd" stroke="#9a32cd" points="546.71,-548.33 550.83,-558.09 553.7,-547.89 546.71,-548.33"/>
<text text-anchor="middle" x="567.4" y="-516" font-family="Helvetica,sans-Serif" font-size="10.00"> fileDef</text>
</g>
<!-- Node16 -->
<g id="node16" class="node">
<title>Node16</title>
<g id="a_node16"><a xlink:href="../../d1/d7d/class_member_vector.html" target="_top" xlink:title="A vector of MemberDef object.">
<polygon fill="white" stroke="#666666" points="678.4,-433 590.4,-433 590.4,-414 678.4,-414 678.4,-433"/>
<text text-anchor="middle" x="634.4" y="-421" font-family="Helvetica,sans-Serif" font-size="10.00">MemberVector</text>
</a>
</g>
</g>
<!-- Node16&#45;&gt;Node7 -->
<g id="edge20" class="edge">
<title>Node16&#45;&gt;Node7</title>
<path fill="none" stroke="#9a32cd" stroke-dasharray="5,2" d="M624.81,-404.87C611.39,-382 584.72,-342.71 550.4,-323 521.94,-306.66 485.91,-299.89 456.07,-297.28"/>
<polygon fill="#9a32cd" stroke="#9a32cd" points="621.91,-406.85 629.89,-413.83 628,-403.4 621.91,-406.85"/>
<text text-anchor="middle" x="636.9" y="-337" font-family="Helvetica,sans-Serif" font-size="10.00"> referencedByMembers</text>
<text text-anchor="middle" x="636.9" y="-326" font-family="Helvetica,sans-Serif" font-size="10.00">referencesMembers</text>
</g>
<!-- Node17&#45;&gt;Node2 -->
<g id="edge21" class="edge">
<title>Node17&#45;&gt;Node2</title>
<path fill="none" stroke="orange" stroke-dasharray="5,2" d="M313.78,-128.02C317.93,-119.99 323.35,-110.63 329.4,-103 334.65,-96.37 341.61,-89.95 347.4,-85.08"/>
<polygon fill="orange" stroke="orange" points="310.51,-126.74 309.25,-137.26 316.8,-129.82 310.51,-126.74"/>
<text text-anchor="middle" x="362.9" y="-106" font-family="Helvetica,sans-Serif" font-size="10.00"> &lt; PageDef &gt;</text>
</g>
<!-- Node18 -->
<g id="node18" class="node">
<title>Node18</title>
<g id="a_node18"><a xlink:title=" ">
<polygon fill="white" stroke="#666666" points="325.9,-233.5 284.9,-233.5 284.9,-214.5 325.9,-214.5 325.9,-233.5"/>
<text text-anchor="middle" x="305.4" y="-221.5" font-family="Helvetica,sans-Serif" font-size="10.00">Base</text>
</a>
</g>
</g>
<!-- Node18&#45;&gt;Node17 -->
<g id="edge22" class="edge">
<title>Node18&#45;&gt;Node17</title>
<path fill="none" stroke="#63b8ff" d="M305.4,-204.02C305.4,-188.74 305.4,-167.98 305.4,-156.5"/>
<polygon fill="#63b8ff" stroke="#63b8ff" points="301.9,-204.4 305.4,-214.4 308.9,-204.4 301.9,-204.4"/>
</g>
<!-- Node19 -->
<g id="node19" class="node">
<title>Node19</title>
<g id="a_node19"><a xlink:href="../../d9/de6/class_page_linked_ref_map.html" target="_top" xlink:title=" ">
<polygon fill="white" stroke="#666666" points="900.9,-85 791.9,-85 791.9,-66 900.9,-66 900.9,-85"/>
<text text-anchor="middle" x="846.4" y="-73" font-family="Helvetica,sans-Serif" font-size="10.00">PageLinkedRefMap</text>
</a>
</g>
</g>
<!-- Node19&#45;&gt;Node1 -->
<g id="edge25" class="edge">
<title>Node19&#45;&gt;Node1</title>
<path fill="none" stroke="#9a32cd" stroke-dasharray="5,2" d="M826.93,-59.49C810.68,-46.96 788.08,-29.54 774.68,-19.2"/>
<polygon fill="#9a32cd" stroke="#9a32cd" points="825.15,-62.53 835.2,-65.87 829.42,-56.99 825.15,-62.53"/>
<text text-anchor="middle" x="841.4" y="-40" font-family="Helvetica,sans-Serif" font-size="10.00"> m_subPages</text>
</g>
<!-- Node20 -->
<g id="node20" class="node">
<title>Node20</title>
<g id="a_node20"><a xlink:href="../../d2/db7/class_linked_ref_map.html" target="_top" xlink:title=" ">
<polygon fill="white" stroke="#666666" points="917.9,-162 794.9,-162 794.9,-132 917.9,-132 917.9,-162"/>
<text text-anchor="start" x="802.9" y="-150" font-family="Helvetica,sans-Serif" font-size="10.00">LinkedRefMap&lt; const</text>
<text text-anchor="middle" x="856.4" y="-139" font-family="Helvetica,sans-Serif" font-size="10.00"> PageDef &gt;</text>
</a>
</g>
</g>
<!-- Node20&#45;&gt;Node19 -->
<g id="edge26" class="edge">
<title>Node20&#45;&gt;Node19</title>
<path fill="none" stroke="#63b8ff" d="M852.93,-121.94C851.11,-109.24 848.98,-94.44 847.66,-85.27"/>
<polygon fill="#63b8ff" stroke="#63b8ff" points="849.48,-122.54 854.37,-131.94 856.41,-121.54 849.48,-122.54"/>
</g>
<!-- Node21 -->
<g id="node21" class="node">
<title>Node21</title>
<g id="a_node21"><a xlink:href="../../d2/db7/class_linked_ref_map.html" target="_top" xlink:title="Container class representing a vector of objects with keys.">
<polygon fill="white" stroke="#666666" points="928.9,-239 791.9,-239 791.9,-209 928.9,-209 928.9,-239"/>
<text text-anchor="start" x="799.9" y="-227" font-family="Helvetica,sans-Serif" font-size="10.00">LinkedRefMap&lt; T, Hash,</text>
<text text-anchor="middle" x="860.4" y="-216" font-family="Helvetica,sans-Serif" font-size="10.00"> KeyEqual, Map &gt;</text>
</a>
</g>
</g>
<!-- Node21&#45;&gt;Node20 -->
<g id="edge27" class="edge">
<title>Node21&#45;&gt;Node20</title>
<path fill="none" stroke="orange" stroke-dasharray="5,2" d="M859.09,-198.54C858.45,-186.45 857.69,-172.29 857.15,-162.04"/>
<polygon fill="orange" stroke="orange" points="855.62,-199.09 859.64,-208.89 862.61,-198.72 855.62,-199.09"/>
<text text-anchor="middle" x="906.4" y="-183" font-family="Helvetica,sans-Serif" font-size="10.00"> &lt; const PageDef &gt;</text>
</g>
<!-- Node22 -->
<g id="node22" class="node">
<title>Node22</title>
<g id="a_node22"><a xlink:href="../../da/d1d/class_local_toc.html" target="_top" xlink:title=" ">
<polygon fill="white" stroke="#666666" points="977.4,-85 919.4,-85 919.4,-66 977.4,-66 977.4,-85"/>
<text text-anchor="middle" x="948.4" y="-73" font-family="Helvetica,sans-Serif" font-size="10.00">LocalToc</text>
</a>
</g>
</g>
<!-- Node22&#45;&gt;Node1 -->
<g id="edge29" class="edge">
<title>Node22&#45;&gt;Node1</title>
<path fill="none" stroke="#9a32cd" stroke-dasharray="5,2" d="M926.07,-60.79C912.42,-52.91 894.37,-43.34 877.4,-37 853.31,-28.01 825.2,-21.44 802.91,-17.08"/>
<polygon fill="#9a32cd" stroke="#9a32cd" points="924.36,-63.85 934.75,-65.92 927.92,-57.82 924.36,-63.85"/>
<text text-anchor="middle" x="930.4" y="-40" font-family="Helvetica,sans-Serif" font-size="10.00"> m_localToc</text>
</g>
</g>
</svg>
        <g id="navigator" transform="translate(0 0)" fill="#404254">
                <rect fill="#f2f5e9" fill-opacity="0.5" stroke="#606060" stroke-width=".5" x="0" y="0" width="60" height="60"/>
                <use id="zoomplus" xlink:href="#zoomPlus" x="17" y="9" onmousedown="handleZoom(evt,'in')"/>
                <use id="zoomminus" xlink:href="#zoomMin" x="42" y="9" onmousedown="handleZoom(evt,'out')"/>
                <use id="reset" xlink:href="#resetDef" x="30" y="36" onmousedown="handleReset()"/>
                <g id="arrowUp" xlink:href="#dirArrow" transform="translate(30 24)" onmousedown="handlePan(0,-1)">
                  <use xlink:href="#rim" fill="#404040">
                        <set attributeName="fill" to="#808080" begin="arrowUp.mouseover" end="arrowUp.mouseout"/>
                  </use>
                  <path fill="none" stroke="white" stroke-width="1.5" d="M0,-3.0v7 M-2.5,-0.5L0,-3.0L2.5,-0.5"/>
                </g>
                <g id="arrowRight" xlink:href="#dirArrow" transform="rotate(90) translate(36 -43)" onmousedown="handlePan(1,0)">
                  <use xlink:href="#rim" fill="#404040">
                        <set attributeName="fill" to="#808080" begin="arrowRight.mouseover" end="arrowRight.mouseout"/>
                  </use>
                  <path fill="none" stroke="white" stroke-width="1.5" d="M0,-3.0v7 M-2.5,-0.5L0,-3.0L2.5,-0.5"/>
                </g>
                <g id="arrowDown" xlink:href="#dirArrow" transform="rotate(180) translate(-30 -48)" onmousedown="handlePan(0,1)">
                  <use xlink:href="#rim" fill="#404040">
                        <set attributeName="fill" to="#808080" begin="arrowDown.mouseover" end="arrowDown.mouseout"/>
                  </use>
                  <path fill="none" stroke="white" stroke-width="1.5" d="M0,-3.0v7 M-2.5,-0.5L0,-3.0L2.5,-0.5"/>
                </g>
                <g id="arrowLeft" xlink:href="#dirArrow" transform="rotate(270) translate(-36 17)" onmousedown="handlePan(-1,0)">
                  <use xlink:href="#rim" fill="#404040">
                        <set attributeName="fill" to="#808080" begin="arrowLeft.mouseover" end="arrowLeft.mouseout"/>
                  </use>
                  <path fill="none" stroke="white" stroke-width="1.5" d="M0,-3.0v7 M-2.5,-0.5L0,-3.0L2.5,-0.5"/>
                </g>
        </g>
        <svg viewBox="0 0 15 15" width="100%" height="30px" preserveAspectRatio="xMaxYMin meet">
         <g id="arrow_out" transform="scale(0.3 0.3)">
          <a xlink:href="class_page_def_impl__coll__graph_org.svg" target="_base">
           <rect id="button" ry="5" rx="5" y="6" x="6" height="38" width="38"
                fill="#f2f5e9" fill-opacity="0.5" stroke="#606060" stroke-width="1.0"/>
           <path id="arrow"
             d="M 11.500037,31.436501 C 11.940474,20.09759 22.043105,11.32322 32.158766,21.979434 L 37.068811,17.246167 C 37.068811,17.246167 37.088388,32 37.088388,32 L 22.160133,31.978069 C 22.160133,31.978069 26.997745,27.140456 26.997745,27.140456 C 18.528582,18.264221 13.291696,25.230495 11.500037,31.436501 z"
             style="fill:#404040;"/>
          </a>
         </g>
        </svg>
</svg>
