<?xml version="1.0" encoding="UTF-8" standalone="no"?>
<!DOCTYPE svg PUBLIC "-//W3C//DTD SVG 1.1//EN"
 "http://www.w3.org/Graphics/SVG/1.1/DTD/svg11.dtd">
<!-- Generated by graphviz version 2.43.0 (0)
 -->
<!-- Title: DocbookGenerator Pages: 1 -->
<svg width="463pt" height="248pt"
 viewBox="0.00 0.00 462.50 248.00" xmlns="http://www.w3.org/2000/svg" xmlns:xlink="http://www.w3.org/1999/xlink">
<g id="graph0" class="graph" transform="scale(1 1) rotate(0) translate(4 244)">
<title>DocbookGenerator</title>
<!-- Node1 -->
<g id="node1" class="node">
<title>Node1</title>
<g id="a_node1"><a xlink:title=" ">
<polygon fill="#999999" stroke="#666666" points="320,-19 212,-19 212,0 320,0 320,-19"/>
<text text-anchor="middle" x="266" y="-7" font-family="Helvetica,sans-Serif" font-size="10.00">DocbookGenerator</text>
</a>
</g>
</g>
<!-- Node2 -->
<g id="node2" class="node">
<title>Node2</title>
<g id="a_node2"><a xlink:href="../../d3/d8e/class_output_generator.html" target="_top" xlink:title="Abstract output generator.">
<polygon fill="white" stroke="#666666" points="173,-85 75,-85 75,-66 173,-66 173,-85"/>
<text text-anchor="middle" x="124" y="-73" font-family="Helvetica,sans-Serif" font-size="10.00">OutputGenerator</text>
</a>
</g>
</g>
<!-- Node2&#45;&gt;Node1 -->
<g id="edge1" class="edge">
<title>Node2&#45;&gt;Node1</title>
<path fill="none" stroke="#63b8ff" d="M152.41,-61.69C180.4,-49.08 222.38,-30.16 246.7,-19.2"/>
<polygon fill="#63b8ff" stroke="#63b8ff" points="150.83,-58.57 143.15,-65.87 153.71,-64.95 150.83,-58.57"/>
</g>
<!-- Node3 -->
<g id="node3" class="node">
<title>Node3</title>
<g id="a_node3"><a xlink:href="../../df/d27/class_base_output_doc_interface.html" target="_top" xlink:title="Base Interface used for generating output outside of the comment blocks.">
<polygon fill="white" stroke="#666666" points="136,-184 0,-184 0,-165 136,-165 136,-184"/>
<text text-anchor="middle" x="68" y="-172" font-family="Helvetica,sans-Serif" font-size="10.00">BaseOutputDocInterface</text>
</a>
</g>
</g>
<!-- Node3&#45;&gt;Node2 -->
<g id="edge2" class="edge">
<title>Node3&#45;&gt;Node2</title>
<path fill="none" stroke="#63b8ff" d="M67.79,-154.64C68.49,-139.47 71.53,-118.24 82,-103 87.27,-95.33 95.57,-89.41 103.41,-85.13"/>
<polygon fill="#63b8ff" stroke="#63b8ff" points="64.28,-154.8 67.62,-164.86 71.28,-154.92 64.28,-154.8"/>
</g>
<!-- Node4 -->
<g id="node4" class="node">
<title>Node4</title>
<g id="a_node4"><a xlink:href="../../d5/d9c/class_code_output_interface.html" target="_top" xlink:title="Output interface for code parser.">
<polygon fill="white" stroke="#666666" points="297,-240 179,-240 179,-221 297,-221 297,-240"/>
<text text-anchor="middle" x="238" y="-228" font-family="Helvetica,sans-Serif" font-size="10.00">CodeOutputInterface</text>
</a>
</g>
</g>
<!-- Node4&#45;&gt;Node3 -->
<g id="edge3" class="edge">
<title>Node4&#45;&gt;Node3</title>
<path fill="none" stroke="#63b8ff" d="M201.18,-217.8C169.15,-207.63 123.48,-193.12 94.81,-184.02"/>
<polygon fill="#63b8ff" stroke="#63b8ff" points="200.47,-221.25 211.06,-220.94 202.59,-214.58 200.47,-221.25"/>
</g>
<!-- Node7 -->
<g id="node7" class="node">
<title>Node7</title>
<g id="a_node7"><a xlink:href="../../d7/d80/class_docbook_code_generator.html" target="_top" xlink:title=" ">
<polygon fill="white" stroke="#666666" points="454.5,-85 321.5,-85 321.5,-66 454.5,-66 454.5,-85"/>
<text text-anchor="middle" x="388" y="-73" font-family="Helvetica,sans-Serif" font-size="10.00">DocbookCodeGenerator</text>
</a>
</g>
</g>
<!-- Node4&#45;&gt;Node7 -->
<g id="edge8" class="edge">
<title>Node4&#45;&gt;Node7</title>
<path fill="none" stroke="#63b8ff" d="M287.37,-217.96C323.86,-206.57 371.02,-185.14 394,-147 405.79,-127.43 397.28,-99.08 391.74,-85.04"/>
<polygon fill="#63b8ff" stroke="#63b8ff" points="285.99,-214.72 277.39,-220.91 287.97,-221.43 285.99,-214.72"/>
</g>
<!-- Node5 -->
<g id="node5" class="node">
<title>Node5</title>
<g id="a_node5"><a xlink:href="../../d3/d30/class_text_stream.html" target="_top" xlink:title="Text streaming class that buffers data.">
<polygon fill="white" stroke="#666666" points="226,-184 154,-184 154,-165 226,-165 226,-184"/>
<text text-anchor="middle" x="190" y="-172" font-family="Helvetica,sans-Serif" font-size="10.00">TextStream</text>
</a>
</g>
</g>
<!-- Node5&#45;&gt;Node2 -->
<g id="edge4" class="edge">
<title>Node5&#45;&gt;Node2</title>
<path fill="none" stroke="#9a32cd" stroke-dasharray="5,2" d="M144.88,-162.42C124.75,-157.02 104.88,-150.88 102,-147 90.33,-131.3 95.36,-121.39 102,-103 104.44,-96.25 109.42,-90.01 114.03,-85.28"/>
<polygon fill="#9a32cd" stroke="#9a32cd" points="144.15,-165.85 154.71,-164.99 145.92,-159.07 144.15,-165.85"/>
<text text-anchor="middle" x="113" y="-122.5" font-family="Helvetica,sans-Serif" font-size="10.00"> m_t</text>
</g>
<!-- Node5&#45;&gt;Node7 -->
<g id="edge9" class="edge">
<title>Node5&#45;&gt;Node7</title>
<path fill="none" stroke="#9a32cd" stroke-dasharray="5,2" d="M202.6,-156.51C216.75,-137.9 239.26,-109.79 251,-103 263.43,-95.81 293.7,-89.6 322.64,-85"/>
<polygon fill="#9a32cd" stroke="#9a32cd" points="199.62,-154.65 196.41,-164.74 205.22,-158.85 199.62,-154.65"/>
<text text-anchor="middle" x="262" y="-122.5" font-family="Helvetica,sans-Serif" font-size="10.00"> m_t</text>
</g>
<!-- Node6 -->
<g id="node6" class="node">
<title>Node6</title>
<g id="a_node6"><a xlink:href="../../d9/d45/class_q_c_string.html" target="_top" xlink:title="This is an alternative implementation of QCString.">
<polygon fill="white" stroke="#666666" points="303.5,-184 244.5,-184 244.5,-165 303.5,-165 303.5,-184"/>
<text text-anchor="middle" x="274" y="-172" font-family="Helvetica,sans-Serif" font-size="10.00">QCString</text>
</a>
</g>
</g>
<!-- Node6&#45;&gt;Node1 -->
<g id="edge6" class="edge">
<title>Node6&#45;&gt;Node1</title>
<path fill="none" stroke="#9a32cd" stroke-dasharray="5,2" d="M273.06,-154.37C271.33,-119.03 267.68,-44.79 266.43,-19.31"/>
<polygon fill="#9a32cd" stroke="#9a32cd" points="269.58,-154.92 273.57,-164.74 276.58,-154.58 269.58,-154.92"/>
<text text-anchor="middle" x="287.5" y="-73" font-family="Helvetica,sans-Serif" font-size="10.00"> relPath</text>
</g>
<!-- Node6&#45;&gt;Node2 -->
<g id="edge5" class="edge">
<title>Node6&#45;&gt;Node2</title>
<path fill="none" stroke="#9a32cd" stroke-dasharray="5,2" d="M234.18,-165.15C193.12,-158.96 174.63,-171.66 147,-147 128.94,-130.88 125,-100.42 124.18,-85.37"/>
<polygon fill="#9a32cd" stroke="#9a32cd" points="233.73,-168.62 244.2,-166.96 234.98,-161.74 233.73,-168.62"/>
<text text-anchor="middle" x="177" y="-128" font-family="Helvetica,sans-Serif" font-size="10.00"> m_dir</text>
<text text-anchor="middle" x="177" y="-117" font-family="Helvetica,sans-Serif" font-size="10.00">m_fileName</text>
</g>
<!-- Node6&#45;&gt;Node7 -->
<g id="edge10" class="edge">
<title>Node6&#45;&gt;Node7</title>
<path fill="none" stroke="#9a32cd" stroke-dasharray="5,2" d="M276.28,-154.55C279.16,-138.68 285.63,-116.52 300,-103 308.83,-94.69 320.17,-88.98 331.76,-85.06"/>
<polygon fill="#9a32cd" stroke="#9a32cd" points="272.77,-154.37 274.75,-164.78 279.69,-155.4 272.77,-154.37"/>
<text text-anchor="middle" x="347" y="-139" font-family="Helvetica,sans-Serif" font-size="10.00"> m_external</text>
<text text-anchor="middle" x="347" y="-128" font-family="Helvetica,sans-Serif" font-size="10.00">m_refId</text>
<text text-anchor="middle" x="347" y="-117" font-family="Helvetica,sans-Serif" font-size="10.00">m_relPath</text>
<text text-anchor="middle" x="347" y="-106" font-family="Helvetica,sans-Serif" font-size="10.00">m_sourceFileName</text>
</g>
<!-- Node7&#45;&gt;Node1 -->
<g id="edge7" class="edge">
<title>Node7&#45;&gt;Node1</title>
<path fill="none" stroke="#9a32cd" stroke-dasharray="5,2" d="M362.64,-61.19C338.6,-48.59 303.2,-30.01 282.58,-19.2"/>
<polygon fill="#9a32cd" stroke="#9a32cd" points="361.07,-64.32 371.55,-65.87 364.32,-58.12 361.07,-64.32"/>
<text text-anchor="middle" x="364.5" y="-40" font-family="Helvetica,sans-Serif" font-size="10.00"> m_codeGen</text>
</g>
</g>
</svg>
