<?xml version="1.0" encoding="UTF-8" standalone="no"?>
<!DOCTYPE svg PUBLIC "-//W3C//DTD SVG 1.1//EN"
 "http://www.w3.org/Graphics/SVG/1.1/DTD/svg11.dtd">
<!-- Generated by graphviz version 2.43.0 (0)
 -->
<!-- Title: DocbookGenerator Pages: 1 -->
<svg width="322pt" height="192pt"
 viewBox="0.00 0.00 322.00 192.00" xmlns="http://www.w3.org/2000/svg" xmlns:xlink="http://www.w3.org/1999/xlink">
<g id="graph0" class="graph" transform="scale(1 1) rotate(0) translate(4 188)">
<title>DocbookGenerator</title>
<!-- Node1 -->
<g id="node1" class="node">
<title>Node1</title>
<g id="a_node1"><a xlink:title=" ">
<polygon fill="#999999" stroke="#666666" points="264,-19 156,-19 156,0 264,0 264,-19"/>
<text text-anchor="middle" x="210" y="-7" font-family="Helvetica,sans-Serif" font-size="10.00">DocbookGenerator</text>
</a>
</g>
</g>
<!-- Node2 -->
<g id="node2" class="node">
<title>Node2</title>
<g id="a_node2"><a xlink:href="../../d3/d8e/class_output_generator.html" target="_top" xlink:title="Base class for specific output generators.">
<polygon fill="white" stroke="#666666" points="259,-85 161,-85 161,-66 259,-66 259,-85"/>
<text text-anchor="middle" x="210" y="-73" font-family="Helvetica,sans-Serif" font-size="10.00">OutputGenerator</text>
</a>
</g>
</g>
<!-- Node2&#45;&gt;Node1 -->
<g id="edge1" class="edge">
<title>Node2&#45;&gt;Node1</title>
<path fill="none" stroke="#63b8ff" d="M210,-55.58C210,-43.63 210,-28.72 210,-19.41"/>
<polygon fill="#63b8ff" stroke="#63b8ff" points="206.5,-55.87 210,-65.87 213.5,-55.87 206.5,-55.87"/>
</g>
<!-- Node3 -->
<g id="node3" class="node">
<title>Node3</title>
<g id="a_node3"><a xlink:href="../../d3/d30/class_text_stream.html" target="_top" xlink:title="Text streaming class that buffers data.">
<polygon fill="white" stroke="#666666" points="72,-184 0,-184 0,-165 72,-165 72,-184"/>
<text text-anchor="middle" x="36" y="-172" font-family="Helvetica,sans-Serif" font-size="10.00">TextStream</text>
</a>
</g>
</g>
<!-- Node3&#45;&gt;Node2 -->
<g id="edge2" class="edge">
<title>Node3&#45;&gt;Node2</title>
<path fill="none" stroke="#9a32cd" stroke-dasharray="5,2" d="M36.71,-154.18C38.39,-138.09 43.42,-115.8 58,-103 61.94,-99.54 117.87,-90.41 160.75,-83.83"/>
<polygon fill="#9a32cd" stroke="#9a32cd" points="33.19,-154.37 36,-164.59 40.18,-154.85 33.19,-154.37"/>
<text text-anchor="middle" x="69" y="-122.5" font-family="Helvetica,sans-Serif" font-size="10.00" fill="grey"> m_t</text>
</g>
<!-- Node5 -->
<g id="node5" class="node">
<title>Node5</title>
<g id="a_node5"><a xlink:href="../../d7/d80/class_docbook_code_generator.html" target="_top" xlink:title=" ">
<polygon fill="white" stroke="#666666" points="142.5,-85 9.5,-85 9.5,-66 142.5,-66 142.5,-85"/>
<text text-anchor="middle" x="76" y="-73" font-family="Helvetica,sans-Serif" font-size="10.00">DocbookCodeGenerator</text>
</a>
</g>
</g>
<!-- Node3&#45;&gt;Node5 -->
<g id="edge6" class="edge">
<title>Node3&#45;&gt;Node5</title>
<path fill="none" stroke="#9a32cd" stroke-dasharray="5,2" d="M19.4,-156.9C17.19,-153.83 15.26,-150.48 14,-147 7.36,-128.61 3.23,-119.32 14,-103 19.48,-94.7 28.16,-88.98 37.3,-85.06"/>
<polygon fill="#9a32cd" stroke="#9a32cd" points="16.9,-159.36 26.03,-164.72 22.24,-154.83 16.9,-159.36"/>
<text text-anchor="middle" x="25" y="-122.5" font-family="Helvetica,sans-Serif" font-size="10.00" fill="grey"> m_t</text>
</g>
<!-- Node4 -->
<g id="node4" class="node">
<title>Node4</title>
<g id="a_node4"><a xlink:href="../../d9/d45/class_q_c_string.html" target="_top" xlink:title="This is an alternative implementation of QCString.">
<polygon fill="white" stroke="#666666" points="249.5,-184 190.5,-184 190.5,-165 249.5,-165 249.5,-184"/>
<text text-anchor="middle" x="220" y="-172" font-family="Helvetica,sans-Serif" font-size="10.00">QCString</text>
</a>
</g>
</g>
<!-- Node4&#45;&gt;Node1 -->
<g id="edge4" class="edge">
<title>Node4&#45;&gt;Node1</title>
<path fill="none" stroke="#9a32cd" stroke-dasharray="5,2" d="M259.19,-164.32C267.78,-160.42 275.84,-154.87 281,-147 291.72,-130.65 284.29,-122.28 281,-103 278.07,-85.82 277.44,-80.65 268,-66 255.46,-46.56 234.8,-28.99 221.82,-19.05"/>
<polygon fill="#9a32cd" stroke="#9a32cd" points="257.85,-161.08 249.78,-167.94 260.37,-167.62 257.85,-161.08"/>
<text text-anchor="middle" x="295.5" y="-73" font-family="Helvetica,sans-Serif" font-size="10.00" fill="grey"> relPath</text>
</g>
<!-- Node4&#45;&gt;Node2 -->
<g id="edge3" class="edge">
<title>Node4&#45;&gt;Node2</title>
<path fill="none" stroke="#9a32cd" stroke-dasharray="5,2" d="M218.06,-154.68C215.9,-133.74 212.51,-100.81 210.9,-85.23"/>
<polygon fill="#9a32cd" stroke="#9a32cd" points="214.61,-155.3 219.11,-164.89 221.57,-154.59 214.61,-155.3"/>
<text text-anchor="middle" x="247" y="-128" font-family="Helvetica,sans-Serif" font-size="10.00" fill="grey"> m_dir</text>
<text text-anchor="middle" x="247" y="-117" font-family="Helvetica,sans-Serif" font-size="10.00" fill="grey">m_fileName</text>
</g>
<!-- Node4&#45;&gt;Node5 -->
<g id="edge7" class="edge">
<title>Node4&#45;&gt;Node5</title>
<path fill="none" stroke="#9a32cd" stroke-dasharray="5,2" d="M180.08,-171.25C158.63,-168.26 132.79,-161.61 114,-147 93.36,-130.96 82.54,-100.46 78.25,-85.38"/>
<polygon fill="#9a32cd" stroke="#9a32cd" points="179.88,-174.75 190.22,-172.44 180.7,-167.8 179.88,-174.75"/>
<text text-anchor="middle" x="161" y="-139" font-family="Helvetica,sans-Serif" font-size="10.00" fill="grey"> m_external</text>
<text text-anchor="middle" x="161" y="-128" font-family="Helvetica,sans-Serif" font-size="10.00" fill="grey">m_refId</text>
<text text-anchor="middle" x="161" y="-117" font-family="Helvetica,sans-Serif" font-size="10.00" fill="grey">m_relPath</text>
<text text-anchor="middle" x="161" y="-106" font-family="Helvetica,sans-Serif" font-size="10.00" fill="grey">m_sourceFileName</text>
</g>
<!-- Node5&#45;&gt;Node1 -->
<g id="edge5" class="edge">
<title>Node5&#45;&gt;Node1</title>
<path fill="none" stroke="#9a32cd" stroke-dasharray="5,2" d="M99.45,-60.92C112.64,-53.49 129.53,-44.33 145,-37 158.77,-30.48 174.59,-24.01 187.17,-19.09"/>
<polygon fill="#9a32cd" stroke="#9a32cd" points="97.52,-57.99 90.56,-65.97 100.98,-64.07 97.52,-57.99"/>
<text text-anchor="middle" x="175.5" y="-40" font-family="Helvetica,sans-Serif" font-size="10.00" fill="grey"> m_codeGen</text>
</g>
</g>
</svg>
