<?xml version="1.0" encoding="UTF-8" standalone="no"?>
<!DOCTYPE svg PUBLIC "-//W3C//DTD SVG 1.1//EN"
 "http://www.w3.org/Graphics/SVG/1.1/DTD/svg11.dtd">
<!-- Generated by graphviz version 2.43.0 (0)
 -->
<!-- Title: DocPara Pages: 1 -->
<!--zoomable 438 -->
<svg id="main" version="1.1" xmlns="http://www.w3.org/2000/svg" xmlns:xlink="http://www.w3.org/1999/xlink" xml:space="preserve" onload="init(evt)">
<style type="text/css"><![CDATA[
.edge:hover path { stroke: red; }
.edge:hover polygon { stroke: red; fill: red; }
]]></style>
<script type="text/javascript"><![CDATA[
var edges = document.getElementsByTagName('g');
if (edges && edges.length) {
  for (var i=0;i<edges.length;i++) {
    if (edges[i].id.substr(0,4)=='edge') {
      edges[i].setAttribute('class','edge');
    }
  }
}
]]></script>
        <defs>
                <circle id="rim" cx="0" cy="0" r="7"/>
                <circle id="rim2" cx="0" cy="0" r="3.5"/>
                <g id="zoomPlus">
                        <use xlink:href="#rim" fill="#404040">
                                <set attributeName="fill" to="#808080" begin="zoomplus.mouseover" end="zoomplus.mouseout"/>
                        </use>
                        <path d="M-4,0h8M0,-4v8" fill="none" stroke="white" stroke-width="1.5" pointer-events="none"/>
                </g>
                <g id="zoomMin">
                        <use xlink:href="#rim" fill="#404040">
                                <set attributeName="fill" to="#808080" begin="zoomminus.mouseover" end="zoomminus.mouseout"/>
                        </use>
                        <path d="M-4,0h8" fill="none" stroke="white" stroke-width="1.5" pointer-events="none"/>
                </g>
                <g id="dirArrow">
                        <path fill="none" stroke="white" stroke-width="1.5" d="M0,-3.0v7 M-2.5,-0.5L0,-3.0L2.5,-0.5"/>
                </g>
               <g id="resetDef">
                       <use xlink:href="#rim2" fill="#404040">
                               <set attributeName="fill" to="#808080" begin="reset.mouseover" end="reset.mouseout"/>
                       </use>
               </g>
        </defs>

<script type="text/javascript">
var viewWidth = 1652;
var viewHeight = 438;
var sectionId = 'dynsection-1';
</script>
<script xlink:href="../../svgpan.js"/>
<svg id="graph" class="graph">
<g id="viewport">
<title>DocPara</title>
<!-- Node1 -->
<g id="node1" class="node">
<title>Node1</title>
<g id="a_node1"><a xlink:title="Node representing a paragraph in the documentation tree.">
<polygon fill="#999999" stroke="#666666" points="1644,-179.5 1588,-179.5 1588,-160.5 1644,-160.5 1644,-179.5"/>
<text text-anchor="middle" x="1616" y="-167.5" font-family="Helvetica,sans-Serif" font-size="10.00">DocPara</text>
</a>
</g>
</g>
<!-- Node2 -->
<g id="node2" class="node">
<title>Node2</title>
<g id="a_node2"><a xlink:href="../../da/dfc/class_doc_compound_node.html" target="_top" xlink:title="Base class for nodes with children.">
<polygon fill="white" stroke="#666666" points="1551,-221.5 1438,-221.5 1438,-202.5 1551,-202.5 1551,-221.5"/>
<text text-anchor="middle" x="1494.5" y="-209.5" font-family="Helvetica,sans-Serif" font-size="10.00">DocCompoundNode</text>
</a>
</g>
</g>
<!-- Node2&#45;&gt;Node1 -->
<g id="edge1" class="edge">
<title>Node2&#45;&gt;Node1</title>
<path fill="none" stroke="#63b8ff" d="M1532.23,-199.09C1550.22,-192.77 1571.51,-185.28 1587.99,-179.49"/>
<polygon fill="#63b8ff" stroke="#63b8ff" points="1530.89,-195.85 1522.62,-202.47 1533.21,-202.46 1530.89,-195.85"/>
</g>
<!-- Node3 -->
<g id="node3" class="node">
<title>Node3</title>
<g id="a_node3"><a xlink:href="../../d9/d0e/class_doc_node.html" target="_top" xlink:title="Abstract node interface with type information.">
<polygon fill="white" stroke="#666666" points="1335.5,-276.5 1274.5,-276.5 1274.5,-257.5 1335.5,-257.5 1335.5,-276.5"/>
<text text-anchor="middle" x="1305" y="-264.5" font-family="Helvetica,sans-Serif" font-size="10.00">DocNode</text>
</a>
</g>
</g>
<!-- Node3&#45;&gt;Node2 -->
<g id="edge2" class="edge">
<title>Node3&#45;&gt;Node2</title>
<path fill="none" stroke="#63b8ff" d="M1345.42,-255.44C1379.77,-245.36 1428.99,-230.92 1461.1,-221.5"/>
<polygon fill="#63b8ff" stroke="#63b8ff" points="1344.32,-252.11 1335.71,-258.29 1346.29,-258.83 1344.32,-252.11"/>
</g>
<!-- Node4 -->
<g id="node4" class="node">
<title>Node4</title>
<g id="a_node4"><a xlink:href="../../da/d02/class_doc_parser.html" target="_top" xlink:title=" ">
<polygon fill="white" stroke="#666666" points="1126.5,-296.5 1061.5,-296.5 1061.5,-277.5 1126.5,-277.5 1126.5,-296.5"/>
<text text-anchor="middle" x="1094" y="-284.5" font-family="Helvetica,sans-Serif" font-size="10.00">DocParser</text>
</a>
</g>
</g>
<!-- Node4&#45;&gt;Node3 -->
<g id="edge3" class="edge">
<title>Node4&#45;&gt;Node3</title>
<path fill="none" stroke="#9a32cd" stroke-dasharray="5,2" d="M1136.89,-282.99C1177.6,-279.1 1238.39,-273.28 1274.33,-269.84"/>
<polygon fill="#9a32cd" stroke="#9a32cd" points="1136.36,-279.53 1126.74,-283.96 1137.03,-286.49 1136.36,-279.53"/>
<text text-anchor="middle" x="1223.5" y="-280" font-family="Helvetica,sans-Serif" font-size="10.00"> m_parser</text>
</g>
<!-- Node5 -->
<g id="node5" class="node">
<title>Node5</title>
<g id="a_node5"><a xlink:href="../../de/dad/class_i_doc_parser.html" target="_top" xlink:title="opaque parser interface">
<polygon fill="white" stroke="#666666" points="848,-370.5 780,-370.5 780,-351.5 848,-351.5 848,-370.5"/>
<text text-anchor="middle" x="814" y="-358.5" font-family="Helvetica,sans-Serif" font-size="10.00">IDocParser</text>
</a>
</g>
</g>
<!-- Node5&#45;&gt;Node4 -->
<g id="edge4" class="edge">
<title>Node5&#45;&gt;Node4</title>
<path fill="none" stroke="#63b8ff" d="M858.21,-355.53C893.77,-350.44 945.24,-341.72 989,-329 1018.92,-320.3 1052.06,-306.07 1072.72,-296.62"/>
<polygon fill="#63b8ff" stroke="#63b8ff" points="857.59,-352.08 848.17,-356.93 858.56,-359.02 857.59,-352.08"/>
</g>
<!-- Node6 -->
<g id="node6" class="node">
<title>Node6</title>
<g id="a_node6"><a xlink:href="../../d8/d7d/struct_doc_parser_context.html" target="_top" xlink:title="Parser&#39;s context to store all global variables.">
<polygon fill="white" stroke="#666666" points="866,-333.5 762,-333.5 762,-314.5 866,-314.5 866,-333.5"/>
<text text-anchor="middle" x="814" y="-321.5" font-family="Helvetica,sans-Serif" font-size="10.00">DocParserContext</text>
</a>
</g>
</g>
<!-- Node6&#45;&gt;Node4 -->
<g id="edge5" class="edge">
<title>Node6&#45;&gt;Node4</title>
<path fill="none" stroke="#9a32cd" stroke-dasharray="5,2" d="M876.08,-315.96C909.45,-311.56 951.5,-306 989,-301 1013.2,-297.77 1040.56,-294.09 1061.14,-291.31"/>
<polygon fill="#9a32cd" stroke="#9a32cd" points="875.47,-312.51 866.02,-317.29 876.39,-319.45 875.47,-312.51"/>
<text text-anchor="middle" x="936.5" y="-317" font-family="Helvetica,sans-Serif" font-size="10.00"> context</text>
</g>
<!-- Node7 -->
<g id="node7" class="node">
<title>Node7</title>
<g id="a_node7"><a xlink:href="../../d5/dcc/class_definition.html" target="_top" xlink:title="The common base class of all entity definitions found in the sources.">
<polygon fill="white" stroke="#666666" points="294.5,-402.5 230.5,-402.5 230.5,-383.5 294.5,-383.5 294.5,-402.5"/>
<text text-anchor="middle" x="262.5" y="-390.5" font-family="Helvetica,sans-Serif" font-size="10.00">Definition</text>
</a>
</g>
</g>
<!-- Node7&#45;&gt;Node6 -->
<g id="edge6" class="edge">
<title>Node7&#45;&gt;Node6</title>
<path fill="none" stroke="#9a32cd" stroke-dasharray="5,2" d="M304.9,-393.93C389.07,-394.84 585.58,-391.91 744,-351 752.48,-348.81 753.89,-346.31 762,-343 769.87,-339.79 778.51,-336.49 786.41,-333.55"/>
<polygon fill="#9a32cd" stroke="#9a32cd" points="304.78,-390.43 294.73,-393.8 304.69,-397.43 304.78,-390.43"/>
<text text-anchor="middle" x="583.5" y="-388" font-family="Helvetica,sans-Serif" font-size="10.00"> scope</text>
</g>
<!-- Node13 -->
<g id="node13" class="node">
<title>Node13</title>
<g id="a_node13"><a xlink:href="../../da/d09/class_member_def.html" target="_top" xlink:title="A model of a class/file/namespace member symbol.">
<polygon fill="white" stroke="#666666" points="620.5,-425.5 546.5,-425.5 546.5,-406.5 620.5,-406.5 620.5,-425.5"/>
<text text-anchor="middle" x="583.5" y="-413.5" font-family="Helvetica,sans-Serif" font-size="10.00">MemberDef</text>
</a>
</g>
</g>
<!-- Node7&#45;&gt;Node13 -->
<g id="edge13" class="edge">
<title>Node7&#45;&gt;Node13</title>
<path fill="none" stroke="#63b8ff" d="M305.02,-395.99C368.02,-400.54 486.7,-409.09 546.35,-413.39"/>
<polygon fill="#63b8ff" stroke="#63b8ff" points="304.89,-392.48 294.67,-395.25 304.39,-399.46 304.89,-392.48"/>
</g>
<!-- Node8 -->
<g id="node8" class="node">
<title>Node8</title>
<g id="a_node8"><a xlink:href="../../d9/d45/class_q_c_string.html" target="_top" xlink:title="This is an alternative implementation of QCString.">
<polygon fill="white" stroke="#666666" points="292,-179.5 233,-179.5 233,-160.5 292,-160.5 292,-179.5"/>
<text text-anchor="middle" x="262.5" y="-167.5" font-family="Helvetica,sans-Serif" font-size="10.00">QCString</text>
</a>
</g>
</g>
<!-- Node8&#45;&gt;Node1 -->
<g id="edge23" class="edge">
<title>Node8&#45;&gt;Node1</title>
<path fill="none" stroke="#9a32cd" stroke-dasharray="5,2" d="M302.25,-170C362.29,-170 481.41,-170 582.5,-170 582.5,-170 582.5,-170 1495.5,-170 1527.24,-170 1563.73,-170 1587.95,-170"/>
<polygon fill="#9a32cd" stroke="#9a32cd" points="302.1,-166.5 292.1,-170 302.1,-173.5 302.1,-166.5"/>
<text text-anchor="middle" x="1094" y="-173" font-family="Helvetica,sans-Serif" font-size="10.00"> m_sectionId</text>
</g>
<!-- Node8&#45;&gt;Node6 -->
<g id="edge7" class="edge">
<title>Node8&#45;&gt;Node6</title>
<path fill="none" stroke="#9a32cd" stroke-dasharray="5,2" d="M302.32,-175.39C397.45,-188.64 635.07,-221.92 643,-225 702.63,-248.18 704.91,-277.11 762,-306 768.28,-309.18 775.26,-312.04 781.99,-314.5"/>
<polygon fill="#9a32cd" stroke="#9a32cd" points="302.63,-171.9 292.24,-173.99 301.66,-178.83 302.63,-171.9"/>
<text text-anchor="middle" x="583.5" y="-294" font-family="Helvetica,sans-Serif" font-size="10.00"> context</text>
<text text-anchor="middle" x="583.5" y="-283" font-family="Helvetica,sans-Serif" font-size="10.00">exampleName</text>
<text text-anchor="middle" x="583.5" y="-272" font-family="Helvetica,sans-Serif" font-size="10.00">fileName</text>
<text text-anchor="middle" x="583.5" y="-261" font-family="Helvetica,sans-Serif" font-size="10.00">includeFileName</text>
<text text-anchor="middle" x="583.5" y="-250" font-family="Helvetica,sans-Serif" font-size="10.00">includeFileText</text>
<text text-anchor="middle" x="583.5" y="-239" font-family="Helvetica,sans-Serif" font-size="10.00">relPath</text>
<text text-anchor="middle" x="583.5" y="-228" font-family="Helvetica,sans-Serif" font-size="10.00">searchUrl</text>
</g>
<!-- Node14 -->
<g id="node14" class="node">
<title>Node14</title>
<g id="a_node14"><a xlink:href="../../d6/df4/struct_token_info.html" target="_top" xlink:title="Data associated with a token used by the comment block parser.">
<polygon fill="white" stroke="#666666" points="615,-76.5 552,-76.5 552,-57.5 615,-57.5 615,-76.5"/>
<text text-anchor="middle" x="583.5" y="-64.5" font-family="Helvetica,sans-Serif" font-size="10.00">TokenInfo</text>
</a>
</g>
</g>
<!-- Node8&#45;&gt;Node14 -->
<g id="edge15" class="edge">
<title>Node8&#45;&gt;Node14</title>
<path fill="none" stroke="#9a32cd" stroke-dasharray="5,2" d="M274.84,-151.55C291.09,-127.09 323.55,-85.04 364,-68 426.4,-41.71 508.01,-51.6 551.71,-59.99"/>
<polygon fill="#9a32cd" stroke="#9a32cd" points="271.71,-149.96 269.25,-160.26 277.59,-153.74 271.71,-149.96"/>
<text text-anchor="middle" x="435" y="-148" font-family="Helvetica,sans-Serif" font-size="10.00"> attribsStr</text>
<text text-anchor="middle" x="435" y="-137" font-family="Helvetica,sans-Serif" font-size="10.00">chars</text>
<text text-anchor="middle" x="435" y="-126" font-family="Helvetica,sans-Serif" font-size="10.00">name</text>
<text text-anchor="middle" x="435" y="-115" font-family="Helvetica,sans-Serif" font-size="10.00">sectionId</text>
<text text-anchor="middle" x="435" y="-104" font-family="Helvetica,sans-Serif" font-size="10.00">simpleSectName</text>
<text text-anchor="middle" x="435" y="-93" font-family="Helvetica,sans-Serif" font-size="10.00">simpleSectText</text>
<text text-anchor="middle" x="435" y="-82" font-family="Helvetica,sans-Serif" font-size="10.00">text</text>
<text text-anchor="middle" x="435" y="-71" font-family="Helvetica,sans-Serif" font-size="10.00">verb</text>
</g>
<!-- Node9 -->
<g id="node9" class="node">
<title>Node9</title>
<g id="a_node9"><a xlink:href="../../d9/d82/class_iterable_stack.html" target="_top" xlink:title=" ">
<polygon fill="white" stroke="#666666" points="643,-341 524,-341 524,-311 643,-311 643,-341"/>
<text text-anchor="start" x="532" y="-329" font-family="Helvetica,sans-Serif" font-size="10.00">IterableStack&lt; const</text>
<text text-anchor="middle" x="583.5" y="-318" font-family="Helvetica,sans-Serif" font-size="10.00"> DocNodeVariant * &gt;</text>
</a>
</g>
</g>
<!-- Node9&#45;&gt;Node6 -->
<g id="edge8" class="edge">
<title>Node9&#45;&gt;Node6</title>
<path fill="none" stroke="#9a32cd" stroke-dasharray="5,2" d="M653.19,-325.4C688.15,-325.09 729.92,-324.73 761.99,-324.45"/>
<polygon fill="#9a32cd" stroke="#9a32cd" points="653.02,-321.9 643.05,-325.49 653.08,-328.9 653.02,-321.9"/>
<text text-anchor="middle" x="702.5" y="-339" font-family="Helvetica,sans-Serif" font-size="10.00"> initialStyleStack</text>
<text text-anchor="middle" x="702.5" y="-328" font-family="Helvetica,sans-Serif" font-size="10.00">styleStack</text>
</g>
<!-- Node10 -->
<g id="node10" class="node">
<title>Node10</title>
<g id="a_node10"><a xlink:title=" ">
<polygon fill="white" stroke="#666666" points="346,-347.5 179,-347.5 179,-306.5 346,-306.5 346,-347.5"/>
<text text-anchor="start" x="187" y="-335.5" font-family="Helvetica,sans-Serif" font-size="10.00">std::stack&lt; const DocNode</text>
<text text-anchor="start" x="187" y="-324.5" font-family="Helvetica,sans-Serif" font-size="10.00">Variant * , std::deque</text>
<text text-anchor="middle" x="262.5" y="-313.5" font-family="Helvetica,sans-Serif" font-size="10.00">&lt;const DocNodeVariant * &gt; &#160;&gt;</text>
</a>
</g>
</g>
<!-- Node10&#45;&gt;Node9 -->
<g id="edge9" class="edge">
<title>Node10&#45;&gt;Node9</title>
<path fill="none" stroke="#63b8ff" d="M356.36,-326.71C410.48,-326.54 477.08,-326.33 523.94,-326.18"/>
<polygon fill="#63b8ff" stroke="#63b8ff" points="356.05,-323.21 346.07,-326.74 356.08,-330.21 356.05,-323.21"/>
</g>
<!-- Node11 -->
<g id="node11" class="node">
<title>Node11</title>
<g id="a_node11"><a xlink:href="../../d9/d82/class_iterable_stack.html" target="_top" xlink:title=" ">
<polygon fill="white" stroke="#666666" points="344,-288.5 181,-288.5 181,-269.5 344,-269.5 344,-288.5"/>
<text text-anchor="middle" x="262.5" y="-276.5" font-family="Helvetica,sans-Serif" font-size="10.00">IterableStack&lt; T, Container &gt;</text>
</a>
</g>
</g>
<!-- Node11&#45;&gt;Node9 -->
<g id="edge10" class="edge">
<title>Node11&#45;&gt;Node9</title>
<path fill="none" stroke="orange" stroke-dasharray="5,2" d="M354.4,-289.63C400.01,-295.31 456.03,-302.81 506,-311 511.74,-311.94 517.72,-312.99 523.68,-314.08"/>
<polygon fill="orange" stroke="orange" points="354.6,-286.13 344.24,-288.37 353.74,-293.08 354.6,-286.13"/>
<text text-anchor="middle" x="435" y="-314" font-family="Helvetica,sans-Serif" font-size="10.00"> &lt; const DocNodeVariant * &gt;</text>
</g>
<!-- Node12 -->
<g id="node12" class="node">
<title>Node12</title>
<g id="a_node12"><a xlink:title=" ">
<polygon fill="white" stroke="#666666" points="122,-294 20,-294 20,-264 122,-264 122,-294"/>
<text text-anchor="start" x="28" y="-282" font-family="Helvetica,sans-Serif" font-size="10.00">std::stack&lt; T, std</text>
<text text-anchor="middle" x="71" y="-271" font-family="Helvetica,sans-Serif" font-size="10.00">::deque&lt; T &gt; &gt;</text>
</a>
</g>
</g>
<!-- Node12&#45;&gt;Node11 -->
<g id="edge11" class="edge">
<title>Node12&#45;&gt;Node11</title>
<path fill="none" stroke="#63b8ff" d="M132.67,-279C148.02,-279 164.74,-279 180.91,-279"/>
<polygon fill="#63b8ff" stroke="#63b8ff" points="132.29,-275.5 122.29,-279 132.28,-282.5 132.29,-275.5"/>
</g>
<!-- Node13&#45;&gt;Node6 -->
<g id="edge12" class="edge">
<title>Node13&#45;&gt;Node6</title>
<path fill="none" stroke="#9a32cd" stroke-dasharray="5,2" d="M631.01,-420.46C665.8,-421.26 712.59,-416.59 744,-391 761.66,-376.61 745.87,-359.09 762,-343 765.88,-339.13 770.62,-336.04 775.63,-333.57"/>
<polygon fill="#9a32cd" stroke="#9a32cd" points="630.76,-416.95 620.63,-420.06 630.49,-423.95 630.76,-416.95"/>
<text text-anchor="middle" x="702.5" y="-422" font-family="Helvetica,sans-Serif" font-size="10.00"> memberDef</text>
</g>
<!-- Node14&#45;&gt;Node6 -->
<g id="edge14" class="edge">
<title>Node14&#45;&gt;Node6</title>
<path fill="none" stroke="#9a32cd" stroke-dasharray="5,2" d="M614.48,-81.31C651.48,-100.66 713.26,-138.85 744,-191 770.27,-235.57 728.93,-266.21 762,-306 764.76,-309.32 768.18,-312.03 771.92,-314.24"/>
<polygon fill="#9a32cd" stroke="#9a32cd" points="615.69,-78 605.2,-76.57 612.51,-84.23 615.69,-78"/>
<text text-anchor="middle" x="702.5" y="-194" font-family="Helvetica,sans-Serif" font-size="10.00"> token</text>
</g>
<!-- Node15 -->
<g id="node15" class="node">
<title>Node15</title>
<g id="a_node15"><a xlink:href="../../db/d4d/class_html_attrib_list.html" target="_top" xlink:title="Class representing a list of HTML attributes.">
<polygon fill="white" stroke="#666666" points="305,-26.5 220,-26.5 220,-7.5 305,-7.5 305,-26.5"/>
<text text-anchor="middle" x="262.5" y="-14.5" font-family="Helvetica,sans-Serif" font-size="10.00">HtmlAttribList</text>
</a>
</g>
</g>
<!-- Node15&#45;&gt;Node1 -->
<g id="edge24" class="edge">
<title>Node15&#45;&gt;Node1</title>
<path fill="none" stroke="#9a32cd" stroke-dasharray="5,2" d="M315.09,-12.56C378.13,-7.52 488.07,0 582.5,0 582.5,0 582.5,0 1495.5,0 1574.51,0 1605.79,-124.41 1613.18,-160.37"/>
<polygon fill="#9a32cd" stroke="#9a32cd" points="314.69,-9.08 305.01,-13.37 315.26,-16.06 314.69,-9.08"/>
<text text-anchor="middle" x="1094" y="-3" font-family="Helvetica,sans-Serif" font-size="10.00"> m_attribs</text>
</g>
<!-- Node15&#45;&gt;Node14 -->
<g id="edge16" class="edge">
<title>Node15&#45;&gt;Node14</title>
<path fill="none" stroke="#9a32cd" stroke-dasharray="5,2" d="M315.51,-15.63C365.15,-15.5 441.68,-18.35 506,-34 527.08,-39.13 549.72,-49.58 564.86,-57.35"/>
<polygon fill="#9a32cd" stroke="#9a32cd" points="315.32,-12.13 305.34,-15.7 315.37,-19.13 315.32,-12.13"/>
<text text-anchor="middle" x="435" y="-37" font-family="Helvetica,sans-Serif" font-size="10.00"> attribs</text>
</g>
<!-- Node16 -->
<g id="node16" class="node">
<title>Node16</title>
<g id="a_node16"><a xlink:title=" ">
<polygon fill="white" stroke="#666666" points="142,-26.5 0,-26.5 0,-7.5 142,-7.5 142,-26.5"/>
<text text-anchor="middle" x="71" y="-14.5" font-family="Helvetica,sans-Serif" font-size="10.00">std::vector&lt; HtmlAttrib &gt;</text>
</a>
</g>
</g>
<!-- Node16&#45;&gt;Node15 -->
<g id="edge17" class="edge">
<title>Node16&#45;&gt;Node15</title>
<path fill="none" stroke="#63b8ff" d="M152.25,-17C175.51,-17 199.96,-17 219.82,-17"/>
<polygon fill="#63b8ff" stroke="#63b8ff" points="152.02,-13.5 142.02,-17 152.02,-20.5 152.02,-13.5"/>
</g>
<!-- Node17 -->
<g id="node17" class="node">
<title>Node17</title>
<g id="a_node17"><a xlink:href="../../d1/d7f/class_doc_tokenizer.html" target="_top" xlink:title=" ">
<polygon fill="white" stroke="#666666" points="854.5,-296.5 773.5,-296.5 773.5,-277.5 854.5,-277.5 854.5,-296.5"/>
<text text-anchor="middle" x="814" y="-284.5" font-family="Helvetica,sans-Serif" font-size="10.00">DocTokenizer</text>
</a>
</g>
</g>
<!-- Node17&#45;&gt;Node4 -->
<g id="edge18" class="edge">
<title>Node17&#45;&gt;Node4</title>
<path fill="none" stroke="#9a32cd" stroke-dasharray="5,2" d="M864.75,-287C921.73,-287 1013.36,-287 1061.36,-287"/>
<polygon fill="#9a32cd" stroke="#9a32cd" points="864.54,-283.5 854.54,-287 864.54,-290.5 864.54,-283.5"/>
<text text-anchor="middle" x="936.5" y="-290" font-family="Helvetica,sans-Serif" font-size="10.00"> tokenizer</text>
</g>
<!-- Node18 -->
<g id="node18" class="node">
<title>Node18</title>
<g id="a_node18"><a xlink:href="../../d2/dc1/class_s_i_data_collection.html" target="_top" xlink:title=" ">
<polygon fill="white" stroke="#666666" points="863,-259.5 765,-259.5 765,-240.5 863,-240.5 863,-259.5"/>
<text text-anchor="middle" x="814" y="-247.5" font-family="Helvetica,sans-Serif" font-size="10.00">SIDataCollection</text>
</a>
</g>
</g>
<!-- Node18&#45;&gt;Node4 -->
<g id="edge19" class="edge">
<title>Node18&#45;&gt;Node4</title>
<path fill="none" stroke="#9a32cd" stroke-dasharray="5,2" d="M873.21,-257.1C907.03,-261.29 950.44,-266.78 989,-272 1013.22,-275.28 1040.58,-279.23 1061.16,-282.26"/>
<polygon fill="#9a32cd" stroke="#9a32cd" points="873.39,-253.6 863.04,-255.84 872.53,-260.54 873.39,-253.6"/>
<text text-anchor="middle" x="936.5" y="-275" font-family="Helvetica,sans-Serif" font-size="10.00"> searchData</text>
</g>
<!-- Node19 -->
<g id="node19" class="node">
<title>Node19</title>
<g id="a_node19"><a xlink:href="../../d9/dd3/struct_doc_node_list.html" target="_top" xlink:title=" ">
<polygon fill="white" stroke="#666666" points="1344,-221.5 1266,-221.5 1266,-202.5 1344,-202.5 1344,-221.5"/>
<text text-anchor="middle" x="1305" y="-209.5" font-family="Helvetica,sans-Serif" font-size="10.00">DocNodeList</text>
</a>
</g>
</g>
<!-- Node19&#45;&gt;Node2 -->
<g id="edge20" class="edge">
<title>Node19&#45;&gt;Node2</title>
<path fill="none" stroke="#9a32cd" stroke-dasharray="5,2" d="M1354.55,-212C1380,-212 1411.29,-212 1437.73,-212"/>
<polygon fill="#9a32cd" stroke="#9a32cd" points="1354.4,-208.5 1344.4,-212 1354.4,-215.5 1354.4,-208.5"/>
<text text-anchor="middle" x="1391" y="-215" font-family="Helvetica,sans-Serif" font-size="10.00"> m_children</text>
</g>
<!-- Node20 -->
<g id="node20" class="node">
<title>Node20</title>
<g id="a_node20"><a xlink:href="../../d0/d08/class_grow_vector.html" target="_top" xlink:title=" ">
<polygon fill="white" stroke="#666666" points="1181,-221.5 1007,-221.5 1007,-202.5 1181,-202.5 1181,-221.5"/>
<text text-anchor="middle" x="1094" y="-209.5" font-family="Helvetica,sans-Serif" font-size="10.00">GrowVector&lt; DocNodeVariant &gt;</text>
</a>
</g>
</g>
<!-- Node20&#45;&gt;Node19 -->
<g id="edge21" class="edge">
<title>Node20&#45;&gt;Node19</title>
<path fill="none" stroke="#63b8ff" d="M1191.29,-212C1217.7,-212 1244.82,-212 1265.84,-212"/>
<polygon fill="#63b8ff" stroke="#63b8ff" points="1191.21,-208.5 1181.21,-212 1191.21,-215.5 1191.21,-208.5"/>
</g>
<!-- Node21 -->
<g id="node21" class="node">
<title>Node21</title>
<g id="a_node21"><a xlink:href="../../d0/d08/class_grow_vector.html" target="_top" xlink:title="std::vector like container optimised for pushing elements to the back.">
<polygon fill="white" stroke="#666666" points="864.5,-221.5 763.5,-221.5 763.5,-202.5 864.5,-202.5 864.5,-221.5"/>
<text text-anchor="middle" x="814" y="-209.5" font-family="Helvetica,sans-Serif" font-size="10.00">GrowVector&lt; T &gt;</text>
</a>
</g>
</g>
<!-- Node21&#45;&gt;Node20 -->
<g id="edge22" class="edge">
<title>Node21&#45;&gt;Node20</title>
<path fill="none" stroke="orange" stroke-dasharray="5,2" d="M874.73,-212C913.27,-212 964.03,-212 1006.9,-212"/>
<polygon fill="orange" stroke="orange" points="874.7,-208.5 864.7,-212 874.7,-215.5 874.7,-208.5"/>
<text text-anchor="middle" x="936.5" y="-215" font-family="Helvetica,sans-Serif" font-size="10.00"> &lt; DocNodeVariant &gt;</text>
</g>
</g>
</svg>
        <g id="navigator" transform="translate(0 0)" fill="#404254">
                <rect fill="#f2f5e9" fill-opacity="0.5" stroke="#606060" stroke-width=".5" x="0" y="0" width="60" height="60"/>
                <use id="zoomplus" xlink:href="#zoomPlus" x="17" y="9" onmousedown="handleZoom(evt,'in')"/>
                <use id="zoomminus" xlink:href="#zoomMin" x="42" y="9" onmousedown="handleZoom(evt,'out')"/>
                <use id="reset" xlink:href="#resetDef" x="30" y="36" onmousedown="handleReset()"/>
                <g id="arrowUp" xlink:href="#dirArrow" transform="translate(30 24)" onmousedown="handlePan(0,-1)">
                  <use xlink:href="#rim" fill="#404040">
                        <set attributeName="fill" to="#808080" begin="arrowUp.mouseover" end="arrowUp.mouseout"/>
                  </use>
                  <path fill="none" stroke="white" stroke-width="1.5" d="M0,-3.0v7 M-2.5,-0.5L0,-3.0L2.5,-0.5"/>
                </g>
                <g id="arrowRight" xlink:href="#dirArrow" transform="rotate(90) translate(36 -43)" onmousedown="handlePan(1,0)">
                  <use xlink:href="#rim" fill="#404040">
                        <set attributeName="fill" to="#808080" begin="arrowRight.mouseover" end="arrowRight.mouseout"/>
                  </use>
                  <path fill="none" stroke="white" stroke-width="1.5" d="M0,-3.0v7 M-2.5,-0.5L0,-3.0L2.5,-0.5"/>
                </g>
                <g id="arrowDown" xlink:href="#dirArrow" transform="rotate(180) translate(-30 -48)" onmousedown="handlePan(0,1)">
                  <use xlink:href="#rim" fill="#404040">
                        <set attributeName="fill" to="#808080" begin="arrowDown.mouseover" end="arrowDown.mouseout"/>
                  </use>
                  <path fill="none" stroke="white" stroke-width="1.5" d="M0,-3.0v7 M-2.5,-0.5L0,-3.0L2.5,-0.5"/>
                </g>
                <g id="arrowLeft" xlink:href="#dirArrow" transform="rotate(270) translate(-36 17)" onmousedown="handlePan(-1,0)">
                  <use xlink:href="#rim" fill="#404040">
                        <set attributeName="fill" to="#808080" begin="arrowLeft.mouseover" end="arrowLeft.mouseout"/>
                  </use>
                  <path fill="none" stroke="white" stroke-width="1.5" d="M0,-3.0v7 M-2.5,-0.5L0,-3.0L2.5,-0.5"/>
                </g>
        </g>
        <svg viewBox="0 0 15 15" width="100%" height="30px" preserveAspectRatio="xMaxYMin meet">
         <g id="arrow_out" transform="scale(0.3 0.3)">
          <a xlink:href="class_doc_para__coll__graph_org.svg" target="_base">
           <rect id="button" ry="5" rx="5" y="6" x="6" height="38" width="38"
                fill="#f2f5e9" fill-opacity="0.5" stroke="#606060" stroke-width="1.0"/>
           <path id="arrow"
             d="M 11.500037,31.436501 C 11.940474,20.09759 22.043105,11.32322 32.158766,21.979434 L 37.068811,17.246167 C 37.068811,17.246167 37.088388,32 37.088388,32 L 22.160133,31.978069 C 22.160133,31.978069 26.997745,27.140456 26.997745,27.140456 C 18.528582,18.264221 13.291696,25.230495 11.500037,31.436501 z"
             style="fill:#404040;"/>
          </a>
         </g>
        </svg>
</svg>
