<?xml version="1.0" encoding="UTF-8" standalone="no"?>
<!DOCTYPE svg PUBLIC "-//W3C//DTD SVG 1.1//EN"
 "http://www.w3.org/Graphics/SVG/1.1/DTD/svg11.dtd">
<!-- Generated by graphviz version 2.43.0 (0)
 -->
<!-- Title: /home/runner/work/doxygen/doxygen/src/doxygen.h Pages: 1 -->
<!--zoomable 533 -->
<svg id="main" version="1.1" xmlns="http://www.w3.org/2000/svg" xmlns:xlink="http://www.w3.org/1999/xlink" xml:space="preserve" onload="init(evt)">
<style type="text/css"><![CDATA[
.edge:hover path { stroke: red; }
.edge:hover polygon { stroke: red; fill: red; }
]]></style>
<script type="text/javascript"><![CDATA[
var edges = document.getElementsByTagName('g');
if (edges && edges.length) {
  for (var i=0;i<edges.length;i++) {
    if (edges[i].id.substr(0,4)=='edge') {
      edges[i].setAttribute('class','edge');
    }
  }
}
]]></script>
        <defs>
                <circle id="rim" cx="0" cy="0" r="7"/>
                <circle id="rim2" cx="0" cy="0" r="3.5"/>
                <g id="zoomPlus">
                        <use xlink:href="#rim" fill="#404040">
                                <set attributeName="fill" to="#808080" begin="zoomplus.mouseover" end="zoomplus.mouseout"/>
                        </use>
                        <path d="M-4,0h8M0,-4v8" fill="none" stroke="white" stroke-width="1.5" pointer-events="none"/>
                </g>
                <g id="zoomMin">
                        <use xlink:href="#rim" fill="#404040">
                                <set attributeName="fill" to="#808080" begin="zoomminus.mouseover" end="zoomminus.mouseout"/>
                        </use>
                        <path d="M-4,0h8" fill="none" stroke="white" stroke-width="1.5" pointer-events="none"/>
                </g>
                <g id="dirArrow">
                        <path fill="none" stroke="white" stroke-width="1.5" d="M0,-3.0v7 M-2.5,-0.5L0,-3.0L2.5,-0.5"/>
                </g>
               <g id="resetDef">
                       <use xlink:href="#rim2" fill="#404040">
                               <set attributeName="fill" to="#808080" begin="reset.mouseover" end="reset.mouseout"/>
                       </use>
               </g>
        </defs>

<script type="text/javascript">
var viewWidth = 1596;
var viewHeight = 533;
var sectionId = 'dynsection-0';
</script>
<script xlink:href="../../svgpan.js"/>
<svg id="graph" class="graph">
<g id="viewport">
<title>/home/runner/work/doxygen/doxygen/src/doxygen.h</title>
<!-- Node1 -->
<g id="node1" class="node">
<title>Node1</title>
<g id="a_node1"><a xlink:title=" ">
<polygon fill="#999999" stroke="#666666" points="1119.52,-525 965.52,-525 965.52,-495 1119.52,-495 1119.52,-525"/>
<text text-anchor="start" x="973.52" y="-513" font-family="Helvetica,sans-Serif" font-size="10.00">/home/runner/work/doxygen</text>
<text text-anchor="middle" x="1042.52" y="-502" font-family="Helvetica,sans-Serif" font-size="10.00">/doxygen/src/doxygen.h</text>
</a>
</g>
</g>
<!-- Node2 -->
<g id="node2" class="node">
<title>Node2</title>
<g id="a_node2"><a xlink:href="../../d5/d75/containers_8h.html" target="_top" xlink:title=" ">
<polygon fill="white" stroke="#666666" points="1120.02,-184 1043.02,-184 1043.02,-165 1120.02,-165 1120.02,-184"/>
<text text-anchor="middle" x="1081.52" y="-172" font-family="Helvetica,sans-Serif" font-size="10.00">containers.h</text>
</a>
</g>
</g>
<!-- Node1&#45;&gt;Node2 -->
<g id="edge1" class="edge">
<title>Node1&#45;&gt;Node2</title>
<path fill="none" stroke="#63b8ff" d="M1054.95,-494.7C1071.45,-474.21 1098.52,-434.61 1098.52,-395.5 1098.52,-395.5 1098.52,-395.5 1098.52,-283.5 1098.52,-251.8 1091.29,-215.51 1086.26,-194.09"/>
<polygon fill="#63b8ff" stroke="#63b8ff" points="1089.59,-192.99 1083.81,-184.11 1082.79,-194.65 1089.59,-192.99"/>
</g>
<!-- Node10 -->
<g id="node10" class="node">
<title>Node10</title>
<g id="a_node10"><a xlink:href="../../d9/d11/membergroup_8h.html" target="_top" xlink:title=" ">
<polygon fill="white" stroke="#666666" points="806.02,-294 711.02,-294 711.02,-275 806.02,-275 806.02,-294"/>
<text text-anchor="middle" x="758.52" y="-282" font-family="Helvetica,sans-Serif" font-size="10.00">membergroup.h</text>
</a>
</g>
</g>
<!-- Node1&#45;&gt;Node10 -->
<g id="edge9" class="edge">
<title>Node1&#45;&gt;Node10</title>
<path fill="none" stroke="#63b8ff" d="M1024.32,-494.68C973.29,-454.51 829.14,-341.08 777.35,-300.32"/>
<polygon fill="#63b8ff" stroke="#63b8ff" points="779.34,-297.43 769.32,-294 775.02,-302.94 779.34,-297.43"/>
</g>
<!-- Node24 -->
<g id="node24" class="node">
<title>Node24</title>
<g id="a_node24"><a xlink:href="../../d6/d15/dirdef_8h.html" target="_top" xlink:title=" ">
<polygon fill="white" stroke="#666666" points="344.02,-349 291.02,-349 291.02,-330 344.02,-330 344.02,-349"/>
<text text-anchor="middle" x="317.52" y="-337" font-family="Helvetica,sans-Serif" font-size="10.00">dirdef.h</text>
</a>
</g>
</g>
<!-- Node1&#45;&gt;Node24 -->
<g id="edge39" class="edge">
<title>Node1&#45;&gt;Node24</title>
<path fill="none" stroke="#63b8ff" d="M965.4,-508.3C861.12,-505.88 669.95,-496.18 511.52,-459 445.23,-443.44 423.52,-444.15 368.52,-404 351.45,-391.53 336.92,-371.97 327.79,-357.85"/>
<polygon fill="#63b8ff" stroke="#63b8ff" points="330.61,-355.76 322.37,-349.1 324.66,-359.45 330.61,-355.76"/>
</g>
<!-- Node26 -->
<g id="node26" class="node">
<title>Node26</title>
<g id="a_node26"><a xlink:href="../../dd/d78/memberlist_8h.html" target="_top" xlink:title=" ">
<polygon fill="white" stroke="#666666" points="602.52,-459 520.52,-459 520.52,-440 602.52,-440 602.52,-459"/>
<text text-anchor="middle" x="561.52" y="-447" font-family="Helvetica,sans-Serif" font-size="10.00">memberlist.h</text>
</a>
</g>
</g>
<!-- Node1&#45;&gt;Node26 -->
<g id="edge48" class="edge">
<title>Node1&#45;&gt;Node26</title>
<path fill="none" stroke="#63b8ff" d="M965.51,-499.63C866.53,-487.6 697.4,-467.03 612.83,-456.74"/>
<polygon fill="#63b8ff" stroke="#63b8ff" points="613.05,-453.24 602.7,-455.51 612.2,-460.19 613.05,-453.24"/>
</g>
<!-- Node31 -->
<g id="node31" class="node">
<title>Node31</title>
<g id="a_node31"><a xlink:href="../../df/d67/define_8h.html" target="_top" xlink:title=" ">
<polygon fill="white" stroke="#666666" points="1070.52,-239 1014.52,-239 1014.52,-220 1070.52,-220 1070.52,-239"/>
<text text-anchor="middle" x="1042.52" y="-227" font-family="Helvetica,sans-Serif" font-size="10.00">define.h</text>
</a>
</g>
</g>
<!-- Node1&#45;&gt;Node31 -->
<g id="edge70" class="edge">
<title>Node1&#45;&gt;Node31</title>
<path fill="none" stroke="#63b8ff" d="M1042.52,-494.67C1042.52,-473.14 1042.52,-431.17 1042.52,-395.5 1042.52,-395.5 1042.52,-395.5 1042.52,-338.5 1042.52,-307.19 1042.52,-270.77 1042.52,-249.23"/>
<polygon fill="#63b8ff" stroke="#63b8ff" points="1046.02,-249.18 1042.52,-239.18 1039.02,-249.18 1046.02,-249.18"/>
</g>
<!-- Node32 -->
<g id="node32" class="node">
<title>Node32</title>
<g id="a_node32"><a xlink:href="../../d3/d26/cache_8h.html" target="_top" xlink:title=" ">
<polygon fill="white" stroke="#666666" points="1440.52,-184 1386.52,-184 1386.52,-165 1440.52,-165 1440.52,-184"/>
<text text-anchor="middle" x="1413.52" y="-172" font-family="Helvetica,sans-Serif" font-size="10.00">cache.h</text>
</a>
</g>
</g>
<!-- Node1&#45;&gt;Node32 -->
<g id="edge77" class="edge">
<title>Node1&#45;&gt;Node32</title>
<path fill="none" stroke="#63b8ff" d="M1119.6,-497.96C1216.28,-481.91 1369.52,-448.16 1369.52,-395.5 1369.52,-395.5 1369.52,-395.5 1369.52,-283.5 1369.52,-249.42 1388.55,-213.46 1401.58,-192.83"/>
<polygon fill="#63b8ff" stroke="#63b8ff" points="1404.65,-194.53 1407.22,-184.25 1398.8,-190.68 1404.65,-194.53"/>
</g>
<!-- Node37 -->
<g id="node37" class="node">
<title>Node37</title>
<g id="a_node37"><a xlink:href="../../d7/ddd/symbolmap_8h.html" target="_top" xlink:title=" ">
<polygon fill="white" stroke="#666666" points="1298.02,-184 1215.02,-184 1215.02,-165 1298.02,-165 1298.02,-184"/>
<text text-anchor="middle" x="1256.52" y="-172" font-family="Helvetica,sans-Serif" font-size="10.00">symbolmap.h</text>
</a>
</g>
</g>
<!-- Node1&#45;&gt;Node37 -->
<g id="edge83" class="edge">
<title>Node1&#45;&gt;Node37</title>
<path fill="none" stroke="#63b8ff" d="M1092.95,-494.91C1137.86,-478.91 1196.52,-447.98 1196.52,-395.5 1196.52,-395.5 1196.52,-395.5 1196.52,-283.5 1196.52,-247.09 1222.9,-211.48 1240.68,-191.62"/>
<polygon fill="#63b8ff" stroke="#63b8ff" points="1243.41,-193.82 1247.67,-184.11 1238.29,-189.05 1243.41,-193.82"/>
</g>
<!-- Node3 -->
<g id="node3" class="node">
<title>Node3</title>
<g id="a_node3"><a xlink:title=" ">
<polygon fill="#e0e0e0" stroke="#999999" points="650.02,-129 603.02,-129 603.02,-110 650.02,-110 650.02,-129"/>
<text text-anchor="middle" x="626.52" y="-117" font-family="Helvetica,sans-Serif" font-size="10.00">vector</text>
</a>
</g>
</g>
<!-- Node2&#45;&gt;Node3 -->
<g id="edge2" class="edge">
<title>Node2&#45;&gt;Node3</title>
<path fill="none" stroke="#63b8ff" d="M1042.73,-168.98C955.02,-158.77 742.7,-134.03 660.14,-124.42"/>
<polygon fill="#63b8ff" stroke="#63b8ff" points="660.39,-120.92 650.05,-123.24 659.58,-127.87 660.39,-120.92"/>
</g>
<!-- Node4 -->
<g id="node4" class="node">
<title>Node4</title>
<g id="a_node4"><a xlink:title=" ">
<polygon fill="#e0e0e0" stroke="#999999" points="851.52,-19 807.52,-19 807.52,0 851.52,0 851.52,-19"/>
<text text-anchor="middle" x="829.52" y="-7" font-family="Helvetica,sans-Serif" font-size="10.00">string</text>
</a>
</g>
</g>
<!-- Node2&#45;&gt;Node4 -->
<g id="edge3" class="edge">
<title>Node2&#45;&gt;Node4</title>
<path fill="none" stroke="#63b8ff" d="M1084.35,-164.81C1088.04,-151.69 1092.81,-126.59 1081.52,-110 1031.44,-36.38 917.63,-17.23 861.73,-12.25"/>
<polygon fill="#63b8ff" stroke="#63b8ff" points="861.92,-8.75 851.67,-11.45 861.36,-15.73 861.92,-8.75"/>
</g>
<!-- Node5 -->
<g id="node5" class="node">
<title>Node5</title>
<g id="a_node5"><a xlink:title=" ">
<polygon fill="#e0e0e0" stroke="#999999" points="906.52,-129 874.52,-129 874.52,-110 906.52,-110 906.52,-129"/>
<text text-anchor="middle" x="890.52" y="-117" font-family="Helvetica,sans-Serif" font-size="10.00">set</text>
</a>
</g>
</g>
<!-- Node2&#45;&gt;Node5 -->
<g id="edge4" class="edge">
<title>Node2&#45;&gt;Node5</title>
<path fill="none" stroke="#63b8ff" d="M1047,-164.95C1015.33,-156.95 966.94,-144.34 916.4,-129.12"/>
<polygon fill="#63b8ff" stroke="#63b8ff" points="917.19,-125.7 906.61,-126.14 915.16,-132.4 917.19,-125.7"/>
</g>
<!-- Node6 -->
<g id="node6" class="node">
<title>Node6</title>
<g id="a_node6"><a xlink:title=" ">
<polygon fill="#e0e0e0" stroke="#999999" points="856.52,-129 818.52,-129 818.52,-110 856.52,-110 856.52,-129"/>
<text text-anchor="middle" x="837.52" y="-117" font-family="Helvetica,sans-Serif" font-size="10.00">map</text>
</a>
</g>
</g>
<!-- Node2&#45;&gt;Node6 -->
<g id="edge5" class="edge">
<title>Node2&#45;&gt;Node6</title>
<path fill="none" stroke="#63b8ff" d="M1042.65,-166.6C1001.25,-159.01 933.65,-145.91 866.62,-129.09"/>
<polygon fill="#63b8ff" stroke="#63b8ff" points="867.29,-125.65 856.73,-126.59 865.57,-132.44 867.29,-125.65"/>
</g>
<!-- Node7 -->
<g id="node7" class="node">
<title>Node7</title>
<g id="a_node7"><a xlink:title=" ">
<polygon fill="#e0e0e0" stroke="#999999" points="1072.52,-129 986.52,-129 986.52,-110 1072.52,-110 1072.52,-129"/>
<text text-anchor="middle" x="1029.52" y="-117" font-family="Helvetica,sans-Serif" font-size="10.00">unordered_set</text>
</a>
</g>
</g>
<!-- Node2&#45;&gt;Node7 -->
<g id="edge6" class="edge">
<title>Node2&#45;&gt;Node7</title>
<path fill="none" stroke="#63b8ff" d="M1072.93,-164.75C1065.36,-157.03 1054.14,-145.6 1045.01,-136.28"/>
<polygon fill="#63b8ff" stroke="#63b8ff" points="1047.45,-133.78 1037.95,-129.09 1042.45,-138.68 1047.45,-133.78"/>
</g>
<!-- Node8 -->
<g id="node8" class="node">
<title>Node8</title>
<g id="a_node8"><a xlink:title=" ">
<polygon fill="#e0e0e0" stroke="#999999" points="1222.02,-129 1129.02,-129 1129.02,-110 1222.02,-110 1222.02,-129"/>
<text text-anchor="middle" x="1175.52" y="-117" font-family="Helvetica,sans-Serif" font-size="10.00">unordered_map</text>
</a>
</g>
</g>
<!-- Node2&#45;&gt;Node8 -->
<g id="edge7" class="edge">
<title>Node2&#45;&gt;Node8</title>
<path fill="none" stroke="#63b8ff" d="M1096.62,-164.98C1111.34,-156.69 1133.94,-143.94 1151.19,-134.22"/>
<polygon fill="#63b8ff" stroke="#63b8ff" points="1153.15,-137.13 1160.14,-129.17 1149.71,-131.03 1153.15,-137.13"/>
</g>
<!-- Node9 -->
<g id="node9" class="node">
<title>Node9</title>
<g id="a_node9"><a xlink:title=" ">
<polygon fill="#e0e0e0" stroke="#999999" points="968.02,-129 925.02,-129 925.02,-110 968.02,-110 968.02,-129"/>
<text text-anchor="middle" x="946.52" y="-117" font-family="Helvetica,sans-Serif" font-size="10.00">stack</text>
</a>
</g>
</g>
<!-- Node2&#45;&gt;Node9 -->
<g id="edge8" class="edge">
<title>Node2&#45;&gt;Node9</title>
<path fill="none" stroke="#63b8ff" d="M1059.83,-164.98C1037.59,-156.25 1002.79,-142.59 977.62,-132.71"/>
<polygon fill="#63b8ff" stroke="#63b8ff" points="978.74,-129.39 968.16,-128.99 976.19,-135.91 978.74,-129.39"/>
</g>
<!-- Node10&#45;&gt;Node3 -->
<g id="edge10" class="edge">
<title>Node10&#45;&gt;Node3</title>
<path fill="none" stroke="#63b8ff" d="M751.42,-274.74C730.38,-248.76 668.09,-171.83 640.24,-137.44"/>
<polygon fill="#63b8ff" stroke="#63b8ff" points="642.67,-134.88 633.65,-129.31 637.23,-139.28 642.67,-134.88"/>
</g>
<!-- Node10&#45;&gt;Node6 -->
<g id="edge11" class="edge">
<title>Node10&#45;&gt;Node6</title>
<path fill="none" stroke="#63b8ff" d="M762.77,-274.74C775.25,-248.98 812.01,-173.13 828.88,-138.33"/>
<polygon fill="#63b8ff" stroke="#63b8ff" points="832.04,-139.83 833.25,-129.31 825.74,-136.78 832.04,-139.83"/>
</g>
<!-- Node11 -->
<g id="node11" class="node">
<title>Node11</title>
<g id="a_node11"><a xlink:title=" ">
<polygon fill="#e0e0e0" stroke="#999999" points="800.52,-129 742.52,-129 742.52,-110 800.52,-110 800.52,-129"/>
<text text-anchor="middle" x="771.52" y="-117" font-family="Helvetica,sans-Serif" font-size="10.00">memory</text>
</a>
</g>
</g>
<!-- Node10&#45;&gt;Node11 -->
<g id="edge12" class="edge">
<title>Node10&#45;&gt;Node11</title>
<path fill="none" stroke="#63b8ff" d="M759.22,-274.74C761.25,-249.31 767.17,-175.08 769.99,-139.69"/>
<polygon fill="#63b8ff" stroke="#63b8ff" points="773.51,-139.55 770.82,-129.31 766.53,-139 773.51,-139.55"/>
</g>
<!-- Node12 -->
<g id="node12" class="node">
<title>Node12</title>
<g id="a_node12"><a xlink:href="../../d9/d49/types_8h.html" target="_top" xlink:title="This file contains a number of basic enums and types.">
<polygon fill="white" stroke="#666666" points="240.02,-239 187.02,-239 187.02,-220 240.02,-220 240.02,-239"/>
<text text-anchor="middle" x="213.52" y="-227" font-family="Helvetica,sans-Serif" font-size="10.00">types.h</text>
</a>
</g>
</g>
<!-- Node10&#45;&gt;Node12 -->
<g id="edge13" class="edge">
<title>Node10&#45;&gt;Node12</title>
<path fill="none" stroke="#63b8ff" d="M710.63,-278.84C603.48,-268.42 346.27,-243.41 250.38,-234.08"/>
<polygon fill="#63b8ff" stroke="#63b8ff" points="250.59,-230.59 240.29,-233.1 249.91,-237.56 250.59,-230.59"/>
</g>
<!-- Node22 -->
<g id="node22" class="node">
<title>Node22</title>
<g id="a_node22"><a xlink:href="../../d1/d02/reflist_8h.html" target="_top" xlink:title=" ">
<polygon fill="white" stroke="#666666" points="678.02,-239 625.02,-239 625.02,-220 678.02,-220 678.02,-239"/>
<text text-anchor="middle" x="651.52" y="-227" font-family="Helvetica,sans-Serif" font-size="10.00">reflist.h</text>
</a>
</g>
</g>
<!-- Node10&#45;&gt;Node22 -->
<g id="edge26" class="edge">
<title>Node10&#45;&gt;Node22</title>
<path fill="none" stroke="#63b8ff" d="M741.33,-274.98C724.27,-266.54 697.89,-253.47 678.13,-243.68"/>
<polygon fill="#63b8ff" stroke="#63b8ff" points="679.54,-240.47 669.02,-239.17 676.43,-246.75 679.54,-240.47"/>
</g>
<!-- Node13 -->
<g id="node13" class="node">
<title>Node13</title>
<g id="a_node13"><a xlink:href="../../d7/d5c/qcstring_8h.html" target="_top" xlink:title=" ">
<polygon fill="white" stroke="#666666" points="248.02,-129 183.02,-129 183.02,-110 248.02,-110 248.02,-129"/>
<text text-anchor="middle" x="215.52" y="-117" font-family="Helvetica,sans-Serif" font-size="10.00">qcstring.h</text>
</a>
</g>
</g>
<!-- Node12&#45;&gt;Node13 -->
<g id="edge14" class="edge">
<title>Node12&#45;&gt;Node13</title>
<path fill="none" stroke="#63b8ff" d="M213.68,-219.66C214.01,-202.17 214.74,-162.8 215.17,-139.27"/>
<polygon fill="#63b8ff" stroke="#63b8ff" points="218.67,-139.22 215.36,-129.16 211.68,-139.09 218.67,-139.22"/>
</g>
<!-- Node13&#45;&gt;Node4 -->
<g id="edge15" class="edge">
<title>Node13&#45;&gt;Node4</title>
<path fill="none" stroke="#63b8ff" d="M243.12,-109.86C269.08,-101.49 308.88,-88.03 342.52,-74 360.31,-66.58 362.97,-60.26 381.52,-55 532.39,-12.24 721.95,-9.17 796.89,-9.84"/>
<polygon fill="#63b8ff" stroke="#63b8ff" points="797.05,-13.35 807.1,-9.97 797.14,-6.35 797.05,-13.35"/>
</g>
<!-- Node14 -->
<g id="node14" class="node">
<title>Node14</title>
<g id="a_node14"><a xlink:title=" ">
<polygon fill="#e0e0e0" stroke="#999999" points="522.52,-74 458.52,-74 458.52,-55 522.52,-55 522.52,-74"/>
<text text-anchor="middle" x="490.52" y="-62" font-family="Helvetica,sans-Serif" font-size="10.00">algorithm</text>
</a>
</g>
</g>
<!-- Node13&#45;&gt;Node14 -->
<g id="edge16" class="edge">
<title>Node13&#45;&gt;Node14</title>
<path fill="none" stroke="#63b8ff" d="M248.34,-112.35C293.47,-103.87 377.2,-88.03 448.52,-74 448.62,-73.98 448.72,-73.96 448.82,-73.94"/>
<polygon fill="#63b8ff" stroke="#63b8ff" points="449.3,-77.41 458.42,-72.03 447.93,-70.55 449.3,-77.41"/>
</g>
<!-- Node15 -->
<g id="node15" class="node">
<title>Node15</title>
<g id="a_node15"><a xlink:title=" ">
<polygon fill="#e0e0e0" stroke="#999999" points="440.02,-74 391.02,-74 391.02,-55 440.02,-55 440.02,-74"/>
<text text-anchor="middle" x="415.52" y="-62" font-family="Helvetica,sans-Serif" font-size="10.00">cctype</text>
</a>
</g>
</g>
<!-- Node13&#45;&gt;Node15 -->
<g id="edge17" class="edge">
<title>Node13&#45;&gt;Node15</title>
<path fill="none" stroke="#63b8ff" d="M247.65,-109.98C284.09,-100.33 343.29,-84.64 380.77,-74.71"/>
<polygon fill="#63b8ff" stroke="#63b8ff" points="381.96,-78.01 390.73,-72.07 380.17,-71.25 381.96,-78.01"/>
</g>
<!-- Node16 -->
<g id="node16" class="node">
<title>Node16</title>
<g id="a_node16"><a xlink:title=" ">
<polygon fill="#e0e0e0" stroke="#999999" points="202.52,-74 152.52,-74 152.52,-55 202.52,-55 202.52,-74"/>
<text text-anchor="middle" x="177.52" y="-62" font-family="Helvetica,sans-Serif" font-size="10.00">cstring</text>
</a>
</g>
</g>
<!-- Node13&#45;&gt;Node16 -->
<g id="edge18" class="edge">
<title>Node13&#45;&gt;Node16</title>
<path fill="none" stroke="#63b8ff" d="M209.25,-109.75C203.93,-102.34 196.16,-91.5 189.64,-82.41"/>
<polygon fill="#63b8ff" stroke="#63b8ff" points="192.35,-80.18 183.68,-74.09 186.66,-84.26 192.35,-80.18"/>
</g>
<!-- Node17 -->
<g id="node17" class="node">
<title>Node17</title>
<g id="a_node17"><a xlink:title=" ">
<polygon fill="#e0e0e0" stroke="#999999" points="266.52,-74 220.52,-74 220.52,-55 266.52,-55 266.52,-74"/>
<text text-anchor="middle" x="243.52" y="-62" font-family="Helvetica,sans-Serif" font-size="10.00">cstdio</text>
</a>
</g>
</g>
<!-- Node13&#45;&gt;Node17 -->
<g id="edge19" class="edge">
<title>Node13&#45;&gt;Node17</title>
<path fill="none" stroke="#63b8ff" d="M220.14,-109.75C223.98,-102.49 229.54,-91.95 234.28,-82.98"/>
<polygon fill="#63b8ff" stroke="#63b8ff" points="237.41,-84.57 238.98,-74.09 231.22,-81.3 237.41,-84.57"/>
</g>
<!-- Node18 -->
<g id="node18" class="node">
<title>Node18</title>
<g id="a_node18"><a xlink:title=" ">
<polygon fill="#e0e0e0" stroke="#999999" points="334.02,-74 285.02,-74 285.02,-55 334.02,-55 334.02,-74"/>
<text text-anchor="middle" x="309.52" y="-62" font-family="Helvetica,sans-Serif" font-size="10.00">cstdlib</text>
</a>
</g>
</g>
<!-- Node13&#45;&gt;Node18 -->
<g id="edge20" class="edge">
<title>Node13&#45;&gt;Node18</title>
<path fill="none" stroke="#63b8ff" d="M230.62,-109.98C245.34,-101.69 267.94,-88.94 285.19,-79.22"/>
<polygon fill="#63b8ff" stroke="#63b8ff" points="287.15,-82.13 294.14,-74.17 283.71,-76.03 287.15,-82.13"/>
</g>
<!-- Node19 -->
<g id="node19" class="node">
<title>Node19</title>
<g id="a_node19"><a xlink:title=" ">
<polygon fill="#e0e0e0" stroke="#999999" points="73.52,-19 23.52,-19 23.52,0 73.52,0 73.52,-19"/>
<text text-anchor="middle" x="48.52" y="-7" font-family="Helvetica,sans-Serif" font-size="10.00">cstdint</text>
</a>
</g>
</g>
<!-- Node13&#45;&gt;Node19 -->
<g id="edge21" class="edge">
<title>Node13&#45;&gt;Node19</title>
<path fill="none" stroke="#63b8ff" d="M182.6,-116.47C128.99,-112.4 26.57,-101.19 4.52,-74 -8.43,-58.03 9.9,-38.42 26.7,-25.25"/>
<polygon fill="#63b8ff" stroke="#63b8ff" points="29.2,-27.76 35.17,-19.01 25.04,-22.13 29.2,-27.76"/>
</g>
<!-- Node20 -->
<g id="node20" class="node">
<title>Node20</title>
<g id="a_node20"><a xlink:title=" ">
<polygon fill="#e0e0e0" stroke="#999999" points="71.02,-74 14.02,-74 14.02,-55 71.02,-55 71.02,-74"/>
<text text-anchor="middle" x="42.52" y="-62" font-family="Helvetica,sans-Serif" font-size="10.00">ostream</text>
</a>
</g>
</g>
<!-- Node13&#45;&gt;Node20 -->
<g id="edge22" class="edge">
<title>Node13&#45;&gt;Node20</title>
<path fill="none" stroke="#63b8ff" d="M187.72,-109.98C158.55,-101.05 112.52,-86.94 80.12,-77.02"/>
<polygon fill="#63b8ff" stroke="#63b8ff" points="81.12,-73.66 70.53,-74.08 79.07,-80.36 81.12,-73.66"/>
</g>
<!-- Node21 -->
<g id="node21" class="node">
<title>Node21</title>
<g id="a_node21"><a xlink:href="../../db/d7c/utf8_8h.html" target="_top" xlink:title="Various UTF8 related helper functions.">
<polygon fill="white" stroke="#666666" points="134.02,-74 89.02,-74 89.02,-55 134.02,-55 134.02,-74"/>
<text text-anchor="middle" x="111.52" y="-62" font-family="Helvetica,sans-Serif" font-size="10.00">utf8.h</text>
</a>
</g>
</g>
<!-- Node13&#45;&gt;Node21 -->
<g id="edge23" class="edge">
<title>Node13&#45;&gt;Node21</title>
<path fill="none" stroke="#63b8ff" d="M198.81,-109.98C182.31,-101.57 156.82,-88.59 137.64,-78.81"/>
<polygon fill="#63b8ff" stroke="#63b8ff" points="139.03,-75.59 128.53,-74.17 135.85,-81.83 139.03,-75.59"/>
</g>
<!-- Node21&#45;&gt;Node4 -->
<g id="edge25" class="edge">
<title>Node21&#45;&gt;Node4</title>
<path fill="none" stroke="#63b8ff" d="M134.13,-56.91C137.26,-56.17 140.46,-55.5 143.52,-55 392.71,-14.22 698.56,-10.45 797.22,-10.37"/>
<polygon fill="#63b8ff" stroke="#63b8ff" points="797.43,-13.87 807.43,-10.38 797.43,-6.87 797.43,-13.87"/>
</g>
<!-- Node21&#45;&gt;Node19 -->
<g id="edge24" class="edge">
<title>Node21&#45;&gt;Node19</title>
<path fill="none" stroke="#63b8ff" d="M101.4,-54.98C92.09,-47.15 78.05,-35.34 66.78,-25.86"/>
<polygon fill="#63b8ff" stroke="#63b8ff" points="68.73,-22.93 58.83,-19.17 64.23,-28.29 68.73,-22.93"/>
</g>
<!-- Node22&#45;&gt;Node3 -->
<g id="edge27" class="edge">
<title>Node22&#45;&gt;Node3</title>
<path fill="none" stroke="#63b8ff" d="M649.47,-219.66C645.41,-202.09 636.23,-162.45 630.79,-138.95"/>
<polygon fill="#63b8ff" stroke="#63b8ff" points="634.19,-138.11 628.52,-129.16 627.37,-139.69 634.19,-138.11"/>
</g>
<!-- Node22&#45;&gt;Node8 -->
<g id="edge28" class="edge">
<title>Node22&#45;&gt;Node8</title>
<path fill="none" stroke="#63b8ff" d="M678.08,-228.85C766.78,-229.61 1051.6,-228.44 1129.52,-184 1147.39,-173.81 1160.19,-153.52 1167.68,-138.61"/>
<polygon fill="#63b8ff" stroke="#63b8ff" points="1170.95,-139.87 1172.02,-129.33 1164.61,-136.91 1170.95,-139.87"/>
</g>
<!-- Node22&#45;&gt;Node11 -->
<g id="edge29" class="edge">
<title>Node22&#45;&gt;Node11</title>
<path fill="none" stroke="#63b8ff" d="M661.34,-219.66C681.75,-201.3 728.95,-158.81 754.45,-135.87"/>
<polygon fill="#63b8ff" stroke="#63b8ff" points="756.81,-138.45 761.9,-129.16 752.13,-133.25 756.81,-138.45"/>
</g>
<!-- Node22&#45;&gt;Node13 -->
<g id="edge30" class="edge">
<title>Node22&#45;&gt;Node13</title>
<path fill="none" stroke="#63b8ff" d="M624.93,-227.89C569.56,-225.94 438.36,-217.81 334.52,-184 298.12,-172.15 259.68,-149.54 236.65,-134.74"/>
<polygon fill="#63b8ff" stroke="#63b8ff" points="238.34,-131.67 228.06,-129.12 234.51,-137.52 238.34,-131.67"/>
</g>
<!-- Node23 -->
<g id="node23" class="node">
<title>Node23</title>
<g id="a_node23"><a xlink:href="../../da/de1/linkedmap_8h.html" target="_top" xlink:title=" ">
<polygon fill="white" stroke="#666666" points="454.02,-184 377.02,-184 377.02,-165 454.02,-165 454.02,-184"/>
<text text-anchor="middle" x="415.52" y="-172" font-family="Helvetica,sans-Serif" font-size="10.00">linkedmap.h</text>
</a>
</g>
</g>
<!-- Node22&#45;&gt;Node23 -->
<g id="edge31" class="edge">
<title>Node22&#45;&gt;Node23</title>
<path fill="none" stroke="#63b8ff" d="M624.91,-222.52C585.85,-213.75 512.39,-197.26 463.7,-186.32"/>
<polygon fill="#63b8ff" stroke="#63b8ff" points="464.23,-182.85 453.71,-184.08 462.7,-189.68 464.23,-182.85"/>
</g>
<!-- Node23&#45;&gt;Node3 -->
<g id="edge33" class="edge">
<title>Node23&#45;&gt;Node3</title>
<path fill="none" stroke="#63b8ff" d="M449.42,-164.98C488.88,-155.07 553.64,-138.81 592.96,-128.93"/>
<polygon fill="#63b8ff" stroke="#63b8ff" points="594.01,-132.28 602.85,-126.45 592.3,-125.49 594.01,-132.28"/>
</g>
<!-- Node23&#45;&gt;Node4 -->
<g id="edge35" class="edge">
<title>Node23&#45;&gt;Node4</title>
<path fill="none" stroke="#63b8ff" d="M437.2,-164.97C505.64,-138.02 717.4,-54.65 797.96,-22.92"/>
<polygon fill="#63b8ff" stroke="#63b8ff" points="799.54,-26.07 807.56,-19.15 796.97,-19.55 799.54,-26.07"/>
</g>
<!-- Node23&#45;&gt;Node8 -->
<g id="edge32" class="edge">
<title>Node23&#45;&gt;Node8</title>
<path fill="none" stroke="#63b8ff" d="M454.21,-171.23C556.61,-165.16 843.25,-147.73 1081.52,-129 1093.52,-128.06 1106.37,-126.96 1118.59,-125.86"/>
<polygon fill="#63b8ff" stroke="#63b8ff" points="1119.04,-129.34 1128.68,-124.95 1118.41,-122.37 1119.04,-129.34"/>
</g>
<!-- Node23&#45;&gt;Node11 -->
<g id="edge34" class="edge">
<title>Node23&#45;&gt;Node11</title>
<path fill="none" stroke="#63b8ff" d="M454.3,-167.73C522.69,-157.55 663.99,-136.51 732.53,-126.3"/>
<polygon fill="#63b8ff" stroke="#63b8ff" points="733.12,-129.76 742.49,-124.82 732.09,-122.83 733.12,-129.76"/>
</g>
<!-- Node23&#45;&gt;Node13 -->
<g id="edge38" class="edge">
<title>Node23&#45;&gt;Node13</title>
<path fill="none" stroke="#63b8ff" d="M383.39,-164.98C349.37,-155.97 295.52,-141.7 258.02,-131.76"/>
<polygon fill="#63b8ff" stroke="#63b8ff" points="258.47,-128.26 247.91,-129.08 256.68,-135.03 258.47,-128.26"/>
</g>
<!-- Node23&#45;&gt;Node14 -->
<g id="edge36" class="edge">
<title>Node23&#45;&gt;Node14</title>
<path fill="none" stroke="#63b8ff" d="M421.66,-164.66C434.14,-146.69 462.64,-105.64 478.8,-82.38"/>
<polygon fill="#63b8ff" stroke="#63b8ff" points="481.68,-84.37 484.51,-74.16 475.93,-80.38 481.68,-84.37"/>
</g>
<!-- Node23&#45;&gt;Node15 -->
<g id="edge37" class="edge">
<title>Node23&#45;&gt;Node15</title>
<path fill="none" stroke="#63b8ff" d="M415.52,-164.66C415.52,-147.17 415.52,-107.8 415.52,-84.27"/>
<polygon fill="#63b8ff" stroke="#63b8ff" points="419.02,-84.16 415.52,-74.16 412.02,-84.16 419.02,-84.16"/>
</g>
<!-- Node24&#45;&gt;Node3 -->
<g id="edge40" class="edge">
<title>Node24&#45;&gt;Node3</title>
<path fill="none" stroke="#63b8ff" d="M316.99,-329.92C315.74,-301.29 315.98,-208.42 367.52,-165 401.08,-136.73 530.45,-125.82 592.69,-122.14"/>
<polygon fill="#63b8ff" stroke="#63b8ff" points="593,-125.63 602.79,-121.57 592.61,-118.64 593,-125.63"/>
</g>
<!-- Node24&#45;&gt;Node6 -->
<g id="edge41" class="edge">
<title>Node24&#45;&gt;Node6</title>
<path fill="none" stroke="#63b8ff" d="M344.33,-337.12C393.71,-333.93 501.83,-323.85 587.52,-294 635.05,-277.44 644.59,-266.85 686.52,-239 737.34,-205.25 792.69,-159.17 820.11,-135.66"/>
<polygon fill="#63b8ff" stroke="#63b8ff" points="822.4,-138.3 827.68,-129.12 817.83,-133 822.4,-138.3"/>
</g>
<!-- Node24&#45;&gt;Node13 -->
<g id="edge42" class="edge">
<title>Node24&#45;&gt;Node13</title>
<path fill="none" stroke="#63b8ff" d="M294.06,-329.9C261.02,-316.34 202.07,-286.56 177.52,-239 159.94,-204.93 184.99,-161.16 202.02,-137.5"/>
<polygon fill="#63b8ff" stroke="#63b8ff" points="205.04,-139.31 208.25,-129.22 199.44,-135.1 205.04,-139.31"/>
</g>
<!-- Node24&#45;&gt;Node23 -->
<g id="edge43" class="edge">
<title>Node24&#45;&gt;Node23</title>
<path fill="none" stroke="#63b8ff" d="M319.91,-329.86C325.84,-309.43 342.62,-257.09 368.52,-220 376.11,-209.14 386.67,-198.84 395.87,-190.89"/>
<polygon fill="#63b8ff" stroke="#63b8ff" points="398.34,-193.39 403.8,-184.31 393.87,-188 398.34,-193.39"/>
</g>
<!-- Node25 -->
<g id="node25" class="node">
<title>Node25</title>
<g id="a_node25"><a xlink:href="../../df/da1/definition_8h.html" target="_top" xlink:title=" ">
<polygon fill="white" stroke="#666666" points="482.02,-294 411.02,-294 411.02,-275 482.02,-275 482.02,-294"/>
<text text-anchor="middle" x="446.52" y="-282" font-family="Helvetica,sans-Serif" font-size="10.00">definition.h</text>
</a>
</g>
</g>
<!-- Node24&#45;&gt;Node25 -->
<g id="edge44" class="edge">
<title>Node24&#45;&gt;Node25</title>
<path fill="none" stroke="#63b8ff" d="M338.25,-329.98C359.28,-321.34 392.07,-307.87 416.06,-298.02"/>
<polygon fill="#63b8ff" stroke="#63b8ff" points="417.5,-301.21 425.42,-294.17 414.84,-294.73 417.5,-301.21"/>
</g>
<!-- Node25&#45;&gt;Node3 -->
<g id="edge45" class="edge">
<title>Node25&#45;&gt;Node3</title>
<path fill="none" stroke="#63b8ff" d="M450.78,-274.92C461.7,-253.7 492.61,-198.11 532.52,-165 550.39,-150.18 574.02,-139.02 593.12,-131.58"/>
<polygon fill="#63b8ff" stroke="#63b8ff" points="594.49,-134.8 602.64,-128.03 592.05,-128.24 594.49,-134.8"/>
</g>
<!-- Node25&#45;&gt;Node12 -->
<g id="edge46" class="edge">
<title>Node25&#45;&gt;Node12</title>
<path fill="none" stroke="#63b8ff" d="M410.88,-275.39C367.33,-265.49 294.03,-248.81 250.07,-238.81"/>
<polygon fill="#63b8ff" stroke="#63b8ff" points="250.63,-235.35 240.1,-236.55 249.07,-242.18 250.63,-235.35"/>
</g>
<!-- Node25&#45;&gt;Node22 -->
<g id="edge47" class="edge">
<title>Node25&#45;&gt;Node22</title>
<path fill="none" stroke="#63b8ff" d="M479.46,-274.98C516.55,-265.4 576.65,-249.86 615.11,-239.91"/>
<polygon fill="#63b8ff" stroke="#63b8ff" points="616.06,-243.28 624.87,-237.39 614.31,-236.5 616.06,-243.28"/>
</g>
<!-- Node26&#45;&gt;Node3 -->
<g id="edge49" class="edge">
<title>Node26&#45;&gt;Node3</title>
<path fill="none" stroke="#63b8ff" d="M602.52,-443.34C636.18,-437.68 684.06,-426.25 720.52,-404 775.41,-370.5 793.57,-354.8 814.52,-294 842.48,-212.85 721.1,-155.35 659.92,-132.04"/>
<polygon fill="#63b8ff" stroke="#63b8ff" points="660.89,-128.66 650.29,-128.46 658.45,-135.23 660.89,-128.66"/>
</g>
<!-- Node26&#45;&gt;Node10 -->
<g id="edge69" class="edge">
<title>Node26&#45;&gt;Node10</title>
<path fill="none" stroke="#63b8ff" d="M601.63,-439.94C646.87,-427.99 718.66,-401.56 753.52,-349 762.21,-335.9 762.79,-317.76 761.59,-304.22"/>
<polygon fill="#63b8ff" stroke="#63b8ff" points="765.04,-303.62 760.3,-294.15 758.1,-304.51 765.04,-303.62"/>
</g>
<!-- Node26&#45;&gt;Node12 -->
<g id="edge68" class="edge">
<title>Node26&#45;&gt;Node12</title>
<path fill="none" stroke="#63b8ff" d="M520.32,-445.69C456.42,-439.22 333.07,-418.03 258.52,-349 237.6,-329.63 235.66,-320.64 225.52,-294 220.03,-279.56 216.97,-262.29 215.32,-249.41"/>
<polygon fill="#63b8ff" stroke="#63b8ff" points="218.79,-248.95 214.21,-239.39 211.83,-249.72 218.79,-248.95"/>
</g>
<!-- Node26&#45;&gt;Node14 -->
<g id="edge50" class="edge">
<title>Node26&#45;&gt;Node14</title>
<path fill="none" stroke="#63b8ff" d="M520.43,-447.16C410.95,-442.49 120.52,-422.38 120.52,-340.5 120.52,-340.5 120.52,-340.5 120.52,-228.5 120.52,-157.49 351.66,-96.9 448.57,-74.62"/>
<polygon fill="#63b8ff" stroke="#63b8ff" points="449.36,-78.03 458.33,-72.4 447.81,-71.21 449.36,-78.03"/>
</g>
<!-- Node26&#45;&gt;Node23 -->
<g id="edge67" class="edge">
<title>Node26&#45;&gt;Node23</title>
<path fill="none" stroke="#63b8ff" d="M520.45,-442.26C467.61,-431.62 382.52,-404.56 382.52,-340.5 382.52,-340.5 382.52,-340.5 382.52,-283.5 382.52,-250.63 396.68,-214.49 406.45,-193.46"/>
<polygon fill="#63b8ff" stroke="#63b8ff" points="409.73,-194.71 410.93,-184.18 403.43,-191.66 409.73,-194.71"/>
</g>
<!-- Node27 -->
<g id="node27" class="node">
<title>Node27</title>
<g id="a_node27"><a xlink:href="../../d4/d46/memberdef_8h.html" target="_top" xlink:title=" ">
<polygon fill="white" stroke="#666666" points="602.52,-404 520.52,-404 520.52,-385 602.52,-385 602.52,-404"/>
<text text-anchor="middle" x="561.52" y="-392" font-family="Helvetica,sans-Serif" font-size="10.00">memberdef.h</text>
</a>
</g>
</g>
<!-- Node26&#45;&gt;Node27 -->
<g id="edge51" class="edge">
<title>Node26&#45;&gt;Node27</title>
<path fill="none" stroke="#63b8ff" d="M561.52,-439.75C561.52,-432.8 561.52,-422.85 561.52,-414.13"/>
<polygon fill="#63b8ff" stroke="#63b8ff" points="565.02,-414.09 561.52,-404.09 558.02,-414.09 565.02,-414.09"/>
</g>
<!-- Node27&#45;&gt;Node3 -->
<g id="edge52" class="edge">
<title>Node27&#45;&gt;Node3</title>
<path fill="none" stroke="#63b8ff" d="M564.16,-384.8C569.3,-367.59 580.74,-327.97 587.52,-294 598.86,-237.23 588.98,-220.48 605.52,-165 608.27,-155.79 612.65,-146.08 616.71,-138.09"/>
<polygon fill="#63b8ff" stroke="#63b8ff" points="619.91,-139.53 621.52,-129.05 613.73,-136.24 619.91,-139.53"/>
</g>
<!-- Node27&#45;&gt;Node11 -->
<g id="edge53" class="edge">
<title>Node27&#45;&gt;Node11</title>
<path fill="none" stroke="#63b8ff" d="M602.9,-391.91C662.92,-387.03 771.63,-367.88 814.52,-294 843.8,-243.56 866.08,-216.39 838.52,-165 831.01,-151 816.95,-140.66 803.64,-133.48"/>
<polygon fill="#63b8ff" stroke="#63b8ff" points="805.15,-130.33 794.63,-129.02 802.04,-136.6 805.15,-130.33"/>
</g>
<!-- Node27&#45;&gt;Node12 -->
<g id="edge55" class="edge">
<title>Node27&#45;&gt;Node12</title>
<path fill="none" stroke="#63b8ff" d="M520.27,-391.27C452.05,-386.89 319.51,-375.2 281.52,-349 246.17,-324.62 226.81,-275.45 218.5,-248.75"/>
<polygon fill="#63b8ff" stroke="#63b8ff" points="221.85,-247.74 215.69,-239.12 215.13,-249.7 221.85,-247.74"/>
</g>
<!-- Node27&#45;&gt;Node25 -->
<g id="edge56" class="edge">
<title>Node27&#45;&gt;Node25</title>
<path fill="none" stroke="#63b8ff" d="M552.11,-384.66C532.64,-366.38 487.71,-324.18 463.2,-301.17"/>
<polygon fill="#63b8ff" stroke="#63b8ff" points="465.43,-298.45 455.74,-294.16 460.63,-303.56 465.43,-298.45"/>
</g>
<!-- Node28 -->
<g id="node28" class="node">
<title>Node28</title>
<g id="a_node28"><a xlink:title=" ">
<polygon fill="#e0e0e0" stroke="#999999" points="661.52,-349 589.52,-349 589.52,-330 661.52,-330 661.52,-349"/>
<text text-anchor="middle" x="625.52" y="-337" font-family="Helvetica,sans-Serif" font-size="10.00">sys/types.h</text>
</a>
</g>
</g>
<!-- Node27&#45;&gt;Node28 -->
<g id="edge54" class="edge">
<title>Node27&#45;&gt;Node28</title>
<path fill="none" stroke="#63b8ff" d="M571.8,-384.98C581.36,-377.07 595.8,-365.11 607.3,-355.58"/>
<polygon fill="#63b8ff" stroke="#63b8ff" points="609.58,-358.24 615.05,-349.17 605.12,-352.85 609.58,-358.24"/>
</g>
<!-- Node29 -->
<g id="node29" class="node">
<title>Node29</title>
<g id="a_node29"><a xlink:href="../../df/d9b/arguments_8h.html" target="_top" xlink:title=" ">
<polygon fill="white" stroke="#666666" points="578.52,-294 500.52,-294 500.52,-275 578.52,-275 578.52,-294"/>
<text text-anchor="middle" x="539.52" y="-282" font-family="Helvetica,sans-Serif" font-size="10.00">arguments.h</text>
</a>
</g>
</g>
<!-- Node27&#45;&gt;Node29 -->
<g id="edge57" class="edge">
<title>Node27&#45;&gt;Node29</title>
<path fill="none" stroke="#63b8ff" d="M558.26,-384.76C555.06,-375.88 550.29,-361.66 547.52,-349 544.29,-334.21 542.23,-317.17 541.01,-304.47"/>
<polygon fill="#63b8ff" stroke="#63b8ff" points="544.47,-303.87 540.12,-294.21 537.5,-304.48 544.47,-303.87"/>
</g>
<!-- Node30 -->
<g id="node30" class="node">
<title>Node30</title>
<g id="a_node30"><a xlink:href="../../d1/da6/classdef_8h.html" target="_top" xlink:title=" ">
<polygon fill="white" stroke="#666666" points="745.02,-349 680.02,-349 680.02,-330 745.02,-330 745.02,-349"/>
<text text-anchor="middle" x="712.52" y="-337" font-family="Helvetica,sans-Serif" font-size="10.00">classdef.h</text>
</a>
</g>
</g>
<!-- Node27&#45;&gt;Node30 -->
<g id="edge60" class="edge">
<title>Node27&#45;&gt;Node30</title>
<path fill="none" stroke="#63b8ff" d="M585.78,-384.98C610.84,-376.19 650.15,-362.39 678.35,-352.49"/>
<polygon fill="#63b8ff" stroke="#63b8ff" points="679.54,-355.78 687.82,-349.17 677.22,-349.18 679.54,-355.78"/>
</g>
<!-- Node29&#45;&gt;Node3 -->
<g id="edge58" class="edge">
<title>Node29&#45;&gt;Node3</title>
<path fill="none" stroke="#63b8ff" d="M537.23,-274.93C532.21,-254.2 522.39,-200.46 544.52,-165 555.44,-147.49 575.81,-136.39 593.5,-129.65"/>
<polygon fill="#63b8ff" stroke="#63b8ff" points="594.7,-132.94 602.99,-126.35 592.39,-126.33 594.7,-132.94"/>
</g>
<!-- Node29&#45;&gt;Node13 -->
<g id="edge59" class="edge">
<title>Node29&#45;&gt;Node13</title>
<path fill="none" stroke="#63b8ff" d="M507.47,-274.89C457.74,-260.68 360.06,-229.31 286.52,-184 265.1,-170.8 244.06,-150.86 230.52,-136.86"/>
<polygon fill="#63b8ff" stroke="#63b8ff" points="232.88,-134.26 223.46,-129.39 227.79,-139.06 232.88,-134.26"/>
</g>
<!-- Node30&#45;&gt;Node2 -->
<g id="edge63" class="edge">
<title>Node30&#45;&gt;Node2</title>
<path fill="none" stroke="#63b8ff" d="M742.38,-329.98C770.21,-321.75 812.69,-308.43 848.52,-294 900.7,-272.98 912.36,-264.47 962.52,-239 995.37,-222.32 1032.79,-202.16 1056.75,-189.1"/>
<polygon fill="#63b8ff" stroke="#63b8ff" points="1058.75,-191.99 1065.84,-184.13 1055.39,-185.85 1058.75,-191.99"/>
</g>
<!-- Node30&#45;&gt;Node3 -->
<g id="edge61" class="edge">
<title>Node30&#45;&gt;Node3</title>
<path fill="none" stroke="#63b8ff" d="M705.96,-329.88C696.2,-317.29 677.01,-293.35 658.52,-275 640.83,-257.44 626.07,-261.58 615.52,-239 600.21,-206.21 611,-162.81 619.34,-138.67"/>
<polygon fill="#63b8ff" stroke="#63b8ff" points="622.72,-139.64 622.9,-129.05 616.15,-137.21 622.72,-139.64"/>
</g>
<!-- Node30&#45;&gt;Node5 -->
<g id="edge62" class="edge">
<title>Node30&#45;&gt;Node5</title>
<path fill="none" stroke="#63b8ff" d="M745.05,-331C767.08,-324.46 795.52,-312.98 814.52,-294 859.05,-249.53 879.47,-174.6 886.95,-139.59"/>
<polygon fill="#63b8ff" stroke="#63b8ff" points="890.47,-139.84 889,-129.35 883.6,-138.47 890.47,-139.84"/>
</g>
<!-- Node30&#45;&gt;Node10 -->
<g id="edge66" class="edge">
<title>Node30&#45;&gt;Node10</title>
<path fill="none" stroke="#63b8ff" d="M720.12,-329.75C726.68,-322.18 736.34,-311.05 744.33,-301.84"/>
<polygon fill="#63b8ff" stroke="#63b8ff" points="747.15,-303.94 751.07,-294.09 741.87,-299.35 747.15,-303.94"/>
</g>
<!-- Node30&#45;&gt;Node25 -->
<g id="edge64" class="edge">
<title>Node30&#45;&gt;Node25</title>
<path fill="none" stroke="#63b8ff" d="M679.96,-331.9C676.77,-331.26 673.58,-330.61 670.52,-330 608.85,-317.63 537.59,-303.5 492.31,-294.55"/>
<polygon fill="#63b8ff" stroke="#63b8ff" points="492.71,-291.06 482.22,-292.55 491.35,-297.93 492.71,-291.06"/>
</g>
<!-- Node30&#45;&gt;Node29 -->
<g id="edge65" class="edge">
<title>Node30&#45;&gt;Node29</title>
<path fill="none" stroke="#63b8ff" d="M684.72,-329.98C655.55,-321.05 609.52,-306.94 577.12,-297.02"/>
<polygon fill="#63b8ff" stroke="#63b8ff" points="578.12,-293.66 567.53,-294.08 576.07,-300.36 578.12,-293.66"/>
</g>
<!-- Node31&#45;&gt;Node2 -->
<g id="edge76" class="edge">
<title>Node31&#45;&gt;Node2</title>
<path fill="none" stroke="#63b8ff" d="M1048.96,-219.75C1054.41,-212.34 1062.38,-201.5 1069.08,-192.41"/>
<polygon fill="#63b8ff" stroke="#63b8ff" points="1072.09,-194.22 1075.2,-184.09 1066.45,-190.07 1072.09,-194.22"/>
</g>
<!-- Node31&#45;&gt;Node3 -->
<g id="edge71" class="edge">
<title>Node31&#45;&gt;Node3</title>
<path fill="none" stroke="#63b8ff" d="M1017.62,-219.91C979.4,-206.91 903.86,-181.99 838.52,-165 776.11,-148.78 702.19,-134.32 660.19,-126.54"/>
<polygon fill="#63b8ff" stroke="#63b8ff" points="660.69,-123.08 650.22,-124.71 659.42,-129.96 660.69,-123.08"/>
</g>
<!-- Node31&#45;&gt;Node4 -->
<g id="edge73" class="edge">
<title>Node31&#45;&gt;Node4</title>
<path fill="none" stroke="#63b8ff" d="M1070.69,-228.16C1132.59,-226.74 1277.39,-219.61 1307.52,-184 1312.97,-177.55 1309.98,-173.08 1307.52,-165 1285.34,-92.28 1248.48,-79.53 1176.52,-55 1065.38,-17.12 924.22,-11.08 861.76,-10.38"/>
<polygon fill="#63b8ff" stroke="#63b8ff" points="861.75,-6.88 851.73,-10.31 861.7,-13.88 861.75,-6.88"/>
</g>
<!-- Node31&#45;&gt;Node8 -->
<g id="edge74" class="edge">
<title>Node31&#45;&gt;Node8</title>
<path fill="none" stroke="#63b8ff" d="M1070.73,-225.81C1098.29,-221.62 1139.38,-210.99 1162.52,-184 1173.05,-171.72 1175.85,-153.21 1176.29,-139.34"/>
<polygon fill="#63b8ff" stroke="#63b8ff" points="1179.78,-138.99 1176.21,-129.01 1172.78,-139.04 1179.78,-138.99"/>
</g>
<!-- Node31&#45;&gt;Node11 -->
<g id="edge72" class="edge">
<title>Node31&#45;&gt;Node11</title>
<path fill="none" stroke="#63b8ff" d="M1027.12,-219.86C1003.44,-206.8 956.43,-181.79 914.52,-165 880.08,-151.2 839.61,-138.96 810.53,-130.83"/>
<polygon fill="#63b8ff" stroke="#63b8ff" points="811.32,-127.41 800.75,-128.13 809.46,-134.16 811.32,-127.41"/>
</g>
<!-- Node31&#45;&gt;Node13 -->
<g id="edge75" class="edge">
<title>Node31&#45;&gt;Node13</title>
<path fill="none" stroke="#63b8ff" d="M1014.42,-228.02C903.09,-225.89 492.98,-216.02 367.52,-184 348.06,-179.03 344.96,-172.96 326.52,-165 299.95,-153.53 269.41,-141.36 247.1,-132.65"/>
<polygon fill="#63b8ff" stroke="#63b8ff" points="248.36,-129.39 237.78,-129.02 245.83,-135.91 248.36,-129.39"/>
</g>
<!-- Node32&#45;&gt;Node8 -->
<g id="edge79" class="edge">
<title>Node32&#45;&gt;Node8</title>
<path fill="none" stroke="#63b8ff" d="M1386.22,-167.42C1346.66,-158.61 1272.81,-142.17 1223.9,-131.27"/>
<polygon fill="#63b8ff" stroke="#63b8ff" points="1224.38,-127.8 1213.86,-129.04 1222.86,-134.63 1224.38,-127.8"/>
</g>
<!-- Node33 -->
<g id="node33" class="node">
<title>Node33</title>
<g id="a_node33"><a xlink:title=" ">
<polygon fill="#e0e0e0" stroke="#999999" points="1521.52,-129 1489.52,-129 1489.52,-110 1521.52,-110 1521.52,-129"/>
<text text-anchor="middle" x="1505.52" y="-117" font-family="Helvetica,sans-Serif" font-size="10.00">list</text>
</a>
</g>
</g>
<!-- Node32&#45;&gt;Node33 -->
<g id="edge78" class="edge">
<title>Node32&#45;&gt;Node33</title>
<path fill="none" stroke="#63b8ff" d="M1428.3,-164.98C1442.7,-156.69 1464.83,-143.94 1481.71,-134.22"/>
<polygon fill="#63b8ff" stroke="#63b8ff" points="1483.55,-137.19 1490.47,-129.17 1480.06,-131.13 1483.55,-137.19"/>
</g>
<!-- Node34 -->
<g id="node34" class="node">
<title>Node34</title>
<g id="a_node34"><a xlink:title=" ">
<polygon fill="#e0e0e0" stroke="#999999" points="1587.52,-129 1539.52,-129 1539.52,-110 1587.52,-110 1587.52,-129"/>
<text text-anchor="middle" x="1563.52" y="-117" font-family="Helvetica,sans-Serif" font-size="10.00">mutex</text>
</a>
</g>
</g>
<!-- Node32&#45;&gt;Node34 -->
<g id="edge80" class="edge">
<title>Node32&#45;&gt;Node34</title>
<path fill="none" stroke="#63b8ff" d="M1437.62,-164.98C1462.55,-156.18 1501.69,-142.35 1529.71,-132.45"/>
<polygon fill="#63b8ff" stroke="#63b8ff" points="1531.22,-135.63 1539.48,-128.99 1528.89,-129.03 1531.22,-135.63"/>
</g>
<!-- Node35 -->
<g id="node35" class="node">
<title>Node35</title>
<g id="a_node35"><a xlink:title=" ">
<polygon fill="#e0e0e0" stroke="#999999" points="1400.02,-129 1355.02,-129 1355.02,-110 1400.02,-110 1400.02,-129"/>
<text text-anchor="middle" x="1377.52" y="-117" font-family="Helvetica,sans-Serif" font-size="10.00">utility</text>
</a>
</g>
</g>
<!-- Node32&#45;&gt;Node35 -->
<g id="edge81" class="edge">
<title>Node32&#45;&gt;Node35</title>
<path fill="none" stroke="#63b8ff" d="M1407.58,-164.75C1402.54,-157.34 1395.18,-146.5 1389.01,-137.41"/>
<polygon fill="#63b8ff" stroke="#63b8ff" points="1391.87,-135.39 1383.35,-129.09 1386.08,-139.33 1391.87,-135.39"/>
</g>
<!-- Node36 -->
<g id="node36" class="node">
<title>Node36</title>
<g id="a_node36"><a xlink:title=" ">
<polygon fill="#e0e0e0" stroke="#999999" points="1471.02,-129 1418.02,-129 1418.02,-110 1471.02,-110 1471.02,-129"/>
<text text-anchor="middle" x="1444.52" y="-117" font-family="Helvetica,sans-Serif" font-size="10.00">ctype.h</text>
</a>
</g>
</g>
<!-- Node32&#45;&gt;Node36 -->
<g id="edge82" class="edge">
<title>Node32&#45;&gt;Node36</title>
<path fill="none" stroke="#63b8ff" d="M1418.64,-164.75C1422.88,-157.49 1429.05,-146.95 1434.3,-137.98"/>
<polygon fill="#63b8ff" stroke="#63b8ff" points="1437.47,-139.49 1439.5,-129.09 1431.43,-135.95 1437.47,-139.49"/>
</g>
<!-- Node37&#45;&gt;Node3 -->
<g id="edge86" class="edge">
<title>Node37&#45;&gt;Node3</title>
<path fill="none" stroke="#63b8ff" d="M1214.7,-169.98C1097.52,-160.12 767.63,-132.37 660.55,-123.36"/>
<polygon fill="#63b8ff" stroke="#63b8ff" points="660.58,-119.85 650.32,-122.5 659.99,-126.83 660.58,-119.85"/>
</g>
<!-- Node37&#45;&gt;Node4 -->
<g id="edge87" class="edge">
<title>Node37&#45;&gt;Node4</title>
<path fill="none" stroke="#63b8ff" d="M1258.81,-164.99C1261.83,-151.65 1265.4,-125.72 1252.52,-110 1202.5,-48.95 951.65,-21.22 861.69,-13.13"/>
<polygon fill="#63b8ff" stroke="#63b8ff" points="861.81,-9.63 851.54,-12.24 861.2,-16.61 861.81,-9.63"/>
</g>
<!-- Node37&#45;&gt;Node8 -->
<g id="edge85" class="edge">
<title>Node37&#45;&gt;Node8</title>
<path fill="none" stroke="#63b8ff" d="M1243.51,-164.98C1231.06,-156.84 1212.06,-144.41 1197.31,-134.76"/>
<polygon fill="#63b8ff" stroke="#63b8ff" points="1199.06,-131.72 1188.77,-129.17 1195.22,-137.57 1199.06,-131.72"/>
</g>
<!-- Node37&#45;&gt;Node14 -->
<g id="edge84" class="edge">
<title>Node37&#45;&gt;Node14</title>
<path fill="none" stroke="#63b8ff" d="M1255.94,-164.76C1254.47,-150.6 1249.35,-122.94 1231.52,-110 1174.93,-68.92 681.67,-65.51 532.85,-65.42"/>
<polygon fill="#63b8ff" stroke="#63b8ff" points="532.74,-61.92 522.74,-65.42 532.74,-68.92 532.74,-61.92"/>
</g>
<!-- Node37&#45;&gt;Node35 -->
<g id="edge88" class="edge">
<title>Node37&#45;&gt;Node35</title>
<path fill="none" stroke="#63b8ff" d="M1275.96,-164.98C1295.51,-156.42 1325.9,-143.11 1348.34,-133.28"/>
<polygon fill="#63b8ff" stroke="#63b8ff" points="1349.97,-136.39 1357.73,-129.17 1347.16,-129.98 1349.97,-136.39"/>
</g>
</g>
</svg>
        <g id="navigator" transform="translate(0 0)" fill="#404254">
                <rect fill="#f2f5e9" fill-opacity="0.5" stroke="#606060" stroke-width=".5" x="0" y="0" width="60" height="60"/>
                <use id="zoomplus" xlink:href="#zoomPlus" x="17" y="9" onmousedown="handleZoom(evt,'in')"/>
                <use id="zoomminus" xlink:href="#zoomMin" x="42" y="9" onmousedown="handleZoom(evt,'out')"/>
                <use id="reset" xlink:href="#resetDef" x="30" y="36" onmousedown="handleReset()"/>
                <g id="arrowUp" xlink:href="#dirArrow" transform="translate(30 24)" onmousedown="handlePan(0,-1)">
                  <use xlink:href="#rim" fill="#404040">
                        <set attributeName="fill" to="#808080" begin="arrowUp.mouseover" end="arrowUp.mouseout"/>
                  </use>
                  <path fill="none" stroke="white" stroke-width="1.5" d="M0,-3.0v7 M-2.5,-0.5L0,-3.0L2.5,-0.5"/>
                </g>
                <g id="arrowRight" xlink:href="#dirArrow" transform="rotate(90) translate(36 -43)" onmousedown="handlePan(1,0)">
                  <use xlink:href="#rim" fill="#404040">
                        <set attributeName="fill" to="#808080" begin="arrowRight.mouseover" end="arrowRight.mouseout"/>
                  </use>
                  <path fill="none" stroke="white" stroke-width="1.5" d="M0,-3.0v7 M-2.5,-0.5L0,-3.0L2.5,-0.5"/>
                </g>
                <g id="arrowDown" xlink:href="#dirArrow" transform="rotate(180) translate(-30 -48)" onmousedown="handlePan(0,1)">
                  <use xlink:href="#rim" fill="#404040">
                        <set attributeName="fill" to="#808080" begin="arrowDown.mouseover" end="arrowDown.mouseout"/>
                  </use>
                  <path fill="none" stroke="white" stroke-width="1.5" d="M0,-3.0v7 M-2.5,-0.5L0,-3.0L2.5,-0.5"/>
                </g>
                <g id="arrowLeft" xlink:href="#dirArrow" transform="rotate(270) translate(-36 17)" onmousedown="handlePan(-1,0)">
                  <use xlink:href="#rim" fill="#404040">
                        <set attributeName="fill" to="#808080" begin="arrowLeft.mouseover" end="arrowLeft.mouseout"/>
                  </use>
                  <path fill="none" stroke="white" stroke-width="1.5" d="M0,-3.0v7 M-2.5,-0.5L0,-3.0L2.5,-0.5"/>
                </g>
        </g>
        <svg viewBox="0 0 15 15" width="100%" height="30px" preserveAspectRatio="xMaxYMin meet">
         <g id="arrow_out" transform="scale(0.3 0.3)">
          <a xlink:href="doxygen_8h__incl_org.svg" target="_base">
           <rect id="button" ry="5" rx="5" y="6" x="6" height="38" width="38"
                fill="#f2f5e9" fill-opacity="0.5" stroke="#606060" stroke-width="1.0"/>
           <path id="arrow"
             d="M 11.500037,31.436501 C 11.940474,20.09759 22.043105,11.32322 32.158766,21.979434 L 37.068811,17.246167 C 37.068811,17.246167 37.088388,32 37.088388,32 L 22.160133,31.978069 C 22.160133,31.978069 26.997745,27.140456 26.997745,27.140456 C 18.528582,18.264221 13.291696,25.230495 11.500037,31.436501 z"
             style="fill:#404040;"/>
          </a>
         </g>
        </svg>
</svg>
