<?xml version="1.0" encoding="UTF-8" standalone="no"?>
<!DOCTYPE svg PUBLIC "-//W3C//DTD SVG 1.1//EN"
 "http://www.w3.org/Graphics/SVG/1.1/DTD/svg11.dtd">
<!-- Generated by graphviz version 2.43.0 (0)
 -->
<!-- Title: /home/runner/work/doxygen/doxygen/src/dotgfxhierarchytable.h Pages: 1 -->
<svg width="1253pt" height="423pt"
 viewBox="0.00 0.00 1252.77 423.00" xmlns="http://www.w3.org/2000/svg" xmlns:xlink="http://www.w3.org/1999/xlink">
<g id="graph0" class="graph" transform="scale(1 1) rotate(0) translate(4 419)">
<title>/home/runner/work/doxygen/doxygen/src/dotgfxhierarchytable.h</title>
<!-- Node1 -->
<g id="node1" class="node">
<title>Node1</title>
<g id="a_node1"><a xlink:title=" ">
<polygon fill="#999999" stroke="#666666" points="1070.27,-415 877.27,-415 877.27,-385 1070.27,-385 1070.27,-415"/>
<text text-anchor="start" x="885.27" y="-403" font-family="Helvetica,sans-Serif" font-size="10.00">/home/runner/work/doxygen</text>
<text text-anchor="middle" x="973.77" y="-392" font-family="Helvetica,sans-Serif" font-size="10.00">/doxygen/src/dotgfxhierarchytable.h</text>
</a>
</g>
</g>
<!-- Node2 -->
<g id="node2" class="node">
<title>Node2</title>
<g id="a_node2"><a xlink:title=" ">
<polygon fill="#e0e0e0" stroke="#999999" points="1025.77,-129 967.77,-129 967.77,-110 1025.77,-110 1025.77,-129"/>
<text text-anchor="middle" x="996.77" y="-117" font-family="Helvetica,sans-Serif" font-size="10.00">memory</text>
</a>
</g>
</g>
<!-- Node1&#45;&gt;Node2 -->
<g id="edge1" class="edge">
<title>Node1&#45;&gt;Node2</title>
<path fill="none" stroke="#63b8ff" d="M1039.43,-384.98C1089.8,-369.91 1150.77,-340.35 1150.77,-285.5 1150.77,-285.5 1150.77,-285.5 1150.77,-228.5 1150.77,-199.04 1152.31,-186.12 1131.77,-165 1106.61,-139.13 1066.13,-128.29 1036.06,-123.76"/>
<polygon fill="#63b8ff" stroke="#63b8ff" points="1036.27,-120.26 1025.89,-122.4 1035.34,-127.19 1036.27,-120.26"/>
</g>
<!-- Node3 -->
<g id="node3" class="node">
<title>Node3</title>
<g id="a_node3"><a xlink:title=" ">
<polygon fill="#e0e0e0" stroke="#999999" points="1087.77,-19 1043.77,-19 1043.77,0 1087.77,0 1087.77,-19"/>
<text text-anchor="middle" x="1065.77" y="-7" font-family="Helvetica,sans-Serif" font-size="10.00">string</text>
</a>
</g>
</g>
<!-- Node1&#45;&gt;Node3 -->
<g id="edge2" class="edge">
<title>Node1&#45;&gt;Node3</title>
<path fill="none" stroke="#63b8ff" d="M1070.46,-396.53C1148.29,-388.76 1244.77,-363.42 1244.77,-285.5 1244.77,-285.5 1244.77,-285.5 1244.77,-118.5 1244.77,-84.49 1148.83,-42.39 1097.43,-22.28"/>
<polygon fill="#63b8ff" stroke="#63b8ff" points="1098.67,-19 1088.08,-18.67 1096.15,-25.54 1098.67,-19"/>
</g>
<!-- Node4 -->
<g id="node4" class="node">
<title>Node4</title>
<g id="a_node4"><a xlink:title=" ">
<polygon fill="#e0e0e0" stroke="#999999" points="332.27,-129 239.27,-129 239.27,-110 332.27,-110 332.27,-129"/>
<text text-anchor="middle" x="285.77" y="-117" font-family="Helvetica,sans-Serif" font-size="10.00">unordered_map</text>
</a>
</g>
</g>
<!-- Node1&#45;&gt;Node4 -->
<g id="edge3" class="edge">
<title>Node1&#45;&gt;Node4</title>
<path fill="none" stroke="#63b8ff" d="M876.92,-397.73C630.81,-393.21 0.77,-373.09 0.77,-285.5 0.77,-285.5 0.77,-285.5 0.77,-228.5 0.77,-199.04 -2.32,-184.49 19.77,-165 50.04,-138.3 160.18,-127.38 228.88,-123.09"/>
<polygon fill="#63b8ff" stroke="#63b8ff" points="229.34,-126.57 239.12,-122.49 228.93,-119.59 229.34,-126.57"/>
</g>
<!-- Node5 -->
<g id="node5" class="node">
<title>Node5</title>
<g id="a_node5"><a xlink:title=" ">
<polygon fill="#e0e0e0" stroke="#999999" points="538.27,-129 491.27,-129 491.27,-110 538.27,-110 538.27,-129"/>
<text text-anchor="middle" x="514.77" y="-117" font-family="Helvetica,sans-Serif" font-size="10.00">vector</text>
</a>
</g>
</g>
<!-- Node1&#45;&gt;Node5 -->
<g id="edge4" class="edge">
<title>Node1&#45;&gt;Node5</title>
<path fill="none" stroke="#63b8ff" d="M877.16,-395.82C785.5,-391.03 644.51,-379.03 525.77,-349 452.8,-330.54 368.77,-360.77 368.77,-285.5 368.77,-285.5 368.77,-285.5 368.77,-228.5 368.77,-172.9 438.06,-142.65 481.18,-129.21"/>
<polygon fill="#63b8ff" stroke="#63b8ff" points="482.4,-132.5 490.99,-126.3 480.41,-125.79 482.4,-132.5"/>
</g>
<!-- Node6 -->
<g id="node6" class="node">
<title>Node6</title>
<g id="a_node6"><a xlink:href="../../d1/da6/classdef_8h.html" target="_top" xlink:title=" ">
<polygon fill="white" stroke="#666666" points="599.27,-349 534.27,-349 534.27,-330 599.27,-330 599.27,-349"/>
<text text-anchor="middle" x="566.77" y="-337" font-family="Helvetica,sans-Serif" font-size="10.00">classdef.h</text>
</a>
</g>
</g>
<!-- Node1&#45;&gt;Node6 -->
<g id="edge5" class="edge">
<title>Node1&#45;&gt;Node6</title>
<path fill="none" stroke="#63b8ff" d="M877.06,-385.1C792.21,-372.9 672.81,-355.74 609.72,-346.67"/>
<polygon fill="#63b8ff" stroke="#63b8ff" points="610.12,-343.19 599.73,-345.24 609.13,-350.12 610.12,-343.19"/>
</g>
<!-- Node27 -->
<g id="node27" class="node">
<title>Node27</title>
<g id="a_node27"><a xlink:href="../../d0/daa/dotgraph_8h.html" target="_top" xlink:title=" ">
<polygon fill="white" stroke="#666666" points="1084.27,-239 1015.27,-239 1015.27,-220 1084.27,-220 1084.27,-239"/>
<text text-anchor="middle" x="1049.77" y="-227" font-family="Helvetica,sans-Serif" font-size="10.00">dotgraph.h</text>
</a>
</g>
</g>
<!-- Node1&#45;&gt;Node27 -->
<g id="edge53" class="edge">
<title>Node1&#45;&gt;Node27</title>
<path fill="none" stroke="#63b8ff" d="M980.12,-384.92C993.89,-354.39 1026.5,-282.1 1041.7,-248.39"/>
<polygon fill="#63b8ff" stroke="#63b8ff" points="1044.9,-249.81 1045.82,-239.25 1038.52,-246.93 1044.9,-249.81"/>
</g>
<!-- Node31 -->
<g id="node31" class="node">
<title>Node31</title>
<g id="a_node31"><a xlink:href="../../d8/d3b/dotnode_8h.html" target="_top" xlink:title=" ">
<polygon fill="white" stroke="#666666" points="1006.27,-294 941.27,-294 941.27,-275 1006.27,-275 1006.27,-294"/>
<text text-anchor="middle" x="973.77" y="-282" font-family="Helvetica,sans-Serif" font-size="10.00">dotnode.h</text>
</a>
</g>
</g>
<!-- Node1&#45;&gt;Node31 -->
<g id="edge62" class="edge">
<title>Node1&#45;&gt;Node31</title>
<path fill="none" stroke="#63b8ff" d="M973.77,-384.63C973.77,-364.21 973.77,-326.81 973.77,-304.24"/>
<polygon fill="#63b8ff" stroke="#63b8ff" points="977.27,-304.23 973.77,-294.23 970.27,-304.23 977.27,-304.23"/>
</g>
<!-- Node6&#45;&gt;Node5 -->
<g id="edge6" class="edge">
<title>Node6&#45;&gt;Node5</title>
<path fill="none" stroke="#63b8ff" d="M556.37,-329.76C546.78,-321.32 532.59,-307.81 522.77,-294 506.99,-271.81 502.41,-265.41 495.77,-239 487.75,-207.09 486.58,-197.1 493.77,-165 495.85,-155.74 500.08,-146.14 504.2,-138.23"/>
<polygon fill="#63b8ff" stroke="#63b8ff" points="507.38,-139.72 509.19,-129.28 501.26,-136.31 507.38,-139.72"/>
</g>
<!-- Node7 -->
<g id="node7" class="node">
<title>Node7</title>
<g id="a_node7"><a xlink:title=" ">
<polygon fill="#e0e0e0" stroke="#999999" points="60.77,-184 28.77,-184 28.77,-165 60.77,-165 60.77,-184"/>
<text text-anchor="middle" x="44.77" y="-172" font-family="Helvetica,sans-Serif" font-size="10.00">set</text>
</a>
</g>
</g>
<!-- Node6&#45;&gt;Node7 -->
<g id="edge7" class="edge">
<title>Node6&#45;&gt;Node7</title>
<path fill="none" stroke="#63b8ff" d="M534.06,-331.91C468.16,-318.19 315.16,-284.02 191.77,-239 148.32,-223.15 99.26,-201.08 70.23,-187.57"/>
<polygon fill="#63b8ff" stroke="#63b8ff" points="71.38,-184.24 60.84,-183.17 68.41,-190.58 71.38,-184.24"/>
</g>
<!-- Node8 -->
<g id="node8" class="node">
<title>Node8</title>
<g id="a_node8"><a xlink:href="../../d5/d75/containers_8h.html" target="_top" xlink:title=" ">
<polygon fill="white" stroke="#666666" points="278.27,-239 201.27,-239 201.27,-220 278.27,-220 278.27,-239"/>
<text text-anchor="middle" x="239.77" y="-227" font-family="Helvetica,sans-Serif" font-size="10.00">containers.h</text>
</a>
</g>
</g>
<!-- Node6&#45;&gt;Node8 -->
<g id="edge8" class="edge">
<title>Node6&#45;&gt;Node8</title>
<path fill="none" stroke="#63b8ff" d="M540.43,-329.92C513.03,-320.99 468.87,-306.57 430.77,-294 376.4,-276.06 313.38,-255.07 275.06,-242.29"/>
<polygon fill="#63b8ff" stroke="#63b8ff" points="276,-238.91 265.4,-239.06 273.78,-245.55 276,-238.91"/>
</g>
<!-- Node12 -->
<g id="node12" class="node">
<title>Node12</title>
<g id="a_node12"><a xlink:href="../../df/da1/definition_8h.html" target="_top" xlink:title=" ">
<polygon fill="white" stroke="#666666" points="602.27,-294 531.27,-294 531.27,-275 602.27,-275 602.27,-294"/>
<text text-anchor="middle" x="566.77" y="-282" font-family="Helvetica,sans-Serif" font-size="10.00">definition.h</text>
</a>
</g>
</g>
<!-- Node6&#45;&gt;Node12 -->
<g id="edge16" class="edge">
<title>Node6&#45;&gt;Node12</title>
<path fill="none" stroke="#63b8ff" d="M566.77,-329.75C566.77,-322.8 566.77,-312.85 566.77,-304.13"/>
<polygon fill="#63b8ff" stroke="#63b8ff" points="570.27,-304.09 566.77,-294.09 563.27,-304.09 570.27,-304.09"/>
</g>
<!-- Node25 -->
<g id="node25" class="node">
<title>Node25</title>
<g id="a_node25"><a xlink:href="../../df/d9b/arguments_8h.html" target="_top" xlink:title=" ">
<polygon fill="white" stroke="#666666" points="836.77,-184 758.77,-184 758.77,-165 836.77,-165 836.77,-184"/>
<text text-anchor="middle" x="797.77" y="-172" font-family="Helvetica,sans-Serif" font-size="10.00">arguments.h</text>
</a>
</g>
</g>
<!-- Node6&#45;&gt;Node25 -->
<g id="edge44" class="edge">
<title>Node6&#45;&gt;Node25</title>
<path fill="none" stroke="#63b8ff" d="M577.33,-329.74C587.09,-321.28 601.56,-307.77 611.77,-294 633.92,-264.14 622.1,-243.66 650.77,-220 665.86,-207.55 711.93,-194.76 748.52,-186.1"/>
<polygon fill="#63b8ff" stroke="#63b8ff" points="749.6,-189.44 758.56,-183.77 748.02,-182.62 749.6,-189.44"/>
</g>
<!-- Node26 -->
<g id="node26" class="node">
<title>Node26</title>
<g id="a_node26"><a xlink:href="../../d9/d11/membergroup_8h.html" target="_top" xlink:title=" ">
<polygon fill="white" stroke="#666666" points="754.27,-294 659.27,-294 659.27,-275 754.27,-275 754.27,-294"/>
<text text-anchor="middle" x="706.77" y="-282" font-family="Helvetica,sans-Serif" font-size="10.00">membergroup.h</text>
</a>
</g>
</g>
<!-- Node6&#45;&gt;Node26 -->
<g id="edge47" class="edge">
<title>Node6&#45;&gt;Node26</title>
<path fill="none" stroke="#63b8ff" d="M589.27,-329.98C612.29,-321.27 648.31,-307.63 674.4,-297.75"/>
<polygon fill="#63b8ff" stroke="#63b8ff" points="675.76,-300.98 683.87,-294.17 673.28,-294.44 675.76,-300.98"/>
</g>
<!-- Node8&#45;&gt;Node3 -->
<g id="edge10" class="edge">
<title>Node8&#45;&gt;Node3</title>
<path fill="none" stroke="#63b8ff" d="M201.21,-220.82C165.82,-211.8 121.2,-194.21 137.77,-165 161.28,-123.56 185,-126.29 229.77,-110 382.23,-54.54 898.9,-20.45 1033.5,-12.37"/>
<polygon fill="#63b8ff" stroke="#63b8ff" points="1033.8,-15.85 1043.58,-11.77 1033.39,-8.87 1033.8,-15.85"/>
</g>
<!-- Node8&#45;&gt;Node4 -->
<g id="edge14" class="edge">
<title>Node8&#45;&gt;Node4</title>
<path fill="none" stroke="#63b8ff" d="M205,-219.98C170.91,-209.91 126.65,-191.15 145.77,-165 164.85,-138.92 199.32,-127.76 229.29,-123.13"/>
<polygon fill="#63b8ff" stroke="#63b8ff" points="229.8,-126.59 239.25,-121.8 228.88,-119.66 229.8,-126.59"/>
</g>
<!-- Node8&#45;&gt;Node5 -->
<g id="edge9" class="edge">
<title>Node8&#45;&gt;Node5</title>
<path fill="none" stroke="#63b8ff" d="M253.07,-219.81C273.97,-206.45 316.14,-180.79 354.77,-165 397.04,-147.73 448.24,-134.8 481.15,-127.45"/>
<polygon fill="#63b8ff" stroke="#63b8ff" points="482.13,-130.81 491.15,-125.26 480.64,-123.97 482.13,-130.81"/>
</g>
<!-- Node8&#45;&gt;Node7 -->
<g id="edge11" class="edge">
<title>Node8&#45;&gt;Node7</title>
<path fill="none" stroke="#63b8ff" d="M207.49,-219.92C174.2,-211.05 120.81,-196.73 74.77,-184 73.51,-183.65 72.22,-183.29 70.92,-182.93"/>
<polygon fill="#63b8ff" stroke="#63b8ff" points="71.53,-179.46 60.95,-180.13 69.63,-186.2 71.53,-179.46"/>
</g>
<!-- Node9 -->
<g id="node9" class="node">
<title>Node9</title>
<g id="a_node9"><a xlink:title=" ">
<polygon fill="#e0e0e0" stroke="#999999" points="968.77,-184 930.77,-184 930.77,-165 968.77,-165 968.77,-184"/>
<text text-anchor="middle" x="949.77" y="-172" font-family="Helvetica,sans-Serif" font-size="10.00">map</text>
</a>
</g>
</g>
<!-- Node8&#45;&gt;Node9 -->
<g id="edge12" class="edge">
<title>Node8&#45;&gt;Node9</title>
<path fill="none" stroke="#63b8ff" d="M278.42,-225.77C374.42,-218.98 631.48,-200.63 845.77,-184 871,-182.04 899.65,-179.69 920.49,-177.96"/>
<polygon fill="#63b8ff" stroke="#63b8ff" points="920.93,-181.43 930.61,-177.11 920.35,-174.46 920.93,-181.43"/>
</g>
<!-- Node10 -->
<g id="node10" class="node">
<title>Node10</title>
<g id="a_node10"><a xlink:title=" ">
<polygon fill="#e0e0e0" stroke="#999999" points="240.77,-184 154.77,-184 154.77,-165 240.77,-165 240.77,-184"/>
<text text-anchor="middle" x="197.77" y="-172" font-family="Helvetica,sans-Serif" font-size="10.00">unordered_set</text>
</a>
</g>
</g>
<!-- Node8&#45;&gt;Node10 -->
<g id="edge13" class="edge">
<title>Node8&#45;&gt;Node10</title>
<path fill="none" stroke="#63b8ff" d="M232.84,-219.75C226.9,-212.26 218.2,-201.28 210.95,-192.13"/>
<polygon fill="#63b8ff" stroke="#63b8ff" points="213.53,-189.75 204.58,-184.09 208.05,-194.1 213.53,-189.75"/>
</g>
<!-- Node11 -->
<g id="node11" class="node">
<title>Node11</title>
<g id="a_node11"><a xlink:title=" ">
<polygon fill="#e0e0e0" stroke="#999999" points="302.27,-184 259.27,-184 259.27,-165 302.27,-165 302.27,-184"/>
<text text-anchor="middle" x="280.77" y="-172" font-family="Helvetica,sans-Serif" font-size="10.00">stack</text>
</a>
</g>
</g>
<!-- Node8&#45;&gt;Node11 -->
<g id="edge15" class="edge">
<title>Node8&#45;&gt;Node11</title>
<path fill="none" stroke="#63b8ff" d="M246.54,-219.75C252.33,-212.26 260.83,-201.28 267.91,-192.13"/>
<polygon fill="#63b8ff" stroke="#63b8ff" points="270.78,-194.14 274.13,-184.09 265.24,-189.86 270.78,-194.14"/>
</g>
<!-- Node12&#45;&gt;Node5 -->
<g id="edge17" class="edge">
<title>Node12&#45;&gt;Node5</title>
<path fill="none" stroke="#63b8ff" d="M547.19,-274.98C533.1,-267.68 515.17,-255.68 506.77,-239 490.53,-206.74 500.26,-163.14 508.03,-138.83"/>
<polygon fill="#63b8ff" stroke="#63b8ff" points="511.42,-139.72 511.36,-129.13 504.8,-137.45 511.42,-139.72"/>
</g>
<!-- Node13 -->
<g id="node13" class="node">
<title>Node13</title>
<g id="a_node13"><a xlink:href="../../d9/d49/types_8h.html" target="_top" xlink:title="This file contains a number of basic enums and types.">
<polygon fill="white" stroke="#666666" points="712.27,-239 659.27,-239 659.27,-220 712.27,-220 712.27,-239"/>
<text text-anchor="middle" x="685.77" y="-227" font-family="Helvetica,sans-Serif" font-size="10.00">types.h</text>
</a>
</g>
</g>
<!-- Node12&#45;&gt;Node13 -->
<g id="edge18" class="edge">
<title>Node12&#45;&gt;Node13</title>
<path fill="none" stroke="#63b8ff" d="M585.89,-274.98C605.12,-266.42 635.01,-253.11 657.08,-243.28"/>
<polygon fill="#63b8ff" stroke="#63b8ff" points="658.59,-246.44 666.31,-239.17 655.75,-240.04 658.59,-246.44"/>
</g>
<!-- Node23 -->
<g id="node23" class="node">
<title>Node23</title>
<g id="a_node23"><a xlink:href="../../d1/d02/reflist_8h.html" target="_top" xlink:title=" ">
<polygon fill="white" stroke="#666666" points="602.27,-239 549.27,-239 549.27,-220 602.27,-220 602.27,-239"/>
<text text-anchor="middle" x="575.77" y="-227" font-family="Helvetica,sans-Serif" font-size="10.00">reflist.h</text>
</a>
</g>
</g>
<!-- Node12&#45;&gt;Node23 -->
<g id="edge31" class="edge">
<title>Node12&#45;&gt;Node23</title>
<path fill="none" stroke="#63b8ff" d="M568.26,-274.75C569.44,-267.8 571.13,-257.85 572.61,-249.13"/>
<polygon fill="#63b8ff" stroke="#63b8ff" points="576.09,-249.53 574.31,-239.09 569.19,-248.36 576.09,-249.53"/>
</g>
<!-- Node14 -->
<g id="node14" class="node">
<title>Node14</title>
<g id="a_node14"><a xlink:href="../../d7/d5c/qcstring_8h.html" target="_top" xlink:title=" ">
<polygon fill="white" stroke="#666666" points="868.27,-129 803.27,-129 803.27,-110 868.27,-110 868.27,-129"/>
<text text-anchor="middle" x="835.77" y="-117" font-family="Helvetica,sans-Serif" font-size="10.00">qcstring.h</text>
</a>
</g>
</g>
<!-- Node13&#45;&gt;Node14 -->
<g id="edge19" class="edge">
<title>Node13&#45;&gt;Node14</title>
<path fill="none" stroke="#63b8ff" d="M712.6,-222.88C756,-213.53 837.62,-194.73 845.77,-184 855.56,-171.11 851.05,-152.45 845.3,-138.69"/>
<polygon fill="#63b8ff" stroke="#63b8ff" points="848.3,-136.85 840.88,-129.3 841.97,-139.83 848.3,-136.85"/>
</g>
<!-- Node14&#45;&gt;Node3 -->
<g id="edge20" class="edge">
<title>Node14&#45;&gt;Node3</title>
<path fill="none" stroke="#63b8ff" d="M816.22,-109.8C792.03,-97.87 756.1,-75.57 773.77,-55 806.92,-16.42 964.05,-10.91 1033.1,-10.38"/>
<polygon fill="#63b8ff" stroke="#63b8ff" points="1033.41,-13.88 1043.39,-10.34 1033.38,-6.88 1033.41,-13.88"/>
</g>
<!-- Node15 -->
<g id="node15" class="node">
<title>Node15</title>
<g id="a_node15"><a xlink:title=" ">
<polygon fill="#e0e0e0" stroke="#999999" points="658.77,-74 594.77,-74 594.77,-55 658.77,-55 658.77,-74"/>
<text text-anchor="middle" x="626.77" y="-62" font-family="Helvetica,sans-Serif" font-size="10.00">algorithm</text>
</a>
</g>
</g>
<!-- Node14&#45;&gt;Node15 -->
<g id="edge21" class="edge">
<title>Node14&#45;&gt;Node15</title>
<path fill="none" stroke="#63b8ff" d="M803.12,-110.22C766.89,-101.03 708.34,-86.18 668.74,-76.14"/>
<polygon fill="#63b8ff" stroke="#63b8ff" points="669.41,-72.7 658.86,-73.64 667.69,-79.49 669.41,-72.7"/>
</g>
<!-- Node16 -->
<g id="node16" class="node">
<title>Node16</title>
<g id="a_node16"><a xlink:title=" ">
<polygon fill="#e0e0e0" stroke="#999999" points="726.27,-74 677.27,-74 677.27,-55 726.27,-55 726.27,-74"/>
<text text-anchor="middle" x="701.77" y="-62" font-family="Helvetica,sans-Serif" font-size="10.00">cctype</text>
</a>
</g>
</g>
<!-- Node14&#45;&gt;Node16 -->
<g id="edge22" class="edge">
<title>Node14&#45;&gt;Node16</title>
<path fill="none" stroke="#63b8ff" d="M814.24,-109.98C792.3,-101.3 758.03,-87.75 733.08,-77.88"/>
<polygon fill="#63b8ff" stroke="#63b8ff" points="734.28,-74.59 723.69,-74.17 731.71,-81.1 734.28,-74.59"/>
</g>
<!-- Node17 -->
<g id="node17" class="node">
<title>Node17</title>
<g id="a_node17"><a xlink:title=" ">
<polygon fill="#e0e0e0" stroke="#999999" points="832.77,-74 782.77,-74 782.77,-55 832.77,-55 832.77,-74"/>
<text text-anchor="middle" x="807.77" y="-62" font-family="Helvetica,sans-Serif" font-size="10.00">cstring</text>
</a>
</g>
</g>
<!-- Node14&#45;&gt;Node17 -->
<g id="edge23" class="edge">
<title>Node14&#45;&gt;Node17</title>
<path fill="none" stroke="#63b8ff" d="M831.15,-109.75C827.32,-102.49 821.75,-91.95 817.01,-82.98"/>
<polygon fill="#63b8ff" stroke="#63b8ff" points="820.08,-81.3 812.31,-74.09 813.89,-84.57 820.08,-81.3"/>
</g>
<!-- Node18 -->
<g id="node18" class="node">
<title>Node18</title>
<g id="a_node18"><a xlink:title=" ">
<polygon fill="#e0e0e0" stroke="#999999" points="896.77,-74 850.77,-74 850.77,-55 896.77,-55 896.77,-74"/>
<text text-anchor="middle" x="873.77" y="-62" font-family="Helvetica,sans-Serif" font-size="10.00">cstdio</text>
</a>
</g>
</g>
<!-- Node14&#45;&gt;Node18 -->
<g id="edge24" class="edge">
<title>Node14&#45;&gt;Node18</title>
<path fill="none" stroke="#63b8ff" d="M842.05,-109.75C847.36,-102.34 855.13,-91.5 861.65,-82.41"/>
<polygon fill="#63b8ff" stroke="#63b8ff" points="864.63,-84.26 867.61,-74.09 858.94,-80.18 864.63,-84.26"/>
</g>
<!-- Node19 -->
<g id="node19" class="node">
<title>Node19</title>
<g id="a_node19"><a xlink:title=" ">
<polygon fill="#e0e0e0" stroke="#999999" points="964.27,-74 915.27,-74 915.27,-55 964.27,-55 964.27,-74"/>
<text text-anchor="middle" x="939.77" y="-62" font-family="Helvetica,sans-Serif" font-size="10.00">cstdlib</text>
</a>
</g>
</g>
<!-- Node14&#45;&gt;Node19 -->
<g id="edge25" class="edge">
<title>Node14&#45;&gt;Node19</title>
<path fill="none" stroke="#63b8ff" d="M852.48,-109.98C868.99,-101.57 894.47,-88.59 913.65,-78.81"/>
<polygon fill="#63b8ff" stroke="#63b8ff" points="915.44,-81.83 922.76,-74.17 912.26,-75.59 915.44,-81.83"/>
</g>
<!-- Node20 -->
<g id="node20" class="node">
<title>Node20</title>
<g id="a_node20"><a xlink:title=" ">
<polygon fill="#e0e0e0" stroke="#999999" points="1155.77,-19 1105.77,-19 1105.77,0 1155.77,0 1155.77,-19"/>
<text text-anchor="middle" x="1130.77" y="-7" font-family="Helvetica,sans-Serif" font-size="10.00">cstdint</text>
</a>
</g>
</g>
<!-- Node14&#45;&gt;Node20 -->
<g id="edge26" class="edge">
<title>Node14&#45;&gt;Node20</title>
<path fill="none" stroke="#63b8ff" d="M868.29,-115.2C937.31,-107.93 1093.64,-89.9 1111.77,-74 1124.33,-62.98 1128.76,-44.04 1130.24,-29.7"/>
<polygon fill="#63b8ff" stroke="#63b8ff" points="1133.75,-29.63 1130.89,-19.43 1126.76,-29.19 1133.75,-29.63"/>
</g>
<!-- Node21 -->
<g id="node21" class="node">
<title>Node21</title>
<g id="a_node21"><a xlink:title=" ">
<polygon fill="#e0e0e0" stroke="#999999" points="1039.27,-74 982.27,-74 982.27,-55 1039.27,-55 1039.27,-74"/>
<text text-anchor="middle" x="1010.77" y="-62" font-family="Helvetica,sans-Serif" font-size="10.00">ostream</text>
</a>
</g>
</g>
<!-- Node14&#45;&gt;Node21 -->
<g id="edge27" class="edge">
<title>Node14&#45;&gt;Node21</title>
<path fill="none" stroke="#63b8ff" d="M863.89,-109.98C893.4,-101.05 939.96,-86.94 972.74,-77.02"/>
<polygon fill="#63b8ff" stroke="#63b8ff" points="973.88,-80.33 982.44,-74.08 971.85,-73.63 973.88,-80.33"/>
</g>
<!-- Node22 -->
<g id="node22" class="node">
<title>Node22</title>
<g id="a_node22"><a xlink:href="../../db/d7c/utf8_8h.html" target="_top" xlink:title="Various UTF8 related helper functions.">
<polygon fill="white" stroke="#666666" points="1102.27,-74 1057.27,-74 1057.27,-55 1102.27,-55 1102.27,-74"/>
<text text-anchor="middle" x="1079.77" y="-62" font-family="Helvetica,sans-Serif" font-size="10.00">utf8.h</text>
</a>
</g>
</g>
<!-- Node14&#45;&gt;Node22 -->
<g id="edge28" class="edge">
<title>Node14&#45;&gt;Node22</title>
<path fill="none" stroke="#63b8ff" d="M868.39,-112.33C908.34,-104.64 978.29,-90.72 1047,-74.32"/>
<polygon fill="#63b8ff" stroke="#63b8ff" points="1048.22,-77.63 1057.13,-71.88 1046.59,-70.82 1048.22,-77.63"/>
</g>
<!-- Node22&#45;&gt;Node3 -->
<g id="edge30" class="edge">
<title>Node22&#45;&gt;Node3</title>
<path fill="none" stroke="#63b8ff" d="M1077.46,-54.75C1075.61,-47.72 1072.94,-37.62 1070.62,-28.84"/>
<polygon fill="#63b8ff" stroke="#63b8ff" points="1073.98,-27.86 1068.04,-19.09 1067.21,-29.65 1073.98,-27.86"/>
</g>
<!-- Node22&#45;&gt;Node20 -->
<g id="edge29" class="edge">
<title>Node22&#45;&gt;Node20</title>
<path fill="none" stroke="#63b8ff" d="M1088.19,-54.75C1095.55,-47.11 1106.4,-35.82 1115.32,-26.56"/>
<polygon fill="#63b8ff" stroke="#63b8ff" points="1118.1,-28.72 1122.51,-19.09 1113.05,-23.87 1118.1,-28.72"/>
</g>
<!-- Node23&#45;&gt;Node2 -->
<g id="edge34" class="edge">
<title>Node23&#45;&gt;Node2</title>
<path fill="none" stroke="#63b8ff" d="M602.33,-224.93C661.01,-216.92 800.12,-197.16 845.77,-184 891.19,-170.9 941.29,-148.05 970.84,-133.62"/>
<polygon fill="#63b8ff" stroke="#63b8ff" points="972.62,-136.65 980.04,-129.08 969.52,-130.37 972.62,-136.65"/>
</g>
<!-- Node23&#45;&gt;Node4 -->
<g id="edge33" class="edge">
<title>Node23&#45;&gt;Node4</title>
<path fill="none" stroke="#63b8ff" d="M552.53,-219.84C501.07,-200.68 377.42,-154.63 318.31,-132.62"/>
<polygon fill="#63b8ff" stroke="#63b8ff" points="319.32,-129.26 308.72,-129.05 316.87,-135.82 319.32,-129.26"/>
</g>
<!-- Node23&#45;&gt;Node5 -->
<g id="edge32" class="edge">
<title>Node23&#45;&gt;Node5</title>
<path fill="none" stroke="#63b8ff" d="M570.78,-219.66C560.72,-201.85 537.85,-161.37 524.66,-138.01"/>
<polygon fill="#63b8ff" stroke="#63b8ff" points="527.63,-136.14 519.66,-129.16 521.53,-139.59 527.63,-136.14"/>
</g>
<!-- Node23&#45;&gt;Node14 -->
<g id="edge35" class="edge">
<title>Node23&#45;&gt;Node14</title>
<path fill="none" stroke="#63b8ff" d="M602.29,-221.17C630.03,-213.19 674.62,-199.48 711.77,-184 716.76,-181.92 775.21,-151.8 810.05,-133.8"/>
<polygon fill="#63b8ff" stroke="#63b8ff" points="811.91,-136.78 819.18,-129.08 808.69,-130.56 811.91,-136.78"/>
</g>
<!-- Node24 -->
<g id="node24" class="node">
<title>Node24</title>
<g id="a_node24"><a xlink:href="../../da/de1/linkedmap_8h.html" target="_top" xlink:title=" ">
<polygon fill="white" stroke="#666666" points="702.27,-184 625.27,-184 625.27,-165 702.27,-165 702.27,-184"/>
<text text-anchor="middle" x="663.77" y="-172" font-family="Helvetica,sans-Serif" font-size="10.00">linkedmap.h</text>
</a>
</g>
</g>
<!-- Node23&#45;&gt;Node24 -->
<g id="edge36" class="edge">
<title>Node23&#45;&gt;Node24</title>
<path fill="none" stroke="#63b8ff" d="M589.91,-219.98C603.56,-211.77 624.46,-199.18 640.55,-189.49"/>
<polygon fill="#63b8ff" stroke="#63b8ff" points="642.62,-192.33 649.38,-184.17 639,-186.33 642.62,-192.33"/>
</g>
<!-- Node24&#45;&gt;Node2 -->
<g id="edge39" class="edge">
<title>Node24&#45;&gt;Node2</title>
<path fill="none" stroke="#63b8ff" d="M702.3,-167.37C766.03,-157.22 892.77,-137.05 957.19,-126.8"/>
<polygon fill="#63b8ff" stroke="#63b8ff" points="958.02,-130.21 967.35,-125.18 956.92,-123.3 958.02,-130.21"/>
</g>
<!-- Node24&#45;&gt;Node3 -->
<g id="edge40" class="edge">
<title>Node24&#45;&gt;Node3</title>
<path fill="none" stroke="#63b8ff" d="M650.35,-164.81C620.2,-144.29 552.26,-91.77 585.77,-55 615.93,-21.92 930.88,-13.05 1033.59,-11.03"/>
<polygon fill="#63b8ff" stroke="#63b8ff" points="1033.74,-14.53 1043.67,-10.84 1033.61,-7.53 1033.74,-14.53"/>
</g>
<!-- Node24&#45;&gt;Node4 -->
<g id="edge37" class="edge">
<title>Node24&#45;&gt;Node4</title>
<path fill="none" stroke="#63b8ff" d="M625.1,-168.08C558.11,-158.68 420.22,-139.35 342.41,-128.44"/>
<polygon fill="#63b8ff" stroke="#63b8ff" points="342.7,-124.95 332.31,-127.02 341.73,-131.88 342.7,-124.95"/>
</g>
<!-- Node24&#45;&gt;Node5 -->
<g id="edge38" class="edge">
<title>Node24&#45;&gt;Node5</title>
<path fill="none" stroke="#63b8ff" d="M639.83,-164.98C615.07,-156.18 576.19,-142.35 548.36,-132.45"/>
<polygon fill="#63b8ff" stroke="#63b8ff" points="549.25,-129.05 538.65,-128.99 546.9,-135.64 549.25,-129.05"/>
</g>
<!-- Node24&#45;&gt;Node14 -->
<g id="edge43" class="edge">
<title>Node24&#45;&gt;Node14</title>
<path fill="none" stroke="#63b8ff" d="M691.41,-164.98C720.28,-156.09 765.78,-142.07 797.98,-132.15"/>
<polygon fill="#63b8ff" stroke="#63b8ff" points="799.4,-135.37 807.92,-129.08 797.33,-128.68 799.4,-135.37"/>
</g>
<!-- Node24&#45;&gt;Node15 -->
<g id="edge41" class="edge">
<title>Node24&#45;&gt;Node15</title>
<path fill="none" stroke="#63b8ff" d="M660.74,-164.66C654.7,-147.01 641.02,-107.09 632.99,-83.64"/>
<polygon fill="#63b8ff" stroke="#63b8ff" points="636.29,-82.48 629.74,-74.16 629.67,-84.75 636.29,-82.48"/>
</g>
<!-- Node24&#45;&gt;Node16 -->
<g id="edge42" class="edge">
<title>Node24&#45;&gt;Node16</title>
<path fill="none" stroke="#63b8ff" d="M666.88,-164.66C673.09,-147.01 687.14,-107.09 695.39,-83.64"/>
<polygon fill="#63b8ff" stroke="#63b8ff" points="698.71,-84.75 698.73,-74.16 692.11,-82.43 698.71,-84.75"/>
</g>
<!-- Node25&#45;&gt;Node5 -->
<g id="edge45" class="edge">
<title>Node25&#45;&gt;Node5</title>
<path fill="none" stroke="#63b8ff" d="M758.72,-166.19C702.85,-155.72 601.07,-136.66 548.38,-126.79"/>
<polygon fill="#63b8ff" stroke="#63b8ff" points="549,-123.35 538.52,-124.95 547.71,-130.23 549,-123.35"/>
</g>
<!-- Node25&#45;&gt;Node14 -->
<g id="edge46" class="edge">
<title>Node25&#45;&gt;Node14</title>
<path fill="none" stroke="#63b8ff" d="M804.05,-164.75C809.36,-157.34 817.13,-146.5 823.65,-137.41"/>
<polygon fill="#63b8ff" stroke="#63b8ff" points="826.63,-139.26 829.61,-129.09 820.94,-135.18 826.63,-139.26"/>
</g>
<!-- Node26&#45;&gt;Node2 -->
<g id="edge50" class="edge">
<title>Node26&#45;&gt;Node2</title>
<path fill="none" stroke="#63b8ff" d="M754.3,-279.26C814.96,-271.28 919.06,-248.48 977.77,-184 988.91,-171.77 993.53,-153.25 995.44,-139.36"/>
<polygon fill="#63b8ff" stroke="#63b8ff" points="998.96,-139.33 996.49,-129.03 992,-138.62 998.96,-139.33"/>
</g>
<!-- Node26&#45;&gt;Node5 -->
<g id="edge48" class="edge">
<title>Node26&#45;&gt;Node5</title>
<path fill="none" stroke="#63b8ff" d="M659.17,-276.35C616.09,-268.92 557,-255.99 540.77,-239 514.91,-211.92 512.43,-165.31 513.33,-139.35"/>
<polygon fill="#63b8ff" stroke="#63b8ff" points="516.84,-139.2 513.91,-129.02 509.85,-138.81 516.84,-139.2"/>
</g>
<!-- Node26&#45;&gt;Node9 -->
<g id="edge49" class="edge">
<title>Node26&#45;&gt;Node9</title>
<path fill="none" stroke="#63b8ff" d="M726.25,-274.84C769.01,-255.84 871.27,-210.39 921.27,-188.17"/>
<polygon fill="#63b8ff" stroke="#63b8ff" points="922.83,-191.31 930.54,-184.05 919.98,-184.91 922.83,-191.31"/>
</g>
<!-- Node26&#45;&gt;Node13 -->
<g id="edge51" class="edge">
<title>Node26&#45;&gt;Node13</title>
<path fill="none" stroke="#63b8ff" d="M703.3,-274.75C700.49,-267.65 696.43,-257.4 692.93,-248.56"/>
<polygon fill="#63b8ff" stroke="#63b8ff" points="696.11,-247.1 689.18,-239.09 689.61,-249.68 696.11,-247.1"/>
</g>
<!-- Node26&#45;&gt;Node23 -->
<g id="edge52" class="edge">
<title>Node26&#45;&gt;Node23</title>
<path fill="none" stroke="#63b8ff" d="M685.73,-274.98C664.37,-266.34 631.07,-252.87 606.71,-243.02"/>
<polygon fill="#63b8ff" stroke="#63b8ff" points="607.79,-239.68 597.2,-239.17 605.16,-246.17 607.79,-239.68"/>
</g>
<!-- Node27&#45;&gt;Node9 -->
<g id="edge55" class="edge">
<title>Node27&#45;&gt;Node9</title>
<path fill="none" stroke="#63b8ff" d="M1033.71,-219.98C1017.91,-211.61 993.56,-198.7 975.14,-188.95"/>
<polygon fill="#63b8ff" stroke="#63b8ff" points="976.61,-185.76 966.13,-184.17 973.33,-191.95 976.61,-185.76"/>
</g>
<!-- Node27&#45;&gt;Node14 -->
<g id="edge56" class="edge">
<title>Node27&#45;&gt;Node14</title>
<path fill="none" stroke="#63b8ff" d="M1042.23,-219.83C1030,-206.27 1004.49,-180.06 977.77,-165 946.57,-147.41 907.51,-135.82 878.26,-128.89"/>
<polygon fill="#63b8ff" stroke="#63b8ff" points="878.88,-125.44 868.35,-126.63 877.32,-132.27 878.88,-125.44"/>
</g>
<!-- Node28 -->
<g id="node28" class="node">
<title>Node28</title>
<g id="a_node28"><a xlink:title=" ">
<polygon fill="#e0e0e0" stroke="#999999" points="1122.77,-184 1062.77,-184 1062.77,-165 1122.77,-165 1122.77,-184"/>
<text text-anchor="middle" x="1092.77" y="-172" font-family="Helvetica,sans-Serif" font-size="10.00">iostream</text>
</a>
</g>
</g>
<!-- Node27&#45;&gt;Node28 -->
<g id="edge54" class="edge">
<title>Node27&#45;&gt;Node28</title>
<path fill="none" stroke="#63b8ff" d="M1056.87,-219.75C1062.95,-212.26 1071.86,-201.28 1079.28,-192.13"/>
<polygon fill="#63b8ff" stroke="#63b8ff" points="1082.22,-194.06 1085.8,-184.09 1076.79,-189.65 1082.22,-194.06"/>
</g>
<!-- Node29 -->
<g id="node29" class="node">
<title>Node29</title>
<g id="a_node29"><a xlink:href="../../df/d9c/dir_8h.html" target="_top" xlink:title=" ">
<polygon fill="white" stroke="#666666" points="1216.77,-184 1178.77,-184 1178.77,-165 1216.77,-165 1216.77,-184"/>
<text text-anchor="middle" x="1197.77" y="-172" font-family="Helvetica,sans-Serif" font-size="10.00">dir.h</text>
</a>
</g>
</g>
<!-- Node27&#45;&gt;Node29 -->
<g id="edge57" class="edge">
<title>Node27&#45;&gt;Node29</title>
<path fill="none" stroke="#63b8ff" d="M1073.55,-219.98C1099.6,-210.65 1141.38,-195.69 1169.2,-185.73"/>
<polygon fill="#63b8ff" stroke="#63b8ff" points="1170.52,-188.98 1178.76,-182.31 1168.16,-182.39 1170.52,-188.98"/>
</g>
<!-- Node29&#45;&gt;Node2 -->
<g id="edge59" class="edge">
<title>Node29&#45;&gt;Node2</title>
<path fill="none" stroke="#63b8ff" d="M1178.5,-168.42C1145.75,-159.78 1078.64,-142.09 1035.77,-130.78"/>
<polygon fill="#63b8ff" stroke="#63b8ff" points="1036.52,-127.36 1025.96,-128.2 1034.74,-134.13 1036.52,-127.36"/>
</g>
<!-- Node29&#45;&gt;Node3 -->
<g id="edge58" class="edge">
<title>Node29&#45;&gt;Node3</title>
<path fill="none" stroke="#63b8ff" d="M1198.08,-164.76C1198.17,-152 1196.97,-127.86 1187.77,-110 1167.01,-69.65 1121.86,-39.79 1092.69,-23.78"/>
<polygon fill="#63b8ff" stroke="#63b8ff" points="1094.31,-20.67 1083.83,-19.07 1091.02,-26.86 1094.31,-20.67"/>
</g>
<!-- Node30 -->
<g id="node30" class="node">
<title>Node30</title>
<g id="a_node30"><a xlink:href="../../df/d45/fileinfo_8h.html" target="_top" xlink:title=" ">
<polygon fill="white" stroke="#666666" points="1178.27,-129 1119.27,-129 1119.27,-110 1178.27,-110 1178.27,-129"/>
<text text-anchor="middle" x="1148.77" y="-117" font-family="Helvetica,sans-Serif" font-size="10.00">fileinfo.h</text>
</a>
</g>
</g>
<!-- Node29&#45;&gt;Node30 -->
<g id="edge60" class="edge">
<title>Node29&#45;&gt;Node30</title>
<path fill="none" stroke="#63b8ff" d="M1189.68,-164.75C1182.62,-157.11 1172.19,-145.82 1163.62,-136.56"/>
<polygon fill="#63b8ff" stroke="#63b8ff" points="1166.07,-134.06 1156.71,-129.09 1160.93,-138.81 1166.07,-134.06"/>
</g>
<!-- Node30&#45;&gt;Node3 -->
<g id="edge61" class="edge">
<title>Node30&#45;&gt;Node3</title>
<path fill="none" stroke="#63b8ff" d="M1144.67,-109.81C1138.48,-97.13 1125.94,-73.08 1111.77,-55 1103.59,-44.55 1093.03,-34.17 1084.09,-26.06"/>
<polygon fill="#63b8ff" stroke="#63b8ff" points="1086.26,-23.31 1076.45,-19.32 1081.63,-28.56 1086.26,-23.31"/>
</g>
<!-- Node31&#45;&gt;Node5 -->
<g id="edge63" class="edge">
<title>Node31&#45;&gt;Node5</title>
<path fill="none" stroke="#63b8ff" d="M941.04,-275.65C864.61,-257.1 676.33,-210.19 616.77,-184 586.3,-170.6 554.19,-149.24 534.32,-135.04"/>
<polygon fill="#63b8ff" stroke="#63b8ff" points="536.25,-132.12 526.1,-129.08 532.14,-137.78 536.25,-132.12"/>
</g>
<!-- Node31&#45;&gt;Node9 -->
<g id="edge64" class="edge">
<title>Node31&#45;&gt;Node9</title>
<path fill="none" stroke="#63b8ff" d="M965.02,-274.9C957.21,-266.56 946.33,-253.13 941.77,-239 937.03,-224.29 939.8,-206.83 943.32,-193.94"/>
<polygon fill="#63b8ff" stroke="#63b8ff" points="946.68,-194.94 946.31,-184.35 939.99,-192.86 946.68,-194.94"/>
</g>
<!-- Node31&#45;&gt;Node27 -->
<g id="edge67" class="edge">
<title>Node31&#45;&gt;Node27</title>
<path fill="none" stroke="#63b8ff" d="M985.98,-274.98C997.55,-266.92 1015.15,-254.65 1028.93,-245.03"/>
<polygon fill="#63b8ff" stroke="#63b8ff" points="1031.14,-247.76 1037.34,-239.17 1027.14,-242.02 1031.14,-247.76"/>
</g>
<!-- Node31&#45;&gt;Node28 -->
<g id="edge66" class="edge">
<title>Node31&#45;&gt;Node28</title>
<path fill="none" stroke="#63b8ff" d="M1006.44,-281.31C1034.77,-277.49 1074.23,-267.09 1093.77,-239 1102.82,-226 1101.4,-207.6 1098.41,-193.96"/>
<polygon fill="#63b8ff" stroke="#63b8ff" points="1101.78,-193 1095.85,-184.22 1095.01,-194.78 1101.78,-193"/>
</g>
<!-- Node32 -->
<g id="node32" class="node">
<title>Node32</title>
<g id="a_node32"><a xlink:title=" ">
<polygon fill="#e0e0e0" stroke="#999999" points="997.27,-239 950.27,-239 950.27,-220 997.27,-220 997.27,-239"/>
<text text-anchor="middle" x="973.77" y="-227" font-family="Helvetica,sans-Serif" font-size="10.00">deque</text>
</a>
</g>
</g>
<!-- Node31&#45;&gt;Node32 -->
<g id="edge65" class="edge">
<title>Node31&#45;&gt;Node32</title>
<path fill="none" stroke="#63b8ff" d="M973.77,-274.75C973.77,-267.8 973.77,-257.85 973.77,-249.13"/>
<polygon fill="#63b8ff" stroke="#63b8ff" points="977.27,-249.09 973.77,-239.09 970.27,-249.09 977.27,-249.09"/>
</g>
</g>
</svg>
