<?xml version="1.0" encoding="UTF-8" standalone="no"?>
<!DOCTYPE svg PUBLIC "-//W3C//DTD SVG 1.1//EN"
 "http://www.w3.org/Graphics/SVG/1.1/DTD/svg11.dtd">
<!-- Generated by graphviz version 2.43.0 (0)
 -->
<!-- Title: TranslatorAdapter_1_8_15 Pages: 1 -->
<svg width="2321pt" height="729pt"
 viewBox="0.00 0.00 2321.00 729.00" xmlns="http://www.w3.org/2000/svg" xmlns:xlink="http://www.w3.org/1999/xlink">
<g id="graph0" class="graph" transform="scale(1 1) rotate(0) translate(4 725)">
<title>TranslatorAdapter_1_8_15</title>
<!-- Node1 -->
<g id="node1" class="node">
<title>Node1</title>
<g id="a_node1"><a xlink:title=" ">
<polygon fill="#999999" stroke="#666666" points="1105,-185 962,-185 962,-166 1105,-166 1105,-185"/>
<text text-anchor="middle" x="1033.5" y="-173" font-family="Helvetica,sans-Serif" font-size="10.00">TranslatorAdapter_1_8_15</text>
</a>
</g>
</g>
<!-- Node8 -->
<g id="node8" class="node">
<title>Node8</title>
<g id="a_node8"><a xlink:href="../../de/d2f/class_translator_adapter__1__8__4.html" target="_top" xlink:title=" ">
<polygon fill="white" stroke="#666666" points="1286.5,-352 1149.5,-352 1149.5,-333 1286.5,-333 1286.5,-352"/>
<text text-anchor="middle" x="1218" y="-340" font-family="Helvetica,sans-Serif" font-size="10.00">TranslatorAdapter_1_8_4</text>
</a>
</g>
</g>
<!-- Node1&#45;&gt;Node8 -->
<g id="edge7" class="edge">
<title>Node1&#45;&gt;Node8</title>
<path fill="none" stroke="#63b8ff" d="M1042.89,-194.78C1057.81,-226.7 1092.04,-290.29 1141,-323.5 1146.74,-327.39 1153.21,-330.49 1159.89,-332.95"/>
<polygon fill="#63b8ff" stroke="#63b8ff" points="1045.89,-192.93 1038.58,-185.26 1039.52,-195.81 1045.89,-192.93"/>
</g>
<!-- Node35 -->
<g id="node35" class="node">
<title>Node35</title>
<g id="a_node35"><a xlink:href="../../dd/df6/class_translator_chinesetraditional.html" target="_top" xlink:title=" ">
<polygon fill="white" stroke="#666666" points="1295,-315 1141,-315 1141,-296 1295,-296 1295,-315"/>
<text text-anchor="middle" x="1218" y="-303" font-family="Helvetica,sans-Serif" font-size="10.00">TranslatorChinesetraditional</text>
</a>
</g>
</g>
<!-- Node1&#45;&gt;Node35 -->
<g id="edge34" class="edge">
<title>Node1&#45;&gt;Node35</title>
<path fill="none" stroke="#63b8ff" d="M1046.88,-193.77C1064.71,-218.63 1100.03,-262.74 1141,-286.5 1147.71,-290.39 1155.19,-293.49 1162.78,-295.96"/>
<polygon fill="#63b8ff" stroke="#63b8ff" points="1049.53,-191.45 1040.93,-185.26 1043.79,-195.46 1049.53,-191.45"/>
</g>
<!-- Node36 -->
<g id="node36" class="node">
<title>Node36</title>
<g id="a_node36"><a xlink:href="../../d6/d07/class_translator_german.html" target="_top" xlink:title=" ">
<polygon fill="white" stroke="#666666" points="1270,-278 1166,-278 1166,-259 1270,-259 1270,-278"/>
<text text-anchor="middle" x="1218" y="-266" font-family="Helvetica,sans-Serif" font-size="10.00">TranslatorGerman</text>
</a>
</g>
</g>
<!-- Node1&#45;&gt;Node36 -->
<g id="edge35" class="edge">
<title>Node1&#45;&gt;Node36</title>
<path fill="none" stroke="#63b8ff" d="M1053.32,-191.77C1073.65,-208.56 1107.63,-234.35 1141,-249.5 1149.42,-253.32 1158.73,-256.46 1167.86,-258.99"/>
<polygon fill="#63b8ff" stroke="#63b8ff" points="1055.39,-188.94 1045.48,-185.19 1050.89,-194.3 1055.39,-188.94"/>
</g>
<!-- Node37 -->
<g id="node37" class="node">
<title>Node37</title>
<g id="a_node37"><a xlink:href="../../db/d5f/class_translator_hungarian.html" target="_top" xlink:title=" ">
<polygon fill="white" stroke="#666666" points="1275.5,-241 1160.5,-241 1160.5,-222 1275.5,-222 1275.5,-241"/>
<text text-anchor="middle" x="1218" y="-229" font-family="Helvetica,sans-Serif" font-size="10.00">TranslatorHungarian</text>
</a>
</g>
</g>
<!-- Node1&#45;&gt;Node37 -->
<g id="edge36" class="edge">
<title>Node1&#45;&gt;Node37</title>
<path fill="none" stroke="#63b8ff" d="M1069.72,-188.62C1090.35,-196.09 1116.98,-205.34 1141,-212.5 1152.21,-215.84 1164.46,-219.08 1175.8,-221.91"/>
<polygon fill="#63b8ff" stroke="#63b8ff" points="1070.71,-185.26 1060.11,-185.12 1068.31,-191.84 1070.71,-185.26"/>
</g>
<!-- Node38 -->
<g id="node38" class="node">
<title>Node38</title>
<g id="a_node38"><a xlink:href="../../d2/df8/class_translator_italian.html" target="_top" xlink:title=" ">
<polygon fill="white" stroke="#666666" points="1265.5,-204 1170.5,-204 1170.5,-185 1265.5,-185 1265.5,-204"/>
<text text-anchor="middle" x="1218" y="-192" font-family="Helvetica,sans-Serif" font-size="10.00">TranslatorItalian</text>
</a>
</g>
</g>
<!-- Node1&#45;&gt;Node38 -->
<g id="edge37" class="edge">
<title>Node1&#45;&gt;Node38</title>
<path fill="none" stroke="#63b8ff" d="M1115.15,-183.9C1134.01,-185.86 1153.48,-187.89 1170.29,-189.64"/>
<polygon fill="#63b8ff" stroke="#63b8ff" points="1115.37,-180.4 1105.06,-182.85 1114.64,-187.36 1115.37,-180.4"/>
</g>
<!-- Node39 -->
<g id="node39" class="node">
<title>Node39</title>
<g id="a_node39"><a xlink:href="../../d1/d6a/class_translator_japanese.html" target="_top" xlink:title=" ">
<polygon fill="white" stroke="#666666" points="1272.5,-167 1163.5,-167 1163.5,-148 1272.5,-148 1272.5,-167"/>
<text text-anchor="middle" x="1218" y="-155" font-family="Helvetica,sans-Serif" font-size="10.00">TranslatorJapanese</text>
</a>
</g>
</g>
<!-- Node1&#45;&gt;Node39 -->
<g id="edge38" class="edge">
<title>Node1&#45;&gt;Node39</title>
<path fill="none" stroke="#63b8ff" d="M1115.14,-167.55C1131.45,-165.94 1148.22,-164.28 1163.33,-162.79"/>
<polygon fill="#63b8ff" stroke="#63b8ff" points="1114.67,-164.08 1105.06,-168.54 1115.35,-171.04 1114.67,-164.08"/>
</g>
<!-- Node40 -->
<g id="node40" class="node">
<title>Node40</title>
<g id="a_node40"><a xlink:href="../../db/dcc/class_translator_korean.html" target="_top" xlink:title=" ">
<polygon fill="white" stroke="#666666" points="1267,-130 1169,-130 1169,-111 1267,-111 1267,-130"/>
<text text-anchor="middle" x="1218" y="-118" font-family="Helvetica,sans-Serif" font-size="10.00">TranslatorKorean</text>
</a>
</g>
</g>
<!-- Node1&#45;&gt;Node40 -->
<g id="edge39" class="edge">
<title>Node1&#45;&gt;Node40</title>
<path fill="none" stroke="#63b8ff" d="M1069.27,-162.41C1089.94,-154.89 1116.78,-145.56 1141,-138.5 1151.41,-135.47 1162.74,-132.57 1173.39,-130.02"/>
<polygon fill="#63b8ff" stroke="#63b8ff" points="1067.84,-159.21 1059.66,-165.95 1070.25,-165.78 1067.84,-159.21"/>
</g>
<!-- Node41 -->
<g id="node41" class="node">
<title>Node41</title>
<g id="a_node41"><a xlink:href="../../da/d32/class_translator_romanian.html" target="_top" xlink:title=" ">
<polygon fill="white" stroke="#666666" points="1275,-93 1161,-93 1161,-74 1275,-74 1275,-93"/>
<text text-anchor="middle" x="1218" y="-81" font-family="Helvetica,sans-Serif" font-size="10.00">TranslatorRomanian</text>
</a>
</g>
</g>
<!-- Node1&#45;&gt;Node41 -->
<g id="edge40" class="edge">
<title>Node1&#45;&gt;Node41</title>
<path fill="none" stroke="#63b8ff" d="M1053.28,-159.14C1073.58,-142.29 1107.54,-116.44 1141,-101.5 1148.55,-98.13 1156.82,-95.34 1165.04,-93.05"/>
<polygon fill="#63b8ff" stroke="#63b8ff" points="1050.83,-156.63 1045.46,-165.76 1055.35,-161.97 1050.83,-156.63"/>
</g>
<!-- Node42 -->
<g id="node42" class="node">
<title>Node42</title>
<g id="a_node42"><a xlink:href="../../d0/dab/class_translator_russian.html" target="_top" xlink:title=" ">
<polygon fill="white" stroke="#666666" points="1269.5,-56 1166.5,-56 1166.5,-37 1269.5,-37 1269.5,-56"/>
<text text-anchor="middle" x="1218" y="-44" font-family="Helvetica,sans-Serif" font-size="10.00">TranslatorRussian</text>
</a>
</g>
</g>
<!-- Node1&#45;&gt;Node42 -->
<g id="edge41" class="edge">
<title>Node1&#45;&gt;Node42</title>
<path fill="none" stroke="#63b8ff" d="M1046.84,-157.16C1064.62,-132.21 1099.88,-88.01 1141,-64.5 1148.77,-60.06 1157.58,-56.71 1166.39,-54.19"/>
<polygon fill="#63b8ff" stroke="#63b8ff" points="1043.74,-155.49 1040.9,-165.69 1049.49,-159.48 1043.74,-155.49"/>
</g>
<!-- Node43 -->
<g id="node43" class="node">
<title>Node43</title>
<g id="a_node43"><a xlink:href="../../d2/d53/class_translator_slovak.html" target="_top" xlink:title=" ">
<polygon fill="white" stroke="#666666" points="1267,-19 1169,-19 1169,0 1267,0 1267,-19"/>
<text text-anchor="middle" x="1218" y="-7" font-family="Helvetica,sans-Serif" font-size="10.00">TranslatorSlovak</text>
</a>
</g>
</g>
<!-- Node1&#45;&gt;Node43 -->
<g id="edge42" class="edge">
<title>Node1&#45;&gt;Node43</title>
<path fill="none" stroke="#63b8ff" d="M1042.66,-156.57C1057.4,-124.69 1091.62,-60.55 1141,-27.5 1149.23,-21.99 1158.94,-18.17 1168.63,-15.5"/>
<polygon fill="#63b8ff" stroke="#63b8ff" points="1039.46,-155.15 1038.56,-165.7 1045.84,-158.01 1039.46,-155.15"/>
</g>
<!-- Node2 -->
<g id="node2" class="node">
<title>Node2</title>
<g id="a_node2"><a xlink:href="../../de/dde/class_translator_adapter__1__8__19.html" target="_top" xlink:title=" ">
<polygon fill="white" stroke="#666666" points="926,-185 783,-185 783,-166 926,-166 926,-185"/>
<text text-anchor="middle" x="854.5" y="-173" font-family="Helvetica,sans-Serif" font-size="10.00">TranslatorAdapter_1_8_19</text>
</a>
</g>
</g>
<!-- Node2&#45;&gt;Node1 -->
<g id="edge1" class="edge">
<title>Node2&#45;&gt;Node1</title>
<path fill="none" stroke="#63b8ff" d="M936.49,-175.5C944.97,-175.5 953.54,-175.5 961.89,-175.5"/>
<polygon fill="#63b8ff" stroke="#63b8ff" points="936.22,-172 926.22,-175.5 936.22,-179 936.22,-172"/>
</g>
<!-- Node3 -->
<g id="node3" class="node">
<title>Node3</title>
<g id="a_node3"><a xlink:href="../../d3/d2e/class_translator_adapter__1__9__2.html" target="_top" xlink:title=" ">
<polygon fill="white" stroke="#666666" points="747,-185 610,-185 610,-166 747,-166 747,-185"/>
<text text-anchor="middle" x="678.5" y="-173" font-family="Helvetica,sans-Serif" font-size="10.00">TranslatorAdapter_1_9_2</text>
</a>
</g>
</g>
<!-- Node3&#45;&gt;Node2 -->
<g id="edge2" class="edge">
<title>Node3&#45;&gt;Node2</title>
<path fill="none" stroke="#63b8ff" d="M757.47,-175.5C765.89,-175.5 774.42,-175.5 782.75,-175.5"/>
<polygon fill="#63b8ff" stroke="#63b8ff" points="757.27,-172 747.27,-175.5 757.27,-179 757.27,-172"/>
</g>
<!-- Node4 -->
<g id="node4" class="node">
<title>Node4</title>
<g id="a_node4"><a xlink:href="../../d0/d33/class_translator_adapter__1__9__4.html" target="_top" xlink:title=" ">
<polygon fill="white" stroke="#666666" points="574,-185 437,-185 437,-166 574,-166 574,-185"/>
<text text-anchor="middle" x="505.5" y="-173" font-family="Helvetica,sans-Serif" font-size="10.00">TranslatorAdapter_1_9_4</text>
</a>
</g>
</g>
<!-- Node4&#45;&gt;Node3 -->
<g id="edge3" class="edge">
<title>Node4&#45;&gt;Node3</title>
<path fill="none" stroke="#63b8ff" d="M584.1,-175.5C592.69,-175.5 601.39,-175.5 609.85,-175.5"/>
<polygon fill="#63b8ff" stroke="#63b8ff" points="584.08,-172 574.08,-175.5 584.08,-179 584.08,-172"/>
</g>
<!-- Node5 -->
<g id="node5" class="node">
<title>Node5</title>
<g id="a_node5"><a xlink:href="../../dd/dba/class_translator_adapter__1__9__5.html" target="_top" xlink:title=" ">
<polygon fill="white" stroke="#666666" points="401,-185 264,-185 264,-166 401,-166 401,-185"/>
<text text-anchor="middle" x="332.5" y="-173" font-family="Helvetica,sans-Serif" font-size="10.00">TranslatorAdapter_1_9_5</text>
</a>
</g>
</g>
<!-- Node5&#45;&gt;Node4 -->
<g id="edge4" class="edge">
<title>Node5&#45;&gt;Node4</title>
<path fill="none" stroke="#63b8ff" d="M411.1,-175.5C419.69,-175.5 428.39,-175.5 436.85,-175.5"/>
<polygon fill="#63b8ff" stroke="#63b8ff" points="411.08,-172 401.08,-175.5 411.08,-179 411.08,-172"/>
</g>
<!-- Node6 -->
<g id="node6" class="node">
<title>Node6</title>
<g id="a_node6"><a xlink:href="../../db/d6c/class_translator_adapter_base.html" target="_top" xlink:title="Base of the translator adapter tree.">
<polygon fill="white" stroke="#666666" points="228,-185 101,-185 101,-166 228,-166 228,-185"/>
<text text-anchor="middle" x="164.5" y="-173" font-family="Helvetica,sans-Serif" font-size="10.00">TranslatorAdapterBase</text>
</a>
</g>
</g>
<!-- Node6&#45;&gt;Node5 -->
<g id="edge5" class="edge">
<title>Node6&#45;&gt;Node5</title>
<path fill="none" stroke="#63b8ff" d="M238.49,-175.5C246.95,-175.5 255.56,-175.5 263.94,-175.5"/>
<polygon fill="#63b8ff" stroke="#63b8ff" points="238.26,-172 228.26,-175.5 238.26,-179 238.26,-172"/>
</g>
<!-- Node7 -->
<g id="node7" class="node">
<title>Node7</title>
<g id="a_node7"><a xlink:href="../../d8/dfb/class_translator.html" target="_top" xlink:title="Abstract base class for all translatable text fragments.">
<polygon fill="white" stroke="#666666" points="65,-185 0,-185 0,-166 65,-166 65,-185"/>
<text text-anchor="middle" x="32.5" y="-173" font-family="Helvetica,sans-Serif" font-size="10.00">Translator</text>
</a>
</g>
</g>
<!-- Node7&#45;&gt;Node6 -->
<g id="edge6" class="edge">
<title>Node7&#45;&gt;Node6</title>
<path fill="none" stroke="#63b8ff" d="M75.54,-175.5C83.6,-175.5 92.2,-175.5 100.75,-175.5"/>
<polygon fill="#63b8ff" stroke="#63b8ff" points="75.3,-172 65.3,-175.5 75.3,-179 75.3,-172"/>
</g>
<!-- Node9 -->
<g id="node9" class="node">
<title>Node9</title>
<g id="a_node9"><a xlink:href="../../d2/d75/class_translator_adapter__1__8__2.html" target="_top" xlink:title=" ">
<polygon fill="white" stroke="#666666" points="1468,-407 1331,-407 1331,-388 1468,-388 1468,-407"/>
<text text-anchor="middle" x="1399.5" y="-395" font-family="Helvetica,sans-Serif" font-size="10.00">TranslatorAdapter_1_8_2</text>
</a>
</g>
</g>
<!-- Node8&#45;&gt;Node9 -->
<g id="edge8" class="edge">
<title>Node8&#45;&gt;Node9</title>
<path fill="none" stroke="#63b8ff" d="M1257.67,-355.32C1279.2,-362.35 1306.52,-371.12 1331,-378.5 1341.61,-381.7 1353.2,-385.02 1363.74,-387.98"/>
<polygon fill="#63b8ff" stroke="#63b8ff" points="1258.51,-351.91 1247.92,-352.12 1256.33,-358.56 1258.51,-351.91"/>
</g>
<!-- Node32 -->
<g id="node32" class="node">
<title>Node32</title>
<g id="a_node32"><a xlink:href="../../d2/d07/class_translator_esperanto.html" target="_top" xlink:title=" ">
<polygon fill="white" stroke="#666666" points="1456,-370 1343,-370 1343,-351 1456,-351 1456,-370"/>
<text text-anchor="middle" x="1399.5" y="-358" font-family="Helvetica,sans-Serif" font-size="10.00">TranslatorEsperanto</text>
</a>
</g>
</g>
<!-- Node8&#45;&gt;Node32 -->
<g id="edge31" class="edge">
<title>Node8&#45;&gt;Node32</title>
<path fill="none" stroke="#63b8ff" d="M1296.73,-350.3C1312.29,-351.85 1328.33,-353.46 1342.95,-354.93"/>
<polygon fill="#63b8ff" stroke="#63b8ff" points="1296.9,-346.79 1286.61,-349.28 1296.21,-353.76 1296.9,-346.79"/>
</g>
<!-- Node33 -->
<g id="node33" class="node">
<title>Node33</title>
<g id="a_node33"><a xlink:href="../../d8/d83/class_translator_latvian.html" target="_top" xlink:title=" ">
<polygon fill="white" stroke="#666666" points="1450,-333 1349,-333 1349,-314 1450,-314 1450,-333"/>
<text text-anchor="middle" x="1399.5" y="-321" font-family="Helvetica,sans-Serif" font-size="10.00">TranslatorLatvian</text>
</a>
</g>
</g>
<!-- Node8&#45;&gt;Node33 -->
<g id="edge32" class="edge">
<title>Node8&#45;&gt;Node33</title>
<path fill="none" stroke="#63b8ff" d="M1296.89,-334.26C1314.52,-332.39 1332.78,-330.46 1348.86,-328.75"/>
<polygon fill="#63b8ff" stroke="#63b8ff" points="1296.18,-330.81 1286.61,-335.34 1296.92,-337.77 1296.18,-330.81"/>
</g>
<!-- Node34 -->
<g id="node34" class="node">
<title>Node34</title>
<g id="a_node34"><a xlink:href="../../d1/d56/class_translator_ukrainian.html" target="_top" xlink:title=" ">
<polygon fill="white" stroke="#666666" points="1455.5,-296 1343.5,-296 1343.5,-277 1455.5,-277 1455.5,-296"/>
<text text-anchor="middle" x="1399.5" y="-284" font-family="Helvetica,sans-Serif" font-size="10.00">TranslatorUkrainian</text>
</a>
</g>
</g>
<!-- Node8&#45;&gt;Node34 -->
<g id="edge33" class="edge">
<title>Node8&#45;&gt;Node34</title>
<path fill="none" stroke="#63b8ff" d="M1274.94,-330.16C1281.77,-328.17 1288.6,-325.95 1295,-323.5 1311.9,-317.04 1314.15,-311.09 1331,-304.5 1339.13,-301.32 1348.03,-298.5 1356.62,-296.1"/>
<polygon fill="#63b8ff" stroke="#63b8ff" points="1273.68,-326.87 1264.96,-332.9 1275.54,-333.62 1273.68,-326.87"/>
</g>
<!-- Node10 -->
<g id="node10" class="node">
<title>Node10</title>
<g id="a_node10"><a xlink:href="../../de/d49/class_translator_adapter__1__8__0.html" target="_top" xlink:title="Adapter class for languages that only contain translations up to version 1.8.0.">
<polygon fill="white" stroke="#666666" points="1641,-444 1504,-444 1504,-425 1641,-425 1641,-444"/>
<text text-anchor="middle" x="1572.5" y="-432" font-family="Helvetica,sans-Serif" font-size="10.00">TranslatorAdapter_1_8_0</text>
</a>
</g>
</g>
<!-- Node9&#45;&gt;Node10 -->
<g id="edge9" class="edge">
<title>Node9&#45;&gt;Node10</title>
<path fill="none" stroke="#63b8ff" d="M1454.35,-409.15C1477.84,-414.23 1505.04,-420.12 1527.32,-424.94"/>
<polygon fill="#63b8ff" stroke="#63b8ff" points="1455.05,-405.72 1444.54,-407.03 1453.57,-412.56 1455.05,-405.72"/>
</g>
<!-- Node30 -->
<g id="node30" class="node">
<title>Node30</title>
<g id="a_node30"><a xlink:href="../../d9/d82/class_translator_croatian.html" target="_top" xlink:title=" ">
<polygon fill="white" stroke="#666666" points="1625.5,-407 1519.5,-407 1519.5,-388 1625.5,-388 1625.5,-407"/>
<text text-anchor="middle" x="1572.5" y="-395" font-family="Helvetica,sans-Serif" font-size="10.00">TranslatorCroatian</text>
</a>
</g>
</g>
<!-- Node9&#45;&gt;Node30 -->
<g id="edge29" class="edge">
<title>Node9&#45;&gt;Node30</title>
<path fill="none" stroke="#63b8ff" d="M1478.19,-397.5C1492.16,-397.5 1506.41,-397.5 1519.44,-397.5"/>
<polygon fill="#63b8ff" stroke="#63b8ff" points="1478.08,-394 1468.08,-397.5 1478.08,-401 1478.08,-394"/>
</g>
<!-- Node31 -->
<g id="node31" class="node">
<title>Node31</title>
<g id="a_node31"><a xlink:href="../../de/d82/class_translator_polish.html" target="_top" xlink:title=" ">
<polygon fill="white" stroke="#666666" points="1619.5,-370 1525.5,-370 1525.5,-351 1619.5,-351 1619.5,-370"/>
<text text-anchor="middle" x="1572.5" y="-358" font-family="Helvetica,sans-Serif" font-size="10.00">TranslatorPolish</text>
</a>
</g>
</g>
<!-- Node9&#45;&gt;Node31 -->
<g id="edge30" class="edge">
<title>Node9&#45;&gt;Node31</title>
<path fill="none" stroke="#63b8ff" d="M1454.35,-385.85C1477.84,-380.77 1505.04,-374.88 1527.32,-370.06"/>
<polygon fill="#63b8ff" stroke="#63b8ff" points="1453.57,-382.44 1444.54,-387.97 1455.05,-389.28 1453.57,-382.44"/>
</g>
<!-- Node11 -->
<g id="node11" class="node">
<title>Node11</title>
<g id="a_node11"><a xlink:href="../../da/d24/class_translator_adapter__1__7__5.html" target="_top" xlink:title="Adapter class for languages that only contain translations up to version 1.7.5.">
<polygon fill="white" stroke="#666666" points="1814,-518 1677,-518 1677,-499 1814,-499 1814,-518"/>
<text text-anchor="middle" x="1745.5" y="-506" font-family="Helvetica,sans-Serif" font-size="10.00">TranslatorAdapter_1_7_5</text>
</a>
</g>
</g>
<!-- Node10&#45;&gt;Node11 -->
<g id="edge10" class="edge">
<title>Node10&#45;&gt;Node11</title>
<path fill="none" stroke="#63b8ff" d="M1597.82,-449.34C1618.35,-461.4 1648.83,-478.2 1677,-489.5 1685.93,-493.08 1695.77,-496.26 1705.12,-498.95"/>
<polygon fill="#63b8ff" stroke="#63b8ff" points="1599.51,-446.27 1589.13,-444.17 1595.93,-452.29 1599.51,-446.27"/>
</g>
<!-- Node26 -->
<g id="node26" class="node">
<title>Node26</title>
<g id="a_node26"><a xlink:href="../../da/db8/class_translator_armenian.html" target="_top" xlink:title=" ">
<polygon fill="white" stroke="#666666" points="1801.5,-481 1689.5,-481 1689.5,-462 1801.5,-462 1801.5,-481"/>
<text text-anchor="middle" x="1745.5" y="-469" font-family="Helvetica,sans-Serif" font-size="10.00">TranslatorArmenian</text>
</a>
</g>
</g>
<!-- Node10&#45;&gt;Node26 -->
<g id="edge25" class="edge">
<title>Node10&#45;&gt;Node26</title>
<path fill="none" stroke="#63b8ff" d="M1627.35,-446.15C1650.84,-451.23 1678.04,-457.12 1700.32,-461.94"/>
<polygon fill="#63b8ff" stroke="#63b8ff" points="1628.05,-442.72 1617.54,-444.03 1626.57,-449.56 1628.05,-442.72"/>
</g>
<!-- Node27 -->
<g id="node27" class="node">
<title>Node27</title>
<g id="a_node27"><a xlink:href="../../d9/dc1/class_translator_catalan.html" target="_top" xlink:title=" ">
<polygon fill="white" stroke="#666666" points="1796.5,-444 1694.5,-444 1694.5,-425 1796.5,-425 1796.5,-444"/>
<text text-anchor="middle" x="1745.5" y="-432" font-family="Helvetica,sans-Serif" font-size="10.00">TranslatorCatalan</text>
</a>
</g>
</g>
<!-- Node10&#45;&gt;Node27 -->
<g id="edge26" class="edge">
<title>Node10&#45;&gt;Node27</title>
<path fill="none" stroke="#63b8ff" d="M1651.15,-434.5C1665.8,-434.5 1680.76,-434.5 1694.28,-434.5"/>
<polygon fill="#63b8ff" stroke="#63b8ff" points="1651.08,-431 1641.08,-434.5 1651.08,-438 1651.08,-431"/>
</g>
<!-- Node28 -->
<g id="node28" class="node">
<title>Node28</title>
<g id="a_node28"><a xlink:href="../../d7/d21/class_translator_danish.html" target="_top" xlink:title=" ">
<polygon fill="white" stroke="#666666" points="1794.5,-407 1696.5,-407 1696.5,-388 1794.5,-388 1794.5,-407"/>
<text text-anchor="middle" x="1745.5" y="-395" font-family="Helvetica,sans-Serif" font-size="10.00">TranslatorDanish</text>
</a>
</g>
</g>
<!-- Node10&#45;&gt;Node28 -->
<g id="edge27" class="edge">
<title>Node10&#45;&gt;Node28</title>
<path fill="none" stroke="#63b8ff" d="M1627.35,-422.85C1650.84,-417.77 1678.04,-411.88 1700.32,-407.06"/>
<polygon fill="#63b8ff" stroke="#63b8ff" points="1626.57,-419.44 1617.54,-424.97 1628.05,-426.28 1626.57,-419.44"/>
</g>
<!-- Node29 -->
<g id="node29" class="node">
<title>Node29</title>
<g id="a_node29"><a xlink:href="../../df/dc8/class_translator_indonesian.html" target="_top" xlink:title=" ">
<polygon fill="white" stroke="#666666" points="1804.5,-370 1686.5,-370 1686.5,-351 1804.5,-351 1804.5,-370"/>
<text text-anchor="middle" x="1745.5" y="-358" font-family="Helvetica,sans-Serif" font-size="10.00">TranslatorIndonesian</text>
</a>
</g>
</g>
<!-- Node10&#45;&gt;Node29 -->
<g id="edge28" class="edge">
<title>Node10&#45;&gt;Node29</title>
<path fill="none" stroke="#63b8ff" d="M1629.42,-421.32C1633.44,-419.6 1637.35,-417.67 1641,-415.5 1660.72,-403.77 1657.2,-390.1 1677,-378.5 1682.86,-375.07 1689.39,-372.28 1696.01,-370.01"/>
<polygon fill="#63b8ff" stroke="#63b8ff" points="1627.97,-418.13 1619.86,-424.95 1630.46,-424.67 1627.97,-418.13"/>
</g>
<!-- Node12 -->
<g id="node12" class="node">
<title>Node12</title>
<g id="a_node12"><a xlink:href="../../d3/da1/class_translator_adapter__1__6__0.html" target="_top" xlink:title="Adapter class for languages that only contain translations up to version 1.6.0.">
<polygon fill="white" stroke="#666666" points="1987,-555 1850,-555 1850,-536 1987,-536 1987,-555"/>
<text text-anchor="middle" x="1918.5" y="-543" font-family="Helvetica,sans-Serif" font-size="10.00">TranslatorAdapter_1_6_0</text>
</a>
</g>
</g>
<!-- Node11&#45;&gt;Node12 -->
<g id="edge11" class="edge">
<title>Node11&#45;&gt;Node12</title>
<path fill="none" stroke="#63b8ff" d="M1800.35,-520.15C1823.84,-525.23 1851.04,-531.12 1873.32,-535.94"/>
<polygon fill="#63b8ff" stroke="#63b8ff" points="1801.05,-516.72 1790.54,-518.03 1799.57,-523.56 1801.05,-516.72"/>
</g>
<!-- Node24 -->
<g id="node24" class="node">
<title>Node24</title>
<g id="a_node24"><a xlink:href="../../d5/d43/class_translator_persian.html" target="_top" xlink:title=" ">
<polygon fill="white" stroke="#666666" points="1969,-518 1868,-518 1868,-499 1969,-499 1969,-518"/>
<text text-anchor="middle" x="1918.5" y="-506" font-family="Helvetica,sans-Serif" font-size="10.00">TranslatorPersian</text>
</a>
</g>
</g>
<!-- Node11&#45;&gt;Node24 -->
<g id="edge23" class="edge">
<title>Node11&#45;&gt;Node24</title>
<path fill="none" stroke="#63b8ff" d="M1824.26,-508.5C1839.06,-508.5 1854.18,-508.5 1867.81,-508.5"/>
<polygon fill="#63b8ff" stroke="#63b8ff" points="1824.08,-505 1814.08,-508.5 1824.08,-512 1824.08,-505"/>
</g>
<!-- Node25 -->
<g id="node25" class="node">
<title>Node25</title>
<g id="a_node25"><a xlink:href="../../dd/d80/class_translator_turkish.html" target="_top" xlink:title=" ">
<polygon fill="white" stroke="#666666" points="1968,-481 1869,-481 1869,-462 1968,-462 1968,-481"/>
<text text-anchor="middle" x="1918.5" y="-469" font-family="Helvetica,sans-Serif" font-size="10.00">TranslatorTurkish</text>
</a>
</g>
</g>
<!-- Node11&#45;&gt;Node25 -->
<g id="edge24" class="edge">
<title>Node11&#45;&gt;Node25</title>
<path fill="none" stroke="#63b8ff" d="M1800.35,-496.85C1823.84,-491.77 1851.04,-485.88 1873.32,-481.06"/>
<polygon fill="#63b8ff" stroke="#63b8ff" points="1799.57,-493.44 1790.54,-498.97 1801.05,-500.28 1799.57,-493.44"/>
</g>
<!-- Node13 -->
<g id="node13" class="node">
<title>Node13</title>
<g id="a_node13"><a xlink:href="../../d4/d2b/class_translator_adapter__1__4__6.html" target="_top" xlink:title="Adapter class for languages that only contain translations up to version 1.4.6.">
<polygon fill="white" stroke="#666666" points="2160,-666 2023,-666 2023,-647 2160,-647 2160,-666"/>
<text text-anchor="middle" x="2091.5" y="-654" font-family="Helvetica,sans-Serif" font-size="10.00">TranslatorAdapter_1_4_6</text>
</a>
</g>
</g>
<!-- Node12&#45;&gt;Node13 -->
<g id="edge12" class="edge">
<title>Node12&#45;&gt;Node13</title>
<path fill="none" stroke="#63b8ff" d="M1934.01,-562.8C1952.54,-583.78 1986.59,-618.79 2023,-638.5 2029.29,-641.91 2036.27,-644.7 2043.28,-646.98"/>
<polygon fill="#63b8ff" stroke="#63b8ff" points="1936.46,-560.28 1927.27,-555 1931.17,-564.86 1936.46,-560.28"/>
</g>
<!-- Node18 -->
<g id="node18" class="node">
<title>Node18</title>
<g id="a_node18"><a xlink:href="../../d3/d65/class_translator_afrikaans.html" target="_top" xlink:title=" ">
<polygon fill="white" stroke="#666666" points="2146.5,-629 2036.5,-629 2036.5,-610 2146.5,-610 2146.5,-629"/>
<text text-anchor="middle" x="2091.5" y="-617" font-family="Helvetica,sans-Serif" font-size="10.00">TranslatorAfrikaans</text>
</a>
</g>
</g>
<!-- Node12&#45;&gt;Node18 -->
<g id="edge17" class="edge">
<title>Node12&#45;&gt;Node18</title>
<path fill="none" stroke="#63b8ff" d="M1943.82,-560.34C1964.35,-572.4 1994.83,-589.2 2023,-600.5 2031.93,-604.08 2041.77,-607.26 2051.12,-609.95"/>
<polygon fill="#63b8ff" stroke="#63b8ff" points="1945.51,-557.27 1935.13,-555.17 1941.93,-563.29 1945.51,-557.27"/>
</g>
<!-- Node19 -->
<g id="node19" class="node">
<title>Node19</title>
<g id="a_node19"><a xlink:href="../../de/df7/class_translator_finnish.html" target="_top" xlink:title=" ">
<polygon fill="white" stroke="#666666" points="2141,-592 2042,-592 2042,-573 2141,-573 2141,-592"/>
<text text-anchor="middle" x="2091.5" y="-580" font-family="Helvetica,sans-Serif" font-size="10.00">TranslatorFinnish</text>
</a>
</g>
</g>
<!-- Node12&#45;&gt;Node19 -->
<g id="edge18" class="edge">
<title>Node12&#45;&gt;Node19</title>
<path fill="none" stroke="#63b8ff" d="M1973.35,-557.15C1996.84,-562.23 2024.04,-568.12 2046.32,-572.94"/>
<polygon fill="#63b8ff" stroke="#63b8ff" points="1974.05,-553.72 1963.54,-555.03 1972.57,-560.56 1974.05,-553.72"/>
</g>
<!-- Node20 -->
<g id="node20" class="node">
<title>Node20</title>
<g id="a_node20"><a xlink:href="../../d9/ddf/class_translator_macedonian.html" target="_top" xlink:title=" ">
<polygon fill="white" stroke="#666666" points="2153.5,-555 2029.5,-555 2029.5,-536 2153.5,-536 2153.5,-555"/>
<text text-anchor="middle" x="2091.5" y="-543" font-family="Helvetica,sans-Serif" font-size="10.00">TranslatorMacedonian</text>
</a>
</g>
</g>
<!-- Node12&#45;&gt;Node20 -->
<g id="edge19" class="edge">
<title>Node12&#45;&gt;Node20</title>
<path fill="none" stroke="#63b8ff" d="M1997.28,-545.5C2008,-545.5 2018.88,-545.5 2029.24,-545.5"/>
<polygon fill="#63b8ff" stroke="#63b8ff" points="1997.08,-542 1987.08,-545.5 1997.08,-549 1997.08,-542"/>
</g>
<!-- Node21 -->
<g id="node21" class="node">
<title>Node21</title>
<g id="a_node21"><a xlink:href="../../d5/d0a/class_translator_serbian.html" target="_top" xlink:title=" ">
<polygon fill="white" stroke="#666666" points="2142,-518 2041,-518 2041,-499 2142,-499 2142,-518"/>
<text text-anchor="middle" x="2091.5" y="-506" font-family="Helvetica,sans-Serif" font-size="10.00">TranslatorSerbian</text>
</a>
</g>
</g>
<!-- Node12&#45;&gt;Node21 -->
<g id="edge20" class="edge">
<title>Node12&#45;&gt;Node21</title>
<path fill="none" stroke="#63b8ff" d="M1973.35,-533.85C1996.84,-528.77 2024.04,-522.88 2046.32,-518.06"/>
<polygon fill="#63b8ff" stroke="#63b8ff" points="1972.57,-530.44 1963.54,-535.97 1974.05,-537.28 1972.57,-530.44"/>
</g>
<!-- Node22 -->
<g id="node22" class="node">
<title>Node22</title>
<g id="a_node22"><a xlink:href="../../dc/d03/class_translator_serbian_cyrillic.html" target="_top" xlink:title=" ">
<polygon fill="white" stroke="#666666" points="2159,-481 2024,-481 2024,-462 2159,-462 2159,-481"/>
<text text-anchor="middle" x="2091.5" y="-469" font-family="Helvetica,sans-Serif" font-size="10.00">TranslatorSerbianCyrillic</text>
</a>
</g>
</g>
<!-- Node12&#45;&gt;Node22 -->
<g id="edge21" class="edge">
<title>Node12&#45;&gt;Node22</title>
<path fill="none" stroke="#63b8ff" d="M1975.42,-532.32C1979.44,-530.6 1983.35,-528.67 1987,-526.5 2006.72,-514.77 2003.2,-501.1 2023,-489.5 2028.86,-486.07 2035.39,-483.28 2042.01,-481.01"/>
<polygon fill="#63b8ff" stroke="#63b8ff" points="1973.97,-529.13 1965.86,-535.95 1976.46,-535.67 1973.97,-529.13"/>
</g>
<!-- Node23 -->
<g id="node23" class="node">
<title>Node23</title>
<g id="a_node23"><a xlink:href="../../df/d20/class_translator_vietnamese.html" target="_top" xlink:title=" ">
<polygon fill="white" stroke="#666666" points="2153,-444 2030,-444 2030,-425 2153,-425 2153,-444"/>
<text text-anchor="middle" x="2091.5" y="-432" font-family="Helvetica,sans-Serif" font-size="10.00">TranslatorVietnamese</text>
</a>
</g>
</g>
<!-- Node12&#45;&gt;Node23 -->
<g id="edge22" class="edge">
<title>Node12&#45;&gt;Node23</title>
<path fill="none" stroke="#63b8ff" d="M1980.48,-531.18C1982.77,-529.76 1984.96,-528.21 1987,-526.5 2015.06,-503.04 1994.78,-475.76 2023,-452.5 2027.12,-449.11 2031.81,-446.35 2036.77,-444.1"/>
<polygon fill="#63b8ff" stroke="#63b8ff" points="1978.48,-528.27 1971.21,-535.97 1981.7,-534.49 1978.48,-528.27"/>
</g>
<!-- Node14 -->
<g id="node14" class="node">
<title>Node14</title>
<g id="a_node14"><a xlink:href="../../d3/de9/class_translator_arabic.html" target="_top" xlink:title=" ">
<polygon fill="white" stroke="#666666" points="2302,-721 2207,-721 2207,-702 2302,-702 2302,-721"/>
<text text-anchor="middle" x="2254.5" y="-709" font-family="Helvetica,sans-Serif" font-size="10.00">TranslatorArabic</text>
</a>
</g>
</g>
<!-- Node13&#45;&gt;Node14 -->
<g id="edge13" class="edge">
<title>Node13&#45;&gt;Node14</title>
<path fill="none" stroke="#63b8ff" d="M2127.94,-669.57C2147.87,-676.81 2173.25,-685.88 2196,-693.5 2204.43,-696.33 2213.6,-699.26 2222.09,-701.92"/>
<polygon fill="#63b8ff" stroke="#63b8ff" points="2128.94,-666.2 2118.35,-666.06 2126.54,-672.78 2128.94,-666.2"/>
</g>
<!-- Node15 -->
<g id="node15" class="node">
<title>Node15</title>
<g id="a_node15"><a xlink:href="../../dc/d53/class_translator_lithuanian.html" target="_top" xlink:title=" ">
<polygon fill="white" stroke="#666666" points="2312.5,-684 2196.5,-684 2196.5,-665 2312.5,-665 2312.5,-684"/>
<text text-anchor="middle" x="2254.5" y="-672" font-family="Helvetica,sans-Serif" font-size="10.00">TranslatorLithuanian</text>
</a>
</g>
</g>
<!-- Node13&#45;&gt;Node15 -->
<g id="edge14" class="edge">
<title>Node13&#45;&gt;Node15</title>
<path fill="none" stroke="#63b8ff" d="M2170.53,-665.22C2179.27,-666.2 2188.05,-667.18 2196.46,-668.12"/>
<polygon fill="#63b8ff" stroke="#63b8ff" points="2170.64,-661.71 2160.31,-664.08 2169.86,-668.67 2170.64,-661.71"/>
</g>
<!-- Node16 -->
<g id="node16" class="node">
<title>Node16</title>
<g id="a_node16"><a xlink:href="../../dd/d38/class_translator_norwegian.html" target="_top" xlink:title=" ">
<polygon fill="white" stroke="#666666" points="2313,-647 2196,-647 2196,-628 2313,-628 2313,-647"/>
<text text-anchor="middle" x="2254.5" y="-635" font-family="Helvetica,sans-Serif" font-size="10.00">TranslatorNorwegian</text>
</a>
</g>
</g>
<!-- Node13&#45;&gt;Node16 -->
<g id="edge15" class="edge">
<title>Node13&#45;&gt;Node16</title>
<path fill="none" stroke="#63b8ff" d="M2170.38,-647.31C2179,-646.29 2187.66,-645.27 2195.96,-644.29"/>
<polygon fill="#63b8ff" stroke="#63b8ff" points="2169.83,-643.85 2160.31,-648.5 2170.65,-650.8 2169.83,-643.85"/>
</g>
<!-- Node17 -->
<g id="node17" class="node">
<title>Node17</title>
<g id="a_node17"><a xlink:href="../../dd/d0b/class_translator_slovene.html" target="_top" xlink:title=" ">
<polygon fill="white" stroke="#666666" points="2306.5,-610 2202.5,-610 2202.5,-591 2306.5,-591 2306.5,-610"/>
<text text-anchor="middle" x="2254.5" y="-598" font-family="Helvetica,sans-Serif" font-size="10.00">TranslatorSlovene</text>
</a>
</g>
</g>
<!-- Node13&#45;&gt;Node17 -->
<g id="edge16" class="edge">
<title>Node13&#45;&gt;Node17</title>
<path fill="none" stroke="#63b8ff" d="M2144.39,-644.07C2149.72,-642.37 2155.01,-640.52 2160,-638.5 2176.97,-631.65 2179.18,-625.72 2196,-618.5 2203.31,-615.37 2211.34,-612.51 2219.03,-610.03"/>
<polygon fill="#63b8ff" stroke="#63b8ff" points="2143.37,-640.72 2134.79,-646.94 2145.38,-647.42 2143.37,-640.72"/>
</g>
</g>
</svg>
