<?xml version="1.0" encoding="UTF-8" standalone="no"?>
<!DOCTYPE svg PUBLIC "-//W3C//DTD SVG 1.1//EN"
 "http://www.w3.org/Graphics/SVG/1.1/DTD/svg11.dtd">
<!-- Generated by graphviz version 2.43.0 (0)
 -->
<!-- Title: /home/runner/work/doxygen/doxygen/src/growbuf.h Pages: 1 -->
<svg width="5212pt" height="236pt"
 viewBox="0.00 0.00 5212.00 236.00" xmlns="http://www.w3.org/2000/svg" xmlns:xlink="http://www.w3.org/1999/xlink">
<g id="graph0" class="graph" transform="scale(1 1) rotate(0) translate(4 232)">
<title>/home/runner/work/doxygen/doxygen/src/growbuf.h</title>
<!-- Node1 -->
<g id="node1" class="node">
<title>Node1</title>
<g id="a_node1"><a xlink:title=" ">
<polygon fill="#999999" stroke="#666666" points="959,-228 805,-228 805,-198 959,-198 959,-228"/>
<text text-anchor="start" x="813" y="-216" font-family="Helvetica,sans-Serif" font-size="10.00">/home/runner/work/doxygen</text>
<text text-anchor="middle" x="882" y="-205" font-family="Helvetica,sans-Serif" font-size="10.00">/doxygen/src/growbuf.h</text>
</a>
</g>
</g>
<!-- Node2 -->
<g id="node2" class="node">
<title>Node2</title>
<g id="a_node2"><a xlink:href="../../d7/d14/datetime_8cpp.html" target="_top" xlink:title=" ">
<polygon fill="white" stroke="#666666" points="349,-162 195,-162 195,-132 349,-132 349,-162"/>
<text text-anchor="start" x="203" y="-150" font-family="Helvetica,sans-Serif" font-size="10.00">/home/runner/work/doxygen</text>
<text text-anchor="middle" x="272" y="-139" font-family="Helvetica,sans-Serif" font-size="10.00">/doxygen/src/datetime.cpp</text>
</a>
</g>
</g>
<!-- Node1&#45;&gt;Node2 -->
<g id="edge1" class="edge">
<title>Node1&#45;&gt;Node2</title>
<path fill="none" stroke="#63b8ff" d="M794.42,-205.43C690.21,-197.19 511.06,-181.74 358,-162 355.15,-161.63 352.25,-161.24 349.32,-160.83"/>
<polygon fill="#63b8ff" stroke="#63b8ff" points="794.33,-208.93 804.58,-206.23 794.88,-201.95 794.33,-208.93"/>
</g>
<!-- Node3 -->
<g id="node3" class="node">
<title>Node3</title>
<g id="a_node3"><a xlink:href="../../dc/d05/docbookvisitor_8cpp.html" target="_top" xlink:title=" ">
<polygon fill="white" stroke="#666666" points="540.5,-162 367.5,-162 367.5,-132 540.5,-132 540.5,-162"/>
<text text-anchor="start" x="375.5" y="-150" font-family="Helvetica,sans-Serif" font-size="10.00">/home/runner/work/doxygen</text>
<text text-anchor="middle" x="454" y="-139" font-family="Helvetica,sans-Serif" font-size="10.00">/doxygen/src/docbookvisitor.cpp</text>
</a>
</g>
</g>
<!-- Node1&#45;&gt;Node3 -->
<g id="edge2" class="edge">
<title>Node1&#45;&gt;Node3</title>
<path fill="none" stroke="#63b8ff" d="M794.74,-198.95C720.59,-187.86 614.7,-172.03 540.7,-160.96"/>
<polygon fill="#63b8ff" stroke="#63b8ff" points="794.58,-202.47 804.99,-200.48 795.62,-195.54 794.58,-202.47"/>
</g>
<!-- Node4 -->
<g id="node4" class="node">
<title>Node4</title>
<g id="a_node4"><a xlink:href="../../da/db0/htmldocvisitor_8cpp.html" target="_top" xlink:title=" ">
<polygon fill="white" stroke="#666666" points="731,-162 559,-162 559,-132 731,-132 731,-162"/>
<text text-anchor="start" x="567" y="-150" font-family="Helvetica,sans-Serif" font-size="10.00">/home/runner/work/doxygen</text>
<text text-anchor="middle" x="645" y="-139" font-family="Helvetica,sans-Serif" font-size="10.00">/doxygen/src/htmldocvisitor.cpp</text>
</a>
</g>
</g>
<!-- Node1&#45;&gt;Node4 -->
<g id="edge3" class="edge">
<title>Node1&#45;&gt;Node4</title>
<path fill="none" stroke="#63b8ff" d="M819.99,-195.25C781.7,-184.91 733.14,-171.8 696.89,-162.01"/>
<polygon fill="#63b8ff" stroke="#63b8ff" points="819.42,-198.73 829.99,-197.95 821.25,-191.97 819.42,-198.73"/>
</g>
<!-- Node5 -->
<g id="node5" class="node">
<title>Node5</title>
<g id="a_node5"><a xlink:href="../../d8/d6e/htmlgen_8cpp.html" target="_top" xlink:title=" ">
<polygon fill="white" stroke="#666666" points="1091,-96 937,-96 937,-66 1091,-66 1091,-96"/>
<text text-anchor="start" x="945" y="-84" font-family="Helvetica,sans-Serif" font-size="10.00">/home/runner/work/doxygen</text>
<text text-anchor="middle" x="1014" y="-73" font-family="Helvetica,sans-Serif" font-size="10.00">/doxygen/src/htmlgen.cpp</text>
</a>
</g>
</g>
<!-- Node1&#45;&gt;Node5 -->
<g id="edge4" class="edge">
<title>Node1&#45;&gt;Node5</title>
<path fill="none" stroke="#63b8ff" d="M903.84,-190.49C930.98,-163.76 976.54,-118.89 999.64,-96.14"/>
<polygon fill="#63b8ff" stroke="#63b8ff" points="901.05,-188.33 896.38,-197.84 905.96,-193.32 901.05,-188.33"/>
</g>
<!-- Node6 -->
<g id="node6" class="node">
<title>Node6</title>
<g id="a_node6"><a xlink:href="../../de/d04/markdown_8cpp.html" target="_top" xlink:title=" ">
<polygon fill="white" stroke="#666666" points="154,-30 0,-30 0,0 154,0 154,-30"/>
<text text-anchor="start" x="8" y="-18" font-family="Helvetica,sans-Serif" font-size="10.00">/home/runner/work/doxygen</text>
<text text-anchor="middle" x="77" y="-7" font-family="Helvetica,sans-Serif" font-size="10.00">/doxygen/src/markdown.cpp</text>
</a>
</g>
</g>
<!-- Node1&#45;&gt;Node6 -->
<g id="edge5" class="edge">
<title>Node1&#45;&gt;Node6</title>
<path fill="none" stroke="#63b8ff" d="M853.49,-192.07C825.77,-173.65 781.84,-146.95 740,-132 712.47,-122.17 322.81,-56.82 154.03,-28.76"/>
<polygon fill="#63b8ff" stroke="#63b8ff" points="851.65,-195.05 861.9,-197.73 855.56,-189.24 851.65,-195.05"/>
</g>
<!-- Node7 -->
<g id="node7" class="node">
<title>Node7</title>
<g id="a_node7"><a xlink:href="../../d2/d0c/markdown_8h.html" target="_top" xlink:title=" ">
<polygon fill="white" stroke="#666666" points="881,-96 727,-96 727,-66 881,-66 881,-96"/>
<text text-anchor="start" x="735" y="-84" font-family="Helvetica,sans-Serif" font-size="10.00">/home/runner/work/doxygen</text>
<text text-anchor="middle" x="804" y="-73" font-family="Helvetica,sans-Serif" font-size="10.00">/doxygen/src/markdown.h</text>
</a>
</g>
</g>
<!-- Node1&#45;&gt;Node7 -->
<g id="edge6" class="edge">
<title>Node1&#45;&gt;Node7</title>
<path fill="none" stroke="#63b8ff" d="M868.26,-189.1C852.14,-162.23 825.9,-118.5 812.49,-96.14"/>
<polygon fill="#63b8ff" stroke="#63b8ff" points="865.36,-191.07 873.5,-197.84 871.36,-187.46 865.36,-191.07"/>
</g>
<!-- Node13 -->
<g id="node13" class="node">
<title>Node13</title>
<g id="a_node13"><a xlink:href="../../d1/d86/vhdljjparser_8cpp.html" target="_top" xlink:title=" ">
<polygon fill="white" stroke="#666666" points="1023.5,-30 864.5,-30 864.5,0 1023.5,0 1023.5,-30"/>
<text text-anchor="start" x="872.5" y="-18" font-family="Helvetica,sans-Serif" font-size="10.00">/home/runner/work/doxygen</text>
<text text-anchor="middle" x="944" y="-7" font-family="Helvetica,sans-Serif" font-size="10.00">/doxygen/src/vhdljjparser.cpp</text>
</a>
</g>
</g>
<!-- Node1&#45;&gt;Node13 -->
<g id="edge63" class="edge">
<title>Node1&#45;&gt;Node13</title>
<path fill="none" stroke="#63b8ff" d="M889.44,-188.27C898.51,-159.38 914.32,-109.09 928,-66 931.86,-53.84 936.28,-40.03 939.5,-30"/>
<polygon fill="#63b8ff" stroke="#63b8ff" points="886.07,-187.31 886.42,-197.9 892.75,-189.41 886.07,-187.31"/>
</g>
<!-- Node14 -->
<g id="node14" class="node">
<title>Node14</title>
<g id="a_node14"><a xlink:href="../../d7/d79/searchindex_8cpp.html" target="_top" xlink:title=" ">
<polygon fill="white" stroke="#666666" points="3827.5,-96 3666.5,-96 3666.5,-66 3827.5,-66 3827.5,-96"/>
<text text-anchor="start" x="3674.5" y="-84" font-family="Helvetica,sans-Serif" font-size="10.00">/home/runner/work/doxygen</text>
<text text-anchor="middle" x="3747" y="-73" font-family="Helvetica,sans-Serif" font-size="10.00">/doxygen/src/searchindex.cpp</text>
</a>
</g>
</g>
<!-- Node1&#45;&gt;Node14 -->
<g id="edge14" class="edge">
<title>Node1&#45;&gt;Node14</title>
<path fill="none" stroke="#63b8ff" d="M969.35,-211.77C1341.03,-210.53 2792.69,-203.11 3248,-162 3403.1,-148 3583.02,-114.95 3678.77,-96"/>
<polygon fill="#63b8ff" stroke="#63b8ff" points="969.18,-208.27 959.2,-211.8 969.21,-215.27 969.18,-208.27"/>
</g>
<!-- Node15 -->
<g id="node15" class="node">
<title>Node15</title>
<g id="a_node15"><a xlink:href="../../de/d07/searchindex_8h.html" target="_top" xlink:title="Web server based search engine.">
<polygon fill="white" stroke="#666666" points="3239,-162 3085,-162 3085,-132 3239,-132 3239,-162"/>
<text text-anchor="start" x="3093" y="-150" font-family="Helvetica,sans-Serif" font-size="10.00">/home/runner/work/doxygen</text>
<text text-anchor="middle" x="3162" y="-139" font-family="Helvetica,sans-Serif" font-size="10.00">/doxygen/src/searchindex.h</text>
</a>
</g>
</g>
<!-- Node1&#45;&gt;Node15 -->
<g id="edge15" class="edge">
<title>Node1&#45;&gt;Node15</title>
<path fill="none" stroke="#63b8ff" d="M969.42,-209.55C1335.14,-199.28 2739.34,-159.86 3084.85,-150.17"/>
<polygon fill="#63b8ff" stroke="#63b8ff" points="969.06,-206.05 959.17,-209.83 969.26,-213.05 969.06,-206.05"/>
</g>
<!-- Node38 -->
<g id="node38" class="node">
<title>Node38</title>
<g id="a_node38"><a xlink:href="../../df/d2d/util_8cpp.html" target="_top" xlink:title=" ">
<polygon fill="white" stroke="#666666" points="5204,-30 5050,-30 5050,0 5204,0 5204,-30"/>
<text text-anchor="start" x="5058" y="-18" font-family="Helvetica,sans-Serif" font-size="10.00">/home/runner/work/doxygen</text>
<text text-anchor="middle" x="5127" y="-7" font-family="Helvetica,sans-Serif" font-size="10.00">/doxygen/src/util.cpp</text>
</a>
</g>
</g>
<!-- Node1&#45;&gt;Node38 -->
<g id="edge62" class="edge">
<title>Node1&#45;&gt;Node38</title>
<path fill="none" stroke="#63b8ff" d="M969.37,-212.1C1289.87,-212.08 2431.25,-208.54 3371,-162 4114.63,-125.17 4301.83,-119.22 5041,-30 5043.85,-29.66 5046.76,-29.29 5049.69,-28.89"/>
<polygon fill="#63b8ff" stroke="#63b8ff" points="969.22,-208.6 959.22,-212.1 969.22,-215.6 969.22,-208.6"/>
</g>
<!-- Node7&#45;&gt;Node6 -->
<g id="edge10" class="edge">
<title>Node7&#45;&gt;Node6</title>
<path fill="none" stroke="#63b8ff" d="M716.36,-66.38C715.23,-66.25 714.11,-66.12 713,-66 469.49,-39.35 406.4,-57.71 163,-30 160.14,-29.67 157.24,-29.32 154.31,-28.94"/>
<polygon fill="#63b8ff" stroke="#63b8ff" points="716.27,-69.89 726.61,-67.62 717.11,-62.94 716.27,-69.89"/>
</g>
<!-- Node8 -->
<g id="node8" class="node">
<title>Node8</title>
<g id="a_node8"><a xlink:href="../../d0/d2b/docnode_8cpp.html" target="_top" xlink:title=" ">
<polygon fill="white" stroke="#666666" points="846,-30 692,-30 692,0 846,0 846,-30"/>
<text text-anchor="start" x="700" y="-18" font-family="Helvetica,sans-Serif" font-size="10.00">/home/runner/work/doxygen</text>
<text text-anchor="middle" x="769" y="-7" font-family="Helvetica,sans-Serif" font-size="10.00">/doxygen/src/docnode.cpp</text>
</a>
</g>
</g>
<!-- Node7&#45;&gt;Node8 -->
<g id="edge7" class="edge">
<title>Node7&#45;&gt;Node8</title>
<path fill="none" stroke="#63b8ff" d="M791.4,-56.96C786.5,-48 781.05,-38.03 776.75,-30.16"/>
<polygon fill="#63b8ff" stroke="#63b8ff" points="788.36,-58.7 796.23,-65.8 794.5,-55.34 788.36,-58.7"/>
</g>
<!-- Node9 -->
<g id="node9" class="node">
<title>Node9</title>
<g id="a_node9"><a xlink:href="../../dc/d98/doxygen_8cpp.html" target="_top" xlink:title=" ">
<polygon fill="white" stroke="#666666" points="1368,-30 1214,-30 1214,0 1368,0 1368,-30"/>
<text text-anchor="start" x="1222" y="-18" font-family="Helvetica,sans-Serif" font-size="10.00">/home/runner/work/doxygen</text>
<text text-anchor="middle" x="1291" y="-7" font-family="Helvetica,sans-Serif" font-size="10.00">/doxygen/src/doxygen.cpp</text>
</a>
</g>
</g>
<!-- Node7&#45;&gt;Node9 -->
<g id="edge8" class="edge">
<title>Node7&#45;&gt;Node9</title>
<path fill="none" stroke="#63b8ff" d="M891.56,-70.04C972.88,-60.56 1097.28,-45.48 1205,-30 1207.84,-29.59 1210.74,-29.17 1213.67,-28.73"/>
<polygon fill="#63b8ff" stroke="#63b8ff" points="890.89,-66.59 881.36,-71.22 891.7,-73.54 890.89,-66.59"/>
</g>
<!-- Node10 -->
<g id="node10" class="node">
<title>Node10</title>
<g id="a_node10"><a xlink:href="../../dd/d00/fortranscanner_8l.html" target="_top" xlink:title=" ">
<polygon fill="white" stroke="#666666" points="502,-30 344,-30 344,0 502,0 502,-30"/>
<text text-anchor="start" x="352" y="-18" font-family="Helvetica,sans-Serif" font-size="10.00">/home/runner/work/doxygen</text>
<text text-anchor="middle" x="423" y="-7" font-family="Helvetica,sans-Serif" font-size="10.00">/doxygen/src/fortranscanner.l</text>
</a>
</g>
</g>
<!-- Node7&#45;&gt;Node10 -->
<g id="edge9" class="edge">
<title>Node7&#45;&gt;Node10</title>
<path fill="none" stroke="#63b8ff" d="M716.74,-65.34C652.15,-54.49 564.88,-39.83 502.28,-29.32"/>
<polygon fill="#63b8ff" stroke="#63b8ff" points="716.46,-68.84 726.9,-67.05 717.62,-61.94 716.46,-68.84"/>
</g>
<!-- Node11 -->
<g id="node11" class="node">
<title>Node11</title>
<g id="a_node11"><a xlink:href="../../de/d2b/pyscanner_8l.html" target="_top" xlink:title=" ">
<polygon fill="white" stroke="#666666" points="674,-30 520,-30 520,0 674,0 674,-30"/>
<text text-anchor="start" x="528" y="-18" font-family="Helvetica,sans-Serif" font-size="10.00">/home/runner/work/doxygen</text>
<text text-anchor="middle" x="597" y="-7" font-family="Helvetica,sans-Serif" font-size="10.00">/doxygen/src/pyscanner.l</text>
</a>
</g>
</g>
<!-- Node7&#45;&gt;Node11 -->
<g id="edge11" class="edge">
<title>Node7&#45;&gt;Node11</title>
<path fill="none" stroke="#63b8ff" d="M748.98,-62.99C715.67,-52.69 673.71,-39.72 642.32,-30.01"/>
<polygon fill="#63b8ff" stroke="#63b8ff" points="747.99,-66.34 758.57,-65.95 750.05,-59.66 747.99,-66.34"/>
</g>
<!-- Node12 -->
<g id="node12" class="node">
<title>Node12</title>
<g id="a_node12"><a xlink:href="../../da/d11/scanner_8l.html" target="_top" xlink:title=" ">
<polygon fill="white" stroke="#666666" points="326,-30 172,-30 172,0 326,0 326,-30"/>
<text text-anchor="start" x="180" y="-18" font-family="Helvetica,sans-Serif" font-size="10.00">/home/runner/work/doxygen</text>
<text text-anchor="middle" x="249" y="-7" font-family="Helvetica,sans-Serif" font-size="10.00">/doxygen/src/scanner.l</text>
</a>
</g>
</g>
<!-- Node7&#45;&gt;Node12 -->
<g id="edge12" class="edge">
<title>Node7&#45;&gt;Node12</title>
<path fill="none" stroke="#63b8ff" d="M716.35,-66.42C715.23,-66.28 714.11,-66.14 713,-66 545.53,-45.16 502.38,-51.57 335,-30 332.15,-29.63 329.25,-29.24 326.32,-28.84"/>
<polygon fill="#63b8ff" stroke="#63b8ff" points="716.22,-69.94 726.6,-67.78 717.14,-63 716.22,-69.94"/>
</g>
<!-- Node7&#45;&gt;Node13 -->
<g id="edge13" class="edge">
<title>Node7&#45;&gt;Node13</title>
<path fill="none" stroke="#63b8ff" d="M843.85,-61.78C865.92,-51.69 892.94,-39.34 913.35,-30.01"/>
<polygon fill="#63b8ff" stroke="#63b8ff" points="842.36,-58.61 834.72,-65.95 845.27,-64.98 842.36,-58.61"/>
</g>
<!-- Node15&#45;&gt;Node5 -->
<g id="edge26" class="edge">
<title>Node15&#45;&gt;Node5</title>
<path fill="none" stroke="#63b8ff" d="M3074.75,-145.37C2734.52,-142.69 1496.45,-130.72 1105,-96 1100.54,-95.6 1095.97,-95.13 1091.36,-94.59"/>
<polygon fill="#63b8ff" stroke="#63b8ff" points="3074.76,-148.87 3084.79,-145.45 3074.82,-141.87 3074.76,-148.87"/>
</g>
<!-- Node15&#45;&gt;Node9 -->
<g id="edge23" class="edge">
<title>Node15&#45;&gt;Node9</title>
<path fill="none" stroke="#63b8ff" d="M3074.5,-145.84C2862.24,-144.76 2303.27,-137.82 1839,-96 1670.22,-80.8 1474.09,-48.61 1368.27,-30.03"/>
<polygon fill="#63b8ff" stroke="#63b8ff" points="3074.63,-149.34 3084.65,-145.89 3074.67,-142.34 3074.63,-149.34"/>
</g>
<!-- Node15&#45;&gt;Node13 -->
<g id="edge60" class="edge">
<title>Node15&#45;&gt;Node13</title>
<path fill="none" stroke="#63b8ff" d="M3074.83,-145.38C2698.78,-142.53 1230.19,-129.29 1138,-96 1117.76,-88.69 1118.99,-76.11 1100,-66 1070.25,-50.16 1034.62,-38.27 1004.92,-30.07"/>
<polygon fill="#63b8ff" stroke="#63b8ff" points="3074.81,-148.88 3084.84,-145.46 3074.87,-141.88 3074.81,-148.88"/>
</g>
<!-- Node15&#45;&gt;Node14 -->
<g id="edge55" class="edge">
<title>Node15&#45;&gt;Node14</title>
<path fill="none" stroke="#63b8ff" d="M3249.52,-138.26C3347.64,-129.3 3511.45,-113.52 3652,-96 3656.71,-95.41 3661.56,-94.78 3666.44,-94.13"/>
<polygon fill="#63b8ff" stroke="#63b8ff" points="3248.99,-134.79 3239.35,-139.18 3249.63,-141.76 3248.99,-134.79"/>
</g>
<!-- Node16 -->
<g id="node16" class="node">
<title>Node16</title>
<g id="a_node16"><a xlink:href="../../de/d89/classdef_8cpp.html" target="_top" xlink:title=" ">
<polygon fill="white" stroke="#666666" points="4686,-30 4532,-30 4532,0 4686,0 4686,-30"/>
<text text-anchor="start" x="4540" y="-18" font-family="Helvetica,sans-Serif" font-size="10.00">/home/runner/work/doxygen</text>
<text text-anchor="middle" x="4609" y="-7" font-family="Helvetica,sans-Serif" font-size="10.00">/doxygen/src/classdef.cpp</text>
</a>
</g>
</g>
<!-- Node15&#45;&gt;Node16 -->
<g id="edge16" class="edge">
<title>Node15&#45;&gt;Node16</title>
<path fill="none" stroke="#63b8ff" d="M3249.45,-143.44C3319.7,-138.97 3419.83,-127.11 3502,-96 3524.83,-87.36 3524.74,-73.39 3548,-66 3754.65,-0.4 4307.25,-51.46 4523,-30 4525.86,-29.72 4528.77,-29.4 4531.7,-29.05"/>
<polygon fill="#63b8ff" stroke="#63b8ff" points="3249.08,-139.96 3239.31,-144.05 3249.5,-146.94 3249.08,-139.96"/>
</g>
<!-- Node17 -->
<g id="node17" class="node">
<title>Node17</title>
<g id="a_node17"><a xlink:href="../../da/d1f/code_8l.html" target="_top" xlink:title=" ">
<polygon fill="white" stroke="#666666" points="4858,-30 4704,-30 4704,0 4858,0 4858,-30"/>
<text text-anchor="start" x="4712" y="-18" font-family="Helvetica,sans-Serif" font-size="10.00">/home/runner/work/doxygen</text>
<text text-anchor="middle" x="4781" y="-7" font-family="Helvetica,sans-Serif" font-size="10.00">/doxygen/src/code.l</text>
</a>
</g>
</g>
<!-- Node15&#45;&gt;Node17 -->
<g id="edge17" class="edge">
<title>Node15&#45;&gt;Node17</title>
<path fill="none" stroke="#63b8ff" d="M3249.34,-145.08C3327.43,-141.78 3443.88,-130.72 3539,-96 3562.28,-87.5 3562.33,-73.33 3586,-66 3703.77,-29.53 4572.29,-41.93 4695,-30 4697.86,-29.72 4700.77,-29.41 4703.71,-29.07"/>
<polygon fill="#63b8ff" stroke="#63b8ff" points="3248.91,-141.59 3239.06,-145.47 3249.18,-148.58 3248.91,-141.59"/>
</g>
<!-- Node18 -->
<g id="node18" class="node">
<title>Node18</title>
<g id="a_node18"><a xlink:href="../../d8/d0a/conceptdef_8cpp.html" target="_top" xlink:title=" ">
<polygon fill="white" stroke="#666666" points="5031.5,-30 4876.5,-30 4876.5,0 5031.5,0 5031.5,-30"/>
<text text-anchor="start" x="4884.5" y="-18" font-family="Helvetica,sans-Serif" font-size="10.00">/home/runner/work/doxygen</text>
<text text-anchor="middle" x="4954" y="-7" font-family="Helvetica,sans-Serif" font-size="10.00">/doxygen/src/conceptdef.cpp</text>
</a>
</g>
</g>
<!-- Node15&#45;&gt;Node18 -->
<g id="edge18" class="edge">
<title>Node15&#45;&gt;Node18</title>
<path fill="none" stroke="#63b8ff" d="M3249.24,-146.39C3334.79,-144.27 3467.76,-134.22 3576,-96 3599.72,-87.62 3599.92,-73.28 3624,-66 3756.25,-25.99 4729.44,-43 4867,-30 4870.05,-29.71 4873.15,-29.38 4876.28,-29.02"/>
<polygon fill="#63b8ff" stroke="#63b8ff" points="3248.97,-142.9 3239.05,-146.61 3249.12,-149.9 3248.97,-142.9"/>
</g>
<!-- Node19 -->
<g id="node19" class="node">
<title>Node19</title>
<g id="a_node19"><a xlink:href="../../db/d12/context_8cpp.html" target="_top" xlink:title=" ">
<polygon fill="white" stroke="#666666" points="3458,-96 3304,-96 3304,-66 3458,-66 3458,-96"/>
<text text-anchor="start" x="3312" y="-84" font-family="Helvetica,sans-Serif" font-size="10.00">/home/runner/work/doxygen</text>
<text text-anchor="middle" x="3381" y="-73" font-family="Helvetica,sans-Serif" font-size="10.00">/doxygen/src/context.cpp</text>
</a>
</g>
</g>
<!-- Node15&#45;&gt;Node19 -->
<g id="edge19" class="edge">
<title>Node15&#45;&gt;Node19</title>
<path fill="none" stroke="#63b8ff" d="M3219.76,-129.12C3255.07,-118.8 3299.7,-105.76 3333.05,-96.01"/>
<polygon fill="#63b8ff" stroke="#63b8ff" points="3218.68,-125.79 3210.06,-131.95 3220.64,-132.51 3218.68,-125.79"/>
</g>
<!-- Node20 -->
<g id="node20" class="node">
<title>Node20</title>
<g id="a_node20"><a xlink:href="../../df/dc9/docparser__p_8h.html" target="_top" xlink:title="Private header shared between docparser.cpp and docnode.cpp.">
<polygon fill="white" stroke="#666666" points="1301,-96 1147,-96 1147,-66 1301,-66 1301,-96"/>
<text text-anchor="start" x="1155" y="-84" font-family="Helvetica,sans-Serif" font-size="10.00">/home/runner/work/doxygen</text>
<text text-anchor="middle" x="1224" y="-73" font-family="Helvetica,sans-Serif" font-size="10.00">/doxygen/src/docparser_p.h</text>
</a>
</g>
</g>
<!-- Node15&#45;&gt;Node20 -->
<g id="edge20" class="edge">
<title>Node15&#45;&gt;Node20</title>
<path fill="none" stroke="#63b8ff" d="M3074.84,-145.18C2817.63,-142.41 2039.47,-131.47 1395,-96 1364.37,-94.31 1330.7,-91.72 1301.4,-89.22"/>
<polygon fill="#63b8ff" stroke="#63b8ff" points="3074.83,-148.68 3084.87,-145.29 3074.9,-141.68 3074.83,-148.68"/>
</g>
<!-- Node22 -->
<g id="node22" class="node">
<title>Node22</title>
<g id="a_node22"><a xlink:href="../../d6/ddc/filedef_8cpp.html" target="_top" xlink:title=" ">
<polygon fill="white" stroke="#666666" points="1540,-30 1386,-30 1386,0 1540,0 1540,-30"/>
<text text-anchor="start" x="1394" y="-18" font-family="Helvetica,sans-Serif" font-size="10.00">/home/runner/work/doxygen</text>
<text text-anchor="middle" x="1463" y="-7" font-family="Helvetica,sans-Serif" font-size="10.00">/doxygen/src/filedef.cpp</text>
</a>
</g>
</g>
<!-- Node15&#45;&gt;Node22 -->
<g id="edge24" class="edge">
<title>Node15&#45;&gt;Node22</title>
<path fill="none" stroke="#63b8ff" d="M3074.56,-143.13C2902.76,-137.13 2509.15,-121.67 2179,-96 1898.31,-74.17 1828.05,-67.3 1549,-30 1546.15,-29.62 1543.25,-29.22 1540.32,-28.8"/>
<polygon fill="#63b8ff" stroke="#63b8ff" points="3074.69,-146.63 3084.81,-143.48 3074.93,-139.64 3074.69,-146.63"/>
</g>
<!-- Node23 -->
<g id="node23" class="node">
<title>Node23</title>
<g id="a_node23"><a xlink:href="../../d6/d42/groupdef_8cpp.html" target="_top" xlink:title=" ">
<polygon fill="white" stroke="#666666" points="1712,-30 1558,-30 1558,0 1712,0 1712,-30"/>
<text text-anchor="start" x="1566" y="-18" font-family="Helvetica,sans-Serif" font-size="10.00">/home/runner/work/doxygen</text>
<text text-anchor="middle" x="1635" y="-7" font-family="Helvetica,sans-Serif" font-size="10.00">/doxygen/src/groupdef.cpp</text>
</a>
</g>
</g>
<!-- Node15&#45;&gt;Node23 -->
<g id="edge25" class="edge">
<title>Node15&#45;&gt;Node23</title>
<path fill="none" stroke="#63b8ff" d="M3074.92,-138.83C2903.45,-124.73 2509.93,-92.47 2179,-66 1975.47,-49.72 1923.72,-54.42 1721,-30 1718.15,-29.66 1715.24,-29.29 1712.31,-28.9"/>
<polygon fill="#63b8ff" stroke="#63b8ff" points="3074.65,-142.32 3084.9,-139.65 3075.22,-135.34 3074.65,-142.32"/>
</g>
<!-- Node24 -->
<g id="node24" class="node">
<title>Node24</title>
<g id="a_node24"><a xlink:href="../../d0/d72/memberdef_8cpp.html" target="_top" xlink:title=" ">
<polygon fill="white" stroke="#666666" points="1888,-30 1730,-30 1730,0 1888,0 1888,-30"/>
<text text-anchor="start" x="1738" y="-18" font-family="Helvetica,sans-Serif" font-size="10.00">/home/runner/work/doxygen</text>
<text text-anchor="middle" x="1809" y="-7" font-family="Helvetica,sans-Serif" font-size="10.00">/doxygen/src/memberdef.cpp</text>
</a>
</g>
</g>
<!-- Node15&#45;&gt;Node24 -->
<g id="edge27" class="edge">
<title>Node15&#45;&gt;Node24</title>
<path fill="none" stroke="#63b8ff" d="M3074.65,-134.23C2999.87,-124.14 2889.35,-109.19 2793,-96 2696.54,-82.8 2672.92,-75.25 2576,-66 2275.17,-37.28 2197.53,-61.78 1897,-30 1894.08,-29.69 1891.1,-29.35 1888.1,-28.99"/>
<polygon fill="#63b8ff" stroke="#63b8ff" points="3074.58,-137.75 3084.96,-135.62 3075.51,-130.82 3074.58,-137.75"/>
</g>
<!-- Node25 -->
<g id="node25" class="node">
<title>Node25</title>
<g id="a_node25"><a xlink:href="../../d7/d1c/namespacedef_8cpp.html" target="_top" xlink:title=" ">
<polygon fill="white" stroke="#666666" points="2079.5,-30 1906.5,-30 1906.5,0 2079.5,0 2079.5,-30"/>
<text text-anchor="start" x="1914.5" y="-18" font-family="Helvetica,sans-Serif" font-size="10.00">/home/runner/work/doxygen</text>
<text text-anchor="middle" x="1993" y="-7" font-family="Helvetica,sans-Serif" font-size="10.00">/doxygen/src/namespacedef.cpp</text>
</a>
</g>
</g>
<!-- Node15&#45;&gt;Node25 -->
<g id="edge28" class="edge">
<title>Node15&#45;&gt;Node25</title>
<path fill="none" stroke="#63b8ff" d="M3100.3,-129.4C3027.46,-110.56 2902.38,-80.56 2793,-66 2482.44,-24.67 2400.8,-60.64 2089,-30 2085.9,-29.7 2082.74,-29.36 2079.56,-29"/>
<polygon fill="#63b8ff" stroke="#63b8ff" points="3099.66,-132.85 3110.22,-131.98 3101.43,-126.08 3099.66,-132.85"/>
</g>
<!-- Node26 -->
<g id="node26" class="node">
<title>Node26</title>
<g id="a_node26"><a xlink:href="../../d2/db9/outputlist_8h.html" target="_top" xlink:title=" ">
<polygon fill="white" stroke="#666666" points="3134,-96 2980,-96 2980,-66 3134,-66 3134,-96"/>
<text text-anchor="start" x="2988" y="-84" font-family="Helvetica,sans-Serif" font-size="10.00">/home/runner/work/doxygen</text>
<text text-anchor="middle" x="3057" y="-73" font-family="Helvetica,sans-Serif" font-size="10.00">/doxygen/src/outputlist.h</text>
</a>
</g>
</g>
<!-- Node15&#45;&gt;Node26 -->
<g id="edge29" class="edge">
<title>Node15&#45;&gt;Node26</title>
<path fill="none" stroke="#63b8ff" d="M3130.33,-126.69C3114.12,-116.82 3094.75,-105.01 3079.99,-96.01"/>
<polygon fill="#63b8ff" stroke="#63b8ff" points="3128.6,-129.74 3138.96,-131.95 3132.24,-123.76 3128.6,-129.74"/>
</g>
<!-- Node36 -->
<g id="node36" class="node">
<title>Node36</title>
<g id="a_node36"><a xlink:href="../../d3/ded/pycode_8l.html" target="_top" xlink:title=" ">
<polygon fill="white" stroke="#666666" points="3822,-30 3668,-30 3668,0 3822,0 3822,-30"/>
<text text-anchor="start" x="3676" y="-18" font-family="Helvetica,sans-Serif" font-size="10.00">/home/runner/work/doxygen</text>
<text text-anchor="middle" x="3745" y="-7" font-family="Helvetica,sans-Serif" font-size="10.00">/doxygen/src/pycode.l</text>
</a>
</g>
</g>
<!-- Node15&#45;&gt;Node36 -->
<g id="edge54" class="edge">
<title>Node15&#45;&gt;Node36</title>
<path fill="none" stroke="#63b8ff" d="M3162.36,-121.59C3164.05,-103.3 3169.55,-79.24 3186,-66 3227.06,-32.95 3606.66,-36.24 3659,-30 3661.85,-29.66 3664.76,-29.29 3667.69,-28.91"/>
<polygon fill="#63b8ff" stroke="#63b8ff" points="3158.85,-121.63 3161.75,-131.82 3165.84,-122.05 3158.85,-121.63"/>
</g>
<!-- Node37 -->
<g id="node37" class="node">
<title>Node37</title>
<g id="a_node37"><a xlink:href="../../d2/dda/sqlcode_8l.html" target="_top" xlink:title=" ">
<polygon fill="white" stroke="#666666" points="3994,-30 3840,-30 3840,0 3994,0 3994,-30"/>
<text text-anchor="start" x="3848" y="-18" font-family="Helvetica,sans-Serif" font-size="10.00">/home/runner/work/doxygen</text>
<text text-anchor="middle" x="3917" y="-7" font-family="Helvetica,sans-Serif" font-size="10.00">/doxygen/src/sqlcode.l</text>
</a>
</g>
</g>
<!-- Node15&#45;&gt;Node37 -->
<g id="edge56" class="edge">
<title>Node15&#45;&gt;Node37</title>
<path fill="none" stroke="#63b8ff" d="M3172.8,-123.07C3183.08,-104.13 3200.47,-78.41 3224,-66 3283.76,-34.48 3763.85,-37.44 3831,-30 3833.86,-29.68 3836.76,-29.34 3839.7,-28.97"/>
<polygon fill="#63b8ff" stroke="#63b8ff" points="3169.68,-121.5 3168.21,-131.99 3175.9,-124.7 3169.68,-121.5"/>
</g>
<!-- Node15&#45;&gt;Node38 -->
<g id="edge57" class="edge">
<title>Node15&#45;&gt;Node38</title>
<path fill="none" stroke="#63b8ff" d="M3249.59,-141.35C3361.7,-134.54 3549.2,-119.97 3614,-96 3636.2,-87.79 3635.48,-73.27 3658,-66 3804.29,-18.78 4887.96,-44.38 5041,-30 5043.86,-29.73 5046.77,-29.42 5049.71,-29.09"/>
<polygon fill="#63b8ff" stroke="#63b8ff" points="3249.09,-137.88 3239.32,-141.97 3249.51,-144.86 3249.09,-137.88"/>
</g>
<!-- Node39 -->
<g id="node39" class="node">
<title>Node39</title>
<g id="a_node39"><a xlink:href="../../d5/d6a/vhdlcode_8l.html" target="_top" xlink:title=" ">
<polygon fill="white" stroke="#666666" points="4166,-30 4012,-30 4012,0 4166,0 4166,-30"/>
<text text-anchor="start" x="4020" y="-18" font-family="Helvetica,sans-Serif" font-size="10.00">/home/runner/work/doxygen</text>
<text text-anchor="middle" x="4089" y="-7" font-family="Helvetica,sans-Serif" font-size="10.00">/doxygen/src/vhdlcode.l</text>
</a>
</g>
</g>
<!-- Node15&#45;&gt;Node39 -->
<g id="edge58" class="edge">
<title>Node15&#45;&gt;Node39</title>
<path fill="none" stroke="#63b8ff" d="M3187.13,-125.26C3215.29,-102.11 3257.6,-67.66 3262,-66 3416.2,-7.67 3839.05,-47.27 4003,-30 4005.86,-29.7 4008.77,-29.37 4011.7,-29.01"/>
<polygon fill="#63b8ff" stroke="#63b8ff" points="3184.75,-122.68 3179.26,-131.74 3189.2,-128.08 3184.75,-122.68"/>
</g>
<!-- Node40 -->
<g id="node40" class="node">
<title>Node40</title>
<g id="a_node40"><a xlink:href="../../de/dea/vhdldocgen_8cpp.html" target="_top" xlink:title=" ">
<polygon fill="white" stroke="#666666" points="4342,-30 4184,-30 4184,0 4342,0 4342,-30"/>
<text text-anchor="start" x="4192" y="-18" font-family="Helvetica,sans-Serif" font-size="10.00">/home/runner/work/doxygen</text>
<text text-anchor="middle" x="4263" y="-7" font-family="Helvetica,sans-Serif" font-size="10.00">/doxygen/src/vhdldocgen.cpp</text>
</a>
</g>
</g>
<!-- Node15&#45;&gt;Node40 -->
<g id="edge59" class="edge">
<title>Node15&#45;&gt;Node40</title>
<path fill="none" stroke="#63b8ff" d="M3200.76,-127.23C3218.05,-118.39 3238.43,-107.32 3256,-96 3274.38,-84.16 3274.44,-73.46 3295,-66 3386.98,-32.6 4077.62,-39.7 4175,-30 4177.92,-29.71 4180.9,-29.38 4183.9,-29.03"/>
<polygon fill="#63b8ff" stroke="#63b8ff" points="3198.86,-124.27 3191.51,-131.9 3202.01,-130.51 3198.86,-124.27"/>
</g>
<!-- Node41 -->
<g id="node41" class="node">
<title>Node41</title>
<g id="a_node41"><a xlink:href="../../dc/dc1/xmlcode_8l.html" target="_top" xlink:title=" ">
<polygon fill="white" stroke="#666666" points="4514,-30 4360,-30 4360,0 4514,0 4514,-30"/>
<text text-anchor="start" x="4368" y="-18" font-family="Helvetica,sans-Serif" font-size="10.00">/home/runner/work/doxygen</text>
<text text-anchor="middle" x="4437" y="-7" font-family="Helvetica,sans-Serif" font-size="10.00">/doxygen/src/xmlcode.l</text>
</a>
</g>
</g>
<!-- Node15&#45;&gt;Node41 -->
<g id="edge61" class="edge">
<title>Node15&#45;&gt;Node41</title>
<path fill="none" stroke="#63b8ff" d="M3249.35,-141.99C3311.9,-136.69 3397.07,-124.41 3467,-96 3488.59,-87.23 3487.92,-73.46 3510,-66 3687.21,-6.1 4164.91,-49.06 4351,-30 4353.86,-29.71 4356.77,-29.38 4359.7,-29.03"/>
<polygon fill="#63b8ff" stroke="#63b8ff" points="3248.81,-138.53 3239.12,-142.82 3249.37,-145.5 3248.81,-138.53"/>
</g>
<!-- Node20&#45;&gt;Node8 -->
<g id="edge21" class="edge">
<title>Node20&#45;&gt;Node8</title>
<path fill="none" stroke="#63b8ff" d="M1136.56,-68.82C1061.74,-59.09 951.18,-44.34 855,-30 852.16,-29.58 849.26,-29.14 846.34,-28.69"/>
<polygon fill="#63b8ff" stroke="#63b8ff" points="1136.51,-72.34 1146.88,-70.16 1137.41,-65.4 1136.51,-72.34"/>
</g>
<!-- Node21 -->
<g id="node21" class="node">
<title>Node21</title>
<g id="a_node21"><a xlink:href="../../da/d17/docparser_8cpp.html" target="_top" xlink:title=" ">
<polygon fill="white" stroke="#666666" points="1196,-30 1042,-30 1042,0 1196,0 1196,-30"/>
<text text-anchor="start" x="1050" y="-18" font-family="Helvetica,sans-Serif" font-size="10.00">/home/runner/work/doxygen</text>
<text text-anchor="middle" x="1119" y="-7" font-family="Helvetica,sans-Serif" font-size="10.00">/doxygen/src/docparser.cpp</text>
</a>
</g>
</g>
<!-- Node20&#45;&gt;Node21 -->
<g id="edge22" class="edge">
<title>Node20&#45;&gt;Node21</title>
<path fill="none" stroke="#63b8ff" d="M1192.33,-60.69C1176.12,-50.82 1156.75,-39.01 1141.99,-30.01"/>
<polygon fill="#63b8ff" stroke="#63b8ff" points="1190.6,-63.74 1200.96,-65.95 1194.24,-57.76 1190.6,-63.74"/>
</g>
<!-- Node26&#45;&gt;Node9 -->
<g id="edge36" class="edge">
<title>Node26&#45;&gt;Node9</title>
<path fill="none" stroke="#63b8ff" d="M2969.5,-78.92C2670.5,-74.98 1690.61,-60.06 1377,-30 1374.14,-29.73 1371.23,-29.42 1368.29,-29.07"/>
<polygon fill="#63b8ff" stroke="#63b8ff" points="2969.8,-82.42 2979.84,-79.05 2969.89,-75.42 2969.8,-82.42"/>
</g>
<!-- Node26&#45;&gt;Node13 -->
<g id="edge52" class="edge">
<title>Node26&#45;&gt;Node13</title>
<path fill="none" stroke="#63b8ff" d="M2969.76,-79.37C2633.02,-76.71 1417.58,-64.85 1033,-30 1029.88,-29.72 1026.71,-29.39 1023.51,-29.04"/>
<polygon fill="#63b8ff" stroke="#63b8ff" points="2969.91,-82.87 2979.94,-79.45 2969.97,-75.87 2969.91,-82.87"/>
</g>
<!-- Node26&#45;&gt;Node16 -->
<g id="edge30" class="edge">
<title>Node26&#45;&gt;Node16</title>
<path fill="none" stroke="#63b8ff" d="M3144.17,-74.26C3189.19,-71.45 3245.02,-68.2 3295,-66 3840.48,-41.97 3979.47,-81.98 4523,-30 4525.86,-29.73 4528.77,-29.42 4531.71,-29.08"/>
<polygon fill="#63b8ff" stroke="#63b8ff" points="3143.91,-70.77 3134.14,-74.89 3144.34,-77.75 3143.91,-70.77"/>
</g>
<!-- Node26&#45;&gt;Node17 -->
<g id="edge32" class="edge">
<title>Node26&#45;&gt;Node17</title>
<path fill="none" stroke="#63b8ff" d="M3144.16,-74.18C3189.19,-71.35 3245.02,-68.11 3295,-66 3916.87,-39.72 4075.29,-88.14 4695,-30 4697.86,-29.73 4700.77,-29.43 4703.71,-29.09"/>
<polygon fill="#63b8ff" stroke="#63b8ff" points="3143.9,-70.69 3134.14,-74.82 3144.34,-77.68 3143.9,-70.69"/>
</g>
<!-- Node26&#45;&gt;Node18 -->
<g id="edge33" class="edge">
<title>Node26&#45;&gt;Node18</title>
<path fill="none" stroke="#63b8ff" d="M3144.16,-74.12C3189.18,-71.28 3245.02,-68.04 3295,-66 3993.27,-37.48 4171.06,-93.66 4867,-30 4870.05,-29.72 4873.15,-29.4 4876.28,-29.05"/>
<polygon fill="#63b8ff" stroke="#63b8ff" points="3143.9,-70.63 3134.14,-74.76 3144.34,-77.62 3143.9,-70.63"/>
</g>
<!-- Node26&#45;&gt;Node22 -->
<g id="edge37" class="edge">
<title>Node26&#45;&gt;Node22</title>
<path fill="none" stroke="#63b8ff" d="M2969.56,-78.58C2691.16,-73.81 1827.45,-57.17 1549,-30 1546.14,-29.72 1543.23,-29.41 1540.29,-29.06"/>
<polygon fill="#63b8ff" stroke="#63b8ff" points="2969.55,-82.08 2979.61,-78.75 2969.67,-75.08 2969.55,-82.08"/>
</g>
<!-- Node26&#45;&gt;Node23 -->
<g id="edge39" class="edge">
<title>Node26&#45;&gt;Node23</title>
<path fill="none" stroke="#63b8ff" d="M2969.86,-77.37C2693.01,-68.92 1844.41,-42.31 1721,-30 1718.14,-29.71 1715.23,-29.39 1712.3,-29.05"/>
<polygon fill="#63b8ff" stroke="#63b8ff" points="2969.76,-80.87 2979.86,-77.67 2969.97,-73.87 2969.76,-80.87"/>
</g>
<!-- Node26&#45;&gt;Node24 -->
<g id="edge41" class="edge">
<title>Node26&#45;&gt;Node24</title>
<path fill="none" stroke="#63b8ff" d="M2969.82,-75.1C2918.38,-72.27 2851.99,-68.75 2793,-66 2394.89,-47.45 2293.59,-69.38 1897,-30 1894.08,-29.71 1891.1,-29.39 1888.1,-29.03"/>
<polygon fill="#63b8ff" stroke="#63b8ff" points="2969.73,-78.6 2979.9,-75.65 2970.11,-71.61 2969.73,-78.6"/>
</g>
<!-- Node26&#45;&gt;Node25 -->
<g id="edge44" class="edge">
<title>Node26&#45;&gt;Node25</title>
<path fill="none" stroke="#63b8ff" d="M2969.76,-70.25C2953.57,-68.65 2936.78,-67.15 2921,-66 2551.86,-39.04 2457.49,-64.75 2089,-30 2085.9,-29.71 2082.74,-29.38 2079.56,-29.04"/>
<polygon fill="#63b8ff" stroke="#63b8ff" points="2969.46,-73.73 2979.75,-71.24 2970.15,-66.77 2969.46,-73.73"/>
</g>
<!-- Node27 -->
<g id="node27" class="node">
<title>Node27</title>
<g id="a_node27"><a xlink:href="../../d6/d10/classlist_8cpp.html" target="_top" xlink:title=" ">
<polygon fill="white" stroke="#666666" points="3134,-30 2980,-30 2980,0 3134,0 3134,-30"/>
<text text-anchor="start" x="2988" y="-18" font-family="Helvetica,sans-Serif" font-size="10.00">/home/runner/work/doxygen</text>
<text text-anchor="middle" x="3057" y="-7" font-family="Helvetica,sans-Serif" font-size="10.00">/doxygen/src/classlist.cpp</text>
</a>
</g>
</g>
<!-- Node26&#45;&gt;Node27 -->
<g id="edge31" class="edge">
<title>Node26&#45;&gt;Node27</title>
<path fill="none" stroke="#63b8ff" d="M3057,-55.54C3057,-46.96 3057,-37.61 3057,-30.16"/>
<polygon fill="#63b8ff" stroke="#63b8ff" points="3053.5,-55.8 3057,-65.8 3060.5,-55.8 3053.5,-55.8"/>
</g>
<!-- Node28 -->
<g id="node28" class="node">
<title>Node28</title>
<g id="a_node28"><a xlink:href="../../d3/dea/definition_8cpp.html" target="_top" xlink:title=" ">
<polygon fill="white" stroke="#666666" points="3306,-30 3152,-30 3152,0 3306,0 3306,-30"/>
<text text-anchor="start" x="3160" y="-18" font-family="Helvetica,sans-Serif" font-size="10.00">/home/runner/work/doxygen</text>
<text text-anchor="middle" x="3229" y="-7" font-family="Helvetica,sans-Serif" font-size="10.00">/doxygen/src/definition.cpp</text>
</a>
</g>
</g>
<!-- Node26&#45;&gt;Node28 -->
<g id="edge34" class="edge">
<title>Node26&#45;&gt;Node28</title>
<path fill="none" stroke="#63b8ff" d="M3104.15,-62.46C3131.59,-52.25 3165.71,-39.55 3191.34,-30.01"/>
<polygon fill="#63b8ff" stroke="#63b8ff" points="3102.9,-59.19 3094.75,-65.95 3105.34,-65.75 3102.9,-59.19"/>
</g>
<!-- Node29 -->
<g id="node29" class="node">
<title>Node29</title>
<g id="a_node29"><a xlink:href="../../d8/d52/dirdef_8cpp.html" target="_top" xlink:title=" ">
<polygon fill="white" stroke="#666666" points="3478,-30 3324,-30 3324,0 3478,0 3478,-30"/>
<text text-anchor="start" x="3332" y="-18" font-family="Helvetica,sans-Serif" font-size="10.00">/home/runner/work/doxygen</text>
<text text-anchor="middle" x="3401" y="-7" font-family="Helvetica,sans-Serif" font-size="10.00">/doxygen/src/dirdef.cpp</text>
</a>
</g>
</g>
<!-- Node26&#45;&gt;Node29 -->
<g id="edge35" class="edge">
<title>Node26&#45;&gt;Node29</title>
<path fill="none" stroke="#63b8ff" d="M3142.43,-64.11C3198.67,-53.64 3271.62,-40.07 3325.68,-30.01"/>
<polygon fill="#63b8ff" stroke="#63b8ff" points="3141.68,-60.68 3132.49,-65.95 3142.96,-67.57 3141.68,-60.68"/>
</g>
<!-- Node30 -->
<g id="node30" class="node">
<title>Node30</title>
<g id="a_node30"><a xlink:href="../../d9/d5b/fortrancode_8l.html" target="_top" xlink:title=" ">
<polygon fill="white" stroke="#666666" points="3650,-30 3496,-30 3496,0 3650,0 3650,-30"/>
<text text-anchor="start" x="3504" y="-18" font-family="Helvetica,sans-Serif" font-size="10.00">/home/runner/work/doxygen</text>
<text text-anchor="middle" x="3573" y="-7" font-family="Helvetica,sans-Serif" font-size="10.00">/doxygen/src/fortrancode.l</text>
</a>
</g>
</g>
<!-- Node26&#45;&gt;Node30 -->
<g id="edge38" class="edge">
<title>Node26&#45;&gt;Node30</title>
<path fill="none" stroke="#63b8ff" d="M3144.65,-66.44C3145.77,-66.29 3146.89,-66.14 3148,-66 3298.25,-46.48 3336.84,-50.18 3487,-30 3489.85,-29.62 3492.75,-29.21 3495.68,-28.8"/>
<polygon fill="#63b8ff" stroke="#63b8ff" points="3143.85,-63.02 3134.41,-67.84 3144.79,-69.95 3143.85,-63.02"/>
</g>
<!-- Node31 -->
<g id="node31" class="node">
<title>Node31</title>
<g id="a_node31"><a xlink:href="../../db/d14/index_8cpp.html" target="_top" xlink:title="This file contains functions for the various index pages.">
<polygon fill="white" stroke="#666666" points="2252,-30 2098,-30 2098,0 2252,0 2252,-30"/>
<text text-anchor="start" x="2106" y="-18" font-family="Helvetica,sans-Serif" font-size="10.00">/home/runner/work/doxygen</text>
<text text-anchor="middle" x="2175" y="-7" font-family="Helvetica,sans-Serif" font-size="10.00">/doxygen/src/index.cpp</text>
</a>
</g>
</g>
<!-- Node26&#45;&gt;Node31 -->
<g id="edge40" class="edge">
<title>Node26&#45;&gt;Node31</title>
<path fill="none" stroke="#63b8ff" d="M2969.75,-70.39C2953.56,-68.79 2936.77,-67.24 2921,-66 2628.14,-42.95 2553.06,-61.65 2261,-30 2258.14,-29.69 2255.24,-29.35 2252.3,-28.98"/>
<polygon fill="#63b8ff" stroke="#63b8ff" points="2969.44,-73.88 2979.74,-71.4 2970.14,-66.91 2969.44,-73.88"/>
</g>
<!-- Node32 -->
<g id="node32" class="node">
<title>Node32</title>
<g id="a_node32"><a xlink:href="../../d6/d18/membergroup_8cpp.html" target="_top" xlink:title=" ">
<polygon fill="white" stroke="#666666" points="2441.5,-30 2270.5,-30 2270.5,0 2441.5,0 2441.5,-30"/>
<text text-anchor="start" x="2278.5" y="-18" font-family="Helvetica,sans-Serif" font-size="10.00">/home/runner/work/doxygen</text>
<text text-anchor="middle" x="2356" y="-7" font-family="Helvetica,sans-Serif" font-size="10.00">/doxygen/src/membergroup.cpp</text>
</a>
</g>
</g>
<!-- Node26&#45;&gt;Node32 -->
<g id="edge42" class="edge">
<title>Node26&#45;&gt;Node32</title>
<path fill="none" stroke="#63b8ff" d="M2969.73,-70.67C2953.53,-69.04 2936.76,-67.41 2921,-66 2712.34,-47.27 2659.2,-53.29 2451,-30 2447.93,-29.66 2444.82,-29.29 2441.67,-28.91"/>
<polygon fill="#63b8ff" stroke="#63b8ff" points="2969.42,-74.16 2979.72,-71.69 2970.12,-67.2 2969.42,-74.16"/>
</g>
<!-- Node33 -->
<g id="node33" class="node">
<title>Node33</title>
<g id="a_node33"><a xlink:href="../../d0/d14/memberlist_8cpp.html" target="_top" xlink:title=" ">
<polygon fill="white" stroke="#666666" points="2618,-30 2460,-30 2460,0 2618,0 2618,-30"/>
<text text-anchor="start" x="2468" y="-18" font-family="Helvetica,sans-Serif" font-size="10.00">/home/runner/work/doxygen</text>
<text text-anchor="middle" x="2539" y="-7" font-family="Helvetica,sans-Serif" font-size="10.00">/doxygen/src/memberlist.cpp</text>
</a>
</g>
</g>
<!-- Node26&#45;&gt;Node33 -->
<g id="edge43" class="edge">
<title>Node26&#45;&gt;Node33</title>
<path fill="none" stroke="#63b8ff" d="M2969.89,-70.96C2882.93,-61.67 2745.53,-46.31 2627,-30 2624.09,-29.6 2621.12,-29.18 2618.13,-28.75"/>
<polygon fill="#63b8ff" stroke="#63b8ff" points="2969.66,-74.45 2979.98,-72.03 2970.4,-67.49 2969.66,-74.45"/>
</g>
<!-- Node34 -->
<g id="node34" class="node">
<title>Node34</title>
<g id="a_node34"><a xlink:href="../../db/dd8/outputlist_8cpp.html" target="_top" xlink:title=" ">
<polygon fill="white" stroke="#666666" points="2790,-30 2636,-30 2636,0 2790,0 2790,-30"/>
<text text-anchor="start" x="2644" y="-18" font-family="Helvetica,sans-Serif" font-size="10.00">/home/runner/work/doxygen</text>
<text text-anchor="middle" x="2713" y="-7" font-family="Helvetica,sans-Serif" font-size="10.00">/doxygen/src/outputlist.cpp</text>
</a>
</g>
</g>
<!-- Node26&#45;&gt;Node34 -->
<g id="edge45" class="edge">
<title>Node26&#45;&gt;Node34</title>
<path fill="none" stroke="#63b8ff" d="M2971.57,-64.11C2915.33,-53.64 2842.38,-40.07 2788.32,-30.01"/>
<polygon fill="#63b8ff" stroke="#63b8ff" points="2971.04,-67.57 2981.51,-65.95 2972.32,-60.68 2971.04,-67.57"/>
</g>
<!-- Node35 -->
<g id="node35" class="node">
<title>Node35</title>
<g id="a_node35"><a xlink:href="../../d9/db4/pagedef_8cpp.html" target="_top" xlink:title=" ">
<polygon fill="white" stroke="#666666" points="2962,-30 2808,-30 2808,0 2962,0 2962,-30"/>
<text text-anchor="start" x="2816" y="-18" font-family="Helvetica,sans-Serif" font-size="10.00">/home/runner/work/doxygen</text>
<text text-anchor="middle" x="2885" y="-7" font-family="Helvetica,sans-Serif" font-size="10.00">/doxygen/src/pagedef.cpp</text>
</a>
</g>
</g>
<!-- Node26&#45;&gt;Node35 -->
<g id="edge46" class="edge">
<title>Node26&#45;&gt;Node35</title>
<path fill="none" stroke="#63b8ff" d="M3009.85,-62.46C2982.41,-52.25 2948.29,-39.55 2922.66,-30.01"/>
<polygon fill="#63b8ff" stroke="#63b8ff" points="3008.66,-65.75 3019.25,-65.95 3011.1,-59.19 3008.66,-65.75"/>
</g>
<!-- Node26&#45;&gt;Node36 -->
<g id="edge47" class="edge">
<title>Node26&#45;&gt;Node36</title>
<path fill="none" stroke="#63b8ff" d="M3144.64,-66.38C3145.77,-66.25 3146.89,-66.12 3148,-66 3374.26,-40.67 3432.85,-56.32 3659,-30 3661.85,-29.67 3664.76,-29.31 3667.69,-28.93"/>
<polygon fill="#63b8ff" stroke="#63b8ff" points="3143.88,-62.95 3134.39,-67.65 3144.74,-69.9 3143.88,-62.95"/>
</g>
<!-- Node26&#45;&gt;Node37 -->
<g id="edge48" class="edge">
<title>Node26&#45;&gt;Node37</title>
<path fill="none" stroke="#63b8ff" d="M3144.13,-69.92C3158.12,-68.48 3172.45,-67.11 3186,-66 3472.15,-42.5 3545.58,-61.11 3831,-30 3833.86,-29.69 3836.76,-29.35 3839.7,-28.98"/>
<polygon fill="#63b8ff" stroke="#63b8ff" points="3143.6,-66.45 3134.02,-70.97 3144.33,-73.42 3143.6,-66.45"/>
</g>
<!-- Node26&#45;&gt;Node38 -->
<g id="edge49" class="edge">
<title>Node26&#45;&gt;Node38</title>
<path fill="none" stroke="#63b8ff" d="M3144.16,-74.07C3189.18,-71.22 3245.01,-67.98 3295,-66 4070.55,-35.21 4268.05,-100.53 5041,-30 5043.86,-29.74 5046.77,-29.44 5049.71,-29.11"/>
<polygon fill="#63b8ff" stroke="#63b8ff" points="3143.89,-70.58 3134.14,-74.72 3144.34,-77.57 3143.89,-70.58"/>
</g>
<!-- Node26&#45;&gt;Node39 -->
<g id="edge50" class="edge">
<title>Node26&#45;&gt;Node39</title>
<path fill="none" stroke="#63b8ff" d="M3144.35,-72.06C3170,-69.89 3198.11,-67.68 3224,-66 3569.86,-43.52 3658.27,-65.9 4003,-30 4005.86,-29.7 4008.77,-29.37 4011.7,-29.01"/>
<polygon fill="#63b8ff" stroke="#63b8ff" points="3143.95,-68.58 3134.28,-72.91 3144.54,-75.55 3143.95,-68.58"/>
</g>
<!-- Node26&#45;&gt;Node40 -->
<g id="edge51" class="edge">
<title>Node26&#45;&gt;Node40</title>
<path fill="none" stroke="#63b8ff" d="M3144.43,-73.47C3180.78,-70.9 3223.42,-68.08 3262,-66 3667.51,-44.16 3770.88,-69.97 4175,-30 4177.93,-29.71 4180.9,-29.39 4183.9,-29.04"/>
<polygon fill="#63b8ff" stroke="#63b8ff" points="3144.08,-69.99 3134.36,-74.19 3144.58,-76.97 3144.08,-69.99"/>
</g>
<!-- Node26&#45;&gt;Node41 -->
<g id="edge53" class="edge">
<title>Node26&#45;&gt;Node41</title>
<path fill="none" stroke="#63b8ff" d="M3144.17,-74.36C3189.19,-71.57 3245.03,-68.32 3295,-66 3764.1,-44.21 3883.63,-75.82 4351,-30 4353.86,-29.72 4356.77,-29.4 4359.71,-29.06"/>
<polygon fill="#63b8ff" stroke="#63b8ff" points="3143.91,-70.86 3134.15,-74.98 3144.35,-77.85 3143.91,-70.86"/>
</g>
</g>
</svg>
