<?xml version="1.0" encoding="UTF-8" standalone="no"?>
<!DOCTYPE svg PUBLIC "-//W3C//DTD SVG 1.1//EN"
 "http://www.w3.org/Graphics/SVG/1.1/DTD/svg11.dtd">
<!-- Generated by graphviz version 2.43.0 (0)
 -->
<!-- Title: /home/runner/work/doxygen/doxygen/src/growbuf.h Pages: 1 -->
<svg width="4863pt" height="236pt"
 viewBox="0.00 0.00 4863.00 236.00" xmlns="http://www.w3.org/2000/svg" xmlns:xlink="http://www.w3.org/1999/xlink">
<g id="graph0" class="graph" transform="scale(1 1) rotate(0) translate(4 232)">
<title>/home/runner/work/doxygen/doxygen/src/growbuf.h</title>
<!-- Node1 -->
<g id="node1" class="node">
<title>Node1</title>
<g id="a_node1"><a xlink:title=" ">
<polygon fill="#999999" stroke="#666666" points="1164,-228 1010,-228 1010,-198 1164,-198 1164,-228"/>
<text text-anchor="start" x="1018" y="-216" font-family="Helvetica,sans-Serif" font-size="10.00">/home/runner/work/doxygen</text>
<text text-anchor="middle" x="1087" y="-205" font-family="Helvetica,sans-Serif" font-size="10.00">/doxygen/src/growbuf.h</text>
</a>
</g>
</g>
<!-- Node2 -->
<g id="node2" class="node">
<title>Node2</title>
<g id="a_node2"><a xlink:href="../../d5/d0b/cite_8cpp.html" target="_top" xlink:title=" ">
<polygon fill="white" stroke="#666666" points="154,-162 0,-162 0,-132 154,-132 154,-162"/>
<text text-anchor="start" x="8" y="-150" font-family="Helvetica,sans-Serif" font-size="10.00">/home/runner/work/doxygen</text>
<text text-anchor="middle" x="77" y="-139" font-family="Helvetica,sans-Serif" font-size="10.00">/doxygen/src/cite.cpp</text>
</a>
</g>
</g>
<!-- Node1&#45;&gt;Node2 -->
<g id="edge1" class="edge">
<title>Node1&#45;&gt;Node2</title>
<path fill="none" stroke="#63b8ff" d="M999.76,-210.4C835.54,-206.69 469.44,-195.14 163,-162 160.14,-161.69 157.24,-161.35 154.3,-160.99"/>
<polygon fill="#63b8ff" stroke="#63b8ff" points="999.73,-213.9 1009.81,-210.62 999.89,-206.9 999.73,-213.9"/>
</g>
<!-- Node3 -->
<g id="node3" class="node">
<title>Node3</title>
<g id="a_node3"><a xlink:href="../../d7/d14/datetime_8cpp.html" target="_top" xlink:title=" ">
<polygon fill="white" stroke="#666666" points="326,-162 172,-162 172,-132 326,-132 326,-162"/>
<text text-anchor="start" x="180" y="-150" font-family="Helvetica,sans-Serif" font-size="10.00">/home/runner/work/doxygen</text>
<text text-anchor="middle" x="249" y="-139" font-family="Helvetica,sans-Serif" font-size="10.00">/doxygen/src/datetime.cpp</text>
</a>
</g>
</g>
<!-- Node1&#45;&gt;Node3 -->
<g id="edge2" class="edge">
<title>Node1&#45;&gt;Node3</title>
<path fill="none" stroke="#63b8ff" d="M999.65,-208.89C859.22,-203.28 574.69,-189.42 335,-162 332.14,-161.67 329.24,-161.32 326.31,-160.94"/>
<polygon fill="#63b8ff" stroke="#63b8ff" points="999.79,-212.4 1009.92,-209.29 1000.07,-205.4 999.79,-212.4"/>
</g>
<!-- Node4 -->
<g id="node4" class="node">
<title>Node4</title>
<g id="a_node4"><a xlink:href="../../da/d0d/diagram_8cpp.html" target="_top" xlink:title=" ">
<polygon fill="white" stroke="#666666" points="498,-162 344,-162 344,-132 498,-132 498,-162"/>
<text text-anchor="start" x="352" y="-150" font-family="Helvetica,sans-Serif" font-size="10.00">/home/runner/work/doxygen</text>
<text text-anchor="middle" x="421" y="-139" font-family="Helvetica,sans-Serif" font-size="10.00">/doxygen/src/diagram.cpp</text>
</a>
</g>
</g>
<!-- Node1&#45;&gt;Node4 -->
<g id="edge3" class="edge">
<title>Node1&#45;&gt;Node4</title>
<path fill="none" stroke="#63b8ff" d="M999.84,-206.54C886.17,-198.95 681.27,-183.67 507,-162 504.15,-161.65 501.25,-161.27 498.32,-160.87"/>
<polygon fill="#63b8ff" stroke="#63b8ff" points="999.66,-210.04 1009.87,-207.21 1000.13,-203.05 999.66,-210.04"/>
</g>
<!-- Node5 -->
<g id="node5" class="node">
<title>Node5</title>
<g id="a_node5"><a xlink:href="../../d8/d29/docbookgen_8cpp.html" target="_top" xlink:title=" ">
<polygon fill="white" stroke="#666666" points="677.5,-162 516.5,-162 516.5,-132 677.5,-132 677.5,-162"/>
<text text-anchor="start" x="524.5" y="-150" font-family="Helvetica,sans-Serif" font-size="10.00">/home/runner/work/doxygen</text>
<text text-anchor="middle" x="597" y="-139" font-family="Helvetica,sans-Serif" font-size="10.00">/doxygen/src/docbookgen.cpp</text>
</a>
</g>
</g>
<!-- Node1&#45;&gt;Node5 -->
<g id="edge4" class="edge">
<title>Node1&#45;&gt;Node5</title>
<path fill="none" stroke="#63b8ff" d="M999.46,-201.9C918.15,-192.33 793.76,-177.19 686,-162 683.21,-161.61 680.38,-161.2 677.51,-160.78"/>
<polygon fill="#63b8ff" stroke="#63b8ff" points="999.31,-205.41 1009.65,-203.1 1000.13,-198.46 999.31,-205.41"/>
</g>
<!-- Node6 -->
<g id="node6" class="node">
<title>Node6</title>
<g id="a_node6"><a xlink:href="../../dc/d05/docbookvisitor_8cpp.html" target="_top" xlink:title=" ">
<polygon fill="white" stroke="#666666" points="868.5,-162 695.5,-162 695.5,-132 868.5,-132 868.5,-162"/>
<text text-anchor="start" x="703.5" y="-150" font-family="Helvetica,sans-Serif" font-size="10.00">/home/runner/work/doxygen</text>
<text text-anchor="middle" x="782" y="-139" font-family="Helvetica,sans-Serif" font-size="10.00">/doxygen/src/docbookvisitor.cpp</text>
</a>
</g>
</g>
<!-- Node1&#45;&gt;Node6 -->
<g id="edge5" class="edge">
<title>Node1&#45;&gt;Node6</title>
<path fill="none" stroke="#63b8ff" d="M1010.01,-195.84C960.32,-185.42 896.32,-171.99 848.78,-162.01"/>
<polygon fill="#63b8ff" stroke="#63b8ff" points="1009.56,-199.33 1020.07,-197.95 1011,-192.48 1009.56,-199.33"/>
</g>
<!-- Node7 -->
<g id="node7" class="node">
<title>Node7</title>
<g id="a_node7"><a xlink:href="../../da/db0/htmldocvisitor_8cpp.html" target="_top" xlink:title=" ">
<polygon fill="white" stroke="#666666" points="1059,-162 887,-162 887,-132 1059,-132 1059,-162"/>
<text text-anchor="start" x="895" y="-150" font-family="Helvetica,sans-Serif" font-size="10.00">/home/runner/work/doxygen</text>
<text text-anchor="middle" x="973" y="-139" font-family="Helvetica,sans-Serif" font-size="10.00">/doxygen/src/htmldocvisitor.cpp</text>
</a>
</g>
</g>
<!-- Node1&#45;&gt;Node7 -->
<g id="edge6" class="edge">
<title>Node1&#45;&gt;Node7</title>
<path fill="none" stroke="#63b8ff" d="M1053.1,-192.97C1035.4,-183.03 1014.13,-171.09 997.96,-162.01"/>
<polygon fill="#63b8ff" stroke="#63b8ff" points="1051.55,-196.11 1061.98,-197.95 1054.98,-190.01 1051.55,-196.11"/>
</g>
<!-- Node8 -->
<g id="node8" class="node">
<title>Node8</title>
<g id="a_node8"><a xlink:href="../../d8/d6e/htmlgen_8cpp.html" target="_top" xlink:title=" ">
<polygon fill="white" stroke="#666666" points="1721,-96 1567,-96 1567,-66 1721,-66 1721,-96"/>
<text text-anchor="start" x="1575" y="-84" font-family="Helvetica,sans-Serif" font-size="10.00">/home/runner/work/doxygen</text>
<text text-anchor="middle" x="1644" y="-73" font-family="Helvetica,sans-Serif" font-size="10.00">/doxygen/src/htmlgen.cpp</text>
</a>
</g>
</g>
<!-- Node1&#45;&gt;Node8 -->
<g id="edge7" class="edge">
<title>Node1&#45;&gt;Node8</title>
<path fill="none" stroke="#63b8ff" d="M1157.17,-195.62C1267.53,-169.87 1479.78,-120.33 1583.69,-96.08"/>
<polygon fill="#63b8ff" stroke="#63b8ff" points="1156.08,-192.28 1147.14,-197.96 1157.67,-199.1 1156.08,-192.28"/>
</g>
<!-- Node9 -->
<g id="node9" class="node">
<title>Node9</title>
<g id="a_node9"><a xlink:href="../../de/d04/markdown_8cpp.html" target="_top" xlink:title=" ">
<polygon fill="white" stroke="#666666" points="642,-96 488,-96 488,-66 642,-66 642,-96"/>
<text text-anchor="start" x="496" y="-84" font-family="Helvetica,sans-Serif" font-size="10.00">/home/runner/work/doxygen</text>
<text text-anchor="middle" x="565" y="-73" font-family="Helvetica,sans-Serif" font-size="10.00">/doxygen/src/markdown.cpp</text>
</a>
</g>
</g>
<!-- Node1&#45;&gt;Node9 -->
<g id="edge8" class="edge">
<title>Node1&#45;&gt;Node9</title>
<path fill="none" stroke="#63b8ff" d="M1088.23,-187.78C1087.72,-169.59 1083.74,-145.58 1068,-132 1032.79,-101.62 697.15,-101.74 651,-96 648.15,-95.65 645.25,-95.27 642.32,-94.87"/>
<polygon fill="#63b8ff" stroke="#63b8ff" points="1084.73,-187.93 1088.18,-197.94 1091.73,-187.96 1084.73,-187.93"/>
</g>
<!-- Node10 -->
<g id="node10" class="node">
<title>Node10</title>
<g id="a_node10"><a xlink:href="../../d2/d0c/markdown_8h.html" target="_top" xlink:title=" ">
<polygon fill="white" stroke="#666666" points="1269,-162 1115,-162 1115,-132 1269,-132 1269,-162"/>
<text text-anchor="start" x="1123" y="-150" font-family="Helvetica,sans-Serif" font-size="10.00">/home/runner/work/doxygen</text>
<text text-anchor="middle" x="1192" y="-139" font-family="Helvetica,sans-Serif" font-size="10.00">/doxygen/src/markdown.h</text>
</a>
</g>
</g>
<!-- Node1&#45;&gt;Node10 -->
<g id="edge9" class="edge">
<title>Node1&#45;&gt;Node10</title>
<path fill="none" stroke="#63b8ff" d="M1118.67,-192.69C1134.88,-182.82 1154.25,-171.01 1169.01,-162.01"/>
<polygon fill="#63b8ff" stroke="#63b8ff" points="1116.76,-189.76 1110.04,-197.95 1120.4,-195.74 1116.76,-189.76"/>
</g>
<!-- Node16 -->
<g id="node16" class="node">
<title>Node16</title>
<g id="a_node16"><a xlink:href="../../d1/d86/vhdljjparser_8cpp.html" target="_top" xlink:title=" ">
<polygon fill="white" stroke="#666666" points="1376.5,-96 1217.5,-96 1217.5,-66 1376.5,-66 1376.5,-96"/>
<text text-anchor="start" x="1225.5" y="-84" font-family="Helvetica,sans-Serif" font-size="10.00">/home/runner/work/doxygen</text>
<text text-anchor="middle" x="1297" y="-73" font-family="Helvetica,sans-Serif" font-size="10.00">/doxygen/src/vhdljjparser.cpp</text>
</a>
</g>
</g>
<!-- Node1&#45;&gt;Node16 -->
<g id="edge43" class="edge">
<title>Node1&#45;&gt;Node16</title>
<path fill="none" stroke="#63b8ff" d="M1174.08,-198.16C1217.13,-189.6 1263.02,-177.32 1278,-162 1295.26,-144.34 1297.87,-114.01 1297.75,-96.21"/>
<polygon fill="#63b8ff" stroke="#63b8ff" points="1173.24,-194.76 1164.09,-200.09 1174.57,-201.63 1173.24,-194.76"/>
</g>
<!-- Node17 -->
<g id="node17" class="node">
<title>Node17</title>
<g id="a_node17"><a xlink:href="../../d7/d79/searchindex_8cpp.html" target="_top" xlink:title=" ">
<polygon fill="white" stroke="#666666" points="1900.5,-96 1739.5,-96 1739.5,-66 1900.5,-66 1900.5,-96"/>
<text text-anchor="start" x="1747.5" y="-84" font-family="Helvetica,sans-Serif" font-size="10.00">/home/runner/work/doxygen</text>
<text text-anchor="middle" x="1820" y="-73" font-family="Helvetica,sans-Serif" font-size="10.00">/doxygen/src/searchindex.cpp</text>
</a>
</g>
</g>
<!-- Node1&#45;&gt;Node17 -->
<g id="edge17" class="edge">
<title>Node1&#45;&gt;Node17</title>
<path fill="none" stroke="#63b8ff" d="M1174.06,-197.4C1232.37,-187.55 1310.82,-174.19 1380,-162 1507.88,-139.46 1656.47,-112.23 1744.13,-96.05"/>
<polygon fill="#63b8ff" stroke="#63b8ff" points="1173.43,-193.95 1164.15,-199.07 1174.6,-200.86 1173.43,-193.95"/>
</g>
<!-- Node18 -->
<g id="node18" class="node">
<title>Node18</title>
<g id="a_node18"><a xlink:href="../../de/d07/searchindex_8h.html" target="_top" xlink:title="Web server based search engine.">
<polygon fill="white" stroke="#666666" points="3024,-162 2870,-162 2870,-132 3024,-132 3024,-162"/>
<text text-anchor="start" x="2878" y="-150" font-family="Helvetica,sans-Serif" font-size="10.00">/home/runner/work/doxygen</text>
<text text-anchor="middle" x="2947" y="-139" font-family="Helvetica,sans-Serif" font-size="10.00">/doxygen/src/searchindex.h</text>
</a>
</g>
</g>
<!-- Node1&#45;&gt;Node18 -->
<g id="edge18" class="edge">
<title>Node1&#45;&gt;Node18</title>
<path fill="none" stroke="#63b8ff" d="M1174.28,-209C1490.17,-198.13 2570.94,-160.94 2869.85,-150.65"/>
<polygon fill="#63b8ff" stroke="#63b8ff" points="1174.13,-205.5 1164.26,-209.34 1174.37,-212.5 1174.13,-205.5"/>
</g>
<!-- Node33 -->
<g id="node33" class="node">
<title>Node33</title>
<g id="a_node33"><a xlink:href="../../df/d2d/util_8cpp.html" target="_top" xlink:title=" ">
<polygon fill="white" stroke="#666666" points="4855,-96 4701,-96 4701,-66 4855,-66 4855,-96"/>
<text text-anchor="start" x="4709" y="-84" font-family="Helvetica,sans-Serif" font-size="10.00">/home/runner/work/doxygen</text>
<text text-anchor="middle" x="4778" y="-73" font-family="Helvetica,sans-Serif" font-size="10.00">/doxygen/src/util.cpp</text>
</a>
</g>
</g>
<!-- Node1&#45;&gt;Node33 -->
<g id="edge42" class="edge">
<title>Node1&#45;&gt;Node33</title>
<path fill="none" stroke="#63b8ff" d="M1174.66,-210.81C1655.64,-204.02 3978.45,-168 4692,-96 4694.86,-95.71 4697.77,-95.39 4700.7,-95.04"/>
<polygon fill="#63b8ff" stroke="#63b8ff" points="1174.27,-207.31 1164.32,-210.95 1174.36,-214.31 1174.27,-207.31"/>
</g>
<!-- Node10&#45;&gt;Node9 -->
<g id="edge13" class="edge">
<title>Node10&#45;&gt;Node9</title>
<path fill="none" stroke="#63b8ff" d="M1104.35,-132.4C1103.23,-132.26 1102.11,-132.13 1101,-132 901.71,-108.73 850.18,-120.14 651,-96 648.15,-95.65 645.24,-95.28 642.31,-94.89"/>
<polygon fill="#63b8ff" stroke="#63b8ff" points="1104.25,-135.91 1114.61,-133.7 1105.13,-128.97 1104.25,-135.91"/>
</g>
<!-- Node11 -->
<g id="node11" class="node">
<title>Node11</title>
<g id="a_node11"><a xlink:href="../../d0/d2b/docnode_8cpp.html" target="_top" xlink:title=" ">
<polygon fill="white" stroke="#666666" points="1758,-30 1604,-30 1604,0 1758,0 1758,-30"/>
<text text-anchor="start" x="1612" y="-18" font-family="Helvetica,sans-Serif" font-size="10.00">/home/runner/work/doxygen</text>
<text text-anchor="middle" x="1681" y="-7" font-family="Helvetica,sans-Serif" font-size="10.00">/doxygen/src/docnode.cpp</text>
</a>
</g>
</g>
<!-- Node10&#45;&gt;Node11 -->
<g id="edge10" class="edge">
<title>Node10&#45;&gt;Node11</title>
<path fill="none" stroke="#63b8ff" d="M1189.86,-121.64C1189.72,-103.59 1192.85,-79.82 1208,-66 1236.62,-39.9 1477.36,-25.2 1603.92,-19.21"/>
<polygon fill="#63b8ff" stroke="#63b8ff" points="1186.36,-121.9 1190.27,-131.75 1193.36,-121.61 1186.36,-121.9"/>
</g>
<!-- Node12 -->
<g id="node12" class="node">
<title>Node12</title>
<g id="a_node12"><a xlink:href="../../dc/d98/doxygen_8cpp.html" target="_top" xlink:title=" ">
<polygon fill="white" stroke="#666666" points="1549,-96 1395,-96 1395,-66 1549,-66 1549,-96"/>
<text text-anchor="start" x="1403" y="-84" font-family="Helvetica,sans-Serif" font-size="10.00">/home/runner/work/doxygen</text>
<text text-anchor="middle" x="1472" y="-73" font-family="Helvetica,sans-Serif" font-size="10.00">/doxygen/src/doxygen.cpp</text>
</a>
</g>
</g>
<!-- Node10&#45;&gt;Node12 -->
<g id="edge11" class="edge">
<title>Node10&#45;&gt;Node12</title>
<path fill="none" stroke="#63b8ff" d="M1263.25,-129.71C1308.79,-119.31 1367.24,-105.95 1410.7,-96.01"/>
<polygon fill="#63b8ff" stroke="#63b8ff" points="1262.42,-126.31 1253.45,-131.95 1263.98,-133.14 1262.42,-126.31"/>
</g>
<!-- Node13 -->
<g id="node13" class="node">
<title>Node13</title>
<g id="a_node13"><a xlink:href="../../dd/d00/fortranscanner_8l.html" target="_top" xlink:title=" ">
<polygon fill="white" stroke="#666666" points="818,-96 660,-96 660,-66 818,-66 818,-96"/>
<text text-anchor="start" x="668" y="-84" font-family="Helvetica,sans-Serif" font-size="10.00">/home/runner/work/doxygen</text>
<text text-anchor="middle" x="739" y="-73" font-family="Helvetica,sans-Serif" font-size="10.00">/doxygen/src/fortranscanner.l</text>
</a>
</g>
</g>
<!-- Node10&#45;&gt;Node13 -->
<g id="edge12" class="edge">
<title>Node10&#45;&gt;Node13</title>
<path fill="none" stroke="#63b8ff" d="M1104.34,-132.48C1103.22,-132.32 1102.11,-132.16 1101,-132 979.41,-114.66 948.55,-113.65 827,-96 824.09,-95.58 821.13,-95.14 818.14,-94.69"/>
<polygon fill="#63b8ff" stroke="#63b8ff" points="1104.17,-135.99 1114.57,-133.97 1105.18,-129.06 1104.17,-135.99"/>
</g>
<!-- Node14 -->
<g id="node14" class="node">
<title>Node14</title>
<g id="a_node14"><a xlink:href="../../de/d2b/pyscanner_8l.html" target="_top" xlink:title=" ">
<polygon fill="white" stroke="#666666" points="990,-96 836,-96 836,-66 990,-66 990,-96"/>
<text text-anchor="start" x="844" y="-84" font-family="Helvetica,sans-Serif" font-size="10.00">/home/runner/work/doxygen</text>
<text text-anchor="middle" x="913" y="-73" font-family="Helvetica,sans-Serif" font-size="10.00">/doxygen/src/pyscanner.l</text>
</a>
</g>
</g>
<!-- Node10&#45;&gt;Node14 -->
<g id="edge14" class="edge">
<title>Node10&#45;&gt;Node14</title>
<path fill="none" stroke="#63b8ff" d="M1121,-129.71C1075.63,-119.31 1017.39,-105.95 974.08,-96.01"/>
<polygon fill="#63b8ff" stroke="#63b8ff" points="1120.24,-133.13 1130.77,-131.95 1121.81,-126.31 1120.24,-133.13"/>
</g>
<!-- Node15 -->
<g id="node15" class="node">
<title>Node15</title>
<g id="a_node15"><a xlink:href="../../da/d11/scanner_8l.html" target="_top" xlink:title=" ">
<polygon fill="white" stroke="#666666" points="1162,-96 1008,-96 1008,-66 1162,-66 1162,-96"/>
<text text-anchor="start" x="1016" y="-84" font-family="Helvetica,sans-Serif" font-size="10.00">/home/runner/work/doxygen</text>
<text text-anchor="middle" x="1085" y="-73" font-family="Helvetica,sans-Serif" font-size="10.00">/doxygen/src/scanner.l</text>
</a>
</g>
</g>
<!-- Node10&#45;&gt;Node15 -->
<g id="edge15" class="edge">
<title>Node10&#45;&gt;Node15</title>
<path fill="none" stroke="#63b8ff" d="M1159.72,-126.69C1143.21,-116.82 1123.47,-105.01 1108.43,-96.01"/>
<polygon fill="#63b8ff" stroke="#63b8ff" points="1158.14,-129.83 1168.52,-131.95 1161.73,-123.82 1158.14,-129.83"/>
</g>
<!-- Node10&#45;&gt;Node16 -->
<g id="edge16" class="edge">
<title>Node10&#45;&gt;Node16</title>
<path fill="none" stroke="#63b8ff" d="M1223.67,-126.69C1239.88,-116.82 1259.25,-105.01 1274.01,-96.01"/>
<polygon fill="#63b8ff" stroke="#63b8ff" points="1221.76,-123.76 1215.04,-131.95 1225.4,-129.74 1221.76,-123.76"/>
</g>
<!-- Node18&#45;&gt;Node8 -->
<g id="edge30" class="edge">
<title>Node18&#45;&gt;Node8</title>
<path fill="none" stroke="#63b8ff" d="M2859.72,-146.01C2659.48,-145.25 2151.84,-138.84 1730,-96 1727.14,-95.71 1724.23,-95.39 1721.3,-95.03"/>
<polygon fill="#63b8ff" stroke="#63b8ff" points="2859.87,-149.51 2869.88,-146.04 2859.89,-142.51 2859.87,-149.51"/>
</g>
<!-- Node18&#45;&gt;Node12 -->
<g id="edge26" class="edge">
<title>Node18&#45;&gt;Node12</title>
<path fill="none" stroke="#63b8ff" d="M2859.82,-146.65C2640.53,-147.46 2048.48,-144.56 1558,-96 1555.14,-95.72 1552.23,-95.4 1549.3,-95.05"/>
<polygon fill="#63b8ff" stroke="#63b8ff" points="2859.99,-150.15 2869.98,-146.61 2859.96,-143.15 2859.99,-150.15"/>
</g>
<!-- Node18&#45;&gt;Node16 -->
<g id="edge40" class="edge">
<title>Node18&#45;&gt;Node16</title>
<path fill="none" stroke="#63b8ff" d="M2859.47,-144.63C2574.53,-139.93 1675.32,-123.28 1386,-96 1382.89,-95.71 1379.71,-95.37 1376.51,-95.01"/>
<polygon fill="#63b8ff" stroke="#63b8ff" points="2859.69,-148.13 2869.75,-144.8 2859.8,-141.13 2859.69,-148.13"/>
</g>
<!-- Node18&#45;&gt;Node17 -->
<g id="edge35" class="edge">
<title>Node18&#45;&gt;Node17</title>
<path fill="none" stroke="#63b8ff" d="M2859.58,-144.91C2680.81,-142 2260.71,-131.63 1910,-96 1907.01,-95.7 1903.97,-95.36 1900.9,-95"/>
<polygon fill="#63b8ff" stroke="#63b8ff" points="2859.66,-148.42 2869.71,-145.07 2859.77,-141.42 2859.66,-148.42"/>
</g>
<!-- Node19 -->
<g id="node19" class="node">
<title>Node19</title>
<g id="a_node19"><a xlink:href="../../de/d89/classdef_8cpp.html" target="_top" xlink:title=" ">
<polygon fill="white" stroke="#666666" points="2593,-96 2439,-96 2439,-66 2593,-66 2593,-96"/>
<text text-anchor="start" x="2447" y="-84" font-family="Helvetica,sans-Serif" font-size="10.00">/home/runner/work/doxygen</text>
<text text-anchor="middle" x="2516" y="-73" font-family="Helvetica,sans-Serif" font-size="10.00">/doxygen/src/classdef.cpp</text>
</a>
</g>
</g>
<!-- Node18&#45;&gt;Node19 -->
<g id="edge19" class="edge">
<title>Node18&#45;&gt;Node19</title>
<path fill="none" stroke="#63b8ff" d="M2859.8,-133.79C2790.01,-123.92 2689.66,-109.49 2602,-96 2599.16,-95.56 2596.27,-95.11 2593.35,-94.66"/>
<polygon fill="#63b8ff" stroke="#63b8ff" points="2859.48,-137.28 2869.87,-135.21 2860.46,-130.35 2859.48,-137.28"/>
</g>
<!-- Node20 -->
<g id="node20" class="node">
<title>Node20</title>
<g id="a_node20"><a xlink:href="../../da/d1f/code_8l.html" target="_top" xlink:title=" ">
<polygon fill="white" stroke="#666666" points="2765,-96 2611,-96 2611,-66 2765,-66 2765,-96"/>
<text text-anchor="start" x="2619" y="-84" font-family="Helvetica,sans-Serif" font-size="10.00">/home/runner/work/doxygen</text>
<text text-anchor="middle" x="2688" y="-73" font-family="Helvetica,sans-Serif" font-size="10.00">/doxygen/src/code.l</text>
</a>
</g>
</g>
<!-- Node18&#45;&gt;Node20 -->
<g id="edge20" class="edge">
<title>Node18&#45;&gt;Node20</title>
<path fill="none" stroke="#63b8ff" d="M2880.3,-129.52C2838.29,-119.14 2784.65,-105.88 2744.71,-96.01"/>
<polygon fill="#63b8ff" stroke="#63b8ff" points="2879.61,-132.95 2890.16,-131.95 2881.29,-126.16 2879.61,-132.95"/>
</g>
<!-- Node21 -->
<g id="node21" class="node">
<title>Node21</title>
<g id="a_node21"><a xlink:href="../../d8/d0a/conceptdef_8cpp.html" target="_top" xlink:title=" ">
<polygon fill="white" stroke="#666666" points="2938.5,-96 2783.5,-96 2783.5,-66 2938.5,-66 2938.5,-96"/>
<text text-anchor="start" x="2791.5" y="-84" font-family="Helvetica,sans-Serif" font-size="10.00">/home/runner/work/doxygen</text>
<text text-anchor="middle" x="2861" y="-73" font-family="Helvetica,sans-Serif" font-size="10.00">/doxygen/src/conceptdef.cpp</text>
</a>
</g>
</g>
<!-- Node18&#45;&gt;Node21 -->
<g id="edge21" class="edge">
<title>Node18&#45;&gt;Node21</title>
<path fill="none" stroke="#63b8ff" d="M2919.79,-125.75C2906.86,-116.13 2891.71,-104.86 2880.03,-96.16"/>
<polygon fill="#63b8ff" stroke="#63b8ff" points="2917.8,-128.63 2927.91,-131.8 2921.98,-123.02 2917.8,-128.63"/>
</g>
<!-- Node22 -->
<g id="node22" class="node">
<title>Node22</title>
<g id="a_node22"><a xlink:href="../../db/d12/context_8cpp.html" target="_top" xlink:title=" ">
<polygon fill="white" stroke="#666666" points="3111,-96 2957,-96 2957,-66 3111,-66 3111,-96"/>
<text text-anchor="start" x="2965" y="-84" font-family="Helvetica,sans-Serif" font-size="10.00">/home/runner/work/doxygen</text>
<text text-anchor="middle" x="3034" y="-73" font-family="Helvetica,sans-Serif" font-size="10.00">/doxygen/src/context.cpp</text>
</a>
</g>
</g>
<!-- Node18&#45;&gt;Node22 -->
<g id="edge22" class="edge">
<title>Node18&#45;&gt;Node22</title>
<path fill="none" stroke="#63b8ff" d="M2974.52,-125.75C2987.61,-116.13 3002.93,-104.86 3014.75,-96.16"/>
<polygon fill="#63b8ff" stroke="#63b8ff" points="2972.29,-123.05 2966.31,-131.8 2976.44,-128.69 2972.29,-123.05"/>
</g>
<!-- Node23 -->
<g id="node23" class="node">
<title>Node23</title>
<g id="a_node23"><a xlink:href="../../df/dc9/docparser__p_8h.html" target="_top" xlink:title="Private header shared between docparser.cpp and docnode.cpp.">
<polygon fill="white" stroke="#666666" points="2421,-96 2267,-96 2267,-66 2421,-66 2421,-96"/>
<text text-anchor="start" x="2275" y="-84" font-family="Helvetica,sans-Serif" font-size="10.00">/home/runner/work/doxygen</text>
<text text-anchor="middle" x="2344" y="-73" font-family="Helvetica,sans-Serif" font-size="10.00">/doxygen/src/docparser_p.h</text>
</a>
</g>
</g>
<!-- Node18&#45;&gt;Node23 -->
<g id="edge23" class="edge">
<title>Node18&#45;&gt;Node23</title>
<path fill="none" stroke="#63b8ff" d="M2859.71,-139.3C2756.76,-130.99 2580.59,-115.52 2430,-96 2427.15,-95.63 2424.25,-95.24 2421.32,-94.83"/>
<polygon fill="#63b8ff" stroke="#63b8ff" points="2859.5,-142.79 2869.74,-140.1 2860.06,-135.82 2859.5,-142.79"/>
</g>
<!-- Node25 -->
<g id="node25" class="node">
<title>Node25</title>
<g id="a_node25"><a xlink:href="../../d6/ddc/filedef_8cpp.html" target="_top" xlink:title=" ">
<polygon fill="white" stroke="#666666" points="3283,-96 3129,-96 3129,-66 3283,-66 3283,-96"/>
<text text-anchor="start" x="3137" y="-84" font-family="Helvetica,sans-Serif" font-size="10.00">/home/runner/work/doxygen</text>
<text text-anchor="middle" x="3206" y="-73" font-family="Helvetica,sans-Serif" font-size="10.00">/doxygen/src/filedef.cpp</text>
</a>
</g>
</g>
<!-- Node18&#45;&gt;Node25 -->
<g id="edge27" class="edge">
<title>Node18&#45;&gt;Node25</title>
<path fill="none" stroke="#63b8ff" d="M3013.7,-129.52C3055.71,-119.14 3109.35,-105.88 3149.29,-96.01"/>
<polygon fill="#63b8ff" stroke="#63b8ff" points="3012.71,-126.16 3003.84,-131.95 3014.39,-132.95 3012.71,-126.16"/>
</g>
<!-- Node26 -->
<g id="node26" class="node">
<title>Node26</title>
<g id="a_node26"><a xlink:href="../../d9/d5b/fortrancode_8l.html" target="_top" xlink:title=" ">
<polygon fill="white" stroke="#666666" points="3455,-96 3301,-96 3301,-66 3455,-66 3455,-96"/>
<text text-anchor="start" x="3309" y="-84" font-family="Helvetica,sans-Serif" font-size="10.00">/home/runner/work/doxygen</text>
<text text-anchor="middle" x="3378" y="-73" font-family="Helvetica,sans-Serif" font-size="10.00">/doxygen/src/fortrancode.l</text>
</a>
</g>
</g>
<!-- Node18&#45;&gt;Node26 -->
<g id="edge28" class="edge">
<title>Node18&#45;&gt;Node26</title>
<path fill="none" stroke="#63b8ff" d="M3034.2,-133.79C3103.99,-123.92 3204.34,-109.49 3292,-96 3294.84,-95.56 3297.73,-95.11 3300.65,-94.66"/>
<polygon fill="#63b8ff" stroke="#63b8ff" points="3033.54,-130.35 3024.13,-135.21 3034.52,-137.28 3033.54,-130.35"/>
</g>
<!-- Node27 -->
<g id="node27" class="node">
<title>Node27</title>
<g id="a_node27"><a xlink:href="../../d6/d42/groupdef_8cpp.html" target="_top" xlink:title=" ">
<polygon fill="white" stroke="#666666" points="3627,-96 3473,-96 3473,-66 3627,-66 3627,-96"/>
<text text-anchor="start" x="3481" y="-84" font-family="Helvetica,sans-Serif" font-size="10.00">/home/runner/work/doxygen</text>
<text text-anchor="middle" x="3550" y="-73" font-family="Helvetica,sans-Serif" font-size="10.00">/doxygen/src/groupdef.cpp</text>
</a>
</g>
</g>
<!-- Node18&#45;&gt;Node27 -->
<g id="edge29" class="edge">
<title>Node18&#45;&gt;Node27</title>
<path fill="none" stroke="#63b8ff" d="M3034.29,-139.3C3137.24,-130.99 3313.41,-115.52 3464,-96 3466.85,-95.63 3469.75,-95.24 3472.68,-94.83"/>
<polygon fill="#63b8ff" stroke="#63b8ff" points="3033.94,-135.82 3024.26,-140.1 3034.5,-142.79 3033.94,-135.82"/>
</g>
<!-- Node28 -->
<g id="node28" class="node">
<title>Node28</title>
<g id="a_node28"><a xlink:href="../../d0/d7e/lexcode_8l.html" target="_top" xlink:title=" ">
<polygon fill="white" stroke="#666666" points="3799,-96 3645,-96 3645,-66 3799,-66 3799,-96"/>
<text text-anchor="start" x="3653" y="-84" font-family="Helvetica,sans-Serif" font-size="10.00">/home/runner/work/doxygen</text>
<text text-anchor="middle" x="3722" y="-73" font-family="Helvetica,sans-Serif" font-size="10.00">/doxygen/src/lexcode.l</text>
</a>
</g>
</g>
<!-- Node18&#45;&gt;Node28 -->
<g id="edge31" class="edge">
<title>Node18&#45;&gt;Node28</title>
<path fill="none" stroke="#63b8ff" d="M3034.57,-142.14C3165.66,-135.81 3420.58,-121.3 3636,-96 3638.85,-95.66 3641.76,-95.3 3644.69,-94.92"/>
<polygon fill="#63b8ff" stroke="#63b8ff" points="3034.01,-138.67 3024.19,-142.64 3034.35,-145.66 3034.01,-138.67"/>
</g>
<!-- Node29 -->
<g id="node29" class="node">
<title>Node29</title>
<g id="a_node29"><a xlink:href="../../d0/d72/memberdef_8cpp.html" target="_top" xlink:title=" ">
<polygon fill="white" stroke="#666666" points="3975,-96 3817,-96 3817,-66 3975,-66 3975,-96"/>
<text text-anchor="start" x="3825" y="-84" font-family="Helvetica,sans-Serif" font-size="10.00">/home/runner/work/doxygen</text>
<text text-anchor="middle" x="3896" y="-73" font-family="Helvetica,sans-Serif" font-size="10.00">/doxygen/src/memberdef.cpp</text>
</a>
</g>
</g>
<!-- Node18&#45;&gt;Node29 -->
<g id="edge32" class="edge">
<title>Node18&#45;&gt;Node29</title>
<path fill="none" stroke="#63b8ff" d="M3034.56,-143.8C3190.46,-139.24 3526.24,-126.52 3808,-96 3810.92,-95.68 3813.9,-95.34 3816.9,-94.97"/>
<polygon fill="#63b8ff" stroke="#63b8ff" points="3034,-140.31 3024.1,-144.1 3034.2,-147.31 3034,-140.31"/>
</g>
<!-- Node30 -->
<g id="node30" class="node">
<title>Node30</title>
<g id="a_node30"><a xlink:href="../../d7/d1c/namespacedef_8cpp.html" target="_top" xlink:title=" ">
<polygon fill="white" stroke="#666666" points="4166.5,-96 3993.5,-96 3993.5,-66 4166.5,-66 4166.5,-96"/>
<text text-anchor="start" x="4001.5" y="-84" font-family="Helvetica,sans-Serif" font-size="10.00">/home/runner/work/doxygen</text>
<text text-anchor="middle" x="4080" y="-73" font-family="Helvetica,sans-Serif" font-size="10.00">/doxygen/src/namespacedef.cpp</text>
</a>
</g>
</g>
<!-- Node18&#45;&gt;Node30 -->
<g id="edge33" class="edge">
<title>Node18&#45;&gt;Node30</title>
<path fill="none" stroke="#63b8ff" d="M3034.4,-144.63C3213.11,-141.22 3633.12,-129.96 3984,-96 3987.1,-95.7 3990.26,-95.37 3993.44,-95.02"/>
<polygon fill="#63b8ff" stroke="#63b8ff" points="3034.19,-141.14 3024.26,-144.83 3034.33,-148.14 3034.19,-141.14"/>
</g>
<!-- Node31 -->
<g id="node31" class="node">
<title>Node31</title>
<g id="a_node31"><a xlink:href="../../d3/ded/pycode_8l.html" target="_top" xlink:title=" ">
<polygon fill="white" stroke="#666666" points="4339,-96 4185,-96 4185,-66 4339,-66 4339,-96"/>
<text text-anchor="start" x="4193" y="-84" font-family="Helvetica,sans-Serif" font-size="10.00">/home/runner/work/doxygen</text>
<text text-anchor="middle" x="4262" y="-73" font-family="Helvetica,sans-Serif" font-size="10.00">/doxygen/src/pycode.l</text>
</a>
</g>
</g>
<!-- Node18&#45;&gt;Node31 -->
<g id="edge34" class="edge">
<title>Node18&#45;&gt;Node31</title>
<path fill="none" stroke="#63b8ff" d="M3034.4,-146.06C3236.1,-145.41 3749.47,-139.23 4176,-96 4178.86,-95.71 4181.77,-95.39 4184.7,-95.03"/>
<polygon fill="#63b8ff" stroke="#63b8ff" points="3034.15,-142.56 3024.16,-146.09 3034.17,-149.56 3034.15,-142.56"/>
</g>
<!-- Node32 -->
<g id="node32" class="node">
<title>Node32</title>
<g id="a_node32"><a xlink:href="../../d2/dda/sqlcode_8l.html" target="_top" xlink:title=" ">
<polygon fill="white" stroke="#666666" points="4511,-96 4357,-96 4357,-66 4511,-66 4511,-96"/>
<text text-anchor="start" x="4365" y="-84" font-family="Helvetica,sans-Serif" font-size="10.00">/home/runner/work/doxygen</text>
<text text-anchor="middle" x="4434" y="-73" font-family="Helvetica,sans-Serif" font-size="10.00">/doxygen/src/sqlcode.l</text>
</a>
</g>
</g>
<!-- Node18&#45;&gt;Node32 -->
<g id="edge36" class="edge">
<title>Node18&#45;&gt;Node32</title>
<path fill="none" stroke="#63b8ff" d="M3034.53,-146.69C3255.4,-147.6 3852.98,-144.93 4348,-96 4350.86,-95.72 4353.77,-95.4 4356.71,-95.05"/>
<polygon fill="#63b8ff" stroke="#63b8ff" points="3034.32,-143.19 3024.3,-146.64 3034.29,-150.19 3034.32,-143.19"/>
</g>
<!-- Node18&#45;&gt;Node33 -->
<g id="edge37" class="edge">
<title>Node18&#45;&gt;Node33</title>
<path fill="none" stroke="#63b8ff" d="M3034.26,-145.03C3340.45,-141.4 4364.97,-127.17 4692,-96 4694.86,-95.73 4697.77,-95.42 4700.71,-95.08"/>
<polygon fill="#63b8ff" stroke="#63b8ff" points="3034.07,-141.54 3024.11,-145.15 3034.15,-148.54 3034.07,-141.54"/>
</g>
<!-- Node34 -->
<g id="node34" class="node">
<title>Node34</title>
<g id="a_node34"><a xlink:href="../../d5/d6a/vhdlcode_8l.html" target="_top" xlink:title=" ">
<polygon fill="white" stroke="#666666" points="4683,-96 4529,-96 4529,-66 4683,-66 4683,-96"/>
<text text-anchor="start" x="4537" y="-84" font-family="Helvetica,sans-Serif" font-size="10.00">/home/runner/work/doxygen</text>
<text text-anchor="middle" x="4606" y="-73" font-family="Helvetica,sans-Serif" font-size="10.00">/doxygen/src/vhdlcode.l</text>
</a>
</g>
</g>
<!-- Node18&#45;&gt;Node34 -->
<g id="edge38" class="edge">
<title>Node18&#45;&gt;Node34</title>
<path fill="none" stroke="#63b8ff" d="M3034.72,-144.71C3321.31,-140.26 4228.36,-124.25 4520,-96 4522.86,-95.72 4525.77,-95.41 4528.71,-95.07"/>
<polygon fill="#63b8ff" stroke="#63b8ff" points="3034.32,-141.22 3024.38,-144.87 3034.43,-148.21 3034.32,-141.22"/>
</g>
<!-- Node35 -->
<g id="node35" class="node">
<title>Node35</title>
<g id="a_node35"><a xlink:href="../../de/dea/vhdldocgen_8cpp.html" target="_top" xlink:title=" ">
<polygon fill="white" stroke="#666666" points="2077,-96 1919,-96 1919,-66 2077,-66 2077,-96"/>
<text text-anchor="start" x="1927" y="-84" font-family="Helvetica,sans-Serif" font-size="10.00">/home/runner/work/doxygen</text>
<text text-anchor="middle" x="1998" y="-73" font-family="Helvetica,sans-Serif" font-size="10.00">/doxygen/src/vhdldocgen.cpp</text>
</a>
</g>
</g>
<!-- Node18&#45;&gt;Node35 -->
<g id="edge39" class="edge">
<title>Node18&#45;&gt;Node35</title>
<path fill="none" stroke="#63b8ff" d="M2859.44,-143.8C2703.54,-139.24 2367.76,-126.52 2086,-96 2083.08,-95.68 2080.1,-95.34 2077.1,-94.97"/>
<polygon fill="#63b8ff" stroke="#63b8ff" points="2859.8,-147.31 2869.9,-144.1 2860,-140.31 2859.8,-147.31"/>
</g>
<!-- Node36 -->
<g id="node36" class="node">
<title>Node36</title>
<g id="a_node36"><a xlink:href="../../dc/dc1/xmlcode_8l.html" target="_top" xlink:title=" ">
<polygon fill="white" stroke="#666666" points="2249,-96 2095,-96 2095,-66 2249,-66 2249,-96"/>
<text text-anchor="start" x="2103" y="-84" font-family="Helvetica,sans-Serif" font-size="10.00">/home/runner/work/doxygen</text>
<text text-anchor="middle" x="2172" y="-73" font-family="Helvetica,sans-Serif" font-size="10.00">/doxygen/src/xmlcode.l</text>
</a>
</g>
</g>
<!-- Node18&#45;&gt;Node36 -->
<g id="edge41" class="edge">
<title>Node18&#45;&gt;Node36</title>
<path fill="none" stroke="#63b8ff" d="M2859.43,-142.14C2728.34,-135.81 2473.42,-121.3 2258,-96 2255.15,-95.66 2252.24,-95.3 2249.31,-94.92"/>
<polygon fill="#63b8ff" stroke="#63b8ff" points="2859.65,-145.66 2869.81,-142.64 2859.99,-138.67 2859.65,-145.66"/>
</g>
<!-- Node23&#45;&gt;Node11 -->
<g id="edge24" class="edge">
<title>Node23&#45;&gt;Node11</title>
<path fill="none" stroke="#63b8ff" d="M2256.52,-65.88C2072.07,-43.23 1867.05,-28.08 1758.19,-20.84"/>
<polygon fill="#63b8ff" stroke="#63b8ff" points="2256.33,-69.38 2266.68,-67.13 2257.19,-62.43 2256.33,-69.38"/>
</g>
<!-- Node24 -->
<g id="node24" class="node">
<title>Node24</title>
<g id="a_node24"><a xlink:href="../../da/d17/docparser_8cpp.html" target="_top" xlink:title=" ">
<polygon fill="white" stroke="#666666" points="2421,-30 2267,-30 2267,0 2421,0 2421,-30"/>
<text text-anchor="start" x="2275" y="-18" font-family="Helvetica,sans-Serif" font-size="10.00">/home/runner/work/doxygen</text>
<text text-anchor="middle" x="2344" y="-7" font-family="Helvetica,sans-Serif" font-size="10.00">/doxygen/src/docparser.cpp</text>
</a>
</g>
</g>
<!-- Node23&#45;&gt;Node24 -->
<g id="edge25" class="edge">
<title>Node23&#45;&gt;Node24</title>
<path fill="none" stroke="#63b8ff" d="M2344,-55.54C2344,-46.96 2344,-37.61 2344,-30.16"/>
<polygon fill="#63b8ff" stroke="#63b8ff" points="2340.5,-55.8 2344,-65.8 2347.5,-55.8 2340.5,-55.8"/>
</g>
</g>
</svg>
