<?xml version="1.0" encoding="UTF-8" standalone="no"?>
<!DOCTYPE svg PUBLIC "-//W3C//DTD SVG 1.1//EN"
 "http://www.w3.org/Graphics/SVG/1.1/DTD/svg11.dtd">
<!-- Generated by graphviz version 2.43.0 (0)
 -->
<!-- Title: /home/runner/work/doxygen/doxygen/src/datetime.cpp Pages: 1 -->
<svg width="1537pt" height="533pt"
 viewBox="0.00 0.00 1537.36 533.00" xmlns="http://www.w3.org/2000/svg" xmlns:xlink="http://www.w3.org/1999/xlink">
<g id="graph0" class="graph" transform="scale(1 1) rotate(0) translate(4 529)">
<title>/home/runner/work/doxygen/doxygen/src/datetime.cpp</title>
<!-- Node1 -->
<g id="node1" class="node">
<title>Node1</title>
<g id="a_node1"><a xlink:title=" ">
<polygon fill="#999999" stroke="#666666" points="481.86,-525 327.86,-525 327.86,-495 481.86,-495 481.86,-525"/>
<text text-anchor="start" x="335.86" y="-513" font-family="Helvetica,sans-Serif" font-size="10.00">/home/runner/work/doxygen</text>
<text text-anchor="middle" x="404.86" y="-502" font-family="Helvetica,sans-Serif" font-size="10.00">/doxygen/src/datetime.cpp</text>
</a>
</g>
</g>
<!-- Node2 -->
<g id="node2" class="node">
<title>Node2</title>
<g id="a_node2"><a xlink:title=" ">
<polygon fill="#e0e0e0" stroke="#999999" points="64.36,-74 15.36,-74 15.36,-55 64.36,-55 64.36,-74"/>
<text text-anchor="middle" x="39.86" y="-62" font-family="Helvetica,sans-Serif" font-size="10.00">cstdlib</text>
</a>
</g>
</g>
<!-- Node1&#45;&gt;Node2 -->
<g id="edge1" class="edge">
<title>Node1&#45;&gt;Node2</title>
<path fill="none" stroke="#63b8ff" d="M327.54,-508.63C228.67,-506.57 64.86,-497.26 19.86,-459 -2.58,-439.92 0.86,-424.96 0.86,-395.5 0.86,-395.5 0.86,-395.5 0.86,-173.5 0.86,-139.92 17.74,-103.78 29.29,-82.98"/>
<polygon fill="#63b8ff" stroke="#63b8ff" points="32.46,-84.49 34.44,-74.08 26.4,-80.98 32.46,-84.49"/>
</g>
<!-- Node3 -->
<g id="node3" class="node">
<title>Node3</title>
<g id="a_node3"><a xlink:title=" ">
<polygon fill="#e0e0e0" stroke="#999999" points="78.86,-459 28.86,-459 28.86,-440 78.86,-440 78.86,-459"/>
<text text-anchor="middle" x="53.86" y="-447" font-family="Helvetica,sans-Serif" font-size="10.00">chrono</text>
</a>
</g>
</g>
<!-- Node1&#45;&gt;Node3 -->
<g id="edge2" class="edge">
<title>Node1&#45;&gt;Node3</title>
<path fill="none" stroke="#63b8ff" d="M327.65,-498.77C265.64,-490.11 176.15,-476.6 89.11,-459.1"/>
<polygon fill="#63b8ff" stroke="#63b8ff" points="89.55,-455.62 79.06,-457.06 88.16,-462.48 89.55,-455.62"/>
</g>
<!-- Node4 -->
<g id="node4" class="node">
<title>Node4</title>
<g id="a_node4"><a xlink:title=" ">
<polygon fill="#e0e0e0" stroke="#999999" points="892.86,-129 834.86,-129 834.86,-110 892.86,-110 892.86,-129"/>
<text text-anchor="middle" x="863.86" y="-117" font-family="Helvetica,sans-Serif" font-size="10.00">memory</text>
</a>
</g>
</g>
<!-- Node1&#45;&gt;Node4 -->
<g id="edge3" class="edge">
<title>Node1&#45;&gt;Node4</title>
<path fill="none" stroke="#63b8ff" d="M482.11,-506.52C688.61,-498.86 1237.86,-471.35 1237.86,-395.5 1237.86,-395.5 1237.86,-395.5 1237.86,-283.5 1237.86,-249.66 1222.62,-240.71 1195.86,-220 1106.66,-150.95 970.06,-129.67 903.32,-123.23"/>
<polygon fill="#63b8ff" stroke="#63b8ff" points="903.5,-119.73 893.23,-122.32 902.87,-126.7 903.5,-119.73"/>
</g>
<!-- Node5 -->
<g id="node5" class="node">
<title>Node5</title>
<g id="a_node5"><a xlink:title=" ">
<polygon fill="#e0e0e0" stroke="#999999" points="226.86,-459 184.86,-459 184.86,-440 226.86,-440 226.86,-459"/>
<text text-anchor="middle" x="205.86" y="-447" font-family="Helvetica,sans-Serif" font-size="10.00">array</text>
</a>
</g>
</g>
<!-- Node1&#45;&gt;Node5 -->
<g id="edge4" class="edge">
<title>Node1&#45;&gt;Node5</title>
<path fill="none" stroke="#63b8ff" d="M357.2,-494.99C319.84,-484.01 268.97,-469.05 236.77,-459.59"/>
<polygon fill="#63b8ff" stroke="#63b8ff" points="237.59,-456.18 227.01,-456.72 235.62,-462.9 237.59,-456.18"/>
</g>
<!-- Node6 -->
<g id="node6" class="node">
<title>Node6</title>
<g id="a_node6"><a xlink:title=" ">
<polygon fill="#e0e0e0" stroke="#999999" points="310.36,-459 245.36,-459 245.36,-440 310.36,-440 310.36,-459"/>
<text text-anchor="middle" x="277.86" y="-447" font-family="Helvetica,sans-Serif" font-size="10.00">functional</text>
</a>
</g>
</g>
<!-- Node1&#45;&gt;Node6 -->
<g id="edge5" class="edge">
<title>Node1&#45;&gt;Node6</title>
<path fill="none" stroke="#63b8ff" d="M374.44,-494.99C353.63,-485.4 326.24,-472.79 305.95,-463.44"/>
<polygon fill="#63b8ff" stroke="#63b8ff" points="307.16,-460.14 296.62,-459.14 304.23,-466.5 307.16,-460.14"/>
</g>
<!-- Node7 -->
<g id="node7" class="node">
<title>Node7</title>
<g id="a_node7"><a xlink:href="../../d1/d21/regex_8h.html" target="_top" xlink:title=" ">
<polygon fill="white" stroke="#666666" points="1207.36,-184 1154.36,-184 1154.36,-165 1207.36,-165 1207.36,-184"/>
<text text-anchor="middle" x="1180.86" y="-172" font-family="Helvetica,sans-Serif" font-size="10.00">regex.h</text>
</a>
</g>
</g>
<!-- Node1&#45;&gt;Node7 -->
<g id="edge6" class="edge">
<title>Node1&#45;&gt;Node7</title>
<path fill="none" stroke="#63b8ff" d="M482.18,-509.17C679.54,-508.93 1190.75,-503.95 1251.86,-459 1276.16,-441.12 1275.86,-425.67 1275.86,-395.5 1275.86,-395.5 1275.86,-395.5 1275.86,-283.5 1275.86,-253.33 1270.98,-243.34 1251.86,-220 1241,-206.74 1225.1,-196.26 1211.1,-188.81"/>
<polygon fill="#63b8ff" stroke="#63b8ff" points="1212.3,-185.5 1201.79,-184.14 1209.16,-191.75 1212.3,-185.5"/>
</g>
<!-- Node11 -->
<g id="node11" class="node">
<title>Node11</title>
<g id="a_node11"><a xlink:href="../../de/d1b/datetime_8h.html" target="_top" xlink:title=" ">
<polygon fill="white" stroke="#666666" points="166.86,-459 96.86,-459 96.86,-440 166.86,-440 166.86,-459"/>
<text text-anchor="middle" x="131.86" y="-447" font-family="Helvetica,sans-Serif" font-size="10.00">datetime.h</text>
</a>
</g>
</g>
<!-- Node1&#45;&gt;Node11 -->
<g id="edge11" class="edge">
<title>Node1&#45;&gt;Node11</title>
<path fill="none" stroke="#63b8ff" d="M339.47,-494.99C289.27,-484.23 221.28,-469.66 177,-460.17"/>
<polygon fill="#63b8ff" stroke="#63b8ff" points="177.61,-456.72 167.1,-458.05 176.15,-463.57 177.61,-456.72"/>
</g>
<!-- Node21 -->
<g id="node21" class="node">
<title>Node21</title>
<g id="a_node21"><a xlink:href="../../db/d16/config_8h.html" target="_top" xlink:title=" ">
<polygon fill="white" stroke="#666666" points="627.36,-349 572.36,-349 572.36,-330 627.36,-330 627.36,-349"/>
<text text-anchor="middle" x="599.86" y="-337" font-family="Helvetica,sans-Serif" font-size="10.00">config.h</text>
</a>
</g>
</g>
<!-- Node1&#45;&gt;Node21 -->
<g id="edge25" class="edge">
<title>Node1&#45;&gt;Node21</title>
<path fill="none" stroke="#63b8ff" d="M482.21,-494.98C514.29,-487.21 551.12,-475.66 581.86,-459 614.54,-441.29 629.48,-437.84 644.86,-404 653.12,-385.84 636.88,-367.5 621.65,-355.23"/>
<polygon fill="#63b8ff" stroke="#63b8ff" points="623.56,-352.29 613.46,-349.08 619.36,-357.89 623.56,-352.29"/>
</g>
<!-- Node23 -->
<g id="node23" class="node">
<title>Node23</title>
<g id="a_node23"><a xlink:href="../../d2/de2/portable_8h.html" target="_top" xlink:title="Portable versions of functions that are platform dependent.">
<polygon fill="white" stroke="#666666" points="394.86,-459 328.86,-459 328.86,-440 394.86,-440 394.86,-459"/>
<text text-anchor="middle" x="361.86" y="-447" font-family="Helvetica,sans-Serif" font-size="10.00">portable.h</text>
</a>
</g>
</g>
<!-- Node1&#45;&gt;Node23 -->
<g id="edge27" class="edge">
<title>Node1&#45;&gt;Node23</title>
<path fill="none" stroke="#63b8ff" d="M394.45,-494.84C388.4,-486.61 380.74,-476.18 374.36,-467.51"/>
<polygon fill="#63b8ff" stroke="#63b8ff" points="377.05,-465.25 368.3,-459.27 371.41,-469.4 377.05,-465.25"/>
</g>
<!-- Node27 -->
<g id="node27" class="node">
<title>Node27</title>
<g id="a_node27"><a xlink:href="../../d8/dce/language_8h.html" target="_top" xlink:title=" ">
<polygon fill="white" stroke="#666666" points="572.36,-459 501.36,-459 501.36,-440 572.36,-440 572.36,-459"/>
<text text-anchor="middle" x="536.86" y="-447" font-family="Helvetica,sans-Serif" font-size="10.00">language.h</text>
</a>
</g>
</g>
<!-- Node1&#45;&gt;Node27 -->
<g id="edge32" class="edge">
<title>Node1&#45;&gt;Node27</title>
<path fill="none" stroke="#63b8ff" d="M436.48,-494.99C458.21,-485.36 486.83,-472.67 507.95,-463.31"/>
<polygon fill="#63b8ff" stroke="#63b8ff" points="509.64,-466.39 517.37,-459.14 506.81,-459.99 509.64,-466.39"/>
</g>
<!-- Node42 -->
<g id="node42" class="node">
<title>Node42</title>
<g id="a_node42"><a xlink:href="../../d2/d0d/message_8h.html" target="_top" xlink:title=" ">
<polygon fill="white" stroke="#666666" points="482.86,-459 412.86,-459 412.86,-440 482.86,-440 482.86,-459"/>
<text text-anchor="middle" x="447.86" y="-447" font-family="Helvetica,sans-Serif" font-size="10.00">message.h</text>
</a>
</g>
</g>
<!-- Node1&#45;&gt;Node42 -->
<g id="edge73" class="edge">
<title>Node1&#45;&gt;Node42</title>
<path fill="none" stroke="#63b8ff" d="M415.27,-494.84C421.32,-486.61 428.99,-476.18 435.36,-467.51"/>
<polygon fill="#63b8ff" stroke="#63b8ff" points="438.32,-469.4 441.42,-459.27 432.67,-465.25 438.32,-469.4"/>
</g>
<!-- Node44 -->
<g id="node44" class="node">
<title>Node44</title>
<g id="a_node44"><a xlink:href="../../dd/d72/growbuf_8h.html" target="_top" xlink:title=" ">
<polygon fill="white" stroke="#666666" points="1397.36,-459 1332.36,-459 1332.36,-440 1397.36,-440 1397.36,-459"/>
<text text-anchor="middle" x="1364.86" y="-447" font-family="Helvetica,sans-Serif" font-size="10.00">growbuf.h</text>
</a>
</g>
</g>
<!-- Node1&#45;&gt;Node44 -->
<g id="edge76" class="edge">
<title>Node1&#45;&gt;Node44</title>
<path fill="none" stroke="#63b8ff" d="M481.91,-506.11C635.7,-500.02 991.61,-484.31 1289.86,-459 1300.24,-458.12 1311.41,-456.97 1321.87,-455.79"/>
<polygon fill="#63b8ff" stroke="#63b8ff" points="1322.51,-459.24 1332.04,-454.63 1321.71,-452.29 1322.51,-459.24"/>
</g>
<!-- Node7&#45;&gt;Node4 -->
<g id="edge7" class="edge">
<title>Node7&#45;&gt;Node4</title>
<path fill="none" stroke="#63b8ff" d="M1154.11,-169.03C1098.14,-159.67 968.49,-137.99 903.09,-127.06"/>
<polygon fill="#63b8ff" stroke="#63b8ff" points="903.61,-123.6 893.17,-125.4 902.45,-130.5 903.61,-123.6"/>
</g>
<!-- Node8 -->
<g id="node8" class="node">
<title>Node8</title>
<g id="a_node8"><a xlink:title=" ">
<polygon fill="#e0e0e0" stroke="#999999" points="899.86,-19 855.86,-19 855.86,0 899.86,0 899.86,-19"/>
<text text-anchor="middle" x="877.86" y="-7" font-family="Helvetica,sans-Serif" font-size="10.00">string</text>
</a>
</g>
</g>
<!-- Node7&#45;&gt;Node8 -->
<g id="edge8" class="edge">
<title>Node7&#45;&gt;Node8</title>
<path fill="none" stroke="#63b8ff" d="M1180.68,-164.7C1179.72,-142.48 1173.91,-83.85 1139.86,-55 1105.67,-26.03 972.5,-15.4 910.26,-11.96"/>
<polygon fill="#63b8ff" stroke="#63b8ff" points="910.37,-8.46 900.2,-11.43 910.01,-15.45 910.37,-8.46"/>
</g>
<!-- Node9 -->
<g id="node9" class="node">
<title>Node9</title>
<g id="a_node9"><a xlink:title=" ">
<polygon fill="#e0e0e0" stroke="#999999" points="816.36,-129 769.36,-129 769.36,-110 816.36,-110 816.36,-129"/>
<text text-anchor="middle" x="792.86" y="-117" font-family="Helvetica,sans-Serif" font-size="10.00">vector</text>
</a>
</g>
</g>
<!-- Node7&#45;&gt;Node9 -->
<g id="edge9" class="edge">
<title>Node7&#45;&gt;Node9</title>
<path fill="none" stroke="#63b8ff" d="M1153.96,-171.31C1095.96,-166.33 954.7,-152.86 826.56,-128.89"/>
<polygon fill="#63b8ff" stroke="#63b8ff" points="827.05,-125.42 816.57,-126.99 825.74,-132.3 827.05,-125.42"/>
</g>
<!-- Node10 -->
<g id="node10" class="node">
<title>Node10</title>
<g id="a_node10"><a xlink:title=" ">
<polygon fill="#e0e0e0" stroke="#999999" points="1245.36,-129 1192.36,-129 1192.36,-110 1245.36,-110 1245.36,-129"/>
<text text-anchor="middle" x="1218.86" y="-117" font-family="Helvetica,sans-Serif" font-size="10.00">iterator</text>
</a>
</g>
</g>
<!-- Node7&#45;&gt;Node10 -->
<g id="edge10" class="edge">
<title>Node7&#45;&gt;Node10</title>
<path fill="none" stroke="#63b8ff" d="M1187.14,-164.75C1192.45,-157.34 1200.22,-146.5 1206.74,-137.41"/>
<polygon fill="#63b8ff" stroke="#63b8ff" points="1209.72,-139.26 1212.7,-129.09 1204.03,-135.18 1209.72,-139.26"/>
</g>
<!-- Node12 -->
<g id="node12" class="node">
<title>Node12</title>
<g id="a_node12"><a xlink:title=" ">
<polygon fill="#e0e0e0" stroke="#999999" points="91.86,-404 47.86,-404 47.86,-385 91.86,-385 91.86,-404"/>
<text text-anchor="middle" x="69.86" y="-392" font-family="Helvetica,sans-Serif" font-size="10.00">ctime</text>
</a>
</g>
</g>
<!-- Node11&#45;&gt;Node12 -->
<g id="edge12" class="edge">
<title>Node11&#45;&gt;Node12</title>
<path fill="none" stroke="#63b8ff" d="M121.9,-439.98C112.73,-432.15 98.92,-420.34 87.83,-410.86"/>
<polygon fill="#63b8ff" stroke="#63b8ff" points="89.88,-408.01 80,-404.17 85.33,-413.33 89.88,-408.01"/>
</g>
<!-- Node13 -->
<g id="node13" class="node">
<title>Node13</title>
<g id="a_node13"><a xlink:href="../../d7/d5c/qcstring_8h.html" target="_top" xlink:title=" ">
<polygon fill="white" stroke="#666666" points="393.36,-129 328.36,-129 328.36,-110 393.36,-110 393.36,-129"/>
<text text-anchor="middle" x="360.86" y="-117" font-family="Helvetica,sans-Serif" font-size="10.00">qcstring.h</text>
</a>
</g>
</g>
<!-- Node11&#45;&gt;Node13 -->
<g id="edge13" class="edge">
<title>Node11&#45;&gt;Node13</title>
<path fill="none" stroke="#63b8ff" d="M130.24,-439.86C126.97,-421.59 119.86,-377.66 119.86,-340.5 119.86,-340.5 119.86,-340.5 119.86,-228.5 119.86,-142.59 248.98,-124.58 318.2,-121.1"/>
<polygon fill="#63b8ff" stroke="#63b8ff" points="318.51,-124.59 328.36,-120.67 318.22,-117.6 318.51,-124.59"/>
</g>
<!-- Node13&#45;&gt;Node2 -->
<g id="edge19" class="edge">
<title>Node13&#45;&gt;Node2</title>
<path fill="none" stroke="#63b8ff" d="M328.32,-113.13C267.59,-103.1 137.54,-81.63 74.94,-71.29"/>
<polygon fill="#63b8ff" stroke="#63b8ff" points="75.22,-67.79 64.78,-69.61 74.08,-74.7 75.22,-67.79"/>
</g>
<!-- Node13&#45;&gt;Node8 -->
<g id="edge14" class="edge">
<title>Node13&#45;&gt;Node8</title>
<path fill="none" stroke="#63b8ff" d="M372.99,-109.8C395.29,-93.97 442.22,-61.51 460.86,-55 531.97,-30.16 760.52,-16.41 845.57,-12.04"/>
<polygon fill="#63b8ff" stroke="#63b8ff" points="845.86,-15.53 855.68,-11.53 845.51,-8.54 845.86,-15.53"/>
</g>
<!-- Node14 -->
<g id="node14" class="node">
<title>Node14</title>
<g id="a_node14"><a xlink:title=" ">
<polygon fill="#e0e0e0" stroke="#999999" points="533.86,-74 469.86,-74 469.86,-55 533.86,-55 533.86,-74"/>
<text text-anchor="middle" x="501.86" y="-62" font-family="Helvetica,sans-Serif" font-size="10.00">algorithm</text>
</a>
</g>
</g>
<!-- Node13&#45;&gt;Node14 -->
<g id="edge15" class="edge">
<title>Node13&#45;&gt;Node14</title>
<path fill="none" stroke="#63b8ff" d="M383.51,-109.98C406.71,-101.27 442.98,-87.63 469.26,-77.75"/>
<polygon fill="#63b8ff" stroke="#63b8ff" points="470.67,-80.97 478.79,-74.17 468.2,-74.41 470.67,-80.97"/>
</g>
<!-- Node15 -->
<g id="node15" class="node">
<title>Node15</title>
<g id="a_node15"><a xlink:title=" ">
<polygon fill="#e0e0e0" stroke="#999999" points="601.36,-74 552.36,-74 552.36,-55 601.36,-55 601.36,-74"/>
<text text-anchor="middle" x="576.86" y="-62" font-family="Helvetica,sans-Serif" font-size="10.00">cctype</text>
</a>
</g>
</g>
<!-- Node13&#45;&gt;Node15 -->
<g id="edge16" class="edge">
<title>Node13&#45;&gt;Node15</title>
<path fill="none" stroke="#63b8ff" d="M393.42,-110.59C427.93,-102.2 484.26,-88.47 542.59,-74.06"/>
<polygon fill="#63b8ff" stroke="#63b8ff" points="543.48,-77.44 552.35,-71.64 541.8,-70.65 543.48,-77.44"/>
</g>
<!-- Node16 -->
<g id="node16" class="node">
<title>Node16</title>
<g id="a_node16"><a xlink:title=" ">
<polygon fill="#e0e0e0" stroke="#999999" points="273.86,-74 223.86,-74 223.86,-55 273.86,-55 273.86,-74"/>
<text text-anchor="middle" x="248.86" y="-62" font-family="Helvetica,sans-Serif" font-size="10.00">cstring</text>
</a>
</g>
</g>
<!-- Node13&#45;&gt;Node16 -->
<g id="edge17" class="edge">
<title>Node13&#45;&gt;Node16</title>
<path fill="none" stroke="#63b8ff" d="M342.87,-109.98C324.93,-101.5 297.15,-88.35 276.43,-78.54"/>
<polygon fill="#63b8ff" stroke="#63b8ff" points="277.72,-75.28 267.18,-74.17 274.72,-81.61 277.72,-75.28"/>
</g>
<!-- Node17 -->
<g id="node17" class="node">
<title>Node17</title>
<g id="a_node17"><a xlink:title=" ">
<polygon fill="#e0e0e0" stroke="#999999" points="337.86,-74 291.86,-74 291.86,-55 337.86,-55 337.86,-74"/>
<text text-anchor="middle" x="314.86" y="-62" font-family="Helvetica,sans-Serif" font-size="10.00">cstdio</text>
</a>
</g>
</g>
<!-- Node13&#45;&gt;Node17 -->
<g id="edge18" class="edge">
<title>Node13&#45;&gt;Node17</title>
<path fill="none" stroke="#63b8ff" d="M353.26,-109.75C346.7,-102.18 337.04,-91.05 329.05,-81.84"/>
<polygon fill="#63b8ff" stroke="#63b8ff" points="331.51,-79.35 322.32,-74.09 326.23,-83.94 331.51,-79.35"/>
</g>
<!-- Node18 -->
<g id="node18" class="node">
<title>Node18</title>
<g id="a_node18"><a xlink:title=" ">
<polygon fill="#e0e0e0" stroke="#999999" points="182.86,-19 132.86,-19 132.86,0 182.86,0 182.86,-19"/>
<text text-anchor="middle" x="157.86" y="-7" font-family="Helvetica,sans-Serif" font-size="10.00">cstdint</text>
</a>
</g>
</g>
<!-- Node13&#45;&gt;Node18 -->
<g id="edge20" class="edge">
<title>Node13&#45;&gt;Node18</title>
<path fill="none" stroke="#63b8ff" d="M328.1,-116.44C274.74,-112.34 172.8,-101.07 150.86,-74 140.73,-61.5 144.33,-42.78 149.35,-28.91"/>
<polygon fill="#63b8ff" stroke="#63b8ff" points="152.68,-30 153.26,-19.42 146.21,-27.33 152.68,-30"/>
</g>
<!-- Node19 -->
<g id="node19" class="node">
<title>Node19</title>
<g id="a_node19"><a xlink:title=" ">
<polygon fill="#e0e0e0" stroke="#999999" points="413.36,-74 356.36,-74 356.36,-55 413.36,-55 413.36,-74"/>
<text text-anchor="middle" x="384.86" y="-62" font-family="Helvetica,sans-Serif" font-size="10.00">ostream</text>
</a>
</g>
</g>
<!-- Node13&#45;&gt;Node19 -->
<g id="edge21" class="edge">
<title>Node13&#45;&gt;Node19</title>
<path fill="none" stroke="#63b8ff" d="M364.82,-109.75C368.07,-102.57 372.78,-92.18 376.81,-83.27"/>
<polygon fill="#63b8ff" stroke="#63b8ff" points="380.03,-84.64 380.97,-74.09 373.66,-81.75 380.03,-84.64"/>
</g>
<!-- Node20 -->
<g id="node20" class="node">
<title>Node20</title>
<g id="a_node20"><a xlink:href="../../db/d7c/utf8_8h.html" target="_top" xlink:title="Various UTF8 related helper functions.">
<polygon fill="white" stroke="#666666" points="205.36,-74 160.36,-74 160.36,-55 205.36,-55 205.36,-74"/>
<text text-anchor="middle" x="182.86" y="-62" font-family="Helvetica,sans-Serif" font-size="10.00">utf8.h</text>
</a>
</g>
</g>
<!-- Node13&#45;&gt;Node20 -->
<g id="edge22" class="edge">
<title>Node13&#45;&gt;Node20</title>
<path fill="none" stroke="#63b8ff" d="M332.26,-109.98C300.29,-100.46 248.62,-85.08 215.2,-75.13"/>
<polygon fill="#63b8ff" stroke="#63b8ff" points="216.04,-71.73 205.46,-72.23 214.05,-78.44 216.04,-71.73"/>
</g>
<!-- Node20&#45;&gt;Node8 -->
<g id="edge24" class="edge">
<title>Node20&#45;&gt;Node8</title>
<path fill="none" stroke="#63b8ff" d="M205.47,-56.92C208.6,-56.17 211.8,-55.5 214.86,-55 454.62,-15.49 748.67,-10.87 845.36,-10.47"/>
<polygon fill="#63b8ff" stroke="#63b8ff" points="845.66,-13.97 855.65,-10.45 845.64,-6.97 845.66,-13.97"/>
</g>
<!-- Node20&#45;&gt;Node18 -->
<g id="edge23" class="edge">
<title>Node20&#45;&gt;Node18</title>
<path fill="none" stroke="#63b8ff" d="M178.73,-54.75C175.35,-47.57 170.44,-37.18 166.24,-28.27"/>
<polygon fill="#63b8ff" stroke="#63b8ff" points="169.34,-26.64 161.91,-19.09 163.01,-29.63 169.34,-26.64"/>
</g>
<!-- Node22 -->
<g id="node22" class="node">
<title>Node22</title>
<g id="a_node22"><a xlink:title=" ">
<polygon fill="#e0e0e0" stroke="#999999" points="490.36,-294 403.36,-294 403.36,-275 490.36,-275 490.36,-294"/>
<text text-anchor="middle" x="446.86" y="-282" font-family="Helvetica,sans-Serif" font-size="10.00">configvalues.h</text>
</a>
</g>
</g>
<!-- Node21&#45;&gt;Node22 -->
<g id="edge26" class="edge">
<title>Node21&#45;&gt;Node22</title>
<path fill="none" stroke="#63b8ff" d="M575.28,-329.98C549.81,-321.16 509.82,-307.31 481.23,-297.41"/>
<polygon fill="#63b8ff" stroke="#63b8ff" points="482.23,-294.05 471.64,-294.08 479.94,-300.66 482.23,-294.05"/>
</g>
<!-- Node23&#45;&gt;Node13 -->
<g id="edge31" class="edge">
<title>Node23&#45;&gt;Node13</title>
<path fill="none" stroke="#63b8ff" d="M350.27,-439.84C340.09,-431.66 325.57,-418.51 316.86,-404 301.69,-378.75 297.86,-369.96 297.86,-340.5 297.86,-340.5 297.86,-340.5 297.86,-228.5 297.86,-191.49 325.81,-155.87 344.48,-136.21"/>
<polygon fill="#63b8ff" stroke="#63b8ff" points="347.03,-138.6 351.57,-129.03 342.05,-133.68 347.03,-138.6"/>
</g>
<!-- Node24 -->
<g id="node24" class="node">
<title>Node24</title>
<g id="a_node24"><a xlink:title=" ">
<polygon fill="#e0e0e0" stroke="#999999" points="269.86,-404 219.86,-404 219.86,-385 269.86,-385 269.86,-404"/>
<text text-anchor="middle" x="244.86" y="-392" font-family="Helvetica,sans-Serif" font-size="10.00">stdio.h</text>
</a>
</g>
</g>
<!-- Node23&#45;&gt;Node24 -->
<g id="edge28" class="edge">
<title>Node23&#45;&gt;Node24</title>
<path fill="none" stroke="#63b8ff" d="M343.06,-439.98C324.24,-431.46 295.04,-418.23 273.36,-408.41"/>
<polygon fill="#63b8ff" stroke="#63b8ff" points="274.55,-405.11 264,-404.17 271.67,-411.48 274.55,-405.11"/>
</g>
<!-- Node25 -->
<g id="node25" class="node">
<title>Node25</title>
<g id="a_node25"><a xlink:title=" ">
<polygon fill="#e0e0e0" stroke="#999999" points="397.86,-404 325.86,-404 325.86,-385 397.86,-385 397.86,-404"/>
<text text-anchor="middle" x="361.86" y="-392" font-family="Helvetica,sans-Serif" font-size="10.00">sys/types.h</text>
</a>
</g>
</g>
<!-- Node23&#45;&gt;Node25 -->
<g id="edge29" class="edge">
<title>Node23&#45;&gt;Node25</title>
<path fill="none" stroke="#63b8ff" d="M361.86,-439.75C361.86,-432.8 361.86,-422.85 361.86,-414.13"/>
<polygon fill="#63b8ff" stroke="#63b8ff" points="365.36,-414.09 361.86,-404.09 358.36,-414.09 365.36,-414.09"/>
</g>
<!-- Node26 -->
<g id="node26" class="node">
<title>Node26</title>
<g id="a_node26"><a xlink:title=" ">
<polygon fill="#e0e0e0" stroke="#999999" points="201.36,-404 148.36,-404 148.36,-385 201.36,-385 201.36,-404"/>
<text text-anchor="middle" x="174.86" y="-392" font-family="Helvetica,sans-Serif" font-size="10.00">stdint.h</text>
</a>
</g>
</g>
<!-- Node23&#45;&gt;Node26 -->
<g id="edge30" class="edge">
<title>Node23&#45;&gt;Node26</title>
<path fill="none" stroke="#63b8ff" d="M331.82,-439.98C299.02,-430.69 246.51,-415.81 211.36,-405.85"/>
<polygon fill="#63b8ff" stroke="#63b8ff" points="212.08,-402.41 201.5,-403.05 210.17,-409.14 212.08,-402.41"/>
</g>
<!-- Node27&#45;&gt;Node22 -->
<g id="edge72" class="edge">
<title>Node27&#45;&gt;Node22</title>
<path fill="none" stroke="#63b8ff" d="M535.06,-439.96C532.22,-427.47 526.08,-403.65 516.86,-385 501.28,-353.48 476.35,-320.87 460.83,-301.92"/>
<polygon fill="#63b8ff" stroke="#63b8ff" points="463.52,-299.68 454.43,-294.23 458.14,-304.16 463.52,-299.68"/>
</g>
<!-- Node28 -->
<g id="node28" class="node">
<title>Node28</title>
<g id="a_node28"><a xlink:href="../../d9/df1/translator_8h.html" target="_top" xlink:title=" ">
<polygon fill="white" stroke="#666666" points="635.86,-404 563.86,-404 563.86,-385 635.86,-385 635.86,-404"/>
<text text-anchor="middle" x="599.86" y="-392" font-family="Helvetica,sans-Serif" font-size="10.00">translator.h</text>
</a>
</g>
</g>
<!-- Node27&#45;&gt;Node28 -->
<g id="edge33" class="edge">
<title>Node27&#45;&gt;Node28</title>
<path fill="none" stroke="#63b8ff" d="M546.98,-439.98C556.3,-432.15 570.33,-420.34 581.6,-410.86"/>
<polygon fill="#63b8ff" stroke="#63b8ff" points="584.16,-413.29 589.55,-404.17 579.65,-407.93 584.16,-413.29"/>
</g>
<!-- Node28&#45;&gt;Node21 -->
<g id="edge71" class="edge">
<title>Node28&#45;&gt;Node21</title>
<path fill="none" stroke="#63b8ff" d="M599.86,-384.75C599.86,-377.8 599.86,-367.85 599.86,-359.13"/>
<polygon fill="#63b8ff" stroke="#63b8ff" points="603.36,-359.09 599.86,-349.09 596.36,-359.09 603.36,-359.09"/>
</g>
<!-- Node29 -->
<g id="node29" class="node">
<title>Node29</title>
<g id="a_node29"><a xlink:href="../../d1/da6/classdef_8h.html" target="_top" xlink:title=" ">
<polygon fill="white" stroke="#666666" points="778.36,-349 713.36,-349 713.36,-330 778.36,-330 778.36,-349"/>
<text text-anchor="middle" x="745.86" y="-337" font-family="Helvetica,sans-Serif" font-size="10.00">classdef.h</text>
</a>
</g>
</g>
<!-- Node28&#45;&gt;Node29 -->
<g id="edge34" class="edge">
<title>Node28&#45;&gt;Node29</title>
<path fill="none" stroke="#63b8ff" d="M623.32,-384.98C647.44,-376.23 685.23,-362.51 712.46,-352.62"/>
<polygon fill="#63b8ff" stroke="#63b8ff" points="713.77,-355.87 721.98,-349.17 711.38,-349.29 713.77,-355.87"/>
</g>
<!-- Node29&#45;&gt;Node9 -->
<g id="edge35" class="edge">
<title>Node29&#45;&gt;Node9</title>
<path fill="none" stroke="#63b8ff" d="M778.37,-336.68C871.76,-330.64 1136.99,-307.61 1180.86,-239 1185.41,-231.89 1186.04,-226.67 1180.86,-220 1169.23,-205.01 888.26,-143.37 826.51,-128.99"/>
<polygon fill="#63b8ff" stroke="#63b8ff" points="827.19,-125.56 816.65,-126.63 825.56,-132.37 827.19,-125.56"/>
</g>
<!-- Node30 -->
<g id="node30" class="node">
<title>Node30</title>
<g id="a_node30"><a xlink:title=" ">
<polygon fill="#e0e0e0" stroke="#999999" points="1171.86,-239 1139.86,-239 1139.86,-220 1171.86,-220 1171.86,-239"/>
<text text-anchor="middle" x="1155.86" y="-227" font-family="Helvetica,sans-Serif" font-size="10.00">set</text>
</a>
</g>
</g>
<!-- Node29&#45;&gt;Node30 -->
<g id="edge36" class="edge">
<title>Node29&#45;&gt;Node30</title>
<path fill="none" stroke="#63b8ff" d="M778.67,-336.33C831.39,-332.17 937.8,-320.96 1023.86,-294 1063.67,-281.53 1106.66,-258.97 1132.41,-244.37"/>
<polygon fill="#63b8ff" stroke="#63b8ff" points="1134.47,-247.22 1141.39,-239.2 1130.98,-241.15 1134.47,-247.22"/>
</g>
<!-- Node31 -->
<g id="node31" class="node">
<title>Node31</title>
<g id="a_node31"><a xlink:href="../../d5/d75/containers_8h.html" target="_top" xlink:title=" ">
<polygon fill="white" stroke="#666666" points="1014.36,-294 937.36,-294 937.36,-275 1014.36,-275 1014.36,-294"/>
<text text-anchor="middle" x="975.86" y="-282" font-family="Helvetica,sans-Serif" font-size="10.00">containers.h</text>
</a>
</g>
</g>
<!-- Node29&#45;&gt;Node31 -->
<g id="edge37" class="edge">
<title>Node29&#45;&gt;Node31</title>
<path fill="none" stroke="#63b8ff" d="M778.81,-330.91C818.19,-321.83 884.35,-306.59 929.03,-296.29"/>
<polygon fill="#63b8ff" stroke="#63b8ff" points="929.82,-299.7 938.78,-294.05 928.25,-292.88 929.82,-299.7"/>
</g>
<!-- Node36 -->
<g id="node36" class="node">
<title>Node36</title>
<g id="a_node36"><a xlink:href="../../df/da1/definition_8h.html" target="_top" xlink:title=" ">
<polygon fill="white" stroke="#666666" points="680.36,-294 609.36,-294 609.36,-275 680.36,-275 680.36,-294"/>
<text text-anchor="middle" x="644.86" y="-282" font-family="Helvetica,sans-Serif" font-size="10.00">definition.h</text>
</a>
</g>
</g>
<!-- Node29&#45;&gt;Node36 -->
<g id="edge45" class="edge">
<title>Node29&#45;&gt;Node36</title>
<path fill="none" stroke="#63b8ff" d="M729.63,-329.98C713.68,-321.61 689.08,-308.7 670.48,-298.95"/>
<polygon fill="#63b8ff" stroke="#63b8ff" points="671.86,-295.72 661.38,-294.17 668.61,-301.92 671.86,-295.72"/>
</g>
<!-- Node40 -->
<g id="node40" class="node">
<title>Node40</title>
<g id="a_node40"><a xlink:href="../../df/d9b/arguments_8h.html" target="_top" xlink:title=" ">
<polygon fill="white" stroke="#666666" points="441.86,-184 363.86,-184 363.86,-165 441.86,-165 441.86,-184"/>
<text text-anchor="middle" x="402.86" y="-172" font-family="Helvetica,sans-Serif" font-size="10.00">arguments.h</text>
</a>
</g>
</g>
<!-- Node29&#45;&gt;Node40 -->
<g id="edge62" class="edge">
<title>Node29&#45;&gt;Node40</title>
<path fill="none" stroke="#63b8ff" d="M713.08,-330.86C683.15,-323.32 638.03,-310.53 600.86,-294 532.32,-263.51 458.1,-214.22 423.19,-189.95"/>
<polygon fill="#63b8ff" stroke="#63b8ff" points="425.01,-186.94 414.81,-184.07 420.99,-192.68 425.01,-186.94"/>
</g>
<!-- Node41 -->
<g id="node41" class="node">
<title>Node41</title>
<g id="a_node41"><a xlink:href="../../d9/d11/membergroup_8h.html" target="_top" xlink:title=" ">
<polygon fill="white" stroke="#666666" points="793.36,-294 698.36,-294 698.36,-275 793.36,-275 793.36,-294"/>
<text text-anchor="middle" x="745.86" y="-282" font-family="Helvetica,sans-Serif" font-size="10.00">membergroup.h</text>
</a>
</g>
</g>
<!-- Node29&#45;&gt;Node41 -->
<g id="edge65" class="edge">
<title>Node29&#45;&gt;Node41</title>
<path fill="none" stroke="#63b8ff" d="M745.86,-329.75C745.86,-322.8 745.86,-312.85 745.86,-304.13"/>
<polygon fill="#63b8ff" stroke="#63b8ff" points="749.36,-304.09 745.86,-294.09 742.36,-304.09 749.36,-304.09"/>
</g>
<!-- Node31&#45;&gt;Node8 -->
<g id="edge39" class="edge">
<title>Node31&#45;&gt;Node8</title>
<path fill="none" stroke="#63b8ff" d="M1010.48,-274.98C1041.37,-266.6 1083.18,-253.04 1092.86,-239 1097.65,-232.05 1096.14,-227.78 1092.86,-220 1053.27,-126.14 948.79,-53.47 901.6,-24.36"/>
<polygon fill="#63b8ff" stroke="#63b8ff" points="903.32,-21.31 892.96,-19.12 899.7,-27.3 903.32,-21.31"/>
</g>
<!-- Node31&#45;&gt;Node9 -->
<g id="edge38" class="edge">
<title>Node31&#45;&gt;Node9</title>
<path fill="none" stroke="#63b8ff" d="M982.31,-274.66C990.85,-261.78 1003.63,-237.49 992.86,-220 974.05,-189.44 877.91,-151.06 826.08,-132.14"/>
<polygon fill="#63b8ff" stroke="#63b8ff" points="827.24,-128.84 816.64,-128.74 824.86,-135.42 827.24,-128.84"/>
</g>
<!-- Node31&#45;&gt;Node30 -->
<g id="edge40" class="edge">
<title>Node31&#45;&gt;Node30</title>
<path fill="none" stroke="#63b8ff" d="M1004.78,-274.98C1039.22,-264.85 1096.24,-248.06 1129.5,-238.26"/>
<polygon fill="#63b8ff" stroke="#63b8ff" points="1130.81,-241.53 1139.41,-235.34 1128.83,-234.81 1130.81,-241.53"/>
</g>
<!-- Node32 -->
<g id="node32" class="node">
<title>Node32</title>
<g id="a_node32"><a xlink:title=" ">
<polygon fill="#e0e0e0" stroke="#999999" points="841.86,-239 803.86,-239 803.86,-220 841.86,-220 841.86,-239"/>
<text text-anchor="middle" x="822.86" y="-227" font-family="Helvetica,sans-Serif" font-size="10.00">map</text>
</a>
</g>
</g>
<!-- Node31&#45;&gt;Node32 -->
<g id="edge41" class="edge">
<title>Node31&#45;&gt;Node32</title>
<path fill="none" stroke="#63b8ff" d="M951.28,-274.98C924.08,-265.56 880.29,-250.39 851.54,-240.44"/>
<polygon fill="#63b8ff" stroke="#63b8ff" points="852.65,-237.11 842.05,-237.15 850.36,-243.73 852.65,-237.11"/>
</g>
<!-- Node33 -->
<g id="node33" class="node">
<title>Node33</title>
<g id="a_node33"><a xlink:title=" ">
<polygon fill="#e0e0e0" stroke="#999999" points="983.86,-239 897.86,-239 897.86,-220 983.86,-220 983.86,-239"/>
<text text-anchor="middle" x="940.86" y="-227" font-family="Helvetica,sans-Serif" font-size="10.00">unordered_set</text>
</a>
</g>
</g>
<!-- Node31&#45;&gt;Node33 -->
<g id="edge42" class="edge">
<title>Node31&#45;&gt;Node33</title>
<path fill="none" stroke="#63b8ff" d="M970.08,-274.75C965.24,-267.42 958.18,-256.73 952.22,-247.7"/>
<polygon fill="#63b8ff" stroke="#63b8ff" points="954.96,-245.5 946.53,-239.09 949.12,-249.36 954.96,-245.5"/>
</g>
<!-- Node34 -->
<g id="node34" class="node">
<title>Node34</title>
<g id="a_node34"><a xlink:title=" ">
<polygon fill="#e0e0e0" stroke="#999999" points="751.36,-129 658.36,-129 658.36,-110 751.36,-110 751.36,-129"/>
<text text-anchor="middle" x="704.86" y="-117" font-family="Helvetica,sans-Serif" font-size="10.00">unordered_map</text>
</a>
</g>
</g>
<!-- Node31&#45;&gt;Node34 -->
<g id="edge43" class="edge">
<title>Node31&#45;&gt;Node34</title>
<path fill="none" stroke="#63b8ff" d="M957.92,-274.97C940.14,-266.37 912.24,-252.46 888.86,-239 828.37,-204.16 759.93,-158.29 726.11,-135.17"/>
<polygon fill="#63b8ff" stroke="#63b8ff" points="727.75,-132.05 717.53,-129.28 723.79,-137.82 727.75,-132.05"/>
</g>
<!-- Node35 -->
<g id="node35" class="node">
<title>Node35</title>
<g id="a_node35"><a xlink:title=" ">
<polygon fill="#e0e0e0" stroke="#999999" points="1083.36,-239 1040.36,-239 1040.36,-220 1083.36,-220 1083.36,-239"/>
<text text-anchor="middle" x="1061.86" y="-227" font-family="Helvetica,sans-Serif" font-size="10.00">stack</text>
</a>
</g>
</g>
<!-- Node31&#45;&gt;Node35 -->
<g id="edge44" class="edge">
<title>Node31&#45;&gt;Node35</title>
<path fill="none" stroke="#63b8ff" d="M989.68,-274.98C1003.01,-266.77 1023.44,-254.18 1039.17,-244.49"/>
<polygon fill="#63b8ff" stroke="#63b8ff" points="1041.12,-247.4 1047.79,-239.17 1037.44,-241.44 1041.12,-247.4"/>
</g>
<!-- Node36&#45;&gt;Node9 -->
<g id="edge46" class="edge">
<title>Node36&#45;&gt;Node9</title>
<path fill="none" stroke="#63b8ff" d="M652.82,-274.74C676.51,-248.65 746.85,-171.17 777.88,-137"/>
<polygon fill="#63b8ff" stroke="#63b8ff" points="780.73,-139.06 784.86,-129.31 775.55,-134.36 780.73,-139.06"/>
</g>
<!-- Node37 -->
<g id="node37" class="node">
<title>Node37</title>
<g id="a_node37"><a xlink:href="../../d9/d49/types_8h.html" target="_top" xlink:title="This file contains a number of basic enums and types.">
<polygon fill="white" stroke="#666666" points="600.36,-239 547.36,-239 547.36,-220 600.36,-220 600.36,-239"/>
<text text-anchor="middle" x="573.86" y="-227" font-family="Helvetica,sans-Serif" font-size="10.00">types.h</text>
</a>
</g>
</g>
<!-- Node36&#45;&gt;Node37 -->
<g id="edge47" class="edge">
<title>Node36&#45;&gt;Node37</title>
<path fill="none" stroke="#63b8ff" d="M633.45,-274.98C622.75,-267 606.52,-254.88 593.7,-245.31"/>
<polygon fill="#63b8ff" stroke="#63b8ff" points="595.58,-242.35 585.48,-239.17 591.4,-247.96 595.58,-242.35"/>
</g>
<!-- Node38 -->
<g id="node38" class="node">
<title>Node38</title>
<g id="a_node38"><a xlink:href="../../d1/d02/reflist_8h.html" target="_top" xlink:title=" ">
<polygon fill="white" stroke="#666666" points="671.36,-239 618.36,-239 618.36,-220 671.36,-220 671.36,-239"/>
<text text-anchor="middle" x="644.86" y="-227" font-family="Helvetica,sans-Serif" font-size="10.00">reflist.h</text>
</a>
</g>
</g>
<!-- Node36&#45;&gt;Node38 -->
<g id="edge49" class="edge">
<title>Node36&#45;&gt;Node38</title>
<path fill="none" stroke="#63b8ff" d="M644.86,-274.75C644.86,-267.8 644.86,-257.85 644.86,-249.13"/>
<polygon fill="#63b8ff" stroke="#63b8ff" points="648.36,-249.09 644.86,-239.09 641.36,-249.09 648.36,-249.09"/>
</g>
<!-- Node37&#45;&gt;Node13 -->
<g id="edge48" class="edge">
<title>Node37&#45;&gt;Node13</title>
<path fill="none" stroke="#63b8ff" d="M557.59,-219.99C534.09,-207.72 489.25,-184.4 450.86,-165 429.73,-154.32 405.68,-142.45 387.76,-133.65"/>
<polygon fill="#63b8ff" stroke="#63b8ff" points="389.02,-130.37 378.5,-129.11 385.93,-136.65 389.02,-130.37"/>
</g>
<!-- Node38&#45;&gt;Node4 -->
<g id="edge52" class="edge">
<title>Node38&#45;&gt;Node4</title>
<path fill="none" stroke="#63b8ff" d="M662.41,-219.84C700.71,-200.96 791.96,-155.96 837.33,-133.59"/>
<polygon fill="#63b8ff" stroke="#63b8ff" points="839.11,-136.61 846.53,-129.05 836.01,-130.33 839.11,-136.61"/>
</g>
<!-- Node38&#45;&gt;Node9 -->
<g id="edge50" class="edge">
<title>Node38&#45;&gt;Node9</title>
<path fill="none" stroke="#63b8ff" d="M651.31,-219.77C661.37,-206.59 681.94,-181.42 703.86,-165 721.36,-151.89 743.31,-140.87 761.03,-133.07"/>
<polygon fill="#63b8ff" stroke="#63b8ff" points="762.56,-136.22 770.39,-129.08 759.82,-129.79 762.56,-136.22"/>
</g>
<!-- Node38&#45;&gt;Node13 -->
<g id="edge53" class="edge">
<title>Node38&#45;&gt;Node13</title>
<path fill="none" stroke="#63b8ff" d="M621.94,-219.94C598.31,-211.08 560.43,-196.78 527.86,-184 506.89,-175.77 501.87,-173.14 480.86,-165 451.72,-153.71 418.39,-141.4 394.26,-132.59"/>
<polygon fill="#63b8ff" stroke="#63b8ff" points="395.44,-129.29 384.84,-129.16 393.04,-135.87 395.44,-129.29"/>
</g>
<!-- Node38&#45;&gt;Node34 -->
<g id="edge51" class="edge">
<title>Node38&#45;&gt;Node34</title>
<path fill="none" stroke="#63b8ff" d="M646.57,-219.83C649.32,-207.17 655.48,-183.14 665.86,-165 671.83,-154.57 680.49,-144.37 688.13,-136.38"/>
<polygon fill="#63b8ff" stroke="#63b8ff" points="690.71,-138.75 695.3,-129.2 685.76,-133.81 690.71,-138.75"/>
</g>
<!-- Node39 -->
<g id="node39" class="node">
<title>Node39</title>
<g id="a_node39"><a xlink:href="../../da/de1/linkedmap_8h.html" target="_top" xlink:title=" ">
<polygon fill="white" stroke="#666666" points="613.36,-184 536.36,-184 536.36,-165 613.36,-165 613.36,-184"/>
<text text-anchor="middle" x="574.86" y="-172" font-family="Helvetica,sans-Serif" font-size="10.00">linkedmap.h</text>
</a>
</g>
</g>
<!-- Node38&#45;&gt;Node39 -->
<g id="edge54" class="edge">
<title>Node38&#45;&gt;Node39</title>
<path fill="none" stroke="#63b8ff" d="M633.61,-219.98C623.06,-212 607.06,-199.88 594.42,-190.31"/>
<polygon fill="#63b8ff" stroke="#63b8ff" points="596.4,-187.42 586.31,-184.17 592.17,-193 596.4,-187.42"/>
</g>
<!-- Node39&#45;&gt;Node4 -->
<g id="edge57" class="edge">
<title>Node39&#45;&gt;Node4</title>
<path fill="none" stroke="#63b8ff" d="M613.66,-167.17C661.14,-159.31 744.2,-145.16 825,-129.1"/>
<polygon fill="#63b8ff" stroke="#63b8ff" points="825.72,-132.52 834.84,-127.13 824.35,-125.66 825.72,-132.52"/>
</g>
<!-- Node39&#45;&gt;Node8 -->
<g id="edge58" class="edge">
<title>Node39&#45;&gt;Node8</title>
<path fill="none" stroke="#63b8ff" d="M583.43,-164.76C596.72,-151.59 623.5,-126.42 649.86,-110 715.47,-69.14 800.77,-36.78 846.17,-21.01"/>
<polygon fill="#63b8ff" stroke="#63b8ff" points="847.44,-24.27 855.76,-17.72 845.17,-17.65 847.44,-24.27"/>
</g>
<!-- Node39&#45;&gt;Node9 -->
<g id="edge56" class="edge">
<title>Node39&#45;&gt;Node9</title>
<path fill="none" stroke="#63b8ff" d="M611.63,-164.99C647.14,-156.7 702.7,-143.58 759.28,-129.36"/>
<polygon fill="#63b8ff" stroke="#63b8ff" points="760.27,-132.72 769.11,-126.88 758.56,-125.93 760.27,-132.72"/>
</g>
<!-- Node39&#45;&gt;Node13 -->
<g id="edge61" class="edge">
<title>Node39&#45;&gt;Node13</title>
<path fill="none" stroke="#63b8ff" d="M540.48,-164.98C503.12,-155.73 443.4,-140.94 403.18,-130.98"/>
<polygon fill="#63b8ff" stroke="#63b8ff" points="403.95,-127.57 393.4,-128.56 402.27,-134.36 403.95,-127.57"/>
</g>
<!-- Node39&#45;&gt;Node14 -->
<g id="edge59" class="edge">
<title>Node39&#45;&gt;Node14</title>
<path fill="none" stroke="#63b8ff" d="M568.89,-164.66C556.8,-146.77 529.24,-106 513.48,-82.69"/>
<polygon fill="#63b8ff" stroke="#63b8ff" points="516.21,-80.48 507.71,-74.16 510.41,-84.4 516.21,-80.48"/>
</g>
<!-- Node39&#45;&gt;Node15 -->
<g id="edge60" class="edge">
<title>Node39&#45;&gt;Node15</title>
<path fill="none" stroke="#63b8ff" d="M575.02,-164.66C575.35,-147.17 576.08,-107.8 576.51,-84.27"/>
<polygon fill="#63b8ff" stroke="#63b8ff" points="580.01,-84.22 576.7,-74.16 573.02,-84.09 580.01,-84.22"/>
</g>
<!-- Node39&#45;&gt;Node34 -->
<g id="edge55" class="edge">
<title>Node39&#45;&gt;Node34</title>
<path fill="none" stroke="#63b8ff" d="M595.75,-164.98C616.94,-156.34 649.99,-142.87 674.16,-133.02"/>
<polygon fill="#63b8ff" stroke="#63b8ff" points="675.66,-136.19 683.59,-129.17 673.01,-129.7 675.66,-136.19"/>
</g>
<!-- Node40&#45;&gt;Node9 -->
<g id="edge63" class="edge">
<title>Node40&#45;&gt;Node9</title>
<path fill="none" stroke="#63b8ff" d="M442.07,-170.38C506.42,-164.89 638.56,-152.01 759.05,-129.13"/>
<polygon fill="#63b8ff" stroke="#63b8ff" points="760.02,-132.5 769.18,-127.17 758.7,-125.63 760.02,-132.5"/>
</g>
<!-- Node40&#45;&gt;Node13 -->
<g id="edge64" class="edge">
<title>Node40&#45;&gt;Node13</title>
<path fill="none" stroke="#63b8ff" d="M395.93,-164.75C389.99,-157.26 381.29,-146.28 374.04,-137.13"/>
<polygon fill="#63b8ff" stroke="#63b8ff" points="376.62,-134.75 367.67,-129.09 371.13,-139.1 376.62,-134.75"/>
</g>
<!-- Node41&#45;&gt;Node4 -->
<g id="edge68" class="edge">
<title>Node41&#45;&gt;Node4</title>
<path fill="none" stroke="#63b8ff" d="M752.21,-274.74C771.01,-248.76 826.7,-171.83 851.6,-137.44"/>
<polygon fill="#63b8ff" stroke="#63b8ff" points="854.46,-139.46 857.49,-129.31 848.79,-135.35 854.46,-139.46"/>
</g>
<!-- Node41&#45;&gt;Node9 -->
<g id="edge66" class="edge">
<title>Node41&#45;&gt;Node9</title>
<path fill="none" stroke="#63b8ff" d="M747.88,-274.83C750.78,-262.57 756.38,-239.48 761.86,-220 769.89,-191.49 780.32,-158.76 786.81,-138.86"/>
<polygon fill="#63b8ff" stroke="#63b8ff" points="790.17,-139.83 789.96,-129.24 783.52,-137.65 790.17,-139.83"/>
</g>
<!-- Node41&#45;&gt;Node32 -->
<g id="edge67" class="edge">
<title>Node41&#45;&gt;Node32</title>
<path fill="none" stroke="#63b8ff" d="M758.23,-274.98C769.95,-266.92 787.78,-254.65 801.75,-245.03"/>
<polygon fill="#63b8ff" stroke="#63b8ff" points="804.01,-247.72 810.26,-239.17 800.04,-241.96 804.01,-247.72"/>
</g>
<!-- Node41&#45;&gt;Node37 -->
<g id="edge69" class="edge">
<title>Node41&#45;&gt;Node37</title>
<path fill="none" stroke="#63b8ff" d="M718.23,-274.98C689.01,-265.98 642.77,-251.73 610.52,-241.8"/>
<polygon fill="#63b8ff" stroke="#63b8ff" points="611.17,-238.33 600.58,-238.73 609.1,-245.02 611.17,-238.33"/>
</g>
<!-- Node41&#45;&gt;Node38 -->
<g id="edge70" class="edge">
<title>Node41&#45;&gt;Node38</title>
<path fill="none" stroke="#63b8ff" d="M729.63,-274.98C713.68,-266.61 689.08,-253.7 670.48,-243.95"/>
<polygon fill="#63b8ff" stroke="#63b8ff" points="671.86,-240.72 661.38,-239.17 668.61,-246.92 671.86,-240.72"/>
</g>
<!-- Node42&#45;&gt;Node13 -->
<g id="edge75" class="edge">
<title>Node42&#45;&gt;Node13</title>
<path fill="none" stroke="#63b8ff" d="M443.5,-439.66C427.6,-406.86 372.71,-288.6 354.86,-184 352.3,-168.97 354.22,-151.74 356.56,-139.03"/>
<polygon fill="#63b8ff" stroke="#63b8ff" points="359.99,-139.68 358.61,-129.18 353.14,-138.26 359.99,-139.68"/>
</g>
<!-- Node43 -->
<g id="node43" class="node">
<title>Node43</title>
<g id="a_node43"><a xlink:title=" ">
<polygon fill="#e0e0e0" stroke="#999999" points="507.36,-404 454.36,-404 454.36,-385 507.36,-385 507.36,-404"/>
<text text-anchor="middle" x="480.86" y="-392" font-family="Helvetica,sans-Serif" font-size="10.00">cstdarg</text>
</a>
</g>
</g>
<!-- Node42&#45;&gt;Node43 -->
<g id="edge74" class="edge">
<title>Node42&#45;&gt;Node43</title>
<path fill="none" stroke="#63b8ff" d="M453.31,-439.75C457.88,-432.42 464.53,-421.73 470.15,-412.7"/>
<polygon fill="#63b8ff" stroke="#63b8ff" points="473.2,-414.43 475.51,-404.09 467.26,-410.73 473.2,-414.43"/>
</g>
<!-- Node44&#45;&gt;Node8 -->
<g id="edge80" class="edge">
<title>Node44&#45;&gt;Node8</title>
<path fill="none" stroke="#63b8ff" d="M1357.55,-439.91C1343.45,-422.43 1313.86,-380.93 1313.86,-340.5 1313.86,-340.5 1313.86,-340.5 1313.86,-118.5 1313.86,-35.36 1011.38,-15.79 910.3,-11.57"/>
<polygon fill="#63b8ff" stroke="#63b8ff" points="910.21,-8.07 900.08,-11.17 909.94,-15.06 910.21,-8.07"/>
</g>
<!-- Node45 -->
<g id="node45" class="node">
<title>Node45</title>
<g id="a_node45"><a xlink:title=" ">
<polygon fill="#e0e0e0" stroke="#999999" points="1387.36,-404 1342.36,-404 1342.36,-385 1387.36,-385 1387.36,-404"/>
<text text-anchor="middle" x="1364.86" y="-392" font-family="Helvetica,sans-Serif" font-size="10.00">utility</text>
</a>
</g>
</g>
<!-- Node44&#45;&gt;Node45 -->
<g id="edge77" class="edge">
<title>Node44&#45;&gt;Node45</title>
<path fill="none" stroke="#63b8ff" d="M1364.86,-439.75C1364.86,-432.8 1364.86,-422.85 1364.86,-414.13"/>
<polygon fill="#63b8ff" stroke="#63b8ff" points="1368.36,-414.09 1364.86,-404.09 1361.36,-414.09 1368.36,-414.09"/>
</g>
<!-- Node46 -->
<g id="node46" class="node">
<title>Node46</title>
<g id="a_node46"><a xlink:title=" ">
<polygon fill="#e0e0e0" stroke="#999999" points="1458.36,-404 1405.36,-404 1405.36,-385 1458.36,-385 1458.36,-404"/>
<text text-anchor="middle" x="1431.86" y="-392" font-family="Helvetica,sans-Serif" font-size="10.00">stdlib.h</text>
</a>
</g>
</g>
<!-- Node44&#45;&gt;Node46 -->
<g id="edge78" class="edge">
<title>Node44&#45;&gt;Node46</title>
<path fill="none" stroke="#63b8ff" d="M1375.63,-439.98C1385.63,-432.07 1400.75,-420.11 1412.79,-410.58"/>
<polygon fill="#63b8ff" stroke="#63b8ff" points="1415.23,-413.12 1420.9,-404.17 1410.89,-407.63 1415.23,-413.12"/>
</g>
<!-- Node47 -->
<g id="node47" class="node">
<title>Node47</title>
<g id="a_node47"><a xlink:title=" ">
<polygon fill="#e0e0e0" stroke="#999999" points="1529.36,-404 1476.36,-404 1476.36,-385 1529.36,-385 1529.36,-404"/>
<text text-anchor="middle" x="1502.86" y="-392" font-family="Helvetica,sans-Serif" font-size="10.00">string.h</text>
</a>
</g>
</g>
<!-- Node44&#45;&gt;Node47 -->
<g id="edge79" class="edge">
<title>Node44&#45;&gt;Node47</title>
<path fill="none" stroke="#63b8ff" d="M1387.03,-439.98C1409.63,-431.3 1444.92,-417.75 1470.61,-407.88"/>
<polygon fill="#63b8ff" stroke="#63b8ff" points="1472.21,-411.02 1480.29,-404.17 1469.7,-404.49 1472.21,-411.02"/>
</g>
</g>
</svg>
