<?xml version="1.0" encoding="UTF-8" standalone="no"?>
<!DOCTYPE svg PUBLIC "-//W3C//DTD SVG 1.1//EN"
 "http://www.w3.org/Graphics/SVG/1.1/DTD/svg11.dtd">
<!-- Generated by graphviz version 2.43.0 (0)
 -->
<!-- Title: /home/runner/work/doxygen/doxygen/src/datetime.cpp Pages: 1 -->
<svg width="1289pt" height="533pt"
 viewBox="0.00 0.00 1289.00 533.00" xmlns="http://www.w3.org/2000/svg" xmlns:xlink="http://www.w3.org/1999/xlink">
<g id="graph0" class="graph" transform="scale(1 1) rotate(0) translate(4 529)">
<title>/home/runner/work/doxygen/doxygen/src/datetime.cpp</title>
<!-- Node1 -->
<g id="node1" class="node">
<title>Node1</title>
<g id="a_node1"><a xlink:title=" ">
<polygon fill="#999999" stroke="#666666" points="1001.5,-525 847.5,-525 847.5,-495 1001.5,-495 1001.5,-525"/>
<text text-anchor="start" x="855.5" y="-513" font-family="Helvetica,sans-Serif" font-size="10.00">/home/runner/work/doxygen</text>
<text text-anchor="middle" x="924.5" y="-502" font-family="Helvetica,sans-Serif" font-size="10.00">/doxygen/src/datetime.cpp</text>
</a>
</g>
</g>
<!-- Node2 -->
<g id="node2" class="node">
<title>Node2</title>
<g id="a_node2"><a xlink:title=" ">
<polygon fill="#e0e0e0" stroke="#999999" points="49,-74 0,-74 0,-55 49,-55 49,-74"/>
<text text-anchor="middle" x="24.5" y="-62" font-family="Helvetica,sans-Serif" font-size="10.00">cstdlib</text>
</a>
</g>
</g>
<!-- Node1&#45;&gt;Node2 -->
<g id="edge1" class="edge">
<title>Node1&#45;&gt;Node2</title>
<path fill="none" stroke="#63b8ff" d="M847.14,-508.14C648.92,-505.42 133.57,-494.95 65.5,-459 33.98,-442.35 16.5,-431.15 16.5,-395.5 16.5,-395.5 16.5,-395.5 16.5,-173.5 16.5,-142.1 19.9,-105.71 22.27,-84.2"/>
<polygon fill="#63b8ff" stroke="#63b8ff" points="25.76,-84.5 23.42,-74.16 18.81,-83.7 25.76,-84.5"/>
</g>
<!-- Node3 -->
<g id="node3" class="node">
<title>Node3</title>
<g id="a_node3"><a xlink:title=" ">
<polygon fill="#e0e0e0" stroke="#999999" points="1137.5,-459 1087.5,-459 1087.5,-440 1137.5,-440 1137.5,-459"/>
<text text-anchor="middle" x="1112.5" y="-447" font-family="Helvetica,sans-Serif" font-size="10.00">chrono</text>
</a>
</g>
</g>
<!-- Node1&#45;&gt;Node3 -->
<g id="edge2" class="edge">
<title>Node1&#45;&gt;Node3</title>
<path fill="none" stroke="#63b8ff" d="M969.53,-494.99C1002.71,-484.66 1047.19,-470.82 1077.68,-461.34"/>
<polygon fill="#63b8ff" stroke="#63b8ff" points="1078.93,-464.61 1087.44,-458.3 1076.85,-457.93 1078.93,-464.61"/>
</g>
<!-- Node4 -->
<g id="node4" class="node">
<title>Node4</title>
<g id="a_node4"><a xlink:title=" ">
<polygon fill="#e0e0e0" stroke="#999999" points="897.5,-129 839.5,-129 839.5,-110 897.5,-110 897.5,-129"/>
<text text-anchor="middle" x="868.5" y="-117" font-family="Helvetica,sans-Serif" font-size="10.00">memory</text>
</a>
</g>
</g>
<!-- Node1&#45;&gt;Node4 -->
<g id="edge3" class="edge">
<title>Node1&#45;&gt;Node4</title>
<path fill="none" stroke="#63b8ff" d="M927.19,-494.73C931,-473.27 937.5,-431.4 937.5,-395.5 937.5,-395.5 937.5,-395.5 937.5,-338.5 937.5,-260.85 897.21,-174.58 878.21,-138.21"/>
<polygon fill="#63b8ff" stroke="#63b8ff" points="881.26,-136.49 873.46,-129.32 875.08,-139.79 881.26,-136.49"/>
</g>
<!-- Node5 -->
<g id="node5" class="node">
<title>Node5</title>
<g id="a_node5"><a xlink:title=" ">
<polygon fill="#e0e0e0" stroke="#999999" points="1197.5,-459 1155.5,-459 1155.5,-440 1197.5,-440 1197.5,-459"/>
<text text-anchor="middle" x="1176.5" y="-447" font-family="Helvetica,sans-Serif" font-size="10.00">array</text>
</a>
</g>
</g>
<!-- Node1&#45;&gt;Node5 -->
<g id="edge4" class="edge">
<title>Node1&#45;&gt;Node5</title>
<path fill="none" stroke="#63b8ff" d="M991.27,-494.96C1033.05,-485.94 1088.19,-473.62 1145.3,-459.2"/>
<polygon fill="#63b8ff" stroke="#63b8ff" points="1146.4,-462.54 1155.23,-456.68 1144.68,-455.75 1146.4,-462.54"/>
</g>
<!-- Node6 -->
<g id="node6" class="node">
<title>Node6</title>
<g id="a_node6"><a xlink:title=" ">
<polygon fill="#e0e0e0" stroke="#999999" points="1281,-459 1216,-459 1216,-440 1281,-440 1281,-459"/>
<text text-anchor="middle" x="1248.5" y="-447" font-family="Helvetica,sans-Serif" font-size="10.00">functional</text>
</a>
</g>
</g>
<!-- Node1&#45;&gt;Node6 -->
<g id="edge5" class="edge">
<title>Node1&#45;&gt;Node6</title>
<path fill="none" stroke="#63b8ff" d="M1001.79,-495.81C1056.08,-486.43 1130.64,-473.31 1205.83,-459.09"/>
<polygon fill="#63b8ff" stroke="#63b8ff" points="1206.78,-462.47 1215.96,-457.17 1205.48,-455.59 1206.78,-462.47"/>
</g>
<!-- Node7 -->
<g id="node7" class="node">
<title>Node7</title>
<g id="a_node7"><a xlink:href="../../d1/d21/regex_8h.html" target="_top" xlink:title=" ">
<polygon fill="white" stroke="#666666" points="1007,-184 954,-184 954,-165 1007,-165 1007,-184"/>
<text text-anchor="middle" x="980.5" y="-172" font-family="Helvetica,sans-Serif" font-size="10.00">regex.h</text>
</a>
</g>
</g>
<!-- Node1&#45;&gt;Node7 -->
<g id="edge6" class="edge">
<title>Node1&#45;&gt;Node7</title>
<path fill="none" stroke="#63b8ff" d="M935.57,-494.87C950.57,-474.25 975.5,-434.17 975.5,-395.5 975.5,-395.5 975.5,-395.5 975.5,-283.5 975.5,-252.16 977.63,-215.75 979.11,-194.22"/>
<polygon fill="#63b8ff" stroke="#63b8ff" points="982.6,-194.4 979.83,-184.17 975.62,-193.9 982.6,-194.4"/>
</g>
<!-- Node11 -->
<g id="node11" class="node">
<title>Node11</title>
<g id="a_node11"><a xlink:href="../../de/d1b/datetime_8h.html" target="_top" xlink:title=" ">
<polygon fill="white" stroke="#666666" points="452.5,-349 382.5,-349 382.5,-330 452.5,-330 452.5,-349"/>
<text text-anchor="middle" x="417.5" y="-337" font-family="Helvetica,sans-Serif" font-size="10.00">datetime.h</text>
</a>
</g>
</g>
<!-- Node1&#45;&gt;Node11 -->
<g id="edge11" class="edge">
<title>Node1&#45;&gt;Node11</title>
<path fill="none" stroke="#63b8ff" d="M879.81,-494.94C849.21,-485.18 807.77,-471.7 771.5,-459 682.83,-427.96 662.74,-414.35 573.5,-385 535.48,-372.49 491.59,-360.16 460.07,-351.66"/>
<polygon fill="#63b8ff" stroke="#63b8ff" points="460.86,-348.25 450.3,-349.04 459.05,-355.01 460.86,-348.25"/>
</g>
<!-- Node21 -->
<g id="node21" class="node">
<title>Node21</title>
<g id="a_node21"><a xlink:href="../../db/d16/config_8h.html" target="_top" xlink:title=" ">
<polygon fill="white" stroke="#666666" points="899,-349 844,-349 844,-330 899,-330 899,-349"/>
<text text-anchor="middle" x="871.5" y="-337" font-family="Helvetica,sans-Serif" font-size="10.00">config.h</text>
</a>
</g>
</g>
<!-- Node1&#45;&gt;Node21 -->
<g id="edge25" class="edge">
<title>Node1&#45;&gt;Node21</title>
<path fill="none" stroke="#63b8ff" d="M920.07,-494.92C910.51,-464.52 887.93,-392.73 877.26,-358.83"/>
<polygon fill="#63b8ff" stroke="#63b8ff" points="880.59,-357.74 874.25,-349.25 873.92,-359.84 880.59,-357.74"/>
</g>
<!-- Node23 -->
<g id="node23" class="node">
<title>Node23</title>
<g id="a_node23"><a xlink:href="../../d2/de2/portable_8h.html" target="_top" xlink:title="Portable versions of functions that are platform dependent.">
<polygon fill="white" stroke="#666666" points="465.5,-459 399.5,-459 399.5,-440 465.5,-440 465.5,-459"/>
<text text-anchor="middle" x="432.5" y="-447" font-family="Helvetica,sans-Serif" font-size="10.00">portable.h</text>
</a>
</g>
</g>
<!-- Node1&#45;&gt;Node23 -->
<g id="edge27" class="edge">
<title>Node1&#45;&gt;Node23</title>
<path fill="none" stroke="#63b8ff" d="M847.35,-499.83C742.58,-487.37 558.83,-465.52 475.62,-455.63"/>
<polygon fill="#63b8ff" stroke="#63b8ff" points="475.85,-452.13 465.5,-454.42 475.02,-459.08 475.85,-452.13"/>
</g>
<!-- Node28 -->
<g id="node28" class="node">
<title>Node28</title>
<g id="a_node28"><a xlink:href="../../d8/dce/language_8h.html" target="_top" xlink:title=" ">
<polygon fill="white" stroke="#666666" points="851,-459 780,-459 780,-440 851,-440 851,-459"/>
<text text-anchor="middle" x="815.5" y="-447" font-family="Helvetica,sans-Serif" font-size="10.00">language.h</text>
</a>
</g>
</g>
<!-- Node1&#45;&gt;Node28 -->
<g id="edge33" class="edge">
<title>Node1&#45;&gt;Node28</title>
<path fill="none" stroke="#63b8ff" d="M898.39,-494.99C880.86,-485.58 857.88,-473.24 840.56,-463.95"/>
<polygon fill="#63b8ff" stroke="#63b8ff" points="842.06,-460.78 831.6,-459.14 838.75,-466.95 842.06,-460.78"/>
</g>
<!-- Node43 -->
<g id="node43" class="node">
<title>Node43</title>
<g id="a_node43"><a xlink:href="../../d2/d0d/message_8h.html" target="_top" xlink:title=" ">
<polygon fill="white" stroke="#666666" points="144.5,-459 74.5,-459 74.5,-440 144.5,-440 144.5,-459"/>
<text text-anchor="middle" x="109.5" y="-447" font-family="Helvetica,sans-Serif" font-size="10.00">message.h</text>
</a>
</g>
</g>
<!-- Node1&#45;&gt;Node43 -->
<g id="edge75" class="edge">
<title>Node1&#45;&gt;Node43</title>
<path fill="none" stroke="#63b8ff" d="M847.46,-503.47C680.18,-491.46 288.04,-463.32 154.76,-453.75"/>
<polygon fill="#63b8ff" stroke="#63b8ff" points="154.74,-450.24 144.51,-453.01 154.24,-457.22 154.74,-450.24"/>
</g>
<!-- Node45 -->
<g id="node45" class="node">
<title>Node45</title>
<g id="a_node45"><a xlink:href="../../dd/d72/growbuf_8h.html" target="_top" xlink:title=" ">
<polygon fill="white" stroke="#666666" points="1069,-459 1004,-459 1004,-440 1069,-440 1069,-459"/>
<text text-anchor="middle" x="1036.5" y="-447" font-family="Helvetica,sans-Serif" font-size="10.00">growbuf.h</text>
</a>
</g>
</g>
<!-- Node1&#45;&gt;Node45 -->
<g id="edge78" class="edge">
<title>Node1&#45;&gt;Node45</title>
<path fill="none" stroke="#63b8ff" d="M951.33,-494.99C969.35,-485.58 992.96,-473.24 1010.75,-463.95"/>
<polygon fill="#63b8ff" stroke="#63b8ff" points="1012.72,-466.87 1019.96,-459.14 1009.48,-460.67 1012.72,-466.87"/>
</g>
<!-- Node7&#45;&gt;Node4 -->
<g id="edge7" class="edge">
<title>Node7&#45;&gt;Node4</title>
<path fill="none" stroke="#63b8ff" d="M962.51,-164.98C944.57,-156.5 916.78,-143.35 896.07,-133.54"/>
<polygon fill="#63b8ff" stroke="#63b8ff" points="897.36,-130.28 886.82,-129.17 894.36,-136.61 897.36,-130.28"/>
</g>
<!-- Node8 -->
<g id="node8" class="node">
<title>Node8</title>
<g id="a_node8"><a xlink:title=" ">
<polygon fill="#e0e0e0" stroke="#999999" points="617.5,-19 573.5,-19 573.5,0 617.5,0 617.5,-19"/>
<text text-anchor="middle" x="595.5" y="-7" font-family="Helvetica,sans-Serif" font-size="10.00">string</text>
</a>
</g>
</g>
<!-- Node7&#45;&gt;Node8 -->
<g id="edge8" class="edge">
<title>Node7&#45;&gt;Node8</title>
<path fill="none" stroke="#63b8ff" d="M972.69,-164.86C960.03,-151.35 933.69,-125.19 906.5,-110 812.39,-57.43 686.48,-28.06 627.95,-16.43"/>
<polygon fill="#63b8ff" stroke="#63b8ff" points="628.31,-12.93 617.83,-14.46 626.98,-19.8 628.31,-12.93"/>
</g>
<!-- Node9 -->
<g id="node9" class="node">
<title>Node9</title>
<g id="a_node9"><a xlink:title=" ">
<polygon fill="#e0e0e0" stroke="#999999" points="740,-129 693,-129 693,-110 740,-110 740,-129"/>
<text text-anchor="middle" x="716.5" y="-117" font-family="Helvetica,sans-Serif" font-size="10.00">vector</text>
</a>
</g>
</g>
<!-- Node7&#45;&gt;Node9 -->
<g id="edge9" class="edge">
<title>Node7&#45;&gt;Node9</title>
<path fill="none" stroke="#63b8ff" d="M953.73,-168.13C905.31,-158.41 803.28,-137.92 750.2,-127.27"/>
<polygon fill="#63b8ff" stroke="#63b8ff" points="750.76,-123.81 740.26,-125.27 749.38,-130.67 750.76,-123.81"/>
</g>
<!-- Node10 -->
<g id="node10" class="node">
<title>Node10</title>
<g id="a_node10"><a xlink:title=" ">
<polygon fill="#e0e0e0" stroke="#999999" points="1007,-129 954,-129 954,-110 1007,-110 1007,-129"/>
<text text-anchor="middle" x="980.5" y="-117" font-family="Helvetica,sans-Serif" font-size="10.00">iterator</text>
</a>
</g>
</g>
<!-- Node7&#45;&gt;Node10 -->
<g id="edge10" class="edge">
<title>Node7&#45;&gt;Node10</title>
<path fill="none" stroke="#63b8ff" d="M980.5,-164.75C980.5,-157.8 980.5,-147.85 980.5,-139.13"/>
<polygon fill="#63b8ff" stroke="#63b8ff" points="984,-139.09 980.5,-129.09 977,-139.09 984,-139.09"/>
</g>
<!-- Node12 -->
<g id="node12" class="node">
<title>Node12</title>
<g id="a_node12"><a xlink:title=" ">
<polygon fill="#e0e0e0" stroke="#999999" points="327.5,-294 283.5,-294 283.5,-275 327.5,-275 327.5,-294"/>
<text text-anchor="middle" x="305.5" y="-282" font-family="Helvetica,sans-Serif" font-size="10.00">ctime</text>
</a>
</g>
</g>
<!-- Node11&#45;&gt;Node12 -->
<g id="edge12" class="edge">
<title>Node11&#45;&gt;Node12</title>
<path fill="none" stroke="#63b8ff" d="M399.51,-329.98C381.57,-321.5 353.78,-308.35 333.07,-298.54"/>
<polygon fill="#63b8ff" stroke="#63b8ff" points="334.36,-295.28 323.82,-294.17 331.36,-301.61 334.36,-295.28"/>
</g>
<!-- Node13 -->
<g id="node13" class="node">
<title>Node13</title>
<g id="a_node13"><a xlink:href="../../d7/d5c/qcstring_8h.html" target="_top" xlink:title=" ">
<polygon fill="white" stroke="#666666" points="305,-129 240,-129 240,-110 305,-110 305,-129"/>
<text text-anchor="middle" x="272.5" y="-117" font-family="Helvetica,sans-Serif" font-size="10.00">qcstring.h</text>
</a>
</g>
</g>
<!-- Node11&#45;&gt;Node13 -->
<g id="edge13" class="edge">
<title>Node11&#45;&gt;Node13</title>
<path fill="none" stroke="#63b8ff" d="M382.09,-337.74C321.76,-334.26 200.62,-317.35 149.5,-239 119.92,-193.68 195.04,-152.75 240.6,-132.98"/>
<polygon fill="#63b8ff" stroke="#63b8ff" points="241.98,-136.2 249.83,-129.09 239.26,-129.75 241.98,-136.2"/>
</g>
<!-- Node13&#45;&gt;Node2 -->
<g id="edge19" class="edge">
<title>Node13&#45;&gt;Node2</title>
<path fill="none" stroke="#63b8ff" d="M239.82,-111.52C192.89,-101.49 106.79,-83.09 58.92,-72.86"/>
<polygon fill="#63b8ff" stroke="#63b8ff" points="59.54,-69.41 49.03,-70.74 58.07,-76.25 59.54,-69.41"/>
</g>
<!-- Node13&#45;&gt;Node8 -->
<g id="edge14" class="edge">
<title>Node13&#45;&gt;Node8</title>
<path fill="none" stroke="#63b8ff" d="M291.55,-109.99C311.17,-101.17 342.6,-86.89 369.5,-74 386.53,-65.84 389.75,-61.44 407.5,-55 460.67,-35.71 525.38,-22.52 563.34,-15.77"/>
<polygon fill="#63b8ff" stroke="#63b8ff" points="564.06,-19.2 573.31,-14.04 562.86,-12.3 564.06,-19.2"/>
</g>
<!-- Node14 -->
<g id="node14" class="node">
<title>Node14</title>
<g id="a_node14"><a xlink:title=" ">
<polygon fill="#e0e0e0" stroke="#999999" points="480.5,-74 416.5,-74 416.5,-55 480.5,-55 480.5,-74"/>
<text text-anchor="middle" x="448.5" y="-62" font-family="Helvetica,sans-Serif" font-size="10.00">algorithm</text>
</a>
</g>
</g>
<!-- Node13&#45;&gt;Node14 -->
<g id="edge15" class="edge">
<title>Node13&#45;&gt;Node14</title>
<path fill="none" stroke="#63b8ff" d="M300.78,-109.98C330.45,-101.05 377.29,-86.94 410.25,-77.02"/>
<polygon fill="#63b8ff" stroke="#63b8ff" points="411.43,-80.32 420,-74.08 409.42,-73.61 411.43,-80.32"/>
</g>
<!-- Node15 -->
<g id="node15" class="node">
<title>Node15</title>
<g id="a_node15"><a xlink:title=" ">
<polygon fill="#e0e0e0" stroke="#999999" points="548,-74 499,-74 499,-55 548,-55 548,-74"/>
<text text-anchor="middle" x="523.5" y="-62" font-family="Helvetica,sans-Serif" font-size="10.00">cctype</text>
</a>
</g>
</g>
<!-- Node13&#45;&gt;Node15 -->
<g id="edge16" class="edge">
<title>Node13&#45;&gt;Node15</title>
<path fill="none" stroke="#63b8ff" d="M305.31,-112.22C345.98,-104.35 417.63,-90.15 488.64,-74.12"/>
<polygon fill="#63b8ff" stroke="#63b8ff" points="489.67,-77.47 498.65,-71.84 488.12,-70.64 489.67,-77.47"/>
</g>
<!-- Node16 -->
<g id="node16" class="node">
<title>Node16</title>
<g id="a_node16"><a xlink:title=" ">
<polygon fill="#e0e0e0" stroke="#999999" points="296.5,-74 246.5,-74 246.5,-55 296.5,-55 296.5,-74"/>
<text text-anchor="middle" x="271.5" y="-62" font-family="Helvetica,sans-Serif" font-size="10.00">cstring</text>
</a>
</g>
</g>
<!-- Node13&#45;&gt;Node16 -->
<g id="edge17" class="edge">
<title>Node13&#45;&gt;Node16</title>
<path fill="none" stroke="#63b8ff" d="M272.33,-109.75C272.2,-102.8 272.02,-92.85 271.85,-84.13"/>
<polygon fill="#63b8ff" stroke="#63b8ff" points="275.35,-84.02 271.66,-74.09 268.35,-84.15 275.35,-84.02"/>
</g>
<!-- Node17 -->
<g id="node17" class="node">
<title>Node17</title>
<g id="a_node17"><a xlink:title=" ">
<polygon fill="#e0e0e0" stroke="#999999" points="360.5,-74 314.5,-74 314.5,-55 360.5,-55 360.5,-74"/>
<text text-anchor="middle" x="337.5" y="-62" font-family="Helvetica,sans-Serif" font-size="10.00">cstdio</text>
</a>
</g>
</g>
<!-- Node13&#45;&gt;Node17 -->
<g id="edge18" class="edge">
<title>Node13&#45;&gt;Node17</title>
<path fill="none" stroke="#63b8ff" d="M282.94,-109.98C292.65,-102.07 307.32,-90.11 319,-80.58"/>
<polygon fill="#63b8ff" stroke="#63b8ff" points="321.33,-83.2 326.87,-74.17 316.9,-77.78 321.33,-83.2"/>
</g>
<!-- Node18 -->
<g id="node18" class="node">
<title>Node18</title>
<g id="a_node18"><a xlink:title=" ">
<polygon fill="#e0e0e0" stroke="#999999" points="130.5,-19 80.5,-19 80.5,0 130.5,0 130.5,-19"/>
<text text-anchor="middle" x="105.5" y="-7" font-family="Helvetica,sans-Serif" font-size="10.00">cstdint</text>
</a>
</g>
</g>
<!-- Node13&#45;&gt;Node18 -->
<g id="edge20" class="edge">
<title>Node13&#45;&gt;Node18</title>
<path fill="none" stroke="#63b8ff" d="M239.96,-114.85C194.75,-109.02 116.55,-96 99.5,-74 89.66,-61.31 92.89,-42.62 97.55,-28.8"/>
<polygon fill="#63b8ff" stroke="#63b8ff" points="100.86,-29.95 101.19,-19.36 94.32,-27.43 100.86,-29.95"/>
</g>
<!-- Node19 -->
<g id="node19" class="node">
<title>Node19</title>
<g id="a_node19"><a xlink:title=" ">
<polygon fill="#e0e0e0" stroke="#999999" points="228,-74 171,-74 171,-55 228,-55 228,-74"/>
<text text-anchor="middle" x="199.5" y="-62" font-family="Helvetica,sans-Serif" font-size="10.00">ostream</text>
</a>
</g>
</g>
<!-- Node13&#45;&gt;Node19 -->
<g id="edge21" class="edge">
<title>Node13&#45;&gt;Node19</title>
<path fill="none" stroke="#63b8ff" d="M260.77,-109.98C249.77,-102 233.08,-89.88 219.9,-80.31"/>
<polygon fill="#63b8ff" stroke="#63b8ff" points="221.59,-77.21 211.44,-74.17 217.48,-82.88 221.59,-77.21"/>
</g>
<!-- Node20 -->
<g id="node20" class="node">
<title>Node20</title>
<g id="a_node20"><a xlink:href="../../db/d7c/utf8_8h.html" target="_top" xlink:title="Various UTF8 related helper functions.">
<polygon fill="white" stroke="#666666" points="153,-74 108,-74 108,-55 153,-55 153,-74"/>
<text text-anchor="middle" x="130.5" y="-62" font-family="Helvetica,sans-Serif" font-size="10.00">utf8.h</text>
</a>
</g>
</g>
<!-- Node13&#45;&gt;Node20 -->
<g id="edge22" class="edge">
<title>Node13&#45;&gt;Node20</title>
<path fill="none" stroke="#63b8ff" d="M249.69,-109.98C226.19,-101.21 189.36,-87.47 162.86,-77.58"/>
<polygon fill="#63b8ff" stroke="#63b8ff" points="163.85,-74.21 153.26,-73.99 161.4,-80.77 163.85,-74.21"/>
</g>
<!-- Node20&#45;&gt;Node8 -->
<g id="edge24" class="edge">
<title>Node20&#45;&gt;Node8</title>
<path fill="none" stroke="#63b8ff" d="M153.13,-57.02C156.26,-56.26 159.45,-55.56 162.5,-55 310.63,-27.89 490.51,-16.02 562.96,-12.09"/>
<polygon fill="#63b8ff" stroke="#63b8ff" points="563.44,-15.57 573.25,-11.55 563.08,-8.58 563.44,-15.57"/>
</g>
<!-- Node20&#45;&gt;Node18 -->
<g id="edge23" class="edge">
<title>Node20&#45;&gt;Node18</title>
<path fill="none" stroke="#63b8ff" d="M126.37,-54.75C122.99,-47.57 118.08,-37.18 113.88,-28.27"/>
<polygon fill="#63b8ff" stroke="#63b8ff" points="116.98,-26.64 109.55,-19.09 110.65,-29.63 116.98,-26.64"/>
</g>
<!-- Node22 -->
<g id="node22" class="node">
<title>Node22</title>
<g id="a_node22"><a xlink:title=" ">
<polygon fill="#e0e0e0" stroke="#999999" points="909,-294 822,-294 822,-275 909,-275 909,-294"/>
<text text-anchor="middle" x="865.5" y="-282" font-family="Helvetica,sans-Serif" font-size="10.00">configvalues.h</text>
</a>
</g>
</g>
<!-- Node21&#45;&gt;Node22 -->
<g id="edge26" class="edge">
<title>Node21&#45;&gt;Node22</title>
<path fill="none" stroke="#63b8ff" d="M870.51,-329.75C869.72,-322.8 868.6,-312.85 867.61,-304.13"/>
<polygon fill="#63b8ff" stroke="#63b8ff" points="871.08,-303.63 866.47,-294.09 864.12,-304.42 871.08,-303.63"/>
</g>
<!-- Node23&#45;&gt;Node13 -->
<g id="edge32" class="edge">
<title>Node23&#45;&gt;Node13</title>
<path fill="none" stroke="#63b8ff" d="M399.41,-445.28C364.9,-440.65 310.37,-429.62 270.5,-404 191.49,-353.23 167.54,-328.31 138.5,-239 128.09,-207 131.65,-189.7 154.5,-165 174.04,-143.88 204.61,-132.72 229.73,-126.86"/>
<polygon fill="#63b8ff" stroke="#63b8ff" points="230.71,-130.23 239.77,-124.72 229.26,-123.38 230.71,-130.23"/>
</g>
<!-- Node24 -->
<g id="node24" class="node">
<title>Node24</title>
<g id="a_node24"><a xlink:title=" ">
<polygon fill="#e0e0e0" stroke="#999999" points="564.5,-404 514.5,-404 514.5,-385 564.5,-385 564.5,-404"/>
<text text-anchor="middle" x="539.5" y="-392" font-family="Helvetica,sans-Serif" font-size="10.00">stdio.h</text>
</a>
</g>
</g>
<!-- Node23&#45;&gt;Node24 -->
<g id="edge28" class="edge">
<title>Node23&#45;&gt;Node24</title>
<path fill="none" stroke="#63b8ff" d="M449.69,-439.98C466.75,-431.54 493.13,-418.47 512.9,-408.68"/>
<polygon fill="#63b8ff" stroke="#63b8ff" points="514.59,-411.75 522,-404.17 511.48,-405.47 514.59,-411.75"/>
</g>
<!-- Node25 -->
<g id="node25" class="node">
<title>Node25</title>
<g id="a_node25"><a xlink:title=" ">
<polygon fill="#e0e0e0" stroke="#999999" points="351.5,-404 279.5,-404 279.5,-385 351.5,-385 351.5,-404"/>
<text text-anchor="middle" x="315.5" y="-392" font-family="Helvetica,sans-Serif" font-size="10.00">sys/types.h</text>
</a>
</g>
</g>
<!-- Node23&#45;&gt;Node25 -->
<g id="edge29" class="edge">
<title>Node23&#45;&gt;Node25</title>
<path fill="none" stroke="#63b8ff" d="M413.7,-439.98C394.88,-431.46 365.68,-418.23 344,-408.41"/>
<polygon fill="#63b8ff" stroke="#63b8ff" points="345.19,-405.11 334.64,-404.17 342.3,-411.48 345.19,-405.11"/>
</g>
<!-- Node26 -->
<g id="node26" class="node">
<title>Node26</title>
<g id="a_node26"><a xlink:title=" ">
<polygon fill="#e0e0e0" stroke="#999999" points="423,-404 370,-404 370,-385 423,-385 423,-404"/>
<text text-anchor="middle" x="396.5" y="-392" font-family="Helvetica,sans-Serif" font-size="10.00">stdint.h</text>
</a>
</g>
</g>
<!-- Node23&#45;&gt;Node26 -->
<g id="edge30" class="edge">
<title>Node23&#45;&gt;Node26</title>
<path fill="none" stroke="#63b8ff" d="M426.56,-439.75C421.52,-432.34 414.16,-421.5 407.99,-412.41"/>
<polygon fill="#63b8ff" stroke="#63b8ff" points="410.85,-410.39 402.33,-404.09 405.06,-414.33 410.85,-410.39"/>
</g>
<!-- Node27 -->
<g id="node27" class="node">
<title>Node27</title>
<g id="a_node27"><a xlink:title=" ">
<polygon fill="#e0e0e0" stroke="#999999" points="496,-404 441,-404 441,-385 496,-385 496,-404"/>
<text text-anchor="middle" x="468.5" y="-392" font-family="Helvetica,sans-Serif" font-size="10.00">fstream</text>
</a>
</g>
</g>
<!-- Node23&#45;&gt;Node27 -->
<g id="edge31" class="edge">
<title>Node23&#45;&gt;Node27</title>
<path fill="none" stroke="#63b8ff" d="M438.44,-439.75C443.48,-432.34 450.84,-421.5 457.01,-412.41"/>
<polygon fill="#63b8ff" stroke="#63b8ff" points="459.94,-414.33 462.67,-404.09 454.15,-410.39 459.94,-414.33"/>
</g>
<!-- Node28&#45;&gt;Node22 -->
<g id="edge74" class="edge">
<title>Node28&#45;&gt;Node22</title>
<path fill="none" stroke="#63b8ff" d="M815.72,-439.83C816.48,-419.78 819.94,-368.94 835.5,-330 839.47,-320.07 845.91,-310.09 851.81,-302.12"/>
<polygon fill="#63b8ff" stroke="#63b8ff" points="854.7,-304.1 858.08,-294.06 849.17,-299.8 854.7,-304.1"/>
</g>
<!-- Node29 -->
<g id="node29" class="node">
<title>Node29</title>
<g id="a_node29"><a xlink:href="../../d9/df1/translator_8h.html" target="_top" xlink:title=" ">
<polygon fill="white" stroke="#666666" points="765.5,-404 693.5,-404 693.5,-385 765.5,-385 765.5,-404"/>
<text text-anchor="middle" x="729.5" y="-392" font-family="Helvetica,sans-Serif" font-size="10.00">translator.h</text>
</a>
</g>
</g>
<!-- Node28&#45;&gt;Node29 -->
<g id="edge34" class="edge">
<title>Node28&#45;&gt;Node29</title>
<path fill="none" stroke="#63b8ff" d="M801.68,-439.98C788.35,-431.77 767.92,-419.18 752.19,-409.49"/>
<polygon fill="#63b8ff" stroke="#63b8ff" points="753.92,-406.44 743.57,-404.17 750.25,-412.4 753.92,-406.44"/>
</g>
<!-- Node29&#45;&gt;Node11 -->
<g id="edge73" class="edge">
<title>Node29&#45;&gt;Node11</title>
<path fill="none" stroke="#63b8ff" d="M693.4,-387.37C636.27,-377.66 525.11,-358.78 462.74,-348.18"/>
<polygon fill="#63b8ff" stroke="#63b8ff" points="463.24,-344.72 452.79,-346.5 462.07,-351.62 463.24,-344.72"/>
</g>
<!-- Node29&#45;&gt;Node21 -->
<g id="edge72" class="edge">
<title>Node29&#45;&gt;Node21</title>
<path fill="none" stroke="#63b8ff" d="M752.31,-384.98C775.67,-376.27 812.2,-362.63 838.67,-352.75"/>
<polygon fill="#63b8ff" stroke="#63b8ff" points="840.13,-355.95 848.27,-349.17 837.68,-349.39 840.13,-355.95"/>
</g>
<!-- Node30 -->
<g id="node30" class="node">
<title>Node30</title>
<g id="a_node30"><a xlink:href="../../d1/da6/classdef_8h.html" target="_top" xlink:title=" ">
<polygon fill="white" stroke="#666666" points="649,-349 584,-349 584,-330 649,-330 649,-349"/>
<text text-anchor="middle" x="616.5" y="-337" font-family="Helvetica,sans-Serif" font-size="10.00">classdef.h</text>
</a>
</g>
</g>
<!-- Node29&#45;&gt;Node30 -->
<g id="edge35" class="edge">
<title>Node29&#45;&gt;Node30</title>
<path fill="none" stroke="#63b8ff" d="M711.34,-384.98C693.25,-376.5 665.22,-363.35 644.31,-353.54"/>
<polygon fill="#63b8ff" stroke="#63b8ff" points="645.53,-350.25 634.99,-349.17 642.55,-356.59 645.53,-350.25"/>
</g>
<!-- Node30&#45;&gt;Node9 -->
<g id="edge36" class="edge">
<title>Node30&#45;&gt;Node9</title>
<path fill="none" stroke="#63b8ff" d="M649.07,-333.98C690.75,-327.45 759.4,-313.94 774.5,-294 790.05,-273.46 843.16,-322.7 765.5,-165 759.61,-153.04 749,-142.78 739.15,-135.14"/>
<polygon fill="#63b8ff" stroke="#63b8ff" points="740.98,-132.14 730.83,-129.12 736.88,-137.81 740.98,-132.14"/>
</g>
<!-- Node31 -->
<g id="node31" class="node">
<title>Node31</title>
<g id="a_node31"><a xlink:title=" ">
<polygon fill="#e0e0e0" stroke="#999999" points="190.5,-239 158.5,-239 158.5,-220 190.5,-220 190.5,-239"/>
<text text-anchor="middle" x="174.5" y="-227" font-family="Helvetica,sans-Serif" font-size="10.00">set</text>
</a>
</g>
</g>
<!-- Node30&#45;&gt;Node31 -->
<g id="edge37" class="edge">
<title>Node30&#45;&gt;Node31</title>
<path fill="none" stroke="#63b8ff" d="M583.84,-335.31C536.85,-330.08 447.84,-317.81 375.5,-294 357.19,-287.97 354.58,-281.7 336.5,-275 280.36,-254.18 261.61,-256.81 200.36,-239.06"/>
<polygon fill="#63b8ff" stroke="#63b8ff" points="201.17,-235.64 190.58,-236.16 199.18,-242.36 201.17,-235.64"/>
</g>
<!-- Node32 -->
<g id="node32" class="node">
<title>Node32</title>
<g id="a_node32"><a xlink:href="../../d5/d75/containers_8h.html" target="_top" xlink:title=" ">
<polygon fill="white" stroke="#666666" points="461,-294 384,-294 384,-275 461,-275 461,-294"/>
<text text-anchor="middle" x="422.5" y="-282" font-family="Helvetica,sans-Serif" font-size="10.00">containers.h</text>
</a>
</g>
</g>
<!-- Node30&#45;&gt;Node32 -->
<g id="edge38" class="edge">
<title>Node30&#45;&gt;Node32</title>
<path fill="none" stroke="#63b8ff" d="M585.33,-329.98C552.34,-320.97 500.1,-306.7 463.73,-296.76"/>
<polygon fill="#63b8ff" stroke="#63b8ff" points="464.48,-293.34 453.91,-294.08 462.64,-300.09 464.48,-293.34"/>
</g>
<!-- Node37 -->
<g id="node37" class="node">
<title>Node37</title>
<g id="a_node37"><a xlink:href="../../df/da1/definition_8h.html" target="_top" xlink:title=" ">
<polygon fill="white" stroke="#666666" points="652,-294 581,-294 581,-275 652,-275 652,-294"/>
<text text-anchor="middle" x="616.5" y="-282" font-family="Helvetica,sans-Serif" font-size="10.00">definition.h</text>
</a>
</g>
</g>
<!-- Node30&#45;&gt;Node37 -->
<g id="edge46" class="edge">
<title>Node30&#45;&gt;Node37</title>
<path fill="none" stroke="#63b8ff" d="M616.5,-329.75C616.5,-322.8 616.5,-312.85 616.5,-304.13"/>
<polygon fill="#63b8ff" stroke="#63b8ff" points="620,-304.09 616.5,-294.09 613,-304.09 620,-304.09"/>
</g>
<!-- Node41 -->
<g id="node41" class="node">
<title>Node41</title>
<g id="a_node41"><a xlink:href="../../df/d9b/arguments_8h.html" target="_top" xlink:title=" ">
<polygon fill="white" stroke="#666666" points="497.5,-184 419.5,-184 419.5,-165 497.5,-165 497.5,-184"/>
<text text-anchor="middle" x="458.5" y="-172" font-family="Helvetica,sans-Serif" font-size="10.00">arguments.h</text>
</a>
</g>
</g>
<!-- Node30&#45;&gt;Node41 -->
<g id="edge63" class="edge">
<title>Node30&#45;&gt;Node41</title>
<path fill="none" stroke="#63b8ff" d="M606.12,-329.74C596.55,-321.29 582.37,-307.78 572.5,-294 551.08,-264.11 560.7,-246.77 535.5,-220 522.79,-206.5 505.06,-195.87 489.82,-188.4"/>
<polygon fill="#63b8ff" stroke="#63b8ff" points="491.26,-185.21 480.72,-184.15 488.3,-191.55 491.26,-185.21"/>
</g>
<!-- Node42 -->
<g id="node42" class="node">
<title>Node42</title>
<g id="a_node42"><a xlink:href="../../d9/d11/membergroup_8h.html" target="_top" xlink:title=" ">
<polygon fill="white" stroke="#666666" points="765,-294 670,-294 670,-275 765,-275 765,-294"/>
<text text-anchor="middle" x="717.5" y="-282" font-family="Helvetica,sans-Serif" font-size="10.00">membergroup.h</text>
</a>
</g>
</g>
<!-- Node30&#45;&gt;Node42 -->
<g id="edge66" class="edge">
<title>Node30&#45;&gt;Node42</title>
<path fill="none" stroke="#63b8ff" d="M632.73,-329.98C648.68,-321.61 673.28,-308.7 691.88,-298.95"/>
<polygon fill="#63b8ff" stroke="#63b8ff" points="693.75,-301.92 700.98,-294.17 690.5,-295.72 693.75,-301.92"/>
</g>
<!-- Node32&#45;&gt;Node8 -->
<g id="edge40" class="edge">
<title>Node32&#45;&gt;Node8</title>
<path fill="none" stroke="#63b8ff" d="M391.45,-274.87C373.75,-268.18 353.05,-256.95 342.5,-239 313.92,-190.4 307.89,-183.93 408.5,-110 463.4,-69.66 502.62,-114.37 557.5,-74 572.82,-62.73 583.13,-43.25 589.1,-28.83"/>
<polygon fill="#63b8ff" stroke="#63b8ff" points="592.4,-30.01 592.69,-19.42 585.86,-27.52 592.4,-30.01"/>
</g>
<!-- Node32&#45;&gt;Node9 -->
<g id="edge39" class="edge">
<title>Node32&#45;&gt;Node9</title>
<path fill="none" stroke="#63b8ff" d="M427.62,-274.98C436.41,-261.13 455.72,-233.92 479.5,-220 542.78,-182.96 574.73,-216.42 640.5,-184 664.44,-172.2 687.3,-151.36 701.58,-136.78"/>
<polygon fill="#63b8ff" stroke="#63b8ff" points="704.22,-139.08 708.58,-129.42 699.15,-134.25 704.22,-139.08"/>
</g>
<!-- Node32&#45;&gt;Node31 -->
<g id="edge41" class="edge">
<title>Node32&#45;&gt;Node31</title>
<path fill="none" stroke="#63b8ff" d="M383.87,-277.37C341.13,-270.24 270.11,-257.37 200.37,-238.94"/>
<polygon fill="#63b8ff" stroke="#63b8ff" points="201.11,-235.51 190.54,-236.3 199.29,-242.27 201.11,-235.51"/>
</g>
<!-- Node33 -->
<g id="node33" class="node">
<title>Node33</title>
<g id="a_node33"><a xlink:title=" ">
<polygon fill="#e0e0e0" stroke="#999999" points="526.5,-239 488.5,-239 488.5,-220 526.5,-220 526.5,-239"/>
<text text-anchor="middle" x="507.5" y="-227" font-family="Helvetica,sans-Serif" font-size="10.00">map</text>
</a>
</g>
</g>
<!-- Node32&#45;&gt;Node33 -->
<g id="edge42" class="edge">
<title>Node32&#45;&gt;Node33</title>
<path fill="none" stroke="#63b8ff" d="M436.16,-274.98C449.34,-266.77 469.53,-254.18 485.07,-244.49"/>
<polygon fill="#63b8ff" stroke="#63b8ff" points="486.96,-247.43 493.59,-239.17 483.26,-241.49 486.96,-247.43"/>
</g>
<!-- Node34 -->
<g id="node34" class="node">
<title>Node34</title>
<g id="a_node34"><a xlink:title=" ">
<polygon fill="#e0e0e0" stroke="#999999" points="294.5,-239 208.5,-239 208.5,-220 294.5,-220 294.5,-239"/>
<text text-anchor="middle" x="251.5" y="-227" font-family="Helvetica,sans-Serif" font-size="10.00">unordered_set</text>
</a>
</g>
</g>
<!-- Node32&#45;&gt;Node34 -->
<g id="edge43" class="edge">
<title>Node32&#45;&gt;Node34</title>
<path fill="none" stroke="#63b8ff" d="M395.03,-274.98C366.32,-266.09 321.08,-252.07 289.08,-242.15"/>
<polygon fill="#63b8ff" stroke="#63b8ff" points="289.78,-238.7 279.19,-239.08 287.7,-245.39 289.78,-238.7"/>
</g>
<!-- Node35 -->
<g id="node35" class="node">
<title>Node35</title>
<g id="a_node35"><a xlink:title=" ">
<polygon fill="#e0e0e0" stroke="#999999" points="510,-129 417,-129 417,-110 510,-110 510,-129"/>
<text text-anchor="middle" x="463.5" y="-117" font-family="Helvetica,sans-Serif" font-size="10.00">unordered_map</text>
</a>
</g>
</g>
<!-- Node32&#45;&gt;Node35 -->
<g id="edge44" class="edge">
<title>Node32&#45;&gt;Node35</title>
<path fill="none" stroke="#63b8ff" d="M418.77,-274.96C410.53,-254.75 392.85,-202.86 410.5,-165 416.33,-152.49 427.59,-142.25 438.25,-134.76"/>
<polygon fill="#63b8ff" stroke="#63b8ff" points="440.44,-137.51 446.92,-129.13 436.62,-131.64 440.44,-137.51"/>
</g>
<!-- Node36 -->
<g id="node36" class="node">
<title>Node36</title>
<g id="a_node36"><a xlink:title=" ">
<polygon fill="#e0e0e0" stroke="#999999" points="394,-239 351,-239 351,-220 394,-220 394,-239"/>
<text text-anchor="middle" x="372.5" y="-227" font-family="Helvetica,sans-Serif" font-size="10.00">stack</text>
</a>
</g>
</g>
<!-- Node32&#45;&gt;Node36 -->
<g id="edge45" class="edge">
<title>Node32&#45;&gt;Node36</title>
<path fill="none" stroke="#63b8ff" d="M414.24,-274.75C407.04,-267.11 396.39,-255.82 387.65,-246.56"/>
<polygon fill="#63b8ff" stroke="#63b8ff" points="390.01,-243.96 380.6,-239.09 384.92,-248.76 390.01,-243.96"/>
</g>
<!-- Node37&#45;&gt;Node9 -->
<g id="edge47" class="edge">
<title>Node37&#45;&gt;Node9</title>
<path fill="none" stroke="#63b8ff" d="M644.15,-274.96C670.76,-266.12 708.17,-251.83 716.5,-239 736.23,-208.63 728.82,-163.99 722.27,-139.07"/>
<polygon fill="#63b8ff" stroke="#63b8ff" points="725.54,-137.78 719.43,-129.13 718.82,-139.71 725.54,-137.78"/>
</g>
<!-- Node38 -->
<g id="node38" class="node">
<title>Node38</title>
<g id="a_node38"><a xlink:href="../../d9/d49/types_8h.html" target="_top" xlink:title="This file contains a number of basic enums and types.">
<polygon fill="white" stroke="#666666" points="636,-239 583,-239 583,-220 636,-220 636,-239"/>
<text text-anchor="middle" x="609.5" y="-227" font-family="Helvetica,sans-Serif" font-size="10.00">types.h</text>
</a>
</g>
</g>
<!-- Node37&#45;&gt;Node38 -->
<g id="edge48" class="edge">
<title>Node37&#45;&gt;Node38</title>
<path fill="none" stroke="#63b8ff" d="M615.34,-274.75C614.43,-267.8 613.11,-257.85 611.96,-249.13"/>
<polygon fill="#63b8ff" stroke="#63b8ff" points="615.41,-248.54 610.63,-239.09 608.47,-249.46 615.41,-248.54"/>
</g>
<!-- Node39 -->
<g id="node39" class="node">
<title>Node39</title>
<g id="a_node39"><a xlink:href="../../d1/d02/reflist_8h.html" target="_top" xlink:title=" ">
<polygon fill="white" stroke="#666666" points="707,-239 654,-239 654,-220 707,-220 707,-239"/>
<text text-anchor="middle" x="680.5" y="-227" font-family="Helvetica,sans-Serif" font-size="10.00">reflist.h</text>
</a>
</g>
</g>
<!-- Node37&#45;&gt;Node39 -->
<g id="edge50" class="edge">
<title>Node37&#45;&gt;Node39</title>
<path fill="none" stroke="#63b8ff" d="M626.78,-274.98C636.34,-267.07 650.78,-255.11 662.28,-245.58"/>
<polygon fill="#63b8ff" stroke="#63b8ff" points="664.56,-248.24 670.03,-239.17 660.1,-242.85 664.56,-248.24"/>
</g>
<!-- Node38&#45;&gt;Node13 -->
<g id="edge49" class="edge">
<title>Node38&#45;&gt;Node13</title>
<path fill="none" stroke="#63b8ff" d="M582.82,-225.01C518.99,-216.53 361.15,-194.75 339.5,-184 317.18,-172.92 297.26,-151.87 285.05,-137.05"/>
<polygon fill="#63b8ff" stroke="#63b8ff" points="287.76,-134.83 278.8,-129.17 282.27,-139.18 287.76,-134.83"/>
</g>
<!-- Node39&#45;&gt;Node4 -->
<g id="edge53" class="edge">
<title>Node39&#45;&gt;Node4</title>
<path fill="none" stroke="#63b8ff" d="M695.57,-219.84C728.1,-201.16 805.14,-156.9 844.48,-134.3"/>
<polygon fill="#63b8ff" stroke="#63b8ff" points="846.69,-137.06 853.62,-129.05 843.21,-130.99 846.69,-137.06"/>
</g>
<!-- Node39&#45;&gt;Node9 -->
<g id="edge51" class="edge">
<title>Node39&#45;&gt;Node9</title>
<path fill="none" stroke="#63b8ff" d="M683.45,-219.66C689.3,-202.09 702.52,-162.45 710.35,-138.95"/>
<polygon fill="#63b8ff" stroke="#63b8ff" points="713.77,-139.75 713.61,-129.16 707.13,-137.54 713.77,-139.75"/>
</g>
<!-- Node39&#45;&gt;Node13 -->
<g id="edge54" class="edge">
<title>Node39&#45;&gt;Node13</title>
<path fill="none" stroke="#63b8ff" d="M653.8,-221.76C651,-221.13 648.2,-220.53 645.5,-220 541.84,-199.51 511.7,-214.38 410.5,-184 368.88,-171.51 323.67,-148.79 296.73,-134.19"/>
<polygon fill="#63b8ff" stroke="#63b8ff" points="298.12,-130.96 287.67,-129.21 294.75,-137.09 298.12,-130.96"/>
</g>
<!-- Node39&#45;&gt;Node35 -->
<g id="edge52" class="edge">
<title>Node39&#45;&gt;Node35</title>
<path fill="none" stroke="#63b8ff" d="M653.94,-220.91C620.33,-211.11 564.51,-194.11 545.5,-184 520.82,-170.88 495.91,-150.32 480.14,-136.17"/>
<polygon fill="#63b8ff" stroke="#63b8ff" points="482.11,-133.23 472.37,-129.05 477.38,-138.39 482.11,-133.23"/>
</g>
<!-- Node40 -->
<g id="node40" class="node">
<title>Node40</title>
<g id="a_node40"><a xlink:href="../../da/de1/linkedmap_8h.html" target="_top" xlink:title=" ">
<polygon fill="white" stroke="#666666" points="631,-184 554,-184 554,-165 631,-165 631,-184"/>
<text text-anchor="middle" x="592.5" y="-172" font-family="Helvetica,sans-Serif" font-size="10.00">linkedmap.h</text>
</a>
</g>
</g>
<!-- Node39&#45;&gt;Node40 -->
<g id="edge55" class="edge">
<title>Node39&#45;&gt;Node40</title>
<path fill="none" stroke="#63b8ff" d="M666.36,-219.98C652.71,-211.77 631.81,-199.18 615.72,-189.49"/>
<polygon fill="#63b8ff" stroke="#63b8ff" points="617.27,-186.33 606.9,-184.17 613.66,-192.33 617.27,-186.33"/>
</g>
<!-- Node40&#45;&gt;Node4 -->
<g id="edge58" class="edge">
<title>Node40&#45;&gt;Node4</title>
<path fill="none" stroke="#63b8ff" d="M631.17,-166.07C683.6,-156.01 776.74,-138.12 829.4,-128.01"/>
<polygon fill="#63b8ff" stroke="#63b8ff" points="830.21,-131.42 839.37,-126.09 828.89,-124.54 830.21,-131.42"/>
</g>
<!-- Node40&#45;&gt;Node8 -->
<g id="edge59" class="edge">
<title>Node40&#45;&gt;Node8</title>
<path fill="none" stroke="#63b8ff" d="M592.66,-164.74C593.13,-139.31 594.5,-65.08 595.15,-29.69"/>
<polygon fill="#63b8ff" stroke="#63b8ff" points="598.65,-29.37 595.34,-19.31 591.65,-29.24 598.65,-29.37"/>
</g>
<!-- Node40&#45;&gt;Node9 -->
<g id="edge57" class="edge">
<title>Node40&#45;&gt;Node9</title>
<path fill="none" stroke="#63b8ff" d="M612.42,-164.98C632.55,-156.38 663.88,-142.99 686.91,-133.15"/>
<polygon fill="#63b8ff" stroke="#63b8ff" points="688.4,-136.32 696.21,-129.17 685.64,-129.88 688.4,-136.32"/>
</g>
<!-- Node40&#45;&gt;Node13 -->
<g id="edge62" class="edge">
<title>Node40&#45;&gt;Node13</title>
<path fill="none" stroke="#63b8ff" d="M553.9,-167.11C493.75,-157.14 378.06,-137.98 315.39,-127.6"/>
<polygon fill="#63b8ff" stroke="#63b8ff" points="315.87,-124.14 305.43,-125.95 314.72,-131.04 315.87,-124.14"/>
</g>
<!-- Node40&#45;&gt;Node14 -->
<g id="edge60" class="edge">
<title>Node40&#45;&gt;Node14</title>
<path fill="none" stroke="#63b8ff" d="M583.44,-164.79C570.01,-152.08 543.79,-128.01 519.5,-110 504.35,-98.77 486.34,-87.51 472.25,-79.12"/>
<polygon fill="#63b8ff" stroke="#63b8ff" points="474.03,-76.1 463.63,-74.05 470.48,-82.14 474.03,-76.1"/>
</g>
<!-- Node40&#45;&gt;Node15 -->
<g id="edge61" class="edge">
<title>Node40&#45;&gt;Node15</title>
<path fill="none" stroke="#63b8ff" d="M587.11,-164.85C579.46,-152.6 565.01,-129.53 552.5,-110 546.64,-100.86 540.04,-90.72 534.62,-82.43"/>
<polygon fill="#63b8ff" stroke="#63b8ff" points="537.51,-80.45 529.1,-74.01 531.65,-84.29 537.51,-80.45"/>
</g>
<!-- Node40&#45;&gt;Node35 -->
<g id="edge56" class="edge">
<title>Node40&#45;&gt;Node35</title>
<path fill="none" stroke="#63b8ff" d="M571.77,-164.98C550.74,-156.34 517.95,-142.87 493.96,-133.02"/>
<polygon fill="#63b8ff" stroke="#63b8ff" points="495.18,-129.73 484.6,-129.17 492.52,-136.21 495.18,-129.73"/>
</g>
<!-- Node41&#45;&gt;Node9 -->
<g id="edge64" class="edge">
<title>Node41&#45;&gt;Node9</title>
<path fill="none" stroke="#63b8ff" d="M497.68,-165.45C548.25,-155.06 635.35,-137.17 682.99,-127.38"/>
<polygon fill="#63b8ff" stroke="#63b8ff" points="683.72,-130.81 692.81,-125.37 682.31,-123.95 683.72,-130.81"/>
</g>
<!-- Node41&#45;&gt;Node13 -->
<g id="edge65" class="edge">
<title>Node41&#45;&gt;Node13</title>
<path fill="none" stroke="#63b8ff" d="M428.62,-164.98C397.12,-156.01 347.33,-141.82 312.47,-131.89"/>
<polygon fill="#63b8ff" stroke="#63b8ff" points="313.19,-128.46 302.62,-129.08 311.28,-135.19 313.19,-128.46"/>
</g>
<!-- Node42&#45;&gt;Node4 -->
<g id="edge69" class="edge">
<title>Node42&#45;&gt;Node4</title>
<path fill="none" stroke="#63b8ff" d="M727.35,-274.93C737.26,-266.18 752.85,-252.06 765.5,-239 799.3,-204.1 835.96,-160.36 855.12,-137"/>
<polygon fill="#63b8ff" stroke="#63b8ff" points="857.95,-139.07 861.56,-129.11 852.52,-134.64 857.95,-139.07"/>
</g>
<!-- Node42&#45;&gt;Node9 -->
<g id="edge67" class="edge">
<title>Node42&#45;&gt;Node9</title>
<path fill="none" stroke="#63b8ff" d="M726.25,-274.9C734.06,-266.56 744.95,-253.13 749.5,-239 759.59,-207.7 759.82,-196.23 749.5,-165 746.04,-154.54 739.07,-144.53 732.42,-136.66"/>
<polygon fill="#63b8ff" stroke="#63b8ff" points="734.83,-134.1 725.52,-129.04 729.64,-138.8 734.83,-134.1"/>
</g>
<!-- Node42&#45;&gt;Node33 -->
<g id="edge68" class="edge">
<title>Node42&#45;&gt;Node33</title>
<path fill="none" stroke="#63b8ff" d="M683.76,-274.98C643.06,-264.71 575.33,-247.62 536.75,-237.88"/>
<polygon fill="#63b8ff" stroke="#63b8ff" points="537.25,-234.4 526.69,-235.34 535.53,-241.18 537.25,-234.4"/>
</g>
<!-- Node42&#45;&gt;Node38 -->
<g id="edge70" class="edge">
<title>Node42&#45;&gt;Node38</title>
<path fill="none" stroke="#63b8ff" d="M700.15,-274.98C682.93,-266.54 656.3,-253.47 636.35,-243.68"/>
<polygon fill="#63b8ff" stroke="#63b8ff" points="637.69,-240.43 627.17,-239.17 634.6,-246.72 637.69,-240.43"/>
</g>
<!-- Node42&#45;&gt;Node39 -->
<g id="edge71" class="edge">
<title>Node42&#45;&gt;Node39</title>
<path fill="none" stroke="#63b8ff" d="M711.39,-274.75C706.22,-267.34 698.65,-256.5 692.31,-247.41"/>
<polygon fill="#63b8ff" stroke="#63b8ff" points="695.09,-245.29 686.5,-239.09 689.35,-249.29 695.09,-245.29"/>
</g>
<!-- Node43&#45;&gt;Node13 -->
<g id="edge77" class="edge">
<title>Node43&#45;&gt;Node13</title>
<path fill="none" stroke="#63b8ff" d="M101.23,-439.97C93.38,-431.47 81.75,-417.73 74.5,-404 60.68,-377.83 54.5,-370.09 54.5,-340.5 54.5,-340.5 54.5,-340.5 54.5,-228.5 54.5,-151.08 166.26,-129.16 229.74,-122.95"/>
<polygon fill="#63b8ff" stroke="#63b8ff" points="230.21,-126.42 239.86,-122.05 229.59,-119.45 230.21,-126.42"/>
</g>
<!-- Node44 -->
<g id="node44" class="node">
<title>Node44</title>
<g id="a_node44"><a xlink:title=" ">
<polygon fill="#e0e0e0" stroke="#999999" points="136,-404 83,-404 83,-385 136,-385 136,-404"/>
<text text-anchor="middle" x="109.5" y="-392" font-family="Helvetica,sans-Serif" font-size="10.00">cstdarg</text>
</a>
</g>
</g>
<!-- Node43&#45;&gt;Node44 -->
<g id="edge76" class="edge">
<title>Node43&#45;&gt;Node44</title>
<path fill="none" stroke="#63b8ff" d="M109.5,-439.75C109.5,-432.8 109.5,-422.85 109.5,-414.13"/>
<polygon fill="#63b8ff" stroke="#63b8ff" points="113,-414.09 109.5,-404.09 106,-414.09 113,-414.09"/>
</g>
<!-- Node45&#45;&gt;Node8 -->
<g id="edge82" class="edge">
<title>Node45&#45;&gt;Node8</title>
<path fill="none" stroke="#63b8ff" d="M1036.37,-439.82C1036.09,-421.48 1035.5,-377.44 1035.5,-340.5 1035.5,-340.5 1035.5,-340.5 1035.5,-118.5 1035.5,-34.55 729.55,-15.51 627.89,-11.5"/>
<polygon fill="#63b8ff" stroke="#63b8ff" points="627.74,-7.99 617.62,-11.12 627.48,-14.99 627.74,-7.99"/>
</g>
<!-- Node46 -->
<g id="node46" class="node">
<title>Node46</title>
<g id="a_node46"><a xlink:title=" ">
<polygon fill="#e0e0e0" stroke="#999999" points="1109,-404 1064,-404 1064,-385 1109,-385 1109,-404"/>
<text text-anchor="middle" x="1086.5" y="-392" font-family="Helvetica,sans-Serif" font-size="10.00">utility</text>
</a>
</g>
</g>
<!-- Node45&#45;&gt;Node46 -->
<g id="edge79" class="edge">
<title>Node45&#45;&gt;Node46</title>
<path fill="none" stroke="#63b8ff" d="M1044.76,-439.75C1051.96,-432.11 1062.61,-420.82 1071.35,-411.56"/>
<polygon fill="#63b8ff" stroke="#63b8ff" points="1074.08,-413.76 1078.4,-404.09 1068.99,-408.96 1074.08,-413.76"/>
</g>
<!-- Node47 -->
<g id="node47" class="node">
<title>Node47</title>
<g id="a_node47"><a xlink:title=" ">
<polygon fill="#e0e0e0" stroke="#999999" points="1180,-404 1127,-404 1127,-385 1180,-385 1180,-404"/>
<text text-anchor="middle" x="1153.5" y="-392" font-family="Helvetica,sans-Serif" font-size="10.00">stdlib.h</text>
</a>
</g>
</g>
<!-- Node45&#45;&gt;Node47 -->
<g id="edge80" class="edge">
<title>Node45&#45;&gt;Node47</title>
<path fill="none" stroke="#63b8ff" d="M1055.3,-439.98C1074.12,-431.46 1103.32,-418.23 1125,-408.41"/>
<polygon fill="#63b8ff" stroke="#63b8ff" points="1126.7,-411.48 1134.36,-404.17 1123.81,-405.11 1126.7,-411.48"/>
</g>
<!-- Node48 -->
<g id="node48" class="node">
<title>Node48</title>
<g id="a_node48"><a xlink:title=" ">
<polygon fill="#e0e0e0" stroke="#999999" points="1251,-404 1198,-404 1198,-385 1251,-385 1251,-404"/>
<text text-anchor="middle" x="1224.5" y="-392" font-family="Helvetica,sans-Serif" font-size="10.00">string.h</text>
</a>
</g>
</g>
<!-- Node45&#45;&gt;Node48 -->
<g id="edge81" class="edge">
<title>Node45&#45;&gt;Node48</title>
<path fill="none" stroke="#63b8ff" d="M1066.71,-439.98C1099.68,-430.69 1152.47,-415.81 1187.8,-405.85"/>
<polygon fill="#63b8ff" stroke="#63b8ff" points="1189.04,-409.13 1197.72,-403.05 1187.14,-402.39 1189.04,-409.13"/>
</g>
</g>
</svg>
