<?xml version="1.0" encoding="UTF-8" standalone="no"?>
<!DOCTYPE svg PUBLIC "-//W3C//DTD SVG 1.1//EN"
 "http://www.w3.org/Graphics/SVG/1.1/DTD/svg11.dtd">
<!-- Generated by graphviz version 2.43.0 (0)
 -->
<!-- Title: scannerYY_state Pages: 1 -->
<!--zoomable 349 -->
<svg id="main" version="1.1" xmlns="http://www.w3.org/2000/svg" xmlns:xlink="http://www.w3.org/1999/xlink" xml:space="preserve" onload="init(evt)">
<style type="text/css"><![CDATA[
.edge:hover path { stroke: red; }
.edge:hover polygon { stroke: red; fill: red; }
]]></style>
<script type="text/javascript"><![CDATA[
var edges = document.getElementsByTagName('g');
if (edges && edges.length) {
  for (var i=0;i<edges.length;i++) {
    if (edges[i].id.substr(0,4)=='edge') {
      edges[i].setAttribute('class','edge');
    }
  }
}
]]></script>
        <defs>
                <circle id="rim" cx="0" cy="0" r="7"/>
                <circle id="rim2" cx="0" cy="0" r="3.5"/>
                <g id="zoomPlus">
                        <use xlink:href="#rim" fill="#404040">
                                <set attributeName="fill" to="#808080" begin="zoomplus.mouseover" end="zoomplus.mouseout"/>
                        </use>
                        <path d="M-4,0h8M0,-4v8" fill="none" stroke="white" stroke-width="1.5" pointer-events="none"/>
                </g>
                <g id="zoomMin">
                        <use xlink:href="#rim" fill="#404040">
                                <set attributeName="fill" to="#808080" begin="zoomminus.mouseover" end="zoomminus.mouseout"/>
                        </use>
                        <path d="M-4,0h8" fill="none" stroke="white" stroke-width="1.5" pointer-events="none"/>
                </g>
                <g id="dirArrow">
                        <path fill="none" stroke="white" stroke-width="1.5" d="M0,-3.0v7 M-2.5,-0.5L0,-3.0L2.5,-0.5"/>
                </g>
               <g id="resetDef">
                       <use xlink:href="#rim2" fill="#404040">
                               <set attributeName="fill" to="#808080" begin="reset.mouseover" end="reset.mouseout"/>
                       </use>
               </g>
        </defs>

<script type="text/javascript">
var viewWidth = 735;
var viewHeight = 349;
var sectionId = 'dynsection-0';
</script>
<script xlink:href="../../svgpan.js"/>
<svg id="graph" class="graph">
<g id="viewport">
<title>scannerYY_state</title>
<!-- Node1 -->
<g id="node1" class="node">
<title>Node1</title>
<g id="a_node1"><a xlink:title=" ">
<polygon fill="#999999" stroke="#666666" points="381,-19 284,-19 284,0 381,0 381,-19"/>
<text text-anchor="middle" x="332.5" y="-7" font-family="Helvetica,sans-Serif" font-size="10.00">scannerYY_state</text>
</a>
</g>
</g>
<!-- Node2 -->
<g id="node2" class="node">
<title>Node2</title>
<g id="a_node2"><a xlink:href="../../d5/d79/class_outline_parser_interface.html" target="_top" xlink:title="Abstract interface for outline parsers.">
<polygon fill="white" stroke="#666666" points="125,-224 0,-224 0,-205 125,-205 125,-224"/>
<text text-anchor="middle" x="62.5" y="-212" font-family="Helvetica,sans-Serif" font-size="10.00">OutlineParserInterface</text>
</a>
</g>
</g>
<!-- Node2&#45;&gt;Node1 -->
<g id="edge1" class="edge">
<title>Node2&#45;&gt;Node1</title>
<path fill="none" stroke="#9a32cd" stroke-dasharray="5,2" d="M62.32,-194.47C63.11,-157.67 70.53,-76.86 118.5,-37 142.83,-16.78 228.3,-11.71 283.58,-10.6"/>
<polygon fill="#9a32cd" stroke="#9a32cd" points="58.82,-194.75 62.26,-204.77 65.82,-194.79 58.82,-194.75"/>
<text text-anchor="middle" x="144.5" y="-84" font-family="Helvetica,sans-Serif" font-size="10.00"> thisParser</text>
</g>
<!-- Node3 -->
<g id="node3" class="node">
<title>Node3</title>
<g id="a_node3"><a xlink:href="../../d0/d6b/class_comment_scanner.html" target="_top" xlink:title=" ">
<polygon fill="white" stroke="#666666" points="247.5,-224 143.5,-224 143.5,-205 247.5,-205 247.5,-224"/>
<text text-anchor="middle" x="195.5" y="-212" font-family="Helvetica,sans-Serif" font-size="10.00">CommentScanner</text>
</a>
</g>
</g>
<!-- Node3&#45;&gt;Node1 -->
<g id="edge2" class="edge">
<title>Node3&#45;&gt;Node1</title>
<path fill="none" stroke="#9a32cd" stroke-dasharray="5,2" d="M188.81,-195.02C177.38,-159.81 158.74,-82.56 196.5,-37 207.59,-23.62 249.49,-16.9 283.89,-13.59"/>
<polygon fill="#9a32cd" stroke="#9a32cd" points="185.64,-196.56 192.19,-204.88 192.26,-194.29 185.64,-196.56"/>
<text text-anchor="middle" x="241" y="-84" font-family="Helvetica,sans-Serif" font-size="10.00"> commentScanner</text>
</g>
<!-- Node4 -->
<g id="node4" class="node">
<title>Node4</title>
<g id="a_node4"><a xlink:href="../../d9/d45/class_q_c_string.html" target="_top" xlink:title="This is an alternative implementation of QCString.">
<polygon fill="white" stroke="#666666" points="345,-341 286,-341 286,-322 345,-322 345,-341"/>
<text text-anchor="middle" x="315.5" y="-329" font-family="Helvetica,sans-Serif" font-size="10.00">QCString</text>
</a>
</g>
</g>
<!-- Node4&#45;&gt;Node1 -->
<g id="edge3" class="edge">
<title>Node4&#45;&gt;Node1</title>
<path fill="none" stroke="#9a32cd" stroke-dasharray="5,2" d="M312.57,-311.97C311.02,-301.21 309.28,-287.37 308.5,-275 305.13,-221.33 304.05,-207.59 308.5,-154 312.79,-102.4 325.6,-41.42 330.53,-19.17"/>
<polygon fill="#9a32cd" stroke="#9a32cd" points="309.11,-312.52 314.07,-321.88 316.04,-311.47 309.11,-312.52"/>
<text text-anchor="middle" x="352.5" y="-267" font-family="Helvetica,sans-Serif" font-size="10.00"> aliasName</text>
<text text-anchor="middle" x="352.5" y="-256" font-family="Helvetica,sans-Serif" font-size="10.00">baseName</text>
<text text-anchor="middle" x="352.5" y="-245" font-family="Helvetica,sans-Serif" font-size="10.00">briefBackup</text>
<text text-anchor="middle" x="352.5" y="-234" font-family="Helvetica,sans-Serif" font-size="10.00">copyArgString</text>
<text text-anchor="middle" x="352.5" y="-223" font-family="Helvetica,sans-Serif" font-size="10.00">delimiter</text>
<text text-anchor="middle" x="352.5" y="-212" font-family="Helvetica,sans-Serif" font-size="10.00">docBackup</text>
<text text-anchor="middle" x="352.5" y="-201" font-family="Helvetica,sans-Serif" font-size="10.00">docBlockName</text>
<text text-anchor="middle" x="352.5" y="-190" font-family="Helvetica,sans-Serif" font-size="10.00">dummyRawString</text>
<text text-anchor="middle" x="352.5" y="-179" font-family="Helvetica,sans-Serif" font-size="10.00">fileName</text>
<text text-anchor="middle" x="352.5" y="-168" font-family="Helvetica,sans-Serif" font-size="10.00">fullArgString</text>
<text text-anchor="middle" x="352.5" y="-157" font-family="Helvetica,sans-Serif" font-size="10.00">...</text>
</g>
<!-- Node5 -->
<g id="node5" class="node">
<title>Node5</title>
<g id="a_node5"><a xlink:href="../../d7/df8/class_argument_list.html" target="_top" xlink:title="This class represents an function or template argument list.">
<polygon fill="white" stroke="#666666" points="487.5,-224 405.5,-224 405.5,-205 487.5,-205 487.5,-224"/>
<text text-anchor="middle" x="446.5" y="-212" font-family="Helvetica,sans-Serif" font-size="10.00">ArgumentList</text>
</a>
</g>
</g>
<!-- Node4&#45;&gt;Node5 -->
<g id="edge5" class="edge">
<title>Node4&#45;&gt;Node5</title>
<path fill="none" stroke="#9a32cd" stroke-dasharray="5,2" d="M337.23,-316.3C352.91,-305.66 374.27,-290.35 391.5,-275 410.2,-258.34 429.48,-236.08 439.5,-224.07"/>
<polygon fill="#9a32cd" stroke="#9a32cd" points="335.09,-313.52 328.72,-321.99 338.98,-319.34 335.09,-313.52"/>
<text text-anchor="middle" x="423.5" y="-296" font-family="Helvetica,sans-Serif" font-size="10.00"> m_trailingReturnType</text>
</g>
<!-- Node5&#45;&gt;Node1 -->
<g id="edge4" class="edge">
<title>Node5&#45;&gt;Node1</title>
<path fill="none" stroke="#9a32cd" stroke-dasharray="5,2" d="M435.78,-196.43C426.07,-180.83 411.5,-157.06 399.5,-136 374.81,-92.65 347.37,-39.57 336.89,-19.11"/>
<polygon fill="#9a32cd" stroke="#9a32cd" points="432.86,-198.37 441.13,-204.99 438.8,-194.65 432.86,-198.37"/>
<text text-anchor="middle" x="451" y="-84" font-family="Helvetica,sans-Serif" font-size="10.00"> currentArgumentList</text>
</g>
<!-- Node6 -->
<g id="node6" class="node">
<title>Node6</title>
<g id="a_node6"><a xlink:href="../../d3/d30/class_text_stream.html" target="_top" xlink:title="Text streaming class that buffers data.">
<polygon fill="white" stroke="#666666" points="577.5,-224 505.5,-224 505.5,-205 577.5,-205 577.5,-224"/>
<text text-anchor="middle" x="541.5" y="-212" font-family="Helvetica,sans-Serif" font-size="10.00">TextStream</text>
</a>
</g>
</g>
<!-- Node6&#45;&gt;Node1 -->
<g id="edge6" class="edge">
<title>Node6&#45;&gt;Node1</title>
<path fill="none" stroke="#9a32cd" stroke-dasharray="5,2" d="M537.65,-194.78C528.39,-149.9 505.41,-39.74 502.5,-37 485.35,-20.9 424.96,-14.58 381.02,-12.1"/>
<polygon fill="#9a32cd" stroke="#9a32cd" points="534.24,-195.58 539.69,-204.67 541.1,-194.17 534.24,-195.58"/>
<text text-anchor="middle" x="578" y="-128" font-family="Helvetica,sans-Serif" font-size="10.00"> docBlock</text>
<text text-anchor="middle" x="578" y="-117" font-family="Helvetica,sans-Serif" font-size="10.00">dummyTextStream</text>
<text text-anchor="middle" x="578" y="-106" font-family="Helvetica,sans-Serif" font-size="10.00">pCopyCurlyGString</text>
<text text-anchor="middle" x="578" y="-95" font-family="Helvetica,sans-Serif" font-size="10.00">pCopyHereDocGString</text>
<text text-anchor="middle" x="578" y="-84" font-family="Helvetica,sans-Serif" font-size="10.00">pCopyQuotedGString</text>
<text text-anchor="middle" x="578" y="-73" font-family="Helvetica,sans-Serif" font-size="10.00">pCopyRawGString</text>
<text text-anchor="middle" x="578" y="-62" font-family="Helvetica,sans-Serif" font-size="10.00">pCopyRoundGString</text>
<text text-anchor="middle" x="578" y="-51" font-family="Helvetica,sans-Serif" font-size="10.00">pCopySquareGString</text>
<text text-anchor="middle" x="578" y="-40" font-family="Helvetica,sans-Serif" font-size="10.00">pSkipVerbString</text>
</g>
<!-- Node7 -->
<g id="node7" class="node">
<title>Node7</title>
<g id="a_node7"><a xlink:href="../../dd/df8/class_clang_t_u_parser.html" target="_top" xlink:title="Clang parser object for a single translation unit, which consists of a source file and the directly o...">
<polygon fill="white" stroke="#666666" points="700.5,-224 612.5,-224 612.5,-205 700.5,-205 700.5,-224"/>
<text text-anchor="middle" x="656.5" y="-212" font-family="Helvetica,sans-Serif" font-size="10.00">ClangTUParser</text>
</a>
</g>
</g>
<!-- Node7&#45;&gt;Node1 -->
<g id="edge7" class="edge">
<title>Node7&#45;&gt;Node1</title>
<path fill="none" stroke="#9a32cd" stroke-dasharray="5,2" d="M660.84,-194.78C668.02,-158.5 677.63,-78.58 634.5,-37 616.67,-19.81 461.76,-13.57 381.01,-11.47"/>
<polygon fill="#9a32cd" stroke="#9a32cd" points="657.34,-194.4 658.67,-204.91 664.19,-195.87 657.34,-194.4"/>
<text text-anchor="middle" x="696.5" y="-84" font-family="Helvetica,sans-Serif" font-size="10.00"> clangParser</text>
</g>
</g>
</svg>
        <g id="navigator" transform="translate(0 0)" fill="#404254">
                <rect fill="#f2f5e9" fill-opacity="0.5" stroke="#606060" stroke-width=".5" x="0" y="0" width="60" height="60"/>
                <use id="zoomplus" xlink:href="#zoomPlus" x="17" y="9" onmousedown="handleZoom(evt,'in')"/>
                <use id="zoomminus" xlink:href="#zoomMin" x="42" y="9" onmousedown="handleZoom(evt,'out')"/>
                <use id="reset" xlink:href="#resetDef" x="30" y="36" onmousedown="handleReset()"/>
                <g id="arrowUp" xlink:href="#dirArrow" transform="translate(30 24)" onmousedown="handlePan(0,-1)">
                  <use xlink:href="#rim" fill="#404040">
                        <set attributeName="fill" to="#808080" begin="arrowUp.mouseover" end="arrowUp.mouseout"/>
                  </use>
                  <path fill="none" stroke="white" stroke-width="1.5" d="M0,-3.0v7 M-2.5,-0.5L0,-3.0L2.5,-0.5"/>
                </g>
                <g id="arrowRight" xlink:href="#dirArrow" transform="rotate(90) translate(36 -43)" onmousedown="handlePan(1,0)">
                  <use xlink:href="#rim" fill="#404040">
                        <set attributeName="fill" to="#808080" begin="arrowRight.mouseover" end="arrowRight.mouseout"/>
                  </use>
                  <path fill="none" stroke="white" stroke-width="1.5" d="M0,-3.0v7 M-2.5,-0.5L0,-3.0L2.5,-0.5"/>
                </g>
                <g id="arrowDown" xlink:href="#dirArrow" transform="rotate(180) translate(-30 -48)" onmousedown="handlePan(0,1)">
                  <use xlink:href="#rim" fill="#404040">
                        <set attributeName="fill" to="#808080" begin="arrowDown.mouseover" end="arrowDown.mouseout"/>
                  </use>
                  <path fill="none" stroke="white" stroke-width="1.5" d="M0,-3.0v7 M-2.5,-0.5L0,-3.0L2.5,-0.5"/>
                </g>
                <g id="arrowLeft" xlink:href="#dirArrow" transform="rotate(270) translate(-36 17)" onmousedown="handlePan(-1,0)">
                  <use xlink:href="#rim" fill="#404040">
                        <set attributeName="fill" to="#808080" begin="arrowLeft.mouseover" end="arrowLeft.mouseout"/>
                  </use>
                  <path fill="none" stroke="white" stroke-width="1.5" d="M0,-3.0v7 M-2.5,-0.5L0,-3.0L2.5,-0.5"/>
                </g>
        </g>
        <svg viewBox="0 0 15 15" width="100%" height="30px" preserveAspectRatio="xMaxYMin meet">
         <g id="arrow_out" transform="scale(0.3 0.3)">
          <a xlink:href="structscanner_y_y__state__coll__graph_org.svg" target="_base">
           <rect id="button" ry="5" rx="5" y="6" x="6" height="38" width="38"
                fill="#f2f5e9" fill-opacity="0.5" stroke="#606060" stroke-width="1.0"/>
           <path id="arrow"
             d="M 11.500037,31.436501 C 11.940474,20.09759 22.043105,11.32322 32.158766,21.979434 L 37.068811,17.246167 C 37.068811,17.246167 37.088388,32 37.088388,32 L 22.160133,31.978069 C 22.160133,31.978069 26.997745,27.140456 26.997745,27.140456 C 18.528582,18.264221 13.291696,25.230495 11.500037,31.436501 z"
             style="fill:#404040;"/>
          </a>
         </g>
        </svg>
</svg>
