<?xml version="1.0" encoding="UTF-8" standalone="no"?>
<!DOCTYPE svg PUBLIC "-//W3C//DTD SVG 1.1//EN"
 "http://www.w3.org/Graphics/SVG/1.1/DTD/svg11.dtd">
<!-- Generated by graphviz version 2.43.0 (0)
 -->
<!-- Title: /home/runner/work/doxygen/doxygen/src/translator.h Pages: 1 -->
<svg width="1099pt" height="423pt"
 viewBox="0.00 0.00 1099.37 423.00" xmlns="http://www.w3.org/2000/svg" xmlns:xlink="http://www.w3.org/1999/xlink">
<g id="graph0" class="graph" transform="scale(1 1) rotate(0) translate(4 419)">
<title>/home/runner/work/doxygen/doxygen/src/translator.h</title>
<!-- Node1 -->
<g id="node1" class="node">
<title>Node1</title>
<g id="a_node1"><a xlink:title=" ">
<polygon fill="#999999" stroke="#666666" points="855.37,-415 701.37,-415 701.37,-385 855.37,-385 855.37,-415"/>
<text text-anchor="start" x="709.37" y="-403" font-family="Helvetica,sans-Serif" font-size="10.00">/home/runner/work/doxygen</text>
<text text-anchor="middle" x="778.37" y="-392" font-family="Helvetica,sans-Serif" font-size="10.00">/doxygen/src/translator.h</text>
</a>
</g>
</g>
<!-- Node2 -->
<g id="node2" class="node">
<title>Node2</title>
<g id="a_node2"><a xlink:href="../../d1/da6/classdef_8h.html" target="_top" xlink:title=" ">
<polygon fill="white" stroke="#666666" points="448.87,-349 383.87,-349 383.87,-330 448.87,-330 448.87,-349"/>
<text text-anchor="middle" x="416.37" y="-337" font-family="Helvetica,sans-Serif" font-size="10.00">classdef.h</text>
</a>
</g>
</g>
<!-- Node1&#45;&gt;Node2 -->
<g id="edge1" class="edge">
<title>Node1&#45;&gt;Node2</title>
<path fill="none" stroke="#63b8ff" d="M701.15,-386.52C627.3,-374.59 518.64,-357.03 459.16,-347.42"/>
<polygon fill="#63b8ff" stroke="#63b8ff" points="459.43,-343.91 449,-345.77 458.31,-350.82 459.43,-343.91"/>
</g>
<!-- Node27 -->
<g id="node27" class="node">
<title>Node27</title>
<g id="a_node27"><a xlink:href="../../db/d16/config_8h.html" target="_top" xlink:title=" ">
<polygon fill="white" stroke="#666666" points="906.87,-349 851.87,-349 851.87,-330 906.87,-330 906.87,-349"/>
<text text-anchor="middle" x="879.37" y="-337" font-family="Helvetica,sans-Serif" font-size="10.00">config.h</text>
</a>
</g>
</g>
<!-- Node1&#45;&gt;Node27 -->
<g id="edge49" class="edge">
<title>Node1&#45;&gt;Node27</title>
<path fill="none" stroke="#63b8ff" d="M802.56,-384.99C818.66,-375.66 839.71,-363.47 855.7,-354.21"/>
<polygon fill="#63b8ff" stroke="#63b8ff" points="857.55,-357.18 864.45,-349.14 854.04,-351.12 857.55,-357.18"/>
</g>
<!-- Node29 -->
<g id="node29" class="node">
<title>Node29</title>
<g id="a_node29"><a xlink:href="../../de/d1b/datetime_8h.html" target="_top" xlink:title=" ">
<polygon fill="white" stroke="#666666" points="813.37,-349 743.37,-349 743.37,-330 813.37,-330 813.37,-349"/>
<text text-anchor="middle" x="778.37" y="-337" font-family="Helvetica,sans-Serif" font-size="10.00">datetime.h</text>
</a>
</g>
</g>
<!-- Node1&#45;&gt;Node29 -->
<g id="edge51" class="edge">
<title>Node1&#45;&gt;Node29</title>
<path fill="none" stroke="#63b8ff" d="M778.37,-384.84C778.37,-377.21 778.37,-367.7 778.37,-359.45"/>
<polygon fill="#63b8ff" stroke="#63b8ff" points="781.87,-359.27 778.37,-349.27 774.87,-359.27 781.87,-359.27"/>
</g>
<!-- Node3 -->
<g id="node3" class="node">
<title>Node3</title>
<g id="a_node3"><a xlink:title=" ">
<polygon fill="#e0e0e0" stroke="#999999" points="377.87,-129 330.87,-129 330.87,-110 377.87,-110 377.87,-129"/>
<text text-anchor="middle" x="354.37" y="-117" font-family="Helvetica,sans-Serif" font-size="10.00">vector</text>
</a>
</g>
</g>
<!-- Node2&#45;&gt;Node3 -->
<g id="edge2" class="edge">
<title>Node2&#45;&gt;Node3</title>
<path fill="none" stroke="#63b8ff" d="M383.79,-336.14C294.65,-328.88 50.81,-303.35 11.37,-239 -58.28,-125.37 221.39,-118.62 320.62,-119.7"/>
<polygon fill="#63b8ff" stroke="#63b8ff" points="320.68,-123.2 330.73,-119.84 320.78,-116.2 320.68,-123.2"/>
</g>
<!-- Node4 -->
<g id="node4" class="node">
<title>Node4</title>
<g id="a_node4"><a xlink:title=" ">
<polygon fill="#e0e0e0" stroke="#999999" points="52.37,-239 20.37,-239 20.37,-220 52.37,-220 52.37,-239"/>
<text text-anchor="middle" x="36.37" y="-227" font-family="Helvetica,sans-Serif" font-size="10.00">set</text>
</a>
</g>
</g>
<!-- Node2&#45;&gt;Node4 -->
<g id="edge3" class="edge">
<title>Node2&#45;&gt;Node4</title>
<path fill="none" stroke="#63b8ff" d="M383.84,-335.56C335.62,-330.57 242.75,-318.49 167.37,-294 127.93,-281.19 85.25,-258.72 59.67,-244.24"/>
<polygon fill="#63b8ff" stroke="#63b8ff" points="61.16,-241.06 50.74,-239.11 57.67,-247.13 61.16,-241.06"/>
</g>
<!-- Node5 -->
<g id="node5" class="node">
<title>Node5</title>
<g id="a_node5"><a xlink:href="../../d5/d75/containers_8h.html" target="_top" xlink:title=" ">
<polygon fill="white" stroke="#666666" points="253.87,-294 176.87,-294 176.87,-275 253.87,-275 253.87,-294"/>
<text text-anchor="middle" x="215.37" y="-282" font-family="Helvetica,sans-Serif" font-size="10.00">containers.h</text>
</a>
</g>
</g>
<!-- Node2&#45;&gt;Node5 -->
<g id="edge4" class="edge">
<title>Node2&#45;&gt;Node5</title>
<path fill="none" stroke="#63b8ff" d="M384.07,-329.98C349.74,-320.93 295.31,-306.58 257.6,-296.64"/>
<polygon fill="#63b8ff" stroke="#63b8ff" points="258.48,-293.25 247.91,-294.08 256.69,-300.02 258.48,-293.25"/>
</g>
<!-- Node11 -->
<g id="node11" class="node">
<title>Node11</title>
<g id="a_node11"><a xlink:href="../../df/da1/definition_8h.html" target="_top" xlink:title=" ">
<polygon fill="white" stroke="#666666" points="628.87,-294 557.87,-294 557.87,-275 628.87,-275 628.87,-294"/>
<text text-anchor="middle" x="593.37" y="-282" font-family="Helvetica,sans-Serif" font-size="10.00">definition.h</text>
</a>
</g>
</g>
<!-- Node2&#45;&gt;Node11 -->
<g id="edge12" class="edge">
<title>Node2&#45;&gt;Node11</title>
<path fill="none" stroke="#63b8ff" d="M444.8,-329.98C474.65,-321.05 521.75,-306.94 554.9,-297.02"/>
<polygon fill="#63b8ff" stroke="#63b8ff" points="556.13,-300.3 564.71,-294.08 554.12,-293.6 556.13,-300.3"/>
</g>
<!-- Node25 -->
<g id="node25" class="node">
<title>Node25</title>
<g id="a_node25"><a xlink:href="../../df/d9b/arguments_8h.html" target="_top" xlink:title=" ">
<polygon fill="white" stroke="#666666" points="466.37,-184 388.37,-184 388.37,-165 466.37,-165 466.37,-184"/>
<text text-anchor="middle" x="427.37" y="-172" font-family="Helvetica,sans-Serif" font-size="10.00">arguments.h</text>
</a>
</g>
</g>
<!-- Node2&#45;&gt;Node25 -->
<g id="edge40" class="edge">
<title>Node2&#45;&gt;Node25</title>
<path fill="none" stroke="#63b8ff" d="M416.96,-329.74C418.67,-304.31 423.68,-230.08 426.07,-194.69"/>
<polygon fill="#63b8ff" stroke="#63b8ff" points="429.59,-194.52 426.77,-184.31 422.61,-194.05 429.59,-194.52"/>
</g>
<!-- Node26 -->
<g id="node26" class="node">
<title>Node26</title>
<g id="a_node26"><a xlink:href="../../d9/d11/membergroup_8h.html" target="_top" xlink:title=" ">
<polygon fill="white" stroke="#666666" points="539.87,-294 444.87,-294 444.87,-275 539.87,-275 539.87,-294"/>
<text text-anchor="middle" x="492.37" y="-282" font-family="Helvetica,sans-Serif" font-size="10.00">membergroup.h</text>
</a>
</g>
</g>
<!-- Node2&#45;&gt;Node26 -->
<g id="edge43" class="edge">
<title>Node2&#45;&gt;Node26</title>
<path fill="none" stroke="#63b8ff" d="M428.58,-329.98C440.14,-321.92 457.74,-309.65 471.53,-300.03"/>
<polygon fill="#63b8ff" stroke="#63b8ff" points="473.73,-302.76 479.93,-294.17 469.73,-297.02 473.73,-302.76"/>
</g>
<!-- Node5&#45;&gt;Node3 -->
<g id="edge5" class="edge">
<title>Node5&#45;&gt;Node3</title>
<path fill="none" stroke="#63b8ff" d="M209.38,-274.78C201.45,-262.06 189.55,-237.96 199.37,-220 225.12,-172.86 283.82,-144.74 321.14,-130.98"/>
<polygon fill="#63b8ff" stroke="#63b8ff" points="322.33,-134.27 330.59,-127.63 319.99,-127.67 322.33,-134.27"/>
</g>
<!-- Node5&#45;&gt;Node4 -->
<g id="edge7" class="edge">
<title>Node5&#45;&gt;Node4</title>
<path fill="none" stroke="#63b8ff" d="M186.61,-274.98C152.36,-264.85 95.66,-248.06 62.58,-238.26"/>
<polygon fill="#63b8ff" stroke="#63b8ff" points="63.31,-234.83 52.73,-235.34 61.32,-241.54 63.31,-234.83"/>
</g>
<!-- Node6 -->
<g id="node6" class="node">
<title>Node6</title>
<g id="a_node6"><a xlink:title=" ">
<polygon fill="#e0e0e0" stroke="#999999" points="633.37,-19 589.37,-19 589.37,0 633.37,0 633.37,-19"/>
<text text-anchor="middle" x="611.37" y="-7" font-family="Helvetica,sans-Serif" font-size="10.00">string</text>
</a>
</g>
</g>
<!-- Node5&#45;&gt;Node6 -->
<g id="edge6" class="edge">
<title>Node5&#45;&gt;Node6</title>
<path fill="none" stroke="#63b8ff" d="M176.77,-277.7C151.5,-271.97 119.53,-260.75 99.37,-239 79.34,-217.4 80.37,-204.96 80.37,-175.5 80.37,-175.5 80.37,-175.5 80.37,-118.5 80.37,-16.2 463.61,-9.77 578.92,-10.15"/>
<polygon fill="#63b8ff" stroke="#63b8ff" points="579.21,-13.65 589.23,-10.21 579.24,-6.65 579.21,-13.65"/>
</g>
<!-- Node7 -->
<g id="node7" class="node">
<title>Node7</title>
<g id="a_node7"><a xlink:title=" ">
<polygon fill="#e0e0e0" stroke="#999999" points="388.37,-239 350.37,-239 350.37,-220 388.37,-220 388.37,-239"/>
<text text-anchor="middle" x="369.37" y="-227" font-family="Helvetica,sans-Serif" font-size="10.00">map</text>
</a>
</g>
</g>
<!-- Node5&#45;&gt;Node7 -->
<g id="edge8" class="edge">
<title>Node5&#45;&gt;Node7</title>
<path fill="none" stroke="#63b8ff" d="M240.11,-274.98C267.49,-265.56 311.56,-250.39 340.5,-240.44"/>
<polygon fill="#63b8ff" stroke="#63b8ff" points="341.73,-243.71 350.05,-237.15 339.45,-237.09 341.73,-243.71"/>
</g>
<!-- Node8 -->
<g id="node8" class="node">
<title>Node8</title>
<g id="a_node8"><a xlink:title=" ">
<polygon fill="#e0e0e0" stroke="#999999" points="294.37,-239 208.37,-239 208.37,-220 294.37,-220 294.37,-239"/>
<text text-anchor="middle" x="251.37" y="-227" font-family="Helvetica,sans-Serif" font-size="10.00">unordered_set</text>
</a>
</g>
</g>
<!-- Node5&#45;&gt;Node8 -->
<g id="edge9" class="edge">
<title>Node5&#45;&gt;Node8</title>
<path fill="none" stroke="#63b8ff" d="M221.31,-274.75C226.34,-267.34 233.7,-256.5 239.88,-247.41"/>
<polygon fill="#63b8ff" stroke="#63b8ff" points="242.81,-249.33 245.53,-239.09 237.02,-245.39 242.81,-249.33"/>
</g>
<!-- Node9 -->
<g id="node9" class="node">
<title>Node9</title>
<g id="a_node9"><a xlink:title=" ">
<polygon fill="#e0e0e0" stroke="#999999" points="488.87,-129 395.87,-129 395.87,-110 488.87,-110 488.87,-129"/>
<text text-anchor="middle" x="442.37" y="-117" font-family="Helvetica,sans-Serif" font-size="10.00">unordered_map</text>
</a>
</g>
</g>
<!-- Node5&#45;&gt;Node9 -->
<g id="edge10" class="edge">
<title>Node5&#45;&gt;Node9</title>
<path fill="none" stroke="#63b8ff" d="M236.65,-274.92C255.14,-266.98 282.19,-254.12 303.37,-239 341.73,-211.6 343.11,-195.14 379.37,-165 392.46,-154.12 408.09,-143.07 420.5,-134.7"/>
<polygon fill="#63b8ff" stroke="#63b8ff" points="422.5,-137.58 428.89,-129.12 418.63,-131.75 422.5,-137.58"/>
</g>
<!-- Node10 -->
<g id="node10" class="node">
<title>Node10</title>
<g id="a_node10"><a xlink:title=" ">
<polygon fill="#e0e0e0" stroke="#999999" points="151.87,-239 108.87,-239 108.87,-220 151.87,-220 151.87,-239"/>
<text text-anchor="middle" x="130.37" y="-227" font-family="Helvetica,sans-Serif" font-size="10.00">stack</text>
</a>
</g>
</g>
<!-- Node5&#45;&gt;Node10 -->
<g id="edge11" class="edge">
<title>Node5&#45;&gt;Node10</title>
<path fill="none" stroke="#63b8ff" d="M201.71,-274.98C188.53,-266.77 168.34,-254.18 152.8,-244.49"/>
<polygon fill="#63b8ff" stroke="#63b8ff" points="154.61,-241.49 144.27,-239.17 150.91,-247.43 154.61,-241.49"/>
</g>
<!-- Node11&#45;&gt;Node3 -->
<g id="edge13" class="edge">
<title>Node11&#45;&gt;Node3</title>
<path fill="none" stroke="#63b8ff" d="M569.29,-274.9C519.41,-256.68 407.1,-213.46 379.37,-184 367.7,-171.61 361.26,-153.14 357.85,-139.31"/>
<polygon fill="#63b8ff" stroke="#63b8ff" points="361.24,-138.46 355.72,-129.41 354.4,-139.93 361.24,-138.46"/>
</g>
<!-- Node12 -->
<g id="node12" class="node">
<title>Node12</title>
<g id="a_node12"><a xlink:href="../../d9/d49/types_8h.html" target="_top" xlink:title="This file contains a number of basic enums and types.">
<polygon fill="white" stroke="#666666" points="785.87,-239 732.87,-239 732.87,-220 785.87,-220 785.87,-239"/>
<text text-anchor="middle" x="759.37" y="-227" font-family="Helvetica,sans-Serif" font-size="10.00">types.h</text>
</a>
</g>
</g>
<!-- Node11&#45;&gt;Node12 -->
<g id="edge14" class="edge">
<title>Node11&#45;&gt;Node12</title>
<path fill="none" stroke="#63b8ff" d="M620.04,-274.98C647.99,-266.06 692.08,-251.98 723.16,-242.06"/>
<polygon fill="#63b8ff" stroke="#63b8ff" points="724.3,-245.37 732.76,-238.99 722.17,-238.7 724.3,-245.37"/>
</g>
<!-- Node22 -->
<g id="node22" class="node">
<title>Node22</title>
<g id="a_node22"><a xlink:href="../../d1/d02/reflist_8h.html" target="_top" xlink:title=" ">
<polygon fill="white" stroke="#666666" points="619.87,-239 566.87,-239 566.87,-220 619.87,-220 619.87,-239"/>
<text text-anchor="middle" x="593.37" y="-227" font-family="Helvetica,sans-Serif" font-size="10.00">reflist.h</text>
</a>
</g>
</g>
<!-- Node11&#45;&gt;Node22 -->
<g id="edge27" class="edge">
<title>Node11&#45;&gt;Node22</title>
<path fill="none" stroke="#63b8ff" d="M593.37,-274.75C593.37,-267.8 593.37,-257.85 593.37,-249.13"/>
<polygon fill="#63b8ff" stroke="#63b8ff" points="596.87,-249.09 593.37,-239.09 589.87,-249.09 596.87,-249.09"/>
</g>
<!-- Node13 -->
<g id="node13" class="node">
<title>Node13</title>
<g id="a_node13"><a xlink:href="../../d7/d5c/qcstring_8h.html" target="_top" xlink:title=" ">
<polygon fill="white" stroke="#666666" points="798.87,-129 733.87,-129 733.87,-110 798.87,-110 798.87,-129"/>
<text text-anchor="middle" x="766.37" y="-117" font-family="Helvetica,sans-Serif" font-size="10.00">qcstring.h</text>
</a>
</g>
</g>
<!-- Node12&#45;&gt;Node13 -->
<g id="edge15" class="edge">
<title>Node12&#45;&gt;Node13</title>
<path fill="none" stroke="#63b8ff" d="M759.94,-219.66C761.07,-202.17 763.62,-162.8 765.15,-139.27"/>
<polygon fill="#63b8ff" stroke="#63b8ff" points="768.65,-139.36 765.81,-129.16 761.67,-138.91 768.65,-139.36"/>
</g>
<!-- Node13&#45;&gt;Node6 -->
<g id="edge16" class="edge">
<title>Node13&#45;&gt;Node6</title>
<path fill="none" stroke="#63b8ff" d="M756.19,-109.86C741.14,-97.23 711.85,-73.24 685.37,-55 669.26,-43.91 650.36,-32.57 635.69,-24.11"/>
<polygon fill="#63b8ff" stroke="#63b8ff" points="637.15,-20.92 626.73,-19 633.68,-27 637.15,-20.92"/>
</g>
<!-- Node14 -->
<g id="node14" class="node">
<title>Node14</title>
<g id="a_node14"><a xlink:title=" ">
<polygon fill="#e0e0e0" stroke="#999999" points="609.37,-74 545.37,-74 545.37,-55 609.37,-55 609.37,-74"/>
<text text-anchor="middle" x="577.37" y="-62" font-family="Helvetica,sans-Serif" font-size="10.00">algorithm</text>
</a>
</g>
</g>
<!-- Node13&#45;&gt;Node14 -->
<g id="edge17" class="edge">
<title>Node13&#45;&gt;Node14</title>
<path fill="none" stroke="#63b8ff" d="M736,-109.98C703.99,-101.01 653.41,-86.82 617.98,-76.89"/>
<polygon fill="#63b8ff" stroke="#63b8ff" points="618.54,-73.41 607.97,-74.08 616.65,-80.15 618.54,-73.41"/>
</g>
<!-- Node15 -->
<g id="node15" class="node">
<title>Node15</title>
<g id="a_node15"><a xlink:title=" ">
<polygon fill="#e0e0e0" stroke="#999999" points="676.87,-74 627.87,-74 627.87,-55 676.87,-55 676.87,-74"/>
<text text-anchor="middle" x="652.37" y="-62" font-family="Helvetica,sans-Serif" font-size="10.00">cctype</text>
</a>
</g>
</g>
<!-- Node13&#45;&gt;Node15 -->
<g id="edge18" class="edge">
<title>Node13&#45;&gt;Node15</title>
<path fill="none" stroke="#63b8ff" d="M748.05,-109.98C729.71,-101.46 701.26,-88.23 680.14,-78.41"/>
<polygon fill="#63b8ff" stroke="#63b8ff" points="681.56,-75.21 671.02,-74.17 678.61,-81.56 681.56,-75.21"/>
</g>
<!-- Node16 -->
<g id="node16" class="node">
<title>Node16</title>
<g id="a_node16"><a xlink:title=" ">
<polygon fill="#e0e0e0" stroke="#999999" points="1027.37,-74 977.37,-74 977.37,-55 1027.37,-55 1027.37,-74"/>
<text text-anchor="middle" x="1002.37" y="-62" font-family="Helvetica,sans-Serif" font-size="10.00">cstring</text>
</a>
</g>
</g>
<!-- Node13&#45;&gt;Node16 -->
<g id="edge19" class="edge">
<title>Node13&#45;&gt;Node16</title>
<path fill="none" stroke="#63b8ff" d="M799.18,-111.13C843.36,-101.21 921.65,-83.63 967.07,-73.43"/>
<polygon fill="#63b8ff" stroke="#63b8ff" points="968.06,-76.79 977.05,-71.18 966.53,-69.96 968.06,-76.79"/>
</g>
<!-- Node17 -->
<g id="node17" class="node">
<title>Node17</title>
<g id="a_node17"><a xlink:title=" ">
<polygon fill="#e0e0e0" stroke="#999999" points="1091.37,-74 1045.37,-74 1045.37,-55 1091.37,-55 1091.37,-74"/>
<text text-anchor="middle" x="1068.37" y="-62" font-family="Helvetica,sans-Serif" font-size="10.00">cstdio</text>
</a>
</g>
</g>
<!-- Node13&#45;&gt;Node17 -->
<g id="edge20" class="edge">
<title>Node13&#45;&gt;Node17</title>
<path fill="none" stroke="#63b8ff" d="M798.97,-114.16C848.13,-107.39 944.29,-93.29 1035.42,-74.02"/>
<polygon fill="#63b8ff" stroke="#63b8ff" points="1036.31,-77.41 1045.36,-71.9 1034.85,-70.56 1036.31,-77.41"/>
</g>
<!-- Node18 -->
<g id="node18" class="node">
<title>Node18</title>
<g id="a_node18"><a xlink:title=" ">
<polygon fill="#e0e0e0" stroke="#999999" points="782.87,-74 733.87,-74 733.87,-55 782.87,-55 782.87,-74"/>
<text text-anchor="middle" x="758.37" y="-62" font-family="Helvetica,sans-Serif" font-size="10.00">cstdlib</text>
</a>
</g>
</g>
<!-- Node13&#45;&gt;Node18 -->
<g id="edge21" class="edge">
<title>Node13&#45;&gt;Node18</title>
<path fill="none" stroke="#63b8ff" d="M765.05,-109.75C764,-102.8 762.49,-92.85 761.18,-84.13"/>
<polygon fill="#63b8ff" stroke="#63b8ff" points="764.62,-83.45 759.66,-74.09 757.69,-84.5 764.62,-83.45"/>
</g>
<!-- Node19 -->
<g id="node19" class="node">
<title>Node19</title>
<g id="a_node19"><a xlink:title=" ">
<polygon fill="#e0e0e0" stroke="#999999" points="948.37,-19 898.37,-19 898.37,0 948.37,0 948.37,-19"/>
<text text-anchor="middle" x="923.37" y="-7" font-family="Helvetica,sans-Serif" font-size="10.00">cstdint</text>
</a>
</g>
</g>
<!-- Node13&#45;&gt;Node19 -->
<g id="edge22" class="edge">
<title>Node13&#45;&gt;Node19</title>
<path fill="none" stroke="#63b8ff" d="M799.05,-114.33C842.18,-108.07 914.5,-94.74 930.37,-74 940.14,-61.22 936.59,-42.54 931.68,-28.75"/>
<polygon fill="#63b8ff" stroke="#63b8ff" points="934.86,-27.28 927.86,-19.33 928.38,-29.91 934.86,-27.28"/>
</g>
<!-- Node20 -->
<g id="node20" class="node">
<title>Node20</title>
<g id="a_node20"><a xlink:title=" ">
<polygon fill="#e0e0e0" stroke="#999999" points="857.87,-74 800.87,-74 800.87,-55 857.87,-55 857.87,-74"/>
<text text-anchor="middle" x="829.37" y="-62" font-family="Helvetica,sans-Serif" font-size="10.00">ostream</text>
</a>
</g>
</g>
<!-- Node13&#45;&gt;Node20 -->
<g id="edge23" class="edge">
<title>Node13&#45;&gt;Node20</title>
<path fill="none" stroke="#63b8ff" d="M776.49,-109.98C785.8,-102.15 799.83,-90.34 811.1,-80.86"/>
<polygon fill="#63b8ff" stroke="#63b8ff" points="813.66,-83.29 819.06,-74.17 809.15,-77.93 813.66,-83.29"/>
</g>
<!-- Node21 -->
<g id="node21" class="node">
<title>Node21</title>
<g id="a_node21"><a xlink:href="../../db/d7c/utf8_8h.html" target="_top" xlink:title="Various UTF8 related helper functions.">
<polygon fill="white" stroke="#666666" points="920.87,-74 875.87,-74 875.87,-55 920.87,-55 920.87,-74"/>
<text text-anchor="middle" x="898.37" y="-62" font-family="Helvetica,sans-Serif" font-size="10.00">utf8.h</text>
</a>
</g>
</g>
<!-- Node13&#45;&gt;Node21 -->
<g id="edge24" class="edge">
<title>Node13&#45;&gt;Node21</title>
<path fill="none" stroke="#63b8ff" d="M787.57,-109.98C809.1,-101.34 842.65,-87.87 867.19,-78.02"/>
<polygon fill="#63b8ff" stroke="#63b8ff" points="868.8,-81.14 876.77,-74.17 866.19,-74.65 868.8,-81.14"/>
</g>
<!-- Node21&#45;&gt;Node6 -->
<g id="edge26" class="edge">
<title>Node21&#45;&gt;Node6</title>
<path fill="none" stroke="#63b8ff" d="M875.74,-57.03C872.93,-56.3 870.09,-55.61 867.37,-55 787.39,-37.13 692,-22.21 643.35,-15.06"/>
<polygon fill="#63b8ff" stroke="#63b8ff" points="643.82,-11.59 633.42,-13.61 642.81,-18.51 643.82,-11.59"/>
</g>
<!-- Node21&#45;&gt;Node19 -->
<g id="edge25" class="edge">
<title>Node21&#45;&gt;Node19</title>
<path fill="none" stroke="#63b8ff" d="M902.49,-54.75C905.88,-47.57 910.78,-37.18 914.99,-28.27"/>
<polygon fill="#63b8ff" stroke="#63b8ff" points="918.21,-29.63 919.31,-19.09 911.88,-26.64 918.21,-29.63"/>
</g>
<!-- Node22&#45;&gt;Node3 -->
<g id="edge28" class="edge">
<title>Node22&#45;&gt;Node3</title>
<path fill="none" stroke="#63b8ff" d="M576.65,-220C559.43,-211.18 531.87,-196.91 508.37,-184 493.53,-175.85 490.7,-172.17 475.37,-165 446.5,-151.5 412.31,-139.25 387.65,-131.04"/>
<polygon fill="#63b8ff" stroke="#63b8ff" points="388.64,-127.68 378.04,-127.88 386.45,-134.33 388.64,-127.68"/>
</g>
<!-- Node22&#45;&gt;Node9 -->
<g id="edge29" class="edge">
<title>Node22&#45;&gt;Node9</title>
<path fill="none" stroke="#63b8ff" d="M582.22,-219.9C566.1,-207.53 535.25,-184.09 508.37,-165 493.86,-154.7 477.25,-143.5 464.32,-134.92"/>
<polygon fill="#63b8ff" stroke="#63b8ff" points="465.92,-131.78 455.64,-129.18 462.05,-137.61 465.92,-131.78"/>
</g>
<!-- Node22&#45;&gt;Node13 -->
<g id="edge31" class="edge">
<title>Node22&#45;&gt;Node13</title>
<path fill="none" stroke="#63b8ff" d="M607.68,-219.88C622.43,-210.97 646.08,-196.62 666.37,-184 693.47,-167.13 724.47,-147.38 744.68,-134.43"/>
<polygon fill="#63b8ff" stroke="#63b8ff" points="746.62,-137.34 753.15,-129 742.84,-131.45 746.62,-137.34"/>
</g>
<!-- Node23 -->
<g id="node23" class="node">
<title>Node23</title>
<g id="a_node23"><a xlink:title=" ">
<polygon fill="#e0e0e0" stroke="#999999" points="701.37,-129 643.37,-129 643.37,-110 701.37,-110 701.37,-129"/>
<text text-anchor="middle" x="672.37" y="-117" font-family="Helvetica,sans-Serif" font-size="10.00">memory</text>
</a>
</g>
</g>
<!-- Node22&#45;&gt;Node23 -->
<g id="edge30" class="edge">
<title>Node22&#45;&gt;Node23</title>
<path fill="none" stroke="#63b8ff" d="M607.17,-219.74C618.93,-211.67 635.6,-198.75 646.37,-184 656.24,-170.47 663.11,-152.64 667.3,-139.32"/>
<polygon fill="#63b8ff" stroke="#63b8ff" points="670.76,-139.97 670.19,-129.39 664.04,-138.01 670.76,-139.97"/>
</g>
<!-- Node24 -->
<g id="node24" class="node">
<title>Node24</title>
<g id="a_node24"><a xlink:href="../../da/de1/linkedmap_8h.html" target="_top" xlink:title=" ">
<polygon fill="white" stroke="#666666" points="637.87,-184 560.87,-184 560.87,-165 637.87,-165 637.87,-184"/>
<text text-anchor="middle" x="599.37" y="-172" font-family="Helvetica,sans-Serif" font-size="10.00">linkedmap.h</text>
</a>
</g>
</g>
<!-- Node22&#45;&gt;Node24 -->
<g id="edge32" class="edge">
<title>Node22&#45;&gt;Node24</title>
<path fill="none" stroke="#63b8ff" d="M594.36,-219.75C595.14,-212.8 596.27,-202.85 597.26,-194.13"/>
<polygon fill="#63b8ff" stroke="#63b8ff" points="600.75,-194.42 598.39,-184.09 593.79,-193.63 600.75,-194.42"/>
</g>
<!-- Node24&#45;&gt;Node3 -->
<g id="edge34" class="edge">
<title>Node24&#45;&gt;Node3</title>
<path fill="none" stroke="#63b8ff" d="M560.75,-166.08C520.06,-158.12 453.88,-144.77 388.2,-129.35"/>
<polygon fill="#63b8ff" stroke="#63b8ff" points="388.63,-125.85 378.1,-126.95 387.02,-132.66 388.63,-125.85"/>
</g>
<!-- Node24&#45;&gt;Node6 -->
<g id="edge36" class="edge">
<title>Node24&#45;&gt;Node6</title>
<path fill="none" stroke="#63b8ff" d="M588.33,-164.78C564.73,-145.04 513.31,-95.49 536.37,-55 545.67,-38.66 563.61,-27.7 579.6,-20.74"/>
<polygon fill="#63b8ff" stroke="#63b8ff" points="581.22,-23.87 589.22,-16.92 578.63,-17.36 581.22,-23.87"/>
</g>
<!-- Node24&#45;&gt;Node9 -->
<g id="edge33" class="edge">
<title>Node24&#45;&gt;Node9</title>
<path fill="none" stroke="#63b8ff" d="M574.14,-164.98C548.01,-156.16 506.97,-142.31 477.63,-132.41"/>
<polygon fill="#63b8ff" stroke="#63b8ff" points="478.38,-128.96 467.79,-129.08 476.14,-135.6 478.38,-128.96"/>
</g>
<!-- Node24&#45;&gt;Node13 -->
<g id="edge39" class="edge">
<title>Node24&#45;&gt;Node13</title>
<path fill="none" stroke="#63b8ff" d="M626.2,-164.98C654.24,-156.09 698.41,-142.07 729.67,-132.15"/>
<polygon fill="#63b8ff" stroke="#63b8ff" points="730.85,-135.44 739.32,-129.08 728.73,-128.77 730.85,-135.44"/>
</g>
<!-- Node24&#45;&gt;Node14 -->
<g id="edge37" class="edge">
<title>Node24&#45;&gt;Node14</title>
<path fill="none" stroke="#63b8ff" d="M597.57,-164.66C594,-147.17 585.98,-107.8 581.19,-84.27"/>
<polygon fill="#63b8ff" stroke="#63b8ff" points="584.56,-83.26 579.13,-74.16 577.7,-84.66 584.56,-83.26"/>
</g>
<!-- Node24&#45;&gt;Node15 -->
<g id="edge38" class="edge">
<title>Node24&#45;&gt;Node15</title>
<path fill="none" stroke="#63b8ff" d="M603.7,-164.66C612.4,-146.93 632.13,-106.73 643.62,-83.32"/>
<polygon fill="#63b8ff" stroke="#63b8ff" points="646.85,-84.68 648.12,-74.16 640.57,-81.59 646.85,-84.68"/>
</g>
<!-- Node24&#45;&gt;Node23 -->
<g id="edge35" class="edge">
<title>Node24&#45;&gt;Node23</title>
<path fill="none" stroke="#63b8ff" d="M611.1,-164.98C622.1,-157 638.79,-144.88 651.97,-135.31"/>
<polygon fill="#63b8ff" stroke="#63b8ff" points="654.39,-137.88 660.42,-129.17 650.28,-132.21 654.39,-137.88"/>
</g>
<!-- Node25&#45;&gt;Node3 -->
<g id="edge41" class="edge">
<title>Node25&#45;&gt;Node3</title>
<path fill="none" stroke="#63b8ff" d="M415.64,-164.98C404.63,-157 387.95,-144.88 374.76,-135.31"/>
<polygon fill="#63b8ff" stroke="#63b8ff" points="376.46,-132.21 366.31,-129.17 372.34,-137.88 376.46,-132.21"/>
</g>
<!-- Node25&#45;&gt;Node13 -->
<g id="edge42" class="edge">
<title>Node25&#45;&gt;Node13</title>
<path fill="none" stroke="#63b8ff" d="M466.59,-167.37C530.61,-157.36 657.08,-137.59 723.43,-127.21"/>
<polygon fill="#63b8ff" stroke="#63b8ff" points="724.21,-130.63 733.55,-125.63 723.13,-123.72 724.21,-130.63"/>
</g>
<!-- Node26&#45;&gt;Node3 -->
<g id="edge44" class="edge">
<title>Node26&#45;&gt;Node3</title>
<path fill="none" stroke="#63b8ff" d="M479.35,-274.86C443.91,-251.31 348.23,-187.53 346.37,-184 338.99,-170.05 342.26,-152.03 346.64,-138.75"/>
<polygon fill="#63b8ff" stroke="#63b8ff" points="349.95,-139.88 350.2,-129.29 343.4,-137.42 349.95,-139.88"/>
</g>
<!-- Node26&#45;&gt;Node7 -->
<g id="edge45" class="edge">
<title>Node26&#45;&gt;Node7</title>
<path fill="none" stroke="#63b8ff" d="M472.6,-274.98C452.4,-266.28 420.82,-252.67 397.91,-242.8"/>
<polygon fill="#63b8ff" stroke="#63b8ff" points="399.24,-239.56 388.67,-238.82 396.47,-245.99 399.24,-239.56"/>
</g>
<!-- Node26&#45;&gt;Node12 -->
<g id="edge47" class="edge">
<title>Node26&#45;&gt;Node12</title>
<path fill="none" stroke="#63b8ff" d="M536.56,-274.93C582.14,-266.07 655.26,-251.75 718.37,-239 719.65,-238.74 720.95,-238.48 722.27,-238.21"/>
<polygon fill="#63b8ff" stroke="#63b8ff" points="723.38,-241.55 732.47,-236.12 721.97,-234.7 723.38,-241.55"/>
</g>
<!-- Node26&#45;&gt;Node22 -->
<g id="edge48" class="edge">
<title>Node26&#45;&gt;Node22</title>
<path fill="none" stroke="#63b8ff" d="M508.59,-274.98C524.55,-266.61 549.15,-253.7 567.74,-243.95"/>
<polygon fill="#63b8ff" stroke="#63b8ff" points="569.62,-246.92 576.84,-239.17 566.36,-240.72 569.62,-246.92"/>
</g>
<!-- Node26&#45;&gt;Node23 -->
<g id="edge46" class="edge">
<title>Node26&#45;&gt;Node23</title>
<path fill="none" stroke="#63b8ff" d="M539.96,-275.81C567.82,-269.49 602.49,-258.32 628.37,-239 652.18,-221.23 656.2,-211.92 666.37,-184 671.64,-169.52 672.96,-152.01 673.05,-139.04"/>
<polygon fill="#63b8ff" stroke="#63b8ff" points="676.55,-138.96 672.9,-129.02 669.55,-139.07 676.55,-138.96"/>
</g>
<!-- Node28 -->
<g id="node28" class="node">
<title>Node28</title>
<g id="a_node28"><a xlink:title=" ">
<polygon fill="#e0e0e0" stroke="#999999" points="933.87,-294 846.87,-294 846.87,-275 933.87,-275 933.87,-294"/>
<text text-anchor="middle" x="890.37" y="-282" font-family="Helvetica,sans-Serif" font-size="10.00">configvalues.h</text>
</a>
</g>
</g>
<!-- Node27&#45;&gt;Node28 -->
<g id="edge50" class="edge">
<title>Node27&#45;&gt;Node28</title>
<path fill="none" stroke="#63b8ff" d="M881.18,-329.75C882.62,-322.8 884.69,-312.85 886.5,-304.13"/>
<polygon fill="#63b8ff" stroke="#63b8ff" points="889.98,-304.59 888.58,-294.09 883.12,-303.17 889.98,-304.59"/>
</g>
<!-- Node29&#45;&gt;Node13 -->
<g id="edge53" class="edge">
<title>Node29&#45;&gt;Node13</title>
<path fill="none" stroke="#63b8ff" d="M783.94,-329.72C789.11,-321.03 796.41,-307.17 799.37,-294 812.02,-237.55 788.1,-170.07 774.64,-138.48"/>
<polygon fill="#63b8ff" stroke="#63b8ff" points="777.79,-136.94 770.54,-129.21 771.38,-139.77 777.79,-136.94"/>
</g>
<!-- Node30 -->
<g id="node30" class="node">
<title>Node30</title>
<g id="a_node30"><a xlink:title=" ">
<polygon fill="#e0e0e0" stroke="#999999" points="790.37,-294 746.37,-294 746.37,-275 790.37,-275 790.37,-294"/>
<text text-anchor="middle" x="768.37" y="-282" font-family="Helvetica,sans-Serif" font-size="10.00">ctime</text>
</a>
</g>
</g>
<!-- Node29&#45;&gt;Node30 -->
<g id="edge52" class="edge">
<title>Node29&#45;&gt;Node30</title>
<path fill="none" stroke="#63b8ff" d="M776.72,-329.75C775.4,-322.8 773.53,-312.85 771.88,-304.13"/>
<polygon fill="#63b8ff" stroke="#63b8ff" points="775.28,-303.27 769.99,-294.09 768.4,-304.56 775.28,-303.27"/>
</g>
</g>
</svg>
