<?xml version="1.0" encoding="UTF-8" standalone="no"?>
<!DOCTYPE svg PUBLIC "-//W3C//DTD SVG 1.1//EN"
 "http://www.w3.org/Graphics/SVG/1.1/DTD/svg11.dtd">
<!-- Generated by graphviz version 2.43.0 (0)
 -->
<!-- Title: /home/runner/work/doxygen/doxygen/src/translator.h Pages: 1 -->
<!--zoomable 423 -->
<svg id="main" version="1.1" xmlns="http://www.w3.org/2000/svg" xmlns:xlink="http://www.w3.org/1999/xlink" xml:space="preserve" onload="init(evt)">
<style type="text/css"><![CDATA[
.edge:hover path { stroke: red; }
.edge:hover polygon { stroke: red; fill: red; }
]]></style>
<script type="text/javascript"><![CDATA[
var edges = document.getElementsByTagName('g');
if (edges && edges.length) {
  for (var i=0;i<edges.length;i++) {
    if (edges[i].id.substr(0,4)=='edge') {
      edges[i].setAttribute('class','edge');
    }
  }
}
]]></script>
        <defs>
                <circle id="rim" cx="0" cy="0" r="7"/>
                <circle id="rim2" cx="0" cy="0" r="3.5"/>
                <g id="zoomPlus">
                        <use xlink:href="#rim" fill="#404040">
                                <set attributeName="fill" to="#808080" begin="zoomplus.mouseover" end="zoomplus.mouseout"/>
                        </use>
                        <path d="M-4,0h8M0,-4v8" fill="none" stroke="white" stroke-width="1.5" pointer-events="none"/>
                </g>
                <g id="zoomMin">
                        <use xlink:href="#rim" fill="#404040">
                                <set attributeName="fill" to="#808080" begin="zoomminus.mouseover" end="zoomminus.mouseout"/>
                        </use>
                        <path d="M-4,0h8" fill="none" stroke="white" stroke-width="1.5" pointer-events="none"/>
                </g>
                <g id="dirArrow">
                        <path fill="none" stroke="white" stroke-width="1.5" d="M0,-3.0v7 M-2.5,-0.5L0,-3.0L2.5,-0.5"/>
                </g>
               <g id="resetDef">
                       <use xlink:href="#rim2" fill="#404040">
                               <set attributeName="fill" to="#808080" begin="reset.mouseover" end="reset.mouseout"/>
                       </use>
               </g>
        </defs>

<script type="text/javascript">
var viewWidth = 1083;
var viewHeight = 423;
var sectionId = 'dynsection-0';
</script>
<script xlink:href="../../svgpan.js"/>
<svg id="graph" class="graph">
<g id="viewport">
<title>/home/runner/work/doxygen/doxygen/src/translator.h</title>
<!-- Node1 -->
<g id="node1" class="node">
<title>Node1</title>
<g id="a_node1"><a xlink:title=" ">
<polygon fill="#999999" stroke="#666666" points="590,-415 436,-415 436,-385 590,-385 590,-415"/>
<text text-anchor="start" x="444" y="-403" font-family="Helvetica,sans-Serif" font-size="10.00">/home/runner/work/doxygen</text>
<text text-anchor="middle" x="513" y="-392" font-family="Helvetica,sans-Serif" font-size="10.00">/doxygen/src/translator.h</text>
</a>
</g>
</g>
<!-- Node2 -->
<g id="node2" class="node">
<title>Node2</title>
<g id="a_node2"><a xlink:href="../../d1/da6/classdef_8h.html" target="_top" xlink:title=" ">
<polygon fill="white" stroke="#666666" points="506.5,-349 441.5,-349 441.5,-330 506.5,-330 506.5,-349"/>
<text text-anchor="middle" x="474" y="-337" font-family="Helvetica,sans-Serif" font-size="10.00">classdef.h</text>
</a>
</g>
</g>
<!-- Node1&#45;&gt;Node2 -->
<g id="edge1" class="edge">
<title>Node1&#45;&gt;Node2</title>
<path fill="none" stroke="#63b8ff" d="M503.56,-384.84C498.13,-376.69 491.27,-366.4 485.52,-357.78"/>
<polygon fill="#63b8ff" stroke="#63b8ff" points="488.3,-355.65 479.84,-349.27 482.48,-359.53 488.3,-355.65"/>
</g>
<!-- Node27 -->
<g id="node27" class="node">
<title>Node27</title>
<g id="a_node27"><a xlink:href="../../db/d16/config_8h.html" target="_top" xlink:title=" ">
<polygon fill="white" stroke="#666666" points="712.5,-349 657.5,-349 657.5,-330 712.5,-330 712.5,-349"/>
<text text-anchor="middle" x="685" y="-337" font-family="Helvetica,sans-Serif" font-size="10.00">config.h</text>
</a>
</g>
</g>
<!-- Node1&#45;&gt;Node27 -->
<g id="edge49" class="edge">
<title>Node1&#45;&gt;Node27</title>
<path fill="none" stroke="#63b8ff" d="M554.2,-384.99C583.5,-375.02 622.42,-361.78 650.17,-352.35"/>
<polygon fill="#63b8ff" stroke="#63b8ff" points="651.51,-355.59 659.85,-349.05 649.26,-348.96 651.51,-355.59"/>
</g>
<!-- Node3 -->
<g id="node3" class="node">
<title>Node3</title>
<g id="a_node3"><a xlink:title=" ">
<polygon fill="#e0e0e0" stroke="#999999" points="471.5,-129 424.5,-129 424.5,-110 471.5,-110 471.5,-129"/>
<text text-anchor="middle" x="448" y="-117" font-family="Helvetica,sans-Serif" font-size="10.00">vector</text>
</a>
</g>
</g>
<!-- Node2&#45;&gt;Node3 -->
<g id="edge2" class="edge">
<title>Node2&#45;&gt;Node3</title>
<path fill="none" stroke="#63b8ff" d="M455.65,-329.88C442.21,-322.46 424.98,-310.36 417,-294 391.45,-241.64 421.05,-171.2 437.9,-138.53"/>
<polygon fill="#63b8ff" stroke="#63b8ff" points="441.2,-139.79 442.84,-129.32 435.03,-136.48 441.2,-139.79"/>
</g>
<!-- Node4 -->
<g id="node4" class="node">
<title>Node4</title>
<g id="a_node4"><a xlink:title=" ">
<polygon fill="#e0e0e0" stroke="#999999" points="32,-239 0,-239 0,-220 32,-220 32,-239"/>
<text text-anchor="middle" x="16" y="-227" font-family="Helvetica,sans-Serif" font-size="10.00">set</text>
</a>
</g>
</g>
<!-- Node2&#45;&gt;Node4 -->
<g id="edge3" class="edge">
<title>Node2&#45;&gt;Node4</title>
<path fill="none" stroke="#63b8ff" d="M441.36,-337.4C381.85,-334.67 252.21,-325.33 148,-294 107.83,-281.93 64.63,-259.05 38.98,-244.31"/>
<polygon fill="#63b8ff" stroke="#63b8ff" points="40.45,-241.11 30.05,-239.09 36.92,-247.16 40.45,-241.11"/>
</g>
<!-- Node5 -->
<g id="node5" class="node">
<title>Node5</title>
<g id="a_node5"><a xlink:href="../../d5/d75/containers_8h.html" target="_top" xlink:title=" ">
<polygon fill="white" stroke="#666666" points="234.5,-294 157.5,-294 157.5,-275 234.5,-275 234.5,-294"/>
<text text-anchor="middle" x="196" y="-282" font-family="Helvetica,sans-Serif" font-size="10.00">containers.h</text>
</a>
</g>
</g>
<!-- Node2&#45;&gt;Node5 -->
<g id="edge4" class="edge">
<title>Node2&#45;&gt;Node5</title>
<path fill="none" stroke="#63b8ff" d="M441.29,-332.26C392.78,-323.02 301.44,-305.6 244.94,-294.83"/>
<polygon fill="#63b8ff" stroke="#63b8ff" points="245.3,-291.34 234.82,-292.9 243.99,-298.21 245.3,-291.34"/>
</g>
<!-- Node11 -->
<g id="node11" class="node">
<title>Node11</title>
<g id="a_node11"><a xlink:href="../../df/da1/definition_8h.html" target="_top" xlink:title=" ">
<polygon fill="white" stroke="#666666" points="610.5,-294 539.5,-294 539.5,-275 610.5,-275 610.5,-294"/>
<text text-anchor="middle" x="575" y="-282" font-family="Helvetica,sans-Serif" font-size="10.00">definition.h</text>
</a>
</g>
</g>
<!-- Node2&#45;&gt;Node11 -->
<g id="edge12" class="edge">
<title>Node2&#45;&gt;Node11</title>
<path fill="none" stroke="#63b8ff" d="M490.23,-329.98C506.18,-321.61 530.78,-308.7 549.38,-298.95"/>
<polygon fill="#63b8ff" stroke="#63b8ff" points="551.25,-301.92 558.48,-294.17 548,-295.72 551.25,-301.92"/>
</g>
<!-- Node25 -->
<g id="node25" class="node">
<title>Node25</title>
<g id="a_node25"><a xlink:href="../../df/d9b/arguments_8h.html" target="_top" xlink:title=" ">
<polygon fill="white" stroke="#666666" points="788,-184 710,-184 710,-165 788,-165 788,-184"/>
<text text-anchor="middle" x="749" y="-172" font-family="Helvetica,sans-Serif" font-size="10.00">arguments.h</text>
</a>
</g>
</g>
<!-- Node2&#45;&gt;Node25 -->
<g id="edge40" class="edge">
<title>Node2&#45;&gt;Node25</title>
<path fill="none" stroke="#63b8ff" d="M506.58,-335.5C561.27,-328.66 671.18,-306.8 729,-239 739.66,-226.5 744.65,-208.29 746.98,-194.58"/>
<polygon fill="#63b8ff" stroke="#63b8ff" points="750.49,-194.72 748.37,-184.34 743.56,-193.77 750.49,-194.72"/>
</g>
<!-- Node26 -->
<g id="node26" class="node">
<title>Node26</title>
<g id="a_node26"><a xlink:href="../../d9/d11/membergroup_8h.html" target="_top" xlink:title=" ">
<polygon fill="white" stroke="#666666" points="521.5,-294 426.5,-294 426.5,-275 521.5,-275 521.5,-294"/>
<text text-anchor="middle" x="474" y="-282" font-family="Helvetica,sans-Serif" font-size="10.00">membergroup.h</text>
</a>
</g>
</g>
<!-- Node2&#45;&gt;Node26 -->
<g id="edge43" class="edge">
<title>Node2&#45;&gt;Node26</title>
<path fill="none" stroke="#63b8ff" d="M474,-329.75C474,-322.8 474,-312.85 474,-304.13"/>
<polygon fill="#63b8ff" stroke="#63b8ff" points="477.5,-304.09 474,-294.09 470.5,-304.09 477.5,-304.09"/>
</g>
<!-- Node5&#45;&gt;Node3 -->
<g id="edge5" class="edge">
<title>Node5&#45;&gt;Node3</title>
<path fill="none" stroke="#63b8ff" d="M215.17,-274.84C233.15,-266.46 260.54,-253 283,-239 329.62,-209.94 337.21,-196.81 382,-165 396.51,-154.7 413.12,-143.5 426.04,-134.92"/>
<polygon fill="#63b8ff" stroke="#63b8ff" points="428.31,-137.61 434.72,-129.18 424.45,-131.77 428.31,-137.61"/>
</g>
<!-- Node5&#45;&gt;Node4 -->
<g id="edge7" class="edge">
<title>Node5&#45;&gt;Node4</title>
<path fill="none" stroke="#63b8ff" d="M167.08,-274.98C132.65,-264.85 75.62,-248.06 42.36,-238.26"/>
<polygon fill="#63b8ff" stroke="#63b8ff" points="43.03,-234.81 32.45,-235.34 41.06,-241.53 43.03,-234.81"/>
</g>
<!-- Node6 -->
<g id="node6" class="node">
<title>Node6</title>
<g id="a_node6"><a xlink:title=" ">
<polygon fill="#e0e0e0" stroke="#999999" points="616,-19 572,-19 572,0 616,0 616,-19"/>
<text text-anchor="middle" x="594" y="-7" font-family="Helvetica,sans-Serif" font-size="10.00">string</text>
</a>
</g>
</g>
<!-- Node5&#45;&gt;Node6 -->
<g id="edge6" class="edge">
<title>Node5&#45;&gt;Node6</title>
<path fill="none" stroke="#63b8ff" d="M157.36,-277.85C131.82,-272.18 99.42,-260.96 79,-239 58.94,-217.43 60,-204.96 60,-175.5 60,-175.5 60,-175.5 60,-118.5 60,-15.54 446.18,-9.59 561.72,-10.12"/>
<polygon fill="#63b8ff" stroke="#63b8ff" points="561.71,-13.62 571.73,-10.18 561.76,-6.62 561.71,-13.62"/>
</g>
<!-- Node7 -->
<g id="node7" class="node">
<title>Node7</title>
<g id="a_node7"><a xlink:title=" ">
<polygon fill="#e0e0e0" stroke="#999999" points="368,-239 330,-239 330,-220 368,-220 368,-239"/>
<text text-anchor="middle" x="349" y="-227" font-family="Helvetica,sans-Serif" font-size="10.00">map</text>
</a>
</g>
</g>
<!-- Node5&#45;&gt;Node7 -->
<g id="edge8" class="edge">
<title>Node5&#45;&gt;Node7</title>
<path fill="none" stroke="#63b8ff" d="M220.58,-274.98C247.78,-265.56 291.57,-250.39 320.32,-240.44"/>
<polygon fill="#63b8ff" stroke="#63b8ff" points="321.5,-243.73 329.81,-237.15 319.21,-237.11 321.5,-243.73"/>
</g>
<!-- Node8 -->
<g id="node8" class="node">
<title>Node8</title>
<g id="a_node8"><a xlink:title=" ">
<polygon fill="#e0e0e0" stroke="#999999" points="274,-239 188,-239 188,-220 274,-220 274,-239"/>
<text text-anchor="middle" x="231" y="-227" font-family="Helvetica,sans-Serif" font-size="10.00">unordered_set</text>
</a>
</g>
</g>
<!-- Node5&#45;&gt;Node8 -->
<g id="edge9" class="edge">
<title>Node5&#45;&gt;Node8</title>
<path fill="none" stroke="#63b8ff" d="M201.78,-274.75C206.62,-267.42 213.68,-256.73 219.64,-247.7"/>
<polygon fill="#63b8ff" stroke="#63b8ff" points="222.74,-249.36 225.33,-239.09 216.9,-245.5 222.74,-249.36"/>
</g>
<!-- Node9 -->
<g id="node9" class="node">
<title>Node9</title>
<g id="a_node9"><a xlink:title=" ">
<polygon fill="#e0e0e0" stroke="#999999" points="404.5,-129 311.5,-129 311.5,-110 404.5,-110 404.5,-129"/>
<text text-anchor="middle" x="358" y="-117" font-family="Helvetica,sans-Serif" font-size="10.00">unordered_map</text>
</a>
</g>
</g>
<!-- Node5&#45;&gt;Node9 -->
<g id="edge10" class="edge">
<title>Node5&#45;&gt;Node9</title>
<path fill="none" stroke="#63b8ff" d="M189.64,-274.71C181.22,-261.91 168.58,-237.71 179,-220 207.43,-171.67 268.77,-145.12 311.68,-131.86"/>
<polygon fill="#63b8ff" stroke="#63b8ff" points="312.75,-135.2 321.35,-129 310.76,-128.49 312.75,-135.2"/>
</g>
<!-- Node10 -->
<g id="node10" class="node">
<title>Node10</title>
<g id="a_node10"><a xlink:title=" ">
<polygon fill="#e0e0e0" stroke="#999999" points="131.5,-239 88.5,-239 88.5,-220 131.5,-220 131.5,-239"/>
<text text-anchor="middle" x="110" y="-227" font-family="Helvetica,sans-Serif" font-size="10.00">stack</text>
</a>
</g>
</g>
<!-- Node5&#45;&gt;Node10 -->
<g id="edge11" class="edge">
<title>Node5&#45;&gt;Node10</title>
<path fill="none" stroke="#63b8ff" d="M182.18,-274.98C168.85,-266.77 148.42,-254.18 132.69,-244.49"/>
<polygon fill="#63b8ff" stroke="#63b8ff" points="134.42,-241.44 124.07,-239.17 130.75,-247.4 134.42,-241.44"/>
</g>
<!-- Node11&#45;&gt;Node3 -->
<g id="edge13" class="edge">
<title>Node11&#45;&gt;Node3</title>
<path fill="none" stroke="#63b8ff" d="M567.76,-274.69C560.44,-265.75 548.84,-251.49 539,-239 510.65,-203.03 478.12,-160.31 460.66,-137.26"/>
<polygon fill="#63b8ff" stroke="#63b8ff" points="463.37,-135.05 454.55,-129.18 457.79,-139.27 463.37,-135.05"/>
</g>
<!-- Node12 -->
<g id="node12" class="node">
<title>Node12</title>
<g id="a_node12"><a xlink:href="../../d9/d49/types_8h.html" target="_top" xlink:title="This file contains a number of basic enums and types.">
<polygon fill="white" stroke="#666666" points="720.5,-239 667.5,-239 667.5,-220 720.5,-220 720.5,-239"/>
<text text-anchor="middle" x="694" y="-227" font-family="Helvetica,sans-Serif" font-size="10.00">types.h</text>
</a>
</g>
</g>
<!-- Node11&#45;&gt;Node12 -->
<g id="edge14" class="edge">
<title>Node11&#45;&gt;Node12</title>
<path fill="none" stroke="#63b8ff" d="M594.12,-274.98C613.35,-266.42 643.23,-253.11 665.31,-243.28"/>
<polygon fill="#63b8ff" stroke="#63b8ff" points="666.82,-246.44 674.53,-239.17 663.97,-240.04 666.82,-246.44"/>
</g>
<!-- Node22 -->
<g id="node22" class="node">
<title>Node22</title>
<g id="a_node22"><a xlink:href="../../d1/d02/reflist_8h.html" target="_top" xlink:title=" ">
<polygon fill="white" stroke="#666666" points="601.5,-239 548.5,-239 548.5,-220 601.5,-220 601.5,-239"/>
<text text-anchor="middle" x="575" y="-227" font-family="Helvetica,sans-Serif" font-size="10.00">reflist.h</text>
</a>
</g>
</g>
<!-- Node11&#45;&gt;Node22 -->
<g id="edge27" class="edge">
<title>Node11&#45;&gt;Node22</title>
<path fill="none" stroke="#63b8ff" d="M575,-274.75C575,-267.8 575,-257.85 575,-249.13"/>
<polygon fill="#63b8ff" stroke="#63b8ff" points="578.5,-249.09 575,-239.09 571.5,-249.09 578.5,-249.09"/>
</g>
<!-- Node13 -->
<g id="node13" class="node">
<title>Node13</title>
<g id="a_node13"><a xlink:href="../../d7/d5c/qcstring_8h.html" target="_top" xlink:title=" ">
<polygon fill="white" stroke="#666666" points="846.5,-129 781.5,-129 781.5,-110 846.5,-110 846.5,-129"/>
<text text-anchor="middle" x="814" y="-117" font-family="Helvetica,sans-Serif" font-size="10.00">qcstring.h</text>
</a>
</g>
</g>
<!-- Node12&#45;&gt;Node13 -->
<g id="edge15" class="edge">
<title>Node12&#45;&gt;Node13</title>
<path fill="none" stroke="#63b8ff" d="M720.78,-228.42C752.76,-226.69 805.07,-218.39 830,-184 839.77,-170.52 833.13,-151.68 825.65,-138.03"/>
<polygon fill="#63b8ff" stroke="#63b8ff" points="828.45,-135.9 820.28,-129.15 822.46,-139.52 828.45,-135.9"/>
</g>
<!-- Node13&#45;&gt;Node6 -->
<g id="edge16" class="edge">
<title>Node13&#45;&gt;Node6</title>
<path fill="none" stroke="#63b8ff" d="M791.11,-109.89C769.21,-101.43 735.4,-87.83 707,-74 674.96,-58.4 639.31,-37.8 616.79,-24.35"/>
<polygon fill="#63b8ff" stroke="#63b8ff" points="618.36,-21.22 607.98,-19.07 614.75,-27.22 618.36,-21.22"/>
</g>
<!-- Node14 -->
<g id="node14" class="node">
<title>Node14</title>
<g id="a_node14"><a xlink:title=" ">
<polygon fill="#e0e0e0" stroke="#999999" points="592,-74 528,-74 528,-55 592,-55 592,-74"/>
<text text-anchor="middle" x="560" y="-62" font-family="Helvetica,sans-Serif" font-size="10.00">algorithm</text>
</a>
</g>
</g>
<!-- Node13&#45;&gt;Node14 -->
<g id="edge17" class="edge">
<title>Node13&#45;&gt;Node14</title>
<path fill="none" stroke="#63b8ff" d="M781.31,-111.68C735.56,-102.13 652.39,-84.78 602.07,-74.28"/>
<polygon fill="#63b8ff" stroke="#63b8ff" points="602.66,-70.83 592.16,-72.21 601.23,-77.68 602.66,-70.83"/>
</g>
<!-- Node15 -->
<g id="node15" class="node">
<title>Node15</title>
<g id="a_node15"><a xlink:title=" ">
<polygon fill="#e0e0e0" stroke="#999999" points="659.5,-74 610.5,-74 610.5,-55 659.5,-55 659.5,-74"/>
<text text-anchor="middle" x="635" y="-62" font-family="Helvetica,sans-Serif" font-size="10.00">cctype</text>
</a>
</g>
</g>
<!-- Node13&#45;&gt;Node15 -->
<g id="edge18" class="edge">
<title>Node13&#45;&gt;Node15</title>
<path fill="none" stroke="#63b8ff" d="M785.24,-109.98C753.71,-100.65 703.15,-85.68 669.51,-75.72"/>
<polygon fill="#63b8ff" stroke="#63b8ff" points="670.24,-72.28 659.65,-72.8 668.25,-79 670.24,-72.28"/>
</g>
<!-- Node16 -->
<g id="node16" class="node">
<title>Node16</title>
<g id="a_node16"><a xlink:title=" ">
<polygon fill="#e0e0e0" stroke="#999999" points="943,-74 893,-74 893,-55 943,-55 943,-74"/>
<text text-anchor="middle" x="918" y="-62" font-family="Helvetica,sans-Serif" font-size="10.00">cstring</text>
</a>
</g>
</g>
<!-- Node13&#45;&gt;Node16 -->
<g id="edge19" class="edge">
<title>Node13&#45;&gt;Node16</title>
<path fill="none" stroke="#63b8ff" d="M830.71,-109.98C847.21,-101.57 872.7,-88.59 891.88,-78.81"/>
<polygon fill="#63b8ff" stroke="#63b8ff" points="893.67,-81.83 900.99,-74.17 890.49,-75.59 893.67,-81.83"/>
</g>
<!-- Node17 -->
<g id="node17" class="node">
<title>Node17</title>
<g id="a_node17"><a xlink:title=" ">
<polygon fill="#e0e0e0" stroke="#999999" points="1007,-74 961,-74 961,-55 1007,-55 1007,-74"/>
<text text-anchor="middle" x="984" y="-62" font-family="Helvetica,sans-Serif" font-size="10.00">cstdio</text>
</a>
</g>
</g>
<!-- Node13&#45;&gt;Node17 -->
<g id="edge20" class="edge">
<title>Node13&#45;&gt;Node17</title>
<path fill="none" stroke="#63b8ff" d="M841.31,-109.98C871.21,-100.66 919.13,-85.72 951.08,-75.76"/>
<polygon fill="#63b8ff" stroke="#63b8ff" points="952.35,-79.04 960.85,-72.72 950.26,-72.35 952.35,-79.04"/>
</g>
<!-- Node18 -->
<g id="node18" class="node">
<title>Node18</title>
<g id="a_node18"><a xlink:title=" ">
<polygon fill="#e0e0e0" stroke="#999999" points="1074.5,-74 1025.5,-74 1025.5,-55 1074.5,-55 1074.5,-74"/>
<text text-anchor="middle" x="1050" y="-62" font-family="Helvetica,sans-Serif" font-size="10.00">cstdlib</text>
</a>
</g>
</g>
<!-- Node13&#45;&gt;Node18 -->
<g id="edge21" class="edge">
<title>Node13&#45;&gt;Node18</title>
<path fill="none" stroke="#63b8ff" d="M846.6,-111.61C884.63,-103.51 949.65,-89.47 1015.06,-74.17"/>
<polygon fill="#63b8ff" stroke="#63b8ff" points="1016.2,-77.5 1025.14,-71.8 1014.6,-70.68 1016.2,-77.5"/>
</g>
<!-- Node19 -->
<g id="node19" class="node">
<title>Node19</title>
<g id="a_node19"><a xlink:title=" ">
<polygon fill="#e0e0e0" stroke="#999999" points="864,-19 814,-19 814,0 864,0 864,-19"/>
<text text-anchor="middle" x="839" y="-7" font-family="Helvetica,sans-Serif" font-size="10.00">cstdint</text>
</a>
</g>
</g>
<!-- Node13&#45;&gt;Node19 -->
<g id="edge22" class="edge">
<title>Node13&#45;&gt;Node19</title>
<path fill="none" stroke="#63b8ff" d="M822.48,-109.85C830.05,-101.47 840.6,-88.01 845,-74 849.57,-59.46 847.49,-42.19 844.59,-29.34"/>
<polygon fill="#63b8ff" stroke="#63b8ff" points="847.89,-28.14 841.98,-19.36 841.12,-29.92 847.89,-28.14"/>
</g>
<!-- Node20 -->
<g id="node20" class="node">
<title>Node20</title>
<g id="a_node20"><a xlink:title=" ">
<polygon fill="#e0e0e0" stroke="#999999" points="773.5,-74 716.5,-74 716.5,-55 773.5,-55 773.5,-74"/>
<text text-anchor="middle" x="745" y="-62" font-family="Helvetica,sans-Serif" font-size="10.00">ostream</text>
</a>
</g>
</g>
<!-- Node13&#45;&gt;Node20 -->
<g id="edge23" class="edge">
<title>Node13&#45;&gt;Node20</title>
<path fill="none" stroke="#63b8ff" d="M802.91,-109.98C792.51,-102 776.74,-89.88 764.28,-80.31"/>
<polygon fill="#63b8ff" stroke="#63b8ff" points="766.35,-77.49 756.29,-74.17 762.09,-83.04 766.35,-77.49"/>
</g>
<!-- Node21 -->
<g id="node21" class="node">
<title>Node21</title>
<g id="a_node21"><a xlink:href="../../db/d7c/utf8_8h.html" target="_top" xlink:title="Various UTF8 related helper functions.">
<polygon fill="white" stroke="#666666" points="836.5,-74 791.5,-74 791.5,-55 836.5,-55 836.5,-74"/>
<text text-anchor="middle" x="814" y="-62" font-family="Helvetica,sans-Serif" font-size="10.00">utf8.h</text>
</a>
</g>
</g>
<!-- Node13&#45;&gt;Node21 -->
<g id="edge24" class="edge">
<title>Node13&#45;&gt;Node21</title>
<path fill="none" stroke="#63b8ff" d="M814,-109.75C814,-102.8 814,-92.85 814,-84.13"/>
<polygon fill="#63b8ff" stroke="#63b8ff" points="817.5,-84.09 814,-74.09 810.5,-84.09 817.5,-84.09"/>
</g>
<!-- Node21&#45;&gt;Node6 -->
<g id="edge26" class="edge">
<title>Node21&#45;&gt;Node6</title>
<path fill="none" stroke="#63b8ff" d="M791.29,-57.39C788.17,-56.57 785.01,-55.76 782,-55 727.29,-41.26 663.32,-26.37 625.87,-17.77"/>
<polygon fill="#63b8ff" stroke="#63b8ff" points="626.57,-14.34 616.04,-15.51 625.01,-21.16 626.57,-14.34"/>
</g>
<!-- Node21&#45;&gt;Node19 -->
<g id="edge25" class="edge">
<title>Node21&#45;&gt;Node19</title>
<path fill="none" stroke="#63b8ff" d="M818.13,-54.75C821.51,-47.57 826.42,-37.18 830.62,-28.27"/>
<polygon fill="#63b8ff" stroke="#63b8ff" points="833.85,-29.63 834.95,-19.09 827.52,-26.64 833.85,-29.63"/>
</g>
<!-- Node22&#45;&gt;Node3 -->
<g id="edge28" class="edge">
<title>Node22&#45;&gt;Node3</title>
<path fill="none" stroke="#63b8ff" d="M564.61,-219.66C543.01,-201.3 493.05,-158.81 466.07,-135.87"/>
<polygon fill="#63b8ff" stroke="#63b8ff" points="468.07,-132.97 458.18,-129.16 463.53,-138.3 468.07,-132.97"/>
</g>
<!-- Node22&#45;&gt;Node9 -->
<g id="edge29" class="edge">
<title>Node22&#45;&gt;Node9</title>
<path fill="none" stroke="#63b8ff" d="M557.61,-219.84C519.66,-200.96 429.24,-155.96 384.29,-133.59"/>
<polygon fill="#63b8ff" stroke="#63b8ff" points="385.68,-130.37 375.17,-129.05 382.57,-136.64 385.68,-130.37"/>
</g>
<!-- Node22&#45;&gt;Node13 -->
<g id="edge31" class="edge">
<title>Node22&#45;&gt;Node13</title>
<path fill="none" stroke="#63b8ff" d="M601.84,-224.73C657.77,-216.65 782.81,-197.31 797,-184 809.08,-172.66 812.93,-153.76 813.99,-139.52"/>
<polygon fill="#63b8ff" stroke="#63b8ff" points="817.5,-139.45 814.36,-129.33 810.5,-139.2 817.5,-139.45"/>
</g>
<!-- Node23 -->
<g id="node23" class="node">
<title>Node23</title>
<g id="a_node23"><a xlink:title=" ">
<polygon fill="#e0e0e0" stroke="#999999" points="684,-129 626,-129 626,-110 684,-110 684,-129"/>
<text text-anchor="middle" x="655" y="-117" font-family="Helvetica,sans-Serif" font-size="10.00">memory</text>
</a>
</g>
</g>
<!-- Node22&#45;&gt;Node23 -->
<g id="edge30" class="edge">
<title>Node22&#45;&gt;Node23</title>
<path fill="none" stroke="#63b8ff" d="M586.66,-220C597.4,-211.73 613.24,-198.34 624,-184 634.46,-170.06 642.85,-152.05 648.26,-138.76"/>
<polygon fill="#63b8ff" stroke="#63b8ff" points="651.58,-139.89 651.93,-129.3 645.05,-137.35 651.58,-139.89"/>
</g>
<!-- Node24 -->
<g id="node24" class="node">
<title>Node24</title>
<g id="a_node24"><a xlink:href="../../da/de1/linkedmap_8h.html" target="_top" xlink:title=" ">
<polygon fill="white" stroke="#666666" points="615.5,-184 538.5,-184 538.5,-165 615.5,-165 615.5,-184"/>
<text text-anchor="middle" x="577" y="-172" font-family="Helvetica,sans-Serif" font-size="10.00">linkedmap.h</text>
</a>
</g>
</g>
<!-- Node22&#45;&gt;Node24 -->
<g id="edge32" class="edge">
<title>Node22&#45;&gt;Node24</title>
<path fill="none" stroke="#63b8ff" d="M575.33,-219.75C575.59,-212.8 575.97,-202.85 576.3,-194.13"/>
<polygon fill="#63b8ff" stroke="#63b8ff" points="579.8,-194.21 576.68,-184.09 572.8,-193.95 579.8,-194.21"/>
</g>
<!-- Node24&#45;&gt;Node3 -->
<g id="edge34" class="edge">
<title>Node24&#45;&gt;Node3</title>
<path fill="none" stroke="#63b8ff" d="M556.27,-164.98C535.24,-156.34 502.45,-142.87 478.46,-133.02"/>
<polygon fill="#63b8ff" stroke="#63b8ff" points="479.68,-129.73 469.1,-129.17 477.02,-136.21 479.68,-129.73"/>
</g>
<!-- Node24&#45;&gt;Node6 -->
<g id="edge36" class="edge">
<title>Node24&#45;&gt;Node6</title>
<path fill="none" stroke="#63b8ff" d="M566.96,-164.98C544.97,-145.24 496.22,-95.01 519,-55 528.31,-38.66 546.24,-27.7 562.24,-20.74"/>
<polygon fill="#63b8ff" stroke="#63b8ff" points="563.85,-23.87 571.85,-16.92 561.27,-17.36 563.85,-23.87"/>
</g>
<!-- Node24&#45;&gt;Node9 -->
<g id="edge33" class="edge">
<title>Node24&#45;&gt;Node9</title>
<path fill="none" stroke="#63b8ff" d="M541.81,-164.98C504.17,-155.87 444.34,-141.4 403.23,-131.45"/>
<polygon fill="#63b8ff" stroke="#63b8ff" points="404,-128.03 393.46,-129.08 402.36,-134.84 404,-128.03"/>
</g>
<!-- Node24&#45;&gt;Node13 -->
<g id="edge39" class="edge">
<title>Node24&#45;&gt;Node13</title>
<path fill="none" stroke="#63b8ff" d="M615.08,-164.98C657.81,-155.43 726.95,-139.97 771.44,-130.02"/>
<polygon fill="#63b8ff" stroke="#63b8ff" points="772.36,-133.4 781.36,-127.8 770.83,-126.57 772.36,-133.4"/>
</g>
<!-- Node24&#45;&gt;Node14 -->
<g id="edge37" class="edge">
<title>Node24&#45;&gt;Node14</title>
<path fill="none" stroke="#63b8ff" d="M575.61,-164.66C572.86,-147.17 566.66,-107.8 562.96,-84.27"/>
<polygon fill="#63b8ff" stroke="#63b8ff" points="566.38,-83.49 561.36,-74.16 559.46,-84.58 566.38,-83.49"/>
</g>
<!-- Node24&#45;&gt;Node15 -->
<g id="edge38" class="edge">
<title>Node24&#45;&gt;Node15</title>
<path fill="none" stroke="#63b8ff" d="M581.75,-164.66C591.31,-146.85 613.05,-106.37 625.6,-83.01"/>
<polygon fill="#63b8ff" stroke="#63b8ff" points="628.7,-84.62 630.35,-74.16 622.54,-81.31 628.7,-84.62"/>
</g>
<!-- Node24&#45;&gt;Node23 -->
<g id="edge35" class="edge">
<title>Node24&#45;&gt;Node23</title>
<path fill="none" stroke="#63b8ff" d="M589.53,-164.98C601.4,-156.92 619.46,-144.65 633.61,-135.03"/>
<polygon fill="#63b8ff" stroke="#63b8ff" points="635.94,-137.69 642.24,-129.17 632,-131.9 635.94,-137.69"/>
</g>
<!-- Node25&#45;&gt;Node3 -->
<g id="edge41" class="edge">
<title>Node25&#45;&gt;Node3</title>
<path fill="none" stroke="#63b8ff" d="M709.96,-166.63C650.48,-156.15 538.17,-136.38 481.91,-126.47"/>
<polygon fill="#63b8ff" stroke="#63b8ff" points="482.22,-122.97 471.76,-124.68 481,-129.87 482.22,-122.97"/>
</g>
<!-- Node25&#45;&gt;Node13 -->
<g id="edge42" class="edge">
<title>Node25&#45;&gt;Node13</title>
<path fill="none" stroke="#63b8ff" d="M759.44,-164.98C769.15,-157.07 783.82,-145.11 795.5,-135.58"/>
<polygon fill="#63b8ff" stroke="#63b8ff" points="797.83,-138.2 803.37,-129.17 793.4,-132.78 797.83,-138.2"/>
</g>
<!-- Node26&#45;&gt;Node3 -->
<g id="edge44" class="edge">
<title>Node26&#45;&gt;Node3</title>
<path fill="none" stroke="#63b8ff" d="M470.12,-274.83C466.35,-266.01 460.8,-251.83 458,-239 450.44,-204.33 448.52,-162.8 448.08,-139.25"/>
<polygon fill="#63b8ff" stroke="#63b8ff" points="451.58,-139.2 447.96,-129.24 444.58,-139.28 451.58,-139.2"/>
</g>
<!-- Node26&#45;&gt;Node7 -->
<g id="edge45" class="edge">
<title>Node26&#45;&gt;Node7</title>
<path fill="none" stroke="#63b8ff" d="M453.92,-274.98C433.26,-266.23 400.91,-252.51 377.59,-242.62"/>
<polygon fill="#63b8ff" stroke="#63b8ff" points="378.79,-239.33 368.21,-238.65 376.05,-245.77 378.79,-239.33"/>
</g>
<!-- Node26&#45;&gt;Node12 -->
<g id="edge47" class="edge">
<title>Node26&#45;&gt;Node12</title>
<path fill="none" stroke="#63b8ff" d="M509.35,-274.98C549.99,-265.19 616.39,-249.2 657.51,-239.29"/>
<polygon fill="#63b8ff" stroke="#63b8ff" points="658.49,-242.66 667.39,-236.91 656.85,-235.85 658.49,-242.66"/>
</g>
<!-- Node26&#45;&gt;Node22 -->
<g id="edge48" class="edge">
<title>Node26&#45;&gt;Node22</title>
<path fill="none" stroke="#63b8ff" d="M490.23,-274.98C506.18,-266.61 530.78,-253.7 549.38,-243.95"/>
<polygon fill="#63b8ff" stroke="#63b8ff" points="551.25,-246.92 558.48,-239.17 548,-240.72 551.25,-246.92"/>
</g>
<!-- Node26&#45;&gt;Node23 -->
<g id="edge46" class="edge">
<title>Node26&#45;&gt;Node23</title>
<path fill="none" stroke="#63b8ff" d="M521.64,-276.36C549.68,-270.22 584.52,-259.05 610,-239 641.03,-214.58 650.67,-166.17 653.66,-139.4"/>
<polygon fill="#63b8ff" stroke="#63b8ff" points="657.18,-139.36 654.6,-129.09 650.21,-138.73 657.18,-139.36"/>
</g>
<!-- Node28 -->
<g id="node28" class="node">
<title>Node28</title>
<g id="a_node28"><a xlink:title=" ">
<polygon fill="#e0e0e0" stroke="#999999" points="864.5,-294 777.5,-294 777.5,-275 864.5,-275 864.5,-294"/>
<text text-anchor="middle" x="821" y="-282" font-family="Helvetica,sans-Serif" font-size="10.00">configvalues.h</text>
</a>
</g>
</g>
<!-- Node27&#45;&gt;Node28 -->
<g id="edge50" class="edge">
<title>Node27&#45;&gt;Node28</title>
<path fill="none" stroke="#63b8ff" d="M706.85,-329.98C729.12,-321.3 763.9,-307.75 789.22,-297.88"/>
<polygon fill="#63b8ff" stroke="#63b8ff" points="790.71,-301.06 798.75,-294.17 788.16,-294.54 790.71,-301.06"/>
</g>
</g>
</svg>
        <g id="navigator" transform="translate(0 0)" fill="#404254">
                <rect fill="#f2f5e9" fill-opacity="0.5" stroke="#606060" stroke-width=".5" x="0" y="0" width="60" height="60"/>
                <use id="zoomplus" xlink:href="#zoomPlus" x="17" y="9" onmousedown="handleZoom(evt,'in')"/>
                <use id="zoomminus" xlink:href="#zoomMin" x="42" y="9" onmousedown="handleZoom(evt,'out')"/>
                <use id="reset" xlink:href="#resetDef" x="30" y="36" onmousedown="handleReset()"/>
                <g id="arrowUp" xlink:href="#dirArrow" transform="translate(30 24)" onmousedown="handlePan(0,-1)">
                  <use xlink:href="#rim" fill="#404040">
                        <set attributeName="fill" to="#808080" begin="arrowUp.mouseover" end="arrowUp.mouseout"/>
                  </use>
                  <path fill="none" stroke="white" stroke-width="1.5" d="M0,-3.0v7 M-2.5,-0.5L0,-3.0L2.5,-0.5"/>
                </g>
                <g id="arrowRight" xlink:href="#dirArrow" transform="rotate(90) translate(36 -43)" onmousedown="handlePan(1,0)">
                  <use xlink:href="#rim" fill="#404040">
                        <set attributeName="fill" to="#808080" begin="arrowRight.mouseover" end="arrowRight.mouseout"/>
                  </use>
                  <path fill="none" stroke="white" stroke-width="1.5" d="M0,-3.0v7 M-2.5,-0.5L0,-3.0L2.5,-0.5"/>
                </g>
                <g id="arrowDown" xlink:href="#dirArrow" transform="rotate(180) translate(-30 -48)" onmousedown="handlePan(0,1)">
                  <use xlink:href="#rim" fill="#404040">
                        <set attributeName="fill" to="#808080" begin="arrowDown.mouseover" end="arrowDown.mouseout"/>
                  </use>
                  <path fill="none" stroke="white" stroke-width="1.5" d="M0,-3.0v7 M-2.5,-0.5L0,-3.0L2.5,-0.5"/>
                </g>
                <g id="arrowLeft" xlink:href="#dirArrow" transform="rotate(270) translate(-36 17)" onmousedown="handlePan(-1,0)">
                  <use xlink:href="#rim" fill="#404040">
                        <set attributeName="fill" to="#808080" begin="arrowLeft.mouseover" end="arrowLeft.mouseout"/>
                  </use>
                  <path fill="none" stroke="white" stroke-width="1.5" d="M0,-3.0v7 M-2.5,-0.5L0,-3.0L2.5,-0.5"/>
                </g>
        </g>
        <svg viewBox="0 0 15 15" width="100%" height="30px" preserveAspectRatio="xMaxYMin meet">
         <g id="arrow_out" transform="scale(0.3 0.3)">
          <a xlink:href="translator_8h__incl_org.svg" target="_base">
           <rect id="button" ry="5" rx="5" y="6" x="6" height="38" width="38"
                fill="#f2f5e9" fill-opacity="0.5" stroke="#606060" stroke-width="1.0"/>
           <path id="arrow"
             d="M 11.500037,31.436501 C 11.940474,20.09759 22.043105,11.32322 32.158766,21.979434 L 37.068811,17.246167 C 37.068811,17.246167 37.088388,32 37.088388,32 L 22.160133,31.978069 C 22.160133,31.978069 26.997745,27.140456 26.997745,27.140456 C 18.528582,18.264221 13.291696,25.230495 11.500037,31.436501 z"
             style="fill:#404040;"/>
          </a>
         </g>
        </svg>
</svg>
