<?xml version="1.0" encoding="UTF-8" standalone="no"?>
<!DOCTYPE svg PUBLIC "-//W3C//DTD SVG 1.1//EN"
 "http://www.w3.org/Graphics/SVG/1.1/DTD/svg11.dtd">
<!-- Generated by graphviz version 2.43.0 (0)
 -->
<!-- Title: /home/runner/work/doxygen/doxygen/src/htmldocvisitor.h Pages: 1 -->
<!--zoomable 368 -->
<svg id="main" version="1.1" xmlns="http://www.w3.org/2000/svg" xmlns:xlink="http://www.w3.org/1999/xlink" xml:space="preserve" onload="init(evt)">
<style type="text/css"><![CDATA[
.edge:hover path { stroke: red; }
.edge:hover polygon { stroke: red; fill: red; }
]]></style>
<script type="text/javascript"><![CDATA[
var edges = document.getElementsByTagName('g');
if (edges && edges.length) {
  for (var i=0;i<edges.length;i++) {
    if (edges[i].id.substr(0,4)=='edge') {
      edges[i].setAttribute('class','edge');
    }
  }
}
]]></script>
        <defs>
                <circle id="rim" cx="0" cy="0" r="7"/>
                <circle id="rim2" cx="0" cy="0" r="3.5"/>
                <g id="zoomPlus">
                        <use xlink:href="#rim" fill="#404040">
                                <set attributeName="fill" to="#808080" begin="zoomplus.mouseover" end="zoomplus.mouseout"/>
                        </use>
                        <path d="M-4,0h8M0,-4v8" fill="none" stroke="white" stroke-width="1.5" pointer-events="none"/>
                </g>
                <g id="zoomMin">
                        <use xlink:href="#rim" fill="#404040">
                                <set attributeName="fill" to="#808080" begin="zoomminus.mouseover" end="zoomminus.mouseout"/>
                        </use>
                        <path d="M-4,0h8" fill="none" stroke="white" stroke-width="1.5" pointer-events="none"/>
                </g>
                <g id="dirArrow">
                        <path fill="none" stroke="white" stroke-width="1.5" d="M0,-3.0v7 M-2.5,-0.5L0,-3.0L2.5,-0.5"/>
                </g>
               <g id="resetDef">
                       <use xlink:href="#rim2" fill="#404040">
                               <set attributeName="fill" to="#808080" begin="reset.mouseover" end="reset.mouseout"/>
                       </use>
               </g>
        </defs>

<script type="text/javascript">
var viewWidth = 907;
var viewHeight = 368;
var sectionId = 'dynsection-0';
</script>
<script xlink:href="../../svgpan.js"/>
<svg id="graph" class="graph">
<g id="viewport">
<title>/home/runner/work/doxygen/doxygen/src/htmldocvisitor.h</title>
<!-- Node1 -->
<g id="node1" class="node">
<title>Node1</title>
<g id="a_node1"><a xlink:title=" ">
<polygon fill="#999999" stroke="#666666" points="615.5,-360 454.5,-360 454.5,-330 615.5,-330 615.5,-360"/>
<text text-anchor="start" x="462.5" y="-348" font-family="Helvetica,sans-Serif" font-size="10.00">/home/runner/work/doxygen</text>
<text text-anchor="middle" x="535" y="-337" font-family="Helvetica,sans-Serif" font-size="10.00">/doxygen/src/htmldocvisitor.h</text>
</a>
</g>
</g>
<!-- Node2 -->
<g id="node2" class="node">
<title>Node2</title>
<g id="a_node2"><a xlink:href="../../d2/d3c/docvisitor_8h.html" target="_top" xlink:title=" ">
<polygon fill="white" stroke="#666666" points="571.5,-239 498.5,-239 498.5,-220 571.5,-220 571.5,-239"/>
<text text-anchor="middle" x="535" y="-227" font-family="Helvetica,sans-Serif" font-size="10.00">docvisitor.h</text>
</a>
</g>
</g>
<!-- Node1&#45;&gt;Node2 -->
<g id="edge1" class="edge">
<title>Node1&#45;&gt;Node2</title>
<path fill="none" stroke="#63b8ff" d="M535,-329.63C535,-309.21 535,-271.81 535,-249.24"/>
<polygon fill="#63b8ff" stroke="#63b8ff" points="538.5,-249.23 535,-239.23 531.5,-249.23 538.5,-249.23"/>
</g>
<!-- Node4 -->
<g id="node4" class="node">
<title>Node4</title>
<g id="a_node4"><a xlink:href="../../d7/d5c/qcstring_8h.html" target="_top" xlink:title=" ">
<polygon fill="white" stroke="#666666" points="556.5,-129 491.5,-129 491.5,-110 556.5,-110 556.5,-129"/>
<text text-anchor="middle" x="524" y="-117" font-family="Helvetica,sans-Serif" font-size="10.00">qcstring.h</text>
</a>
</g>
</g>
<!-- Node1&#45;&gt;Node4 -->
<g id="edge51" class="edge">
<title>Node1&#45;&gt;Node4</title>
<path fill="none" stroke="#63b8ff" d="M546.28,-329.82C562.95,-307.13 591.15,-261.01 581,-220 573.11,-188.11 551.71,-156 537.5,-137.19"/>
<polygon fill="#63b8ff" stroke="#63b8ff" points="540.09,-134.83 531.18,-129.09 534.57,-139.13 540.09,-134.83"/>
</g>
<!-- Node14 -->
<g id="node14" class="node">
<title>Node14</title>
<g id="a_node14"><a xlink:href="../../de/d2b/docnode_8h.html" target="_top" xlink:title=" ">
<polygon fill="white" stroke="#666666" points="377.5,-294 310.5,-294 310.5,-275 377.5,-275 377.5,-294"/>
<text text-anchor="middle" x="344" y="-282" font-family="Helvetica,sans-Serif" font-size="10.00">docnode.h</text>
</a>
</g>
</g>
<!-- Node1&#45;&gt;Node14 -->
<g id="edge15" class="edge">
<title>Node1&#45;&gt;Node14</title>
<path fill="none" stroke="#63b8ff" d="M489.25,-329.99C456.43,-319.94 412.73,-306.55 381.87,-297.1"/>
<polygon fill="#63b8ff" stroke="#63b8ff" points="382.51,-293.64 371.93,-294.05 380.46,-300.33 382.51,-293.64"/>
</g>
<!-- Node3 -->
<g id="node3" class="node">
<title>Node3</title>
<g id="a_node3"><a xlink:title=" ">
<polygon fill="#e0e0e0" stroke="#999999" points="347,-129 289,-129 289,-110 347,-110 347,-129"/>
<text text-anchor="middle" x="318" y="-117" font-family="Helvetica,sans-Serif" font-size="10.00">memory</text>
</a>
</g>
</g>
<!-- Node2&#45;&gt;Node3 -->
<g id="edge2" class="edge">
<title>Node2&#45;&gt;Node3</title>
<path fill="none" stroke="#63b8ff" d="M522.32,-220C502.8,-207.13 463.98,-182.35 429,-165 404,-152.6 374.65,-140.95 352.41,-132.69"/>
<polygon fill="#63b8ff" stroke="#63b8ff" points="353.33,-129.3 342.74,-129.14 350.92,-135.87 353.33,-129.3"/>
</g>
<!-- Node2&#45;&gt;Node4 -->
<g id="edge3" class="edge">
<title>Node2&#45;&gt;Node4</title>
<path fill="none" stroke="#63b8ff" d="M536.5,-219.82C538.37,-207.53 540.98,-184.42 538,-165 536.65,-156.19 533.87,-146.74 531.15,-138.82"/>
<polygon fill="#63b8ff" stroke="#63b8ff" points="534.34,-137.35 527.6,-129.18 527.77,-139.77 534.34,-137.35"/>
</g>
<!-- Node5 -->
<g id="node5" class="node">
<title>Node5</title>
<g id="a_node5"><a xlink:title=" ">
<polygon fill="#e0e0e0" stroke="#999999" points="760,-19 716,-19 716,0 760,0 760,-19"/>
<text text-anchor="middle" x="738" y="-7" font-family="Helvetica,sans-Serif" font-size="10.00">string</text>
</a>
</g>
</g>
<!-- Node4&#45;&gt;Node5 -->
<g id="edge4" class="edge">
<title>Node4&#45;&gt;Node5</title>
<path fill="none" stroke="#63b8ff" d="M527.97,-109.62C534.62,-95.78 549.35,-69.17 570,-55 611.26,-26.69 669.57,-16.38 705.52,-12.64"/>
<polygon fill="#63b8ff" stroke="#63b8ff" points="706.28,-16.08 715.91,-11.67 705.63,-9.11 706.28,-16.08"/>
</g>
<!-- Node6 -->
<g id="node6" class="node">
<title>Node6</title>
<g id="a_node6"><a xlink:title=" ">
<polygon fill="#e0e0e0" stroke="#999999" points="710,-74 646,-74 646,-55 710,-55 710,-74"/>
<text text-anchor="middle" x="678" y="-62" font-family="Helvetica,sans-Serif" font-size="10.00">algorithm</text>
</a>
</g>
</g>
<!-- Node4&#45;&gt;Node6 -->
<g id="edge5" class="edge">
<title>Node4&#45;&gt;Node6</title>
<path fill="none" stroke="#63b8ff" d="M548.74,-109.98C574.37,-101.16 614.63,-87.31 643.41,-77.41"/>
<polygon fill="#63b8ff" stroke="#63b8ff" points="644.75,-80.65 653.06,-74.08 642.47,-74.03 644.75,-80.65"/>
</g>
<!-- Node7 -->
<g id="node7" class="node">
<title>Node7</title>
<g id="a_node7"><a xlink:title=" ">
<polygon fill="#e0e0e0" stroke="#999999" points="627.5,-74 578.5,-74 578.5,-55 627.5,-55 627.5,-74"/>
<text text-anchor="middle" x="603" y="-62" font-family="Helvetica,sans-Serif" font-size="10.00">cctype</text>
</a>
</g>
</g>
<!-- Node4&#45;&gt;Node7 -->
<g id="edge6" class="edge">
<title>Node4&#45;&gt;Node7</title>
<path fill="none" stroke="#63b8ff" d="M536.69,-109.98C548.83,-101.84 567.36,-89.41 581.75,-79.76"/>
<polygon fill="#63b8ff" stroke="#63b8ff" points="583.72,-82.65 590.08,-74.17 579.82,-76.84 583.72,-82.65"/>
</g>
<!-- Node8 -->
<g id="node8" class="node">
<title>Node8</title>
<g id="a_node8"><a xlink:title=" ">
<polygon fill="#e0e0e0" stroke="#999999" points="379,-74 329,-74 329,-55 379,-55 379,-74"/>
<text text-anchor="middle" x="354" y="-62" font-family="Helvetica,sans-Serif" font-size="10.00">cstring</text>
</a>
</g>
</g>
<!-- Node4&#45;&gt;Node8 -->
<g id="edge7" class="edge">
<title>Node4&#45;&gt;Node8</title>
<path fill="none" stroke="#63b8ff" d="M496.69,-109.98C467.38,-100.85 420.76,-86.31 388.84,-76.36"/>
<polygon fill="#63b8ff" stroke="#63b8ff" points="389.62,-72.94 379.03,-73.3 387.53,-79.62 389.62,-72.94"/>
</g>
<!-- Node9 -->
<g id="node9" class="node">
<title>Node9</title>
<g id="a_node9"><a xlink:title=" ">
<polygon fill="#e0e0e0" stroke="#999999" points="142,-74 96,-74 96,-55 142,-55 142,-74"/>
<text text-anchor="middle" x="119" y="-62" font-family="Helvetica,sans-Serif" font-size="10.00">cstdio</text>
</a>
</g>
</g>
<!-- Node4&#45;&gt;Node9 -->
<g id="edge8" class="edge">
<title>Node4&#45;&gt;Node9</title>
<path fill="none" stroke="#63b8ff" d="M491.2,-114.21C415.3,-104.28 228.25,-79.8 152.08,-69.83"/>
<polygon fill="#63b8ff" stroke="#63b8ff" points="152.46,-66.35 142.09,-68.52 151.55,-73.29 152.46,-66.35"/>
</g>
<!-- Node10 -->
<g id="node10" class="node">
<title>Node10</title>
<g id="a_node10"><a xlink:title=" ">
<polygon fill="#e0e0e0" stroke="#999999" points="446.5,-74 397.5,-74 397.5,-55 446.5,-55 446.5,-74"/>
<text text-anchor="middle" x="422" y="-62" font-family="Helvetica,sans-Serif" font-size="10.00">cstdlib</text>
</a>
</g>
</g>
<!-- Node4&#45;&gt;Node10 -->
<g id="edge9" class="edge">
<title>Node4&#45;&gt;Node10</title>
<path fill="none" stroke="#63b8ff" d="M507.61,-109.98C491.43,-101.57 466.43,-88.59 447.62,-78.81"/>
<polygon fill="#63b8ff" stroke="#63b8ff" points="449.17,-75.68 438.69,-74.17 445.95,-81.89 449.17,-75.68"/>
</g>
<!-- Node11 -->
<g id="node11" class="node">
<title>Node11</title>
<g id="a_node11"><a xlink:title=" ">
<polygon fill="#e0e0e0" stroke="#999999" points="262,-19 212,-19 212,0 262,0 262,-19"/>
<text text-anchor="middle" x="237" y="-7" font-family="Helvetica,sans-Serif" font-size="10.00">cstdint</text>
</a>
</g>
</g>
<!-- Node4&#45;&gt;Node11 -->
<g id="edge10" class="edge">
<title>Node4&#45;&gt;Node11</title>
<path fill="none" stroke="#63b8ff" d="M491.48,-117.3C427.94,-114.31 290.5,-104.4 256,-74 243.46,-62.95 239.04,-44.01 237.55,-29.68"/>
<polygon fill="#63b8ff" stroke="#63b8ff" points="241.03,-29.18 236.89,-19.42 234.04,-29.63 241.03,-29.18"/>
</g>
<!-- Node12 -->
<g id="node12" class="node">
<title>Node12</title>
<g id="a_node12"><a xlink:title=" ">
<polygon fill="#e0e0e0" stroke="#999999" points="521.5,-74 464.5,-74 464.5,-55 521.5,-55 521.5,-74"/>
<text text-anchor="middle" x="493" y="-62" font-family="Helvetica,sans-Serif" font-size="10.00">ostream</text>
</a>
</g>
</g>
<!-- Node4&#45;&gt;Node12 -->
<g id="edge11" class="edge">
<title>Node4&#45;&gt;Node12</title>
<path fill="none" stroke="#63b8ff" d="M518.88,-109.75C514.64,-102.49 508.47,-91.95 503.22,-82.98"/>
<polygon fill="#63b8ff" stroke="#63b8ff" points="506.09,-80.95 498.02,-74.09 500.05,-84.49 506.09,-80.95"/>
</g>
<!-- Node13 -->
<g id="node13" class="node">
<title>Node13</title>
<g id="a_node13"><a xlink:href="../../db/d7c/utf8_8h.html" target="_top" xlink:title="Various UTF8 related helper functions.">
<polygon fill="white" stroke="#666666" points="310.5,-74 265.5,-74 265.5,-55 310.5,-55 310.5,-74"/>
<text text-anchor="middle" x="288" y="-62" font-family="Helvetica,sans-Serif" font-size="10.00">utf8.h</text>
</a>
</g>
</g>
<!-- Node4&#45;&gt;Node13 -->
<g id="edge12" class="edge">
<title>Node4&#45;&gt;Node13</title>
<path fill="none" stroke="#63b8ff" d="M491.39,-111.86C452.92,-103.92 386.82,-89.95 320.48,-74.03"/>
<polygon fill="#63b8ff" stroke="#63b8ff" points="321.24,-70.61 310.69,-71.66 319.59,-77.41 321.24,-70.61"/>
</g>
<!-- Node13&#45;&gt;Node5 -->
<g id="edge14" class="edge">
<title>Node13&#45;&gt;Node5</title>
<path fill="none" stroke="#63b8ff" d="M310.63,-57.03C313.76,-56.27 316.95,-55.56 320,-55 462.32,-28.68 634.99,-16.43 705.58,-12.25"/>
<polygon fill="#63b8ff" stroke="#63b8ff" points="705.84,-15.74 715.62,-11.67 705.44,-8.75 705.84,-15.74"/>
</g>
<!-- Node13&#45;&gt;Node11 -->
<g id="edge13" class="edge">
<title>Node13&#45;&gt;Node11</title>
<path fill="none" stroke="#63b8ff" d="M279.58,-54.75C272.23,-47.11 261.37,-35.82 252.46,-26.56"/>
<polygon fill="#63b8ff" stroke="#63b8ff" points="254.72,-23.87 245.26,-19.09 249.68,-28.72 254.72,-23.87"/>
</g>
<!-- Node14&#45;&gt;Node2 -->
<g id="edge22" class="edge">
<title>Node14&#45;&gt;Node2</title>
<path fill="none" stroke="#63b8ff" d="M374.69,-274.98C407.17,-265.97 458.6,-251.7 494.41,-241.76"/>
<polygon fill="#63b8ff" stroke="#63b8ff" points="495.37,-245.13 504.07,-239.08 493.5,-238.38 495.37,-245.13"/>
</g>
<!-- Node14&#45;&gt;Node3 -->
<g id="edge19" class="edge">
<title>Node14&#45;&gt;Node3</title>
<path fill="none" stroke="#63b8ff" d="M342.6,-274.74C338.53,-249.2 326.6,-174.43 320.99,-139.23"/>
<polygon fill="#63b8ff" stroke="#63b8ff" points="324.44,-138.63 319.4,-129.31 317.52,-139.73 324.44,-138.63"/>
</g>
<!-- Node14&#45;&gt;Node4 -->
<g id="edge21" class="edge">
<title>Node14&#45;&gt;Node4</title>
<path fill="none" stroke="#63b8ff" d="M354.46,-274.96C375.06,-258.05 422.17,-218.91 460,-184 476.96,-168.35 495.61,-149.67 508.38,-136.64"/>
<polygon fill="#63b8ff" stroke="#63b8ff" points="511.02,-138.93 515.5,-129.33 506.01,-134.05 511.02,-138.93"/>
</g>
<!-- Node14&#45;&gt;Node9 -->
<g id="edge16" class="edge">
<title>Node14&#45;&gt;Node9</title>
<path fill="none" stroke="#63b8ff" d="M310.25,-280.54C254.46,-275.06 146.18,-261.77 116,-239 87.93,-217.82 82.71,-199.76 88,-165 92.46,-135.72 103.89,-103.2 111.55,-83.56"/>
<polygon fill="#63b8ff" stroke="#63b8ff" points="114.88,-84.66 115.36,-74.08 108.39,-82.06 114.88,-84.66"/>
</g>
<!-- Node14&#45;&gt;Node11 -->
<g id="edge17" class="edge">
<title>Node14&#45;&gt;Node11</title>
<path fill="none" stroke="#63b8ff" d="M310.39,-280.2C223.83,-270.77 0,-240.13 0,-175.5 0,-175.5 0,-175.5 0,-118.5 0,-31.12 135.04,-14.12 201.25,-11.04"/>
<polygon fill="#63b8ff" stroke="#63b8ff" points="201.78,-14.52 211.64,-10.64 201.51,-7.52 201.78,-14.52"/>
</g>
<!-- Node15 -->
<g id="node15" class="node">
<title>Node15</title>
<g id="a_node15"><a xlink:title=" ">
<polygon fill="#e0e0e0" stroke="#999999" points="253.5,-129 206.5,-129 206.5,-110 253.5,-110 253.5,-129"/>
<text text-anchor="middle" x="230" y="-117" font-family="Helvetica,sans-Serif" font-size="10.00">vector</text>
</a>
</g>
</g>
<!-- Node14&#45;&gt;Node15 -->
<g id="edge18" class="edge">
<title>Node14&#45;&gt;Node15</title>
<path fill="none" stroke="#63b8ff" d="M310.03,-283.41C250.06,-281.1 128.56,-266.09 95,-184 91.8,-176.18 90.05,-171.84 95,-165 107.01,-148.39 160.27,-134.6 196.19,-126.96"/>
<polygon fill="#63b8ff" stroke="#63b8ff" points="197.18,-130.33 206.27,-124.89 195.77,-123.48 197.18,-130.33"/>
</g>
<!-- Node16 -->
<g id="node16" class="node">
<title>Node16</title>
<g id="a_node16"><a xlink:title=" ">
<polygon fill="#e0e0e0" stroke="#999999" points="315.5,-239 264.5,-239 264.5,-220 315.5,-220 315.5,-239"/>
<text text-anchor="middle" x="290" y="-227" font-family="Helvetica,sans-Serif" font-size="10.00">variant</text>
</a>
</g>
</g>
<!-- Node14&#45;&gt;Node16 -->
<g id="edge20" class="edge">
<title>Node14&#45;&gt;Node16</title>
<path fill="none" stroke="#63b8ff" d="M335.08,-274.75C327.22,-267.03 315.57,-255.6 306.08,-246.28"/>
<polygon fill="#63b8ff" stroke="#63b8ff" points="308.34,-243.6 298.75,-239.09 303.44,-248.59 308.34,-243.6"/>
</g>
<!-- Node17 -->
<g id="node17" class="node">
<title>Node17</title>
<g id="a_node17"><a xlink:href="../../de/d9c/docparser_8h.html" target="_top" xlink:title=" ">
<polygon fill="white" stroke="#666666" points="246.5,-239 173.5,-239 173.5,-220 246.5,-220 246.5,-239"/>
<text text-anchor="middle" x="210" y="-227" font-family="Helvetica,sans-Serif" font-size="10.00">docparser.h</text>
</a>
</g>
</g>
<!-- Node14&#45;&gt;Node17 -->
<g id="edge23" class="edge">
<title>Node14&#45;&gt;Node17</title>
<path fill="none" stroke="#63b8ff" d="M322.47,-274.98C300.53,-266.3 266.26,-252.75 241.31,-242.88"/>
<polygon fill="#63b8ff" stroke="#63b8ff" points="242.51,-239.59 231.92,-239.17 239.93,-246.1 242.51,-239.59"/>
</g>
<!-- Node19 -->
<g id="node19" class="node">
<title>Node19</title>
<g id="a_node19"><a xlink:href="../../d7/d50/growvector_8h.html" target="_top" xlink:title=" ">
<polygon fill="white" stroke="#666666" points="184,-184 104,-184 104,-165 184,-165 184,-184"/>
<text text-anchor="middle" x="144" y="-172" font-family="Helvetica,sans-Serif" font-size="10.00">growvector.h</text>
</a>
</g>
</g>
<!-- Node14&#45;&gt;Node19 -->
<g id="edge38" class="edge">
<title>Node14&#45;&gt;Node19</title>
<path fill="none" stroke="#63b8ff" d="M310.26,-279.14C264.19,-272.54 184.94,-258.67 164,-239 151.77,-227.51 146.98,-208.63 145.12,-194.44"/>
<polygon fill="#63b8ff" stroke="#63b8ff" points="148.59,-193.92 144.18,-184.29 141.62,-194.57 148.59,-193.92"/>
</g>
<!-- Node21 -->
<g id="node21" class="node">
<title>Node21</title>
<g id="a_node21"><a xlink:href="../../d0/d73/htmlattrib_8h.html" target="_top" xlink:title=" ">
<polygon fill="white" stroke="#666666" points="420,-184 346,-184 346,-165 420,-165 420,-184"/>
<text text-anchor="middle" x="383" y="-172" font-family="Helvetica,sans-Serif" font-size="10.00">htmlattrib.h</text>
</a>
</g>
</g>
<!-- Node14&#45;&gt;Node21 -->
<g id="edge31" class="edge">
<title>Node14&#45;&gt;Node21</title>
<path fill="none" stroke="#63b8ff" d="M347.19,-274.66C353.57,-257.01 367.98,-217.09 376.45,-193.64"/>
<polygon fill="#63b8ff" stroke="#63b8ff" points="379.77,-194.75 379.87,-184.16 373.18,-192.38 379.77,-194.75"/>
</g>
<!-- Node22 -->
<g id="node22" class="node">
<title>Node22</title>
<g id="a_node22"><a xlink:href="../../db/dc6/htmlentity_8h.html" target="_top" xlink:title=" ">
<polygon fill="white" stroke="#666666" points="875.5,-184 800.5,-184 800.5,-165 875.5,-165 875.5,-184"/>
<text text-anchor="middle" x="838" y="-172" font-family="Helvetica,sans-Serif" font-size="10.00">htmlentity.h</text>
</a>
</g>
</g>
<!-- Node14&#45;&gt;Node22 -->
<g id="edge34" class="edge">
<title>Node14&#45;&gt;Node22</title>
<path fill="none" stroke="#63b8ff" d="M377.69,-281.86C461.56,-277.44 677.76,-263.91 745,-239 774.46,-228.09 803.58,-205.85 821.18,-190.81"/>
<polygon fill="#63b8ff" stroke="#63b8ff" points="823.64,-193.31 828.85,-184.08 819.02,-188.05 823.64,-193.31"/>
</g>
<!-- Node24 -->
<g id="node24" class="node">
<title>Node24</title>
<g id="a_node24"><a xlink:href="../../d1/d2a/section_8h.html" target="_top" xlink:title=" ">
<polygon fill="white" stroke="#666666" points="735.5,-239 674.5,-239 674.5,-220 735.5,-220 735.5,-239"/>
<text text-anchor="middle" x="705" y="-227" font-family="Helvetica,sans-Serif" font-size="10.00">section.h</text>
</a>
</g>
</g>
<!-- Node14&#45;&gt;Node24 -->
<g id="edge39" class="edge">
<title>Node14&#45;&gt;Node24</title>
<path fill="none" stroke="#63b8ff" d="M377.64,-278.56C444.2,-268.79 592.49,-247.02 664.37,-236.46"/>
<polygon fill="#63b8ff" stroke="#63b8ff" points="665.02,-239.91 674.41,-234.99 664,-232.98 665.02,-239.91"/>
</g>
<!-- Node17&#45;&gt;Node3 -->
<g id="edge25" class="edge">
<title>Node17&#45;&gt;Node3</title>
<path fill="none" stroke="#63b8ff" d="M220.49,-219.99C231.04,-211.28 247.61,-197.2 261,-184 276.58,-168.64 293.15,-149.88 304.38,-136.74"/>
<polygon fill="#63b8ff" stroke="#63b8ff" points="307.13,-138.91 310.93,-129.02 301.8,-134.38 307.13,-138.91"/>
</g>
<!-- Node17&#45;&gt;Node4 -->
<g id="edge26" class="edge">
<title>Node17&#45;&gt;Node4</title>
<path fill="none" stroke="#63b8ff" d="M246.85,-221.4C307.03,-209.74 420.61,-187.5 429,-184 458.11,-171.87 487.71,-150.31 505.95,-135.72"/>
<polygon fill="#63b8ff" stroke="#63b8ff" points="508.42,-138.22 513.95,-129.19 503.99,-132.8 508.42,-138.22"/>
</g>
<!-- Node18 -->
<g id="node18" class="node">
<title>Node18</title>
<g id="a_node18"><a xlink:title=" ">
<polygon fill="#e0e0e0" stroke="#999999" points="252,-184 202,-184 202,-165 252,-165 252,-184"/>
<text text-anchor="middle" x="227" y="-172" font-family="Helvetica,sans-Serif" font-size="10.00">stdio.h</text>
</a>
</g>
</g>
<!-- Node17&#45;&gt;Node18 -->
<g id="edge24" class="edge">
<title>Node17&#45;&gt;Node18</title>
<path fill="none" stroke="#63b8ff" d="M212.81,-219.75C215.06,-212.72 218.3,-202.62 221.12,-193.84"/>
<polygon fill="#63b8ff" stroke="#63b8ff" points="224.52,-194.68 224.25,-184.09 217.86,-192.54 224.52,-194.68"/>
</g>
<!-- Node17&#45;&gt;Node19 -->
<g id="edge27" class="edge">
<title>Node17&#45;&gt;Node19</title>
<path fill="none" stroke="#63b8ff" d="M199.4,-219.98C189.54,-212.07 174.65,-200.11 162.78,-190.58"/>
<polygon fill="#63b8ff" stroke="#63b8ff" points="164.79,-187.7 154.8,-184.17 160.4,-193.16 164.79,-187.7"/>
</g>
<!-- Node19&#45;&gt;Node3 -->
<g id="edge29" class="edge">
<title>Node19&#45;&gt;Node3</title>
<path fill="none" stroke="#63b8ff" d="M171.96,-164.98C201.3,-156.05 247.6,-141.94 280.19,-132.02"/>
<polygon fill="#63b8ff" stroke="#63b8ff" points="281.28,-135.34 289.82,-129.08 279.24,-128.65 281.28,-135.34"/>
</g>
<!-- Node19&#45;&gt;Node15 -->
<g id="edge28" class="edge">
<title>Node19&#45;&gt;Node15</title>
<path fill="none" stroke="#63b8ff" d="M157.82,-164.98C171.15,-156.77 191.58,-144.18 207.31,-134.49"/>
<polygon fill="#63b8ff" stroke="#63b8ff" points="209.25,-137.4 215.93,-129.17 205.58,-131.44 209.25,-137.4"/>
</g>
<!-- Node20 -->
<g id="node20" class="node">
<title>Node20</title>
<g id="a_node20"><a xlink:title=" ">
<polygon fill="#e0e0e0" stroke="#999999" points="170.5,-129 117.5,-129 117.5,-110 170.5,-110 170.5,-129"/>
<text text-anchor="middle" x="144" y="-117" font-family="Helvetica,sans-Serif" font-size="10.00">iterator</text>
</a>
</g>
</g>
<!-- Node19&#45;&gt;Node20 -->
<g id="edge30" class="edge">
<title>Node19&#45;&gt;Node20</title>
<path fill="none" stroke="#63b8ff" d="M144,-164.75C144,-157.8 144,-147.85 144,-139.13"/>
<polygon fill="#63b8ff" stroke="#63b8ff" points="147.5,-139.09 144,-129.09 140.5,-139.09 147.5,-139.09"/>
</g>
<!-- Node21&#45;&gt;Node4 -->
<g id="edge33" class="edge">
<title>Node21&#45;&gt;Node4</title>
<path fill="none" stroke="#63b8ff" d="M405.65,-164.98C428.85,-156.27 465.12,-142.63 491.4,-132.75"/>
<polygon fill="#63b8ff" stroke="#63b8ff" points="492.8,-135.97 500.93,-129.17 490.34,-129.41 492.8,-135.97"/>
</g>
<!-- Node21&#45;&gt;Node15 -->
<g id="edge32" class="edge">
<title>Node21&#45;&gt;Node15</title>
<path fill="none" stroke="#63b8ff" d="M358.42,-164.98C332.58,-156.03 291.77,-141.9 263.1,-131.97"/>
<polygon fill="#63b8ff" stroke="#63b8ff" points="264.11,-128.61 253.52,-128.65 261.82,-135.23 264.11,-128.61"/>
</g>
<!-- Node22&#45;&gt;Node4 -->
<g id="edge37" class="edge">
<title>Node22&#45;&gt;Node4</title>
<path fill="none" stroke="#63b8ff" d="M800.44,-167.16C741.81,-157.26 628.87,-138.2 567.05,-127.77"/>
<polygon fill="#63b8ff" stroke="#63b8ff" points="567.29,-124.26 556.85,-126.04 566.13,-131.16 567.29,-124.26"/>
</g>
<!-- Node22&#45;&gt;Node5 -->
<g id="edge36" class="edge">
<title>Node22&#45;&gt;Node5</title>
<path fill="none" stroke="#63b8ff" d="M842.05,-164.88C847.35,-152.28 855.09,-128.34 847,-110 829.89,-71.21 789.35,-40.99 762.82,-24.47"/>
<polygon fill="#63b8ff" stroke="#63b8ff" points="764.46,-21.37 754.09,-19.21 760.85,-27.37 764.46,-21.37"/>
</g>
<!-- Node23 -->
<g id="node23" class="node">
<title>Node23</title>
<g id="a_node23"><a xlink:title=" ">
<polygon fill="#e0e0e0" stroke="#999999" points="837.5,-129 744.5,-129 744.5,-110 837.5,-110 837.5,-129"/>
<text text-anchor="middle" x="791" y="-117" font-family="Helvetica,sans-Serif" font-size="10.00">unordered_map</text>
</a>
</g>
</g>
<!-- Node22&#45;&gt;Node23 -->
<g id="edge35" class="edge">
<title>Node22&#45;&gt;Node23</title>
<path fill="none" stroke="#63b8ff" d="M830.24,-164.75C823.53,-157.18 813.66,-146.05 805.49,-136.84"/>
<polygon fill="#63b8ff" stroke="#63b8ff" points="807.87,-134.25 798.62,-129.09 802.63,-138.89 807.87,-134.25"/>
</g>
<!-- Node24&#45;&gt;Node4 -->
<g id="edge42" class="edge">
<title>Node24&#45;&gt;Node4</title>
<path fill="none" stroke="#63b8ff" d="M693.87,-219.91C677.07,-207.15 644.01,-182.75 614,-165 594.13,-153.24 570.72,-141.74 552.76,-133.37"/>
<polygon fill="#63b8ff" stroke="#63b8ff" points="553.95,-130.07 543.4,-129.07 551.02,-136.43 553.95,-130.07"/>
</g>
<!-- Node24&#45;&gt;Node5 -->
<g id="edge40" class="edge">
<title>Node24&#45;&gt;Node5</title>
<path fill="none" stroke="#63b8ff" d="M735.75,-225.41C782.2,-220.04 866.79,-207.26 885,-184 923.75,-134.5 873.68,-97.1 827,-55 810.36,-39.99 787.74,-28.77 769.47,-21.35"/>
<polygon fill="#63b8ff" stroke="#63b8ff" points="770.69,-18.07 760.1,-17.72 768.16,-24.6 770.69,-18.07"/>
</g>
<!-- Node24&#45;&gt;Node23 -->
<g id="edge41" class="edge">
<title>Node24&#45;&gt;Node23</title>
<path fill="none" stroke="#63b8ff" d="M716.14,-219.74C726.45,-211.28 741.84,-197.77 753,-184 764.61,-169.69 775.14,-151.48 782.15,-138.23"/>
<polygon fill="#63b8ff" stroke="#63b8ff" points="785.33,-139.71 786.79,-129.22 779.1,-136.51 785.33,-139.71"/>
</g>
<!-- Node25 -->
<g id="node25" class="node">
<title>Node25</title>
<g id="a_node25"><a xlink:href="../../da/de1/linkedmap_8h.html" target="_top" xlink:title=" ">
<polygon fill="white" stroke="#666666" points="743.5,-184 666.5,-184 666.5,-165 743.5,-165 743.5,-184"/>
<text text-anchor="middle" x="705" y="-172" font-family="Helvetica,sans-Serif" font-size="10.00">linkedmap.h</text>
</a>
</g>
</g>
<!-- Node24&#45;&gt;Node25 -->
<g id="edge43" class="edge">
<title>Node24&#45;&gt;Node25</title>
<path fill="none" stroke="#63b8ff" d="M705,-219.75C705,-212.8 705,-202.85 705,-194.13"/>
<polygon fill="#63b8ff" stroke="#63b8ff" points="708.5,-194.09 705,-184.09 701.5,-194.09 708.5,-194.09"/>
</g>
<!-- Node25&#45;&gt;Node3 -->
<g id="edge46" class="edge">
<title>Node25&#45;&gt;Node3</title>
<path fill="none" stroke="#63b8ff" d="M666.48,-168.22C592.68,-158.12 432.08,-136.12 357.51,-125.91"/>
<polygon fill="#63b8ff" stroke="#63b8ff" points="357.53,-122.38 347.15,-124.49 356.58,-129.32 357.53,-122.38"/>
</g>
<!-- Node25&#45;&gt;Node4 -->
<g id="edge50" class="edge">
<title>Node25&#45;&gt;Node4</title>
<path fill="none" stroke="#63b8ff" d="M675.92,-164.98C645.4,-156.05 597.24,-141.94 563.34,-132.02"/>
<polygon fill="#63b8ff" stroke="#63b8ff" points="563.89,-128.53 553.31,-129.08 561.92,-135.25 563.89,-128.53"/>
</g>
<!-- Node25&#45;&gt;Node5 -->
<g id="edge47" class="edge">
<title>Node25&#45;&gt;Node5</title>
<path fill="none" stroke="#63b8ff" d="M706.77,-164.74C711.94,-139.2 727.08,-64.43 734.21,-29.23"/>
<polygon fill="#63b8ff" stroke="#63b8ff" points="737.66,-29.8 736.22,-19.31 730.8,-28.41 737.66,-29.8"/>
</g>
<!-- Node25&#45;&gt;Node6 -->
<g id="edge48" class="edge">
<title>Node25&#45;&gt;Node6</title>
<path fill="none" stroke="#63b8ff" d="M702.79,-164.66C698.4,-147.09 688.49,-107.45 682.61,-83.95"/>
<polygon fill="#63b8ff" stroke="#63b8ff" points="685.99,-83.01 680.16,-74.16 679.19,-84.71 685.99,-83.01"/>
</g>
<!-- Node25&#45;&gt;Node7 -->
<g id="edge49" class="edge">
<title>Node25&#45;&gt;Node7</title>
<path fill="none" stroke="#63b8ff" d="M696.65,-164.66C679.46,-146.46 639.88,-104.55 618.08,-81.47"/>
<polygon fill="#63b8ff" stroke="#63b8ff" points="620.59,-79.03 611.18,-74.16 615.5,-83.83 620.59,-79.03"/>
</g>
<!-- Node25&#45;&gt;Node15 -->
<g id="edge45" class="edge">
<title>Node25&#45;&gt;Node15</title>
<path fill="none" stroke="#63b8ff" d="M666.22,-170.28C591.38,-163.87 421.85,-148.46 280,-129 274.74,-128.28 269.18,-127.42 263.75,-126.54"/>
<polygon fill="#63b8ff" stroke="#63b8ff" points="264.05,-123.04 253.61,-124.83 262.89,-129.94 264.05,-123.04"/>
</g>
<!-- Node25&#45;&gt;Node23 -->
<g id="edge44" class="edge">
<title>Node25&#45;&gt;Node23</title>
<path fill="none" stroke="#63b8ff" d="M718.82,-164.98C732.15,-156.77 752.58,-144.18 768.31,-134.49"/>
<polygon fill="#63b8ff" stroke="#63b8ff" points="770.25,-137.4 776.93,-129.17 766.58,-131.44 770.25,-137.4"/>
</g>
</g>
</svg>
        <g id="navigator" transform="translate(0 0)" fill="#404254">
                <rect fill="#f2f5e9" fill-opacity="0.5" stroke="#606060" stroke-width=".5" x="0" y="0" width="60" height="60"/>
                <use id="zoomplus" xlink:href="#zoomPlus" x="17" y="9" onmousedown="handleZoom(evt,'in')"/>
                <use id="zoomminus" xlink:href="#zoomMin" x="42" y="9" onmousedown="handleZoom(evt,'out')"/>
                <use id="reset" xlink:href="#resetDef" x="30" y="36" onmousedown="handleReset()"/>
                <g id="arrowUp" xlink:href="#dirArrow" transform="translate(30 24)" onmousedown="handlePan(0,-1)">
                  <use xlink:href="#rim" fill="#404040">
                        <set attributeName="fill" to="#808080" begin="arrowUp.mouseover" end="arrowUp.mouseout"/>
                  </use>
                  <path fill="none" stroke="white" stroke-width="1.5" d="M0,-3.0v7 M-2.5,-0.5L0,-3.0L2.5,-0.5"/>
                </g>
                <g id="arrowRight" xlink:href="#dirArrow" transform="rotate(90) translate(36 -43)" onmousedown="handlePan(1,0)">
                  <use xlink:href="#rim" fill="#404040">
                        <set attributeName="fill" to="#808080" begin="arrowRight.mouseover" end="arrowRight.mouseout"/>
                  </use>
                  <path fill="none" stroke="white" stroke-width="1.5" d="M0,-3.0v7 M-2.5,-0.5L0,-3.0L2.5,-0.5"/>
                </g>
                <g id="arrowDown" xlink:href="#dirArrow" transform="rotate(180) translate(-30 -48)" onmousedown="handlePan(0,1)">
                  <use xlink:href="#rim" fill="#404040">
                        <set attributeName="fill" to="#808080" begin="arrowDown.mouseover" end="arrowDown.mouseout"/>
                  </use>
                  <path fill="none" stroke="white" stroke-width="1.5" d="M0,-3.0v7 M-2.5,-0.5L0,-3.0L2.5,-0.5"/>
                </g>
                <g id="arrowLeft" xlink:href="#dirArrow" transform="rotate(270) translate(-36 17)" onmousedown="handlePan(-1,0)">
                  <use xlink:href="#rim" fill="#404040">
                        <set attributeName="fill" to="#808080" begin="arrowLeft.mouseover" end="arrowLeft.mouseout"/>
                  </use>
                  <path fill="none" stroke="white" stroke-width="1.5" d="M0,-3.0v7 M-2.5,-0.5L0,-3.0L2.5,-0.5"/>
                </g>
        </g>
        <svg viewBox="0 0 15 15" width="100%" height="30px" preserveAspectRatio="xMaxYMin meet">
         <g id="arrow_out" transform="scale(0.3 0.3)">
          <a xlink:href="htmldocvisitor_8h__incl_org.svg" target="_base">
           <rect id="button" ry="5" rx="5" y="6" x="6" height="38" width="38"
                fill="#f2f5e9" fill-opacity="0.5" stroke="#606060" stroke-width="1.0"/>
           <path id="arrow"
             d="M 11.500037,31.436501 C 11.940474,20.09759 22.043105,11.32322 32.158766,21.979434 L 37.068811,17.246167 C 37.068811,17.246167 37.088388,32 37.088388,32 L 22.160133,31.978069 C 22.160133,31.978069 26.997745,27.140456 26.997745,27.140456 C 18.528582,18.264221 13.291696,25.230495 11.500037,31.436501 z"
             style="fill:#404040;"/>
          </a>
         </g>
        </svg>
</svg>
