<?xml version="1.0" encoding="UTF-8" standalone="no"?>
<!DOCTYPE svg PUBLIC "-//W3C//DTD SVG 1.1//EN"
 "http://www.w3.org/Graphics/SVG/1.1/DTD/svg11.dtd">
<!-- Generated by graphviz version 2.43.0 (0)
 -->
<!-- Title: /home/runner/work/doxygen/doxygen/src/htmldocvisitor.h Pages: 1 -->
<!--zoomable 313 -->
<svg id="main" version="1.1" xmlns="http://www.w3.org/2000/svg" xmlns:xlink="http://www.w3.org/1999/xlink" xml:space="preserve" onload="init(evt)">
<style type="text/css"><![CDATA[
.edge:hover path { stroke: red; }
.edge:hover polygon { stroke: red; fill: red; }
]]></style>
<script type="text/javascript"><![CDATA[
var edges = document.getElementsByTagName('g');
if (edges && edges.length) {
  for (var i=0;i<edges.length;i++) {
    if (edges[i].id.substr(0,4)=='edge') {
      edges[i].setAttribute('class','edge');
    }
  }
}
]]></script>
        <defs>
                <circle id="rim" cx="0" cy="0" r="7"/>
                <circle id="rim2" cx="0" cy="0" r="3.5"/>
                <g id="zoomPlus">
                        <use xlink:href="#rim" fill="#404040">
                                <set attributeName="fill" to="#808080" begin="zoomplus.mouseover" end="zoomplus.mouseout"/>
                        </use>
                        <path d="M-4,0h8M0,-4v8" fill="none" stroke="white" stroke-width="1.5" pointer-events="none"/>
                </g>
                <g id="zoomMin">
                        <use xlink:href="#rim" fill="#404040">
                                <set attributeName="fill" to="#808080" begin="zoomminus.mouseover" end="zoomminus.mouseout"/>
                        </use>
                        <path d="M-4,0h8" fill="none" stroke="white" stroke-width="1.5" pointer-events="none"/>
                </g>
                <g id="dirArrow">
                        <path fill="none" stroke="white" stroke-width="1.5" d="M0,-3.0v7 M-2.5,-0.5L0,-3.0L2.5,-0.5"/>
                </g>
               <g id="resetDef">
                       <use xlink:href="#rim2" fill="#404040">
                               <set attributeName="fill" to="#808080" begin="reset.mouseover" end="reset.mouseout"/>
                       </use>
               </g>
        </defs>

<script type="text/javascript">
var viewWidth = 842;
var viewHeight = 313;
var sectionId = 'dynsection-0';
</script>
<script xlink:href="../../svgpan.js"/>
<svg id="graph" class="graph">
<g id="viewport">
<title>/home/runner/work/doxygen/doxygen/src/htmldocvisitor.h</title>
<!-- Node1 -->
<g id="node1" class="node">
<title>Node1</title>
<g id="a_node1"><a xlink:title=" ">
<polygon fill="#999999" stroke="#666666" points="414,-305 253,-305 253,-275 414,-275 414,-305"/>
<text text-anchor="start" x="261" y="-293" font-family="Helvetica,sans-Serif" font-size="10.00">/home/runner/work/doxygen</text>
<text text-anchor="middle" x="333.5" y="-282" font-family="Helvetica,sans-Serif" font-size="10.00">/doxygen/src/htmldocvisitor.h</text>
</a>
</g>
</g>
<!-- Node2 -->
<g id="node2" class="node">
<title>Node2</title>
<g id="a_node2"><a xlink:href="../../d2/d3c/docvisitor_8h.html" target="_top" xlink:title=" ">
<polygon fill="white" stroke="#666666" points="370,-184 297,-184 297,-165 370,-165 370,-184"/>
<text text-anchor="middle" x="333.5" y="-172" font-family="Helvetica,sans-Serif" font-size="10.00">docvisitor.h</text>
</a>
</g>
</g>
<!-- Node1&#45;&gt;Node2 -->
<g id="edge1" class="edge">
<title>Node1&#45;&gt;Node2</title>
<path fill="none" stroke="#63b8ff" d="M333.5,-274.63C333.5,-254.21 333.5,-216.81 333.5,-194.24"/>
<polygon fill="#63b8ff" stroke="#63b8ff" points="337,-194.23 333.5,-184.23 330,-194.23 337,-194.23"/>
</g>
<!-- Node4 -->
<g id="node4" class="node">
<title>Node4</title>
<g id="a_node4"><a xlink:href="../../d7/d5c/qcstring_8h.html" target="_top" xlink:title=" ">
<polygon fill="white" stroke="#666666" points="523,-129 458,-129 458,-110 523,-110 523,-129"/>
<text text-anchor="middle" x="490.5" y="-117" font-family="Helvetica,sans-Serif" font-size="10.00">qcstring.h</text>
</a>
</g>
</g>
<!-- Node1&#45;&gt;Node4 -->
<g id="edge38" class="edge">
<title>Node1&#45;&gt;Node4</title>
<path fill="none" stroke="#63b8ff" d="M373.81,-274.86C411.66,-259.17 466.01,-229.84 490.5,-184 497.8,-170.33 497.08,-152.51 494.95,-139.24"/>
<polygon fill="#63b8ff" stroke="#63b8ff" points="498.36,-138.46 492.97,-129.34 491.5,-139.83 498.36,-138.46"/>
</g>
<!-- Node14 -->
<g id="node14" class="node">
<title>Node14</title>
<g id="a_node14"><a xlink:href="../../de/d2b/docnode_8h.html" target="_top" xlink:title=" ">
<polygon fill="white" stroke="#666666" points="302,-239 235,-239 235,-220 302,-220 302,-239"/>
<text text-anchor="middle" x="268.5" y="-227" font-family="Helvetica,sans-Serif" font-size="10.00">docnode.h</text>
</a>
</g>
</g>
<!-- Node1&#45;&gt;Node14 -->
<g id="edge15" class="edge">
<title>Node1&#45;&gt;Node14</title>
<path fill="none" stroke="#63b8ff" d="M317.76,-274.84C308.14,-266.17 295.8,-255.08 285.89,-246.15"/>
<polygon fill="#63b8ff" stroke="#63b8ff" points="288.01,-243.35 278.24,-239.27 283.33,-248.56 288.01,-243.35"/>
</g>
<!-- Node3 -->
<g id="node3" class="node">
<title>Node3</title>
<g id="a_node3"><a xlink:title=" ">
<polygon fill="#e0e0e0" stroke="#999999" points="120.5,-74 62.5,-74 62.5,-55 120.5,-55 120.5,-74"/>
<text text-anchor="middle" x="91.5" y="-62" font-family="Helvetica,sans-Serif" font-size="10.00">memory</text>
</a>
</g>
</g>
<!-- Node2&#45;&gt;Node3 -->
<g id="edge2" class="edge">
<title>Node2&#45;&gt;Node3</title>
<path fill="none" stroke="#63b8ff" d="M318.39,-164.86C295.63,-152.01 251,-127.52 211.5,-110 183.65,-97.65 151.21,-85.76 127.08,-77.39"/>
<polygon fill="#63b8ff" stroke="#63b8ff" points="128.22,-74.07 117.62,-74.13 125.94,-80.69 128.22,-74.07"/>
</g>
<!-- Node2&#45;&gt;Node4 -->
<g id="edge3" class="edge">
<title>Node2&#45;&gt;Node4</title>
<path fill="none" stroke="#63b8ff" d="M358.72,-164.98C384.85,-156.16 425.9,-142.31 455.23,-132.41"/>
<polygon fill="#63b8ff" stroke="#63b8ff" points="456.72,-135.6 465.08,-129.08 454.48,-128.96 456.72,-135.6"/>
</g>
<!-- Node5 -->
<g id="node5" class="node">
<title>Node5</title>
<g id="a_node5"><a xlink:title=" ">
<polygon fill="#e0e0e0" stroke="#999999" points="834.5,-19 790.5,-19 790.5,0 834.5,0 834.5,-19"/>
<text text-anchor="middle" x="812.5" y="-7" font-family="Helvetica,sans-Serif" font-size="10.00">string</text>
</a>
</g>
</g>
<!-- Node4&#45;&gt;Node5 -->
<g id="edge4" class="edge">
<title>Node4&#45;&gt;Node5</title>
<path fill="none" stroke="#63b8ff" d="M523.16,-112.69C528.61,-111.76 534.21,-110.83 539.5,-110 595.81,-101.13 750.28,-111.18 793.5,-74 806.3,-62.99 810.67,-43.73 812.07,-29.3"/>
<polygon fill="#63b8ff" stroke="#63b8ff" points="815.58,-29.2 812.65,-19.02 808.59,-28.8 815.58,-29.2"/>
</g>
<!-- Node6 -->
<g id="node6" class="node">
<title>Node6</title>
<g id="a_node6"><a xlink:title=" ">
<polygon fill="#e0e0e0" stroke="#999999" points="648.5,-74 584.5,-74 584.5,-55 648.5,-55 648.5,-74"/>
<text text-anchor="middle" x="616.5" y="-62" font-family="Helvetica,sans-Serif" font-size="10.00">algorithm</text>
</a>
</g>
</g>
<!-- Node4&#45;&gt;Node6 -->
<g id="edge5" class="edge">
<title>Node4&#45;&gt;Node6</title>
<path fill="none" stroke="#63b8ff" d="M510.74,-109.98C531.19,-101.38 563.03,-87.99 586.43,-78.15"/>
<polygon fill="#63b8ff" stroke="#63b8ff" points="588.03,-81.27 595.89,-74.17 585.31,-74.82 588.03,-81.27"/>
</g>
<!-- Node7 -->
<g id="node7" class="node">
<title>Node7</title>
<g id="a_node7"><a xlink:title=" ">
<polygon fill="#e0e0e0" stroke="#999999" points="716,-74 667,-74 667,-55 716,-55 716,-74"/>
<text text-anchor="middle" x="691.5" y="-62" font-family="Helvetica,sans-Serif" font-size="10.00">cctype</text>
</a>
</g>
</g>
<!-- Node4&#45;&gt;Node7 -->
<g id="edge6" class="edge">
<title>Node4&#45;&gt;Node7</title>
<path fill="none" stroke="#63b8ff" d="M522.79,-109.98C559.51,-100.3 619.23,-84.56 656.89,-74.63"/>
<polygon fill="#63b8ff" stroke="#63b8ff" points="658.11,-77.92 666.89,-71.99 656.32,-71.16 658.11,-77.92"/>
</g>
<!-- Node8 -->
<g id="node8" class="node">
<title>Node8</title>
<g id="a_node8"><a xlink:title=" ">
<polygon fill="#e0e0e0" stroke="#999999" points="784.5,-74 734.5,-74 734.5,-55 784.5,-55 784.5,-74"/>
<text text-anchor="middle" x="759.5" y="-62" font-family="Helvetica,sans-Serif" font-size="10.00">cstring</text>
</a>
</g>
</g>
<!-- Node4&#45;&gt;Node8 -->
<g id="edge7" class="edge">
<title>Node4&#45;&gt;Node8</title>
<path fill="none" stroke="#63b8ff" d="M523.36,-112.52C574.95,-103.09 673.56,-84.91 724.47,-74.1"/>
<polygon fill="#63b8ff" stroke="#63b8ff" points="725.25,-77.51 734.29,-71.98 723.77,-70.67 725.25,-77.51"/>
</g>
<!-- Node9 -->
<g id="node9" class="node">
<title>Node9</title>
<g id="a_node9"><a xlink:title=" ">
<polygon fill="#e0e0e0" stroke="#999999" points="321.5,-74 275.5,-74 275.5,-55 321.5,-55 321.5,-74"/>
<text text-anchor="middle" x="298.5" y="-62" font-family="Helvetica,sans-Serif" font-size="10.00">cstdio</text>
</a>
</g>
</g>
<!-- Node4&#45;&gt;Node9 -->
<g id="edge8" class="edge">
<title>Node4&#45;&gt;Node9</title>
<path fill="none" stroke="#63b8ff" d="M459.65,-109.98C424.63,-100.32 367.7,-84.6 331.72,-74.67"/>
<polygon fill="#63b8ff" stroke="#63b8ff" points="332.29,-71.2 321.72,-71.91 330.43,-77.95 332.29,-71.2"/>
</g>
<!-- Node10 -->
<g id="node10" class="node">
<title>Node10</title>
<g id="a_node10"><a xlink:title=" ">
<polygon fill="#e0e0e0" stroke="#999999" points="389,-74 340,-74 340,-55 389,-55 389,-74"/>
<text text-anchor="middle" x="364.5" y="-62" font-family="Helvetica,sans-Serif" font-size="10.00">cstdlib</text>
</a>
</g>
</g>
<!-- Node4&#45;&gt;Node10 -->
<g id="edge9" class="edge">
<title>Node4&#45;&gt;Node10</title>
<path fill="none" stroke="#63b8ff" d="M470.25,-109.98C449.8,-101.38 417.97,-87.99 394.57,-78.15"/>
<polygon fill="#63b8ff" stroke="#63b8ff" points="395.69,-74.82 385.11,-74.17 392.97,-81.27 395.69,-74.82"/>
</g>
<!-- Node11 -->
<g id="node11" class="node">
<title>Node11</title>
<g id="a_node11"><a xlink:title=" ">
<polygon fill="#e0e0e0" stroke="#999999" points="505.5,-19 455.5,-19 455.5,0 505.5,0 505.5,-19"/>
<text text-anchor="middle" x="480.5" y="-7" font-family="Helvetica,sans-Serif" font-size="10.00">cstdint</text>
</a>
</g>
</g>
<!-- Node4&#45;&gt;Node11 -->
<g id="edge10" class="edge">
<title>Node4&#45;&gt;Node11</title>
<path fill="none" stroke="#63b8ff" d="M473.91,-109.87C461.33,-102.3 444.96,-90.01 437.5,-74 429.15,-56.08 444.95,-37.58 459.7,-25.21"/>
<polygon fill="#63b8ff" stroke="#63b8ff" points="461.91,-27.93 467.62,-19.01 457.59,-22.41 461.91,-27.93"/>
</g>
<!-- Node12 -->
<g id="node12" class="node">
<title>Node12</title>
<g id="a_node12"><a xlink:title=" ">
<polygon fill="#e0e0e0" stroke="#999999" points="503,-74 446,-74 446,-55 503,-55 503,-74"/>
<text text-anchor="middle" x="474.5" y="-62" font-family="Helvetica,sans-Serif" font-size="10.00">ostream</text>
</a>
</g>
</g>
<!-- Node4&#45;&gt;Node12 -->
<g id="edge11" class="edge">
<title>Node4&#45;&gt;Node12</title>
<path fill="none" stroke="#63b8ff" d="M487.86,-109.75C485.74,-102.72 482.69,-92.62 480.04,-83.84"/>
<polygon fill="#63b8ff" stroke="#63b8ff" points="483.33,-82.65 477.09,-74.09 476.63,-84.67 483.33,-82.65"/>
</g>
<!-- Node13 -->
<g id="node13" class="node">
<title>Node13</title>
<g id="a_node13"><a xlink:href="../../db/d7c/utf8_8h.html" target="_top" xlink:title="Various UTF8 related helper functions.">
<polygon fill="white" stroke="#666666" points="566,-74 521,-74 521,-55 566,-55 566,-74"/>
<text text-anchor="middle" x="543.5" y="-62" font-family="Helvetica,sans-Serif" font-size="10.00">utf8.h</text>
</a>
</g>
</g>
<!-- Node4&#45;&gt;Node13 -->
<g id="edge12" class="edge">
<title>Node4&#45;&gt;Node13</title>
<path fill="none" stroke="#63b8ff" d="M499.25,-109.75C506.97,-102.03 518.4,-90.6 527.71,-81.28"/>
<polygon fill="#63b8ff" stroke="#63b8ff" points="530.31,-83.64 534.91,-74.09 525.36,-78.69 530.31,-83.64"/>
</g>
<!-- Node13&#45;&gt;Node5 -->
<g id="edge14" class="edge">
<title>Node13&#45;&gt;Node5</title>
<path fill="none" stroke="#63b8ff" d="M566.17,-57.26C569.3,-56.46 572.47,-55.69 575.5,-55 648.42,-38.49 734.94,-23.36 780.59,-15.72"/>
<polygon fill="#63b8ff" stroke="#63b8ff" points="781.2,-19.16 790.49,-14.07 780.06,-12.26 781.2,-19.16"/>
</g>
<!-- Node13&#45;&gt;Node11 -->
<g id="edge13" class="edge">
<title>Node13&#45;&gt;Node11</title>
<path fill="none" stroke="#63b8ff" d="M533.38,-54.98C524.06,-47.15 510.03,-35.34 498.76,-25.86"/>
<polygon fill="#63b8ff" stroke="#63b8ff" points="500.71,-22.93 490.8,-19.17 496.2,-28.29 500.71,-22.93"/>
</g>
<!-- Node14&#45;&gt;Node2 -->
<g id="edge21" class="edge">
<title>Node14&#45;&gt;Node2</title>
<path fill="none" stroke="#63b8ff" d="M278.94,-219.98C288.64,-212.07 303.31,-200.11 315,-190.58"/>
<polygon fill="#63b8ff" stroke="#63b8ff" points="317.33,-193.2 322.86,-184.17 312.9,-187.78 317.33,-193.2"/>
</g>
<!-- Node14&#45;&gt;Node3 -->
<g id="edge18" class="edge">
<title>Node14&#45;&gt;Node3</title>
<path fill="none" stroke="#63b8ff" d="M234.64,-225.61C178.07,-220.19 67.48,-206.95 36.5,-184 8.11,-162.97 -10.72,-140.26 7.5,-110 17.39,-93.57 35.6,-82.89 52.55,-76.12"/>
<polygon fill="#63b8ff" stroke="#63b8ff" points="54.11,-79.28 62.31,-72.57 51.72,-72.7 54.11,-79.28"/>
</g>
<!-- Node14&#45;&gt;Node4 -->
<g id="edge20" class="edge">
<title>Node14&#45;&gt;Node4</title>
<path fill="none" stroke="#63b8ff" d="M302.28,-225.23C353.45,-219.62 447.23,-206.51 471.5,-184 483.75,-172.64 488.21,-153.74 489.78,-139.51"/>
<polygon fill="#63b8ff" stroke="#63b8ff" points="493.29,-139.55 490.52,-129.33 486.31,-139.05 493.29,-139.55"/>
</g>
<!-- Node15 -->
<g id="node15" class="node">
<title>Node15</title>
<g id="a_node15"><a xlink:title=" ">
<polygon fill="#e0e0e0" stroke="#999999" points="66.5,-129 16.5,-129 16.5,-110 66.5,-110 66.5,-129"/>
<text text-anchor="middle" x="41.5" y="-117" font-family="Helvetica,sans-Serif" font-size="10.00">stdio.h</text>
</a>
</g>
</g>
<!-- Node14&#45;&gt;Node15 -->
<g id="edge16" class="edge">
<title>Node14&#45;&gt;Node15</title>
<path fill="none" stroke="#63b8ff" d="M234.72,-226.34C179.65,-222.08 74.17,-210.6 49.5,-184 38.53,-172.17 37.43,-153.34 38.53,-139.24"/>
<polygon fill="#63b8ff" stroke="#63b8ff" points="42.02,-139.53 39.74,-129.19 35.07,-138.7 42.02,-139.53"/>
</g>
<!-- Node16 -->
<g id="node16" class="node">
<title>Node16</title>
<g id="a_node16"><a xlink:title=" ">
<polygon fill="#e0e0e0" stroke="#999999" points="257,-74 210,-74 210,-55 257,-55 257,-74"/>
<text text-anchor="middle" x="233.5" y="-62" font-family="Helvetica,sans-Serif" font-size="10.00">vector</text>
</a>
</g>
</g>
<!-- Node14&#45;&gt;Node16 -->
<g id="edge17" class="edge">
<title>Node14&#45;&gt;Node16</title>
<path fill="none" stroke="#63b8ff" d="M266.62,-219.74C261.13,-194.2 245.08,-119.43 237.52,-84.23"/>
<polygon fill="#63b8ff" stroke="#63b8ff" points="240.91,-83.35 235.39,-74.31 234.07,-84.82 240.91,-83.35"/>
</g>
<!-- Node17 -->
<g id="node17" class="node">
<title>Node17</title>
<g id="a_node17"><a xlink:title=" ">
<polygon fill="#e0e0e0" stroke="#999999" points="240,-184 189,-184 189,-165 240,-165 240,-184"/>
<text text-anchor="middle" x="214.5" y="-172" font-family="Helvetica,sans-Serif" font-size="10.00">variant</text>
</a>
</g>
</g>
<!-- Node14&#45;&gt;Node17 -->
<g id="edge19" class="edge">
<title>Node14&#45;&gt;Node17</title>
<path fill="none" stroke="#63b8ff" d="M259.58,-219.75C251.72,-212.03 240.07,-200.6 230.58,-191.28"/>
<polygon fill="#63b8ff" stroke="#63b8ff" points="232.84,-188.6 223.25,-184.09 227.93,-193.59 232.84,-188.6"/>
</g>
<!-- Node18 -->
<g id="node18" class="node">
<title>Node18</title>
<g id="a_node18"><a xlink:href="../../de/d9c/docparser_8h.html" target="_top" xlink:title=" ">
<polygon fill="white" stroke="#666666" points="132,-184 59,-184 59,-165 132,-165 132,-184"/>
<text text-anchor="middle" x="95.5" y="-172" font-family="Helvetica,sans-Serif" font-size="10.00">docparser.h</text>
</a>
</g>
</g>
<!-- Node14&#45;&gt;Node18 -->
<g id="edge22" class="edge">
<title>Node14&#45;&gt;Node18</title>
<path fill="none" stroke="#63b8ff" d="M240.7,-219.98C211.53,-211.05 165.5,-196.94 133.1,-187.02"/>
<polygon fill="#63b8ff" stroke="#63b8ff" points="134.1,-183.66 123.51,-184.08 132.05,-190.36 134.1,-183.66"/>
</g>
<!-- Node19 -->
<g id="node19" class="node">
<title>Node19</title>
<g id="a_node19"><a xlink:href="../../d7/d50/growvector_8h.html" target="_top" xlink:title=" ">
<polygon fill="white" stroke="#666666" points="202.5,-129 122.5,-129 122.5,-110 202.5,-110 202.5,-129"/>
<text text-anchor="middle" x="162.5" y="-117" font-family="Helvetica,sans-Serif" font-size="10.00">growvector.h</text>
</a>
</g>
</g>
<!-- Node14&#45;&gt;Node19 -->
<g id="edge37" class="edge">
<title>Node14&#45;&gt;Node19</title>
<path fill="none" stroke="#63b8ff" d="M236.66,-219.88C217.48,-213.12 194.02,-201.8 179.5,-184 169.24,-171.43 165.13,-153.23 163.51,-139.54"/>
<polygon fill="#63b8ff" stroke="#63b8ff" points="166.97,-138.99 162.65,-129.32 160,-139.57 166.97,-138.99"/>
</g>
<!-- Node21 -->
<g id="node21" class="node">
<title>Node21</title>
<g id="a_node21"><a xlink:href="../../d0/d73/htmlattrib_8h.html" target="_top" xlink:title=" ">
<polygon fill="white" stroke="#666666" points="462.5,-184 388.5,-184 388.5,-165 462.5,-165 462.5,-184"/>
<text text-anchor="middle" x="425.5" y="-172" font-family="Helvetica,sans-Serif" font-size="10.00">htmlattrib.h</text>
</a>
</g>
</g>
<!-- Node14&#45;&gt;Node21 -->
<g id="edge30" class="edge">
<title>Node14&#45;&gt;Node21</title>
<path fill="none" stroke="#63b8ff" d="M293.72,-219.98C319.85,-211.16 360.9,-197.31 390.23,-187.41"/>
<polygon fill="#63b8ff" stroke="#63b8ff" points="391.72,-190.6 400.08,-184.08 389.48,-183.96 391.72,-190.6"/>
</g>
<!-- Node22 -->
<g id="node22" class="node">
<title>Node22</title>
<g id="a_node22"><a xlink:href="../../db/dc6/htmlentity_8h.html" target="_top" xlink:title=" ">
<polygon fill="white" stroke="#666666" points="632,-184 557,-184 557,-165 632,-165 632,-184"/>
<text text-anchor="middle" x="594.5" y="-172" font-family="Helvetica,sans-Serif" font-size="10.00">htmlentity.h</text>
</a>
</g>
</g>
<!-- Node14&#45;&gt;Node22 -->
<g id="edge33" class="edge">
<title>Node14&#45;&gt;Node22</title>
<path fill="none" stroke="#63b8ff" d="M302.16,-223.03C360.3,-213.58 479.71,-194.16 546.52,-183.3"/>
<polygon fill="#63b8ff" stroke="#63b8ff" points="547.47,-186.69 556.78,-181.63 546.35,-179.78 547.47,-186.69"/>
</g>
<!-- Node18&#45;&gt;Node3 -->
<g id="edge24" class="edge">
<title>Node18&#45;&gt;Node3</title>
<path fill="none" stroke="#63b8ff" d="M95.17,-164.66C94.52,-147.17 93.07,-107.8 92.19,-84.27"/>
<polygon fill="#63b8ff" stroke="#63b8ff" points="95.69,-84.02 91.82,-74.16 88.69,-84.28 95.69,-84.02"/>
</g>
<!-- Node18&#45;&gt;Node4 -->
<g id="edge25" class="edge">
<title>Node18&#45;&gt;Node4</title>
<path fill="none" stroke="#63b8ff" d="M132.3,-168.56C205.71,-158.71 369.95,-136.67 447.89,-126.22"/>
<polygon fill="#63b8ff" stroke="#63b8ff" points="448.4,-129.68 457.85,-124.88 447.47,-122.74 448.4,-129.68"/>
</g>
<!-- Node18&#45;&gt;Node15 -->
<g id="edge23" class="edge">
<title>Node18&#45;&gt;Node15</title>
<path fill="none" stroke="#63b8ff" d="M86.58,-164.75C78.72,-157.03 67.07,-145.6 57.58,-136.28"/>
<polygon fill="#63b8ff" stroke="#63b8ff" points="59.84,-133.6 50.25,-129.09 54.93,-138.59 59.84,-133.6"/>
</g>
<!-- Node18&#45;&gt;Node19 -->
<g id="edge26" class="edge">
<title>Node18&#45;&gt;Node19</title>
<path fill="none" stroke="#63b8ff" d="M106.26,-164.98C116.26,-157.07 131.38,-145.11 143.43,-135.58"/>
<polygon fill="#63b8ff" stroke="#63b8ff" points="145.87,-138.12 151.54,-129.17 141.52,-132.63 145.87,-138.12"/>
</g>
<!-- Node19&#45;&gt;Node3 -->
<g id="edge28" class="edge">
<title>Node19&#45;&gt;Node3</title>
<path fill="none" stroke="#63b8ff" d="M151.09,-109.98C140.39,-102 124.16,-89.88 111.34,-80.31"/>
<polygon fill="#63b8ff" stroke="#63b8ff" points="113.22,-77.35 103.11,-74.17 109.03,-82.96 113.22,-77.35"/>
</g>
<!-- Node19&#45;&gt;Node16 -->
<g id="edge27" class="edge">
<title>Node19&#45;&gt;Node16</title>
<path fill="none" stroke="#63b8ff" d="M173.91,-109.98C184.61,-102 200.84,-89.88 213.66,-80.31"/>
<polygon fill="#63b8ff" stroke="#63b8ff" points="215.96,-82.96 221.88,-74.17 211.78,-77.35 215.96,-82.96"/>
</g>
<!-- Node20 -->
<g id="node20" class="node">
<title>Node20</title>
<g id="a_node20"><a xlink:title=" ">
<polygon fill="#e0e0e0" stroke="#999999" points="192,-74 139,-74 139,-55 192,-55 192,-74"/>
<text text-anchor="middle" x="165.5" y="-62" font-family="Helvetica,sans-Serif" font-size="10.00">iterator</text>
</a>
</g>
</g>
<!-- Node19&#45;&gt;Node20 -->
<g id="edge29" class="edge">
<title>Node19&#45;&gt;Node20</title>
<path fill="none" stroke="#63b8ff" d="M162.99,-109.75C163.39,-102.8 163.95,-92.85 164.44,-84.13"/>
<polygon fill="#63b8ff" stroke="#63b8ff" points="167.94,-84.27 165.01,-74.09 160.95,-83.88 167.94,-84.27"/>
</g>
<!-- Node21&#45;&gt;Node4 -->
<g id="edge32" class="edge">
<title>Node21&#45;&gt;Node4</title>
<path fill="none" stroke="#63b8ff" d="M435.94,-164.98C445.64,-157.07 460.31,-145.11 472,-135.58"/>
<polygon fill="#63b8ff" stroke="#63b8ff" points="474.33,-138.2 479.86,-129.17 469.9,-132.78 474.33,-138.2"/>
</g>
<!-- Node21&#45;&gt;Node16 -->
<g id="edge31" class="edge">
<title>Node21&#45;&gt;Node16</title>
<path fill="none" stroke="#63b8ff" d="M410.11,-164.84C376.75,-146.08 297.54,-101.52 257.52,-79.01"/>
<polygon fill="#63b8ff" stroke="#63b8ff" points="259.12,-75.9 248.69,-74.05 255.69,-82 259.12,-75.9"/>
</g>
<!-- Node22&#45;&gt;Node4 -->
<g id="edge36" class="edge">
<title>Node22&#45;&gt;Node4</title>
<path fill="none" stroke="#63b8ff" d="M577.79,-164.98C561.28,-156.57 535.8,-143.59 516.62,-133.81"/>
<polygon fill="#63b8ff" stroke="#63b8ff" points="518.01,-130.59 507.51,-129.17 514.83,-136.83 518.01,-130.59"/>
</g>
<!-- Node22&#45;&gt;Node5 -->
<g id="edge35" class="edge">
<title>Node22&#45;&gt;Node5</title>
<path fill="none" stroke="#63b8ff" d="M632.32,-168.75C683.6,-160.05 773.36,-136.32 813.5,-74 821.99,-60.82 820.74,-42.69 817.95,-29.18"/>
<polygon fill="#63b8ff" stroke="#63b8ff" points="821.25,-27.97 815.42,-19.12 814.46,-29.67 821.25,-27.97"/>
</g>
<!-- Node23 -->
<g id="node23" class="node">
<title>Node23</title>
<g id="a_node23"><a xlink:title=" ">
<polygon fill="#e0e0e0" stroke="#999999" points="641,-129 548,-129 548,-110 641,-110 641,-129"/>
<text text-anchor="middle" x="594.5" y="-117" font-family="Helvetica,sans-Serif" font-size="10.00">unordered_map</text>
</a>
</g>
</g>
<!-- Node22&#45;&gt;Node23 -->
<g id="edge34" class="edge">
<title>Node22&#45;&gt;Node23</title>
<path fill="none" stroke="#63b8ff" d="M594.5,-164.75C594.5,-157.8 594.5,-147.85 594.5,-139.13"/>
<polygon fill="#63b8ff" stroke="#63b8ff" points="598,-139.09 594.5,-129.09 591,-139.09 598,-139.09"/>
</g>
</g>
</svg>
        <g id="navigator" transform="translate(0 0)" fill="#404254">
                <rect fill="#f2f5e9" fill-opacity="0.5" stroke="#606060" stroke-width=".5" x="0" y="0" width="60" height="60"/>
                <use id="zoomplus" xlink:href="#zoomPlus" x="17" y="9" onmousedown="handleZoom(evt,'in')"/>
                <use id="zoomminus" xlink:href="#zoomMin" x="42" y="9" onmousedown="handleZoom(evt,'out')"/>
                <use id="reset" xlink:href="#resetDef" x="30" y="36" onmousedown="handleReset()"/>
                <g id="arrowUp" xlink:href="#dirArrow" transform="translate(30 24)" onmousedown="handlePan(0,-1)">
                  <use xlink:href="#rim" fill="#404040">
                        <set attributeName="fill" to="#808080" begin="arrowUp.mouseover" end="arrowUp.mouseout"/>
                  </use>
                  <path fill="none" stroke="white" stroke-width="1.5" d="M0,-3.0v7 M-2.5,-0.5L0,-3.0L2.5,-0.5"/>
                </g>
                <g id="arrowRight" xlink:href="#dirArrow" transform="rotate(90) translate(36 -43)" onmousedown="handlePan(1,0)">
                  <use xlink:href="#rim" fill="#404040">
                        <set attributeName="fill" to="#808080" begin="arrowRight.mouseover" end="arrowRight.mouseout"/>
                  </use>
                  <path fill="none" stroke="white" stroke-width="1.5" d="M0,-3.0v7 M-2.5,-0.5L0,-3.0L2.5,-0.5"/>
                </g>
                <g id="arrowDown" xlink:href="#dirArrow" transform="rotate(180) translate(-30 -48)" onmousedown="handlePan(0,1)">
                  <use xlink:href="#rim" fill="#404040">
                        <set attributeName="fill" to="#808080" begin="arrowDown.mouseover" end="arrowDown.mouseout"/>
                  </use>
                  <path fill="none" stroke="white" stroke-width="1.5" d="M0,-3.0v7 M-2.5,-0.5L0,-3.0L2.5,-0.5"/>
                </g>
                <g id="arrowLeft" xlink:href="#dirArrow" transform="rotate(270) translate(-36 17)" onmousedown="handlePan(-1,0)">
                  <use xlink:href="#rim" fill="#404040">
                        <set attributeName="fill" to="#808080" begin="arrowLeft.mouseover" end="arrowLeft.mouseout"/>
                  </use>
                  <path fill="none" stroke="white" stroke-width="1.5" d="M0,-3.0v7 M-2.5,-0.5L0,-3.0L2.5,-0.5"/>
                </g>
        </g>
        <svg viewBox="0 0 15 15" width="100%" height="30px" preserveAspectRatio="xMaxYMin meet">
         <g id="arrow_out" transform="scale(0.3 0.3)">
          <a xlink:href="htmldocvisitor_8h__incl_org.svg" target="_base">
           <rect id="button" ry="5" rx="5" y="6" x="6" height="38" width="38"
                fill="#f2f5e9" fill-opacity="0.5" stroke="#606060" stroke-width="1.0"/>
           <path id="arrow"
             d="M 11.500037,31.436501 C 11.940474,20.09759 22.043105,11.32322 32.158766,21.979434 L 37.068811,17.246167 C 37.068811,17.246167 37.088388,32 37.088388,32 L 22.160133,31.978069 C 22.160133,31.978069 26.997745,27.140456 26.997745,27.140456 C 18.528582,18.264221 13.291696,25.230495 11.500037,31.436501 z"
             style="fill:#404040;"/>
          </a>
         </g>
        </svg>
</svg>
