<?xml version="1.0" encoding="UTF-8" standalone="no"?>
<!DOCTYPE svg PUBLIC "-//W3C//DTD SVG 1.1//EN"
 "http://www.w3.org/Graphics/SVG/1.1/DTD/svg11.dtd">
<!-- Generated by graphviz version 2.43.0 (0)
 -->
<!-- Title: HtmlDocVisitor Pages: 1 -->
<svg width="435pt" height="93pt"
 viewBox="0.00 0.00 435.00 93.00" xmlns="http://www.w3.org/2000/svg" xmlns:xlink="http://www.w3.org/1999/xlink">
<g id="graph0" class="graph" transform="scale(1 1) rotate(0) translate(4 89)">
<title>HtmlDocVisitor</title>
<!-- Node1 -->
<g id="node1" class="node">
<title>Node1</title>
<g id="a_node1"><a xlink:title="Concrete visitor implementation for HTML output.">
<polygon fill="#999999" stroke="#666666" points="267,-19 176,-19 176,0 267,0 267,-19"/>
<text text-anchor="middle" x="221.5" y="-7" font-family="Helvetica,sans-Serif" font-size="10.00">HtmlDocVisitor</text>
</a>
</g>
</g>
<!-- Node2 -->
<g id="node2" class="node">
<title>Node2</title>
<g id="a_node2"><a xlink:href="../../d0/d78/class_doc_visitor.html" target="_top" xlink:title="Helper base class for functionality shared by all visitors.">
<polygon fill="white" stroke="#666666" points="67,-85 0,-85 0,-66 67,-66 67,-85"/>
<text text-anchor="middle" x="33.5" y="-73" font-family="Helvetica,sans-Serif" font-size="10.00">DocVisitor</text>
</a>
</g>
</g>
<!-- Node2&#45;&gt;Node1 -->
<g id="edge1" class="edge">
<title>Node2&#45;&gt;Node1</title>
<path fill="none" stroke="#63b8ff" d="M68.75,-62.5C105.87,-49.86 163.41,-30.28 196.25,-19.1"/>
<polygon fill="#63b8ff" stroke="#63b8ff" points="67.19,-59.33 58.85,-65.87 69.45,-65.96 67.19,-59.33"/>
</g>
<!-- Node3 -->
<g id="node3" class="node">
<title>Node3</title>
<g id="a_node3"><a xlink:href="../../d3/d30/class_text_stream.html" target="_top" xlink:title="Text streaming class that buffers data.">
<polygon fill="white" stroke="#666666" points="157.5,-85 85.5,-85 85.5,-66 157.5,-66 157.5,-85"/>
<text text-anchor="middle" x="121.5" y="-73" font-family="Helvetica,sans-Serif" font-size="10.00">TextStream</text>
</a>
</g>
</g>
<!-- Node3&#45;&gt;Node1 -->
<g id="edge2" class="edge">
<title>Node3&#45;&gt;Node1</title>
<path fill="none" stroke="#9a32cd" stroke-dasharray="5,2" d="M143.61,-60.35C163.27,-47.77 191.38,-29.78 207.91,-19.2"/>
<polygon fill="#9a32cd" stroke="#9a32cd" points="141.52,-57.53 134.99,-65.87 145.3,-63.43 141.52,-57.53"/>
<text text-anchor="middle" x="188.5" y="-40" font-family="Helvetica,sans-Serif" font-size="10.00" fill="grey"> m_t</text>
</g>
<!-- Node4 -->
<g id="node4" class="node">
<title>Node4</title>
<g id="a_node4"><a xlink:href="../../db/d8e/class_output_code_list.html" target="_top" xlink:title="Class representing a list of different code generators.">
<polygon fill="white" stroke="#666666" points="267.5,-85 175.5,-85 175.5,-66 267.5,-66 267.5,-85"/>
<text text-anchor="middle" x="221.5" y="-73" font-family="Helvetica,sans-Serif" font-size="10.00">OutputCodeList</text>
</a>
</g>
</g>
<!-- Node4&#45;&gt;Node1 -->
<g id="edge3" class="edge">
<title>Node4&#45;&gt;Node1</title>
<path fill="none" stroke="#9a32cd" stroke-dasharray="5,2" d="M221.5,-55.58C221.5,-43.63 221.5,-28.72 221.5,-19.41"/>
<polygon fill="#9a32cd" stroke="#9a32cd" points="218,-55.87 221.5,-65.87 225,-55.87 218,-55.87"/>
<text text-anchor="middle" x="235" y="-40" font-family="Helvetica,sans-Serif" font-size="10.00" fill="grey"> m_ci</text>
</g>
<!-- Node5 -->
<g id="node5" class="node">
<title>Node5</title>
<g id="a_node5"><a xlink:href="../../d5/dcc/class_definition.html" target="_top" xlink:title="The common base class of all entity definitions found in the sources.">
<polygon fill="white" stroke="#666666" points="349.5,-85 285.5,-85 285.5,-66 349.5,-66 349.5,-85"/>
<text text-anchor="middle" x="317.5" y="-73" font-family="Helvetica,sans-Serif" font-size="10.00">Definition</text>
</a>
</g>
</g>
<!-- Node5&#45;&gt;Node1 -->
<g id="edge4" class="edge">
<title>Node5&#45;&gt;Node1</title>
<path fill="none" stroke="#9a32cd" stroke-dasharray="5,2" d="M296.02,-60.18C277.16,-47.61 250.34,-29.73 234.55,-19.2"/>
<polygon fill="#9a32cd" stroke="#9a32cd" points="294.29,-63.23 304.55,-65.87 298.17,-57.41 294.29,-63.23"/>
<text text-anchor="middle" x="291.5" y="-40" font-family="Helvetica,sans-Serif" font-size="10.00" fill="grey"> m_ctx</text>
</g>
<!-- Node6 -->
<g id="node6" class="node">
<title>Node6</title>
<g id="a_node6"><a xlink:href="../../d9/d45/class_q_c_string.html" target="_top" xlink:title="This is an alternative implementation of QCString.">
<polygon fill="white" stroke="#666666" points="427,-85 368,-85 368,-66 427,-66 427,-85"/>
<text text-anchor="middle" x="397.5" y="-73" font-family="Helvetica,sans-Serif" font-size="10.00">QCString</text>
</a>
</g>
</g>
<!-- Node6&#45;&gt;Node1 -->
<g id="edge5" class="edge">
<title>Node6&#45;&gt;Node1</title>
<path fill="none" stroke="#9a32cd" stroke-dasharray="5,2" d="M370.79,-61.63C354.23,-53.92 332.39,-44.25 312.5,-37 293.64,-30.13 272.09,-23.79 254.69,-19.03"/>
<polygon fill="#9a32cd" stroke="#9a32cd" points="369.33,-64.81 379.87,-65.9 372.31,-58.48 369.33,-64.81"/>
<text text-anchor="middle" x="366" y="-40" font-family="Helvetica,sans-Serif" font-size="10.00" fill="grey"> m_langExt</text>
</g>
</g>
</svg>
