<?xml version="1.0" encoding="UTF-8" standalone="no"?>
<!DOCTYPE svg PUBLIC "-//W3C//DTD SVG 1.1//EN"
 "http://www.w3.org/Graphics/SVG/1.1/DTD/svg11.dtd">
<!-- Generated by graphviz version 2.43.0 (0)
 -->
<!-- Title: TextGeneratorOLImpl Pages: 1 -->
<svg width="264pt" height="149pt"
 viewBox="0.00 0.00 264.00 149.00" xmlns="http://www.w3.org/2000/svg" xmlns:xlink="http://www.w3.org/1999/xlink">
<g id="graph0" class="graph" transform="scale(1 1) rotate(0) translate(4 145)">
<title>TextGeneratorOLImpl</title>
<!-- Node1 -->
<g id="node1" class="node">
<title>Node1</title>
<g id="a_node1"><a xlink:title="Implements TextGeneratorIntf for an OutputDocInterface stream.">
<polygon fill="#999999" stroke="#666666" points="153,-19 33,-19 33,0 153,0 153,-19"/>
<text text-anchor="middle" x="93" y="-7" font-family="Helvetica,sans-Serif" font-size="10.00">TextGeneratorOLImpl</text>
</a>
</g>
</g>
<!-- Node2 -->
<g id="node2" class="node">
<title>Node2</title>
<g id="a_node2"><a xlink:href="../../d0/dcf/class_text_generator_intf.html" target="_top" xlink:title="Abstract interface for a hyperlinked text fragment.">
<polygon fill="white" stroke="#666666" points="102,-85 0,-85 0,-66 102,-66 102,-85"/>
<text text-anchor="middle" x="51" y="-73" font-family="Helvetica,sans-Serif" font-size="10.00">TextGeneratorIntf</text>
</a>
</g>
</g>
<!-- Node2&#45;&gt;Node1 -->
<g id="edge1" class="edge">
<title>Node2&#45;&gt;Node1</title>
<path fill="none" stroke="#63b8ff" d="M62.22,-57.41C70.24,-45.18 80.73,-29.2 87.16,-19.41"/>
<polygon fill="#63b8ff" stroke="#63b8ff" points="59.22,-55.59 56.66,-65.87 65.08,-59.43 59.22,-55.59"/>
</g>
<!-- Node3 -->
<g id="node3" class="node">
<title>Node3</title>
<g id="a_node3"><a xlink:href="../../df/d27/class_base_output_doc_interface.html" target="_top" xlink:title="Base Interface used for generating output outside of the comment blocks.">
<polygon fill="white" stroke="#666666" points="256,-85 120,-85 120,-66 256,-66 256,-85"/>
<text text-anchor="middle" x="188" y="-73" font-family="Helvetica,sans-Serif" font-size="10.00">BaseOutputDocInterface</text>
</a>
</g>
</g>
<!-- Node3&#45;&gt;Node1 -->
<g id="edge2" class="edge">
<title>Node3&#45;&gt;Node1</title>
<path fill="none" stroke="#9a32cd" stroke-dasharray="5,2" d="M166.74,-60.18C148.08,-47.61 121.54,-29.73 105.91,-19.2"/>
<polygon fill="#9a32cd" stroke="#9a32cd" points="164.94,-63.18 175.19,-65.87 168.85,-57.38 164.94,-63.18"/>
<text text-anchor="middle" x="161.5" y="-40" font-family="Helvetica,sans-Serif" font-size="10.00"> m_od</text>
</g>
<!-- Node4 -->
<g id="node4" class="node">
<title>Node4</title>
<g id="a_node4"><a xlink:href="../../d5/d9c/class_code_output_interface.html" target="_top" xlink:title="Output interface for code parser.">
<polygon fill="white" stroke="#666666" points="247,-141 129,-141 129,-122 247,-122 247,-141"/>
<text text-anchor="middle" x="188" y="-129" font-family="Helvetica,sans-Serif" font-size="10.00">CodeOutputInterface</text>
</a>
</g>
</g>
<!-- Node4&#45;&gt;Node3 -->
<g id="edge3" class="edge">
<title>Node4&#45;&gt;Node3</title>
<path fill="none" stroke="#63b8ff" d="M188,-111.3C188,-102.41 188,-92.28 188,-85.25"/>
<polygon fill="#63b8ff" stroke="#63b8ff" points="184.5,-111.58 188,-121.58 191.5,-111.58 184.5,-111.58"/>
</g>
</g>
</svg>
