<?xml version="1.0" encoding="UTF-8" standalone="no"?>
<!DOCTYPE svg PUBLIC "-//W3C//DTD SVG 1.1//EN"
 "http://www.w3.org/Graphics/SVG/1.1/DTD/svg11.dtd">
<!-- Generated by graphviz version 2.43.0 (0)
 -->
<!-- Title: TranslatorAdapter_1_8_0 Pages: 1 -->
<!--zoomable 378 -->
<svg id="main" version="1.1" xmlns="http://www.w3.org/2000/svg" xmlns:xlink="http://www.w3.org/1999/xlink" xml:space="preserve" onload="init(evt)">
<style type="text/css"><![CDATA[
.edge:hover path { stroke: red; }
.edge:hover polygon { stroke: red; fill: red; }
]]></style>
<script type="text/javascript"><![CDATA[
var edges = document.getElementsByTagName('g');
if (edges && edges.length) {
  for (var i=0;i<edges.length;i++) {
    if (edges[i].id.substr(0,4)=='edge') {
      edges[i].setAttribute('class','edge');
    }
  }
}
]]></script>
        <defs>
                <circle id="rim" cx="0" cy="0" r="7"/>
                <circle id="rim2" cx="0" cy="0" r="3.5"/>
                <g id="zoomPlus">
                        <use xlink:href="#rim" fill="#404040">
                                <set attributeName="fill" to="#808080" begin="zoomplus.mouseover" end="zoomplus.mouseout"/>
                        </use>
                        <path d="M-4,0h8M0,-4v8" fill="none" stroke="white" stroke-width="1.5" pointer-events="none"/>
                </g>
                <g id="zoomMin">
                        <use xlink:href="#rim" fill="#404040">
                                <set attributeName="fill" to="#808080" begin="zoomminus.mouseover" end="zoomminus.mouseout"/>
                        </use>
                        <path d="M-4,0h8" fill="none" stroke="white" stroke-width="1.5" pointer-events="none"/>
                </g>
                <g id="dirArrow">
                        <path fill="none" stroke="white" stroke-width="1.5" d="M0,-3.0v7 M-2.5,-0.5L0,-3.0L2.5,-0.5"/>
                </g>
               <g id="resetDef">
                       <use xlink:href="#rim2" fill="#404040">
                               <set attributeName="fill" to="#808080" begin="reset.mouseover" end="reset.mouseout"/>
                       </use>
               </g>
        </defs>

<script type="text/javascript">
var viewWidth = 2304;
var viewHeight = 378;
var sectionId = 'dynsection-0';
</script>
<script xlink:href="../../svgpan.js"/>
<svg id="graph" class="graph">
<g id="viewport">
<title>TranslatorAdapter_1_8_0</title>
<!-- Node1 -->
<g id="node1" class="node">
<title>Node1</title>
<g id="a_node1"><a xlink:title="Adapter class for languages that only contain translations up to version 1.8.0.">
<polygon fill="#999999" stroke="#666666" points="1624,-93 1487,-93 1487,-74 1624,-74 1624,-93"/>
<text text-anchor="middle" x="1555.5" y="-81" font-family="Helvetica,sans-Serif" font-size="10.00">TranslatorAdapter_1_8_0</text>
</a>
</g>
</g>
<!-- Node11 -->
<g id="node11" class="node">
<title>Node11</title>
<g id="a_node11"><a xlink:href="../../da/d24/class_translator_adapter__1__7__5.html" target="_top" xlink:title="Adapter class for languages that only contain translations up to version 1.7.5.">
<polygon fill="white" stroke="#666666" points="1797,-167 1660,-167 1660,-148 1797,-148 1797,-167"/>
<text text-anchor="middle" x="1728.5" y="-155" font-family="Helvetica,sans-Serif" font-size="10.00">TranslatorAdapter_1_7_5</text>
</a>
</g>
</g>
<!-- Node1&#45;&gt;Node11 -->
<g id="edge10" class="edge">
<title>Node1&#45;&gt;Node11</title>
<path fill="none" stroke="#63b8ff" d="M1580.82,-98.34C1601.35,-110.4 1631.83,-127.2 1660,-138.5 1668.93,-142.08 1678.77,-145.26 1688.12,-147.95"/>
<polygon fill="#63b8ff" stroke="#63b8ff" points="1582.51,-95.27 1572.13,-93.17 1578.93,-101.29 1582.51,-95.27"/>
</g>
<!-- Node26 -->
<g id="node26" class="node">
<title>Node26</title>
<g id="a_node26"><a xlink:href="../../da/db8/class_translator_armenian.html" target="_top" xlink:title=" ">
<polygon fill="white" stroke="#666666" points="1784.5,-130 1672.5,-130 1672.5,-111 1784.5,-111 1784.5,-130"/>
<text text-anchor="middle" x="1728.5" y="-118" font-family="Helvetica,sans-Serif" font-size="10.00">TranslatorArmenian</text>
</a>
</g>
</g>
<!-- Node1&#45;&gt;Node26 -->
<g id="edge25" class="edge">
<title>Node1&#45;&gt;Node26</title>
<path fill="none" stroke="#63b8ff" d="M1610.35,-95.15C1633.84,-100.23 1661.04,-106.12 1683.32,-110.94"/>
<polygon fill="#63b8ff" stroke="#63b8ff" points="1611.05,-91.72 1600.54,-93.03 1609.57,-98.56 1611.05,-91.72"/>
</g>
<!-- Node27 -->
<g id="node27" class="node">
<title>Node27</title>
<g id="a_node27"><a xlink:href="../../d9/dc1/class_translator_catalan.html" target="_top" xlink:title=" ">
<polygon fill="white" stroke="#666666" points="1779.5,-93 1677.5,-93 1677.5,-74 1779.5,-74 1779.5,-93"/>
<text text-anchor="middle" x="1728.5" y="-81" font-family="Helvetica,sans-Serif" font-size="10.00">TranslatorCatalan</text>
</a>
</g>
</g>
<!-- Node1&#45;&gt;Node27 -->
<g id="edge26" class="edge">
<title>Node1&#45;&gt;Node27</title>
<path fill="none" stroke="#63b8ff" d="M1634.15,-83.5C1648.8,-83.5 1663.76,-83.5 1677.28,-83.5"/>
<polygon fill="#63b8ff" stroke="#63b8ff" points="1634.08,-80 1624.08,-83.5 1634.08,-87 1634.08,-80"/>
</g>
<!-- Node28 -->
<g id="node28" class="node">
<title>Node28</title>
<g id="a_node28"><a xlink:href="../../d7/d21/class_translator_danish.html" target="_top" xlink:title=" ">
<polygon fill="white" stroke="#666666" points="1777.5,-56 1679.5,-56 1679.5,-37 1777.5,-37 1777.5,-56"/>
<text text-anchor="middle" x="1728.5" y="-44" font-family="Helvetica,sans-Serif" font-size="10.00">TranslatorDanish</text>
</a>
</g>
</g>
<!-- Node1&#45;&gt;Node28 -->
<g id="edge27" class="edge">
<title>Node1&#45;&gt;Node28</title>
<path fill="none" stroke="#63b8ff" d="M1610.35,-71.85C1633.84,-66.77 1661.04,-60.88 1683.32,-56.06"/>
<polygon fill="#63b8ff" stroke="#63b8ff" points="1609.57,-68.44 1600.54,-73.97 1611.05,-75.28 1609.57,-68.44"/>
</g>
<!-- Node29 -->
<g id="node29" class="node">
<title>Node29</title>
<g id="a_node29"><a xlink:href="../../df/dc8/class_translator_indonesian.html" target="_top" xlink:title=" ">
<polygon fill="white" stroke="#666666" points="1787.5,-19 1669.5,-19 1669.5,0 1787.5,0 1787.5,-19"/>
<text text-anchor="middle" x="1728.5" y="-7" font-family="Helvetica,sans-Serif" font-size="10.00">TranslatorIndonesian</text>
</a>
</g>
</g>
<!-- Node1&#45;&gt;Node29 -->
<g id="edge28" class="edge">
<title>Node1&#45;&gt;Node29</title>
<path fill="none" stroke="#63b8ff" d="M1580.03,-68.69C1600.52,-56.3 1631.35,-38.89 1660,-27.5 1668.11,-24.27 1677,-21.44 1685.59,-19.03"/>
<polygon fill="#63b8ff" stroke="#63b8ff" points="1578.08,-65.78 1571.39,-73.99 1581.74,-71.74 1578.08,-65.78"/>
</g>
<!-- Node2 -->
<g id="node2" class="node">
<title>Node2</title>
<g id="a_node2"><a xlink:href="../../d2/d75/class_translator_adapter__1__8__2.html" target="_top" xlink:title=" ">
<polygon fill="white" stroke="#666666" points="1451,-93 1314,-93 1314,-74 1451,-74 1451,-93"/>
<text text-anchor="middle" x="1382.5" y="-81" font-family="Helvetica,sans-Serif" font-size="10.00">TranslatorAdapter_1_8_2</text>
</a>
</g>
</g>
<!-- Node2&#45;&gt;Node1 -->
<g id="edge1" class="edge">
<title>Node2&#45;&gt;Node1</title>
<path fill="none" stroke="#63b8ff" d="M1461.1,-83.5C1469.69,-83.5 1478.39,-83.5 1486.85,-83.5"/>
<polygon fill="#63b8ff" stroke="#63b8ff" points="1461.08,-80 1451.08,-83.5 1461.08,-87 1461.08,-80"/>
</g>
<!-- Node3 -->
<g id="node3" class="node">
<title>Node3</title>
<g id="a_node3"><a xlink:href="../../de/d2f/class_translator_adapter__1__8__4.html" target="_top" xlink:title=" ">
<polygon fill="white" stroke="#666666" points="1278,-93 1141,-93 1141,-74 1278,-74 1278,-93"/>
<text text-anchor="middle" x="1209.5" y="-81" font-family="Helvetica,sans-Serif" font-size="10.00">TranslatorAdapter_1_8_4</text>
</a>
</g>
</g>
<!-- Node3&#45;&gt;Node2 -->
<g id="edge2" class="edge">
<title>Node3&#45;&gt;Node2</title>
<path fill="none" stroke="#63b8ff" d="M1288.1,-83.5C1296.69,-83.5 1305.39,-83.5 1313.85,-83.5"/>
<polygon fill="#63b8ff" stroke="#63b8ff" points="1288.08,-80 1278.08,-83.5 1288.08,-87 1288.08,-80"/>
</g>
<!-- Node4 -->
<g id="node4" class="node">
<title>Node4</title>
<g id="a_node4"><a xlink:href="../../d4/d2e/class_translator_adapter__1__8__15.html" target="_top" xlink:title=" ">
<polygon fill="white" stroke="#666666" points="1105,-93 962,-93 962,-74 1105,-74 1105,-93"/>
<text text-anchor="middle" x="1033.5" y="-81" font-family="Helvetica,sans-Serif" font-size="10.00">TranslatorAdapter_1_8_15</text>
</a>
</g>
</g>
<!-- Node4&#45;&gt;Node3 -->
<g id="edge3" class="edge">
<title>Node4&#45;&gt;Node3</title>
<path fill="none" stroke="#63b8ff" d="M1115.12,-83.5C1123.77,-83.5 1132.5,-83.5 1140.98,-83.5"/>
<polygon fill="#63b8ff" stroke="#63b8ff" points="1115.02,-80 1105.02,-83.5 1115.02,-87 1115.02,-80"/>
</g>
<!-- Node5 -->
<g id="node5" class="node">
<title>Node5</title>
<g id="a_node5"><a xlink:href="../../de/dde/class_translator_adapter__1__8__19.html" target="_top" xlink:title=" ">
<polygon fill="white" stroke="#666666" points="926,-93 783,-93 783,-74 926,-74 926,-93"/>
<text text-anchor="middle" x="854.5" y="-81" font-family="Helvetica,sans-Serif" font-size="10.00">TranslatorAdapter_1_8_19</text>
</a>
</g>
</g>
<!-- Node5&#45;&gt;Node4 -->
<g id="edge4" class="edge">
<title>Node5&#45;&gt;Node4</title>
<path fill="none" stroke="#63b8ff" d="M936.49,-83.5C944.97,-83.5 953.54,-83.5 961.89,-83.5"/>
<polygon fill="#63b8ff" stroke="#63b8ff" points="936.22,-80 926.22,-83.5 936.22,-87 936.22,-80"/>
</g>
<!-- Node6 -->
<g id="node6" class="node">
<title>Node6</title>
<g id="a_node6"><a xlink:href="../../d3/d2e/class_translator_adapter__1__9__2.html" target="_top" xlink:title=" ">
<polygon fill="white" stroke="#666666" points="747,-93 610,-93 610,-74 747,-74 747,-93"/>
<text text-anchor="middle" x="678.5" y="-81" font-family="Helvetica,sans-Serif" font-size="10.00">TranslatorAdapter_1_9_2</text>
</a>
</g>
</g>
<!-- Node6&#45;&gt;Node5 -->
<g id="edge5" class="edge">
<title>Node6&#45;&gt;Node5</title>
<path fill="none" stroke="#63b8ff" d="M757.47,-83.5C765.89,-83.5 774.42,-83.5 782.75,-83.5"/>
<polygon fill="#63b8ff" stroke="#63b8ff" points="757.27,-80 747.27,-83.5 757.27,-87 757.27,-80"/>
</g>
<!-- Node7 -->
<g id="node7" class="node">
<title>Node7</title>
<g id="a_node7"><a xlink:href="../../d0/d33/class_translator_adapter__1__9__4.html" target="_top" xlink:title=" ">
<polygon fill="white" stroke="#666666" points="574,-93 437,-93 437,-74 574,-74 574,-93"/>
<text text-anchor="middle" x="505.5" y="-81" font-family="Helvetica,sans-Serif" font-size="10.00">TranslatorAdapter_1_9_4</text>
</a>
</g>
</g>
<!-- Node7&#45;&gt;Node6 -->
<g id="edge6" class="edge">
<title>Node7&#45;&gt;Node6</title>
<path fill="none" stroke="#63b8ff" d="M584.1,-83.5C592.69,-83.5 601.39,-83.5 609.85,-83.5"/>
<polygon fill="#63b8ff" stroke="#63b8ff" points="584.08,-80 574.08,-83.5 584.08,-87 584.08,-80"/>
</g>
<!-- Node8 -->
<g id="node8" class="node">
<title>Node8</title>
<g id="a_node8"><a xlink:href="../../dd/dba/class_translator_adapter__1__9__5.html" target="_top" xlink:title=" ">
<polygon fill="white" stroke="#666666" points="401,-93 264,-93 264,-74 401,-74 401,-93"/>
<text text-anchor="middle" x="332.5" y="-81" font-family="Helvetica,sans-Serif" font-size="10.00">TranslatorAdapter_1_9_5</text>
</a>
</g>
</g>
<!-- Node8&#45;&gt;Node7 -->
<g id="edge7" class="edge">
<title>Node8&#45;&gt;Node7</title>
<path fill="none" stroke="#63b8ff" d="M411.1,-83.5C419.69,-83.5 428.39,-83.5 436.85,-83.5"/>
<polygon fill="#63b8ff" stroke="#63b8ff" points="411.08,-80 401.08,-83.5 411.08,-87 411.08,-80"/>
</g>
<!-- Node9 -->
<g id="node9" class="node">
<title>Node9</title>
<g id="a_node9"><a xlink:href="../../db/d6c/class_translator_adapter_base.html" target="_top" xlink:title="Base of the translator adapter tree.">
<polygon fill="white" stroke="#666666" points="228,-93 101,-93 101,-74 228,-74 228,-93"/>
<text text-anchor="middle" x="164.5" y="-81" font-family="Helvetica,sans-Serif" font-size="10.00">TranslatorAdapterBase</text>
</a>
</g>
</g>
<!-- Node9&#45;&gt;Node8 -->
<g id="edge8" class="edge">
<title>Node9&#45;&gt;Node8</title>
<path fill="none" stroke="#63b8ff" d="M238.49,-83.5C246.95,-83.5 255.56,-83.5 263.94,-83.5"/>
<polygon fill="#63b8ff" stroke="#63b8ff" points="238.26,-80 228.26,-83.5 238.26,-87 238.26,-80"/>
</g>
<!-- Node10 -->
<g id="node10" class="node">
<title>Node10</title>
<g id="a_node10"><a xlink:href="../../d8/dfb/class_translator.html" target="_top" xlink:title="Abstract base class for all translatable text fragments.">
<polygon fill="white" stroke="#666666" points="65,-93 0,-93 0,-74 65,-74 65,-93"/>
<text text-anchor="middle" x="32.5" y="-81" font-family="Helvetica,sans-Serif" font-size="10.00">Translator</text>
</a>
</g>
</g>
<!-- Node10&#45;&gt;Node9 -->
<g id="edge9" class="edge">
<title>Node10&#45;&gt;Node9</title>
<path fill="none" stroke="#63b8ff" d="M75.54,-83.5C83.6,-83.5 92.2,-83.5 100.75,-83.5"/>
<polygon fill="#63b8ff" stroke="#63b8ff" points="75.3,-80 65.3,-83.5 75.3,-87 75.3,-80"/>
</g>
<!-- Node12 -->
<g id="node12" class="node">
<title>Node12</title>
<g id="a_node12"><a xlink:href="../../d3/da1/class_translator_adapter__1__6__0.html" target="_top" xlink:title="Adapter class for languages that only contain translations up to version 1.6.0.">
<polygon fill="white" stroke="#666666" points="1970,-204 1833,-204 1833,-185 1970,-185 1970,-204"/>
<text text-anchor="middle" x="1901.5" y="-192" font-family="Helvetica,sans-Serif" font-size="10.00">TranslatorAdapter_1_6_0</text>
</a>
</g>
</g>
<!-- Node11&#45;&gt;Node12 -->
<g id="edge11" class="edge">
<title>Node11&#45;&gt;Node12</title>
<path fill="none" stroke="#63b8ff" d="M1783.35,-169.15C1806.84,-174.23 1834.04,-180.12 1856.32,-184.94"/>
<polygon fill="#63b8ff" stroke="#63b8ff" points="1784.05,-165.72 1773.54,-167.03 1782.57,-172.56 1784.05,-165.72"/>
</g>
<!-- Node24 -->
<g id="node24" class="node">
<title>Node24</title>
<g id="a_node24"><a xlink:href="../../d5/d43/class_translator_persian.html" target="_top" xlink:title=" ">
<polygon fill="white" stroke="#666666" points="1952,-167 1851,-167 1851,-148 1952,-148 1952,-167"/>
<text text-anchor="middle" x="1901.5" y="-155" font-family="Helvetica,sans-Serif" font-size="10.00">TranslatorPersian</text>
</a>
</g>
</g>
<!-- Node11&#45;&gt;Node24 -->
<g id="edge23" class="edge">
<title>Node11&#45;&gt;Node24</title>
<path fill="none" stroke="#63b8ff" d="M1807.26,-157.5C1822.06,-157.5 1837.18,-157.5 1850.81,-157.5"/>
<polygon fill="#63b8ff" stroke="#63b8ff" points="1807.08,-154 1797.08,-157.5 1807.08,-161 1807.08,-154"/>
</g>
<!-- Node25 -->
<g id="node25" class="node">
<title>Node25</title>
<g id="a_node25"><a xlink:href="../../dd/d80/class_translator_turkish.html" target="_top" xlink:title=" ">
<polygon fill="white" stroke="#666666" points="1951,-130 1852,-130 1852,-111 1951,-111 1951,-130"/>
<text text-anchor="middle" x="1901.5" y="-118" font-family="Helvetica,sans-Serif" font-size="10.00">TranslatorTurkish</text>
</a>
</g>
</g>
<!-- Node11&#45;&gt;Node25 -->
<g id="edge24" class="edge">
<title>Node11&#45;&gt;Node25</title>
<path fill="none" stroke="#63b8ff" d="M1783.35,-145.85C1806.84,-140.77 1834.04,-134.88 1856.32,-130.06"/>
<polygon fill="#63b8ff" stroke="#63b8ff" points="1782.57,-142.44 1773.54,-147.97 1784.05,-149.28 1782.57,-142.44"/>
</g>
<!-- Node13 -->
<g id="node13" class="node">
<title>Node13</title>
<g id="a_node13"><a xlink:href="../../d4/d2b/class_translator_adapter__1__4__6.html" target="_top" xlink:title="Adapter class for languages that only contain translations up to version 1.4.6.">
<polygon fill="white" stroke="#666666" points="2143,-315 2006,-315 2006,-296 2143,-296 2143,-315"/>
<text text-anchor="middle" x="2074.5" y="-303" font-family="Helvetica,sans-Serif" font-size="10.00">TranslatorAdapter_1_4_6</text>
</a>
</g>
</g>
<!-- Node12&#45;&gt;Node13 -->
<g id="edge12" class="edge">
<title>Node12&#45;&gt;Node13</title>
<path fill="none" stroke="#63b8ff" d="M1917.01,-211.8C1935.54,-232.78 1969.59,-267.79 2006,-287.5 2012.29,-290.91 2019.27,-293.7 2026.28,-295.98"/>
<polygon fill="#63b8ff" stroke="#63b8ff" points="1919.46,-209.28 1910.27,-204 1914.17,-213.86 1919.46,-209.28"/>
</g>
<!-- Node18 -->
<g id="node18" class="node">
<title>Node18</title>
<g id="a_node18"><a xlink:href="../../d3/d65/class_translator_afrikaans.html" target="_top" xlink:title=" ">
<polygon fill="white" stroke="#666666" points="2129.5,-278 2019.5,-278 2019.5,-259 2129.5,-259 2129.5,-278"/>
<text text-anchor="middle" x="2074.5" y="-266" font-family="Helvetica,sans-Serif" font-size="10.00">TranslatorAfrikaans</text>
</a>
</g>
</g>
<!-- Node12&#45;&gt;Node18 -->
<g id="edge17" class="edge">
<title>Node12&#45;&gt;Node18</title>
<path fill="none" stroke="#63b8ff" d="M1926.82,-209.34C1947.35,-221.4 1977.83,-238.2 2006,-249.5 2014.93,-253.08 2024.77,-256.26 2034.12,-258.95"/>
<polygon fill="#63b8ff" stroke="#63b8ff" points="1928.51,-206.27 1918.13,-204.17 1924.93,-212.29 1928.51,-206.27"/>
</g>
<!-- Node19 -->
<g id="node19" class="node">
<title>Node19</title>
<g id="a_node19"><a xlink:href="../../de/df7/class_translator_finnish.html" target="_top" xlink:title=" ">
<polygon fill="white" stroke="#666666" points="2124,-241 2025,-241 2025,-222 2124,-222 2124,-241"/>
<text text-anchor="middle" x="2074.5" y="-229" font-family="Helvetica,sans-Serif" font-size="10.00">TranslatorFinnish</text>
</a>
</g>
</g>
<!-- Node12&#45;&gt;Node19 -->
<g id="edge18" class="edge">
<title>Node12&#45;&gt;Node19</title>
<path fill="none" stroke="#63b8ff" d="M1956.35,-206.15C1979.84,-211.23 2007.04,-217.12 2029.32,-221.94"/>
<polygon fill="#63b8ff" stroke="#63b8ff" points="1957.05,-202.72 1946.54,-204.03 1955.57,-209.56 1957.05,-202.72"/>
</g>
<!-- Node20 -->
<g id="node20" class="node">
<title>Node20</title>
<g id="a_node20"><a xlink:href="../../d9/ddf/class_translator_macedonian.html" target="_top" xlink:title=" ">
<polygon fill="white" stroke="#666666" points="2136.5,-204 2012.5,-204 2012.5,-185 2136.5,-185 2136.5,-204"/>
<text text-anchor="middle" x="2074.5" y="-192" font-family="Helvetica,sans-Serif" font-size="10.00">TranslatorMacedonian</text>
</a>
</g>
</g>
<!-- Node12&#45;&gt;Node20 -->
<g id="edge19" class="edge">
<title>Node12&#45;&gt;Node20</title>
<path fill="none" stroke="#63b8ff" d="M1980.28,-194.5C1991,-194.5 2001.88,-194.5 2012.24,-194.5"/>
<polygon fill="#63b8ff" stroke="#63b8ff" points="1980.08,-191 1970.08,-194.5 1980.08,-198 1980.08,-191"/>
</g>
<!-- Node21 -->
<g id="node21" class="node">
<title>Node21</title>
<g id="a_node21"><a xlink:href="../../d5/d0a/class_translator_serbian.html" target="_top" xlink:title=" ">
<polygon fill="white" stroke="#666666" points="2125,-167 2024,-167 2024,-148 2125,-148 2125,-167"/>
<text text-anchor="middle" x="2074.5" y="-155" font-family="Helvetica,sans-Serif" font-size="10.00">TranslatorSerbian</text>
</a>
</g>
</g>
<!-- Node12&#45;&gt;Node21 -->
<g id="edge20" class="edge">
<title>Node12&#45;&gt;Node21</title>
<path fill="none" stroke="#63b8ff" d="M1956.35,-182.85C1979.84,-177.77 2007.04,-171.88 2029.32,-167.06"/>
<polygon fill="#63b8ff" stroke="#63b8ff" points="1955.57,-179.44 1946.54,-184.97 1957.05,-186.28 1955.57,-179.44"/>
</g>
<!-- Node22 -->
<g id="node22" class="node">
<title>Node22</title>
<g id="a_node22"><a xlink:href="../../dc/d03/class_translator_serbian_cyrillic.html" target="_top" xlink:title=" ">
<polygon fill="white" stroke="#666666" points="2142,-130 2007,-130 2007,-111 2142,-111 2142,-130"/>
<text text-anchor="middle" x="2074.5" y="-118" font-family="Helvetica,sans-Serif" font-size="10.00">TranslatorSerbianCyrillic</text>
</a>
</g>
</g>
<!-- Node12&#45;&gt;Node22 -->
<g id="edge21" class="edge">
<title>Node12&#45;&gt;Node22</title>
<path fill="none" stroke="#63b8ff" d="M1958.42,-181.32C1962.44,-179.6 1966.35,-177.67 1970,-175.5 1989.72,-163.77 1986.2,-150.1 2006,-138.5 2011.86,-135.07 2018.39,-132.28 2025.01,-130.01"/>
<polygon fill="#63b8ff" stroke="#63b8ff" points="1956.97,-178.13 1948.86,-184.95 1959.46,-184.67 1956.97,-178.13"/>
</g>
<!-- Node23 -->
<g id="node23" class="node">
<title>Node23</title>
<g id="a_node23"><a xlink:href="../../df/d20/class_translator_vietnamese.html" target="_top" xlink:title=" ">
<polygon fill="white" stroke="#666666" points="2136,-93 2013,-93 2013,-74 2136,-74 2136,-93"/>
<text text-anchor="middle" x="2074.5" y="-81" font-family="Helvetica,sans-Serif" font-size="10.00">TranslatorVietnamese</text>
</a>
</g>
</g>
<!-- Node12&#45;&gt;Node23 -->
<g id="edge22" class="edge">
<title>Node12&#45;&gt;Node23</title>
<path fill="none" stroke="#63b8ff" d="M1963.48,-180.18C1965.77,-178.76 1967.96,-177.21 1970,-175.5 1998.06,-152.04 1977.78,-124.76 2006,-101.5 2010.12,-98.11 2014.81,-95.35 2019.77,-93.1"/>
<polygon fill="#63b8ff" stroke="#63b8ff" points="1961.48,-177.27 1954.21,-184.97 1964.7,-183.49 1961.48,-177.27"/>
</g>
<!-- Node14 -->
<g id="node14" class="node">
<title>Node14</title>
<g id="a_node14"><a xlink:href="../../d3/de9/class_translator_arabic.html" target="_top" xlink:title=" ">
<polygon fill="white" stroke="#666666" points="2285,-370 2190,-370 2190,-351 2285,-351 2285,-370"/>
<text text-anchor="middle" x="2237.5" y="-358" font-family="Helvetica,sans-Serif" font-size="10.00">TranslatorArabic</text>
</a>
</g>
</g>
<!-- Node13&#45;&gt;Node14 -->
<g id="edge13" class="edge">
<title>Node13&#45;&gt;Node14</title>
<path fill="none" stroke="#63b8ff" d="M2110.94,-318.57C2130.87,-325.81 2156.25,-334.88 2179,-342.5 2187.43,-345.33 2196.6,-348.26 2205.09,-350.92"/>
<polygon fill="#63b8ff" stroke="#63b8ff" points="2111.94,-315.2 2101.35,-315.06 2109.54,-321.78 2111.94,-315.2"/>
</g>
<!-- Node15 -->
<g id="node15" class="node">
<title>Node15</title>
<g id="a_node15"><a xlink:href="../../dc/d53/class_translator_lithuanian.html" target="_top" xlink:title=" ">
<polygon fill="white" stroke="#666666" points="2295.5,-333 2179.5,-333 2179.5,-314 2295.5,-314 2295.5,-333"/>
<text text-anchor="middle" x="2237.5" y="-321" font-family="Helvetica,sans-Serif" font-size="10.00">TranslatorLithuanian</text>
</a>
</g>
</g>
<!-- Node13&#45;&gt;Node15 -->
<g id="edge14" class="edge">
<title>Node13&#45;&gt;Node15</title>
<path fill="none" stroke="#63b8ff" d="M2153.53,-314.22C2162.27,-315.2 2171.05,-316.18 2179.46,-317.12"/>
<polygon fill="#63b8ff" stroke="#63b8ff" points="2153.64,-310.71 2143.31,-313.08 2152.86,-317.67 2153.64,-310.71"/>
</g>
<!-- Node16 -->
<g id="node16" class="node">
<title>Node16</title>
<g id="a_node16"><a xlink:href="../../dd/d38/class_translator_norwegian.html" target="_top" xlink:title=" ">
<polygon fill="white" stroke="#666666" points="2296,-296 2179,-296 2179,-277 2296,-277 2296,-296"/>
<text text-anchor="middle" x="2237.5" y="-284" font-family="Helvetica,sans-Serif" font-size="10.00">TranslatorNorwegian</text>
</a>
</g>
</g>
<!-- Node13&#45;&gt;Node16 -->
<g id="edge15" class="edge">
<title>Node13&#45;&gt;Node16</title>
<path fill="none" stroke="#63b8ff" d="M2153.38,-296.31C2162,-295.29 2170.66,-294.27 2178.96,-293.29"/>
<polygon fill="#63b8ff" stroke="#63b8ff" points="2152.83,-292.85 2143.31,-297.5 2153.65,-299.8 2152.83,-292.85"/>
</g>
<!-- Node17 -->
<g id="node17" class="node">
<title>Node17</title>
<g id="a_node17"><a xlink:href="../../dd/d0b/class_translator_slovene.html" target="_top" xlink:title=" ">
<polygon fill="white" stroke="#666666" points="2289.5,-259 2185.5,-259 2185.5,-240 2289.5,-240 2289.5,-259"/>
<text text-anchor="middle" x="2237.5" y="-247" font-family="Helvetica,sans-Serif" font-size="10.00">TranslatorSlovene</text>
</a>
</g>
</g>
<!-- Node13&#45;&gt;Node17 -->
<g id="edge16" class="edge">
<title>Node13&#45;&gt;Node17</title>
<path fill="none" stroke="#63b8ff" d="M2127.39,-293.07C2132.72,-291.37 2138.01,-289.52 2143,-287.5 2159.97,-280.65 2162.18,-274.72 2179,-267.5 2186.31,-264.37 2194.34,-261.51 2202.03,-259.03"/>
<polygon fill="#63b8ff" stroke="#63b8ff" points="2126.37,-289.72 2117.79,-295.94 2128.38,-296.42 2126.37,-289.72"/>
</g>
</g>
</svg>
        <g id="navigator" transform="translate(0 0)" fill="#404254">
                <rect fill="#f2f5e9" fill-opacity="0.5" stroke="#606060" stroke-width=".5" x="0" y="0" width="60" height="60"/>
                <use id="zoomplus" xlink:href="#zoomPlus" x="17" y="9" onmousedown="handleZoom(evt,'in')"/>
                <use id="zoomminus" xlink:href="#zoomMin" x="42" y="9" onmousedown="handleZoom(evt,'out')"/>
                <use id="reset" xlink:href="#resetDef" x="30" y="36" onmousedown="handleReset()"/>
                <g id="arrowUp" xlink:href="#dirArrow" transform="translate(30 24)" onmousedown="handlePan(0,-1)">
                  <use xlink:href="#rim" fill="#404040">
                        <set attributeName="fill" to="#808080" begin="arrowUp.mouseover" end="arrowUp.mouseout"/>
                  </use>
                  <path fill="none" stroke="white" stroke-width="1.5" d="M0,-3.0v7 M-2.5,-0.5L0,-3.0L2.5,-0.5"/>
                </g>
                <g id="arrowRight" xlink:href="#dirArrow" transform="rotate(90) translate(36 -43)" onmousedown="handlePan(1,0)">
                  <use xlink:href="#rim" fill="#404040">
                        <set attributeName="fill" to="#808080" begin="arrowRight.mouseover" end="arrowRight.mouseout"/>
                  </use>
                  <path fill="none" stroke="white" stroke-width="1.5" d="M0,-3.0v7 M-2.5,-0.5L0,-3.0L2.5,-0.5"/>
                </g>
                <g id="arrowDown" xlink:href="#dirArrow" transform="rotate(180) translate(-30 -48)" onmousedown="handlePan(0,1)">
                  <use xlink:href="#rim" fill="#404040">
                        <set attributeName="fill" to="#808080" begin="arrowDown.mouseover" end="arrowDown.mouseout"/>
                  </use>
                  <path fill="none" stroke="white" stroke-width="1.5" d="M0,-3.0v7 M-2.5,-0.5L0,-3.0L2.5,-0.5"/>
                </g>
                <g id="arrowLeft" xlink:href="#dirArrow" transform="rotate(270) translate(-36 17)" onmousedown="handlePan(-1,0)">
                  <use xlink:href="#rim" fill="#404040">
                        <set attributeName="fill" to="#808080" begin="arrowLeft.mouseover" end="arrowLeft.mouseout"/>
                  </use>
                  <path fill="none" stroke="white" stroke-width="1.5" d="M0,-3.0v7 M-2.5,-0.5L0,-3.0L2.5,-0.5"/>
                </g>
        </g>
        <svg viewBox="0 0 15 15" width="100%" height="30px" preserveAspectRatio="xMaxYMin meet">
         <g id="arrow_out" transform="scale(0.3 0.3)">
          <a xlink:href="class_translator_adapter__1__8__0__inherit__graph_org.svg" target="_base">
           <rect id="button" ry="5" rx="5" y="6" x="6" height="38" width="38"
                fill="#f2f5e9" fill-opacity="0.5" stroke="#606060" stroke-width="1.0"/>
           <path id="arrow"
             d="M 11.500037,31.436501 C 11.940474,20.09759 22.043105,11.32322 32.158766,21.979434 L 37.068811,17.246167 C 37.068811,17.246167 37.088388,32 37.088388,32 L 22.160133,31.978069 C 22.160133,31.978069 26.997745,27.140456 26.997745,27.140456 C 18.528582,18.264221 13.291696,25.230495 11.500037,31.436501 z"
             style="fill:#404040;"/>
          </a>
         </g>
        </svg>
</svg>
