<?xml version="1.0" encoding="UTF-8" standalone="no"?>
<!DOCTYPE svg PUBLIC "-//W3C//DTD SVG 1.1//EN"
 "http://www.w3.org/Graphics/SVG/1.1/DTD/svg11.dtd">
<!-- Generated by graphviz version 2.43.0 (0)
 -->
<!-- Title: /home/runner/work/doxygen/doxygen/src/trace.h Pages: 1 -->
<svg width="2258pt" height="104pt"
 viewBox="0.00 0.00 2258.00 104.00" xmlns="http://www.w3.org/2000/svg" xmlns:xlink="http://www.w3.org/1999/xlink">
<g id="graph0" class="graph" transform="scale(1 1) rotate(0) translate(4 100)">
<title>/home/runner/work/doxygen/doxygen/src/trace.h</title>
<!-- Node1 -->
<g id="node1" class="node">
<title>Node1</title>
<g id="a_node1"><a xlink:title=" ">
<polygon fill="#999999" stroke="#666666" points="1190,-96 1036,-96 1036,-66 1190,-66 1190,-96"/>
<text text-anchor="start" x="1044" y="-84" font-family="Helvetica,sans-Serif" font-size="10.00">/home/runner/work/doxygen</text>
<text text-anchor="middle" x="1113" y="-73" font-family="Helvetica,sans-Serif" font-size="10.00">/doxygen/src/trace.h</text>
</a>
</g>
</g>
<!-- Node2 -->
<g id="node2" class="node">
<title>Node2</title>
<g id="a_node2"><a xlink:href="../../de/d89/classdef_8cpp.html" target="_top" xlink:title=" ">
<polygon fill="white" stroke="#666666" points="154,-30 0,-30 0,0 154,0 154,-30"/>
<text text-anchor="start" x="8" y="-18" font-family="Helvetica,sans-Serif" font-size="10.00">/home/runner/work/doxygen</text>
<text text-anchor="middle" x="77" y="-7" font-family="Helvetica,sans-Serif" font-size="10.00">/doxygen/src/classdef.cpp</text>
</a>
</g>
</g>
<!-- Node1&#45;&gt;Node2 -->
<g id="edge1" class="edge">
<title>Node1&#45;&gt;Node2</title>
<path fill="none" stroke="#63b8ff" d="M1025.81,-78.58C858.21,-75.15 479.62,-64 163,-30 160.14,-29.69 157.24,-29.35 154.3,-28.99"/>
<polygon fill="#63b8ff" stroke="#63b8ff" points="1025.74,-82.08 1035.81,-78.78 1025.88,-75.08 1025.74,-82.08"/>
</g>
<!-- Node3 -->
<g id="node3" class="node">
<title>Node3</title>
<g id="a_node3"><a xlink:href="../../d7/d5f/commentscan_8l.html" target="_top" xlink:title=" ">
<polygon fill="white" stroke="#666666" points="329.5,-30 172.5,-30 172.5,0 329.5,0 329.5,-30"/>
<text text-anchor="start" x="180.5" y="-18" font-family="Helvetica,sans-Serif" font-size="10.00">/home/runner/work/doxygen</text>
<text text-anchor="middle" x="251" y="-7" font-family="Helvetica,sans-Serif" font-size="10.00">/doxygen/src/commentscan.l</text>
</a>
</g>
</g>
<!-- Node1&#45;&gt;Node3 -->
<g id="edge2" class="edge">
<title>Node1&#45;&gt;Node3</title>
<path fill="none" stroke="#63b8ff" d="M1025.82,-77.02C882.27,-71.52 587.31,-57.71 339,-30 335.93,-29.66 332.79,-29.28 329.63,-28.88"/>
<polygon fill="#63b8ff" stroke="#63b8ff" points="1025.77,-80.52 1035.89,-77.4 1026.03,-73.53 1025.77,-80.52"/>
</g>
<!-- Node4 -->
<g id="node4" class="node">
<title>Node4</title>
<g id="a_node4"><a xlink:href="../../d8/d52/dirdef_8cpp.html" target="_top" xlink:title=" ">
<polygon fill="white" stroke="#666666" points="502,-30 348,-30 348,0 502,0 502,-30"/>
<text text-anchor="start" x="356" y="-18" font-family="Helvetica,sans-Serif" font-size="10.00">/home/runner/work/doxygen</text>
<text text-anchor="middle" x="425" y="-7" font-family="Helvetica,sans-Serif" font-size="10.00">/doxygen/src/dirdef.cpp</text>
</a>
</g>
</g>
<!-- Node1&#45;&gt;Node4 -->
<g id="edge3" class="edge">
<title>Node1&#45;&gt;Node4</title>
<path fill="none" stroke="#63b8ff" d="M1025.82,-74.91C908.54,-67.58 693.57,-52.41 511,-30 508.15,-29.65 505.24,-29.27 502.31,-28.88"/>
<polygon fill="#63b8ff" stroke="#63b8ff" points="1025.63,-78.41 1035.83,-75.54 1026.06,-71.42 1025.63,-78.41"/>
</g>
<!-- Node5 -->
<g id="node5" class="node">
<title>Node5</title>
<g id="a_node5"><a xlink:href="../../d0/d2b/docnode_8cpp.html" target="_top" xlink:title=" ">
<polygon fill="white" stroke="#666666" points="674,-30 520,-30 520,0 674,0 674,-30"/>
<text text-anchor="start" x="528" y="-18" font-family="Helvetica,sans-Serif" font-size="10.00">/home/runner/work/doxygen</text>
<text text-anchor="middle" x="597" y="-7" font-family="Helvetica,sans-Serif" font-size="10.00">/doxygen/src/docnode.cpp</text>
</a>
</g>
</g>
<!-- Node1&#45;&gt;Node5 -->
<g id="edge4" class="edge">
<title>Node1&#45;&gt;Node5</title>
<path fill="none" stroke="#63b8ff" d="M1025.88,-71.05C938.9,-61.83 801.5,-46.53 683,-30 680.15,-29.6 677.26,-29.19 674.33,-28.76"/>
<polygon fill="#63b8ff" stroke="#63b8ff" points="1025.65,-74.54 1035.97,-72.11 1026.39,-67.58 1025.65,-74.54"/>
</g>
<!-- Node6 -->
<g id="node6" class="node">
<title>Node6</title>
<g id="a_node6"><a xlink:href="../../da/d17/docparser_8cpp.html" target="_top" xlink:title=" ">
<polygon fill="white" stroke="#666666" points="846,-30 692,-30 692,0 846,0 846,-30"/>
<text text-anchor="start" x="700" y="-18" font-family="Helvetica,sans-Serif" font-size="10.00">/home/runner/work/doxygen</text>
<text text-anchor="middle" x="769" y="-7" font-family="Helvetica,sans-Serif" font-size="10.00">/doxygen/src/docparser.cpp</text>
</a>
</g>
</g>
<!-- Node1&#45;&gt;Node6 -->
<g id="edge5" class="edge">
<title>Node1&#45;&gt;Node6</title>
<path fill="none" stroke="#63b8ff" d="M1027.57,-64.11C971.33,-53.64 898.38,-40.07 844.32,-30.01"/>
<polygon fill="#63b8ff" stroke="#63b8ff" points="1027.04,-67.57 1037.51,-65.95 1028.32,-60.68 1027.04,-67.57"/>
</g>
<!-- Node7 -->
<g id="node7" class="node">
<title>Node7</title>
<g id="a_node7"><a xlink:href="../../dc/d98/doxygen_8cpp.html" target="_top" xlink:title=" ">
<polygon fill="white" stroke="#666666" points="1018,-30 864,-30 864,0 1018,0 1018,-30"/>
<text text-anchor="start" x="872" y="-18" font-family="Helvetica,sans-Serif" font-size="10.00">/home/runner/work/doxygen</text>
<text text-anchor="middle" x="941" y="-7" font-family="Helvetica,sans-Serif" font-size="10.00">/doxygen/src/doxygen.cpp</text>
</a>
</g>
</g>
<!-- Node1&#45;&gt;Node7 -->
<g id="edge6" class="edge">
<title>Node1&#45;&gt;Node7</title>
<path fill="none" stroke="#63b8ff" d="M1065.85,-62.46C1038.41,-52.25 1004.29,-39.55 978.66,-30.01"/>
<polygon fill="#63b8ff" stroke="#63b8ff" points="1064.66,-65.75 1075.25,-65.95 1067.1,-59.19 1064.66,-65.75"/>
</g>
<!-- Node8 -->
<g id="node8" class="node">
<title>Node8</title>
<g id="a_node8"><a xlink:href="../../de/d04/markdown_8cpp.html" target="_top" xlink:title=" ">
<polygon fill="white" stroke="#666666" points="1190,-30 1036,-30 1036,0 1190,0 1190,-30"/>
<text text-anchor="start" x="1044" y="-18" font-family="Helvetica,sans-Serif" font-size="10.00">/home/runner/work/doxygen</text>
<text text-anchor="middle" x="1113" y="-7" font-family="Helvetica,sans-Serif" font-size="10.00">/doxygen/src/markdown.cpp</text>
</a>
</g>
</g>
<!-- Node1&#45;&gt;Node8 -->
<g id="edge7" class="edge">
<title>Node1&#45;&gt;Node8</title>
<path fill="none" stroke="#63b8ff" d="M1113,-55.54C1113,-46.96 1113,-37.61 1113,-30.16"/>
<polygon fill="#63b8ff" stroke="#63b8ff" points="1109.5,-55.8 1113,-65.8 1116.5,-55.8 1109.5,-55.8"/>
</g>
<!-- Node9 -->
<g id="node9" class="node">
<title>Node9</title>
<g id="a_node9"><a xlink:href="../../d0/d72/memberdef_8cpp.html" target="_top" xlink:title=" ">
<polygon fill="white" stroke="#666666" points="1366,-30 1208,-30 1208,0 1366,0 1366,-30"/>
<text text-anchor="start" x="1216" y="-18" font-family="Helvetica,sans-Serif" font-size="10.00">/home/runner/work/doxygen</text>
<text text-anchor="middle" x="1287" y="-7" font-family="Helvetica,sans-Serif" font-size="10.00">/doxygen/src/memberdef.cpp</text>
</a>
</g>
</g>
<!-- Node1&#45;&gt;Node9 -->
<g id="edge8" class="edge">
<title>Node1&#45;&gt;Node9</title>
<path fill="none" stroke="#63b8ff" d="M1160.7,-62.46C1188.46,-52.25 1222.97,-39.55 1248.9,-30.01"/>
<polygon fill="#63b8ff" stroke="#63b8ff" points="1159.36,-59.22 1151.19,-65.95 1161.78,-65.79 1159.36,-59.22"/>
</g>
<!-- Node10 -->
<g id="node10" class="node">
<title>Node10</title>
<g id="a_node10"><a xlink:href="../../d0/da7/pre_8l.html" target="_top" xlink:title=" ">
<polygon fill="white" stroke="#666666" points="1538,-30 1384,-30 1384,0 1538,0 1538,-30"/>
<text text-anchor="start" x="1392" y="-18" font-family="Helvetica,sans-Serif" font-size="10.00">/home/runner/work/doxygen</text>
<text text-anchor="middle" x="1461" y="-7" font-family="Helvetica,sans-Serif" font-size="10.00">/doxygen/src/pre.l</text>
</a>
</g>
</g>
<!-- Node1&#45;&gt;Node10 -->
<g id="edge9" class="edge">
<title>Node1&#45;&gt;Node10</title>
<path fill="none" stroke="#63b8ff" d="M1199.43,-64.11C1256.32,-53.64 1330.11,-40.07 1384.81,-30.01"/>
<polygon fill="#63b8ff" stroke="#63b8ff" points="1198.57,-60.7 1189.37,-65.95 1199.84,-67.59 1198.57,-60.7"/>
</g>
<!-- Node11 -->
<g id="node11" class="node">
<title>Node11</title>
<g id="a_node11"><a xlink:href="../../da/d11/scanner_8l.html" target="_top" xlink:title=" ">
<polygon fill="white" stroke="#666666" points="1710,-30 1556,-30 1556,0 1710,0 1710,-30"/>
<text text-anchor="start" x="1564" y="-18" font-family="Helvetica,sans-Serif" font-size="10.00">/home/runner/work/doxygen</text>
<text text-anchor="middle" x="1633" y="-7" font-family="Helvetica,sans-Serif" font-size="10.00">/doxygen/src/scanner.l</text>
</a>
</g>
</g>
<!-- Node1&#45;&gt;Node11 -->
<g id="edge10" class="edge">
<title>Node1&#45;&gt;Node11</title>
<path fill="none" stroke="#63b8ff" d="M1200.54,-71.13C1288.3,-61.95 1427.22,-46.64 1547,-30 1549.85,-29.6 1552.74,-29.19 1555.67,-28.76"/>
<polygon fill="#63b8ff" stroke="#63b8ff" points="1199.94,-67.67 1190.36,-72.19 1200.67,-74.63 1199.94,-67.67"/>
</g>
<!-- Node12 -->
<g id="node12" class="node">
<title>Node12</title>
<g id="a_node12"><a xlink:href="../../d2/d99/symbolresolver_8cpp.html" target="_top" xlink:title=" ">
<polygon fill="white" stroke="#666666" points="1905.5,-30 1728.5,-30 1728.5,0 1905.5,0 1905.5,-30"/>
<text text-anchor="start" x="1736.5" y="-18" font-family="Helvetica,sans-Serif" font-size="10.00">/home/runner/work/doxygen</text>
<text text-anchor="middle" x="1817" y="-7" font-family="Helvetica,sans-Serif" font-size="10.00">/doxygen/src/symbolresolver.cpp</text>
</a>
</g>
</g>
<!-- Node1&#45;&gt;Node12 -->
<g id="edge11" class="edge">
<title>Node1&#45;&gt;Node12</title>
<path fill="none" stroke="#63b8ff" d="M1200.2,-74.44C1318.09,-66.56 1534.76,-50.74 1719,-30 1722.07,-29.65 1725.2,-29.29 1728.36,-28.9"/>
<polygon fill="#63b8ff" stroke="#63b8ff" points="1199.9,-70.96 1190.15,-75.11 1200.36,-77.94 1199.9,-70.96"/>
</g>
<!-- Node13 -->
<g id="node13" class="node">
<title>Node13</title>
<g id="a_node13"><a xlink:href="../../df/d54/template_8cpp.html" target="_top" xlink:title=" ">
<polygon fill="white" stroke="#666666" points="2078,-30 1924,-30 1924,0 2078,0 2078,-30"/>
<text text-anchor="start" x="1932" y="-18" font-family="Helvetica,sans-Serif" font-size="10.00">/home/runner/work/doxygen</text>
<text text-anchor="middle" x="2001" y="-7" font-family="Helvetica,sans-Serif" font-size="10.00">/doxygen/src/template.cpp</text>
</a>
</g>
</g>
<!-- Node1&#45;&gt;Node13 -->
<g id="edge12" class="edge">
<title>Node1&#45;&gt;Node13</title>
<path fill="none" stroke="#63b8ff" d="M1200.43,-77.39C1348.08,-72.34 1656.07,-59.07 1915,-30 1917.86,-29.68 1920.76,-29.33 1923.69,-28.96"/>
<polygon fill="#63b8ff" stroke="#63b8ff" points="1199.96,-73.9 1190.08,-77.74 1200.19,-80.9 1199.96,-73.9"/>
</g>
<!-- Node14 -->
<g id="node14" class="node">
<title>Node14</title>
<g id="a_node14"><a xlink:href="../../d9/d55/trace_8cpp.html" target="_top" xlink:title=" ">
<polygon fill="white" stroke="#666666" points="2250,-30 2096,-30 2096,0 2250,0 2250,-30"/>
<text text-anchor="start" x="2104" y="-18" font-family="Helvetica,sans-Serif" font-size="10.00">/home/runner/work/doxygen</text>
<text text-anchor="middle" x="2173" y="-7" font-family="Helvetica,sans-Serif" font-size="10.00">/doxygen/src/trace.cpp</text>
</a>
</g>
</g>
<!-- Node1&#45;&gt;Node14 -->
<g id="edge13" class="edge">
<title>Node1&#45;&gt;Node14</title>
<path fill="none" stroke="#63b8ff" d="M1200.44,-78.73C1371.27,-75.55 1761.14,-64.78 2087,-30 2089.86,-29.69 2092.77,-29.36 2095.7,-29"/>
<polygon fill="#63b8ff" stroke="#63b8ff" points="1200.18,-75.24 1190.25,-78.92 1200.31,-82.24 1200.18,-75.24"/>
</g>
</g>
</svg>
