<?xml version="1.0" encoding="UTF-8" standalone="no"?>
<!DOCTYPE svg PUBLIC "-//W3C//DTD SVG 1.1//EN"
 "http://www.w3.org/Graphics/SVG/1.1/DTD/svg11.dtd">
<!-- Generated by graphviz version 2.43.0 (0)
 -->
<!-- Title: HtmlGenerator Pages: 1 -->
<svg width="457pt" height="240pt"
 viewBox="0.00 0.00 457.00 240.00" xmlns="http://www.w3.org/2000/svg" xmlns:xlink="http://www.w3.org/1999/xlink">
<g id="graph0" class="graph" transform="scale(1 1) rotate(0) translate(4 236)">
<title>HtmlGenerator</title>
<!-- Node1 -->
<g id="node1" class="node">
<title>Node1</title>
<g id="a_node1"><a xlink:title="Generator for HTML output.">
<polygon fill="#999999" stroke="#666666" points="306.5,-19 217.5,-19 217.5,0 306.5,0 306.5,-19"/>
<text text-anchor="middle" x="262" y="-7" font-family="Helvetica,sans-Serif" font-size="10.00">HtmlGenerator</text>
</a>
</g>
</g>
<!-- Node2 -->
<g id="node2" class="node">
<title>Node2</title>
<g id="a_node2"><a xlink:href="../../d3/d8e/class_output_generator.html" target="_top" xlink:title="Abstract output generator.">
<polygon fill="white" stroke="#666666" points="173,-92 75,-92 75,-73 173,-73 173,-92"/>
<text text-anchor="middle" x="124" y="-80" font-family="Helvetica,sans-Serif" font-size="10.00">OutputGenerator</text>
</a>
</g>
</g>
<!-- Node2&#45;&gt;Node1 -->
<g id="edge1" class="edge">
<title>Node2&#45;&gt;Node1</title>
<path fill="none" stroke="#63b8ff" d="M149.82,-68.22C177.77,-53.84 221.54,-31.32 245.29,-19.09"/>
<polygon fill="#63b8ff" stroke="#63b8ff" points="147.94,-65.25 140.65,-72.94 151.14,-71.47 147.94,-65.25"/>
</g>
<!-- Node3 -->
<g id="node3" class="node">
<title>Node3</title>
<g id="a_node3"><a xlink:href="../../df/d27/class_base_output_doc_interface.html" target="_top" xlink:title="Base Interface used for generating output outside of the comment blocks.">
<polygon fill="white" stroke="#666666" points="136,-176 0,-176 0,-157 136,-157 136,-176"/>
<text text-anchor="middle" x="68" y="-164" font-family="Helvetica,sans-Serif" font-size="10.00">BaseOutputDocInterface</text>
</a>
</g>
</g>
<!-- Node3&#45;&gt;Node2 -->
<g id="edge2" class="edge">
<title>Node3&#45;&gt;Node2</title>
<path fill="none" stroke="#63b8ff" d="M70.6,-146.9C72.59,-137.36 76.05,-125.9 82,-117 88.84,-106.76 99.79,-98.18 108.8,-92.26"/>
<polygon fill="#63b8ff" stroke="#63b8ff" points="67.11,-146.5 68.88,-156.95 74.01,-147.69 67.11,-146.5"/>
</g>
<!-- Node4 -->
<g id="node4" class="node">
<title>Node4</title>
<g id="a_node4"><a xlink:href="../../d5/d9c/class_code_output_interface.html" target="_top" xlink:title="Output interface for code parser.">
<polygon fill="white" stroke="#666666" points="298,-232 180,-232 180,-213 298,-213 298,-232"/>
<text text-anchor="middle" x="239" y="-220" font-family="Helvetica,sans-Serif" font-size="10.00">CodeOutputInterface</text>
</a>
</g>
</g>
<!-- Node4&#45;&gt;Node3 -->
<g id="edge3" class="edge">
<title>Node4&#45;&gt;Node3</title>
<path fill="none" stroke="#63b8ff" d="M201.96,-209.8C169.74,-199.63 123.81,-185.12 94.97,-176.02"/>
<polygon fill="#63b8ff" stroke="#63b8ff" points="201.31,-213.27 211.9,-212.94 203.42,-206.59 201.31,-213.27"/>
</g>
<!-- Node7 -->
<g id="node7" class="node">
<title>Node7</title>
<g id="a_node7"><a xlink:href="../../da/db6/class_html_code_generator.html" target="_top" xlink:title=" ">
<polygon fill="white" stroke="#666666" points="449,-92 335,-92 335,-73 449,-73 449,-92"/>
<text text-anchor="middle" x="392" y="-80" font-family="Helvetica,sans-Serif" font-size="10.00">HtmlCodeGenerator</text>
</a>
</g>
</g>
<!-- Node4&#45;&gt;Node7 -->
<g id="edge8" class="edge">
<title>Node4&#45;&gt;Node7</title>
<path fill="none" stroke="#63b8ff" d="M272.23,-209.11C302.82,-196.08 347.37,-172.76 374,-139 385.04,-125 389.41,-104.02 391.06,-92.27"/>
<polygon fill="#63b8ff" stroke="#63b8ff" points="270.74,-205.93 262.83,-212.98 273.41,-212.41 270.74,-205.93"/>
</g>
<!-- Node5 -->
<g id="node5" class="node">
<title>Node5</title>
<g id="a_node5"><a xlink:href="../../d3/d30/class_text_stream.html" target="_top" xlink:title="Text streaming class that buffers data.">
<polygon fill="white" stroke="#666666" points="226,-176 154,-176 154,-157 226,-157 226,-176"/>
<text text-anchor="middle" x="190" y="-164" font-family="Helvetica,sans-Serif" font-size="10.00">TextStream</text>
</a>
</g>
</g>
<!-- Node5&#45;&gt;Node2 -->
<g id="edge4" class="edge">
<title>Node5&#45;&gt;Node2</title>
<path fill="none" stroke="#9a32cd" stroke-dasharray="5,2" d="M144.88,-154.42C124.75,-149.02 104.88,-142.88 102,-139 91.12,-124.36 105.6,-103.62 115.71,-92.08"/>
<polygon fill="#9a32cd" stroke="#9a32cd" points="144.15,-157.85 154.71,-156.99 145.92,-151.07 144.15,-157.85"/>
<text text-anchor="middle" x="113" y="-125.5" font-family="Helvetica,sans-Serif" font-size="10.00"> m_t</text>
</g>
<!-- Node5&#45;&gt;Node7 -->
<g id="edge9" class="edge">
<title>Node5&#45;&gt;Node7</title>
<path fill="none" stroke="#9a32cd" stroke-dasharray="5,2" d="M210.85,-151.09C226.96,-140.48 250.13,-126.33 272,-117 297.57,-106.1 327.7,-97.7 351.38,-92.04"/>
<polygon fill="#9a32cd" stroke="#9a32cd" points="208.59,-148.39 202.24,-156.87 212.49,-154.2 208.59,-148.39"/>
<text text-anchor="middle" x="283" y="-125.5" font-family="Helvetica,sans-Serif" font-size="10.00"> m_t</text>
</g>
<!-- Node6 -->
<g id="node6" class="node">
<title>Node6</title>
<g id="a_node6"><a xlink:href="../../d9/d45/class_q_c_string.html" target="_top" xlink:title="This is an alternative implementation of QCString.">
<polygon fill="white" stroke="#666666" points="303.5,-176 244.5,-176 244.5,-157 303.5,-157 303.5,-176"/>
<text text-anchor="middle" x="274" y="-164" font-family="Helvetica,sans-Serif" font-size="10.00">QCString</text>
</a>
</g>
</g>
<!-- Node6&#45;&gt;Node1 -->
<g id="edge6" class="edge">
<title>Node6&#45;&gt;Node1</title>
<path fill="none" stroke="#9a32cd" stroke-dasharray="5,2" d="M272.52,-146.36C269.9,-112.53 264.55,-43.47 262.67,-19.18"/>
<polygon fill="#9a32cd" stroke="#9a32cd" points="269.06,-147.02 273.32,-156.72 276.04,-146.48 269.06,-147.02"/>
<text text-anchor="middle" x="295.5" y="-91" font-family="Helvetica,sans-Serif" font-size="10.00"> m_lastFile</text>
<text text-anchor="middle" x="295.5" y="-80" font-family="Helvetica,sans-Serif" font-size="10.00">m_lastTitle</text>
<text text-anchor="middle" x="295.5" y="-69" font-family="Helvetica,sans-Serif" font-size="10.00">m_relPath</text>
</g>
<!-- Node6&#45;&gt;Node2 -->
<g id="edge5" class="edge">
<title>Node6&#45;&gt;Node2</title>
<path fill="none" stroke="#9a32cd" stroke-dasharray="5,2" d="M234.19,-157.13C193.25,-150.8 175.57,-162.57 147,-139 132.52,-127.05 127.03,-104.47 125.05,-92.11"/>
<polygon fill="#9a32cd" stroke="#9a32cd" points="233.73,-160.6 244.2,-158.96 234.99,-153.72 233.73,-160.6"/>
<text text-anchor="middle" x="177" y="-131" font-family="Helvetica,sans-Serif" font-size="10.00"> m_dir</text>
<text text-anchor="middle" x="177" y="-120" font-family="Helvetica,sans-Serif" font-size="10.00">m_fileName</text>
</g>
<!-- Node6&#45;&gt;Node7 -->
<g id="edge10" class="edge">
<title>Node6&#45;&gt;Node7</title>
<path fill="none" stroke="#9a32cd" stroke-dasharray="5,2" d="M287.74,-148.95C296.74,-138.83 309.18,-126.12 322,-117 336.6,-106.61 354.92,-97.97 369.16,-92.07"/>
<polygon fill="#9a32cd" stroke="#9a32cd" points="284.93,-146.85 281.06,-156.71 290.24,-151.42 284.93,-146.85"/>
<text text-anchor="middle" x="348" y="-125.5" font-family="Helvetica,sans-Serif" font-size="10.00"> m_relPath</text>
</g>
<!-- Node7&#45;&gt;Node1 -->
<g id="edge7" class="edge">
<title>Node7&#45;&gt;Node1</title>
<path fill="none" stroke="#9a32cd" stroke-dasharray="5,2" d="M367.34,-68.03C340.99,-53.64 300.02,-31.27 277.74,-19.09"/>
<polygon fill="#9a32cd" stroke="#9a32cd" points="365.86,-71.21 376.32,-72.94 369.22,-65.07 365.86,-71.21"/>
<text text-anchor="middle" x="357.5" y="-40" font-family="Helvetica,sans-Serif" font-size="10.00"> m_codeGen</text>
</g>
</g>
</svg>
