<?xml version="1.0" encoding="UTF-8" standalone="no"?>
<!DOCTYPE svg PUBLIC "-//W3C//DTD SVG 1.1//EN"
 "http://www.w3.org/Graphics/SVG/1.1/DTD/svg11.dtd">
<!-- Generated by graphviz version 2.43.0 (0)
 -->
<!-- Title: GroupDefImpl Pages: 1 -->
<svg width="1960pt" height="1020pt"
 viewBox="0.00 0.00 1960.00 1020.22" xmlns="http://www.w3.org/2000/svg" xmlns:xlink="http://www.w3.org/1999/xlink">
<g id="graph0" class="graph" transform="scale(1 1) rotate(0) translate(4 1016.22)">
<title>GroupDefImpl</title>
<!-- Node1 -->
<g id="node1" class="node">
<title>Node1</title>
<g id="a_node1"><a xlink:title=" ">
<polygon fill="#999999" stroke="#666666" points="1952,-312.5 1867,-312.5 1867,-293.5 1952,-293.5 1952,-312.5"/>
<text text-anchor="middle" x="1909.5" y="-300.5" font-family="Helvetica,sans-Serif" font-size="10.00">GroupDefImpl</text>
</a>
</g>
</g>
<!-- Node2 -->
<g id="node2" class="node">
<title>Node2</title>
<g id="a_node2"><a xlink:href="../../dd/d10/class_definition_mixin.html" target="_top" xlink:title=" ">
<polygon fill="white" stroke="#666666" points="1659,-687.5 1499,-687.5 1499,-668.5 1659,-668.5 1659,-687.5"/>
<text text-anchor="middle" x="1579" y="-675.5" font-family="Helvetica,sans-Serif" font-size="10.00">DefinitionMixin&lt; GroupDef &gt;</text>
</a>
</g>
</g>
<!-- Node2&#45;&gt;Node1 -->
<g id="edge1" class="edge">
<title>Node2&#45;&gt;Node1</title>
<path fill="none" stroke="#63b8ff" d="M1625.79,-665.44C1686.16,-646.49 1791.44,-604.71 1849,-531 1903.38,-461.35 1908.35,-346.92 1908.58,-312.86"/>
<polygon fill="#63b8ff" stroke="#63b8ff" points="1624.68,-662.12 1616.14,-668.4 1626.73,-668.82 1624.68,-662.12"/>
</g>
<!-- Node3 -->
<g id="node3" class="node">
<title>Node3</title>
<g id="a_node3"><a xlink:href="../../d8/d09/class_group_def.html" target="_top" xlink:title="A model of a group of symbols.">
<polygon fill="white" stroke="#666666" points="257,-778.5 194,-778.5 194,-759.5 257,-759.5 257,-778.5"/>
<text text-anchor="middle" x="225.5" y="-766.5" font-family="Helvetica,sans-Serif" font-size="10.00">GroupDef</text>
</a>
</g>
</g>
<!-- Node3&#45;&gt;Node2 -->
<g id="edge2" class="edge">
<title>Node3&#45;&gt;Node2</title>
<path fill="none" stroke="#63b8ff" d="M230.38,-788.38C239.64,-829.43 266.95,-925.55 328,-976 374.88,-1014.73 399.19,-1012 460,-1012 460,-1012 460,-1012 852,-1012 938,-1012 962.51,-1015.47 1044,-988 1271.54,-911.29 1509.73,-731.48 1565.72,-687.72"/>
<polygon fill="#63b8ff" stroke="#63b8ff" points="233.79,-787.59 228.28,-778.55 226.95,-789.06 233.79,-787.59"/>
</g>
<!-- Node4 -->
<g id="node4" class="node">
<title>Node4</title>
<g id="a_node4"><a xlink:href="../../d0/d46/class_definition_mutable.html" target="_top" xlink:title=" ">
<polygon fill="white" stroke="#666666" points="104,-690.5 0,-690.5 0,-671.5 104,-671.5 104,-690.5"/>
<text text-anchor="middle" x="52" y="-678.5" font-family="Helvetica,sans-Serif" font-size="10.00">DefinitionMutable</text>
</a>
</g>
</g>
<!-- Node4&#45;&gt;Node3 -->
<g id="edge3" class="edge">
<title>Node4&#45;&gt;Node3</title>
<path fill="none" stroke="#63b8ff" d="M69.41,-698.31C85.91,-714.59 112.86,-738.31 141,-751 157.63,-758.5 177.55,-762.95 193.77,-765.54"/>
<polygon fill="#63b8ff" stroke="#63b8ff" points="71.71,-695.65 62.2,-690.99 66.73,-700.57 71.71,-695.65"/>
</g>
<!-- Node15 -->
<g id="node15" class="node">
<title>Node15</title>
<g id="a_node15"><a xlink:href="../../de/db0/class_file_def.html" target="_top" xlink:title="A model of a file symbol.">
<polygon fill="white" stroke="#666666" points="251,-662.5 200,-662.5 200,-643.5 251,-643.5 251,-662.5"/>
<text text-anchor="middle" x="225.5" y="-650.5" font-family="Helvetica,sans-Serif" font-size="10.00">FileDef</text>
</a>
</g>
</g>
<!-- Node4&#45;&gt;Node15 -->
<g id="edge17" class="edge">
<title>Node4&#45;&gt;Node15</title>
<path fill="none" stroke="#63b8ff" d="M114.67,-670.93C144.1,-666.13 177.64,-660.65 199.84,-657.03"/>
<polygon fill="#63b8ff" stroke="#63b8ff" points="113.76,-667.53 104.46,-672.6 114.89,-674.44 113.76,-667.53"/>
</g>
<!-- Node5 -->
<g id="node5" class="node">
<title>Node5</title>
<g id="a_node5"><a xlink:href="../../d5/dcc/class_definition.html" target="_top" xlink:title="The common base class of all entity definitions found in the sources.">
<polygon fill="white" stroke="#666666" points="84,-647.5 20,-647.5 20,-628.5 84,-628.5 84,-647.5"/>
<text text-anchor="middle" x="52" y="-635.5" font-family="Helvetica,sans-Serif" font-size="10.00">Definition</text>
</a>
</g>
</g>
<!-- Node5&#45;&gt;Node1 -->
<g id="edge49" class="edge">
<title>Node5&#45;&gt;Node1</title>
<path fill="none" stroke="#9a32cd" stroke-dasharray="5,2" d="M55.42,-618.16C67.23,-525.98 122.32,-144 224.5,-144 224.5,-144 224.5,-144 1580,-144 1700.74,-144 1751.23,-111.15 1849,-182 1887.48,-209.88 1902.35,-269.63 1906.85,-293.17"/>
<polygon fill="#9a32cd" stroke="#9a32cd" points="51.95,-617.77 54.17,-628.13 58.89,-618.65 51.95,-617.77"/>
<text text-anchor="middle" x="851" y="-147" font-family="Helvetica,sans-Serif" font-size="10.00"> m_groupScope</text>
</g>
<!-- Node5&#45;&gt;Node3 -->
<g id="edge4" class="edge">
<title>Node5&#45;&gt;Node3</title>
<path fill="none" stroke="#63b8ff" d="M90.42,-652.35C95.39,-655.34 100.11,-658.88 104,-663 133.12,-693.85 108.35,-723.91 141,-751 155.61,-763.12 176.48,-767.62 193.71,-769.09"/>
<polygon fill="#63b8ff" stroke="#63b8ff" points="91.78,-649.11 81.31,-647.51 88.5,-655.29 91.78,-649.11"/>
</g>
<!-- Node7 -->
<g id="node7" class="node">
<title>Node7</title>
<g id="a_node7"><a xlink:href="../../dd/d50/class_definition_impl_1_1_i_m_p_l.html" target="_top" xlink:title="Private data associated with a Symbol DefinitionImpl object.">
<polygon fill="white" stroke="#666666" points="795,-680.5 680,-680.5 680,-661.5 795,-661.5 795,-680.5"/>
<text text-anchor="middle" x="737.5" y="-668.5" font-family="Helvetica,sans-Serif" font-size="10.00">DefinitionImpl::IMPL</text>
</a>
</g>
</g>
<!-- Node5&#45;&gt;Node7 -->
<g id="edge7" class="edge">
<title>Node5&#45;&gt;Node7</title>
<path fill="none" stroke="#9a32cd" stroke-dasharray="5,2" d="M94.64,-634.74C157.22,-630.24 279.26,-623 383,-626 444.41,-627.78 459.79,-628.76 521,-634 583.84,-639.38 600.11,-637.85 662,-650 676.9,-652.93 693.16,-657.36 706.68,-661.4"/>
<polygon fill="#9a32cd" stroke="#9a32cd" points="94.11,-631.27 84.39,-635.49 94.62,-638.25 94.11,-631.27"/>
<text text-anchor="middle" x="355.5" y="-640" font-family="Helvetica,sans-Serif" font-size="10.00"> def</text>
<text text-anchor="middle" x="355.5" y="-629" font-family="Helvetica,sans-Serif" font-size="10.00">outerScope</text>
</g>
<!-- Node5&#45;&gt;Node15 -->
<g id="edge18" class="edge">
<title>Node5&#45;&gt;Node15</title>
<path fill="none" stroke="#63b8ff" d="M94.29,-641.61C127.21,-644.49 172.23,-648.43 199.79,-650.84"/>
<polygon fill="#63b8ff" stroke="#63b8ff" points="94.32,-638.1 84.06,-640.72 93.71,-645.07 94.32,-638.1"/>
</g>
<!-- Node6 -->
<g id="node6" class="node">
<title>Node6</title>
<g id="a_node6"><a xlink:href="../../d3/ddf/class_definition_impl.html" target="_top" xlink:title=" ">
<polygon fill="white" stroke="#666666" points="1018.5,-680.5 932.5,-680.5 932.5,-661.5 1018.5,-661.5 1018.5,-680.5"/>
<text text-anchor="middle" x="975.5" y="-668.5" font-family="Helvetica,sans-Serif" font-size="10.00">DefinitionImpl</text>
</a>
</g>
</g>
<!-- Node6&#45;&gt;Node2 -->
<g id="edge5" class="edge">
<title>Node6&#45;&gt;Node2</title>
<path fill="none" stroke="#9a32cd" stroke-dasharray="5,2" d="M1028.88,-670.08C1107.38,-668.88 1260.18,-667.24 1390,-670 1425.76,-670.76 1465.33,-672.33 1498.9,-673.89"/>
<polygon fill="#9a32cd" stroke="#9a32cd" points="1028.71,-666.58 1018.77,-670.24 1028.82,-673.58 1028.71,-666.58"/>
<text text-anchor="middle" x="1300" y="-673" font-family="Helvetica,sans-Serif" font-size="10.00"> m_impl</text>
</g>
<!-- Node17 -->
<g id="node17" class="node">
<title>Node17</title>
<g id="a_node17"><a xlink:href="../../dd/d10/class_definition_mixin.html" target="_top" xlink:title=" ">
<polygon fill="white" stroke="#666666" points="1368.5,-708.5 1231.5,-708.5 1231.5,-689.5 1368.5,-689.5 1368.5,-708.5"/>
<text text-anchor="middle" x="1300" y="-696.5" font-family="Helvetica,sans-Serif" font-size="10.00">DefinitionMixin&lt; Base &gt;</text>
</a>
</g>
</g>
<!-- Node6&#45;&gt;Node17 -->
<g id="edge23" class="edge">
<title>Node6&#45;&gt;Node17</title>
<path fill="none" stroke="#9a32cd" stroke-dasharray="5,2" d="M1028.9,-675.55C1084.01,-680.33 1170.94,-687.88 1231.23,-693.12"/>
<polygon fill="#9a32cd" stroke="#9a32cd" points="1028.93,-672.04 1018.66,-674.66 1028.32,-679.01 1028.93,-672.04"/>
<text text-anchor="middle" x="1127" y="-692" font-family="Helvetica,sans-Serif" font-size="10.00"> m_impl</text>
</g>
<!-- Node7&#45;&gt;Node6 -->
<g id="edge6" class="edge">
<title>Node7&#45;&gt;Node6</title>
<path fill="none" stroke="#9a32cd" stroke-dasharray="5,2" d="M805.19,-671C846.07,-671 897.17,-671 932.48,-671"/>
<polygon fill="#9a32cd" stroke="#9a32cd" points="805.03,-667.5 795.03,-671 805.03,-674.5 805.03,-667.5"/>
<text text-anchor="middle" x="851" y="-674" font-family="Helvetica,sans-Serif" font-size="10.00"> m_impl</text>
</g>
<!-- Node8 -->
<g id="node8" class="node">
<title>Node8</title>
<g id="a_node8"><a xlink:href="../../d1/df9/class_section_refs.html" target="_top" xlink:title="class that represents a list of constant references to sections.">
<polygon fill="white" stroke="#666666" points="498,-933.5 424,-933.5 424,-914.5 498,-914.5 498,-933.5"/>
<text text-anchor="middle" x="461" y="-921.5" font-family="Helvetica,sans-Serif" font-size="10.00">SectionRefs</text>
</a>
</g>
</g>
<!-- Node8&#45;&gt;Node7 -->
<g id="edge8" class="edge">
<title>Node8&#45;&gt;Node7</title>
<path fill="none" stroke="#9a32cd" stroke-dasharray="5,2" d="M499.76,-910.49C506.98,-907.39 514.36,-903.86 521,-900 589.95,-859.91 608.6,-848.24 662,-789 694.28,-753.19 721.39,-701.75 731.87,-680.62"/>
<polygon fill="#9a32cd" stroke="#9a32cd" points="498.02,-907.42 490.08,-914.43 500.66,-913.9 498.02,-907.42"/>
<text text-anchor="middle" x="600.5" y="-891" font-family="Helvetica,sans-Serif" font-size="10.00"> sectionRefs</text>
</g>
<!-- Node9 -->
<g id="node9" class="node">
<title>Node9</title>
<g id="a_node9"><a xlink:href="../../d3/d3b/class_group_list.html" target="_top" xlink:title=" ">
<polygon fill="white" stroke="#666666" points="492.5,-566.5 429.5,-566.5 429.5,-547.5 492.5,-547.5 492.5,-566.5"/>
<text text-anchor="middle" x="461" y="-554.5" font-family="Helvetica,sans-Serif" font-size="10.00">GroupList</text>
</a>
</g>
</g>
<!-- Node9&#45;&gt;Node1 -->
<g id="edge36" class="edge">
<title>Node9&#45;&gt;Node1</title>
<path fill="none" stroke="#9a32cd" stroke-dasharray="5,2" d="M494.93,-543.82C508.38,-538.98 524.23,-533.97 539,-531 625.28,-513.67 648.5,-517 736.5,-517 736.5,-517 736.5,-517 1580,-517 1700.87,-517 1756.12,-554.35 1849,-477 1901.01,-433.69 1907.68,-342.78 1908.44,-312.81"/>
<polygon fill="#9a32cd" stroke="#9a32cd" points="493.32,-540.69 485.17,-547.45 495.76,-547.25 493.32,-540.69"/>
<text text-anchor="middle" x="1127" y="-520" font-family="Helvetica,sans-Serif" font-size="10.00"> m_groups</text>
</g>
<!-- Node9&#45;&gt;Node7 -->
<g id="edge9" class="edge">
<title>Node9&#45;&gt;Node7</title>
<path fill="none" stroke="#9a32cd" stroke-dasharray="5,2" d="M502.66,-565.61C514.38,-568.05 527.19,-570.67 539,-573 593.56,-583.77 612.85,-569.98 662,-596 692.5,-612.14 718.38,-645.02 729.98,-661.35"/>
<polygon fill="#9a32cd" stroke="#9a32cd" points="503.2,-562.14 492.7,-563.53 501.77,-569 503.2,-562.14"/>
<text text-anchor="middle" x="600.5" y="-599" font-family="Helvetica,sans-Serif" font-size="10.00"> partOfGroups</text>
</g>
<!-- Node10 -->
<g id="node10" class="node">
<title>Node10</title>
<g id="a_node10"><a xlink:title=" ">
<polygon fill="white" stroke="#666666" points="278.5,-572 172.5,-572 172.5,-542 278.5,-542 278.5,-572"/>
<text text-anchor="start" x="180.5" y="-560" font-family="Helvetica,sans-Serif" font-size="10.00">std::vector&lt; const</text>
<text text-anchor="middle" x="225.5" y="-549" font-family="Helvetica,sans-Serif" font-size="10.00"> GroupDef * &gt;</text>
</a>
</g>
</g>
<!-- Node10&#45;&gt;Node9 -->
<g id="edge10" class="edge">
<title>Node10&#45;&gt;Node9</title>
<path fill="none" stroke="#63b8ff" d="M288.67,-557C334.16,-557 393.91,-557 429.5,-557"/>
<polygon fill="#63b8ff" stroke="#63b8ff" points="288.61,-553.5 278.61,-557 288.61,-560.5 288.61,-553.5"/>
</g>
<!-- Node11 -->
<g id="node11" class="node">
<title>Node11</title>
<g id="a_node11"><a xlink:href="../../d7/dd5/struct_doc_info.html" target="_top" xlink:title="Data associated with a detailed description.">
<polygon fill="white" stroke="#666666" points="488,-698.5 434,-698.5 434,-679.5 488,-679.5 488,-698.5"/>
<text text-anchor="middle" x="461" y="-686.5" font-family="Helvetica,sans-Serif" font-size="10.00">DocInfo</text>
</a>
</g>
</g>
<!-- Node11&#45;&gt;Node7 -->
<g id="edge11" class="edge">
<title>Node11&#45;&gt;Node7</title>
<path fill="none" stroke="#9a32cd" stroke-dasharray="5,2" d="M498.51,-686.61C544.91,-683.56 625.5,-678.28 679.9,-674.71"/>
<polygon fill="#9a32cd" stroke="#9a32cd" points="498.07,-683.13 488.32,-687.27 498.53,-690.11 498.07,-683.13"/>
<text text-anchor="middle" x="600.5" y="-697" font-family="Helvetica,sans-Serif" font-size="10.00"> details</text>
<text text-anchor="middle" x="600.5" y="-686" font-family="Helvetica,sans-Serif" font-size="10.00">inbodyDocs</text>
</g>
<!-- Node12 -->
<g id="node12" class="node">
<title>Node12</title>
<g id="a_node12"><a xlink:href="../../d9/d45/class_q_c_string.html" target="_top" xlink:title="This is an alternative implementation of QCString.">
<polygon fill="white" stroke="#666666" points="255,-741.5 196,-741.5 196,-722.5 255,-722.5 255,-741.5"/>
<text text-anchor="middle" x="225.5" y="-729.5" font-family="Helvetica,sans-Serif" font-size="10.00">QCString</text>
</a>
</g>
</g>
<!-- Node12&#45;&gt;Node1 -->
<g id="edge24" class="edge">
<title>Node12&#45;&gt;Node1</title>
<path fill="none" stroke="#9a32cd" stroke-dasharray="5,2" d="M265.37,-733.63C280.64,-736 297.47,-740.95 310,-751 319.21,-758.39 392.12,-935.22 401,-943 421.71,-961.16 432.45,-962 460,-962 460,-962 460,-962 1580,-962 1883.93,-962 1906.67,-393.61 1908.36,-312.57"/>
<polygon fill="#9a32cd" stroke="#9a32cd" points="265.47,-730.12 255.12,-732.38 264.62,-737.07 265.47,-730.12"/>
<text text-anchor="middle" x="975.5" y="-976" font-family="Helvetica,sans-Serif" font-size="10.00"> m_fileName</text>
<text text-anchor="middle" x="975.5" y="-965" font-family="Helvetica,sans-Serif" font-size="10.00">m_title</text>
</g>
<!-- Node12&#45;&gt;Node7 -->
<g id="edge19" class="edge">
<title>Node12&#45;&gt;Node7</title>
<path fill="none" stroke="#9a32cd" stroke-dasharray="5,2" d="M265.28,-736.91C279.82,-739.74 296.17,-744.16 310,-751 319.33,-755.62 318.21,-762.45 328,-766 365.38,-779.53 546.98,-793.86 662,-742 692.46,-728.27 718.17,-696.71 729.82,-680.7"/>
<polygon fill="#9a32cd" stroke="#9a32cd" points="265.52,-733.4 255.07,-735.11 264.31,-740.29 265.52,-733.4"/>
<text text-anchor="middle" x="461" y="-891" font-family="Helvetica,sans-Serif" font-size="10.00"> briefSignatures</text>
<text text-anchor="middle" x="461" y="-880" font-family="Helvetica,sans-Serif" font-size="10.00">defFileExt</text>
<text text-anchor="middle" x="461" y="-869" font-family="Helvetica,sans-Serif" font-size="10.00">defFileName</text>
<text text-anchor="middle" x="461" y="-858" font-family="Helvetica,sans-Serif" font-size="10.00">docSignatures</text>
<text text-anchor="middle" x="461" y="-847" font-family="Helvetica,sans-Serif" font-size="10.00">id</text>
<text text-anchor="middle" x="461" y="-836" font-family="Helvetica,sans-Serif" font-size="10.00">localName</text>
<text text-anchor="middle" x="461" y="-825" font-family="Helvetica,sans-Serif" font-size="10.00">name</text>
<text text-anchor="middle" x="461" y="-814" font-family="Helvetica,sans-Serif" font-size="10.00">qualifiedName</text>
<text text-anchor="middle" x="461" y="-803" font-family="Helvetica,sans-Serif" font-size="10.00">ref</text>
<text text-anchor="middle" x="461" y="-792" font-family="Helvetica,sans-Serif" font-size="10.00">symbolName</text>
<text text-anchor="middle" x="461" y="-781" font-family="Helvetica,sans-Serif" font-size="10.00">...</text>
</g>
<!-- Node12&#45;&gt;Node11 -->
<g id="edge12" class="edge">
<title>Node12&#45;&gt;Node11</title>
<path fill="none" stroke="#9a32cd" stroke-dasharray="5,2" d="M264.81,-719.91C283.67,-714.35 306.85,-708.09 328,-704 364.23,-696.99 406.74,-692.88 433.52,-690.79"/>
<polygon fill="#9a32cd" stroke="#9a32cd" points="263.66,-716.6 255.09,-722.83 265.68,-723.3 263.66,-716.6"/>
<text text-anchor="middle" x="355.5" y="-718" font-family="Helvetica,sans-Serif" font-size="10.00"> doc</text>
<text text-anchor="middle" x="355.5" y="-707" font-family="Helvetica,sans-Serif" font-size="10.00">file</text>
</g>
<!-- Node13 -->
<g id="node13" class="node">
<title>Node13</title>
<g id="a_node13"><a xlink:href="../../d0/da7/struct_brief_info.html" target="_top" xlink:title="Data associated with a brief description.">
<polygon fill="white" stroke="#666666" points="490.5,-738.5 431.5,-738.5 431.5,-719.5 490.5,-719.5 490.5,-738.5"/>
<text text-anchor="middle" x="461" y="-726.5" font-family="Helvetica,sans-Serif" font-size="10.00">BriefInfo</text>
</a>
</g>
</g>
<!-- Node12&#45;&gt;Node13 -->
<g id="edge14" class="edge">
<title>Node12&#45;&gt;Node13</title>
<path fill="none" stroke="#9a32cd" stroke-dasharray="5,2" d="M265.2,-731.5C312.04,-730.9 389.8,-729.9 431.5,-729.37"/>
<polygon fill="#9a32cd" stroke="#9a32cd" points="265.09,-728 255.13,-731.63 265.18,-735 265.09,-728"/>
<text text-anchor="middle" x="355.5" y="-755" font-family="Helvetica,sans-Serif" font-size="10.00"> doc</text>
<text text-anchor="middle" x="355.5" y="-744" font-family="Helvetica,sans-Serif" font-size="10.00">file</text>
<text text-anchor="middle" x="355.5" y="-733" font-family="Helvetica,sans-Serif" font-size="10.00">tooltip</text>
</g>
<!-- Node13&#45;&gt;Node7 -->
<g id="edge13" class="edge">
<title>Node13&#45;&gt;Node7</title>
<path fill="none" stroke="#9a32cd" stroke-dasharray="5,2" d="M500.88,-729.34C541.78,-728.72 607.64,-724.97 662,-709 684.01,-702.54 707.23,-689.58 721.78,-680.6"/>
<polygon fill="#9a32cd" stroke="#9a32cd" points="500.75,-725.84 490.79,-729.43 500.82,-732.84 500.75,-725.84"/>
<text text-anchor="middle" x="600.5" y="-730" font-family="Helvetica,sans-Serif" font-size="10.00"> brief</text>
</g>
<!-- Node14 -->
<g id="node14" class="node">
<title>Node14</title>
<g id="a_node14"><a xlink:href="../../db/dab/struct_body_info.html" target="_top" xlink:title="Data associated with description found in the body.">
<polygon fill="white" stroke="#666666" points="491,-661.5 431,-661.5 431,-642.5 491,-642.5 491,-661.5"/>
<text text-anchor="middle" x="461" y="-649.5" font-family="Helvetica,sans-Serif" font-size="10.00">BodyInfo</text>
</a>
</g>
</g>
<!-- Node14&#45;&gt;Node7 -->
<g id="edge15" class="edge">
<title>Node14&#45;&gt;Node7</title>
<path fill="none" stroke="#9a32cd" stroke-dasharray="5,2" d="M501.43,-652.75C541.81,-653.75 606.39,-656.03 662,-661 667.72,-661.51 673.67,-662.14 679.61,-662.84"/>
<polygon fill="#9a32cd" stroke="#9a32cd" points="501.28,-649.24 491.2,-652.51 501.12,-656.24 501.28,-649.24"/>
<text text-anchor="middle" x="600.5" y="-664" font-family="Helvetica,sans-Serif" font-size="10.00"> body</text>
</g>
<!-- Node15&#45;&gt;Node14 -->
<g id="edge16" class="edge">
<title>Node15&#45;&gt;Node14</title>
<path fill="none" stroke="#9a32cd" stroke-dasharray="5,2" d="M261.13,-652.85C307.13,-652.65 387.56,-652.31 430.69,-652.13"/>
<polygon fill="#9a32cd" stroke="#9a32cd" points="261.03,-649.35 251.05,-652.89 261.06,-656.35 261.03,-649.35"/>
<text text-anchor="middle" x="355.5" y="-655" font-family="Helvetica,sans-Serif" font-size="10.00"> fileDef</text>
</g>
<!-- Node16 -->
<g id="node16" class="node">
<title>Node16</title>
<g id="a_node16"><a xlink:href="../../d1/d7d/class_member_vector.html" target="_top" xlink:title="A vector of MemberDef object.">
<polygon fill="white" stroke="#666666" points="505,-523.5 417,-523.5 417,-504.5 505,-504.5 505,-523.5"/>
<text text-anchor="middle" x="461" y="-511.5" font-family="Helvetica,sans-Serif" font-size="10.00">MemberVector</text>
</a>
</g>
</g>
<!-- Node16&#45;&gt;Node7 -->
<g id="edge20" class="edge">
<title>Node16&#45;&gt;Node7</title>
<path fill="none" stroke="#9a32cd" stroke-dasharray="5,2" d="M515.24,-511.04C558.32,-511.23 618.74,-517.62 662,-547 704.38,-575.79 726.53,-637.44 733.77,-661.29"/>
<polygon fill="#9a32cd" stroke="#9a32cd" points="515.2,-507.54 505.23,-511.1 515.25,-514.54 515.2,-507.54"/>
<text text-anchor="middle" x="600.5" y="-561" font-family="Helvetica,sans-Serif" font-size="10.00"> referencedByMembers</text>
<text text-anchor="middle" x="600.5" y="-550" font-family="Helvetica,sans-Serif" font-size="10.00">referencesMembers</text>
</g>
<!-- Node32 -->
<g id="node32" class="node">
<title>Node32</title>
<g id="a_node32"><a xlink:href="../../dd/d13/class_member_list.html" target="_top" xlink:title="A list of MemberDef objects as shown in documentation sections.">
<polygon fill="white" stroke="#666666" points="774.5,-487.5 700.5,-487.5 700.5,-468.5 774.5,-468.5 774.5,-487.5"/>
<text text-anchor="middle" x="737.5" y="-475.5" font-family="Helvetica,sans-Serif" font-size="10.00">MemberList</text>
</a>
</g>
</g>
<!-- Node16&#45;&gt;Node32 -->
<g id="edge43" class="edge">
<title>Node16&#45;&gt;Node32</title>
<path fill="none" stroke="#63b8ff" d="M515.35,-507C569.79,-499.86 652.82,-488.97 700.13,-482.77"/>
<polygon fill="#63b8ff" stroke="#63b8ff" points="514.65,-503.56 505.19,-508.34 515.56,-510.51 514.65,-503.56"/>
</g>
<!-- Node17&#45;&gt;Node2 -->
<g id="edge21" class="edge">
<title>Node17&#45;&gt;Node2</title>
<path fill="none" stroke="orange" stroke-dasharray="5,2" d="M1379.12,-693.08C1416.56,-690.24 1461.33,-686.84 1498.91,-684"/>
<polygon fill="orange" stroke="orange" points="1378.47,-689.62 1368.76,-693.86 1379,-696.6 1378.47,-689.62"/>
<text text-anchor="middle" x="1444.5" y="-693" font-family="Helvetica,sans-Serif" font-size="10.00"> &lt; GroupDef &gt;</text>
</g>
<!-- Node18 -->
<g id="node18" class="node">
<title>Node18</title>
<g id="a_node18"><a xlink:title=" ">
<polygon fill="white" stroke="#666666" points="996,-728.5 955,-728.5 955,-709.5 996,-709.5 996,-728.5"/>
<text text-anchor="middle" x="975.5" y="-716.5" font-family="Helvetica,sans-Serif" font-size="10.00">Base</text>
</a>
</g>
</g>
<!-- Node18&#45;&gt;Node17 -->
<g id="edge22" class="edge">
<title>Node18&#45;&gt;Node17</title>
<path fill="none" stroke="#63b8ff" d="M1006.17,-717.16C1056.95,-714.01 1161.75,-707.51 1231.21,-703.2"/>
<polygon fill="#63b8ff" stroke="#63b8ff" points="1005.95,-713.67 996.19,-717.78 1006.39,-720.65 1005.95,-713.67"/>
</g>
<!-- Node19 -->
<g id="node19" class="node">
<title>Node19</title>
<g id="a_node19"><a xlink:href="../../d0/d18/class_file_list.html" target="_top" xlink:title=" ">
<polygon fill="white" stroke="#666666" points="1604.5,-426.5 1553.5,-426.5 1553.5,-407.5 1604.5,-407.5 1604.5,-426.5"/>
<text text-anchor="middle" x="1579" y="-414.5" font-family="Helvetica,sans-Serif" font-size="10.00">FileList</text>
</a>
</g>
</g>
<!-- Node19&#45;&gt;Node1 -->
<g id="edge25" class="edge">
<title>Node19&#45;&gt;Node1</title>
<path fill="none" stroke="#9a32cd" stroke-dasharray="5,2" d="M1614.86,-422.12C1669.05,-428.26 1774.95,-432.85 1849,-389 1879.31,-371.05 1897.85,-330.92 1905.05,-312.53"/>
<polygon fill="#9a32cd" stroke="#9a32cd" points="1615.09,-418.62 1604.74,-420.88 1614.24,-425.57 1615.09,-418.62"/>
<text text-anchor="middle" x="1763" y="-429" font-family="Helvetica,sans-Serif" font-size="10.00"> m_fileList</text>
</g>
<!-- Node20 -->
<g id="node20" class="node">
<title>Node20</title>
<g id="a_node20"><a xlink:title=" ">
<polygon fill="white" stroke="#666666" points="1353,-442 1247,-442 1247,-412 1353,-412 1353,-442"/>
<text text-anchor="start" x="1255" y="-430" font-family="Helvetica,sans-Serif" font-size="10.00">std::vector&lt; const</text>
<text text-anchor="middle" x="1300" y="-419" font-family="Helvetica,sans-Serif" font-size="10.00"> FileDef * &gt;</text>
</a>
</g>
</g>
<!-- Node20&#45;&gt;Node19 -->
<g id="edge26" class="edge">
<title>Node20&#45;&gt;Node19</title>
<path fill="none" stroke="#63b8ff" d="M1363.23,-424.75C1423.29,-422.59 1511.14,-419.41 1553.44,-417.89"/>
<polygon fill="#63b8ff" stroke="#63b8ff" points="1362.97,-421.26 1353.1,-425.12 1363.22,-428.26 1362.97,-421.26"/>
</g>
<!-- Node21 -->
<g id="node21" class="node">
<title>Node21</title>
<g id="a_node21"><a xlink:href="../../da/d08/class_class_linked_ref_map.html" target="_top" xlink:title=" ">
<polygon fill="white" stroke="#666666" points="1635,-293.5 1523,-293.5 1523,-274.5 1635,-274.5 1635,-293.5"/>
<text text-anchor="middle" x="1579" y="-281.5" font-family="Helvetica,sans-Serif" font-size="10.00">ClassLinkedRefMap</text>
</a>
</g>
</g>
<!-- Node21&#45;&gt;Node1 -->
<g id="edge27" class="edge">
<title>Node21&#45;&gt;Node1</title>
<path fill="none" stroke="#9a32cd" stroke-dasharray="5,2" d="M1645.38,-280.76C1700.05,-279.05 1779.94,-278.91 1849,-288 1857.98,-289.18 1867.55,-291.23 1876.34,-293.45"/>
<polygon fill="#9a32cd" stroke="#9a32cd" points="1645.02,-277.27 1635.14,-281.1 1645.25,-284.26 1645.02,-277.27"/>
<text text-anchor="middle" x="1763" y="-291" font-family="Helvetica,sans-Serif" font-size="10.00"> m_classes</text>
</g>
<!-- Node22 -->
<g id="node22" class="node">
<title>Node22</title>
<g id="a_node22"><a xlink:href="../../d2/db7/class_linked_ref_map.html" target="_top" xlink:title=" ">
<polygon fill="white" stroke="#666666" points="1361.5,-298 1238.5,-298 1238.5,-268 1361.5,-268 1361.5,-298"/>
<text text-anchor="start" x="1246.5" y="-286" font-family="Helvetica,sans-Serif" font-size="10.00">LinkedRefMap&lt; const</text>
<text text-anchor="middle" x="1300" y="-275" font-family="Helvetica,sans-Serif" font-size="10.00"> ClassDef &gt;</text>
</a>
</g>
</g>
<!-- Node22&#45;&gt;Node21 -->
<g id="edge28" class="edge">
<title>Node22&#45;&gt;Node21</title>
<path fill="none" stroke="#63b8ff" d="M1371.9,-283.26C1418.89,-283.43 1479.65,-283.64 1522.99,-283.8"/>
<polygon fill="#63b8ff" stroke="#63b8ff" points="1371.8,-279.76 1361.79,-283.22 1371.78,-286.76 1371.8,-279.76"/>
</g>
<!-- Node23 -->
<g id="node23" class="node">
<title>Node23</title>
<g id="a_node23"><a xlink:href="../../d2/db7/class_linked_ref_map.html" target="_top" xlink:title="Container class representing a vector of objects with keys.">
<polygon fill="white" stroke="#666666" points="1044,-320 907,-320 907,-290 1044,-290 1044,-320"/>
<text text-anchor="start" x="915" y="-308" font-family="Helvetica,sans-Serif" font-size="10.00">LinkedRefMap&lt; T, Hash,</text>
<text text-anchor="middle" x="975.5" y="-297" font-family="Helvetica,sans-Serif" font-size="10.00"> KeyEqual, Map &gt;</text>
</a>
</g>
</g>
<!-- Node23&#45;&gt;Node22 -->
<g id="edge29" class="edge">
<title>Node23&#45;&gt;Node22</title>
<path fill="none" stroke="orange" stroke-dasharray="5,2" d="M1054.24,-291.83C1056.85,-291.53 1059.45,-291.25 1062,-291 1121.82,-285.12 1190.49,-283.34 1238.46,-282.9"/>
<polygon fill="orange" stroke="orange" points="1053.55,-288.39 1044.07,-293.11 1054.43,-295.34 1053.55,-288.39"/>
<text text-anchor="middle" x="1127" y="-294" font-family="Helvetica,sans-Serif" font-size="10.00"> &lt; const ClassDef &gt;</text>
</g>
<!-- Node25 -->
<g id="node25" class="node">
<title>Node25</title>
<g id="a_node25"><a xlink:href="../../d2/db7/class_linked_ref_map.html" target="_top" xlink:title=" ">
<polygon fill="white" stroke="#666666" points="1361.5,-250 1238.5,-250 1238.5,-220 1361.5,-220 1361.5,-250"/>
<text text-anchor="start" x="1246.5" y="-238" font-family="Helvetica,sans-Serif" font-size="10.00">LinkedRefMap&lt; const</text>
<text text-anchor="middle" x="1300" y="-227" font-family="Helvetica,sans-Serif" font-size="10.00"> ConceptDef &gt;</text>
</a>
</g>
</g>
<!-- Node23&#45;&gt;Node25 -->
<g id="edge32" class="edge">
<title>Node23&#45;&gt;Node25</title>
<path fill="none" stroke="orange" stroke-dasharray="5,2" d="M1014.97,-285.72C1029.41,-279.2 1046.16,-272.44 1062,-268 1120.6,-251.57 1189.75,-243.14 1238.18,-238.93"/>
<polygon fill="orange" stroke="orange" points="1013.45,-282.57 1005.85,-289.95 1016.4,-288.92 1013.45,-282.57"/>
<text text-anchor="middle" x="1127" y="-271" font-family="Helvetica,sans-Serif" font-size="10.00"> &lt; const ConceptDef &gt;</text>
</g>
<!-- Node27 -->
<g id="node27" class="node">
<title>Node27</title>
<g id="a_node27"><a xlink:href="../../d2/db7/class_linked_ref_map.html" target="_top" xlink:title=" ">
<polygon fill="white" stroke="#666666" points="1361.5,-394 1238.5,-394 1238.5,-364 1361.5,-364 1361.5,-394"/>
<text text-anchor="start" x="1246.5" y="-382" font-family="Helvetica,sans-Serif" font-size="10.00">LinkedRefMap&lt; const</text>
<text text-anchor="middle" x="1300" y="-371" font-family="Helvetica,sans-Serif" font-size="10.00"> NamespaceDef &gt;</text>
</a>
</g>
</g>
<!-- Node23&#45;&gt;Node27 -->
<g id="edge35" class="edge">
<title>Node23&#45;&gt;Node27</title>
<path fill="none" stroke="orange" stroke-dasharray="5,2" d="M1023.6,-323.68C1035.96,-328.14 1049.37,-332.59 1062,-336 1121.15,-351.97 1190.21,-363.74 1238.47,-370.89"/>
<polygon fill="orange" stroke="orange" points="1024.54,-320.3 1013.94,-320.12 1022.11,-326.87 1024.54,-320.3"/>
<text text-anchor="middle" x="1127" y="-366" font-family="Helvetica,sans-Serif" font-size="10.00"> &lt; const NamespaceDef &gt;</text>
</g>
<!-- Node29 -->
<g id="node29" class="node">
<title>Node29</title>
<g id="a_node29"><a xlink:href="../../d2/db7/class_linked_ref_map.html" target="_top" xlink:title=" ">
<polygon fill="white" stroke="#666666" points="1361.5,-346 1238.5,-346 1238.5,-316 1361.5,-316 1361.5,-346"/>
<text text-anchor="start" x="1246.5" y="-334" font-family="Helvetica,sans-Serif" font-size="10.00">LinkedRefMap&lt; const</text>
<text text-anchor="middle" x="1300" y="-323" font-family="Helvetica,sans-Serif" font-size="10.00"> PageDef &gt;</text>
</a>
</g>
</g>
<!-- Node23&#45;&gt;Node29 -->
<g id="edge39" class="edge">
<title>Node23&#45;&gt;Node29</title>
<path fill="none" stroke="orange" stroke-dasharray="5,2" d="M1054.08,-311.25C1110.61,-315.81 1186.12,-321.9 1238.28,-326.11"/>
<polygon fill="orange" stroke="orange" points="1054.36,-307.77 1044.11,-310.45 1053.79,-314.74 1054.36,-307.77"/>
<text text-anchor="middle" x="1127" y="-324" font-family="Helvetica,sans-Serif" font-size="10.00"> &lt; const PageDef &gt;</text>
</g>
<!-- Node24 -->
<g id="node24" class="node">
<title>Node24</title>
<g id="a_node24"><a xlink:href="../../d4/daa/class_concept_linked_ref_map.html" target="_top" xlink:title=" ">
<polygon fill="white" stroke="#666666" points="1641.5,-251.5 1516.5,-251.5 1516.5,-232.5 1641.5,-232.5 1641.5,-251.5"/>
<text text-anchor="middle" x="1579" y="-239.5" font-family="Helvetica,sans-Serif" font-size="10.00">ConceptLinkedRefMap</text>
</a>
</g>
</g>
<!-- Node24&#45;&gt;Node1 -->
<g id="edge30" class="edge">
<title>Node24&#45;&gt;Node1</title>
<path fill="none" stroke="#9a32cd" stroke-dasharray="5,2" d="M1651.65,-238.37C1707,-237.8 1784.75,-241.93 1849,-264 1867.69,-270.42 1886.26,-284.05 1897.56,-293.37"/>
<polygon fill="#9a32cd" stroke="#9a32cd" points="1651.52,-234.87 1641.58,-238.53 1651.63,-241.87 1651.52,-234.87"/>
<text text-anchor="middle" x="1763" y="-267" font-family="Helvetica,sans-Serif" font-size="10.00"> m_concepts</text>
</g>
<!-- Node25&#45;&gt;Node24 -->
<g id="edge31" class="edge">
<title>Node25&#45;&gt;Node24</title>
<path fill="none" stroke="#63b8ff" d="M1371.98,-236.79C1416.63,-237.92 1473.66,-239.36 1516.4,-240.44"/>
<polygon fill="#63b8ff" stroke="#63b8ff" points="1371.87,-233.29 1361.79,-236.54 1371.7,-240.29 1371.87,-233.29"/>
</g>
<!-- Node26 -->
<g id="node26" class="node">
<title>Node26</title>
<g id="a_node26"><a xlink:href="../../da/df0/class_namespace_linked_ref_map.html" target="_top" xlink:title=" ">
<polygon fill="white" stroke="#666666" points="1650.5,-384.5 1507.5,-384.5 1507.5,-365.5 1650.5,-365.5 1650.5,-384.5"/>
<text text-anchor="middle" x="1579" y="-372.5" font-family="Helvetica,sans-Serif" font-size="10.00">NamespaceLinkedRefMap</text>
</a>
</g>
</g>
<!-- Node26&#45;&gt;Node1 -->
<g id="edge33" class="edge">
<title>Node26&#45;&gt;Node1</title>
<path fill="none" stroke="#9a32cd" stroke-dasharray="5,2" d="M1660.99,-375.22C1715.63,-373.01 1788.52,-365.43 1849,-343 1867.67,-336.08 1886.25,-322.18 1897.55,-312.73"/>
<polygon fill="#9a32cd" stroke="#9a32cd" points="1660.53,-371.73 1650.66,-375.58 1660.77,-378.73 1660.53,-371.73"/>
<text text-anchor="middle" x="1763" y="-377" font-family="Helvetica,sans-Serif" font-size="10.00"> m_namespaces</text>
</g>
<!-- Node27&#45;&gt;Node26 -->
<g id="edge34" class="edge">
<title>Node27&#45;&gt;Node26</title>
<path fill="none" stroke="#63b8ff" d="M1371.84,-377.98C1413.42,-377.38 1465.77,-376.62 1507.32,-376.02"/>
<polygon fill="#63b8ff" stroke="#63b8ff" points="1371.74,-374.48 1361.79,-378.12 1371.84,-381.48 1371.74,-374.48"/>
</g>
<!-- Node28 -->
<g id="node28" class="node">
<title>Node28</title>
<g id="a_node28"><a xlink:href="../../d9/de6/class_page_linked_ref_map.html" target="_top" xlink:title=" ">
<polygon fill="white" stroke="#666666" points="1633.5,-333.5 1524.5,-333.5 1524.5,-314.5 1633.5,-314.5 1633.5,-333.5"/>
<text text-anchor="middle" x="1579" y="-321.5" font-family="Helvetica,sans-Serif" font-size="10.00">PageLinkedRefMap</text>
</a>
</g>
</g>
<!-- Node28&#45;&gt;Node1 -->
<g id="edge37" class="edge">
<title>Node28&#45;&gt;Node1</title>
<path fill="none" stroke="#9a32cd" stroke-dasharray="5,2" d="M1643.78,-319.92C1709.71,-315.71 1810.72,-309.25 1866.99,-305.65"/>
<polygon fill="#9a32cd" stroke="#9a32cd" points="1643.27,-316.45 1633.51,-320.58 1643.71,-323.43 1643.27,-316.45"/>
<text text-anchor="middle" x="1763" y="-331" font-family="Helvetica,sans-Serif" font-size="10.00"> m_examples</text>
<text text-anchor="middle" x="1763" y="-320" font-family="Helvetica,sans-Serif" font-size="10.00">m_pages</text>
</g>
<!-- Node29&#45;&gt;Node28 -->
<g id="edge38" class="edge">
<title>Node29&#45;&gt;Node28</title>
<path fill="none" stroke="#63b8ff" d="M1372,-329.21C1419.48,-328.01 1480.97,-326.45 1524.37,-325.36"/>
<polygon fill="#63b8ff" stroke="#63b8ff" points="1371.7,-325.71 1361.79,-329.46 1371.87,-332.71 1371.7,-325.71"/>
</g>
<!-- Node30 -->
<g id="node30" class="node">
<title>Node30</title>
<g id="a_node30"><a xlink:href="../../dc/d2a/class_dir_list.html" target="_top" xlink:title="A list of directories.">
<polygon fill="white" stroke="#666666" points="1603,-203.5 1555,-203.5 1555,-184.5 1603,-184.5 1603,-203.5"/>
<text text-anchor="middle" x="1579" y="-191.5" font-family="Helvetica,sans-Serif" font-size="10.00">DirList</text>
</a>
</g>
</g>
<!-- Node30&#45;&gt;Node1 -->
<g id="edge40" class="edge">
<title>Node30&#45;&gt;Node1</title>
<path fill="none" stroke="#9a32cd" stroke-dasharray="5,2" d="M1613.05,-189.52C1666.49,-183.94 1773.5,-179.83 1849,-223 1877.7,-239.41 1896.7,-275.86 1904.49,-293.32"/>
<polygon fill="#9a32cd" stroke="#9a32cd" points="1612.65,-186.04 1603.1,-190.64 1613.43,-193 1612.65,-186.04"/>
<text text-anchor="middle" x="1763" y="-226" font-family="Helvetica,sans-Serif" font-size="10.00"> m_dirList</text>
</g>
<!-- Node31 -->
<g id="node31" class="node">
<title>Node31</title>
<g id="a_node31"><a xlink:title=" ">
<polygon fill="white" stroke="#666666" points="1353,-202 1247,-202 1247,-172 1353,-172 1353,-202"/>
<text text-anchor="start" x="1255" y="-190" font-family="Helvetica,sans-Serif" font-size="10.00">std::vector&lt; const</text>
<text text-anchor="middle" x="1300" y="-179" font-family="Helvetica,sans-Serif" font-size="10.00"> DirDef * &gt;</text>
</a>
</g>
</g>
<!-- Node31&#45;&gt;Node30 -->
<g id="edge41" class="edge">
<title>Node31&#45;&gt;Node30</title>
<path fill="none" stroke="#63b8ff" d="M1363.34,-188.58C1424.06,-190.11 1513.12,-192.36 1554.83,-193.41"/>
<polygon fill="#63b8ff" stroke="#63b8ff" points="1363.19,-185.07 1353.1,-188.32 1363.01,-192.07 1363.19,-185.07"/>
</g>
<!-- Node32&#45;&gt;Node1 -->
<g id="edge42" class="edge">
<title>Node32&#45;&gt;Node1</title>
<path fill="none" stroke="#9a32cd" stroke-dasharray="5,2" d="M785.18,-478C832.79,-478 908.79,-478 974.5,-478 974.5,-478 974.5,-478 1580,-478 1700.68,-478 1752.94,-514.05 1849,-441 1891.99,-408.31 1904.36,-338.26 1907.52,-312.64"/>
<polygon fill="#9a32cd" stroke="#9a32cd" points="784.89,-474.5 774.89,-478 784.89,-481.5 784.89,-474.5"/>
<text text-anchor="middle" x="1300" y="-481" font-family="Helvetica,sans-Serif" font-size="10.00"> m_allMemberList</text>
</g>
<!-- Node33 -->
<g id="node33" class="node">
<title>Node33</title>
<g id="a_node33"><a xlink:href="../../d4/d15/class_member_group_ref_list.html" target="_top" xlink:title=" ">
<polygon fill="white" stroke="#666666" points="521,-475.5 401,-475.5 401,-456.5 521,-456.5 521,-475.5"/>
<text text-anchor="middle" x="461" y="-463.5" font-family="Helvetica,sans-Serif" font-size="10.00">MemberGroupRefList</text>
</a>
</g>
</g>
<!-- Node33&#45;&gt;Node32 -->
<g id="edge44" class="edge">
<title>Node33&#45;&gt;Node32</title>
<path fill="none" stroke="#9a32cd" stroke-dasharray="5,2" d="M531.24,-463.94C569.79,-463.4 618.62,-463.71 662,-467 674.52,-467.95 688.12,-469.73 700.24,-471.59"/>
<polygon fill="#9a32cd" stroke="#9a32cd" points="531.1,-460.44 521.16,-464.1 531.22,-467.44 531.1,-460.44"/>
<text text-anchor="middle" x="600.5" y="-470" font-family="Helvetica,sans-Serif" font-size="10.00"> m_memberGroupRefList</text>
</g>
<!-- Node34 -->
<g id="node34" class="node">
<title>Node34</title>
<g id="a_node34"><a xlink:title=" ">
<polygon fill="white" stroke="#666666" points="310,-475.5 141,-475.5 141,-456.5 310,-456.5 310,-475.5"/>
<text text-anchor="middle" x="225.5" y="-463.5" font-family="Helvetica,sans-Serif" font-size="10.00">std::vector&lt; MemberGroup * &gt;</text>
</a>
</g>
</g>
<!-- Node34&#45;&gt;Node33 -->
<g id="edge45" class="edge">
<title>Node34&#45;&gt;Node33</title>
<path fill="none" stroke="#63b8ff" d="M320.43,-466C347.54,-466 376.36,-466 400.73,-466"/>
<polygon fill="#63b8ff" stroke="#63b8ff" points="320.14,-462.5 310.14,-466 320.14,-469.5 320.14,-462.5"/>
</g>
<!-- Node35 -->
<g id="node35" class="node">
<title>Node35</title>
<g id="a_node35"><a xlink:href="../../de/d04/class_member_name_info_linked_map.html" target="_top" xlink:title=" ">
<polygon fill="white" stroke="#666666" points="1658,-115.5 1500,-115.5 1500,-96.5 1658,-96.5 1658,-115.5"/>
<text text-anchor="middle" x="1579" y="-103.5" font-family="Helvetica,sans-Serif" font-size="10.00">MemberNameInfoLinkedMap</text>
</a>
</g>
</g>
<!-- Node35&#45;&gt;Node1 -->
<g id="edge46" class="edge">
<title>Node35&#45;&gt;Node1</title>
<path fill="none" stroke="#9a32cd" stroke-dasharray="5,2" d="M1668.36,-99.77C1735.74,-96.91 1821.5,-97.95 1849,-119 1906.06,-162.66 1909.3,-261.9 1908.83,-293.29"/>
<polygon fill="#9a32cd" stroke="#9a32cd" points="1667.97,-96.28 1658.14,-100.24 1668.29,-103.28 1667.97,-96.28"/>
<text text-anchor="middle" x="1763" y="-122" font-family="Helvetica,sans-Serif" font-size="10.00"> m_allMemberNameInfoLinkedMap</text>
</g>
<!-- Node36 -->
<g id="node36" class="node">
<title>Node36</title>
<g id="a_node36"><a xlink:href="../../d0/d2c/class_linked_map.html" target="_top" xlink:title=" ">
<polygon fill="white" stroke="#666666" points="1390,-115.5 1210,-115.5 1210,-96.5 1390,-96.5 1390,-115.5"/>
<text text-anchor="middle" x="1300" y="-103.5" font-family="Helvetica,sans-Serif" font-size="10.00">LinkedMap&lt; MemberNameInfo &gt;</text>
</a>
</g>
</g>
<!-- Node36&#45;&gt;Node35 -->
<g id="edge47" class="edge">
<title>Node36&#45;&gt;Node35</title>
<path fill="none" stroke="#63b8ff" d="M1400.21,-106C1432.92,-106 1468.81,-106 1499.74,-106"/>
<polygon fill="#63b8ff" stroke="#63b8ff" points="1400.17,-102.5 1390.17,-106 1400.17,-109.5 1400.17,-102.5"/>
</g>
<!-- Node37 -->
<g id="node37" class="node">
<title>Node37</title>
<g id="a_node37"><a xlink:href="../../d0/d2c/class_linked_map.html" target="_top" xlink:title="Container class representing a vector of objects with keys.">
<polygon fill="white" stroke="#666666" points="1035.5,-116 915.5,-116 915.5,-86 1035.5,-86 1035.5,-116"/>
<text text-anchor="start" x="923.5" y="-104" font-family="Helvetica,sans-Serif" font-size="10.00">LinkedMap&lt; T, Hash,</text>
<text text-anchor="middle" x="975.5" y="-93" font-family="Helvetica,sans-Serif" font-size="10.00"> KeyEqual, Map &gt;</text>
</a>
</g>
</g>
<!-- Node37&#45;&gt;Node36 -->
<g id="edge48" class="edge">
<title>Node37&#45;&gt;Node36</title>
<path fill="none" stroke="orange" stroke-dasharray="5,2" d="M1045.93,-102.08C1093.87,-102.82 1158.05,-103.81 1209.78,-104.62"/>
<polygon fill="orange" stroke="orange" points="1045.7,-98.57 1035.65,-101.92 1045.6,-105.57 1045.7,-98.57"/>
<text text-anchor="middle" x="1127" y="-107" font-family="Helvetica,sans-Serif" font-size="10.00"> &lt; MemberNameInfo &gt;</text>
</g>
<!-- Node38 -->
<g id="node38" class="node">
<title>Node38</title>
<g id="a_node38"><a xlink:href="../../dd/d5a/class_member_lists.html" target="_top" xlink:title=" ">
<polygon fill="white" stroke="#666666" points="1619,-75.5 1539,-75.5 1539,-56.5 1619,-56.5 1619,-75.5"/>
<text text-anchor="middle" x="1579" y="-63.5" font-family="Helvetica,sans-Serif" font-size="10.00">MemberLists</text>
</a>
</g>
</g>
<!-- Node38&#45;&gt;Node1 -->
<g id="edge50" class="edge">
<title>Node38&#45;&gt;Node1</title>
<path fill="none" stroke="#9a32cd" stroke-dasharray="5,2" d="M1629.23,-62.52C1697.58,-58.76 1816.51,-56.46 1849,-83 1882.86,-110.66 1902.6,-254.52 1907.37,-293.34"/>
<polygon fill="#9a32cd" stroke="#9a32cd" points="1628.9,-59.03 1619.12,-63.1 1629.3,-66.02 1628.9,-59.03"/>
<text text-anchor="middle" x="1763" y="-86" font-family="Helvetica,sans-Serif" font-size="10.00"> m_memberLists</text>
</g>
<!-- Node39 -->
<g id="node39" class="node">
<title>Node39</title>
<g id="a_node39"><a xlink:title=" ">
<polygon fill="white" stroke="#666666" points="1367,-78 1233,-78 1233,-48 1367,-48 1367,-78"/>
<text text-anchor="start" x="1241" y="-66" font-family="Helvetica,sans-Serif" font-size="10.00">std::vector&lt; std::unique</text>
<text text-anchor="middle" x="1300" y="-55" font-family="Helvetica,sans-Serif" font-size="10.00">_ptr&lt; MemberList &gt; &gt;</text>
</a>
</g>
</g>
<!-- Node39&#45;&gt;Node38 -->
<g id="edge51" class="edge">
<title>Node39&#45;&gt;Node38</title>
<path fill="none" stroke="#63b8ff" d="M1377.59,-63.83C1429.86,-64.4 1496.95,-65.12 1538.71,-65.57"/>
<polygon fill="#63b8ff" stroke="#63b8ff" points="1377.39,-60.33 1367.35,-63.72 1377.31,-67.33 1377.39,-60.33"/>
</g>
<!-- Node40 -->
<g id="node40" class="node">
<title>Node40</title>
<g id="a_node40"><a xlink:href="../../df/d11/class_member_group_list.html" target="_top" xlink:title=" ">
<polygon fill="white" stroke="#666666" points="1631,-30.5 1527,-30.5 1527,-11.5 1631,-11.5 1631,-30.5"/>
<text text-anchor="middle" x="1579" y="-18.5" font-family="Helvetica,sans-Serif" font-size="10.00">MemberGroupList</text>
</a>
</g>
</g>
<!-- Node40&#45;&gt;Node1 -->
<g id="edge52" class="edge">
<title>Node40&#45;&gt;Node1</title>
<path fill="none" stroke="#9a32cd" stroke-dasharray="5,2" d="M1630.16,-9.61C1689.81,0.75 1788.84,7.4 1849,-45 1887.82,-78.81 1904.26,-250.98 1907.76,-293.5"/>
<polygon fill="#9a32cd" stroke="#9a32cd" points="1629.43,-6.19 1620.22,-11.43 1630.69,-13.07 1629.43,-6.19"/>
<text text-anchor="middle" x="1763" y="-48" font-family="Helvetica,sans-Serif" font-size="10.00"> m_memberGroups</text>
</g>
<!-- Node41 -->
<g id="node41" class="node">
<title>Node41</title>
<g id="a_node41"><a xlink:title=" ">
<polygon fill="white" stroke="#666666" points="1369.5,-30 1230.5,-30 1230.5,0 1369.5,0 1369.5,-30"/>
<text text-anchor="start" x="1238.5" y="-18" font-family="Helvetica,sans-Serif" font-size="10.00">std::vector&lt; std::unique</text>
<text text-anchor="middle" x="1300" y="-7" font-family="Helvetica,sans-Serif" font-size="10.00">_ptr&lt; MemberGroup &gt; &gt;</text>
</a>
</g>
</g>
<!-- Node41&#45;&gt;Node40 -->
<g id="edge53" class="edge">
<title>Node41&#45;&gt;Node40</title>
<path fill="none" stroke="#63b8ff" d="M1380.02,-16.71C1427.23,-17.73 1485.81,-19 1526.96,-19.89"/>
<polygon fill="#63b8ff" stroke="#63b8ff" points="1379.9,-13.21 1369.83,-16.49 1379.75,-20.21 1379.9,-13.21"/>
</g>
</g>
</svg>
