<?xml version="1.0" encoding="UTF-8" standalone="no"?>
<!DOCTYPE svg PUBLIC "-//W3C//DTD SVG 1.1//EN"
 "http://www.w3.org/Graphics/SVG/1.1/DTD/svg11.dtd">
<!-- Generated by graphviz version 2.43.0 (0)
 -->
<!-- Title: /home/runner/work/doxygen/doxygen/src/fileparser.cpp Pages: 1 -->
<svg width="1439pt" height="368pt"
 viewBox="0.00 0.00 1438.50 368.00" xmlns="http://www.w3.org/2000/svg" xmlns:xlink="http://www.w3.org/1999/xlink">
<g id="graph0" class="graph" transform="scale(1 1) rotate(0) translate(4 364)">
<title>/home/runner/work/doxygen/doxygen/src/fileparser.cpp</title>
<!-- Node1 -->
<g id="node1" class="node">
<title>Node1</title>
<g id="a_node1"><a xlink:title=" ">
<polygon fill="#999999" stroke="#666666" points="659,-360 505,-360 505,-330 659,-330 659,-360"/>
<text text-anchor="start" x="513" y="-348" font-family="Helvetica,sans-Serif" font-size="10.00">/home/runner/work/doxygen</text>
<text text-anchor="middle" x="582" y="-337" font-family="Helvetica,sans-Serif" font-size="10.00">/doxygen/src/fileparser.cpp</text>
</a>
</g>
</g>
<!-- Node2 -->
<g id="node2" class="node">
<title>Node2</title>
<g id="a_node2"><a xlink:href="../../d5/dc5/fileparser_8h.html" target="_top" xlink:title=" ">
<polygon fill="white" stroke="#666666" points="572.5,-294 501.5,-294 501.5,-275 572.5,-275 572.5,-294"/>
<text text-anchor="middle" x="537" y="-282" font-family="Helvetica,sans-Serif" font-size="10.00">fileparser.h</text>
</a>
</g>
</g>
<!-- Node1&#45;&gt;Node2 -->
<g id="edge1" class="edge">
<title>Node1&#45;&gt;Node2</title>
<path fill="none" stroke="#63b8ff" d="M571.11,-329.84C564.71,-321.52 556.58,-310.96 549.87,-302.23"/>
<polygon fill="#63b8ff" stroke="#63b8ff" points="552.61,-300.06 543.74,-294.27 547.07,-304.33 552.61,-300.06"/>
</g>
<!-- Node24 -->
<g id="node24" class="node">
<title>Node24</title>
<g id="a_node24"><a xlink:href="../../df/d06/outputgen_8h.html" target="_top" xlink:title=" ">
<polygon fill="white" stroke="#666666" points="863.5,-294 788.5,-294 788.5,-275 863.5,-275 863.5,-294"/>
<text text-anchor="middle" x="826" y="-282" font-family="Helvetica,sans-Serif" font-size="10.00">outputgen.h</text>
</a>
</g>
</g>
<!-- Node1&#45;&gt;Node24 -->
<g id="edge28" class="edge">
<title>Node1&#45;&gt;Node24</title>
<path fill="none" stroke="#63b8ff" d="M640.44,-329.99C683.37,-319.7 740.87,-305.91 780.42,-296.43"/>
<polygon fill="#63b8ff" stroke="#63b8ff" points="781.41,-299.79 790.32,-294.05 779.78,-292.98 781.41,-299.79"/>
</g>
<!-- Node3 -->
<g id="node3" class="node">
<title>Node3</title>
<g id="a_node3"><a xlink:href="../../da/d55/parserintf_8h.html" target="_top" xlink:title=" ">
<polygon fill="white" stroke="#666666" points="330,-239 258,-239 258,-220 330,-220 330,-239"/>
<text text-anchor="middle" x="294" y="-227" font-family="Helvetica,sans-Serif" font-size="10.00">parserintf.h</text>
</a>
</g>
</g>
<!-- Node2&#45;&gt;Node3 -->
<g id="edge2" class="edge">
<title>Node2&#45;&gt;Node3</title>
<path fill="none" stroke="#63b8ff" d="M501.41,-275.74C458.67,-266.41 386.89,-250.76 339.99,-240.53"/>
<polygon fill="#63b8ff" stroke="#63b8ff" points="340.6,-237.08 330.09,-238.37 339.11,-243.92 340.6,-237.08"/>
</g>
<!-- Node4 -->
<g id="node4" class="node">
<title>Node4</title>
<g id="a_node4"><a xlink:title=" ">
<polygon fill="#e0e0e0" stroke="#999999" points="291.5,-184 226.5,-184 226.5,-165 291.5,-165 291.5,-184"/>
<text text-anchor="middle" x="259" y="-172" font-family="Helvetica,sans-Serif" font-size="10.00">functional</text>
</a>
</g>
</g>
<!-- Node3&#45;&gt;Node4 -->
<g id="edge3" class="edge">
<title>Node3&#45;&gt;Node4</title>
<path fill="none" stroke="#63b8ff" d="M288.22,-219.75C283.38,-212.42 276.32,-201.73 270.36,-192.7"/>
<polygon fill="#63b8ff" stroke="#63b8ff" points="273.1,-190.5 264.67,-184.09 267.26,-194.36 273.1,-190.5"/>
</g>
<!-- Node5 -->
<g id="node5" class="node">
<title>Node5</title>
<g id="a_node5"><a xlink:title=" ">
<polygon fill="#e0e0e0" stroke="#999999" points="561,-129 503,-129 503,-110 561,-110 561,-129"/>
<text text-anchor="middle" x="532" y="-117" font-family="Helvetica,sans-Serif" font-size="10.00">memory</text>
</a>
</g>
</g>
<!-- Node3&#45;&gt;Node5 -->
<g id="edge4" class="edge">
<title>Node3&#45;&gt;Node5</title>
<path fill="none" stroke="#63b8ff" d="M330.04,-225.93C368.38,-221.82 429.63,-211.21 475,-184 494.18,-172.5 510.55,-152.49 520.77,-138"/>
<polygon fill="#63b8ff" stroke="#63b8ff" points="523.87,-139.66 526.56,-129.42 518.06,-135.75 523.87,-139.66"/>
</g>
<!-- Node6 -->
<g id="node6" class="node">
<title>Node6</title>
<g id="a_node6"><a xlink:title=" ">
<polygon fill="#e0e0e0" stroke="#999999" points="38,-129 0,-129 0,-110 38,-110 38,-129"/>
<text text-anchor="middle" x="19" y="-117" font-family="Helvetica,sans-Serif" font-size="10.00">map</text>
</a>
</g>
</g>
<!-- Node3&#45;&gt;Node6 -->
<g id="edge5" class="edge">
<title>Node3&#45;&gt;Node6</title>
<path fill="none" stroke="#63b8ff" d="M257.73,-222.39C222.19,-215.66 166.98,-203.16 122,-184 91.16,-170.86 58.75,-149.43 38.71,-135.15"/>
<polygon fill="#63b8ff" stroke="#63b8ff" points="40.57,-132.18 30.42,-129.15 36.47,-137.85 40.57,-132.18"/>
</g>
<!-- Node7 -->
<g id="node7" class="node">
<title>Node7</title>
<g id="a_node7"><a xlink:title=" ">
<polygon fill="#e0e0e0" stroke="#999999" points="651,-19 607,-19 607,0 651,0 651,-19"/>
<text text-anchor="middle" x="629" y="-7" font-family="Helvetica,sans-Serif" font-size="10.00">string</text>
</a>
</g>
</g>
<!-- Node3&#45;&gt;Node7 -->
<g id="edge6" class="edge">
<title>Node3&#45;&gt;Node7</title>
<path fill="none" stroke="#63b8ff" d="M295.51,-219.99C299.76,-198.46 313.83,-141.31 348,-110 420.23,-43.81 539.29,-21.11 596.42,-13.76"/>
<polygon fill="#63b8ff" stroke="#63b8ff" points="597.16,-17.2 606.67,-12.53 596.32,-10.25 597.16,-17.2"/>
</g>
<!-- Node8 -->
<g id="node8" class="node">
<title>Node8</title>
<g id="a_node8"><a xlink:href="../../d9/d49/types_8h.html" target="_top" xlink:title="This file contains a number of basic enums and types.">
<polygon fill="white" stroke="#666666" points="929.5,-184 876.5,-184 876.5,-165 929.5,-165 929.5,-184"/>
<text text-anchor="middle" x="903" y="-172" font-family="Helvetica,sans-Serif" font-size="10.00">types.h</text>
</a>
</g>
</g>
<!-- Node3&#45;&gt;Node8 -->
<g id="edge7" class="edge">
<title>Node3&#45;&gt;Node8</title>
<path fill="none" stroke="#63b8ff" d="M330.29,-225.85C416.62,-219.46 640.98,-202.39 828,-184 840.41,-182.78 853.95,-181.29 866.07,-179.91"/>
<polygon fill="#63b8ff" stroke="#63b8ff" points="866.76,-183.35 876.29,-178.72 865.96,-176.4 866.76,-183.35"/>
</g>
<!-- Node18 -->
<g id="node18" class="node">
<title>Node18</title>
<g id="a_node18"><a xlink:href="../../d5/d75/containers_8h.html" target="_top" xlink:title=" ">
<polygon fill="white" stroke="#666666" points="208.5,-184 131.5,-184 131.5,-165 208.5,-165 208.5,-184"/>
<text text-anchor="middle" x="170" y="-172" font-family="Helvetica,sans-Serif" font-size="10.00">containers.h</text>
</a>
</g>
</g>
<!-- Node3&#45;&gt;Node18 -->
<g id="edge20" class="edge">
<title>Node3&#45;&gt;Node18</title>
<path fill="none" stroke="#63b8ff" d="M274.08,-219.98C253.95,-211.38 222.62,-197.99 199.59,-188.15"/>
<polygon fill="#63b8ff" stroke="#63b8ff" points="200.86,-184.88 190.29,-184.17 198.1,-191.32 200.86,-184.88"/>
</g>
<!-- Node9 -->
<g id="node9" class="node">
<title>Node9</title>
<g id="a_node9"><a xlink:href="../../d7/d5c/qcstring_8h.html" target="_top" xlink:title=" ">
<polygon fill="white" stroke="#666666" points="970.5,-129 905.5,-129 905.5,-110 970.5,-110 970.5,-129"/>
<text text-anchor="middle" x="938" y="-117" font-family="Helvetica,sans-Serif" font-size="10.00">qcstring.h</text>
</a>
</g>
</g>
<!-- Node8&#45;&gt;Node9 -->
<g id="edge8" class="edge">
<title>Node8&#45;&gt;Node9</title>
<path fill="none" stroke="#63b8ff" d="M908.78,-164.75C913.62,-157.42 920.68,-146.73 926.64,-137.7"/>
<polygon fill="#63b8ff" stroke="#63b8ff" points="929.74,-139.36 932.33,-129.09 923.9,-135.5 929.74,-139.36"/>
</g>
<!-- Node9&#45;&gt;Node7 -->
<g id="edge9" class="edge">
<title>Node9&#45;&gt;Node7</title>
<path fill="none" stroke="#63b8ff" d="M917.57,-109.88C896.89,-101.1 864.07,-86.95 836,-74 818.49,-65.92 815.07,-61.72 797,-55 750.87,-37.84 695.31,-24.48 661.08,-17.05"/>
<polygon fill="#63b8ff" stroke="#63b8ff" points="661.68,-13.6 651.17,-14.93 660.22,-20.44 661.68,-13.6"/>
</g>
<!-- Node10 -->
<g id="node10" class="node">
<title>Node10</title>
<g id="a_node10"><a xlink:title=" ">
<polygon fill="#e0e0e0" stroke="#999999" points="721,-74 657,-74 657,-55 721,-55 721,-74"/>
<text text-anchor="middle" x="689" y="-62" font-family="Helvetica,sans-Serif" font-size="10.00">algorithm</text>
</a>
</g>
</g>
<!-- Node9&#45;&gt;Node10 -->
<g id="edge10" class="edge">
<title>Node9&#45;&gt;Node10</title>
<path fill="none" stroke="#63b8ff" d="M905.45,-111.57C860.77,-102.06 780.41,-84.96 731.18,-74.48"/>
<polygon fill="#63b8ff" stroke="#63b8ff" points="731.68,-71.01 721.17,-72.35 730.22,-77.85 731.68,-71.01"/>
</g>
<!-- Node11 -->
<g id="node11" class="node">
<title>Node11</title>
<g id="a_node11"><a xlink:title=" ">
<polygon fill="#e0e0e0" stroke="#999999" points="788.5,-74 739.5,-74 739.5,-55 788.5,-55 788.5,-74"/>
<text text-anchor="middle" x="764" y="-62" font-family="Helvetica,sans-Serif" font-size="10.00">cctype</text>
</a>
</g>
</g>
<!-- Node9&#45;&gt;Node11 -->
<g id="edge11" class="edge">
<title>Node9&#45;&gt;Node11</title>
<path fill="none" stroke="#63b8ff" d="M910.04,-109.98C879.57,-100.7 830.81,-85.85 798.11,-75.89"/>
<polygon fill="#63b8ff" stroke="#63b8ff" points="799.1,-72.53 788.51,-72.97 797.06,-79.23 799.1,-72.53"/>
</g>
<!-- Node12 -->
<g id="node12" class="node">
<title>Node12</title>
<g id="a_node12"><a xlink:title=" ">
<polygon fill="#e0e0e0" stroke="#999999" points="895,-74 845,-74 845,-55 895,-55 895,-74"/>
<text text-anchor="middle" x="870" y="-62" font-family="Helvetica,sans-Serif" font-size="10.00">cstring</text>
</a>
</g>
</g>
<!-- Node9&#45;&gt;Node12 -->
<g id="edge12" class="edge">
<title>Node9&#45;&gt;Node12</title>
<path fill="none" stroke="#63b8ff" d="M927.07,-109.98C916.92,-102.07 901.58,-90.11 889.35,-80.58"/>
<polygon fill="#63b8ff" stroke="#63b8ff" points="891.16,-77.56 881.12,-74.17 886.86,-83.08 891.16,-77.56"/>
</g>
<!-- Node13 -->
<g id="node13" class="node">
<title>Node13</title>
<g id="a_node13"><a xlink:title=" ">
<polygon fill="#e0e0e0" stroke="#999999" points="1241,-74 1195,-74 1195,-55 1241,-55 1241,-74"/>
<text text-anchor="middle" x="1218" y="-62" font-family="Helvetica,sans-Serif" font-size="10.00">cstdio</text>
</a>
</g>
</g>
<!-- Node9&#45;&gt;Node13 -->
<g id="edge13" class="edge">
<title>Node9&#45;&gt;Node13</title>
<path fill="none" stroke="#63b8ff" d="M970.67,-112.32C1024.36,-102.15 1130.69,-82.03 1184.75,-71.79"/>
<polygon fill="#63b8ff" stroke="#63b8ff" points="1185.67,-75.18 1194.84,-69.88 1184.36,-68.3 1185.67,-75.18"/>
</g>
<!-- Node14 -->
<g id="node14" class="node">
<title>Node14</title>
<g id="a_node14"><a xlink:title=" ">
<polygon fill="#e0e0e0" stroke="#999999" points="962.5,-74 913.5,-74 913.5,-55 962.5,-55 962.5,-74"/>
<text text-anchor="middle" x="938" y="-62" font-family="Helvetica,sans-Serif" font-size="10.00">cstdlib</text>
</a>
</g>
</g>
<!-- Node9&#45;&gt;Node14 -->
<g id="edge14" class="edge">
<title>Node9&#45;&gt;Node14</title>
<path fill="none" stroke="#63b8ff" d="M938,-109.75C938,-102.8 938,-92.85 938,-84.13"/>
<polygon fill="#63b8ff" stroke="#63b8ff" points="941.5,-84.09 938,-74.09 934.5,-84.09 941.5,-84.09"/>
</g>
<!-- Node15 -->
<g id="node15" class="node">
<title>Node15</title>
<g id="a_node15"><a xlink:title=" ">
<polygon fill="#e0e0e0" stroke="#999999" points="1154,-19 1104,-19 1104,0 1154,0 1154,-19"/>
<text text-anchor="middle" x="1129" y="-7" font-family="Helvetica,sans-Serif" font-size="10.00">cstdint</text>
</a>
</g>
</g>
<!-- Node9&#45;&gt;Node15 -->
<g id="edge15" class="edge">
<title>Node9&#45;&gt;Node15</title>
<path fill="none" stroke="#63b8ff" d="M970.81,-118.95C1008.94,-117.67 1071.43,-109.72 1109,-74 1121.16,-62.44 1125.96,-43.57 1127.84,-29.39"/>
<polygon fill="#63b8ff" stroke="#63b8ff" points="1131.34,-29.55 1128.8,-19.27 1124.37,-28.89 1131.34,-29.55"/>
</g>
<!-- Node16 -->
<g id="node16" class="node">
<title>Node16</title>
<g id="a_node16"><a xlink:title=" ">
<polygon fill="#e0e0e0" stroke="#999999" points="1037.5,-74 980.5,-74 980.5,-55 1037.5,-55 1037.5,-74"/>
<text text-anchor="middle" x="1009" y="-62" font-family="Helvetica,sans-Serif" font-size="10.00">ostream</text>
</a>
</g>
</g>
<!-- Node9&#45;&gt;Node16 -->
<g id="edge16" class="edge">
<title>Node9&#45;&gt;Node16</title>
<path fill="none" stroke="#63b8ff" d="M949.41,-109.98C960.11,-102 976.34,-89.88 989.16,-80.31"/>
<polygon fill="#63b8ff" stroke="#63b8ff" points="991.47,-82.96 997.39,-74.17 987.28,-77.35 991.47,-82.96"/>
</g>
<!-- Node17 -->
<g id="node17" class="node">
<title>Node17</title>
<g id="a_node17"><a xlink:href="../../db/d7c/utf8_8h.html" target="_top" xlink:title="Various UTF8 related helper functions.">
<polygon fill="white" stroke="#666666" points="1100.5,-74 1055.5,-74 1055.5,-55 1100.5,-55 1100.5,-74"/>
<text text-anchor="middle" x="1078" y="-62" font-family="Helvetica,sans-Serif" font-size="10.00">utf8.h</text>
</a>
</g>
</g>
<!-- Node9&#45;&gt;Node17 -->
<g id="edge17" class="edge">
<title>Node9&#45;&gt;Node17</title>
<path fill="none" stroke="#63b8ff" d="M960.49,-109.98C983.52,-101.27 1019.54,-87.63 1045.63,-77.75"/>
<polygon fill="#63b8ff" stroke="#63b8ff" points="1046.98,-80.98 1055.1,-74.17 1044.51,-74.44 1046.98,-80.98"/>
</g>
<!-- Node17&#45;&gt;Node7 -->
<g id="edge19" class="edge">
<title>Node17&#45;&gt;Node7</title>
<path fill="none" stroke="#63b8ff" d="M1055.37,-57.03C1052.24,-56.27 1049.05,-55.56 1046,-55 904.02,-28.73 731.76,-16.45 661.35,-12.26"/>
<polygon fill="#63b8ff" stroke="#63b8ff" points="661.51,-8.76 651.32,-11.67 661.1,-15.75 661.51,-8.76"/>
</g>
<!-- Node17&#45;&gt;Node15 -->
<g id="edge18" class="edge">
<title>Node17&#45;&gt;Node15</title>
<path fill="none" stroke="#63b8ff" d="M1086.42,-54.75C1093.77,-47.11 1104.63,-35.82 1113.54,-26.56"/>
<polygon fill="#63b8ff" stroke="#63b8ff" points="1116.32,-28.72 1120.74,-19.09 1111.28,-23.87 1116.32,-28.72"/>
</g>
<!-- Node18&#45;&gt;Node6 -->
<g id="edge24" class="edge">
<title>Node18&#45;&gt;Node6</title>
<path fill="none" stroke="#63b8ff" d="M145.74,-164.98C119.16,-155.65 76.53,-140.69 48.15,-130.73"/>
<polygon fill="#63b8ff" stroke="#63b8ff" points="49,-127.32 38.4,-127.31 46.68,-133.92 49,-127.32"/>
</g>
<!-- Node18&#45;&gt;Node7 -->
<g id="edge22" class="edge">
<title>Node18&#45;&gt;Node7</title>
<path fill="none" stroke="#63b8ff" d="M170.42,-164.63C171.49,-151.27 175.33,-125.87 189,-110 226.5,-66.46 250.91,-71.33 306,-55 409.46,-24.33 537.95,-14.66 596.82,-11.72"/>
<polygon fill="#63b8ff" stroke="#63b8ff" points="597.15,-15.21 606.98,-11.25 596.82,-8.22 597.15,-15.21"/>
</g>
<!-- Node19 -->
<g id="node19" class="node">
<title>Node19</title>
<g id="a_node19"><a xlink:title=" ">
<polygon fill="#e0e0e0" stroke="#999999" points="404.5,-129 357.5,-129 357.5,-110 404.5,-110 404.5,-129"/>
<text text-anchor="middle" x="381" y="-117" font-family="Helvetica,sans-Serif" font-size="10.00">vector</text>
</a>
</g>
</g>
<!-- Node18&#45;&gt;Node19 -->
<g id="edge21" class="edge">
<title>Node18&#45;&gt;Node19</title>
<path fill="none" stroke="#63b8ff" d="M203.9,-164.98C243.36,-155.07 308.12,-138.81 347.44,-128.93"/>
<polygon fill="#63b8ff" stroke="#63b8ff" points="348.49,-132.28 357.33,-126.45 346.78,-125.49 348.49,-132.28"/>
</g>
<!-- Node20 -->
<g id="node20" class="node">
<title>Node20</title>
<g id="a_node20"><a xlink:title=" ">
<polygon fill="#e0e0e0" stroke="#999999" points="230,-129 198,-129 198,-110 230,-110 230,-129"/>
<text text-anchor="middle" x="214" y="-117" font-family="Helvetica,sans-Serif" font-size="10.00">set</text>
</a>
</g>
</g>
<!-- Node18&#45;&gt;Node20 -->
<g id="edge23" class="edge">
<title>Node18&#45;&gt;Node20</title>
<path fill="none" stroke="#63b8ff" d="M177.27,-164.75C183.54,-157.18 192.79,-146.05 200.43,-136.84"/>
<polygon fill="#63b8ff" stroke="#63b8ff" points="203.17,-139.02 206.87,-129.09 197.79,-134.55 203.17,-139.02"/>
</g>
<!-- Node21 -->
<g id="node21" class="node">
<title>Node21</title>
<g id="a_node21"><a xlink:title=" ">
<polygon fill="#e0e0e0" stroke="#999999" points="142,-129 56,-129 56,-110 142,-110 142,-129"/>
<text text-anchor="middle" x="99" y="-117" font-family="Helvetica,sans-Serif" font-size="10.00">unordered_set</text>
</a>
</g>
</g>
<!-- Node18&#45;&gt;Node21 -->
<g id="edge25" class="edge">
<title>Node18&#45;&gt;Node21</title>
<path fill="none" stroke="#63b8ff" d="M158.59,-164.98C147.89,-157 131.66,-144.88 118.84,-135.31"/>
<polygon fill="#63b8ff" stroke="#63b8ff" points="120.72,-132.35 110.61,-129.17 116.53,-137.96 120.72,-132.35"/>
</g>
<!-- Node22 -->
<g id="node22" class="node">
<title>Node22</title>
<g id="a_node22"><a xlink:title=" ">
<polygon fill="#e0e0e0" stroke="#999999" points="712.5,-129 619.5,-129 619.5,-110 712.5,-110 712.5,-129"/>
<text text-anchor="middle" x="666" y="-117" font-family="Helvetica,sans-Serif" font-size="10.00">unordered_map</text>
</a>
</g>
</g>
<!-- Node18&#45;&gt;Node22 -->
<g id="edge26" class="edge">
<title>Node18&#45;&gt;Node22</title>
<path fill="none" stroke="#63b8ff" d="M208.69,-166.25C211.5,-165.8 214.29,-165.38 217,-165 291.25,-154.62 505.51,-134.88 608.88,-125.58"/>
<polygon fill="#63b8ff" stroke="#63b8ff" points="609.48,-129.05 619.13,-124.66 608.86,-122.07 609.48,-129.05"/>
</g>
<!-- Node23 -->
<g id="node23" class="node">
<title>Node23</title>
<g id="a_node23"><a xlink:title=" ">
<polygon fill="#e0e0e0" stroke="#999999" points="291.5,-129 248.5,-129 248.5,-110 291.5,-110 291.5,-129"/>
<text text-anchor="middle" x="270" y="-117" font-family="Helvetica,sans-Serif" font-size="10.00">stack</text>
</a>
</g>
</g>
<!-- Node18&#45;&gt;Node23 -->
<g id="edge27" class="edge">
<title>Node18&#45;&gt;Node23</title>
<path fill="none" stroke="#63b8ff" d="M186.07,-164.98C201.86,-156.61 226.22,-143.7 244.63,-133.95"/>
<polygon fill="#63b8ff" stroke="#63b8ff" points="246.44,-136.95 253.64,-129.17 243.17,-130.76 246.44,-136.95"/>
</g>
<!-- Node24&#45;&gt;Node5 -->
<g id="edge29" class="edge">
<title>Node24&#45;&gt;Node5</title>
<path fill="none" stroke="#63b8ff" d="M788.37,-281.26C726.9,-276.87 608.61,-265.21 577,-239 546.75,-213.91 536.81,-166.17 533.56,-139.58"/>
<polygon fill="#63b8ff" stroke="#63b8ff" points="537.01,-138.9 532.51,-129.31 530.04,-139.61 537.01,-138.9"/>
</g>
<!-- Node24&#45;&gt;Node8 -->
<g id="edge33" class="edge">
<title>Node24&#45;&gt;Node8</title>
<path fill="none" stroke="#63b8ff" d="M832.3,-274.66C845.11,-256.69 874.38,-215.64 890.96,-192.38"/>
<polygon fill="#63b8ff" stroke="#63b8ff" points="893.87,-194.33 896.83,-184.16 888.17,-190.27 893.87,-194.33"/>
</g>
<!-- Node24&#45;&gt;Node23 -->
<g id="edge30" class="edge">
<title>Node24&#45;&gt;Node23</title>
<path fill="none" stroke="#63b8ff" d="M788.37,-280.21C709.2,-272.22 520.87,-247.57 377,-184 345.5,-170.08 311.74,-148.88 290.75,-134.85"/>
<polygon fill="#63b8ff" stroke="#63b8ff" points="292.56,-131.85 282.32,-129.15 288.64,-137.65 292.56,-131.85"/>
</g>
<!-- Node25 -->
<g id="node25" class="node">
<title>Node25</title>
<g id="a_node25"><a xlink:title=" ">
<polygon fill="#e0e0e0" stroke="#999999" points="1357,-129 1297,-129 1297,-110 1357,-110 1357,-129"/>
<text text-anchor="middle" x="1327" y="-117" font-family="Helvetica,sans-Serif" font-size="10.00">iostream</text>
</a>
</g>
</g>
<!-- Node24&#45;&gt;Node25 -->
<g id="edge31" class="edge">
<title>Node24&#45;&gt;Node25</title>
<path fill="none" stroke="#63b8ff" d="M863.7,-278.07C935,-266.9 1093.54,-237.78 1217,-184 1249.37,-169.9 1284.28,-148.59 1305.89,-134.61"/>
<polygon fill="#63b8ff" stroke="#63b8ff" points="1307.84,-137.52 1314.29,-129.11 1304.01,-131.66 1307.84,-137.52"/>
</g>
<!-- Node26 -->
<g id="node26" class="node">
<title>Node26</title>
<g id="a_node26"><a xlink:title=" ">
<polygon fill="#e0e0e0" stroke="#999999" points="1430.5,-129 1375.5,-129 1375.5,-110 1430.5,-110 1430.5,-129"/>
<text text-anchor="middle" x="1403" y="-117" font-family="Helvetica,sans-Serif" font-size="10.00">fstream</text>
</a>
</g>
</g>
<!-- Node24&#45;&gt;Node26 -->
<g id="edge32" class="edge">
<title>Node24&#45;&gt;Node26</title>
<path fill="none" stroke="#63b8ff" d="M863.84,-279.72C917.31,-273.85 1017.74,-260.88 1101,-239 1169.27,-221.06 1184.28,-209.76 1250,-184 1293.25,-167.05 1342.83,-146.21 1373.54,-133.14"/>
<polygon fill="#63b8ff" stroke="#63b8ff" points="1374.99,-136.32 1382.81,-129.18 1372.24,-129.89 1374.99,-136.32"/>
</g>
<!-- Node27 -->
<g id="node27" class="node">
<title>Node27</title>
<g id="a_node27"><a xlink:href="../../d1/db5/index_8h.html" target="_top" xlink:title=" ">
<polygon fill="white" stroke="#666666" points="988.5,-239 935.5,-239 935.5,-220 988.5,-220 988.5,-239"/>
<text text-anchor="middle" x="962" y="-227" font-family="Helvetica,sans-Serif" font-size="10.00">index.h</text>
</a>
</g>
</g>
<!-- Node24&#45;&gt;Node27 -->
<g id="edge34" class="edge">
<title>Node24&#45;&gt;Node27</title>
<path fill="none" stroke="#63b8ff" d="M847.85,-274.98C870.12,-266.3 904.9,-252.75 930.22,-242.88"/>
<polygon fill="#63b8ff" stroke="#63b8ff" points="931.71,-246.06 939.75,-239.17 929.16,-239.54 931.71,-246.06"/>
</g>
<!-- Node28 -->
<g id="node28" class="node">
<title>Node28</title>
<g id="a_node28"><a xlink:href="../../d1/d2a/section_8h.html" target="_top" xlink:title=" ">
<polygon fill="white" stroke="#666666" points="811.5,-239 750.5,-239 750.5,-220 811.5,-220 811.5,-239"/>
<text text-anchor="middle" x="781" y="-227" font-family="Helvetica,sans-Serif" font-size="10.00">section.h</text>
</a>
</g>
</g>
<!-- Node24&#45;&gt;Node28 -->
<g id="edge36" class="edge">
<title>Node24&#45;&gt;Node28</title>
<path fill="none" stroke="#63b8ff" d="M818.57,-274.75C812.15,-267.18 802.69,-256.05 794.88,-246.84"/>
<polygon fill="#63b8ff" stroke="#63b8ff" points="797.43,-244.45 788.29,-239.09 792.1,-248.98 797.43,-244.45"/>
</g>
<!-- Node30 -->
<g id="node30" class="node">
<title>Node30</title>
<g id="a_node30"><a xlink:href="../../d4/d7d/textstream_8h.html" target="_top" xlink:title=" ">
<polygon fill="white" stroke="#666666" points="1208,-184 1128,-184 1128,-165 1208,-165 1208,-184"/>
<text text-anchor="middle" x="1168" y="-172" font-family="Helvetica,sans-Serif" font-size="10.00">textstream.h</text>
</a>
</g>
</g>
<!-- Node24&#45;&gt;Node30 -->
<g id="edge48" class="edge">
<title>Node24&#45;&gt;Node30</title>
<path fill="none" stroke="#63b8ff" d="M863.33,-274.93C898.18,-266.67 951.5,-253.33 997,-239 1047.04,-223.24 1103.92,-201.29 1137.83,-187.76"/>
<polygon fill="#63b8ff" stroke="#63b8ff" points="1139.2,-190.98 1147.18,-184.01 1136.59,-184.48 1139.2,-190.98"/>
</g>
<!-- Node33 -->
<g id="node33" class="node">
<title>Node33</title>
<g id="a_node33"><a xlink:href="../../de/d9c/docparser_8h.html" target="_top" xlink:title=" ">
<polygon fill="white" stroke="#666666" points="659.5,-239 586.5,-239 586.5,-220 659.5,-220 659.5,-239"/>
<text text-anchor="middle" x="623" y="-227" font-family="Helvetica,sans-Serif" font-size="10.00">docparser.h</text>
</a>
</g>
</g>
<!-- Node24&#45;&gt;Node33 -->
<g id="edge57" class="edge">
<title>Node24&#45;&gt;Node33</title>
<path fill="none" stroke="#63b8ff" d="M793.38,-274.98C758.71,-265.93 703.74,-251.58 665.65,-241.64"/>
<polygon fill="#63b8ff" stroke="#63b8ff" points="666.43,-238.22 655.87,-239.08 664.66,-244.99 666.43,-238.22"/>
</g>
<!-- Node27&#45;&gt;Node9 -->
<g id="edge35" class="edge">
<title>Node27&#45;&gt;Node9</title>
<path fill="none" stroke="#63b8ff" d="M965.99,-219.65C971.04,-207.17 978.37,-183.82 972,-165 968.44,-154.47 961.28,-144.48 954.45,-136.63"/>
<polygon fill="#63b8ff" stroke="#63b8ff" points="956.99,-134.23 947.61,-129.31 951.87,-139.01 956.99,-134.23"/>
</g>
<!-- Node28&#45;&gt;Node7 -->
<g id="edge37" class="edge">
<title>Node28&#45;&gt;Node7</title>
<path fill="none" stroke="#63b8ff" d="M764.09,-219.89C722.64,-198.62 618.75,-144.22 610,-129 591.64,-97.08 607.69,-52.75 619.39,-28.36"/>
<polygon fill="#63b8ff" stroke="#63b8ff" points="622.62,-29.73 624.02,-19.22 616.38,-26.56 622.62,-29.73"/>
</g>
<!-- Node28&#45;&gt;Node9 -->
<g id="edge39" class="edge">
<title>Node28&#45;&gt;Node9</title>
<path fill="none" stroke="#63b8ff" d="M811.61,-224.23C852.83,-217.77 922.79,-204.11 938,-184 947.55,-171.37 946.38,-152.93 943.52,-139.17"/>
<polygon fill="#63b8ff" stroke="#63b8ff" points="946.88,-138.17 941.03,-129.34 940.09,-139.89 946.88,-138.17"/>
</g>
<!-- Node28&#45;&gt;Node22 -->
<g id="edge38" class="edge">
<title>Node28&#45;&gt;Node22</title>
<path fill="none" stroke="#63b8ff" d="M771.77,-220C762.09,-211.07 746.43,-196.59 733,-184 715.76,-167.84 696.16,-149.24 682.64,-136.36"/>
<polygon fill="#63b8ff" stroke="#63b8ff" points="684.73,-133.52 675.07,-129.16 679.9,-138.59 684.73,-133.52"/>
</g>
<!-- Node29 -->
<g id="node29" class="node">
<title>Node29</title>
<g id="a_node29"><a xlink:href="../../da/de1/linkedmap_8h.html" target="_top" xlink:title=" ">
<polygon fill="white" stroke="#666666" points="819.5,-184 742.5,-184 742.5,-165 819.5,-165 819.5,-184"/>
<text text-anchor="middle" x="781" y="-172" font-family="Helvetica,sans-Serif" font-size="10.00">linkedmap.h</text>
</a>
</g>
</g>
<!-- Node28&#45;&gt;Node29 -->
<g id="edge40" class="edge">
<title>Node28&#45;&gt;Node29</title>
<path fill="none" stroke="#63b8ff" d="M781,-219.75C781,-212.8 781,-202.85 781,-194.13"/>
<polygon fill="#63b8ff" stroke="#63b8ff" points="784.5,-194.09 781,-184.09 777.5,-194.09 784.5,-194.09"/>
</g>
<!-- Node29&#45;&gt;Node5 -->
<g id="edge43" class="edge">
<title>Node29&#45;&gt;Node5</title>
<path fill="none" stroke="#63b8ff" d="M742.37,-165.28C695.89,-155.38 618.27,-138.86 571.44,-128.89"/>
<polygon fill="#63b8ff" stroke="#63b8ff" points="571.88,-125.41 561.37,-126.75 570.42,-132.26 571.88,-125.41"/>
</g>
<!-- Node29&#45;&gt;Node7 -->
<g id="edge44" class="edge">
<title>Node29&#45;&gt;Node7</title>
<path fill="none" stroke="#63b8ff" d="M774.42,-164.76C764.16,-151.57 743.21,-126.4 721,-110 691.9,-88.51 671.35,-101.63 648,-74 637.44,-61.5 632.75,-43.3 630.66,-29.58"/>
<polygon fill="#63b8ff" stroke="#63b8ff" points="634.1,-28.86 629.46,-19.34 627.15,-29.68 634.1,-28.86"/>
</g>
<!-- Node29&#45;&gt;Node9 -->
<g id="edge47" class="edge">
<title>Node29&#45;&gt;Node9</title>
<path fill="none" stroke="#63b8ff" d="M806.22,-164.98C832.36,-156.16 873.4,-142.31 902.73,-132.41"/>
<polygon fill="#63b8ff" stroke="#63b8ff" points="904.22,-135.6 912.58,-129.08 901.98,-128.96 904.22,-135.6"/>
</g>
<!-- Node29&#45;&gt;Node10 -->
<g id="edge45" class="edge">
<title>Node29&#45;&gt;Node10</title>
<path fill="none" stroke="#63b8ff" d="M779.17,-164.87C776.05,-151.82 768.68,-126.82 755,-110 744.61,-97.23 729.61,-86.72 716.53,-79.12"/>
<polygon fill="#63b8ff" stroke="#63b8ff" points="717.88,-75.87 707.44,-74.11 714.5,-82 717.88,-75.87"/>
</g>
<!-- Node29&#45;&gt;Node11 -->
<g id="edge46" class="edge">
<title>Node29&#45;&gt;Node11</title>
<path fill="none" stroke="#63b8ff" d="M785.25,-164.74C790.66,-152.37 798.69,-129.14 793,-110 790.02,-99.98 784,-90.11 778.21,-82.22"/>
<polygon fill="#63b8ff" stroke="#63b8ff" points="780.87,-79.95 771.94,-74.25 775.37,-84.28 780.87,-79.95"/>
</g>
<!-- Node29&#45;&gt;Node19 -->
<g id="edge42" class="edge">
<title>Node29&#45;&gt;Node19</title>
<path fill="none" stroke="#63b8ff" d="M742.32,-170.61C676.74,-165.32 539.46,-152.57 414.78,-129.11"/>
<polygon fill="#63b8ff" stroke="#63b8ff" points="415.16,-125.62 404.68,-127.18 413.85,-132.5 415.16,-125.62"/>
</g>
<!-- Node29&#45;&gt;Node22 -->
<g id="edge41" class="edge">
<title>Node29&#45;&gt;Node22</title>
<path fill="none" stroke="#63b8ff" d="M762.52,-164.98C744.02,-156.46 715.32,-143.23 694.02,-133.41"/>
<polygon fill="#63b8ff" stroke="#63b8ff" points="695.36,-130.18 684.81,-129.17 692.43,-136.53 695.36,-130.18"/>
</g>
<!-- Node30&#45;&gt;Node7 -->
<g id="edge49" class="edge">
<title>Node30&#45;&gt;Node7</title>
<path fill="none" stroke="#63b8ff" d="M1127.72,-169.85C1100.85,-165.08 1067.37,-154.12 1050,-129 1024.06,-91.5 1100.53,-89.09 1109,-74 1113.13,-66.64 1114.69,-61.24 1109,-55 1078.85,-21.92 763.89,-13.05 661.19,-11.03"/>
<polygon fill="#63b8ff" stroke="#63b8ff" points="661.17,-7.53 651.1,-10.84 661.03,-14.53 661.17,-7.53"/>
</g>
<!-- Node30&#45;&gt;Node9 -->
<g id="edge56" class="edge">
<title>Node30&#45;&gt;Node9</title>
<path fill="none" stroke="#63b8ff" d="M1131.05,-164.98C1090.02,-155.53 1023.9,-140.29 980.69,-130.34"/>
<polygon fill="#63b8ff" stroke="#63b8ff" points="981.29,-126.89 970.76,-128.05 979.72,-133.71 981.29,-126.89"/>
</g>
<!-- Node30&#45;&gt;Node13 -->
<g id="edge53" class="edge">
<title>Node30&#45;&gt;Node13</title>
<path fill="none" stroke="#63b8ff" d="M1180.09,-164.75C1190.2,-156.7 1204.06,-143.78 1211,-129 1217.56,-115.02 1219.06,-97.47 1219.06,-84.36"/>
<polygon fill="#63b8ff" stroke="#63b8ff" points="1222.55,-84.08 1218.76,-74.19 1215.55,-84.29 1222.55,-84.08"/>
</g>
<!-- Node30&#45;&gt;Node15 -->
<g id="edge52" class="edge">
<title>Node30&#45;&gt;Node15</title>
<path fill="none" stroke="#63b8ff" d="M1184.23,-164.86C1197.57,-157.04 1216.13,-144.41 1228,-129 1248.94,-101.82 1269.63,-83.14 1250,-55 1230.78,-27.45 1192.51,-16.91 1164.13,-12.9"/>
<polygon fill="#63b8ff" stroke="#63b8ff" points="1164.53,-9.42 1154.18,-11.7 1163.69,-16.37 1164.53,-9.42"/>
</g>
<!-- Node30&#45;&gt;Node25 -->
<g id="edge50" class="edge">
<title>Node30&#45;&gt;Node25</title>
<path fill="none" stroke="#63b8ff" d="M1193.55,-164.98C1220.12,-156.13 1261.94,-142.19 1291.67,-132.28"/>
<polygon fill="#63b8ff" stroke="#63b8ff" points="1292.87,-135.56 1301.25,-129.08 1290.66,-128.92 1292.87,-135.56"/>
</g>
<!-- Node30&#45;&gt;Node26 -->
<g id="edge54" class="edge">
<title>Node30&#45;&gt;Node26</title>
<path fill="none" stroke="#63b8ff" d="M1206.34,-164.94C1244.21,-156.47 1304.05,-143.06 1365.29,-129.15"/>
<polygon fill="#63b8ff" stroke="#63b8ff" points="1366.15,-132.55 1375.12,-126.92 1364.6,-125.72 1366.15,-132.55"/>
</g>
<!-- Node31 -->
<g id="node31" class="node">
<title>Node31</title>
<g id="a_node31"><a xlink:title=" ">
<polygon fill="#e0e0e0" stroke="#999999" points="1115,-129 1059,-129 1059,-110 1115,-110 1115,-129"/>
<text text-anchor="middle" x="1087" y="-117" font-family="Helvetica,sans-Serif" font-size="10.00">sstream</text>
</a>
</g>
</g>
<!-- Node30&#45;&gt;Node31 -->
<g id="edge51" class="edge">
<title>Node30&#45;&gt;Node31</title>
<path fill="none" stroke="#63b8ff" d="M1154.99,-164.98C1142.54,-156.84 1123.54,-144.41 1108.79,-134.76"/>
<polygon fill="#63b8ff" stroke="#63b8ff" points="1110.54,-131.72 1100.25,-129.17 1106.7,-137.57 1110.54,-131.72"/>
</g>
<!-- Node32 -->
<g id="node32" class="node">
<title>Node32</title>
<g id="a_node32"><a xlink:title=" ">
<polygon fill="#e0e0e0" stroke="#999999" points="1202.5,-129 1133.5,-129 1133.5,-110 1202.5,-110 1202.5,-129"/>
<text text-anchor="middle" x="1168" y="-117" font-family="Helvetica,sans-Serif" font-size="10.00">type_traits</text>
</a>
</g>
</g>
<!-- Node30&#45;&gt;Node32 -->
<g id="edge55" class="edge">
<title>Node30&#45;&gt;Node32</title>
<path fill="none" stroke="#63b8ff" d="M1168,-164.75C1168,-157.8 1168,-147.85 1168,-139.13"/>
<polygon fill="#63b8ff" stroke="#63b8ff" points="1171.5,-139.09 1168,-129.09 1164.5,-139.09 1171.5,-139.09"/>
</g>
<!-- Node33&#45;&gt;Node5 -->
<g id="edge59" class="edge">
<title>Node33&#45;&gt;Node5</title>
<path fill="none" stroke="#63b8ff" d="M615.55,-219.66C600.35,-201.61 565.52,-160.28 545.97,-137.08"/>
<polygon fill="#63b8ff" stroke="#63b8ff" points="548.42,-134.55 539.3,-129.16 543.06,-139.06 548.42,-134.55"/>
</g>
<!-- Node33&#45;&gt;Node9 -->
<g id="edge60" class="edge">
<title>Node33&#45;&gt;Node9</title>
<path fill="none" stroke="#63b8ff" d="M659.53,-224.05C701.31,-218.18 771.27,-205.92 828,-184 845.57,-177.21 888.69,-151.2 915.42,-134.65"/>
<polygon fill="#63b8ff" stroke="#63b8ff" points="917.48,-137.49 924.13,-129.23 913.79,-131.54 917.48,-137.49"/>
</g>
<!-- Node34 -->
<g id="node34" class="node">
<title>Node34</title>
<g id="a_node34"><a xlink:title=" ">
<polygon fill="#e0e0e0" stroke="#999999" points="648,-184 598,-184 598,-165 648,-165 648,-184"/>
<text text-anchor="middle" x="623" y="-172" font-family="Helvetica,sans-Serif" font-size="10.00">stdio.h</text>
</a>
</g>
</g>
<!-- Node33&#45;&gt;Node34 -->
<g id="edge58" class="edge">
<title>Node33&#45;&gt;Node34</title>
<path fill="none" stroke="#63b8ff" d="M623,-219.75C623,-212.8 623,-202.85 623,-194.13"/>
<polygon fill="#63b8ff" stroke="#63b8ff" points="626.5,-194.09 623,-184.09 619.5,-194.09 626.5,-194.09"/>
</g>
<!-- Node35 -->
<g id="node35" class="node">
<title>Node35</title>
<g id="a_node35"><a xlink:href="../../d7/d50/growvector_8h.html" target="_top" xlink:title=" ">
<polygon fill="white" stroke="#666666" points="466,-184 386,-184 386,-165 466,-165 466,-184"/>
<text text-anchor="middle" x="426" y="-172" font-family="Helvetica,sans-Serif" font-size="10.00">growvector.h</text>
</a>
</g>
</g>
<!-- Node33&#45;&gt;Node35 -->
<g id="edge61" class="edge">
<title>Node33&#45;&gt;Node35</title>
<path fill="none" stroke="#63b8ff" d="M591.35,-219.98C557.84,-210.97 504.8,-196.7 467.86,-186.76"/>
<polygon fill="#63b8ff" stroke="#63b8ff" points="468.47,-183.3 457.9,-184.08 466.65,-190.06 468.47,-183.3"/>
</g>
<!-- Node35&#45;&gt;Node5 -->
<g id="edge63" class="edge">
<title>Node35&#45;&gt;Node5</title>
<path fill="none" stroke="#63b8ff" d="M443.03,-164.98C459.93,-156.54 486.06,-143.47 505.64,-133.68"/>
<polygon fill="#63b8ff" stroke="#63b8ff" points="507.28,-136.77 514.66,-129.17 504.15,-130.51 507.28,-136.77"/>
</g>
<!-- Node35&#45;&gt;Node19 -->
<g id="edge62" class="edge">
<title>Node35&#45;&gt;Node19</title>
<path fill="none" stroke="#63b8ff" d="M418.57,-164.75C412.15,-157.18 402.69,-146.05 394.88,-136.84"/>
<polygon fill="#63b8ff" stroke="#63b8ff" points="397.43,-134.45 388.29,-129.09 392.1,-138.98 397.43,-134.45"/>
</g>
<!-- Node36 -->
<g id="node36" class="node">
<title>Node36</title>
<g id="a_node36"><a xlink:title=" ">
<polygon fill="#e0e0e0" stroke="#999999" points="475.5,-129 422.5,-129 422.5,-110 475.5,-110 475.5,-129"/>
<text text-anchor="middle" x="449" y="-117" font-family="Helvetica,sans-Serif" font-size="10.00">iterator</text>
</a>
</g>
</g>
<!-- Node35&#45;&gt;Node36 -->
<g id="edge64" class="edge">
<title>Node35&#45;&gt;Node36</title>
<path fill="none" stroke="#63b8ff" d="M429.8,-164.75C432.91,-157.57 437.42,-147.18 441.29,-138.27"/>
<polygon fill="#63b8ff" stroke="#63b8ff" points="444.5,-139.66 445.27,-129.09 438.08,-136.87 444.5,-139.66"/>
</g>
</g>
</svg>
