<?xml version="1.0" encoding="UTF-8" standalone="no"?>
<!DOCTYPE svg PUBLIC "-//W3C//DTD SVG 1.1//EN"
 "http://www.w3.org/Graphics/SVG/1.1/DTD/svg11.dtd">
<!-- Generated by graphviz version 2.43.0 (0)
 -->
<!-- Title: ConstExpressionParser Pages: 1 -->
<svg width="163pt" height="236pt"
 viewBox="0.00 0.00 163.00 236.00" xmlns="http://www.w3.org/2000/svg" xmlns:xlink="http://www.w3.org/1999/xlink">
<g id="graph0" class="graph" transform="scale(1 1) rotate(0) translate(4 232)">
<title>ConstExpressionParser</title>
<!-- Node1 -->
<g id="node1" class="node">
<title>Node1</title>
<g id="a_node1"><a xlink:title=" ">
<polygon fill="#999999" stroke="#666666" points="128,-19 0,-19 0,0 128,0 128,-19"/>
<text text-anchor="middle" x="64" y="-7" font-family="Helvetica,sans-Serif" font-size="10.00">ConstExpressionParser</text>
</a>
</g>
</g>
<!-- Node2 -->
<g id="node2" class="node">
<title>Node2</title>
<g id="a_node2"><a xlink:href="../../d7/dc3/struct_const_expression_parser_1_1_private.html" target="_top" xlink:title=" ">
<polygon fill="white" stroke="#666666" points="128,-96 0,-96 0,-66 128,-66 128,-96"/>
<text text-anchor="start" x="8" y="-84" font-family="Helvetica,sans-Serif" font-size="10.00">ConstExpressionParser</text>
<text text-anchor="middle" x="64" y="-73" font-family="Helvetica,sans-Serif" font-size="10.00">::Private</text>
</a>
</g>
</g>
<!-- Node2&#45;&gt;Node1 -->
<g id="edge1" class="edge">
<title>Node2&#45;&gt;Node1</title>
<path fill="none" stroke="#9a32cd" stroke-dasharray="5,2" d="M64,-55.56C64,-42.95 64,-28.35 64,-19.27"/>
<polygon fill="#9a32cd" stroke="#9a32cd" points="60.5,-55.94 64,-65.94 67.5,-55.94 60.5,-55.94"/>
<text text-anchor="middle" x="69" y="-40" font-family="Helvetica,sans-Serif" font-size="10.00"> p</text>
</g>
<!-- Node3 -->
<g id="node3" class="node">
<title>Node3</title>
<g id="a_node3"><a xlink:href="../../d3/d1e/structconstexp_y_y__state.html" target="_top" xlink:title=" ">
<polygon fill="white" stroke="#666666" points="115.5,-162 12.5,-162 12.5,-143 115.5,-143 115.5,-162"/>
<text text-anchor="middle" x="64" y="-150" font-family="Helvetica,sans-Serif" font-size="10.00">constexpYY_state</text>
</a>
</g>
</g>
<!-- Node3&#45;&gt;Node2 -->
<g id="edge2" class="edge">
<title>Node3&#45;&gt;Node2</title>
<path fill="none" stroke="#9a32cd" stroke-dasharray="5,2" d="M64,-132.71C64,-121.19 64,-106.68 64,-96.14"/>
<polygon fill="#9a32cd" stroke="#9a32cd" points="60.5,-132.98 64,-142.98 67.5,-132.98 60.5,-132.98"/>
<text text-anchor="middle" x="109.5" y="-117" font-family="Helvetica,sans-Serif" font-size="10.00"> constexpYY_extra</text>
</g>
<!-- Node4 -->
<g id="node4" class="node">
<title>Node4</title>
<g id="a_node4"><a xlink:href="../../d2/d75/class_c_p_p_value.html" target="_top" xlink:title="A class representing a C&#45;preprocessor value.">
<polygon fill="white" stroke="#666666" points="95,-228 33,-228 33,-209 95,-209 95,-228"/>
<text text-anchor="middle" x="64" y="-216" font-family="Helvetica,sans-Serif" font-size="10.00">CPPValue</text>
</a>
</g>
</g>
<!-- Node4&#45;&gt;Node3 -->
<g id="edge3" class="edge">
<title>Node4&#45;&gt;Node3</title>
<path fill="none" stroke="#9a32cd" stroke-dasharray="5,2" d="M64,-198.58C64,-186.63 64,-171.72 64,-162.41"/>
<polygon fill="#9a32cd" stroke="#9a32cd" points="60.5,-198.87 64,-208.87 67.5,-198.87 60.5,-198.87"/>
<text text-anchor="middle" x="93" y="-183" font-family="Helvetica,sans-Serif" font-size="10.00"> resultValue</text>
</g>
</g>
</svg>
