<?xml version="1.0" encoding="UTF-8" standalone="no"?>
<!DOCTYPE svg PUBLIC "-//W3C//DTD SVG 1.1//EN"
 "http://www.w3.org/Graphics/SVG/1.1/DTD/svg11.dtd">
<!-- Generated by graphviz version 2.43.0 (0)
 -->
<!-- Title: COutlineParser::Private Pages: 1 -->
<svg width="735pt" height="415pt"
 viewBox="0.00 0.00 734.50 415.00" xmlns="http://www.w3.org/2000/svg" xmlns:xlink="http://www.w3.org/1999/xlink">
<g id="graph0" class="graph" transform="scale(1 1) rotate(0) translate(4 411)">
<title>COutlineParser::Private</title>
<!-- Node1 -->
<g id="node1" class="node">
<title>Node1</title>
<g id="a_node1"><a xlink:title=" ">
<polygon fill="#999999" stroke="#666666" points="397,-19 268,-19 268,0 397,0 397,-19"/>
<text text-anchor="middle" x="332.5" y="-7" font-family="Helvetica,sans-Serif" font-size="10.00">COutlineParser::Private</text>
</a>
</g>
</g>
<!-- Node2 -->
<g id="node2" class="node">
<title>Node2</title>
<g id="a_node2"><a xlink:href="../../d4/dfb/structscanner_y_y__state.html" target="_top" xlink:title=" ">
<polygon fill="white" stroke="#666666" points="381,-85 284,-85 284,-66 381,-66 381,-85"/>
<text text-anchor="middle" x="332.5" y="-73" font-family="Helvetica,sans-Serif" font-size="10.00">scannerYY_state</text>
</a>
</g>
</g>
<!-- Node2&#45;&gt;Node1 -->
<g id="edge1" class="edge">
<title>Node2&#45;&gt;Node1</title>
<path fill="none" stroke="#9a32cd" stroke-dasharray="5,2" d="M332.5,-55.58C332.5,-43.63 332.5,-28.72 332.5,-19.41"/>
<polygon fill="#9a32cd" stroke="#9a32cd" points="329,-55.87 332.5,-65.87 336,-55.87 329,-55.87"/>
<text text-anchor="middle" x="346.5" y="-40" font-family="Helvetica,sans-Serif" font-size="10.00"> state</text>
</g>
<!-- Node3 -->
<g id="node3" class="node">
<title>Node3</title>
<g id="a_node3"><a xlink:href="../../d5/d79/class_outline_parser_interface.html" target="_top" xlink:title="Abstract interface for outline parsers.">
<polygon fill="white" stroke="#666666" points="125,-290 0,-290 0,-271 125,-271 125,-290"/>
<text text-anchor="middle" x="62.5" y="-278" font-family="Helvetica,sans-Serif" font-size="10.00">OutlineParserInterface</text>
</a>
</g>
</g>
<!-- Node3&#45;&gt;Node2 -->
<g id="edge2" class="edge">
<title>Node3&#45;&gt;Node2</title>
<path fill="none" stroke="#9a32cd" stroke-dasharray="5,2" d="M62.32,-260.47C63.11,-223.67 70.53,-142.86 118.5,-103 142.83,-82.78 228.3,-77.71 283.58,-76.6"/>
<polygon fill="#9a32cd" stroke="#9a32cd" points="58.82,-260.75 62.26,-270.77 65.82,-260.79 58.82,-260.75"/>
<text text-anchor="middle" x="144.5" y="-150" font-family="Helvetica,sans-Serif" font-size="10.00"> thisParser</text>
</g>
<!-- Node4 -->
<g id="node4" class="node">
<title>Node4</title>
<g id="a_node4"><a xlink:href="../../d0/d6b/class_comment_scanner.html" target="_top" xlink:title=" ">
<polygon fill="white" stroke="#666666" points="247.5,-290 143.5,-290 143.5,-271 247.5,-271 247.5,-290"/>
<text text-anchor="middle" x="195.5" y="-278" font-family="Helvetica,sans-Serif" font-size="10.00">CommentScanner</text>
</a>
</g>
</g>
<!-- Node4&#45;&gt;Node2 -->
<g id="edge3" class="edge">
<title>Node4&#45;&gt;Node2</title>
<path fill="none" stroke="#9a32cd" stroke-dasharray="5,2" d="M188.81,-261.02C177.38,-225.81 158.74,-148.56 196.5,-103 207.59,-89.62 249.49,-82.9 283.89,-79.59"/>
<polygon fill="#9a32cd" stroke="#9a32cd" points="185.64,-262.56 192.19,-270.88 192.26,-260.29 185.64,-262.56"/>
<text text-anchor="middle" x="241" y="-150" font-family="Helvetica,sans-Serif" font-size="10.00"> commentScanner</text>
</g>
<!-- Node5 -->
<g id="node5" class="node">
<title>Node5</title>
<g id="a_node5"><a xlink:href="../../d9/d45/class_q_c_string.html" target="_top" xlink:title="This is an alternative implementation of QCString.">
<polygon fill="white" stroke="#666666" points="345,-407 286,-407 286,-388 345,-388 345,-407"/>
<text text-anchor="middle" x="315.5" y="-395" font-family="Helvetica,sans-Serif" font-size="10.00">QCString</text>
</a>
</g>
</g>
<!-- Node5&#45;&gt;Node2 -->
<g id="edge4" class="edge">
<title>Node5&#45;&gt;Node2</title>
<path fill="none" stroke="#9a32cd" stroke-dasharray="5,2" d="M312.57,-377.97C311.02,-367.21 309.28,-353.37 308.5,-341 305.13,-287.33 304.05,-273.59 308.5,-220 312.79,-168.4 325.6,-107.42 330.53,-85.17"/>
<polygon fill="#9a32cd" stroke="#9a32cd" points="309.11,-378.52 314.07,-387.88 316.04,-377.47 309.11,-378.52"/>
<text text-anchor="middle" x="352.5" y="-333" font-family="Helvetica,sans-Serif" font-size="10.00"> aliasName</text>
<text text-anchor="middle" x="352.5" y="-322" font-family="Helvetica,sans-Serif" font-size="10.00">baseName</text>
<text text-anchor="middle" x="352.5" y="-311" font-family="Helvetica,sans-Serif" font-size="10.00">briefBackup</text>
<text text-anchor="middle" x="352.5" y="-300" font-family="Helvetica,sans-Serif" font-size="10.00">copyArgString</text>
<text text-anchor="middle" x="352.5" y="-289" font-family="Helvetica,sans-Serif" font-size="10.00">delimiter</text>
<text text-anchor="middle" x="352.5" y="-278" font-family="Helvetica,sans-Serif" font-size="10.00">docBackup</text>
<text text-anchor="middle" x="352.5" y="-267" font-family="Helvetica,sans-Serif" font-size="10.00">docBlockName</text>
<text text-anchor="middle" x="352.5" y="-256" font-family="Helvetica,sans-Serif" font-size="10.00">dummyRawString</text>
<text text-anchor="middle" x="352.5" y="-245" font-family="Helvetica,sans-Serif" font-size="10.00">fileName</text>
<text text-anchor="middle" x="352.5" y="-234" font-family="Helvetica,sans-Serif" font-size="10.00">fullArgString</text>
<text text-anchor="middle" x="352.5" y="-223" font-family="Helvetica,sans-Serif" font-size="10.00">...</text>
</g>
<!-- Node6 -->
<g id="node6" class="node">
<title>Node6</title>
<g id="a_node6"><a xlink:href="../../d7/df8/class_argument_list.html" target="_top" xlink:title="This class represents an function or template argument list.">
<polygon fill="white" stroke="#666666" points="487.5,-290 405.5,-290 405.5,-271 487.5,-271 487.5,-290"/>
<text text-anchor="middle" x="446.5" y="-278" font-family="Helvetica,sans-Serif" font-size="10.00">ArgumentList</text>
</a>
</g>
</g>
<!-- Node5&#45;&gt;Node6 -->
<g id="edge6" class="edge">
<title>Node5&#45;&gt;Node6</title>
<path fill="none" stroke="#9a32cd" stroke-dasharray="5,2" d="M337.23,-382.3C352.91,-371.66 374.27,-356.35 391.5,-341 410.2,-324.34 429.48,-302.08 439.5,-290.07"/>
<polygon fill="#9a32cd" stroke="#9a32cd" points="335.09,-379.52 328.72,-387.99 338.98,-385.34 335.09,-379.52"/>
<text text-anchor="middle" x="423.5" y="-362" font-family="Helvetica,sans-Serif" font-size="10.00"> m_trailingReturnType</text>
</g>
<!-- Node6&#45;&gt;Node2 -->
<g id="edge5" class="edge">
<title>Node6&#45;&gt;Node2</title>
<path fill="none" stroke="#9a32cd" stroke-dasharray="5,2" d="M435.78,-262.43C426.07,-246.83 411.5,-223.06 399.5,-202 374.81,-158.65 347.37,-105.57 336.89,-85.11"/>
<polygon fill="#9a32cd" stroke="#9a32cd" points="432.86,-264.37 441.13,-270.99 438.8,-260.65 432.86,-264.37"/>
<text text-anchor="middle" x="451" y="-150" font-family="Helvetica,sans-Serif" font-size="10.00"> currentArgumentList</text>
</g>
<!-- Node7 -->
<g id="node7" class="node">
<title>Node7</title>
<g id="a_node7"><a xlink:href="../../d3/d30/class_text_stream.html" target="_top" xlink:title="Text streaming class that buffers data.">
<polygon fill="white" stroke="#666666" points="577.5,-290 505.5,-290 505.5,-271 577.5,-271 577.5,-290"/>
<text text-anchor="middle" x="541.5" y="-278" font-family="Helvetica,sans-Serif" font-size="10.00">TextStream</text>
</a>
</g>
</g>
<!-- Node7&#45;&gt;Node2 -->
<g id="edge7" class="edge">
<title>Node7&#45;&gt;Node2</title>
<path fill="none" stroke="#9a32cd" stroke-dasharray="5,2" d="M537.65,-260.78C528.39,-215.9 505.41,-105.74 502.5,-103 485.35,-86.9 424.96,-80.58 381.02,-78.1"/>
<polygon fill="#9a32cd" stroke="#9a32cd" points="534.24,-261.58 539.69,-270.67 541.1,-260.17 534.24,-261.58"/>
<text text-anchor="middle" x="578" y="-194" font-family="Helvetica,sans-Serif" font-size="10.00"> docBlock</text>
<text text-anchor="middle" x="578" y="-183" font-family="Helvetica,sans-Serif" font-size="10.00">dummyTextStream</text>
<text text-anchor="middle" x="578" y="-172" font-family="Helvetica,sans-Serif" font-size="10.00">pCopyCurlyGString</text>
<text text-anchor="middle" x="578" y="-161" font-family="Helvetica,sans-Serif" font-size="10.00">pCopyHereDocGString</text>
<text text-anchor="middle" x="578" y="-150" font-family="Helvetica,sans-Serif" font-size="10.00">pCopyQuotedGString</text>
<text text-anchor="middle" x="578" y="-139" font-family="Helvetica,sans-Serif" font-size="10.00">pCopyRawGString</text>
<text text-anchor="middle" x="578" y="-128" font-family="Helvetica,sans-Serif" font-size="10.00">pCopyRoundGString</text>
<text text-anchor="middle" x="578" y="-117" font-family="Helvetica,sans-Serif" font-size="10.00">pCopySquareGString</text>
<text text-anchor="middle" x="578" y="-106" font-family="Helvetica,sans-Serif" font-size="10.00">pSkipVerbString</text>
</g>
<!-- Node8 -->
<g id="node8" class="node">
<title>Node8</title>
<g id="a_node8"><a xlink:href="../../dd/df8/class_clang_t_u_parser.html" target="_top" xlink:title="Clang parser object for a single translation unit, which consists of a source file and the directly o...">
<polygon fill="white" stroke="#666666" points="700.5,-290 612.5,-290 612.5,-271 700.5,-271 700.5,-290"/>
<text text-anchor="middle" x="656.5" y="-278" font-family="Helvetica,sans-Serif" font-size="10.00">ClangTUParser</text>
</a>
</g>
</g>
<!-- Node8&#45;&gt;Node2 -->
<g id="edge8" class="edge">
<title>Node8&#45;&gt;Node2</title>
<path fill="none" stroke="#9a32cd" stroke-dasharray="5,2" d="M660.84,-260.78C668.02,-224.5 677.63,-144.58 634.5,-103 616.67,-85.81 461.76,-79.57 381.01,-77.47"/>
<polygon fill="#9a32cd" stroke="#9a32cd" points="657.34,-260.4 658.67,-270.91 664.19,-261.87 657.34,-260.4"/>
<text text-anchor="middle" x="696.5" y="-150" font-family="Helvetica,sans-Serif" font-size="10.00"> clangParser</text>
</g>
</g>
</svg>
