<?xml version="1.0" encoding="UTF-8" standalone="no"?>
<!DOCTYPE svg PUBLIC "-//W3C//DTD SVG 1.1//EN"
 "http://www.w3.org/Graphics/SVG/1.1/DTD/svg11.dtd">
<!-- Generated by graphviz version 2.43.0 (0)
 -->
<!-- Title: ClassDefImpl Pages: 1 -->
<!--zoomable 1118 -->
<svg id="main" version="1.1" xmlns="http://www.w3.org/2000/svg" xmlns:xlink="http://www.w3.org/1999/xlink" xml:space="preserve" onload="init(evt)">
<style type="text/css"><![CDATA[
.edge:hover path { stroke: red; }
.edge:hover polygon { stroke: red; fill: red; }
]]></style>
<script type="text/javascript"><![CDATA[
var edges = document.getElementsByTagName('g');
if (edges && edges.length) {
  for (var i=0;i<edges.length;i++) {
    if (edges[i].id.substr(0,4)=='edge') {
      edges[i].setAttribute('class','edge');
    }
  }
}
]]></script>
        <defs>
                <circle id="rim" cx="0" cy="0" r="7"/>
                <circle id="rim2" cx="0" cy="0" r="3.5"/>
                <g id="zoomPlus">
                        <use xlink:href="#rim" fill="#404040">
                                <set attributeName="fill" to="#808080" begin="zoomplus.mouseover" end="zoomplus.mouseout"/>
                        </use>
                        <path d="M-4,0h8M0,-4v8" fill="none" stroke="white" stroke-width="1.5" pointer-events="none"/>
                </g>
                <g id="zoomMin">
                        <use xlink:href="#rim" fill="#404040">
                                <set attributeName="fill" to="#808080" begin="zoomminus.mouseover" end="zoomminus.mouseout"/>
                        </use>
                        <path d="M-4,0h8" fill="none" stroke="white" stroke-width="1.5" pointer-events="none"/>
                </g>
                <g id="dirArrow">
                        <path fill="none" stroke="white" stroke-width="1.5" d="M0,-3.0v7 M-2.5,-0.5L0,-3.0L2.5,-0.5"/>
                </g>
               <g id="resetDef">
                       <use xlink:href="#rim2" fill="#404040">
                               <set attributeName="fill" to="#808080" begin="reset.mouseover" end="reset.mouseout"/>
                       </use>
               </g>
        </defs>

<script type="text/javascript">
var viewWidth = 1871;
var viewHeight = 1118;
var sectionId = 'dynsection-1';
</script>
<script xlink:href="../../svgpan.js"/>
<svg id="graph" class="graph">
<g id="viewport">
<title>ClassDefImpl</title>
<!-- Node1 -->
<g id="node1" class="node">
<title>Node1</title>
<g id="a_node1"><a xlink:title="Implementation of the ClassDef interface.">
<polygon fill="#999999" stroke="#666666" points="1863,-478.5 1781,-478.5 1781,-459.5 1863,-459.5 1863,-478.5"/>
<text text-anchor="middle" x="1822" y="-466.5" font-family="Helvetica,sans-Serif" font-size="10.00">ClassDefImpl</text>
</a>
</g>
</g>
<!-- Node2 -->
<g id="node2" class="node">
<title>Node2</title>
<g id="a_node2"><a xlink:href="../../dd/d10/class_definition_mixin.html" target="_top" xlink:title=" ">
<polygon fill="white" stroke="#666666" points="1744,-536 1598,-536 1598,-506 1744,-506 1744,-536"/>
<text text-anchor="start" x="1606" y="-524" font-family="Helvetica,sans-Serif" font-size="10.00">DefinitionMixin&lt; ClassDef</text>
<text text-anchor="middle" x="1671" y="-513" font-family="Helvetica,sans-Serif" font-size="10.00">Mutable &gt;</text>
</a>
</g>
</g>
<!-- Node2&#45;&gt;Node1 -->
<g id="edge1" class="edge">
<title>Node2&#45;&gt;Node1</title>
<path fill="none" stroke="#63b8ff" d="M1724.82,-502.57C1748.01,-494.47 1774.28,-485.31 1793.49,-478.6"/>
<polygon fill="#63b8ff" stroke="#63b8ff" points="1723.39,-499.36 1715.1,-505.96 1725.69,-505.97 1723.39,-499.36"/>
</g>
<!-- Node3 -->
<g id="node3" class="node">
<title>Node3</title>
<g id="a_node3"><a xlink:href="../../d0/dc2/class_class_def_mutable.html" target="_top" xlink:title=" ">
<polygon fill="white" stroke="#666666" points="741,-517.5 641,-517.5 641,-498.5 741,-498.5 741,-517.5"/>
<text text-anchor="middle" x="691" y="-505.5" font-family="Helvetica,sans-Serif" font-size="10.00">ClassDefMutable</text>
</a>
</g>
</g>
<!-- Node3&#45;&gt;Node2 -->
<g id="edge2" class="edge">
<title>Node3&#45;&gt;Node2</title>
<path fill="none" stroke="#63b8ff" d="M751.25,-508C816.85,-508 925.73,-508 1019.5,-508 1019.5,-508 1019.5,-508 1385.5,-508 1457.81,-508 1540.35,-512.24 1597.84,-515.88"/>
<polygon fill="#63b8ff" stroke="#63b8ff" points="751.1,-504.5 741.1,-508 751.1,-511.5 751.1,-504.5"/>
</g>
<!-- Node4 -->
<g id="node4" class="node">
<title>Node4</title>
<g id="a_node4"><a xlink:href="../../d0/d46/class_definition_mutable.html" target="_top" xlink:title=" ">
<polygon fill="white" stroke="#666666" points="120.5,-524.5 16.5,-524.5 16.5,-505.5 120.5,-505.5 120.5,-524.5"/>
<text text-anchor="middle" x="68.5" y="-512.5" font-family="Helvetica,sans-Serif" font-size="10.00">DefinitionMutable</text>
</a>
</g>
</g>
<!-- Node4&#45;&gt;Node3 -->
<g id="edge3" class="edge">
<title>Node4&#45;&gt;Node3</title>
<path fill="none" stroke="#63b8ff" d="M130.52,-516.08C228.35,-517.54 426.33,-519.39 594,-514 609.19,-513.51 625.71,-512.61 640.7,-511.66"/>
<polygon fill="#63b8ff" stroke="#63b8ff" points="130.57,-512.58 120.52,-515.93 130.46,-519.58 130.57,-512.58"/>
</g>
<!-- Node16 -->
<g id="node16" class="node">
<title>Node16</title>
<g id="a_node16"><a xlink:href="../../de/db0/class_file_def.html" target="_top" xlink:title="A model of a file symbol.">
<polygon fill="white" stroke="#666666" points="403.5,-495.5 352.5,-495.5 352.5,-476.5 403.5,-476.5 403.5,-495.5"/>
<text text-anchor="middle" x="378" y="-483.5" font-family="Helvetica,sans-Serif" font-size="10.00">FileDef</text>
</a>
</g>
</g>
<!-- Node4&#45;&gt;Node16 -->
<g id="edge18" class="edge">
<title>Node4&#45;&gt;Node16</title>
<path fill="none" stroke="#63b8ff" d="M130.76,-509.22C198.62,-502.82 304.73,-492.82 352.38,-488.32"/>
<polygon fill="#63b8ff" stroke="#63b8ff" points="130.25,-505.76 120.62,-510.18 130.91,-512.72 130.25,-505.76"/>
</g>
<!-- Node5 -->
<g id="node5" class="node">
<title>Node5</title>
<g id="a_node5"><a xlink:href="../../d1/dcf/class_class_def.html" target="_top" xlink:title="A abstract class representing of a compound symbol.">
<polygon fill="white" stroke="#666666" points="408,-453.5 348,-453.5 348,-434.5 408,-434.5 408,-453.5"/>
<text text-anchor="middle" x="378" y="-441.5" font-family="Helvetica,sans-Serif" font-size="10.00">ClassDef</text>
</a>
</g>
</g>
<!-- Node5&#45;&gt;Node3 -->
<g id="edge4" class="edge">
<title>Node5&#45;&gt;Node3</title>
<path fill="none" stroke="#63b8ff" d="M418.4,-452.11C475.93,-463.95 582.7,-485.92 643.83,-498.5"/>
<polygon fill="#63b8ff" stroke="#63b8ff" points="418.76,-448.61 408.26,-450.02 417.35,-455.46 418.76,-448.61"/>
</g>
<!-- Node20 -->
<g id="node20" class="node">
<title>Node20</title>
<g id="a_node20"><a xlink:href="../../d6/d4a/class_class_def_impl_1_1_i_m_p_l.html" target="_top" xlink:title="Private data associated with a ClassDef object.">
<polygon fill="white" stroke="#666666" points="1076,-307.5 965,-307.5 965,-288.5 1076,-288.5 1076,-307.5"/>
<text text-anchor="middle" x="1020.5" y="-295.5" font-family="Helvetica,sans-Serif" font-size="10.00">ClassDefImpl::IMPL</text>
</a>
</g>
</g>
<!-- Node5&#45;&gt;Node20 -->
<g id="edge44" class="edge">
<title>Node5&#45;&gt;Node20</title>
<path fill="none" stroke="#9a32cd" stroke-dasharray="5,2" d="M418.33,-438.82C544.71,-422.15 932.96,-370.6 945,-365 974.02,-351.5 999.81,-322.79 1012.02,-307.71"/>
<polygon fill="#9a32cd" stroke="#9a32cd" points="417.76,-435.37 408.31,-440.15 418.68,-442.31 417.76,-435.37"/>
<text text-anchor="middle" x="691" y="-438" font-family="Helvetica,sans-Serif" font-size="10.00"> categoryOf</text>
<text text-anchor="middle" x="691" y="-427" font-family="Helvetica,sans-Serif" font-size="10.00">tagLessRef</text>
<text text-anchor="middle" x="691" y="-416" font-family="Helvetica,sans-Serif" font-size="10.00">templateMaster</text>
</g>
<!-- Node6 -->
<g id="node6" class="node">
<title>Node6</title>
<g id="a_node6"><a xlink:href="../../d5/dcc/class_definition.html" target="_top" xlink:title="The common base class of all entity definitions found in the sources.">
<polygon fill="white" stroke="#666666" points="100.5,-461.5 36.5,-461.5 36.5,-442.5 100.5,-442.5 100.5,-461.5"/>
<text text-anchor="middle" x="68.5" y="-449.5" font-family="Helvetica,sans-Serif" font-size="10.00">Definition</text>
</a>
</g>
</g>
<!-- Node6&#45;&gt;Node5 -->
<g id="edge5" class="edge">
<title>Node6&#45;&gt;Node5</title>
<path fill="none" stroke="#63b8ff" d="M110.68,-450.93C173.85,-449.29 293.1,-446.18 348,-444.75"/>
<polygon fill="#63b8ff" stroke="#63b8ff" points="110.58,-447.43 100.68,-451.19 110.76,-454.43 110.58,-447.43"/>
</g>
<!-- Node8 -->
<g id="node8" class="node">
<title>Node8</title>
<g id="a_node8"><a xlink:href="../../dd/d50/class_definition_impl_1_1_i_m_p_l.html" target="_top" xlink:title="Private data associated with a Symbol DefinitionImpl object.">
<polygon fill="white" stroke="#666666" points="1078,-825.5 963,-825.5 963,-806.5 1078,-806.5 1078,-825.5"/>
<text text-anchor="middle" x="1020.5" y="-813.5" font-family="Helvetica,sans-Serif" font-size="10.00">DefinitionImpl::IMPL</text>
</a>
</g>
</g>
<!-- Node6&#45;&gt;Node8 -->
<g id="edge8" class="edge">
<title>Node6&#45;&gt;Node8</title>
<path fill="none" stroke="#9a32cd" stroke-dasharray="5,2" d="M98.25,-466.76C111.26,-474.47 126.12,-484.84 137,-497 234.43,-605.87 198.66,-673.39 288,-789 360.35,-882.63 378.6,-917.33 486,-967 578.67,-1009.86 862.57,-1007.24 945,-947 988.31,-915.36 1010.03,-850.39 1016.96,-825.76"/>
<polygon fill="#9a32cd" stroke="#9a32cd" points="99.61,-463.51 89.19,-461.63 96.16,-469.6 99.61,-463.51"/>
<text text-anchor="middle" x="540" y="-1005" font-family="Helvetica,sans-Serif" font-size="10.00"> def</text>
<text text-anchor="middle" x="540" y="-994" font-family="Helvetica,sans-Serif" font-size="10.00">outerScope</text>
</g>
<!-- Node6&#45;&gt;Node16 -->
<g id="edge19" class="edge">
<title>Node6&#45;&gt;Node16</title>
<path fill="none" stroke="#63b8ff" d="M110.95,-456.58C175.9,-463.76 299.65,-477.45 352.3,-483.27"/>
<polygon fill="#63b8ff" stroke="#63b8ff" points="111,-453.07 100.68,-455.45 110.23,-460.03 111,-453.07"/>
</g>
<!-- Node40 -->
<g id="node40" class="node">
<title>Node40</title>
<g id="a_node40"><a xlink:href="../../da/d09/class_member_def.html" target="_top" xlink:title="A model of a class/file/namespace member symbol.">
<polygon fill="white" stroke="#666666" points="577,-254.5 503,-254.5 503,-235.5 577,-235.5 577,-254.5"/>
<text text-anchor="middle" x="540" y="-242.5" font-family="Helvetica,sans-Serif" font-size="10.00">MemberDef</text>
</a>
</g>
</g>
<!-- Node6&#45;&gt;Node40 -->
<g id="edge50" class="edge">
<title>Node6&#45;&gt;Node40</title>
<path fill="none" stroke="#63b8ff" d="M83.07,-434.38C114.28,-395.41 195.6,-302.31 288,-264 359.65,-234.29 452.61,-236.65 502.88,-240.88"/>
<polygon fill="#63b8ff" stroke="#63b8ff" points="80.31,-432.23 76.87,-442.25 85.81,-436.56 80.31,-432.23"/>
</g>
<!-- Node7 -->
<g id="node7" class="node">
<title>Node7</title>
<g id="a_node7"><a xlink:href="../../d3/ddf/class_definition_impl.html" target="_top" xlink:title=" ">
<polygon fill="white" stroke="#666666" points="1240,-593.5 1154,-593.5 1154,-574.5 1240,-574.5 1240,-593.5"/>
<text text-anchor="middle" x="1197" y="-581.5" font-family="Helvetica,sans-Serif" font-size="10.00">DefinitionImpl</text>
</a>
</g>
</g>
<!-- Node7&#45;&gt;Node2 -->
<g id="edge6" class="edge">
<title>Node7&#45;&gt;Node2</title>
<path fill="none" stroke="#9a32cd" stroke-dasharray="5,2" d="M1250.32,-574.59C1270.77,-571.05 1294.45,-567.13 1316,-564 1413.26,-549.86 1526.02,-536.72 1597.66,-528.78"/>
<polygon fill="#9a32cd" stroke="#9a32cd" points="1249.5,-571.18 1240.25,-576.34 1250.7,-578.07 1249.5,-571.18"/>
<text text-anchor="middle" x="1384.5" y="-567" font-family="Helvetica,sans-Serif" font-size="10.00"> m_impl</text>
</g>
<!-- Node18 -->
<g id="node18" class="node">
<title>Node18</title>
<g id="a_node18"><a xlink:href="../../dd/d10/class_definition_mixin.html" target="_top" xlink:title=" ">
<polygon fill="white" stroke="#666666" points="1453,-602.5 1316,-602.5 1316,-583.5 1453,-583.5 1453,-602.5"/>
<text text-anchor="middle" x="1384.5" y="-590.5" font-family="Helvetica,sans-Serif" font-size="10.00">DefinitionMixin&lt; Base &gt;</text>
</a>
</g>
</g>
<!-- Node7&#45;&gt;Node18 -->
<g id="edge24" class="edge">
<title>Node7&#45;&gt;Node18</title>
<path fill="none" stroke="#9a32cd" stroke-dasharray="5,2" d="M1250.11,-586.53C1270.47,-587.52 1294.09,-588.66 1315.74,-589.71"/>
<polygon fill="#9a32cd" stroke="#9a32cd" points="1250.25,-583.03 1240.09,-586.04 1249.91,-590.02 1250.25,-583.03"/>
<text text-anchor="middle" x="1278" y="-591" font-family="Helvetica,sans-Serif" font-size="10.00"> m_impl</text>
</g>
<!-- Node8&#45;&gt;Node7 -->
<g id="edge7" class="edge">
<title>Node8&#45;&gt;Node7</title>
<path fill="none" stroke="#9a32cd" stroke-dasharray="5,2" d="M1028.89,-796.77C1045.45,-755.96 1089.22,-659.77 1154,-603 1158.21,-599.31 1163.26,-596.21 1168.38,-593.67"/>
<polygon fill="#9a32cd" stroke="#9a32cd" points="1025.62,-795.52 1025.19,-806.11 1032.13,-798.1 1025.62,-795.52"/>
<text text-anchor="middle" x="1116" y="-667" font-family="Helvetica,sans-Serif" font-size="10.00"> m_impl</text>
</g>
<!-- Node9 -->
<g id="node9" class="node">
<title>Node9</title>
<g id="a_node9"><a xlink:href="../../d1/df9/class_section_refs.html" target="_top" xlink:title="class that represents a list of constant references to sections.">
<polygon fill="white" stroke="#666666" points="728,-742.5 654,-742.5 654,-723.5 728,-723.5 728,-742.5"/>
<text text-anchor="middle" x="691" y="-730.5" font-family="Helvetica,sans-Serif" font-size="10.00">SectionRefs</text>
</a>
</g>
</g>
<!-- Node9&#45;&gt;Node8 -->
<g id="edge9" class="edge">
<title>Node9&#45;&gt;Node8</title>
<path fill="none" stroke="#9a32cd" stroke-dasharray="5,2" d="M738.02,-727.12C790.35,-722.39 877.29,-720.55 945,-749 974.51,-761.4 1000.08,-790.59 1012.14,-806.02"/>
<polygon fill="#9a32cd" stroke="#9a32cd" points="737.65,-723.64 728.03,-728.1 738.33,-730.61 737.65,-723.64"/>
<text text-anchor="middle" x="866.5" y="-752" font-family="Helvetica,sans-Serif" font-size="10.00"> sectionRefs</text>
</g>
<!-- Node10 -->
<g id="node10" class="node">
<title>Node10</title>
<g id="a_node10"><a xlink:href="../../d3/d3b/class_group_list.html" target="_top" xlink:title=" ">
<polygon fill="white" stroke="#666666" points="722.5,-1092.5 659.5,-1092.5 659.5,-1073.5 722.5,-1073.5 722.5,-1092.5"/>
<text text-anchor="middle" x="691" y="-1080.5" font-family="Helvetica,sans-Serif" font-size="10.00">GroupList</text>
</a>
</g>
</g>
<!-- Node10&#45;&gt;Node8 -->
<g id="edge10" class="edge">
<title>Node10&#45;&gt;Node8</title>
<path fill="none" stroke="#9a32cd" stroke-dasharray="5,2" d="M732.88,-1092.19C787.58,-1101.92 884.67,-1109.9 945,-1061 1020.98,-999.41 1021.39,-862.74 1020,-825.52"/>
<polygon fill="#9a32cd" stroke="#9a32cd" points="733.33,-1088.71 722.86,-1090.3 732.03,-1095.59 733.33,-1088.71"/>
<text text-anchor="middle" x="866.5" y="-1102" font-family="Helvetica,sans-Serif" font-size="10.00"> partOfGroups</text>
</g>
<!-- Node11 -->
<g id="node11" class="node">
<title>Node11</title>
<g id="a_node11"><a xlink:title=" ">
<polygon fill="white" stroke="#666666" points="431,-1098 325,-1098 325,-1068 431,-1068 431,-1098"/>
<text text-anchor="start" x="333" y="-1086" font-family="Helvetica,sans-Serif" font-size="10.00">std::vector&lt; const</text>
<text text-anchor="middle" x="378" y="-1075" font-family="Helvetica,sans-Serif" font-size="10.00"> GroupDef * &gt;</text>
</a>
</g>
</g>
<!-- Node11&#45;&gt;Node10 -->
<g id="edge11" class="edge">
<title>Node11&#45;&gt;Node10</title>
<path fill="none" stroke="#63b8ff" d="M441.32,-1083C507.23,-1083 608.53,-1083 659.08,-1083"/>
<polygon fill="#63b8ff" stroke="#63b8ff" points="441.05,-1079.5 431.05,-1083 441.05,-1086.5 441.05,-1079.5"/>
</g>
<!-- Node12 -->
<g id="node12" class="node">
<title>Node12</title>
<g id="a_node12"><a xlink:href="../../d7/dd5/struct_doc_info.html" target="_top" xlink:title="Data associated with a detailed description.">
<polygon fill="white" stroke="#666666" points="718,-779.5 664,-779.5 664,-760.5 718,-760.5 718,-779.5"/>
<text text-anchor="middle" x="691" y="-767.5" font-family="Helvetica,sans-Serif" font-size="10.00">DocInfo</text>
</a>
</g>
</g>
<!-- Node12&#45;&gt;Node8 -->
<g id="edge12" class="edge">
<title>Node12&#45;&gt;Node8</title>
<path fill="none" stroke="#9a32cd" stroke-dasharray="5,2" d="M728.62,-766.83C778.42,-763.56 869.91,-761.24 945,-780 966.88,-785.47 989.94,-797.77 1004.51,-806.47"/>
<polygon fill="#9a32cd" stroke="#9a32cd" points="728.08,-763.36 718.35,-767.56 728.58,-770.34 728.08,-763.36"/>
<text text-anchor="middle" x="866.5" y="-794" font-family="Helvetica,sans-Serif" font-size="10.00"> details</text>
<text text-anchor="middle" x="866.5" y="-783" font-family="Helvetica,sans-Serif" font-size="10.00">inbodyDocs</text>
</g>
<!-- Node13 -->
<g id="node13" class="node">
<title>Node13</title>
<g id="a_node13"><a xlink:href="../../d9/d45/class_q_c_string.html" target="_top" xlink:title="This is an alternative implementation of QCString.">
<polygon fill="white" stroke="#666666" points="407.5,-779.5 348.5,-779.5 348.5,-760.5 407.5,-760.5 407.5,-779.5"/>
<text text-anchor="middle" x="378" y="-767.5" font-family="Helvetica,sans-Serif" font-size="10.00">QCString</text>
</a>
</g>
</g>
<!-- Node13&#45;&gt;Node8 -->
<g id="edge20" class="edge">
<title>Node13&#45;&gt;Node8</title>
<path fill="none" stroke="#9a32cd" stroke-dasharray="5,2" d="M417.53,-781.35C437.73,-786.79 463,-792.81 486,-796 658.37,-819.92 864.86,-819.51 962.71,-817.59"/>
<polygon fill="#9a32cd" stroke="#9a32cd" points="418.33,-777.94 407.76,-778.66 416.47,-784.69 418.33,-777.94"/>
<text text-anchor="middle" x="691" y="-929" font-family="Helvetica,sans-Serif" font-size="10.00"> briefSignatures</text>
<text text-anchor="middle" x="691" y="-918" font-family="Helvetica,sans-Serif" font-size="10.00">defFileExt</text>
<text text-anchor="middle" x="691" y="-907" font-family="Helvetica,sans-Serif" font-size="10.00">defFileName</text>
<text text-anchor="middle" x="691" y="-896" font-family="Helvetica,sans-Serif" font-size="10.00">docSignatures</text>
<text text-anchor="middle" x="691" y="-885" font-family="Helvetica,sans-Serif" font-size="10.00">id</text>
<text text-anchor="middle" x="691" y="-874" font-family="Helvetica,sans-Serif" font-size="10.00">localName</text>
<text text-anchor="middle" x="691" y="-863" font-family="Helvetica,sans-Serif" font-size="10.00">name</text>
<text text-anchor="middle" x="691" y="-852" font-family="Helvetica,sans-Serif" font-size="10.00">qualifiedName</text>
<text text-anchor="middle" x="691" y="-841" font-family="Helvetica,sans-Serif" font-size="10.00">ref</text>
<text text-anchor="middle" x="691" y="-830" font-family="Helvetica,sans-Serif" font-size="10.00">symbolName</text>
<text text-anchor="middle" x="691" y="-819" font-family="Helvetica,sans-Serif" font-size="10.00">...</text>
</g>
<!-- Node13&#45;&gt;Node12 -->
<g id="edge13" class="edge">
<title>Node13&#45;&gt;Node12</title>
<path fill="none" stroke="#9a32cd" stroke-dasharray="5,2" d="M417.82,-770C482.02,-770 608.68,-770 663.58,-770"/>
<polygon fill="#9a32cd" stroke="#9a32cd" points="417.7,-766.5 407.7,-770 417.7,-773.5 417.7,-766.5"/>
<text text-anchor="middle" x="540" y="-784" font-family="Helvetica,sans-Serif" font-size="10.00"> doc</text>
<text text-anchor="middle" x="540" y="-773" font-family="Helvetica,sans-Serif" font-size="10.00">file</text>
</g>
<!-- Node14 -->
<g id="node14" class="node">
<title>Node14</title>
<g id="a_node14"><a xlink:href="../../d0/da7/struct_brief_info.html" target="_top" xlink:title="Data associated with a brief description.">
<polygon fill="white" stroke="#666666" points="720.5,-974.5 661.5,-974.5 661.5,-955.5 720.5,-955.5 720.5,-974.5"/>
<text text-anchor="middle" x="691" y="-962.5" font-family="Helvetica,sans-Serif" font-size="10.00">BriefInfo</text>
</a>
</g>
</g>
<!-- Node13&#45;&gt;Node14 -->
<g id="edge15" class="edge">
<title>Node13&#45;&gt;Node14</title>
<path fill="none" stroke="#9a32cd" stroke-dasharray="5,2" d="M396.82,-786.41C434.08,-819.93 524.06,-896.79 612,-941 627.57,-948.83 646.18,-954.67 661.32,-958.64"/>
<polygon fill="#9a32cd" stroke="#9a32cd" points="399.06,-783.71 389.3,-779.59 394.35,-788.9 399.06,-783.71"/>
<text text-anchor="middle" x="540" y="-955" font-family="Helvetica,sans-Serif" font-size="10.00"> doc</text>
<text text-anchor="middle" x="540" y="-944" font-family="Helvetica,sans-Serif" font-size="10.00">file</text>
<text text-anchor="middle" x="540" y="-933" font-family="Helvetica,sans-Serif" font-size="10.00">tooltip</text>
</g>
<!-- Node13&#45;&gt;Node20 -->
<g id="edge26" class="edge">
<title>Node13&#45;&gt;Node20</title>
<path fill="none" stroke="#9a32cd" stroke-dasharray="5,2" d="M400.37,-754.24C439.92,-725.94 528.14,-666.8 612,-638 753.48,-589.42 833.84,-689.11 945,-589 988.69,-549.65 1013.22,-353.83 1018.44,-307.73"/>
<polygon fill="#9a32cd" stroke="#9a32cd" points="397.88,-751.72 391.83,-760.42 401.98,-757.4 397.88,-751.72"/>
<text text-anchor="middle" x="691" y="-707" font-family="Helvetica,sans-Serif" font-size="10.00"> className</text>
<text text-anchor="middle" x="691" y="-696" font-family="Helvetica,sans-Serif" font-size="10.00">collabFileName</text>
<text text-anchor="middle" x="691" y="-685" font-family="Helvetica,sans-Serif" font-size="10.00">fileName</text>
<text text-anchor="middle" x="691" y="-674" font-family="Helvetica,sans-Serif" font-size="10.00">inheritFileName</text>
<text text-anchor="middle" x="691" y="-663" font-family="Helvetica,sans-Serif" font-size="10.00">memberListFileName</text>
<text text-anchor="middle" x="691" y="-652" font-family="Helvetica,sans-Serif" font-size="10.00">metaData</text>
<text text-anchor="middle" x="691" y="-641" font-family="Helvetica,sans-Serif" font-size="10.00">requiresClause</text>
</g>
<!-- Node24 -->
<g id="node24" class="node">
<title>Node24</title>
<g id="a_node24"><a xlink:href="../../d7/df8/class_argument_list.html" target="_top" xlink:title="This class represents an function or template argument list.">
<polygon fill="white" stroke="#666666" points="732,-591.5 650,-591.5 650,-572.5 732,-572.5 732,-591.5"/>
<text text-anchor="middle" x="691" y="-579.5" font-family="Helvetica,sans-Serif" font-size="10.00">ArgumentList</text>
</a>
</g>
</g>
<!-- Node13&#45;&gt;Node24 -->
<g id="edge32" class="edge">
<title>Node13&#45;&gt;Node24</title>
<path fill="none" stroke="#9a32cd" stroke-dasharray="5,2" d="M385.14,-750.47C397.62,-714.37 429.66,-637.68 486,-603 536.03,-572.21 606.31,-572.38 649.96,-576.4"/>
<polygon fill="#9a32cd" stroke="#9a32cd" points="381.71,-749.69 381.89,-760.29 388.35,-751.9 381.71,-749.69"/>
<text text-anchor="middle" x="540" y="-606" font-family="Helvetica,sans-Serif" font-size="10.00"> m_trailingReturnType</text>
</g>
<!-- Node14&#45;&gt;Node8 -->
<g id="edge14" class="edge">
<title>Node14&#45;&gt;Node8</title>
<path fill="none" stroke="#9a32cd" stroke-dasharray="5,2" d="M730.42,-954.56C743.17,-950.73 757.34,-946.08 770,-941 860.61,-904.66 963.15,-848.08 1002.71,-825.64"/>
<polygon fill="#9a32cd" stroke="#9a32cd" points="729.17,-951.28 720.55,-957.45 731.13,-958 729.17,-951.28"/>
<text text-anchor="middle" x="866.5" y="-935" font-family="Helvetica,sans-Serif" font-size="10.00"> brief</text>
</g>
<!-- Node15 -->
<g id="node15" class="node">
<title>Node15</title>
<g id="a_node15"><a xlink:href="../../db/dab/struct_body_info.html" target="_top" xlink:title="Data associated with description found in the body.">
<polygon fill="white" stroke="#666666" points="721,-554.5 661,-554.5 661,-535.5 721,-535.5 721,-554.5"/>
<text text-anchor="middle" x="691" y="-542.5" font-family="Helvetica,sans-Serif" font-size="10.00">BodyInfo</text>
</a>
</g>
</g>
<!-- Node15&#45;&gt;Node8 -->
<g id="edge16" class="edge">
<title>Node15&#45;&gt;Node8</title>
<path fill="none" stroke="#9a32cd" stroke-dasharray="5,2" d="M731.41,-549.33C744.45,-552.09 758.54,-556.61 770,-564 780.91,-571.04 778.81,-577.84 788,-587 850.59,-649.38 884.17,-644.9 945,-709 975.54,-741.18 1002.99,-786.81 1014.17,-806.43"/>
<polygon fill="#9a32cd" stroke="#9a32cd" points="731.71,-545.83 721.24,-547.47 730.45,-552.72 731.71,-545.83"/>
<text text-anchor="middle" x="866.5" y="-712" font-family="Helvetica,sans-Serif" font-size="10.00"> body</text>
</g>
<!-- Node16&#45;&gt;Node15 -->
<g id="edge17" class="edge">
<title>Node16&#45;&gt;Node15</title>
<path fill="none" stroke="#9a32cd" stroke-dasharray="5,2" d="M413.69,-492.58C475.45,-504.3 603.35,-528.56 660.87,-539.47"/>
<polygon fill="#9a32cd" stroke="#9a32cd" points="414.14,-489.1 403.66,-490.68 412.84,-495.98 414.14,-489.1"/>
<text text-anchor="middle" x="540" y="-528" font-family="Helvetica,sans-Serif" font-size="10.00"> fileDef</text>
</g>
<!-- Node16&#45;&gt;Node20 -->
<g id="edge27" class="edge">
<title>Node16&#45;&gt;Node20</title>
<path fill="none" stroke="#9a32cd" stroke-dasharray="5,2" d="M413.77,-484.98C482.5,-482.43 640.34,-473.9 770,-447 849.96,-430.41 877.72,-437.28 945,-391 978.07,-368.25 1003.8,-326.57 1014.33,-307.72"/>
<polygon fill="#9a32cd" stroke="#9a32cd" points="413.39,-481.49 403.52,-485.34 413.64,-488.49 413.39,-481.49"/>
<text text-anchor="middle" x="691" y="-473" font-family="Helvetica,sans-Serif" font-size="10.00"> fileDef</text>
</g>
<!-- Node17 -->
<g id="node17" class="node">
<title>Node17</title>
<g id="a_node17"><a xlink:href="../../d1/d7d/class_member_vector.html" target="_top" xlink:title="A vector of MemberDef object.">
<polygon fill="white" stroke="#666666" points="735,-1050.5 647,-1050.5 647,-1031.5 735,-1031.5 735,-1050.5"/>
<text text-anchor="middle" x="691" y="-1038.5" font-family="Helvetica,sans-Serif" font-size="10.00">MemberVector</text>
</a>
</g>
</g>
<!-- Node17&#45;&gt;Node8 -->
<g id="edge21" class="edge">
<title>Node17&#45;&gt;Node8</title>
<path fill="none" stroke="#9a32cd" stroke-dasharray="5,2" d="M745.37,-1038.71C814.92,-1035.28 929.56,-1027.9 945,-1016 1008.4,-967.16 1017.85,-858.35 1019.26,-825.55"/>
<polygon fill="#9a32cd" stroke="#9a32cd" points="744.85,-1035.23 735.03,-1039.21 745.19,-1042.23 744.85,-1035.23"/>
<text text-anchor="middle" x="866.5" y="-1050" font-family="Helvetica,sans-Serif" font-size="10.00"> referencedByMembers</text>
<text text-anchor="middle" x="866.5" y="-1039" font-family="Helvetica,sans-Serif" font-size="10.00">referencesMembers</text>
</g>
<!-- Node18&#45;&gt;Node2 -->
<g id="edge22" class="edge">
<title>Node18&#45;&gt;Node2</title>
<path fill="none" stroke="orange" stroke-dasharray="5,2" d="M1463.36,-589.3C1499.48,-586 1542.59,-579.76 1580,-568 1603.88,-560.49 1628.96,-546.85 1646.56,-536.19"/>
<polygon fill="orange" stroke="orange" points="1463.03,-585.82 1453.37,-590.16 1463.63,-592.79 1463.03,-585.82"/>
<text text-anchor="middle" x="1525.5" y="-591" font-family="Helvetica,sans-Serif" font-size="10.00"> &lt; ClassDefMutable &gt;</text>
</g>
<!-- Node19 -->
<g id="node19" class="node">
<title>Node19</title>
<g id="a_node19"><a xlink:title=" ">
<polygon fill="white" stroke="#666666" points="1217.5,-630.5 1176.5,-630.5 1176.5,-611.5 1217.5,-611.5 1217.5,-630.5"/>
<text text-anchor="middle" x="1197" y="-618.5" font-family="Helvetica,sans-Serif" font-size="10.00">Base</text>
</a>
</g>
</g>
<!-- Node19&#45;&gt;Node18 -->
<g id="edge23" class="edge">
<title>Node19&#45;&gt;Node18</title>
<path fill="none" stroke="#63b8ff" d="M1227.42,-616.56C1252.34,-612.8 1288.94,-607.27 1320.44,-602.52"/>
<polygon fill="#63b8ff" stroke="#63b8ff" points="1226.87,-613.1 1217.5,-618.06 1227.91,-620.02 1226.87,-613.1"/>
</g>
<!-- Node20&#45;&gt;Node1 -->
<g id="edge25" class="edge">
<title>Node20&#45;&gt;Node1</title>
<path fill="none" stroke="#9a32cd" stroke-dasharray="5,2" d="M1030.83,-316.93C1053.09,-359.08 1113.66,-457 1196,-457 1196,-457 1196,-457 1672,-457 1708.98,-457 1750.96,-460.72 1780.91,-464.02"/>
<polygon fill="#9a32cd" stroke="#9a32cd" points="1033.9,-315.25 1026.22,-307.95 1027.67,-318.44 1033.9,-315.25"/>
<text text-anchor="middle" x="1384.5" y="-460" font-family="Helvetica,sans-Serif" font-size="10.00"> m_impl</text>
</g>
<!-- Node21 -->
<g id="node21" class="node">
<title>Node21</title>
<g id="a_node21"><a xlink:href="../../de/d04/class_member_name_info_linked_map.html" target="_top" xlink:title=" ">
<polygon fill="white" stroke="#666666" points="770,-35.5 612,-35.5 612,-16.5 770,-16.5 770,-35.5"/>
<text text-anchor="middle" x="691" y="-23.5" font-family="Helvetica,sans-Serif" font-size="10.00">MemberNameInfoLinkedMap</text>
</a>
</g>
</g>
<!-- Node21&#45;&gt;Node20 -->
<g id="edge28" class="edge">
<title>Node21&#45;&gt;Node20</title>
<path fill="none" stroke="#9a32cd" stroke-dasharray="5,2" d="M743.57,-14.72C799.55,-5.68 888.49,-1.07 945,-47 984.42,-79.04 1011.79,-246.45 1018.11,-288.44"/>
<polygon fill="#9a32cd" stroke="#9a32cd" points="742.77,-11.31 733.51,-16.45 743.96,-18.2 742.77,-11.31"/>
<text text-anchor="middle" x="866.5" y="-50" font-family="Helvetica,sans-Serif" font-size="10.00"> allMemberNameInfoLinkedMap</text>
</g>
<!-- Node22 -->
<g id="node22" class="node">
<title>Node22</title>
<g id="a_node22"><a xlink:href="../../d0/d2c/class_linked_map.html" target="_top" xlink:title=" ">
<polygon fill="white" stroke="#666666" points="468,-24.5 288,-24.5 288,-5.5 468,-5.5 468,-24.5"/>
<text text-anchor="middle" x="378" y="-12.5" font-family="Helvetica,sans-Serif" font-size="10.00">LinkedMap&lt; MemberNameInfo &gt;</text>
</a>
</g>
</g>
<!-- Node22&#45;&gt;Node21 -->
<g id="edge29" class="edge">
<title>Node22&#45;&gt;Node21</title>
<path fill="none" stroke="#63b8ff" d="M478.38,-18.51C521.59,-20.04 571.49,-21.81 611.97,-23.24"/>
<polygon fill="#63b8ff" stroke="#63b8ff" points="478.24,-15.01 468.12,-18.15 477.99,-22 478.24,-15.01"/>
</g>
<!-- Node23 -->
<g id="node23" class="node">
<title>Node23</title>
<g id="a_node23"><a xlink:href="../../d0/d2c/class_linked_map.html" target="_top" xlink:title="Container class representing a vector of objects with keys.">
<polygon fill="white" stroke="#666666" points="128.5,-30 8.5,-30 8.5,0 128.5,0 128.5,-30"/>
<text text-anchor="start" x="16.5" y="-18" font-family="Helvetica,sans-Serif" font-size="10.00">LinkedMap&lt; T, Hash,</text>
<text text-anchor="middle" x="68.5" y="-7" font-family="Helvetica,sans-Serif" font-size="10.00"> KeyEqual, Map &gt;</text>
</a>
</g>
</g>
<!-- Node23&#45;&gt;Node22 -->
<g id="edge30" class="edge">
<title>Node23&#45;&gt;Node22</title>
<path fill="none" stroke="orange" stroke-dasharray="5,2" d="M138.84,-15C182.92,-15 240.43,-15 287.89,-15"/>
<polygon fill="orange" stroke="orange" points="138.79,-11.5 128.79,-15 138.79,-18.5 138.79,-11.5"/>
<text text-anchor="middle" x="212.5" y="-18" font-family="Helvetica,sans-Serif" font-size="10.00"> &lt; MemberNameInfo &gt;</text>
</g>
<!-- Node24&#45;&gt;Node20 -->
<g id="edge31" class="edge">
<title>Node24&#45;&gt;Node20</title>
<path fill="none" stroke="#9a32cd" stroke-dasharray="5,2" d="M742.22,-575.23C798.98,-564.99 890.55,-540.29 945,-483 995.57,-429.8 1013.48,-337.84 1018.14,-307.8"/>
<polygon fill="#9a32cd" stroke="#9a32cd" points="741.3,-571.83 732.04,-576.98 742.49,-578.73 741.3,-571.83"/>
<text text-anchor="middle" x="866.5" y="-577" font-family="Helvetica,sans-Serif" font-size="10.00"> tempArgs</text>
<text text-anchor="middle" x="866.5" y="-566" font-family="Helvetica,sans-Serif" font-size="10.00">typeConstraints</text>
</g>
<!-- Node25 -->
<g id="node25" class="node">
<title>Node25</title>
<g id="a_node25"><a xlink:href="../../d0/d18/class_file_list.html" target="_top" xlink:title=" ">
<polygon fill="white" stroke="#666666" points="716.5,-363.5 665.5,-363.5 665.5,-344.5 716.5,-344.5 716.5,-363.5"/>
<text text-anchor="middle" x="691" y="-351.5" font-family="Helvetica,sans-Serif" font-size="10.00">FileList</text>
</a>
</g>
</g>
<!-- Node25&#45;&gt;Node20 -->
<g id="edge33" class="edge">
<title>Node25&#45;&gt;Node20</title>
<path fill="none" stroke="#9a32cd" stroke-dasharray="5,2" d="M726.92,-353.19C776.19,-351.38 868.63,-345.59 945,-327 963.88,-322.4 984.39,-314.16 999.1,-307.64"/>
<polygon fill="#9a32cd" stroke="#9a32cd" points="726.67,-349.69 716.79,-353.52 726.9,-356.69 726.67,-349.69"/>
<text text-anchor="middle" x="866.5" y="-353" font-family="Helvetica,sans-Serif" font-size="10.00"> files</text>
</g>
<!-- Node26 -->
<g id="node26" class="node">
<title>Node26</title>
<g id="a_node26"><a xlink:title=" ">
<polygon fill="white" stroke="#666666" points="431,-378 325,-378 325,-348 431,-348 431,-378"/>
<text text-anchor="start" x="333" y="-366" font-family="Helvetica,sans-Serif" font-size="10.00">std::vector&lt; const</text>
<text text-anchor="middle" x="378" y="-355" font-family="Helvetica,sans-Serif" font-size="10.00"> FileDef * &gt;</text>
</a>
</g>
</g>
<!-- Node26&#45;&gt;Node25 -->
<g id="edge34" class="edge">
<title>Node26&#45;&gt;Node25</title>
<path fill="none" stroke="#63b8ff" d="M441.31,-361.2C509.99,-359.21 617.09,-356.11 665.17,-354.72"/>
<polygon fill="#63b8ff" stroke="#63b8ff" points="440.95,-357.71 431.05,-361.49 441.15,-364.7 440.95,-357.71"/>
</g>
<!-- Node27 -->
<g id="node27" class="node">
<title>Node27</title>
<g id="a_node27"><a xlink:href="../../d1/d48/class_example_list.html" target="_top" xlink:title=" ">
<polygon fill="white" stroke="#666666" points="729.5,-326.5 652.5,-326.5 652.5,-307.5 729.5,-307.5 729.5,-326.5"/>
<text text-anchor="middle" x="691" y="-314.5" font-family="Helvetica,sans-Serif" font-size="10.00">ExampleList</text>
</a>
</g>
</g>
<!-- Node27&#45;&gt;Node20 -->
<g id="edge35" class="edge">
<title>Node27&#45;&gt;Node20</title>
<path fill="none" stroke="#9a32cd" stroke-dasharray="5,2" d="M739.87,-314.22C799.69,-310.75 901.83,-304.83 964.72,-301.18"/>
<polygon fill="#9a32cd" stroke="#9a32cd" points="739.35,-310.75 729.57,-314.82 739.75,-317.74 739.35,-310.75"/>
<text text-anchor="middle" x="866.5" y="-315" font-family="Helvetica,sans-Serif" font-size="10.00"> examples</text>
</g>
<!-- Node28 -->
<g id="node28" class="node">
<title>Node28</title>
<g id="a_node28"><a xlink:title=" ">
<polygon fill="white" stroke="#666666" points="445,-329.5 311,-329.5 311,-310.5 445,-310.5 445,-329.5"/>
<text text-anchor="middle" x="378" y="-317.5" font-family="Helvetica,sans-Serif" font-size="10.00">std::vector&lt; Example &gt;</text>
</a>
</g>
</g>
<!-- Node28&#45;&gt;Node27 -->
<g id="edge36" class="edge">
<title>Node28&#45;&gt;Node27</title>
<path fill="none" stroke="#63b8ff" d="M455.53,-319.26C517.94,-318.66 603.46,-317.83 652.09,-317.37"/>
<polygon fill="#63b8ff" stroke="#63b8ff" points="455.3,-315.76 445.34,-319.36 455.37,-322.76 455.3,-315.76"/>
</g>
<!-- Node29 -->
<g id="node29" class="node">
<title>Node29</title>
<g id="a_node29"><a xlink:href="../../da/d08/class_class_linked_ref_map.html" target="_top" xlink:title=" ">
<polygon fill="white" stroke="#666666" points="747,-126.5 635,-126.5 635,-107.5 747,-107.5 747,-126.5"/>
<text text-anchor="middle" x="691" y="-114.5" font-family="Helvetica,sans-Serif" font-size="10.00">ClassLinkedRefMap</text>
</a>
</g>
</g>
<!-- Node29&#45;&gt;Node20 -->
<g id="edge37" class="edge">
<title>Node29&#45;&gt;Node20</title>
<path fill="none" stroke="#9a32cd" stroke-dasharray="5,2" d="M757.35,-115.45C822.09,-115.17 915.71,-118.54 945,-139 997.73,-175.83 1014.15,-259.96 1018.29,-288.4"/>
<polygon fill="#9a32cd" stroke="#9a32cd" points="757.19,-111.95 747.22,-115.52 757.24,-118.95 757.19,-111.95"/>
<text text-anchor="middle" x="866.5" y="-142" font-family="Helvetica,sans-Serif" font-size="10.00"> innerClasses</text>
</g>
<!-- Node30 -->
<g id="node30" class="node">
<title>Node30</title>
<g id="a_node30"><a xlink:href="../../d2/db7/class_linked_ref_map.html" target="_top" xlink:title=" ">
<polygon fill="white" stroke="#666666" points="439.5,-121 316.5,-121 316.5,-91 439.5,-91 439.5,-121"/>
<text text-anchor="start" x="324.5" y="-109" font-family="Helvetica,sans-Serif" font-size="10.00">LinkedRefMap&lt; const</text>
<text text-anchor="middle" x="378" y="-98" font-family="Helvetica,sans-Serif" font-size="10.00"> ClassDef &gt;</text>
</a>
</g>
</g>
<!-- Node30&#45;&gt;Node29 -->
<g id="edge38" class="edge">
<title>Node30&#45;&gt;Node29</title>
<path fill="none" stroke="#63b8ff" d="M449.93,-108.51C506.08,-110.49 583.37,-113.23 634.92,-115.05"/>
<polygon fill="#63b8ff" stroke="#63b8ff" points="449.82,-105 439.7,-108.15 449.57,-112 449.82,-105"/>
</g>
<!-- Node31 -->
<g id="node31" class="node">
<title>Node31</title>
<g id="a_node31"><a xlink:href="../../d2/db7/class_linked_ref_map.html" target="_top" xlink:title="Container class representing a vector of objects with keys.">
<polygon fill="white" stroke="#666666" points="137,-121 0,-121 0,-91 137,-91 137,-121"/>
<text text-anchor="start" x="8" y="-109" font-family="Helvetica,sans-Serif" font-size="10.00">LinkedRefMap&lt; T, Hash,</text>
<text text-anchor="middle" x="68.5" y="-98" font-family="Helvetica,sans-Serif" font-size="10.00"> KeyEqual, Map &gt;</text>
</a>
</g>
</g>
<!-- Node31&#45;&gt;Node30 -->
<g id="edge39" class="edge">
<title>Node31&#45;&gt;Node30</title>
<path fill="none" stroke="orange" stroke-dasharray="5,2" d="M147.62,-106C200.02,-106 268.02,-106 316.34,-106"/>
<polygon fill="orange" stroke="orange" points="147.36,-102.5 137.36,-106 147.36,-109.5 147.36,-102.5"/>
<text text-anchor="middle" x="212.5" y="-109" font-family="Helvetica,sans-Serif" font-size="10.00"> &lt; const ClassDef &gt;</text>
</g>
<!-- Node32 -->
<g id="node32" class="node">
<title>Node32</title>
<g id="a_node32"><a xlink:href="../../dd/d1c/class_uses_class_list.html" target="_top" xlink:title=" ">
<polygon fill="white" stroke="#666666" points="733,-289.5 649,-289.5 649,-270.5 733,-270.5 733,-289.5"/>
<text text-anchor="middle" x="691" y="-277.5" font-family="Helvetica,sans-Serif" font-size="10.00">UsesClassList</text>
</a>
</g>
</g>
<!-- Node32&#45;&gt;Node20 -->
<g id="edge40" class="edge">
<title>Node32&#45;&gt;Node20</title>
<path fill="none" stroke="#9a32cd" stroke-dasharray="5,2" d="M743.18,-274.45C794.5,-270 875.65,-265.97 945,-276 961.55,-278.39 979.55,-283.63 993.71,-288.39"/>
<polygon fill="#9a32cd" stroke="#9a32cd" points="742.65,-270.98 733.01,-275.37 743.28,-277.96 742.65,-270.98"/>
<text text-anchor="middle" x="866.5" y="-290" font-family="Helvetica,sans-Serif" font-size="10.00"> usedByImplClassList</text>
<text text-anchor="middle" x="866.5" y="-279" font-family="Helvetica,sans-Serif" font-size="10.00">usesImplClassList</text>
</g>
<!-- Node33 -->
<g id="node33" class="node">
<title>Node33</title>
<g id="a_node33"><a xlink:title=" ">
<polygon fill="white" stroke="#666666" points="457,-292.5 299,-292.5 299,-273.5 457,-273.5 457,-292.5"/>
<text text-anchor="middle" x="378" y="-280.5" font-family="Helvetica,sans-Serif" font-size="10.00">std::vector&lt; UsesClassDef &gt;</text>
</a>
</g>
</g>
<!-- Node33&#45;&gt;Node32 -->
<g id="edge41" class="edge">
<title>Node33&#45;&gt;Node32</title>
<path fill="none" stroke="#63b8ff" d="M467.24,-282.15C526.77,-281.57 602.59,-280.84 648.65,-280.4"/>
<polygon fill="#63b8ff" stroke="#63b8ff" points="467.04,-278.65 457.08,-282.25 467.11,-285.65 467.04,-278.65"/>
</g>
<!-- Node34 -->
<g id="node34" class="node">
<title>Node34</title>
<g id="a_node34"><a xlink:href="../../d6/d69/class_constraint_class_list.html" target="_top" xlink:title=" ">
<polygon fill="white" stroke="#666666" points="746,-204.5 636,-204.5 636,-185.5 746,-185.5 746,-204.5"/>
<text text-anchor="middle" x="691" y="-192.5" font-family="Helvetica,sans-Serif" font-size="10.00">ConstraintClassList</text>
</a>
</g>
</g>
<!-- Node34&#45;&gt;Node20 -->
<g id="edge42" class="edge">
<title>Node34&#45;&gt;Node20</title>
<path fill="none" stroke="#9a32cd" stroke-dasharray="5,2" d="M756.13,-187.76C809.43,-184.59 885.86,-186.84 945,-216 978.12,-232.33 1003.47,-270.29 1014.07,-288.25"/>
<polygon fill="#9a32cd" stroke="#9a32cd" points="755.86,-184.27 746.12,-188.43 756.33,-191.25 755.86,-184.27"/>
<text text-anchor="middle" x="866.5" y="-219" font-family="Helvetica,sans-Serif" font-size="10.00"> constraintClassList</text>
</g>
<!-- Node35 -->
<g id="node35" class="node">
<title>Node35</title>
<g id="a_node35"><a xlink:title=" ">
<polygon fill="white" stroke="#666666" points="456,-217 300,-217 300,-187 456,-187 456,-217"/>
<text text-anchor="start" x="308" y="-205" font-family="Helvetica,sans-Serif" font-size="10.00">std::vector&lt; ConstraintClass</text>
<text text-anchor="middle" x="378" y="-194" font-family="Helvetica,sans-Serif" font-size="10.00">Def &gt;</text>
</a>
</g>
</g>
<!-- Node35&#45;&gt;Node34 -->
<g id="edge43" class="edge">
<title>Node35&#45;&gt;Node34</title>
<path fill="none" stroke="#63b8ff" d="M466.6,-200.03C520.91,-198.81 588.97,-197.27 635.61,-196.22"/>
<polygon fill="#63b8ff" stroke="#63b8ff" points="466.19,-196.54 456.28,-200.26 466.35,-203.53 466.19,-196.54"/>
</g>
<!-- Node36 -->
<g id="node36" class="node">
<title>Node36</title>
<g id="a_node36"><a xlink:href="../../dd/d5a/class_member_lists.html" target="_top" xlink:title=" ">
<polygon fill="white" stroke="#666666" points="731,-166.5 651,-166.5 651,-147.5 731,-147.5 731,-166.5"/>
<text text-anchor="middle" x="691" y="-154.5" font-family="Helvetica,sans-Serif" font-size="10.00">MemberLists</text>
</a>
</g>
</g>
<!-- Node36&#45;&gt;Node20 -->
<g id="edge45" class="edge">
<title>Node36&#45;&gt;Node20</title>
<path fill="none" stroke="#9a32cd" stroke-dasharray="5,2" d="M741.3,-154.56C805.11,-152.3 912,-151.86 945,-172 989.47,-199.14 1010.49,-263.61 1017.1,-288.22"/>
<polygon fill="#9a32cd" stroke="#9a32cd" points="740.93,-151.07 731.07,-154.95 741.2,-158.06 740.93,-151.07"/>
<text text-anchor="middle" x="866.5" y="-175" font-family="Helvetica,sans-Serif" font-size="10.00"> memberLists</text>
</g>
<!-- Node37 -->
<g id="node37" class="node">
<title>Node37</title>
<g id="a_node37"><a xlink:title=" ">
<polygon fill="white" stroke="#666666" points="445,-169 311,-169 311,-139 445,-139 445,-169"/>
<text text-anchor="start" x="319" y="-157" font-family="Helvetica,sans-Serif" font-size="10.00">std::vector&lt; std::unique</text>
<text text-anchor="middle" x="378" y="-146" font-family="Helvetica,sans-Serif" font-size="10.00">_ptr&lt; MemberList &gt; &gt;</text>
</a>
</g>
</g>
<!-- Node37&#45;&gt;Node36 -->
<g id="edge46" class="edge">
<title>Node37&#45;&gt;Node36</title>
<path fill="none" stroke="#63b8ff" d="M455.45,-154.74C517.3,-155.33 601.9,-156.15 650.77,-156.62"/>
<polygon fill="#63b8ff" stroke="#63b8ff" points="455.37,-151.24 445.34,-154.64 455.3,-158.24 455.37,-151.24"/>
</g>
<!-- Node38 -->
<g id="node38" class="node">
<title>Node38</title>
<g id="a_node38"><a xlink:href="../../df/d11/class_member_group_list.html" target="_top" xlink:title=" ">
<polygon fill="white" stroke="#666666" points="743,-83.5 639,-83.5 639,-64.5 743,-64.5 743,-83.5"/>
<text text-anchor="middle" x="691" y="-71.5" font-family="Helvetica,sans-Serif" font-size="10.00">MemberGroupList</text>
</a>
</g>
</g>
<!-- Node38&#45;&gt;Node20 -->
<g id="edge47" class="edge">
<title>Node38&#45;&gt;Node20</title>
<path fill="none" stroke="#9a32cd" stroke-dasharray="5,2" d="M753.16,-63.81C808.9,-58.07 890.62,-58.99 945,-101 1007.21,-149.06 1017.48,-255.35 1019.17,-288.16"/>
<polygon fill="#9a32cd" stroke="#9a32cd" points="752.6,-60.35 743.06,-64.95 753.39,-67.3 752.6,-60.35"/>
<text text-anchor="middle" x="866.5" y="-104" font-family="Helvetica,sans-Serif" font-size="10.00"> memberGroups</text>
</g>
<!-- Node39 -->
<g id="node39" class="node">
<title>Node39</title>
<g id="a_node39"><a xlink:title=" ">
<polygon fill="white" stroke="#666666" points="447.5,-73 308.5,-73 308.5,-43 447.5,-43 447.5,-73"/>
<text text-anchor="start" x="316.5" y="-61" font-family="Helvetica,sans-Serif" font-size="10.00">std::vector&lt; std::unique</text>
<text text-anchor="middle" x="378" y="-50" font-family="Helvetica,sans-Serif" font-size="10.00">_ptr&lt; MemberGroup &gt; &gt;</text>
</a>
</g>
</g>
<!-- Node39&#45;&gt;Node38 -->
<g id="edge48" class="edge">
<title>Node39&#45;&gt;Node38</title>
<path fill="none" stroke="#63b8ff" d="M457.67,-62.05C514.53,-64.97 589.7,-68.84 638.92,-71.37"/>
<polygon fill="#63b8ff" stroke="#63b8ff" points="457.8,-58.55 447.64,-61.53 457.44,-65.54 457.8,-58.55"/>
</g>
<!-- Node40&#45;&gt;Node20 -->
<g id="edge49" class="edge">
<title>Node40&#45;&gt;Node20</title>
<path fill="none" stroke="#9a32cd" stroke-dasharray="5,2" d="M587.28,-241.61C663.28,-237.33 818.7,-233.96 945,-266 965.19,-271.12 986.94,-281.02 1001.69,-288.45"/>
<polygon fill="#9a32cd" stroke="#9a32cd" points="586.87,-238.13 577.1,-242.22 587.29,-245.12 586.87,-238.13"/>
<text text-anchor="middle" x="691" y="-245" font-family="Helvetica,sans-Serif" font-size="10.00"> arrowOperator</text>
</g>
</g>
</svg>
        <g id="navigator" transform="translate(0 0)" fill="#404254">
                <rect fill="#f2f5e9" fill-opacity="0.5" stroke="#606060" stroke-width=".5" x="0" y="0" width="60" height="60"/>
                <use id="zoomplus" xlink:href="#zoomPlus" x="17" y="9" onmousedown="handleZoom(evt,'in')"/>
                <use id="zoomminus" xlink:href="#zoomMin" x="42" y="9" onmousedown="handleZoom(evt,'out')"/>
                <use id="reset" xlink:href="#resetDef" x="30" y="36" onmousedown="handleReset()"/>
                <g id="arrowUp" xlink:href="#dirArrow" transform="translate(30 24)" onmousedown="handlePan(0,-1)">
                  <use xlink:href="#rim" fill="#404040">
                        <set attributeName="fill" to="#808080" begin="arrowUp.mouseover" end="arrowUp.mouseout"/>
                  </use>
                  <path fill="none" stroke="white" stroke-width="1.5" d="M0,-3.0v7 M-2.5,-0.5L0,-3.0L2.5,-0.5"/>
                </g>
                <g id="arrowRight" xlink:href="#dirArrow" transform="rotate(90) translate(36 -43)" onmousedown="handlePan(1,0)">
                  <use xlink:href="#rim" fill="#404040">
                        <set attributeName="fill" to="#808080" begin="arrowRight.mouseover" end="arrowRight.mouseout"/>
                  </use>
                  <path fill="none" stroke="white" stroke-width="1.5" d="M0,-3.0v7 M-2.5,-0.5L0,-3.0L2.5,-0.5"/>
                </g>
                <g id="arrowDown" xlink:href="#dirArrow" transform="rotate(180) translate(-30 -48)" onmousedown="handlePan(0,1)">
                  <use xlink:href="#rim" fill="#404040">
                        <set attributeName="fill" to="#808080" begin="arrowDown.mouseover" end="arrowDown.mouseout"/>
                  </use>
                  <path fill="none" stroke="white" stroke-width="1.5" d="M0,-3.0v7 M-2.5,-0.5L0,-3.0L2.5,-0.5"/>
                </g>
                <g id="arrowLeft" xlink:href="#dirArrow" transform="rotate(270) translate(-36 17)" onmousedown="handlePan(-1,0)">
                  <use xlink:href="#rim" fill="#404040">
                        <set attributeName="fill" to="#808080" begin="arrowLeft.mouseover" end="arrowLeft.mouseout"/>
                  </use>
                  <path fill="none" stroke="white" stroke-width="1.5" d="M0,-3.0v7 M-2.5,-0.5L0,-3.0L2.5,-0.5"/>
                </g>
        </g>
        <svg viewBox="0 0 15 15" width="100%" height="30px" preserveAspectRatio="xMaxYMin meet">
         <g id="arrow_out" transform="scale(0.3 0.3)">
          <a xlink:href="class_class_def_impl__coll__graph_org.svg" target="_base">
           <rect id="button" ry="5" rx="5" y="6" x="6" height="38" width="38"
                fill="#f2f5e9" fill-opacity="0.5" stroke="#606060" stroke-width="1.0"/>
           <path id="arrow"
             d="M 11.500037,31.436501 C 11.940474,20.09759 22.043105,11.32322 32.158766,21.979434 L 37.068811,17.246167 C 37.068811,17.246167 37.088388,32 37.088388,32 L 22.160133,31.978069 C 22.160133,31.978069 26.997745,27.140456 26.997745,27.140456 C 18.528582,18.264221 13.291696,25.230495 11.500037,31.436501 z"
             style="fill:#404040;"/>
          </a>
         </g>
        </svg>
</svg>
