<?xml version="1.0" encoding="UTF-8" standalone="no"?>
<!DOCTYPE svg PUBLIC "-//W3C//DTD SVG 1.1//EN"
 "http://www.w3.org/Graphics/SVG/1.1/DTD/svg11.dtd">
<!-- Generated by graphviz version 2.43.0 (0)
 -->
<!-- Title: LinkedRefMap&lt; T, Hash, KeyEqual, Map &gt; Pages: 1 -->
<svg width="614pt" height="278pt"
 viewBox="0.00 0.00 614.00 278.00" xmlns="http://www.w3.org/2000/svg" xmlns:xlink="http://www.w3.org/1999/xlink">
<g id="graph0" class="graph" transform="scale(1 1) rotate(0) translate(4 274)">
<title>LinkedRefMap&lt; T, Hash, KeyEqual, Map &gt;</title>
<!-- Node1 -->
<g id="node1" class="node">
<title>Node1</title>
<g id="a_node1"><a xlink:title="Container class representing a vector of objects with keys.">
<polygon fill="#999999" stroke="#666666" points="137,-150 0,-150 0,-120 137,-120 137,-150"/>
<text text-anchor="start" x="8" y="-138" font-family="Helvetica,sans-Serif" font-size="10.00">LinkedRefMap&lt; T, Hash,</text>
<text text-anchor="middle" x="68.5" y="-127" font-family="Helvetica,sans-Serif" font-size="10.00"> KeyEqual, Map &gt;</text>
</a>
</g>
</g>
<!-- Node2 -->
<g id="node2" class="node">
<title>Node2</title>
<g id="a_node2"><a xlink:href="../../d2/db7/class_linked_ref_map.html" target="_top" xlink:title=" ">
<polygon fill="white" stroke="#666666" points="426,-270 303,-270 303,-240 426,-240 426,-270"/>
<text text-anchor="start" x="311" y="-258" font-family="Helvetica,sans-Serif" font-size="10.00">LinkedRefMap&lt; const</text>
<text text-anchor="middle" x="364.5" y="-247" font-family="Helvetica,sans-Serif" font-size="10.00"> ClassDef &gt;</text>
</a>
</g>
</g>
<!-- Node1&#45;&gt;Node2 -->
<g id="edge1" class="edge">
<title>Node1&#45;&gt;Node2</title>
<path fill="none" stroke="orange" stroke-dasharray="5,2" d="M89.93,-157.98C106,-174.63 129.82,-196.36 155,-209 201.54,-232.37 259.8,-243.94 302.9,-249.63"/>
<polygon fill="orange" stroke="orange" points="92.09,-155.17 82.69,-150.28 86.99,-159.96 92.09,-155.17"/>
<text text-anchor="middle" x="220" y="-249" font-family="Helvetica,sans-Serif" font-size="10.00"> &lt; const ClassDef &gt;</text>
</g>
<!-- Node4 -->
<g id="node4" class="node">
<title>Node4</title>
<g id="a_node4"><a xlink:href="../../d2/db7/class_linked_ref_map.html" target="_top" xlink:title=" ">
<polygon fill="white" stroke="#666666" points="426,-222 303,-222 303,-192 426,-192 426,-222"/>
<text text-anchor="start" x="311" y="-210" font-family="Helvetica,sans-Serif" font-size="10.00">LinkedRefMap&lt; const</text>
<text text-anchor="middle" x="364.5" y="-199" font-family="Helvetica,sans-Serif" font-size="10.00"> ConceptDef &gt;</text>
</a>
</g>
</g>
<!-- Node1&#45;&gt;Node4 -->
<g id="edge3" class="edge">
<title>Node1&#45;&gt;Node4</title>
<path fill="none" stroke="orange" stroke-dasharray="5,2" d="M115.15,-153.71C127.9,-158.49 141.87,-163.31 155,-167 203.97,-180.76 260.73,-191.3 302.65,-198.11"/>
<polygon fill="orange" stroke="orange" points="116.25,-150.38 105.66,-150.08 113.75,-156.92 116.25,-150.38"/>
<text text-anchor="middle" x="220" y="-197" font-family="Helvetica,sans-Serif" font-size="10.00"> &lt; const ConceptDef &gt;</text>
</g>
<!-- Node6 -->
<g id="node6" class="node">
<title>Node6</title>
<g id="a_node6"><a xlink:href="../../d2/db7/class_linked_ref_map.html" target="_top" xlink:title=" ">
<polygon fill="white" stroke="#666666" points="426,-174 303,-174 303,-144 426,-144 426,-174"/>
<text text-anchor="start" x="311" y="-162" font-family="Helvetica,sans-Serif" font-size="10.00">LinkedRefMap&lt; const</text>
<text text-anchor="middle" x="364.5" y="-151" font-family="Helvetica,sans-Serif" font-size="10.00"> MemberDef &gt;</text>
</a>
</g>
</g>
<!-- Node1&#45;&gt;Node6 -->
<g id="edge5" class="edge">
<title>Node1&#45;&gt;Node6</title>
<path fill="none" stroke="orange" stroke-dasharray="5,2" d="M147.47,-141.36C196.01,-145.33 257.55,-150.35 302.52,-154.02"/>
<polygon fill="orange" stroke="orange" points="147.57,-137.86 137.32,-140.54 147,-144.84 147.57,-137.86"/>
<text text-anchor="middle" x="220" y="-155" font-family="Helvetica,sans-Serif" font-size="10.00"> &lt; const MemberDef &gt;</text>
</g>
<!-- Node8 -->
<g id="node8" class="node">
<title>Node8</title>
<g id="a_node8"><a xlink:href="../../d2/db7/class_linked_ref_map.html" target="_top" xlink:title=" ">
<polygon fill="white" stroke="#666666" points="426,-126 303,-126 303,-96 426,-96 426,-126"/>
<text text-anchor="start" x="311" y="-114" font-family="Helvetica,sans-Serif" font-size="10.00">LinkedRefMap&lt; const</text>
<text text-anchor="middle" x="364.5" y="-103" font-family="Helvetica,sans-Serif" font-size="10.00"> NamespaceDef &gt;</text>
</a>
</g>
</g>
<!-- Node1&#45;&gt;Node8 -->
<g id="edge7" class="edge">
<title>Node1&#45;&gt;Node8</title>
<path fill="none" stroke="orange" stroke-dasharray="5,2" d="M147.29,-127.67C149.89,-127.44 152.47,-127.22 155,-127 204.74,-122.76 261.2,-118.46 302.81,-115.39"/>
<polygon fill="orange" stroke="orange" points="146.82,-124.19 137.16,-128.56 147.43,-131.17 146.82,-124.19"/>
<text text-anchor="middle" x="220" y="-130" font-family="Helvetica,sans-Serif" font-size="10.00"> &lt; const NamespaceDef &gt;</text>
</g>
<!-- Node10 -->
<g id="node10" class="node">
<title>Node10</title>
<g id="a_node10"><a xlink:href="../../d2/db7/class_linked_ref_map.html" target="_top" xlink:title=" ">
<polygon fill="white" stroke="#666666" points="426,-78 303,-78 303,-48 426,-48 426,-78"/>
<text text-anchor="start" x="311" y="-66" font-family="Helvetica,sans-Serif" font-size="10.00">LinkedRefMap&lt; const</text>
<text text-anchor="middle" x="364.5" y="-55" font-family="Helvetica,sans-Serif" font-size="10.00"> PageDef &gt;</text>
</a>
</g>
</g>
<!-- Node1&#45;&gt;Node10 -->
<g id="edge9" class="edge">
<title>Node1&#45;&gt;Node10</title>
<path fill="none" stroke="orange" stroke-dasharray="5,2" d="M112.53,-115.96C125.94,-110.55 140.91,-105.04 155,-101 203.81,-87 260.58,-77.05 302.55,-70.85"/>
<polygon fill="orange" stroke="orange" points="110.99,-112.81 103.08,-119.86 113.66,-119.28 110.99,-112.81"/>
<text text-anchor="middle" x="220" y="-104" font-family="Helvetica,sans-Serif" font-size="10.00"> &lt; const PageDef &gt;</text>
</g>
<!-- Node12 -->
<g id="node12" class="node">
<title>Node12</title>
<g id="a_node12"><a xlink:href="../../d2/db7/class_linked_ref_map.html" target="_top" xlink:title=" ">
<polygon fill="white" stroke="#666666" points="426,-30 303,-30 303,0 426,0 426,-30"/>
<text text-anchor="start" x="311" y="-18" font-family="Helvetica,sans-Serif" font-size="10.00">LinkedRefMap&lt; const</text>
<text text-anchor="middle" x="364.5" y="-7" font-family="Helvetica,sans-Serif" font-size="10.00"> Definition &gt;</text>
</a>
</g>
</g>
<!-- Node1&#45;&gt;Node12 -->
<g id="edge11" class="edge">
<title>Node1&#45;&gt;Node12</title>
<path fill="none" stroke="orange" stroke-dasharray="5,2" d="M88.41,-112.37C104.35,-94.81 128.72,-71.29 155,-58 201.34,-34.56 259.62,-23.9 302.77,-19.05"/>
<polygon fill="orange" stroke="orange" points="85.7,-110.15 81.7,-119.96 90.95,-114.78 85.7,-110.15"/>
<text text-anchor="middle" x="220" y="-61" font-family="Helvetica,sans-Serif" font-size="10.00"> &lt; const Definition &gt;</text>
</g>
<!-- Node3 -->
<g id="node3" class="node">
<title>Node3</title>
<g id="a_node3"><a xlink:href="../../da/d08/class_class_linked_ref_map.html" target="_top" xlink:title=" ">
<polygon fill="white" stroke="#666666" points="590.5,-264.5 478.5,-264.5 478.5,-245.5 590.5,-245.5 590.5,-264.5"/>
<text text-anchor="middle" x="534.5" y="-252.5" font-family="Helvetica,sans-Serif" font-size="10.00">ClassLinkedRefMap</text>
</a>
</g>
</g>
<!-- Node2&#45;&gt;Node3 -->
<g id="edge2" class="edge">
<title>Node2&#45;&gt;Node3</title>
<path fill="none" stroke="#63b8ff" d="M436.26,-255C450.29,-255 464.82,-255 478.24,-255"/>
<polygon fill="#63b8ff" stroke="#63b8ff" points="436.15,-251.5 426.15,-255 436.15,-258.5 436.15,-251.5"/>
</g>
<!-- Node5 -->
<g id="node5" class="node">
<title>Node5</title>
<g id="a_node5"><a xlink:href="../../d4/daa/class_concept_linked_ref_map.html" target="_top" xlink:title=" ">
<polygon fill="white" stroke="#666666" points="597,-216.5 472,-216.5 472,-197.5 597,-197.5 597,-216.5"/>
<text text-anchor="middle" x="534.5" y="-204.5" font-family="Helvetica,sans-Serif" font-size="10.00">ConceptLinkedRefMap</text>
</a>
</g>
</g>
<!-- Node4&#45;&gt;Node5 -->
<g id="edge4" class="edge">
<title>Node4&#45;&gt;Node5</title>
<path fill="none" stroke="#63b8ff" d="M436.38,-207C448.16,-207 460.28,-207 471.81,-207"/>
<polygon fill="#63b8ff" stroke="#63b8ff" points="436.15,-203.5 426.15,-207 436.15,-210.5 436.15,-203.5"/>
</g>
<!-- Node7 -->
<g id="node7" class="node">
<title>Node7</title>
<g id="a_node7"><a xlink:href="../../dc/d77/class_member_linked_ref_map.html" target="_top" xlink:title=" ">
<polygon fill="white" stroke="#666666" points="597.5,-168.5 471.5,-168.5 471.5,-149.5 597.5,-149.5 597.5,-168.5"/>
<text text-anchor="middle" x="534.5" y="-156.5" font-family="Helvetica,sans-Serif" font-size="10.00">MemberLinkedRefMap</text>
</a>
</g>
</g>
<!-- Node6&#45;&gt;Node7 -->
<g id="edge6" class="edge">
<title>Node6&#45;&gt;Node7</title>
<path fill="none" stroke="#63b8ff" d="M436.25,-159C447.88,-159 459.85,-159 471.24,-159"/>
<polygon fill="#63b8ff" stroke="#63b8ff" points="436.15,-155.5 426.15,-159 436.15,-162.5 436.15,-155.5"/>
</g>
<!-- Node9 -->
<g id="node9" class="node">
<title>Node9</title>
<g id="a_node9"><a xlink:href="../../da/df0/class_namespace_linked_ref_map.html" target="_top" xlink:title=" ">
<polygon fill="white" stroke="#666666" points="606,-120.5 463,-120.5 463,-101.5 606,-101.5 606,-120.5"/>
<text text-anchor="middle" x="534.5" y="-108.5" font-family="Helvetica,sans-Serif" font-size="10.00">NamespaceLinkedRefMap</text>
</a>
</g>
</g>
<!-- Node8&#45;&gt;Node9 -->
<g id="edge8" class="edge">
<title>Node8&#45;&gt;Node9</title>
<path fill="none" stroke="#63b8ff" d="M436.36,-111C445.16,-111 454.15,-111 462.94,-111"/>
<polygon fill="#63b8ff" stroke="#63b8ff" points="436.15,-107.5 426.15,-111 436.15,-114.5 436.15,-107.5"/>
</g>
<!-- Node11 -->
<g id="node11" class="node">
<title>Node11</title>
<g id="a_node11"><a xlink:href="../../d9/de6/class_page_linked_ref_map.html" target="_top" xlink:title=" ">
<polygon fill="white" stroke="#666666" points="589,-72.5 480,-72.5 480,-53.5 589,-53.5 589,-72.5"/>
<text text-anchor="middle" x="534.5" y="-60.5" font-family="Helvetica,sans-Serif" font-size="10.00">PageLinkedRefMap</text>
</a>
</g>
</g>
<!-- Node10&#45;&gt;Node11 -->
<g id="edge10" class="edge">
<title>Node10&#45;&gt;Node11</title>
<path fill="none" stroke="#63b8ff" d="M436.17,-63C450.81,-63 465.99,-63 479.9,-63"/>
<polygon fill="#63b8ff" stroke="#63b8ff" points="436.15,-59.5 426.15,-63 436.15,-66.5 436.15,-59.5"/>
</g>
</g>
</svg>
