<?xml version="1.0" encoding="UTF-8" standalone="no"?>
<!DOCTYPE svg PUBLIC "-//W3C//DTD SVG 1.1//EN"
 "http://www.w3.org/Graphics/SVG/1.1/DTD/svg11.dtd">
<!-- Generated by graphviz version 2.43.0 (0)
 -->
<!-- Title: /home/runner/work/doxygen/doxygen/src/docbookgen.h Pages: 1 -->
<!--zoomable 368 -->
<svg id="main" version="1.1" xmlns="http://www.w3.org/2000/svg" xmlns:xlink="http://www.w3.org/1999/xlink" xml:space="preserve" onload="init(evt)">
<style type="text/css"><![CDATA[
.edge:hover path { stroke: red; }
.edge:hover polygon { stroke: red; fill: red; }
]]></style>
<script type="text/javascript"><![CDATA[
var edges = document.getElementsByTagName('g');
if (edges && edges.length) {
  for (var i=0;i<edges.length;i++) {
    if (edges[i].id.substr(0,4)=='edge') {
      edges[i].setAttribute('class','edge');
    }
  }
}
]]></script>
        <defs>
                <circle id="rim" cx="0" cy="0" r="7"/>
                <circle id="rim2" cx="0" cy="0" r="3.5"/>
                <g id="zoomPlus">
                        <use xlink:href="#rim" fill="#404040">
                                <set attributeName="fill" to="#808080" begin="zoomplus.mouseover" end="zoomplus.mouseout"/>
                        </use>
                        <path d="M-4,0h8M0,-4v8" fill="none" stroke="white" stroke-width="1.5" pointer-events="none"/>
                </g>
                <g id="zoomMin">
                        <use xlink:href="#rim" fill="#404040">
                                <set attributeName="fill" to="#808080" begin="zoomminus.mouseover" end="zoomminus.mouseout"/>
                        </use>
                        <path d="M-4,0h8" fill="none" stroke="white" stroke-width="1.5" pointer-events="none"/>
                </g>
                <g id="dirArrow">
                        <path fill="none" stroke="white" stroke-width="1.5" d="M0,-3.0v7 M-2.5,-0.5L0,-3.0L2.5,-0.5"/>
                </g>
               <g id="resetDef">
                       <use xlink:href="#rim2" fill="#404040">
                               <set attributeName="fill" to="#808080" begin="reset.mouseover" end="reset.mouseout"/>
                       </use>
               </g>
        </defs>

<script type="text/javascript">
var viewWidth = 1094;
var viewHeight = 368;
var sectionId = 'dynsection-0';
</script>
<script xlink:href="../../svgpan.js"/>
<svg id="graph" class="graph">
<g id="viewport">
<title>/home/runner/work/doxygen/doxygen/src/docbookgen.h</title>
<!-- Node1 -->
<g id="node1" class="node">
<title>Node1</title>
<g id="a_node1"><a xlink:title=" ">
<polygon fill="#999999" stroke="#666666" points="1047,-360 893,-360 893,-330 1047,-330 1047,-360"/>
<text text-anchor="start" x="901" y="-348" font-family="Helvetica,sans-Serif" font-size="10.00">/home/runner/work/doxygen</text>
<text text-anchor="middle" x="970" y="-337" font-family="Helvetica,sans-Serif" font-size="10.00">/doxygen/src/docbookgen.h</text>
</a>
</g>
</g>
<!-- Node2 -->
<g id="node2" class="node">
<title>Node2</title>
<g id="a_node2"><a xlink:title=" ">
<polygon fill="#e0e0e0" stroke="#999999" points="1005,-184 945,-184 945,-165 1005,-165 1005,-184"/>
<text text-anchor="middle" x="975" y="-172" font-family="Helvetica,sans-Serif" font-size="10.00">iostream</text>
</a>
</g>
</g>
<!-- Node1&#45;&gt;Node2 -->
<g id="edge1" class="edge">
<title>Node1&#45;&gt;Node2</title>
<path fill="none" stroke="#63b8ff" d="M970.42,-329.92C971.32,-299.65 973.43,-228.35 974.44,-194.27"/>
<polygon fill="#63b8ff" stroke="#63b8ff" points="977.94,-194.35 974.74,-184.25 970.95,-194.15 977.94,-194.35"/>
</g>
<!-- Node3 -->
<g id="node3" class="node">
<title>Node3</title>
<g id="a_node3"><a xlink:href="../../db/d16/config_8h.html" target="_top" xlink:title=" ">
<polygon fill="white" stroke="#666666" points="1061.5,-294 1006.5,-294 1006.5,-275 1061.5,-275 1061.5,-294"/>
<text text-anchor="middle" x="1034" y="-282" font-family="Helvetica,sans-Serif" font-size="10.00">config.h</text>
</a>
</g>
</g>
<!-- Node1&#45;&gt;Node3 -->
<g id="edge2" class="edge">
<title>Node1&#45;&gt;Node3</title>
<path fill="none" stroke="#63b8ff" d="M985.49,-329.84C994.97,-321.17 1007.11,-310.08 1016.88,-301.15"/>
<polygon fill="#63b8ff" stroke="#63b8ff" points="1019.39,-303.6 1024.41,-294.27 1014.67,-298.43 1019.39,-303.6"/>
</g>
<!-- Node5 -->
<g id="node5" class="node">
<title>Node5</title>
<g id="a_node5"><a xlink:href="../../df/d06/outputgen_8h.html" target="_top" xlink:title=" ">
<polygon fill="white" stroke="#666666" points="703.5,-294 628.5,-294 628.5,-275 703.5,-275 703.5,-294"/>
<text text-anchor="middle" x="666" y="-282" font-family="Helvetica,sans-Serif" font-size="10.00">outputgen.h</text>
</a>
</g>
</g>
<!-- Node1&#45;&gt;Node5 -->
<g id="edge4" class="edge">
<title>Node1&#45;&gt;Node5</title>
<path fill="none" stroke="#63b8ff" d="M897.18,-329.99C840.28,-319.04 762.83,-304.13 713.62,-294.66"/>
<polygon fill="#63b8ff" stroke="#63b8ff" points="714.04,-291.18 703.56,-292.73 712.72,-298.06 714.04,-291.18"/>
</g>
<!-- Node4 -->
<g id="node4" class="node">
<title>Node4</title>
<g id="a_node4"><a xlink:title=" ">
<polygon fill="#e0e0e0" stroke="#999999" points="1085.5,-239 998.5,-239 998.5,-220 1085.5,-220 1085.5,-239"/>
<text text-anchor="middle" x="1042" y="-227" font-family="Helvetica,sans-Serif" font-size="10.00">configvalues.h</text>
</a>
</g>
</g>
<!-- Node3&#45;&gt;Node4 -->
<g id="edge3" class="edge">
<title>Node3&#45;&gt;Node4</title>
<path fill="none" stroke="#63b8ff" d="M1035.32,-274.75C1036.37,-267.8 1037.87,-257.85 1039.19,-249.13"/>
<polygon fill="#63b8ff" stroke="#63b8ff" points="1042.67,-249.5 1040.7,-239.09 1035.75,-248.45 1042.67,-249.5"/>
</g>
<!-- Node5&#45;&gt;Node2 -->
<g id="edge7" class="edge">
<title>Node5&#45;&gt;Node2</title>
<path fill="none" stroke="#63b8ff" d="M703.81,-276.72C740.93,-269.48 798.83,-256.63 847,-239 885.01,-225.09 926.56,-203.12 951.7,-189.01"/>
<polygon fill="#63b8ff" stroke="#63b8ff" points="953.52,-192 960.49,-184.02 950.07,-185.91 953.52,-192"/>
</g>
<!-- Node6 -->
<g id="node6" class="node">
<title>Node6</title>
<g id="a_node6"><a xlink:title=" ">
<polygon fill="#e0e0e0" stroke="#999999" points="58,-129 0,-129 0,-110 58,-110 58,-129"/>
<text text-anchor="middle" x="29" y="-117" font-family="Helvetica,sans-Serif" font-size="10.00">memory</text>
</a>
</g>
</g>
<!-- Node5&#45;&gt;Node6 -->
<g id="edge5" class="edge">
<title>Node5&#45;&gt;Node6</title>
<path fill="none" stroke="#63b8ff" d="M628.23,-282.3C523.59,-278.67 231.68,-266.3 140,-239 90.64,-224.3 67.44,-226.26 38,-184 28.95,-171.01 27.18,-152.86 27.39,-139.29"/>
<polygon fill="#63b8ff" stroke="#63b8ff" points="30.89,-139.35 27.92,-129.18 23.9,-138.99 30.89,-139.35"/>
</g>
<!-- Node7 -->
<g id="node7" class="node">
<title>Node7</title>
<g id="a_node7"><a xlink:title=" ">
<polygon fill="#e0e0e0" stroke="#999999" points="809.5,-239 766.5,-239 766.5,-220 809.5,-220 809.5,-239"/>
<text text-anchor="middle" x="788" y="-227" font-family="Helvetica,sans-Serif" font-size="10.00">stack</text>
</a>
</g>
</g>
<!-- Node5&#45;&gt;Node7 -->
<g id="edge6" class="edge">
<title>Node5&#45;&gt;Node7</title>
<path fill="none" stroke="#63b8ff" d="M685.6,-274.98C705.32,-266.42 735.95,-253.11 758.58,-243.28"/>
<polygon fill="#63b8ff" stroke="#63b8ff" points="760.26,-246.37 768.04,-239.17 757.48,-239.94 760.26,-246.37"/>
</g>
<!-- Node8 -->
<g id="node8" class="node">
<title>Node8</title>
<g id="a_node8"><a xlink:title=" ">
<polygon fill="#e0e0e0" stroke="#999999" points="926.5,-184 871.5,-184 871.5,-165 926.5,-165 926.5,-184"/>
<text text-anchor="middle" x="899" y="-172" font-family="Helvetica,sans-Serif" font-size="10.00">fstream</text>
</a>
</g>
</g>
<!-- Node5&#45;&gt;Node8 -->
<g id="edge8" class="edge">
<title>Node5&#45;&gt;Node8</title>
<path fill="none" stroke="#63b8ff" d="M703.73,-276.63C735.44,-269.89 781.32,-257.86 818,-239 842.67,-226.32 867.21,-205.66 882.7,-191.37"/>
<polygon fill="#63b8ff" stroke="#63b8ff" points="885.45,-193.59 890.32,-184.18 880.65,-188.5 885.45,-193.59"/>
</g>
<!-- Node9 -->
<g id="node9" class="node">
<title>Node9</title>
<g id="a_node9"><a xlink:href="../../d9/d49/types_8h.html" target="_top" xlink:title="This file contains a number of basic enums and types.">
<polygon fill="white" stroke="#666666" points="533.5,-239 480.5,-239 480.5,-220 533.5,-220 533.5,-239"/>
<text text-anchor="middle" x="507" y="-227" font-family="Helvetica,sans-Serif" font-size="10.00">types.h</text>
</a>
</g>
</g>
<!-- Node5&#45;&gt;Node9 -->
<g id="edge9" class="edge">
<title>Node5&#45;&gt;Node9</title>
<path fill="none" stroke="#63b8ff" d="M640.45,-274.98C613.88,-266.13 572.06,-252.19 542.33,-242.28"/>
<polygon fill="#63b8ff" stroke="#63b8ff" points="543.34,-238.92 532.75,-239.08 541.13,-245.56 543.34,-238.92"/>
</g>
<!-- Node20 -->
<g id="node20" class="node">
<title>Node20</title>
<g id="a_node20"><a xlink:href="../../d1/db5/index_8h.html" target="_top" xlink:title=" ">
<polygon fill="white" stroke="#666666" points="621.5,-239 568.5,-239 568.5,-220 621.5,-220 621.5,-239"/>
<text text-anchor="middle" x="595" y="-227" font-family="Helvetica,sans-Serif" font-size="10.00">index.h</text>
</a>
</g>
</g>
<!-- Node5&#45;&gt;Node20 -->
<g id="edge22" class="edge">
<title>Node5&#45;&gt;Node20</title>
<path fill="none" stroke="#63b8ff" d="M654.59,-274.98C643.89,-267 627.66,-254.88 614.84,-245.31"/>
<polygon fill="#63b8ff" stroke="#63b8ff" points="616.72,-242.35 606.61,-239.17 612.53,-247.96 616.72,-242.35"/>
</g>
<!-- Node21 -->
<g id="node21" class="node">
<title>Node21</title>
<g id="a_node21"><a xlink:href="../../d1/d2a/section_8h.html" target="_top" xlink:title=" ">
<polygon fill="white" stroke="#666666" points="407.5,-239 346.5,-239 346.5,-220 407.5,-220 407.5,-239"/>
<text text-anchor="middle" x="377" y="-227" font-family="Helvetica,sans-Serif" font-size="10.00">section.h</text>
</a>
</g>
</g>
<!-- Node5&#45;&gt;Node21 -->
<g id="edge24" class="edge">
<title>Node5&#45;&gt;Node21</title>
<path fill="none" stroke="#63b8ff" d="M628.22,-276.57C573.77,-266.59 473.66,-248.23 417.65,-237.96"/>
<polygon fill="#63b8ff" stroke="#63b8ff" points="418.2,-234.5 407.73,-236.14 416.94,-241.38 418.2,-234.5"/>
</g>
<!-- Node25 -->
<g id="node25" class="node">
<title>Node25</title>
<g id="a_node25"><a xlink:href="../../d4/d7d/textstream_8h.html" target="_top" xlink:title=" ">
<polygon fill="white" stroke="#666666" points="748,-239 668,-239 668,-220 748,-220 748,-239"/>
<text text-anchor="middle" x="708" y="-227" font-family="Helvetica,sans-Serif" font-size="10.00">textstream.h</text>
</a>
</g>
</g>
<!-- Node5&#45;&gt;Node25 -->
<g id="edge36" class="edge">
<title>Node5&#45;&gt;Node25</title>
<path fill="none" stroke="#63b8ff" d="M672.94,-274.75C678.87,-267.26 687.57,-256.28 694.82,-247.13"/>
<polygon fill="#63b8ff" stroke="#63b8ff" points="697.73,-249.1 701.19,-239.09 692.24,-244.75 697.73,-249.1"/>
</g>
<!-- Node28 -->
<g id="node28" class="node">
<title>Node28</title>
<g id="a_node28"><a xlink:href="../../de/d9c/docparser_8h.html" target="_top" xlink:title=" ">
<polygon fill="white" stroke="#666666" points="222.5,-239 149.5,-239 149.5,-220 222.5,-220 222.5,-239"/>
<text text-anchor="middle" x="186" y="-227" font-family="Helvetica,sans-Serif" font-size="10.00">docparser.h</text>
</a>
</g>
</g>
<!-- Node5&#45;&gt;Node28 -->
<g id="edge45" class="edge">
<title>Node5&#45;&gt;Node28</title>
<path fill="none" stroke="#63b8ff" d="M628.34,-279.34C541.53,-269.76 327.59,-246.13 232.66,-235.65"/>
<polygon fill="#63b8ff" stroke="#63b8ff" points="232.83,-232.15 222.5,-234.53 232.06,-239.11 232.83,-232.15"/>
</g>
<!-- Node10 -->
<g id="node10" class="node">
<title>Node10</title>
<g id="a_node10"><a xlink:href="../../d7/d5c/qcstring_8h.html" target="_top" xlink:title=" ">
<polygon fill="white" stroke="#666666" points="542.5,-129 477.5,-129 477.5,-110 542.5,-110 542.5,-129"/>
<text text-anchor="middle" x="510" y="-117" font-family="Helvetica,sans-Serif" font-size="10.00">qcstring.h</text>
</a>
</g>
</g>
<!-- Node9&#45;&gt;Node10 -->
<g id="edge10" class="edge">
<title>Node9&#45;&gt;Node10</title>
<path fill="none" stroke="#63b8ff" d="M507.25,-219.66C507.73,-202.17 508.82,-162.8 509.48,-139.27"/>
<polygon fill="#63b8ff" stroke="#63b8ff" points="512.98,-139.25 509.76,-129.16 505.98,-139.06 512.98,-139.25"/>
</g>
<!-- Node11 -->
<g id="node11" class="node">
<title>Node11</title>
<g id="a_node11"><a xlink:title=" ">
<polygon fill="#e0e0e0" stroke="#999999" points="488,-19 444,-19 444,0 488,0 488,-19"/>
<text text-anchor="middle" x="466" y="-7" font-family="Helvetica,sans-Serif" font-size="10.00">string</text>
</a>
</g>
</g>
<!-- Node10&#45;&gt;Node11 -->
<g id="edge11" class="edge">
<title>Node10&#45;&gt;Node11</title>
<path fill="none" stroke="#63b8ff" d="M504.43,-109.93C498.92,-101.17 490.54,-87.05 485,-74 478.81,-59.42 473.78,-42.15 470.46,-29.31"/>
<polygon fill="#63b8ff" stroke="#63b8ff" points="473.79,-28.21 467.99,-19.34 467,-29.89 473.79,-28.21"/>
</g>
<!-- Node12 -->
<g id="node12" class="node">
<title>Node12</title>
<g id="a_node12"><a xlink:title=" ">
<polygon fill="#e0e0e0" stroke="#999999" points="295,-74 231,-74 231,-55 295,-55 295,-74"/>
<text text-anchor="middle" x="263" y="-62" font-family="Helvetica,sans-Serif" font-size="10.00">algorithm</text>
</a>
</g>
</g>
<!-- Node10&#45;&gt;Node12 -->
<g id="edge12" class="edge">
<title>Node10&#45;&gt;Node12</title>
<path fill="none" stroke="#63b8ff" d="M477.46,-111.52C433.18,-102.02 353.92,-85.01 305.15,-74.54"/>
<polygon fill="#63b8ff" stroke="#63b8ff" points="305.74,-71.09 295.22,-72.41 304.27,-77.93 305.74,-71.09"/>
</g>
<!-- Node13 -->
<g id="node13" class="node">
<title>Node13</title>
<g id="a_node13"><a xlink:title=" ">
<polygon fill="#e0e0e0" stroke="#999999" points="362.5,-74 313.5,-74 313.5,-55 362.5,-55 362.5,-74"/>
<text text-anchor="middle" x="338" y="-62" font-family="Helvetica,sans-Serif" font-size="10.00">cctype</text>
</a>
</g>
</g>
<!-- Node10&#45;&gt;Node13 -->
<g id="edge13" class="edge">
<title>Node10&#45;&gt;Node13</title>
<path fill="none" stroke="#63b8ff" d="M482.37,-109.98C452.46,-100.77 404.73,-86.06 372.41,-76.1"/>
<polygon fill="#63b8ff" stroke="#63b8ff" points="373.09,-72.65 362.5,-73.05 371.03,-79.34 373.09,-72.65"/>
</g>
<!-- Node14 -->
<g id="node14" class="node">
<title>Node14</title>
<g id="a_node14"><a xlink:title=" ">
<polygon fill="#e0e0e0" stroke="#999999" points="544,-74 494,-74 494,-55 544,-55 544,-74"/>
<text text-anchor="middle" x="519" y="-62" font-family="Helvetica,sans-Serif" font-size="10.00">cstring</text>
</a>
</g>
</g>
<!-- Node10&#45;&gt;Node14 -->
<g id="edge14" class="edge">
<title>Node10&#45;&gt;Node14</title>
<path fill="none" stroke="#63b8ff" d="M511.49,-109.75C512.67,-102.8 514.36,-92.85 515.84,-84.13"/>
<polygon fill="#63b8ff" stroke="#63b8ff" points="519.32,-84.53 517.54,-74.09 512.42,-83.36 519.32,-84.53"/>
</g>
<!-- Node15 -->
<g id="node15" class="node">
<title>Node15</title>
<g id="a_node15"><a xlink:title=" ">
<polygon fill="#e0e0e0" stroke="#999999" points="777,-74 731,-74 731,-55 777,-55 777,-74"/>
<text text-anchor="middle" x="754" y="-62" font-family="Helvetica,sans-Serif" font-size="10.00">cstdio</text>
</a>
</g>
</g>
<!-- Node10&#45;&gt;Node15 -->
<g id="edge15" class="edge">
<title>Node10&#45;&gt;Node15</title>
<path fill="none" stroke="#63b8ff" d="M542.66,-111.63C583.47,-103 655.46,-87.68 717,-74 718.27,-73.72 719.56,-73.43 720.86,-73.14"/>
<polygon fill="#63b8ff" stroke="#63b8ff" points="721.94,-76.48 730.92,-70.86 720.39,-69.65 721.94,-76.48"/>
</g>
<!-- Node16 -->
<g id="node16" class="node">
<title>Node16</title>
<g id="a_node16"><a xlink:title=" ">
<polygon fill="#e0e0e0" stroke="#999999" points="611.5,-74 562.5,-74 562.5,-55 611.5,-55 611.5,-74"/>
<text text-anchor="middle" x="587" y="-62" font-family="Helvetica,sans-Serif" font-size="10.00">cstdlib</text>
</a>
</g>
</g>
<!-- Node10&#45;&gt;Node16 -->
<g id="edge16" class="edge">
<title>Node10&#45;&gt;Node16</title>
<path fill="none" stroke="#63b8ff" d="M522.37,-109.98C534.09,-101.92 551.92,-89.65 565.89,-80.03"/>
<polygon fill="#63b8ff" stroke="#63b8ff" points="568.15,-82.72 574.4,-74.17 564.18,-76.96 568.15,-82.72"/>
</g>
<!-- Node17 -->
<g id="node17" class="node">
<title>Node17</title>
<g id="a_node17"><a xlink:title=" ">
<polygon fill="#e0e0e0" stroke="#999999" points="728,-19 678,-19 678,0 728,0 728,-19"/>
<text text-anchor="middle" x="703" y="-7" font-family="Helvetica,sans-Serif" font-size="10.00">cstdint</text>
</a>
</g>
</g>
<!-- Node10&#45;&gt;Node17 -->
<g id="edge17" class="edge">
<title>Node10&#45;&gt;Node17</title>
<path fill="none" stroke="#63b8ff" d="M542.5,-119.09C581,-117.99 644.74,-110.27 683,-74 695.18,-62.45 699.98,-43.58 701.85,-29.4"/>
<polygon fill="#63b8ff" stroke="#63b8ff" points="705.35,-29.56 702.81,-19.27 698.38,-28.9 705.35,-29.56"/>
</g>
<!-- Node18 -->
<g id="node18" class="node">
<title>Node18</title>
<g id="a_node18"><a xlink:title=" ">
<polygon fill="#e0e0e0" stroke="#999999" points="437.5,-74 380.5,-74 380.5,-55 437.5,-55 437.5,-74"/>
<text text-anchor="middle" x="409" y="-62" font-family="Helvetica,sans-Serif" font-size="10.00">ostream</text>
</a>
</g>
</g>
<!-- Node10&#45;&gt;Node18 -->
<g id="edge18" class="edge">
<title>Node10&#45;&gt;Node18</title>
<path fill="none" stroke="#63b8ff" d="M493.77,-109.98C477.82,-101.61 453.22,-88.7 434.62,-78.95"/>
<polygon fill="#63b8ff" stroke="#63b8ff" points="436,-75.72 425.52,-74.17 432.75,-81.92 436,-75.72"/>
</g>
<!-- Node19 -->
<g id="node19" class="node">
<title>Node19</title>
<g id="a_node19"><a xlink:href="../../db/d7c/utf8_8h.html" target="_top" xlink:title="Various UTF8 related helper functions.">
<polygon fill="white" stroke="#666666" points="674.5,-74 629.5,-74 629.5,-55 674.5,-55 674.5,-74"/>
<text text-anchor="middle" x="652" y="-62" font-family="Helvetica,sans-Serif" font-size="10.00">utf8.h</text>
</a>
</g>
</g>
<!-- Node10&#45;&gt;Node19 -->
<g id="edge19" class="edge">
<title>Node10&#45;&gt;Node19</title>
<path fill="none" stroke="#63b8ff" d="M532.81,-109.98C556.31,-101.21 593.14,-87.47 619.64,-77.58"/>
<polygon fill="#63b8ff" stroke="#63b8ff" points="621.1,-80.77 629.24,-73.99 618.65,-74.21 621.1,-80.77"/>
</g>
<!-- Node19&#45;&gt;Node11 -->
<g id="edge21" class="edge">
<title>Node19&#45;&gt;Node11</title>
<path fill="none" stroke="#63b8ff" d="M629.19,-57C596.3,-47.63 535.39,-30.27 498,-19.62"/>
<polygon fill="#63b8ff" stroke="#63b8ff" points="498.7,-16.18 488.12,-16.8 496.78,-22.91 498.7,-16.18"/>
</g>
<!-- Node19&#45;&gt;Node17 -->
<g id="edge20" class="edge">
<title>Node19&#45;&gt;Node17</title>
<path fill="none" stroke="#63b8ff" d="M660.42,-54.75C667.77,-47.11 678.63,-35.82 687.54,-26.56"/>
<polygon fill="#63b8ff" stroke="#63b8ff" points="690.32,-28.72 694.74,-19.09 685.28,-23.87 690.32,-28.72"/>
</g>
<!-- Node20&#45;&gt;Node10 -->
<g id="edge23" class="edge">
<title>Node20&#45;&gt;Node10</title>
<path fill="none" stroke="#63b8ff" d="M585.86,-219.69C577.04,-210.98 563.5,-197.09 553,-184 540.94,-168.95 528.76,-150.61 520.46,-137.51"/>
<polygon fill="#63b8ff" stroke="#63b8ff" points="523.42,-135.65 515.16,-129.02 517.49,-139.36 523.42,-135.65"/>
</g>
<!-- Node21&#45;&gt;Node10 -->
<g id="edge27" class="edge">
<title>Node21&#45;&gt;Node10</title>
<path fill="none" stroke="#63b8ff" d="M387.88,-219.66C410.6,-201.22 463.27,-158.45 491.44,-135.57"/>
<polygon fill="#63b8ff" stroke="#63b8ff" points="493.78,-138.18 499.34,-129.16 489.37,-132.75 493.78,-138.18"/>
</g>
<!-- Node21&#45;&gt;Node11 -->
<g id="edge25" class="edge">
<title>Node21&#45;&gt;Node11</title>
<path fill="none" stroke="#63b8ff" d="M349.31,-219.9C325.12,-211.95 289.39,-199.09 260,-184 240.32,-173.89 187.47,-148.49 177,-129 173.01,-121.56 174.44,-118.05 177,-110 186.1,-81.45 190.69,-71.05 216,-55 251.75,-32.33 374.56,-18.63 433.68,-13.2"/>
<polygon fill="#63b8ff" stroke="#63b8ff" points="434.3,-16.66 443.95,-12.28 433.67,-9.69 434.3,-16.66"/>
</g>
<!-- Node22 -->
<g id="node22" class="node">
<title>Node22</title>
<g id="a_node22"><a xlink:title=" ">
<polygon fill="#e0e0e0" stroke="#999999" points="459.5,-129 366.5,-129 366.5,-110 459.5,-110 459.5,-129"/>
<text text-anchor="middle" x="413" y="-117" font-family="Helvetica,sans-Serif" font-size="10.00">unordered_map</text>
</a>
</g>
</g>
<!-- Node21&#45;&gt;Node22 -->
<g id="edge26" class="edge">
<title>Node21&#45;&gt;Node22</title>
<path fill="none" stroke="#63b8ff" d="M379.95,-219.66C385.8,-202.09 399.02,-162.45 406.85,-138.95"/>
<polygon fill="#63b8ff" stroke="#63b8ff" points="410.27,-139.75 410.11,-129.16 403.63,-137.54 410.27,-139.75"/>
</g>
<!-- Node23 -->
<g id="node23" class="node">
<title>Node23</title>
<g id="a_node23"><a xlink:href="../../da/de1/linkedmap_8h.html" target="_top" xlink:title=" ">
<polygon fill="white" stroke="#666666" points="346.5,-184 269.5,-184 269.5,-165 346.5,-165 346.5,-184"/>
<text text-anchor="middle" x="308" y="-172" font-family="Helvetica,sans-Serif" font-size="10.00">linkedmap.h</text>
</a>
</g>
</g>
<!-- Node21&#45;&gt;Node23 -->
<g id="edge28" class="edge">
<title>Node21&#45;&gt;Node23</title>
<path fill="none" stroke="#63b8ff" d="M365.91,-219.98C355.51,-212 339.74,-199.88 327.28,-190.31"/>
<polygon fill="#63b8ff" stroke="#63b8ff" points="329.35,-187.49 319.29,-184.17 325.09,-193.04 329.35,-187.49"/>
</g>
<!-- Node23&#45;&gt;Node6 -->
<g id="edge31" class="edge">
<title>Node23&#45;&gt;Node6</title>
<path fill="none" stroke="#63b8ff" d="M269.09,-166.78C223.34,-158.77 144.85,-144.72 67.89,-129.12"/>
<polygon fill="#63b8ff" stroke="#63b8ff" points="68.52,-125.68 58.02,-127.11 67.12,-132.54 68.52,-125.68"/>
</g>
<!-- Node23&#45;&gt;Node10 -->
<g id="edge35" class="edge">
<title>Node23&#45;&gt;Node10</title>
<path fill="none" stroke="#63b8ff" d="M340.45,-164.98C374.96,-155.93 429.66,-141.58 467.56,-131.64"/>
<polygon fill="#63b8ff" stroke="#63b8ff" points="468.51,-135.01 477.29,-129.08 466.73,-128.23 468.51,-135.01"/>
</g>
<!-- Node23&#45;&gt;Node11 -->
<g id="edge32" class="edge">
<title>Node23&#45;&gt;Node11</title>
<path fill="none" stroke="#63b8ff" d="M298.28,-164.71C272.42,-140.84 205.07,-75.3 222,-55 248.6,-23.1 373.68,-14.01 433.7,-11.46"/>
<polygon fill="#63b8ff" stroke="#63b8ff" points="433.92,-14.96 443.77,-11.07 433.64,-7.96 433.92,-14.96"/>
</g>
<!-- Node23&#45;&gt;Node12 -->
<g id="edge33" class="edge">
<title>Node23&#45;&gt;Node12</title>
<path fill="none" stroke="#63b8ff" d="M304.32,-164.66C296.96,-147.01 280.33,-107.09 270.56,-83.64"/>
<polygon fill="#63b8ff" stroke="#63b8ff" points="273.68,-82.04 266.61,-74.16 267.22,-84.74 273.68,-82.04"/>
</g>
<!-- Node23&#45;&gt;Node13 -->
<g id="edge34" class="edge">
<title>Node23&#45;&gt;Node13</title>
<path fill="none" stroke="#63b8ff" d="M310.46,-164.66C315.34,-147.09 326.35,-107.45 332.87,-83.95"/>
<polygon fill="#63b8ff" stroke="#63b8ff" points="336.29,-84.73 335.59,-74.16 329.55,-82.86 336.29,-84.73"/>
</g>
<!-- Node23&#45;&gt;Node22 -->
<g id="edge29" class="edge">
<title>Node23&#45;&gt;Node22</title>
<path fill="none" stroke="#63b8ff" d="M324.87,-164.98C341.61,-156.54 367.5,-143.47 386.89,-133.68"/>
<polygon fill="#63b8ff" stroke="#63b8ff" points="388.47,-136.8 395.82,-129.17 385.32,-130.55 388.47,-136.8"/>
</g>
<!-- Node24 -->
<g id="node24" class="node">
<title>Node24</title>
<g id="a_node24"><a xlink:title=" ">
<polygon fill="#e0e0e0" stroke="#999999" points="233.5,-129 186.5,-129 186.5,-110 233.5,-110 233.5,-129"/>
<text text-anchor="middle" x="210" y="-117" font-family="Helvetica,sans-Serif" font-size="10.00">vector</text>
</a>
</g>
</g>
<!-- Node23&#45;&gt;Node24 -->
<g id="edge30" class="edge">
<title>Node23&#45;&gt;Node24</title>
<path fill="none" stroke="#63b8ff" d="M292.25,-164.98C276.77,-156.61 252.91,-143.7 234.86,-133.95"/>
<polygon fill="#63b8ff" stroke="#63b8ff" points="236.49,-130.85 226.03,-129.17 233.16,-137.01 236.49,-130.85"/>
</g>
<!-- Node25&#45;&gt;Node2 -->
<g id="edge38" class="edge">
<title>Node25&#45;&gt;Node2</title>
<path fill="none" stroke="#63b8ff" d="M748.22,-220.81C793.63,-212.09 869.68,-197.34 935,-184 935.1,-183.98 935.2,-183.96 935.3,-183.94"/>
<polygon fill="#63b8ff" stroke="#63b8ff" points="935.79,-187.41 944.87,-181.96 934.37,-180.56 935.79,-187.41"/>
</g>
<!-- Node25&#45;&gt;Node8 -->
<g id="edge42" class="edge">
<title>Node25&#45;&gt;Node8</title>
<path fill="none" stroke="#63b8ff" d="M738.69,-219.98C772.09,-210.72 825.51,-195.89 861.41,-185.93"/>
<polygon fill="#63b8ff" stroke="#63b8ff" points="862.79,-189.18 871.49,-183.13 860.92,-182.44 862.79,-189.18"/>
</g>
<!-- Node25&#45;&gt;Node10 -->
<g id="edge44" class="edge">
<title>Node25&#45;&gt;Node10</title>
<path fill="none" stroke="#63b8ff" d="M675.32,-219.94C649.94,-212.52 614.42,-200.38 586,-184 563.12,-170.81 540.35,-150.6 525.78,-136.53"/>
<polygon fill="#63b8ff" stroke="#63b8ff" points="528.16,-133.96 518.58,-129.43 523.24,-138.95 528.16,-133.96"/>
</g>
<!-- Node25&#45;&gt;Node11 -->
<g id="edge37" class="edge">
<title>Node25&#45;&gt;Node11</title>
<path fill="none" stroke="#63b8ff" d="M724.12,-219.95C736.97,-212.27 754.35,-199.79 764,-184 794.32,-134.37 824.19,-98.87 786,-55 767.27,-33.48 576.24,-18.06 498.57,-12.64"/>
<polygon fill="#63b8ff" stroke="#63b8ff" points="498.61,-9.13 488.39,-11.94 498.13,-16.12 498.61,-9.13"/>
</g>
<!-- Node25&#45;&gt;Node15 -->
<g id="edge41" class="edge">
<title>Node25&#45;&gt;Node15</title>
<path fill="none" stroke="#63b8ff" d="M718.78,-219.91C728.1,-211.77 741,-198.64 747,-184 760.51,-151.07 758.98,-108.63 756.55,-84.5"/>
<polygon fill="#63b8ff" stroke="#63b8ff" points="759.99,-83.78 755.35,-74.25 753.04,-84.59 759.99,-83.78"/>
</g>
<!-- Node25&#45;&gt;Node17 -->
<g id="edge40" class="edge">
<title>Node25&#45;&gt;Node17</title>
<path fill="none" stroke="#63b8ff" d="M740.03,-219.98C769.43,-211.44 809.78,-197.63 819,-184 851.12,-136.51 851.48,-102.25 819,-55 801.09,-28.95 765.67,-18.14 738.66,-13.66"/>
<polygon fill="#63b8ff" stroke="#63b8ff" points="738.81,-10.15 728.41,-12.19 737.81,-17.08 738.81,-10.15"/>
</g>
<!-- Node26 -->
<g id="node26" class="node">
<title>Node26</title>
<g id="a_node26"><a xlink:title=" ">
<polygon fill="#e0e0e0" stroke="#999999" points="651,-184 595,-184 595,-165 651,-165 651,-184"/>
<text text-anchor="middle" x="623" y="-172" font-family="Helvetica,sans-Serif" font-size="10.00">sstream</text>
</a>
</g>
</g>
<!-- Node25&#45;&gt;Node26 -->
<g id="edge39" class="edge">
<title>Node25&#45;&gt;Node26</title>
<path fill="none" stroke="#63b8ff" d="M694.34,-219.98C681.16,-211.77 660.97,-199.18 645.43,-189.49"/>
<polygon fill="#63b8ff" stroke="#63b8ff" points="647.24,-186.49 636.91,-184.17 643.54,-192.43 647.24,-186.49"/>
</g>
<!-- Node27 -->
<g id="node27" class="node">
<title>Node27</title>
<g id="a_node27"><a xlink:title=" ">
<polygon fill="#e0e0e0" stroke="#999999" points="738.5,-184 669.5,-184 669.5,-165 738.5,-165 738.5,-184"/>
<text text-anchor="middle" x="704" y="-172" font-family="Helvetica,sans-Serif" font-size="10.00">type_traits</text>
</a>
</g>
</g>
<!-- Node25&#45;&gt;Node27 -->
<g id="edge43" class="edge">
<title>Node25&#45;&gt;Node27</title>
<path fill="none" stroke="#63b8ff" d="M707.34,-219.75C706.82,-212.8 706.06,-202.85 705.41,-194.13"/>
<polygon fill="#63b8ff" stroke="#63b8ff" points="708.89,-193.8 704.65,-184.09 701.91,-194.32 708.89,-193.8"/>
</g>
<!-- Node28&#45;&gt;Node6 -->
<g id="edge47" class="edge">
<title>Node28&#45;&gt;Node6</title>
<path fill="none" stroke="#63b8ff" d="M149.48,-224.64C120.27,-219.76 80.02,-208.75 54,-184 41.54,-172.14 35.17,-153.31 31.99,-139.23"/>
<polygon fill="#63b8ff" stroke="#63b8ff" points="35.39,-138.34 30.07,-129.18 28.51,-139.66 35.39,-138.34"/>
</g>
<!-- Node28&#45;&gt;Node10 -->
<g id="edge48" class="edge">
<title>Node28&#45;&gt;Node10</title>
<path fill="none" stroke="#63b8ff" d="M222.67,-220.31C257.18,-212.27 310.12,-199.03 355,-184 400.29,-168.83 451.26,-146.99 481.98,-133.28"/>
<polygon fill="#63b8ff" stroke="#63b8ff" points="483.53,-136.43 491.21,-129.14 480.66,-130.04 483.53,-136.43"/>
</g>
<!-- Node29 -->
<g id="node29" class="node">
<title>Node29</title>
<g id="a_node29"><a xlink:title=" ">
<polygon fill="#e0e0e0" stroke="#999999" points="211,-184 161,-184 161,-165 211,-165 211,-184"/>
<text text-anchor="middle" x="186" y="-172" font-family="Helvetica,sans-Serif" font-size="10.00">stdio.h</text>
</a>
</g>
</g>
<!-- Node28&#45;&gt;Node29 -->
<g id="edge46" class="edge">
<title>Node28&#45;&gt;Node29</title>
<path fill="none" stroke="#63b8ff" d="M186,-219.75C186,-212.8 186,-202.85 186,-194.13"/>
<polygon fill="#63b8ff" stroke="#63b8ff" points="189.5,-194.09 186,-184.09 182.5,-194.09 189.5,-194.09"/>
</g>
<!-- Node30 -->
<g id="node30" class="node">
<title>Node30</title>
<g id="a_node30"><a xlink:href="../../d7/d50/growvector_8h.html" target="_top" xlink:title=" ">
<polygon fill="white" stroke="#666666" points="143,-184 63,-184 63,-165 143,-165 143,-184"/>
<text text-anchor="middle" x="103" y="-172" font-family="Helvetica,sans-Serif" font-size="10.00">growvector.h</text>
</a>
</g>
</g>
<!-- Node28&#45;&gt;Node30 -->
<g id="edge49" class="edge">
<title>Node28&#45;&gt;Node30</title>
<path fill="none" stroke="#63b8ff" d="M172.66,-219.98C159.91,-211.84 140.45,-199.41 125.33,-189.76"/>
<polygon fill="#63b8ff" stroke="#63b8ff" points="126.89,-186.6 116.58,-184.17 123.12,-192.5 126.89,-186.6"/>
</g>
<!-- Node30&#45;&gt;Node6 -->
<g id="edge51" class="edge">
<title>Node30&#45;&gt;Node6</title>
<path fill="none" stroke="#63b8ff" d="M91.11,-164.98C79.85,-156.92 62.71,-144.65 49.29,-135.03"/>
<polygon fill="#63b8ff" stroke="#63b8ff" points="51.27,-132.15 41.11,-129.17 47.2,-137.84 51.27,-132.15"/>
</g>
<!-- Node30&#45;&gt;Node24 -->
<g id="edge50" class="edge">
<title>Node30&#45;&gt;Node24</title>
<path fill="none" stroke="#63b8ff" d="M120.19,-164.98C137.25,-156.54 163.63,-143.47 183.4,-133.68"/>
<polygon fill="#63b8ff" stroke="#63b8ff" points="185.09,-136.75 192.5,-129.17 181.98,-130.47 185.09,-136.75"/>
</g>
<!-- Node31 -->
<g id="node31" class="node">
<title>Node31</title>
<g id="a_node31"><a xlink:title=" ">
<polygon fill="#e0e0e0" stroke="#999999" points="129.5,-129 76.5,-129 76.5,-110 129.5,-110 129.5,-129"/>
<text text-anchor="middle" x="103" y="-117" font-family="Helvetica,sans-Serif" font-size="10.00">iterator</text>
</a>
</g>
</g>
<!-- Node30&#45;&gt;Node31 -->
<g id="edge52" class="edge">
<title>Node30&#45;&gt;Node31</title>
<path fill="none" stroke="#63b8ff" d="M103,-164.75C103,-157.8 103,-147.85 103,-139.13"/>
<polygon fill="#63b8ff" stroke="#63b8ff" points="106.5,-139.09 103,-129.09 99.5,-139.09 106.5,-139.09"/>
</g>
</g>
</svg>
        <g id="navigator" transform="translate(0 0)" fill="#404254">
                <rect fill="#f2f5e9" fill-opacity="0.5" stroke="#606060" stroke-width=".5" x="0" y="0" width="60" height="60"/>
                <use id="zoomplus" xlink:href="#zoomPlus" x="17" y="9" onmousedown="handleZoom(evt,'in')"/>
                <use id="zoomminus" xlink:href="#zoomMin" x="42" y="9" onmousedown="handleZoom(evt,'out')"/>
                <use id="reset" xlink:href="#resetDef" x="30" y="36" onmousedown="handleReset()"/>
                <g id="arrowUp" xlink:href="#dirArrow" transform="translate(30 24)" onmousedown="handlePan(0,-1)">
                  <use xlink:href="#rim" fill="#404040">
                        <set attributeName="fill" to="#808080" begin="arrowUp.mouseover" end="arrowUp.mouseout"/>
                  </use>
                  <path fill="none" stroke="white" stroke-width="1.5" d="M0,-3.0v7 M-2.5,-0.5L0,-3.0L2.5,-0.5"/>
                </g>
                <g id="arrowRight" xlink:href="#dirArrow" transform="rotate(90) translate(36 -43)" onmousedown="handlePan(1,0)">
                  <use xlink:href="#rim" fill="#404040">
                        <set attributeName="fill" to="#808080" begin="arrowRight.mouseover" end="arrowRight.mouseout"/>
                  </use>
                  <path fill="none" stroke="white" stroke-width="1.5" d="M0,-3.0v7 M-2.5,-0.5L0,-3.0L2.5,-0.5"/>
                </g>
                <g id="arrowDown" xlink:href="#dirArrow" transform="rotate(180) translate(-30 -48)" onmousedown="handlePan(0,1)">
                  <use xlink:href="#rim" fill="#404040">
                        <set attributeName="fill" to="#808080" begin="arrowDown.mouseover" end="arrowDown.mouseout"/>
                  </use>
                  <path fill="none" stroke="white" stroke-width="1.5" d="M0,-3.0v7 M-2.5,-0.5L0,-3.0L2.5,-0.5"/>
                </g>
                <g id="arrowLeft" xlink:href="#dirArrow" transform="rotate(270) translate(-36 17)" onmousedown="handlePan(-1,0)">
                  <use xlink:href="#rim" fill="#404040">
                        <set attributeName="fill" to="#808080" begin="arrowLeft.mouseover" end="arrowLeft.mouseout"/>
                  </use>
                  <path fill="none" stroke="white" stroke-width="1.5" d="M0,-3.0v7 M-2.5,-0.5L0,-3.0L2.5,-0.5"/>
                </g>
        </g>
        <svg viewBox="0 0 15 15" width="100%" height="30px" preserveAspectRatio="xMaxYMin meet">
         <g id="arrow_out" transform="scale(0.3 0.3)">
          <a xlink:href="docbookgen_8h__incl_org.svg" target="_base">
           <rect id="button" ry="5" rx="5" y="6" x="6" height="38" width="38"
                fill="#f2f5e9" fill-opacity="0.5" stroke="#606060" stroke-width="1.0"/>
           <path id="arrow"
             d="M 11.500037,31.436501 C 11.940474,20.09759 22.043105,11.32322 32.158766,21.979434 L 37.068811,17.246167 C 37.068811,17.246167 37.088388,32 37.088388,32 L 22.160133,31.978069 C 22.160133,31.978069 26.997745,27.140456 26.997745,27.140456 C 18.528582,18.264221 13.291696,25.230495 11.500037,31.436501 z"
             style="fill:#404040;"/>
          </a>
         </g>
        </svg>
</svg>
