<?xml version="1.0" encoding="UTF-8" standalone="no"?>
<!DOCTYPE svg PUBLIC "-//W3C//DTD SVG 1.1//EN"
 "http://www.w3.org/Graphics/SVG/1.1/DTD/svg11.dtd">
<!-- Generated by graphviz version 2.43.0 (0)
 -->
<!-- Title: /home/runner/work/doxygen/doxygen/src/portable.h Pages: 1 -->
<svg width="513pt" height="203pt"
 viewBox="0.00 0.00 512.60 203.00" xmlns="http://www.w3.org/2000/svg" xmlns:xlink="http://www.w3.org/1999/xlink">
<g id="graph0" class="graph" transform="scale(1 1) rotate(0) translate(4 199)">
<title>/home/runner/work/doxygen/doxygen/src/portable.h</title>
<!-- Node1 -->
<g id="node1" class="node">
<title>Node1</title>
<g id="a_node1"><a xlink:title="Portable versions of functions that are platform dependent.">
<polygon fill="#999999" stroke="#666666" points="221,-195 67,-195 67,-165 221,-165 221,-195"/>
<text text-anchor="start" x="75" y="-183" font-family="Helvetica,sans-Serif" font-size="10.00">/home/runner/work/doxygen</text>
<text text-anchor="middle" x="144" y="-172" font-family="Helvetica,sans-Serif" font-size="10.00">/doxygen/src/portable.h</text>
</a>
</g>
</g>
<!-- Node2 -->
<g id="node2" class="node">
<title>Node2</title>
<g id="a_node2"><a xlink:title=" ">
<polygon fill="#e0e0e0" stroke="#999999" points="50,-129 0,-129 0,-110 50,-110 50,-129"/>
<text text-anchor="middle" x="25" y="-117" font-family="Helvetica,sans-Serif" font-size="10.00">stdio.h</text>
</a>
</g>
</g>
<!-- Node1&#45;&gt;Node2 -->
<g id="edge1" class="edge">
<title>Node1&#45;&gt;Node2</title>
<path fill="none" stroke="#63b8ff" d="M115.5,-164.99C96.09,-155.45 70.57,-142.9 51.58,-133.57"/>
<polygon fill="#63b8ff" stroke="#63b8ff" points="53.09,-130.41 42.57,-129.14 50,-136.69 53.09,-130.41"/>
</g>
<!-- Node3 -->
<g id="node3" class="node">
<title>Node3</title>
<g id="a_node3"><a xlink:title=" ">
<polygon fill="#e0e0e0" stroke="#999999" points="140,-129 68,-129 68,-110 140,-110 140,-129"/>
<text text-anchor="middle" x="104" y="-117" font-family="Helvetica,sans-Serif" font-size="10.00">sys/types.h</text>
</a>
</g>
</g>
<!-- Node1&#45;&gt;Node3 -->
<g id="edge2" class="edge">
<title>Node1&#45;&gt;Node3</title>
<path fill="none" stroke="#63b8ff" d="M134.32,-164.84C128.75,-156.69 121.71,-146.4 115.82,-137.78"/>
<polygon fill="#63b8ff" stroke="#63b8ff" points="118.53,-135.55 109.99,-129.27 112.75,-139.5 118.53,-135.55"/>
</g>
<!-- Node4 -->
<g id="node4" class="node">
<title>Node4</title>
<g id="a_node4"><a xlink:title=" ">
<polygon fill="#e0e0e0" stroke="#999999" points="211.5,-129 158.5,-129 158.5,-110 211.5,-110 211.5,-129"/>
<text text-anchor="middle" x="185" y="-117" font-family="Helvetica,sans-Serif" font-size="10.00">stdint.h</text>
</a>
</g>
</g>
<!-- Node1&#45;&gt;Node4 -->
<g id="edge3" class="edge">
<title>Node1&#45;&gt;Node4</title>
<path fill="none" stroke="#63b8ff" d="M153.92,-164.84C159.69,-156.61 167,-146.18 173.08,-137.51"/>
<polygon fill="#63b8ff" stroke="#63b8ff" points="175.98,-139.46 178.86,-129.27 170.25,-135.45 175.98,-139.46"/>
</g>
<!-- Node5 -->
<g id="node5" class="node">
<title>Node5</title>
<g id="a_node5"><a xlink:href="../../d7/d5c/qcstring_8h.html" target="_top" xlink:title=" ">
<polygon fill="white" stroke="#666666" points="294.5,-129 229.5,-129 229.5,-110 294.5,-110 294.5,-129"/>
<text text-anchor="middle" x="262" y="-117" font-family="Helvetica,sans-Serif" font-size="10.00">qcstring.h</text>
</a>
</g>
</g>
<!-- Node1&#45;&gt;Node5 -->
<g id="edge4" class="edge">
<title>Node1&#45;&gt;Node5</title>
<path fill="none" stroke="#63b8ff" d="M172.26,-164.99C191.42,-155.49 216.58,-143.02 235.39,-133.69"/>
<polygon fill="#63b8ff" stroke="#63b8ff" points="237.17,-136.72 244.57,-129.14 234.06,-130.45 237.17,-136.72"/>
</g>
<!-- Node6 -->
<g id="node6" class="node">
<title>Node6</title>
<g id="a_node6"><a xlink:title=" ">
<polygon fill="#e0e0e0" stroke="#999999" points="246,-19 202,-19 202,0 246,0 246,-19"/>
<text text-anchor="middle" x="224" y="-7" font-family="Helvetica,sans-Serif" font-size="10.00">string</text>
</a>
</g>
</g>
<!-- Node5&#45;&gt;Node6 -->
<g id="edge5" class="edge">
<title>Node5&#45;&gt;Node6</title>
<path fill="none" stroke="#63b8ff" d="M229.46,-111.82C226.26,-111.19 223.07,-110.58 220,-110 173.9,-101.35 42.21,-109.89 12,-74 -37.66,-15.01 120.84,-9.48 191.64,-9.85"/>
<polygon fill="#63b8ff" stroke="#63b8ff" points="191.78,-13.35 201.81,-9.95 191.85,-6.35 191.78,-13.35"/>
</g>
<!-- Node7 -->
<g id="node7" class="node">
<title>Node7</title>
<g id="a_node7"><a xlink:title=" ">
<polygon fill="#e0e0e0" stroke="#999999" points="85,-74 21,-74 21,-55 85,-55 85,-74"/>
<text text-anchor="middle" x="53" y="-62" font-family="Helvetica,sans-Serif" font-size="10.00">algorithm</text>
</a>
</g>
</g>
<!-- Node5&#45;&gt;Node7 -->
<g id="edge6" class="edge">
<title>Node5&#45;&gt;Node7</title>
<path fill="none" stroke="#63b8ff" d="M229.34,-110.22C193.12,-101.03 134.57,-86.18 94.97,-76.14"/>
<polygon fill="#63b8ff" stroke="#63b8ff" points="95.64,-72.7 85.08,-73.64 93.92,-79.49 95.64,-72.7"/>
</g>
<!-- Node8 -->
<g id="node8" class="node">
<title>Node8</title>
<g id="a_node8"><a xlink:title=" ">
<polygon fill="#e0e0e0" stroke="#999999" points="152.5,-74 103.5,-74 103.5,-55 152.5,-55 152.5,-74"/>
<text text-anchor="middle" x="128" y="-62" font-family="Helvetica,sans-Serif" font-size="10.00">cctype</text>
</a>
</g>
</g>
<!-- Node5&#45;&gt;Node8 -->
<g id="edge7" class="edge">
<title>Node5&#45;&gt;Node8</title>
<path fill="none" stroke="#63b8ff" d="M240.47,-109.98C218.53,-101.3 184.26,-87.75 159.31,-77.88"/>
<polygon fill="#63b8ff" stroke="#63b8ff" points="160.51,-74.59 149.92,-74.17 157.93,-81.1 160.51,-74.59"/>
</g>
<!-- Node9 -->
<g id="node9" class="node">
<title>Node9</title>
<g id="a_node9"><a xlink:title=" ">
<polygon fill="#e0e0e0" stroke="#999999" points="221,-74 171,-74 171,-55 221,-55 221,-74"/>
<text text-anchor="middle" x="196" y="-62" font-family="Helvetica,sans-Serif" font-size="10.00">cstring</text>
</a>
</g>
</g>
<!-- Node5&#45;&gt;Node9 -->
<g id="edge8" class="edge">
<title>Node5&#45;&gt;Node9</title>
<path fill="none" stroke="#63b8ff" d="M251.4,-109.98C241.54,-102.07 226.65,-90.11 214.78,-80.58"/>
<polygon fill="#63b8ff" stroke="#63b8ff" points="216.79,-77.7 206.8,-74.17 212.4,-83.16 216.79,-77.7"/>
</g>
<!-- Node10 -->
<g id="node10" class="node">
<title>Node10</title>
<g id="a_node10"><a xlink:title=" ">
<polygon fill="#e0e0e0" stroke="#999999" points="285,-74 239,-74 239,-55 285,-55 285,-74"/>
<text text-anchor="middle" x="262" y="-62" font-family="Helvetica,sans-Serif" font-size="10.00">cstdio</text>
</a>
</g>
</g>
<!-- Node5&#45;&gt;Node10 -->
<g id="edge9" class="edge">
<title>Node5&#45;&gt;Node10</title>
<path fill="none" stroke="#63b8ff" d="M262,-109.75C262,-102.8 262,-92.85 262,-84.13"/>
<polygon fill="#63b8ff" stroke="#63b8ff" points="265.5,-84.09 262,-74.09 258.5,-84.09 265.5,-84.09"/>
</g>
<!-- Node11 -->
<g id="node11" class="node">
<title>Node11</title>
<g id="a_node11"><a xlink:title=" ">
<polygon fill="#e0e0e0" stroke="#999999" points="352.5,-74 303.5,-74 303.5,-55 352.5,-55 352.5,-74"/>
<text text-anchor="middle" x="328" y="-62" font-family="Helvetica,sans-Serif" font-size="10.00">cstdlib</text>
</a>
</g>
</g>
<!-- Node5&#45;&gt;Node11 -->
<g id="edge10" class="edge">
<title>Node5&#45;&gt;Node11</title>
<path fill="none" stroke="#63b8ff" d="M272.6,-109.98C282.46,-102.07 297.35,-90.11 309.22,-80.58"/>
<polygon fill="#63b8ff" stroke="#63b8ff" points="311.6,-83.16 317.2,-74.17 307.21,-77.7 311.6,-83.16"/>
</g>
<!-- Node12 -->
<g id="node12" class="node">
<title>Node12</title>
<g id="a_node12"><a xlink:title=" ">
<polygon fill="#e0e0e0" stroke="#999999" points="481,-19 431,-19 431,0 481,0 481,-19"/>
<text text-anchor="middle" x="456" y="-7" font-family="Helvetica,sans-Serif" font-size="10.00">cstdint</text>
</a>
</g>
</g>
<!-- Node5&#45;&gt;Node12 -->
<g id="edge11" class="edge">
<title>Node5&#45;&gt;Node12</title>
<path fill="none" stroke="#63b8ff" d="M294.82,-117.35C353.86,-114.5 474.29,-104.97 500,-74 513.13,-58.18 494.77,-38.54 477.91,-25.33"/>
<polygon fill="#63b8ff" stroke="#63b8ff" points="479.53,-22.18 469.41,-19.06 475.38,-27.81 479.53,-22.18"/>
</g>
<!-- Node13 -->
<g id="node13" class="node">
<title>Node13</title>
<g id="a_node13"><a xlink:title=" ">
<polygon fill="#e0e0e0" stroke="#999999" points="490.5,-74 433.5,-74 433.5,-55 490.5,-55 490.5,-74"/>
<text text-anchor="middle" x="462" y="-62" font-family="Helvetica,sans-Serif" font-size="10.00">ostream</text>
</a>
</g>
</g>
<!-- Node5&#45;&gt;Node13 -->
<g id="edge12" class="edge">
<title>Node5&#45;&gt;Node13</title>
<path fill="none" stroke="#63b8ff" d="M294.13,-109.98C329.26,-100.68 385.53,-85.76 423.12,-75.8"/>
<polygon fill="#63b8ff" stroke="#63b8ff" points="424.42,-79.08 433.19,-73.13 422.63,-72.31 424.42,-79.08"/>
</g>
<!-- Node14 -->
<g id="node14" class="node">
<title>Node14</title>
<g id="a_node14"><a xlink:href="../../db/d7c/utf8_8h.html" target="_top" xlink:title="Various UTF8 related helper functions.">
<polygon fill="white" stroke="#666666" points="415.5,-74 370.5,-74 370.5,-55 415.5,-55 415.5,-74"/>
<text text-anchor="middle" x="393" y="-62" font-family="Helvetica,sans-Serif" font-size="10.00">utf8.h</text>
</a>
</g>
</g>
<!-- Node5&#45;&gt;Node14 -->
<g id="edge13" class="edge">
<title>Node5&#45;&gt;Node14</title>
<path fill="none" stroke="#63b8ff" d="M283.05,-109.98C304.41,-101.34 337.7,-87.87 362.06,-78.02"/>
<polygon fill="#63b8ff" stroke="#63b8ff" points="363.61,-81.17 371.57,-74.17 360.99,-74.68 363.61,-81.17"/>
</g>
<!-- Node14&#45;&gt;Node6 -->
<g id="edge15" class="edge">
<title>Node14&#45;&gt;Node6</title>
<path fill="none" stroke="#63b8ff" d="M370.21,-56.35C340.73,-47.11 289.23,-30.96 255.88,-20.5"/>
<polygon fill="#63b8ff" stroke="#63b8ff" points="256.75,-17.1 246.16,-17.45 254.66,-23.78 256.75,-17.1"/>
</g>
<!-- Node14&#45;&gt;Node12 -->
<g id="edge14" class="edge">
<title>Node14&#45;&gt;Node12</title>
<path fill="none" stroke="#63b8ff" d="M403.12,-54.98C412.44,-47.15 426.47,-35.34 437.74,-25.86"/>
<polygon fill="#63b8ff" stroke="#63b8ff" points="440.29,-28.29 445.69,-19.17 435.79,-22.93 440.29,-28.29"/>
</g>
</g>
</svg>
