<?xml version="1.0" encoding="UTF-8" standalone="no"?>
<!DOCTYPE svg PUBLIC "-//W3C//DTD SVG 1.1//EN"
 "http://www.w3.org/Graphics/SVG/1.1/DTD/svg11.dtd">
<!-- Generated by graphviz version 2.43.0 (0)
 -->
<!-- Title: TranslatorAdapter_1_9_5 Pages: 1 -->
<!--zoomable 767 -->
<svg id="main" version="1.1" xmlns="http://www.w3.org/2000/svg" xmlns:xlink="http://www.w3.org/1999/xlink" xml:space="preserve" onload="init(evt)">
<style type="text/css"><![CDATA[
.edge:hover path { stroke: red; }
.edge:hover polygon { stroke: red; fill: red; }
]]></style>
<script type="text/javascript"><![CDATA[
var edges = document.getElementsByTagName('g');
if (edges && edges.length) {
  for (var i=0;i<edges.length;i++) {
    if (edges[i].id.substr(0,4)=='edge') {
      edges[i].setAttribute('class','edge');
    }
  }
}
]]></script>
        <defs>
                <circle id="rim" cx="0" cy="0" r="7"/>
                <circle id="rim2" cx="0" cy="0" r="3.5"/>
                <g id="zoomPlus">
                        <use xlink:href="#rim" fill="#404040">
                                <set attributeName="fill" to="#808080" begin="zoomplus.mouseover" end="zoomplus.mouseout"/>
                        </use>
                        <path d="M-4,0h8M0,-4v8" fill="none" stroke="white" stroke-width="1.5" pointer-events="none"/>
                </g>
                <g id="zoomMin">
                        <use xlink:href="#rim" fill="#404040">
                                <set attributeName="fill" to="#808080" begin="zoomminus.mouseover" end="zoomminus.mouseout"/>
                        </use>
                        <path d="M-4,0h8" fill="none" stroke="white" stroke-width="1.5" pointer-events="none"/>
                </g>
                <g id="dirArrow">
                        <path fill="none" stroke="white" stroke-width="1.5" d="M0,-3.0v7 M-2.5,-0.5L0,-3.0L2.5,-0.5"/>
                </g>
               <g id="resetDef">
                       <use xlink:href="#rim2" fill="#404040">
                               <set attributeName="fill" to="#808080" begin="reset.mouseover" end="reset.mouseout"/>
                       </use>
               </g>
        </defs>

<script type="text/javascript">
var viewWidth = 2321;
var viewHeight = 767;
var sectionId = 'dynsection-0';
</script>
<script xlink:href="../../svgpan.js"/>
<svg id="graph" class="graph">
<g id="viewport">
<title>TranslatorAdapter_1_9_5</title>
<!-- Node1 -->
<g id="node1" class="node">
<title>Node1</title>
<g id="a_node1"><a xlink:title=" ">
<polygon fill="#999999" stroke="#666666" points="401,-92 264,-92 264,-73 401,-73 401,-92"/>
<text text-anchor="middle" x="332.5" y="-80" font-family="Helvetica,sans-Serif" font-size="10.00">TranslatorAdapter_1_9_5</text>
</a>
</g>
</g>
<!-- Node4 -->
<g id="node4" class="node">
<title>Node4</title>
<g id="a_node4"><a xlink:href="../../d0/d33/class_translator_adapter__1__9__4.html" target="_top" xlink:title=" ">
<polygon fill="white" stroke="#666666" points="574,-111 437,-111 437,-92 574,-92 574,-111"/>
<text text-anchor="middle" x="505.5" y="-99" font-family="Helvetica,sans-Serif" font-size="10.00">TranslatorAdapter_1_9_4</text>
</a>
</g>
</g>
<!-- Node1&#45;&gt;Node4 -->
<g id="edge3" class="edge">
<title>Node1&#45;&gt;Node4</title>
<path fill="none" stroke="#63b8ff" d="M411.1,-91.12C419.69,-92.08 428.39,-93.04 436.85,-93.98"/>
<polygon fill="#63b8ff" stroke="#63b8ff" points="411.41,-87.64 401.08,-90.01 410.64,-94.59 411.41,-87.64"/>
</g>
<!-- Node50 -->
<g id="node50" class="node">
<title>Node50</title>
<g id="a_node50"><a xlink:href="../../da/d1a/class_translator_french.html" target="_top" xlink:title=" ">
<polygon fill="white" stroke="#666666" points="554,-74 457,-74 457,-55 554,-55 554,-74"/>
<text text-anchor="middle" x="505.5" y="-62" font-family="Helvetica,sans-Serif" font-size="10.00">TranslatorFrench</text>
</a>
</g>
</g>
<!-- Node1&#45;&gt;Node50 -->
<g id="edge49" class="edge">
<title>Node1&#45;&gt;Node50</title>
<path fill="none" stroke="#63b8ff" d="M411.24,-74.32C426.81,-72.68 442.72,-71 456.9,-69.51"/>
<polygon fill="#63b8ff" stroke="#63b8ff" points="410.66,-70.86 401.08,-75.39 411.4,-77.82 410.66,-70.86"/>
</g>
<!-- Node2 -->
<g id="node2" class="node">
<title>Node2</title>
<g id="a_node2"><a xlink:href="../../db/d6c/class_translator_adapter_base.html" target="_top" xlink:title="Base of the translator adapter tree.">
<polygon fill="white" stroke="#666666" points="228,-92 101,-92 101,-73 228,-73 228,-92"/>
<text text-anchor="middle" x="164.5" y="-80" font-family="Helvetica,sans-Serif" font-size="10.00">TranslatorAdapterBase</text>
</a>
</g>
</g>
<!-- Node2&#45;&gt;Node1 -->
<g id="edge1" class="edge">
<title>Node2&#45;&gt;Node1</title>
<path fill="none" stroke="#63b8ff" d="M238.49,-82.5C246.95,-82.5 255.56,-82.5 263.94,-82.5"/>
<polygon fill="#63b8ff" stroke="#63b8ff" points="238.26,-79 228.26,-82.5 238.26,-86 238.26,-79"/>
</g>
<!-- Node3 -->
<g id="node3" class="node">
<title>Node3</title>
<g id="a_node3"><a xlink:href="../../d8/dfb/class_translator.html" target="_top" xlink:title="Abstract base class for all translatable text fragments.">
<polygon fill="white" stroke="#666666" points="65,-92 0,-92 0,-73 65,-73 65,-92"/>
<text text-anchor="middle" x="32.5" y="-80" font-family="Helvetica,sans-Serif" font-size="10.00">Translator</text>
</a>
</g>
</g>
<!-- Node3&#45;&gt;Node2 -->
<g id="edge2" class="edge">
<title>Node3&#45;&gt;Node2</title>
<path fill="none" stroke="#63b8ff" d="M75.54,-82.5C83.6,-82.5 92.2,-82.5 100.75,-82.5"/>
<polygon fill="#63b8ff" stroke="#63b8ff" points="75.3,-79 65.3,-82.5 75.3,-86 75.3,-79"/>
</g>
<!-- Node5 -->
<g id="node5" class="node">
<title>Node5</title>
<g id="a_node5"><a xlink:href="../../d3/d2e/class_translator_adapter__1__9__2.html" target="_top" xlink:title=" ">
<polygon fill="white" stroke="#666666" points="747,-204 610,-204 610,-185 747,-185 747,-204"/>
<text text-anchor="middle" x="678.5" y="-192" font-family="Helvetica,sans-Serif" font-size="10.00">TranslatorAdapter_1_9_2</text>
</a>
</g>
</g>
<!-- Node4&#45;&gt;Node5 -->
<g id="edge4" class="edge">
<title>Node4&#45;&gt;Node5</title>
<path fill="none" stroke="#63b8ff" d="M524.79,-117.61C544.56,-134.26 577.59,-159.94 610,-175.5 617.79,-179.24 626.45,-182.37 634.9,-184.93"/>
<polygon fill="#63b8ff" stroke="#63b8ff" points="527.05,-114.93 517.18,-111.08 522.49,-120.25 527.05,-114.93"/>
</g>
<!-- Node45 -->
<g id="node45" class="node">
<title>Node45</title>
<g id="a_node45"><a xlink:href="../../da/dbb/class_translator_bulgarian.html" target="_top" xlink:title=" ">
<polygon fill="white" stroke="#666666" points="734,-167 623,-167 623,-148 734,-148 734,-167"/>
<text text-anchor="middle" x="678.5" y="-155" font-family="Helvetica,sans-Serif" font-size="10.00">TranslatorBulgarian</text>
</a>
</g>
</g>
<!-- Node4&#45;&gt;Node45 -->
<g id="edge44" class="edge">
<title>Node4&#45;&gt;Node45</title>
<path fill="none" stroke="#63b8ff" d="M541.45,-114.67C561.42,-122.03 586.98,-131.16 610,-138.5 620.32,-141.79 631.63,-145.09 641.98,-148"/>
<polygon fill="#63b8ff" stroke="#63b8ff" points="542.45,-111.31 531.85,-111.12 540.01,-117.87 542.45,-111.31"/>
</g>
<!-- Node46 -->
<g id="node46" class="node">
<title>Node46</title>
<g id="a_node46"><a xlink:href="../../d6/db6/class_translator_chinese.html" target="_top" xlink:title=" ">
<polygon fill="white" stroke="#666666" points="730.5,-130 626.5,-130 626.5,-111 730.5,-111 730.5,-130"/>
<text text-anchor="middle" x="678.5" y="-118" font-family="Helvetica,sans-Serif" font-size="10.00">TranslatorChinese</text>
</a>
</g>
</g>
<!-- Node4&#45;&gt;Node46 -->
<g id="edge45" class="edge">
<title>Node4&#45;&gt;Node46</title>
<path fill="none" stroke="#63b8ff" d="M584.41,-110.16C598.69,-111.74 613.26,-113.36 626.49,-114.83"/>
<polygon fill="#63b8ff" stroke="#63b8ff" points="584.41,-106.64 574.08,-109.01 583.64,-113.59 584.41,-106.64"/>
</g>
<!-- Node47 -->
<g id="node47" class="node">
<title>Node47</title>
<g id="a_node47"><a xlink:href="../../df/d75/class_translator_greek.html" target="_top" xlink:title=" ">
<polygon fill="white" stroke="#666666" points="725.5,-93 631.5,-93 631.5,-74 725.5,-74 725.5,-93"/>
<text text-anchor="middle" x="678.5" y="-81" font-family="Helvetica,sans-Serif" font-size="10.00">TranslatorGreek</text>
</a>
</g>
</g>
<!-- Node4&#45;&gt;Node47 -->
<g id="edge46" class="edge">
<title>Node4&#45;&gt;Node47</title>
<path fill="none" stroke="#63b8ff" d="M584.09,-93.33C600.28,-91.63 616.84,-89.89 631.44,-88.35"/>
<polygon fill="#63b8ff" stroke="#63b8ff" points="583.66,-89.86 574.08,-94.39 584.4,-96.82 583.66,-89.86"/>
</g>
<!-- Node48 -->
<g id="node48" class="node">
<title>Node48</title>
<g id="a_node48"><a xlink:href="../../d1/d8a/class_translator_hindi.html" target="_top" xlink:title=" ">
<polygon fill="white" stroke="#666666" points="723.5,-56 633.5,-56 633.5,-37 723.5,-37 723.5,-56"/>
<text text-anchor="middle" x="678.5" y="-44" font-family="Helvetica,sans-Serif" font-size="10.00">TranslatorHindi</text>
</a>
</g>
</g>
<!-- Node4&#45;&gt;Node48 -->
<g id="edge47" class="edge">
<title>Node4&#45;&gt;Node48</title>
<path fill="none" stroke="#63b8ff" d="M555.11,-89.01C561.52,-87.02 567.96,-84.83 574,-82.5 590.68,-76.05 593.27,-70.84 610,-64.5 618.39,-61.32 627.57,-58.48 636.39,-56.04"/>
<polygon fill="#63b8ff" stroke="#63b8ff" points="553.7,-85.78 545.11,-91.99 555.69,-92.49 553.7,-85.78"/>
</g>
<!-- Node49 -->
<g id="node49" class="node">
<title>Node49</title>
<g id="a_node49"><a xlink:href="../../d5/d5c/class_translator_swedish.html" target="_top" xlink:title=" ">
<polygon fill="white" stroke="#666666" points="731,-19 626,-19 626,0 731,0 731,-19"/>
<text text-anchor="middle" x="678.5" y="-7" font-family="Helvetica,sans-Serif" font-size="10.00">TranslatorSwedish</text>
</a>
</g>
</g>
<!-- Node4&#45;&gt;Node49 -->
<g id="edge48" class="edge">
<title>Node4&#45;&gt;Node49</title>
<path fill="none" stroke="#63b8ff" d="M565.54,-87.76C568.51,-86.19 571.35,-84.44 574,-82.5 597.56,-65.22 586.32,-44.62 610,-27.5 614.82,-24.02 620.26,-21.21 625.92,-18.95"/>
<polygon fill="#63b8ff" stroke="#63b8ff" points="564,-84.61 556.36,-91.94 566.91,-90.98 564,-84.61"/>
</g>
<!-- Node6 -->
<g id="node6" class="node">
<title>Node6</title>
<g id="a_node6"><a xlink:href="../../de/dde/class_translator_adapter__1__8__19.html" target="_top" xlink:title=" ">
<polygon fill="white" stroke="#666666" points="926,-204 783,-204 783,-185 926,-185 926,-204"/>
<text text-anchor="middle" x="854.5" y="-192" font-family="Helvetica,sans-Serif" font-size="10.00">TranslatorAdapter_1_8_19</text>
</a>
</g>
</g>
<!-- Node5&#45;&gt;Node6 -->
<g id="edge5" class="edge">
<title>Node5&#45;&gt;Node6</title>
<path fill="none" stroke="#63b8ff" d="M757.47,-194.5C765.89,-194.5 774.42,-194.5 782.75,-194.5"/>
<polygon fill="#63b8ff" stroke="#63b8ff" points="757.27,-191 747.27,-194.5 757.27,-198 757.27,-191"/>
</g>
<!-- Node7 -->
<g id="node7" class="node">
<title>Node7</title>
<g id="a_node7"><a xlink:href="../../d4/d2e/class_translator_adapter__1__8__15.html" target="_top" xlink:title=" ">
<polygon fill="white" stroke="#666666" points="1105,-223 962,-223 962,-204 1105,-204 1105,-223"/>
<text text-anchor="middle" x="1033.5" y="-211" font-family="Helvetica,sans-Serif" font-size="10.00">TranslatorAdapter_1_8_15</text>
</a>
</g>
</g>
<!-- Node6&#45;&gt;Node7 -->
<g id="edge6" class="edge">
<title>Node6&#45;&gt;Node7</title>
<path fill="none" stroke="#63b8ff" d="M936.21,-203.16C944.78,-204.08 953.45,-205.01 961.89,-205.92"/>
<polygon fill="#63b8ff" stroke="#63b8ff" points="936.53,-199.68 926.22,-202.09 935.79,-206.64 936.53,-199.68"/>
</g>
<!-- Node44 -->
<g id="node44" class="node">
<title>Node44</title>
<g id="a_node44"><a xlink:href="../../dc/d44/class_translator_spanish.html" target="_top" xlink:title=" ">
<polygon fill="white" stroke="#666666" points="1085,-186 982,-186 982,-167 1085,-167 1085,-186"/>
<text text-anchor="middle" x="1033.5" y="-174" font-family="Helvetica,sans-Serif" font-size="10.00">TranslatorSpanish</text>
</a>
</g>
</g>
<!-- Node6&#45;&gt;Node44 -->
<g id="edge43" class="edge">
<title>Node6&#45;&gt;Node44</title>
<path fill="none" stroke="#63b8ff" d="M936.32,-186.28C951.8,-184.71 967.59,-183.1 981.78,-181.66"/>
<polygon fill="#63b8ff" stroke="#63b8ff" points="935.81,-182.81 926.22,-187.31 936.52,-189.78 935.81,-182.81"/>
</g>
<!-- Node8 -->
<g id="node8" class="node">
<title>Node8</title>
<g id="a_node8"><a xlink:href="../../de/d2f/class_translator_adapter__1__8__4.html" target="_top" xlink:title=" ">
<polygon fill="white" stroke="#666666" points="1286.5,-390 1149.5,-390 1149.5,-371 1286.5,-371 1286.5,-390"/>
<text text-anchor="middle" x="1218" y="-378" font-family="Helvetica,sans-Serif" font-size="10.00">TranslatorAdapter_1_8_4</text>
</a>
</g>
</g>
<!-- Node7&#45;&gt;Node8 -->
<g id="edge7" class="edge">
<title>Node7&#45;&gt;Node8</title>
<path fill="none" stroke="#63b8ff" d="M1042.89,-232.78C1057.81,-264.7 1092.04,-328.29 1141,-361.5 1146.74,-365.39 1153.21,-368.49 1159.89,-370.95"/>
<polygon fill="#63b8ff" stroke="#63b8ff" points="1045.89,-230.93 1038.58,-223.26 1039.52,-233.81 1045.89,-230.93"/>
</g>
<!-- Node35 -->
<g id="node35" class="node">
<title>Node35</title>
<g id="a_node35"><a xlink:href="../../dd/df6/class_translator_chinesetraditional.html" target="_top" xlink:title=" ">
<polygon fill="white" stroke="#666666" points="1295,-353 1141,-353 1141,-334 1295,-334 1295,-353"/>
<text text-anchor="middle" x="1218" y="-341" font-family="Helvetica,sans-Serif" font-size="10.00">TranslatorChinesetraditional</text>
</a>
</g>
</g>
<!-- Node7&#45;&gt;Node35 -->
<g id="edge34" class="edge">
<title>Node7&#45;&gt;Node35</title>
<path fill="none" stroke="#63b8ff" d="M1046.88,-231.77C1064.71,-256.63 1100.03,-300.74 1141,-324.5 1147.71,-328.39 1155.19,-331.49 1162.78,-333.96"/>
<polygon fill="#63b8ff" stroke="#63b8ff" points="1049.53,-229.45 1040.93,-223.26 1043.79,-233.46 1049.53,-229.45"/>
</g>
<!-- Node36 -->
<g id="node36" class="node">
<title>Node36</title>
<g id="a_node36"><a xlink:href="../../d6/d07/class_translator_german.html" target="_top" xlink:title=" ">
<polygon fill="white" stroke="#666666" points="1270,-316 1166,-316 1166,-297 1270,-297 1270,-316"/>
<text text-anchor="middle" x="1218" y="-304" font-family="Helvetica,sans-Serif" font-size="10.00">TranslatorGerman</text>
</a>
</g>
</g>
<!-- Node7&#45;&gt;Node36 -->
<g id="edge35" class="edge">
<title>Node7&#45;&gt;Node36</title>
<path fill="none" stroke="#63b8ff" d="M1053.32,-229.77C1073.65,-246.56 1107.63,-272.35 1141,-287.5 1149.42,-291.32 1158.73,-294.46 1167.86,-296.99"/>
<polygon fill="#63b8ff" stroke="#63b8ff" points="1055.39,-226.94 1045.48,-223.19 1050.89,-232.3 1055.39,-226.94"/>
</g>
<!-- Node37 -->
<g id="node37" class="node">
<title>Node37</title>
<g id="a_node37"><a xlink:href="../../db/d5f/class_translator_hungarian.html" target="_top" xlink:title=" ">
<polygon fill="white" stroke="#666666" points="1275.5,-279 1160.5,-279 1160.5,-260 1275.5,-260 1275.5,-279"/>
<text text-anchor="middle" x="1218" y="-267" font-family="Helvetica,sans-Serif" font-size="10.00">TranslatorHungarian</text>
</a>
</g>
</g>
<!-- Node7&#45;&gt;Node37 -->
<g id="edge36" class="edge">
<title>Node7&#45;&gt;Node37</title>
<path fill="none" stroke="#63b8ff" d="M1069.72,-226.62C1090.35,-234.09 1116.98,-243.34 1141,-250.5 1152.21,-253.84 1164.46,-257.08 1175.8,-259.91"/>
<polygon fill="#63b8ff" stroke="#63b8ff" points="1070.71,-223.26 1060.11,-223.12 1068.31,-229.84 1070.71,-223.26"/>
</g>
<!-- Node38 -->
<g id="node38" class="node">
<title>Node38</title>
<g id="a_node38"><a xlink:href="../../d2/df8/class_translator_italian.html" target="_top" xlink:title=" ">
<polygon fill="white" stroke="#666666" points="1265.5,-242 1170.5,-242 1170.5,-223 1265.5,-223 1265.5,-242"/>
<text text-anchor="middle" x="1218" y="-230" font-family="Helvetica,sans-Serif" font-size="10.00">TranslatorItalian</text>
</a>
</g>
</g>
<!-- Node7&#45;&gt;Node38 -->
<g id="edge37" class="edge">
<title>Node7&#45;&gt;Node38</title>
<path fill="none" stroke="#63b8ff" d="M1115.15,-221.9C1134.01,-223.86 1153.48,-225.89 1170.29,-227.64"/>
<polygon fill="#63b8ff" stroke="#63b8ff" points="1115.37,-218.4 1105.06,-220.85 1114.64,-225.36 1115.37,-218.4"/>
</g>
<!-- Node39 -->
<g id="node39" class="node">
<title>Node39</title>
<g id="a_node39"><a xlink:href="../../d1/d6a/class_translator_japanese.html" target="_top" xlink:title=" ">
<polygon fill="white" stroke="#666666" points="1272.5,-205 1163.5,-205 1163.5,-186 1272.5,-186 1272.5,-205"/>
<text text-anchor="middle" x="1218" y="-193" font-family="Helvetica,sans-Serif" font-size="10.00">TranslatorJapanese</text>
</a>
</g>
</g>
<!-- Node7&#45;&gt;Node39 -->
<g id="edge38" class="edge">
<title>Node7&#45;&gt;Node39</title>
<path fill="none" stroke="#63b8ff" d="M1115.14,-205.55C1131.45,-203.94 1148.22,-202.28 1163.33,-200.79"/>
<polygon fill="#63b8ff" stroke="#63b8ff" points="1114.67,-202.08 1105.06,-206.54 1115.35,-209.04 1114.67,-202.08"/>
</g>
<!-- Node40 -->
<g id="node40" class="node">
<title>Node40</title>
<g id="a_node40"><a xlink:href="../../db/dcc/class_translator_korean.html" target="_top" xlink:title=" ">
<polygon fill="white" stroke="#666666" points="1267,-168 1169,-168 1169,-149 1267,-149 1267,-168"/>
<text text-anchor="middle" x="1218" y="-156" font-family="Helvetica,sans-Serif" font-size="10.00">TranslatorKorean</text>
</a>
</g>
</g>
<!-- Node7&#45;&gt;Node40 -->
<g id="edge39" class="edge">
<title>Node7&#45;&gt;Node40</title>
<path fill="none" stroke="#63b8ff" d="M1085.31,-201.12C1092,-199.11 1098.71,-196.89 1105,-194.5 1121.72,-188.14 1124.18,-182.6 1141,-176.5 1149.92,-173.26 1159.65,-170.45 1169.07,-168.07"/>
<polygon fill="#63b8ff" stroke="#63b8ff" points="1084.22,-197.79 1075.58,-203.92 1086.16,-204.52 1084.22,-197.79"/>
</g>
<!-- Node41 -->
<g id="node41" class="node">
<title>Node41</title>
<g id="a_node41"><a xlink:href="../../da/d32/class_translator_romanian.html" target="_top" xlink:title=" ">
<polygon fill="white" stroke="#666666" points="1275,-131 1161,-131 1161,-112 1275,-112 1275,-131"/>
<text text-anchor="middle" x="1218" y="-119" font-family="Helvetica,sans-Serif" font-size="10.00">TranslatorRomanian</text>
</a>
</g>
</g>
<!-- Node7&#45;&gt;Node41 -->
<g id="edge40" class="edge">
<title>Node7&#45;&gt;Node41</title>
<path fill="none" stroke="#63b8ff" d="M1096.5,-199.73C1099.48,-198.17 1102.33,-196.43 1105,-194.5 1128.65,-177.35 1117.09,-156.28 1141,-139.5 1146.99,-135.29 1153.84,-132.06 1160.91,-129.58"/>
<polygon fill="#63b8ff" stroke="#63b8ff" points="1094.96,-196.59 1087.29,-203.9 1097.84,-202.97 1094.96,-196.59"/>
</g>
<!-- Node42 -->
<g id="node42" class="node">
<title>Node42</title>
<g id="a_node42"><a xlink:href="../../d0/dab/class_translator_russian.html" target="_top" xlink:title=" ">
<polygon fill="white" stroke="#666666" points="1269.5,-94 1166.5,-94 1166.5,-75 1269.5,-75 1269.5,-94"/>
<text text-anchor="middle" x="1218" y="-82" font-family="Helvetica,sans-Serif" font-size="10.00">TranslatorRussian</text>
</a>
</g>
</g>
<!-- Node7&#45;&gt;Node42 -->
<g id="edge41" class="edge">
<title>Node7&#45;&gt;Node42</title>
<path fill="none" stroke="#63b8ff" d="M1099.38,-198.86C1101.35,-197.53 1103.24,-196.08 1105,-194.5 1137.7,-165.2 1107.85,-131.29 1141,-102.5 1148.17,-96.28 1157.1,-92.11 1166.29,-89.34"/>
<polygon fill="#63b8ff" stroke="#63b8ff" points="1097.25,-196.05 1090.22,-203.97 1100.66,-202.16 1097.25,-196.05"/>
</g>
<!-- Node43 -->
<g id="node43" class="node">
<title>Node43</title>
<g id="a_node43"><a xlink:href="../../d2/d53/class_translator_slovak.html" target="_top" xlink:title=" ">
<polygon fill="white" stroke="#666666" points="1267,-57 1169,-57 1169,-38 1267,-38 1267,-57"/>
<text text-anchor="middle" x="1218" y="-45" font-family="Helvetica,sans-Serif" font-size="10.00">TranslatorSlovak</text>
</a>
</g>
</g>
<!-- Node7&#45;&gt;Node43 -->
<g id="edge42" class="edge">
<title>Node7&#45;&gt;Node43</title>
<path fill="none" stroke="#63b8ff" d="M1100.37,-198.51C1102,-197.27 1103.55,-195.94 1105,-194.5 1147.28,-152.6 1098.09,-106.75 1141,-65.5 1148.63,-58.17 1158.66,-53.64 1168.93,-50.88"/>
<polygon fill="#63b8ff" stroke="#63b8ff" points="1098.32,-195.66 1091.66,-203.9 1102.01,-201.61 1098.32,-195.66"/>
</g>
<!-- Node9 -->
<g id="node9" class="node">
<title>Node9</title>
<g id="a_node9"><a xlink:href="../../d2/d75/class_translator_adapter__1__8__2.html" target="_top" xlink:title=" ">
<polygon fill="white" stroke="#666666" points="1468,-445 1331,-445 1331,-426 1468,-426 1468,-445"/>
<text text-anchor="middle" x="1399.5" y="-433" font-family="Helvetica,sans-Serif" font-size="10.00">TranslatorAdapter_1_8_2</text>
</a>
</g>
</g>
<!-- Node8&#45;&gt;Node9 -->
<g id="edge8" class="edge">
<title>Node8&#45;&gt;Node9</title>
<path fill="none" stroke="#63b8ff" d="M1257.67,-393.32C1279.2,-400.35 1306.52,-409.12 1331,-416.5 1341.61,-419.7 1353.2,-423.02 1363.74,-425.98"/>
<polygon fill="#63b8ff" stroke="#63b8ff" points="1258.51,-389.91 1247.92,-390.12 1256.33,-396.56 1258.51,-389.91"/>
</g>
<!-- Node32 -->
<g id="node32" class="node">
<title>Node32</title>
<g id="a_node32"><a xlink:href="../../d2/d07/class_translator_esperanto.html" target="_top" xlink:title=" ">
<polygon fill="white" stroke="#666666" points="1456,-408 1343,-408 1343,-389 1456,-389 1456,-408"/>
<text text-anchor="middle" x="1399.5" y="-396" font-family="Helvetica,sans-Serif" font-size="10.00">TranslatorEsperanto</text>
</a>
</g>
</g>
<!-- Node8&#45;&gt;Node32 -->
<g id="edge31" class="edge">
<title>Node8&#45;&gt;Node32</title>
<path fill="none" stroke="#63b8ff" d="M1296.73,-388.3C1312.29,-389.85 1328.33,-391.46 1342.95,-392.93"/>
<polygon fill="#63b8ff" stroke="#63b8ff" points="1296.9,-384.79 1286.61,-387.28 1296.21,-391.76 1296.9,-384.79"/>
</g>
<!-- Node33 -->
<g id="node33" class="node">
<title>Node33</title>
<g id="a_node33"><a xlink:href="../../d8/d83/class_translator_latvian.html" target="_top" xlink:title=" ">
<polygon fill="white" stroke="#666666" points="1450,-371 1349,-371 1349,-352 1450,-352 1450,-371"/>
<text text-anchor="middle" x="1399.5" y="-359" font-family="Helvetica,sans-Serif" font-size="10.00">TranslatorLatvian</text>
</a>
</g>
</g>
<!-- Node8&#45;&gt;Node33 -->
<g id="edge32" class="edge">
<title>Node8&#45;&gt;Node33</title>
<path fill="none" stroke="#63b8ff" d="M1296.89,-372.26C1314.52,-370.39 1332.78,-368.46 1348.86,-366.75"/>
<polygon fill="#63b8ff" stroke="#63b8ff" points="1296.18,-368.81 1286.61,-373.34 1296.92,-375.77 1296.18,-368.81"/>
</g>
<!-- Node34 -->
<g id="node34" class="node">
<title>Node34</title>
<g id="a_node34"><a xlink:href="../../d1/d56/class_translator_ukrainian.html" target="_top" xlink:title=" ">
<polygon fill="white" stroke="#666666" points="1455.5,-334 1343.5,-334 1343.5,-315 1455.5,-315 1455.5,-334"/>
<text text-anchor="middle" x="1399.5" y="-322" font-family="Helvetica,sans-Serif" font-size="10.00">TranslatorUkrainian</text>
</a>
</g>
</g>
<!-- Node8&#45;&gt;Node34 -->
<g id="edge33" class="edge">
<title>Node8&#45;&gt;Node34</title>
<path fill="none" stroke="#63b8ff" d="M1274.94,-368.16C1281.77,-366.17 1288.6,-363.95 1295,-361.5 1311.9,-355.04 1314.15,-349.09 1331,-342.5 1339.13,-339.32 1348.03,-336.5 1356.62,-334.1"/>
<polygon fill="#63b8ff" stroke="#63b8ff" points="1273.68,-364.87 1264.96,-370.9 1275.54,-371.62 1273.68,-364.87"/>
</g>
<!-- Node10 -->
<g id="node10" class="node">
<title>Node10</title>
<g id="a_node10"><a xlink:href="../../de/d49/class_translator_adapter__1__8__0.html" target="_top" xlink:title="Adapter class for languages that only contain translations up to version 1.8.0.">
<polygon fill="white" stroke="#666666" points="1641,-482 1504,-482 1504,-463 1641,-463 1641,-482"/>
<text text-anchor="middle" x="1572.5" y="-470" font-family="Helvetica,sans-Serif" font-size="10.00">TranslatorAdapter_1_8_0</text>
</a>
</g>
</g>
<!-- Node9&#45;&gt;Node10 -->
<g id="edge9" class="edge">
<title>Node9&#45;&gt;Node10</title>
<path fill="none" stroke="#63b8ff" d="M1454.35,-447.15C1477.84,-452.23 1505.04,-458.12 1527.32,-462.94"/>
<polygon fill="#63b8ff" stroke="#63b8ff" points="1455.05,-443.72 1444.54,-445.03 1453.57,-450.56 1455.05,-443.72"/>
</g>
<!-- Node30 -->
<g id="node30" class="node">
<title>Node30</title>
<g id="a_node30"><a xlink:href="../../d9/d82/class_translator_croatian.html" target="_top" xlink:title=" ">
<polygon fill="white" stroke="#666666" points="1625.5,-445 1519.5,-445 1519.5,-426 1625.5,-426 1625.5,-445"/>
<text text-anchor="middle" x="1572.5" y="-433" font-family="Helvetica,sans-Serif" font-size="10.00">TranslatorCroatian</text>
</a>
</g>
</g>
<!-- Node9&#45;&gt;Node30 -->
<g id="edge29" class="edge">
<title>Node9&#45;&gt;Node30</title>
<path fill="none" stroke="#63b8ff" d="M1478.19,-435.5C1492.16,-435.5 1506.41,-435.5 1519.44,-435.5"/>
<polygon fill="#63b8ff" stroke="#63b8ff" points="1478.08,-432 1468.08,-435.5 1478.08,-439 1478.08,-432"/>
</g>
<!-- Node31 -->
<g id="node31" class="node">
<title>Node31</title>
<g id="a_node31"><a xlink:href="../../de/d82/class_translator_polish.html" target="_top" xlink:title=" ">
<polygon fill="white" stroke="#666666" points="1619.5,-408 1525.5,-408 1525.5,-389 1619.5,-389 1619.5,-408"/>
<text text-anchor="middle" x="1572.5" y="-396" font-family="Helvetica,sans-Serif" font-size="10.00">TranslatorPolish</text>
</a>
</g>
</g>
<!-- Node9&#45;&gt;Node31 -->
<g id="edge30" class="edge">
<title>Node9&#45;&gt;Node31</title>
<path fill="none" stroke="#63b8ff" d="M1454.35,-423.85C1477.84,-418.77 1505.04,-412.88 1527.32,-408.06"/>
<polygon fill="#63b8ff" stroke="#63b8ff" points="1453.57,-420.44 1444.54,-425.97 1455.05,-427.28 1453.57,-420.44"/>
</g>
<!-- Node11 -->
<g id="node11" class="node">
<title>Node11</title>
<g id="a_node11"><a xlink:href="../../da/d24/class_translator_adapter__1__7__5.html" target="_top" xlink:title="Adapter class for languages that only contain translations up to version 1.7.5.">
<polygon fill="white" stroke="#666666" points="1814,-556 1677,-556 1677,-537 1814,-537 1814,-556"/>
<text text-anchor="middle" x="1745.5" y="-544" font-family="Helvetica,sans-Serif" font-size="10.00">TranslatorAdapter_1_7_5</text>
</a>
</g>
</g>
<!-- Node10&#45;&gt;Node11 -->
<g id="edge10" class="edge">
<title>Node10&#45;&gt;Node11</title>
<path fill="none" stroke="#63b8ff" d="M1597.82,-487.34C1618.35,-499.4 1648.83,-516.2 1677,-527.5 1685.93,-531.08 1695.77,-534.26 1705.12,-536.95"/>
<polygon fill="#63b8ff" stroke="#63b8ff" points="1599.51,-484.27 1589.13,-482.17 1595.93,-490.29 1599.51,-484.27"/>
</g>
<!-- Node26 -->
<g id="node26" class="node">
<title>Node26</title>
<g id="a_node26"><a xlink:href="../../da/db8/class_translator_armenian.html" target="_top" xlink:title=" ">
<polygon fill="white" stroke="#666666" points="1801.5,-519 1689.5,-519 1689.5,-500 1801.5,-500 1801.5,-519"/>
<text text-anchor="middle" x="1745.5" y="-507" font-family="Helvetica,sans-Serif" font-size="10.00">TranslatorArmenian</text>
</a>
</g>
</g>
<!-- Node10&#45;&gt;Node26 -->
<g id="edge25" class="edge">
<title>Node10&#45;&gt;Node26</title>
<path fill="none" stroke="#63b8ff" d="M1627.35,-484.15C1650.84,-489.23 1678.04,-495.12 1700.32,-499.94"/>
<polygon fill="#63b8ff" stroke="#63b8ff" points="1628.05,-480.72 1617.54,-482.03 1626.57,-487.56 1628.05,-480.72"/>
</g>
<!-- Node27 -->
<g id="node27" class="node">
<title>Node27</title>
<g id="a_node27"><a xlink:href="../../d9/dc1/class_translator_catalan.html" target="_top" xlink:title=" ">
<polygon fill="white" stroke="#666666" points="1796.5,-482 1694.5,-482 1694.5,-463 1796.5,-463 1796.5,-482"/>
<text text-anchor="middle" x="1745.5" y="-470" font-family="Helvetica,sans-Serif" font-size="10.00">TranslatorCatalan</text>
</a>
</g>
</g>
<!-- Node10&#45;&gt;Node27 -->
<g id="edge26" class="edge">
<title>Node10&#45;&gt;Node27</title>
<path fill="none" stroke="#63b8ff" d="M1651.15,-472.5C1665.8,-472.5 1680.76,-472.5 1694.28,-472.5"/>
<polygon fill="#63b8ff" stroke="#63b8ff" points="1651.08,-469 1641.08,-472.5 1651.08,-476 1651.08,-469"/>
</g>
<!-- Node28 -->
<g id="node28" class="node">
<title>Node28</title>
<g id="a_node28"><a xlink:href="../../d7/d21/class_translator_danish.html" target="_top" xlink:title=" ">
<polygon fill="white" stroke="#666666" points="1794.5,-445 1696.5,-445 1696.5,-426 1794.5,-426 1794.5,-445"/>
<text text-anchor="middle" x="1745.5" y="-433" font-family="Helvetica,sans-Serif" font-size="10.00">TranslatorDanish</text>
</a>
</g>
</g>
<!-- Node10&#45;&gt;Node28 -->
<g id="edge27" class="edge">
<title>Node10&#45;&gt;Node28</title>
<path fill="none" stroke="#63b8ff" d="M1627.35,-460.85C1650.84,-455.77 1678.04,-449.88 1700.32,-445.06"/>
<polygon fill="#63b8ff" stroke="#63b8ff" points="1626.57,-457.44 1617.54,-462.97 1628.05,-464.28 1626.57,-457.44"/>
</g>
<!-- Node29 -->
<g id="node29" class="node">
<title>Node29</title>
<g id="a_node29"><a xlink:href="../../df/dc8/class_translator_indonesian.html" target="_top" xlink:title=" ">
<polygon fill="white" stroke="#666666" points="1804.5,-408 1686.5,-408 1686.5,-389 1804.5,-389 1804.5,-408"/>
<text text-anchor="middle" x="1745.5" y="-396" font-family="Helvetica,sans-Serif" font-size="10.00">TranslatorIndonesian</text>
</a>
</g>
</g>
<!-- Node10&#45;&gt;Node29 -->
<g id="edge28" class="edge">
<title>Node10&#45;&gt;Node29</title>
<path fill="none" stroke="#63b8ff" d="M1629.42,-459.32C1633.44,-457.6 1637.35,-455.67 1641,-453.5 1660.72,-441.77 1657.2,-428.1 1677,-416.5 1682.86,-413.07 1689.39,-410.28 1696.01,-408.01"/>
<polygon fill="#63b8ff" stroke="#63b8ff" points="1627.97,-456.13 1619.86,-462.95 1630.46,-462.67 1627.97,-456.13"/>
</g>
<!-- Node12 -->
<g id="node12" class="node">
<title>Node12</title>
<g id="a_node12"><a xlink:href="../../d3/da1/class_translator_adapter__1__6__0.html" target="_top" xlink:title="Adapter class for languages that only contain translations up to version 1.6.0.">
<polygon fill="white" stroke="#666666" points="1987,-593 1850,-593 1850,-574 1987,-574 1987,-593"/>
<text text-anchor="middle" x="1918.5" y="-581" font-family="Helvetica,sans-Serif" font-size="10.00">TranslatorAdapter_1_6_0</text>
</a>
</g>
</g>
<!-- Node11&#45;&gt;Node12 -->
<g id="edge11" class="edge">
<title>Node11&#45;&gt;Node12</title>
<path fill="none" stroke="#63b8ff" d="M1800.35,-558.15C1823.84,-563.23 1851.04,-569.12 1873.32,-573.94"/>
<polygon fill="#63b8ff" stroke="#63b8ff" points="1801.05,-554.72 1790.54,-556.03 1799.57,-561.56 1801.05,-554.72"/>
</g>
<!-- Node24 -->
<g id="node24" class="node">
<title>Node24</title>
<g id="a_node24"><a xlink:href="../../d5/d43/class_translator_persian.html" target="_top" xlink:title=" ">
<polygon fill="white" stroke="#666666" points="1969,-556 1868,-556 1868,-537 1969,-537 1969,-556"/>
<text text-anchor="middle" x="1918.5" y="-544" font-family="Helvetica,sans-Serif" font-size="10.00">TranslatorPersian</text>
</a>
</g>
</g>
<!-- Node11&#45;&gt;Node24 -->
<g id="edge23" class="edge">
<title>Node11&#45;&gt;Node24</title>
<path fill="none" stroke="#63b8ff" d="M1824.26,-546.5C1839.06,-546.5 1854.18,-546.5 1867.81,-546.5"/>
<polygon fill="#63b8ff" stroke="#63b8ff" points="1824.08,-543 1814.08,-546.5 1824.08,-550 1824.08,-543"/>
</g>
<!-- Node25 -->
<g id="node25" class="node">
<title>Node25</title>
<g id="a_node25"><a xlink:href="../../dd/d80/class_translator_turkish.html" target="_top" xlink:title=" ">
<polygon fill="white" stroke="#666666" points="1968,-519 1869,-519 1869,-500 1968,-500 1968,-519"/>
<text text-anchor="middle" x="1918.5" y="-507" font-family="Helvetica,sans-Serif" font-size="10.00">TranslatorTurkish</text>
</a>
</g>
</g>
<!-- Node11&#45;&gt;Node25 -->
<g id="edge24" class="edge">
<title>Node11&#45;&gt;Node25</title>
<path fill="none" stroke="#63b8ff" d="M1800.35,-534.85C1823.84,-529.77 1851.04,-523.88 1873.32,-519.06"/>
<polygon fill="#63b8ff" stroke="#63b8ff" points="1799.57,-531.44 1790.54,-536.97 1801.05,-538.28 1799.57,-531.44"/>
</g>
<!-- Node13 -->
<g id="node13" class="node">
<title>Node13</title>
<g id="a_node13"><a xlink:href="../../d4/d2b/class_translator_adapter__1__4__6.html" target="_top" xlink:title="Adapter class for languages that only contain translations up to version 1.4.6.">
<polygon fill="white" stroke="#666666" points="2160,-704 2023,-704 2023,-685 2160,-685 2160,-704"/>
<text text-anchor="middle" x="2091.5" y="-692" font-family="Helvetica,sans-Serif" font-size="10.00">TranslatorAdapter_1_4_6</text>
</a>
</g>
</g>
<!-- Node12&#45;&gt;Node13 -->
<g id="edge12" class="edge">
<title>Node12&#45;&gt;Node13</title>
<path fill="none" stroke="#63b8ff" d="M1934.39,-600.85C1953.06,-621.55 1987.04,-655.83 2023,-675.5 2029.94,-679.3 2037.71,-682.39 2045.44,-684.89"/>
<polygon fill="#63b8ff" stroke="#63b8ff" points="1936.82,-598.31 1927.57,-593.14 1931.57,-602.95 1936.82,-598.31"/>
</g>
<!-- Node18 -->
<g id="node18" class="node">
<title>Node18</title>
<g id="a_node18"><a xlink:href="../../d3/d65/class_translator_afrikaans.html" target="_top" xlink:title=" ">
<polygon fill="white" stroke="#666666" points="2146.5,-667 2036.5,-667 2036.5,-648 2146.5,-648 2146.5,-667"/>
<text text-anchor="middle" x="2091.5" y="-655" font-family="Helvetica,sans-Serif" font-size="10.00">TranslatorAfrikaans</text>
</a>
</g>
</g>
<!-- Node12&#45;&gt;Node18 -->
<g id="edge17" class="edge">
<title>Node12&#45;&gt;Node18</title>
<path fill="none" stroke="#63b8ff" d="M1943.82,-598.34C1964.35,-610.4 1994.83,-627.2 2023,-638.5 2031.93,-642.08 2041.77,-645.26 2051.12,-647.95"/>
<polygon fill="#63b8ff" stroke="#63b8ff" points="1945.51,-595.27 1935.13,-593.17 1941.93,-601.29 1945.51,-595.27"/>
</g>
<!-- Node19 -->
<g id="node19" class="node">
<title>Node19</title>
<g id="a_node19"><a xlink:href="../../de/df7/class_translator_finnish.html" target="_top" xlink:title=" ">
<polygon fill="white" stroke="#666666" points="2141,-630 2042,-630 2042,-611 2141,-611 2141,-630"/>
<text text-anchor="middle" x="2091.5" y="-618" font-family="Helvetica,sans-Serif" font-size="10.00">TranslatorFinnish</text>
</a>
</g>
</g>
<!-- Node12&#45;&gt;Node19 -->
<g id="edge18" class="edge">
<title>Node12&#45;&gt;Node19</title>
<path fill="none" stroke="#63b8ff" d="M1973.35,-595.15C1996.84,-600.23 2024.04,-606.12 2046.32,-610.94"/>
<polygon fill="#63b8ff" stroke="#63b8ff" points="1974.05,-591.72 1963.54,-593.03 1972.57,-598.56 1974.05,-591.72"/>
</g>
<!-- Node20 -->
<g id="node20" class="node">
<title>Node20</title>
<g id="a_node20"><a xlink:href="../../d9/ddf/class_translator_macedonian.html" target="_top" xlink:title=" ">
<polygon fill="white" stroke="#666666" points="2153.5,-593 2029.5,-593 2029.5,-574 2153.5,-574 2153.5,-593"/>
<text text-anchor="middle" x="2091.5" y="-581" font-family="Helvetica,sans-Serif" font-size="10.00">TranslatorMacedonian</text>
</a>
</g>
</g>
<!-- Node12&#45;&gt;Node20 -->
<g id="edge19" class="edge">
<title>Node12&#45;&gt;Node20</title>
<path fill="none" stroke="#63b8ff" d="M1997.28,-583.5C2008,-583.5 2018.88,-583.5 2029.24,-583.5"/>
<polygon fill="#63b8ff" stroke="#63b8ff" points="1997.08,-580 1987.08,-583.5 1997.08,-587 1997.08,-580"/>
</g>
<!-- Node21 -->
<g id="node21" class="node">
<title>Node21</title>
<g id="a_node21"><a xlink:href="../../d5/d0a/class_translator_serbian.html" target="_top" xlink:title=" ">
<polygon fill="white" stroke="#666666" points="2142,-556 2041,-556 2041,-537 2142,-537 2142,-556"/>
<text text-anchor="middle" x="2091.5" y="-544" font-family="Helvetica,sans-Serif" font-size="10.00">TranslatorSerbian</text>
</a>
</g>
</g>
<!-- Node12&#45;&gt;Node21 -->
<g id="edge20" class="edge">
<title>Node12&#45;&gt;Node21</title>
<path fill="none" stroke="#63b8ff" d="M1973.35,-571.85C1996.84,-566.77 2024.04,-560.88 2046.32,-556.06"/>
<polygon fill="#63b8ff" stroke="#63b8ff" points="1972.57,-568.44 1963.54,-573.97 1974.05,-575.28 1972.57,-568.44"/>
</g>
<!-- Node22 -->
<g id="node22" class="node">
<title>Node22</title>
<g id="a_node22"><a xlink:href="../../dc/d03/class_translator_serbian_cyrillic.html" target="_top" xlink:title=" ">
<polygon fill="white" stroke="#666666" points="2159,-519 2024,-519 2024,-500 2159,-500 2159,-519"/>
<text text-anchor="middle" x="2091.5" y="-507" font-family="Helvetica,sans-Serif" font-size="10.00">TranslatorSerbianCyrillic</text>
</a>
</g>
</g>
<!-- Node12&#45;&gt;Node22 -->
<g id="edge21" class="edge">
<title>Node12&#45;&gt;Node22</title>
<path fill="none" stroke="#63b8ff" d="M1975.42,-570.32C1979.44,-568.6 1983.35,-566.67 1987,-564.5 2006.72,-552.77 2003.2,-539.1 2023,-527.5 2028.86,-524.07 2035.39,-521.28 2042.01,-519.01"/>
<polygon fill="#63b8ff" stroke="#63b8ff" points="1973.97,-567.13 1965.86,-573.95 1976.46,-573.67 1973.97,-567.13"/>
</g>
<!-- Node23 -->
<g id="node23" class="node">
<title>Node23</title>
<g id="a_node23"><a xlink:href="../../df/d20/class_translator_vietnamese.html" target="_top" xlink:title=" ">
<polygon fill="white" stroke="#666666" points="2153,-482 2030,-482 2030,-463 2153,-463 2153,-482"/>
<text text-anchor="middle" x="2091.5" y="-470" font-family="Helvetica,sans-Serif" font-size="10.00">TranslatorVietnamese</text>
</a>
</g>
</g>
<!-- Node12&#45;&gt;Node23 -->
<g id="edge22" class="edge">
<title>Node12&#45;&gt;Node23</title>
<path fill="none" stroke="#63b8ff" d="M1980.48,-569.18C1982.77,-567.76 1984.96,-566.21 1987,-564.5 2015.06,-541.04 1994.78,-513.76 2023,-490.5 2027.12,-487.11 2031.81,-484.35 2036.77,-482.1"/>
<polygon fill="#63b8ff" stroke="#63b8ff" points="1978.48,-566.27 1971.21,-573.97 1981.7,-572.49 1978.48,-566.27"/>
</g>
<!-- Node14 -->
<g id="node14" class="node">
<title>Node14</title>
<g id="a_node14"><a xlink:href="../../d3/de9/class_translator_arabic.html" target="_top" xlink:title=" ">
<polygon fill="white" stroke="#666666" points="2302,-759 2207,-759 2207,-740 2302,-740 2302,-759"/>
<text text-anchor="middle" x="2254.5" y="-747" font-family="Helvetica,sans-Serif" font-size="10.00">TranslatorArabic</text>
</a>
</g>
</g>
<!-- Node13&#45;&gt;Node14 -->
<g id="edge13" class="edge">
<title>Node13&#45;&gt;Node14</title>
<path fill="none" stroke="#63b8ff" d="M2127.94,-707.57C2147.87,-714.81 2173.25,-723.88 2196,-731.5 2204.43,-734.33 2213.6,-737.26 2222.09,-739.92"/>
<polygon fill="#63b8ff" stroke="#63b8ff" points="2128.94,-704.2 2118.35,-704.06 2126.54,-710.78 2128.94,-704.2"/>
</g>
<!-- Node15 -->
<g id="node15" class="node">
<title>Node15</title>
<g id="a_node15"><a xlink:href="../../dc/d53/class_translator_lithuanian.html" target="_top" xlink:title=" ">
<polygon fill="white" stroke="#666666" points="2312.5,-722 2196.5,-722 2196.5,-703 2312.5,-703 2312.5,-722"/>
<text text-anchor="middle" x="2254.5" y="-710" font-family="Helvetica,sans-Serif" font-size="10.00">TranslatorLithuanian</text>
</a>
</g>
</g>
<!-- Node13&#45;&gt;Node15 -->
<g id="edge14" class="edge">
<title>Node13&#45;&gt;Node15</title>
<path fill="none" stroke="#63b8ff" d="M2170.53,-703.22C2179.27,-704.2 2188.05,-705.18 2196.46,-706.12"/>
<polygon fill="#63b8ff" stroke="#63b8ff" points="2170.64,-699.71 2160.31,-702.08 2169.86,-706.67 2170.64,-699.71"/>
</g>
<!-- Node16 -->
<g id="node16" class="node">
<title>Node16</title>
<g id="a_node16"><a xlink:href="../../dd/d38/class_translator_norwegian.html" target="_top" xlink:title=" ">
<polygon fill="white" stroke="#666666" points="2313,-685 2196,-685 2196,-666 2313,-666 2313,-685"/>
<text text-anchor="middle" x="2254.5" y="-673" font-family="Helvetica,sans-Serif" font-size="10.00">TranslatorNorwegian</text>
</a>
</g>
</g>
<!-- Node13&#45;&gt;Node16 -->
<g id="edge15" class="edge">
<title>Node13&#45;&gt;Node16</title>
<path fill="none" stroke="#63b8ff" d="M2170.38,-685.31C2179,-684.29 2187.66,-683.27 2195.96,-682.29"/>
<polygon fill="#63b8ff" stroke="#63b8ff" points="2169.83,-681.85 2160.31,-686.5 2170.65,-688.8 2169.83,-681.85"/>
</g>
<!-- Node17 -->
<g id="node17" class="node">
<title>Node17</title>
<g id="a_node17"><a xlink:href="../../dd/d0b/class_translator_slovene.html" target="_top" xlink:title=" ">
<polygon fill="white" stroke="#666666" points="2306.5,-648 2202.5,-648 2202.5,-629 2306.5,-629 2306.5,-648"/>
<text text-anchor="middle" x="2254.5" y="-636" font-family="Helvetica,sans-Serif" font-size="10.00">TranslatorSlovene</text>
</a>
</g>
</g>
<!-- Node13&#45;&gt;Node17 -->
<g id="edge16" class="edge">
<title>Node13&#45;&gt;Node17</title>
<path fill="none" stroke="#63b8ff" d="M2141.63,-681.99C2147.88,-680.01 2154.14,-677.84 2160,-675.5 2176.8,-668.79 2179.3,-663.45 2196,-656.5 2203.44,-653.4 2211.6,-650.54 2219.38,-648.05"/>
<polygon fill="#63b8ff" stroke="#63b8ff" points="2140.44,-678.69 2131.87,-684.93 2142.46,-685.4 2140.44,-678.69"/>
</g>
</g>
</svg>
        <g id="navigator" transform="translate(0 0)" fill="#404254">
                <rect fill="#f2f5e9" fill-opacity="0.5" stroke="#606060" stroke-width=".5" x="0" y="0" width="60" height="60"/>
                <use id="zoomplus" xlink:href="#zoomPlus" x="17" y="9" onmousedown="handleZoom(evt,'in')"/>
                <use id="zoomminus" xlink:href="#zoomMin" x="42" y="9" onmousedown="handleZoom(evt,'out')"/>
                <use id="reset" xlink:href="#resetDef" x="30" y="36" onmousedown="handleReset()"/>
                <g id="arrowUp" xlink:href="#dirArrow" transform="translate(30 24)" onmousedown="handlePan(0,-1)">
                  <use xlink:href="#rim" fill="#404040">
                        <set attributeName="fill" to="#808080" begin="arrowUp.mouseover" end="arrowUp.mouseout"/>
                  </use>
                  <path fill="none" stroke="white" stroke-width="1.5" d="M0,-3.0v7 M-2.5,-0.5L0,-3.0L2.5,-0.5"/>
                </g>
                <g id="arrowRight" xlink:href="#dirArrow" transform="rotate(90) translate(36 -43)" onmousedown="handlePan(1,0)">
                  <use xlink:href="#rim" fill="#404040">
                        <set attributeName="fill" to="#808080" begin="arrowRight.mouseover" end="arrowRight.mouseout"/>
                  </use>
                  <path fill="none" stroke="white" stroke-width="1.5" d="M0,-3.0v7 M-2.5,-0.5L0,-3.0L2.5,-0.5"/>
                </g>
                <g id="arrowDown" xlink:href="#dirArrow" transform="rotate(180) translate(-30 -48)" onmousedown="handlePan(0,1)">
                  <use xlink:href="#rim" fill="#404040">
                        <set attributeName="fill" to="#808080" begin="arrowDown.mouseover" end="arrowDown.mouseout"/>
                  </use>
                  <path fill="none" stroke="white" stroke-width="1.5" d="M0,-3.0v7 M-2.5,-0.5L0,-3.0L2.5,-0.5"/>
                </g>
                <g id="arrowLeft" xlink:href="#dirArrow" transform="rotate(270) translate(-36 17)" onmousedown="handlePan(-1,0)">
                  <use xlink:href="#rim" fill="#404040">
                        <set attributeName="fill" to="#808080" begin="arrowLeft.mouseover" end="arrowLeft.mouseout"/>
                  </use>
                  <path fill="none" stroke="white" stroke-width="1.5" d="M0,-3.0v7 M-2.5,-0.5L0,-3.0L2.5,-0.5"/>
                </g>
        </g>
        <svg viewBox="0 0 15 15" width="100%" height="30px" preserveAspectRatio="xMaxYMin meet">
         <g id="arrow_out" transform="scale(0.3 0.3)">
          <a xlink:href="class_translator_adapter__1__9__5__inherit__graph_org.svg" target="_base">
           <rect id="button" ry="5" rx="5" y="6" x="6" height="38" width="38"
                fill="#f2f5e9" fill-opacity="0.5" stroke="#606060" stroke-width="1.0"/>
           <path id="arrow"
             d="M 11.500037,31.436501 C 11.940474,20.09759 22.043105,11.32322 32.158766,21.979434 L 37.068811,17.246167 C 37.068811,17.246167 37.088388,32 37.088388,32 L 22.160133,31.978069 C 22.160133,31.978069 26.997745,27.140456 26.997745,27.140456 C 18.528582,18.264221 13.291696,25.230495 11.500037,31.436501 z"
             style="fill:#404040;"/>
          </a>
         </g>
        </svg>
</svg>
