<?xml version="1.0" encoding="UTF-8" standalone="no"?>
<!DOCTYPE svg PUBLIC "-//W3C//DTD SVG 1.1//EN"
 "http://www.w3.org/Graphics/SVG/1.1/DTD/svg11.dtd">
<!-- Generated by graphviz version 2.43.0 (0)
 -->
<!-- Title: /home/runner/work/doxygen/doxygen/src/portable.h Pages: 1 -->
<svg width="4810pt" height="104pt"
 viewBox="0.00 0.00 4810.00 104.00" xmlns="http://www.w3.org/2000/svg" xmlns:xlink="http://www.w3.org/1999/xlink">
<g id="graph0" class="graph" transform="scale(1 1) rotate(0) translate(4 100)">
<title>/home/runner/work/doxygen/doxygen/src/portable.h</title>
<!-- Node1 -->
<g id="node1" class="node">
<title>Node1</title>
<g id="a_node1"><a xlink:title="Portable versions of functions that are platform dependent.">
<polygon fill="#999999" stroke="#666666" points="2476,-96 2322,-96 2322,-66 2476,-66 2476,-96"/>
<text text-anchor="start" x="2330" y="-84" font-family="Helvetica,sans-Serif" font-size="10.00">/home/runner/work/doxygen</text>
<text text-anchor="middle" x="2399" y="-73" font-family="Helvetica,sans-Serif" font-size="10.00">/doxygen/src/portable.h</text>
</a>
</g>
</g>
<!-- Node2 -->
<g id="node2" class="node">
<title>Node2</title>
<g id="a_node2"><a xlink:href="../../d5/d0b/cite_8cpp.html" target="_top" xlink:title=" ">
<polygon fill="white" stroke="#666666" points="154,-30 0,-30 0,0 154,0 154,-30"/>
<text text-anchor="start" x="8" y="-18" font-family="Helvetica,sans-Serif" font-size="10.00">/home/runner/work/doxygen</text>
<text text-anchor="middle" x="77" y="-7" font-family="Helvetica,sans-Serif" font-size="10.00">/doxygen/src/cite.cpp</text>
</a>
</g>
</g>
<!-- Node1&#45;&gt;Node2 -->
<g id="edge1" class="edge">
<title>Node1&#45;&gt;Node2</title>
<path fill="none" stroke="#63b8ff" d="M2311.73,-79.67C1953.07,-78.07 591.33,-69.46 163,-30 160.14,-29.74 157.23,-29.43 154.29,-29.1"/>
<polygon fill="#63b8ff" stroke="#63b8ff" points="2311.78,-83.17 2321.79,-79.72 2311.81,-76.17 2311.78,-83.17"/>
</g>
<!-- Node3 -->
<g id="node3" class="node">
<title>Node3</title>
<g id="a_node3"><a xlink:href="../../d9/de3/configimpl_8l.html" target="_top" xlink:title=" ">
<polygon fill="white" stroke="#666666" points="326,-30 172,-30 172,0 326,0 326,-30"/>
<text text-anchor="start" x="180" y="-18" font-family="Helvetica,sans-Serif" font-size="10.00">/home/runner/work/doxygen</text>
<text text-anchor="middle" x="249" y="-7" font-family="Helvetica,sans-Serif" font-size="10.00">/doxygen/src/configimpl.l</text>
</a>
</g>
</g>
<!-- Node1&#45;&gt;Node3 -->
<g id="edge2" class="edge">
<title>Node1&#45;&gt;Node3</title>
<path fill="none" stroke="#63b8ff" d="M2311.73,-79.48C1970.72,-77.21 727.74,-66.55 335,-30 332.14,-29.73 329.23,-29.43 326.29,-29.1"/>
<polygon fill="#63b8ff" stroke="#63b8ff" points="2311.77,-82.98 2321.79,-79.55 2311.82,-75.98 2311.77,-82.98"/>
</g>
<!-- Node4 -->
<g id="node4" class="node">
<title>Node4</title>
<g id="a_node4"><a xlink:href="../../db/d12/context_8cpp.html" target="_top" xlink:title=" ">
<polygon fill="white" stroke="#666666" points="498,-30 344,-30 344,0 498,0 498,-30"/>
<text text-anchor="start" x="352" y="-18" font-family="Helvetica,sans-Serif" font-size="10.00">/home/runner/work/doxygen</text>
<text text-anchor="middle" x="421" y="-7" font-family="Helvetica,sans-Serif" font-size="10.00">/doxygen/src/context.cpp</text>
</a>
</g>
</g>
<!-- Node1&#45;&gt;Node4 -->
<g id="edge3" class="edge">
<title>Node1&#45;&gt;Node4</title>
<path fill="none" stroke="#63b8ff" d="M2311.57,-79.26C1988.76,-76.27 864.2,-63.64 507,-30 504.14,-29.73 501.23,-29.42 498.29,-29.09"/>
<polygon fill="#63b8ff" stroke="#63b8ff" points="2311.77,-82.76 2321.8,-79.35 2311.83,-75.76 2311.77,-82.76"/>
</g>
<!-- Node5 -->
<g id="node5" class="node">
<title>Node5</title>
<g id="a_node5"><a xlink:href="../../d7/d14/datetime_8cpp.html" target="_top" xlink:title=" ">
<polygon fill="white" stroke="#666666" points="670,-30 516,-30 516,0 670,0 670,-30"/>
<text text-anchor="start" x="524" y="-18" font-family="Helvetica,sans-Serif" font-size="10.00">/home/runner/work/doxygen</text>
<text text-anchor="middle" x="593" y="-7" font-family="Helvetica,sans-Serif" font-size="10.00">/doxygen/src/datetime.cpp</text>
</a>
</g>
</g>
<!-- Node1&#45;&gt;Node5 -->
<g id="edge4" class="edge">
<title>Node1&#45;&gt;Node5</title>
<path fill="none" stroke="#63b8ff" d="M2311.43,-78.99C2007.74,-75.24 1000.79,-60.73 679,-30 676.14,-29.73 673.23,-29.42 670.29,-29.08"/>
<polygon fill="#63b8ff" stroke="#63b8ff" points="2311.46,-82.49 2321.51,-79.11 2311.55,-75.49 2311.46,-82.49"/>
</g>
<!-- Node6 -->
<g id="node6" class="node">
<title>Node6</title>
<g id="a_node6"><a xlink:href="../../d3/dea/definition_8cpp.html" target="_top" xlink:title=" ">
<polygon fill="white" stroke="#666666" points="842,-30 688,-30 688,0 842,0 842,-30"/>
<text text-anchor="start" x="696" y="-18" font-family="Helvetica,sans-Serif" font-size="10.00">/home/runner/work/doxygen</text>
<text text-anchor="middle" x="765" y="-7" font-family="Helvetica,sans-Serif" font-size="10.00">/doxygen/src/definition.cpp</text>
</a>
</g>
</g>
<!-- Node1&#45;&gt;Node6 -->
<g id="edge5" class="edge">
<title>Node1&#45;&gt;Node6</title>
<path fill="none" stroke="#63b8ff" d="M2311.7,-78.66C2028.59,-74.1 1137.67,-57.85 851,-30 848.14,-29.72 845.23,-29.41 842.29,-29.07"/>
<polygon fill="#63b8ff" stroke="#63b8ff" points="2311.86,-82.17 2321.92,-78.83 2311.97,-75.17 2311.86,-82.17"/>
</g>
<!-- Node7 -->
<g id="node7" class="node">
<title>Node7</title>
<g id="a_node7"><a xlink:href="../../d1/df5/dia_8cpp.html" target="_top" xlink:title=" ">
<polygon fill="white" stroke="#666666" points="1014,-30 860,-30 860,0 1014,0 1014,-30"/>
<text text-anchor="start" x="868" y="-18" font-family="Helvetica,sans-Serif" font-size="10.00">/home/runner/work/doxygen</text>
<text text-anchor="middle" x="937" y="-7" font-family="Helvetica,sans-Serif" font-size="10.00">/doxygen/src/dia.cpp</text>
</a>
</g>
</g>
<!-- Node1&#45;&gt;Node7 -->
<g id="edge6" class="edge">
<title>Node1&#45;&gt;Node7</title>
<path fill="none" stroke="#63b8ff" d="M2311.85,-80.61C2093.98,-81.3 1508.3,-78.13 1023,-30 1020.14,-29.72 1017.23,-29.4 1014.3,-29.05"/>
<polygon fill="#63b8ff" stroke="#63b8ff" points="2311.96,-84.11 2321.94,-80.57 2311.93,-77.11 2311.96,-84.11"/>
</g>
<!-- Node8 -->
<g id="node8" class="node">
<title>Node8</title>
<g id="a_node8"><a xlink:href="../../da/d0d/diagram_8cpp.html" target="_top" xlink:title=" ">
<polygon fill="white" stroke="#666666" points="1186,-30 1032,-30 1032,0 1186,0 1186,-30"/>
<text text-anchor="start" x="1040" y="-18" font-family="Helvetica,sans-Serif" font-size="10.00">/home/runner/work/doxygen</text>
<text text-anchor="middle" x="1109" y="-7" font-family="Helvetica,sans-Serif" font-size="10.00">/doxygen/src/diagram.cpp</text>
</a>
</g>
</g>
<!-- Node1&#45;&gt;Node8 -->
<g id="edge7" class="edge">
<title>Node1&#45;&gt;Node8</title>
<path fill="none" stroke="#63b8ff" d="M2311.56,-79.95C2112.71,-79.06 1611.57,-72.4 1195,-30 1192.14,-29.71 1189.23,-29.38 1186.3,-29.03"/>
<polygon fill="#63b8ff" stroke="#63b8ff" points="2311.64,-83.45 2321.65,-79.99 2311.67,-76.45 2311.64,-83.45"/>
</g>
<!-- Node9 -->
<g id="node9" class="node">
<title>Node9</title>
<g id="a_node9"><a xlink:href="../../da/d17/docparser_8cpp.html" target="_top" xlink:title=" ">
<polygon fill="white" stroke="#666666" points="1358,-30 1204,-30 1204,0 1358,0 1358,-30"/>
<text text-anchor="start" x="1212" y="-18" font-family="Helvetica,sans-Serif" font-size="10.00">/home/runner/work/doxygen</text>
<text text-anchor="middle" x="1281" y="-7" font-family="Helvetica,sans-Serif" font-size="10.00">/doxygen/src/docparser.cpp</text>
</a>
</g>
</g>
<!-- Node1&#45;&gt;Node9 -->
<g id="edge8" class="edge">
<title>Node1&#45;&gt;Node9</title>
<path fill="none" stroke="#63b8ff" d="M2311.64,-79.09C2133.51,-76.51 1715.68,-66.71 1367,-30 1364.14,-29.7 1361.23,-29.37 1358.3,-29.01"/>
<polygon fill="#63b8ff" stroke="#63b8ff" points="2311.69,-82.59 2321.74,-79.23 2311.79,-75.59 2311.69,-82.59"/>
</g>
<!-- Node10 -->
<g id="node10" class="node">
<title>Node10</title>
<g id="a_node10"><a xlink:href="../../d1/d39/doctokenizer_8l.html" target="_top" xlink:title=" ">
<polygon fill="white" stroke="#666666" points="1530,-30 1376,-30 1376,0 1530,0 1530,-30"/>
<text text-anchor="start" x="1384" y="-18" font-family="Helvetica,sans-Serif" font-size="10.00">/home/runner/work/doxygen</text>
<text text-anchor="middle" x="1453" y="-7" font-family="Helvetica,sans-Serif" font-size="10.00">/doxygen/src/doctokenizer.l</text>
</a>
</g>
</g>
<!-- Node1&#45;&gt;Node10 -->
<g id="edge9" class="edge">
<title>Node1&#45;&gt;Node10</title>
<path fill="none" stroke="#63b8ff" d="M2311.53,-77.9C2155.8,-73.49 1820.37,-61 1539,-30 1536.14,-29.69 1533.24,-29.34 1530.3,-28.97"/>
<polygon fill="#63b8ff" stroke="#63b8ff" points="2311.88,-81.41 2321.98,-78.19 2312.08,-74.41 2311.88,-81.41"/>
</g>
<!-- Node11 -->
<g id="node11" class="node">
<title>Node11</title>
<g id="a_node11"><a xlink:href="../../de/daa/dot_8cpp.html" target="_top" xlink:title=" ">
<polygon fill="white" stroke="#666666" points="1702,-30 1548,-30 1548,0 1702,0 1702,-30"/>
<text text-anchor="start" x="1556" y="-18" font-family="Helvetica,sans-Serif" font-size="10.00">/home/runner/work/doxygen</text>
<text text-anchor="middle" x="1625" y="-7" font-family="Helvetica,sans-Serif" font-size="10.00">/doxygen/src/dot.cpp</text>
</a>
</g>
</g>
<!-- Node1&#45;&gt;Node11 -->
<g id="edge10" class="edge">
<title>Node1&#45;&gt;Node11</title>
<path fill="none" stroke="#63b8ff" d="M2311.56,-76.14C2180.65,-69.79 1926.11,-55.27 1711,-30 1708.15,-29.66 1705.24,-29.3 1702.31,-28.92"/>
<polygon fill="#63b8ff" stroke="#63b8ff" points="2311.76,-79.65 2321.92,-76.64 2312.1,-72.66 2311.76,-79.65"/>
</g>
<!-- Node12 -->
<g id="node12" class="node">
<title>Node12</title>
<g id="a_node12"><a xlink:href="../../d1/dfe/dotrunner_8cpp.html" target="_top" xlink:title=" ">
<polygon fill="white" stroke="#666666" points="1874,-30 1720,-30 1720,0 1874,0 1874,-30"/>
<text text-anchor="start" x="1728" y="-18" font-family="Helvetica,sans-Serif" font-size="10.00">/home/runner/work/doxygen</text>
<text text-anchor="middle" x="1797" y="-7" font-family="Helvetica,sans-Serif" font-size="10.00">/doxygen/src/dotrunner.cpp</text>
</a>
</g>
</g>
<!-- Node1&#45;&gt;Node12 -->
<g id="edge11" class="edge">
<title>Node1&#45;&gt;Node12</title>
<path fill="none" stroke="#63b8ff" d="M2311.88,-73.29C2209.13,-64.98 2033.3,-49.49 1883,-30 1880.15,-29.63 1877.25,-29.24 1874.32,-28.83"/>
<polygon fill="#63b8ff" stroke="#63b8ff" points="2311.64,-76.78 2321.89,-74.1 2312.21,-69.81 2311.64,-76.78"/>
</g>
<!-- Node13 -->
<g id="node13" class="node">
<title>Node13</title>
<g id="a_node13"><a xlink:href="../../dc/d98/doxygen_8cpp.html" target="_top" xlink:title=" ">
<polygon fill="white" stroke="#666666" points="2046,-30 1892,-30 1892,0 2046,0 2046,-30"/>
<text text-anchor="start" x="1900" y="-18" font-family="Helvetica,sans-Serif" font-size="10.00">/home/runner/work/doxygen</text>
<text text-anchor="middle" x="1969" y="-7" font-family="Helvetica,sans-Serif" font-size="10.00">/doxygen/src/doxygen.cpp</text>
</a>
</g>
</g>
<!-- Node1&#45;&gt;Node13 -->
<g id="edge12" class="edge">
<title>Node1&#45;&gt;Node13</title>
<path fill="none" stroke="#63b8ff" d="M2311.71,-67.73C2242.14,-57.85 2142.27,-43.44 2055,-30 2052.16,-29.56 2049.27,-29.11 2046.35,-28.65"/>
<polygon fill="#63b8ff" stroke="#63b8ff" points="2311.36,-71.22 2321.75,-69.16 2312.34,-64.29 2311.36,-71.22"/>
</g>
<!-- Node14 -->
<g id="node14" class="node">
<title>Node14</title>
<g id="a_node14"><a xlink:href="../../d6/ddc/filedef_8cpp.html" target="_top" xlink:title=" ">
<polygon fill="white" stroke="#666666" points="2218,-30 2064,-30 2064,0 2218,0 2218,-30"/>
<text text-anchor="start" x="2072" y="-18" font-family="Helvetica,sans-Serif" font-size="10.00">/home/runner/work/doxygen</text>
<text text-anchor="middle" x="2141" y="-7" font-family="Helvetica,sans-Serif" font-size="10.00">/doxygen/src/filedef.cpp</text>
</a>
</g>
</g>
<!-- Node1&#45;&gt;Node14 -->
<g id="edge13" class="edge">
<title>Node1&#45;&gt;Node14</title>
<path fill="none" stroke="#63b8ff" d="M2332.55,-63.52C2290.71,-53.14 2237.28,-39.88 2197.49,-30.01"/>
<polygon fill="#63b8ff" stroke="#63b8ff" points="2331.83,-66.94 2342.38,-65.95 2333.52,-60.15 2331.83,-66.94"/>
</g>
<!-- Node15 -->
<g id="node15" class="node">
<title>Node15</title>
<g id="a_node15"><a xlink:href="../../d7/d5b/formula_8cpp.html" target="_top" xlink:title=" ">
<polygon fill="white" stroke="#666666" points="2390,-30 2236,-30 2236,0 2390,0 2390,-30"/>
<text text-anchor="start" x="2244" y="-18" font-family="Helvetica,sans-Serif" font-size="10.00">/home/runner/work/doxygen</text>
<text text-anchor="middle" x="2313" y="-7" font-family="Helvetica,sans-Serif" font-size="10.00">/doxygen/src/formula.cpp</text>
</a>
</g>
</g>
<!-- Node1&#45;&gt;Node15 -->
<g id="edge14" class="edge">
<title>Node1&#45;&gt;Node15</title>
<path fill="none" stroke="#63b8ff" d="M2371.79,-59.75C2358.86,-50.13 2343.71,-38.86 2332.03,-30.16"/>
<polygon fill="#63b8ff" stroke="#63b8ff" points="2369.8,-62.63 2379.91,-65.8 2373.98,-57.02 2369.8,-62.63"/>
</g>
<!-- Node16 -->
<g id="node16" class="node">
<title>Node16</title>
<g id="a_node16"><a xlink:href="../../d9/db7/htags_8cpp.html" target="_top" xlink:title=" ">
<polygon fill="white" stroke="#666666" points="2562,-30 2408,-30 2408,0 2562,0 2562,-30"/>
<text text-anchor="start" x="2416" y="-18" font-family="Helvetica,sans-Serif" font-size="10.00">/home/runner/work/doxygen</text>
<text text-anchor="middle" x="2485" y="-7" font-family="Helvetica,sans-Serif" font-size="10.00">/doxygen/src/htags.cpp</text>
</a>
</g>
</g>
<!-- Node1&#45;&gt;Node16 -->
<g id="edge15" class="edge">
<title>Node1&#45;&gt;Node16</title>
<path fill="none" stroke="#63b8ff" d="M2426.21,-59.75C2439.14,-50.13 2454.29,-38.86 2465.97,-30.16"/>
<polygon fill="#63b8ff" stroke="#63b8ff" points="2424.02,-57.02 2418.09,-65.8 2428.2,-62.63 2424.02,-57.02"/>
</g>
<!-- Node17 -->
<g id="node17" class="node">
<title>Node17</title>
<g id="a_node17"><a xlink:href="../../d3/d4b/htmlhelp_8cpp.html" target="_top" xlink:title=" ">
<polygon fill="white" stroke="#666666" points="2734,-30 2580,-30 2580,0 2734,0 2734,-30"/>
<text text-anchor="start" x="2588" y="-18" font-family="Helvetica,sans-Serif" font-size="10.00">/home/runner/work/doxygen</text>
<text text-anchor="middle" x="2657" y="-7" font-family="Helvetica,sans-Serif" font-size="10.00">/doxygen/src/htmlhelp.cpp</text>
</a>
</g>
</g>
<!-- Node1&#45;&gt;Node17 -->
<g id="edge16" class="edge">
<title>Node1&#45;&gt;Node17</title>
<path fill="none" stroke="#63b8ff" d="M2465.45,-63.52C2507.29,-53.14 2560.72,-39.88 2600.51,-30.01"/>
<polygon fill="#63b8ff" stroke="#63b8ff" points="2464.48,-60.15 2455.62,-65.95 2466.17,-66.94 2464.48,-60.15"/>
</g>
<!-- Node18 -->
<g id="node18" class="node">
<title>Node18</title>
<g id="a_node18"><a xlink:href="../../d4/d42/latexgen_8cpp.html" target="_top" xlink:title=" ">
<polygon fill="white" stroke="#666666" points="2906,-30 2752,-30 2752,0 2906,0 2906,-30"/>
<text text-anchor="start" x="2760" y="-18" font-family="Helvetica,sans-Serif" font-size="10.00">/home/runner/work/doxygen</text>
<text text-anchor="middle" x="2829" y="-7" font-family="Helvetica,sans-Serif" font-size="10.00">/doxygen/src/latexgen.cpp</text>
</a>
</g>
</g>
<!-- Node1&#45;&gt;Node18 -->
<g id="edge17" class="edge">
<title>Node1&#45;&gt;Node18</title>
<path fill="none" stroke="#63b8ff" d="M2486.29,-67.73C2555.86,-57.85 2655.73,-43.44 2743,-30 2745.84,-29.56 2748.73,-29.11 2751.65,-28.65"/>
<polygon fill="#63b8ff" stroke="#63b8ff" points="2485.66,-64.29 2476.25,-69.16 2486.64,-71.22 2485.66,-64.29"/>
</g>
<!-- Node19 -->
<g id="node19" class="node">
<title>Node19</title>
<g id="a_node19"><a xlink:href="../../de/d04/markdown_8cpp.html" target="_top" xlink:title=" ">
<polygon fill="white" stroke="#666666" points="3078,-30 2924,-30 2924,0 3078,0 3078,-30"/>
<text text-anchor="start" x="2932" y="-18" font-family="Helvetica,sans-Serif" font-size="10.00">/home/runner/work/doxygen</text>
<text text-anchor="middle" x="3001" y="-7" font-family="Helvetica,sans-Serif" font-size="10.00">/doxygen/src/markdown.cpp</text>
</a>
</g>
</g>
<!-- Node1&#45;&gt;Node19 -->
<g id="edge18" class="edge">
<title>Node1&#45;&gt;Node19</title>
<path fill="none" stroke="#63b8ff" d="M2486.12,-73.29C2588.87,-64.98 2764.7,-49.49 2915,-30 2917.85,-29.63 2920.75,-29.24 2923.68,-28.83"/>
<polygon fill="#63b8ff" stroke="#63b8ff" points="2485.79,-69.81 2476.11,-74.1 2486.36,-76.78 2485.79,-69.81"/>
</g>
<!-- Node20 -->
<g id="node20" class="node">
<title>Node20</title>
<g id="a_node20"><a xlink:href="../../d8/d6a/message_8cpp.html" target="_top" xlink:title=" ">
<polygon fill="white" stroke="#666666" points="3250,-30 3096,-30 3096,0 3250,0 3250,-30"/>
<text text-anchor="start" x="3104" y="-18" font-family="Helvetica,sans-Serif" font-size="10.00">/home/runner/work/doxygen</text>
<text text-anchor="middle" x="3173" y="-7" font-family="Helvetica,sans-Serif" font-size="10.00">/doxygen/src/message.cpp</text>
</a>
</g>
</g>
<!-- Node1&#45;&gt;Node20 -->
<g id="edge19" class="edge">
<title>Node1&#45;&gt;Node20</title>
<path fill="none" stroke="#63b8ff" d="M2486.44,-76.14C2617.35,-69.79 2871.89,-55.27 3087,-30 3089.85,-29.66 3092.76,-29.3 3095.69,-28.92"/>
<polygon fill="#63b8ff" stroke="#63b8ff" points="2485.9,-72.66 2476.08,-76.64 2486.24,-79.65 2485.9,-72.66"/>
</g>
<!-- Node21 -->
<g id="node21" class="node">
<title>Node21</title>
<g id="a_node21"><a xlink:href="../../db/d33/msc_8cpp.html" target="_top" xlink:title=" ">
<polygon fill="white" stroke="#666666" points="3422,-30 3268,-30 3268,0 3422,0 3422,-30"/>
<text text-anchor="start" x="3276" y="-18" font-family="Helvetica,sans-Serif" font-size="10.00">/home/runner/work/doxygen</text>
<text text-anchor="middle" x="3345" y="-7" font-family="Helvetica,sans-Serif" font-size="10.00">/doxygen/src/msc.cpp</text>
</a>
</g>
</g>
<!-- Node1&#45;&gt;Node21 -->
<g id="edge20" class="edge">
<title>Node1&#45;&gt;Node21</title>
<path fill="none" stroke="#63b8ff" d="M2486.47,-77.9C2642.2,-73.49 2977.63,-61 3259,-30 3261.86,-29.69 3264.76,-29.34 3267.7,-28.97"/>
<polygon fill="#63b8ff" stroke="#63b8ff" points="2485.92,-74.41 2476.02,-78.19 2486.12,-81.41 2485.92,-74.41"/>
</g>
<!-- Node22 -->
<g id="node22" class="node">
<title>Node22</title>
<g id="a_node22"><a xlink:href="../../d0/d17/outputgen_8cpp.html" target="_top" xlink:title=" ">
<polygon fill="white" stroke="#666666" points="3594,-30 3440,-30 3440,0 3594,0 3594,-30"/>
<text text-anchor="start" x="3448" y="-18" font-family="Helvetica,sans-Serif" font-size="10.00">/home/runner/work/doxygen</text>
<text text-anchor="middle" x="3517" y="-7" font-family="Helvetica,sans-Serif" font-size="10.00">/doxygen/src/outputgen.cpp</text>
</a>
</g>
</g>
<!-- Node1&#45;&gt;Node22 -->
<g id="edge21" class="edge">
<title>Node1&#45;&gt;Node22</title>
<path fill="none" stroke="#63b8ff" d="M2486.36,-79.09C2664.49,-76.51 3082.32,-66.71 3431,-30 3433.86,-29.7 3436.77,-29.37 3439.7,-29.01"/>
<polygon fill="#63b8ff" stroke="#63b8ff" points="2486.21,-75.59 2476.26,-79.23 2486.31,-82.59 2486.21,-75.59"/>
</g>
<!-- Node23 -->
<g id="node23" class="node">
<title>Node23</title>
<g id="a_node23"><a xlink:href="../../d7/d5b/plantuml_8cpp.html" target="_top" xlink:title=" ">
<polygon fill="white" stroke="#666666" points="3766,-30 3612,-30 3612,0 3766,0 3766,-30"/>
<text text-anchor="start" x="3620" y="-18" font-family="Helvetica,sans-Serif" font-size="10.00">/home/runner/work/doxygen</text>
<text text-anchor="middle" x="3689" y="-7" font-family="Helvetica,sans-Serif" font-size="10.00">/doxygen/src/plantuml.cpp</text>
</a>
</g>
</g>
<!-- Node1&#45;&gt;Node23 -->
<g id="edge22" class="edge">
<title>Node1&#45;&gt;Node23</title>
<path fill="none" stroke="#63b8ff" d="M2486.44,-79.95C2685.29,-79.06 3186.43,-72.4 3603,-30 3605.86,-29.71 3608.77,-29.38 3611.7,-29.03"/>
<polygon fill="#63b8ff" stroke="#63b8ff" points="2486.33,-76.45 2476.35,-79.99 2486.36,-83.45 2486.33,-76.45"/>
</g>
<!-- Node24 -->
<g id="node24" class="node">
<title>Node24</title>
<g id="a_node24"><a xlink:href="../../d0/d1c/portable_8cpp.html" target="_top" xlink:title=" ">
<polygon fill="white" stroke="#666666" points="3938,-30 3784,-30 3784,0 3938,0 3938,-30"/>
<text text-anchor="start" x="3792" y="-18" font-family="Helvetica,sans-Serif" font-size="10.00">/home/runner/work/doxygen</text>
<text text-anchor="middle" x="3861" y="-7" font-family="Helvetica,sans-Serif" font-size="10.00">/doxygen/src/portable.cpp</text>
</a>
</g>
</g>
<!-- Node1&#45;&gt;Node24 -->
<g id="edge23" class="edge">
<title>Node1&#45;&gt;Node24</title>
<path fill="none" stroke="#63b8ff" d="M2486.15,-80.61C2704.02,-81.3 3289.7,-78.13 3775,-30 3777.86,-29.72 3780.77,-29.4 3783.7,-29.05"/>
<polygon fill="#63b8ff" stroke="#63b8ff" points="2486.07,-77.11 2476.06,-80.57 2486.04,-84.11 2486.07,-77.11"/>
</g>
<!-- Node25 -->
<g id="node25" class="node">
<title>Node25</title>
<g id="a_node25"><a xlink:href="../../d0/da7/pre_8l.html" target="_top" xlink:title=" ">
<polygon fill="white" stroke="#666666" points="4110,-30 3956,-30 3956,0 4110,0 4110,-30"/>
<text text-anchor="start" x="3964" y="-18" font-family="Helvetica,sans-Serif" font-size="10.00">/home/runner/work/doxygen</text>
<text text-anchor="middle" x="4033" y="-7" font-family="Helvetica,sans-Serif" font-size="10.00">/doxygen/src/pre.l</text>
</a>
</g>
</g>
<!-- Node1&#45;&gt;Node25 -->
<g id="edge24" class="edge">
<title>Node1&#45;&gt;Node25</title>
<path fill="none" stroke="#63b8ff" d="M2486.3,-78.66C2769.41,-74.1 3660.33,-57.85 3947,-30 3949.86,-29.72 3952.77,-29.41 3955.71,-29.07"/>
<polygon fill="#63b8ff" stroke="#63b8ff" points="2486.03,-75.17 2476.08,-78.83 2486.14,-82.17 2486.03,-75.17"/>
</g>
<!-- Node26 -->
<g id="node26" class="node">
<title>Node26</title>
<g id="a_node26"><a xlink:href="../../d0/d9c/rtfgen_8cpp.html" target="_top" xlink:title=" ">
<polygon fill="white" stroke="#666666" points="4282,-30 4128,-30 4128,0 4282,0 4282,-30"/>
<text text-anchor="start" x="4136" y="-18" font-family="Helvetica,sans-Serif" font-size="10.00">/home/runner/work/doxygen</text>
<text text-anchor="middle" x="4205" y="-7" font-family="Helvetica,sans-Serif" font-size="10.00">/doxygen/src/rtfgen.cpp</text>
</a>
</g>
</g>
<!-- Node1&#45;&gt;Node26 -->
<g id="edge25" class="edge">
<title>Node1&#45;&gt;Node26</title>
<path fill="none" stroke="#63b8ff" d="M2486.57,-78.99C2790.26,-75.24 3797.21,-60.73 4119,-30 4121.86,-29.73 4124.77,-29.42 4127.71,-29.08"/>
<polygon fill="#63b8ff" stroke="#63b8ff" points="2486.45,-75.49 2476.49,-79.11 2486.54,-82.49 2486.45,-75.49"/>
</g>
<!-- Node27 -->
<g id="node27" class="node">
<title>Node27</title>
<g id="a_node27"><a xlink:href="../../df/d54/template_8cpp.html" target="_top" xlink:title=" ">
<polygon fill="white" stroke="#666666" points="4454,-30 4300,-30 4300,0 4454,0 4454,-30"/>
<text text-anchor="start" x="4308" y="-18" font-family="Helvetica,sans-Serif" font-size="10.00">/home/runner/work/doxygen</text>
<text text-anchor="middle" x="4377" y="-7" font-family="Helvetica,sans-Serif" font-size="10.00">/doxygen/src/template.cpp</text>
</a>
</g>
</g>
<!-- Node1&#45;&gt;Node27 -->
<g id="edge26" class="edge">
<title>Node1&#45;&gt;Node27</title>
<path fill="none" stroke="#63b8ff" d="M2486.43,-79.26C2809.24,-76.27 3933.8,-63.64 4291,-30 4293.86,-29.73 4296.77,-29.42 4299.71,-29.09"/>
<polygon fill="#63b8ff" stroke="#63b8ff" points="2486.17,-75.76 2476.2,-79.35 2486.23,-82.76 2486.17,-75.76"/>
</g>
<!-- Node28 -->
<g id="node28" class="node">
<title>Node28</title>
<g id="a_node28"><a xlink:href="../../df/d2d/util_8cpp.html" target="_top" xlink:title=" ">
<polygon fill="white" stroke="#666666" points="4626,-30 4472,-30 4472,0 4626,0 4626,-30"/>
<text text-anchor="start" x="4480" y="-18" font-family="Helvetica,sans-Serif" font-size="10.00">/home/runner/work/doxygen</text>
<text text-anchor="middle" x="4549" y="-7" font-family="Helvetica,sans-Serif" font-size="10.00">/doxygen/src/util.cpp</text>
</a>
</g>
</g>
<!-- Node1&#45;&gt;Node28 -->
<g id="edge27" class="edge">
<title>Node1&#45;&gt;Node28</title>
<path fill="none" stroke="#63b8ff" d="M2486.27,-79.48C2827.28,-77.21 4070.26,-66.55 4463,-30 4465.86,-29.73 4468.77,-29.43 4471.71,-29.1"/>
<polygon fill="#63b8ff" stroke="#63b8ff" points="2486.18,-75.98 2476.21,-79.55 2486.23,-82.98 2486.18,-75.98"/>
</g>
<!-- Node29 -->
<g id="node29" class="node">
<title>Node29</title>
<g id="a_node29"><a xlink:href="../../de/dea/vhdldocgen_8cpp.html" target="_top" xlink:title=" ">
<polygon fill="white" stroke="#666666" points="4802,-30 4644,-30 4644,0 4802,0 4802,-30"/>
<text text-anchor="start" x="4652" y="-18" font-family="Helvetica,sans-Serif" font-size="10.00">/home/runner/work/doxygen</text>
<text text-anchor="middle" x="4723" y="-7" font-family="Helvetica,sans-Serif" font-size="10.00">/doxygen/src/vhdldocgen.cpp</text>
</a>
</g>
</g>
<!-- Node1&#45;&gt;Node29 -->
<g id="edge28" class="edge">
<title>Node1&#45;&gt;Node29</title>
<path fill="none" stroke="#63b8ff" d="M2486.27,-79.63C2844.92,-77.86 4206.6,-68.69 4635,-30 4637.93,-29.74 4640.9,-29.43 4643.91,-29.1"/>
<polygon fill="#63b8ff" stroke="#63b8ff" points="2486.19,-76.13 2476.2,-79.68 2486.22,-83.13 2486.19,-76.13"/>
</g>
</g>
</svg>
