<?xml version="1.0" encoding="UTF-8" standalone="no"?>
<!DOCTYPE svg PUBLIC "-//W3C//DTD SVG 1.1//EN"
 "http://www.w3.org/Graphics/SVG/1.1/DTD/svg11.dtd">
<!-- Generated by graphviz version 2.43.0 (0)
 -->
<!-- Title: /home/runner/work/doxygen/doxygen/src/xmldocvisitor.h Pages: 1 -->
<svg width="1125pt" height="313pt"
 viewBox="0.00 0.00 1124.50 313.00" xmlns="http://www.w3.org/2000/svg" xmlns:xlink="http://www.w3.org/1999/xlink">
<g id="graph0" class="graph" transform="scale(1 1) rotate(0) translate(4 309)">
<title>/home/runner/work/doxygen/doxygen/src/xmldocvisitor.h</title>
<!-- Node1 -->
<g id="node1" class="node">
<title>Node1</title>
<g id="a_node1"><a xlink:title=" ">
<polygon fill="#999999" stroke="#666666" points="778,-305 621,-305 621,-275 778,-275 778,-305"/>
<text text-anchor="start" x="629" y="-293" font-family="Helvetica,sans-Serif" font-size="10.00">/home/runner/work/doxygen</text>
<text text-anchor="middle" x="699.5" y="-282" font-family="Helvetica,sans-Serif" font-size="10.00">/doxygen/src/xmldocvisitor.h</text>
</a>
</g>
</g>
<!-- Node2 -->
<g id="node2" class="node">
<title>Node2</title>
<g id="a_node2"><a xlink:title=" ">
<polygon fill="#e0e0e0" stroke="#999999" points="767.5,-129 707.5,-129 707.5,-110 767.5,-110 767.5,-129"/>
<text text-anchor="middle" x="737.5" y="-117" font-family="Helvetica,sans-Serif" font-size="10.00">iostream</text>
</a>
</g>
</g>
<!-- Node1&#45;&gt;Node2 -->
<g id="edge1" class="edge">
<title>Node1&#45;&gt;Node2</title>
<path fill="none" stroke="#63b8ff" d="M703.82,-274.63C706.75,-264.68 710.59,-251.09 713.5,-239 721.95,-203.93 729.87,-162.53 734.17,-139.12"/>
<polygon fill="#63b8ff" stroke="#63b8ff" points="737.63,-139.64 735.97,-129.17 730.74,-138.39 737.63,-139.64"/>
</g>
<!-- Node3 -->
<g id="node3" class="node">
<title>Node3</title>
<g id="a_node3"><a xlink:href="../../d7/d5c/qcstring_8h.html" target="_top" xlink:title=" ">
<polygon fill="white" stroke="#666666" points="667,-129 602,-129 602,-110 667,-110 667,-129"/>
<text text-anchor="middle" x="634.5" y="-117" font-family="Helvetica,sans-Serif" font-size="10.00">qcstring.h</text>
</a>
</g>
</g>
<!-- Node1&#45;&gt;Node3 -->
<g id="edge2" class="edge">
<title>Node1&#45;&gt;Node3</title>
<path fill="none" stroke="#63b8ff" d="M699.99,-274.73C700.23,-250.71 698.17,-201.25 679.5,-165 673.65,-153.63 663.82,-143.4 654.83,-135.63"/>
<polygon fill="#63b8ff" stroke="#63b8ff" points="656.92,-132.82 646.96,-129.21 652.5,-138.24 656.92,-132.82"/>
</g>
<!-- Node13 -->
<g id="node13" class="node">
<title>Node13</title>
<g id="a_node13"><a xlink:href="../../d2/d3c/docvisitor_8h.html" target="_top" xlink:title=" ">
<polygon fill="white" stroke="#666666" points="671,-184 598,-184 598,-165 671,-165 671,-184"/>
<text text-anchor="middle" x="634.5" y="-172" font-family="Helvetica,sans-Serif" font-size="10.00">docvisitor.h</text>
</a>
</g>
</g>
<!-- Node1&#45;&gt;Node13 -->
<g id="edge14" class="edge">
<title>Node1&#45;&gt;Node13</title>
<path fill="none" stroke="#63b8ff" d="M691.27,-274.63C679.36,-253.84 657.37,-215.44 644.53,-193.02"/>
<polygon fill="#63b8ff" stroke="#63b8ff" points="647.51,-191.17 639.5,-184.23 641.43,-194.65 647.51,-191.17"/>
</g>
<!-- Node15 -->
<g id="node15" class="node">
<title>Node15</title>
<g id="a_node15"><a xlink:href="../../de/d2b/docnode_8h.html" target="_top" xlink:title=" ">
<polygon fill="white" stroke="#666666" points="352,-239 285,-239 285,-220 352,-220 352,-239"/>
<text text-anchor="middle" x="318.5" y="-227" font-family="Helvetica,sans-Serif" font-size="10.00">docnode.h</text>
</a>
</g>
</g>
<!-- Node1&#45;&gt;Node15 -->
<g id="edge17" class="edge">
<title>Node1&#45;&gt;Node15</title>
<path fill="none" stroke="#63b8ff" d="M620.56,-276.88C542.3,-264.86 425.28,-246.9 362.33,-237.23"/>
<polygon fill="#63b8ff" stroke="#63b8ff" points="362.75,-233.75 352.33,-235.7 361.69,-240.67 362.75,-233.75"/>
</g>
<!-- Node25 -->
<g id="node25" class="node">
<title>Node25</title>
<g id="a_node25"><a xlink:href="../../d4/d7d/textstream_8h.html" target="_top" xlink:title=" ">
<polygon fill="white" stroke="#666666" points="891.5,-184 811.5,-184 811.5,-165 891.5,-165 891.5,-184"/>
<text text-anchor="middle" x="851.5" y="-172" font-family="Helvetica,sans-Serif" font-size="10.00">textstream.h</text>
</a>
</g>
</g>
<!-- Node1&#45;&gt;Node25 -->
<g id="edge40" class="edge">
<title>Node1&#45;&gt;Node25</title>
<path fill="none" stroke="#63b8ff" d="M718.44,-274.85C747.29,-253.31 801.99,-212.47 831.47,-190.46"/>
<polygon fill="#63b8ff" stroke="#63b8ff" points="833.84,-193.06 839.75,-184.27 829.65,-187.45 833.84,-193.06"/>
</g>
<!-- Node4 -->
<g id="node4" class="node">
<title>Node4</title>
<g id="a_node4"><a xlink:title=" ">
<polygon fill="#e0e0e0" stroke="#999999" points="651.5,-19 607.5,-19 607.5,0 651.5,0 651.5,-19"/>
<text text-anchor="middle" x="629.5" y="-7" font-family="Helvetica,sans-Serif" font-size="10.00">string</text>
</a>
</g>
</g>
<!-- Node3&#45;&gt;Node4 -->
<g id="edge3" class="edge">
<title>Node3&#45;&gt;Node4</title>
<path fill="none" stroke="#63b8ff" d="M601.93,-113.2C549.79,-104.4 452.43,-86.49 442.5,-74 400.66,-21.35 532.72,-12.1 596.76,-10.66"/>
<polygon fill="#63b8ff" stroke="#63b8ff" points="597.2,-14.15 607.14,-10.48 597.08,-7.15 597.2,-14.15"/>
</g>
<!-- Node5 -->
<g id="node5" class="node">
<title>Node5</title>
<g id="a_node5"><a xlink:title=" ">
<polygon fill="#e0e0e0" stroke="#999999" points="591.5,-74 527.5,-74 527.5,-55 591.5,-55 591.5,-74"/>
<text text-anchor="middle" x="559.5" y="-62" font-family="Helvetica,sans-Serif" font-size="10.00">algorithm</text>
</a>
</g>
</g>
<!-- Node3&#45;&gt;Node5 -->
<g id="edge4" class="edge">
<title>Node3&#45;&gt;Node5</title>
<path fill="none" stroke="#63b8ff" d="M622.45,-109.98C611.04,-101.92 593.67,-89.65 580.07,-80.03"/>
<polygon fill="#63b8ff" stroke="#63b8ff" points="581.96,-77.08 571.77,-74.17 577.92,-82.8 581.96,-77.08"/>
</g>
<!-- Node6 -->
<g id="node6" class="node">
<title>Node6</title>
<g id="a_node6"><a xlink:title=" ">
<polygon fill="#e0e0e0" stroke="#999999" points="659,-74 610,-74 610,-55 659,-55 659,-74"/>
<text text-anchor="middle" x="634.5" y="-62" font-family="Helvetica,sans-Serif" font-size="10.00">cctype</text>
</a>
</g>
</g>
<!-- Node3&#45;&gt;Node6 -->
<g id="edge5" class="edge">
<title>Node3&#45;&gt;Node6</title>
<path fill="none" stroke="#63b8ff" d="M634.5,-109.75C634.5,-102.8 634.5,-92.85 634.5,-84.13"/>
<polygon fill="#63b8ff" stroke="#63b8ff" points="638,-84.09 634.5,-74.09 631,-84.09 638,-84.09"/>
</g>
<!-- Node7 -->
<g id="node7" class="node">
<title>Node7</title>
<g id="a_node7"><a xlink:title=" ">
<polygon fill="#e0e0e0" stroke="#999999" points="727.5,-74 677.5,-74 677.5,-55 727.5,-55 727.5,-74"/>
<text text-anchor="middle" x="702.5" y="-62" font-family="Helvetica,sans-Serif" font-size="10.00">cstring</text>
</a>
</g>
</g>
<!-- Node3&#45;&gt;Node7 -->
<g id="edge6" class="edge">
<title>Node3&#45;&gt;Node7</title>
<path fill="none" stroke="#63b8ff" d="M645.43,-109.98C655.58,-102.07 670.92,-90.11 683.15,-80.58"/>
<polygon fill="#63b8ff" stroke="#63b8ff" points="685.64,-83.08 691.38,-74.17 681.34,-77.56 685.64,-83.08"/>
</g>
<!-- Node8 -->
<g id="node8" class="node">
<title>Node8</title>
<g id="a_node8"><a xlink:title=" ">
<polygon fill="#e0e0e0" stroke="#999999" points="1001.5,-74 955.5,-74 955.5,-55 1001.5,-55 1001.5,-74"/>
<text text-anchor="middle" x="978.5" y="-62" font-family="Helvetica,sans-Serif" font-size="10.00">cstdio</text>
</a>
</g>
</g>
<!-- Node3&#45;&gt;Node8 -->
<g id="edge7" class="edge">
<title>Node3&#45;&gt;Node8</title>
<path fill="none" stroke="#63b8ff" d="M667,-114.01C734.25,-104.68 886.72,-83.28 938.5,-74 940.71,-73.6 942.99,-73.17 945.29,-72.73"/>
<polygon fill="#63b8ff" stroke="#63b8ff" points="946.18,-76.12 955.28,-70.7 944.79,-69.26 946.18,-76.12"/>
</g>
<!-- Node9 -->
<g id="node9" class="node">
<title>Node9</title>
<g id="a_node9"><a xlink:title=" ">
<polygon fill="#e0e0e0" stroke="#999999" points="795,-74 746,-74 746,-55 795,-55 795,-74"/>
<text text-anchor="middle" x="770.5" y="-62" font-family="Helvetica,sans-Serif" font-size="10.00">cstdlib</text>
</a>
</g>
</g>
<!-- Node3&#45;&gt;Node9 -->
<g id="edge8" class="edge">
<title>Node3&#45;&gt;Node9</title>
<path fill="none" stroke="#63b8ff" d="M656.35,-109.98C678.62,-101.3 713.4,-87.75 738.72,-77.88"/>
<polygon fill="#63b8ff" stroke="#63b8ff" points="740.21,-81.06 748.25,-74.17 737.66,-74.54 740.21,-81.06"/>
</g>
<!-- Node10 -->
<g id="node10" class="node">
<title>Node10</title>
<g id="a_node10"><a xlink:title=" ">
<polygon fill="#e0e0e0" stroke="#999999" points="949.5,-19 899.5,-19 899.5,0 949.5,0 949.5,-19"/>
<text text-anchor="middle" x="924.5" y="-7" font-family="Helvetica,sans-Serif" font-size="10.00">cstdint</text>
</a>
</g>
</g>
<!-- Node3&#45;&gt;Node10 -->
<g id="edge9" class="edge">
<title>Node3&#45;&gt;Node10</title>
<path fill="none" stroke="#63b8ff" d="M667.21,-113.44C727.19,-104 850.24,-83.74 867.5,-74 887.18,-62.89 903.65,-42.46 913.74,-27.78"/>
<polygon fill="#63b8ff" stroke="#63b8ff" points="916.87,-29.39 919.43,-19.11 911.02,-25.55 916.87,-29.39"/>
</g>
<!-- Node11 -->
<g id="node11" class="node">
<title>Node11</title>
<g id="a_node11"><a xlink:title=" ">
<polygon fill="#e0e0e0" stroke="#999999" points="509,-74 452,-74 452,-55 509,-55 509,-74"/>
<text text-anchor="middle" x="480.5" y="-62" font-family="Helvetica,sans-Serif" font-size="10.00">ostream</text>
</a>
</g>
</g>
<!-- Node3&#45;&gt;Node11 -->
<g id="edge10" class="edge">
<title>Node3&#45;&gt;Node11</title>
<path fill="none" stroke="#63b8ff" d="M609.76,-109.98C584.13,-101.16 543.87,-87.31 515.09,-77.41"/>
<polygon fill="#63b8ff" stroke="#63b8ff" points="516.03,-74.03 505.44,-74.08 513.75,-80.65 516.03,-74.03"/>
</g>
<!-- Node12 -->
<g id="node12" class="node">
<title>Node12</title>
<g id="a_node12"><a xlink:href="../../db/d7c/utf8_8h.html" target="_top" xlink:title="Various UTF8 related helper functions.">
<polygon fill="white" stroke="#666666" points="858,-74 813,-74 813,-55 858,-55 858,-74"/>
<text text-anchor="middle" x="835.5" y="-62" font-family="Helvetica,sans-Serif" font-size="10.00">utf8.h</text>
</a>
</g>
</g>
<!-- Node3&#45;&gt;Node12 -->
<g id="edge11" class="edge">
<title>Node3&#45;&gt;Node12</title>
<path fill="none" stroke="#63b8ff" d="M667.12,-110.08C699.36,-101.73 750.34,-88.46 802.98,-74.39"/>
<polygon fill="#63b8ff" stroke="#63b8ff" points="804.07,-77.72 812.82,-71.75 802.26,-70.96 804.07,-77.72"/>
</g>
<!-- Node12&#45;&gt;Node4 -->
<g id="edge13" class="edge">
<title>Node12&#45;&gt;Node4</title>
<path fill="none" stroke="#63b8ff" d="M812.83,-57.23C810.02,-56.47 807.2,-55.71 804.5,-55 754.78,-41.86 696.93,-27.29 661.78,-18.52"/>
<polygon fill="#63b8ff" stroke="#63b8ff" points="662.18,-15.01 651.63,-15.99 660.49,-21.8 662.18,-15.01"/>
</g>
<!-- Node12&#45;&gt;Node10 -->
<g id="edge12" class="edge">
<title>Node12&#45;&gt;Node10</title>
<path fill="none" stroke="#63b8ff" d="M849.8,-54.98C863.6,-46.77 884.74,-34.18 901.01,-24.49"/>
<polygon fill="#63b8ff" stroke="#63b8ff" points="903.14,-27.29 909.94,-19.17 899.56,-21.28 903.14,-27.29"/>
</g>
<!-- Node13&#45;&gt;Node3 -->
<g id="edge16" class="edge">
<title>Node13&#45;&gt;Node3</title>
<path fill="none" stroke="#63b8ff" d="M634.5,-164.75C634.5,-157.8 634.5,-147.85 634.5,-139.13"/>
<polygon fill="#63b8ff" stroke="#63b8ff" points="638,-139.09 634.5,-129.09 631,-139.09 638,-139.09"/>
</g>
<!-- Node14 -->
<g id="node14" class="node">
<title>Node14</title>
<g id="a_node14"><a xlink:title=" ">
<polygon fill="#e0e0e0" stroke="#999999" points="334.5,-74 276.5,-74 276.5,-55 334.5,-55 334.5,-74"/>
<text text-anchor="middle" x="305.5" y="-62" font-family="Helvetica,sans-Serif" font-size="10.00">memory</text>
</a>
</g>
</g>
<!-- Node13&#45;&gt;Node14 -->
<g id="edge15" class="edge">
<title>Node13&#45;&gt;Node14</title>
<path fill="none" stroke="#63b8ff" d="M617.48,-164.87C590.78,-151.61 537.16,-126.06 489.5,-110 440.53,-93.5 382.31,-80.48 344.67,-72.89"/>
<polygon fill="#63b8ff" stroke="#63b8ff" points="345.12,-69.41 334.63,-70.9 343.76,-76.28 345.12,-69.41"/>
</g>
<!-- Node15&#45;&gt;Node3 -->
<g id="edge22" class="edge">
<title>Node15&#45;&gt;Node3</title>
<path fill="none" stroke="#63b8ff" d="M352.03,-226.75C398.26,-223.3 483.37,-213.21 549.5,-184 576.19,-172.21 602.39,-150.7 618.49,-136.01"/>
<polygon fill="#63b8ff" stroke="#63b8ff" points="621.03,-138.43 625.94,-129.04 616.25,-133.32 621.03,-138.43"/>
</g>
<!-- Node15&#45;&gt;Node13 -->
<g id="edge23" class="edge">
<title>Node15&#45;&gt;Node13</title>
<path fill="none" stroke="#63b8ff" d="M352.02,-222.88C408.71,-213.37 523.63,-194.1 588.05,-183.29"/>
<polygon fill="#63b8ff" stroke="#63b8ff" points="588.65,-186.74 597.94,-181.63 587.5,-179.83 588.65,-186.74"/>
</g>
<!-- Node15&#45;&gt;Node14 -->
<g id="edge20" class="edge">
<title>Node15&#45;&gt;Node14</title>
<path fill="none" stroke="#63b8ff" d="M304.98,-219.9C292.97,-211.75 275.51,-198.61 263.5,-184 245.95,-162.65 241.14,-155.82 234.5,-129 232.47,-120.8 230.41,-117.39 234.5,-110 242.34,-95.83 256.79,-85.57 270.61,-78.5"/>
<polygon fill="#63b8ff" stroke="#63b8ff" points="272.42,-81.52 279.99,-74.1 269.45,-75.18 272.42,-81.52"/>
</g>
<!-- Node16 -->
<g id="node16" class="node">
<title>Node16</title>
<g id="a_node16"><a xlink:title=" ">
<polygon fill="#e0e0e0" stroke="#999999" points="293.5,-129 243.5,-129 243.5,-110 293.5,-110 293.5,-129"/>
<text text-anchor="middle" x="268.5" y="-117" font-family="Helvetica,sans-Serif" font-size="10.00">stdio.h</text>
</a>
</g>
</g>
<!-- Node15&#45;&gt;Node16 -->
<g id="edge18" class="edge">
<title>Node15&#45;&gt;Node16</title>
<path fill="none" stroke="#63b8ff" d="M304.96,-219.71C294.08,-211.81 279.49,-199.13 272.5,-184 266.06,-170.04 265.44,-152.48 266.21,-139.37"/>
<polygon fill="#63b8ff" stroke="#63b8ff" points="269.72,-139.47 267.15,-129.19 262.75,-138.83 269.72,-139.47"/>
</g>
<!-- Node17 -->
<g id="node17" class="node">
<title>Node17</title>
<g id="a_node17"><a xlink:title=" ">
<polygon fill="#e0e0e0" stroke="#999999" points="137,-74 90,-74 90,-55 137,-55 137,-74"/>
<text text-anchor="middle" x="113.5" y="-62" font-family="Helvetica,sans-Serif" font-size="10.00">vector</text>
</a>
</g>
</g>
<!-- Node15&#45;&gt;Node17 -->
<g id="edge19" class="edge">
<title>Node15&#45;&gt;Node17</title>
<path fill="none" stroke="#63b8ff" d="M284.98,-225.59C232.77,-218.98 134.3,-197.55 98.5,-129 90.98,-114.6 96.59,-96.4 102.99,-83.18"/>
<polygon fill="#63b8ff" stroke="#63b8ff" points="106.17,-84.65 107.82,-74.19 100,-81.34 106.17,-84.65"/>
</g>
<!-- Node18 -->
<g id="node18" class="node">
<title>Node18</title>
<g id="a_node18"><a xlink:title=" ">
<polygon fill="#e0e0e0" stroke="#999999" points="51,-184 0,-184 0,-165 51,-165 51,-184"/>
<text text-anchor="middle" x="25.5" y="-172" font-family="Helvetica,sans-Serif" font-size="10.00">variant</text>
</a>
</g>
</g>
<!-- Node15&#45;&gt;Node18 -->
<g id="edge21" class="edge">
<title>Node15&#45;&gt;Node18</title>
<path fill="none" stroke="#63b8ff" d="M284.87,-222.97C236.34,-214.91 143.87,-199.21 65.5,-184 64.06,-183.72 62.6,-183.43 61.12,-183.14"/>
<polygon fill="#63b8ff" stroke="#63b8ff" points="61.79,-179.7 51.29,-181.12 60.39,-186.56 61.79,-179.7"/>
</g>
<!-- Node19 -->
<g id="node19" class="node">
<title>Node19</title>
<g id="a_node19"><a xlink:href="../../de/d9c/docparser_8h.html" target="_top" xlink:title=" ">
<polygon fill="white" stroke="#666666" points="355,-184 282,-184 282,-165 355,-165 355,-184"/>
<text text-anchor="middle" x="318.5" y="-172" font-family="Helvetica,sans-Serif" font-size="10.00">docparser.h</text>
</a>
</g>
</g>
<!-- Node15&#45;&gt;Node19 -->
<g id="edge24" class="edge">
<title>Node15&#45;&gt;Node19</title>
<path fill="none" stroke="#63b8ff" d="M318.5,-219.75C318.5,-212.8 318.5,-202.85 318.5,-194.13"/>
<polygon fill="#63b8ff" stroke="#63b8ff" points="322,-194.09 318.5,-184.09 315,-194.09 322,-194.09"/>
</g>
<!-- Node20 -->
<g id="node20" class="node">
<title>Node20</title>
<g id="a_node20"><a xlink:href="../../d7/d50/growvector_8h.html" target="_top" xlink:title=" ">
<polygon fill="white" stroke="#666666" points="187.5,-129 107.5,-129 107.5,-110 187.5,-110 187.5,-129"/>
<text text-anchor="middle" x="147.5" y="-117" font-family="Helvetica,sans-Serif" font-size="10.00">growvector.h</text>
</a>
</g>
</g>
<!-- Node15&#45;&gt;Node20 -->
<g id="edge39" class="edge">
<title>Node15&#45;&gt;Node20</title>
<path fill="none" stroke="#63b8ff" d="M284.82,-220.55C260.18,-213.63 226.8,-201.86 201.5,-184 183.66,-171.4 168.08,-151.59 158.3,-137.44"/>
<polygon fill="#63b8ff" stroke="#63b8ff" points="161.21,-135.48 152.75,-129.1 155.38,-139.36 161.21,-135.48"/>
</g>
<!-- Node22 -->
<g id="node22" class="node">
<title>Node22</title>
<g id="a_node22"><a xlink:href="../../d0/d73/htmlattrib_8h.html" target="_top" xlink:title=" ">
<polygon fill="white" stroke="#666666" points="447.5,-184 373.5,-184 373.5,-165 447.5,-165 447.5,-184"/>
<text text-anchor="middle" x="410.5" y="-172" font-family="Helvetica,sans-Serif" font-size="10.00">htmlattrib.h</text>
</a>
</g>
</g>
<!-- Node15&#45;&gt;Node22 -->
<g id="edge32" class="edge">
<title>Node15&#45;&gt;Node22</title>
<path fill="none" stroke="#63b8ff" d="M333.28,-219.98C347.68,-211.69 369.81,-198.94 386.69,-189.22"/>
<polygon fill="#63b8ff" stroke="#63b8ff" points="388.53,-192.19 395.45,-184.17 385.04,-186.13 388.53,-192.19"/>
</g>
<!-- Node23 -->
<g id="node23" class="node">
<title>Node23</title>
<g id="a_node23"><a xlink:href="../../db/dc6/htmlentity_8h.html" target="_top" xlink:title=" ">
<polygon fill="white" stroke="#666666" points="541,-184 466,-184 466,-165 541,-165 541,-184"/>
<text text-anchor="middle" x="503.5" y="-172" font-family="Helvetica,sans-Serif" font-size="10.00">htmlentity.h</text>
</a>
</g>
</g>
<!-- Node15&#45;&gt;Node23 -->
<g id="edge35" class="edge">
<title>Node15&#45;&gt;Node23</title>
<path fill="none" stroke="#63b8ff" d="M348.22,-219.98C379.55,-211.01 429.07,-196.82 463.74,-186.89"/>
<polygon fill="#63b8ff" stroke="#63b8ff" points="464.89,-190.2 473.54,-184.08 462.97,-183.47 464.89,-190.2"/>
</g>
<!-- Node19&#45;&gt;Node3 -->
<g id="edge27" class="edge">
<title>Node19&#45;&gt;Node3</title>
<path fill="none" stroke="#63b8ff" d="M355.15,-166.66C358.31,-166.09 361.46,-165.53 364.5,-165 444.57,-151.01 538.21,-135.84 591.52,-127.32"/>
<polygon fill="#63b8ff" stroke="#63b8ff" points="592.31,-130.74 601.63,-125.71 591.2,-123.83 592.31,-130.74"/>
</g>
<!-- Node19&#45;&gt;Node14 -->
<g id="edge26" class="edge">
<title>Node19&#45;&gt;Node14</title>
<path fill="none" stroke="#63b8ff" d="M317.44,-164.66C315.33,-147.17 310.59,-107.8 307.76,-84.27"/>
<polygon fill="#63b8ff" stroke="#63b8ff" points="311.21,-83.67 306.54,-74.16 304.26,-84.51 311.21,-83.67"/>
</g>
<!-- Node19&#45;&gt;Node16 -->
<g id="edge25" class="edge">
<title>Node19&#45;&gt;Node16</title>
<path fill="none" stroke="#63b8ff" d="M310.24,-164.75C303.04,-157.11 292.39,-145.82 283.65,-136.56"/>
<polygon fill="#63b8ff" stroke="#63b8ff" points="286.01,-133.96 276.6,-129.09 280.92,-138.76 286.01,-133.96"/>
</g>
<!-- Node19&#45;&gt;Node20 -->
<g id="edge28" class="edge">
<title>Node19&#45;&gt;Node20</title>
<path fill="none" stroke="#63b8ff" d="M291.03,-164.98C262.32,-156.09 217.08,-142.07 185.08,-132.15"/>
<polygon fill="#63b8ff" stroke="#63b8ff" points="185.78,-128.7 175.19,-129.08 183.7,-135.39 185.78,-128.7"/>
</g>
<!-- Node20&#45;&gt;Node14 -->
<g id="edge30" class="edge">
<title>Node20&#45;&gt;Node14</title>
<path fill="none" stroke="#63b8ff" d="M172.89,-109.98C199.3,-101.13 240.85,-87.19 270.39,-77.28"/>
<polygon fill="#63b8ff" stroke="#63b8ff" points="271.55,-80.58 279.92,-74.08 269.32,-73.94 271.55,-80.58"/>
</g>
<!-- Node20&#45;&gt;Node17 -->
<g id="edge29" class="edge">
<title>Node20&#45;&gt;Node17</title>
<path fill="none" stroke="#63b8ff" d="M141.89,-109.75C137.18,-102.42 130.33,-91.73 124.53,-82.7"/>
<polygon fill="#63b8ff" stroke="#63b8ff" points="127.36,-80.62 119.01,-74.09 121.46,-84.4 127.36,-80.62"/>
</g>
<!-- Node21 -->
<g id="node21" class="node">
<title>Node21</title>
<g id="a_node21"><a xlink:title=" ">
<polygon fill="#e0e0e0" stroke="#999999" points="208,-74 155,-74 155,-55 208,-55 208,-74"/>
<text text-anchor="middle" x="181.5" y="-62" font-family="Helvetica,sans-Serif" font-size="10.00">iterator</text>
</a>
</g>
</g>
<!-- Node20&#45;&gt;Node21 -->
<g id="edge31" class="edge">
<title>Node20&#45;&gt;Node21</title>
<path fill="none" stroke="#63b8ff" d="M153.11,-109.75C157.82,-102.42 164.67,-91.73 170.47,-82.7"/>
<polygon fill="#63b8ff" stroke="#63b8ff" points="173.54,-84.4 175.99,-74.09 167.64,-80.62 173.54,-84.4"/>
</g>
<!-- Node22&#45;&gt;Node3 -->
<g id="edge34" class="edge">
<title>Node22&#45;&gt;Node3</title>
<path fill="none" stroke="#63b8ff" d="M446.49,-164.98C486.13,-155.6 549.84,-140.53 591.93,-130.57"/>
<polygon fill="#63b8ff" stroke="#63b8ff" points="592.95,-133.93 601.88,-128.22 591.34,-127.12 592.95,-133.93"/>
</g>
<!-- Node22&#45;&gt;Node17 -->
<g id="edge33" class="edge">
<title>Node22&#45;&gt;Node17</title>
<path fill="none" stroke="#63b8ff" d="M398.81,-164.99C379.64,-151.41 339.89,-124.87 302.5,-110 238.97,-84.74 216.97,-90.57 147.39,-74.35"/>
<polygon fill="#63b8ff" stroke="#63b8ff" points="147.78,-70.84 137.24,-71.9 146.15,-77.65 147.78,-70.84"/>
</g>
<!-- Node23&#45;&gt;Node3 -->
<g id="edge38" class="edge">
<title>Node23&#45;&gt;Node3</title>
<path fill="none" stroke="#63b8ff" d="M524.55,-164.98C545.91,-156.34 579.2,-142.87 603.56,-133.02"/>
<polygon fill="#63b8ff" stroke="#63b8ff" points="605.11,-136.17 613.07,-129.17 602.49,-129.68 605.11,-136.17"/>
</g>
<!-- Node23&#45;&gt;Node4 -->
<g id="edge37" class="edge">
<title>Node23&#45;&gt;Node4</title>
<path fill="none" stroke="#63b8ff" d="M503.66,-164.84C503.48,-151.76 501.44,-126.72 489.5,-110 468.67,-80.82 408.09,-82.98 430.5,-55 451.01,-29.4 546.11,-17.54 597.06,-12.95"/>
<polygon fill="#63b8ff" stroke="#63b8ff" points="597.55,-16.42 607.22,-12.08 596.95,-9.44 597.55,-16.42"/>
</g>
<!-- Node24 -->
<g id="node24" class="node">
<title>Node24</title>
<g id="a_node24"><a xlink:title=" ">
<polygon fill="#e0e0e0" stroke="#999999" points="481,-129 388,-129 388,-110 481,-110 481,-129"/>
<text text-anchor="middle" x="434.5" y="-117" font-family="Helvetica,sans-Serif" font-size="10.00">unordered_map</text>
</a>
</g>
</g>
<!-- Node23&#45;&gt;Node24 -->
<g id="edge36" class="edge">
<title>Node23&#45;&gt;Node24</title>
<path fill="none" stroke="#63b8ff" d="M492.41,-164.98C482.01,-157 466.24,-144.88 453.78,-135.31"/>
<polygon fill="#63b8ff" stroke="#63b8ff" points="455.85,-132.49 445.79,-129.17 451.59,-138.04 455.85,-132.49"/>
</g>
<!-- Node25&#45;&gt;Node2 -->
<g id="edge42" class="edge">
<title>Node25&#45;&gt;Node2</title>
<path fill="none" stroke="#63b8ff" d="M833.18,-164.98C814.84,-156.46 786.39,-143.23 765.27,-133.41"/>
<polygon fill="#63b8ff" stroke="#63b8ff" points="766.69,-130.21 756.15,-129.17 763.74,-136.56 766.69,-130.21"/>
</g>
<!-- Node25&#45;&gt;Node3 -->
<g id="edge48" class="edge">
<title>Node25&#45;&gt;Node3</title>
<path fill="none" stroke="#63b8ff" d="M816.64,-164.98C778.64,-155.71 717.84,-140.85 677.06,-130.89"/>
<polygon fill="#63b8ff" stroke="#63b8ff" points="677.69,-127.45 667.15,-128.47 676.03,-134.25 677.69,-127.45"/>
</g>
<!-- Node25&#45;&gt;Node4 -->
<g id="edge41" class="edge">
<title>Node25&#45;&gt;Node4</title>
<path fill="none" stroke="#63b8ff" d="M840.59,-164.97C826.52,-152.88 805.03,-129.98 815.5,-110 828.55,-85.1 854.45,-98.9 867.5,-74 871.42,-66.52 872.89,-61.5 867.5,-55 841.71,-23.95 720.68,-14.44 661.81,-11.63"/>
<polygon fill="#63b8ff" stroke="#63b8ff" points="661.72,-8.12 651.58,-11.18 661.42,-15.12 661.72,-8.12"/>
</g>
<!-- Node25&#45;&gt;Node8 -->
<g id="edge45" class="edge">
<title>Node25&#45;&gt;Node8</title>
<path fill="none" stroke="#63b8ff" d="M891.58,-170.47C919.9,-166.03 956.12,-155.21 975.5,-129 984.83,-116.38 984.72,-98.19 982.78,-84.51"/>
<polygon fill="#63b8ff" stroke="#63b8ff" points="986.15,-83.5 980.89,-74.3 979.27,-84.77 986.15,-83.5"/>
</g>
<!-- Node25&#45;&gt;Node10 -->
<g id="edge44" class="edge">
<title>Node25&#45;&gt;Node10</title>
<path fill="none" stroke="#63b8ff" d="M891.51,-170.65C922.88,-166.35 965.59,-155.63 992.5,-129 1016.56,-105.19 1028.09,-83.92 1010.5,-55 999.39,-36.74 978.1,-25.64 959.48,-19.09"/>
<polygon fill="#63b8ff" stroke="#63b8ff" points="960.37,-15.7 949.78,-15.99 958.24,-22.37 960.37,-15.7"/>
</g>
<!-- Node26 -->
<g id="node26" class="node">
<title>Node26</title>
<g id="a_node26"><a xlink:title=" ">
<polygon fill="#e0e0e0" stroke="#999999" points="1116.5,-129 1060.5,-129 1060.5,-110 1116.5,-110 1116.5,-129"/>
<text text-anchor="middle" x="1088.5" y="-117" font-family="Helvetica,sans-Serif" font-size="10.00">sstream</text>
</a>
</g>
</g>
<!-- Node25&#45;&gt;Node26 -->
<g id="edge43" class="edge">
<title>Node25&#45;&gt;Node26</title>
<path fill="none" stroke="#63b8ff" d="M889.58,-164.98C933.77,-155.1 1006.2,-138.9 1050.4,-129.02"/>
<polygon fill="#63b8ff" stroke="#63b8ff" points="1051.19,-132.43 1060.18,-126.83 1049.66,-125.6 1051.19,-132.43"/>
</g>
<!-- Node27 -->
<g id="node27" class="node">
<title>Node27</title>
<g id="a_node27"><a xlink:title=" ">
<polygon fill="#e0e0e0" stroke="#999999" points="879,-129 824,-129 824,-110 879,-110 879,-129"/>
<text text-anchor="middle" x="851.5" y="-117" font-family="Helvetica,sans-Serif" font-size="10.00">fstream</text>
</a>
</g>
</g>
<!-- Node25&#45;&gt;Node27 -->
<g id="edge46" class="edge">
<title>Node25&#45;&gt;Node27</title>
<path fill="none" stroke="#63b8ff" d="M851.5,-164.75C851.5,-157.8 851.5,-147.85 851.5,-139.13"/>
<polygon fill="#63b8ff" stroke="#63b8ff" points="855,-139.09 851.5,-129.09 848,-139.09 855,-139.09"/>
</g>
<!-- Node28 -->
<g id="node28" class="node">
<title>Node28</title>
<g id="a_node28"><a xlink:title=" ">
<polygon fill="#e0e0e0" stroke="#999999" points="966,-129 897,-129 897,-110 966,-110 966,-129"/>
<text text-anchor="middle" x="931.5" y="-117" font-family="Helvetica,sans-Serif" font-size="10.00">type_traits</text>
</a>
</g>
</g>
<!-- Node25&#45;&gt;Node28 -->
<g id="edge47" class="edge">
<title>Node25&#45;&gt;Node28</title>
<path fill="none" stroke="#63b8ff" d="M864.35,-164.98C876.64,-156.84 895.41,-144.41 909.98,-134.76"/>
<polygon fill="#63b8ff" stroke="#63b8ff" points="912.01,-137.61 918.41,-129.17 908.14,-131.78 912.01,-137.61"/>
</g>
</g>
</svg>
