<?xml version="1.0" encoding="UTF-8" standalone="no"?>
<!DOCTYPE svg PUBLIC "-//W3C//DTD SVG 1.1//EN"
 "http://www.w3.org/Graphics/SVG/1.1/DTD/svg11.dtd">
<!-- Generated by graphviz version 2.43.0 (0)
 -->
<!-- Title: LatexGenerator Pages: 1 -->
<svg width="462pt" height="226pt"
 viewBox="0.00 0.00 461.50 226.00" xmlns="http://www.w3.org/2000/svg" xmlns:xlink="http://www.w3.org/1999/xlink">
<g id="graph0" class="graph" transform="scale(1 1) rotate(0) translate(4 222)">
<title>LatexGenerator</title>
<!-- Node1 -->
<g id="node1" class="node">
<title>Node1</title>
<g id="a_node1"><a xlink:title="Generator for LaTeX output.">
<polygon fill="#999999" stroke="#666666" points="312,-19 220,-19 220,0 312,0 312,-19"/>
<text text-anchor="middle" x="266" y="-7" font-family="Helvetica,sans-Serif" font-size="10.00">LatexGenerator</text>
</a>
</g>
</g>
<!-- Node2 -->
<g id="node2" class="node">
<title>Node2</title>
<g id="a_node2"><a xlink:href="../../d3/d8e/class_output_generator.html" target="_top" xlink:title="Abstract output generator.">
<polygon fill="white" stroke="#666666" points="173,-85 75,-85 75,-66 173,-66 173,-85"/>
<text text-anchor="middle" x="124" y="-73" font-family="Helvetica,sans-Serif" font-size="10.00">OutputGenerator</text>
</a>
</g>
</g>
<!-- Node2&#45;&gt;Node1 -->
<g id="edge1" class="edge">
<title>Node2&#45;&gt;Node1</title>
<path fill="none" stroke="#63b8ff" d="M152.41,-61.69C180.4,-49.08 222.38,-30.16 246.7,-19.2"/>
<polygon fill="#63b8ff" stroke="#63b8ff" points="150.83,-58.57 143.15,-65.87 153.71,-64.95 150.83,-58.57"/>
</g>
<!-- Node3 -->
<g id="node3" class="node">
<title>Node3</title>
<g id="a_node3"><a xlink:href="../../df/d27/class_base_output_doc_interface.html" target="_top" xlink:title="Base Interface used for generating output outside of the comment blocks.">
<polygon fill="white" stroke="#666666" points="136,-162 0,-162 0,-143 136,-143 136,-162"/>
<text text-anchor="middle" x="68" y="-150" font-family="Helvetica,sans-Serif" font-size="10.00">BaseOutputDocInterface</text>
</a>
</g>
</g>
<!-- Node3&#45;&gt;Node2 -->
<g id="edge2" class="edge">
<title>Node3&#45;&gt;Node2</title>
<path fill="none" stroke="#63b8ff" d="M70.2,-132.62C72.09,-123 75.57,-111.56 82,-103 87.7,-95.42 96.25,-89.46 104.16,-85.13"/>
<polygon fill="#63b8ff" stroke="#63b8ff" points="66.7,-132.38 68.65,-142.79 73.62,-133.43 66.7,-132.38"/>
</g>
<!-- Node4 -->
<g id="node4" class="node">
<title>Node4</title>
<g id="a_node4"><a xlink:href="../../d5/d9c/class_code_output_interface.html" target="_top" xlink:title="Output interface for code parser.">
<polygon fill="white" stroke="#666666" points="297,-218 179,-218 179,-199 297,-199 297,-218"/>
<text text-anchor="middle" x="238" y="-206" font-family="Helvetica,sans-Serif" font-size="10.00">CodeOutputInterface</text>
</a>
</g>
</g>
<!-- Node4&#45;&gt;Node3 -->
<g id="edge3" class="edge">
<title>Node4&#45;&gt;Node3</title>
<path fill="none" stroke="#63b8ff" d="M201.18,-195.8C169.15,-185.63 123.48,-171.12 94.81,-162.02"/>
<polygon fill="#63b8ff" stroke="#63b8ff" points="200.47,-199.25 211.06,-198.94 202.59,-192.58 200.47,-199.25"/>
</g>
<!-- Node7 -->
<g id="node7" class="node">
<title>Node7</title>
<g id="a_node7"><a xlink:href="../../d0/d37/class_latex_code_generator.html" target="_top" xlink:title=" ">
<polygon fill="white" stroke="#666666" points="453.5,-85 336.5,-85 336.5,-66 453.5,-66 453.5,-85"/>
<text text-anchor="middle" x="395" y="-73" font-family="Helvetica,sans-Serif" font-size="10.00">LatexCodeGenerator</text>
</a>
</g>
</g>
<!-- Node4&#45;&gt;Node7 -->
<g id="edge8" class="edge">
<title>Node4&#45;&gt;Node7</title>
<path fill="none" stroke="#63b8ff" d="M286.81,-195.94C323.22,-184.49 370.56,-163.02 394,-125 401.51,-112.81 399.49,-95.42 397.28,-85.12"/>
<polygon fill="#63b8ff" stroke="#63b8ff" points="285.44,-192.69 276.86,-198.9 287.44,-199.4 285.44,-192.69"/>
</g>
<!-- Node5 -->
<g id="node5" class="node">
<title>Node5</title>
<g id="a_node5"><a xlink:href="../../d3/d30/class_text_stream.html" target="_top" xlink:title="Text streaming class that buffers data.">
<polygon fill="white" stroke="#666666" points="226,-162 154,-162 154,-143 226,-143 226,-162"/>
<text text-anchor="middle" x="190" y="-150" font-family="Helvetica,sans-Serif" font-size="10.00">TextStream</text>
</a>
</g>
</g>
<!-- Node5&#45;&gt;Node2 -->
<g id="edge4" class="edge">
<title>Node5&#45;&gt;Node2</title>
<path fill="none" stroke="#9a32cd" stroke-dasharray="5,2" d="M144.88,-140.42C124.75,-135.02 104.88,-128.88 102,-125 92.73,-112.53 105.1,-95.54 114.7,-85.33"/>
<polygon fill="#9a32cd" stroke="#9a32cd" points="144.15,-143.85 154.71,-142.99 145.92,-137.07 144.15,-143.85"/>
<text text-anchor="middle" x="113" y="-111.5" font-family="Helvetica,sans-Serif" font-size="10.00"> m_t</text>
</g>
<!-- Node5&#45;&gt;Node7 -->
<g id="edge9" class="edge">
<title>Node5&#45;&gt;Node7</title>
<path fill="none" stroke="#9a32cd" stroke-dasharray="5,2" d="M206.69,-136.2C219.52,-125.28 238.19,-111.14 257,-103 271.39,-96.78 306.1,-90.13 337.11,-85.04"/>
<polygon fill="#9a32cd" stroke="#9a32cd" points="204.36,-133.58 199.16,-142.81 208.98,-138.84 204.36,-133.58"/>
<text text-anchor="middle" x="268" y="-111.5" font-family="Helvetica,sans-Serif" font-size="10.00"> m_t</text>
</g>
<!-- Node6 -->
<g id="node6" class="node">
<title>Node6</title>
<g id="a_node6"><a xlink:href="../../d9/d45/class_q_c_string.html" target="_top" xlink:title="This is an alternative implementation of QCString.">
<polygon fill="white" stroke="#666666" points="303.5,-162 244.5,-162 244.5,-143 303.5,-143 303.5,-162"/>
<text text-anchor="middle" x="274" y="-150" font-family="Helvetica,sans-Serif" font-size="10.00">QCString</text>
</a>
</g>
</g>
<!-- Node6&#45;&gt;Node1 -->
<g id="edge6" class="edge">
<title>Node6&#45;&gt;Node1</title>
<path fill="none" stroke="#9a32cd" stroke-dasharray="5,2" d="M272.92,-132.39C271.16,-101.49 267.77,-41.77 266.5,-19.32"/>
<polygon fill="#9a32cd" stroke="#9a32cd" points="269.44,-132.89 273.5,-142.68 276.43,-132.5 269.44,-132.89"/>
<text text-anchor="middle" x="296" y="-73" font-family="Helvetica,sans-Serif" font-size="10.00"> m_relPath</text>
</g>
<!-- Node6&#45;&gt;Node2 -->
<g id="edge5" class="edge">
<title>Node6&#45;&gt;Node2</title>
<path fill="none" stroke="#9a32cd" stroke-dasharray="5,2" d="M234.2,-143.12C193.34,-136.69 176.15,-147.85 147,-125 134.24,-115 128.2,-96.19 125.64,-85.16"/>
<polygon fill="#9a32cd" stroke="#9a32cd" points="233.73,-146.59 244.2,-144.96 235,-139.71 233.73,-146.59"/>
<text text-anchor="middle" x="177" y="-117" font-family="Helvetica,sans-Serif" font-size="10.00"> m_dir</text>
<text text-anchor="middle" x="177" y="-106" font-family="Helvetica,sans-Serif" font-size="10.00">m_fileName</text>
</g>
<!-- Node6&#45;&gt;Node7 -->
<g id="edge10" class="edge">
<title>Node6&#45;&gt;Node7</title>
<path fill="none" stroke="#9a32cd" stroke-dasharray="5,2" d="M279.73,-133.26C283.84,-122.99 290.37,-110.71 300,-103 310.42,-94.65 323.31,-88.93 336.2,-85.01"/>
<polygon fill="#9a32cd" stroke="#9a32cd" points="276.34,-132.36 276.3,-142.96 282.94,-134.7 276.34,-132.36"/>
<text text-anchor="middle" x="347" y="-117" font-family="Helvetica,sans-Serif" font-size="10.00"> m_relPath</text>
<text text-anchor="middle" x="347" y="-106" font-family="Helvetica,sans-Serif" font-size="10.00">m_sourceFileName</text>
</g>
<!-- Node7&#45;&gt;Node1 -->
<g id="edge7" class="edge">
<title>Node7&#45;&gt;Node1</title>
<path fill="none" stroke="#9a32cd" stroke-dasharray="5,2" d="M368.52,-61.36C343.1,-48.75 305.43,-30.06 283.53,-19.2"/>
<polygon fill="#9a32cd" stroke="#9a32cd" points="367.09,-64.56 377.6,-65.87 370.2,-58.29 367.09,-64.56"/>
<text text-anchor="middle" x="368.5" y="-40" font-family="Helvetica,sans-Serif" font-size="10.00"> m_codeGen</text>
</g>
</g>
</svg>
