<?xml version="1.0" encoding="UTF-8" standalone="no"?>
<!DOCTYPE svg PUBLIC "-//W3C//DTD SVG 1.1//EN"
 "http://www.w3.org/Graphics/SVG/1.1/DTD/svg11.dtd">
<!-- Generated by graphviz version 2.43.0 (0)
 -->
<!-- Title: /home/runner/work/doxygen/doxygen/src/htmlgen.h Pages: 1 -->
<svg width="6457pt" height="170pt"
 viewBox="0.00 0.00 6457.00 170.00" xmlns="http://www.w3.org/2000/svg" xmlns:xlink="http://www.w3.org/1999/xlink">
<g id="graph0" class="graph" transform="scale(1 1) rotate(0) translate(4 166)">
<title>/home/runner/work/doxygen/doxygen/src/htmlgen.h</title>
<!-- Node1 -->
<g id="node1" class="node">
<title>Node1</title>
<g id="a_node1"><a xlink:title=" ">
<polygon fill="#999999" stroke="#666666" points="679,-162 525,-162 525,-132 679,-132 679,-162"/>
<text text-anchor="start" x="533" y="-150" font-family="Helvetica,sans-Serif" font-size="10.00">/home/runner/work/doxygen</text>
<text text-anchor="middle" x="602" y="-139" font-family="Helvetica,sans-Serif" font-size="10.00">/doxygen/src/htmlgen.h</text>
</a>
</g>
</g>
<!-- Node2 -->
<g id="node2" class="node">
<title>Node2</title>
<g id="a_node2"><a xlink:href="../../db/d12/context_8cpp.html" target="_top" xlink:title=" ">
<polygon fill="white" stroke="#666666" points="154,-30 0,-30 0,0 154,0 154,-30"/>
<text text-anchor="start" x="8" y="-18" font-family="Helvetica,sans-Serif" font-size="10.00">/home/runner/work/doxygen</text>
<text text-anchor="middle" x="77" y="-7" font-family="Helvetica,sans-Serif" font-size="10.00">/doxygen/src/context.cpp</text>
</a>
</g>
</g>
<!-- Node1&#45;&gt;Node2 -->
<g id="edge1" class="edge">
<title>Node1&#45;&gt;Node2</title>
<path fill="none" stroke="#63b8ff" d="M531.21,-129.65C489.96,-120.04 436.99,-107.54 390,-96 298.77,-73.58 192.92,-46.25 130.65,-30.04"/>
<polygon fill="#63b8ff" stroke="#63b8ff" points="530.63,-133.11 541.16,-131.97 532.21,-126.29 530.63,-133.11"/>
</g>
<!-- Node3 -->
<g id="node3" class="node">
<title>Node3</title>
<g id="a_node3"><a xlink:href="../../dc/d98/doxygen_8cpp.html" target="_top" xlink:title=" ">
<polygon fill="white" stroke="#666666" points="326,-30 172,-30 172,0 326,0 326,-30"/>
<text text-anchor="start" x="180" y="-18" font-family="Helvetica,sans-Serif" font-size="10.00">/home/runner/work/doxygen</text>
<text text-anchor="middle" x="249" y="-7" font-family="Helvetica,sans-Serif" font-size="10.00">/doxygen/src/doxygen.cpp</text>
</a>
</g>
</g>
<!-- Node1&#45;&gt;Node3 -->
<g id="edge2" class="edge">
<title>Node1&#45;&gt;Node3</title>
<path fill="none" stroke="#63b8ff" d="M554.32,-128.44C483.54,-102.37 352.08,-53.96 287.22,-30.08"/>
<polygon fill="#63b8ff" stroke="#63b8ff" points="553.29,-131.79 563.89,-131.96 555.71,-125.22 553.29,-131.79"/>
</g>
<!-- Node4 -->
<g id="node4" class="node">
<title>Node4</title>
<g id="a_node4"><a xlink:href="../../db/d41/ftvhelp_8cpp.html" target="_top" xlink:title=" ">
<polygon fill="white" stroke="#666666" points="498,-30 344,-30 344,0 498,0 498,-30"/>
<text text-anchor="start" x="352" y="-18" font-family="Helvetica,sans-Serif" font-size="10.00">/home/runner/work/doxygen</text>
<text text-anchor="middle" x="421" y="-7" font-family="Helvetica,sans-Serif" font-size="10.00">/doxygen/src/ftvhelp.cpp</text>
</a>
</g>
</g>
<!-- Node1&#45;&gt;Node4 -->
<g id="edge3" class="edge">
<title>Node1&#45;&gt;Node4</title>
<path fill="none" stroke="#63b8ff" d="M573.95,-125.85C536.99,-99.31 472.91,-53.28 440.69,-30.14"/>
<polygon fill="#63b8ff" stroke="#63b8ff" points="572.12,-128.85 582.29,-131.84 576.2,-123.16 572.12,-128.85"/>
</g>
<!-- Node5 -->
<g id="node5" class="node">
<title>Node5</title>
<g id="a_node5"><a xlink:href="../../da/db0/htmldocvisitor_8cpp.html" target="_top" xlink:title=" ">
<polygon fill="white" stroke="#666666" points="688,-30 516,-30 516,0 688,0 688,-30"/>
<text text-anchor="start" x="524" y="-18" font-family="Helvetica,sans-Serif" font-size="10.00">/home/runner/work/doxygen</text>
<text text-anchor="middle" x="602" y="-7" font-family="Helvetica,sans-Serif" font-size="10.00">/doxygen/src/htmldocvisitor.cpp</text>
</a>
</g>
</g>
<!-- Node1&#45;&gt;Node5 -->
<g id="edge4" class="edge">
<title>Node1&#45;&gt;Node5</title>
<path fill="none" stroke="#63b8ff" d="M602,-121.68C602,-94.7 602,-52.11 602,-30.14"/>
<polygon fill="#63b8ff" stroke="#63b8ff" points="598.5,-121.84 602,-131.84 605.5,-121.84 598.5,-121.84"/>
</g>
<!-- Node6 -->
<g id="node6" class="node">
<title>Node6</title>
<g id="a_node6"><a xlink:href="../../d8/d6e/htmlgen_8cpp.html" target="_top" xlink:title=" ">
<polygon fill="white" stroke="#666666" points="860,-30 706,-30 706,0 860,0 860,-30"/>
<text text-anchor="start" x="714" y="-18" font-family="Helvetica,sans-Serif" font-size="10.00">/home/runner/work/doxygen</text>
<text text-anchor="middle" x="783" y="-7" font-family="Helvetica,sans-Serif" font-size="10.00">/doxygen/src/htmlgen.cpp</text>
</a>
</g>
</g>
<!-- Node1&#45;&gt;Node6 -->
<g id="edge5" class="edge">
<title>Node1&#45;&gt;Node6</title>
<path fill="none" stroke="#63b8ff" d="M630.05,-125.85C667.01,-99.31 731.09,-53.28 763.31,-30.14"/>
<polygon fill="#63b8ff" stroke="#63b8ff" points="627.8,-123.16 621.71,-131.84 631.88,-128.85 627.8,-123.16"/>
</g>
<!-- Node7 -->
<g id="node7" class="node">
<title>Node7</title>
<g id="a_node7"><a xlink:href="../../db/d14/index_8cpp.html" target="_top" xlink:title="This file contains functions for the various index pages.">
<polygon fill="white" stroke="#666666" points="1032,-30 878,-30 878,0 1032,0 1032,-30"/>
<text text-anchor="start" x="886" y="-18" font-family="Helvetica,sans-Serif" font-size="10.00">/home/runner/work/doxygen</text>
<text text-anchor="middle" x="955" y="-7" font-family="Helvetica,sans-Serif" font-size="10.00">/doxygen/src/index.cpp</text>
</a>
</g>
</g>
<!-- Node1&#45;&gt;Node7 -->
<g id="edge6" class="edge">
<title>Node1&#45;&gt;Node7</title>
<path fill="none" stroke="#63b8ff" d="M649.68,-128.44C720.46,-102.37 851.92,-53.96 916.78,-30.08"/>
<polygon fill="#63b8ff" stroke="#63b8ff" points="648.29,-125.22 640.11,-131.96 650.71,-131.79 648.29,-125.22"/>
</g>
<!-- Node8 -->
<g id="node8" class="node">
<title>Node8</title>
<g id="a_node8"><a xlink:href="../../d2/db9/outputlist_8h.html" target="_top" xlink:title=" ">
<polygon fill="white" stroke="#666666" points="3211,-96 3057,-96 3057,-66 3211,-66 3211,-96"/>
<text text-anchor="start" x="3065" y="-84" font-family="Helvetica,sans-Serif" font-size="10.00">/home/runner/work/doxygen</text>
<text text-anchor="middle" x="3134" y="-73" font-family="Helvetica,sans-Serif" font-size="10.00">/doxygen/src/outputlist.h</text>
</a>
</g>
</g>
<!-- Node1&#45;&gt;Node8 -->
<g id="edge7" class="edge">
<title>Node1&#45;&gt;Node8</title>
<path fill="none" stroke="#63b8ff" d="M689.33,-143.79C1082.5,-133.85 2685.25,-93.34 3056.82,-83.95"/>
<polygon fill="#63b8ff" stroke="#63b8ff" points="689.07,-140.3 679.16,-144.05 689.25,-147.3 689.07,-140.3"/>
</g>
<!-- Node8&#45;&gt;Node2 -->
<g id="edge12" class="edge">
<title>Node8&#45;&gt;Node2</title>
<path fill="none" stroke="#63b8ff" d="M3046.72,-80.23C2619.31,-81.12 744.36,-81.94 163,-30 160.14,-29.74 157.23,-29.45 154.29,-29.12"/>
<polygon fill="#63b8ff" stroke="#63b8ff" points="3046.85,-83.73 3056.84,-80.21 3046.83,-76.73 3046.85,-83.73"/>
</g>
<!-- Node8&#45;&gt;Node3 -->
<g id="edge16" class="edge">
<title>Node8&#45;&gt;Node3</title>
<path fill="none" stroke="#63b8ff" d="M3046.77,-80.13C2634.71,-80.48 880.45,-79.01 335,-30 332.14,-29.74 329.23,-29.45 326.29,-29.12"/>
<polygon fill="#63b8ff" stroke="#63b8ff" points="3046.84,-83.63 3056.83,-80.12 3046.83,-76.63 3046.84,-83.63"/>
</g>
<!-- Node8&#45;&gt;Node4 -->
<g id="edge20" class="edge">
<title>Node8&#45;&gt;Node4</title>
<path fill="none" stroke="#63b8ff" d="M3046.69,-80.01C2650.21,-79.8 1016.56,-76.09 507,-30 504.14,-29.74 501.23,-29.44 498.29,-29.11"/>
<polygon fill="#63b8ff" stroke="#63b8ff" points="3046.95,-83.51 3056.95,-80.01 3046.95,-76.51 3046.95,-83.51"/>
</g>
<!-- Node8&#45;&gt;Node5 -->
<g id="edge22" class="edge">
<title>Node8&#45;&gt;Node5</title>
<path fill="none" stroke="#63b8ff" d="M3046.86,-79.68C2668.66,-78.08 1167.4,-69.33 697,-30 694.09,-29.76 691.14,-29.48 688.16,-29.18"/>
<polygon fill="#63b8ff" stroke="#63b8ff" points="3046.91,-83.18 3056.92,-79.73 3046.94,-76.18 3046.91,-83.18"/>
</g>
<!-- Node8&#45;&gt;Node6 -->
<g id="edge23" class="edge">
<title>Node8&#45;&gt;Node6</title>
<path fill="none" stroke="#63b8ff" d="M3046.81,-79.7C2685.37,-78.21 1303.37,-69.95 869,-30 866.14,-29.74 863.23,-29.44 860.29,-29.1"/>
<polygon fill="#63b8ff" stroke="#63b8ff" points="3046.94,-83.2 3056.95,-79.74 3046.96,-76.2 3046.94,-83.2"/>
</g>
<!-- Node8&#45;&gt;Node7 -->
<g id="edge24" class="edge">
<title>Node8&#45;&gt;Node7</title>
<path fill="none" stroke="#63b8ff" d="M3046.71,-79.49C2702.75,-77.25 1440.55,-66.66 1042,-30 1038.8,-29.71 1035.54,-29.37 1032.25,-28.99"/>
<polygon fill="#63b8ff" stroke="#63b8ff" points="3046.83,-82.99 3056.86,-79.56 3046.88,-75.99 3046.83,-82.99"/>
</g>
<!-- Node9 -->
<g id="node9" class="node">
<title>Node9</title>
<g id="a_node9"><a xlink:href="../../de/d89/classdef_8cpp.html" target="_top" xlink:title=" ">
<polygon fill="white" stroke="#666666" points="3469,-30 3315,-30 3315,0 3469,0 3469,-30"/>
<text text-anchor="start" x="3323" y="-18" font-family="Helvetica,sans-Serif" font-size="10.00">/home/runner/work/doxygen</text>
<text text-anchor="middle" x="3392" y="-7" font-family="Helvetica,sans-Serif" font-size="10.00">/doxygen/src/classdef.cpp</text>
</a>
</g>
</g>
<!-- Node8&#45;&gt;Node9 -->
<g id="edge8" class="edge">
<title>Node8&#45;&gt;Node9</title>
<path fill="none" stroke="#63b8ff" d="M3200.45,-63.52C3242.29,-53.14 3295.72,-39.88 3335.51,-30.01"/>
<polygon fill="#63b8ff" stroke="#63b8ff" points="3199.48,-60.15 3190.62,-65.95 3201.17,-66.94 3199.48,-60.15"/>
</g>
<!-- Node10 -->
<g id="node10" class="node">
<title>Node10</title>
<g id="a_node10"><a xlink:href="../../d6/d10/classlist_8cpp.html" target="_top" xlink:title=" ">
<polygon fill="white" stroke="#666666" points="3641,-30 3487,-30 3487,0 3641,0 3641,-30"/>
<text text-anchor="start" x="3495" y="-18" font-family="Helvetica,sans-Serif" font-size="10.00">/home/runner/work/doxygen</text>
<text text-anchor="middle" x="3564" y="-7" font-family="Helvetica,sans-Serif" font-size="10.00">/doxygen/src/classlist.cpp</text>
</a>
</g>
</g>
<!-- Node8&#45;&gt;Node10 -->
<g id="edge9" class="edge">
<title>Node8&#45;&gt;Node10</title>
<path fill="none" stroke="#63b8ff" d="M3221.29,-67.73C3290.86,-57.85 3390.73,-43.44 3478,-30 3480.84,-29.56 3483.73,-29.11 3486.65,-28.65"/>
<polygon fill="#63b8ff" stroke="#63b8ff" points="3220.66,-64.29 3211.25,-69.16 3221.64,-71.22 3220.66,-64.29"/>
</g>
<!-- Node11 -->
<g id="node11" class="node">
<title>Node11</title>
<g id="a_node11"><a xlink:href="../../da/d1f/code_8l.html" target="_top" xlink:title=" ">
<polygon fill="white" stroke="#666666" points="3813,-30 3659,-30 3659,0 3813,0 3813,-30"/>
<text text-anchor="start" x="3667" y="-18" font-family="Helvetica,sans-Serif" font-size="10.00">/home/runner/work/doxygen</text>
<text text-anchor="middle" x="3736" y="-7" font-family="Helvetica,sans-Serif" font-size="10.00">/doxygen/src/code.l</text>
</a>
</g>
</g>
<!-- Node8&#45;&gt;Node11 -->
<g id="edge10" class="edge">
<title>Node8&#45;&gt;Node11</title>
<path fill="none" stroke="#63b8ff" d="M3221.12,-73.29C3323.87,-64.98 3499.7,-49.49 3650,-30 3652.85,-29.63 3655.75,-29.24 3658.68,-28.83"/>
<polygon fill="#63b8ff" stroke="#63b8ff" points="3220.79,-69.81 3211.11,-74.1 3221.36,-76.78 3220.79,-69.81"/>
</g>
<!-- Node12 -->
<g id="node12" class="node">
<title>Node12</title>
<g id="a_node12"><a xlink:href="../../d8/d0a/conceptdef_8cpp.html" target="_top" xlink:title=" ">
<polygon fill="white" stroke="#666666" points="3986.5,-30 3831.5,-30 3831.5,0 3986.5,0 3986.5,-30"/>
<text text-anchor="start" x="3839.5" y="-18" font-family="Helvetica,sans-Serif" font-size="10.00">/home/runner/work/doxygen</text>
<text text-anchor="middle" x="3909" y="-7" font-family="Helvetica,sans-Serif" font-size="10.00">/doxygen/src/conceptdef.cpp</text>
</a>
</g>
</g>
<!-- Node8&#45;&gt;Node12 -->
<g id="edge11" class="edge">
<title>Node8&#45;&gt;Node12</title>
<path fill="none" stroke="#63b8ff" d="M3221.43,-76.09C3352.33,-69.68 3606.87,-55.08 3822,-30 3825.04,-29.65 3828.13,-29.26 3831.26,-28.85"/>
<polygon fill="#63b8ff" stroke="#63b8ff" points="3220.89,-72.61 3211.08,-76.59 3221.23,-79.6 3220.89,-72.61"/>
</g>
<!-- Node13 -->
<g id="node13" class="node">
<title>Node13</title>
<g id="a_node13"><a xlink:href="../../d3/dea/definition_8cpp.html" target="_top" xlink:title=" ">
<polygon fill="white" stroke="#666666" points="4159,-30 4005,-30 4005,0 4159,0 4159,-30"/>
<text text-anchor="start" x="4013" y="-18" font-family="Helvetica,sans-Serif" font-size="10.00">/home/runner/work/doxygen</text>
<text text-anchor="middle" x="4082" y="-7" font-family="Helvetica,sans-Serif" font-size="10.00">/doxygen/src/definition.cpp</text>
</a>
</g>
</g>
<!-- Node8&#45;&gt;Node13 -->
<g id="edge13" class="edge">
<title>Node8&#45;&gt;Node13</title>
<path fill="none" stroke="#63b8ff" d="M3221.21,-77.92C3377.1,-73.54 3713.69,-61.08 3996,-30 3998.86,-29.69 4001.76,-29.34 4004.7,-28.97"/>
<polygon fill="#63b8ff" stroke="#63b8ff" points="3221.1,-74.42 3211.2,-78.2 3221.29,-81.42 3221.1,-74.42"/>
</g>
<!-- Node14 -->
<g id="node14" class="node">
<title>Node14</title>
<g id="a_node14"><a xlink:href="../../d8/d52/dirdef_8cpp.html" target="_top" xlink:title=" ">
<polygon fill="white" stroke="#666666" points="4331,-30 4177,-30 4177,0 4331,0 4331,-30"/>
<text text-anchor="start" x="4185" y="-18" font-family="Helvetica,sans-Serif" font-size="10.00">/home/runner/work/doxygen</text>
<text text-anchor="middle" x="4254" y="-7" font-family="Helvetica,sans-Serif" font-size="10.00">/doxygen/src/dirdef.cpp</text>
</a>
</g>
</g>
<!-- Node8&#45;&gt;Node14 -->
<g id="edge14" class="edge">
<title>Node8&#45;&gt;Node14</title>
<path fill="none" stroke="#63b8ff" d="M3221.19,-79.11C3399.48,-76.55 3818.43,-66.79 4168,-30 4170.86,-29.7 4173.77,-29.37 4176.7,-29.01"/>
<polygon fill="#63b8ff" stroke="#63b8ff" points="3221.03,-75.61 3211.08,-79.25 3221.13,-82.61 3221.03,-75.61"/>
</g>
<!-- Node15 -->
<g id="node15" class="node">
<title>Node15</title>
<g id="a_node15"><a xlink:href="../../d8/d29/docbookgen_8cpp.html" target="_top" xlink:title=" ">
<polygon fill="white" stroke="#666666" points="4510.5,-30 4349.5,-30 4349.5,0 4510.5,0 4510.5,-30"/>
<text text-anchor="start" x="4357.5" y="-18" font-family="Helvetica,sans-Serif" font-size="10.00">/home/runner/work/doxygen</text>
<text text-anchor="middle" x="4430" y="-7" font-family="Helvetica,sans-Serif" font-size="10.00">/doxygen/src/docbookgen.cpp</text>
</a>
</g>
</g>
<!-- Node8&#45;&gt;Node15 -->
<g id="edge15" class="edge">
<title>Node8&#45;&gt;Node15</title>
<path fill="none" stroke="#63b8ff" d="M3221.2,-79.75C3420.09,-78.46 3922.34,-71.01 4340,-30 4342.99,-29.71 4346.03,-29.38 4349.1,-29.03"/>
<polygon fill="#63b8ff" stroke="#63b8ff" points="3221.08,-76.25 3211.11,-79.82 3221.13,-83.25 3221.08,-76.25"/>
</g>
<!-- Node16 -->
<g id="node16" class="node">
<title>Node16</title>
<g id="a_node16"><a xlink:href="../../d6/ddc/filedef_8cpp.html" target="_top" xlink:title=" ">
<polygon fill="white" stroke="#666666" points="4683,-30 4529,-30 4529,0 4683,0 4683,-30"/>
<text text-anchor="start" x="4537" y="-18" font-family="Helvetica,sans-Serif" font-size="10.00">/home/runner/work/doxygen</text>
<text text-anchor="middle" x="4606" y="-7" font-family="Helvetica,sans-Serif" font-size="10.00">/doxygen/src/filedef.cpp</text>
</a>
</g>
</g>
<!-- Node8&#45;&gt;Node16 -->
<g id="edge17" class="edge">
<title>Node8&#45;&gt;Node16</title>
<path fill="none" stroke="#63b8ff" d="M3221.39,-80.64C3440.52,-81.42 4030.87,-78.44 4520,-30 4522.86,-29.72 4525.77,-29.4 4528.7,-29.05"/>
<polygon fill="#63b8ff" stroke="#63b8ff" points="3221.25,-77.14 3211.24,-80.6 3221.22,-84.14 3221.25,-77.14"/>
</g>
<!-- Node17 -->
<g id="node17" class="node">
<title>Node17</title>
<g id="a_node17"><a xlink:href="../../d9/d74/fileparser_8cpp.html" target="_top" xlink:title=" ">
<polygon fill="white" stroke="#666666" points="4855,-30 4701,-30 4701,0 4855,0 4855,-30"/>
<text text-anchor="start" x="4709" y="-18" font-family="Helvetica,sans-Serif" font-size="10.00">/home/runner/work/doxygen</text>
<text text-anchor="middle" x="4778" y="-7" font-family="Helvetica,sans-Serif" font-size="10.00">/doxygen/src/fileparser.cpp</text>
</a>
</g>
</g>
<!-- Node8&#45;&gt;Node17 -->
<g id="edge18" class="edge">
<title>Node8&#45;&gt;Node17</title>
<path fill="none" stroke="#63b8ff" d="M3221.37,-78.68C3505.77,-74.17 4403.31,-58.01 4692,-30 4694.86,-29.72 4697.77,-29.41 4700.71,-29.07"/>
<polygon fill="#63b8ff" stroke="#63b8ff" points="3221.05,-75.19 3211.11,-78.85 3221.17,-82.19 3221.05,-75.19"/>
</g>
<!-- Node18 -->
<g id="node18" class="node">
<title>Node18</title>
<g id="a_node18"><a xlink:href="../../d9/d5b/fortrancode_8l.html" target="_top" xlink:title=" ">
<polygon fill="white" stroke="#666666" points="5027,-30 4873,-30 4873,0 5027,0 5027,-30"/>
<text text-anchor="start" x="4881" y="-18" font-family="Helvetica,sans-Serif" font-size="10.00">/home/runner/work/doxygen</text>
<text text-anchor="middle" x="4950" y="-7" font-family="Helvetica,sans-Serif" font-size="10.00">/doxygen/src/fortrancode.l</text>
</a>
</g>
</g>
<!-- Node8&#45;&gt;Node18 -->
<g id="edge19" class="edge">
<title>Node8&#45;&gt;Node18</title>
<path fill="none" stroke="#63b8ff" d="M3221.55,-79.01C3526.38,-75.3 4540.15,-60.9 4864,-30 4866.86,-29.73 4869.77,-29.42 4872.71,-29.08"/>
<polygon fill="#63b8ff" stroke="#63b8ff" points="3221.4,-75.51 3211.44,-79.13 3221.49,-82.51 3221.4,-75.51"/>
</g>
<!-- Node19 -->
<g id="node19" class="node">
<title>Node19</title>
<g id="a_node19"><a xlink:href="../../d6/d42/groupdef_8cpp.html" target="_top" xlink:title=" ">
<polygon fill="white" stroke="#666666" points="5199,-30 5045,-30 5045,0 5199,0 5199,-30"/>
<text text-anchor="start" x="5053" y="-18" font-family="Helvetica,sans-Serif" font-size="10.00">/home/runner/work/doxygen</text>
<text text-anchor="middle" x="5122" y="-7" font-family="Helvetica,sans-Serif" font-size="10.00">/doxygen/src/groupdef.cpp</text>
</a>
</g>
</g>
<!-- Node8&#45;&gt;Node19 -->
<g id="edge21" class="edge">
<title>Node8&#45;&gt;Node19</title>
<path fill="none" stroke="#63b8ff" d="M3221.34,-79.27C3545.13,-76.33 4676.71,-63.81 5036,-30 5038.86,-29.73 5041.77,-29.42 5044.71,-29.09"/>
<polygon fill="#63b8ff" stroke="#63b8ff" points="3221.05,-75.77 3211.08,-79.36 3221.11,-82.77 3221.05,-75.77"/>
</g>
<!-- Node20 -->
<g id="node20" class="node">
<title>Node20</title>
<g id="a_node20"><a xlink:href="../../d1/d4e/latexdocvisitor_8cpp.html" target="_top" xlink:title=" ">
<polygon fill="white" stroke="#666666" points="5391,-30 5217,-30 5217,0 5391,0 5391,-30"/>
<text text-anchor="start" x="5225" y="-18" font-family="Helvetica,sans-Serif" font-size="10.00">/home/runner/work/doxygen</text>
<text text-anchor="middle" x="5304" y="-7" font-family="Helvetica,sans-Serif" font-size="10.00">/doxygen/src/latexdocvisitor.cpp</text>
</a>
</g>
</g>
<!-- Node8&#45;&gt;Node20 -->
<g id="edge25" class="edge">
<title>Node8&#45;&gt;Node20</title>
<path fill="none" stroke="#63b8ff" d="M3221.1,-79.3C3562.87,-76.35 4812.84,-63.45 5208,-30 5210.94,-29.75 5213.92,-29.47 5216.93,-29.17"/>
<polygon fill="#63b8ff" stroke="#63b8ff" points="3220.98,-75.8 3211.02,-79.39 3221.04,-82.8 3220.98,-75.8"/>
</g>
<!-- Node21 -->
<g id="node21" class="node">
<title>Node21</title>
<g id="a_node21"><a xlink:href="../../d4/d42/latexgen_8cpp.html" target="_top" xlink:title=" ">
<polygon fill="white" stroke="#666666" points="5563,-30 5409,-30 5409,0 5563,0 5563,-30"/>
<text text-anchor="start" x="5417" y="-18" font-family="Helvetica,sans-Serif" font-size="10.00">/home/runner/work/doxygen</text>
<text text-anchor="middle" x="5486" y="-7" font-family="Helvetica,sans-Serif" font-size="10.00">/doxygen/src/latexgen.cpp</text>
</a>
</g>
</g>
<!-- Node8&#45;&gt;Node21 -->
<g id="edge26" class="edge">
<title>Node8&#45;&gt;Node21</title>
<path fill="none" stroke="#63b8ff" d="M3221.23,-79.7C3582.83,-78.21 4965.43,-69.97 5400,-30 5402.86,-29.74 5405.77,-29.44 5408.71,-29.1"/>
<polygon fill="#63b8ff" stroke="#63b8ff" points="3221.07,-76.2 3211.08,-79.74 3221.1,-83.2 3221.07,-76.2"/>
</g>
<!-- Node22 -->
<g id="node22" class="node">
<title>Node22</title>
<g id="a_node22"><a xlink:href="../../d0/d7e/lexcode_8l.html" target="_top" xlink:title=" ">
<polygon fill="white" stroke="#666666" points="5735,-30 5581,-30 5581,0 5735,0 5735,-30"/>
<text text-anchor="start" x="5589" y="-18" font-family="Helvetica,sans-Serif" font-size="10.00">/home/runner/work/doxygen</text>
<text text-anchor="middle" x="5658" y="-7" font-family="Helvetica,sans-Serif" font-size="10.00">/doxygen/src/lexcode.l</text>
</a>
</g>
</g>
<!-- Node8&#45;&gt;Node22 -->
<g id="edge27" class="edge">
<title>Node8&#45;&gt;Node22</title>
<path fill="none" stroke="#63b8ff" d="M3221.19,-79.86C3599.61,-79 5101.72,-72.89 5572,-30 5574.86,-29.74 5577.77,-29.44 5580.71,-29.11"/>
<polygon fill="#63b8ff" stroke="#63b8ff" points="3221.12,-76.36 3211.12,-79.88 3221.13,-83.36 3221.12,-76.36"/>
</g>
<!-- Node23 -->
<g id="node23" class="node">
<title>Node23</title>
<g id="a_node23"><a xlink:href="../../d7/de7/mangen_8cpp.html" target="_top" xlink:title=" ">
<polygon fill="white" stroke="#666666" points="5907,-30 5753,-30 5753,0 5907,0 5907,-30"/>
<text text-anchor="start" x="5761" y="-18" font-family="Helvetica,sans-Serif" font-size="10.00">/home/runner/work/doxygen</text>
<text text-anchor="middle" x="5830" y="-7" font-family="Helvetica,sans-Serif" font-size="10.00">/doxygen/src/mangen.cpp</text>
</a>
</g>
</g>
<!-- Node8&#45;&gt;Node23 -->
<g id="edge28" class="edge">
<title>Node8&#45;&gt;Node23</title>
<path fill="none" stroke="#63b8ff" d="M3221.39,-80C3616.45,-79.73 5238.02,-75.8 5744,-30 5746.86,-29.74 5749.77,-29.44 5752.71,-29.11"/>
<polygon fill="#63b8ff" stroke="#63b8ff" points="3221.17,-76.5 3211.18,-80 3221.18,-83.5 3221.17,-76.5"/>
</g>
<!-- Node24 -->
<g id="node24" class="node">
<title>Node24</title>
<g id="a_node24"><a xlink:href="../../d0/d72/memberdef_8cpp.html" target="_top" xlink:title=" ">
<polygon fill="white" stroke="#666666" points="6083,-30 5925,-30 5925,0 6083,0 6083,-30"/>
<text text-anchor="start" x="5933" y="-18" font-family="Helvetica,sans-Serif" font-size="10.00">/home/runner/work/doxygen</text>
<text text-anchor="middle" x="6004" y="-7" font-family="Helvetica,sans-Serif" font-size="10.00">/doxygen/src/memberdef.cpp</text>
</a>
</g>
</g>
<!-- Node8&#45;&gt;Node24 -->
<g id="edge29" class="edge">
<title>Node8&#45;&gt;Node24</title>
<path fill="none" stroke="#63b8ff" d="M3221.03,-80.08C3631.2,-80.18 5373.92,-77.76 5916,-30 5918.93,-29.74 5921.91,-29.45 5924.91,-29.12"/>
<polygon fill="#63b8ff" stroke="#63b8ff" points="3221.02,-76.58 3211.02,-80.07 3221.01,-83.58 3221.02,-76.58"/>
</g>
<!-- Node25 -->
<g id="node25" class="node">
<title>Node25</title>
<g id="a_node25"><a xlink:href="../../d6/d18/membergroup_8cpp.html" target="_top" xlink:title=" ">
<polygon fill="white" stroke="#666666" points="6272.5,-30 6101.5,-30 6101.5,0 6272.5,0 6272.5,-30"/>
<text text-anchor="start" x="6109.5" y="-18" font-family="Helvetica,sans-Serif" font-size="10.00">/home/runner/work/doxygen</text>
<text text-anchor="middle" x="6187" y="-7" font-family="Helvetica,sans-Serif" font-size="10.00">/doxygen/src/membergroup.cpp</text>
</a>
</g>
</g>
<!-- Node8&#45;&gt;Node25 -->
<g id="edge30" class="edge">
<title>Node8&#45;&gt;Node25</title>
<path fill="none" stroke="#63b8ff" d="M3221.24,-80.05C3647.37,-80.06 5512.97,-77.36 6092,-30 6095.07,-29.75 6098.2,-29.46 6101.35,-29.14"/>
<polygon fill="#63b8ff" stroke="#63b8ff" points="3221.14,-76.55 3211.14,-80.05 3221.14,-83.55 3221.14,-76.55"/>
</g>
<!-- Node26 -->
<g id="node26" class="node">
<title>Node26</title>
<g id="a_node26"><a xlink:href="../../d0/d14/memberlist_8cpp.html" target="_top" xlink:title=" ">
<polygon fill="white" stroke="#666666" points="6449,-30 6291,-30 6291,0 6449,0 6449,-30"/>
<text text-anchor="start" x="6299" y="-18" font-family="Helvetica,sans-Serif" font-size="10.00">/home/runner/work/doxygen</text>
<text text-anchor="middle" x="6370" y="-7" font-family="Helvetica,sans-Serif" font-size="10.00">/doxygen/src/memberlist.cpp</text>
</a>
</g>
</g>
<!-- Node8&#45;&gt;Node26 -->
<g id="edge31" class="edge">
<title>Node8&#45;&gt;Node26</title>
<path fill="none" stroke="#63b8ff" d="M3221.37,-80.29C3664.17,-81.5 5663.54,-83.83 6282,-30 6284.93,-29.75 6287.91,-29.45 6290.91,-29.12"/>
<polygon fill="#63b8ff" stroke="#63b8ff" points="3221.21,-76.79 3211.2,-80.26 3221.19,-83.79 3221.21,-76.79"/>
</g>
<!-- Node27 -->
<g id="node27" class="node">
<title>Node27</title>
<g id="a_node27"><a xlink:href="../../d7/d1c/namespacedef_8cpp.html" target="_top" xlink:title=" ">
<polygon fill="white" stroke="#666666" points="1223.5,-30 1050.5,-30 1050.5,0 1223.5,0 1223.5,-30"/>
<text text-anchor="start" x="1058.5" y="-18" font-family="Helvetica,sans-Serif" font-size="10.00">/home/runner/work/doxygen</text>
<text text-anchor="middle" x="1137" y="-7" font-family="Helvetica,sans-Serif" font-size="10.00">/doxygen/src/namespacedef.cpp</text>
</a>
</g>
</g>
<!-- Node8&#45;&gt;Node27 -->
<g id="edge32" class="edge">
<title>Node8&#45;&gt;Node27</title>
<path fill="none" stroke="#63b8ff" d="M3046.72,-79.08C2723.17,-75.45 1592.37,-60.82 1233,-30 1229.9,-29.73 1226.74,-29.43 1223.55,-29.1"/>
<polygon fill="#63b8ff" stroke="#63b8ff" points="3046.94,-82.58 3056.97,-79.19 3047.01,-75.58 3046.94,-82.58"/>
</g>
<!-- Node28 -->
<g id="node28" class="node">
<title>Node28</title>
<g id="a_node28"><a xlink:href="../../db/dd8/outputlist_8cpp.html" target="_top" xlink:title=" ">
<polygon fill="white" stroke="#666666" points="1396,-30 1242,-30 1242,0 1396,0 1396,-30"/>
<text text-anchor="start" x="1250" y="-18" font-family="Helvetica,sans-Serif" font-size="10.00">/home/runner/work/doxygen</text>
<text text-anchor="middle" x="1319" y="-7" font-family="Helvetica,sans-Serif" font-size="10.00">/doxygen/src/outputlist.cpp</text>
</a>
</g>
</g>
<!-- Node8&#45;&gt;Node28 -->
<g id="edge33" class="edge">
<title>Node8&#45;&gt;Node28</title>
<path fill="none" stroke="#63b8ff" d="M3046.5,-79C2741.85,-75.3 1728.66,-60.89 1405,-30 1402.14,-29.73 1399.23,-29.42 1396.29,-29.08"/>
<polygon fill="#63b8ff" stroke="#63b8ff" points="3046.56,-82.5 3056.6,-79.13 3046.64,-75.51 3046.56,-82.5"/>
</g>
<!-- Node29 -->
<g id="node29" class="node">
<title>Node29</title>
<g id="a_node29"><a xlink:href="../../d9/db4/pagedef_8cpp.html" target="_top" xlink:title=" ">
<polygon fill="white" stroke="#666666" points="1568,-30 1414,-30 1414,0 1568,0 1568,-30"/>
<text text-anchor="start" x="1422" y="-18" font-family="Helvetica,sans-Serif" font-size="10.00">/home/runner/work/doxygen</text>
<text text-anchor="middle" x="1491" y="-7" font-family="Helvetica,sans-Serif" font-size="10.00">/doxygen/src/pagedef.cpp</text>
</a>
</g>
</g>
<!-- Node8&#45;&gt;Node29 -->
<g id="edge34" class="edge">
<title>Node8&#45;&gt;Node29</title>
<path fill="none" stroke="#63b8ff" d="M3046.68,-78.68C2762.46,-74.16 1865.5,-58 1577,-30 1574.14,-29.72 1571.23,-29.41 1568.29,-29.07"/>
<polygon fill="#63b8ff" stroke="#63b8ff" points="3046.88,-82.19 3056.94,-78.85 3046.99,-75.19 3046.88,-82.19"/>
</g>
<!-- Node30 -->
<g id="node30" class="node">
<title>Node30</title>
<g id="a_node30"><a xlink:href="../../d3/ded/pycode_8l.html" target="_top" xlink:title=" ">
<polygon fill="white" stroke="#666666" points="1740,-30 1586,-30 1586,0 1740,0 1740,-30"/>
<text text-anchor="start" x="1594" y="-18" font-family="Helvetica,sans-Serif" font-size="10.00">/home/runner/work/doxygen</text>
<text text-anchor="middle" x="1663" y="-7" font-family="Helvetica,sans-Serif" font-size="10.00">/doxygen/src/pycode.l</text>
</a>
</g>
</g>
<!-- Node8&#45;&gt;Node30 -->
<g id="edge35" class="edge">
<title>Node8&#45;&gt;Node30</title>
<path fill="none" stroke="#63b8ff" d="M3046.67,-80.64C2827.7,-81.41 2237.77,-78.41 1749,-30 1746.14,-29.72 1743.23,-29.4 1740.3,-29.05"/>
<polygon fill="#63b8ff" stroke="#63b8ff" points="3046.83,-84.14 3056.82,-80.6 3046.81,-77.14 3046.83,-84.14"/>
</g>
<!-- Node31 -->
<g id="node31" class="node">
<title>Node31</title>
<g id="a_node31"><a xlink:href="../../d0/d9c/rtfgen_8cpp.html" target="_top" xlink:title=" ">
<polygon fill="white" stroke="#666666" points="1912,-30 1758,-30 1758,0 1912,0 1912,-30"/>
<text text-anchor="start" x="1766" y="-18" font-family="Helvetica,sans-Serif" font-size="10.00">/home/runner/work/doxygen</text>
<text text-anchor="middle" x="1835" y="-7" font-family="Helvetica,sans-Serif" font-size="10.00">/doxygen/src/rtfgen.cpp</text>
</a>
</g>
</g>
<!-- Node8&#45;&gt;Node31 -->
<g id="edge36" class="edge">
<title>Node8&#45;&gt;Node31</title>
<path fill="none" stroke="#63b8ff" d="M3046.64,-79.99C2846.81,-79.19 2341.2,-72.71 1921,-30 1918.14,-29.71 1915.23,-29.38 1912.3,-29.03"/>
<polygon fill="#63b8ff" stroke="#63b8ff" points="3046.77,-83.49 3056.78,-80.03 3046.8,-76.49 3046.77,-83.49"/>
</g>
<!-- Node32 -->
<g id="node32" class="node">
<title>Node32</title>
<g id="a_node32"><a xlink:href="../../d2/dda/sqlcode_8l.html" target="_top" xlink:title=" ">
<polygon fill="white" stroke="#666666" points="2084,-30 1930,-30 1930,0 2084,0 2084,-30"/>
<text text-anchor="start" x="1938" y="-18" font-family="Helvetica,sans-Serif" font-size="10.00">/home/runner/work/doxygen</text>
<text text-anchor="middle" x="2007" y="-7" font-family="Helvetica,sans-Serif" font-size="10.00">/doxygen/src/sqlcode.l</text>
</a>
</g>
</g>
<!-- Node8&#45;&gt;Node32 -->
<g id="edge37" class="edge">
<title>Node8&#45;&gt;Node32</title>
<path fill="none" stroke="#63b8ff" d="M3046.56,-79.14C2867.25,-76.65 2445.16,-67 2093,-30 2090.14,-29.7 2087.23,-29.37 2084.3,-29.01"/>
<polygon fill="#63b8ff" stroke="#63b8ff" points="3046.67,-82.65 3056.72,-79.28 3046.77,-75.65 3046.67,-82.65"/>
</g>
<!-- Node33 -->
<g id="node33" class="node">
<title>Node33</title>
<g id="a_node33"><a xlink:href="../../d7/d56/tooltip_8cpp.html" target="_top" xlink:title=" ">
<polygon fill="white" stroke="#666666" points="2256,-30 2102,-30 2102,0 2256,0 2256,-30"/>
<text text-anchor="start" x="2110" y="-18" font-family="Helvetica,sans-Serif" font-size="10.00">/home/runner/work/doxygen</text>
<text text-anchor="middle" x="2179" y="-7" font-family="Helvetica,sans-Serif" font-size="10.00">/doxygen/src/tooltip.cpp</text>
</a>
</g>
</g>
<!-- Node8&#45;&gt;Node33 -->
<g id="edge38" class="edge">
<title>Node8&#45;&gt;Node33</title>
<path fill="none" stroke="#63b8ff" d="M3046.69,-77.98C2889.8,-73.67 2549.97,-61.31 2265,-30 2262.14,-29.69 2259.24,-29.34 2256.3,-28.97"/>
<polygon fill="#63b8ff" stroke="#63b8ff" points="3046.67,-81.48 3056.76,-78.25 3046.86,-74.48 3046.67,-81.48"/>
</g>
<!-- Node34 -->
<g id="node34" class="node">
<title>Node34</title>
<g id="a_node34"><a xlink:href="../../df/d2d/util_8cpp.html" target="_top" xlink:title=" ">
<polygon fill="white" stroke="#666666" points="2428,-30 2274,-30 2274,0 2428,0 2428,-30"/>
<text text-anchor="start" x="2282" y="-18" font-family="Helvetica,sans-Serif" font-size="10.00">/home/runner/work/doxygen</text>
<text text-anchor="middle" x="2351" y="-7" font-family="Helvetica,sans-Serif" font-size="10.00">/doxygen/src/util.cpp</text>
</a>
</g>
</g>
<!-- Node8&#45;&gt;Node34 -->
<g id="edge39" class="edge">
<title>Node8&#45;&gt;Node34</title>
<path fill="none" stroke="#63b8ff" d="M3046.88,-76.27C2914.7,-70.03 2655.72,-55.6 2437,-30 2434.15,-29.67 2431.24,-29.3 2428.31,-28.92"/>
<polygon fill="#63b8ff" stroke="#63b8ff" points="3046.8,-79.77 3056.95,-76.74 3047.12,-72.77 3046.8,-79.77"/>
</g>
<!-- Node35 -->
<g id="node35" class="node">
<title>Node35</title>
<g id="a_node35"><a xlink:href="../../d5/d6a/vhdlcode_8l.html" target="_top" xlink:title=" ">
<polygon fill="white" stroke="#666666" points="2600,-30 2446,-30 2446,0 2600,0 2600,-30"/>
<text text-anchor="start" x="2454" y="-18" font-family="Helvetica,sans-Serif" font-size="10.00">/home/runner/work/doxygen</text>
<text text-anchor="middle" x="2523" y="-7" font-family="Helvetica,sans-Serif" font-size="10.00">/doxygen/src/vhdlcode.l</text>
</a>
</g>
</g>
<!-- Node8&#45;&gt;Node35 -->
<g id="edge40" class="edge">
<title>Node8&#45;&gt;Node35</title>
<path fill="none" stroke="#63b8ff" d="M3046.7,-73.47C2942.36,-65.25 2762.57,-49.79 2609,-30 2606.15,-29.63 2603.25,-29.24 2600.32,-28.84"/>
<polygon fill="#63b8ff" stroke="#63b8ff" points="3046.63,-76.98 3056.87,-74.27 3047.17,-70 3046.63,-76.98"/>
</g>
<!-- Node36 -->
<g id="node36" class="node">
<title>Node36</title>
<g id="a_node36"><a xlink:href="../../de/dea/vhdldocgen_8cpp.html" target="_top" xlink:title=" ">
<polygon fill="white" stroke="#666666" points="2776,-30 2618,-30 2618,0 2776,0 2776,-30"/>
<text text-anchor="start" x="2626" y="-18" font-family="Helvetica,sans-Serif" font-size="10.00">/home/runner/work/doxygen</text>
<text text-anchor="middle" x="2697" y="-7" font-family="Helvetica,sans-Serif" font-size="10.00">/doxygen/src/vhdldocgen.cpp</text>
</a>
</g>
</g>
<!-- Node8&#45;&gt;Node36 -->
<g id="edge41" class="edge">
<title>Node8&#45;&gt;Node36</title>
<path fill="none" stroke="#63b8ff" d="M3046.48,-67.84C2975.86,-57.94 2873.98,-43.45 2785,-30 2782.09,-29.56 2779.13,-29.11 2776.15,-28.65"/>
<polygon fill="#63b8ff" stroke="#63b8ff" points="3046.28,-71.35 3056.67,-69.27 3047.25,-64.42 3046.28,-71.35"/>
</g>
<!-- Node37 -->
<g id="node37" class="node">
<title>Node37</title>
<g id="a_node37"><a xlink:href="../../d1/d86/vhdljjparser_8cpp.html" target="_top" xlink:title=" ">
<polygon fill="white" stroke="#666666" points="2952.5,-30 2793.5,-30 2793.5,0 2952.5,0 2952.5,-30"/>
<text text-anchor="start" x="2801.5" y="-18" font-family="Helvetica,sans-Serif" font-size="10.00">/home/runner/work/doxygen</text>
<text text-anchor="middle" x="2873" y="-7" font-family="Helvetica,sans-Serif" font-size="10.00">/doxygen/src/vhdljjparser.cpp</text>
</a>
</g>
</g>
<!-- Node8&#45;&gt;Node37 -->
<g id="edge42" class="edge">
<title>Node8&#45;&gt;Node37</title>
<path fill="none" stroke="#63b8ff" d="M3066.78,-63.52C3024.45,-53.14 2970.4,-39.88 2930.14,-30.01"/>
<polygon fill="#63b8ff" stroke="#63b8ff" points="3066.18,-66.97 3076.72,-65.95 3067.84,-60.17 3066.18,-66.97"/>
</g>
<!-- Node38 -->
<g id="node38" class="node">
<title>Node38</title>
<g id="a_node38"><a xlink:href="../../dc/dc1/xmlcode_8l.html" target="_top" xlink:title=" ">
<polygon fill="white" stroke="#666666" points="3125,-30 2971,-30 2971,0 3125,0 3125,-30"/>
<text text-anchor="start" x="2979" y="-18" font-family="Helvetica,sans-Serif" font-size="10.00">/home/runner/work/doxygen</text>
<text text-anchor="middle" x="3048" y="-7" font-family="Helvetica,sans-Serif" font-size="10.00">/doxygen/src/xmlcode.l</text>
</a>
</g>
</g>
<!-- Node8&#45;&gt;Node38 -->
<g id="edge43" class="edge">
<title>Node8&#45;&gt;Node38</title>
<path fill="none" stroke="#63b8ff" d="M3106.79,-59.75C3093.86,-50.13 3078.71,-38.86 3067.03,-30.16"/>
<polygon fill="#63b8ff" stroke="#63b8ff" points="3104.8,-62.63 3114.91,-65.8 3108.98,-57.02 3104.8,-62.63"/>
</g>
<!-- Node39 -->
<g id="node39" class="node">
<title>Node39</title>
<g id="a_node39"><a xlink:href="../../d0/dc3/xmlgen_8cpp.html" target="_top" xlink:title=" ">
<polygon fill="white" stroke="#666666" points="3297,-30 3143,-30 3143,0 3297,0 3297,-30"/>
<text text-anchor="start" x="3151" y="-18" font-family="Helvetica,sans-Serif" font-size="10.00">/home/runner/work/doxygen</text>
<text text-anchor="middle" x="3220" y="-7" font-family="Helvetica,sans-Serif" font-size="10.00">/doxygen/src/xmlgen.cpp</text>
</a>
</g>
</g>
<!-- Node8&#45;&gt;Node39 -->
<g id="edge44" class="edge">
<title>Node8&#45;&gt;Node39</title>
<path fill="none" stroke="#63b8ff" d="M3161.21,-59.75C3174.14,-50.13 3189.29,-38.86 3200.97,-30.16"/>
<polygon fill="#63b8ff" stroke="#63b8ff" points="3159.02,-57.02 3153.09,-65.8 3163.2,-62.63 3159.02,-57.02"/>
</g>
</g>
</svg>
