<?xml version="1.0" encoding="UTF-8" standalone="no"?>
<!DOCTYPE svg PUBLIC "-//W3C//DTD SVG 1.1//EN"
 "http://www.w3.org/Graphics/SVG/1.1/DTD/svg11.dtd">
<!-- Generated by graphviz version 2.43.0 (0)
 -->
<!-- Title: /home/runner/work/doxygen/doxygen/src/docnode.h Pages: 1 -->
<!--zoomable 258 -->
<svg id="main" version="1.1" xmlns="http://www.w3.org/2000/svg" xmlns:xlink="http://www.w3.org/1999/xlink" xml:space="preserve" onload="init(evt)">
<style type="text/css"><![CDATA[
.edge:hover path { stroke: red; }
.edge:hover polygon { stroke: red; fill: red; }
]]></style>
<script type="text/javascript"><![CDATA[
var edges = document.getElementsByTagName('g');
if (edges && edges.length) {
  for (var i=0;i<edges.length;i++) {
    if (edges[i].id.substr(0,4)=='edge') {
      edges[i].setAttribute('class','edge');
    }
  }
}
]]></script>
        <defs>
                <circle id="rim" cx="0" cy="0" r="7"/>
                <circle id="rim2" cx="0" cy="0" r="3.5"/>
                <g id="zoomPlus">
                        <use xlink:href="#rim" fill="#404040">
                                <set attributeName="fill" to="#808080" begin="zoomplus.mouseover" end="zoomplus.mouseout"/>
                        </use>
                        <path d="M-4,0h8M0,-4v8" fill="none" stroke="white" stroke-width="1.5" pointer-events="none"/>
                </g>
                <g id="zoomMin">
                        <use xlink:href="#rim" fill="#404040">
                                <set attributeName="fill" to="#808080" begin="zoomminus.mouseover" end="zoomminus.mouseout"/>
                        </use>
                        <path d="M-4,0h8" fill="none" stroke="white" stroke-width="1.5" pointer-events="none"/>
                </g>
                <g id="dirArrow">
                        <path fill="none" stroke="white" stroke-width="1.5" d="M0,-3.0v7 M-2.5,-0.5L0,-3.0L2.5,-0.5"/>
                </g>
               <g id="resetDef">
                       <use xlink:href="#rim2" fill="#404040">
                               <set attributeName="fill" to="#808080" begin="reset.mouseover" end="reset.mouseout"/>
                       </use>
               </g>
        </defs>

<script type="text/javascript">
var viewWidth = 982;
var viewHeight = 258;
var sectionId = 'dynsection-0';
</script>
<script xlink:href="../../svgpan.js"/>
<svg id="graph" class="graph">
<g id="viewport">
<title>/home/runner/work/doxygen/doxygen/src/docnode.h</title>
<!-- Node1 -->
<g id="node1" class="node">
<title>Node1</title>
<g id="a_node1"><a xlink:title=" ">
<polygon fill="#999999" stroke="#666666" points="362.73,-250 208.73,-250 208.73,-220 362.73,-220 362.73,-250"/>
<text text-anchor="start" x="216.73" y="-238" font-family="Helvetica,sans-Serif" font-size="10.00">/home/runner/work/doxygen</text>
<text text-anchor="middle" x="285.73" y="-227" font-family="Helvetica,sans-Serif" font-size="10.00">/doxygen/src/docnode.h</text>
</a>
</g>
</g>
<!-- Node2 -->
<g id="node2" class="node">
<title>Node2</title>
<g id="a_node2"><a xlink:title=" ">
<polygon fill="#e0e0e0" stroke="#999999" points="66.73,-129 16.73,-129 16.73,-110 66.73,-110 66.73,-129"/>
<text text-anchor="middle" x="41.73" y="-117" font-family="Helvetica,sans-Serif" font-size="10.00">stdio.h</text>
</a>
</g>
</g>
<!-- Node1&#45;&gt;Node2 -->
<g id="edge1" class="edge">
<title>Node1&#45;&gt;Node2</title>
<path fill="none" stroke="#63b8ff" d="M208.57,-227.6C147.43,-220.81 68.89,-207.7 47.73,-184 37.02,-172.01 36.53,-153.19 38.11,-139.15"/>
<polygon fill="#63b8ff" stroke="#63b8ff" points="41.59,-139.56 39.67,-129.14 34.67,-138.48 41.59,-139.56"/>
</g>
<!-- Node3 -->
<g id="node3" class="node">
<title>Node3</title>
<g id="a_node3"><a xlink:title=" ">
<polygon fill="#e0e0e0" stroke="#999999" points="260.23,-74 213.23,-74 213.23,-55 260.23,-55 260.23,-74"/>
<text text-anchor="middle" x="236.73" y="-62" font-family="Helvetica,sans-Serif" font-size="10.00">vector</text>
</a>
</g>
</g>
<!-- Node1&#45;&gt;Node3 -->
<g id="edge2" class="edge">
<title>Node1&#45;&gt;Node3</title>
<path fill="none" stroke="#63b8ff" d="M298.54,-219.97C309.51,-206.2 322.53,-184.49 315.73,-165 303.66,-130.38 273.95,-98.76 254.6,-80.85"/>
<polygon fill="#63b8ff" stroke="#63b8ff" points="256.8,-78.12 247.03,-74.04 252.12,-83.33 256.8,-78.12"/>
</g>
<!-- Node4 -->
<g id="node4" class="node">
<title>Node4</title>
<g id="a_node4"><a xlink:title=" ">
<polygon fill="#e0e0e0" stroke="#999999" points="123.73,-74 65.73,-74 65.73,-55 123.73,-55 123.73,-74"/>
<text text-anchor="middle" x="94.73" y="-62" font-family="Helvetica,sans-Serif" font-size="10.00">memory</text>
</a>
</g>
</g>
<!-- Node1&#45;&gt;Node4 -->
<g id="edge3" class="edge">
<title>Node1&#45;&gt;Node4</title>
<path fill="none" stroke="#63b8ff" d="M208.44,-225.97C145.37,-218.09 62.49,-204.29 35.73,-184 7.71,-162.76 -10.62,-140 7.73,-110 18.26,-92.78 37.8,-81.96 55.69,-75.3"/>
<polygon fill="#63b8ff" stroke="#63b8ff" points="57.04,-78.54 65.39,-72.02 54.8,-71.91 57.04,-78.54"/>
</g>
<!-- Node5 -->
<g id="node5" class="node">
<title>Node5</title>
<g id="a_node5"><a xlink:title=" ">
<polygon fill="#e0e0e0" stroke="#999999" points="199.23,-184 148.23,-184 148.23,-165 199.23,-165 199.23,-184"/>
<text text-anchor="middle" x="173.73" y="-172" font-family="Helvetica,sans-Serif" font-size="10.00">variant</text>
</a>
</g>
</g>
<!-- Node1&#45;&gt;Node5 -->
<g id="edge4" class="edge">
<title>Node1&#45;&gt;Node5</title>
<path fill="none" stroke="#63b8ff" d="M258.9,-219.99C240.89,-210.58 217.28,-198.24 199.48,-188.95"/>
<polygon fill="#63b8ff" stroke="#63b8ff" points="200.76,-185.67 190.27,-184.14 197.51,-191.87 200.76,-185.67"/>
</g>
<!-- Node6 -->
<g id="node6" class="node">
<title>Node6</title>
<g id="a_node6"><a xlink:href="../../d7/d5c/qcstring_8h.html" target="_top" xlink:title=" ">
<polygon fill="white" stroke="#666666" points="514.23,-129 449.23,-129 449.23,-110 514.23,-110 514.23,-129"/>
<text text-anchor="middle" x="481.73" y="-117" font-family="Helvetica,sans-Serif" font-size="10.00">qcstring.h</text>
</a>
</g>
</g>
<!-- Node1&#45;&gt;Node6 -->
<g id="edge5" class="edge">
<title>Node1&#45;&gt;Node6</title>
<path fill="none" stroke="#63b8ff" d="M362.78,-230.73C399.31,-225.17 440.76,-212.39 467.73,-184 479.02,-172.12 482.01,-153.29 482.48,-139.21"/>
<polygon fill="#63b8ff" stroke="#63b8ff" points="485.98,-139.15 482.43,-129.17 478.98,-139.19 485.98,-139.15"/>
</g>
<!-- Node16 -->
<g id="node16" class="node">
<title>Node16</title>
<g id="a_node16"><a xlink:href="../../d2/d3c/docvisitor_8h.html" target="_top" xlink:title=" ">
<polygon fill="white" stroke="#666666" points="290.23,-184 217.23,-184 217.23,-165 290.23,-165 290.23,-184"/>
<text text-anchor="middle" x="253.73" y="-172" font-family="Helvetica,sans-Serif" font-size="10.00">docvisitor.h</text>
</a>
</g>
</g>
<!-- Node1&#45;&gt;Node16 -->
<g id="edge17" class="edge">
<title>Node1&#45;&gt;Node16</title>
<path fill="none" stroke="#63b8ff" d="M277.99,-219.84C273.58,-211.78 268.02,-201.62 263.33,-193.06"/>
<polygon fill="#63b8ff" stroke="#63b8ff" points="266.4,-191.36 258.53,-184.27 260.26,-194.72 266.4,-191.36"/>
</g>
<!-- Node17 -->
<g id="node17" class="node">
<title>Node17</title>
<g id="a_node17"><a xlink:href="../../de/d9c/docparser_8h.html" target="_top" xlink:title=" ">
<polygon fill="white" stroke="#666666" points="130.23,-184 57.23,-184 57.23,-165 130.23,-165 130.23,-184"/>
<text text-anchor="middle" x="93.73" y="-172" font-family="Helvetica,sans-Serif" font-size="10.00">docparser.h</text>
</a>
</g>
</g>
<!-- Node1&#45;&gt;Node17 -->
<g id="edge20" class="edge">
<title>Node1&#45;&gt;Node17</title>
<path fill="none" stroke="#63b8ff" d="M239.74,-219.99C206.61,-209.89 162.44,-196.44 131.39,-186.98"/>
<polygon fill="#63b8ff" stroke="#63b8ff" points="132.39,-183.62 121.8,-184.05 130.35,-190.32 132.39,-183.62"/>
</g>
<!-- Node18 -->
<g id="node18" class="node">
<title>Node18</title>
<g id="a_node18"><a xlink:href="../../d7/d50/growvector_8h.html" target="_top" xlink:title=" ">
<polygon fill="white" stroke="#666666" points="240.73,-129 160.73,-129 160.73,-110 240.73,-110 240.73,-129"/>
<text text-anchor="middle" x="200.73" y="-117" font-family="Helvetica,sans-Serif" font-size="10.00">growvector.h</text>
</a>
</g>
</g>
<!-- Node1&#45;&gt;Node18 -->
<g id="edge35" class="edge">
<title>Node1&#45;&gt;Node18</title>
<path fill="none" stroke="#63b8ff" d="M294.22,-219.92C301.92,-205.13 310.55,-181.73 299.73,-165 288.66,-147.89 269.28,-137.29 250.58,-130.76"/>
<polygon fill="#63b8ff" stroke="#63b8ff" points="251.5,-127.38 240.91,-127.7 249.39,-134.06 251.5,-127.38"/>
</g>
<!-- Node20 -->
<g id="node20" class="node">
<title>Node20</title>
<g id="a_node20"><a xlink:href="../../d0/d73/htmlattrib_8h.html" target="_top" xlink:title=" ">
<polygon fill="white" stroke="#666666" points="458.73,-184 384.73,-184 384.73,-165 458.73,-165 458.73,-184"/>
<text text-anchor="middle" x="421.73" y="-172" font-family="Helvetica,sans-Serif" font-size="10.00">htmlattrib.h</text>
</a>
</g>
</g>
<!-- Node1&#45;&gt;Node20 -->
<g id="edge28" class="edge">
<title>Node1&#45;&gt;Node20</title>
<path fill="none" stroke="#63b8ff" d="M318.31,-219.99C340.8,-210.31 370.45,-197.56 392.24,-188.18"/>
<polygon fill="#63b8ff" stroke="#63b8ff" points="393.84,-191.31 401.65,-184.14 391.08,-184.88 393.84,-191.31"/>
</g>
<!-- Node21 -->
<g id="node21" class="node">
<title>Node21</title>
<g id="a_node21"><a xlink:href="../../db/dc6/htmlentity_8h.html" target="_top" xlink:title=" ">
<polygon fill="white" stroke="#666666" points="740.23,-184 665.23,-184 665.23,-165 740.23,-165 740.23,-184"/>
<text text-anchor="middle" x="702.73" y="-172" font-family="Helvetica,sans-Serif" font-size="10.00">htmlentity.h</text>
</a>
</g>
</g>
<!-- Node1&#45;&gt;Node21 -->
<g id="edge31" class="edge">
<title>Node1&#45;&gt;Node21</title>
<path fill="none" stroke="#63b8ff" d="M363.19,-223.13C448.72,-211.13 583.73,-192.19 655.01,-182.2"/>
<polygon fill="#63b8ff" stroke="#63b8ff" points="655.63,-185.64 665.05,-180.79 654.66,-178.71 655.63,-185.64"/>
</g>
<!-- Node7 -->
<g id="node7" class="node">
<title>Node7</title>
<g id="a_node7"><a xlink:title=" ">
<polygon fill="#e0e0e0" stroke="#999999" points="836.73,-19 792.73,-19 792.73,0 836.73,0 836.73,-19"/>
<text text-anchor="middle" x="814.73" y="-7" font-family="Helvetica,sans-Serif" font-size="10.00">string</text>
</a>
</g>
</g>
<!-- Node6&#45;&gt;Node7 -->
<g id="edge6" class="edge">
<title>Node6&#45;&gt;Node7</title>
<path fill="none" stroke="#63b8ff" d="M514.24,-118.2C585.82,-116.87 753.99,-109.91 795.73,-74 808.53,-62.99 812.9,-43.73 814.3,-29.3"/>
<polygon fill="#63b8ff" stroke="#63b8ff" points="817.81,-29.2 814.89,-19.02 810.82,-28.8 817.81,-29.2"/>
</g>
<!-- Node8 -->
<g id="node8" class="node">
<title>Node8</title>
<g id="a_node8"><a xlink:title=" ">
<polygon fill="#e0e0e0" stroke="#999999" points="650.73,-74 586.73,-74 586.73,-55 650.73,-55 650.73,-74"/>
<text text-anchor="middle" x="618.73" y="-62" font-family="Helvetica,sans-Serif" font-size="10.00">algorithm</text>
</a>
</g>
</g>
<!-- Node6&#45;&gt;Node8 -->
<g id="edge7" class="edge">
<title>Node6&#45;&gt;Node8</title>
<path fill="none" stroke="#63b8ff" d="M503.74,-109.98C526.18,-101.3 561.21,-87.75 586.72,-77.88"/>
<polygon fill="#63b8ff" stroke="#63b8ff" points="588.26,-81.04 596.32,-74.17 585.73,-74.51 588.26,-81.04"/>
</g>
<!-- Node9 -->
<g id="node9" class="node">
<title>Node9</title>
<g id="a_node9"><a xlink:title=" ">
<polygon fill="#e0e0e0" stroke="#999999" points="718.23,-74 669.23,-74 669.23,-55 718.23,-55 718.23,-74"/>
<text text-anchor="middle" x="693.73" y="-62" font-family="Helvetica,sans-Serif" font-size="10.00">cctype</text>
</a>
</g>
</g>
<!-- Node6&#45;&gt;Node9 -->
<g id="edge8" class="edge">
<title>Node6&#45;&gt;Node9</title>
<path fill="none" stroke="#63b8ff" d="M514.39,-110.33C553.6,-100.53 619.08,-84.16 659.14,-74.15"/>
<polygon fill="#63b8ff" stroke="#63b8ff" points="660.13,-77.51 668.98,-71.69 658.43,-70.72 660.13,-77.51"/>
</g>
<!-- Node10 -->
<g id="node10" class="node">
<title>Node10</title>
<g id="a_node10"><a xlink:title=" ">
<polygon fill="#e0e0e0" stroke="#999999" points="786.73,-74 736.73,-74 736.73,-55 786.73,-55 786.73,-74"/>
<text text-anchor="middle" x="761.73" y="-62" font-family="Helvetica,sans-Serif" font-size="10.00">cstring</text>
</a>
</g>
</g>
<!-- Node6&#45;&gt;Node10 -->
<g id="edge9" class="edge">
<title>Node6&#45;&gt;Node10</title>
<path fill="none" stroke="#63b8ff" d="M514.5,-113.28C559.93,-105.89 644.81,-91.52 726.57,-74.13"/>
<polygon fill="#63b8ff" stroke="#63b8ff" points="727.48,-77.52 736.52,-72 726.01,-70.67 727.48,-77.52"/>
</g>
<!-- Node11 -->
<g id="node11" class="node">
<title>Node11</title>
<g id="a_node11"><a xlink:title=" ">
<polygon fill="#e0e0e0" stroke="#999999" points="362.73,-74 316.73,-74 316.73,-55 362.73,-55 362.73,-74"/>
<text text-anchor="middle" x="339.73" y="-62" font-family="Helvetica,sans-Serif" font-size="10.00">cstdio</text>
</a>
</g>
</g>
<!-- Node6&#45;&gt;Node11 -->
<g id="edge10" class="edge">
<title>Node6&#45;&gt;Node11</title>
<path fill="none" stroke="#63b8ff" d="M458.92,-109.98C435.56,-101.27 399.03,-87.63 372.56,-77.75"/>
<polygon fill="#63b8ff" stroke="#63b8ff" points="373.55,-74.39 362.96,-74.17 371.11,-80.95 373.55,-74.39"/>
</g>
<!-- Node12 -->
<g id="node12" class="node">
<title>Node12</title>
<g id="a_node12"><a xlink:title=" ">
<polygon fill="#e0e0e0" stroke="#999999" points="430.23,-74 381.23,-74 381.23,-55 430.23,-55 430.23,-74"/>
<text text-anchor="middle" x="405.73" y="-62" font-family="Helvetica,sans-Serif" font-size="10.00">cstdlib</text>
</a>
</g>
</g>
<!-- Node6&#45;&gt;Node12 -->
<g id="edge11" class="edge">
<title>Node6&#45;&gt;Node12</title>
<path fill="none" stroke="#63b8ff" d="M469.52,-109.98C457.96,-101.92 440.36,-89.65 426.57,-80.03"/>
<polygon fill="#63b8ff" stroke="#63b8ff" points="428.37,-77.02 418.16,-74.17 424.36,-82.76 428.37,-77.02"/>
</g>
<!-- Node13 -->
<g id="node13" class="node">
<title>Node13</title>
<g id="a_node13"><a xlink:title=" ">
<polygon fill="#e0e0e0" stroke="#999999" points="442.73,-19 392.73,-19 392.73,0 442.73,0 442.73,-19"/>
<text text-anchor="middle" x="417.73" y="-7" font-family="Helvetica,sans-Serif" font-size="10.00">cstdint</text>
</a>
</g>
</g>
<!-- Node6&#45;&gt;Node13 -->
<g id="edge12" class="edge">
<title>Node6&#45;&gt;Node13</title>
<path fill="none" stroke="#63b8ff" d="M449.1,-112.38C401.17,-103.07 316.46,-85.24 307.73,-74 284.42,-43.97 342.39,-25.59 382.74,-16.79"/>
<polygon fill="#63b8ff" stroke="#63b8ff" points="383.47,-20.21 392.55,-14.75 382.05,-13.35 383.47,-20.21"/>
</g>
<!-- Node14 -->
<g id="node14" class="node">
<title>Node14</title>
<g id="a_node14"><a xlink:title=" ">
<polygon fill="#e0e0e0" stroke="#999999" points="505.23,-74 448.23,-74 448.23,-55 505.23,-55 505.23,-74"/>
<text text-anchor="middle" x="476.73" y="-62" font-family="Helvetica,sans-Serif" font-size="10.00">ostream</text>
</a>
</g>
</g>
<!-- Node6&#45;&gt;Node14 -->
<g id="edge13" class="edge">
<title>Node6&#45;&gt;Node14</title>
<path fill="none" stroke="#63b8ff" d="M480.91,-109.75C480.25,-102.8 479.31,-92.85 478.49,-84.13"/>
<polygon fill="#63b8ff" stroke="#63b8ff" points="481.97,-83.72 477.54,-74.09 475,-84.37 481.97,-83.72"/>
</g>
<!-- Node15 -->
<g id="node15" class="node">
<title>Node15</title>
<g id="a_node15"><a xlink:href="../../db/d7c/utf8_8h.html" target="_top" xlink:title="Various UTF8 related helper functions.">
<polygon fill="white" stroke="#666666" points="568.23,-74 523.23,-74 523.23,-55 568.23,-55 568.23,-74"/>
<text text-anchor="middle" x="545.73" y="-62" font-family="Helvetica,sans-Serif" font-size="10.00">utf8.h</text>
</a>
</g>
</g>
<!-- Node6&#45;&gt;Node15 -->
<g id="edge14" class="edge">
<title>Node6&#45;&gt;Node15</title>
<path fill="none" stroke="#63b8ff" d="M492.01,-109.98C501.57,-102.07 516.01,-90.11 527.52,-80.58"/>
<polygon fill="#63b8ff" stroke="#63b8ff" points="529.79,-83.24 535.26,-74.17 525.33,-77.85 529.79,-83.24"/>
</g>
<!-- Node15&#45;&gt;Node7 -->
<g id="edge16" class="edge">
<title>Node15&#45;&gt;Node7</title>
<path fill="none" stroke="#63b8ff" d="M568.41,-57.26C571.53,-56.46 574.7,-55.69 577.73,-55 650.65,-38.49 737.17,-23.36 782.83,-15.72"/>
<polygon fill="#63b8ff" stroke="#63b8ff" points="783.44,-19.16 792.73,-14.07 782.29,-12.26 783.44,-19.16"/>
</g>
<!-- Node15&#45;&gt;Node13 -->
<g id="edge15" class="edge">
<title>Node15&#45;&gt;Node13</title>
<path fill="none" stroke="#63b8ff" d="M525.17,-54.98C504.3,-46.34 471.76,-32.87 447.96,-23.02"/>
<polygon fill="#63b8ff" stroke="#63b8ff" points="449.25,-19.76 438.67,-19.17 446.57,-26.23 449.25,-19.76"/>
</g>
<!-- Node16&#45;&gt;Node4 -->
<g id="edge18" class="edge">
<title>Node16&#45;&gt;Node4</title>
<path fill="none" stroke="#63b8ff" d="M225.64,-164.91C204.15,-157.5 174.44,-145.4 151.73,-129 133.8,-116.05 117.4,-96.61 106.84,-82.65"/>
<polygon fill="#63b8ff" stroke="#63b8ff" points="109.52,-80.39 100.79,-74.39 103.87,-84.53 109.52,-80.39"/>
</g>
<!-- Node16&#45;&gt;Node6 -->
<g id="edge19" class="edge">
<title>Node16&#45;&gt;Node6</title>
<path fill="none" stroke="#63b8ff" d="M290.36,-164.98C330.92,-155.56 396.21,-140.38 439.04,-130.42"/>
<polygon fill="#63b8ff" stroke="#63b8ff" points="439.94,-133.81 448.89,-128.13 438.36,-126.99 439.94,-133.81"/>
</g>
<!-- Node17&#45;&gt;Node2 -->
<g id="edge21" class="edge">
<title>Node17&#45;&gt;Node2</title>
<path fill="none" stroke="#63b8ff" d="M85.14,-164.75C77.57,-157.03 66.35,-145.6 57.22,-136.28"/>
<polygon fill="#63b8ff" stroke="#63b8ff" points="59.66,-133.78 50.16,-129.09 54.66,-138.68 59.66,-133.78"/>
</g>
<!-- Node17&#45;&gt;Node4 -->
<g id="edge22" class="edge">
<title>Node17&#45;&gt;Node4</title>
<path fill="none" stroke="#63b8ff" d="M93.81,-164.66C93.98,-147.17 94.34,-107.8 94.56,-84.27"/>
<polygon fill="#63b8ff" stroke="#63b8ff" points="98.06,-84.19 94.65,-74.16 91.06,-84.13 98.06,-84.19"/>
</g>
<!-- Node17&#45;&gt;Node6 -->
<g id="edge23" class="edge">
<title>Node17&#45;&gt;Node6</title>
<path fill="none" stroke="#63b8ff" d="M130.36,-166.55C133.53,-166 136.68,-165.48 139.73,-165 247.03,-148.12 373.99,-132.82 438.87,-125.33"/>
<polygon fill="#63b8ff" stroke="#63b8ff" points="439.58,-128.78 449.11,-124.16 438.78,-121.82 439.58,-128.78"/>
</g>
<!-- Node17&#45;&gt;Node18 -->
<g id="edge24" class="edge">
<title>Node17&#45;&gt;Node18</title>
<path fill="none" stroke="#63b8ff" d="M110.92,-164.98C127.98,-156.54 154.36,-143.47 174.13,-133.68"/>
<polygon fill="#63b8ff" stroke="#63b8ff" points="175.82,-136.75 183.23,-129.17 172.71,-130.47 175.82,-136.75"/>
</g>
<!-- Node18&#45;&gt;Node3 -->
<g id="edge25" class="edge">
<title>Node18&#45;&gt;Node3</title>
<path fill="none" stroke="#63b8ff" d="M206.68,-109.75C211.71,-102.34 219.07,-91.5 225.24,-82.41"/>
<polygon fill="#63b8ff" stroke="#63b8ff" points="228.17,-84.33 230.9,-74.09 222.38,-80.39 228.17,-84.33"/>
</g>
<!-- Node18&#45;&gt;Node4 -->
<g id="edge26" class="edge">
<title>Node18&#45;&gt;Node4</title>
<path fill="none" stroke="#63b8ff" d="M183.7,-109.98C166.8,-101.54 140.67,-88.47 121.09,-78.68"/>
<polygon fill="#63b8ff" stroke="#63b8ff" points="122.58,-75.51 112.07,-74.17 119.45,-81.77 122.58,-75.51"/>
</g>
<!-- Node19 -->
<g id="node19" class="node">
<title>Node19</title>
<g id="a_node19"><a xlink:title=" ">
<polygon fill="#e0e0e0" stroke="#999999" points="195.23,-74 142.23,-74 142.23,-55 195.23,-55 195.23,-74"/>
<text text-anchor="middle" x="168.73" y="-62" font-family="Helvetica,sans-Serif" font-size="10.00">iterator</text>
</a>
</g>
</g>
<!-- Node18&#45;&gt;Node19 -->
<g id="edge27" class="edge">
<title>Node18&#45;&gt;Node19</title>
<path fill="none" stroke="#63b8ff" d="M195.45,-109.75C191.02,-102.42 184.57,-91.73 179.11,-82.7"/>
<polygon fill="#63b8ff" stroke="#63b8ff" points="182.08,-80.84 173.92,-74.09 176.09,-84.46 182.08,-80.84"/>
</g>
<!-- Node20&#45;&gt;Node3 -->
<g id="edge29" class="edge">
<title>Node20&#45;&gt;Node3</title>
<path fill="none" stroke="#63b8ff" d="M416.97,-164.78C409.1,-151.16 392.1,-124.85 370.73,-110 340.26,-88.82 298.96,-77.13 270.3,-71.11"/>
<polygon fill="#63b8ff" stroke="#63b8ff" points="270.84,-67.65 260.35,-69.14 269.48,-74.51 270.84,-67.65"/>
</g>
<!-- Node20&#45;&gt;Node6 -->
<g id="edge30" class="edge">
<title>Node20&#45;&gt;Node6</title>
<path fill="none" stroke="#63b8ff" d="M431.37,-164.98C440.24,-157.15 453.61,-145.34 464.34,-135.86"/>
<polygon fill="#63b8ff" stroke="#63b8ff" points="466.74,-138.41 471.92,-129.17 462.1,-133.17 466.74,-138.41"/>
</g>
<!-- Node21&#45;&gt;Node6 -->
<g id="edge34" class="edge">
<title>Node21&#45;&gt;Node6</title>
<path fill="none" stroke="#63b8ff" d="M667.22,-164.98C628.22,-155.63 565.62,-140.62 524.09,-130.66"/>
<polygon fill="#63b8ff" stroke="#63b8ff" points="524.81,-127.23 514.27,-128.3 523.18,-134.04 524.81,-127.23"/>
</g>
<!-- Node21&#45;&gt;Node7 -->
<g id="edge33" class="edge">
<title>Node21&#45;&gt;Node7</title>
<path fill="none" stroke="#63b8ff" d="M719.39,-164.95C745.67,-150.41 795.82,-118.07 815.73,-74 822.05,-60.01 821.2,-42.46 819.11,-29.35"/>
<polygon fill="#63b8ff" stroke="#63b8ff" points="822.48,-28.32 817.1,-19.18 815.61,-29.67 822.48,-28.32"/>
</g>
<!-- Node22 -->
<g id="node22" class="node">
<title>Node22</title>
<g id="a_node22"><a xlink:title=" ">
<polygon fill="#e0e0e0" stroke="#999999" points="974.23,-129 881.23,-129 881.23,-110 974.23,-110 974.23,-129"/>
<text text-anchor="middle" x="927.73" y="-117" font-family="Helvetica,sans-Serif" font-size="10.00">unordered_map</text>
</a>
</g>
</g>
<!-- Node21&#45;&gt;Node22 -->
<g id="edge32" class="edge">
<title>Node21&#45;&gt;Node22</title>
<path fill="none" stroke="#63b8ff" d="M738.88,-164.98C777.64,-155.86 839.28,-141.33 881.53,-131.38"/>
<polygon fill="#63b8ff" stroke="#63b8ff" points="882.37,-134.78 891.3,-129.08 880.76,-127.97 882.37,-134.78"/>
</g>
</g>
</svg>
        <g id="navigator" transform="translate(0 0)" fill="#404254">
                <rect fill="#f2f5e9" fill-opacity="0.5" stroke="#606060" stroke-width=".5" x="0" y="0" width="60" height="60"/>
                <use id="zoomplus" xlink:href="#zoomPlus" x="17" y="9" onmousedown="handleZoom(evt,'in')"/>
                <use id="zoomminus" xlink:href="#zoomMin" x="42" y="9" onmousedown="handleZoom(evt,'out')"/>
                <use id="reset" xlink:href="#resetDef" x="30" y="36" onmousedown="handleReset()"/>
                <g id="arrowUp" xlink:href="#dirArrow" transform="translate(30 24)" onmousedown="handlePan(0,-1)">
                  <use xlink:href="#rim" fill="#404040">
                        <set attributeName="fill" to="#808080" begin="arrowUp.mouseover" end="arrowUp.mouseout"/>
                  </use>
                  <path fill="none" stroke="white" stroke-width="1.5" d="M0,-3.0v7 M-2.5,-0.5L0,-3.0L2.5,-0.5"/>
                </g>
                <g id="arrowRight" xlink:href="#dirArrow" transform="rotate(90) translate(36 -43)" onmousedown="handlePan(1,0)">
                  <use xlink:href="#rim" fill="#404040">
                        <set attributeName="fill" to="#808080" begin="arrowRight.mouseover" end="arrowRight.mouseout"/>
                  </use>
                  <path fill="none" stroke="white" stroke-width="1.5" d="M0,-3.0v7 M-2.5,-0.5L0,-3.0L2.5,-0.5"/>
                </g>
                <g id="arrowDown" xlink:href="#dirArrow" transform="rotate(180) translate(-30 -48)" onmousedown="handlePan(0,1)">
                  <use xlink:href="#rim" fill="#404040">
                        <set attributeName="fill" to="#808080" begin="arrowDown.mouseover" end="arrowDown.mouseout"/>
                  </use>
                  <path fill="none" stroke="white" stroke-width="1.5" d="M0,-3.0v7 M-2.5,-0.5L0,-3.0L2.5,-0.5"/>
                </g>
                <g id="arrowLeft" xlink:href="#dirArrow" transform="rotate(270) translate(-36 17)" onmousedown="handlePan(-1,0)">
                  <use xlink:href="#rim" fill="#404040">
                        <set attributeName="fill" to="#808080" begin="arrowLeft.mouseover" end="arrowLeft.mouseout"/>
                  </use>
                  <path fill="none" stroke="white" stroke-width="1.5" d="M0,-3.0v7 M-2.5,-0.5L0,-3.0L2.5,-0.5"/>
                </g>
        </g>
        <svg viewBox="0 0 15 15" width="100%" height="30px" preserveAspectRatio="xMaxYMin meet">
         <g id="arrow_out" transform="scale(0.3 0.3)">
          <a xlink:href="docnode_8h__incl_org.svg" target="_base">
           <rect id="button" ry="5" rx="5" y="6" x="6" height="38" width="38"
                fill="#f2f5e9" fill-opacity="0.5" stroke="#606060" stroke-width="1.0"/>
           <path id="arrow"
             d="M 11.500037,31.436501 C 11.940474,20.09759 22.043105,11.32322 32.158766,21.979434 L 37.068811,17.246167 C 37.068811,17.246167 37.088388,32 37.088388,32 L 22.160133,31.978069 C 22.160133,31.978069 26.997745,27.140456 26.997745,27.140456 C 18.528582,18.264221 13.291696,25.230495 11.500037,31.436501 z"
             style="fill:#404040;"/>
          </a>
         </g>
        </svg>
</svg>
