<?xml version="1.0" encoding="UTF-8" standalone="no"?>
<!DOCTYPE svg PUBLIC "-//W3C//DTD SVG 1.1//EN"
 "http://www.w3.org/Graphics/SVG/1.1/DTD/svg11.dtd">
<!-- Generated by graphviz version 2.43.0 (0)
 -->
<!-- Title: /home/runner/work/doxygen/doxygen/src/textdocvisitor.h Pages: 1 -->
<!--zoomable 313 -->
<svg id="main" version="1.1" xmlns="http://www.w3.org/2000/svg" xmlns:xlink="http://www.w3.org/1999/xlink" xml:space="preserve" onload="init(evt)">
<style type="text/css"><![CDATA[
.edge:hover path { stroke: red; }
.edge:hover polygon { stroke: red; fill: red; }
]]></style>
<script type="text/javascript"><![CDATA[
var edges = document.getElementsByTagName('g');
if (edges && edges.length) {
  for (var i=0;i<edges.length;i++) {
    if (edges[i].id.substr(0,4)=='edge') {
      edges[i].setAttribute('class','edge');
    }
  }
}
]]></script>
        <defs>
                <circle id="rim" cx="0" cy="0" r="7"/>
                <circle id="rim2" cx="0" cy="0" r="3.5"/>
                <g id="zoomPlus">
                        <use xlink:href="#rim" fill="#404040">
                                <set attributeName="fill" to="#808080" begin="zoomplus.mouseover" end="zoomplus.mouseout"/>
                        </use>
                        <path d="M-4,0h8M0,-4v8" fill="none" stroke="white" stroke-width="1.5" pointer-events="none"/>
                </g>
                <g id="zoomMin">
                        <use xlink:href="#rim" fill="#404040">
                                <set attributeName="fill" to="#808080" begin="zoomminus.mouseover" end="zoomminus.mouseout"/>
                        </use>
                        <path d="M-4,0h8" fill="none" stroke="white" stroke-width="1.5" pointer-events="none"/>
                </g>
                <g id="dirArrow">
                        <path fill="none" stroke="white" stroke-width="1.5" d="M0,-3.0v7 M-2.5,-0.5L0,-3.0L2.5,-0.5"/>
                </g>
               <g id="resetDef">
                       <use xlink:href="#rim2" fill="#404040">
                               <set attributeName="fill" to="#808080" begin="reset.mouseover" end="reset.mouseout"/>
                       </use>
               </g>
        </defs>

<script type="text/javascript">
var viewWidth = 1223;
var viewHeight = 313;
var sectionId = 'dynsection-0';
</script>
<script xlink:href="../../svgpan.js"/>
<svg id="graph" class="graph">
<g id="viewport">
<title>/home/runner/work/doxygen/doxygen/src/textdocvisitor.h</title>
<!-- Node1 -->
<g id="node1" class="node">
<title>Node1</title>
<g id="a_node1"><a xlink:title=" ">
<polygon fill="#999999" stroke="#666666" points="513.5,-305 355.5,-305 355.5,-275 513.5,-275 513.5,-305"/>
<text text-anchor="start" x="363.5" y="-293" font-family="Helvetica,sans-Serif" font-size="10.00">/home/runner/work/doxygen</text>
<text text-anchor="middle" x="434.5" y="-282" font-family="Helvetica,sans-Serif" font-size="10.00">/doxygen/src/textdocvisitor.h</text>
</a>
</g>
</g>
<!-- Node2 -->
<g id="node2" class="node">
<title>Node2</title>
<g id="a_node2"><a xlink:href="../../d7/d5c/qcstring_8h.html" target="_top" xlink:title=" ">
<polygon fill="white" stroke="#666666" points="543,-129 478,-129 478,-110 543,-110 543,-129"/>
<text text-anchor="middle" x="510.5" y="-117" font-family="Helvetica,sans-Serif" font-size="10.00">qcstring.h</text>
</a>
</g>
</g>
<!-- Node1&#45;&gt;Node2 -->
<g id="edge1" class="edge">
<title>Node1&#45;&gt;Node2</title>
<path fill="none" stroke="#63b8ff" d="M448.63,-274.91C466.43,-256.08 496.19,-220.8 508.5,-184 513.32,-169.6 513.53,-152.32 512.7,-139.43"/>
<polygon fill="#63b8ff" stroke="#63b8ff" points="516.18,-139.05 511.79,-129.41 509.21,-139.68 516.18,-139.05"/>
</g>
<!-- Node12 -->
<g id="node12" class="node">
<title>Node12</title>
<g id="a_node12"><a xlink:href="../../d2/d3c/docvisitor_8h.html" target="_top" xlink:title=" ">
<polygon fill="white" stroke="#666666" points="73,-184 0,-184 0,-165 73,-165 73,-184"/>
<text text-anchor="middle" x="36.5" y="-172" font-family="Helvetica,sans-Serif" font-size="10.00">docvisitor.h</text>
</a>
</g>
</g>
<!-- Node1&#45;&gt;Node12 -->
<g id="edge13" class="edge">
<title>Node1&#45;&gt;Node12</title>
<path fill="none" stroke="#63b8ff" d="M385.3,-274.97C305.55,-252.23 149.6,-207.75 76.33,-186.86"/>
<polygon fill="#63b8ff" stroke="#63b8ff" points="77.13,-183.45 66.56,-184.07 75.22,-190.18 77.13,-183.45"/>
</g>
<!-- Node14 -->
<g id="node14" class="node">
<title>Node14</title>
<g id="a_node14"><a xlink:href="../../de/d2b/docnode_8h.html" target="_top" xlink:title=" ">
<polygon fill="white" stroke="#666666" points="357,-239 290,-239 290,-220 357,-220 357,-239"/>
<text text-anchor="middle" x="323.5" y="-227" font-family="Helvetica,sans-Serif" font-size="10.00">docnode.h</text>
</a>
</g>
</g>
<!-- Node1&#45;&gt;Node14 -->
<g id="edge16" class="edge">
<title>Node1&#45;&gt;Node14</title>
<path fill="none" stroke="#63b8ff" d="M407.91,-274.99C390.05,-265.58 366.66,-253.24 349.02,-243.95"/>
<polygon fill="#63b8ff" stroke="#63b8ff" points="350.37,-240.71 339.89,-239.14 347.11,-246.9 350.37,-240.71"/>
</g>
<!-- Node24 -->
<g id="node24" class="node">
<title>Node24</title>
<g id="a_node24"><a xlink:href="../../d4/d7d/textstream_8h.html" target="_top" xlink:title=" ">
<polygon fill="white" stroke="#666666" points="952.5,-184 872.5,-184 872.5,-165 952.5,-165 952.5,-184"/>
<text text-anchor="middle" x="912.5" y="-172" font-family="Helvetica,sans-Serif" font-size="10.00">textstream.h</text>
</a>
</g>
</g>
<!-- Node1&#45;&gt;Node24 -->
<g id="edge39" class="edge">
<title>Node1&#45;&gt;Node24</title>
<path fill="none" stroke="#63b8ff" d="M493.59,-274.97C590.06,-252.06 779.35,-207.12 866.54,-186.41"/>
<polygon fill="#63b8ff" stroke="#63b8ff" points="867.48,-189.79 876.4,-184.07 865.86,-182.98 867.48,-189.79"/>
</g>
<!-- Node3 -->
<g id="node3" class="node">
<title>Node3</title>
<g id="a_node3"><a xlink:title=" ">
<polygon fill="#e0e0e0" stroke="#999999" points="787.5,-19 743.5,-19 743.5,0 787.5,0 787.5,-19"/>
<text text-anchor="middle" x="765.5" y="-7" font-family="Helvetica,sans-Serif" font-size="10.00">string</text>
</a>
</g>
</g>
<!-- Node2&#45;&gt;Node3 -->
<g id="edge2" class="edge">
<title>Node2&#45;&gt;Node3</title>
<path fill="none" stroke="#63b8ff" d="M543.39,-111.52C592.86,-100.88 682.1,-81.08 695.5,-74 717.81,-62.2 738.58,-41.66 751.61,-27.14"/>
<polygon fill="#63b8ff" stroke="#63b8ff" points="754.42,-29.24 758.34,-19.39 749.14,-24.65 754.42,-29.24"/>
</g>
<!-- Node4 -->
<g id="node4" class="node">
<title>Node4</title>
<g id="a_node4"><a xlink:title=" ">
<polygon fill="#e0e0e0" stroke="#999999" points="407.5,-74 343.5,-74 343.5,-55 407.5,-55 407.5,-74"/>
<text text-anchor="middle" x="375.5" y="-62" font-family="Helvetica,sans-Serif" font-size="10.00">algorithm</text>
</a>
</g>
</g>
<!-- Node2&#45;&gt;Node4 -->
<g id="edge3" class="edge">
<title>Node2&#45;&gt;Node4</title>
<path fill="none" stroke="#63b8ff" d="M488.81,-109.98C466.7,-101.3 432.18,-87.75 407.05,-77.88"/>
<polygon fill="#63b8ff" stroke="#63b8ff" points="408.17,-74.57 397.58,-74.17 405.61,-81.08 408.17,-74.57"/>
</g>
<!-- Node5 -->
<g id="node5" class="node">
<title>Node5</title>
<g id="a_node5"><a xlink:title=" ">
<polygon fill="#e0e0e0" stroke="#999999" points="475,-74 426,-74 426,-55 475,-55 475,-74"/>
<text text-anchor="middle" x="450.5" y="-62" font-family="Helvetica,sans-Serif" font-size="10.00">cctype</text>
</a>
</g>
</g>
<!-- Node2&#45;&gt;Node5 -->
<g id="edge4" class="edge">
<title>Node2&#45;&gt;Node5</title>
<path fill="none" stroke="#63b8ff" d="M500.86,-109.98C491.99,-102.15 478.63,-90.34 467.89,-80.86"/>
<polygon fill="#63b8ff" stroke="#63b8ff" points="470.13,-78.17 460.32,-74.17 465.49,-83.41 470.13,-78.17"/>
</g>
<!-- Node6 -->
<g id="node6" class="node">
<title>Node6</title>
<g id="a_node6"><a xlink:title=" ">
<polygon fill="#e0e0e0" stroke="#999999" points="543.5,-74 493.5,-74 493.5,-55 543.5,-55 543.5,-74"/>
<text text-anchor="middle" x="518.5" y="-62" font-family="Helvetica,sans-Serif" font-size="10.00">cstring</text>
</a>
</g>
</g>
<!-- Node2&#45;&gt;Node6 -->
<g id="edge5" class="edge">
<title>Node2&#45;&gt;Node6</title>
<path fill="none" stroke="#63b8ff" d="M511.82,-109.75C512.87,-102.8 514.37,-92.85 515.69,-84.13"/>
<polygon fill="#63b8ff" stroke="#63b8ff" points="519.17,-84.5 517.2,-74.09 512.25,-83.45 519.17,-84.5"/>
</g>
<!-- Node7 -->
<g id="node7" class="node">
<title>Node7</title>
<g id="a_node7"><a xlink:title=" ">
<polygon fill="#e0e0e0" stroke="#999999" points="788.5,-74 742.5,-74 742.5,-55 788.5,-55 788.5,-74"/>
<text text-anchor="middle" x="765.5" y="-62" font-family="Helvetica,sans-Serif" font-size="10.00">cstdio</text>
</a>
</g>
</g>
<!-- Node2&#45;&gt;Node7 -->
<g id="edge6" class="edge">
<title>Node2&#45;&gt;Node7</title>
<path fill="none" stroke="#63b8ff" d="M543.05,-112.11C585.71,-103.68 662.82,-88.25 728.5,-74 729.77,-73.72 731.06,-73.44 732.36,-73.15"/>
<polygon fill="#63b8ff" stroke="#63b8ff" points="733.44,-76.5 742.43,-70.89 731.9,-69.67 733.44,-76.5"/>
</g>
<!-- Node8 -->
<g id="node8" class="node">
<title>Node8</title>
<g id="a_node8"><a xlink:title=" ">
<polygon fill="#e0e0e0" stroke="#999999" points="611,-74 562,-74 562,-55 611,-55 611,-74"/>
<text text-anchor="middle" x="586.5" y="-62" font-family="Helvetica,sans-Serif" font-size="10.00">cstdlib</text>
</a>
</g>
</g>
<!-- Node2&#45;&gt;Node8 -->
<g id="edge7" class="edge">
<title>Node2&#45;&gt;Node8</title>
<path fill="none" stroke="#63b8ff" d="M522.71,-109.98C534.28,-101.92 551.88,-89.65 565.66,-80.03"/>
<polygon fill="#63b8ff" stroke="#63b8ff" points="567.87,-82.76 574.07,-74.17 563.86,-77.02 567.87,-82.76"/>
</g>
<!-- Node9 -->
<g id="node9" class="node">
<title>Node9</title>
<g id="a_node9"><a xlink:title=" ">
<polygon fill="#e0e0e0" stroke="#999999" points="327.5,-19 277.5,-19 277.5,0 327.5,0 327.5,-19"/>
<text text-anchor="middle" x="302.5" y="-7" font-family="Helvetica,sans-Serif" font-size="10.00">cstdint</text>
</a>
</g>
</g>
<!-- Node2&#45;&gt;Node9 -->
<g id="edge8" class="edge">
<title>Node2&#45;&gt;Node9</title>
<path fill="none" stroke="#63b8ff" d="M477.87,-113.55C414,-103.7 278.09,-81.93 271.5,-74 259.57,-59.65 272.77,-39.92 285.44,-26.29"/>
<polygon fill="#63b8ff" stroke="#63b8ff" points="288.08,-28.6 292.65,-19.05 283.11,-23.66 288.08,-28.6"/>
</g>
<!-- Node10 -->
<g id="node10" class="node">
<title>Node10</title>
<g id="a_node10"><a xlink:title=" ">
<polygon fill="#e0e0e0" stroke="#999999" points="686,-74 629,-74 629,-55 686,-55 686,-74"/>
<text text-anchor="middle" x="657.5" y="-62" font-family="Helvetica,sans-Serif" font-size="10.00">ostream</text>
</a>
</g>
</g>
<!-- Node2&#45;&gt;Node10 -->
<g id="edge9" class="edge">
<title>Node2&#45;&gt;Node10</title>
<path fill="none" stroke="#63b8ff" d="M534.12,-109.98C558.4,-101.23 596.45,-87.51 623.87,-77.62"/>
<polygon fill="#63b8ff" stroke="#63b8ff" points="625.23,-80.85 633.45,-74.17 622.86,-74.27 625.23,-80.85"/>
</g>
<!-- Node11 -->
<g id="node11" class="node">
<title>Node11</title>
<g id="a_node11"><a xlink:href="../../db/d7c/utf8_8h.html" target="_top" xlink:title="Various UTF8 related helper functions.">
<polygon fill="white" stroke="#666666" points="325,-74 280,-74 280,-55 325,-55 325,-74"/>
<text text-anchor="middle" x="302.5" y="-62" font-family="Helvetica,sans-Serif" font-size="10.00">utf8.h</text>
</a>
</g>
</g>
<!-- Node2&#45;&gt;Node11 -->
<g id="edge10" class="edge">
<title>Node2&#45;&gt;Node11</title>
<path fill="none" stroke="#63b8ff" d="M477.71,-110.33C444.27,-101.98 390.65,-88.51 334.91,-74.08"/>
<polygon fill="#63b8ff" stroke="#63b8ff" points="335.78,-70.69 325.22,-71.57 334.02,-77.47 335.78,-70.69"/>
</g>
<!-- Node11&#45;&gt;Node3 -->
<g id="edge12" class="edge">
<title>Node11&#45;&gt;Node3</title>
<path fill="none" stroke="#63b8ff" d="M325.13,-57.02C328.26,-56.26 331.45,-55.56 334.5,-55 481.94,-27.98 660.99,-16.06 733.11,-12.11"/>
<polygon fill="#63b8ff" stroke="#63b8ff" points="733.55,-15.59 743.35,-11.56 733.18,-8.6 733.55,-15.59"/>
</g>
<!-- Node11&#45;&gt;Node9 -->
<g id="edge11" class="edge">
<title>Node11&#45;&gt;Node9</title>
<path fill="none" stroke="#63b8ff" d="M302.5,-54.75C302.5,-47.8 302.5,-37.85 302.5,-29.13"/>
<polygon fill="#63b8ff" stroke="#63b8ff" points="306,-29.09 302.5,-19.09 299,-29.09 306,-29.09"/>
</g>
<!-- Node12&#45;&gt;Node2 -->
<g id="edge15" class="edge">
<title>Node12&#45;&gt;Node2</title>
<path fill="none" stroke="#63b8ff" d="M73.3,-169.39C159.8,-159.71 375.68,-135.57 467.78,-125.28"/>
<polygon fill="#63b8ff" stroke="#63b8ff" points="468.31,-128.74 477.86,-124.15 467.53,-121.78 468.31,-128.74"/>
</g>
<!-- Node13 -->
<g id="node13" class="node">
<title>Node13</title>
<g id="a_node13"><a xlink:title=" ">
<polygon fill="#e0e0e0" stroke="#999999" points="86.5,-74 28.5,-74 28.5,-55 86.5,-55 86.5,-74"/>
<text text-anchor="middle" x="57.5" y="-62" font-family="Helvetica,sans-Serif" font-size="10.00">memory</text>
</a>
</g>
</g>
<!-- Node12&#45;&gt;Node13 -->
<g id="edge14" class="edge">
<title>Node12&#45;&gt;Node13</title>
<path fill="none" stroke="#63b8ff" d="M38.22,-164.66C41.62,-147.17 49.27,-107.8 53.85,-84.27"/>
<polygon fill="#63b8ff" stroke="#63b8ff" points="57.34,-84.64 55.82,-74.16 50.47,-83.31 57.34,-84.64"/>
</g>
<!-- Node14&#45;&gt;Node2 -->
<g id="edge21" class="edge">
<title>Node14&#45;&gt;Node2</title>
<path fill="none" stroke="#63b8ff" d="M357.32,-228.3C394.15,-226.27 452.58,-217.48 488.5,-184 500.89,-172.45 506.3,-153.58 508.67,-139.4"/>
<polygon fill="#63b8ff" stroke="#63b8ff" points="512.17,-139.64 509.98,-129.27 505.22,-138.73 512.17,-139.64"/>
</g>
<!-- Node14&#45;&gt;Node12 -->
<g id="edge22" class="edge">
<title>Node14&#45;&gt;Node12</title>
<path fill="none" stroke="#63b8ff" d="M289.73,-222.26C238.57,-212.82 141.25,-194.84 83.3,-184.14"/>
<polygon fill="#63b8ff" stroke="#63b8ff" points="83.77,-180.67 73.3,-182.3 82.5,-187.55 83.77,-180.67"/>
</g>
<!-- Node14&#45;&gt;Node13 -->
<g id="edge19" class="edge">
<title>Node14&#45;&gt;Node13</title>
<path fill="none" stroke="#63b8ff" d="M289.7,-226.24C252.83,-222.38 193.34,-211.98 150.5,-184 110.87,-158.12 80.8,-109.61 66.57,-83.4"/>
<polygon fill="#63b8ff" stroke="#63b8ff" points="69.51,-81.47 61.76,-74.24 63.31,-84.72 69.51,-81.47"/>
</g>
<!-- Node15 -->
<g id="node15" class="node">
<title>Node15</title>
<g id="a_node15"><a xlink:title=" ">
<polygon fill="#e0e0e0" stroke="#999999" points="301.5,-129 251.5,-129 251.5,-110 301.5,-110 301.5,-129"/>
<text text-anchor="middle" x="276.5" y="-117" font-family="Helvetica,sans-Serif" font-size="10.00">stdio.h</text>
</a>
</g>
</g>
<!-- Node14&#45;&gt;Node15 -->
<g id="edge17" class="edge">
<title>Node14&#45;&gt;Node15</title>
<path fill="none" stroke="#63b8ff" d="M314.87,-219.75C307.03,-211.31 295.78,-197.8 289.5,-184 283.01,-169.74 279.73,-152.21 278.1,-139.19"/>
<polygon fill="#63b8ff" stroke="#63b8ff" points="281.56,-138.67 277.04,-129.09 274.6,-139.4 281.56,-138.67"/>
</g>
<!-- Node16 -->
<g id="node16" class="node">
<title>Node16</title>
<g id="a_node16"><a xlink:title=" ">
<polygon fill="#e0e0e0" stroke="#999999" points="223,-74 176,-74 176,-55 223,-55 223,-74"/>
<text text-anchor="middle" x="199.5" y="-62" font-family="Helvetica,sans-Serif" font-size="10.00">vector</text>
</a>
</g>
</g>
<!-- Node14&#45;&gt;Node16 -->
<g id="edge18" class="edge">
<title>Node14&#45;&gt;Node16</title>
<path fill="none" stroke="#63b8ff" d="M333.9,-219.85C346.82,-207.98 366.28,-185.74 358.5,-165 338.79,-112.44 273.52,-85.55 232.99,-73.59"/>
<polygon fill="#63b8ff" stroke="#63b8ff" points="233.84,-70.19 223.27,-70.86 231.95,-76.93 233.84,-70.19"/>
</g>
<!-- Node17 -->
<g id="node17" class="node">
<title>Node17</title>
<g id="a_node17"><a xlink:title=" ">
<polygon fill="#e0e0e0" stroke="#999999" points="349,-184 298,-184 298,-165 349,-165 349,-184"/>
<text text-anchor="middle" x="323.5" y="-172" font-family="Helvetica,sans-Serif" font-size="10.00">variant</text>
</a>
</g>
</g>
<!-- Node14&#45;&gt;Node17 -->
<g id="edge20" class="edge">
<title>Node14&#45;&gt;Node17</title>
<path fill="none" stroke="#63b8ff" d="M323.5,-219.75C323.5,-212.8 323.5,-202.85 323.5,-194.13"/>
<polygon fill="#63b8ff" stroke="#63b8ff" points="327,-194.09 323.5,-184.09 320,-194.09 327,-194.09"/>
</g>
<!-- Node18 -->
<g id="node18" class="node">
<title>Node18</title>
<g id="a_node18"><a xlink:href="../../de/d9c/docparser_8h.html" target="_top" xlink:title=" ">
<polygon fill="white" stroke="#666666" points="241,-184 168,-184 168,-165 241,-165 241,-184"/>
<text text-anchor="middle" x="204.5" y="-172" font-family="Helvetica,sans-Serif" font-size="10.00">docparser.h</text>
</a>
</g>
</g>
<!-- Node14&#45;&gt;Node18 -->
<g id="edge23" class="edge">
<title>Node14&#45;&gt;Node18</title>
<path fill="none" stroke="#63b8ff" d="M304.38,-219.98C285.15,-211.42 255.27,-198.11 233.19,-188.28"/>
<polygon fill="#63b8ff" stroke="#63b8ff" points="234.53,-185.04 223.97,-184.17 231.68,-191.44 234.53,-185.04"/>
</g>
<!-- Node19 -->
<g id="node19" class="node">
<title>Node19</title>
<g id="a_node19"><a xlink:href="../../d7/d50/growvector_8h.html" target="_top" xlink:title=" ">
<polygon fill="white" stroke="#666666" points="233.5,-129 153.5,-129 153.5,-110 233.5,-110 233.5,-129"/>
<text text-anchor="middle" x="193.5" y="-117" font-family="Helvetica,sans-Serif" font-size="10.00">growvector.h</text>
</a>
</g>
</g>
<!-- Node14&#45;&gt;Node19 -->
<g id="edge38" class="edge">
<title>Node14&#45;&gt;Node19</title>
<path fill="none" stroke="#63b8ff" d="M289.71,-224.17C246.47,-217.85 175.23,-204.56 159.5,-184 148.07,-169.05 161.82,-149.74 175.1,-136.36"/>
<polygon fill="#63b8ff" stroke="#63b8ff" points="177.78,-138.64 182.67,-129.24 172.99,-133.54 177.78,-138.64"/>
</g>
<!-- Node21 -->
<g id="node21" class="node">
<title>Node21</title>
<g id="a_node21"><a xlink:href="../../d0/d73/htmlattrib_8h.html" target="_top" xlink:title=" ">
<polygon fill="white" stroke="#666666" points="479.5,-184 405.5,-184 405.5,-165 479.5,-165 479.5,-184"/>
<text text-anchor="middle" x="442.5" y="-172" font-family="Helvetica,sans-Serif" font-size="10.00">htmlattrib.h</text>
</a>
</g>
</g>
<!-- Node14&#45;&gt;Node21 -->
<g id="edge31" class="edge">
<title>Node14&#45;&gt;Node21</title>
<path fill="none" stroke="#63b8ff" d="M342.62,-219.98C361.85,-211.42 391.73,-198.11 413.81,-188.28"/>
<polygon fill="#63b8ff" stroke="#63b8ff" points="415.32,-191.44 423.03,-184.17 412.47,-185.04 415.32,-191.44"/>
</g>
<!-- Node22 -->
<g id="node22" class="node">
<title>Node22</title>
<g id="a_node22"><a xlink:href="../../db/dc6/htmlentity_8h.html" target="_top" xlink:title=" ">
<polygon fill="white" stroke="#666666" points="649,-184 574,-184 574,-165 649,-165 649,-184"/>
<text text-anchor="middle" x="611.5" y="-172" font-family="Helvetica,sans-Serif" font-size="10.00">htmlentity.h</text>
</a>
</g>
</g>
<!-- Node14&#45;&gt;Node22 -->
<g id="edge34" class="edge">
<title>Node14&#45;&gt;Node22</title>
<path fill="none" stroke="#63b8ff" d="M357.1,-222.32C408.05,-212.94 505.09,-195.08 563.48,-184.34"/>
<polygon fill="#63b8ff" stroke="#63b8ff" points="564.36,-187.73 573.56,-182.48 563.09,-180.85 564.36,-187.73"/>
</g>
<!-- Node18&#45;&gt;Node2 -->
<g id="edge26" class="edge">
<title>Node18&#45;&gt;Node2</title>
<path fill="none" stroke="#63b8ff" d="M241.11,-167.16C297.94,-157.32 407.15,-138.4 467.6,-127.93"/>
<polygon fill="#63b8ff" stroke="#63b8ff" points="468.32,-131.36 477.58,-126.2 467.13,-124.46 468.32,-131.36"/>
</g>
<!-- Node18&#45;&gt;Node13 -->
<g id="edge25" class="edge">
<title>Node18&#45;&gt;Node13</title>
<path fill="none" stroke="#63b8ff" d="M192.72,-164.84C167.67,-146.44 108.86,-103.23 77.7,-80.34"/>
<polygon fill="#63b8ff" stroke="#63b8ff" points="79.47,-77.3 69.34,-74.2 75.32,-82.94 79.47,-77.3"/>
</g>
<!-- Node18&#45;&gt;Node15 -->
<g id="edge24" class="edge">
<title>Node18&#45;&gt;Node15</title>
<path fill="none" stroke="#63b8ff" d="M216.07,-164.98C226.92,-157 243.38,-144.88 256.38,-135.31"/>
<polygon fill="#63b8ff" stroke="#63b8ff" points="258.74,-137.92 264.72,-129.17 254.59,-132.28 258.74,-137.92"/>
</g>
<!-- Node18&#45;&gt;Node19 -->
<g id="edge27" class="edge">
<title>Node18&#45;&gt;Node19</title>
<path fill="none" stroke="#63b8ff" d="M202.68,-164.75C201.24,-157.8 199.18,-147.85 197.37,-139.13"/>
<polygon fill="#63b8ff" stroke="#63b8ff" points="200.74,-138.17 195.28,-129.09 193.89,-139.59 200.74,-138.17"/>
</g>
<!-- Node19&#45;&gt;Node13 -->
<g id="edge29" class="edge">
<title>Node19&#45;&gt;Node13</title>
<path fill="none" stroke="#63b8ff" d="M171.65,-109.98C149.38,-101.3 114.6,-87.75 89.28,-77.88"/>
<polygon fill="#63b8ff" stroke="#63b8ff" points="90.34,-74.54 79.75,-74.17 87.79,-81.06 90.34,-74.54"/>
</g>
<!-- Node19&#45;&gt;Node16 -->
<g id="edge28" class="edge">
<title>Node19&#45;&gt;Node16</title>
<path fill="none" stroke="#63b8ff" d="M194.49,-109.75C195.28,-102.8 196.4,-92.85 197.39,-84.13"/>
<polygon fill="#63b8ff" stroke="#63b8ff" points="200.88,-84.42 198.53,-74.09 193.92,-83.63 200.88,-84.42"/>
</g>
<!-- Node20 -->
<g id="node20" class="node">
<title>Node20</title>
<g id="a_node20"><a xlink:title=" ">
<polygon fill="#e0e0e0" stroke="#999999" points="158,-74 105,-74 105,-55 158,-55 158,-74"/>
<text text-anchor="middle" x="131.5" y="-62" font-family="Helvetica,sans-Serif" font-size="10.00">iterator</text>
</a>
</g>
</g>
<!-- Node19&#45;&gt;Node20 -->
<g id="edge30" class="edge">
<title>Node19&#45;&gt;Node20</title>
<path fill="none" stroke="#63b8ff" d="M183.54,-109.98C174.37,-102.15 160.56,-90.34 149.47,-80.86"/>
<polygon fill="#63b8ff" stroke="#63b8ff" points="151.52,-78.01 141.64,-74.17 146.97,-83.33 151.52,-78.01"/>
</g>
<!-- Node21&#45;&gt;Node2 -->
<g id="edge33" class="edge">
<title>Node21&#45;&gt;Node2</title>
<path fill="none" stroke="#63b8ff" d="M453.43,-164.98C463.58,-157.07 478.92,-145.11 491.15,-135.58"/>
<polygon fill="#63b8ff" stroke="#63b8ff" points="493.64,-138.08 499.38,-129.17 489.34,-132.56 493.64,-138.08"/>
</g>
<!-- Node21&#45;&gt;Node16 -->
<g id="edge32" class="edge">
<title>Node21&#45;&gt;Node16</title>
<path fill="none" stroke="#63b8ff" d="M438.14,-164.99C430.6,-151.17 413.77,-123.99 391.5,-110 365.44,-93.63 281.19,-78.29 233.41,-70.62"/>
<polygon fill="#63b8ff" stroke="#63b8ff" points="233.66,-67.11 223.23,-69.01 232.56,-74.03 233.66,-67.11"/>
</g>
<!-- Node22&#45;&gt;Node2 -->
<g id="edge37" class="edge">
<title>Node22&#45;&gt;Node2</title>
<path fill="none" stroke="#63b8ff" d="M595.27,-164.98C579.32,-156.61 554.72,-143.7 536.12,-133.95"/>
<polygon fill="#63b8ff" stroke="#63b8ff" points="537.5,-130.72 527.02,-129.17 534.25,-136.92 537.5,-130.72"/>
</g>
<!-- Node22&#45;&gt;Node3 -->
<g id="edge36" class="edge">
<title>Node22&#45;&gt;Node3</title>
<path fill="none" stroke="#63b8ff" d="M649.14,-165.54C693.56,-153.91 765.41,-127.56 797.5,-74 806.85,-58.39 794.83,-39.7 782.94,-26.66"/>
<polygon fill="#63b8ff" stroke="#63b8ff" points="785.25,-24.02 775.75,-19.34 780.26,-28.93 785.25,-24.02"/>
</g>
<!-- Node23 -->
<g id="node23" class="node">
<title>Node23</title>
<g id="a_node23"><a xlink:title=" ">
<polygon fill="#e0e0e0" stroke="#999999" points="658,-129 565,-129 565,-110 658,-110 658,-129"/>
<text text-anchor="middle" x="611.5" y="-117" font-family="Helvetica,sans-Serif" font-size="10.00">unordered_map</text>
</a>
</g>
</g>
<!-- Node22&#45;&gt;Node23 -->
<g id="edge35" class="edge">
<title>Node22&#45;&gt;Node23</title>
<path fill="none" stroke="#63b8ff" d="M611.5,-164.75C611.5,-157.8 611.5,-147.85 611.5,-139.13"/>
<polygon fill="#63b8ff" stroke="#63b8ff" points="615,-139.09 611.5,-129.09 608,-139.09 615,-139.09"/>
</g>
<!-- Node24&#45;&gt;Node2 -->
<g id="edge47" class="edge">
<title>Node24&#45;&gt;Node2</title>
<path fill="none" stroke="#63b8ff" d="M872.35,-169.25C806.31,-162.1 670.68,-146.67 556.5,-129 555.42,-128.83 554.32,-128.66 553.21,-128.48"/>
<polygon fill="#63b8ff" stroke="#63b8ff" points="553.57,-124.99 543.13,-126.77 552.4,-131.89 553.57,-124.99"/>
</g>
<!-- Node24&#45;&gt;Node3 -->
<g id="edge40" class="edge">
<title>Node24&#45;&gt;Node3</title>
<path fill="none" stroke="#63b8ff" d="M952.8,-166.81C993.2,-158.23 1046.61,-140.68 1025.5,-110 973.38,-34.25 855.14,-16.14 797.84,-11.83"/>
<polygon fill="#63b8ff" stroke="#63b8ff" points="797.76,-8.32 787.55,-11.16 797.3,-15.3 797.76,-8.32"/>
</g>
<!-- Node24&#45;&gt;Node7 -->
<g id="edge44" class="edge">
<title>Node24&#45;&gt;Node7</title>
<path fill="none" stroke="#63b8ff" d="M897.18,-164.93C882.31,-156.4 859.29,-142.64 840.5,-129 819.73,-113.92 797.46,-94.63 782.64,-81.29"/>
<polygon fill="#63b8ff" stroke="#63b8ff" points="784.59,-78.33 774.84,-74.2 779.88,-83.51 784.59,-78.33"/>
</g>
<!-- Node24&#45;&gt;Node9 -->
<g id="edge43" class="edge">
<title>Node24&#45;&gt;Node9</title>
<path fill="none" stroke="#63b8ff" d="M904.69,-164.78C881.08,-138.51 811.21,-61.54 797.5,-55 715.97,-16.12 436.7,-11.07 337.67,-10.52"/>
<polygon fill="#63b8ff" stroke="#63b8ff" points="337.6,-7.02 327.58,-10.48 337.57,-14.02 337.6,-7.02"/>
</g>
<!-- Node25 -->
<g id="node25" class="node">
<title>Node25</title>
<g id="a_node25"><a xlink:title=" ">
<polygon fill="#e0e0e0" stroke="#999999" points="942.5,-129 882.5,-129 882.5,-110 942.5,-110 942.5,-129"/>
<text text-anchor="middle" x="912.5" y="-117" font-family="Helvetica,sans-Serif" font-size="10.00">iostream</text>
</a>
</g>
</g>
<!-- Node24&#45;&gt;Node25 -->
<g id="edge41" class="edge">
<title>Node24&#45;&gt;Node25</title>
<path fill="none" stroke="#63b8ff" d="M912.5,-164.75C912.5,-157.8 912.5,-147.85 912.5,-139.13"/>
<polygon fill="#63b8ff" stroke="#63b8ff" points="916,-139.09 912.5,-129.09 909,-139.09 916,-139.09"/>
</g>
<!-- Node26 -->
<g id="node26" class="node">
<title>Node26</title>
<g id="a_node26"><a xlink:title=" ">
<polygon fill="#e0e0e0" stroke="#999999" points="1016.5,-129 960.5,-129 960.5,-110 1016.5,-110 1016.5,-129"/>
<text text-anchor="middle" x="988.5" y="-117" font-family="Helvetica,sans-Serif" font-size="10.00">sstream</text>
</a>
</g>
</g>
<!-- Node24&#45;&gt;Node26 -->
<g id="edge42" class="edge">
<title>Node24&#45;&gt;Node26</title>
<path fill="none" stroke="#63b8ff" d="M924.71,-164.98C936.28,-156.92 953.88,-144.65 967.66,-135.03"/>
<polygon fill="#63b8ff" stroke="#63b8ff" points="969.87,-137.76 976.07,-129.17 965.86,-132.02 969.87,-137.76"/>
</g>
<!-- Node27 -->
<g id="node27" class="node">
<title>Node27</title>
<g id="a_node27"><a xlink:title=" ">
<polygon fill="#e0e0e0" stroke="#999999" points="1128,-129 1073,-129 1073,-110 1128,-110 1128,-129"/>
<text text-anchor="middle" x="1100.5" y="-117" font-family="Helvetica,sans-Serif" font-size="10.00">fstream</text>
</a>
</g>
</g>
<!-- Node24&#45;&gt;Node27 -->
<g id="edge45" class="edge">
<title>Node24&#45;&gt;Node27</title>
<path fill="none" stroke="#63b8ff" d="M942.71,-164.98C975.39,-155.77 1027.56,-141.06 1062.89,-131.1"/>
<polygon fill="#63b8ff" stroke="#63b8ff" points="1064.14,-134.39 1072.82,-128.3 1062.25,-127.65 1064.14,-134.39"/>
</g>
<!-- Node28 -->
<g id="node28" class="node">
<title>Node28</title>
<g id="a_node28"><a xlink:title=" ">
<polygon fill="#e0e0e0" stroke="#999999" points="1215,-129 1146,-129 1146,-110 1215,-110 1215,-129"/>
<text text-anchor="middle" x="1180.5" y="-117" font-family="Helvetica,sans-Serif" font-size="10.00">type_traits</text>
</a>
</g>
</g>
<!-- Node24&#45;&gt;Node28 -->
<g id="edge46" class="edge">
<title>Node24&#45;&gt;Node28</title>
<path fill="none" stroke="#63b8ff" d="M952.62,-165.57C1001.67,-155.87 1084.42,-139.5 1135.56,-129.39"/>
<polygon fill="#63b8ff" stroke="#63b8ff" points="1136.53,-132.76 1145.66,-127.39 1135.17,-125.9 1136.53,-132.76"/>
</g>
</g>
</svg>
        <g id="navigator" transform="translate(0 0)" fill="#404254">
                <rect fill="#f2f5e9" fill-opacity="0.5" stroke="#606060" stroke-width=".5" x="0" y="0" width="60" height="60"/>
                <use id="zoomplus" xlink:href="#zoomPlus" x="17" y="9" onmousedown="handleZoom(evt,'in')"/>
                <use id="zoomminus" xlink:href="#zoomMin" x="42" y="9" onmousedown="handleZoom(evt,'out')"/>
                <use id="reset" xlink:href="#resetDef" x="30" y="36" onmousedown="handleReset()"/>
                <g id="arrowUp" xlink:href="#dirArrow" transform="translate(30 24)" onmousedown="handlePan(0,-1)">
                  <use xlink:href="#rim" fill="#404040">
                        <set attributeName="fill" to="#808080" begin="arrowUp.mouseover" end="arrowUp.mouseout"/>
                  </use>
                  <path fill="none" stroke="white" stroke-width="1.5" d="M0,-3.0v7 M-2.5,-0.5L0,-3.0L2.5,-0.5"/>
                </g>
                <g id="arrowRight" xlink:href="#dirArrow" transform="rotate(90) translate(36 -43)" onmousedown="handlePan(1,0)">
                  <use xlink:href="#rim" fill="#404040">
                        <set attributeName="fill" to="#808080" begin="arrowRight.mouseover" end="arrowRight.mouseout"/>
                  </use>
                  <path fill="none" stroke="white" stroke-width="1.5" d="M0,-3.0v7 M-2.5,-0.5L0,-3.0L2.5,-0.5"/>
                </g>
                <g id="arrowDown" xlink:href="#dirArrow" transform="rotate(180) translate(-30 -48)" onmousedown="handlePan(0,1)">
                  <use xlink:href="#rim" fill="#404040">
                        <set attributeName="fill" to="#808080" begin="arrowDown.mouseover" end="arrowDown.mouseout"/>
                  </use>
                  <path fill="none" stroke="white" stroke-width="1.5" d="M0,-3.0v7 M-2.5,-0.5L0,-3.0L2.5,-0.5"/>
                </g>
                <g id="arrowLeft" xlink:href="#dirArrow" transform="rotate(270) translate(-36 17)" onmousedown="handlePan(-1,0)">
                  <use xlink:href="#rim" fill="#404040">
                        <set attributeName="fill" to="#808080" begin="arrowLeft.mouseover" end="arrowLeft.mouseout"/>
                  </use>
                  <path fill="none" stroke="white" stroke-width="1.5" d="M0,-3.0v7 M-2.5,-0.5L0,-3.0L2.5,-0.5"/>
                </g>
        </g>
        <svg viewBox="0 0 15 15" width="100%" height="30px" preserveAspectRatio="xMaxYMin meet">
         <g id="arrow_out" transform="scale(0.3 0.3)">
          <a xlink:href="textdocvisitor_8h__incl_org.svg" target="_base">
           <rect id="button" ry="5" rx="5" y="6" x="6" height="38" width="38"
                fill="#f2f5e9" fill-opacity="0.5" stroke="#606060" stroke-width="1.0"/>
           <path id="arrow"
             d="M 11.500037,31.436501 C 11.940474,20.09759 22.043105,11.32322 32.158766,21.979434 L 37.068811,17.246167 C 37.068811,17.246167 37.088388,32 37.088388,32 L 22.160133,31.978069 C 22.160133,31.978069 26.997745,27.140456 26.997745,27.140456 C 18.528582,18.264221 13.291696,25.230495 11.500037,31.436501 z"
             style="fill:#404040;"/>
          </a>
         </g>
        </svg>
</svg>
