<?xml version="1.0" encoding="UTF-8" standalone="no"?>
<!DOCTYPE svg PUBLIC "-//W3C//DTD SVG 1.1//EN"
 "http://www.w3.org/Graphics/SVG/1.1/DTD/svg11.dtd">
<!-- Generated by graphviz version 2.43.0 (0)
 -->
<!-- Title: /home/runner/work/doxygen/doxygen/src/debug.h Pages: 1 -->
<svg width="6190pt" height="104pt"
 viewBox="0.00 0.00 6190.00 104.00" xmlns="http://www.w3.org/2000/svg" xmlns:xlink="http://www.w3.org/1999/xlink">
<g id="graph0" class="graph" transform="scale(1 1) rotate(0) translate(4 100)">
<title>/home/runner/work/doxygen/doxygen/src/debug.h</title>
<!-- Node1 -->
<g id="node1" class="node">
<title>Node1</title>
<g id="a_node1"><a xlink:title=" ">
<polygon fill="#999999" stroke="#666666" points="3172,-96 3018,-96 3018,-66 3172,-66 3172,-96"/>
<text text-anchor="start" x="3026" y="-84" font-family="Helvetica,sans-Serif" font-size="10.00">/home/runner/work/doxygen</text>
<text text-anchor="middle" x="3095" y="-73" font-family="Helvetica,sans-Serif" font-size="10.00">/doxygen/src/debug.h</text>
</a>
</g>
</g>
<!-- Node2 -->
<g id="node2" class="node">
<title>Node2</title>
<g id="a_node2"><a xlink:href="../../d5/d0b/cite_8cpp.html" target="_top" xlink:title=" ">
<polygon fill="white" stroke="#666666" points="154,-30 0,-30 0,0 154,0 154,-30"/>
<text text-anchor="start" x="8" y="-18" font-family="Helvetica,sans-Serif" font-size="10.00">/home/runner/work/doxygen</text>
<text text-anchor="middle" x="77" y="-7" font-family="Helvetica,sans-Serif" font-size="10.00">/doxygen/src/cite.cpp</text>
</a>
</g>
</g>
<!-- Node1&#45;&gt;Node2 -->
<g id="edge1" class="edge">
<title>Node1&#45;&gt;Node2</title>
<path fill="none" stroke="#63b8ff" d="M3007.82,-80.21C2584.03,-80.98 736.25,-81.28 163,-30 160.14,-29.74 157.23,-29.45 154.29,-29.12"/>
<polygon fill="#63b8ff" stroke="#63b8ff" points="3007.87,-83.71 3017.86,-80.19 3007.85,-76.71 3007.87,-83.71"/>
</g>
<!-- Node3 -->
<g id="node3" class="node">
<title>Node3</title>
<g id="a_node3"><a xlink:href="../../de/d89/classdef_8cpp.html" target="_top" xlink:title=" ">
<polygon fill="white" stroke="#666666" points="326,-30 172,-30 172,0 326,0 326,-30"/>
<text text-anchor="start" x="180" y="-18" font-family="Helvetica,sans-Serif" font-size="10.00">/home/runner/work/doxygen</text>
<text text-anchor="middle" x="249" y="-7" font-family="Helvetica,sans-Serif" font-size="10.00">/doxygen/src/classdef.cpp</text>
</a>
</g>
</g>
<!-- Node1&#45;&gt;Node3 -->
<g id="edge2" class="edge">
<title>Node1&#45;&gt;Node3</title>
<path fill="none" stroke="#63b8ff" d="M3007.68,-80.1C2598.96,-80.33 872.27,-78.35 335,-30 332.14,-29.74 329.23,-29.45 326.29,-29.12"/>
<polygon fill="#63b8ff" stroke="#63b8ff" points="3007.95,-83.6 3017.95,-80.1 3007.95,-76.6 3007.95,-83.6"/>
</g>
<!-- Node4 -->
<g id="node4" class="node">
<title>Node4</title>
<g id="a_node4"><a xlink:href="../../da/d1f/code_8l.html" target="_top" xlink:title=" ">
<polygon fill="white" stroke="#666666" points="498,-30 344,-30 344,0 498,0 498,-30"/>
<text text-anchor="start" x="352" y="-18" font-family="Helvetica,sans-Serif" font-size="10.00">/home/runner/work/doxygen</text>
<text text-anchor="middle" x="421" y="-7" font-family="Helvetica,sans-Serif" font-size="10.00">/doxygen/src/code.l</text>
</a>
</g>
</g>
<!-- Node1&#45;&gt;Node4 -->
<g id="edge3" class="edge">
<title>Node1&#45;&gt;Node4</title>
<path fill="none" stroke="#63b8ff" d="M3007.69,-79.98C2614.84,-79.64 1008.43,-75.43 507,-30 504.14,-29.74 501.23,-29.44 498.29,-29.11"/>
<polygon fill="#63b8ff" stroke="#63b8ff" points="3007.85,-83.48 3017.85,-79.99 3007.86,-76.48 3007.85,-83.48"/>
</g>
<!-- Node5 -->
<g id="node5" class="node">
<title>Node5</title>
<g id="a_node5"><a xlink:href="../../d0/d47/commentcnv_8l.html" target="_top" xlink:title=" ">
<polygon fill="white" stroke="#666666" points="670,-30 516,-30 516,0 670,0 670,-30"/>
<text text-anchor="start" x="524" y="-18" font-family="Helvetica,sans-Serif" font-size="10.00">/home/runner/work/doxygen</text>
<text text-anchor="middle" x="593" y="-7" font-family="Helvetica,sans-Serif" font-size="10.00">/doxygen/src/commentcnv.l</text>
</a>
</g>
</g>
<!-- Node1&#45;&gt;Node5 -->
<g id="edge4" class="edge">
<title>Node1&#45;&gt;Node5</title>
<path fill="none" stroke="#63b8ff" d="M3007.97,-79.84C2631.94,-78.9 1144.78,-72.52 679,-30 676.14,-29.74 673.23,-29.44 670.29,-29.11"/>
<polygon fill="#63b8ff" stroke="#63b8ff" points="3007.97,-83.34 3017.97,-79.87 3007.98,-76.34 3007.97,-83.34"/>
</g>
<!-- Node6 -->
<g id="node6" class="node">
<title>Node6</title>
<g id="a_node6"><a xlink:href="../../d7/d5f/commentscan_8l.html" target="_top" xlink:title=" ">
<polygon fill="white" stroke="#666666" points="845.5,-30 688.5,-30 688.5,0 845.5,0 845.5,-30"/>
<text text-anchor="start" x="696.5" y="-18" font-family="Helvetica,sans-Serif" font-size="10.00">/home/runner/work/doxygen</text>
<text text-anchor="middle" x="767" y="-7" font-family="Helvetica,sans-Serif" font-size="10.00">/doxygen/src/commentscan.l</text>
</a>
</g>
</g>
<!-- Node1&#45;&gt;Node6 -->
<g id="edge5" class="edge">
<title>Node1&#45;&gt;Node6</title>
<path fill="none" stroke="#63b8ff" d="M3007.88,-79.63C2649.05,-77.88 1284.29,-68.76 855,-30 851.92,-29.72 848.78,-29.4 845.62,-29.05"/>
<polygon fill="#63b8ff" stroke="#63b8ff" points="3007.93,-83.13 3017.94,-79.68 3007.96,-76.13 3007.93,-83.13"/>
</g>
<!-- Node7 -->
<g id="node7" class="node">
<title>Node7</title>
<g id="a_node7"><a xlink:href="../../d9/de3/configimpl_8l.html" target="_top" xlink:title=" ">
<polygon fill="white" stroke="#666666" points="1018,-30 864,-30 864,0 1018,0 1018,-30"/>
<text text-anchor="start" x="872" y="-18" font-family="Helvetica,sans-Serif" font-size="10.00">/home/runner/work/doxygen</text>
<text text-anchor="middle" x="941" y="-7" font-family="Helvetica,sans-Serif" font-size="10.00">/doxygen/src/configimpl.l</text>
</a>
</g>
</g>
<!-- Node1&#45;&gt;Node7 -->
<g id="edge6" class="edge">
<title>Node1&#45;&gt;Node7</title>
<path fill="none" stroke="#63b8ff" d="M3007.85,-79.49C2666.59,-77.23 1420.61,-66.62 1027,-30 1024.14,-29.73 1021.23,-29.43 1018.29,-29.1"/>
<polygon fill="#63b8ff" stroke="#63b8ff" points="3007.9,-82.99 3017.92,-79.55 3007.94,-75.99 3007.9,-82.99"/>
</g>
<!-- Node8 -->
<g id="node8" class="node">
<title>Node8</title>
<g id="a_node8"><a xlink:href="../../dc/dee/constexp_8l.html" target="_top" xlink:title=" ">
<polygon fill="white" stroke="#666666" points="1190,-30 1036,-30 1036,0 1190,0 1190,-30"/>
<text text-anchor="start" x="1044" y="-18" font-family="Helvetica,sans-Serif" font-size="10.00">/home/runner/work/doxygen</text>
<text text-anchor="middle" x="1113" y="-7" font-family="Helvetica,sans-Serif" font-size="10.00">/doxygen/src/constexp.l</text>
</a>
</g>
</g>
<!-- Node1&#45;&gt;Node8 -->
<g id="edge7" class="edge">
<title>Node1&#45;&gt;Node8</title>
<path fill="none" stroke="#63b8ff" d="M3007.66,-79.26C2684.53,-76.3 1557.06,-63.71 1199,-30 1196.14,-29.73 1193.23,-29.42 1190.29,-29.09"/>
<polygon fill="#63b8ff" stroke="#63b8ff" points="3007.87,-82.77 3017.9,-79.36 3007.93,-75.77 3007.87,-82.77"/>
</g>
<!-- Node9 -->
<g id="node9" class="node">
<title>Node9</title>
<g id="a_node9"><a xlink:href="../../d1/d00/debug_8cpp.html" target="_top" xlink:title=" ">
<polygon fill="white" stroke="#666666" points="1362,-30 1208,-30 1208,0 1362,0 1362,-30"/>
<text text-anchor="start" x="1216" y="-18" font-family="Helvetica,sans-Serif" font-size="10.00">/home/runner/work/doxygen</text>
<text text-anchor="middle" x="1285" y="-7" font-family="Helvetica,sans-Serif" font-size="10.00">/doxygen/src/debug.cpp</text>
</a>
</g>
</g>
<!-- Node1&#45;&gt;Node9 -->
<g id="edge8" class="edge">
<title>Node1&#45;&gt;Node9</title>
<path fill="none" stroke="#63b8ff" d="M3007.75,-79C2703.98,-75.27 1693.73,-60.81 1371,-30 1368.14,-29.73 1365.23,-29.42 1362.29,-29.08"/>
<polygon fill="#63b8ff" stroke="#63b8ff" points="3007.78,-82.5 3017.83,-79.12 3007.87,-75.5 3007.78,-82.5"/>
</g>
<!-- Node10 -->
<g id="node10" class="node">
<title>Node10</title>
<g id="a_node10"><a xlink:href="../../d8/d0f/declinfo_8l.html" target="_top" xlink:title=" ">
<polygon fill="white" stroke="#666666" points="1534,-30 1380,-30 1380,0 1534,0 1534,-30"/>
<text text-anchor="start" x="1388" y="-18" font-family="Helvetica,sans-Serif" font-size="10.00">/home/runner/work/doxygen</text>
<text text-anchor="middle" x="1457" y="-7" font-family="Helvetica,sans-Serif" font-size="10.00">/doxygen/src/declinfo.l</text>
</a>
</g>
</g>
<!-- Node1&#45;&gt;Node10 -->
<g id="edge9" class="edge">
<title>Node1&#45;&gt;Node10</title>
<path fill="none" stroke="#63b8ff" d="M3007.47,-78.67C2723.63,-74.12 1830.41,-57.91 1543,-30 1540.14,-29.72 1537.23,-29.41 1534.29,-29.07"/>
<polygon fill="#63b8ff" stroke="#63b8ff" points="3007.66,-82.17 3017.72,-78.83 3007.77,-75.17 3007.66,-82.17"/>
</g>
<!-- Node11 -->
<g id="node11" class="node">
<title>Node11</title>
<g id="a_node11"><a xlink:href="../../de/df3/defargs_8l.html" target="_top" xlink:title=" ">
<polygon fill="white" stroke="#666666" points="1706,-30 1552,-30 1552,0 1706,0 1706,-30"/>
<text text-anchor="start" x="1560" y="-18" font-family="Helvetica,sans-Serif" font-size="10.00">/home/runner/work/doxygen</text>
<text text-anchor="middle" x="1629" y="-7" font-family="Helvetica,sans-Serif" font-size="10.00">/doxygen/src/defargs.l</text>
</a>
</g>
</g>
<!-- Node1&#45;&gt;Node11 -->
<g id="edge10" class="edge">
<title>Node1&#45;&gt;Node11</title>
<path fill="none" stroke="#63b8ff" d="M3007.6,-80.62C2789.1,-81.35 2201.71,-78.24 1715,-30 1712.14,-29.72 1709.23,-29.4 1706.3,-29.05"/>
<polygon fill="#63b8ff" stroke="#63b8ff" points="3007.73,-84.12 3017.72,-80.58 3007.71,-77.12 3007.73,-84.12"/>
</g>
<!-- Node12 -->
<g id="node12" class="node">
<title>Node12</title>
<g id="a_node12"><a xlink:href="../../d3/dea/definition_8cpp.html" target="_top" xlink:title=" ">
<polygon fill="white" stroke="#666666" points="1878,-30 1724,-30 1724,0 1878,0 1878,-30"/>
<text text-anchor="start" x="1732" y="-18" font-family="Helvetica,sans-Serif" font-size="10.00">/home/runner/work/doxygen</text>
<text text-anchor="middle" x="1801" y="-7" font-family="Helvetica,sans-Serif" font-size="10.00">/doxygen/src/definition.cpp</text>
</a>
</g>
</g>
<!-- Node1&#45;&gt;Node12 -->
<g id="edge11" class="edge">
<title>Node1&#45;&gt;Node12</title>
<path fill="none" stroke="#63b8ff" d="M3007.63,-79.97C2808.37,-79.12 2305.21,-72.54 1887,-30 1884.14,-29.71 1881.23,-29.38 1878.3,-29.03"/>
<polygon fill="#63b8ff" stroke="#63b8ff" points="3007.73,-83.47 3017.75,-80.01 3007.76,-76.47 3007.73,-83.47"/>
</g>
<!-- Node13 -->
<g id="node13" class="node">
<title>Node13</title>
<g id="a_node13"><a xlink:href="../../da/d17/docparser_8cpp.html" target="_top" xlink:title=" ">
<polygon fill="white" stroke="#666666" points="2050,-30 1896,-30 1896,0 2050,0 2050,-30"/>
<text text-anchor="start" x="1904" y="-18" font-family="Helvetica,sans-Serif" font-size="10.00">/home/runner/work/doxygen</text>
<text text-anchor="middle" x="1973" y="-7" font-family="Helvetica,sans-Serif" font-size="10.00">/doxygen/src/docparser.cpp</text>
</a>
</g>
</g>
<!-- Node1&#45;&gt;Node13 -->
<g id="edge12" class="edge">
<title>Node1&#45;&gt;Node13</title>
<path fill="none" stroke="#63b8ff" d="M3007.64,-79.12C2829.01,-76.57 2409.25,-66.84 2059,-30 2056.14,-29.7 2053.23,-29.37 2050.3,-29.01"/>
<polygon fill="#63b8ff" stroke="#63b8ff" points="3007.72,-82.62 3017.77,-79.26 3007.82,-75.62 3007.72,-82.62"/>
</g>
<!-- Node14 -->
<g id="node14" class="node">
<title>Node14</title>
<g id="a_node14"><a xlink:href="../../d1/d39/doctokenizer_8l.html" target="_top" xlink:title=" ">
<polygon fill="white" stroke="#666666" points="2222,-30 2068,-30 2068,0 2222,0 2222,-30"/>
<text text-anchor="start" x="2076" y="-18" font-family="Helvetica,sans-Serif" font-size="10.00">/home/runner/work/doxygen</text>
<text text-anchor="middle" x="2145" y="-7" font-family="Helvetica,sans-Serif" font-size="10.00">/doxygen/src/doctokenizer.l</text>
</a>
</g>
</g>
<!-- Node1&#45;&gt;Node14 -->
<g id="edge13" class="edge">
<title>Node1&#45;&gt;Node14</title>
<path fill="none" stroke="#63b8ff" d="M3007.89,-77.94C2851.77,-73.59 2514.15,-61.16 2231,-30 2228.14,-29.69 2225.24,-29.34 2222.3,-28.97"/>
<polygon fill="#63b8ff" stroke="#63b8ff" points="3007.82,-81.44 3017.91,-78.22 3008.01,-74.44 3007.82,-81.44"/>
</g>
<!-- Node15 -->
<g id="node15" class="node">
<title>Node15</title>
<g id="a_node15"><a xlink:href="../../dc/d98/doxygen_8cpp.html" target="_top" xlink:title=" ">
<polygon fill="white" stroke="#666666" points="2394,-30 2240,-30 2240,0 2394,0 2394,-30"/>
<text text-anchor="start" x="2248" y="-18" font-family="Helvetica,sans-Serif" font-size="10.00">/home/runner/work/doxygen</text>
<text text-anchor="middle" x="2317" y="-7" font-family="Helvetica,sans-Serif" font-size="10.00">/doxygen/src/doxygen.cpp</text>
</a>
</g>
</g>
<!-- Node1&#45;&gt;Node15 -->
<g id="edge14" class="edge">
<title>Node1&#45;&gt;Node15</title>
<path fill="none" stroke="#63b8ff" d="M3007.98,-76.21C2876.59,-69.92 2619.87,-55.44 2403,-30 2400.15,-29.67 2397.24,-29.3 2394.31,-28.92"/>
<polygon fill="#63b8ff" stroke="#63b8ff" points="3007.83,-79.71 3017.99,-76.68 3008.16,-72.71 3007.83,-79.71"/>
</g>
<!-- Node16 -->
<g id="node16" class="node">
<title>Node16</title>
<g id="a_node16"><a xlink:href="../../d6/ddc/filedef_8cpp.html" target="_top" xlink:title=" ">
<polygon fill="white" stroke="#666666" points="2566,-30 2412,-30 2412,0 2566,0 2566,-30"/>
<text text-anchor="start" x="2420" y="-18" font-family="Helvetica,sans-Serif" font-size="10.00">/home/runner/work/doxygen</text>
<text text-anchor="middle" x="2489" y="-7" font-family="Helvetica,sans-Serif" font-size="10.00">/doxygen/src/filedef.cpp</text>
</a>
</g>
</g>
<!-- Node1&#45;&gt;Node16 -->
<g id="edge15" class="edge">
<title>Node1&#45;&gt;Node16</title>
<path fill="none" stroke="#63b8ff" d="M3007.65,-73.36C2904.17,-65.09 2726.68,-49.62 2575,-30 2572.15,-29.63 2569.25,-29.24 2566.32,-28.83"/>
<polygon fill="#63b8ff" stroke="#63b8ff" points="3007.49,-76.86 3017.73,-74.16 3008.04,-69.88 3007.49,-76.86"/>
</g>
<!-- Node17 -->
<g id="node17" class="node">
<title>Node17</title>
<g id="a_node17"><a xlink:href="../../d9/d5b/fortrancode_8l.html" target="_top" xlink:title=" ">
<polygon fill="white" stroke="#666666" points="2738,-30 2584,-30 2584,0 2738,0 2738,-30"/>
<text text-anchor="start" x="2592" y="-18" font-family="Helvetica,sans-Serif" font-size="10.00">/home/runner/work/doxygen</text>
<text text-anchor="middle" x="2661" y="-7" font-family="Helvetica,sans-Serif" font-size="10.00">/doxygen/src/fortrancode.l</text>
</a>
</g>
</g>
<!-- Node1&#45;&gt;Node17 -->
<g id="edge16" class="edge">
<title>Node1&#45;&gt;Node17</title>
<path fill="none" stroke="#63b8ff" d="M3007.72,-67.92C2937.3,-58.06 2835.7,-43.59 2747,-30 2744.16,-29.56 2741.27,-29.12 2738.34,-28.66"/>
<polygon fill="#63b8ff" stroke="#63b8ff" points="3007.49,-71.42 3017.88,-69.34 3008.46,-64.49 3007.49,-71.42"/>
</g>
<!-- Node18 -->
<g id="node18" class="node">
<title>Node18</title>
<g id="a_node18"><a xlink:href="../../dd/d00/fortranscanner_8l.html" target="_top" xlink:title=" ">
<polygon fill="white" stroke="#666666" points="2914,-30 2756,-30 2756,0 2914,0 2914,-30"/>
<text text-anchor="start" x="2764" y="-18" font-family="Helvetica,sans-Serif" font-size="10.00">/home/runner/work/doxygen</text>
<text text-anchor="middle" x="2835" y="-7" font-family="Helvetica,sans-Serif" font-size="10.00">/doxygen/src/fortranscanner.l</text>
</a>
</g>
</g>
<!-- Node1&#45;&gt;Node18 -->
<g id="edge17" class="edge">
<title>Node1&#45;&gt;Node18</title>
<path fill="none" stroke="#63b8ff" d="M3028.04,-63.52C2985.87,-53.14 2932.03,-39.88 2891.93,-30.01"/>
<polygon fill="#63b8ff" stroke="#63b8ff" points="3027.4,-66.96 3037.94,-65.95 3029.07,-60.17 3027.4,-66.96"/>
</g>
<!-- Node19 -->
<g id="node19" class="node">
<title>Node19</title>
<g id="a_node19"><a xlink:href="../../d8/d6e/htmlgen_8cpp.html" target="_top" xlink:title=" ">
<polygon fill="white" stroke="#666666" points="3086,-30 2932,-30 2932,0 3086,0 3086,-30"/>
<text text-anchor="start" x="2940" y="-18" font-family="Helvetica,sans-Serif" font-size="10.00">/home/runner/work/doxygen</text>
<text text-anchor="middle" x="3009" y="-7" font-family="Helvetica,sans-Serif" font-size="10.00">/doxygen/src/htmlgen.cpp</text>
</a>
</g>
</g>
<!-- Node1&#45;&gt;Node19 -->
<g id="edge18" class="edge">
<title>Node1&#45;&gt;Node19</title>
<path fill="none" stroke="#63b8ff" d="M3067.79,-59.75C3054.86,-50.13 3039.71,-38.86 3028.03,-30.16"/>
<polygon fill="#63b8ff" stroke="#63b8ff" points="3065.8,-62.63 3075.91,-65.8 3069.98,-57.02 3065.8,-62.63"/>
</g>
<!-- Node20 -->
<g id="node20" class="node">
<title>Node20</title>
<g id="a_node20"><a xlink:href="../../db/d16/layout_8cpp.html" target="_top" xlink:title=" ">
<polygon fill="white" stroke="#666666" points="3258,-30 3104,-30 3104,0 3258,0 3258,-30"/>
<text text-anchor="start" x="3112" y="-18" font-family="Helvetica,sans-Serif" font-size="10.00">/home/runner/work/doxygen</text>
<text text-anchor="middle" x="3181" y="-7" font-family="Helvetica,sans-Serif" font-size="10.00">/doxygen/src/layout.cpp</text>
</a>
</g>
</g>
<!-- Node1&#45;&gt;Node20 -->
<g id="edge19" class="edge">
<title>Node1&#45;&gt;Node20</title>
<path fill="none" stroke="#63b8ff" d="M3122.21,-59.75C3135.14,-50.13 3150.29,-38.86 3161.97,-30.16"/>
<polygon fill="#63b8ff" stroke="#63b8ff" points="3120.02,-57.02 3114.09,-65.8 3124.2,-62.63 3120.02,-57.02"/>
</g>
<!-- Node21 -->
<g id="node21" class="node">
<title>Node21</title>
<g id="a_node21"><a xlink:href="../../d0/d7e/lexcode_8l.html" target="_top" xlink:title=" ">
<polygon fill="white" stroke="#666666" points="3430,-30 3276,-30 3276,0 3430,0 3430,-30"/>
<text text-anchor="start" x="3284" y="-18" font-family="Helvetica,sans-Serif" font-size="10.00">/home/runner/work/doxygen</text>
<text text-anchor="middle" x="3353" y="-7" font-family="Helvetica,sans-Serif" font-size="10.00">/doxygen/src/lexcode.l</text>
</a>
</g>
</g>
<!-- Node1&#45;&gt;Node21 -->
<g id="edge20" class="edge">
<title>Node1&#45;&gt;Node21</title>
<path fill="none" stroke="#63b8ff" d="M3161.45,-63.52C3203.29,-53.14 3256.72,-39.88 3296.51,-30.01"/>
<polygon fill="#63b8ff" stroke="#63b8ff" points="3160.48,-60.15 3151.62,-65.95 3162.17,-66.94 3160.48,-60.15"/>
</g>
<!-- Node22 -->
<g id="node22" class="node">
<title>Node22</title>
<g id="a_node22"><a xlink:href="../../d4/d7d/lexscanner_8l.html" target="_top" xlink:title=" ">
<polygon fill="white" stroke="#666666" points="3602,-30 3448,-30 3448,0 3602,0 3602,-30"/>
<text text-anchor="start" x="3456" y="-18" font-family="Helvetica,sans-Serif" font-size="10.00">/home/runner/work/doxygen</text>
<text text-anchor="middle" x="3525" y="-7" font-family="Helvetica,sans-Serif" font-size="10.00">/doxygen/src/lexscanner.l</text>
</a>
</g>
</g>
<!-- Node1&#45;&gt;Node22 -->
<g id="edge21" class="edge">
<title>Node1&#45;&gt;Node22</title>
<path fill="none" stroke="#63b8ff" d="M3182.29,-67.73C3251.86,-57.85 3351.73,-43.44 3439,-30 3441.84,-29.56 3444.73,-29.11 3447.65,-28.65"/>
<polygon fill="#63b8ff" stroke="#63b8ff" points="3181.66,-64.29 3172.25,-69.16 3182.64,-71.22 3181.66,-64.29"/>
</g>
<!-- Node23 -->
<g id="node23" class="node">
<title>Node23</title>
<g id="a_node23"><a xlink:href="../../de/d04/markdown_8cpp.html" target="_top" xlink:title=" ">
<polygon fill="white" stroke="#666666" points="3774,-30 3620,-30 3620,0 3774,0 3774,-30"/>
<text text-anchor="start" x="3628" y="-18" font-family="Helvetica,sans-Serif" font-size="10.00">/home/runner/work/doxygen</text>
<text text-anchor="middle" x="3697" y="-7" font-family="Helvetica,sans-Serif" font-size="10.00">/doxygen/src/markdown.cpp</text>
</a>
</g>
</g>
<!-- Node1&#45;&gt;Node23 -->
<g id="edge22" class="edge">
<title>Node1&#45;&gt;Node23</title>
<path fill="none" stroke="#63b8ff" d="M3182.12,-73.29C3284.87,-64.98 3460.7,-49.49 3611,-30 3613.85,-29.63 3616.75,-29.24 3619.68,-28.83"/>
<polygon fill="#63b8ff" stroke="#63b8ff" points="3181.79,-69.81 3172.11,-74.1 3182.36,-76.78 3181.79,-69.81"/>
</g>
<!-- Node24 -->
<g id="node24" class="node">
<title>Node24</title>
<g id="a_node24"><a xlink:href="../../d8/d6a/message_8cpp.html" target="_top" xlink:title=" ">
<polygon fill="white" stroke="#666666" points="3946,-30 3792,-30 3792,0 3946,0 3946,-30"/>
<text text-anchor="start" x="3800" y="-18" font-family="Helvetica,sans-Serif" font-size="10.00">/home/runner/work/doxygen</text>
<text text-anchor="middle" x="3869" y="-7" font-family="Helvetica,sans-Serif" font-size="10.00">/doxygen/src/message.cpp</text>
</a>
</g>
</g>
<!-- Node1&#45;&gt;Node24 -->
<g id="edge23" class="edge">
<title>Node1&#45;&gt;Node24</title>
<path fill="none" stroke="#63b8ff" d="M3182.44,-76.14C3313.35,-69.79 3567.89,-55.27 3783,-30 3785.85,-29.66 3788.76,-29.3 3791.69,-28.92"/>
<polygon fill="#63b8ff" stroke="#63b8ff" points="3181.9,-72.66 3172.08,-76.64 3182.24,-79.65 3181.9,-72.66"/>
</g>
<!-- Node25 -->
<g id="node25" class="node">
<title>Node25</title>
<g id="a_node25"><a xlink:href="../../d7/d5b/plantuml_8cpp.html" target="_top" xlink:title=" ">
<polygon fill="white" stroke="#666666" points="4118,-30 3964,-30 3964,0 4118,0 4118,-30"/>
<text text-anchor="start" x="3972" y="-18" font-family="Helvetica,sans-Serif" font-size="10.00">/home/runner/work/doxygen</text>
<text text-anchor="middle" x="4041" y="-7" font-family="Helvetica,sans-Serif" font-size="10.00">/doxygen/src/plantuml.cpp</text>
</a>
</g>
</g>
<!-- Node1&#45;&gt;Node25 -->
<g id="edge24" class="edge">
<title>Node1&#45;&gt;Node25</title>
<path fill="none" stroke="#63b8ff" d="M3182.47,-77.9C3338.2,-73.49 3673.63,-61 3955,-30 3957.86,-29.69 3960.76,-29.34 3963.7,-28.97"/>
<polygon fill="#63b8ff" stroke="#63b8ff" points="3181.92,-74.41 3172.02,-78.19 3182.12,-81.41 3181.92,-74.41"/>
</g>
<!-- Node26 -->
<g id="node26" class="node">
<title>Node26</title>
<g id="a_node26"><a xlink:href="../../d0/d1c/portable_8cpp.html" target="_top" xlink:title=" ">
<polygon fill="white" stroke="#666666" points="4290,-30 4136,-30 4136,0 4290,0 4290,-30"/>
<text text-anchor="start" x="4144" y="-18" font-family="Helvetica,sans-Serif" font-size="10.00">/home/runner/work/doxygen</text>
<text text-anchor="middle" x="4213" y="-7" font-family="Helvetica,sans-Serif" font-size="10.00">/doxygen/src/portable.cpp</text>
</a>
</g>
</g>
<!-- Node1&#45;&gt;Node26 -->
<g id="edge25" class="edge">
<title>Node1&#45;&gt;Node26</title>
<path fill="none" stroke="#63b8ff" d="M3182.36,-79.09C3360.49,-76.51 3778.32,-66.71 4127,-30 4129.86,-29.7 4132.77,-29.37 4135.7,-29.01"/>
<polygon fill="#63b8ff" stroke="#63b8ff" points="3182.21,-75.59 3172.26,-79.23 3182.31,-82.59 3182.21,-75.59"/>
</g>
<!-- Node27 -->
<g id="node27" class="node">
<title>Node27</title>
<g id="a_node27"><a xlink:href="../../d0/da7/pre_8l.html" target="_top" xlink:title=" ">
<polygon fill="white" stroke="#666666" points="4462,-30 4308,-30 4308,0 4462,0 4462,-30"/>
<text text-anchor="start" x="4316" y="-18" font-family="Helvetica,sans-Serif" font-size="10.00">/home/runner/work/doxygen</text>
<text text-anchor="middle" x="4385" y="-7" font-family="Helvetica,sans-Serif" font-size="10.00">/doxygen/src/pre.l</text>
</a>
</g>
</g>
<!-- Node1&#45;&gt;Node27 -->
<g id="edge26" class="edge">
<title>Node1&#45;&gt;Node27</title>
<path fill="none" stroke="#63b8ff" d="M3182.44,-79.95C3381.29,-79.06 3882.43,-72.4 4299,-30 4301.86,-29.71 4304.77,-29.38 4307.7,-29.03"/>
<polygon fill="#63b8ff" stroke="#63b8ff" points="3182.33,-76.45 3172.35,-79.99 3182.36,-83.45 3182.33,-76.45"/>
</g>
<!-- Node28 -->
<g id="node28" class="node">
<title>Node28</title>
<g id="a_node28"><a xlink:href="../../d3/ded/pycode_8l.html" target="_top" xlink:title=" ">
<polygon fill="white" stroke="#666666" points="4634,-30 4480,-30 4480,0 4634,0 4634,-30"/>
<text text-anchor="start" x="4488" y="-18" font-family="Helvetica,sans-Serif" font-size="10.00">/home/runner/work/doxygen</text>
<text text-anchor="middle" x="4557" y="-7" font-family="Helvetica,sans-Serif" font-size="10.00">/doxygen/src/pycode.l</text>
</a>
</g>
</g>
<!-- Node1&#45;&gt;Node28 -->
<g id="edge27" class="edge">
<title>Node1&#45;&gt;Node28</title>
<path fill="none" stroke="#63b8ff" d="M3182.15,-80.61C3400.02,-81.3 3985.7,-78.13 4471,-30 4473.86,-29.72 4476.77,-29.4 4479.7,-29.05"/>
<polygon fill="#63b8ff" stroke="#63b8ff" points="3182.07,-77.11 3172.06,-80.57 3182.04,-84.11 3182.07,-77.11"/>
</g>
<!-- Node29 -->
<g id="node29" class="node">
<title>Node29</title>
<g id="a_node29"><a xlink:href="../../de/d2b/pyscanner_8l.html" target="_top" xlink:title=" ">
<polygon fill="white" stroke="#666666" points="4806,-30 4652,-30 4652,0 4806,0 4806,-30"/>
<text text-anchor="start" x="4660" y="-18" font-family="Helvetica,sans-Serif" font-size="10.00">/home/runner/work/doxygen</text>
<text text-anchor="middle" x="4729" y="-7" font-family="Helvetica,sans-Serif" font-size="10.00">/doxygen/src/pyscanner.l</text>
</a>
</g>
</g>
<!-- Node1&#45;&gt;Node29 -->
<g id="edge28" class="edge">
<title>Node1&#45;&gt;Node29</title>
<path fill="none" stroke="#63b8ff" d="M3182.3,-78.66C3465.41,-74.1 4356.33,-57.85 4643,-30 4645.86,-29.72 4648.77,-29.41 4651.71,-29.07"/>
<polygon fill="#63b8ff" stroke="#63b8ff" points="3182.03,-75.17 3172.08,-78.83 3182.14,-82.17 3182.03,-75.17"/>
</g>
<!-- Node30 -->
<g id="node30" class="node">
<title>Node30</title>
<g id="a_node30"><a xlink:href="../../d9/d45/qhp_8cpp.html" target="_top" xlink:title=" ">
<polygon fill="white" stroke="#666666" points="4978,-30 4824,-30 4824,0 4978,0 4978,-30"/>
<text text-anchor="start" x="4832" y="-18" font-family="Helvetica,sans-Serif" font-size="10.00">/home/runner/work/doxygen</text>
<text text-anchor="middle" x="4901" y="-7" font-family="Helvetica,sans-Serif" font-size="10.00">/doxygen/src/qhp.cpp</text>
</a>
</g>
</g>
<!-- Node1&#45;&gt;Node30 -->
<g id="edge29" class="edge">
<title>Node1&#45;&gt;Node30</title>
<path fill="none" stroke="#63b8ff" d="M3182.57,-78.99C3486.26,-75.24 4493.21,-60.73 4815,-30 4817.86,-29.73 4820.77,-29.42 4823.71,-29.08"/>
<polygon fill="#63b8ff" stroke="#63b8ff" points="3182.45,-75.49 3172.49,-79.11 3182.54,-82.49 3182.45,-75.49"/>
</g>
<!-- Node31 -->
<g id="node31" class="node">
<title>Node31</title>
<g id="a_node31"><a xlink:href="../../d0/d9c/rtfgen_8cpp.html" target="_top" xlink:title=" ">
<polygon fill="white" stroke="#666666" points="5150,-30 4996,-30 4996,0 5150,0 5150,-30"/>
<text text-anchor="start" x="5004" y="-18" font-family="Helvetica,sans-Serif" font-size="10.00">/home/runner/work/doxygen</text>
<text text-anchor="middle" x="5073" y="-7" font-family="Helvetica,sans-Serif" font-size="10.00">/doxygen/src/rtfgen.cpp</text>
</a>
</g>
</g>
<!-- Node1&#45;&gt;Node31 -->
<g id="edge30" class="edge">
<title>Node1&#45;&gt;Node31</title>
<path fill="none" stroke="#63b8ff" d="M3182.43,-79.26C3505.24,-76.27 4629.8,-63.64 4987,-30 4989.86,-29.73 4992.77,-29.42 4995.71,-29.09"/>
<polygon fill="#63b8ff" stroke="#63b8ff" points="3182.17,-75.76 3172.2,-79.35 3182.23,-82.76 3182.17,-75.76"/>
</g>
<!-- Node32 -->
<g id="node32" class="node">
<title>Node32</title>
<g id="a_node32"><a xlink:href="../../da/d11/scanner_8l.html" target="_top" xlink:title=" ">
<polygon fill="white" stroke="#666666" points="5322,-30 5168,-30 5168,0 5322,0 5322,-30"/>
<text text-anchor="start" x="5176" y="-18" font-family="Helvetica,sans-Serif" font-size="10.00">/home/runner/work/doxygen</text>
<text text-anchor="middle" x="5245" y="-7" font-family="Helvetica,sans-Serif" font-size="10.00">/doxygen/src/scanner.l</text>
</a>
</g>
</g>
<!-- Node1&#45;&gt;Node32 -->
<g id="edge31" class="edge">
<title>Node1&#45;&gt;Node32</title>
<path fill="none" stroke="#63b8ff" d="M3182.27,-79.48C3523.28,-77.21 4766.26,-66.55 5159,-30 5161.86,-29.73 5164.77,-29.43 5167.71,-29.1"/>
<polygon fill="#63b8ff" stroke="#63b8ff" points="3182.18,-75.98 3172.21,-79.55 3182.23,-82.98 3182.18,-75.98"/>
</g>
<!-- Node33 -->
<g id="node33" class="node">
<title>Node33</title>
<g id="a_node33"><a xlink:href="../../d2/dda/sqlcode_8l.html" target="_top" xlink:title=" ">
<polygon fill="white" stroke="#666666" points="5494,-30 5340,-30 5340,0 5494,0 5494,-30"/>
<text text-anchor="start" x="5348" y="-18" font-family="Helvetica,sans-Serif" font-size="10.00">/home/runner/work/doxygen</text>
<text text-anchor="middle" x="5417" y="-7" font-family="Helvetica,sans-Serif" font-size="10.00">/doxygen/src/sqlcode.l</text>
</a>
</g>
</g>
<!-- Node1&#45;&gt;Node33 -->
<g id="edge32" class="edge">
<title>Node1&#45;&gt;Node33</title>
<path fill="none" stroke="#63b8ff" d="M3182.27,-79.67C3540.93,-78.07 4902.67,-69.46 5331,-30 5333.86,-29.74 5336.77,-29.43 5339.71,-29.1"/>
<polygon fill="#63b8ff" stroke="#63b8ff" points="3182.19,-76.17 3172.21,-79.72 3182.22,-83.17 3182.19,-76.17"/>
</g>
<!-- Node34 -->
<g id="node34" class="node">
<title>Node34</title>
<g id="a_node34"><a xlink:href="../../d4/d7b/tagreader_8cpp.html" target="_top" xlink:title=" ">
<polygon fill="white" stroke="#666666" points="5666,-30 5512,-30 5512,0 5666,0 5666,-30"/>
<text text-anchor="start" x="5520" y="-18" font-family="Helvetica,sans-Serif" font-size="10.00">/home/runner/work/doxygen</text>
<text text-anchor="middle" x="5589" y="-7" font-family="Helvetica,sans-Serif" font-size="10.00">/doxygen/src/tagreader.cpp</text>
</a>
</g>
</g>
<!-- Node1&#45;&gt;Node34 -->
<g id="edge33" class="edge">
<title>Node1&#45;&gt;Node34</title>
<path fill="none" stroke="#63b8ff" d="M3182.33,-79.83C3558.08,-78.86 5039.01,-72.37 5503,-30 5505.86,-29.74 5508.77,-29.44 5511.71,-29.11"/>
<polygon fill="#63b8ff" stroke="#63b8ff" points="3182.06,-76.33 3172.07,-79.86 3182.08,-83.33 3182.06,-76.33"/>
</g>
<!-- Node35 -->
<g id="node35" class="node">
<title>Node35</title>
<g id="a_node35"><a xlink:href="../../df/d2d/util_8cpp.html" target="_top" xlink:title=" ">
<polygon fill="white" stroke="#666666" points="5838,-30 5684,-30 5684,0 5838,0 5838,-30"/>
<text text-anchor="start" x="5692" y="-18" font-family="Helvetica,sans-Serif" font-size="10.00">/home/runner/work/doxygen</text>
<text text-anchor="middle" x="5761" y="-7" font-family="Helvetica,sans-Serif" font-size="10.00">/doxygen/src/util.cpp</text>
</a>
</g>
</g>
<!-- Node1&#45;&gt;Node35 -->
<g id="edge34" class="edge">
<title>Node1&#45;&gt;Node35</title>
<path fill="none" stroke="#63b8ff" d="M3182.36,-79.97C3574.56,-79.6 5175.26,-75.29 5675,-30 5677.86,-29.74 5680.77,-29.44 5683.71,-29.11"/>
<polygon fill="#63b8ff" stroke="#63b8ff" points="3182.21,-76.47 3172.22,-79.98 3182.22,-83.47 3182.21,-76.47"/>
</g>
<!-- Node36 -->
<g id="node36" class="node">
<title>Node36</title>
<g id="a_node36"><a xlink:href="../../d5/d6a/vhdlcode_8l.html" target="_top" xlink:title=" ">
<polygon fill="white" stroke="#666666" points="6010,-30 5856,-30 5856,0 6010,0 6010,-30"/>
<text text-anchor="start" x="5864" y="-18" font-family="Helvetica,sans-Serif" font-size="10.00">/home/runner/work/doxygen</text>
<text text-anchor="middle" x="5933" y="-7" font-family="Helvetica,sans-Serif" font-size="10.00">/doxygen/src/vhdlcode.l</text>
</a>
</g>
</g>
<!-- Node1&#45;&gt;Node36 -->
<g id="edge35" class="edge">
<title>Node1&#45;&gt;Node36</title>
<path fill="none" stroke="#63b8ff" d="M3182.41,-80.1C3590.55,-80.3 5311.43,-78.21 5847,-30 5849.86,-29.74 5852.77,-29.45 5855.71,-29.12"/>
<polygon fill="#63b8ff" stroke="#63b8ff" points="3182.15,-76.6 3172.15,-80.09 3182.15,-83.6 3182.15,-76.6"/>
</g>
<!-- Node37 -->
<g id="node37" class="node">
<title>Node37</title>
<g id="a_node37"><a xlink:href="../../dc/dc1/xmlcode_8l.html" target="_top" xlink:title=" ">
<polygon fill="white" stroke="#666666" points="6182,-30 6028,-30 6028,0 6182,0 6182,-30"/>
<text text-anchor="start" x="6036" y="-18" font-family="Helvetica,sans-Serif" font-size="10.00">/home/runner/work/doxygen</text>
<text text-anchor="middle" x="6105" y="-7" font-family="Helvetica,sans-Serif" font-size="10.00">/doxygen/src/xmlcode.l</text>
</a>
</g>
</g>
<!-- Node1&#45;&gt;Node37 -->
<g id="edge36" class="edge">
<title>Node1&#45;&gt;Node37</title>
<path fill="none" stroke="#63b8ff" d="M3182.29,-80.21C3605.59,-80.95 5447.47,-81.14 6019,-30 6021.86,-29.74 6024.77,-29.45 6027.71,-29.12"/>
<polygon fill="#63b8ff" stroke="#63b8ff" points="3182.27,-76.71 3172.26,-80.19 3182.25,-83.71 3182.27,-76.71"/>
</g>
</g>
</svg>
