<?xml version="1.0" encoding="UTF-8" standalone="no"?>
<!DOCTYPE svg PUBLIC "-//W3C//DTD SVG 1.1//EN"
 "http://www.w3.org/Graphics/SVG/1.1/DTD/svg11.dtd">
<!-- Generated by graphviz version 2.43.0 (0)
 -->
<!-- Title: /home/runner/work/doxygen/doxygen/src/rtfdocvisitor.h Pages: 1 -->
<!--zoomable 313 -->
<svg id="main" version="1.1" xmlns="http://www.w3.org/2000/svg" xmlns:xlink="http://www.w3.org/1999/xlink" xml:space="preserve" onload="init(evt)">
<style type="text/css"><![CDATA[
.edge:hover path { stroke: red; }
.edge:hover polygon { stroke: red; fill: red; }
]]></style>
<script type="text/javascript"><![CDATA[
var edges = document.getElementsByTagName('g');
if (edges && edges.length) {
  for (var i=0;i<edges.length;i++) {
    if (edges[i].id.substr(0,4)=='edge') {
      edges[i].setAttribute('class','edge');
    }
  }
}
]]></script>
        <defs>
                <circle id="rim" cx="0" cy="0" r="7"/>
                <circle id="rim2" cx="0" cy="0" r="3.5"/>
                <g id="zoomPlus">
                        <use xlink:href="#rim" fill="#404040">
                                <set attributeName="fill" to="#808080" begin="zoomplus.mouseover" end="zoomplus.mouseout"/>
                        </use>
                        <path d="M-4,0h8M0,-4v8" fill="none" stroke="white" stroke-width="1.5" pointer-events="none"/>
                </g>
                <g id="zoomMin">
                        <use xlink:href="#rim" fill="#404040">
                                <set attributeName="fill" to="#808080" begin="zoomminus.mouseover" end="zoomminus.mouseout"/>
                        </use>
                        <path d="M-4,0h8" fill="none" stroke="white" stroke-width="1.5" pointer-events="none"/>
                </g>
                <g id="dirArrow">
                        <path fill="none" stroke="white" stroke-width="1.5" d="M0,-3.0v7 M-2.5,-0.5L0,-3.0L2.5,-0.5"/>
                </g>
               <g id="resetDef">
                       <use xlink:href="#rim2" fill="#404040">
                               <set attributeName="fill" to="#808080" begin="reset.mouseover" end="reset.mouseout"/>
                       </use>
               </g>
        </defs>

<script type="text/javascript">
var viewWidth = 979;
var viewHeight = 313;
var sectionId = 'dynsection-0';
</script>
<script xlink:href="../../svgpan.js"/>
<svg id="graph" class="graph">
<g id="viewport">
<title>/home/runner/work/doxygen/doxygen/src/rtfdocvisitor.h</title>
<!-- Node1 -->
<g id="node1" class="node">
<title>Node1</title>
<g id="a_node1"><a xlink:title=" ">
<polygon fill="#999999" stroke="#666666" points="639.5,-305 485.5,-305 485.5,-275 639.5,-275 639.5,-305"/>
<text text-anchor="start" x="493.5" y="-293" font-family="Helvetica,sans-Serif" font-size="10.00">/home/runner/work/doxygen</text>
<text text-anchor="middle" x="562.5" y="-282" font-family="Helvetica,sans-Serif" font-size="10.00">/doxygen/src/rtfdocvisitor.h</text>
</a>
</g>
</g>
<!-- Node2 -->
<g id="node2" class="node">
<title>Node2</title>
<g id="a_node2"><a xlink:title=" ">
<polygon fill="#e0e0e0" stroke="#999999" points="534.5,-239 474.5,-239 474.5,-220 534.5,-220 534.5,-239"/>
<text text-anchor="middle" x="504.5" y="-227" font-family="Helvetica,sans-Serif" font-size="10.00">iostream</text>
</a>
</g>
</g>
<!-- Node1&#45;&gt;Node2 -->
<g id="edge1" class="edge">
<title>Node1&#45;&gt;Node2</title>
<path fill="none" stroke="#63b8ff" d="M548.46,-274.84C539.95,-266.26 529.09,-255.3 520.28,-246.42"/>
<polygon fill="#63b8ff" stroke="#63b8ff" points="522.72,-243.9 513.19,-239.27 517.75,-248.83 522.72,-243.9"/>
</g>
<!-- Node3 -->
<g id="node3" class="node">
<title>Node3</title>
<g id="a_node3"><a xlink:href="../../d2/d3c/docvisitor_8h.html" target="_top" xlink:title=" ">
<polygon fill="white" stroke="#666666" points="565,-184 492,-184 492,-165 565,-165 565,-184"/>
<text text-anchor="middle" x="528.5" y="-172" font-family="Helvetica,sans-Serif" font-size="10.00">docvisitor.h</text>
</a>
</g>
</g>
<!-- Node1&#45;&gt;Node3 -->
<g id="edge2" class="edge">
<title>Node1&#45;&gt;Node3</title>
<path fill="none" stroke="#63b8ff" d="M558.87,-274.92C555.21,-260.93 549.28,-238.89 543.5,-220 540.85,-211.33 537.67,-201.79 534.92,-193.77"/>
<polygon fill="#63b8ff" stroke="#63b8ff" points="538.22,-192.62 531.64,-184.32 531.61,-194.91 538.22,-192.62"/>
</g>
<!-- Node15 -->
<g id="node15" class="node">
<title>Node15</title>
<g id="a_node15"><a xlink:href="../../de/d2b/docnode_8h.html" target="_top" xlink:title=" ">
<polygon fill="white" stroke="#666666" points="692,-239 625,-239 625,-220 692,-220 692,-239"/>
<text text-anchor="middle" x="658.5" y="-227" font-family="Helvetica,sans-Serif" font-size="10.00">docnode.h</text>
</a>
</g>
</g>
<!-- Node1&#45;&gt;Node15 -->
<g id="edge16" class="edge">
<title>Node1&#45;&gt;Node15</title>
<path fill="none" stroke="#63b8ff" d="M585.74,-274.84C600.9,-265.6 620.61,-253.59 635.69,-244.4"/>
<polygon fill="#63b8ff" stroke="#63b8ff" points="637.68,-247.29 644.4,-239.09 634.04,-241.31 637.68,-247.29"/>
</g>
<!-- Node4 -->
<g id="node4" class="node">
<title>Node4</title>
<g id="a_node4"><a xlink:title=" ">
<polygon fill="#e0e0e0" stroke="#999999" points="771.5,-74 713.5,-74 713.5,-55 771.5,-55 771.5,-74"/>
<text text-anchor="middle" x="742.5" y="-62" font-family="Helvetica,sans-Serif" font-size="10.00">memory</text>
</a>
</g>
</g>
<!-- Node3&#45;&gt;Node4 -->
<g id="edge3" class="edge">
<title>Node3&#45;&gt;Node4</title>
<path fill="none" stroke="#63b8ff" d="M533.17,-164.64C540.91,-150.83 557.74,-124.27 579.5,-110 589.94,-103.15 658.58,-85.73 703.39,-74.83"/>
<polygon fill="#63b8ff" stroke="#63b8ff" points="704.5,-78.17 713.39,-72.41 702.85,-71.36 704.5,-78.17"/>
</g>
<!-- Node5 -->
<g id="node5" class="node">
<title>Node5</title>
<g id="a_node5"><a xlink:href="../../d7/d5c/qcstring_8h.html" target="_top" xlink:title=" ">
<polygon fill="white" stroke="#666666" points="506,-129 441,-129 441,-110 506,-110 506,-129"/>
<text text-anchor="middle" x="473.5" y="-117" font-family="Helvetica,sans-Serif" font-size="10.00">qcstring.h</text>
</a>
</g>
</g>
<!-- Node3&#45;&gt;Node5 -->
<g id="edge4" class="edge">
<title>Node3&#45;&gt;Node5</title>
<path fill="none" stroke="#63b8ff" d="M519.42,-164.75C511.41,-157.03 499.54,-145.6 489.88,-136.28"/>
<polygon fill="#63b8ff" stroke="#63b8ff" points="492.04,-133.51 482.41,-129.09 487.19,-138.55 492.04,-133.51"/>
</g>
<!-- Node6 -->
<g id="node6" class="node">
<title>Node6</title>
<g id="a_node6"><a xlink:title=" ">
<polygon fill="#e0e0e0" stroke="#999999" points="181.5,-19 137.5,-19 137.5,0 181.5,0 181.5,-19"/>
<text text-anchor="middle" x="159.5" y="-7" font-family="Helvetica,sans-Serif" font-size="10.00">string</text>
</a>
</g>
</g>
<!-- Node5&#45;&gt;Node6 -->
<g id="edge5" class="edge">
<title>Node5&#45;&gt;Node6</title>
<path fill="none" stroke="#63b8ff" d="M440.9,-117.86C372.52,-115.85 217.22,-107.61 178.5,-74 165.88,-63.05 161.47,-44.09 160.01,-29.74"/>
<polygon fill="#63b8ff" stroke="#63b8ff" points="163.48,-29.21 159.37,-19.45 156.49,-29.65 163.48,-29.21"/>
</g>
<!-- Node7 -->
<g id="node7" class="node">
<title>Node7</title>
<g id="a_node7"><a xlink:title=" ">
<polygon fill="#e0e0e0" stroke="#999999" points="695.5,-74 631.5,-74 631.5,-55 695.5,-55 695.5,-74"/>
<text text-anchor="middle" x="663.5" y="-62" font-family="Helvetica,sans-Serif" font-size="10.00">algorithm</text>
</a>
</g>
</g>
<!-- Node5&#45;&gt;Node7 -->
<g id="edge6" class="edge">
<title>Node5&#45;&gt;Node7</title>
<path fill="none" stroke="#63b8ff" d="M504.03,-109.98C536.2,-101.01 587.06,-86.82 622.67,-76.89"/>
<polygon fill="#63b8ff" stroke="#63b8ff" points="624.04,-80.14 632.73,-74.08 622.16,-73.4 624.04,-80.14"/>
</g>
<!-- Node8 -->
<g id="node8" class="node">
<title>Node8</title>
<g id="a_node8"><a xlink:title=" ">
<polygon fill="#e0e0e0" stroke="#999999" points="237,-74 188,-74 188,-55 237,-55 237,-74"/>
<text text-anchor="middle" x="212.5" y="-62" font-family="Helvetica,sans-Serif" font-size="10.00">cctype</text>
</a>
</g>
</g>
<!-- Node5&#45;&gt;Node8 -->
<g id="edge7" class="edge">
<title>Node5&#45;&gt;Node8</title>
<path fill="none" stroke="#63b8ff" d="M440.69,-112.61C398.35,-104.9 322.2,-90.63 247.41,-74.11"/>
<polygon fill="#63b8ff" stroke="#63b8ff" points="247.87,-70.62 237.35,-71.87 246.35,-77.46 247.87,-70.62"/>
</g>
<!-- Node9 -->
<g id="node9" class="node">
<title>Node9</title>
<g id="a_node9"><a xlink:title=" ">
<polygon fill="#e0e0e0" stroke="#999999" points="305.5,-74 255.5,-74 255.5,-55 305.5,-55 305.5,-74"/>
<text text-anchor="middle" x="280.5" y="-62" font-family="Helvetica,sans-Serif" font-size="10.00">cstring</text>
</a>
</g>
</g>
<!-- Node5&#45;&gt;Node9 -->
<g id="edge8" class="edge">
<title>Node5&#45;&gt;Node9</title>
<path fill="none" stroke="#63b8ff" d="M442.49,-109.98C407.72,-100.44 351.47,-84.99 315.24,-75.04"/>
<polygon fill="#63b8ff" stroke="#63b8ff" points="316.16,-71.66 305.59,-72.39 314.31,-78.41 316.16,-71.66"/>
</g>
<!-- Node10 -->
<g id="node10" class="node">
<title>Node10</title>
<g id="a_node10"><a xlink:title=" ">
<polygon fill="#e0e0e0" stroke="#999999" points="369.5,-74 323.5,-74 323.5,-55 369.5,-55 369.5,-74"/>
<text text-anchor="middle" x="346.5" y="-62" font-family="Helvetica,sans-Serif" font-size="10.00">cstdio</text>
</a>
</g>
</g>
<!-- Node5&#45;&gt;Node10 -->
<g id="edge9" class="edge">
<title>Node5&#45;&gt;Node10</title>
<path fill="none" stroke="#63b8ff" d="M453.1,-109.98C432.48,-101.38 400.39,-87.99 376.81,-78.15"/>
<polygon fill="#63b8ff" stroke="#63b8ff" points="377.85,-74.79 367.28,-74.17 375.16,-81.25 377.85,-74.79"/>
</g>
<!-- Node11 -->
<g id="node11" class="node">
<title>Node11</title>
<g id="a_node11"><a xlink:title=" ">
<polygon fill="#e0e0e0" stroke="#999999" points="437,-74 388,-74 388,-55 437,-55 437,-74"/>
<text text-anchor="middle" x="412.5" y="-62" font-family="Helvetica,sans-Serif" font-size="10.00">cstdlib</text>
</a>
</g>
</g>
<!-- Node5&#45;&gt;Node11 -->
<g id="edge10" class="edge">
<title>Node5&#45;&gt;Node11</title>
<path fill="none" stroke="#63b8ff" d="M463.7,-109.98C454.68,-102.15 441.09,-90.34 430.18,-80.86"/>
<polygon fill="#63b8ff" stroke="#63b8ff" points="432.32,-78.09 422.48,-74.17 427.73,-83.37 432.32,-78.09"/>
</g>
<!-- Node12 -->
<g id="node12" class="node">
<title>Node12</title>
<g id="a_node12"><a xlink:title=" ">
<polygon fill="#e0e0e0" stroke="#999999" points="602.5,-19 552.5,-19 552.5,0 602.5,0 602.5,-19"/>
<text text-anchor="middle" x="577.5" y="-7" font-family="Helvetica,sans-Serif" font-size="10.00">cstdint</text>
</a>
</g>
</g>
<!-- Node5&#45;&gt;Node12 -->
<g id="edge11" class="edge">
<title>Node5&#45;&gt;Node12</title>
<path fill="none" stroke="#63b8ff" d="M506.09,-115.02C531.89,-110.35 566.34,-99.45 583.5,-74 592.39,-60.81 589.42,-42.44 585.09,-28.85"/>
<polygon fill="#63b8ff" stroke="#63b8ff" points="588.27,-27.34 581.54,-19.16 581.7,-29.75 588.27,-27.34"/>
</g>
<!-- Node13 -->
<g id="node13" class="node">
<title>Node13</title>
<g id="a_node13"><a xlink:title=" ">
<polygon fill="#e0e0e0" stroke="#999999" points="512,-74 455,-74 455,-55 512,-55 512,-74"/>
<text text-anchor="middle" x="483.5" y="-62" font-family="Helvetica,sans-Serif" font-size="10.00">ostream</text>
</a>
</g>
</g>
<!-- Node5&#45;&gt;Node13 -->
<g id="edge12" class="edge">
<title>Node5&#45;&gt;Node13</title>
<path fill="none" stroke="#63b8ff" d="M475.15,-109.75C476.46,-102.8 478.34,-92.85 479.98,-84.13"/>
<polygon fill="#63b8ff" stroke="#63b8ff" points="483.46,-84.56 481.88,-74.09 476.59,-83.27 483.46,-84.56"/>
</g>
<!-- Node14 -->
<g id="node14" class="node">
<title>Node14</title>
<g id="a_node14"><a xlink:href="../../db/d7c/utf8_8h.html" target="_top" xlink:title="Various UTF8 related helper functions.">
<polygon fill="white" stroke="#666666" points="575,-74 530,-74 530,-55 575,-55 575,-74"/>
<text text-anchor="middle" x="552.5" y="-62" font-family="Helvetica,sans-Serif" font-size="10.00">utf8.h</text>
</a>
</g>
</g>
<!-- Node5&#45;&gt;Node14 -->
<g id="edge13" class="edge">
<title>Node5&#45;&gt;Node14</title>
<path fill="none" stroke="#63b8ff" d="M486.19,-109.98C498.33,-101.84 516.86,-89.41 531.25,-79.76"/>
<polygon fill="#63b8ff" stroke="#63b8ff" points="533.22,-82.65 539.58,-74.17 529.32,-76.84 533.22,-82.65"/>
</g>
<!-- Node14&#45;&gt;Node6 -->
<g id="edge15" class="edge">
<title>Node14&#45;&gt;Node6</title>
<path fill="none" stroke="#63b8ff" d="M529.86,-57.08C526.73,-56.31 523.55,-55.59 520.5,-55 400.35,-31.75 255.24,-18.2 191.81,-12.99"/>
<polygon fill="#63b8ff" stroke="#63b8ff" points="191.89,-9.48 181.64,-12.17 191.33,-16.46 191.89,-9.48"/>
</g>
<!-- Node14&#45;&gt;Node12 -->
<g id="edge14" class="edge">
<title>Node14&#45;&gt;Node12</title>
<path fill="none" stroke="#63b8ff" d="M556.63,-54.75C560.01,-47.57 564.92,-37.18 569.12,-28.27"/>
<polygon fill="#63b8ff" stroke="#63b8ff" points="572.35,-29.63 573.45,-19.09 566.02,-26.64 572.35,-29.63"/>
</g>
<!-- Node15&#45;&gt;Node3 -->
<g id="edge22" class="edge">
<title>Node15&#45;&gt;Node3</title>
<path fill="none" stroke="#63b8ff" d="M637.61,-219.98C616.42,-211.34 583.37,-197.87 559.2,-188.02"/>
<polygon fill="#63b8ff" stroke="#63b8ff" points="560.35,-184.7 549.77,-184.17 557.71,-191.19 560.35,-184.7"/>
</g>
<!-- Node15&#45;&gt;Node4 -->
<g id="edge19" class="edge">
<title>Node15&#45;&gt;Node4</title>
<path fill="none" stroke="#63b8ff" d="M644.43,-219.87C627.32,-208.19 601.95,-186.36 612.5,-165 633.26,-122.97 681.23,-93.8 712.74,-78.36"/>
<polygon fill="#63b8ff" stroke="#63b8ff" points="714.39,-81.45 721.93,-74.01 711.4,-75.12 714.39,-81.45"/>
</g>
<!-- Node15&#45;&gt;Node5 -->
<g id="edge21" class="edge">
<title>Node15&#45;&gt;Node5</title>
<path fill="none" stroke="#63b8ff" d="M624.66,-224.44C579.01,-218.23 501.25,-204.87 482.5,-184 471.7,-171.97 470.25,-153.17 471.03,-139.13"/>
<polygon fill="#63b8ff" stroke="#63b8ff" points="474.51,-139.42 471.99,-129.13 467.55,-138.75 474.51,-139.42"/>
</g>
<!-- Node16 -->
<g id="node16" class="node">
<title>Node16</title>
<g id="a_node16"><a xlink:title=" ">
<polygon fill="#e0e0e0" stroke="#999999" points="956.5,-129 906.5,-129 906.5,-110 956.5,-110 956.5,-129"/>
<text text-anchor="middle" x="931.5" y="-117" font-family="Helvetica,sans-Serif" font-size="10.00">stdio.h</text>
</a>
</g>
</g>
<!-- Node15&#45;&gt;Node16 -->
<g id="edge17" class="edge">
<title>Node15&#45;&gt;Node16</title>
<path fill="none" stroke="#63b8ff" d="M692.09,-228.84C738.14,-227.83 821.94,-220.55 881.5,-184 899.57,-172.91 913.73,-152.78 922.3,-138.16"/>
<polygon fill="#63b8ff" stroke="#63b8ff" points="925.54,-139.53 927.32,-129.09 919.42,-136.14 925.54,-139.53"/>
</g>
<!-- Node17 -->
<g id="node17" class="node">
<title>Node17</title>
<g id="a_node17"><a xlink:title=" ">
<polygon fill="#e0e0e0" stroke="#999999" points="908,-74 861,-74 861,-55 908,-55 908,-74"/>
<text text-anchor="middle" x="884.5" y="-62" font-family="Helvetica,sans-Serif" font-size="10.00">vector</text>
</a>
</g>
</g>
<!-- Node15&#45;&gt;Node17 -->
<g id="edge18" class="edge">
<title>Node15&#45;&gt;Node17</title>
<path fill="none" stroke="#63b8ff" d="M692.3,-228.27C741.66,-226.68 835.23,-218.83 905.5,-184 943.44,-165.2 987.06,-146.44 965.5,-110 955.26,-92.68 935.61,-81.66 918.24,-74.91"/>
<polygon fill="#63b8ff" stroke="#63b8ff" points="918.95,-71.45 908.36,-71.42 916.62,-78.05 918.95,-71.45"/>
</g>
<!-- Node18 -->
<g id="node18" class="node">
<title>Node18</title>
<g id="a_node18"><a xlink:title=" ">
<polygon fill="#e0e0e0" stroke="#999999" points="765,-184 714,-184 714,-165 765,-165 765,-184"/>
<text text-anchor="middle" x="739.5" y="-172" font-family="Helvetica,sans-Serif" font-size="10.00">variant</text>
</a>
</g>
</g>
<!-- Node15&#45;&gt;Node18 -->
<g id="edge20" class="edge">
<title>Node15&#45;&gt;Node18</title>
<path fill="none" stroke="#63b8ff" d="M671.51,-219.98C683.96,-211.84 702.96,-199.41 717.71,-189.76"/>
<polygon fill="#63b8ff" stroke="#63b8ff" points="719.8,-192.57 726.25,-184.17 715.96,-186.72 719.8,-192.57"/>
</g>
<!-- Node19 -->
<g id="node19" class="node">
<title>Node19</title>
<g id="a_node19"><a xlink:href="../../de/d9c/docparser_8h.html" target="_top" xlink:title=" ">
<polygon fill="white" stroke="#666666" points="856,-184 783,-184 783,-165 856,-165 856,-184"/>
<text text-anchor="middle" x="819.5" y="-172" font-family="Helvetica,sans-Serif" font-size="10.00">docparser.h</text>
</a>
</g>
</g>
<!-- Node15&#45;&gt;Node19 -->
<g id="edge23" class="edge">
<title>Node15&#45;&gt;Node19</title>
<path fill="none" stroke="#63b8ff" d="M684.37,-219.98C711.28,-211.13 753.62,-197.19 783.73,-187.28"/>
<polygon fill="#63b8ff" stroke="#63b8ff" points="785.03,-190.53 793.43,-184.08 782.84,-183.88 785.03,-190.53"/>
</g>
<!-- Node20 -->
<g id="node20" class="node">
<title>Node20</title>
<g id="a_node20"><a xlink:href="../../d7/d50/growvector_8h.html" target="_top" xlink:title=" ">
<polygon fill="white" stroke="#666666" points="850.5,-129 770.5,-129 770.5,-110 850.5,-110 850.5,-129"/>
<text text-anchor="middle" x="810.5" y="-117" font-family="Helvetica,sans-Serif" font-size="10.00">growvector.h</text>
</a>
</g>
</g>
<!-- Node15&#45;&gt;Node20 -->
<g id="edge38" class="edge">
<title>Node15&#45;&gt;Node20</title>
<path fill="none" stroke="#63b8ff" d="M692.08,-226.27C745.01,-221.97 844.07,-210.52 865.5,-184 879.63,-166.51 856.79,-147.05 836.39,-134.34"/>
<polygon fill="#63b8ff" stroke="#63b8ff" points="838.01,-131.24 827.61,-129.17 834.45,-137.27 838.01,-131.24"/>
</g>
<!-- Node22 -->
<g id="node22" class="node">
<title>Node22</title>
<g id="a_node22"><a xlink:href="../../d0/d73/htmlattrib_8h.html" target="_top" xlink:title=" ">
<polygon fill="white" stroke="#666666" points="695.5,-184 621.5,-184 621.5,-165 695.5,-165 695.5,-184"/>
<text text-anchor="middle" x="658.5" y="-172" font-family="Helvetica,sans-Serif" font-size="10.00">htmlattrib.h</text>
</a>
</g>
</g>
<!-- Node15&#45;&gt;Node22 -->
<g id="edge31" class="edge">
<title>Node15&#45;&gt;Node22</title>
<path fill="none" stroke="#63b8ff" d="M658.5,-219.75C658.5,-212.8 658.5,-202.85 658.5,-194.13"/>
<polygon fill="#63b8ff" stroke="#63b8ff" points="662,-194.09 658.5,-184.09 655,-194.09 662,-194.09"/>
</g>
<!-- Node23 -->
<g id="node23" class="node">
<title>Node23</title>
<g id="a_node23"><a xlink:href="../../db/dc6/htmlentity_8h.html" target="_top" xlink:title=" ">
<polygon fill="white" stroke="#666666" points="302,-184 227,-184 227,-165 302,-165 302,-184"/>
<text text-anchor="middle" x="264.5" y="-172" font-family="Helvetica,sans-Serif" font-size="10.00">htmlentity.h</text>
</a>
</g>
</g>
<!-- Node15&#45;&gt;Node23 -->
<g id="edge34" class="edge">
<title>Node15&#45;&gt;Node23</title>
<path fill="none" stroke="#63b8ff" d="M624.91,-223.98C554.92,-214.57 393.27,-192.82 312.39,-181.94"/>
<polygon fill="#63b8ff" stroke="#63b8ff" points="312.38,-178.41 302.01,-180.55 311.45,-185.35 312.38,-178.41"/>
</g>
<!-- Node19&#45;&gt;Node4 -->
<g id="edge25" class="edge">
<title>Node19&#45;&gt;Node4</title>
<path fill="none" stroke="#63b8ff" d="M803.46,-164.99C790.36,-157.26 772.31,-144.67 761.5,-129 752.21,-115.53 747.38,-97.43 744.92,-84.01"/>
<polygon fill="#63b8ff" stroke="#63b8ff" points="748.36,-83.37 743.37,-74.03 741.45,-84.45 748.36,-83.37"/>
</g>
<!-- Node19&#45;&gt;Node5 -->
<g id="edge26" class="edge">
<title>Node19&#45;&gt;Node5</title>
<path fill="none" stroke="#63b8ff" d="M782.68,-166.42C779.92,-165.93 777.17,-165.45 774.5,-165 682.6,-149.53 574.43,-134.25 516.05,-126.24"/>
<polygon fill="#63b8ff" stroke="#63b8ff" points="516.46,-122.77 506.08,-124.88 515.52,-129.71 516.46,-122.77"/>
</g>
<!-- Node19&#45;&gt;Node16 -->
<g id="edge24" class="edge">
<title>Node19&#45;&gt;Node16</title>
<path fill="none" stroke="#63b8ff" d="M837.49,-164.98C855.43,-156.5 883.22,-143.35 903.93,-133.54"/>
<polygon fill="#63b8ff" stroke="#63b8ff" points="905.64,-136.61 913.18,-129.17 902.64,-130.28 905.64,-136.61"/>
</g>
<!-- Node19&#45;&gt;Node20 -->
<g id="edge27" class="edge">
<title>Node19&#45;&gt;Node20</title>
<path fill="none" stroke="#63b8ff" d="M818.01,-164.75C816.83,-157.8 815.14,-147.85 813.66,-139.13"/>
<polygon fill="#63b8ff" stroke="#63b8ff" points="817.08,-138.36 811.96,-129.09 810.18,-139.53 817.08,-138.36"/>
</g>
<!-- Node20&#45;&gt;Node4 -->
<g id="edge29" class="edge">
<title>Node20&#45;&gt;Node4</title>
<path fill="none" stroke="#63b8ff" d="M799.57,-109.98C789.42,-102.07 774.08,-90.11 761.85,-80.58"/>
<polygon fill="#63b8ff" stroke="#63b8ff" points="763.66,-77.56 753.62,-74.17 759.36,-83.08 763.66,-77.56"/>
</g>
<!-- Node20&#45;&gt;Node17 -->
<g id="edge28" class="edge">
<title>Node20&#45;&gt;Node17</title>
<path fill="none" stroke="#63b8ff" d="M822.39,-109.98C833.65,-101.92 850.79,-89.65 864.21,-80.03"/>
<polygon fill="#63b8ff" stroke="#63b8ff" points="866.3,-82.84 872.39,-74.17 862.23,-77.15 866.3,-82.84"/>
</g>
<!-- Node21 -->
<g id="node21" class="node">
<title>Node21</title>
<g id="a_node21"><a xlink:title=" ">
<polygon fill="#e0e0e0" stroke="#999999" points="843,-74 790,-74 790,-55 843,-55 843,-74"/>
<text text-anchor="middle" x="816.5" y="-62" font-family="Helvetica,sans-Serif" font-size="10.00">iterator</text>
</a>
</g>
</g>
<!-- Node20&#45;&gt;Node21 -->
<g id="edge30" class="edge">
<title>Node20&#45;&gt;Node21</title>
<path fill="none" stroke="#63b8ff" d="M811.49,-109.75C812.28,-102.8 813.4,-92.85 814.39,-84.13"/>
<polygon fill="#63b8ff" stroke="#63b8ff" points="817.88,-84.42 815.53,-74.09 810.92,-83.63 817.88,-84.42"/>
</g>
<!-- Node22&#45;&gt;Node5 -->
<g id="edge33" class="edge">
<title>Node22&#45;&gt;Node5</title>
<path fill="none" stroke="#63b8ff" d="M628.78,-164.98C597.45,-156.01 547.93,-141.82 513.26,-131.89"/>
<polygon fill="#63b8ff" stroke="#63b8ff" points="514.03,-128.47 503.46,-129.08 512.11,-135.2 514.03,-128.47"/>
</g>
<!-- Node22&#45;&gt;Node17 -->
<g id="edge32" class="edge">
<title>Node22&#45;&gt;Node17</title>
<path fill="none" stroke="#63b8ff" d="M695.77,-166.19C752.15,-154.99 853.25,-134.34 859.5,-129 872.58,-117.83 878.87,-98.9 881.86,-84.61"/>
<polygon fill="#63b8ff" stroke="#63b8ff" points="885.37,-84.83 883.61,-74.38 878.47,-83.65 885.37,-84.83"/>
</g>
<!-- Node23&#45;&gt;Node5 -->
<g id="edge37" class="edge">
<title>Node23&#45;&gt;Node5</title>
<path fill="none" stroke="#63b8ff" d="M298.08,-164.98C334.17,-155.83 391.63,-141.26 430.88,-131.31"/>
<polygon fill="#63b8ff" stroke="#63b8ff" points="431.86,-134.67 440.69,-128.82 430.14,-127.89 431.86,-134.67"/>
</g>
<!-- Node23&#45;&gt;Node6 -->
<g id="edge36" class="edge">
<title>Node23&#45;&gt;Node6</title>
<path fill="none" stroke="#63b8ff" d="M250.4,-164.91C227.15,-149.84 181.47,-116.19 162.5,-74 156.2,-59.99 155.86,-42.43 156.87,-29.34"/>
<polygon fill="#63b8ff" stroke="#63b8ff" points="160.37,-29.5 157.98,-19.18 153.41,-28.74 160.37,-29.5"/>
</g>
<!-- Node24 -->
<g id="node24" class="node">
<title>Node24</title>
<g id="a_node24"><a xlink:title=" ">
<polygon fill="#e0e0e0" stroke="#999999" points="93,-129 0,-129 0,-110 93,-110 93,-129"/>
<text text-anchor="middle" x="46.5" y="-117" font-family="Helvetica,sans-Serif" font-size="10.00">unordered_map</text>
</a>
</g>
</g>
<!-- Node23&#45;&gt;Node24 -->
<g id="edge35" class="edge">
<title>Node23&#45;&gt;Node24</title>
<path fill="none" stroke="#63b8ff" d="M229.47,-164.98C192,-155.87 132.45,-141.4 91.52,-131.45"/>
<polygon fill="#63b8ff" stroke="#63b8ff" points="92.34,-128.04 81.8,-129.08 90.69,-134.85 92.34,-128.04"/>
</g>
</g>
</svg>
        <g id="navigator" transform="translate(0 0)" fill="#404254">
                <rect fill="#f2f5e9" fill-opacity="0.5" stroke="#606060" stroke-width=".5" x="0" y="0" width="60" height="60"/>
                <use id="zoomplus" xlink:href="#zoomPlus" x="17" y="9" onmousedown="handleZoom(evt,'in')"/>
                <use id="zoomminus" xlink:href="#zoomMin" x="42" y="9" onmousedown="handleZoom(evt,'out')"/>
                <use id="reset" xlink:href="#resetDef" x="30" y="36" onmousedown="handleReset()"/>
                <g id="arrowUp" xlink:href="#dirArrow" transform="translate(30 24)" onmousedown="handlePan(0,-1)">
                  <use xlink:href="#rim" fill="#404040">
                        <set attributeName="fill" to="#808080" begin="arrowUp.mouseover" end="arrowUp.mouseout"/>
                  </use>
                  <path fill="none" stroke="white" stroke-width="1.5" d="M0,-3.0v7 M-2.5,-0.5L0,-3.0L2.5,-0.5"/>
                </g>
                <g id="arrowRight" xlink:href="#dirArrow" transform="rotate(90) translate(36 -43)" onmousedown="handlePan(1,0)">
                  <use xlink:href="#rim" fill="#404040">
                        <set attributeName="fill" to="#808080" begin="arrowRight.mouseover" end="arrowRight.mouseout"/>
                  </use>
                  <path fill="none" stroke="white" stroke-width="1.5" d="M0,-3.0v7 M-2.5,-0.5L0,-3.0L2.5,-0.5"/>
                </g>
                <g id="arrowDown" xlink:href="#dirArrow" transform="rotate(180) translate(-30 -48)" onmousedown="handlePan(0,1)">
                  <use xlink:href="#rim" fill="#404040">
                        <set attributeName="fill" to="#808080" begin="arrowDown.mouseover" end="arrowDown.mouseout"/>
                  </use>
                  <path fill="none" stroke="white" stroke-width="1.5" d="M0,-3.0v7 M-2.5,-0.5L0,-3.0L2.5,-0.5"/>
                </g>
                <g id="arrowLeft" xlink:href="#dirArrow" transform="rotate(270) translate(-36 17)" onmousedown="handlePan(-1,0)">
                  <use xlink:href="#rim" fill="#404040">
                        <set attributeName="fill" to="#808080" begin="arrowLeft.mouseover" end="arrowLeft.mouseout"/>
                  </use>
                  <path fill="none" stroke="white" stroke-width="1.5" d="M0,-3.0v7 M-2.5,-0.5L0,-3.0L2.5,-0.5"/>
                </g>
        </g>
        <svg viewBox="0 0 15 15" width="100%" height="30px" preserveAspectRatio="xMaxYMin meet">
         <g id="arrow_out" transform="scale(0.3 0.3)">
          <a xlink:href="rtfdocvisitor_8h__incl_org.svg" target="_base">
           <rect id="button" ry="5" rx="5" y="6" x="6" height="38" width="38"
                fill="#f2f5e9" fill-opacity="0.5" stroke="#606060" stroke-width="1.0"/>
           <path id="arrow"
             d="M 11.500037,31.436501 C 11.940474,20.09759 22.043105,11.32322 32.158766,21.979434 L 37.068811,17.246167 C 37.068811,17.246167 37.088388,32 37.088388,32 L 22.160133,31.978069 C 22.160133,31.978069 26.997745,27.140456 26.997745,27.140456 C 18.528582,18.264221 13.291696,25.230495 11.500037,31.436501 z"
             style="fill:#404040;"/>
          </a>
         </g>
        </svg>
</svg>
