<?xml version="1.0" encoding="UTF-8" standalone="no"?>
<!DOCTYPE svg PUBLIC "-//W3C//DTD SVG 1.1//EN"
 "http://www.w3.org/Graphics/SVG/1.1/DTD/svg11.dtd">
<!-- Generated by graphviz version 2.43.0 (0)
 -->
<!-- Title: MemberDefImpl Pages: 1 -->
<!--zoomable 1062 -->
<svg id="main" version="1.1" xmlns="http://www.w3.org/2000/svg" xmlns:xlink="http://www.w3.org/1999/xlink" xml:space="preserve" onload="init(evt)">
<style type="text/css"><![CDATA[
.edge:hover path { stroke: red; }
.edge:hover polygon { stroke: red; fill: red; }
]]></style>
<script type="text/javascript"><![CDATA[
var edges = document.getElementsByTagName('g');
if (edges && edges.length) {
  for (var i=0;i<edges.length;i++) {
    if (edges[i].id.substr(0,4)=='edge') {
      edges[i].setAttribute('class','edge');
    }
  }
}
]]></script>
        <defs>
                <circle id="rim" cx="0" cy="0" r="7"/>
                <circle id="rim2" cx="0" cy="0" r="3.5"/>
                <g id="zoomPlus">
                        <use xlink:href="#rim" fill="#404040">
                                <set attributeName="fill" to="#808080" begin="zoomplus.mouseover" end="zoomplus.mouseout"/>
                        </use>
                        <path d="M-4,0h8M0,-4v8" fill="none" stroke="white" stroke-width="1.5" pointer-events="none"/>
                </g>
                <g id="zoomMin">
                        <use xlink:href="#rim" fill="#404040">
                                <set attributeName="fill" to="#808080" begin="zoomminus.mouseover" end="zoomminus.mouseout"/>
                        </use>
                        <path d="M-4,0h8" fill="none" stroke="white" stroke-width="1.5" pointer-events="none"/>
                </g>
                <g id="dirArrow">
                        <path fill="none" stroke="white" stroke-width="1.5" d="M0,-3.0v7 M-2.5,-0.5L0,-3.0L2.5,-0.5"/>
                </g>
               <g id="resetDef">
                       <use xlink:href="#rim2" fill="#404040">
                               <set attributeName="fill" to="#808080" begin="reset.mouseover" end="reset.mouseout"/>
                       </use>
               </g>
        </defs>

<script type="text/javascript">
var viewWidth = 2210;
var viewHeight = 1062;
var sectionId = 'dynsection-1';
</script>
<script xlink:href="../../svgpan.js"/>
<svg id="graph" class="graph">
<g id="viewport">
<title>MemberDefImpl</title>
<!-- Node1 -->
<g id="node1" class="node">
<title>Node1</title>
<g id="a_node1"><a xlink:title=" ">
<polygon fill="#999999" stroke="#666666" points="2202,-458.16 2106,-458.16 2106,-439.16 2202,-439.16 2202,-458.16"/>
<text text-anchor="middle" x="2154" y="-446.16" font-family="Helvetica,sans-Serif" font-size="10.00">MemberDefImpl</text>
</a>
</g>
</g>
<!-- Node2 -->
<g id="node2" class="node">
<title>Node2</title>
<g id="a_node2"><a xlink:href="../../dd/d10/class_definition_mixin.html" target="_top" xlink:title=" ">
<polygon fill="white" stroke="#666666" points="2069,-492.66 1909,-492.66 1909,-462.66 2069,-462.66 2069,-492.66"/>
<text text-anchor="start" x="1917" y="-480.66" font-family="Helvetica,sans-Serif" font-size="10.00">DefinitionMixin&lt; MemberDef</text>
<text text-anchor="middle" x="1989" y="-469.66" font-family="Helvetica,sans-Serif" font-size="10.00">Mutable &gt;</text>
</a>
</g>
</g>
<!-- Node2&#45;&gt;Node1 -->
<g id="edge1" class="edge">
<title>Node2&#45;&gt;Node1</title>
<path fill="none" stroke="#63b8ff" d="M2079.06,-461.81C2088.2,-460.19 2097.22,-458.58 2105.64,-457.09"/>
<polygon fill="#63b8ff" stroke="#63b8ff" points="2078.34,-458.39 2069.11,-463.58 2079.57,-465.28 2078.34,-458.39"/>
</g>
<!-- Node3 -->
<g id="node3" class="node">
<title>Node3</title>
<g id="a_node3"><a xlink:href="../../dd/d4b/class_member_def_mutable.html" target="_top" xlink:title=" ">
<polygon fill="white" stroke="#666666" points="1148.5,-518.16 1034.5,-518.16 1034.5,-499.16 1148.5,-499.16 1148.5,-518.16"/>
<text text-anchor="middle" x="1091.5" y="-506.16" font-family="Helvetica,sans-Serif" font-size="10.00">MemberDefMutable</text>
</a>
</g>
</g>
<!-- Node3&#45;&gt;Node2 -->
<g id="edge2" class="edge">
<title>Node3&#45;&gt;Node2</title>
<path fill="none" stroke="#63b8ff" d="M1158.94,-508.66C1203.28,-508.66 1262.88,-508.66 1315.5,-508.66 1315.5,-508.66 1315.5,-508.66 1681.5,-508.66 1759.05,-508.66 1847.08,-498.71 1908.84,-490.09"/>
<polygon fill="#63b8ff" stroke="#63b8ff" points="1158.86,-505.16 1148.86,-508.66 1158.86,-512.16 1158.86,-505.16"/>
</g>
<!-- Node4 -->
<g id="node4" class="node">
<title>Node4</title>
<g id="a_node4"><a xlink:href="../../d0/d46/class_definition_mutable.html" target="_top" xlink:title=" ">
<polygon fill="white" stroke="#666666" points="604,-266.16 500,-266.16 500,-247.16 604,-247.16 604,-266.16"/>
<text text-anchor="middle" x="552" y="-254.16" font-family="Helvetica,sans-Serif" font-size="10.00">DefinitionMutable</text>
</a>
</g>
</g>
<!-- Node4&#45;&gt;Node3 -->
<g id="edge3" class="edge">
<title>Node4&#45;&gt;Node3</title>
<path fill="none" stroke="#63b8ff" d="M562.28,-275.49C576.17,-304.26 602.48,-361.15 619,-411.66 629.93,-445.06 610.02,-466.13 637,-488.66 666.79,-513.53 919.29,-511.97 1034.09,-509.92"/>
<polygon fill="#63b8ff" stroke="#63b8ff" points="565.29,-273.68 557.77,-266.23 559,-276.75 565.29,-273.68"/>
</g>
<!-- Node16 -->
<g id="node16" class="node">
<title>Node16</title>
<g id="a_node16"><a xlink:href="../../de/db0/class_file_def.html" target="_top" xlink:title="A model of a file symbol.">
<polygon fill="white" stroke="#666666" points="846,-263.16 795,-263.16 795,-244.16 846,-244.16 846,-263.16"/>
<text text-anchor="middle" x="820.5" y="-251.16" font-family="Helvetica,sans-Serif" font-size="10.00">FileDef</text>
</a>
</g>
</g>
<!-- Node4&#45;&gt;Node16 -->
<g id="edge18" class="edge">
<title>Node4&#45;&gt;Node16</title>
<path fill="none" stroke="#63b8ff" d="M614.08,-255.97C671.27,-255.33 753.85,-254.4 794.69,-253.94"/>
<polygon fill="#63b8ff" stroke="#63b8ff" points="614.03,-252.47 604.07,-256.08 614.11,-259.47 614.03,-252.47"/>
</g>
<!-- Node30 -->
<g id="node30" class="node">
<title>Node30</title>
<g id="a_node30"><a xlink:href="../../d8/d09/class_group_def.html" target="_top" xlink:title="A model of a group of symbols.">
<polygon fill="white" stroke="#666666" points="852,-226.16 789,-226.16 789,-207.16 852,-207.16 852,-226.16"/>
<text text-anchor="middle" x="820.5" y="-214.16" font-family="Helvetica,sans-Serif" font-size="10.00">GroupDef</text>
</a>
</g>
</g>
<!-- Node4&#45;&gt;Node30 -->
<g id="edge46" class="edge">
<title>Node4&#45;&gt;Node30</title>
<path fill="none" stroke="#63b8ff" d="M613.98,-247.51C668.61,-239.31 746.46,-227.62 788.95,-221.24"/>
<polygon fill="#63b8ff" stroke="#63b8ff" points="613.44,-244.05 604.07,-248.99 614.48,-250.97 613.44,-244.05"/>
</g>
<!-- Node5 -->
<g id="node5" class="node">
<title>Node5</title>
<g id="a_node5"><a xlink:href="../../da/d09/class_member_def.html" target="_top" xlink:title="A model of a class/file/namespace member symbol.">
<polygon fill="white" stroke="#666666" points="857.5,-300.16 783.5,-300.16 783.5,-281.16 857.5,-281.16 857.5,-300.16"/>
<text text-anchor="middle" x="820.5" y="-288.16" font-family="Helvetica,sans-Serif" font-size="10.00">MemberDef</text>
</a>
</g>
</g>
<!-- Node5&#45;&gt;Node3 -->
<g id="edge4" class="edge">
<title>Node5&#45;&gt;Node3</title>
<path fill="none" stroke="#63b8ff" d="M832.4,-309C844.92,-330.72 865.34,-368.28 878,-402.66 889.7,-434.42 871.18,-453.65 896,-476.66 915.64,-494.86 983.95,-502.77 1034.09,-506.17"/>
<polygon fill="#63b8ff" stroke="#63b8ff" points="835.33,-307.08 827.27,-300.21 829.29,-310.61 835.33,-307.08"/>
</g>
<!-- Node20 -->
<g id="node20" class="node">
<title>Node20</title>
<g id="a_node20"><a xlink:href="../../d0/da8/class_member_def_impl_1_1_i_m_p_l.html" target="_top" xlink:title=" ">
<polygon fill="white" stroke="#666666" points="1154,-296.16 1029,-296.16 1029,-277.16 1154,-277.16 1154,-296.16"/>
<text text-anchor="middle" x="1091.5" y="-284.16" font-family="Helvetica,sans-Serif" font-size="10.00">MemberDefImpl::IMPL</text>
</a>
</g>
</g>
<!-- Node5&#45;&gt;Node20 -->
<g id="edge31" class="edge">
<title>Node5&#45;&gt;Node20</title>
<path fill="none" stroke="#9a32cd" stroke-dasharray="5,2" d="M868.09,-288.53C877.34,-288.18 886.97,-287.86 896,-287.66 940.39,-286.65 990.5,-286.41 1028.74,-286.42"/>
<polygon fill="#9a32cd" stroke="#9a32cd" points="867.72,-285.04 857.87,-288.94 868,-292.04 867.72,-285.04"/>
<text text-anchor="middle" x="953.5" y="-400.66" font-family="Helvetica,sans-Serif" font-size="10.00"> annEnumType</text>
<text text-anchor="middle" x="953.5" y="-389.66" font-family="Helvetica,sans-Serif" font-size="10.00">annMemb</text>
<text text-anchor="middle" x="953.5" y="-378.66" font-family="Helvetica,sans-Serif" font-size="10.00">categoryRelation</text>
<text text-anchor="middle" x="953.5" y="-367.66" font-family="Helvetica,sans-Serif" font-size="10.00">docProvider</text>
<text text-anchor="middle" x="953.5" y="-356.66" font-family="Helvetica,sans-Serif" font-size="10.00">enumScope</text>
<text text-anchor="middle" x="953.5" y="-345.66" font-family="Helvetica,sans-Serif" font-size="10.00">groupAlias</text>
<text text-anchor="middle" x="953.5" y="-334.66" font-family="Helvetica,sans-Serif" font-size="10.00">groupMember</text>
<text text-anchor="middle" x="953.5" y="-323.66" font-family="Helvetica,sans-Serif" font-size="10.00">memDec</text>
<text text-anchor="middle" x="953.5" y="-312.66" font-family="Helvetica,sans-Serif" font-size="10.00">memDef</text>
<text text-anchor="middle" x="953.5" y="-301.66" font-family="Helvetica,sans-Serif" font-size="10.00">redefines</text>
<text text-anchor="middle" x="953.5" y="-290.66" font-family="Helvetica,sans-Serif" font-size="10.00">...</text>
</g>
<!-- Node6 -->
<g id="node6" class="node">
<title>Node6</title>
<g id="a_node6"><a xlink:href="../../d5/dcc/class_definition.html" target="_top" xlink:title="The common base class of all entity definitions found in the sources.">
<polygon fill="white" stroke="#666666" points="584,-191.16 520,-191.16 520,-172.16 584,-172.16 584,-191.16"/>
<text text-anchor="middle" x="552" y="-179.16" font-family="Helvetica,sans-Serif" font-size="10.00">Definition</text>
</a>
</g>
</g>
<!-- Node6&#45;&gt;Node5 -->
<g id="edge5" class="edge">
<title>Node6&#45;&gt;Node5</title>
<path fill="none" stroke="#63b8ff" d="M574.46,-197.05C590.95,-208.34 614.62,-223.44 637,-233.66 685.76,-255.93 745.63,-272.79 783.19,-282.2"/>
<polygon fill="#63b8ff" stroke="#63b8ff" points="576.3,-194.06 566.09,-191.22 572.3,-199.81 576.3,-194.06"/>
</g>
<!-- Node8 -->
<g id="node8" class="node">
<title>Node8</title>
<g id="a_node8"><a xlink:href="../../dd/d50/class_definition_impl_1_1_i_m_p_l.html" target="_top" xlink:title="Private data associated with a Symbol DefinitionImpl object.">
<polygon fill="white" stroke="#666666" points="1374,-795.16 1259,-795.16 1259,-776.16 1374,-776.16 1374,-795.16"/>
<text text-anchor="middle" x="1316.5" y="-783.16" font-family="Helvetica,sans-Serif" font-size="10.00">DefinitionImpl::IMPL</text>
</a>
</g>
</g>
<!-- Node6&#45;&gt;Node8 -->
<g id="edge8" class="edge">
<title>Node6&#45;&gt;Node8</title>
<path fill="none" stroke="#9a32cd" stroke-dasharray="5,2" d="M571.25,-165.06C635.11,-109.08 853.2,64.39 1011,-25.66 1302.97,-192.27 1315.36,-699.67 1315.55,-776"/>
<polygon fill="#9a32cd" stroke="#9a32cd" points="568.75,-162.6 563.6,-171.86 573.4,-167.83 568.75,-162.6"/>
<text text-anchor="middle" x="953.5" y="-39.66" font-family="Helvetica,sans-Serif" font-size="10.00"> def</text>
<text text-anchor="middle" x="953.5" y="-28.66" font-family="Helvetica,sans-Serif" font-size="10.00">outerScope</text>
</g>
<!-- Node6&#45;&gt;Node16 -->
<g id="edge19" class="edge">
<title>Node6&#45;&gt;Node16</title>
<path fill="none" stroke="#63b8ff" d="M594.05,-192.75C650.16,-207.91 749.05,-234.63 794.89,-247.01"/>
<polygon fill="#63b8ff" stroke="#63b8ff" points="594.66,-189.29 584.09,-190.06 592.83,-196.05 594.66,-189.29"/>
</g>
<!-- Node21 -->
<g id="node21" class="node">
<title>Node21</title>
<g id="a_node21"><a xlink:href="../../d1/dcf/class_class_def.html" target="_top" xlink:title="A abstract class representing of a compound symbol.">
<polygon fill="white" stroke="#666666" points="850.5,-158.16 790.5,-158.16 790.5,-139.16 850.5,-139.16 850.5,-158.16"/>
<text text-anchor="middle" x="820.5" y="-146.16" font-family="Helvetica,sans-Serif" font-size="10.00">ClassDef</text>
</a>
</g>
</g>
<!-- Node6&#45;&gt;Node21 -->
<g id="edge27" class="edge">
<title>Node6&#45;&gt;Node21</title>
<path fill="none" stroke="#63b8ff" d="M594.1,-174.29C607.73,-171.99 622.99,-169.55 637,-167.66 690.98,-160.36 754.27,-154.33 790.36,-151.14"/>
<polygon fill="#63b8ff" stroke="#63b8ff" points="593.31,-170.87 584.05,-176.02 594.49,-177.77 593.31,-170.87"/>
</g>
<!-- Node22 -->
<g id="node22" class="node">
<title>Node22</title>
<g id="a_node22"><a xlink:href="../../d0/d07/class_namespace_def.html" target="_top" xlink:title="An abstract interface of a namespace symbol.">
<polygon fill="white" stroke="#666666" points="866.5,-116.16 774.5,-116.16 774.5,-97.16 866.5,-97.16 866.5,-116.16"/>
<text text-anchor="middle" x="820.5" y="-104.16" font-family="Helvetica,sans-Serif" font-size="10.00">NamespaceDef</text>
</a>
</g>
</g>
<!-- Node6&#45;&gt;Node22 -->
<g id="edge30" class="edge">
<title>Node6&#45;&gt;Node22</title>
<path fill="none" stroke="#63b8ff" d="M588.73,-168.57C603.57,-163.33 621.02,-157.42 637,-152.66 684.6,-138.47 740.01,-124.92 777.18,-116.24"/>
<polygon fill="#63b8ff" stroke="#63b8ff" points="587.16,-165.41 578.92,-172.07 589.52,-172 587.16,-165.41"/>
</g>
<!-- Node26 -->
<g id="node26" class="node">
<title>Node26</title>
<g id="a_node26"><a xlink:href="../../da/d32/class_member_group.html" target="_top" xlink:title="A class representing a group of members.">
<polygon fill="white" stroke="#666666" points="863.5,-430.16 777.5,-430.16 777.5,-411.16 863.5,-411.16 863.5,-430.16"/>
<text text-anchor="middle" x="820.5" y="-418.16" font-family="Helvetica,sans-Serif" font-size="10.00">MemberGroup</text>
</a>
</g>
</g>
<!-- Node6&#45;&gt;Node26 -->
<g id="edge39" class="edge">
<title>Node6&#45;&gt;Node26</title>
<path fill="none" stroke="#9a32cd" stroke-dasharray="5,2" d="M575.14,-197.49C588.79,-207.93 606.08,-222.43 619,-237.66 629.06,-249.51 626.9,-255.83 637,-267.66 690.7,-330.54 771.88,-388.55 804.83,-410.92"/>
<polygon fill="#9a32cd" stroke="#9a32cd" points="576.9,-194.43 566.79,-191.26 572.71,-200.04 576.9,-194.43"/>
<text text-anchor="middle" x="691" y="-369.66" font-family="Helvetica,sans-Serif" font-size="10.00"> m_container</text>
</g>
<!-- Node6&#45;&gt;Node30 -->
<g id="edge47" class="edge">
<title>Node6&#45;&gt;Node30</title>
<path fill="none" stroke="#63b8ff" d="M594.36,-182.27C633.44,-183.41 693.59,-186.63 745,-195.66 760.35,-198.35 777.09,-202.92 790.8,-207.1"/>
<polygon fill="#63b8ff" stroke="#63b8ff" points="594.25,-178.76 584.16,-182 594.07,-185.76 594.25,-178.76"/>
</g>
<!-- Node7 -->
<g id="node7" class="node">
<title>Node7</title>
<g id="a_node7"><a xlink:href="../../d3/ddf/class_definition_impl.html" target="_top" xlink:title=" ">
<polygon fill="white" stroke="#666666" points="1536,-577.16 1450,-577.16 1450,-558.16 1536,-558.16 1536,-577.16"/>
<text text-anchor="middle" x="1493" y="-565.16" font-family="Helvetica,sans-Serif" font-size="10.00">DefinitionImpl</text>
</a>
</g>
</g>
<!-- Node7&#45;&gt;Node2 -->
<g id="edge6" class="edge">
<title>Node7&#45;&gt;Node2</title>
<path fill="none" stroke="#9a32cd" stroke-dasharray="5,2" d="M1546.67,-567.03C1623.69,-564.92 1770.93,-556.36 1891,-522.66 1916.02,-515.64 1942.69,-502.84 1961.71,-492.68"/>
<polygon fill="#9a32cd" stroke="#9a32cd" points="1546.19,-563.54 1536.28,-567.29 1546.37,-570.54 1546.19,-563.54"/>
<text text-anchor="middle" x="1680.5" y="-566.66" font-family="Helvetica,sans-Serif" font-size="10.00"> m_impl</text>
</g>
<!-- Node18 -->
<g id="node18" class="node">
<title>Node18</title>
<g id="a_node18"><a xlink:href="../../dd/d10/class_definition_mixin.html" target="_top" xlink:title=" ">
<polygon fill="white" stroke="#666666" points="1749,-480.16 1612,-480.16 1612,-461.16 1749,-461.16 1749,-480.16"/>
<text text-anchor="middle" x="1680.5" y="-468.16" font-family="Helvetica,sans-Serif" font-size="10.00">DefinitionMixin&lt; Base &gt;</text>
</a>
</g>
</g>
<!-- Node7&#45;&gt;Node18 -->
<g id="edge24" class="edge">
<title>Node7&#45;&gt;Node18</title>
<path fill="none" stroke="#9a32cd" stroke-dasharray="5,2" d="M1521.53,-553.26C1559.89,-533.2 1628.39,-497.39 1661.11,-480.27"/>
<polygon fill="#9a32cd" stroke="#9a32cd" points="1519.7,-550.27 1512.46,-558 1522.95,-556.47 1519.7,-550.27"/>
<text text-anchor="middle" x="1574" y="-538.66" font-family="Helvetica,sans-Serif" font-size="10.00"> m_impl</text>
</g>
<!-- Node8&#45;&gt;Node7 -->
<g id="edge7" class="edge">
<title>Node8&#45;&gt;Node7</title>
<path fill="none" stroke="#9a32cd" stroke-dasharray="5,2" d="M1331.68,-767.95C1366.9,-723.95 1457.48,-610.79 1484.37,-577.2"/>
<polygon fill="#9a32cd" stroke="#9a32cd" points="1328.74,-766.02 1325.22,-776.01 1334.2,-770.39 1328.74,-766.02"/>
<text text-anchor="middle" x="1412" y="-692.66" font-family="Helvetica,sans-Serif" font-size="10.00"> m_impl</text>
</g>
<!-- Node9 -->
<g id="node9" class="node">
<title>Node9</title>
<g id="a_node9"><a xlink:href="../../d1/df9/class_section_refs.html" target="_top" xlink:title="class that represents a list of constant references to sections.">
<polygon fill="white" stroke="#666666" points="1128.5,-795.16 1054.5,-795.16 1054.5,-776.16 1128.5,-776.16 1128.5,-795.16"/>
<text text-anchor="middle" x="1091.5" y="-783.16" font-family="Helvetica,sans-Serif" font-size="10.00">SectionRefs</text>
</a>
</g>
</g>
<!-- Node9&#45;&gt;Node8 -->
<g id="edge9" class="edge">
<title>Node9&#45;&gt;Node8</title>
<path fill="none" stroke="#9a32cd" stroke-dasharray="5,2" d="M1139.18,-785.66C1173.98,-785.66 1221.68,-785.66 1258.7,-785.66"/>
<polygon fill="#9a32cd" stroke="#9a32cd" points="1138.83,-782.16 1128.83,-785.66 1138.83,-789.16 1138.83,-782.16"/>
<text text-anchor="middle" x="1206.5" y="-788.66" font-family="Helvetica,sans-Serif" font-size="10.00"> sectionRefs</text>
</g>
<!-- Node10 -->
<g id="node10" class="node">
<title>Node10</title>
<g id="a_node10"><a xlink:href="../../d3/d3b/class_group_list.html" target="_top" xlink:title=" ">
<polygon fill="white" stroke="#666666" points="1123,-758.16 1060,-758.16 1060,-739.16 1123,-739.16 1123,-758.16"/>
<text text-anchor="middle" x="1091.5" y="-746.16" font-family="Helvetica,sans-Serif" font-size="10.00">GroupList</text>
</a>
</g>
</g>
<!-- Node10&#45;&gt;Node8 -->
<g id="edge10" class="edge">
<title>Node10&#45;&gt;Node8</title>
<path fill="none" stroke="#9a32cd" stroke-dasharray="5,2" d="M1133.07,-754.09C1162.97,-758.24 1204.6,-764.3 1241,-770.66 1250.36,-772.29 1260.34,-774.19 1269.87,-776.08"/>
<polygon fill="#9a32cd" stroke="#9a32cd" points="1133.39,-750.6 1123.01,-752.71 1132.44,-757.54 1133.39,-750.6"/>
<text text-anchor="middle" x="1206.5" y="-773.66" font-family="Helvetica,sans-Serif" font-size="10.00"> partOfGroups</text>
</g>
<!-- Node11 -->
<g id="node11" class="node">
<title>Node11</title>
<g id="a_node11"><a xlink:title=" ">
<polygon fill="white" stroke="#666666" points="873.5,-804.66 767.5,-804.66 767.5,-774.66 873.5,-774.66 873.5,-804.66"/>
<text text-anchor="start" x="775.5" y="-792.66" font-family="Helvetica,sans-Serif" font-size="10.00">std::vector&lt; const</text>
<text text-anchor="middle" x="820.5" y="-781.66" font-family="Helvetica,sans-Serif" font-size="10.00"> GroupDef * &gt;</text>
</a>
</g>
</g>
<!-- Node11&#45;&gt;Node10 -->
<g id="edge11" class="edge">
<title>Node11&#45;&gt;Node10</title>
<path fill="none" stroke="#63b8ff" d="M883.7,-780.18C938.87,-771.77 1017.13,-759.84 1059.82,-753.33"/>
<polygon fill="#63b8ff" stroke="#63b8ff" points="883.04,-776.74 873.68,-781.7 884.1,-783.66 883.04,-776.74"/>
</g>
<!-- Node12 -->
<g id="node12" class="node">
<title>Node12</title>
<g id="a_node12"><a xlink:href="../../d7/dd5/struct_doc_info.html" target="_top" xlink:title="Data associated with a detailed description.">
<polygon fill="white" stroke="#666666" points="980.5,-1016.16 926.5,-1016.16 926.5,-997.16 980.5,-997.16 980.5,-1016.16"/>
<text text-anchor="middle" x="953.5" y="-1004.16" font-family="Helvetica,sans-Serif" font-size="10.00">DocInfo</text>
</a>
</g>
</g>
<!-- Node12&#45;&gt;Node8 -->
<g id="edge12" class="edge">
<title>Node12&#45;&gt;Node8</title>
<path fill="none" stroke="#9a32cd" stroke-dasharray="5,2" d="M990.54,-999.6C997.41,-997.91 1004.48,-995.92 1011,-993.66 1117.86,-956.54 1153.33,-956.15 1241,-884.66 1273.51,-858.15 1299.72,-814.58 1310.36,-795.33"/>
<polygon fill="#9a32cd" stroke="#9a32cd" points="989.67,-996.2 980.71,-1001.86 991.24,-1003.03 989.67,-996.2"/>
<text text-anchor="middle" x="1091.5" y="-999.66" font-family="Helvetica,sans-Serif" font-size="10.00"> details</text>
<text text-anchor="middle" x="1091.5" y="-988.66" font-family="Helvetica,sans-Serif" font-size="10.00">inbodyDocs</text>
</g>
<!-- Node13 -->
<g id="node13" class="node">
<title>Node13</title>
<g id="a_node13"><a xlink:href="../../d9/d45/class_q_c_string.html" target="_top" xlink:title="This is an alternative implementation of QCString.">
<polygon fill="white" stroke="#666666" points="581.5,-733.16 522.5,-733.16 522.5,-714.16 581.5,-714.16 581.5,-733.16"/>
<text text-anchor="middle" x="552" y="-721.16" font-family="Helvetica,sans-Serif" font-size="10.00">QCString</text>
</a>
</g>
</g>
<!-- Node13&#45;&gt;Node8 -->
<g id="edge20" class="edge">
<title>Node13&#45;&gt;Node8</title>
<path fill="none" stroke="#9a32cd" stroke-dasharray="5,2" d="M559.74,-742.76C570.86,-770.97 595.98,-822.79 637,-844.66 687.69,-871.68 1097.21,-849.34 1154,-840.66 1193.43,-834.63 1203.3,-831.67 1241,-818.66 1260.26,-812.01 1281.42,-802.4 1296.26,-795.26"/>
<polygon fill="#9a32cd" stroke="#9a32cd" points="562.95,-741.35 556.16,-733.22 556.4,-743.81 562.95,-741.35"/>
<text text-anchor="middle" x="953.5" y="-968.66" font-family="Helvetica,sans-Serif" font-size="10.00"> briefSignatures</text>
<text text-anchor="middle" x="953.5" y="-957.66" font-family="Helvetica,sans-Serif" font-size="10.00">defFileExt</text>
<text text-anchor="middle" x="953.5" y="-946.66" font-family="Helvetica,sans-Serif" font-size="10.00">defFileName</text>
<text text-anchor="middle" x="953.5" y="-935.66" font-family="Helvetica,sans-Serif" font-size="10.00">docSignatures</text>
<text text-anchor="middle" x="953.5" y="-924.66" font-family="Helvetica,sans-Serif" font-size="10.00">id</text>
<text text-anchor="middle" x="953.5" y="-913.66" font-family="Helvetica,sans-Serif" font-size="10.00">localName</text>
<text text-anchor="middle" x="953.5" y="-902.66" font-family="Helvetica,sans-Serif" font-size="10.00">name</text>
<text text-anchor="middle" x="953.5" y="-891.66" font-family="Helvetica,sans-Serif" font-size="10.00">qualifiedName</text>
<text text-anchor="middle" x="953.5" y="-880.66" font-family="Helvetica,sans-Serif" font-size="10.00">ref</text>
<text text-anchor="middle" x="953.5" y="-869.66" font-family="Helvetica,sans-Serif" font-size="10.00">symbolName</text>
<text text-anchor="middle" x="953.5" y="-858.66" font-family="Helvetica,sans-Serif" font-size="10.00">...</text>
</g>
<!-- Node13&#45;&gt;Node12 -->
<g id="edge13" class="edge">
<title>Node13&#45;&gt;Node12</title>
<path fill="none" stroke="#9a32cd" stroke-dasharray="5,2" d="M558.44,-743.33C568.59,-776.67 593.45,-844.56 637,-884.66 723.41,-964.21 867.37,-993.93 926.22,-1003.12"/>
<polygon fill="#9a32cd" stroke="#9a32cd" points="561.71,-742.05 555.55,-733.43 554.99,-744.01 561.71,-742.05"/>
<text text-anchor="middle" x="691" y="-964.66" font-family="Helvetica,sans-Serif" font-size="10.00"> doc</text>
<text text-anchor="middle" x="691" y="-953.66" font-family="Helvetica,sans-Serif" font-size="10.00">file</text>
</g>
<!-- Node14 -->
<g id="node14" class="node">
<title>Node14</title>
<g id="a_node14"><a xlink:href="../../d0/da7/struct_brief_info.html" target="_top" xlink:title="Data associated with a brief description.">
<polygon fill="white" stroke="#666666" points="983,-842.16 924,-842.16 924,-823.16 983,-823.16 983,-842.16"/>
<text text-anchor="middle" x="953.5" y="-830.16" font-family="Helvetica,sans-Serif" font-size="10.00">BriefInfo</text>
</a>
</g>
</g>
<!-- Node13&#45;&gt;Node14 -->
<g id="edge15" class="edge">
<title>Node13&#45;&gt;Node14</title>
<path fill="none" stroke="#9a32cd" stroke-dasharray="5,2" d="M579.41,-738.11C618.33,-758.67 693.95,-795.85 763,-813.66 818.71,-828.03 886.23,-831.64 923.77,-832.48"/>
<polygon fill="#9a32cd" stroke="#9a32cd" points="580.8,-734.89 570.33,-733.26 577.5,-741.06 580.8,-734.89"/>
<text text-anchor="middle" x="691" y="-832.66" font-family="Helvetica,sans-Serif" font-size="10.00"> doc</text>
<text text-anchor="middle" x="691" y="-821.66" font-family="Helvetica,sans-Serif" font-size="10.00">file</text>
<text text-anchor="middle" x="691" y="-810.66" font-family="Helvetica,sans-Serif" font-size="10.00">tooltip</text>
</g>
<!-- Node13&#45;&gt;Node20 -->
<g id="edge35" class="edge">
<title>Node13&#45;&gt;Node20</title>
<path fill="none" stroke="#9a32cd" stroke-dasharray="5,2" d="M578.72,-709.16C617.35,-688.22 693.26,-650.18 763,-633.66 789.86,-627.29 991.04,-637.73 1011,-618.66 1038.31,-592.57 1020.26,-486.4 1029,-449.66 1043.34,-389.34 1074.15,-321.1 1085.86,-296.31"/>
<polygon fill="#9a32cd" stroke="#9a32cd" points="576.82,-706.22 569.73,-714.1 580.18,-712.36 576.82,-706.22"/>
<text text-anchor="middle" x="820.5" y="-757.66" font-family="Helvetica,sans-Serif" font-size="10.00"> accessorType</text>
<text text-anchor="middle" x="820.5" y="-746.66" font-family="Helvetica,sans-Serif" font-size="10.00">anc</text>
<text text-anchor="middle" x="820.5" y="-735.66" font-family="Helvetica,sans-Serif" font-size="10.00">args</text>
<text text-anchor="middle" x="820.5" y="-724.66" font-family="Helvetica,sans-Serif" font-size="10.00">bitfields</text>
<text text-anchor="middle" x="820.5" y="-713.66" font-family="Helvetica,sans-Serif" font-size="10.00">cachedResolvedType</text>
<text text-anchor="start" x="769" y="-702.66" font-family="Helvetica,sans-Serif" font-size="10.00">cachedTypedefTempl</text>
<text text-anchor="middle" x="820.5" y="-691.66" font-family="Helvetica,sans-Serif" font-size="10.00">Spec</text>
<text text-anchor="middle" x="820.5" y="-680.66" font-family="Helvetica,sans-Serif" font-size="10.00">decl</text>
<text text-anchor="middle" x="820.5" y="-669.66" font-family="Helvetica,sans-Serif" font-size="10.00">declFileName</text>
<text text-anchor="middle" x="820.5" y="-658.66" font-family="Helvetica,sans-Serif" font-size="10.00">def</text>
<text text-anchor="middle" x="820.5" y="-647.66" font-family="Helvetica,sans-Serif" font-size="10.00">enumBaseType</text>
<text text-anchor="middle" x="820.5" y="-636.66" font-family="Helvetica,sans-Serif" font-size="10.00">...</text>
</g>
<!-- Node25 -->
<g id="node25" class="node">
<title>Node25</title>
<g id="a_node25"><a xlink:href="../../d7/df8/class_argument_list.html" target="_top" xlink:title="This class represents an function or template argument list.">
<polygon fill="white" stroke="#666666" points="861.5,-588.16 779.5,-588.16 779.5,-569.16 861.5,-569.16 861.5,-588.16"/>
<text text-anchor="middle" x="820.5" y="-576.16" font-family="Helvetica,sans-Serif" font-size="10.00">ArgumentList</text>
</a>
</g>
</g>
<!-- Node13&#45;&gt;Node25 -->
<g id="edge37" class="edge">
<title>Node13&#45;&gt;Node25</title>
<path fill="none" stroke="#9a32cd" stroke-dasharray="5,2" d="M559.9,-704.61C571.21,-676.39 596.58,-624.16 637,-599.66 680.36,-573.37 740.26,-571.64 779.43,-574.1"/>
<polygon fill="#9a32cd" stroke="#9a32cd" points="556.55,-703.56 556.25,-714.15 563.09,-706.06 556.55,-703.56"/>
<text text-anchor="middle" x="691" y="-602.66" font-family="Helvetica,sans-Serif" font-size="10.00"> m_trailingReturnType</text>
</g>
<!-- Node13&#45;&gt;Node26 -->
<g id="edge44" class="edge">
<title>Node13&#45;&gt;Node26</title>
<path fill="none" stroke="#9a32cd" stroke-dasharray="5,2" d="M553.76,-703.87C556.65,-657.07 570.5,-538.7 637,-474.66 674.96,-438.1 736.46,-426.14 777.44,-422.31"/>
<polygon fill="#9a32cd" stroke="#9a32cd" points="550.25,-703.99 553.24,-714.15 557.24,-704.34 550.25,-703.99"/>
<text text-anchor="middle" x="691" y="-510.66" font-family="Helvetica,sans-Serif" font-size="10.00"> doc</text>
<text text-anchor="middle" x="691" y="-499.66" font-family="Helvetica,sans-Serif" font-size="10.00">fileName</text>
<text text-anchor="middle" x="691" y="-488.66" font-family="Helvetica,sans-Serif" font-size="10.00">grpHeader</text>
<text text-anchor="middle" x="691" y="-477.66" font-family="Helvetica,sans-Serif" font-size="10.00">m_docFile</text>
</g>
<!-- Node14&#45;&gt;Node8 -->
<g id="edge14" class="edge">
<title>Node14&#45;&gt;Node8</title>
<path fill="none" stroke="#9a32cd" stroke-dasharray="5,2" d="M993.11,-829.43C1048.27,-824.56 1152.74,-814.45 1241,-800.66 1250.91,-799.11 1261.5,-797.16 1271.49,-795.18"/>
<polygon fill="#9a32cd" stroke="#9a32cd" points="992.73,-825.95 983.08,-830.3 993.34,-832.92 992.73,-825.95"/>
<text text-anchor="middle" x="1091.5" y="-828.66" font-family="Helvetica,sans-Serif" font-size="10.00"> brief</text>
</g>
<!-- Node15 -->
<g id="node15" class="node">
<title>Node15</title>
<g id="a_node15"><a xlink:href="../../db/dab/struct_body_info.html" target="_top" xlink:title="Data associated with description found in the body.">
<polygon fill="white" stroke="#666666" points="1121.5,-477.16 1061.5,-477.16 1061.5,-458.16 1121.5,-458.16 1121.5,-477.16"/>
<text text-anchor="middle" x="1091.5" y="-465.16" font-family="Helvetica,sans-Serif" font-size="10.00">BodyInfo</text>
</a>
</g>
</g>
<!-- Node15&#45;&gt;Node8 -->
<g id="edge16" class="edge">
<title>Node15&#45;&gt;Node8</title>
<path fill="none" stroke="#9a32cd" stroke-dasharray="5,2" d="M1131.19,-477.34C1139.33,-480.63 1147.44,-484.97 1154,-490.66 1251.97,-575.53 1301.47,-735.05 1312.89,-775.92"/>
<polygon fill="#9a32cd" stroke="#9a32cd" points="1132.29,-474.02 1121.69,-473.95 1129.93,-480.61 1132.29,-474.02"/>
<text text-anchor="middle" x="1206.5" y="-599.66" font-family="Helvetica,sans-Serif" font-size="10.00"> body</text>
</g>
<!-- Node16&#45;&gt;Node15 -->
<g id="edge17" class="edge">
<title>Node16&#45;&gt;Node15</title>
<path fill="none" stroke="#9a32cd" stroke-dasharray="5,2" d="M855.9,-257.89C864.29,-260.56 872.44,-264.83 878,-271.66 902.13,-301.28 869.29,-415.33 896,-442.66 907.36,-454.28 1010.04,-462.48 1061.45,-465.89"/>
<polygon fill="#9a32cd" stroke="#9a32cd" points="856.63,-254.47 846.08,-255.45 854.93,-261.26 856.63,-254.47"/>
<text text-anchor="middle" x="953.5" y="-464.66" font-family="Helvetica,sans-Serif" font-size="10.00"> fileDef</text>
</g>
<!-- Node16&#45;&gt;Node20 -->
<g id="edge28" class="edge">
<title>Node16&#45;&gt;Node20</title>
<path fill="none" stroke="#9a32cd" stroke-dasharray="5,2" d="M856.17,-255.99C894.25,-258.78 957.16,-264.04 1011,-271.66 1021.71,-273.17 1033.17,-275.13 1043.96,-277.14"/>
<polygon fill="#9a32cd" stroke="#9a32cd" points="856.34,-252.5 846.12,-255.27 855.84,-259.48 856.34,-252.5"/>
<text text-anchor="middle" x="953.5" y="-274.66" font-family="Helvetica,sans-Serif" font-size="10.00"> fileDef</text>
</g>
<!-- Node17 -->
<g id="node17" class="node">
<title>Node17</title>
<g id="a_node17"><a xlink:href="../../d1/d7d/class_member_vector.html" target="_top" xlink:title="A vector of MemberDef object.">
<polygon fill="white" stroke="#666666" points="310,-550.16 222,-550.16 222,-531.16 310,-531.16 310,-550.16"/>
<text text-anchor="middle" x="266" y="-538.16" font-family="Helvetica,sans-Serif" font-size="10.00">MemberVector</text>
</a>
</g>
</g>
<!-- Node17&#45;&gt;Node8 -->
<g id="edge21" class="edge">
<title>Node17&#45;&gt;Node8</title>
<path fill="none" stroke="#9a32cd" stroke-dasharray="5,2" d="M268.75,-560.66C278.01,-652.77 329.55,-1031.66 551,-1031.66 551,-1031.66 551,-1031.66 1092.5,-1031.66 1222.49,-1031.66 1296.5,-840.78 1312.29,-795.3"/>
<polygon fill="#9a32cd" stroke="#9a32cd" points="272.21,-560.09 267.79,-550.47 265.25,-560.75 272.21,-560.09"/>
<text text-anchor="middle" x="820.5" y="-1045.66" font-family="Helvetica,sans-Serif" font-size="10.00"> referencedByMembers</text>
<text text-anchor="middle" x="820.5" y="-1034.66" font-family="Helvetica,sans-Serif" font-size="10.00">referencesMembers</text>
</g>
<!-- Node17&#45;&gt;Node20 -->
<g id="edge32" class="edge">
<title>Node17&#45;&gt;Node20</title>
<path fill="none" stroke="#9a32cd" stroke-dasharray="5,2" d="M320.1,-543.2C471.73,-549.37 902.74,-559.1 1011,-476.66 1026.65,-464.74 1074.11,-332.99 1087.15,-296.17"/>
<polygon fill="#9a32cd" stroke="#9a32cd" points="320.24,-539.7 310.1,-542.78 319.94,-546.69 320.24,-539.7"/>
<text text-anchor="middle" x="691" y="-558.66" font-family="Helvetica,sans-Serif" font-size="10.00"> enumFields</text>
<text text-anchor="middle" x="691" y="-547.66" font-family="Helvetica,sans-Serif" font-size="10.00">redefinedBy</text>
</g>
<!-- Node27 -->
<g id="node27" class="node">
<title>Node27</title>
<g id="a_node27"><a xlink:href="../../dd/d13/class_member_list.html" target="_top" xlink:title="A list of MemberDef objects as shown in documentation sections.">
<polygon fill="white" stroke="#666666" points="589,-439.16 515,-439.16 515,-420.16 589,-420.16 589,-439.16"/>
<text text-anchor="middle" x="552" y="-427.16" font-family="Helvetica,sans-Serif" font-size="10.00">MemberList</text>
</a>
</g>
</g>
<!-- Node17&#45;&gt;Node27 -->
<g id="edge41" class="edge">
<title>Node17&#45;&gt;Node27</title>
<path fill="none" stroke="#63b8ff" d="M301.18,-527.3C359.27,-504.6 475.88,-459.02 526.55,-439.21"/>
<polygon fill="#63b8ff" stroke="#63b8ff" points="299.75,-524.1 291.71,-531 302.29,-530.62 299.75,-524.1"/>
</g>
<!-- Node18&#45;&gt;Node2 -->
<g id="edge22" class="edge">
<title>Node18&#45;&gt;Node2</title>
<path fill="none" stroke="orange" stroke-dasharray="5,2" d="M1759.32,-472.44C1805.1,-473.48 1862.86,-474.8 1908.88,-475.85"/>
<polygon fill="orange" stroke="orange" points="1759.22,-468.93 1749.14,-472.2 1759.06,-475.93 1759.22,-468.93"/>
<text text-anchor="middle" x="1829" y="-477.66" font-family="Helvetica,sans-Serif" font-size="10.00"> &lt; MemberDefMutable &gt;</text>
</g>
<!-- Node19 -->
<g id="node19" class="node">
<title>Node19</title>
<g id="a_node19"><a xlink:title=" ">
<polygon fill="white" stroke="#666666" points="1513.5,-480.16 1472.5,-480.16 1472.5,-461.16 1513.5,-461.16 1513.5,-480.16"/>
<text text-anchor="middle" x="1493" y="-468.16" font-family="Helvetica,sans-Serif" font-size="10.00">Base</text>
</a>
</g>
</g>
<!-- Node19&#45;&gt;Node18 -->
<g id="edge23" class="edge">
<title>Node19&#45;&gt;Node18</title>
<path fill="none" stroke="#63b8ff" d="M1523.61,-470.66C1547.32,-470.66 1581.52,-470.66 1611.85,-470.66"/>
<polygon fill="#63b8ff" stroke="#63b8ff" points="1523.5,-467.16 1513.5,-470.66 1523.5,-474.16 1523.5,-467.16"/>
</g>
<!-- Node20&#45;&gt;Node1 -->
<g id="edge25" class="edge">
<title>Node20&#45;&gt;Node1</title>
<path fill="none" stroke="#9a32cd" stroke-dasharray="5,2" d="M1106.67,-304.38C1139.17,-342.87 1223.38,-430.66 1315.5,-430.66 1315.5,-430.66 1315.5,-430.66 1990,-430.66 2029.15,-430.66 2073.26,-435.85 2105.72,-440.66"/>
<polygon fill="#9a32cd" stroke="#9a32cd" points="1109.27,-302.04 1100.2,-296.56 1103.87,-306.49 1109.27,-302.04"/>
<text text-anchor="middle" x="1574" y="-433.66" font-family="Helvetica,sans-Serif" font-size="10.00"> m_impl</text>
</g>
<!-- Node21&#45;&gt;Node20 -->
<g id="edge26" class="edge">
<title>Node21&#45;&gt;Node20</title>
<path fill="none" stroke="#9a32cd" stroke-dasharray="5,2" d="M860.83,-139C901.38,-131.32 964.98,-125.81 1011,-152.66 1059.36,-180.88 1081.49,-251.07 1088.19,-276.91"/>
<polygon fill="#9a32cd" stroke="#9a32cd" points="859.9,-135.62 850.8,-141.03 861.29,-142.48 859.9,-135.62"/>
<text text-anchor="middle" x="953.5" y="-210.66" font-family="Helvetica,sans-Serif" font-size="10.00"> accessorClass</text>
<text text-anchor="middle" x="953.5" y="-199.66" font-family="Helvetica,sans-Serif" font-size="10.00">cachedAnonymousType</text>
<text text-anchor="middle" x="953.5" y="-188.66" font-family="Helvetica,sans-Serif" font-size="10.00">cachedTypedefValue</text>
<text text-anchor="middle" x="953.5" y="-177.66" font-family="Helvetica,sans-Serif" font-size="10.00">category</text>
<text text-anchor="middle" x="953.5" y="-166.66" font-family="Helvetica,sans-Serif" font-size="10.00">classDef</text>
<text text-anchor="middle" x="953.5" y="-155.66" font-family="Helvetica,sans-Serif" font-size="10.00">relatedAlso</text>
</g>
<!-- Node22&#45;&gt;Node20 -->
<g id="edge29" class="edge">
<title>Node22&#45;&gt;Node20</title>
<path fill="none" stroke="#9a32cd" stroke-dasharray="5,2" d="M876.57,-96.17C917.16,-91.55 971.89,-92.13 1011,-118.66 1067.61,-157.06 1084.98,-247.07 1089.28,-276.88"/>
<polygon fill="#9a32cd" stroke="#9a32cd" points="876.05,-92.71 866.57,-97.45 876.93,-99.66 876.05,-92.71"/>
<text text-anchor="middle" x="953.5" y="-121.66" font-family="Helvetica,sans-Serif" font-size="10.00"> nspace</text>
</g>
<!-- Node23 -->
<g id="node23" class="node">
<title>Node23</title>
<g id="a_node23"><a xlink:href="../../d1/d48/class_example_list.html" target="_top" xlink:title=" ">
<polygon fill="white" stroke="#666666" points="859,-71.16 782,-71.16 782,-52.16 859,-52.16 859,-71.16"/>
<text text-anchor="middle" x="820.5" y="-59.16" font-family="Helvetica,sans-Serif" font-size="10.00">ExampleList</text>
</a>
</g>
</g>
<!-- Node23&#45;&gt;Node20 -->
<g id="edge33" class="edge">
<title>Node23&#45;&gt;Node20</title>
<path fill="none" stroke="#9a32cd" stroke-dasharray="5,2" d="M869.26,-53.21C910.88,-48.62 970.72,-49.08 1011,-79.66 1077.23,-129.94 1088.29,-242.74 1090.13,-276.76"/>
<polygon fill="#9a32cd" stroke="#9a32cd" points="868.59,-49.77 859.1,-54.47 869.45,-56.71 868.59,-49.77"/>
<text text-anchor="middle" x="953.5" y="-82.66" font-family="Helvetica,sans-Serif" font-size="10.00"> examples</text>
</g>
<!-- Node24 -->
<g id="node24" class="node">
<title>Node24</title>
<g id="a_node24"><a xlink:title=" ">
<polygon fill="white" stroke="#666666" points="619,-71.16 485,-71.16 485,-52.16 619,-52.16 619,-71.16"/>
<text text-anchor="middle" x="552" y="-59.16" font-family="Helvetica,sans-Serif" font-size="10.00">std::vector&lt; Example &gt;</text>
</a>
</g>
</g>
<!-- Node24&#45;&gt;Node23 -->
<g id="edge34" class="edge">
<title>Node24&#45;&gt;Node23</title>
<path fill="none" stroke="#63b8ff" d="M629.33,-61.66C679.18,-61.66 742.14,-61.66 781.62,-61.66"/>
<polygon fill="#63b8ff" stroke="#63b8ff" points="629.22,-58.16 619.22,-61.66 629.22,-65.16 629.22,-58.16"/>
</g>
<!-- Node25&#45;&gt;Node20 -->
<g id="edge36" class="edge">
<title>Node25&#45;&gt;Node20</title>
<path fill="none" stroke="#9a32cd" stroke-dasharray="5,2" d="M872.13,-574.5C924.84,-569.7 1001.12,-561.22 1011,-551.66 1044.09,-519.65 1016.82,-494.05 1029,-449.66 1045.4,-389.86 1074.97,-321.31 1086.1,-296.37"/>
<polygon fill="#9a32cd" stroke="#9a32cd" points="871.58,-571.04 861.93,-575.41 872.2,-578.01 871.58,-571.04"/>
<text text-anchor="middle" x="953.5" y="-607.66" font-family="Helvetica,sans-Serif" font-size="10.00"> declArgList</text>
<text text-anchor="middle" x="953.5" y="-596.66" font-family="Helvetica,sans-Serif" font-size="10.00">defArgList</text>
<text text-anchor="middle" x="953.5" y="-585.66" font-family="Helvetica,sans-Serif" font-size="10.00">tArgList</text>
<text text-anchor="middle" x="953.5" y="-574.66" font-family="Helvetica,sans-Serif" font-size="10.00">typeConstraints</text>
</g>
<!-- Node26&#45;&gt;Node20 -->
<g id="edge38" class="edge">
<title>Node26&#45;&gt;Node20</title>
<path fill="none" stroke="#9a32cd" stroke-dasharray="5,2" d="M873.91,-429.41C914.14,-433.4 969.62,-432.81 1011,-408.66 1055.54,-382.66 1079.58,-320.63 1087.51,-296.5"/>
<polygon fill="#9a32cd" stroke="#9a32cd" points="874.1,-425.91 863.77,-428.27 873.32,-432.86 874.1,-425.91"/>
<text text-anchor="middle" x="953.5" y="-433.66" font-family="Helvetica,sans-Serif" font-size="10.00"> memberGroup</text>
</g>
<!-- Node27&#45;&gt;Node26 -->
<g id="edge40" class="edge">
<title>Node27&#45;&gt;Node26</title>
<path fill="none" stroke="#9a32cd" stroke-dasharray="5,2" d="M596.99,-417.77C609.79,-414.84 623.87,-412.13 637,-410.66 684.7,-405.33 697.11,-407.46 745,-410.66 755.55,-411.36 766.88,-412.62 777.44,-414.02"/>
<polygon fill="#9a32cd" stroke="#9a32cd" points="595.95,-414.42 587.04,-420.15 597.58,-421.23 595.95,-414.42"/>
<text text-anchor="middle" x="691" y="-413.66" font-family="Helvetica,sans-Serif" font-size="10.00"> inDeclSection</text>
</g>
<!-- Node28 -->
<g id="node28" class="node">
<title>Node28</title>
<g id="a_node28"><a xlink:href="../../d4/d15/class_member_group_ref_list.html" target="_top" xlink:title=" ">
<polygon fill="white" stroke="#666666" points="326,-439.16 206,-439.16 206,-420.16 326,-420.16 326,-439.16"/>
<text text-anchor="middle" x="266" y="-427.16" font-family="Helvetica,sans-Serif" font-size="10.00">MemberGroupRefList</text>
</a>
</g>
</g>
<!-- Node28&#45;&gt;Node27 -->
<g id="edge42" class="edge">
<title>Node28&#45;&gt;Node27</title>
<path fill="none" stroke="#9a32cd" stroke-dasharray="5,2" d="M336.46,-429.66C392.82,-429.66 470.04,-429.66 514.81,-429.66"/>
<polygon fill="#9a32cd" stroke="#9a32cd" points="336.19,-426.16 326.19,-429.66 336.19,-433.16 336.19,-426.16"/>
<text text-anchor="middle" x="405.5" y="-432.66" font-family="Helvetica,sans-Serif" font-size="10.00"> m_memberGroupRefList</text>
</g>
<!-- Node29 -->
<g id="node29" class="node">
<title>Node29</title>
<g id="a_node29"><a xlink:title=" ">
<polygon fill="white" stroke="#666666" points="169,-439.16 0,-439.16 0,-420.16 169,-420.16 169,-439.16"/>
<text text-anchor="middle" x="84.5" y="-427.16" font-family="Helvetica,sans-Serif" font-size="10.00">std::vector&lt; MemberGroup * &gt;</text>
</a>
</g>
</g>
<!-- Node29&#45;&gt;Node28 -->
<g id="edge43" class="edge">
<title>Node29&#45;&gt;Node28</title>
<path fill="none" stroke="#63b8ff" d="M179.34,-429.66C188.32,-429.66 197.24,-429.66 205.74,-429.66"/>
<polygon fill="#63b8ff" stroke="#63b8ff" points="179.21,-426.16 169.21,-429.66 179.21,-433.16 179.21,-426.16"/>
</g>
<!-- Node30&#45;&gt;Node20 -->
<g id="edge45" class="edge">
<title>Node30&#45;&gt;Node20</title>
<path fill="none" stroke="#9a32cd" stroke-dasharray="5,2" d="M862.52,-218.71C901.53,-221.58 961.45,-228.44 1011,-244.66 1035.03,-252.53 1060.49,-267.26 1075.94,-277.01"/>
<polygon fill="#9a32cd" stroke="#9a32cd" points="862.31,-215.18 852.09,-218 861.83,-222.17 862.31,-215.18"/>
<text text-anchor="middle" x="953.5" y="-247.66" font-family="Helvetica,sans-Serif" font-size="10.00"> group</text>
</g>
</g>
</svg>
        <g id="navigator" transform="translate(0 0)" fill="#404254">
                <rect fill="#f2f5e9" fill-opacity="0.5" stroke="#606060" stroke-width=".5" x="0" y="0" width="60" height="60"/>
                <use id="zoomplus" xlink:href="#zoomPlus" x="17" y="9" onmousedown="handleZoom(evt,'in')"/>
                <use id="zoomminus" xlink:href="#zoomMin" x="42" y="9" onmousedown="handleZoom(evt,'out')"/>
                <use id="reset" xlink:href="#resetDef" x="30" y="36" onmousedown="handleReset()"/>
                <g id="arrowUp" xlink:href="#dirArrow" transform="translate(30 24)" onmousedown="handlePan(0,-1)">
                  <use xlink:href="#rim" fill="#404040">
                        <set attributeName="fill" to="#808080" begin="arrowUp.mouseover" end="arrowUp.mouseout"/>
                  </use>
                  <path fill="none" stroke="white" stroke-width="1.5" d="M0,-3.0v7 M-2.5,-0.5L0,-3.0L2.5,-0.5"/>
                </g>
                <g id="arrowRight" xlink:href="#dirArrow" transform="rotate(90) translate(36 -43)" onmousedown="handlePan(1,0)">
                  <use xlink:href="#rim" fill="#404040">
                        <set attributeName="fill" to="#808080" begin="arrowRight.mouseover" end="arrowRight.mouseout"/>
                  </use>
                  <path fill="none" stroke="white" stroke-width="1.5" d="M0,-3.0v7 M-2.5,-0.5L0,-3.0L2.5,-0.5"/>
                </g>
                <g id="arrowDown" xlink:href="#dirArrow" transform="rotate(180) translate(-30 -48)" onmousedown="handlePan(0,1)">
                  <use xlink:href="#rim" fill="#404040">
                        <set attributeName="fill" to="#808080" begin="arrowDown.mouseover" end="arrowDown.mouseout"/>
                  </use>
                  <path fill="none" stroke="white" stroke-width="1.5" d="M0,-3.0v7 M-2.5,-0.5L0,-3.0L2.5,-0.5"/>
                </g>
                <g id="arrowLeft" xlink:href="#dirArrow" transform="rotate(270) translate(-36 17)" onmousedown="handlePan(-1,0)">
                  <use xlink:href="#rim" fill="#404040">
                        <set attributeName="fill" to="#808080" begin="arrowLeft.mouseover" end="arrowLeft.mouseout"/>
                  </use>
                  <path fill="none" stroke="white" stroke-width="1.5" d="M0,-3.0v7 M-2.5,-0.5L0,-3.0L2.5,-0.5"/>
                </g>
        </g>
        <svg viewBox="0 0 15 15" width="100%" height="30px" preserveAspectRatio="xMaxYMin meet">
         <g id="arrow_out" transform="scale(0.3 0.3)">
          <a xlink:href="class_member_def_impl__coll__graph_org.svg" target="_base">
           <rect id="button" ry="5" rx="5" y="6" x="6" height="38" width="38"
                fill="#f2f5e9" fill-opacity="0.5" stroke="#606060" stroke-width="1.0"/>
           <path id="arrow"
             d="M 11.500037,31.436501 C 11.940474,20.09759 22.043105,11.32322 32.158766,21.979434 L 37.068811,17.246167 C 37.068811,17.246167 37.088388,32 37.088388,32 L 22.160133,31.978069 C 22.160133,31.978069 26.997745,27.140456 26.997745,27.140456 C 18.528582,18.264221 13.291696,25.230495 11.500037,31.436501 z"
             style="fill:#404040;"/>
          </a>
         </g>
        </svg>
</svg>
