<?xml version="1.0" encoding="UTF-8" standalone="no"?>
<!DOCTYPE svg PUBLIC "-//W3C//DTD SVG 1.1//EN"
 "http://www.w3.org/Graphics/SVG/1.1/DTD/svg11.dtd">
<!-- Generated by graphviz version 2.43.0 (0)
 -->
<!-- Title: /home/runner/work/doxygen/doxygen/src/rtfgen.h Pages: 1 -->
<svg width="6457pt" height="170pt"
 viewBox="0.00 0.00 6457.00 170.00" xmlns="http://www.w3.org/2000/svg" xmlns:xlink="http://www.w3.org/1999/xlink">
<g id="graph0" class="graph" transform="scale(1 1) rotate(0) translate(4 166)">
<title>/home/runner/work/doxygen/doxygen/src/rtfgen.h</title>
<!-- Node1 -->
<g id="node1" class="node">
<title>Node1</title>
<g id="a_node1"><a xlink:title=" ">
<polygon fill="#999999" stroke="#666666" points="3350,-162 3196,-162 3196,-132 3350,-132 3350,-162"/>
<text text-anchor="start" x="3204" y="-150" font-family="Helvetica,sans-Serif" font-size="10.00">/home/runner/work/doxygen</text>
<text text-anchor="middle" x="3273" y="-139" font-family="Helvetica,sans-Serif" font-size="10.00">/doxygen/src/rtfgen.h</text>
</a>
</g>
</g>
<!-- Node2 -->
<g id="node2" class="node">
<title>Node2</title>
<g id="a_node2"><a xlink:href="../../dc/d98/doxygen_8cpp.html" target="_top" xlink:title=" ">
<polygon fill="white" stroke="#666666" points="154,-30 0,-30 0,0 154,0 154,-30"/>
<text text-anchor="start" x="8" y="-18" font-family="Helvetica,sans-Serif" font-size="10.00">/home/runner/work/doxygen</text>
<text text-anchor="middle" x="77" y="-7" font-family="Helvetica,sans-Serif" font-size="10.00">/doxygen/src/doxygen.cpp</text>
</a>
</g>
</g>
<!-- Node1&#45;&gt;Node2 -->
<g id="edge1" class="edge">
<title>Node1&#45;&gt;Node2</title>
<path fill="none" stroke="#63b8ff" d="M3185.59,-144.21C2745.91,-134.97 773.12,-90.8 163,-30 160.14,-29.71 157.23,-29.4 154.3,-29.05"/>
<polygon fill="#63b8ff" stroke="#63b8ff" points="3185.62,-147.71 3195.69,-144.42 3185.77,-140.71 3185.62,-147.71"/>
</g>
<!-- Node3 -->
<g id="node3" class="node">
<title>Node3</title>
<g id="a_node3"><a xlink:href="../../d2/db9/outputlist_8h.html" target="_top" xlink:title=" ">
<polygon fill="white" stroke="#666666" points="3298,-96 3144,-96 3144,-66 3298,-66 3298,-96"/>
<text text-anchor="start" x="3152" y="-84" font-family="Helvetica,sans-Serif" font-size="10.00">/home/runner/work/doxygen</text>
<text text-anchor="middle" x="3221" y="-73" font-family="Helvetica,sans-Serif" font-size="10.00">/doxygen/src/outputlist.h</text>
</a>
</g>
</g>
<!-- Node1&#45;&gt;Node3 -->
<g id="edge2" class="edge">
<title>Node1&#45;&gt;Node3</title>
<path fill="none" stroke="#63b8ff" d="M3254.97,-123.81C3247.52,-114.64 3239.1,-104.28 3232.51,-96.16"/>
<polygon fill="#63b8ff" stroke="#63b8ff" points="3252.44,-126.24 3261.46,-131.8 3257.87,-121.83 3252.44,-126.24"/>
</g>
<!-- Node31 -->
<g id="node31" class="node">
<title>Node31</title>
<g id="a_node31"><a xlink:href="../../d0/d9c/rtfgen_8cpp.html" target="_top" xlink:title=" ">
<polygon fill="white" stroke="#666666" points="6449,-30 6295,-30 6295,0 6449,0 6449,-30"/>
<text text-anchor="start" x="6303" y="-18" font-family="Helvetica,sans-Serif" font-size="10.00">/home/runner/work/doxygen</text>
<text text-anchor="middle" x="6372" y="-7" font-family="Helvetica,sans-Serif" font-size="10.00">/doxygen/src/rtfgen.cpp</text>
</a>
</g>
</g>
<!-- Node1&#45;&gt;Node31 -->
<g id="edge41" class="edge">
<title>Node1&#45;&gt;Node31</title>
<path fill="none" stroke="#63b8ff" d="M3286.25,-123.21C3298.86,-103.98 3319.79,-77.76 3346,-66 3420.52,-32.57 6204.63,-37.08 6286,-30 6288.86,-29.75 6291.78,-29.46 6294.71,-29.14"/>
<polygon fill="#63b8ff" stroke="#63b8ff" points="3283.25,-121.41 3280.89,-131.74 3289.17,-125.13 3283.25,-121.41"/>
</g>
<!-- Node40 -->
<g id="node40" class="node">
<title>Node40</title>
<g id="a_node40"><a xlink:href="../../de/d9a/rtfdocvisitor_8cpp.html" target="_top" xlink:title=" ">
<polygon fill="white" stroke="#666666" points="3515.5,-96 3354.5,-96 3354.5,-66 3515.5,-66 3515.5,-96"/>
<text text-anchor="start" x="3362.5" y="-84" font-family="Helvetica,sans-Serif" font-size="10.00">/home/runner/work/doxygen</text>
<text text-anchor="middle" x="3435" y="-73" font-family="Helvetica,sans-Serif" font-size="10.00">/doxygen/src/rtfdocvisitor.cpp</text>
</a>
</g>
</g>
<!-- Node1&#45;&gt;Node40 -->
<g id="edge40" class="edge">
<title>Node1&#45;&gt;Node40</title>
<path fill="none" stroke="#63b8ff" d="M3318.09,-128.19C3343.81,-118.02 3375.6,-105.47 3399.53,-96.01"/>
<polygon fill="#63b8ff" stroke="#63b8ff" points="3316.57,-125.03 3308.55,-131.95 3319.14,-131.54 3316.57,-125.03"/>
</g>
<!-- Node3&#45;&gt;Node2 -->
<g id="edge11" class="edge">
<title>Node3&#45;&gt;Node2</title>
<path fill="none" stroke="#63b8ff" d="M3133.57,-79.33C2665.43,-75.63 465.21,-56.93 163,-30 160.14,-29.74 157.23,-29.45 154.29,-29.12"/>
<polygon fill="#63b8ff" stroke="#63b8ff" points="3133.62,-82.83 3143.65,-79.41 3133.67,-75.83 3133.62,-82.83"/>
</g>
<!-- Node4 -->
<g id="node4" class="node">
<title>Node4</title>
<g id="a_node4"><a xlink:href="../../de/d89/classdef_8cpp.html" target="_top" xlink:title=" ">
<polygon fill="white" stroke="#666666" points="326,-30 172,-30 172,0 326,0 326,-30"/>
<text text-anchor="start" x="180" y="-18" font-family="Helvetica,sans-Serif" font-size="10.00">/home/runner/work/doxygen</text>
<text text-anchor="middle" x="249" y="-7" font-family="Helvetica,sans-Serif" font-size="10.00">/doxygen/src/classdef.cpp</text>
</a>
</g>
</g>
<!-- Node3&#45;&gt;Node4 -->
<g id="edge3" class="edge">
<title>Node3&#45;&gt;Node4</title>
<path fill="none" stroke="#63b8ff" d="M3133.78,-79.24C2682.15,-75.19 619.2,-55.46 335,-30 332.14,-29.74 329.23,-29.45 326.29,-29.12"/>
<polygon fill="#63b8ff" stroke="#63b8ff" points="3133.8,-82.74 3143.83,-79.33 3133.87,-75.74 3133.8,-82.74"/>
</g>
<!-- Node5 -->
<g id="node5" class="node">
<title>Node5</title>
<g id="a_node5"><a xlink:href="../../d6/d10/classlist_8cpp.html" target="_top" xlink:title=" ">
<polygon fill="white" stroke="#666666" points="498,-30 344,-30 344,0 498,0 498,-30"/>
<text text-anchor="start" x="352" y="-18" font-family="Helvetica,sans-Serif" font-size="10.00">/home/runner/work/doxygen</text>
<text text-anchor="middle" x="421" y="-7" font-family="Helvetica,sans-Serif" font-size="10.00">/doxygen/src/classlist.cpp</text>
</a>
</g>
</g>
<!-- Node3&#45;&gt;Node5 -->
<g id="edge4" class="edge">
<title>Node3&#45;&gt;Node5</title>
<path fill="none" stroke="#63b8ff" d="M3133.74,-79.14C2698.55,-74.72 773.17,-53.99 507,-30 504.14,-29.74 501.23,-29.45 498.29,-29.12"/>
<polygon fill="#63b8ff" stroke="#63b8ff" points="3133.7,-82.64 3143.74,-79.24 3133.77,-75.64 3133.7,-82.64"/>
</g>
<!-- Node6 -->
<g id="node6" class="node">
<title>Node6</title>
<g id="a_node6"><a xlink:href="../../da/d1f/code_8l.html" target="_top" xlink:title=" ">
<polygon fill="white" stroke="#666666" points="670,-30 516,-30 516,0 670,0 670,-30"/>
<text text-anchor="start" x="524" y="-18" font-family="Helvetica,sans-Serif" font-size="10.00">/home/runner/work/doxygen</text>
<text text-anchor="middle" x="593" y="-7" font-family="Helvetica,sans-Serif" font-size="10.00">/doxygen/src/code.l</text>
</a>
</g>
</g>
<!-- Node3&#45;&gt;Node6 -->
<g id="edge5" class="edge">
<title>Node3&#45;&gt;Node6</title>
<path fill="none" stroke="#63b8ff" d="M3133.56,-79.02C2715.13,-74.21 927.15,-52.52 679,-30 676.14,-29.74 673.23,-29.44 670.29,-29.11"/>
<polygon fill="#63b8ff" stroke="#63b8ff" points="3133.74,-82.52 3143.78,-79.13 3133.82,-75.52 3133.74,-82.52"/>
</g>
<!-- Node7 -->
<g id="node7" class="node">
<title>Node7</title>
<g id="a_node7"><a xlink:href="../../d8/d0a/conceptdef_8cpp.html" target="_top" xlink:title=" ">
<polygon fill="white" stroke="#666666" points="843.5,-30 688.5,-30 688.5,0 843.5,0 843.5,-30"/>
<text text-anchor="start" x="696.5" y="-18" font-family="Helvetica,sans-Serif" font-size="10.00">/home/runner/work/doxygen</text>
<text text-anchor="middle" x="766" y="-7" font-family="Helvetica,sans-Serif" font-size="10.00">/doxygen/src/conceptdef.cpp</text>
</a>
</g>
</g>
<!-- Node3&#45;&gt;Node7 -->
<g id="edge6" class="edge">
<title>Node3&#45;&gt;Node7</title>
<path fill="none" stroke="#63b8ff" d="M3133.57,-79.78C2761.57,-78.57 1308.68,-71.27 853,-30 849.95,-29.72 846.85,-29.41 843.72,-29.05"/>
<polygon fill="#63b8ff" stroke="#63b8ff" points="3133.73,-83.28 3143.74,-79.81 3133.75,-76.28 3133.73,-83.28"/>
</g>
<!-- Node8 -->
<g id="node8" class="node">
<title>Node8</title>
<g id="a_node8"><a xlink:href="../../db/d12/context_8cpp.html" target="_top" xlink:title=" ">
<polygon fill="white" stroke="#666666" points="1016,-30 862,-30 862,0 1016,0 1016,-30"/>
<text text-anchor="start" x="870" y="-18" font-family="Helvetica,sans-Serif" font-size="10.00">/home/runner/work/doxygen</text>
<text text-anchor="middle" x="939" y="-7" font-family="Helvetica,sans-Serif" font-size="10.00">/doxygen/src/context.cpp</text>
</a>
</g>
</g>
<!-- Node3&#45;&gt;Node8 -->
<g id="edge7" class="edge">
<title>Node3&#45;&gt;Node8</title>
<path fill="none" stroke="#63b8ff" d="M3133.54,-79.63C2778.65,-77.87 1444.97,-68.78 1025,-30 1022.14,-29.74 1019.23,-29.43 1016.29,-29.1"/>
<polygon fill="#63b8ff" stroke="#63b8ff" points="3133.74,-83.13 3143.76,-79.68 3133.77,-76.13 3133.74,-83.13"/>
</g>
<!-- Node9 -->
<g id="node9" class="node">
<title>Node9</title>
<g id="a_node9"><a xlink:href="../../d3/dea/definition_8cpp.html" target="_top" xlink:title=" ">
<polygon fill="white" stroke="#666666" points="1188,-30 1034,-30 1034,0 1188,0 1188,-30"/>
<text text-anchor="start" x="1042" y="-18" font-family="Helvetica,sans-Serif" font-size="10.00">/home/runner/work/doxygen</text>
<text text-anchor="middle" x="1111" y="-7" font-family="Helvetica,sans-Serif" font-size="10.00">/doxygen/src/definition.cpp</text>
</a>
</g>
</g>
<!-- Node3&#45;&gt;Node9 -->
<g id="edge8" class="edge">
<title>Node3&#45;&gt;Node9</title>
<path fill="none" stroke="#63b8ff" d="M3133.75,-79.43C2796.99,-77 1581.49,-65.88 1197,-30 1194.14,-29.73 1191.23,-29.43 1188.29,-29.09"/>
<polygon fill="#63b8ff" stroke="#63b8ff" points="3133.91,-82.93 3143.94,-79.51 3133.96,-75.93 3133.91,-82.93"/>
</g>
<!-- Node10 -->
<g id="node10" class="node">
<title>Node10</title>
<g id="a_node10"><a xlink:href="../../d8/d52/dirdef_8cpp.html" target="_top" xlink:title=" ">
<polygon fill="white" stroke="#666666" points="1360,-30 1206,-30 1206,0 1360,0 1360,-30"/>
<text text-anchor="start" x="1214" y="-18" font-family="Helvetica,sans-Serif" font-size="10.00">/home/runner/work/doxygen</text>
<text text-anchor="middle" x="1283" y="-7" font-family="Helvetica,sans-Serif" font-size="10.00">/doxygen/src/dirdef.cpp</text>
</a>
</g>
</g>
<!-- Node3&#45;&gt;Node10 -->
<g id="edge9" class="edge">
<title>Node3&#45;&gt;Node10</title>
<path fill="none" stroke="#63b8ff" d="M3133.8,-79.2C2815.69,-76.05 1718.05,-62.97 1369,-30 1366.14,-29.73 1363.23,-29.42 1360.29,-29.09"/>
<polygon fill="#63b8ff" stroke="#63b8ff" points="3133.85,-82.7 3143.89,-79.3 3133.92,-75.7 3133.85,-82.7"/>
</g>
<!-- Node11 -->
<g id="node11" class="node">
<title>Node11</title>
<g id="a_node11"><a xlink:href="../../d8/d29/docbookgen_8cpp.html" target="_top" xlink:title=" ">
<polygon fill="white" stroke="#666666" points="1539.5,-30 1378.5,-30 1378.5,0 1539.5,0 1539.5,-30"/>
<text text-anchor="start" x="1386.5" y="-18" font-family="Helvetica,sans-Serif" font-size="10.00">/home/runner/work/doxygen</text>
<text text-anchor="middle" x="1459" y="-7" font-family="Helvetica,sans-Serif" font-size="10.00">/doxygen/src/docbookgen.cpp</text>
</a>
</g>
</g>
<!-- Node3&#45;&gt;Node11 -->
<g id="edge10" class="edge">
<title>Node3&#45;&gt;Node11</title>
<path fill="none" stroke="#63b8ff" d="M3133.41,-78.82C2835.25,-74.58 1861.04,-58.82 1549,-30 1546.01,-29.72 1542.96,-29.41 1539.89,-29.07"/>
<polygon fill="#63b8ff" stroke="#63b8ff" points="3133.68,-82.33 3143.73,-78.97 3133.78,-75.33 3133.68,-82.33"/>
</g>
<!-- Node12 -->
<g id="node12" class="node">
<title>Node12</title>
<g id="a_node12"><a xlink:href="../../d6/ddc/filedef_8cpp.html" target="_top" xlink:title=" ">
<polygon fill="white" stroke="#666666" points="1712,-30 1558,-30 1558,0 1712,0 1712,-30"/>
<text text-anchor="start" x="1566" y="-18" font-family="Helvetica,sans-Serif" font-size="10.00">/home/runner/work/doxygen</text>
<text text-anchor="middle" x="1635" y="-7" font-family="Helvetica,sans-Serif" font-size="10.00">/doxygen/src/filedef.cpp</text>
</a>
</g>
</g>
<!-- Node3&#45;&gt;Node12 -->
<g id="edge12" class="edge">
<title>Node3&#45;&gt;Node12</title>
<path fill="none" stroke="#63b8ff" d="M3133.54,-78.56C2856.11,-73.75 1997.82,-57.03 1721,-30 1718.14,-29.72 1715.23,-29.41 1712.29,-29.06"/>
<polygon fill="#63b8ff" stroke="#63b8ff" points="3133.5,-82.06 3143.56,-78.73 3133.62,-75.06 3133.5,-82.06"/>
</g>
<!-- Node13 -->
<g id="node13" class="node">
<title>Node13</title>
<g id="a_node13"><a xlink:href="../../d9/d74/fileparser_8cpp.html" target="_top" xlink:title=" ">
<polygon fill="white" stroke="#666666" points="1884,-30 1730,-30 1730,0 1884,0 1884,-30"/>
<text text-anchor="start" x="1738" y="-18" font-family="Helvetica,sans-Serif" font-size="10.00">/home/runner/work/doxygen</text>
<text text-anchor="middle" x="1807" y="-7" font-family="Helvetica,sans-Serif" font-size="10.00">/doxygen/src/fileparser.cpp</text>
</a>
</g>
</g>
<!-- Node3&#45;&gt;Node13 -->
<g id="edge13" class="edge">
<title>Node3&#45;&gt;Node13</title>
<path fill="none" stroke="#63b8ff" d="M3133.5,-80.44C2920.61,-80.7 2358.87,-76.51 1893,-30 1890.14,-29.71 1887.23,-29.39 1884.3,-29.05"/>
<polygon fill="#63b8ff" stroke="#63b8ff" points="3133.69,-83.94 3143.68,-80.42 3133.67,-76.94 3133.69,-83.94"/>
</g>
<!-- Node14 -->
<g id="node14" class="node">
<title>Node14</title>
<g id="a_node14"><a xlink:href="../../d9/d5b/fortrancode_8l.html" target="_top" xlink:title=" ">
<polygon fill="white" stroke="#666666" points="2056,-30 1902,-30 1902,0 2056,0 2056,-30"/>
<text text-anchor="start" x="1910" y="-18" font-family="Helvetica,sans-Serif" font-size="10.00">/home/runner/work/doxygen</text>
<text text-anchor="middle" x="1979" y="-7" font-family="Helvetica,sans-Serif" font-size="10.00">/doxygen/src/fortrancode.l</text>
</a>
</g>
</g>
<!-- Node3&#45;&gt;Node14 -->
<g id="edge14" class="edge">
<title>Node3&#45;&gt;Node14</title>
<path fill="none" stroke="#63b8ff" d="M3133.56,-79.74C2940.33,-78.39 2462.55,-70.81 2065,-30 2062.14,-29.71 2059.23,-29.38 2056.3,-29.03"/>
<polygon fill="#63b8ff" stroke="#63b8ff" points="3133.64,-83.24 3143.66,-79.8 3133.68,-76.24 3133.64,-83.24"/>
</g>
<!-- Node15 -->
<g id="node15" class="node">
<title>Node15</title>
<g id="a_node15"><a xlink:href="../../db/d41/ftvhelp_8cpp.html" target="_top" xlink:title=" ">
<polygon fill="white" stroke="#666666" points="2228,-30 2074,-30 2074,0 2228,0 2228,-30"/>
<text text-anchor="start" x="2082" y="-18" font-family="Helvetica,sans-Serif" font-size="10.00">/home/runner/work/doxygen</text>
<text text-anchor="middle" x="2151" y="-7" font-family="Helvetica,sans-Serif" font-size="10.00">/doxygen/src/ftvhelp.cpp</text>
</a>
</g>
</g>
<!-- Node3&#45;&gt;Node15 -->
<g id="edge15" class="edge">
<title>Node3&#45;&gt;Node15</title>
<path fill="none" stroke="#63b8ff" d="M3133.9,-78.81C2961.97,-75.73 2567,-65.14 2237,-30 2234.14,-29.7 2231.23,-29.36 2228.3,-29"/>
<polygon fill="#63b8ff" stroke="#63b8ff" points="3133.85,-82.3 3143.91,-78.98 3133.97,-75.31 3133.85,-82.3"/>
</g>
<!-- Node16 -->
<g id="node16" class="node">
<title>Node16</title>
<g id="a_node16"><a xlink:href="../../d6/d42/groupdef_8cpp.html" target="_top" xlink:title=" ">
<polygon fill="white" stroke="#666666" points="2400,-30 2246,-30 2246,0 2400,0 2400,-30"/>
<text text-anchor="start" x="2254" y="-18" font-family="Helvetica,sans-Serif" font-size="10.00">/home/runner/work/doxygen</text>
<text text-anchor="middle" x="2323" y="-7" font-family="Helvetica,sans-Serif" font-size="10.00">/doxygen/src/groupdef.cpp</text>
</a>
</g>
</g>
<!-- Node3&#45;&gt;Node16 -->
<g id="edge16" class="edge">
<title>Node3&#45;&gt;Node16</title>
<path fill="none" stroke="#63b8ff" d="M3133.8,-77.49C2984.84,-72.56 2671.93,-59.42 2409,-30 2406.14,-29.68 2403.24,-29.33 2400.3,-28.96"/>
<polygon fill="#63b8ff" stroke="#63b8ff" points="3133.7,-80.99 3143.81,-77.81 3133.93,-73.99 3133.7,-80.99"/>
</g>
<!-- Node17 -->
<g id="node17" class="node">
<title>Node17</title>
<g id="a_node17"><a xlink:href="../../da/db0/htmldocvisitor_8cpp.html" target="_top" xlink:title=" ">
<polygon fill="white" stroke="#666666" points="2590,-30 2418,-30 2418,0 2590,0 2590,-30"/>
<text text-anchor="start" x="2426" y="-18" font-family="Helvetica,sans-Serif" font-size="10.00">/home/runner/work/doxygen</text>
<text text-anchor="middle" x="2504" y="-7" font-family="Helvetica,sans-Serif" font-size="10.00">/doxygen/src/htmldocvisitor.cpp</text>
</a>
</g>
</g>
<!-- Node3&#45;&gt;Node17 -->
<g id="edge17" class="edge">
<title>Node3&#45;&gt;Node17</title>
<path fill="none" stroke="#63b8ff" d="M3133.48,-74.79C3012.92,-67.21 2789.1,-51.62 2599,-30 2596.1,-29.67 2593.15,-29.32 2590.18,-28.95"/>
<polygon fill="#63b8ff" stroke="#63b8ff" points="3133.55,-78.31 3143.75,-75.44 3133.99,-71.32 3133.55,-78.31"/>
</g>
<!-- Node18 -->
<g id="node18" class="node">
<title>Node18</title>
<g id="a_node18"><a xlink:href="../../d8/d6e/htmlgen_8cpp.html" target="_top" xlink:title=" ">
<polygon fill="white" stroke="#666666" points="2762,-30 2608,-30 2608,0 2762,0 2762,-30"/>
<text text-anchor="start" x="2616" y="-18" font-family="Helvetica,sans-Serif" font-size="10.00">/home/runner/work/doxygen</text>
<text text-anchor="middle" x="2685" y="-7" font-family="Helvetica,sans-Serif" font-size="10.00">/doxygen/src/htmlgen.cpp</text>
</a>
</g>
</g>
<!-- Node3&#45;&gt;Node18 -->
<g id="edge18" class="edge">
<title>Node3&#45;&gt;Node18</title>
<path fill="none" stroke="#63b8ff" d="M3133.64,-71.62C3042.86,-62.6 2896.74,-47.21 2771,-30 2768.15,-29.61 2765.25,-29.2 2762.33,-28.78"/>
<polygon fill="#63b8ff" stroke="#63b8ff" points="3133.32,-75.1 3143.61,-72.61 3134.01,-68.14 3133.32,-75.1"/>
</g>
<!-- Node19 -->
<g id="node19" class="node">
<title>Node19</title>
<g id="a_node19"><a xlink:href="../../db/d14/index_8cpp.html" target="_top" xlink:title="This file contains functions for the various index pages.">
<polygon fill="white" stroke="#666666" points="2934,-30 2780,-30 2780,0 2934,0 2934,-30"/>
<text text-anchor="start" x="2788" y="-18" font-family="Helvetica,sans-Serif" font-size="10.00">/home/runner/work/doxygen</text>
<text text-anchor="middle" x="2857" y="-7" font-family="Helvetica,sans-Serif" font-size="10.00">/doxygen/src/index.cpp</text>
</a>
</g>
</g>
<!-- Node3&#45;&gt;Node19 -->
<g id="edge19" class="edge">
<title>Node3&#45;&gt;Node19</title>
<path fill="none" stroke="#63b8ff" d="M3133.84,-64.67C3073.01,-53.98 2992.57,-39.84 2934.08,-29.55"/>
<polygon fill="#63b8ff" stroke="#63b8ff" points="3133.35,-68.14 3143.8,-66.43 3134.56,-61.25 3133.35,-68.14"/>
</g>
<!-- Node20 -->
<g id="node20" class="node">
<title>Node20</title>
<g id="a_node20"><a xlink:href="../../d1/d4e/latexdocvisitor_8cpp.html" target="_top" xlink:title=" ">
<polygon fill="white" stroke="#666666" points="3126,-30 2952,-30 2952,0 3126,0 3126,-30"/>
<text text-anchor="start" x="2960" y="-18" font-family="Helvetica,sans-Serif" font-size="10.00">/home/runner/work/doxygen</text>
<text text-anchor="middle" x="3039" y="-7" font-family="Helvetica,sans-Serif" font-size="10.00">/doxygen/src/latexdocvisitor.cpp</text>
</a>
</g>
</g>
<!-- Node3&#45;&gt;Node20 -->
<g id="edge20" class="edge">
<title>Node3&#45;&gt;Node20</title>
<path fill="none" stroke="#63b8ff" d="M3171.49,-62.59C3142.39,-52.36 3106.09,-39.59 3078.85,-30.01"/>
<polygon fill="#63b8ff" stroke="#63b8ff" points="3170.46,-65.94 3181.06,-65.95 3172.79,-59.34 3170.46,-65.94"/>
</g>
<!-- Node21 -->
<g id="node21" class="node">
<title>Node21</title>
<g id="a_node21"><a xlink:href="../../d4/d42/latexgen_8cpp.html" target="_top" xlink:title=" ">
<polygon fill="white" stroke="#666666" points="3298,-30 3144,-30 3144,0 3298,0 3298,-30"/>
<text text-anchor="start" x="3152" y="-18" font-family="Helvetica,sans-Serif" font-size="10.00">/home/runner/work/doxygen</text>
<text text-anchor="middle" x="3221" y="-7" font-family="Helvetica,sans-Serif" font-size="10.00">/doxygen/src/latexgen.cpp</text>
</a>
</g>
</g>
<!-- Node3&#45;&gt;Node21 -->
<g id="edge21" class="edge">
<title>Node3&#45;&gt;Node21</title>
<path fill="none" stroke="#63b8ff" d="M3221,-55.54C3221,-46.96 3221,-37.61 3221,-30.16"/>
<polygon fill="#63b8ff" stroke="#63b8ff" points="3217.5,-55.8 3221,-65.8 3224.5,-55.8 3217.5,-55.8"/>
</g>
<!-- Node22 -->
<g id="node22" class="node">
<title>Node22</title>
<g id="a_node22"><a xlink:href="../../d0/d7e/lexcode_8l.html" target="_top" xlink:title=" ">
<polygon fill="white" stroke="#666666" points="3470,-30 3316,-30 3316,0 3470,0 3470,-30"/>
<text text-anchor="start" x="3324" y="-18" font-family="Helvetica,sans-Serif" font-size="10.00">/home/runner/work/doxygen</text>
<text text-anchor="middle" x="3393" y="-7" font-family="Helvetica,sans-Serif" font-size="10.00">/doxygen/src/lexcode.l</text>
</a>
</g>
</g>
<!-- Node3&#45;&gt;Node22 -->
<g id="edge22" class="edge">
<title>Node3&#45;&gt;Node22</title>
<path fill="none" stroke="#63b8ff" d="M3268.15,-62.46C3295.59,-52.25 3329.71,-39.55 3355.34,-30.01"/>
<polygon fill="#63b8ff" stroke="#63b8ff" points="3266.9,-59.19 3258.75,-65.95 3269.34,-65.75 3266.9,-59.19"/>
</g>
<!-- Node23 -->
<g id="node23" class="node">
<title>Node23</title>
<g id="a_node23"><a xlink:href="../../d7/de7/mangen_8cpp.html" target="_top" xlink:title=" ">
<polygon fill="white" stroke="#666666" points="3642,-30 3488,-30 3488,0 3642,0 3642,-30"/>
<text text-anchor="start" x="3496" y="-18" font-family="Helvetica,sans-Serif" font-size="10.00">/home/runner/work/doxygen</text>
<text text-anchor="middle" x="3565" y="-7" font-family="Helvetica,sans-Serif" font-size="10.00">/doxygen/src/mangen.cpp</text>
</a>
</g>
</g>
<!-- Node3&#45;&gt;Node23 -->
<g id="edge23" class="edge">
<title>Node3&#45;&gt;Node23</title>
<path fill="none" stroke="#63b8ff" d="M3306.43,-64.11C3362.67,-53.64 3435.62,-40.07 3489.68,-30.01"/>
<polygon fill="#63b8ff" stroke="#63b8ff" points="3305.68,-60.68 3296.49,-65.95 3306.96,-67.57 3305.68,-60.68"/>
</g>
<!-- Node24 -->
<g id="node24" class="node">
<title>Node24</title>
<g id="a_node24"><a xlink:href="../../d0/d72/memberdef_8cpp.html" target="_top" xlink:title=" ">
<polygon fill="white" stroke="#666666" points="3818,-30 3660,-30 3660,0 3818,0 3818,-30"/>
<text text-anchor="start" x="3668" y="-18" font-family="Helvetica,sans-Serif" font-size="10.00">/home/runner/work/doxygen</text>
<text text-anchor="middle" x="3739" y="-7" font-family="Helvetica,sans-Serif" font-size="10.00">/doxygen/src/memberdef.cpp</text>
</a>
</g>
</g>
<!-- Node3&#45;&gt;Node24 -->
<g id="edge24" class="edge">
<title>Node3&#45;&gt;Node24</title>
<path fill="none" stroke="#63b8ff" d="M3308.65,-66.44C3309.77,-66.29 3310.89,-66.14 3312,-66 3462.25,-46.48 3500.8,-49.91 3651,-30 3653.91,-29.61 3656.88,-29.21 3659.87,-28.79"/>
<polygon fill="#63b8ff" stroke="#63b8ff" points="3307.85,-63.02 3298.41,-67.84 3308.79,-69.95 3307.85,-63.02"/>
</g>
<!-- Node25 -->
<g id="node25" class="node">
<title>Node25</title>
<g id="a_node25"><a xlink:href="../../d6/d18/membergroup_8cpp.html" target="_top" xlink:title=" ">
<polygon fill="white" stroke="#666666" points="4007.5,-30 3836.5,-30 3836.5,0 4007.5,0 4007.5,-30"/>
<text text-anchor="start" x="3844.5" y="-18" font-family="Helvetica,sans-Serif" font-size="10.00">/home/runner/work/doxygen</text>
<text text-anchor="middle" x="3922" y="-7" font-family="Helvetica,sans-Serif" font-size="10.00">/doxygen/src/membergroup.cpp</text>
</a>
</g>
</g>
<!-- Node3&#45;&gt;Node25 -->
<g id="edge25" class="edge">
<title>Node3&#45;&gt;Node25</title>
<path fill="none" stroke="#63b8ff" d="M3308.64,-66.38C3309.77,-66.25 3310.89,-66.12 3312,-66 3540.03,-40.53 3598.89,-54.74 3827,-30 3830.07,-29.67 3833.19,-29.31 3836.33,-28.93"/>
<polygon fill="#63b8ff" stroke="#63b8ff" points="3307.88,-62.95 3298.39,-67.65 3308.74,-69.9 3307.88,-62.95"/>
</g>
<!-- Node26 -->
<g id="node26" class="node">
<title>Node26</title>
<g id="a_node26"><a xlink:href="../../d0/d14/memberlist_8cpp.html" target="_top" xlink:title=" ">
<polygon fill="white" stroke="#666666" points="4184,-30 4026,-30 4026,0 4184,0 4184,-30"/>
<text text-anchor="start" x="4034" y="-18" font-family="Helvetica,sans-Serif" font-size="10.00">/home/runner/work/doxygen</text>
<text text-anchor="middle" x="4105" y="-7" font-family="Helvetica,sans-Serif" font-size="10.00">/doxygen/src/memberlist.cpp</text>
</a>
</g>
</g>
<!-- Node3&#45;&gt;Node26 -->
<g id="edge26" class="edge">
<title>Node3&#45;&gt;Node26</title>
<path fill="none" stroke="#63b8ff" d="M3308.64,-66.35C3309.77,-66.23 3310.89,-66.11 3312,-66 3624.12,-34.11 3704.97,-62.69 4017,-30 4019.92,-29.69 4022.9,-29.36 4025.9,-28.99"/>
<polygon fill="#63b8ff" stroke="#63b8ff" points="3307.91,-62.92 3298.38,-67.55 3308.71,-69.87 3307.91,-62.92"/>
</g>
<!-- Node27 -->
<g id="node27" class="node">
<title>Node27</title>
<g id="a_node27"><a xlink:href="../../d7/d1c/namespacedef_8cpp.html" target="_top" xlink:title=" ">
<polygon fill="white" stroke="#666666" points="4375.5,-30 4202.5,-30 4202.5,0 4375.5,0 4375.5,-30"/>
<text text-anchor="start" x="4210.5" y="-18" font-family="Helvetica,sans-Serif" font-size="10.00">/home/runner/work/doxygen</text>
<text text-anchor="middle" x="4289" y="-7" font-family="Helvetica,sans-Serif" font-size="10.00">/doxygen/src/namespacedef.cpp</text>
</a>
</g>
</g>
<!-- Node3&#45;&gt;Node27 -->
<g id="edge27" class="edge">
<title>Node3&#45;&gt;Node27</title>
<path fill="none" stroke="#63b8ff" d="M3308.64,-66.34C3309.77,-66.22 3310.89,-66.11 3312,-66 3702.05,-28.15 3802.8,-66.32 4193,-30 4196.1,-29.71 4199.26,-29.39 4202.44,-29.05"/>
<polygon fill="#63b8ff" stroke="#63b8ff" points="3307.92,-62.9 3298.37,-67.49 3308.7,-69.85 3307.92,-62.9"/>
</g>
<!-- Node28 -->
<g id="node28" class="node">
<title>Node28</title>
<g id="a_node28"><a xlink:href="../../db/dd8/outputlist_8cpp.html" target="_top" xlink:title=" ">
<polygon fill="white" stroke="#666666" points="4548,-30 4394,-30 4394,0 4548,0 4548,-30"/>
<text text-anchor="start" x="4402" y="-18" font-family="Helvetica,sans-Serif" font-size="10.00">/home/runner/work/doxygen</text>
<text text-anchor="middle" x="4471" y="-7" font-family="Helvetica,sans-Serif" font-size="10.00">/doxygen/src/outputlist.cpp</text>
</a>
</g>
</g>
<!-- Node3&#45;&gt;Node28 -->
<g id="edge28" class="edge">
<title>Node3&#45;&gt;Node28</title>
<path fill="none" stroke="#63b8ff" d="M3308.64,-66.33C3309.76,-66.21 3310.89,-66.1 3312,-66 3787.09,-21.64 3910.11,-76.43 4385,-30 4387.86,-29.72 4390.77,-29.41 4393.71,-29.06"/>
<polygon fill="#63b8ff" stroke="#63b8ff" points="3307.93,-62.88 3298.37,-67.46 3308.69,-69.84 3307.93,-62.88"/>
</g>
<!-- Node29 -->
<g id="node29" class="node">
<title>Node29</title>
<g id="a_node29"><a xlink:href="../../d9/db4/pagedef_8cpp.html" target="_top" xlink:title=" ">
<polygon fill="white" stroke="#666666" points="4720,-30 4566,-30 4566,0 4720,0 4720,-30"/>
<text text-anchor="start" x="4574" y="-18" font-family="Helvetica,sans-Serif" font-size="10.00">/home/runner/work/doxygen</text>
<text text-anchor="middle" x="4643" y="-7" font-family="Helvetica,sans-Serif" font-size="10.00">/doxygen/src/pagedef.cpp</text>
</a>
</g>
</g>
<!-- Node3&#45;&gt;Node29 -->
<g id="edge29" class="edge">
<title>Node3&#45;&gt;Node29</title>
<path fill="none" stroke="#63b8ff" d="M3308.64,-66.32C3309.76,-66.21 3310.89,-66.1 3312,-66 3863.29,-15.82 4005.94,-82.59 4557,-30 4559.86,-29.73 4562.77,-29.42 4565.71,-29.08"/>
<polygon fill="#63b8ff" stroke="#63b8ff" points="3307.93,-62.87 3298.37,-67.43 3308.68,-69.83 3307.93,-62.87"/>
</g>
<!-- Node30 -->
<g id="node30" class="node">
<title>Node30</title>
<g id="a_node30"><a xlink:href="../../d3/ded/pycode_8l.html" target="_top" xlink:title=" ">
<polygon fill="white" stroke="#666666" points="4892,-30 4738,-30 4738,0 4892,0 4892,-30"/>
<text text-anchor="start" x="4746" y="-18" font-family="Helvetica,sans-Serif" font-size="10.00">/home/runner/work/doxygen</text>
<text text-anchor="middle" x="4815" y="-7" font-family="Helvetica,sans-Serif" font-size="10.00">/doxygen/src/pycode.l</text>
</a>
</g>
</g>
<!-- Node3&#45;&gt;Node30 -->
<g id="edge30" class="edge">
<title>Node3&#45;&gt;Node30</title>
<path fill="none" stroke="#63b8ff" d="M3308.64,-66.31C3309.76,-66.2 3310.89,-66.1 3312,-66 3939.49,-9.99 4101.76,-88.75 4729,-30 4731.86,-29.73 4734.77,-29.43 4737.71,-29.09"/>
<polygon fill="#63b8ff" stroke="#63b8ff" points="3307.93,-62.87 3298.36,-67.41 3308.68,-69.83 3307.93,-62.87"/>
</g>
<!-- Node3&#45;&gt;Node31 -->
<g id="edge31" class="edge">
<title>Node3&#45;&gt;Node31</title>
<path fill="none" stroke="#63b8ff" d="M3308.63,-66.29C3309.76,-66.19 3310.88,-66.09 3312,-66 3970.7,-11.62 5627.55,-87.26 6286,-30 6288.86,-29.75 6291.78,-29.46 6294.71,-29.14"/>
<polygon fill="#63b8ff" stroke="#63b8ff" points="3307.95,-62.84 3298.36,-67.34 3308.66,-69.81 3307.95,-62.84"/>
</g>
<!-- Node32 -->
<g id="node32" class="node">
<title>Node32</title>
<g id="a_node32"><a xlink:href="../../d2/dda/sqlcode_8l.html" target="_top" xlink:title=" ">
<polygon fill="white" stroke="#666666" points="5064,-30 4910,-30 4910,0 5064,0 5064,-30"/>
<text text-anchor="start" x="4918" y="-18" font-family="Helvetica,sans-Serif" font-size="10.00">/home/runner/work/doxygen</text>
<text text-anchor="middle" x="4987" y="-7" font-family="Helvetica,sans-Serif" font-size="10.00">/doxygen/src/sqlcode.l</text>
</a>
</g>
</g>
<!-- Node3&#45;&gt;Node32 -->
<g id="edge32" class="edge">
<title>Node3&#45;&gt;Node32</title>
<path fill="none" stroke="#63b8ff" d="M3308.64,-66.31C3309.76,-66.2 3310.89,-66.1 3312,-66 4015.69,-4.16 4197.58,-94.91 4901,-30 4903.86,-29.74 4906.77,-29.43 4909.71,-29.1"/>
<polygon fill="#63b8ff" stroke="#63b8ff" points="3307.94,-62.86 3298.36,-67.4 3308.68,-69.82 3307.94,-62.86"/>
</g>
<!-- Node33 -->
<g id="node33" class="node">
<title>Node33</title>
<g id="a_node33"><a xlink:href="../../d7/d56/tooltip_8cpp.html" target="_top" xlink:title=" ">
<polygon fill="white" stroke="#666666" points="5236,-30 5082,-30 5082,0 5236,0 5236,-30"/>
<text text-anchor="start" x="5090" y="-18" font-family="Helvetica,sans-Serif" font-size="10.00">/home/runner/work/doxygen</text>
<text text-anchor="middle" x="5159" y="-7" font-family="Helvetica,sans-Serif" font-size="10.00">/doxygen/src/tooltip.cpp</text>
</a>
</g>
</g>
<!-- Node3&#45;&gt;Node33 -->
<g id="edge33" class="edge">
<title>Node3&#45;&gt;Node33</title>
<path fill="none" stroke="#63b8ff" d="M3308.64,-66.31C3309.76,-66.2 3310.89,-66.1 3312,-66 4091.9,1.67 4293.4,-101.07 5073,-30 5075.86,-29.74 5078.77,-29.44 5081.71,-29.11"/>
<polygon fill="#63b8ff" stroke="#63b8ff" points="3307.94,-62.86 3298.36,-67.39 3308.67,-69.82 3307.94,-62.86"/>
</g>
<!-- Node34 -->
<g id="node34" class="node">
<title>Node34</title>
<g id="a_node34"><a xlink:href="../../df/d2d/util_8cpp.html" target="_top" xlink:title=" ">
<polygon fill="white" stroke="#666666" points="5408,-30 5254,-30 5254,0 5408,0 5408,-30"/>
<text text-anchor="start" x="5262" y="-18" font-family="Helvetica,sans-Serif" font-size="10.00">/home/runner/work/doxygen</text>
<text text-anchor="middle" x="5331" y="-7" font-family="Helvetica,sans-Serif" font-size="10.00">/doxygen/src/util.cpp</text>
</a>
</g>
</g>
<!-- Node3&#45;&gt;Node34 -->
<g id="edge34" class="edge">
<title>Node3&#45;&gt;Node34</title>
<path fill="none" stroke="#63b8ff" d="M3308.64,-66.3C3309.76,-66.2 3310.89,-66.1 3312,-66 4168.11,7.49 4389.22,-107.23 5245,-30 5247.86,-29.74 5250.77,-29.44 5253.71,-29.12"/>
<polygon fill="#63b8ff" stroke="#63b8ff" points="3307.94,-62.86 3298.36,-67.38 3308.67,-69.82 3307.94,-62.86"/>
</g>
<!-- Node35 -->
<g id="node35" class="node">
<title>Node35</title>
<g id="a_node35"><a xlink:href="../../d5/d6a/vhdlcode_8l.html" target="_top" xlink:title=" ">
<polygon fill="white" stroke="#666666" points="5580,-30 5426,-30 5426,0 5580,0 5580,-30"/>
<text text-anchor="start" x="5434" y="-18" font-family="Helvetica,sans-Serif" font-size="10.00">/home/runner/work/doxygen</text>
<text text-anchor="middle" x="5503" y="-7" font-family="Helvetica,sans-Serif" font-size="10.00">/doxygen/src/vhdlcode.l</text>
</a>
</g>
</g>
<!-- Node3&#45;&gt;Node35 -->
<g id="edge35" class="edge">
<title>Node3&#45;&gt;Node35</title>
<path fill="none" stroke="#63b8ff" d="M3308.64,-66.3C3309.76,-66.19 3310.89,-66.09 3312,-66 4244.32,13.32 4485.03,-113.39 5417,-30 5419.86,-29.74 5422.77,-29.45 5425.71,-29.12"/>
<polygon fill="#63b8ff" stroke="#63b8ff" points="3307.94,-62.85 3298.36,-67.37 3308.67,-69.82 3307.94,-62.85"/>
</g>
<!-- Node36 -->
<g id="node36" class="node">
<title>Node36</title>
<g id="a_node36"><a xlink:href="../../de/dea/vhdldocgen_8cpp.html" target="_top" xlink:title=" ">
<polygon fill="white" stroke="#666666" points="5756,-30 5598,-30 5598,0 5756,0 5756,-30"/>
<text text-anchor="start" x="5606" y="-18" font-family="Helvetica,sans-Serif" font-size="10.00">/home/runner/work/doxygen</text>
<text text-anchor="middle" x="5677" y="-7" font-family="Helvetica,sans-Serif" font-size="10.00">/doxygen/src/vhdldocgen.cpp</text>
</a>
</g>
</g>
<!-- Node3&#45;&gt;Node36 -->
<g id="edge36" class="edge">
<title>Node3&#45;&gt;Node36</title>
<path fill="none" stroke="#63b8ff" d="M3308.64,-66.3C3309.76,-66.19 3310.89,-66.09 3312,-66 4320.54,19.15 4580.68,-117.73 5589,-30 5591.93,-29.75 5594.91,-29.45 5597.91,-29.13"/>
<polygon fill="#63b8ff" stroke="#63b8ff" points="3307.95,-62.85 3298.36,-67.36 3308.67,-69.81 3307.95,-62.85"/>
</g>
<!-- Node37 -->
<g id="node37" class="node">
<title>Node37</title>
<g id="a_node37"><a xlink:href="../../d1/d86/vhdljjparser_8cpp.html" target="_top" xlink:title=" ">
<polygon fill="white" stroke="#666666" points="5932.5,-30 5773.5,-30 5773.5,0 5932.5,0 5932.5,-30"/>
<text text-anchor="start" x="5781.5" y="-18" font-family="Helvetica,sans-Serif" font-size="10.00">/home/runner/work/doxygen</text>
<text text-anchor="middle" x="5853" y="-7" font-family="Helvetica,sans-Serif" font-size="10.00">/doxygen/src/vhdljjparser.cpp</text>
</a>
</g>
</g>
<!-- Node3&#45;&gt;Node37 -->
<g id="edge37" class="edge">
<title>Node3&#45;&gt;Node37</title>
<path fill="none" stroke="#63b8ff" d="M3308.64,-66.3C3309.76,-66.19 3310.88,-66.09 3312,-66 4398.53,25.11 4678.71,-123.89 5765,-30 5767.77,-29.76 5770.59,-29.48 5773.44,-29.18"/>
<polygon fill="#63b8ff" stroke="#63b8ff" points="3307.95,-62.85 3298.36,-67.36 3308.67,-69.81 3307.95,-62.85"/>
</g>
<!-- Node38 -->
<g id="node38" class="node">
<title>Node38</title>
<g id="a_node38"><a xlink:href="../../dc/dc1/xmlcode_8l.html" target="_top" xlink:title=" ">
<polygon fill="white" stroke="#666666" points="6105,-30 5951,-30 5951,0 6105,0 6105,-30"/>
<text text-anchor="start" x="5959" y="-18" font-family="Helvetica,sans-Serif" font-size="10.00">/home/runner/work/doxygen</text>
<text text-anchor="middle" x="6028" y="-7" font-family="Helvetica,sans-Serif" font-size="10.00">/doxygen/src/xmlcode.l</text>
</a>
</g>
</g>
<!-- Node3&#45;&gt;Node38 -->
<g id="edge38" class="edge">
<title>Node3&#45;&gt;Node38</title>
<path fill="none" stroke="#63b8ff" d="M3308.63,-66.29C3309.76,-66.19 3310.88,-66.09 3312,-66 4476.96,31.11 4777.48,-132.19 5942,-30 5944.86,-29.75 5947.78,-29.46 5950.71,-29.13"/>
<polygon fill="#63b8ff" stroke="#63b8ff" points="3307.95,-62.85 3298.36,-67.35 3308.66,-69.81 3307.95,-62.85"/>
</g>
<!-- Node39 -->
<g id="node39" class="node">
<title>Node39</title>
<g id="a_node39"><a xlink:href="../../d0/dc3/xmlgen_8cpp.html" target="_top" xlink:title=" ">
<polygon fill="white" stroke="#666666" points="6277,-30 6123,-30 6123,0 6277,0 6277,-30"/>
<text text-anchor="start" x="6131" y="-18" font-family="Helvetica,sans-Serif" font-size="10.00">/home/runner/work/doxygen</text>
<text text-anchor="middle" x="6200" y="-7" font-family="Helvetica,sans-Serif" font-size="10.00">/doxygen/src/xmlgen.cpp</text>
</a>
</g>
</g>
<!-- Node3&#45;&gt;Node39 -->
<g id="edge39" class="edge">
<title>Node3&#45;&gt;Node39</title>
<path fill="none" stroke="#63b8ff" d="M3308.63,-66.29C3309.76,-66.19 3310.88,-66.09 3312,-66 3932.59,-14.53 5493.64,-84.18 6114,-30 6116.86,-29.75 6119.78,-29.46 6122.71,-29.14"/>
<polygon fill="#63b8ff" stroke="#63b8ff" points="3307.95,-62.85 3298.36,-67.35 3308.66,-69.81 3307.95,-62.85"/>
</g>
</g>
</svg>
