<?xml version="1.0" encoding="UTF-8" standalone="no"?>
<!DOCTYPE svg PUBLIC "-//W3C//DTD SVG 1.1//EN"
 "http://www.w3.org/Graphics/SVG/1.1/DTD/svg11.dtd">
<!-- Generated by graphviz version 2.43.0 (0)
 -->
<!-- Title: NamespaceDefImpl Pages: 1 -->
<svg width="1841pt" height="897pt"
 viewBox="0.00 0.00 1841.00 896.50" xmlns="http://www.w3.org/2000/svg" xmlns:xlink="http://www.w3.org/1999/xlink">
<g id="graph0" class="graph" transform="scale(1 1) rotate(0) translate(4 892.5)">
<title>NamespaceDefImpl</title>
<!-- Node1 -->
<g id="node1" class="node">
<title>Node1</title>
<g id="a_node1"><a xlink:title=" ">
<polygon fill="#999999" stroke="#666666" points="1833,-258.5 1720,-258.5 1720,-239.5 1833,-239.5 1833,-258.5"/>
<text text-anchor="middle" x="1776.5" y="-246.5" font-family="Helvetica,sans-Serif" font-size="10.00">NamespaceDefImpl</text>
</a>
</g>
</g>
<!-- Node2 -->
<g id="node2" class="node">
<title>Node2</title>
<g id="a_node2"><a xlink:href="../../dd/d10/class_definition_mixin.html" target="_top" xlink:title=" ">
<polygon fill="white" stroke="#666666" points="1590,-583 1430,-583 1430,-553 1590,-553 1590,-583"/>
<text text-anchor="start" x="1438" y="-571" font-family="Helvetica,sans-Serif" font-size="10.00">DefinitionMixin&lt; Namespace</text>
<text text-anchor="middle" x="1510" y="-560" font-family="Helvetica,sans-Serif" font-size="10.00">DefMutable &gt;</text>
</a>
</g>
</g>
<!-- Node2&#45;&gt;Node1 -->
<g id="edge1" class="edge">
<title>Node2&#45;&gt;Node1</title>
<path fill="none" stroke="#63b8ff" d="M1559.85,-548.84C1602.77,-529.72 1664.1,-496.48 1702,-450 1752.01,-388.66 1769.68,-290.25 1774.21,-258.92"/>
<polygon fill="#63b8ff" stroke="#63b8ff" points="1558.22,-545.73 1550.45,-552.93 1561.02,-552.15 1558.22,-545.73"/>
</g>
<!-- Node3 -->
<g id="node3" class="node">
<title>Node3</title>
<g id="a_node3"><a xlink:href="../../dd/dd5/class_namespace_def_mutable.html" target="_top" xlink:title=" ">
<polygon fill="white" stroke="#666666" points="469,-863.5 338,-863.5 338,-844.5 469,-844.5 469,-863.5"/>
<text text-anchor="middle" x="403.5" y="-851.5" font-family="Helvetica,sans-Serif" font-size="10.00">NamespaceDefMutable</text>
</a>
</g>
</g>
<!-- Node3&#45;&gt;Node2 -->
<g id="edge2" class="edge">
<title>Node3&#45;&gt;Node2</title>
<path fill="none" stroke="#63b8ff" d="M479.52,-845.08C534.08,-839.36 609.76,-833 676.5,-833 676.5,-833 676.5,-833 1184.5,-833 1343.79,-833 1468.02,-639.07 1500.61,-583.01"/>
<polygon fill="#63b8ff" stroke="#63b8ff" points="478.81,-841.64 469.24,-846.18 479.56,-848.6 478.81,-841.64"/>
</g>
<!-- Node4 -->
<g id="node4" class="node">
<title>Node4</title>
<g id="a_node4"><a xlink:href="../../d0/d46/class_definition_mutable.html" target="_top" xlink:title=" ">
<polygon fill="white" stroke="#666666" points="104,-888.5 0,-888.5 0,-869.5 104,-869.5 104,-888.5"/>
<text text-anchor="middle" x="52" y="-876.5" font-family="Helvetica,sans-Serif" font-size="10.00">DefinitionMutable</text>
</a>
</g>
</g>
<!-- Node4&#45;&gt;Node3 -->
<g id="edge3" class="edge">
<title>Node4&#45;&gt;Node3</title>
<path fill="none" stroke="#63b8ff" d="M114.52,-879.15C168.77,-878.64 249.89,-876.33 320,-868 330.1,-866.8 340.84,-865.21 351.12,-863.53"/>
<polygon fill="#63b8ff" stroke="#63b8ff" points="114.35,-875.65 104.37,-879.23 114.4,-882.65 114.35,-875.65"/>
</g>
<!-- Node16 -->
<g id="node16" class="node">
<title>Node16</title>
<g id="a_node16"><a xlink:href="../../de/db0/class_file_def.html" target="_top" xlink:title="A model of a file symbol.">
<polygon fill="white" stroke="#666666" points="219.5,-826.5 168.5,-826.5 168.5,-807.5 219.5,-807.5 219.5,-826.5"/>
<text text-anchor="middle" x="194" y="-814.5" font-family="Helvetica,sans-Serif" font-size="10.00">FileDef</text>
</a>
</g>
</g>
<!-- Node4&#45;&gt;Node16 -->
<g id="edge18" class="edge">
<title>Node4&#45;&gt;Node16</title>
<path fill="none" stroke="#63b8ff" d="M80.22,-864.79C97.43,-856.03 120.27,-844.82 141,-836 149.84,-832.24 159.71,-828.51 168.46,-825.37"/>
<polygon fill="#63b8ff" stroke="#63b8ff" points="78.58,-861.69 71.28,-869.37 81.78,-867.92 78.58,-861.69"/>
</g>
<!-- Node5 -->
<g id="node5" class="node">
<title>Node5</title>
<g id="a_node5"><a xlink:href="../../d0/d07/class_namespace_def.html" target="_top" xlink:title="An abstract interface of a namespace symbol.">
<polygon fill="white" stroke="#666666" points="240,-863.5 148,-863.5 148,-844.5 240,-844.5 240,-863.5"/>
<text text-anchor="middle" x="194" y="-851.5" font-family="Helvetica,sans-Serif" font-size="10.00">NamespaceDef</text>
</a>
</g>
</g>
<!-- Node5&#45;&gt;Node3 -->
<g id="edge4" class="edge">
<title>Node5&#45;&gt;Node3</title>
<path fill="none" stroke="#63b8ff" d="M250.07,-854C277.05,-854 309.72,-854 337.88,-854"/>
<polygon fill="#63b8ff" stroke="#63b8ff" points="250.02,-850.5 240.02,-854 250.02,-857.5 250.02,-850.5"/>
</g>
<!-- Node6 -->
<g id="node6" class="node">
<title>Node6</title>
<g id="a_node6"><a xlink:href="../../d5/dcc/class_definition.html" target="_top" xlink:title="The common base class of all entity definitions found in the sources.">
<polygon fill="white" stroke="#666666" points="84,-826.5 20,-826.5 20,-807.5 84,-807.5 84,-826.5"/>
<text text-anchor="middle" x="52" y="-814.5" font-family="Helvetica,sans-Serif" font-size="10.00">Definition</text>
</a>
</g>
</g>
<!-- Node6&#45;&gt;Node5 -->
<g id="edge5" class="edge">
<title>Node6&#45;&gt;Node5</title>
<path fill="none" stroke="#63b8ff" d="M93.81,-827.78C113.75,-833.05 137.54,-839.34 156.82,-844.44"/>
<polygon fill="#63b8ff" stroke="#63b8ff" points="94.63,-824.38 84.07,-825.21 92.84,-831.15 94.63,-824.38"/>
</g>
<!-- Node8 -->
<g id="node8" class="node">
<title>Node8</title>
<g id="a_node8"><a xlink:href="../../dd/d50/class_definition_impl_1_1_i_m_p_l.html" target="_top" xlink:title="Private data associated with a Symbol DefinitionImpl object.">
<polygon fill="white" stroke="#666666" points="735,-579.5 620,-579.5 620,-560.5 735,-560.5 735,-579.5"/>
<text text-anchor="middle" x="677.5" y="-567.5" font-family="Helvetica,sans-Serif" font-size="10.00">DefinitionImpl::IMPL</text>
</a>
</g>
</g>
<!-- Node6&#45;&gt;Node8 -->
<g id="edge8" class="edge">
<title>Node6&#45;&gt;Node8</title>
<path fill="none" stroke="#9a32cd" stroke-dasharray="5,2" d="M54.61,-797.16C61.9,-723.04 99.02,-463.44 265,-400 361.85,-362.98 448.79,-362.39 602,-465 638.96,-489.75 663.47,-539.47 672.56,-560.38"/>
<polygon fill="#9a32cd" stroke="#9a32cd" points="51.1,-797.13 53.69,-807.4 58.07,-797.76 51.1,-797.13"/>
<text text-anchor="middle" x="292.5" y="-414" font-family="Helvetica,sans-Serif" font-size="10.00"> def</text>
<text text-anchor="middle" x="292.5" y="-403" font-family="Helvetica,sans-Serif" font-size="10.00">outerScope</text>
</g>
<!-- Node6&#45;&gt;Node16 -->
<g id="edge19" class="edge">
<title>Node6&#45;&gt;Node16</title>
<path fill="none" stroke="#63b8ff" d="M94.3,-817C118.25,-817 147.63,-817 168.08,-817"/>
<polygon fill="#63b8ff" stroke="#63b8ff" points="94.07,-813.5 84.07,-817 94.07,-820.5 94.07,-813.5"/>
</g>
<!-- Node7 -->
<g id="node7" class="node">
<title>Node7</title>
<g id="a_node7"><a xlink:href="../../d3/ddf/class_definition_impl.html" target="_top" xlink:title=" ">
<polygon fill="white" stroke="#666666" points="922.5,-579.5 836.5,-579.5 836.5,-560.5 922.5,-560.5 922.5,-579.5"/>
<text text-anchor="middle" x="879.5" y="-567.5" font-family="Helvetica,sans-Serif" font-size="10.00">DefinitionImpl</text>
</a>
</g>
</g>
<!-- Node7&#45;&gt;Node2 -->
<g id="edge6" class="edge">
<title>Node7&#45;&gt;Node2</title>
<path fill="none" stroke="#9a32cd" stroke-dasharray="5,2" d="M932.92,-569.83C1043.15,-569.48 1299.51,-568.67 1429.86,-568.25"/>
<polygon fill="#9a32cd" stroke="#9a32cd" points="932.7,-566.33 922.71,-569.87 932.72,-573.33 932.7,-566.33"/>
<text text-anchor="middle" x="1183.5" y="-572" font-family="Helvetica,sans-Serif" font-size="10.00"> m_impl</text>
</g>
<!-- Node18 -->
<g id="node18" class="node">
<title>Node18</title>
<g id="a_node18"><a xlink:href="../../dd/d10/class_definition_mixin.html" target="_top" xlink:title=" ">
<polygon fill="white" stroke="#666666" points="1252,-544.5 1115,-544.5 1115,-525.5 1252,-525.5 1252,-544.5"/>
<text text-anchor="middle" x="1183.5" y="-532.5" font-family="Helvetica,sans-Serif" font-size="10.00">DefinitionMixin&lt; Base &gt;</text>
</a>
</g>
</g>
<!-- Node7&#45;&gt;Node18 -->
<g id="edge24" class="edge">
<title>Node7&#45;&gt;Node18</title>
<path fill="none" stroke="#9a32cd" stroke-dasharray="5,2" d="M932.54,-560.92C943.57,-559.15 955.15,-557.41 966,-556 1015.62,-549.54 1071.87,-544.14 1114.6,-540.44"/>
<polygon fill="#9a32cd" stroke="#9a32cd" points="931.91,-557.48 922.6,-562.54 933.04,-564.39 931.91,-557.48"/>
<text text-anchor="middle" x="1031" y="-559" font-family="Helvetica,sans-Serif" font-size="10.00"> m_impl</text>
</g>
<!-- Node8&#45;&gt;Node7 -->
<g id="edge7" class="edge">
<title>Node8&#45;&gt;Node7</title>
<path fill="none" stroke="#9a32cd" stroke-dasharray="5,2" d="M745.04,-570C775.2,-570 809.94,-570 836.42,-570"/>
<polygon fill="#9a32cd" stroke="#9a32cd" points="745.01,-566.5 735.01,-570 745.01,-573.5 745.01,-566.5"/>
<text text-anchor="middle" x="773" y="-573" font-family="Helvetica,sans-Serif" font-size="10.00"> m_impl</text>
</g>
<!-- Node9 -->
<g id="node9" class="node">
<title>Node9</title>
<g id="a_node9"><a xlink:href="../../d1/df9/class_section_refs.html" target="_top" xlink:title="class that represents a list of constant references to sections.">
<polygon fill="white" stroke="#666666" points="440.5,-483.5 366.5,-483.5 366.5,-464.5 440.5,-464.5 440.5,-483.5"/>
<text text-anchor="middle" x="403.5" y="-471.5" font-family="Helvetica,sans-Serif" font-size="10.00">SectionRefs</text>
</a>
</g>
</g>
<!-- Node9&#45;&gt;Node8 -->
<g id="edge9" class="edge">
<title>Node9&#45;&gt;Node8</title>
<path fill="none" stroke="#9a32cd" stroke-dasharray="5,2" d="M450.85,-469.68C492.48,-467.78 554.22,-469.99 602,-493 633.84,-508.34 659.46,-543.32 670.55,-560.34"/>
<polygon fill="#9a32cd" stroke="#9a32cd" points="450.51,-466.19 440.72,-470.24 450.9,-473.18 450.51,-466.19"/>
<text text-anchor="middle" x="544.5" y="-496" font-family="Helvetica,sans-Serif" font-size="10.00"> sectionRefs</text>
</g>
<!-- Node10 -->
<g id="node10" class="node">
<title>Node10</title>
<g id="a_node10"><a xlink:href="../../d3/d3b/class_group_list.html" target="_top" xlink:title=" ">
<polygon fill="white" stroke="#666666" points="435,-789.5 372,-789.5 372,-770.5 435,-770.5 435,-789.5"/>
<text text-anchor="middle" x="403.5" y="-777.5" font-family="Helvetica,sans-Serif" font-size="10.00">GroupList</text>
</a>
</g>
</g>
<!-- Node10&#45;&gt;Node8 -->
<g id="edge10" class="edge">
<title>Node10&#45;&gt;Node8</title>
<path fill="none" stroke="#9a32cd" stroke-dasharray="5,2" d="M444.83,-767.4C453.06,-764.17 461.5,-760.35 469,-756 558.12,-704.28 642.59,-609.86 668.45,-579.6"/>
<polygon fill="#9a32cd" stroke="#9a32cd" points="443.49,-764.16 435.32,-770.92 445.92,-770.73 443.49,-764.16"/>
<text text-anchor="middle" x="544.5" y="-747" font-family="Helvetica,sans-Serif" font-size="10.00"> partOfGroups</text>
</g>
<!-- Node11 -->
<g id="node11" class="node">
<title>Node11</title>
<g id="a_node11"><a xlink:title=" ">
<polygon fill="white" stroke="#666666" points="247,-789 141,-789 141,-759 247,-759 247,-789"/>
<text text-anchor="start" x="149" y="-777" font-family="Helvetica,sans-Serif" font-size="10.00">std::vector&lt; const</text>
<text text-anchor="middle" x="194" y="-766" font-family="Helvetica,sans-Serif" font-size="10.00"> GroupDef * &gt;</text>
</a>
</g>
</g>
<!-- Node11&#45;&gt;Node10 -->
<g id="edge11" class="edge">
<title>Node11&#45;&gt;Node10</title>
<path fill="none" stroke="#63b8ff" d="M257.52,-775.81C295.38,-776.9 341.99,-778.25 371.97,-779.12"/>
<polygon fill="#63b8ff" stroke="#63b8ff" points="257.19,-772.3 247.09,-775.51 256.99,-779.29 257.19,-772.3"/>
</g>
<!-- Node12 -->
<g id="node12" class="node">
<title>Node12</title>
<g id="a_node12"><a xlink:href="../../d7/dd5/struct_doc_info.html" target="_top" xlink:title="Data associated with a detailed description.">
<polygon fill="white" stroke="#666666" points="430.5,-520.5 376.5,-520.5 376.5,-501.5 430.5,-501.5 430.5,-520.5"/>
<text text-anchor="middle" x="403.5" y="-508.5" font-family="Helvetica,sans-Serif" font-size="10.00">DocInfo</text>
</a>
</g>
</g>
<!-- Node12&#45;&gt;Node8 -->
<g id="edge12" class="edge">
<title>Node12&#45;&gt;Node8</title>
<path fill="none" stroke="#9a32cd" stroke-dasharray="5,2" d="M440.96,-508.56C481.33,-506.99 547.86,-507.83 602,-525 626.2,-532.67 650.72,-549.66 664.72,-560.42"/>
<polygon fill="#9a32cd" stroke="#9a32cd" points="440.62,-505.07 430.79,-509.02 440.94,-512.06 440.62,-505.07"/>
<text text-anchor="middle" x="544.5" y="-539" font-family="Helvetica,sans-Serif" font-size="10.00"> details</text>
<text text-anchor="middle" x="544.5" y="-528" font-family="Helvetica,sans-Serif" font-size="10.00">inbodyDocs</text>
</g>
<!-- Node13 -->
<g id="node13" class="node">
<title>Node13</title>
<g id="a_node13"><a xlink:href="../../d9/d45/class_q_c_string.html" target="_top" xlink:title="This is an alternative implementation of QCString.">
<polygon fill="white" stroke="#666666" points="223.5,-538.5 164.5,-538.5 164.5,-519.5 223.5,-519.5 223.5,-538.5"/>
<text text-anchor="middle" x="194" y="-526.5" font-family="Helvetica,sans-Serif" font-size="10.00">QCString</text>
</a>
</g>
</g>
<!-- Node13&#45;&gt;Node1 -->
<g id="edge25" class="edge">
<title>Node13&#45;&gt;Node1</title>
<path fill="none" stroke="#9a32cd" stroke-dasharray="5,2" d="M214.88,-513.22C250.36,-486.68 327.89,-436 402.5,-436 402.5,-436 402.5,-436 1511,-436 1596.35,-436 1633.05,-466.3 1702,-416 1756.25,-376.42 1771.06,-287.87 1774.54,-258.6"/>
<polygon fill="#9a32cd" stroke="#9a32cd" points="212.61,-510.54 206.79,-519.4 216.86,-516.11 212.61,-510.54"/>
<text text-anchor="middle" x="879.5" y="-450" font-family="Helvetica,sans-Serif" font-size="10.00"> fileName</text>
<text text-anchor="middle" x="879.5" y="-439" font-family="Helvetica,sans-Serif" font-size="10.00">metaData</text>
</g>
<!-- Node13&#45;&gt;Node8 -->
<g id="edge20" class="edge">
<title>Node13&#45;&gt;Node8</title>
<path fill="none" stroke="#9a32cd" stroke-dasharray="5,2" d="M215.43,-545.01C228.96,-555.1 247.4,-567.89 265,-577 295.72,-592.9 303.99,-597.68 338,-604 453.36,-625.45 487.62,-632.19 602,-606 624.12,-600.93 647.32,-588.41 661.83,-579.56"/>
<polygon fill="#9a32cd" stroke="#9a32cd" points="217.39,-542.1 207.31,-538.84 213.15,-547.67 217.39,-542.1"/>
<text text-anchor="middle" x="403.5" y="-735" font-family="Helvetica,sans-Serif" font-size="10.00"> briefSignatures</text>
<text text-anchor="middle" x="403.5" y="-724" font-family="Helvetica,sans-Serif" font-size="10.00">defFileExt</text>
<text text-anchor="middle" x="403.5" y="-713" font-family="Helvetica,sans-Serif" font-size="10.00">defFileName</text>
<text text-anchor="middle" x="403.5" y="-702" font-family="Helvetica,sans-Serif" font-size="10.00">docSignatures</text>
<text text-anchor="middle" x="403.5" y="-691" font-family="Helvetica,sans-Serif" font-size="10.00">id</text>
<text text-anchor="middle" x="403.5" y="-680" font-family="Helvetica,sans-Serif" font-size="10.00">localName</text>
<text text-anchor="middle" x="403.5" y="-669" font-family="Helvetica,sans-Serif" font-size="10.00">name</text>
<text text-anchor="middle" x="403.5" y="-658" font-family="Helvetica,sans-Serif" font-size="10.00">qualifiedName</text>
<text text-anchor="middle" x="403.5" y="-647" font-family="Helvetica,sans-Serif" font-size="10.00">ref</text>
<text text-anchor="middle" x="403.5" y="-636" font-family="Helvetica,sans-Serif" font-size="10.00">symbolName</text>
<text text-anchor="middle" x="403.5" y="-625" font-family="Helvetica,sans-Serif" font-size="10.00">...</text>
</g>
<!-- Node13&#45;&gt;Node12 -->
<g id="edge13" class="edge">
<title>Node13&#45;&gt;Node12</title>
<path fill="none" stroke="#9a32cd" stroke-dasharray="5,2" d="M229.93,-516.34C240.99,-512.93 253.37,-509.71 265,-508 303.51,-502.35 348.72,-505.11 376.49,-507.86"/>
<polygon fill="#9a32cd" stroke="#9a32cd" points="228.63,-513.09 220.2,-519.5 230.79,-519.75 228.63,-513.09"/>
<text text-anchor="middle" x="292.5" y="-522" font-family="Helvetica,sans-Serif" font-size="10.00"> doc</text>
<text text-anchor="middle" x="292.5" y="-511" font-family="Helvetica,sans-Serif" font-size="10.00">file</text>
</g>
<!-- Node14 -->
<g id="node14" class="node">
<title>Node14</title>
<g id="a_node14"><a xlink:href="../../d0/da7/struct_brief_info.html" target="_top" xlink:title="Data associated with a brief description.">
<polygon fill="white" stroke="#666666" points="433,-557.5 374,-557.5 374,-538.5 433,-538.5 433,-557.5"/>
<text text-anchor="middle" x="403.5" y="-545.5" font-family="Helvetica,sans-Serif" font-size="10.00">BriefInfo</text>
</a>
</g>
</g>
<!-- Node13&#45;&gt;Node14 -->
<g id="edge15" class="edge">
<title>Node13&#45;&gt;Node14</title>
<path fill="none" stroke="#9a32cd" stroke-dasharray="5,2" d="M233.94,-532.57C274.65,-536.29 337.54,-542.05 373.89,-545.38"/>
<polygon fill="#9a32cd" stroke="#9a32cd" points="234.13,-529.07 223.85,-531.64 233.49,-536.04 234.13,-529.07"/>
<text text-anchor="middle" x="292.5" y="-565" font-family="Helvetica,sans-Serif" font-size="10.00"> doc</text>
<text text-anchor="middle" x="292.5" y="-554" font-family="Helvetica,sans-Serif" font-size="10.00">file</text>
<text text-anchor="middle" x="292.5" y="-543" font-family="Helvetica,sans-Serif" font-size="10.00">tooltip</text>
</g>
<!-- Node14&#45;&gt;Node8 -->
<g id="edge14" class="edge">
<title>Node14&#45;&gt;Node8</title>
<path fill="none" stroke="#9a32cd" stroke-dasharray="5,2" d="M443.11,-549.11C482.98,-550.5 546.96,-553.42 602,-559 607.72,-559.58 613.68,-560.29 619.62,-561.06"/>
<polygon fill="#9a32cd" stroke="#9a32cd" points="443.13,-545.61 433.02,-548.77 442.9,-552.61 443.13,-545.61"/>
<text text-anchor="middle" x="544.5" y="-562" font-family="Helvetica,sans-Serif" font-size="10.00"> brief</text>
</g>
<!-- Node15 -->
<g id="node15" class="node">
<title>Node15</title>
<g id="a_node15"><a xlink:href="../../db/dab/struct_body_info.html" target="_top" xlink:title="Data associated with description found in the body.">
<polygon fill="white" stroke="#666666" points="433.5,-826.5 373.5,-826.5 373.5,-807.5 433.5,-807.5 433.5,-826.5"/>
<text text-anchor="middle" x="403.5" y="-814.5" font-family="Helvetica,sans-Serif" font-size="10.00">BodyInfo</text>
</a>
</g>
</g>
<!-- Node15&#45;&gt;Node8 -->
<g id="edge16" class="edge">
<title>Node15&#45;&gt;Node8</title>
<path fill="none" stroke="#9a32cd" stroke-dasharray="5,2" d="M443.63,-809.77C494.3,-799.7 578.87,-780.28 602,-759 657.29,-708.14 672.15,-611.07 675.58,-579.9"/>
<polygon fill="#9a32cd" stroke="#9a32cd" points="442.81,-806.36 433.67,-811.71 444.15,-813.23 442.81,-806.36"/>
<text text-anchor="middle" x="544.5" y="-802" font-family="Helvetica,sans-Serif" font-size="10.00"> body</text>
</g>
<!-- Node16&#45;&gt;Node15 -->
<g id="edge17" class="edge">
<title>Node16&#45;&gt;Node15</title>
<path fill="none" stroke="#9a32cd" stroke-dasharray="5,2" d="M229.76,-817C269.98,-817 335.52,-817 373.25,-817"/>
<polygon fill="#9a32cd" stroke="#9a32cd" points="229.62,-813.5 219.62,-817 229.62,-820.5 229.62,-813.5"/>
<text text-anchor="middle" x="292.5" y="-820" font-family="Helvetica,sans-Serif" font-size="10.00"> fileDef</text>
</g>
<!-- Node17 -->
<g id="node17" class="node">
<title>Node17</title>
<g id="a_node17"><a xlink:href="../../d1/d7d/class_member_vector.html" target="_top" xlink:title="A vector of MemberDef object.">
<polygon fill="white" stroke="#666666" points="447.5,-594.5 359.5,-594.5 359.5,-575.5 447.5,-575.5 447.5,-594.5"/>
<text text-anchor="middle" x="403.5" y="-582.5" font-family="Helvetica,sans-Serif" font-size="10.00">MemberVector</text>
</a>
</g>
</g>
<!-- Node17&#45;&gt;Node8 -->
<g id="edge21" class="edge">
<title>Node17&#45;&gt;Node8</title>
<path fill="none" stroke="#9a32cd" stroke-dasharray="5,2" d="M457.82,-582.06C504.54,-579.48 572.24,-575.75 619.91,-573.12"/>
<polygon fill="#9a32cd" stroke="#9a32cd" points="457.39,-578.58 447.6,-582.62 457.78,-585.57 457.39,-578.58"/>
<text text-anchor="middle" x="544.5" y="-594" font-family="Helvetica,sans-Serif" font-size="10.00"> referencedByMembers</text>
<text text-anchor="middle" x="544.5" y="-583" font-family="Helvetica,sans-Serif" font-size="10.00">referencesMembers</text>
</g>
<!-- Node18&#45;&gt;Node2 -->
<g id="edge22" class="edge">
<title>Node18&#45;&gt;Node2</title>
<path fill="none" stroke="orange" stroke-dasharray="5,2" d="M1262.3,-541.58C1306.27,-545.45 1362.24,-550.63 1412,-556 1417.82,-556.63 1423.83,-557.31 1429.88,-558.01"/>
<polygon fill="orange" stroke="orange" points="1262.51,-538.09 1252.25,-540.7 1261.9,-545.06 1262.51,-538.09"/>
<text text-anchor="middle" x="1341.5" y="-559" font-family="Helvetica,sans-Serif" font-size="10.00"> &lt; NamespaceDefMutable &gt;</text>
</g>
<!-- Node19 -->
<g id="node19" class="node">
<title>Node19</title>
<g id="a_node19"><a xlink:title=" ">
<polygon fill="white" stroke="#666666" points="900,-531.5 859,-531.5 859,-512.5 900,-512.5 900,-531.5"/>
<text text-anchor="middle" x="879.5" y="-519.5" font-family="Helvetica,sans-Serif" font-size="10.00">Base</text>
</a>
</g>
</g>
<!-- Node19&#45;&gt;Node18 -->
<g id="edge23" class="edge">
<title>Node19&#45;&gt;Node18</title>
<path fill="none" stroke="#63b8ff" d="M910.49,-523.29C957.76,-525.33 1050.78,-529.33 1114.77,-532.08"/>
<polygon fill="#63b8ff" stroke="#63b8ff" points="910.46,-519.79 900.32,-522.85 910.16,-526.78 910.46,-519.79"/>
</g>
<!-- Node20 -->
<g id="node20" class="node">
<title>Node20</title>
<g id="a_node20"><a xlink:href="../../d0/d18/class_file_list.html" target="_top" xlink:title=" ">
<polygon fill="white" stroke="#666666" points="1535.5,-407.5 1484.5,-407.5 1484.5,-388.5 1535.5,-388.5 1535.5,-407.5"/>
<text text-anchor="middle" x="1510" y="-395.5" font-family="Helvetica,sans-Serif" font-size="10.00">FileList</text>
</a>
</g>
</g>
<!-- Node20&#45;&gt;Node1 -->
<g id="edge26" class="edge">
<title>Node20&#45;&gt;Node1</title>
<path fill="none" stroke="#9a32cd" stroke-dasharray="5,2" d="M1545.64,-402.07C1586.48,-405.04 1654.74,-404.16 1702,-373 1744.62,-344.9 1765.99,-282.84 1772.91,-258.79"/>
<polygon fill="#9a32cd" stroke="#9a32cd" points="1545.9,-398.58 1535.64,-401.22 1545.3,-405.55 1545.9,-398.58"/>
<text text-anchor="middle" x="1655" y="-404" font-family="Helvetica,sans-Serif" font-size="10.00"> files</text>
</g>
<!-- Node21 -->
<g id="node21" class="node">
<title>Node21</title>
<g id="a_node21"><a xlink:title=" ">
<polygon fill="white" stroke="#666666" points="1236.5,-408 1130.5,-408 1130.5,-378 1236.5,-378 1236.5,-408"/>
<text text-anchor="start" x="1138.5" y="-396" font-family="Helvetica,sans-Serif" font-size="10.00">std::vector&lt; const</text>
<text text-anchor="middle" x="1183.5" y="-385" font-family="Helvetica,sans-Serif" font-size="10.00"> FileDef * &gt;</text>
</a>
</g>
</g>
<!-- Node21&#45;&gt;Node20 -->
<g id="edge27" class="edge">
<title>Node21&#45;&gt;Node20</title>
<path fill="none" stroke="#63b8ff" d="M1246.95,-393.96C1319.06,-395.07 1434.18,-396.85 1484.32,-397.62"/>
<polygon fill="#63b8ff" stroke="#63b8ff" points="1246.69,-390.46 1236.64,-393.8 1246.58,-397.46 1246.69,-390.46"/>
</g>
<!-- Node22 -->
<g id="node22" class="node">
<title>Node22</title>
<g id="a_node22"><a xlink:href="../../d2/db7/class_linked_ref_map.html" target="_top" xlink:title=" ">
<polygon fill="white" stroke="#666666" points="1245,-328 1122,-328 1122,-298 1245,-298 1245,-328"/>
<text text-anchor="start" x="1130" y="-316" font-family="Helvetica,sans-Serif" font-size="10.00">LinkedRefMap&lt; const</text>
<text text-anchor="middle" x="1183.5" y="-305" font-family="Helvetica,sans-Serif" font-size="10.00"> NamespaceDef &gt;</text>
</a>
</g>
</g>
<!-- Node22&#45;&gt;Node1 -->
<g id="edge28" class="edge">
<title>Node22&#45;&gt;Node1</title>
<path fill="none" stroke="#9a32cd" stroke-dasharray="5,2" d="M1255.2,-324.7C1377.99,-343.68 1624.92,-375.57 1702,-339 1737.72,-322.05 1761.83,-278.3 1771.17,-258.72"/>
<polygon fill="#9a32cd" stroke="#9a32cd" points="1255.57,-321.21 1245.15,-323.13 1254.49,-328.13 1255.57,-321.21"/>
<text text-anchor="middle" x="1510" y="-358" font-family="Helvetica,sans-Serif" font-size="10.00"> m_usingDirList</text>
</g>
<!-- Node35 -->
<g id="node35" class="node">
<title>Node35</title>
<g id="a_node35"><a xlink:href="../../da/df0/class_namespace_linked_ref_map.html" target="_top" xlink:title=" ">
<polygon fill="white" stroke="#666666" points="1581.5,-322.5 1438.5,-322.5 1438.5,-303.5 1581.5,-303.5 1581.5,-322.5"/>
<text text-anchor="middle" x="1510" y="-310.5" font-family="Helvetica,sans-Serif" font-size="10.00">NamespaceLinkedRefMap</text>
</a>
</g>
</g>
<!-- Node22&#45;&gt;Node35 -->
<g id="edge47" class="edge">
<title>Node22&#45;&gt;Node35</title>
<path fill="none" stroke="#63b8ff" d="M1255.39,-313C1309.7,-313 1384.27,-313 1438.48,-313"/>
<polygon fill="#63b8ff" stroke="#63b8ff" points="1255.16,-309.5 1245.16,-313 1255.16,-316.5 1255.16,-309.5"/>
</g>
<!-- Node23 -->
<g id="node23" class="node">
<title>Node23</title>
<g id="a_node23"><a xlink:href="../../d2/db7/class_linked_ref_map.html" target="_top" xlink:title="Container class representing a vector of objects with keys.">
<polygon fill="white" stroke="#666666" points="948,-217 811,-217 811,-187 948,-187 948,-217"/>
<text text-anchor="start" x="819" y="-205" font-family="Helvetica,sans-Serif" font-size="10.00">LinkedRefMap&lt; T, Hash,</text>
<text text-anchor="middle" x="879.5" y="-194" font-family="Helvetica,sans-Serif" font-size="10.00"> KeyEqual, Map &gt;</text>
</a>
</g>
</g>
<!-- Node23&#45;&gt;Node22 -->
<g id="edge29" class="edge">
<title>Node23&#45;&gt;Node22</title>
<path fill="none" stroke="orange" stroke-dasharray="5,2" d="M913.23,-222.16C928.82,-231.19 947.96,-241.48 966,-249 1017.01,-270.27 1077.51,-287.52 1121.56,-298.73"/>
<polygon fill="orange" stroke="orange" points="914.89,-219.08 904.5,-217.02 911.34,-225.11 914.89,-219.08"/>
<text text-anchor="middle" x="1031" y="-294" font-family="Helvetica,sans-Serif" font-size="10.00"> &lt; const NamespaceDef &gt;</text>
</g>
<!-- Node24 -->
<g id="node24" class="node">
<title>Node24</title>
<g id="a_node24"><a xlink:href="../../d2/db7/class_linked_ref_map.html" target="_top" xlink:title=" ">
<polygon fill="white" stroke="#666666" points="1245,-260 1122,-260 1122,-230 1245,-230 1245,-260"/>
<text text-anchor="start" x="1130" y="-248" font-family="Helvetica,sans-Serif" font-size="10.00">LinkedRefMap&lt; const</text>
<text text-anchor="middle" x="1183.5" y="-237" font-family="Helvetica,sans-Serif" font-size="10.00"> ClassDef &gt;</text>
</a>
</g>
</g>
<!-- Node23&#45;&gt;Node24 -->
<g id="edge31" class="edge">
<title>Node23&#45;&gt;Node24</title>
<path fill="none" stroke="orange" stroke-dasharray="5,2" d="M958.27,-215.8C960.87,-216.21 963.46,-216.61 966,-217 1018.45,-224.99 1078.29,-232.61 1121.74,-237.88"/>
<polygon fill="orange" stroke="orange" points="958.56,-212.3 948.13,-214.15 957.44,-219.21 958.56,-212.3"/>
<text text-anchor="middle" x="1031" y="-237" font-family="Helvetica,sans-Serif" font-size="10.00"> &lt; const ClassDef &gt;</text>
</g>
<!-- Node25 -->
<g id="node25" class="node">
<title>Node25</title>
<g id="a_node25"><a xlink:href="../../d2/db7/class_linked_ref_map.html" target="_top" xlink:title=" ">
<polygon fill="white" stroke="#666666" points="1403,-208 1280,-208 1280,-178 1403,-178 1403,-208"/>
<text text-anchor="start" x="1288" y="-196" font-family="Helvetica,sans-Serif" font-size="10.00">LinkedRefMap&lt; const</text>
<text text-anchor="middle" x="1341.5" y="-185" font-family="Helvetica,sans-Serif" font-size="10.00"> Definition &gt;</text>
</a>
</g>
</g>
<!-- Node23&#45;&gt;Node25 -->
<g id="edge33" class="edge">
<title>Node23&#45;&gt;Node25</title>
<path fill="none" stroke="orange" stroke-dasharray="5,2" d="M958.6,-200.47C1049.33,-198.7 1197.09,-195.81 1279.7,-194.19"/>
<polygon fill="orange" stroke="orange" points="958.3,-196.98 948.37,-200.67 958.44,-203.98 958.3,-196.98"/>
<text text-anchor="middle" x="1031" y="-203" font-family="Helvetica,sans-Serif" font-size="10.00"> &lt; const Definition &gt;</text>
</g>
<!-- Node27 -->
<g id="node27" class="node">
<title>Node27</title>
<g id="a_node27"><a xlink:href="../../d2/db7/class_linked_ref_map.html" target="_top" xlink:title=" ">
<polygon fill="white" stroke="#666666" points="1245,-174 1122,-174 1122,-144 1245,-144 1245,-174"/>
<text text-anchor="start" x="1130" y="-162" font-family="Helvetica,sans-Serif" font-size="10.00">LinkedRefMap&lt; const</text>
<text text-anchor="middle" x="1183.5" y="-151" font-family="Helvetica,sans-Serif" font-size="10.00"> MemberDef &gt;</text>
</a>
</g>
</g>
<!-- Node23&#45;&gt;Node27 -->
<g id="edge36" class="edge">
<title>Node23&#45;&gt;Node27</title>
<path fill="none" stroke="orange" stroke-dasharray="5,2" d="M921.48,-183.1C935.33,-177.56 951.07,-172.14 966,-169 1017.73,-158.12 1077.89,-156.17 1121.65,-156.63"/>
<polygon fill="orange" stroke="orange" points="920.13,-179.88 912.23,-186.94 922.81,-186.34 920.13,-179.88"/>
<text text-anchor="middle" x="1031" y="-172" font-family="Helvetica,sans-Serif" font-size="10.00"> &lt; const MemberDef &gt;</text>
</g>
<!-- Node34 -->
<g id="node34" class="node">
<title>Node34</title>
<g id="a_node34"><a xlink:href="../../d2/db7/class_linked_ref_map.html" target="_top" xlink:title=" ">
<polygon fill="white" stroke="#666666" points="1245,-30 1122,-30 1122,0 1245,0 1245,-30"/>
<text text-anchor="start" x="1130" y="-18" font-family="Helvetica,sans-Serif" font-size="10.00">LinkedRefMap&lt; const</text>
<text text-anchor="middle" x="1183.5" y="-7" font-family="Helvetica,sans-Serif" font-size="10.00"> ConceptDef &gt;</text>
</a>
</g>
</g>
<!-- Node23&#45;&gt;Node34 -->
<g id="edge45" class="edge">
<title>Node23&#45;&gt;Node34</title>
<path fill="none" stroke="orange" stroke-dasharray="5,2" d="M906.39,-180.26C947.91,-146.27 1032.98,-80.18 1114,-39 1120.4,-35.75 1127.35,-32.75 1134.28,-30.06"/>
<polygon fill="orange" stroke="orange" points="903.93,-177.75 898.44,-186.81 908.39,-183.15 903.93,-177.75"/>
<text text-anchor="middle" x="1031" y="-132" font-family="Helvetica,sans-Serif" font-size="10.00"> &lt; const ConceptDef &gt;</text>
</g>
<!-- Node24&#45;&gt;Node1 -->
<g id="edge30" class="edge">
<title>Node24&#45;&gt;Node1</title>
<path fill="none" stroke="#9a32cd" stroke-dasharray="5,2" d="M1255.37,-245.22C1336.31,-245.51 1472.7,-246.08 1590,-247 1633.64,-247.34 1683.05,-247.88 1719.9,-248.32"/>
<polygon fill="#9a32cd" stroke="#9a32cd" points="1255.31,-241.72 1245.3,-245.19 1255.29,-248.72 1255.31,-241.72"/>
<text text-anchor="middle" x="1510" y="-250" font-family="Helvetica,sans-Serif" font-size="10.00"> m_usingDeclList</text>
</g>
<!-- Node32 -->
<g id="node32" class="node">
<title>Node32</title>
<g id="a_node32"><a xlink:href="../../da/d08/class_class_linked_ref_map.html" target="_top" xlink:title=" ">
<polygon fill="white" stroke="#666666" points="1566,-285.5 1454,-285.5 1454,-266.5 1566,-266.5 1566,-285.5"/>
<text text-anchor="middle" x="1510" y="-273.5" font-family="Helvetica,sans-Serif" font-size="10.00">ClassLinkedRefMap</text>
</a>
</g>
</g>
<!-- Node24&#45;&gt;Node32 -->
<g id="edge42" class="edge">
<title>Node24&#45;&gt;Node32</title>
<path fill="none" stroke="#63b8ff" d="M1255.25,-251.76C1314.88,-257.46 1399.02,-265.49 1453.78,-270.72"/>
<polygon fill="#63b8ff" stroke="#63b8ff" points="1255.44,-248.26 1245.16,-250.79 1254.78,-255.23 1255.44,-248.26"/>
</g>
<!-- Node25&#45;&gt;Node1 -->
<g id="edge32" class="edge">
<title>Node25&#45;&gt;Node1</title>
<path fill="none" stroke="#9a32cd" stroke-dasharray="5,2" d="M1413.17,-190.38C1486.61,-189.44 1604.26,-192.96 1702,-219 1720.91,-224.04 1741.46,-232.72 1756.01,-239.45"/>
<polygon fill="#9a32cd" stroke="#9a32cd" points="1413.05,-186.88 1403.11,-190.54 1413.17,-193.88 1413.05,-186.88"/>
<text text-anchor="middle" x="1510" y="-200" font-family="Helvetica,sans-Serif" font-size="10.00"> m_innerCompounds</text>
</g>
<!-- Node26 -->
<g id="node26" class="node">
<title>Node26</title>
<g id="a_node26"><a xlink:href="../../dc/d77/class_member_linked_ref_map.html" target="_top" xlink:title=" ">
<polygon fill="white" stroke="#666666" points="1573,-153.5 1447,-153.5 1447,-134.5 1573,-134.5 1573,-153.5"/>
<text text-anchor="middle" x="1510" y="-141.5" font-family="Helvetica,sans-Serif" font-size="10.00">MemberLinkedRefMap</text>
</a>
</g>
</g>
<!-- Node26&#45;&gt;Node1 -->
<g id="edge34" class="edge">
<title>Node26&#45;&gt;Node1</title>
<path fill="none" stroke="#9a32cd" stroke-dasharray="5,2" d="M1583.52,-139.77C1620.82,-140.53 1665.91,-146.18 1702,-165 1735.16,-182.29 1760.1,-221.26 1770.36,-239.38"/>
<polygon fill="#9a32cd" stroke="#9a32cd" points="1583.25,-136.27 1573.22,-139.68 1583.19,-143.26 1583.25,-136.27"/>
<text text-anchor="middle" x="1655" y="-168" font-family="Helvetica,sans-Serif" font-size="10.00"> m_allMembers</text>
</g>
<!-- Node27&#45;&gt;Node26 -->
<g id="edge35" class="edge">
<title>Node27&#45;&gt;Node26</title>
<path fill="none" stroke="#63b8ff" d="M1255.21,-155.73C1312.43,-153.09 1392.23,-149.4 1446.99,-146.87"/>
<polygon fill="#63b8ff" stroke="#63b8ff" points="1254.98,-152.24 1245.16,-156.2 1255.31,-159.23 1254.98,-152.24"/>
</g>
<!-- Node28 -->
<g id="node28" class="node">
<title>Node28</title>
<g id="a_node28"><a xlink:href="../../dd/d5a/class_member_lists.html" target="_top" xlink:title=" ">
<polygon fill="white" stroke="#666666" points="1550,-116.5 1470,-116.5 1470,-97.5 1550,-97.5 1550,-116.5"/>
<text text-anchor="middle" x="1510" y="-104.5" font-family="Helvetica,sans-Serif" font-size="10.00">MemberLists</text>
</a>
</g>
</g>
<!-- Node28&#45;&gt;Node1 -->
<g id="edge37" class="edge">
<title>Node28&#45;&gt;Node1</title>
<path fill="none" stroke="#9a32cd" stroke-dasharray="5,2" d="M1560.2,-100.31C1601.27,-97.28 1659.73,-99.16 1702,-126 1744.84,-153.2 1766.08,-215.16 1772.94,-239.2"/>
<polygon fill="#9a32cd" stroke="#9a32cd" points="1559.81,-96.83 1550.15,-101.17 1560.41,-103.81 1559.81,-96.83"/>
<text text-anchor="middle" x="1655" y="-129" font-family="Helvetica,sans-Serif" font-size="10.00"> m_memberLists</text>
</g>
<!-- Node29 -->
<g id="node29" class="node">
<title>Node29</title>
<g id="a_node29"><a xlink:title=" ">
<polygon fill="white" stroke="#666666" points="1250.5,-126 1116.5,-126 1116.5,-96 1250.5,-96 1250.5,-126"/>
<text text-anchor="start" x="1124.5" y="-114" font-family="Helvetica,sans-Serif" font-size="10.00">std::vector&lt; std::unique</text>
<text text-anchor="middle" x="1183.5" y="-103" font-family="Helvetica,sans-Serif" font-size="10.00">_ptr&lt; MemberList &gt; &gt;</text>
</a>
</g>
</g>
<!-- Node29&#45;&gt;Node28 -->
<g id="edge38" class="edge">
<title>Node29&#45;&gt;Node28</title>
<path fill="none" stroke="#63b8ff" d="M1260.83,-110.06C1326.26,-109.25 1417.91,-108.12 1469.56,-107.49"/>
<polygon fill="#63b8ff" stroke="#63b8ff" points="1260.51,-106.56 1250.56,-110.19 1260.6,-113.56 1260.51,-106.56"/>
</g>
<!-- Node30 -->
<g id="node30" class="node">
<title>Node30</title>
<g id="a_node30"><a xlink:href="../../df/d11/class_member_group_list.html" target="_top" xlink:title=" ">
<polygon fill="white" stroke="#666666" points="1562,-75.5 1458,-75.5 1458,-56.5 1562,-56.5 1562,-75.5"/>
<text text-anchor="middle" x="1510" y="-63.5" font-family="Helvetica,sans-Serif" font-size="10.00">MemberGroupList</text>
</a>
</g>
</g>
<!-- Node30&#45;&gt;Node1 -->
<g id="edge39" class="edge">
<title>Node30&#45;&gt;Node1</title>
<path fill="none" stroke="#9a32cd" stroke-dasharray="5,2" d="M1572.1,-56.82C1612.57,-54.08 1664.84,-57.31 1702,-84 1756,-122.78 1770.97,-210.49 1774.52,-239.49"/>
<polygon fill="#9a32cd" stroke="#9a32cd" points="1571.77,-53.33 1562.08,-57.63 1572.33,-60.31 1571.77,-53.33"/>
<text text-anchor="middle" x="1655" y="-87" font-family="Helvetica,sans-Serif" font-size="10.00"> m_memberGroups</text>
</g>
<!-- Node31 -->
<g id="node31" class="node">
<title>Node31</title>
<g id="a_node31"><a xlink:title=" ">
<polygon fill="white" stroke="#666666" points="1253,-78 1114,-78 1114,-48 1253,-48 1253,-78"/>
<text text-anchor="start" x="1122" y="-66" font-family="Helvetica,sans-Serif" font-size="10.00">std::vector&lt; std::unique</text>
<text text-anchor="middle" x="1183.5" y="-55" font-family="Helvetica,sans-Serif" font-size="10.00">_ptr&lt; MemberGroup &gt; &gt;</text>
</a>
</g>
</g>
<!-- Node31&#45;&gt;Node30 -->
<g id="edge40" class="edge">
<title>Node31&#45;&gt;Node30</title>
<path fill="none" stroke="#63b8ff" d="M1263.59,-63.73C1324.07,-64.29 1405.66,-65.04 1457.82,-65.53"/>
<polygon fill="#63b8ff" stroke="#63b8ff" points="1263.35,-60.23 1253.32,-63.64 1263.29,-67.23 1263.35,-60.23"/>
</g>
<!-- Node32&#45;&gt;Node1 -->
<g id="edge41" class="edge">
<title>Node32&#45;&gt;Node1</title>
<path fill="none" stroke="#9a32cd" stroke-dasharray="5,2" d="M1576.18,-269.35C1620.33,-264.84 1678.04,-258.95 1719.99,-254.67"/>
<polygon fill="#9a32cd" stroke="#9a32cd" points="1575.72,-265.88 1566.13,-270.37 1576.43,-272.84 1575.72,-265.88"/>
<text text-anchor="middle" x="1655" y="-301" font-family="Helvetica,sans-Serif" font-size="10.00"> classes</text>
<text text-anchor="middle" x="1655" y="-290" font-family="Helvetica,sans-Serif" font-size="10.00">exceptions</text>
<text text-anchor="middle" x="1655" y="-279" font-family="Helvetica,sans-Serif" font-size="10.00">interfaces</text>
<text text-anchor="middle" x="1655" y="-268" font-family="Helvetica,sans-Serif" font-size="10.00">structs</text>
</g>
<!-- Node33 -->
<g id="node33" class="node">
<title>Node33</title>
<g id="a_node33"><a xlink:href="../../d4/daa/class_concept_linked_ref_map.html" target="_top" xlink:title=" ">
<polygon fill="white" stroke="#666666" points="1572.5,-32.5 1447.5,-32.5 1447.5,-13.5 1572.5,-13.5 1572.5,-32.5"/>
<text text-anchor="middle" x="1510" y="-20.5" font-family="Helvetica,sans-Serif" font-size="10.00">ConceptLinkedRefMap</text>
</a>
</g>
</g>
<!-- Node33&#45;&gt;Node1 -->
<g id="edge43" class="edge">
<title>Node33&#45;&gt;Node1</title>
<path fill="none" stroke="#9a32cd" stroke-dasharray="5,2" d="M1580.16,-12.83C1619.74,-10.86 1668.09,-15.44 1702,-42 1766.85,-92.79 1774.59,-205.24 1775.43,-239.14"/>
<polygon fill="#9a32cd" stroke="#9a32cd" points="1579.8,-9.35 1570.05,-13.48 1580.25,-16.33 1579.8,-9.35"/>
<text text-anchor="middle" x="1655" y="-45" font-family="Helvetica,sans-Serif" font-size="10.00"> m_concepts</text>
</g>
<!-- Node34&#45;&gt;Node33 -->
<g id="edge44" class="edge">
<title>Node34&#45;&gt;Node33</title>
<path fill="none" stroke="#63b8ff" d="M1255.22,-16.74C1312.54,-18.16 1392.5,-20.13 1447.26,-21.48"/>
<polygon fill="#63b8ff" stroke="#63b8ff" points="1255.24,-13.24 1245.16,-16.5 1255.07,-20.24 1255.24,-13.24"/>
</g>
<!-- Node35&#45;&gt;Node1 -->
<g id="edge46" class="edge">
<title>Node35&#45;&gt;Node1</title>
<path fill="none" stroke="#9a32cd" stroke-dasharray="5,2" d="M1580.77,-323.41C1617.88,-326.22 1663.64,-325.25 1702,-311 1730.48,-300.42 1755.62,-273.55 1767.77,-258.9"/>
<polygon fill="#9a32cd" stroke="#9a32cd" points="1580.81,-319.9 1570.55,-322.53 1580.21,-326.88 1580.81,-319.9"/>
<text text-anchor="middle" x="1655" y="-327" font-family="Helvetica,sans-Serif" font-size="10.00"> namespaces</text>
</g>
</g>
</svg>
