<?xml version="1.0" encoding="UTF-8" standalone="no"?>
<!DOCTYPE svg PUBLIC "-//W3C//DTD SVG 1.1//EN"
 "http://www.w3.org/Graphics/SVG/1.1/DTD/svg11.dtd">
<!-- Generated by graphviz version 2.43.0 (0)
 -->
<!-- Title: /home/runner/work/doxygen/doxygen/src/latexgen.h Pages: 1 -->
<svg width="6457pt" height="170pt"
 viewBox="0.00 0.00 6457.00 170.00" xmlns="http://www.w3.org/2000/svg" xmlns:xlink="http://www.w3.org/1999/xlink">
<g id="graph0" class="graph" transform="scale(1 1) rotate(0) translate(4 166)">
<title>/home/runner/work/doxygen/doxygen/src/latexgen.h</title>
<!-- Node1 -->
<g id="node1" class="node">
<title>Node1</title>
<g id="a_node1"><a xlink:title=" ">
<polygon fill="#999999" stroke="#666666" points="690,-162 536,-162 536,-132 690,-132 690,-162"/>
<text text-anchor="start" x="544" y="-150" font-family="Helvetica,sans-Serif" font-size="10.00">/home/runner/work/doxygen</text>
<text text-anchor="middle" x="613" y="-139" font-family="Helvetica,sans-Serif" font-size="10.00">/doxygen/src/latexgen.h</text>
</a>
</g>
</g>
<!-- Node2 -->
<g id="node2" class="node">
<title>Node2</title>
<g id="a_node2"><a xlink:href="../../db/d12/context_8cpp.html" target="_top" xlink:title=" ">
<polygon fill="white" stroke="#666666" points="154,-30 0,-30 0,0 154,0 154,-30"/>
<text text-anchor="start" x="8" y="-18" font-family="Helvetica,sans-Serif" font-size="10.00">/home/runner/work/doxygen</text>
<text text-anchor="middle" x="77" y="-7" font-family="Helvetica,sans-Serif" font-size="10.00">/doxygen/src/context.cpp</text>
</a>
</g>
</g>
<!-- Node1&#45;&gt;Node2 -->
<g id="edge1" class="edge">
<title>Node1&#45;&gt;Node2</title>
<path fill="none" stroke="#63b8ff" d="M540,-129.66C497.62,-120.07 443.23,-107.6 395,-96 302.15,-73.68 194.44,-46.26 131.21,-30.01"/>
<polygon fill="#63b8ff" stroke="#63b8ff" points="539.43,-133.12 549.96,-131.91 540.97,-126.29 539.43,-133.12"/>
</g>
<!-- Node3 -->
<g id="node3" class="node">
<title>Node3</title>
<g id="a_node3"><a xlink:href="../../dc/d98/doxygen_8cpp.html" target="_top" xlink:title=" ">
<polygon fill="white" stroke="#666666" points="326,-30 172,-30 172,0 326,0 326,-30"/>
<text text-anchor="start" x="180" y="-18" font-family="Helvetica,sans-Serif" font-size="10.00">/home/runner/work/doxygen</text>
<text text-anchor="middle" x="249" y="-7" font-family="Helvetica,sans-Serif" font-size="10.00">/doxygen/src/doxygen.cpp</text>
</a>
</g>
</g>
<!-- Node1&#45;&gt;Node3 -->
<g id="edge2" class="edge">
<title>Node1&#45;&gt;Node3</title>
<path fill="none" stroke="#63b8ff" d="M564.28,-128.6C491.4,-102.57 355.43,-54.01 288.41,-30.08"/>
<polygon fill="#63b8ff" stroke="#63b8ff" points="563.11,-131.9 573.7,-131.96 565.46,-125.3 563.11,-131.9"/>
</g>
<!-- Node4 -->
<g id="node4" class="node">
<title>Node4</title>
<g id="a_node4"><a xlink:href="../../d7/d5b/formula_8cpp.html" target="_top" xlink:title=" ">
<polygon fill="white" stroke="#666666" points="3248,-96 3094,-96 3094,-66 3248,-66 3248,-96"/>
<text text-anchor="start" x="3102" y="-84" font-family="Helvetica,sans-Serif" font-size="10.00">/home/runner/work/doxygen</text>
<text text-anchor="middle" x="3171" y="-73" font-family="Helvetica,sans-Serif" font-size="10.00">/doxygen/src/formula.cpp</text>
</a>
</g>
</g>
<!-- Node1&#45;&gt;Node4 -->
<g id="edge3" class="edge">
<title>Node1&#45;&gt;Node4</title>
<path fill="none" stroke="#63b8ff" d="M700.45,-145.89C1082.56,-145.14 2607.76,-139.45 3085,-96 3087.86,-95.74 3090.77,-95.44 3093.71,-95.11"/>
<polygon fill="#63b8ff" stroke="#63b8ff" points="700.28,-142.39 690.29,-145.91 700.29,-149.39 700.28,-142.39"/>
</g>
<!-- Node5 -->
<g id="node5" class="node">
<title>Node5</title>
<g id="a_node5"><a xlink:href="../../d1/d4e/latexdocvisitor_8cpp.html" target="_top" xlink:title=" ">
<polygon fill="white" stroke="#666666" points="518,-30 344,-30 344,0 518,0 518,-30"/>
<text text-anchor="start" x="352" y="-18" font-family="Helvetica,sans-Serif" font-size="10.00">/home/runner/work/doxygen</text>
<text text-anchor="middle" x="431" y="-7" font-family="Helvetica,sans-Serif" font-size="10.00">/doxygen/src/latexdocvisitor.cpp</text>
</a>
</g>
</g>
<!-- Node1&#45;&gt;Node5 -->
<g id="edge4" class="edge">
<title>Node1&#45;&gt;Node5</title>
<path fill="none" stroke="#63b8ff" d="M584.79,-125.85C547.63,-99.31 483.19,-53.28 450.8,-30.14"/>
<polygon fill="#63b8ff" stroke="#63b8ff" points="583,-128.88 593.18,-131.84 587.07,-123.18 583,-128.88"/>
</g>
<!-- Node6 -->
<g id="node6" class="node">
<title>Node6</title>
<g id="a_node6"><a xlink:href="../../d4/d42/latexgen_8cpp.html" target="_top" xlink:title=" ">
<polygon fill="white" stroke="#666666" points="690,-30 536,-30 536,0 690,0 690,-30"/>
<text text-anchor="start" x="544" y="-18" font-family="Helvetica,sans-Serif" font-size="10.00">/home/runner/work/doxygen</text>
<text text-anchor="middle" x="613" y="-7" font-family="Helvetica,sans-Serif" font-size="10.00">/doxygen/src/latexgen.cpp</text>
</a>
</g>
</g>
<!-- Node1&#45;&gt;Node6 -->
<g id="edge5" class="edge">
<title>Node1&#45;&gt;Node6</title>
<path fill="none" stroke="#63b8ff" d="M613,-121.68C613,-94.7 613,-52.11 613,-30.14"/>
<polygon fill="#63b8ff" stroke="#63b8ff" points="609.5,-121.84 613,-131.84 616.5,-121.84 609.5,-121.84"/>
</g>
<!-- Node7 -->
<g id="node7" class="node">
<title>Node7</title>
<g id="a_node7"><a xlink:href="../../d2/db9/outputlist_8h.html" target="_top" xlink:title=" ">
<polygon fill="white" stroke="#666666" points="3076,-96 2922,-96 2922,-66 3076,-66 3076,-96"/>
<text text-anchor="start" x="2930" y="-84" font-family="Helvetica,sans-Serif" font-size="10.00">/home/runner/work/doxygen</text>
<text text-anchor="middle" x="2999" y="-73" font-family="Helvetica,sans-Serif" font-size="10.00">/doxygen/src/outputlist.h</text>
</a>
</g>
</g>
<!-- Node1&#45;&gt;Node7 -->
<g id="edge6" class="edge">
<title>Node1&#45;&gt;Node7</title>
<path fill="none" stroke="#63b8ff" d="M700.05,-143.67C1076.9,-133.56 2564.83,-93.65 2921.74,-84.07"/>
<polygon fill="#63b8ff" stroke="#63b8ff" points="699.92,-140.17 690.02,-143.93 700.11,-147.16 699.92,-140.17"/>
</g>
<!-- Node41 -->
<g id="node41" class="node">
<title>Node41</title>
<g id="a_node41"><a xlink:href="../../df/d54/template_8cpp.html" target="_top" xlink:title=" ">
<polygon fill="white" stroke="#666666" points="3420,-96 3266,-96 3266,-66 3420,-66 3420,-96"/>
<text text-anchor="start" x="3274" y="-84" font-family="Helvetica,sans-Serif" font-size="10.00">/home/runner/work/doxygen</text>
<text text-anchor="middle" x="3343" y="-73" font-family="Helvetica,sans-Serif" font-size="10.00">/doxygen/src/template.cpp</text>
</a>
</g>
</g>
<!-- Node1&#45;&gt;Node41 -->
<g id="edge44" class="edge">
<title>Node1&#45;&gt;Node41</title>
<path fill="none" stroke="#63b8ff" d="M700.25,-146.02C1098.2,-145.87 2743.88,-142.38 3257,-96 3259.86,-95.74 3262.77,-95.44 3265.71,-95.11"/>
<polygon fill="#63b8ff" stroke="#63b8ff" points="700.23,-142.52 690.24,-146.03 700.24,-149.52 700.23,-142.52"/>
</g>
<!-- Node7&#45;&gt;Node2 -->
<g id="edge11" class="edge">
<title>Node7&#45;&gt;Node2</title>
<path fill="none" stroke="#63b8ff" d="M2911.65,-80.15C2496.04,-80.62 716.12,-79.64 163,-30 160.14,-29.74 157.23,-29.45 154.29,-29.12"/>
<polygon fill="#63b8ff" stroke="#63b8ff" points="2911.8,-83.65 2921.8,-80.14 2911.79,-76.65 2911.8,-83.65"/>
</g>
<!-- Node7&#45;&gt;Node3 -->
<g id="edge15" class="edge">
<title>Node7&#45;&gt;Node3</title>
<path fill="none" stroke="#63b8ff" d="M2911.76,-80.04C2511.96,-79.95 852.29,-76.72 335,-30 332.14,-29.74 329.23,-29.44 326.29,-29.12"/>
<polygon fill="#63b8ff" stroke="#63b8ff" points="2911.81,-83.54 2921.81,-80.04 2911.81,-76.54 2911.81,-83.54"/>
</g>
<!-- Node7&#45;&gt;Node5 -->
<g id="edge24" class="edge">
<title>Node7&#45;&gt;Node5</title>
<path fill="none" stroke="#63b8ff" d="M2911.57,-79.69C2529.52,-78.13 1004.58,-69.5 527,-30 524.06,-29.76 521.08,-29.48 518.07,-29.18"/>
<polygon fill="#63b8ff" stroke="#63b8ff" points="2911.71,-83.19 2921.73,-79.74 2911.74,-76.19 2911.71,-83.19"/>
</g>
<!-- Node7&#45;&gt;Node6 -->
<g id="edge25" class="edge">
<title>Node7&#45;&gt;Node6</title>
<path fill="none" stroke="#63b8ff" d="M2911.69,-79.73C2546.57,-78.37 1140.58,-70.54 699,-30 696.14,-29.74 693.23,-29.44 690.29,-29.1"/>
<polygon fill="#63b8ff" stroke="#63b8ff" points="2911.92,-83.24 2921.93,-79.77 2911.94,-76.24 2911.92,-83.24"/>
</g>
<!-- Node8 -->
<g id="node8" class="node">
<title>Node8</title>
<g id="a_node8"><a xlink:href="../../de/d89/classdef_8cpp.html" target="_top" xlink:title=" ">
<polygon fill="white" stroke="#666666" points="4547,-30 4393,-30 4393,0 4547,0 4547,-30"/>
<text text-anchor="start" x="4401" y="-18" font-family="Helvetica,sans-Serif" font-size="10.00">/home/runner/work/doxygen</text>
<text text-anchor="middle" x="4470" y="-7" font-family="Helvetica,sans-Serif" font-size="10.00">/doxygen/src/classdef.cpp</text>
</a>
</g>
</g>
<!-- Node7&#45;&gt;Node8 -->
<g id="edge7" class="edge">
<title>Node7&#45;&gt;Node8</title>
<path fill="none" stroke="#63b8ff" d="M3086.51,-65.96C3661.74,-12.33 3812.39,-84.2 4384,-30 4386.86,-29.73 4389.77,-29.42 4392.71,-29.08"/>
<polygon fill="#63b8ff" stroke="#63b8ff" points="3085.92,-62.5 3076.29,-66.92 3086.58,-69.47 3085.92,-62.5"/>
</g>
<!-- Node9 -->
<g id="node9" class="node">
<title>Node9</title>
<g id="a_node9"><a xlink:href="../../d6/d10/classlist_8cpp.html" target="_top" xlink:title=" ">
<polygon fill="white" stroke="#666666" points="4719,-30 4565,-30 4565,0 4719,0 4719,-30"/>
<text text-anchor="start" x="4573" y="-18" font-family="Helvetica,sans-Serif" font-size="10.00">/home/runner/work/doxygen</text>
<text text-anchor="middle" x="4642" y="-7" font-family="Helvetica,sans-Serif" font-size="10.00">/doxygen/src/classlist.cpp</text>
</a>
</g>
</g>
<!-- Node7&#45;&gt;Node9 -->
<g id="edge8" class="edge">
<title>Node7&#45;&gt;Node9</title>
<path fill="none" stroke="#63b8ff" d="M3086.4,-65.97C3737.89,-6.19 3908.19,-90.37 4556,-30 4558.86,-29.73 4561.77,-29.43 4564.71,-29.09"/>
<polygon fill="#63b8ff" stroke="#63b8ff" points="3085.93,-62.5 3076.29,-66.91 3086.57,-69.47 3085.93,-62.5"/>
</g>
<!-- Node10 -->
<g id="node10" class="node">
<title>Node10</title>
<g id="a_node10"><a xlink:href="../../da/d1f/code_8l.html" target="_top" xlink:title=" ">
<polygon fill="white" stroke="#666666" points="4891,-30 4737,-30 4737,0 4891,0 4891,-30"/>
<text text-anchor="start" x="4745" y="-18" font-family="Helvetica,sans-Serif" font-size="10.00">/home/runner/work/doxygen</text>
<text text-anchor="middle" x="4814" y="-7" font-family="Helvetica,sans-Serif" font-size="10.00">/doxygen/src/code.l</text>
</a>
</g>
</g>
<!-- Node7&#45;&gt;Node10 -->
<g id="edge9" class="edge">
<title>Node7&#45;&gt;Node10</title>
<path fill="none" stroke="#63b8ff" d="M3086.5,-65.96C3814.09,-0.06 4004.04,-96.53 4728,-30 4730.86,-29.74 4733.77,-29.44 4736.71,-29.1"/>
<polygon fill="#63b8ff" stroke="#63b8ff" points="3085.93,-62.5 3076.29,-66.9 3086.57,-69.47 3085.93,-62.5"/>
</g>
<!-- Node11 -->
<g id="node11" class="node">
<title>Node11</title>
<g id="a_node11"><a xlink:href="../../d8/d0a/conceptdef_8cpp.html" target="_top" xlink:title=" ">
<polygon fill="white" stroke="#666666" points="5064.5,-30 4909.5,-30 4909.5,0 5064.5,0 5064.5,-30"/>
<text text-anchor="start" x="4917.5" y="-18" font-family="Helvetica,sans-Serif" font-size="10.00">/home/runner/work/doxygen</text>
<text text-anchor="middle" x="4987" y="-7" font-family="Helvetica,sans-Serif" font-size="10.00">/doxygen/src/conceptdef.cpp</text>
</a>
</g>
</g>
<!-- Node7&#45;&gt;Node11 -->
<g id="edge10" class="edge">
<title>Node7&#45;&gt;Node11</title>
<path fill="none" stroke="#63b8ff" d="M3086.37,-65.98C3890.25,6.1 4099.75,-101.97 4900,-30 4903.05,-29.73 4906.15,-29.41 4909.28,-29.06"/>
<polygon fill="#63b8ff" stroke="#63b8ff" points="3085.93,-62.5 3076.29,-66.89 3086.56,-69.47 3085.93,-62.5"/>
</g>
<!-- Node12 -->
<g id="node12" class="node">
<title>Node12</title>
<g id="a_node12"><a xlink:href="../../d3/dea/definition_8cpp.html" target="_top" xlink:title=" ">
<polygon fill="white" stroke="#666666" points="5237,-30 5083,-30 5083,0 5237,0 5237,-30"/>
<text text-anchor="start" x="5091" y="-18" font-family="Helvetica,sans-Serif" font-size="10.00">/home/runner/work/doxygen</text>
<text text-anchor="middle" x="5160" y="-7" font-family="Helvetica,sans-Serif" font-size="10.00">/doxygen/src/definition.cpp</text>
</a>
</g>
</g>
<!-- Node7&#45;&gt;Node12 -->
<g id="edge12" class="edge">
<title>Node7&#45;&gt;Node12</title>
<path fill="none" stroke="#63b8ff" d="M3086.36,-65.98C3967.32,12.31 4196.74,-108.93 5074,-30 5076.86,-29.74 5079.77,-29.45 5082.71,-29.12"/>
<polygon fill="#63b8ff" stroke="#63b8ff" points="3085.94,-62.5 3076.29,-66.88 3086.56,-69.48 3085.94,-62.5"/>
</g>
<!-- Node13 -->
<g id="node13" class="node">
<title>Node13</title>
<g id="a_node13"><a xlink:href="../../d8/d52/dirdef_8cpp.html" target="_top" xlink:title=" ">
<polygon fill="white" stroke="#666666" points="5409,-30 5255,-30 5255,0 5409,0 5409,-30"/>
<text text-anchor="start" x="5263" y="-18" font-family="Helvetica,sans-Serif" font-size="10.00">/home/runner/work/doxygen</text>
<text text-anchor="middle" x="5332" y="-7" font-family="Helvetica,sans-Serif" font-size="10.00">/doxygen/src/dirdef.cpp</text>
</a>
</g>
</g>
<!-- Node7&#45;&gt;Node13 -->
<g id="edge13" class="edge">
<title>Node7&#45;&gt;Node13</title>
<path fill="none" stroke="#63b8ff" d="M3086.52,-65.97C4043.54,18.44 4292.61,-115.09 5246,-30 5248.86,-29.74 5251.77,-29.45 5254.71,-29.12"/>
<polygon fill="#63b8ff" stroke="#63b8ff" points="3085.94,-62.51 3076.29,-66.88 3086.56,-69.48 3085.94,-62.51"/>
</g>
<!-- Node14 -->
<g id="node14" class="node">
<title>Node14</title>
<g id="a_node14"><a xlink:href="../../d8/d29/docbookgen_8cpp.html" target="_top" xlink:title=" ">
<polygon fill="white" stroke="#666666" points="5588.5,-30 5427.5,-30 5427.5,0 5588.5,0 5588.5,-30"/>
<text text-anchor="start" x="5435.5" y="-18" font-family="Helvetica,sans-Serif" font-size="10.00">/home/runner/work/doxygen</text>
<text text-anchor="middle" x="5508" y="-7" font-family="Helvetica,sans-Serif" font-size="10.00">/doxygen/src/docbookgen.cpp</text>
</a>
</g>
</g>
<!-- Node7&#45;&gt;Node14 -->
<g id="edge14" class="edge">
<title>Node7&#45;&gt;Node14</title>
<path fill="none" stroke="#63b8ff" d="M3086.56,-65.97C4119.73,24.61 4388.13,-117.62 5418,-30 5420.99,-29.75 5424.04,-29.45 5427.11,-29.13"/>
<polygon fill="#63b8ff" stroke="#63b8ff" points="3085.94,-62.51 3076.29,-66.87 3086.56,-69.48 3085.94,-62.51"/>
</g>
<!-- Node15 -->
<g id="node15" class="node">
<title>Node15</title>
<g id="a_node15"><a xlink:href="../../d6/ddc/filedef_8cpp.html" target="_top" xlink:title=" ">
<polygon fill="white" stroke="#666666" points="5761,-30 5607,-30 5607,0 5761,0 5761,-30"/>
<text text-anchor="start" x="5615" y="-18" font-family="Helvetica,sans-Serif" font-size="10.00">/home/runner/work/doxygen</text>
<text text-anchor="middle" x="5684" y="-7" font-family="Helvetica,sans-Serif" font-size="10.00">/doxygen/src/filedef.cpp</text>
</a>
</g>
</g>
<!-- Node7&#45;&gt;Node15 -->
<g id="edge16" class="edge">
<title>Node7&#45;&gt;Node15</title>
<path fill="none" stroke="#63b8ff" d="M3086.53,-65.97C4199.46,31.03 4488.7,-127.7 5598,-30 5600.86,-29.75 5603.77,-29.46 5606.71,-29.13"/>
<polygon fill="#63b8ff" stroke="#63b8ff" points="3085.94,-62.51 3076.29,-66.87 3086.56,-69.48 3085.94,-62.51"/>
</g>
<!-- Node16 -->
<g id="node16" class="node">
<title>Node16</title>
<g id="a_node16"><a xlink:href="../../d9/d74/fileparser_8cpp.html" target="_top" xlink:title=" ">
<polygon fill="white" stroke="#666666" points="5933,-30 5779,-30 5779,0 5933,0 5933,-30"/>
<text text-anchor="start" x="5787" y="-18" font-family="Helvetica,sans-Serif" font-size="10.00">/home/runner/work/doxygen</text>
<text text-anchor="middle" x="5856" y="-7" font-family="Helvetica,sans-Serif" font-size="10.00">/doxygen/src/fileparser.cpp</text>
</a>
</g>
</g>
<!-- Node7&#45;&gt;Node16 -->
<g id="edge17" class="edge">
<title>Node7&#45;&gt;Node16</title>
<path fill="none" stroke="#63b8ff" d="M3086.35,-65.99C4275.62,37.2 4584.45,-133.87 5770,-30 5772.86,-29.75 5775.78,-29.46 5778.71,-29.14"/>
<polygon fill="#63b8ff" stroke="#63b8ff" points="3085.95,-62.51 3076.29,-66.86 3086.55,-69.48 3085.95,-62.51"/>
</g>
<!-- Node17 -->
<g id="node17" class="node">
<title>Node17</title>
<g id="a_node17"><a xlink:href="../../d9/d5b/fortrancode_8l.html" target="_top" xlink:title=" ">
<polygon fill="white" stroke="#666666" points="6105,-30 5951,-30 5951,0 6105,0 6105,-30"/>
<text text-anchor="start" x="5959" y="-18" font-family="Helvetica,sans-Serif" font-size="10.00">/home/runner/work/doxygen</text>
<text text-anchor="middle" x="6028" y="-7" font-family="Helvetica,sans-Serif" font-size="10.00">/doxygen/src/fortrancode.l</text>
</a>
</g>
</g>
<!-- Node7&#45;&gt;Node17 -->
<g id="edge18" class="edge">
<title>Node7&#45;&gt;Node17</title>
<path fill="none" stroke="#63b8ff" d="M3086.7,-65.97C3734.61,-11.63 5312.86,-84.87 5942,-30 5944.86,-29.75 5947.78,-29.46 5950.71,-29.14"/>
<polygon fill="#63b8ff" stroke="#63b8ff" points="3085.95,-62.52 3076.29,-66.86 3086.55,-69.5 3085.95,-62.52"/>
</g>
<!-- Node18 -->
<g id="node18" class="node">
<title>Node18</title>
<g id="a_node18"><a xlink:href="../../db/d41/ftvhelp_8cpp.html" target="_top" xlink:title=" ">
<polygon fill="white" stroke="#666666" points="6277,-30 6123,-30 6123,0 6277,0 6277,-30"/>
<text text-anchor="start" x="6131" y="-18" font-family="Helvetica,sans-Serif" font-size="10.00">/home/runner/work/doxygen</text>
<text text-anchor="middle" x="6200" y="-7" font-family="Helvetica,sans-Serif" font-size="10.00">/doxygen/src/ftvhelp.cpp</text>
</a>
</g>
</g>
<!-- Node7&#45;&gt;Node18 -->
<g id="edge19" class="edge">
<title>Node7&#45;&gt;Node18</title>
<path fill="none" stroke="#63b8ff" d="M3086.31,-66C3772.09,-8.54 5446.64,-87.96 6114,-30 6116.86,-29.75 6119.78,-29.46 6122.71,-29.14"/>
<polygon fill="#63b8ff" stroke="#63b8ff" points="3085.95,-62.52 3076.29,-66.86 3086.55,-69.5 3085.95,-62.52"/>
</g>
<!-- Node19 -->
<g id="node19" class="node">
<title>Node19</title>
<g id="a_node19"><a xlink:href="../../d6/d42/groupdef_8cpp.html" target="_top" xlink:title=" ">
<polygon fill="white" stroke="#666666" points="6449,-30 6295,-30 6295,0 6449,0 6449,-30"/>
<text text-anchor="start" x="6303" y="-18" font-family="Helvetica,sans-Serif" font-size="10.00">/home/runner/work/doxygen</text>
<text text-anchor="middle" x="6372" y="-7" font-family="Helvetica,sans-Serif" font-size="10.00">/doxygen/src/groupdef.cpp</text>
</a>
</g>
</g>
<!-- Node7&#45;&gt;Node19 -->
<g id="edge20" class="edge">
<title>Node7&#45;&gt;Node19</title>
<path fill="none" stroke="#63b8ff" d="M3086.34,-66C3810.25,-5.48 5580.56,-91.04 6286,-30 6288.86,-29.75 6291.78,-29.46 6294.71,-29.14"/>
<polygon fill="#63b8ff" stroke="#63b8ff" points="3085.95,-62.52 3076.29,-66.86 3086.55,-69.5 3085.95,-62.52"/>
</g>
<!-- Node20 -->
<g id="node20" class="node">
<title>Node20</title>
<g id="a_node20"><a xlink:href="../../da/db0/htmldocvisitor_8cpp.html" target="_top" xlink:title=" ">
<polygon fill="white" stroke="#666666" points="880,-30 708,-30 708,0 880,0 880,-30"/>
<text text-anchor="start" x="716" y="-18" font-family="Helvetica,sans-Serif" font-size="10.00">/home/runner/work/doxygen</text>
<text text-anchor="middle" x="794" y="-7" font-family="Helvetica,sans-Serif" font-size="10.00">/doxygen/src/htmldocvisitor.cpp</text>
</a>
</g>
</g>
<!-- Node7&#45;&gt;Node20 -->
<g id="edge21" class="edge">
<title>Node7&#45;&gt;Node20</title>
<path fill="none" stroke="#63b8ff" d="M2911.55,-79.36C2565.54,-76.6 1291.45,-64.29 889,-30 886.09,-29.75 883.14,-29.47 880.16,-29.17"/>
<polygon fill="#63b8ff" stroke="#63b8ff" points="2911.74,-82.86 2921.76,-79.44 2911.79,-75.86 2911.74,-82.86"/>
</g>
<!-- Node21 -->
<g id="node21" class="node">
<title>Node21</title>
<g id="a_node21"><a xlink:href="../../d8/d6e/htmlgen_8cpp.html" target="_top" xlink:title=" ">
<polygon fill="white" stroke="#666666" points="1052,-30 898,-30 898,0 1052,0 1052,-30"/>
<text text-anchor="start" x="906" y="-18" font-family="Helvetica,sans-Serif" font-size="10.00">/home/runner/work/doxygen</text>
<text text-anchor="middle" x="975" y="-7" font-family="Helvetica,sans-Serif" font-size="10.00">/doxygen/src/htmlgen.cpp</text>
</a>
</g>
</g>
<!-- Node7&#45;&gt;Node21 -->
<g id="edge22" class="edge">
<title>Node7&#45;&gt;Node21</title>
<path fill="none" stroke="#63b8ff" d="M2911.4,-79.32C2583.35,-76.53 1427.62,-64.41 1061,-30 1058.14,-29.73 1055.23,-29.43 1052.29,-29.09"/>
<polygon fill="#63b8ff" stroke="#63b8ff" points="2911.76,-82.82 2921.79,-79.41 2911.82,-75.82 2911.76,-82.82"/>
</g>
<!-- Node22 -->
<g id="node22" class="node">
<title>Node22</title>
<g id="a_node22"><a xlink:href="../../db/d14/index_8cpp.html" target="_top" xlink:title="This file contains functions for the various index pages.">
<polygon fill="white" stroke="#666666" points="1224,-30 1070,-30 1070,0 1224,0 1224,-30"/>
<text text-anchor="start" x="1078" y="-18" font-family="Helvetica,sans-Serif" font-size="10.00">/home/runner/work/doxygen</text>
<text text-anchor="middle" x="1147" y="-7" font-family="Helvetica,sans-Serif" font-size="10.00">/doxygen/src/index.cpp</text>
</a>
</g>
</g>
<!-- Node7&#45;&gt;Node22 -->
<g id="edge23" class="edge">
<title>Node7&#45;&gt;Node22</title>
<path fill="none" stroke="#63b8ff" d="M2911.74,-79.07C2603.18,-75.53 1564.35,-61.52 1233,-30 1230.14,-29.73 1227.23,-29.42 1224.29,-29.08"/>
<polygon fill="#63b8ff" stroke="#63b8ff" points="2911.93,-82.57 2921.97,-79.18 2912.01,-75.57 2911.93,-82.57"/>
</g>
<!-- Node23 -->
<g id="node23" class="node">
<title>Node23</title>
<g id="a_node23"><a xlink:href="../../d0/d7e/lexcode_8l.html" target="_top" xlink:title=" ">
<polygon fill="white" stroke="#666666" points="1396,-30 1242,-30 1242,0 1396,0 1396,-30"/>
<text text-anchor="start" x="1250" y="-18" font-family="Helvetica,sans-Serif" font-size="10.00">/home/runner/work/doxygen</text>
<text text-anchor="middle" x="1319" y="-7" font-family="Helvetica,sans-Serif" font-size="10.00">/doxygen/src/lexcode.l</text>
</a>
</g>
</g>
<!-- Node7&#45;&gt;Node23 -->
<g id="edge26" class="edge">
<title>Node7&#45;&gt;Node23</title>
<path fill="none" stroke="#63b8ff" d="M2911.54,-78.76C2622.72,-74.41 1701.02,-58.61 1405,-30 1402.14,-29.72 1399.23,-29.41 1396.29,-29.07"/>
<polygon fill="#63b8ff" stroke="#63b8ff" points="2911.49,-82.26 2921.55,-78.91 2911.6,-75.26 2911.49,-82.26"/>
</g>
<!-- Node24 -->
<g id="node24" class="node">
<title>Node24</title>
<g id="a_node24"><a xlink:href="../../d7/de7/mangen_8cpp.html" target="_top" xlink:title=" ">
<polygon fill="white" stroke="#666666" points="1568,-30 1414,-30 1414,0 1568,0 1568,-30"/>
<text text-anchor="start" x="1422" y="-18" font-family="Helvetica,sans-Serif" font-size="10.00">/home/runner/work/doxygen</text>
<text text-anchor="middle" x="1491" y="-7" font-family="Helvetica,sans-Serif" font-size="10.00">/doxygen/src/mangen.cpp</text>
</a>
</g>
</g>
<!-- Node7&#45;&gt;Node24 -->
<g id="edge27" class="edge">
<title>Node7&#45;&gt;Node24</title>
<path fill="none" stroke="#63b8ff" d="M2911.7,-80.75C2688.77,-81.85 2080.6,-79.64 1577,-30 1574.14,-29.72 1571.23,-29.4 1568.29,-29.06"/>
<polygon fill="#63b8ff" stroke="#63b8ff" points="2911.72,-84.25 2921.7,-80.7 2911.68,-77.26 2911.72,-84.25"/>
</g>
<!-- Node25 -->
<g id="node25" class="node">
<title>Node25</title>
<g id="a_node25"><a xlink:href="../../d0/d72/memberdef_8cpp.html" target="_top" xlink:title=" ">
<polygon fill="white" stroke="#666666" points="1744,-30 1586,-30 1586,0 1744,0 1744,-30"/>
<text text-anchor="start" x="1594" y="-18" font-family="Helvetica,sans-Serif" font-size="10.00">/home/runner/work/doxygen</text>
<text text-anchor="middle" x="1665" y="-7" font-family="Helvetica,sans-Serif" font-size="10.00">/doxygen/src/memberdef.cpp</text>
</a>
</g>
</g>
<!-- Node7&#45;&gt;Node25 -->
<g id="edge28" class="edge">
<title>Node7&#45;&gt;Node25</title>
<path fill="none" stroke="#63b8ff" d="M2911.9,-79.97C2708.62,-79.13 2187.2,-72.63 1754,-30 1750.73,-29.68 1747.4,-29.32 1744.04,-28.92"/>
<polygon fill="#63b8ff" stroke="#63b8ff" points="2911.91,-83.47 2921.93,-80 2911.94,-76.47 2911.91,-83.47"/>
</g>
<!-- Node26 -->
<g id="node26" class="node">
<title>Node26</title>
<g id="a_node26"><a xlink:href="../../d6/d18/membergroup_8cpp.html" target="_top" xlink:title=" ">
<polygon fill="white" stroke="#666666" points="1933.5,-30 1762.5,-30 1762.5,0 1933.5,0 1933.5,-30"/>
<text text-anchor="start" x="1770.5" y="-18" font-family="Helvetica,sans-Serif" font-size="10.00">/home/runner/work/doxygen</text>
<text text-anchor="middle" x="1848" y="-7" font-family="Helvetica,sans-Serif" font-size="10.00">/doxygen/src/membergroup.cpp</text>
</a>
</g>
</g>
<!-- Node7&#45;&gt;Node26 -->
<g id="edge29" class="edge">
<title>Node7&#45;&gt;Node26</title>
<path fill="none" stroke="#63b8ff" d="M2911.7,-78.79C2730.68,-75.63 2301.4,-64.81 1943,-30 1939.93,-29.7 1936.81,-29.37 1933.66,-29.02"/>
<polygon fill="#63b8ff" stroke="#63b8ff" points="2911.9,-82.29 2921.96,-78.96 2912.02,-75.29 2911.9,-82.29"/>
</g>
<!-- Node27 -->
<g id="node27" class="node">
<title>Node27</title>
<g id="a_node27"><a xlink:href="../../d0/d14/memberlist_8cpp.html" target="_top" xlink:title=" ">
<polygon fill="white" stroke="#666666" points="2110,-30 1952,-30 1952,0 2110,0 2110,-30"/>
<text text-anchor="start" x="1960" y="-18" font-family="Helvetica,sans-Serif" font-size="10.00">/home/runner/work/doxygen</text>
<text text-anchor="middle" x="2031" y="-7" font-family="Helvetica,sans-Serif" font-size="10.00">/doxygen/src/memberlist.cpp</text>
</a>
</g>
</g>
<!-- Node7&#45;&gt;Node27 -->
<g id="edge30" class="edge">
<title>Node7&#45;&gt;Node27</title>
<path fill="none" stroke="#63b8ff" d="M2911.62,-77.9C2753.37,-73.46 2408.89,-60.86 2120,-30 2116.73,-29.65 2113.4,-29.27 2110.04,-28.85"/>
<polygon fill="#63b8ff" stroke="#63b8ff" points="2911.68,-81.4 2921.78,-78.18 2911.88,-74.41 2911.68,-81.4"/>
</g>
<!-- Node28 -->
<g id="node28" class="node">
<title>Node28</title>
<g id="a_node28"><a xlink:href="../../d7/d1c/namespacedef_8cpp.html" target="_top" xlink:title=" ">
<polygon fill="white" stroke="#666666" points="2301.5,-30 2128.5,-30 2128.5,0 2301.5,0 2301.5,-30"/>
<text text-anchor="start" x="2136.5" y="-18" font-family="Helvetica,sans-Serif" font-size="10.00">/home/runner/work/doxygen</text>
<text text-anchor="middle" x="2215" y="-7" font-family="Helvetica,sans-Serif" font-size="10.00">/doxygen/src/namespacedef.cpp</text>
</a>
</g>
</g>
<!-- Node7&#45;&gt;Node28 -->
<g id="edge31" class="edge">
<title>Node7&#45;&gt;Node28</title>
<path fill="none" stroke="#63b8ff" d="M2911.61,-75.68C2780.77,-68.75 2526.31,-53.49 2311,-30 2307.9,-29.66 2304.75,-29.3 2301.57,-28.92"/>
<polygon fill="#63b8ff" stroke="#63b8ff" points="2911.8,-79.19 2921.97,-76.22 2912.16,-72.2 2911.8,-79.19"/>
</g>
<!-- Node29 -->
<g id="node29" class="node">
<title>Node29</title>
<g id="a_node29"><a xlink:href="../../db/dd8/outputlist_8cpp.html" target="_top" xlink:title=" ">
<polygon fill="white" stroke="#666666" points="2474,-30 2320,-30 2320,0 2474,0 2474,-30"/>
<text text-anchor="start" x="2328" y="-18" font-family="Helvetica,sans-Serif" font-size="10.00">/home/runner/work/doxygen</text>
<text text-anchor="middle" x="2397" y="-7" font-family="Helvetica,sans-Serif" font-size="10.00">/doxygen/src/outputlist.cpp</text>
</a>
</g>
</g>
<!-- Node7&#45;&gt;Node29 -->
<g id="edge32" class="edge">
<title>Node7&#45;&gt;Node29</title>
<path fill="none" stroke="#63b8ff" d="M2911.88,-73.29C2809.13,-64.98 2633.3,-49.49 2483,-30 2480.15,-29.63 2477.25,-29.24 2474.32,-28.83"/>
<polygon fill="#63b8ff" stroke="#63b8ff" points="2911.64,-76.78 2921.89,-74.1 2912.21,-69.81 2911.64,-76.78"/>
</g>
<!-- Node30 -->
<g id="node30" class="node">
<title>Node30</title>
<g id="a_node30"><a xlink:href="../../d9/db4/pagedef_8cpp.html" target="_top" xlink:title=" ">
<polygon fill="white" stroke="#666666" points="2646,-30 2492,-30 2492,0 2646,0 2646,-30"/>
<text text-anchor="start" x="2500" y="-18" font-family="Helvetica,sans-Serif" font-size="10.00">/home/runner/work/doxygen</text>
<text text-anchor="middle" x="2569" y="-7" font-family="Helvetica,sans-Serif" font-size="10.00">/doxygen/src/pagedef.cpp</text>
</a>
</g>
</g>
<!-- Node7&#45;&gt;Node30 -->
<g id="edge33" class="edge">
<title>Node7&#45;&gt;Node30</title>
<path fill="none" stroke="#63b8ff" d="M2911.71,-67.73C2842.14,-57.85 2742.27,-43.44 2655,-30 2652.16,-29.56 2649.27,-29.11 2646.35,-28.65"/>
<polygon fill="#63b8ff" stroke="#63b8ff" points="2911.36,-71.22 2921.75,-69.16 2912.34,-64.29 2911.36,-71.22"/>
</g>
<!-- Node31 -->
<g id="node31" class="node">
<title>Node31</title>
<g id="a_node31"><a xlink:href="../../d3/ded/pycode_8l.html" target="_top" xlink:title=" ">
<polygon fill="white" stroke="#666666" points="2818,-30 2664,-30 2664,0 2818,0 2818,-30"/>
<text text-anchor="start" x="2672" y="-18" font-family="Helvetica,sans-Serif" font-size="10.00">/home/runner/work/doxygen</text>
<text text-anchor="middle" x="2741" y="-7" font-family="Helvetica,sans-Serif" font-size="10.00">/doxygen/src/pycode.l</text>
</a>
</g>
</g>
<!-- Node7&#45;&gt;Node31 -->
<g id="edge34" class="edge">
<title>Node7&#45;&gt;Node31</title>
<path fill="none" stroke="#63b8ff" d="M2932.55,-63.52C2890.71,-53.14 2837.28,-39.88 2797.49,-30.01"/>
<polygon fill="#63b8ff" stroke="#63b8ff" points="2931.83,-66.94 2942.38,-65.95 2933.52,-60.15 2931.83,-66.94"/>
</g>
<!-- Node32 -->
<g id="node32" class="node">
<title>Node32</title>
<g id="a_node32"><a xlink:href="../../d0/d9c/rtfgen_8cpp.html" target="_top" xlink:title=" ">
<polygon fill="white" stroke="#666666" points="2990,-30 2836,-30 2836,0 2990,0 2990,-30"/>
<text text-anchor="start" x="2844" y="-18" font-family="Helvetica,sans-Serif" font-size="10.00">/home/runner/work/doxygen</text>
<text text-anchor="middle" x="2913" y="-7" font-family="Helvetica,sans-Serif" font-size="10.00">/doxygen/src/rtfgen.cpp</text>
</a>
</g>
</g>
<!-- Node7&#45;&gt;Node32 -->
<g id="edge35" class="edge">
<title>Node7&#45;&gt;Node32</title>
<path fill="none" stroke="#63b8ff" d="M2971.79,-59.75C2958.86,-50.13 2943.71,-38.86 2932.03,-30.16"/>
<polygon fill="#63b8ff" stroke="#63b8ff" points="2969.8,-62.63 2979.91,-65.8 2973.98,-57.02 2969.8,-62.63"/>
</g>
<!-- Node33 -->
<g id="node33" class="node">
<title>Node33</title>
<g id="a_node33"><a xlink:href="../../d2/dda/sqlcode_8l.html" target="_top" xlink:title=" ">
<polygon fill="white" stroke="#666666" points="3162,-30 3008,-30 3008,0 3162,0 3162,-30"/>
<text text-anchor="start" x="3016" y="-18" font-family="Helvetica,sans-Serif" font-size="10.00">/home/runner/work/doxygen</text>
<text text-anchor="middle" x="3085" y="-7" font-family="Helvetica,sans-Serif" font-size="10.00">/doxygen/src/sqlcode.l</text>
</a>
</g>
</g>
<!-- Node7&#45;&gt;Node33 -->
<g id="edge36" class="edge">
<title>Node7&#45;&gt;Node33</title>
<path fill="none" stroke="#63b8ff" d="M3026.21,-59.75C3039.14,-50.13 3054.29,-38.86 3065.97,-30.16"/>
<polygon fill="#63b8ff" stroke="#63b8ff" points="3024.02,-57.02 3018.09,-65.8 3028.2,-62.63 3024.02,-57.02"/>
</g>
<!-- Node34 -->
<g id="node34" class="node">
<title>Node34</title>
<g id="a_node34"><a xlink:href="../../d7/d56/tooltip_8cpp.html" target="_top" xlink:title=" ">
<polygon fill="white" stroke="#666666" points="3334,-30 3180,-30 3180,0 3334,0 3334,-30"/>
<text text-anchor="start" x="3188" y="-18" font-family="Helvetica,sans-Serif" font-size="10.00">/home/runner/work/doxygen</text>
<text text-anchor="middle" x="3257" y="-7" font-family="Helvetica,sans-Serif" font-size="10.00">/doxygen/src/tooltip.cpp</text>
</a>
</g>
</g>
<!-- Node7&#45;&gt;Node34 -->
<g id="edge37" class="edge">
<title>Node7&#45;&gt;Node34</title>
<path fill="none" stroke="#63b8ff" d="M3065.45,-63.52C3107.29,-53.14 3160.72,-39.88 3200.51,-30.01"/>
<polygon fill="#63b8ff" stroke="#63b8ff" points="3064.48,-60.15 3055.62,-65.95 3066.17,-66.94 3064.48,-60.15"/>
</g>
<!-- Node35 -->
<g id="node35" class="node">
<title>Node35</title>
<g id="a_node35"><a xlink:href="../../df/d2d/util_8cpp.html" target="_top" xlink:title=" ">
<polygon fill="white" stroke="#666666" points="3506,-30 3352,-30 3352,0 3506,0 3506,-30"/>
<text text-anchor="start" x="3360" y="-18" font-family="Helvetica,sans-Serif" font-size="10.00">/home/runner/work/doxygen</text>
<text text-anchor="middle" x="3429" y="-7" font-family="Helvetica,sans-Serif" font-size="10.00">/doxygen/src/util.cpp</text>
</a>
</g>
</g>
<!-- Node7&#45;&gt;Node35 -->
<g id="edge38" class="edge">
<title>Node7&#45;&gt;Node35</title>
<path fill="none" stroke="#63b8ff" d="M3086.24,-65.83C3201.13,-48.61 3231.65,-46.83 3343,-30 3345.84,-29.57 3348.74,-29.13 3351.66,-28.68"/>
<polygon fill="#63b8ff" stroke="#63b8ff" points="3085.71,-62.37 3076.34,-67.32 3086.75,-69.3 3085.71,-62.37"/>
</g>
<!-- Node36 -->
<g id="node36" class="node">
<title>Node36</title>
<g id="a_node36"><a xlink:href="../../d5/d6a/vhdlcode_8l.html" target="_top" xlink:title=" ">
<polygon fill="white" stroke="#666666" points="3678,-30 3524,-30 3524,0 3678,0 3678,-30"/>
<text text-anchor="start" x="3532" y="-18" font-family="Helvetica,sans-Serif" font-size="10.00">/home/runner/work/doxygen</text>
<text text-anchor="middle" x="3601" y="-7" font-family="Helvetica,sans-Serif" font-size="10.00">/doxygen/src/vhdlcode.l</text>
</a>
</g>
</g>
<!-- Node7&#45;&gt;Node36 -->
<g id="edge39" class="edge">
<title>Node7&#45;&gt;Node36</title>
<path fill="none" stroke="#63b8ff" d="M3086.39,-65.89C3277.07,-42.94 3327.91,-53.02 3515,-30 3517.85,-29.65 3520.76,-29.27 3523.69,-28.88"/>
<polygon fill="#63b8ff" stroke="#63b8ff" points="3085.82,-62.44 3076.31,-67.12 3086.66,-69.39 3085.82,-62.44"/>
</g>
<!-- Node37 -->
<g id="node37" class="node">
<title>Node37</title>
<g id="a_node37"><a xlink:href="../../de/dea/vhdldocgen_8cpp.html" target="_top" xlink:title=" ">
<polygon fill="white" stroke="#666666" points="3854,-30 3696,-30 3696,0 3854,0 3854,-30"/>
<text text-anchor="start" x="3704" y="-18" font-family="Helvetica,sans-Serif" font-size="10.00">/home/runner/work/doxygen</text>
<text text-anchor="middle" x="3775" y="-7" font-family="Helvetica,sans-Serif" font-size="10.00">/doxygen/src/vhdldocgen.cpp</text>
</a>
</g>
</g>
<!-- Node7&#45;&gt;Node37 -->
<g id="edge40" class="edge">
<title>Node7&#45;&gt;Node37</title>
<path fill="none" stroke="#63b8ff" d="M3086.29,-65.94C3353.11,-36.97 3423.8,-58.74 3687,-30 3689.92,-29.68 3692.89,-29.33 3695.9,-28.96"/>
<polygon fill="#63b8ff" stroke="#63b8ff" points="3085.86,-62.46 3076.3,-67.04 3086.63,-69.42 3085.86,-62.46"/>
</g>
<!-- Node38 -->
<g id="node38" class="node">
<title>Node38</title>
<g id="a_node38"><a xlink:href="../../d1/d86/vhdljjparser_8cpp.html" target="_top" xlink:title=" ">
<polygon fill="white" stroke="#666666" points="4030.5,-30 3871.5,-30 3871.5,0 4030.5,0 4030.5,-30"/>
<text text-anchor="start" x="3879.5" y="-18" font-family="Helvetica,sans-Serif" font-size="10.00">/home/runner/work/doxygen</text>
<text text-anchor="middle" x="3951" y="-7" font-family="Helvetica,sans-Serif" font-size="10.00">/doxygen/src/vhdljjparser.cpp</text>
</a>
</g>
</g>
<!-- Node7&#45;&gt;Node38 -->
<g id="edge41" class="edge">
<title>Node7&#45;&gt;Node38</title>
<path fill="none" stroke="#63b8ff" d="M3086.31,-65.95C3431.01,-30.79 3521.93,-64.91 3863,-30 3865.77,-29.72 3868.59,-29.4 3871.43,-29.07"/>
<polygon fill="#63b8ff" stroke="#63b8ff" points="3085.89,-62.48 3076.3,-66.99 3086.61,-69.44 3085.89,-62.48"/>
</g>
<!-- Node39 -->
<g id="node39" class="node">
<title>Node39</title>
<g id="a_node39"><a xlink:href="../../dc/dc1/xmlcode_8l.html" target="_top" xlink:title=" ">
<polygon fill="white" stroke="#666666" points="4203,-30 4049,-30 4049,0 4203,0 4203,-30"/>
<text text-anchor="start" x="4057" y="-18" font-family="Helvetica,sans-Serif" font-size="10.00">/home/runner/work/doxygen</text>
<text text-anchor="middle" x="4126" y="-7" font-family="Helvetica,sans-Serif" font-size="10.00">/doxygen/src/xmlcode.l</text>
</a>
</g>
</g>
<!-- Node7&#45;&gt;Node39 -->
<g id="edge42" class="edge">
<title>Node7&#45;&gt;Node39</title>
<path fill="none" stroke="#63b8ff" d="M3086.35,-65.96C3509.38,-24.55 3620.66,-71.87 4040,-30 4042.86,-29.71 4045.77,-29.39 4048.7,-29.05"/>
<polygon fill="#63b8ff" stroke="#63b8ff" points="3085.9,-62.49 3076.3,-66.95 3086.59,-69.45 3085.9,-62.49"/>
</g>
<!-- Node40 -->
<g id="node40" class="node">
<title>Node40</title>
<g id="a_node40"><a xlink:href="../../d0/dc3/xmlgen_8cpp.html" target="_top" xlink:title=" ">
<polygon fill="white" stroke="#666666" points="4375,-30 4221,-30 4221,0 4375,0 4375,-30"/>
<text text-anchor="start" x="4229" y="-18" font-family="Helvetica,sans-Serif" font-size="10.00">/home/runner/work/doxygen</text>
<text text-anchor="middle" x="4298" y="-7" font-family="Helvetica,sans-Serif" font-size="10.00">/doxygen/src/xmlgen.cpp</text>
</a>
</g>
</g>
<!-- Node7&#45;&gt;Node40 -->
<g id="edge43" class="edge">
<title>Node7&#45;&gt;Node40</title>
<path fill="none" stroke="#63b8ff" d="M3086.28,-65.97C3585.53,-18.43 3716.48,-78.04 4212,-30 4214.86,-29.72 4217.77,-29.41 4220.71,-29.07"/>
<polygon fill="#63b8ff" stroke="#63b8ff" points="3085.91,-62.49 3076.29,-66.93 3086.58,-69.46 3085.91,-62.49"/>
</g>
</g>
</svg>
