<?xml version="1.0" encoding="UTF-8" standalone="no"?>
<!DOCTYPE svg PUBLIC "-//W3C//DTD SVG 1.1//EN"
 "http://www.w3.org/Graphics/SVG/1.1/DTD/svg11.dtd">
<!-- Generated by graphviz version 2.43.0 (0)
 -->
<!-- Title: ClassDefImpl::IMPL Pages: 1 -->
<svg width="1082pt" height="636pt"
 viewBox="0.00 0.00 1082.00 636.00" xmlns="http://www.w3.org/2000/svg" xmlns:xlink="http://www.w3.org/1999/xlink">
<g id="graph0" class="graph" transform="scale(1 1) rotate(0) translate(4 632)">
<title>ClassDefImpl::IMPL</title>
<!-- Node1 -->
<g id="node1" class="node">
<title>Node1</title>
<g id="a_node1"><a xlink:title="Private data associated with a ClassDef object.">
<polygon fill="#999999" stroke="#666666" points="1074,-276.5 963,-276.5 963,-257.5 1074,-257.5 1074,-276.5"/>
<text text-anchor="middle" x="1018.5" y="-264.5" font-family="Helvetica,sans-Serif" font-size="10.00">ClassDefImpl::IMPL</text>
</a>
</g>
</g>
<!-- Node2 -->
<g id="node2" class="node">
<title>Node2</title>
<g id="a_node2"><a xlink:href="../../d9/d45/class_q_c_string.html" target="_top" xlink:title="This is an alternative implementation of QCString.">
<polygon fill="white" stroke="#666666" points="407.5,-492.5 348.5,-492.5 348.5,-473.5 407.5,-473.5 407.5,-492.5"/>
<text text-anchor="middle" x="378" y="-480.5" font-family="Helvetica,sans-Serif" font-size="10.00">QCString</text>
</a>
</g>
</g>
<!-- Node2&#45;&gt;Node1 -->
<g id="edge1" class="edge">
<title>Node2&#45;&gt;Node1</title>
<path fill="none" stroke="#9a32cd" stroke-dasharray="5,2" d="M413.63,-495.91C509.06,-529.06 779.72,-606.47 945,-486 1015.56,-434.57 1018.52,-311.92 1017.85,-276.64"/>
<polygon fill="#9a32cd" stroke="#9a32cd" points="414.76,-492.6 404.17,-492.57 412.43,-499.2 414.76,-492.6"/>
<text text-anchor="middle" x="691" y="-620" font-family="Helvetica,sans-Serif" font-size="10.00"> className</text>
<text text-anchor="middle" x="691" y="-609" font-family="Helvetica,sans-Serif" font-size="10.00">collabFileName</text>
<text text-anchor="middle" x="691" y="-598" font-family="Helvetica,sans-Serif" font-size="10.00">fileName</text>
<text text-anchor="middle" x="691" y="-587" font-family="Helvetica,sans-Serif" font-size="10.00">inheritFileName</text>
<text text-anchor="middle" x="691" y="-576" font-family="Helvetica,sans-Serif" font-size="10.00">memberListFileName</text>
<text text-anchor="middle" x="691" y="-565" font-family="Helvetica,sans-Serif" font-size="10.00">metaData</text>
<text text-anchor="middle" x="691" y="-554" font-family="Helvetica,sans-Serif" font-size="10.00">requiresClause</text>
</g>
<!-- Node9 -->
<g id="node9" class="node">
<title>Node9</title>
<g id="a_node9"><a xlink:href="../../d7/df8/class_argument_list.html" target="_top" xlink:title="This class represents an function or template argument list.">
<polygon fill="white" stroke="#666666" points="732,-468.5 650,-468.5 650,-449.5 732,-449.5 732,-468.5"/>
<text text-anchor="middle" x="691" y="-456.5" font-family="Helvetica,sans-Serif" font-size="10.00">ArgumentList</text>
</a>
</g>
</g>
<!-- Node2&#45;&gt;Node9 -->
<g id="edge9" class="edge">
<title>Node2&#45;&gt;Node9</title>
<path fill="none" stroke="#9a32cd" stroke-dasharray="5,2" d="M417.79,-480.01C477.15,-475.43 589.93,-466.72 650,-462.09"/>
<polygon fill="#9a32cd" stroke="#9a32cd" points="417.4,-476.53 407.7,-480.79 417.94,-483.51 417.4,-476.53"/>
<text text-anchor="middle" x="540" y="-477" font-family="Helvetica,sans-Serif" font-size="10.00"> m_trailingReturnType</text>
</g>
<!-- Node3 -->
<g id="node3" class="node">
<title>Node3</title>
<g id="a_node3"><a xlink:href="../../de/db0/class_file_def.html" target="_top" xlink:title="A model of a file symbol.">
<polygon fill="white" stroke="#666666" points="716.5,-431.5 665.5,-431.5 665.5,-412.5 716.5,-412.5 716.5,-431.5"/>
<text text-anchor="middle" x="691" y="-419.5" font-family="Helvetica,sans-Serif" font-size="10.00">FileDef</text>
</a>
</g>
</g>
<!-- Node3&#45;&gt;Node1 -->
<g id="edge2" class="edge">
<title>Node3&#45;&gt;Node1</title>
<path fill="none" stroke="#9a32cd" stroke-dasharray="5,2" d="M727.16,-423.43C788.06,-425.26 910.02,-425.82 945,-403 991.39,-372.74 1010.16,-302.5 1015.65,-276.71"/>
<polygon fill="#9a32cd" stroke="#9a32cd" points="726.99,-419.93 716.88,-423.09 726.76,-426.92 726.99,-419.93"/>
<text text-anchor="middle" x="866.5" y="-427" font-family="Helvetica,sans-Serif" font-size="10.00"> fileDef</text>
</g>
<!-- Node4 -->
<g id="node4" class="node">
<title>Node4</title>
<g id="a_node4"><a xlink:href="../../d0/d46/class_definition_mutable.html" target="_top" xlink:title=" ">
<polygon fill="white" stroke="#666666" points="430,-436.5 326,-436.5 326,-417.5 430,-417.5 430,-436.5"/>
<text text-anchor="middle" x="378" y="-424.5" font-family="Helvetica,sans-Serif" font-size="10.00">DefinitionMutable</text>
</a>
</g>
</g>
<!-- Node4&#45;&gt;Node3 -->
<g id="edge3" class="edge">
<title>Node4&#45;&gt;Node3</title>
<path fill="none" stroke="#63b8ff" d="M440.27,-426.02C508.99,-424.91 617.15,-423.17 665.37,-422.4"/>
<polygon fill="#63b8ff" stroke="#63b8ff" points="439.95,-422.52 430.01,-426.18 440.06,-429.52 439.95,-422.52"/>
</g>
<!-- Node5 -->
<g id="node5" class="node">
<title>Node5</title>
<g id="a_node5"><a xlink:href="../../d5/dcc/class_definition.html" target="_top" xlink:title="The common base class of all entity definitions found in the sources.">
<polygon fill="white" stroke="#666666" points="410,-386.5 346,-386.5 346,-367.5 410,-367.5 410,-386.5"/>
<text text-anchor="middle" x="378" y="-374.5" font-family="Helvetica,sans-Serif" font-size="10.00">Definition</text>
</a>
</g>
</g>
<!-- Node5&#45;&gt;Node3 -->
<g id="edge4" class="edge">
<title>Node5&#45;&gt;Node3</title>
<path fill="none" stroke="#63b8ff" d="M420.24,-382.97C485.89,-392.47 612.16,-410.74 665.38,-418.44"/>
<polygon fill="#63b8ff" stroke="#63b8ff" points="420.64,-379.49 410.24,-381.52 419.64,-386.42 420.64,-379.49"/>
</g>
<!-- Node21 -->
<g id="node21" class="node">
<title>Node21</title>
<g id="a_node21"><a xlink:href="../../d1/dcf/class_class_def.html" target="_top" xlink:title="A abstract class representing of a compound symbol.">
<polygon fill="white" stroke="#666666" points="721,-390.5 661,-390.5 661,-371.5 721,-371.5 721,-390.5"/>
<text text-anchor="middle" x="691" y="-378.5" font-family="Helvetica,sans-Serif" font-size="10.00">ClassDef</text>
</a>
</g>
</g>
<!-- Node5&#45;&gt;Node21 -->
<g id="edge22" class="edge">
<title>Node5&#45;&gt;Node21</title>
<path fill="none" stroke="#63b8ff" d="M420.34,-377.53C484.13,-378.35 604.96,-379.91 660.6,-380.62"/>
<polygon fill="#63b8ff" stroke="#63b8ff" points="420.29,-374.03 410.24,-377.4 420.2,-381.03 420.29,-374.03"/>
</g>
<!-- Node26 -->
<g id="node26" class="node">
<title>Node26</title>
<g id="a_node26"><a xlink:href="../../da/d09/class_member_def.html" target="_top" xlink:title="A model of a class/file/namespace member symbol.">
<polygon fill="white" stroke="#666666" points="728,-353.5 654,-353.5 654,-334.5 728,-334.5 728,-353.5"/>
<text text-anchor="middle" x="691" y="-341.5" font-family="Helvetica,sans-Serif" font-size="10.00">MemberDef</text>
</a>
</g>
</g>
<!-- Node5&#45;&gt;Node26 -->
<g id="edge28" class="edge">
<title>Node5&#45;&gt;Node26</title>
<path fill="none" stroke="#63b8ff" d="M420.32,-372.62C481.51,-366.12 595.26,-354.05 653.53,-347.87"/>
<polygon fill="#63b8ff" stroke="#63b8ff" points="419.82,-369.15 410.24,-373.68 420.56,-376.11 419.82,-369.15"/>
</g>
<!-- Node6 -->
<g id="node6" class="node">
<title>Node6</title>
<g id="a_node6"><a xlink:href="../../de/d04/class_member_name_info_linked_map.html" target="_top" xlink:title=" ">
<polygon fill="white" stroke="#666666" points="770,-316.5 612,-316.5 612,-297.5 770,-297.5 770,-316.5"/>
<text text-anchor="middle" x="691" y="-304.5" font-family="Helvetica,sans-Serif" font-size="10.00">MemberNameInfoLinkedMap</text>
</a>
</g>
</g>
<!-- Node6&#45;&gt;Node1 -->
<g id="edge5" class="edge">
<title>Node6&#45;&gt;Node1</title>
<path fill="none" stroke="#9a32cd" stroke-dasharray="5,2" d="M780.39,-298.4C829.04,-293.36 890.44,-286.53 945,-279 950.81,-278.2 956.88,-277.3 962.92,-276.36"/>
<polygon fill="#9a32cd" stroke="#9a32cd" points="779.8,-294.94 770.21,-299.44 780.51,-301.9 779.8,-294.94"/>
<text text-anchor="middle" x="866.5" y="-300" font-family="Helvetica,sans-Serif" font-size="10.00"> allMemberNameInfoLinkedMap</text>
</g>
<!-- Node7 -->
<g id="node7" class="node">
<title>Node7</title>
<g id="a_node7"><a xlink:href="../../d0/d2c/class_linked_map.html" target="_top" xlink:title=" ">
<polygon fill="white" stroke="#666666" points="468,-335.5 288,-335.5 288,-316.5 468,-316.5 468,-335.5"/>
<text text-anchor="middle" x="378" y="-323.5" font-family="Helvetica,sans-Serif" font-size="10.00">LinkedMap&lt; MemberNameInfo &gt;</text>
</a>
</g>
</g>
<!-- Node7&#45;&gt;Node6 -->
<g id="edge6" class="edge">
<title>Node7&#45;&gt;Node6</title>
<path fill="none" stroke="#63b8ff" d="M478.1,-319.95C521.38,-317.3 571.4,-314.25 611.97,-311.77"/>
<polygon fill="#63b8ff" stroke="#63b8ff" points="477.89,-316.45 468.12,-320.56 478.31,-323.44 477.89,-316.45"/>
</g>
<!-- Node8 -->
<g id="node8" class="node">
<title>Node8</title>
<g id="a_node8"><a xlink:href="../../d0/d2c/class_linked_map.html" target="_top" xlink:title="Container class representing a vector of objects with keys.">
<polygon fill="white" stroke="#666666" points="128.5,-341 8.5,-341 8.5,-311 128.5,-311 128.5,-341"/>
<text text-anchor="start" x="16.5" y="-329" font-family="Helvetica,sans-Serif" font-size="10.00">LinkedMap&lt; T, Hash,</text>
<text text-anchor="middle" x="68.5" y="-318" font-family="Helvetica,sans-Serif" font-size="10.00"> KeyEqual, Map &gt;</text>
</a>
</g>
</g>
<!-- Node8&#45;&gt;Node7 -->
<g id="edge7" class="edge">
<title>Node8&#45;&gt;Node7</title>
<path fill="none" stroke="orange" stroke-dasharray="5,2" d="M138.84,-326C182.92,-326 240.43,-326 287.89,-326"/>
<polygon fill="orange" stroke="orange" points="138.79,-322.5 128.79,-326 138.79,-329.5 138.79,-322.5"/>
<text text-anchor="middle" x="212.5" y="-329" font-family="Helvetica,sans-Serif" font-size="10.00"> &lt; MemberNameInfo &gt;</text>
</g>
<!-- Node9&#45;&gt;Node1 -->
<g id="edge8" class="edge">
<title>Node9&#45;&gt;Node1</title>
<path fill="none" stroke="#9a32cd" stroke-dasharray="5,2" d="M742.57,-460.59C807,-461.61 913.76,-459.64 945,-437 1000.08,-397.08 1013.65,-306.69 1016.69,-276.8"/>
<polygon fill="#9a32cd" stroke="#9a32cd" points="742.29,-457.08 732.22,-460.39 742.15,-464.08 742.29,-457.08"/>
<text text-anchor="middle" x="866.5" y="-474" font-family="Helvetica,sans-Serif" font-size="10.00"> tempArgs</text>
<text text-anchor="middle" x="866.5" y="-463" font-family="Helvetica,sans-Serif" font-size="10.00">typeConstraints</text>
</g>
<!-- Node10 -->
<g id="node10" class="node">
<title>Node10</title>
<g id="a_node10"><a xlink:href="../../d0/d18/class_file_list.html" target="_top" xlink:title=" ">
<polygon fill="white" stroke="#666666" points="716.5,-279.5 665.5,-279.5 665.5,-260.5 716.5,-260.5 716.5,-279.5"/>
<text text-anchor="middle" x="691" y="-267.5" font-family="Helvetica,sans-Serif" font-size="10.00">FileList</text>
</a>
</g>
</g>
<!-- Node10&#45;&gt;Node1 -->
<g id="edge10" class="edge">
<title>Node10&#45;&gt;Node1</title>
<path fill="none" stroke="#9a32cd" stroke-dasharray="5,2" d="M727.01,-269.13C745.2,-268.72 767.8,-268.25 788,-268 847.76,-267.25 916.28,-267.03 962.78,-266.99"/>
<polygon fill="#9a32cd" stroke="#9a32cd" points="726.78,-265.64 716.86,-269.37 726.94,-272.63 726.78,-265.64"/>
<text text-anchor="middle" x="866.5" y="-271" font-family="Helvetica,sans-Serif" font-size="10.00"> files</text>
</g>
<!-- Node11 -->
<g id="node11" class="node">
<title>Node11</title>
<g id="a_node11"><a xlink:title=" ">
<polygon fill="white" stroke="#666666" points="431,-298 325,-298 325,-268 431,-268 431,-298"/>
<text text-anchor="start" x="333" y="-286" font-family="Helvetica,sans-Serif" font-size="10.00">std::vector&lt; const</text>
<text text-anchor="middle" x="378" y="-275" font-family="Helvetica,sans-Serif" font-size="10.00"> FileDef * &gt;</text>
</a>
</g>
</g>
<!-- Node11&#45;&gt;Node10 -->
<g id="edge11" class="edge">
<title>Node11&#45;&gt;Node10</title>
<path fill="none" stroke="#63b8ff" d="M441.31,-280.4C509.99,-277.52 617.09,-273.05 665.17,-271.04"/>
<polygon fill="#63b8ff" stroke="#63b8ff" points="440.9,-276.91 431.05,-280.82 441.19,-283.9 440.9,-276.91"/>
</g>
<!-- Node12 -->
<g id="node12" class="node">
<title>Node12</title>
<g id="a_node12"><a xlink:href="../../d1/d48/class_example_list.html" target="_top" xlink:title=" ">
<polygon fill="white" stroke="#666666" points="729.5,-242.5 652.5,-242.5 652.5,-223.5 729.5,-223.5 729.5,-242.5"/>
<text text-anchor="middle" x="691" y="-230.5" font-family="Helvetica,sans-Serif" font-size="10.00">ExampleList</text>
</a>
</g>
</g>
<!-- Node12&#45;&gt;Node1 -->
<g id="edge12" class="edge">
<title>Node12&#45;&gt;Node1</title>
<path fill="none" stroke="#9a32cd" stroke-dasharray="5,2" d="M739.96,-234.76C790.99,-237.06 873.99,-242.03 945,-252 955.06,-253.41 965.81,-255.38 975.87,-257.43"/>
<polygon fill="#9a32cd" stroke="#9a32cd" points="740.03,-231.26 729.88,-234.32 739.72,-238.25 740.03,-231.26"/>
<text text-anchor="middle" x="866.5" y="-255" font-family="Helvetica,sans-Serif" font-size="10.00"> examples</text>
</g>
<!-- Node13 -->
<g id="node13" class="node">
<title>Node13</title>
<g id="a_node13"><a xlink:title=" ">
<polygon fill="white" stroke="#666666" points="445,-249.5 311,-249.5 311,-230.5 445,-230.5 445,-249.5"/>
<text text-anchor="middle" x="378" y="-237.5" font-family="Helvetica,sans-Serif" font-size="10.00">std::vector&lt; Example &gt;</text>
</a>
</g>
</g>
<!-- Node13&#45;&gt;Node12 -->
<g id="edge13" class="edge">
<title>Node13&#45;&gt;Node12</title>
<path fill="none" stroke="#63b8ff" d="M455.53,-238.28C517.94,-236.87 603.46,-234.95 652.09,-233.85"/>
<polygon fill="#63b8ff" stroke="#63b8ff" points="455.25,-234.78 445.34,-238.51 455.41,-241.78 455.25,-234.78"/>
</g>
<!-- Node14 -->
<g id="node14" class="node">
<title>Node14</title>
<g id="a_node14"><a xlink:href="../../da/d08/class_class_linked_ref_map.html" target="_top" xlink:title=" ">
<polygon fill="white" stroke="#666666" points="747,-205.5 635,-205.5 635,-186.5 747,-186.5 747,-205.5"/>
<text text-anchor="middle" x="691" y="-193.5" font-family="Helvetica,sans-Serif" font-size="10.00">ClassLinkedRefMap</text>
</a>
</g>
</g>
<!-- Node14&#45;&gt;Node1 -->
<g id="edge14" class="edge">
<title>Node14&#45;&gt;Node1</title>
<path fill="none" stroke="#9a32cd" stroke-dasharray="5,2" d="M757.18,-194.72C809.32,-195.57 883.59,-201.04 945,-222 968.27,-229.94 991.85,-246.51 1005.55,-257.17"/>
<polygon fill="#9a32cd" stroke="#9a32cd" points="757.1,-191.22 747.06,-194.61 757.02,-198.22 757.1,-191.22"/>
<text text-anchor="middle" x="866.5" y="-225" font-family="Helvetica,sans-Serif" font-size="10.00"> innerClasses</text>
</g>
<!-- Node15 -->
<g id="node15" class="node">
<title>Node15</title>
<g id="a_node15"><a xlink:href="../../d2/db7/class_linked_ref_map.html" target="_top" xlink:title=" ">
<polygon fill="white" stroke="#666666" points="439.5,-212 316.5,-212 316.5,-182 439.5,-182 439.5,-212"/>
<text text-anchor="start" x="324.5" y="-200" font-family="Helvetica,sans-Serif" font-size="10.00">LinkedRefMap&lt; const</text>
<text text-anchor="middle" x="378" y="-189" font-family="Helvetica,sans-Serif" font-size="10.00"> ClassDef &gt;</text>
</a>
</g>
</g>
<!-- Node15&#45;&gt;Node14 -->
<g id="edge15" class="edge">
<title>Node15&#45;&gt;Node14</title>
<path fill="none" stroke="#63b8ff" d="M449.93,-196.77C506.08,-196.59 583.37,-196.34 634.92,-196.18"/>
<polygon fill="#63b8ff" stroke="#63b8ff" points="449.69,-193.27 439.7,-196.8 449.71,-200.27 449.69,-193.27"/>
</g>
<!-- Node16 -->
<g id="node16" class="node">
<title>Node16</title>
<g id="a_node16"><a xlink:href="../../d2/db7/class_linked_ref_map.html" target="_top" xlink:title="Container class representing a vector of objects with keys.">
<polygon fill="white" stroke="#666666" points="137,-212 0,-212 0,-182 137,-182 137,-212"/>
<text text-anchor="start" x="8" y="-200" font-family="Helvetica,sans-Serif" font-size="10.00">LinkedRefMap&lt; T, Hash,</text>
<text text-anchor="middle" x="68.5" y="-189" font-family="Helvetica,sans-Serif" font-size="10.00"> KeyEqual, Map &gt;</text>
</a>
</g>
</g>
<!-- Node16&#45;&gt;Node15 -->
<g id="edge16" class="edge">
<title>Node16&#45;&gt;Node15</title>
<path fill="none" stroke="orange" stroke-dasharray="5,2" d="M147.62,-197C200.02,-197 268.02,-197 316.34,-197"/>
<polygon fill="orange" stroke="orange" points="147.36,-193.5 137.36,-197 147.36,-200.5 147.36,-193.5"/>
<text text-anchor="middle" x="212.5" y="-200" font-family="Helvetica,sans-Serif" font-size="10.00"> &lt; const ClassDef &gt;</text>
</g>
<!-- Node17 -->
<g id="node17" class="node">
<title>Node17</title>
<g id="a_node17"><a xlink:href="../../dd/d1c/class_uses_class_list.html" target="_top" xlink:title=" ">
<polygon fill="white" stroke="#666666" points="733,-163.5 649,-163.5 649,-144.5 733,-144.5 733,-163.5"/>
<text text-anchor="middle" x="691" y="-151.5" font-family="Helvetica,sans-Serif" font-size="10.00">UsesClassList</text>
</a>
</g>
</g>
<!-- Node17&#45;&gt;Node1 -->
<g id="edge17" class="edge">
<title>Node17&#45;&gt;Node1</title>
<path fill="none" stroke="#9a32cd" stroke-dasharray="5,2" d="M743.41,-144.91C797.11,-138.08 882.12,-134.93 945,-169 981.84,-188.96 1005.06,-236.67 1013.7,-257.26"/>
<polygon fill="#9a32cd" stroke="#9a32cd" points="742.87,-141.45 733.43,-146.27 743.81,-148.39 742.87,-141.45"/>
<text text-anchor="middle" x="866.5" y="-183" font-family="Helvetica,sans-Serif" font-size="10.00"> usedByImplClassList</text>
<text text-anchor="middle" x="866.5" y="-172" font-family="Helvetica,sans-Serif" font-size="10.00">usesImplClassList</text>
</g>
<!-- Node18 -->
<g id="node18" class="node">
<title>Node18</title>
<g id="a_node18"><a xlink:title=" ">
<polygon fill="white" stroke="#666666" points="457,-163.5 299,-163.5 299,-144.5 457,-144.5 457,-163.5"/>
<text text-anchor="middle" x="378" y="-151.5" font-family="Helvetica,sans-Serif" font-size="10.00">std::vector&lt; UsesClassDef &gt;</text>
</a>
</g>
</g>
<!-- Node18&#45;&gt;Node17 -->
<g id="edge18" class="edge">
<title>Node18&#45;&gt;Node17</title>
<path fill="none" stroke="#63b8ff" d="M467.24,-154C526.77,-154 602.59,-154 648.65,-154"/>
<polygon fill="#63b8ff" stroke="#63b8ff" points="467.08,-150.5 457.08,-154 467.08,-157.5 467.08,-150.5"/>
</g>
<!-- Node19 -->
<g id="node19" class="node">
<title>Node19</title>
<g id="a_node19"><a xlink:href="../../d6/d69/class_constraint_class_list.html" target="_top" xlink:title=" ">
<polygon fill="white" stroke="#666666" points="746,-123.5 636,-123.5 636,-104.5 746,-104.5 746,-123.5"/>
<text text-anchor="middle" x="691" y="-111.5" font-family="Helvetica,sans-Serif" font-size="10.00">ConstraintClassList</text>
</a>
</g>
</g>
<!-- Node19&#45;&gt;Node1 -->
<g id="edge19" class="edge">
<title>Node19&#45;&gt;Node1</title>
<path fill="none" stroke="#9a32cd" stroke-dasharray="5,2" d="M740.78,-102.55C795.15,-92.66 883.49,-85.48 945,-125 993.44,-156.12 1011.03,-230.41 1015.92,-257.18"/>
<polygon fill="#9a32cd" stroke="#9a32cd" points="739.87,-99.16 730.71,-104.48 741.19,-106.03 739.87,-99.16"/>
<text text-anchor="middle" x="866.5" y="-128" font-family="Helvetica,sans-Serif" font-size="10.00"> constraintClassList</text>
</g>
<!-- Node20 -->
<g id="node20" class="node">
<title>Node20</title>
<g id="a_node20"><a xlink:title=" ">
<polygon fill="white" stroke="#666666" points="456,-126 300,-126 300,-96 456,-96 456,-126"/>
<text text-anchor="start" x="308" y="-114" font-family="Helvetica,sans-Serif" font-size="10.00">std::vector&lt; ConstraintClass</text>
<text text-anchor="middle" x="378" y="-103" font-family="Helvetica,sans-Serif" font-size="10.00">Def &gt;</text>
</a>
</g>
</g>
<!-- Node20&#45;&gt;Node19 -->
<g id="edge20" class="edge">
<title>Node20&#45;&gt;Node19</title>
<path fill="none" stroke="#63b8ff" d="M466.6,-111.84C520.91,-112.37 588.97,-113.03 635.61,-113.48"/>
<polygon fill="#63b8ff" stroke="#63b8ff" points="466.31,-108.34 456.28,-111.75 466.24,-115.34 466.31,-108.34"/>
</g>
<!-- Node21&#45;&gt;Node1 -->
<g id="edge21" class="edge">
<title>Node21&#45;&gt;Node1</title>
<path fill="none" stroke="#9a32cd" stroke-dasharray="5,2" d="M731.15,-376.45C799.82,-368.38 935.65,-351.92 945,-347 976.69,-330.34 1001.45,-294.01 1011.98,-276.63"/>
<polygon fill="#9a32cd" stroke="#9a32cd" points="730.66,-372.99 721.13,-377.63 731.47,-379.94 730.66,-372.99"/>
<text text-anchor="middle" x="866.5" y="-394" font-family="Helvetica,sans-Serif" font-size="10.00"> categoryOf</text>
<text text-anchor="middle" x="866.5" y="-383" font-family="Helvetica,sans-Serif" font-size="10.00">tagLessRef</text>
<text text-anchor="middle" x="866.5" y="-372" font-family="Helvetica,sans-Serif" font-size="10.00">templateMaster</text>
</g>
<!-- Node22 -->
<g id="node22" class="node">
<title>Node22</title>
<g id="a_node22"><a xlink:href="../../dd/d5a/class_member_lists.html" target="_top" xlink:title=" ">
<polygon fill="white" stroke="#666666" points="731,-77.5 651,-77.5 651,-58.5 731,-58.5 731,-77.5"/>
<text text-anchor="middle" x="691" y="-65.5" font-family="Helvetica,sans-Serif" font-size="10.00">MemberLists</text>
</a>
</g>
</g>
<!-- Node22&#45;&gt;Node1 -->
<g id="edge23" class="edge">
<title>Node22&#45;&gt;Node1</title>
<path fill="none" stroke="#9a32cd" stroke-dasharray="5,2" d="M741.52,-63.93C805.84,-59.69 913.59,-56.43 945,-79 1006.08,-122.89 1015.7,-225.66 1017.22,-257.46"/>
<polygon fill="#9a32cd" stroke="#9a32cd" points="740.94,-60.47 731.21,-64.65 741.43,-67.45 740.94,-60.47"/>
<text text-anchor="middle" x="866.5" y="-82" font-family="Helvetica,sans-Serif" font-size="10.00"> memberLists</text>
</g>
<!-- Node23 -->
<g id="node23" class="node">
<title>Node23</title>
<g id="a_node23"><a xlink:title=" ">
<polygon fill="white" stroke="#666666" points="445,-78 311,-78 311,-48 445,-48 445,-78"/>
<text text-anchor="start" x="319" y="-66" font-family="Helvetica,sans-Serif" font-size="10.00">std::vector&lt; std::unique</text>
<text text-anchor="middle" x="378" y="-55" font-family="Helvetica,sans-Serif" font-size="10.00">_ptr&lt; MemberList &gt; &gt;</text>
</a>
</g>
</g>
<!-- Node23&#45;&gt;Node22 -->
<g id="edge24" class="edge">
<title>Node23&#45;&gt;Node22</title>
<path fill="none" stroke="#63b8ff" d="M455.45,-64.23C517.3,-65.22 601.9,-66.58 650.77,-67.37"/>
<polygon fill="#63b8ff" stroke="#63b8ff" points="455.39,-60.73 445.34,-64.07 455.28,-67.73 455.39,-60.73"/>
</g>
<!-- Node24 -->
<g id="node24" class="node">
<title>Node24</title>
<g id="a_node24"><a xlink:href="../../df/d11/class_member_group_list.html" target="_top" xlink:title=" ">
<polygon fill="white" stroke="#666666" points="743,-35.5 639,-35.5 639,-16.5 743,-16.5 743,-35.5"/>
<text text-anchor="middle" x="691" y="-23.5" font-family="Helvetica,sans-Serif" font-size="10.00">MemberGroupList</text>
</a>
</g>
</g>
<!-- Node24&#45;&gt;Node1 -->
<g id="edge25" class="edge">
<title>Node24&#45;&gt;Node1</title>
<path fill="none" stroke="#9a32cd" stroke-dasharray="5,2" d="M742.33,-14.69C798,-5.3 887.41,0.16 945,-45 1014.55,-99.54 1018.22,-222.18 1017.78,-257.38"/>
<polygon fill="#9a32cd" stroke="#9a32cd" points="741.57,-11.27 732.34,-16.48 742.8,-18.16 741.57,-11.27"/>
<text text-anchor="middle" x="866.5" y="-48" font-family="Helvetica,sans-Serif" font-size="10.00"> memberGroups</text>
</g>
<!-- Node25 -->
<g id="node25" class="node">
<title>Node25</title>
<g id="a_node25"><a xlink:title=" ">
<polygon fill="white" stroke="#666666" points="447.5,-30 308.5,-30 308.5,0 447.5,0 447.5,-30"/>
<text text-anchor="start" x="316.5" y="-18" font-family="Helvetica,sans-Serif" font-size="10.00">std::vector&lt; std::unique</text>
<text text-anchor="middle" x="378" y="-7" font-family="Helvetica,sans-Serif" font-size="10.00">_ptr&lt; MemberGroup &gt; &gt;</text>
</a>
</g>
</g>
<!-- Node25&#45;&gt;Node24 -->
<g id="edge26" class="edge">
<title>Node25&#45;&gt;Node24</title>
<path fill="none" stroke="#63b8ff" d="M457.67,-17.78C514.53,-19.79 589.7,-22.45 638.92,-24.19"/>
<polygon fill="#63b8ff" stroke="#63b8ff" points="457.75,-14.28 447.64,-17.43 457.51,-21.28 457.75,-14.28"/>
</g>
<!-- Node26&#45;&gt;Node1 -->
<g id="edge27" class="edge">
<title>Node26&#45;&gt;Node1</title>
<path fill="none" stroke="#9a32cd" stroke-dasharray="5,2" d="M738.01,-339.26C805.64,-332.12 925.97,-318.74 945,-312 968.32,-303.73 992.07,-287.1 1005.76,-276.54"/>
<polygon fill="#9a32cd" stroke="#9a32cd" points="737.61,-335.78 728.03,-340.3 738.34,-342.74 737.61,-335.78"/>
<text text-anchor="middle" x="866.5" y="-336" font-family="Helvetica,sans-Serif" font-size="10.00"> arrowOperator</text>
</g>
</g>
</svg>
