<?xml version="1.0" encoding="UTF-8" standalone="no"?>
<!DOCTYPE svg PUBLIC "-//W3C//DTD SVG 1.1//EN"
 "http://www.w3.org/Graphics/SVG/1.1/DTD/svg11.dtd">
<!-- Generated by graphviz version 2.43.0 (0)
 -->
<!-- Title: TranslatorAdapter_1_6_0 Pages: 1 -->
<!--zoomable 304 -->
<svg id="main" version="1.1" xmlns="http://www.w3.org/2000/svg" xmlns:xlink="http://www.w3.org/1999/xlink" xml:space="preserve" onload="init(evt)">
<style type="text/css"><![CDATA[
.edge:hover path { stroke: red; }
.edge:hover polygon { stroke: red; fill: red; }
]]></style>
<script type="text/javascript"><![CDATA[
var edges = document.getElementsByTagName('g');
if (edges && edges.length) {
  for (var i=0;i<edges.length;i++) {
    if (edges[i].id.substr(0,4)=='edge') {
      edges[i].setAttribute('class','edge');
    }
  }
}
]]></script>
        <defs>
                <circle id="rim" cx="0" cy="0" r="7"/>
                <circle id="rim2" cx="0" cy="0" r="3.5"/>
                <g id="zoomPlus">
                        <use xlink:href="#rim" fill="#404040">
                                <set attributeName="fill" to="#808080" begin="zoomplus.mouseover" end="zoomplus.mouseout"/>
                        </use>
                        <path d="M-4,0h8M0,-4v8" fill="none" stroke="white" stroke-width="1.5" pointer-events="none"/>
                </g>
                <g id="zoomMin">
                        <use xlink:href="#rim" fill="#404040">
                                <set attributeName="fill" to="#808080" begin="zoomminus.mouseover" end="zoomminus.mouseout"/>
                        </use>
                        <path d="M-4,0h8" fill="none" stroke="white" stroke-width="1.5" pointer-events="none"/>
                </g>
                <g id="dirArrow">
                        <path fill="none" stroke="white" stroke-width="1.5" d="M0,-3.0v7 M-2.5,-0.5L0,-3.0L2.5,-0.5"/>
                </g>
               <g id="resetDef">
                       <use xlink:href="#rim2" fill="#404040">
                               <set attributeName="fill" to="#808080" begin="reset.mouseover" end="reset.mouseout"/>
                       </use>
               </g>
        </defs>

<script type="text/javascript">
var viewWidth = 2304;
var viewHeight = 304;
var sectionId = 'dynsection-0';
</script>
<script xlink:href="../../svgpan.js"/>
<svg id="graph" class="graph">
<g id="viewport">
<title>TranslatorAdapter_1_6_0</title>
<!-- Node1 -->
<g id="node1" class="node">
<title>Node1</title>
<g id="a_node1"><a xlink:title="Adapter class for languages that only contain translations up to version 1.6.0.">
<polygon fill="#999999" stroke="#666666" points="1970,-130 1833,-130 1833,-111 1970,-111 1970,-130"/>
<text text-anchor="middle" x="1901.5" y="-118" font-family="Helvetica,sans-Serif" font-size="10.00">TranslatorAdapter_1_6_0</text>
</a>
</g>
</g>
<!-- Node13 -->
<g id="node13" class="node">
<title>Node13</title>
<g id="a_node13"><a xlink:href="../../d4/d2b/class_translator_adapter__1__4__6.html" target="_top" xlink:title="Adapter class for languages that only contain translations up to version 1.4.6.">
<polygon fill="white" stroke="#666666" points="2143,-241 2006,-241 2006,-222 2143,-222 2143,-241"/>
<text text-anchor="middle" x="2074.5" y="-229" font-family="Helvetica,sans-Serif" font-size="10.00">TranslatorAdapter_1_4_6</text>
</a>
</g>
</g>
<!-- Node1&#45;&gt;Node13 -->
<g id="edge12" class="edge">
<title>Node1&#45;&gt;Node13</title>
<path fill="none" stroke="#63b8ff" d="M1917.39,-137.85C1936.06,-158.55 1970.04,-192.83 2006,-212.5 2012.94,-216.3 2020.71,-219.39 2028.44,-221.89"/>
<polygon fill="#63b8ff" stroke="#63b8ff" points="1919.82,-135.31 1910.57,-130.14 1914.57,-139.95 1919.82,-135.31"/>
</g>
<!-- Node18 -->
<g id="node18" class="node">
<title>Node18</title>
<g id="a_node18"><a xlink:href="../../d3/d65/class_translator_afrikaans.html" target="_top" xlink:title=" ">
<polygon fill="white" stroke="#666666" points="2129.5,-204 2019.5,-204 2019.5,-185 2129.5,-185 2129.5,-204"/>
<text text-anchor="middle" x="2074.5" y="-192" font-family="Helvetica,sans-Serif" font-size="10.00">TranslatorAfrikaans</text>
</a>
</g>
</g>
<!-- Node1&#45;&gt;Node18 -->
<g id="edge17" class="edge">
<title>Node1&#45;&gt;Node18</title>
<path fill="none" stroke="#63b8ff" d="M1926.82,-135.34C1947.35,-147.4 1977.83,-164.2 2006,-175.5 2014.93,-179.08 2024.77,-182.26 2034.12,-184.95"/>
<polygon fill="#63b8ff" stroke="#63b8ff" points="1928.51,-132.27 1918.13,-130.17 1924.93,-138.29 1928.51,-132.27"/>
</g>
<!-- Node19 -->
<g id="node19" class="node">
<title>Node19</title>
<g id="a_node19"><a xlink:href="../../de/df7/class_translator_finnish.html" target="_top" xlink:title=" ">
<polygon fill="white" stroke="#666666" points="2124,-167 2025,-167 2025,-148 2124,-148 2124,-167"/>
<text text-anchor="middle" x="2074.5" y="-155" font-family="Helvetica,sans-Serif" font-size="10.00">TranslatorFinnish</text>
</a>
</g>
</g>
<!-- Node1&#45;&gt;Node19 -->
<g id="edge18" class="edge">
<title>Node1&#45;&gt;Node19</title>
<path fill="none" stroke="#63b8ff" d="M1956.35,-132.15C1979.84,-137.23 2007.04,-143.12 2029.32,-147.94"/>
<polygon fill="#63b8ff" stroke="#63b8ff" points="1957.05,-128.72 1946.54,-130.03 1955.57,-135.56 1957.05,-128.72"/>
</g>
<!-- Node20 -->
<g id="node20" class="node">
<title>Node20</title>
<g id="a_node20"><a xlink:href="../../d9/ddf/class_translator_macedonian.html" target="_top" xlink:title=" ">
<polygon fill="white" stroke="#666666" points="2136.5,-130 2012.5,-130 2012.5,-111 2136.5,-111 2136.5,-130"/>
<text text-anchor="middle" x="2074.5" y="-118" font-family="Helvetica,sans-Serif" font-size="10.00">TranslatorMacedonian</text>
</a>
</g>
</g>
<!-- Node1&#45;&gt;Node20 -->
<g id="edge19" class="edge">
<title>Node1&#45;&gt;Node20</title>
<path fill="none" stroke="#63b8ff" d="M1980.28,-120.5C1991,-120.5 2001.88,-120.5 2012.24,-120.5"/>
<polygon fill="#63b8ff" stroke="#63b8ff" points="1980.08,-117 1970.08,-120.5 1980.08,-124 1980.08,-117"/>
</g>
<!-- Node21 -->
<g id="node21" class="node">
<title>Node21</title>
<g id="a_node21"><a xlink:href="../../d5/d0a/class_translator_serbian.html" target="_top" xlink:title=" ">
<polygon fill="white" stroke="#666666" points="2125,-93 2024,-93 2024,-74 2125,-74 2125,-93"/>
<text text-anchor="middle" x="2074.5" y="-81" font-family="Helvetica,sans-Serif" font-size="10.00">TranslatorSerbian</text>
</a>
</g>
</g>
<!-- Node1&#45;&gt;Node21 -->
<g id="edge20" class="edge">
<title>Node1&#45;&gt;Node21</title>
<path fill="none" stroke="#63b8ff" d="M1956.35,-108.85C1979.84,-103.77 2007.04,-97.88 2029.32,-93.06"/>
<polygon fill="#63b8ff" stroke="#63b8ff" points="1955.57,-105.44 1946.54,-110.97 1957.05,-112.28 1955.57,-105.44"/>
</g>
<!-- Node22 -->
<g id="node22" class="node">
<title>Node22</title>
<g id="a_node22"><a xlink:href="../../dc/d03/class_translator_serbian_cyrillic.html" target="_top" xlink:title=" ">
<polygon fill="white" stroke="#666666" points="2142,-56 2007,-56 2007,-37 2142,-37 2142,-56"/>
<text text-anchor="middle" x="2074.5" y="-44" font-family="Helvetica,sans-Serif" font-size="10.00">TranslatorSerbianCyrillic</text>
</a>
</g>
</g>
<!-- Node1&#45;&gt;Node22 -->
<g id="edge21" class="edge">
<title>Node1&#45;&gt;Node22</title>
<path fill="none" stroke="#63b8ff" d="M1926.03,-105.69C1946.52,-93.3 1977.35,-75.89 2006,-64.5 2014.11,-61.27 2023,-58.44 2031.59,-56.03"/>
<polygon fill="#63b8ff" stroke="#63b8ff" points="1924.08,-102.78 1917.39,-110.99 1927.74,-108.74 1924.08,-102.78"/>
</g>
<!-- Node23 -->
<g id="node23" class="node">
<title>Node23</title>
<g id="a_node23"><a xlink:href="../../df/d20/class_translator_vietnamese.html" target="_top" xlink:title=" ">
<polygon fill="white" stroke="#666666" points="2136,-19 2013,-19 2013,0 2136,0 2136,-19"/>
<text text-anchor="middle" x="2074.5" y="-7" font-family="Helvetica,sans-Serif" font-size="10.00">TranslatorVietnamese</text>
</a>
</g>
</g>
<!-- Node1&#45;&gt;Node23 -->
<g id="edge22" class="edge">
<title>Node1&#45;&gt;Node23</title>
<path fill="none" stroke="#63b8ff" d="M1917.01,-103.2C1935.54,-82.22 1969.59,-47.21 2006,-27.5 2012.29,-24.09 2019.27,-21.3 2026.28,-19.02"/>
<polygon fill="#63b8ff" stroke="#63b8ff" points="1914.17,-101.14 1910.27,-111 1919.46,-105.72 1914.17,-101.14"/>
</g>
<!-- Node2 -->
<g id="node2" class="node">
<title>Node2</title>
<g id="a_node2"><a xlink:href="../../da/d24/class_translator_adapter__1__7__5.html" target="_top" xlink:title="Adapter class for languages that only contain translations up to version 1.7.5.">
<polygon fill="white" stroke="#666666" points="1797,-130 1660,-130 1660,-111 1797,-111 1797,-130"/>
<text text-anchor="middle" x="1728.5" y="-118" font-family="Helvetica,sans-Serif" font-size="10.00">TranslatorAdapter_1_7_5</text>
</a>
</g>
</g>
<!-- Node2&#45;&gt;Node1 -->
<g id="edge1" class="edge">
<title>Node2&#45;&gt;Node1</title>
<path fill="none" stroke="#63b8ff" d="M1807.1,-120.5C1815.69,-120.5 1824.39,-120.5 1832.85,-120.5"/>
<polygon fill="#63b8ff" stroke="#63b8ff" points="1807.08,-117 1797.08,-120.5 1807.08,-124 1807.08,-117"/>
</g>
<!-- Node3 -->
<g id="node3" class="node">
<title>Node3</title>
<g id="a_node3"><a xlink:href="../../de/d49/class_translator_adapter__1__8__0.html" target="_top" xlink:title="Adapter class for languages that only contain translations up to version 1.8.0.">
<polygon fill="white" stroke="#666666" points="1624,-130 1487,-130 1487,-111 1624,-111 1624,-130"/>
<text text-anchor="middle" x="1555.5" y="-118" font-family="Helvetica,sans-Serif" font-size="10.00">TranslatorAdapter_1_8_0</text>
</a>
</g>
</g>
<!-- Node3&#45;&gt;Node2 -->
<g id="edge2" class="edge">
<title>Node3&#45;&gt;Node2</title>
<path fill="none" stroke="#63b8ff" d="M1634.1,-120.5C1642.69,-120.5 1651.39,-120.5 1659.85,-120.5"/>
<polygon fill="#63b8ff" stroke="#63b8ff" points="1634.08,-117 1624.08,-120.5 1634.08,-124 1634.08,-117"/>
</g>
<!-- Node4 -->
<g id="node4" class="node">
<title>Node4</title>
<g id="a_node4"><a xlink:href="../../d2/d75/class_translator_adapter__1__8__2.html" target="_top" xlink:title=" ">
<polygon fill="white" stroke="#666666" points="1451,-130 1314,-130 1314,-111 1451,-111 1451,-130"/>
<text text-anchor="middle" x="1382.5" y="-118" font-family="Helvetica,sans-Serif" font-size="10.00">TranslatorAdapter_1_8_2</text>
</a>
</g>
</g>
<!-- Node4&#45;&gt;Node3 -->
<g id="edge3" class="edge">
<title>Node4&#45;&gt;Node3</title>
<path fill="none" stroke="#63b8ff" d="M1461.1,-120.5C1469.69,-120.5 1478.39,-120.5 1486.85,-120.5"/>
<polygon fill="#63b8ff" stroke="#63b8ff" points="1461.08,-117 1451.08,-120.5 1461.08,-124 1461.08,-117"/>
</g>
<!-- Node5 -->
<g id="node5" class="node">
<title>Node5</title>
<g id="a_node5"><a xlink:href="../../de/d2f/class_translator_adapter__1__8__4.html" target="_top" xlink:title=" ">
<polygon fill="white" stroke="#666666" points="1278,-130 1141,-130 1141,-111 1278,-111 1278,-130"/>
<text text-anchor="middle" x="1209.5" y="-118" font-family="Helvetica,sans-Serif" font-size="10.00">TranslatorAdapter_1_8_4</text>
</a>
</g>
</g>
<!-- Node5&#45;&gt;Node4 -->
<g id="edge4" class="edge">
<title>Node5&#45;&gt;Node4</title>
<path fill="none" stroke="#63b8ff" d="M1288.1,-120.5C1296.69,-120.5 1305.39,-120.5 1313.85,-120.5"/>
<polygon fill="#63b8ff" stroke="#63b8ff" points="1288.08,-117 1278.08,-120.5 1288.08,-124 1288.08,-117"/>
</g>
<!-- Node6 -->
<g id="node6" class="node">
<title>Node6</title>
<g id="a_node6"><a xlink:href="../../d4/d2e/class_translator_adapter__1__8__15.html" target="_top" xlink:title=" ">
<polygon fill="white" stroke="#666666" points="1105,-130 962,-130 962,-111 1105,-111 1105,-130"/>
<text text-anchor="middle" x="1033.5" y="-118" font-family="Helvetica,sans-Serif" font-size="10.00">TranslatorAdapter_1_8_15</text>
</a>
</g>
</g>
<!-- Node6&#45;&gt;Node5 -->
<g id="edge5" class="edge">
<title>Node6&#45;&gt;Node5</title>
<path fill="none" stroke="#63b8ff" d="M1115.12,-120.5C1123.77,-120.5 1132.5,-120.5 1140.98,-120.5"/>
<polygon fill="#63b8ff" stroke="#63b8ff" points="1115.02,-117 1105.02,-120.5 1115.02,-124 1115.02,-117"/>
</g>
<!-- Node7 -->
<g id="node7" class="node">
<title>Node7</title>
<g id="a_node7"><a xlink:href="../../de/dde/class_translator_adapter__1__8__19.html" target="_top" xlink:title=" ">
<polygon fill="white" stroke="#666666" points="926,-130 783,-130 783,-111 926,-111 926,-130"/>
<text text-anchor="middle" x="854.5" y="-118" font-family="Helvetica,sans-Serif" font-size="10.00">TranslatorAdapter_1_8_19</text>
</a>
</g>
</g>
<!-- Node7&#45;&gt;Node6 -->
<g id="edge6" class="edge">
<title>Node7&#45;&gt;Node6</title>
<path fill="none" stroke="#63b8ff" d="M936.49,-120.5C944.97,-120.5 953.54,-120.5 961.89,-120.5"/>
<polygon fill="#63b8ff" stroke="#63b8ff" points="936.22,-117 926.22,-120.5 936.22,-124 936.22,-117"/>
</g>
<!-- Node8 -->
<g id="node8" class="node">
<title>Node8</title>
<g id="a_node8"><a xlink:href="../../d3/d2e/class_translator_adapter__1__9__2.html" target="_top" xlink:title=" ">
<polygon fill="white" stroke="#666666" points="747,-130 610,-130 610,-111 747,-111 747,-130"/>
<text text-anchor="middle" x="678.5" y="-118" font-family="Helvetica,sans-Serif" font-size="10.00">TranslatorAdapter_1_9_2</text>
</a>
</g>
</g>
<!-- Node8&#45;&gt;Node7 -->
<g id="edge7" class="edge">
<title>Node8&#45;&gt;Node7</title>
<path fill="none" stroke="#63b8ff" d="M757.47,-120.5C765.89,-120.5 774.42,-120.5 782.75,-120.5"/>
<polygon fill="#63b8ff" stroke="#63b8ff" points="757.27,-117 747.27,-120.5 757.27,-124 757.27,-117"/>
</g>
<!-- Node9 -->
<g id="node9" class="node">
<title>Node9</title>
<g id="a_node9"><a xlink:href="../../d0/d33/class_translator_adapter__1__9__4.html" target="_top" xlink:title=" ">
<polygon fill="white" stroke="#666666" points="574,-130 437,-130 437,-111 574,-111 574,-130"/>
<text text-anchor="middle" x="505.5" y="-118" font-family="Helvetica,sans-Serif" font-size="10.00">TranslatorAdapter_1_9_4</text>
</a>
</g>
</g>
<!-- Node9&#45;&gt;Node8 -->
<g id="edge8" class="edge">
<title>Node9&#45;&gt;Node8</title>
<path fill="none" stroke="#63b8ff" d="M584.1,-120.5C592.69,-120.5 601.39,-120.5 609.85,-120.5"/>
<polygon fill="#63b8ff" stroke="#63b8ff" points="584.08,-117 574.08,-120.5 584.08,-124 584.08,-117"/>
</g>
<!-- Node10 -->
<g id="node10" class="node">
<title>Node10</title>
<g id="a_node10"><a xlink:href="../../dd/dba/class_translator_adapter__1__9__5.html" target="_top" xlink:title=" ">
<polygon fill="white" stroke="#666666" points="401,-130 264,-130 264,-111 401,-111 401,-130"/>
<text text-anchor="middle" x="332.5" y="-118" font-family="Helvetica,sans-Serif" font-size="10.00">TranslatorAdapter_1_9_5</text>
</a>
</g>
</g>
<!-- Node10&#45;&gt;Node9 -->
<g id="edge9" class="edge">
<title>Node10&#45;&gt;Node9</title>
<path fill="none" stroke="#63b8ff" d="M411.1,-120.5C419.69,-120.5 428.39,-120.5 436.85,-120.5"/>
<polygon fill="#63b8ff" stroke="#63b8ff" points="411.08,-117 401.08,-120.5 411.08,-124 411.08,-117"/>
</g>
<!-- Node11 -->
<g id="node11" class="node">
<title>Node11</title>
<g id="a_node11"><a xlink:href="../../db/d6c/class_translator_adapter_base.html" target="_top" xlink:title="Base of the translator adapter tree.">
<polygon fill="white" stroke="#666666" points="228,-130 101,-130 101,-111 228,-111 228,-130"/>
<text text-anchor="middle" x="164.5" y="-118" font-family="Helvetica,sans-Serif" font-size="10.00">TranslatorAdapterBase</text>
</a>
</g>
</g>
<!-- Node11&#45;&gt;Node10 -->
<g id="edge10" class="edge">
<title>Node11&#45;&gt;Node10</title>
<path fill="none" stroke="#63b8ff" d="M238.49,-120.5C246.95,-120.5 255.56,-120.5 263.94,-120.5"/>
<polygon fill="#63b8ff" stroke="#63b8ff" points="238.26,-117 228.26,-120.5 238.26,-124 238.26,-117"/>
</g>
<!-- Node12 -->
<g id="node12" class="node">
<title>Node12</title>
<g id="a_node12"><a xlink:href="../../d8/dfb/class_translator.html" target="_top" xlink:title="Abstract base class for all translatable text fragments.">
<polygon fill="white" stroke="#666666" points="65,-130 0,-130 0,-111 65,-111 65,-130"/>
<text text-anchor="middle" x="32.5" y="-118" font-family="Helvetica,sans-Serif" font-size="10.00">Translator</text>
</a>
</g>
</g>
<!-- Node12&#45;&gt;Node11 -->
<g id="edge11" class="edge">
<title>Node12&#45;&gt;Node11</title>
<path fill="none" stroke="#63b8ff" d="M75.54,-120.5C83.6,-120.5 92.2,-120.5 100.75,-120.5"/>
<polygon fill="#63b8ff" stroke="#63b8ff" points="75.3,-117 65.3,-120.5 75.3,-124 75.3,-117"/>
</g>
<!-- Node14 -->
<g id="node14" class="node">
<title>Node14</title>
<g id="a_node14"><a xlink:href="../../d3/de9/class_translator_arabic.html" target="_top" xlink:title=" ">
<polygon fill="white" stroke="#666666" points="2285,-296 2190,-296 2190,-277 2285,-277 2285,-296"/>
<text text-anchor="middle" x="2237.5" y="-284" font-family="Helvetica,sans-Serif" font-size="10.00">TranslatorArabic</text>
</a>
</g>
</g>
<!-- Node13&#45;&gt;Node14 -->
<g id="edge13" class="edge">
<title>Node13&#45;&gt;Node14</title>
<path fill="none" stroke="#63b8ff" d="M2110.94,-244.57C2130.87,-251.81 2156.25,-260.88 2179,-268.5 2187.43,-271.33 2196.6,-274.26 2205.09,-276.92"/>
<polygon fill="#63b8ff" stroke="#63b8ff" points="2111.94,-241.2 2101.35,-241.06 2109.54,-247.78 2111.94,-241.2"/>
</g>
<!-- Node15 -->
<g id="node15" class="node">
<title>Node15</title>
<g id="a_node15"><a xlink:href="../../dc/d53/class_translator_lithuanian.html" target="_top" xlink:title=" ">
<polygon fill="white" stroke="#666666" points="2295.5,-259 2179.5,-259 2179.5,-240 2295.5,-240 2295.5,-259"/>
<text text-anchor="middle" x="2237.5" y="-247" font-family="Helvetica,sans-Serif" font-size="10.00">TranslatorLithuanian</text>
</a>
</g>
</g>
<!-- Node13&#45;&gt;Node15 -->
<g id="edge14" class="edge">
<title>Node13&#45;&gt;Node15</title>
<path fill="none" stroke="#63b8ff" d="M2153.53,-240.22C2162.27,-241.2 2171.05,-242.18 2179.46,-243.12"/>
<polygon fill="#63b8ff" stroke="#63b8ff" points="2153.64,-236.71 2143.31,-239.08 2152.86,-243.67 2153.64,-236.71"/>
</g>
<!-- Node16 -->
<g id="node16" class="node">
<title>Node16</title>
<g id="a_node16"><a xlink:href="../../dd/d38/class_translator_norwegian.html" target="_top" xlink:title=" ">
<polygon fill="white" stroke="#666666" points="2296,-222 2179,-222 2179,-203 2296,-203 2296,-222"/>
<text text-anchor="middle" x="2237.5" y="-210" font-family="Helvetica,sans-Serif" font-size="10.00">TranslatorNorwegian</text>
</a>
</g>
</g>
<!-- Node13&#45;&gt;Node16 -->
<g id="edge15" class="edge">
<title>Node13&#45;&gt;Node16</title>
<path fill="none" stroke="#63b8ff" d="M2153.38,-222.31C2162,-221.29 2170.66,-220.27 2178.96,-219.29"/>
<polygon fill="#63b8ff" stroke="#63b8ff" points="2152.83,-218.85 2143.31,-223.5 2153.65,-225.8 2152.83,-218.85"/>
</g>
<!-- Node17 -->
<g id="node17" class="node">
<title>Node17</title>
<g id="a_node17"><a xlink:href="../../dd/d0b/class_translator_slovene.html" target="_top" xlink:title=" ">
<polygon fill="white" stroke="#666666" points="2289.5,-185 2185.5,-185 2185.5,-166 2289.5,-166 2289.5,-185"/>
<text text-anchor="middle" x="2237.5" y="-173" font-family="Helvetica,sans-Serif" font-size="10.00">TranslatorSlovene</text>
</a>
</g>
</g>
<!-- Node13&#45;&gt;Node17 -->
<g id="edge16" class="edge">
<title>Node13&#45;&gt;Node17</title>
<path fill="none" stroke="#63b8ff" d="M2124.63,-218.99C2130.88,-217.01 2137.14,-214.84 2143,-212.5 2159.8,-205.79 2162.3,-200.45 2179,-193.5 2186.44,-190.4 2194.6,-187.54 2202.38,-185.05"/>
<polygon fill="#63b8ff" stroke="#63b8ff" points="2123.44,-215.69 2114.87,-221.93 2125.46,-222.4 2123.44,-215.69"/>
</g>
</g>
</svg>
        <g id="navigator" transform="translate(0 0)" fill="#404254">
                <rect fill="#f2f5e9" fill-opacity="0.5" stroke="#606060" stroke-width=".5" x="0" y="0" width="60" height="60"/>
                <use id="zoomplus" xlink:href="#zoomPlus" x="17" y="9" onmousedown="handleZoom(evt,'in')"/>
                <use id="zoomminus" xlink:href="#zoomMin" x="42" y="9" onmousedown="handleZoom(evt,'out')"/>
                <use id="reset" xlink:href="#resetDef" x="30" y="36" onmousedown="handleReset()"/>
                <g id="arrowUp" xlink:href="#dirArrow" transform="translate(30 24)" onmousedown="handlePan(0,-1)">
                  <use xlink:href="#rim" fill="#404040">
                        <set attributeName="fill" to="#808080" begin="arrowUp.mouseover" end="arrowUp.mouseout"/>
                  </use>
                  <path fill="none" stroke="white" stroke-width="1.5" d="M0,-3.0v7 M-2.5,-0.5L0,-3.0L2.5,-0.5"/>
                </g>
                <g id="arrowRight" xlink:href="#dirArrow" transform="rotate(90) translate(36 -43)" onmousedown="handlePan(1,0)">
                  <use xlink:href="#rim" fill="#404040">
                        <set attributeName="fill" to="#808080" begin="arrowRight.mouseover" end="arrowRight.mouseout"/>
                  </use>
                  <path fill="none" stroke="white" stroke-width="1.5" d="M0,-3.0v7 M-2.5,-0.5L0,-3.0L2.5,-0.5"/>
                </g>
                <g id="arrowDown" xlink:href="#dirArrow" transform="rotate(180) translate(-30 -48)" onmousedown="handlePan(0,1)">
                  <use xlink:href="#rim" fill="#404040">
                        <set attributeName="fill" to="#808080" begin="arrowDown.mouseover" end="arrowDown.mouseout"/>
                  </use>
                  <path fill="none" stroke="white" stroke-width="1.5" d="M0,-3.0v7 M-2.5,-0.5L0,-3.0L2.5,-0.5"/>
                </g>
                <g id="arrowLeft" xlink:href="#dirArrow" transform="rotate(270) translate(-36 17)" onmousedown="handlePan(-1,0)">
                  <use xlink:href="#rim" fill="#404040">
                        <set attributeName="fill" to="#808080" begin="arrowLeft.mouseover" end="arrowLeft.mouseout"/>
                  </use>
                  <path fill="none" stroke="white" stroke-width="1.5" d="M0,-3.0v7 M-2.5,-0.5L0,-3.0L2.5,-0.5"/>
                </g>
        </g>
        <svg viewBox="0 0 15 15" width="100%" height="30px" preserveAspectRatio="xMaxYMin meet">
         <g id="arrow_out" transform="scale(0.3 0.3)">
          <a xlink:href="class_translator_adapter__1__6__0__inherit__graph_org.svg" target="_base">
           <rect id="button" ry="5" rx="5" y="6" x="6" height="38" width="38"
                fill="#f2f5e9" fill-opacity="0.5" stroke="#606060" stroke-width="1.0"/>
           <path id="arrow"
             d="M 11.500037,31.436501 C 11.940474,20.09759 22.043105,11.32322 32.158766,21.979434 L 37.068811,17.246167 C 37.068811,17.246167 37.088388,32 37.088388,32 L 22.160133,31.978069 C 22.160133,31.978069 26.997745,27.140456 26.997745,27.140456 C 18.528582,18.264221 13.291696,25.230495 11.500037,31.436501 z"
             style="fill:#404040;"/>
          </a>
         </g>
        </svg>
</svg>
