<?xml version="1.0" encoding="UTF-8" standalone="no"?>
<!DOCTYPE svg PUBLIC "-//W3C//DTD SVG 1.1//EN"
 "http://www.w3.org/Graphics/SVG/1.1/DTD/svg11.dtd">
<!-- Generated by graphviz version 2.43.0 (0)
 -->
<!-- Title: preYY_state Pages: 1 -->
<!--zoomable 315 -->
<svg id="main" version="1.1" xmlns="http://www.w3.org/2000/svg" xmlns:xlink="http://www.w3.org/1999/xlink" xml:space="preserve" onload="init(evt)">
<style type="text/css"><![CDATA[
.edge:hover path { stroke: red; }
.edge:hover polygon { stroke: red; fill: red; }
]]></style>
<script type="text/javascript"><![CDATA[
var edges = document.getElementsByTagName('g');
if (edges && edges.length) {
  for (var i=0;i<edges.length;i++) {
    if (edges[i].id.substr(0,4)=='edge') {
      edges[i].setAttribute('class','edge');
    }
  }
}
]]></script>
        <defs>
                <circle id="rim" cx="0" cy="0" r="7"/>
                <circle id="rim2" cx="0" cy="0" r="3.5"/>
                <g id="zoomPlus">
                        <use xlink:href="#rim" fill="#404040">
                                <set attributeName="fill" to="#808080" begin="zoomplus.mouseover" end="zoomplus.mouseout"/>
                        </use>
                        <path d="M-4,0h8M0,-4v8" fill="none" stroke="white" stroke-width="1.5" pointer-events="none"/>
                </g>
                <g id="zoomMin">
                        <use xlink:href="#rim" fill="#404040">
                                <set attributeName="fill" to="#808080" begin="zoomminus.mouseover" end="zoomminus.mouseout"/>
                        </use>
                        <path d="M-4,0h8" fill="none" stroke="white" stroke-width="1.5" pointer-events="none"/>
                </g>
                <g id="dirArrow">
                        <path fill="none" stroke="white" stroke-width="1.5" d="M0,-3.0v7 M-2.5,-0.5L0,-3.0L2.5,-0.5"/>
                </g>
               <g id="resetDef">
                       <use xlink:href="#rim2" fill="#404040">
                               <set attributeName="fill" to="#808080" begin="reset.mouseover" end="reset.mouseout"/>
                       </use>
               </g>
        </defs>

<script type="text/javascript">
var viewWidth = 1010;
var viewHeight = 315;
var sectionId = 'dynsection-0';
</script>
<script xlink:href="../../svgpan.js"/>
<svg id="graph" class="graph">
<g id="viewport">
<title>preYY_state</title>
<!-- Node1 -->
<g id="node1" class="node">
<title>Node1</title>
<g id="a_node1"><a xlink:title=" ">
<polygon fill="#999999" stroke="#666666" points="1002,-107.5 928,-107.5 928,-88.5 1002,-88.5 1002,-107.5"/>
<text text-anchor="middle" x="965" y="-95.5" font-family="Helvetica,sans-Serif" font-size="10.00">preYY_state</text>
</a>
</g>
</g>
<!-- Node2 -->
<g id="node2" class="node">
<title>Node2</title>
<g id="a_node2"><a xlink:href="../../d9/d45/class_q_c_string.html" target="_top" xlink:title="This is an alternative implementation of QCString.">
<polygon fill="white" stroke="#666666" points="756,-197.5 697,-197.5 697,-178.5 756,-178.5 756,-197.5"/>
<text text-anchor="middle" x="726.5" y="-185.5" font-family="Helvetica,sans-Serif" font-size="10.00">QCString</text>
</a>
</g>
</g>
<!-- Node2&#45;&gt;Node1 -->
<g id="edge1" class="edge">
<title>Node2&#45;&gt;Node1</title>
<path fill="none" stroke="#9a32cd" stroke-dasharray="5,2" d="M766.37,-190.24C805.14,-190.76 865.21,-186.8 910,-162 933.15,-149.18 950.68,-122.24 958.87,-107.74"/>
<polygon fill="#9a32cd" stroke="#9a32cd" points="766.12,-186.73 756.03,-189.99 765.95,-193.73 766.12,-186.73"/>
<text text-anchor="middle" x="867.5" y="-299" font-family="Helvetica,sans-Serif" font-size="10.00"> blockName</text>
<text text-anchor="middle" x="867.5" y="-288" font-family="Helvetica,sans-Serif" font-size="10.00">defArgsStr</text>
<text text-anchor="middle" x="867.5" y="-277" font-family="Helvetica,sans-Serif" font-size="10.00">defExtraSpacing</text>
<text text-anchor="middle" x="867.5" y="-266" font-family="Helvetica,sans-Serif" font-size="10.00">defLitText</text>
<text text-anchor="middle" x="867.5" y="-255" font-family="Helvetica,sans-Serif" font-size="10.00">defName</text>
<text text-anchor="middle" x="867.5" y="-244" font-family="Helvetica,sans-Serif" font-size="10.00">defText</text>
<text text-anchor="middle" x="867.5" y="-233" font-family="Helvetica,sans-Serif" font-size="10.00">delimiter</text>
<text text-anchor="middle" x="867.5" y="-222" font-family="Helvetica,sans-Serif" font-size="10.00">fileName</text>
<text text-anchor="middle" x="867.5" y="-211" font-family="Helvetica,sans-Serif" font-size="10.00">guardExpr</text>
<text text-anchor="middle" x="867.5" y="-200" font-family="Helvetica,sans-Serif" font-size="10.00">guardName</text>
<text text-anchor="middle" x="867.5" y="-189" font-family="Helvetica,sans-Serif" font-size="10.00">...</text>
</g>
<!-- Node3 -->
<g id="node3" class="node">
<title>Node3</title>
<g id="a_node3"><a xlink:href="../../de/db0/class_file_def.html" target="_top" xlink:title="A model of a file symbol.">
<polygon fill="white" stroke="#666666" points="752,-152.5 701,-152.5 701,-133.5 752,-133.5 752,-152.5"/>
<text text-anchor="middle" x="726.5" y="-140.5" font-family="Helvetica,sans-Serif" font-size="10.00">FileDef</text>
</a>
</g>
</g>
<!-- Node3&#45;&gt;Node1 -->
<g id="edge2" class="edge">
<title>Node3&#45;&gt;Node1</title>
<path fill="none" stroke="#9a32cd" stroke-dasharray="5,2" d="M762.42,-141.72C799.56,-139.68 859.77,-134.43 910,-121 922.01,-117.79 934.84,-112.41 944.97,-107.67"/>
<polygon fill="#9a32cd" stroke="#9a32cd" points="761.93,-138.24 752.12,-142.23 762.28,-145.23 761.93,-138.24"/>
<text text-anchor="middle" x="867.5" y="-150" font-family="Helvetica,sans-Serif" font-size="10.00"> inputFileDef</text>
<text text-anchor="middle" x="867.5" y="-139" font-family="Helvetica,sans-Serif" font-size="10.00">yyFileDef</text>
</g>
<!-- Node4 -->
<g id="node4" class="node">
<title>Node4</title>
<g id="a_node4"><a xlink:href="../../d0/d46/class_definition_mutable.html" target="_top" xlink:title=" ">
<polygon fill="white" stroke="#666666" points="502,-153.5 398,-153.5 398,-134.5 502,-134.5 502,-153.5"/>
<text text-anchor="middle" x="450" y="-141.5" font-family="Helvetica,sans-Serif" font-size="10.00">DefinitionMutable</text>
</a>
</g>
</g>
<!-- Node4&#45;&gt;Node3 -->
<g id="edge3" class="edge">
<title>Node4&#45;&gt;Node3</title>
<path fill="none" stroke="#63b8ff" d="M512.31,-143.78C571.64,-143.56 658.59,-143.24 700.75,-143.09"/>
<polygon fill="#63b8ff" stroke="#63b8ff" points="512.3,-140.28 502.31,-143.81 512.32,-147.28 512.3,-140.28"/>
</g>
<!-- Node5 -->
<g id="node5" class="node">
<title>Node5</title>
<g id="a_node5"><a xlink:href="../../d5/dcc/class_definition.html" target="_top" xlink:title="The common base class of all entity definitions found in the sources.">
<polygon fill="white" stroke="#666666" points="482,-116.5 418,-116.5 418,-97.5 482,-97.5 482,-116.5"/>
<text text-anchor="middle" x="450" y="-104.5" font-family="Helvetica,sans-Serif" font-size="10.00">Definition</text>
</a>
</g>
</g>
<!-- Node5&#45;&gt;Node3 -->
<g id="edge4" class="edge">
<title>Node5&#45;&gt;Node3</title>
<path fill="none" stroke="#63b8ff" d="M492.48,-112.44C550.37,-120.03 653.58,-133.57 700.75,-139.75"/>
<polygon fill="#63b8ff" stroke="#63b8ff" points="492.59,-108.92 482.22,-111.09 491.68,-115.87 492.59,-108.92"/>
</g>
<!-- Node6 -->
<g id="node6" class="node">
<title>Node6</title>
<g id="a_node6"><a xlink:href="../../d5/d64/class_buf_str.html" target="_top" xlink:title="Buffer used to store strings.">
<polygon fill="white" stroke="#666666" points="750,-108.5 703,-108.5 703,-89.5 750,-89.5 750,-108.5"/>
<text text-anchor="middle" x="726.5" y="-96.5" font-family="Helvetica,sans-Serif" font-size="10.00">BufStr</text>
</a>
</g>
</g>
<!-- Node6&#45;&gt;Node1 -->
<g id="edge5" class="edge">
<title>Node6&#45;&gt;Node1</title>
<path fill="none" stroke="#9a32cd" stroke-dasharray="5,2" d="M760.32,-98.86C804.24,-98.68 881.91,-98.35 927.59,-98.15"/>
<polygon fill="#9a32cd" stroke="#9a32cd" points="760.16,-95.36 750.18,-98.9 760.19,-102.36 760.16,-95.36"/>
<text text-anchor="middle" x="867.5" y="-112" font-family="Helvetica,sans-Serif" font-size="10.00"> inputBuf</text>
<text text-anchor="middle" x="867.5" y="-101" font-family="Helvetica,sans-Serif" font-size="10.00">outputBuf</text>
</g>
<!-- Node7 -->
<g id="node7" class="node">
<title>Node7</title>
<g id="a_node7"><a xlink:href="../../db/d82/class_const_expression_parser.html" target="_top" xlink:title=" ">
<polygon fill="white" stroke="#666666" points="790.5,-71.5 662.5,-71.5 662.5,-52.5 790.5,-52.5 790.5,-71.5"/>
<text text-anchor="middle" x="726.5" y="-59.5" font-family="Helvetica,sans-Serif" font-size="10.00">ConstExpressionParser</text>
</a>
</g>
</g>
<!-- Node7&#45;&gt;Node1 -->
<g id="edge6" class="edge">
<title>Node7&#45;&gt;Node1</title>
<path fill="none" stroke="#9a32cd" stroke-dasharray="5,2" d="M800.96,-67.81C834.41,-71.13 874.4,-76.05 910,-83 917.45,-84.45 925.37,-86.41 932.79,-88.44"/>
<polygon fill="#9a32cd" stroke="#9a32cd" points="801.09,-64.31 790.8,-66.83 800.42,-71.27 801.09,-64.31"/>
<text text-anchor="middle" x="867.5" y="-86" font-family="Helvetica,sans-Serif" font-size="10.00"> constExpParser</text>
</g>
<!-- Node8 -->
<g id="node8" class="node">
<title>Node8</title>
<g id="a_node8"><a xlink:href="../../d7/dc3/struct_const_expression_parser_1_1_private.html" target="_top" xlink:title=" ">
<polygon fill="white" stroke="#666666" points="514,-78 386,-78 386,-48 514,-48 514,-78"/>
<text text-anchor="start" x="394" y="-66" font-family="Helvetica,sans-Serif" font-size="10.00">ConstExpressionParser</text>
<text text-anchor="middle" x="450" y="-55" font-family="Helvetica,sans-Serif" font-size="10.00">::Private</text>
</a>
</g>
</g>
<!-- Node8&#45;&gt;Node7 -->
<g id="edge7" class="edge">
<title>Node8&#45;&gt;Node7</title>
<path fill="none" stroke="#9a32cd" stroke-dasharray="5,2" d="M524.46,-62.73C567.53,-62.58 621.37,-62.38 662.5,-62.23"/>
<polygon fill="#9a32cd" stroke="#9a32cd" points="524.31,-59.23 514.32,-62.77 524.33,-66.23 524.31,-59.23"/>
<text text-anchor="middle" x="580" y="-65" font-family="Helvetica,sans-Serif" font-size="10.00"> p</text>
</g>
<!-- Node9 -->
<g id="node9" class="node">
<title>Node9</title>
<g id="a_node9"><a xlink:href="../../d3/d1e/structconstexp_y_y__state.html" target="_top" xlink:title=" ">
<polygon fill="white" stroke="#666666" points="259,-72.5 156,-72.5 156,-53.5 259,-53.5 259,-72.5"/>
<text text-anchor="middle" x="207.5" y="-60.5" font-family="Helvetica,sans-Serif" font-size="10.00">constexpYY_state</text>
</a>
</g>
</g>
<!-- Node9&#45;&gt;Node8 -->
<g id="edge8" class="edge">
<title>Node9&#45;&gt;Node8</title>
<path fill="none" stroke="#9a32cd" stroke-dasharray="5,2" d="M269.47,-63C305.09,-63 349.96,-63 385.94,-63"/>
<polygon fill="#9a32cd" stroke="#9a32cd" points="269.21,-59.5 259.21,-63 269.21,-66.5 269.21,-59.5"/>
<text text-anchor="middle" x="322.5" y="-66" font-family="Helvetica,sans-Serif" font-size="10.00"> constexpYY_extra</text>
</g>
<!-- Node10 -->
<g id="node10" class="node">
<title>Node10</title>
<g id="a_node10"><a xlink:href="../../d2/d75/class_c_p_p_value.html" target="_top" xlink:title="A class representing a C&#45;preprocessor value.">
<polygon fill="white" stroke="#666666" points="62,-72.5 0,-72.5 0,-53.5 62,-53.5 62,-72.5"/>
<text text-anchor="middle" x="31" y="-60.5" font-family="Helvetica,sans-Serif" font-size="10.00">CPPValue</text>
</a>
</g>
</g>
<!-- Node10&#45;&gt;Node9 -->
<g id="edge9" class="edge">
<title>Node10&#45;&gt;Node9</title>
<path fill="none" stroke="#9a32cd" stroke-dasharray="5,2" d="M72.58,-63C97.44,-63 129.47,-63 155.97,-63"/>
<polygon fill="#9a32cd" stroke="#9a32cd" points="72.4,-59.5 62.4,-63 72.4,-66.5 72.4,-59.5"/>
<text text-anchor="middle" x="109" y="-66" font-family="Helvetica,sans-Serif" font-size="10.00"> resultValue</text>
</g>
<!-- Node11 -->
<g id="node11" class="node">
<title>Node11</title>
<g id="a_node11"><a xlink:href="../../d0/d2c/class_linked_map.html" target="_top" xlink:title=" ">
<polygon fill="white" stroke="#666666" points="807,-29.5 646,-29.5 646,-10.5 807,-10.5 807,-29.5"/>
<text text-anchor="middle" x="726.5" y="-17.5" font-family="Helvetica,sans-Serif" font-size="10.00">LinkedMap&lt; PreIncludeInfo &gt;</text>
</a>
</g>
</g>
<!-- Node11&#45;&gt;Node1 -->
<g id="edge10" class="edge">
<title>Node11&#45;&gt;Node1</title>
<path fill="none" stroke="#9a32cd" stroke-dasharray="5,2" d="M817.48,-28.46C847.85,-33.58 881.3,-41.8 910,-55 927.64,-63.11 944.58,-78.18 954.64,-88.15"/>
<polygon fill="#9a32cd" stroke="#9a32cd" points="817.74,-24.95 807.31,-26.84 816.64,-31.87 817.74,-24.95"/>
<text text-anchor="middle" x="867.5" y="-58" font-family="Helvetica,sans-Serif" font-size="10.00"> includeRelations</text>
</g>
<!-- Node12 -->
<g id="node12" class="node">
<title>Node12</title>
<g id="a_node12"><a xlink:href="../../d0/d2c/class_linked_map.html" target="_top" xlink:title="Container class representing a vector of objects with keys.">
<polygon fill="white" stroke="#666666" points="510,-30 390,-30 390,0 510,0 510,-30"/>
<text text-anchor="start" x="398" y="-18" font-family="Helvetica,sans-Serif" font-size="10.00">LinkedMap&lt; T, Hash,</text>
<text text-anchor="middle" x="450" y="-7" font-family="Helvetica,sans-Serif" font-size="10.00"> KeyEqual, Map &gt;</text>
</a>
</g>
</g>
<!-- Node12&#45;&gt;Node11 -->
<g id="edge11" class="edge">
<title>Node12&#45;&gt;Node11</title>
<path fill="none" stroke="orange" stroke-dasharray="5,2" d="M520.23,-16.26C558.44,-16.96 606.06,-17.82 645.81,-18.55"/>
<polygon fill="orange" stroke="orange" points="520.29,-12.76 510.22,-16.08 520.16,-19.76 520.29,-12.76"/>
<text text-anchor="middle" x="580" y="-22" font-family="Helvetica,sans-Serif" font-size="10.00"> &lt; PreIncludeInfo &gt;</text>
</g>
</g>
</svg>
        <g id="navigator" transform="translate(0 0)" fill="#404254">
                <rect fill="#f2f5e9" fill-opacity="0.5" stroke="#606060" stroke-width=".5" x="0" y="0" width="60" height="60"/>
                <use id="zoomplus" xlink:href="#zoomPlus" x="17" y="9" onmousedown="handleZoom(evt,'in')"/>
                <use id="zoomminus" xlink:href="#zoomMin" x="42" y="9" onmousedown="handleZoom(evt,'out')"/>
                <use id="reset" xlink:href="#resetDef" x="30" y="36" onmousedown="handleReset()"/>
                <g id="arrowUp" xlink:href="#dirArrow" transform="translate(30 24)" onmousedown="handlePan(0,-1)">
                  <use xlink:href="#rim" fill="#404040">
                        <set attributeName="fill" to="#808080" begin="arrowUp.mouseover" end="arrowUp.mouseout"/>
                  </use>
                  <path fill="none" stroke="white" stroke-width="1.5" d="M0,-3.0v7 M-2.5,-0.5L0,-3.0L2.5,-0.5"/>
                </g>
                <g id="arrowRight" xlink:href="#dirArrow" transform="rotate(90) translate(36 -43)" onmousedown="handlePan(1,0)">
                  <use xlink:href="#rim" fill="#404040">
                        <set attributeName="fill" to="#808080" begin="arrowRight.mouseover" end="arrowRight.mouseout"/>
                  </use>
                  <path fill="none" stroke="white" stroke-width="1.5" d="M0,-3.0v7 M-2.5,-0.5L0,-3.0L2.5,-0.5"/>
                </g>
                <g id="arrowDown" xlink:href="#dirArrow" transform="rotate(180) translate(-30 -48)" onmousedown="handlePan(0,1)">
                  <use xlink:href="#rim" fill="#404040">
                        <set attributeName="fill" to="#808080" begin="arrowDown.mouseover" end="arrowDown.mouseout"/>
                  </use>
                  <path fill="none" stroke="white" stroke-width="1.5" d="M0,-3.0v7 M-2.5,-0.5L0,-3.0L2.5,-0.5"/>
                </g>
                <g id="arrowLeft" xlink:href="#dirArrow" transform="rotate(270) translate(-36 17)" onmousedown="handlePan(-1,0)">
                  <use xlink:href="#rim" fill="#404040">
                        <set attributeName="fill" to="#808080" begin="arrowLeft.mouseover" end="arrowLeft.mouseout"/>
                  </use>
                  <path fill="none" stroke="white" stroke-width="1.5" d="M0,-3.0v7 M-2.5,-0.5L0,-3.0L2.5,-0.5"/>
                </g>
        </g>
        <svg viewBox="0 0 15 15" width="100%" height="30px" preserveAspectRatio="xMaxYMin meet">
         <g id="arrow_out" transform="scale(0.3 0.3)">
          <a xlink:href="structpre_y_y__state__coll__graph_org.svg" target="_base">
           <rect id="button" ry="5" rx="5" y="6" x="6" height="38" width="38"
                fill="#f2f5e9" fill-opacity="0.5" stroke="#606060" stroke-width="1.0"/>
           <path id="arrow"
             d="M 11.500037,31.436501 C 11.940474,20.09759 22.043105,11.32322 32.158766,21.979434 L 37.068811,17.246167 C 37.068811,17.246167 37.088388,32 37.088388,32 L 22.160133,31.978069 C 22.160133,31.978069 26.997745,27.140456 26.997745,27.140456 C 18.528582,18.264221 13.291696,25.230495 11.500037,31.436501 z"
             style="fill:#404040;"/>
          </a>
         </g>
        </svg>
</svg>
