<?xml version="1.0" encoding="UTF-8" standalone="no"?>
<!DOCTYPE svg PUBLIC "-//W3C//DTD SVG 1.1//EN"
 "http://www.w3.org/Graphics/SVG/1.1/DTD/svg11.dtd">
<!-- Generated by graphviz version 2.43.0 (0)
 -->
<!-- Title: /home/runner/work/doxygen/doxygen/src/language.h Pages: 1 -->
<!--zoomable 478 -->
<svg id="main" version="1.1" xmlns="http://www.w3.org/2000/svg" xmlns:xlink="http://www.w3.org/1999/xlink" xml:space="preserve" onload="init(evt)">
<style type="text/css"><![CDATA[
.edge:hover path { stroke: red; }
.edge:hover polygon { stroke: red; fill: red; }
]]></style>
<script type="text/javascript"><![CDATA[
var edges = document.getElementsByTagName('g');
if (edges && edges.length) {
  for (var i=0;i<edges.length;i++) {
    if (edges[i].id.substr(0,4)=='edge') {
      edges[i].setAttribute('class','edge');
    }
  }
}
]]></script>
        <defs>
                <circle id="rim" cx="0" cy="0" r="7"/>
                <circle id="rim2" cx="0" cy="0" r="3.5"/>
                <g id="zoomPlus">
                        <use xlink:href="#rim" fill="#404040">
                                <set attributeName="fill" to="#808080" begin="zoomplus.mouseover" end="zoomplus.mouseout"/>
                        </use>
                        <path d="M-4,0h8M0,-4v8" fill="none" stroke="white" stroke-width="1.5" pointer-events="none"/>
                </g>
                <g id="zoomMin">
                        <use xlink:href="#rim" fill="#404040">
                                <set attributeName="fill" to="#808080" begin="zoomminus.mouseover" end="zoomminus.mouseout"/>
                        </use>
                        <path d="M-4,0h8" fill="none" stroke="white" stroke-width="1.5" pointer-events="none"/>
                </g>
                <g id="dirArrow">
                        <path fill="none" stroke="white" stroke-width="1.5" d="M0,-3.0v7 M-2.5,-0.5L0,-3.0L2.5,-0.5"/>
                </g>
               <g id="resetDef">
                       <use xlink:href="#rim2" fill="#404040">
                               <set attributeName="fill" to="#808080" begin="reset.mouseover" end="reset.mouseout"/>
                       </use>
               </g>
        </defs>

<script type="text/javascript">
var viewWidth = 1262;
var viewHeight = 478;
var sectionId = 'dynsection-0';
</script>
<script xlink:href="../../svgpan.js"/>
<svg id="graph" class="graph">
<g id="viewport">
<title>/home/runner/work/doxygen/doxygen/src/language.h</title>
<!-- Node1 -->
<g id="node1" class="node">
<title>Node1</title>
<g id="a_node1"><a xlink:title=" ">
<polygon fill="#999999" stroke="#666666" points="1110,-470 956,-470 956,-440 1110,-440 1110,-470"/>
<text text-anchor="start" x="964" y="-458" font-family="Helvetica,sans-Serif" font-size="10.00">/home/runner/work/doxygen</text>
<text text-anchor="middle" x="1033" y="-447" font-family="Helvetica,sans-Serif" font-size="10.00">/doxygen/src/language.h</text>
</a>
</g>
</g>
<!-- Node2 -->
<g id="node2" class="node">
<title>Node2</title>
<g id="a_node2"><a xlink:href="../../d9/df1/translator_8h.html" target="_top" xlink:title=" ">
<polygon fill="white" stroke="#666666" points="1037,-404 965,-404 965,-385 1037,-385 1037,-404"/>
<text text-anchor="middle" x="1001" y="-392" font-family="Helvetica,sans-Serif" font-size="10.00">translator.h</text>
</a>
</g>
</g>
<!-- Node1&#45;&gt;Node2 -->
<g id="edge1" class="edge">
<title>Node1&#45;&gt;Node2</title>
<path fill="none" stroke="#63b8ff" d="M1025.25,-439.84C1020.85,-431.78 1015.29,-421.62 1010.6,-413.06"/>
<polygon fill="#63b8ff" stroke="#63b8ff" points="1013.66,-411.36 1005.8,-404.27 1007.52,-414.72 1013.66,-411.36"/>
</g>
<!-- Node29 -->
<g id="node29" class="node">
<title>Node29</title>
<g id="a_node29"><a xlink:title=" ">
<polygon fill="#e0e0e0" stroke="#999999" points="1253.5,-294 1166.5,-294 1166.5,-275 1253.5,-275 1253.5,-294"/>
<text text-anchor="middle" x="1210" y="-282" font-family="Helvetica,sans-Serif" font-size="10.00">configvalues.h</text>
</a>
</g>
</g>
<!-- Node1&#45;&gt;Node29 -->
<g id="edge55" class="edge">
<title>Node1&#45;&gt;Node29</title>
<path fill="none" stroke="#63b8ff" d="M1047.79,-439.92C1080.55,-408.73 1159.09,-333.97 1193.44,-301.27"/>
<polygon fill="#63b8ff" stroke="#63b8ff" points="1195.97,-303.68 1200.8,-294.25 1191.15,-298.61 1195.97,-303.68"/>
</g>
<!-- Node3 -->
<g id="node3" class="node">
<title>Node3</title>
<g id="a_node3"><a xlink:href="../../d1/da6/classdef_8h.html" target="_top" xlink:title=" ">
<polygon fill="white" stroke="#666666" points="846.5,-349 781.5,-349 781.5,-330 846.5,-330 846.5,-349"/>
<text text-anchor="middle" x="814" y="-337" font-family="Helvetica,sans-Serif" font-size="10.00">classdef.h</text>
</a>
</g>
</g>
<!-- Node2&#45;&gt;Node3 -->
<g id="edge2" class="edge">
<title>Node2&#45;&gt;Node3</title>
<path fill="none" stroke="#63b8ff" d="M970.96,-384.98C939.29,-376.01 889.23,-361.82 854.19,-351.89"/>
<polygon fill="#63b8ff" stroke="#63b8ff" points="854.86,-348.44 844.28,-349.08 852.95,-355.18 854.86,-348.44"/>
</g>
<!-- Node28 -->
<g id="node28" class="node">
<title>Node28</title>
<g id="a_node28"><a xlink:href="../../db/d16/config_8h.html" target="_top" xlink:title=" ">
<polygon fill="white" stroke="#666666" points="1050.5,-349 995.5,-349 995.5,-330 1050.5,-330 1050.5,-349"/>
<text text-anchor="middle" x="1023" y="-337" font-family="Helvetica,sans-Serif" font-size="10.00">config.h</text>
</a>
</g>
</g>
<!-- Node2&#45;&gt;Node28 -->
<g id="edge50" class="edge">
<title>Node2&#45;&gt;Node28</title>
<path fill="none" stroke="#63b8ff" d="M1004.63,-384.75C1007.58,-377.65 1011.83,-367.4 1015.51,-358.56"/>
<polygon fill="#63b8ff" stroke="#63b8ff" points="1018.83,-359.67 1019.43,-349.09 1012.37,-356.98 1018.83,-359.67"/>
</g>
<!-- Node30 -->
<g id="node30" class="node">
<title>Node30</title>
<g id="a_node30"><a xlink:href="../../de/d1b/datetime_8h.html" target="_top" xlink:title=" ">
<polygon fill="white" stroke="#666666" points="329,-349 259,-349 259,-330 329,-330 329,-349"/>
<text text-anchor="middle" x="294" y="-337" font-family="Helvetica,sans-Serif" font-size="10.00">datetime.h</text>
</a>
</g>
</g>
<!-- Node2&#45;&gt;Node30 -->
<g id="edge52" class="edge">
<title>Node2&#45;&gt;Node30</title>
<path fill="none" stroke="#63b8ff" d="M964.97,-390.8C846.61,-381.93 469.9,-353.69 339.19,-343.89"/>
<polygon fill="#63b8ff" stroke="#63b8ff" points="339.35,-340.39 329.12,-343.13 338.83,-347.37 339.35,-340.39"/>
</g>
<!-- Node4 -->
<g id="node4" class="node">
<title>Node4</title>
<g id="a_node4"><a xlink:title=" ">
<polygon fill="#e0e0e0" stroke="#999999" points="824.5,-129 777.5,-129 777.5,-110 824.5,-110 824.5,-129"/>
<text text-anchor="middle" x="801" y="-117" font-family="Helvetica,sans-Serif" font-size="10.00">vector</text>
</a>
</g>
</g>
<!-- Node3&#45;&gt;Node4 -->
<g id="edge3" class="edge">
<title>Node3&#45;&gt;Node4</title>
<path fill="none" stroke="#63b8ff" d="M846.59,-336.74C921.09,-331.18 1094.75,-308.62 1059,-220 1024.53,-134.56 896.77,-121.31 834.94,-120.02"/>
<polygon fill="#63b8ff" stroke="#63b8ff" points="834.95,-116.52 824.91,-119.91 834.87,-123.52 834.95,-116.52"/>
</g>
<!-- Node5 -->
<g id="node5" class="node">
<title>Node5</title>
<g id="a_node5"><a xlink:title=" ">
<polygon fill="#e0e0e0" stroke="#999999" points="830,-239 798,-239 798,-220 830,-220 830,-239"/>
<text text-anchor="middle" x="814" y="-227" font-family="Helvetica,sans-Serif" font-size="10.00">set</text>
</a>
</g>
</g>
<!-- Node3&#45;&gt;Node5 -->
<g id="edge4" class="edge">
<title>Node3&#45;&gt;Node5</title>
<path fill="none" stroke="#63b8ff" d="M814,-329.66C814,-312.17 814,-272.8 814,-249.27"/>
<polygon fill="#63b8ff" stroke="#63b8ff" points="817.5,-249.16 814,-239.16 810.5,-249.16 817.5,-249.16"/>
</g>
<!-- Node6 -->
<g id="node6" class="node">
<title>Node6</title>
<g id="a_node6"><a xlink:href="../../d5/d75/containers_8h.html" target="_top" xlink:title=" ">
<polygon fill="white" stroke="#666666" points="943.5,-294 866.5,-294 866.5,-275 943.5,-275 943.5,-294"/>
<text text-anchor="middle" x="905" y="-282" font-family="Helvetica,sans-Serif" font-size="10.00">containers.h</text>
</a>
</g>
</g>
<!-- Node3&#45;&gt;Node6 -->
<g id="edge5" class="edge">
<title>Node3&#45;&gt;Node6</title>
<path fill="none" stroke="#63b8ff" d="M828.62,-329.98C842.86,-321.69 864.75,-308.94 881.45,-299.22"/>
<polygon fill="#63b8ff" stroke="#63b8ff" points="883.23,-302.23 890.11,-294.17 879.71,-296.18 883.23,-302.23"/>
</g>
<!-- Node12 -->
<g id="node12" class="node">
<title>Node12</title>
<g id="a_node12"><a xlink:href="../../df/da1/definition_8h.html" target="_top" xlink:title=" ">
<polygon fill="white" stroke="#666666" points="626.5,-294 555.5,-294 555.5,-275 626.5,-275 626.5,-294"/>
<text text-anchor="middle" x="591" y="-282" font-family="Helvetica,sans-Serif" font-size="10.00">definition.h</text>
</a>
</g>
</g>
<!-- Node3&#45;&gt;Node12 -->
<g id="edge13" class="edge">
<title>Node3&#45;&gt;Node12</title>
<path fill="none" stroke="#63b8ff" d="M781.1,-330.68C742.85,-321.59 679.5,-306.53 636.54,-296.32"/>
<polygon fill="#63b8ff" stroke="#63b8ff" points="637.16,-292.87 626.62,-293.97 635.54,-299.68 637.16,-292.87"/>
</g>
<!-- Node26 -->
<g id="node26" class="node">
<title>Node26</title>
<g id="a_node26"><a xlink:href="../../df/d9b/arguments_8h.html" target="_top" xlink:title=" ">
<polygon fill="white" stroke="#666666" points="438,-184 360,-184 360,-165 438,-165 438,-184"/>
<text text-anchor="middle" x="399" y="-172" font-family="Helvetica,sans-Serif" font-size="10.00">arguments.h</text>
</a>
</g>
</g>
<!-- Node3&#45;&gt;Node26 -->
<g id="edge41" class="edge">
<title>Node3&#45;&gt;Node26</title>
<path fill="none" stroke="#63b8ff" d="M781.17,-338.23C729.12,-336.68 625.41,-329.01 546,-294 490.25,-269.42 437.96,-218.06 413.49,-191.77"/>
<polygon fill="#63b8ff" stroke="#63b8ff" points="415.89,-189.2 406.56,-184.18 410.72,-193.92 415.89,-189.2"/>
</g>
<!-- Node27 -->
<g id="node27" class="node">
<title>Node27</title>
<g id="a_node27"><a xlink:href="../../d9/d11/membergroup_8h.html" target="_top" xlink:title=" ">
<polygon fill="white" stroke="#666666" points="754.5,-294 659.5,-294 659.5,-275 754.5,-275 754.5,-294"/>
<text text-anchor="middle" x="707" y="-282" font-family="Helvetica,sans-Serif" font-size="10.00">membergroup.h</text>
</a>
</g>
</g>
<!-- Node3&#45;&gt;Node27 -->
<g id="edge44" class="edge">
<title>Node3&#45;&gt;Node27</title>
<path fill="none" stroke="#63b8ff" d="M796.81,-329.98C779.75,-321.54 753.37,-308.47 733.6,-298.68"/>
<polygon fill="#63b8ff" stroke="#63b8ff" points="735.02,-295.47 724.5,-294.17 731.91,-301.75 735.02,-295.47"/>
</g>
<!-- Node6&#45;&gt;Node4 -->
<g id="edge6" class="edge">
<title>Node6&#45;&gt;Node4</title>
<path fill="none" stroke="#63b8ff" d="M943.87,-280.06C992.86,-274.07 1067.73,-258.46 1042,-220 995.28,-150.16 889.6,-129.29 835.03,-123.09"/>
<polygon fill="#63b8ff" stroke="#63b8ff" points="835.14,-119.58 824.83,-122.04 834.42,-126.55 835.14,-119.58"/>
</g>
<!-- Node6&#45;&gt;Node5 -->
<g id="edge8" class="edge">
<title>Node6&#45;&gt;Node5</title>
<path fill="none" stroke="#63b8ff" d="M890.38,-274.98C876.14,-266.69 854.25,-253.94 837.55,-244.22"/>
<polygon fill="#63b8ff" stroke="#63b8ff" points="839.29,-241.18 828.89,-239.17 835.77,-247.23 839.29,-241.18"/>
</g>
<!-- Node7 -->
<g id="node7" class="node">
<title>Node7</title>
<g id="a_node7"><a xlink:title=" ">
<polygon fill="#e0e0e0" stroke="#999999" points="444,-19 400,-19 400,0 444,0 444,-19"/>
<text text-anchor="middle" x="422" y="-7" font-family="Helvetica,sans-Serif" font-size="10.00">string</text>
</a>
</g>
</g>
<!-- Node6&#45;&gt;Node7 -->
<g id="edge7" class="edge">
<title>Node6&#45;&gt;Node7</title>
<path fill="none" stroke="#63b8ff" d="M943.53,-279.44C1000.35,-271.08 1100,-246.32 1100,-175.5 1100,-175.5 1100,-175.5 1100,-118.5 1100,-52.28 589.07,-19.64 454.28,-12.19"/>
<polygon fill="#63b8ff" stroke="#63b8ff" points="454.35,-8.68 444.17,-11.63 453.97,-15.67 454.35,-8.68"/>
</g>
<!-- Node8 -->
<g id="node8" class="node">
<title>Node8</title>
<g id="a_node8"><a xlink:title=" ">
<polygon fill="#e0e0e0" stroke="#999999" points="780,-239 742,-239 742,-220 780,-220 780,-239"/>
<text text-anchor="middle" x="761" y="-227" font-family="Helvetica,sans-Serif" font-size="10.00">map</text>
</a>
</g>
</g>
<!-- Node6&#45;&gt;Node8 -->
<g id="edge9" class="edge">
<title>Node6&#45;&gt;Node8</title>
<path fill="none" stroke="#63b8ff" d="M881.86,-274.98C856.91,-265.8 817.12,-251.16 790.07,-241.2"/>
<polygon fill="#63b8ff" stroke="#63b8ff" points="790.98,-237.8 780.39,-237.63 788.56,-244.37 790.98,-237.8"/>
</g>
<!-- Node9 -->
<g id="node9" class="node">
<title>Node9</title>
<g id="a_node9"><a xlink:title=" ">
<polygon fill="#e0e0e0" stroke="#999999" points="972,-239 886,-239 886,-220 972,-220 972,-239"/>
<text text-anchor="middle" x="929" y="-227" font-family="Helvetica,sans-Serif" font-size="10.00">unordered_set</text>
</a>
</g>
</g>
<!-- Node6&#45;&gt;Node9 -->
<g id="edge10" class="edge">
<title>Node6&#45;&gt;Node9</title>
<path fill="none" stroke="#63b8ff" d="M908.96,-274.75C912.21,-267.57 916.92,-257.18 920.95,-248.27"/>
<polygon fill="#63b8ff" stroke="#63b8ff" points="924.17,-249.64 925.11,-239.09 917.8,-246.75 924.17,-249.64"/>
</g>
<!-- Node10 -->
<g id="node10" class="node">
<title>Node10</title>
<g id="a_node10"><a xlink:title=" ">
<polygon fill="#e0e0e0" stroke="#999999" points="759.5,-129 666.5,-129 666.5,-110 759.5,-110 759.5,-129"/>
<text text-anchor="middle" x="713" y="-117" font-family="Helvetica,sans-Serif" font-size="10.00">unordered_map</text>
</a>
</g>
</g>
<!-- Node6&#45;&gt;Node10 -->
<g id="edge11" class="edge">
<title>Node6&#45;&gt;Node10</title>
<path fill="none" stroke="#63b8ff" d="M896.29,-274.59C883.91,-262.04 860.33,-238.6 839,-220 802.73,-188.37 758.08,-154.15 732.84,-135.22"/>
<polygon fill="#63b8ff" stroke="#63b8ff" points="734.88,-132.37 724.77,-129.19 730.69,-137.98 734.88,-132.37"/>
</g>
<!-- Node11 -->
<g id="node11" class="node">
<title>Node11</title>
<g id="a_node11"><a xlink:title=" ">
<polygon fill="#e0e0e0" stroke="#999999" points="1033.5,-239 990.5,-239 990.5,-220 1033.5,-220 1033.5,-239"/>
<text text-anchor="middle" x="1012" y="-227" font-family="Helvetica,sans-Serif" font-size="10.00">stack</text>
</a>
</g>
</g>
<!-- Node6&#45;&gt;Node11 -->
<g id="edge12" class="edge">
<title>Node6&#45;&gt;Node11</title>
<path fill="none" stroke="#63b8ff" d="M922.19,-274.98C939.25,-266.54 965.63,-253.47 985.4,-243.68"/>
<polygon fill="#63b8ff" stroke="#63b8ff" points="987.09,-246.75 994.5,-239.17 983.98,-240.47 987.09,-246.75"/>
</g>
<!-- Node12&#45;&gt;Node4 -->
<g id="edge14" class="edge">
<title>Node12&#45;&gt;Node4</title>
<path fill="none" stroke="#63b8ff" d="M601.99,-274.97C635.87,-248.68 738.92,-168.69 781.88,-135.34"/>
<polygon fill="#63b8ff" stroke="#63b8ff" points="784.11,-138.04 789.86,-129.15 779.81,-132.51 784.11,-138.04"/>
</g>
<!-- Node13 -->
<g id="node13" class="node">
<title>Node13</title>
<g id="a_node13"><a xlink:href="../../d9/d49/types_8h.html" target="_top" xlink:title="This file contains a number of basic enums and types.">
<polygon fill="white" stroke="#666666" points="538.5,-239 485.5,-239 485.5,-220 538.5,-220 538.5,-239"/>
<text text-anchor="middle" x="512" y="-227" font-family="Helvetica,sans-Serif" font-size="10.00">types.h</text>
</a>
</g>
</g>
<!-- Node12&#45;&gt;Node13 -->
<g id="edge15" class="edge">
<title>Node12&#45;&gt;Node13</title>
<path fill="none" stroke="#63b8ff" d="M578.31,-274.98C566.17,-266.84 547.64,-254.41 533.25,-244.76"/>
<polygon fill="#63b8ff" stroke="#63b8ff" points="535.18,-241.84 524.92,-239.17 531.28,-247.65 535.18,-241.84"/>
</g>
<!-- Node23 -->
<g id="node23" class="node">
<title>Node23</title>
<g id="a_node23"><a xlink:href="../../d1/d02/reflist_8h.html" target="_top" xlink:title=" ">
<polygon fill="white" stroke="#666666" points="609.5,-239 556.5,-239 556.5,-220 609.5,-220 609.5,-239"/>
<text text-anchor="middle" x="583" y="-227" font-family="Helvetica,sans-Serif" font-size="10.00">reflist.h</text>
</a>
</g>
</g>
<!-- Node12&#45;&gt;Node23 -->
<g id="edge28" class="edge">
<title>Node12&#45;&gt;Node23</title>
<path fill="none" stroke="#63b8ff" d="M589.68,-274.75C588.63,-267.8 587.13,-257.85 585.81,-249.13"/>
<polygon fill="#63b8ff" stroke="#63b8ff" points="589.25,-248.45 584.3,-239.09 582.33,-249.5 589.25,-248.45"/>
</g>
<!-- Node14 -->
<g id="node14" class="node">
<title>Node14</title>
<g id="a_node14"><a xlink:href="../../d7/d5c/qcstring_8h.html" target="_top" xlink:title=" ">
<polygon fill="white" stroke="#666666" points="367.5,-129 302.5,-129 302.5,-110 367.5,-110 367.5,-129"/>
<text text-anchor="middle" x="335" y="-117" font-family="Helvetica,sans-Serif" font-size="10.00">qcstring.h</text>
</a>
</g>
</g>
<!-- Node13&#45;&gt;Node14 -->
<g id="edge16" class="edge">
<title>Node13&#45;&gt;Node14</title>
<path fill="none" stroke="#63b8ff" d="M485.41,-228.88C449.75,-227.89 386.78,-220.6 351,-184 339.46,-172.2 335.87,-153.36 334.91,-139.26"/>
<polygon fill="#63b8ff" stroke="#63b8ff" points="338.41,-139.09 334.62,-129.19 331.41,-139.29 338.41,-139.09"/>
</g>
<!-- Node14&#45;&gt;Node7 -->
<g id="edge17" class="edge">
<title>Node14&#45;&gt;Node7</title>
<path fill="none" stroke="#63b8ff" d="M342.12,-109.66C356.66,-91.61 389.96,-50.28 408.65,-27.08"/>
<polygon fill="#63b8ff" stroke="#63b8ff" points="411.48,-29.14 415.03,-19.16 406.03,-24.75 411.48,-29.14"/>
</g>
<!-- Node15 -->
<g id="node15" class="node">
<title>Node15</title>
<g id="a_node15"><a xlink:title=" ">
<polygon fill="#e0e0e0" stroke="#999999" points="479,-74 415,-74 415,-55 479,-55 479,-74"/>
<text text-anchor="middle" x="447" y="-62" font-family="Helvetica,sans-Serif" font-size="10.00">algorithm</text>
</a>
</g>
</g>
<!-- Node14&#45;&gt;Node15 -->
<g id="edge18" class="edge">
<title>Node14&#45;&gt;Node15</title>
<path fill="none" stroke="#63b8ff" d="M352.99,-109.98C370.93,-101.5 398.72,-88.35 419.43,-78.54"/>
<polygon fill="#63b8ff" stroke="#63b8ff" points="421.14,-81.61 428.68,-74.17 418.14,-75.28 421.14,-81.61"/>
</g>
<!-- Node16 -->
<g id="node16" class="node">
<title>Node16</title>
<g id="a_node16"><a xlink:title=" ">
<polygon fill="#e0e0e0" stroke="#999999" points="546.5,-74 497.5,-74 497.5,-55 546.5,-55 546.5,-74"/>
<text text-anchor="middle" x="522" y="-62" font-family="Helvetica,sans-Serif" font-size="10.00">cctype</text>
</a>
</g>
</g>
<!-- Node14&#45;&gt;Node16 -->
<g id="edge19" class="edge">
<title>Node14&#45;&gt;Node16</title>
<path fill="none" stroke="#63b8ff" d="M365.04,-109.98C398.5,-100.5 452.47,-85.21 487.59,-75.25"/>
<polygon fill="#63b8ff" stroke="#63b8ff" points="488.74,-78.57 497.4,-72.47 486.83,-71.83 488.74,-78.57"/>
</g>
<!-- Node17 -->
<g id="node17" class="node">
<title>Node17</title>
<g id="a_node17"><a xlink:title=" ">
<polygon fill="#e0e0e0" stroke="#999999" points="50,-74 0,-74 0,-55 50,-55 50,-74"/>
<text text-anchor="middle" x="25" y="-62" font-family="Helvetica,sans-Serif" font-size="10.00">cstring</text>
</a>
</g>
</g>
<!-- Node14&#45;&gt;Node17 -->
<g id="edge20" class="edge">
<title>Node14&#45;&gt;Node17</title>
<path fill="none" stroke="#63b8ff" d="M302.12,-114.12C252,-107.25 153.29,-92.93 60.07,-74.07"/>
<polygon fill="#63b8ff" stroke="#63b8ff" points="60.69,-70.63 50.2,-72.05 59.29,-77.49 60.69,-70.63"/>
</g>
<!-- Node18 -->
<g id="node18" class="node">
<title>Node18</title>
<g id="a_node18"><a xlink:title=" ">
<polygon fill="#e0e0e0" stroke="#999999" points="114,-74 68,-74 68,-55 114,-55 114,-74"/>
<text text-anchor="middle" x="91" y="-62" font-family="Helvetica,sans-Serif" font-size="10.00">cstdio</text>
</a>
</g>
</g>
<!-- Node14&#45;&gt;Node18 -->
<g id="edge21" class="edge">
<title>Node14&#45;&gt;Node18</title>
<path fill="none" stroke="#63b8ff" d="M302.19,-112.17C262.39,-104.37 193.01,-90.39 124.18,-74.18"/>
<polygon fill="#63b8ff" stroke="#63b8ff" points="124.57,-70.68 114.04,-71.77 122.96,-77.49 124.57,-70.68"/>
</g>
<!-- Node19 -->
<g id="node19" class="node">
<title>Node19</title>
<g id="a_node19"><a xlink:title=" ">
<polygon fill="#e0e0e0" stroke="#999999" points="181.5,-74 132.5,-74 132.5,-55 181.5,-55 181.5,-74"/>
<text text-anchor="middle" x="157" y="-62" font-family="Helvetica,sans-Serif" font-size="10.00">cstdlib</text>
</a>
</g>
</g>
<!-- Node14&#45;&gt;Node19 -->
<g id="edge22" class="edge">
<title>Node14&#45;&gt;Node19</title>
<path fill="none" stroke="#63b8ff" d="M306.4,-109.98C275.05,-100.65 224.77,-85.68 191.32,-75.72"/>
<polygon fill="#63b8ff" stroke="#63b8ff" points="192.1,-72.3 181.52,-72.8 190.1,-79.01 192.1,-72.3"/>
</g>
<!-- Node20 -->
<g id="node20" class="node">
<title>Node20</title>
<g id="a_node20"><a xlink:title=" ">
<polygon fill="#e0e0e0" stroke="#999999" points="326,-19 276,-19 276,0 326,0 326,-19"/>
<text text-anchor="middle" x="301" y="-7" font-family="Helvetica,sans-Serif" font-size="10.00">cstdint</text>
</a>
</g>
</g>
<!-- Node14&#45;&gt;Node20 -->
<g id="edge23" class="edge">
<title>Node14&#45;&gt;Node20</title>
<path fill="none" stroke="#63b8ff" d="M302.29,-114.41C277.56,-109.4 245.19,-98.35 229,-74 215.01,-52.95 242.85,-34.56 267.88,-23.06"/>
<polygon fill="#63b8ff" stroke="#63b8ff" points="269.46,-26.19 277.24,-19 266.67,-19.77 269.46,-26.19"/>
</g>
<!-- Node21 -->
<g id="node21" class="node">
<title>Node21</title>
<g id="a_node21"><a xlink:title=" ">
<polygon fill="#e0e0e0" stroke="#999999" points="295.5,-74 238.5,-74 238.5,-55 295.5,-55 295.5,-74"/>
<text text-anchor="middle" x="267" y="-62" font-family="Helvetica,sans-Serif" font-size="10.00">ostream</text>
</a>
</g>
</g>
<!-- Node14&#45;&gt;Node21 -->
<g id="edge24" class="edge">
<title>Node14&#45;&gt;Node21</title>
<path fill="none" stroke="#63b8ff" d="M324.07,-109.98C313.92,-102.07 298.58,-90.11 286.35,-80.58"/>
<polygon fill="#63b8ff" stroke="#63b8ff" points="288.16,-77.56 278.12,-74.17 283.86,-83.08 288.16,-77.56"/>
</g>
<!-- Node22 -->
<g id="node22" class="node">
<title>Node22</title>
<g id="a_node22"><a xlink:href="../../db/d7c/utf8_8h.html" target="_top" xlink:title="Various UTF8 related helper functions.">
<polygon fill="white" stroke="#666666" points="358.5,-74 313.5,-74 313.5,-55 358.5,-55 358.5,-74"/>
<text text-anchor="middle" x="336" y="-62" font-family="Helvetica,sans-Serif" font-size="10.00">utf8.h</text>
</a>
</g>
</g>
<!-- Node14&#45;&gt;Node22 -->
<g id="edge25" class="edge">
<title>Node14&#45;&gt;Node22</title>
<path fill="none" stroke="#63b8ff" d="M335.17,-109.75C335.3,-102.8 335.48,-92.85 335.65,-84.13"/>
<polygon fill="#63b8ff" stroke="#63b8ff" points="339.15,-84.15 335.84,-74.09 332.15,-84.02 339.15,-84.15"/>
</g>
<!-- Node22&#45;&gt;Node7 -->
<g id="edge27" class="edge">
<title>Node22&#45;&gt;Node7</title>
<path fill="none" stroke="#63b8ff" d="M349.82,-54.98C363.15,-46.77 383.58,-34.18 399.31,-24.49"/>
<polygon fill="#63b8ff" stroke="#63b8ff" points="401.25,-27.4 407.93,-19.17 397.58,-21.44 401.25,-27.4"/>
</g>
<!-- Node22&#45;&gt;Node20 -->
<g id="edge26" class="edge">
<title>Node22&#45;&gt;Node20</title>
<path fill="none" stroke="#63b8ff" d="M330.22,-54.75C325.38,-47.42 318.32,-36.73 312.36,-27.7"/>
<polygon fill="#63b8ff" stroke="#63b8ff" points="315.1,-25.5 306.67,-19.09 309.26,-29.36 315.1,-25.5"/>
</g>
<!-- Node23&#45;&gt;Node4 -->
<g id="edge29" class="edge">
<title>Node23&#45;&gt;Node4</title>
<path fill="none" stroke="#63b8ff" d="M600.47,-219.84C638.59,-200.96 729.43,-155.96 774.59,-133.59"/>
<polygon fill="#63b8ff" stroke="#63b8ff" points="776.34,-136.62 783.75,-129.05 773.23,-130.35 776.34,-136.62"/>
</g>
<!-- Node23&#45;&gt;Node10 -->
<g id="edge30" class="edge">
<title>Node23&#45;&gt;Node10</title>
<path fill="none" stroke="#63b8ff" d="M593.64,-219.66C615.84,-201.22 667.33,-158.45 694.86,-135.57"/>
<polygon fill="#63b8ff" stroke="#63b8ff" points="697.12,-138.24 702.58,-129.16 692.65,-132.86 697.12,-138.24"/>
</g>
<!-- Node23&#45;&gt;Node14 -->
<g id="edge32" class="edge">
<title>Node23&#45;&gt;Node14</title>
<path fill="none" stroke="#63b8ff" d="M563.38,-219.85C543.52,-211.03 511.99,-196.87 485,-184 467.96,-175.87 464.23,-172.72 447,-165 420.72,-153.23 390.32,-141.26 367.83,-132.7"/>
<polygon fill="#63b8ff" stroke="#63b8ff" points="369,-129.4 358.41,-129.13 366.52,-135.94 369,-129.4"/>
</g>
<!-- Node24 -->
<g id="node24" class="node">
<title>Node24</title>
<g id="a_node24"><a xlink:title=" ">
<polygon fill="#e0e0e0" stroke="#999999" points="648,-129 590,-129 590,-110 648,-110 648,-129"/>
<text text-anchor="middle" x="619" y="-117" font-family="Helvetica,sans-Serif" font-size="10.00">memory</text>
</a>
</g>
</g>
<!-- Node23&#45;&gt;Node24 -->
<g id="edge31" class="edge">
<title>Node23&#45;&gt;Node24</title>
<path fill="none" stroke="#63b8ff" d="M585.95,-219.66C591.8,-202.09 605.02,-162.45 612.85,-138.95"/>
<polygon fill="#63b8ff" stroke="#63b8ff" points="616.27,-139.75 616.11,-129.16 609.63,-137.54 616.27,-139.75"/>
</g>
<!-- Node25 -->
<g id="node25" class="node">
<title>Node25</title>
<g id="a_node25"><a xlink:href="../../da/de1/linkedmap_8h.html" target="_top" xlink:title=" ">
<polygon fill="white" stroke="#666666" points="571.5,-184 494.5,-184 494.5,-165 571.5,-165 571.5,-184"/>
<text text-anchor="middle" x="533" y="-172" font-family="Helvetica,sans-Serif" font-size="10.00">linkedmap.h</text>
</a>
</g>
</g>
<!-- Node23&#45;&gt;Node25 -->
<g id="edge33" class="edge">
<title>Node23&#45;&gt;Node25</title>
<path fill="none" stroke="#63b8ff" d="M574.74,-219.75C567.54,-212.11 556.89,-200.82 548.15,-191.56"/>
<polygon fill="#63b8ff" stroke="#63b8ff" points="550.51,-188.96 541.1,-184.09 545.42,-193.76 550.51,-188.96"/>
</g>
<!-- Node25&#45;&gt;Node4 -->
<g id="edge35" class="edge">
<title>Node25&#45;&gt;Node4</title>
<path fill="none" stroke="#63b8ff" d="M571.83,-166.94C616.55,-159.22 692.43,-145.57 767.19,-129.06"/>
<polygon fill="#63b8ff" stroke="#63b8ff" points="768.25,-132.4 777.25,-126.81 766.73,-125.57 768.25,-132.4"/>
</g>
<!-- Node25&#45;&gt;Node7 -->
<g id="edge37" class="edge">
<title>Node25&#45;&gt;Node7</title>
<path fill="none" stroke="#63b8ff" d="M538.63,-164.8C551.44,-143.79 579.82,-89.47 555,-55 532.19,-23.31 485.76,-13.86 454.26,-11.22"/>
<polygon fill="#63b8ff" stroke="#63b8ff" points="454.41,-7.73 444.21,-10.57 453.96,-14.71 454.41,-7.73"/>
</g>
<!-- Node25&#45;&gt;Node10 -->
<g id="edge34" class="edge">
<title>Node25&#45;&gt;Node10</title>
<path fill="none" stroke="#63b8ff" d="M561.92,-164.98C592.27,-156.05 640.17,-141.94 673.88,-132.02"/>
<polygon fill="#63b8ff" stroke="#63b8ff" points="675.25,-135.26 683.85,-129.08 673.27,-128.55 675.25,-135.26"/>
</g>
<!-- Node25&#45;&gt;Node14 -->
<g id="edge40" class="edge">
<title>Node25&#45;&gt;Node14</title>
<path fill="none" stroke="#63b8ff" d="M501.19,-164.98C467.51,-155.97 414.2,-141.7 377.08,-131.76"/>
<polygon fill="#63b8ff" stroke="#63b8ff" points="377.63,-128.29 367.06,-129.08 375.82,-135.05 377.63,-128.29"/>
</g>
<!-- Node25&#45;&gt;Node15 -->
<g id="edge38" class="edge">
<title>Node25&#45;&gt;Node15</title>
<path fill="none" stroke="#63b8ff" d="M525.96,-164.66C511.59,-146.61 478.67,-105.28 460.2,-82.08"/>
<polygon fill="#63b8ff" stroke="#63b8ff" points="462.86,-79.8 453.89,-74.16 457.39,-84.16 462.86,-79.8"/>
</g>
<!-- Node25&#45;&gt;Node16 -->
<g id="edge39" class="edge">
<title>Node25&#45;&gt;Node16</title>
<path fill="none" stroke="#63b8ff" d="M532.1,-164.66C530.32,-147.17 526.31,-107.8 523.91,-84.27"/>
<polygon fill="#63b8ff" stroke="#63b8ff" points="527.38,-83.75 522.88,-74.16 520.41,-84.46 527.38,-83.75"/>
</g>
<!-- Node25&#45;&gt;Node24 -->
<g id="edge36" class="edge">
<title>Node25&#45;&gt;Node24</title>
<path fill="none" stroke="#63b8ff" d="M546.82,-164.98C560.15,-156.77 580.58,-144.18 596.31,-134.49"/>
<polygon fill="#63b8ff" stroke="#63b8ff" points="598.25,-137.4 604.93,-129.17 594.58,-131.44 598.25,-137.4"/>
</g>
<!-- Node26&#45;&gt;Node4 -->
<g id="edge42" class="edge">
<title>Node26&#45;&gt;Node4</title>
<path fill="none" stroke="#63b8ff" d="M438.19,-169.44C516.25,-161.24 689.62,-142.49 767.41,-128.82"/>
<polygon fill="#63b8ff" stroke="#63b8ff" points="768.09,-132.25 777.29,-127.01 766.82,-125.37 768.09,-132.25"/>
</g>
<!-- Node26&#45;&gt;Node14 -->
<g id="edge43" class="edge">
<title>Node26&#45;&gt;Node14</title>
<path fill="none" stroke="#63b8ff" d="M388.72,-164.98C379.16,-157.07 364.72,-145.11 353.22,-135.58"/>
<polygon fill="#63b8ff" stroke="#63b8ff" points="355.4,-132.85 345.47,-129.17 350.94,-138.24 355.4,-132.85"/>
</g>
<!-- Node27&#45;&gt;Node4 -->
<g id="edge45" class="edge">
<title>Node27&#45;&gt;Node4</title>
<path fill="none" stroke="#63b8ff" d="M708.58,-274.64C711.36,-261.31 718.3,-235.94 733,-220 756.99,-193.99 785.48,-214.15 804,-184 812.21,-170.63 810.38,-152.52 807.12,-139.06"/>
<polygon fill="#63b8ff" stroke="#63b8ff" points="810.37,-137.7 804.24,-129.06 803.64,-139.64 810.37,-137.7"/>
</g>
<!-- Node27&#45;&gt;Node8 -->
<g id="edge46" class="edge">
<title>Node27&#45;&gt;Node8</title>
<path fill="none" stroke="#63b8ff" d="M715.92,-274.75C723.78,-267.03 735.43,-255.6 744.92,-246.28"/>
<polygon fill="#63b8ff" stroke="#63b8ff" points="747.56,-248.59 752.25,-239.09 742.66,-243.6 747.56,-248.59"/>
</g>
<!-- Node27&#45;&gt;Node13 -->
<g id="edge48" class="edge">
<title>Node27&#45;&gt;Node13</title>
<path fill="none" stroke="#63b8ff" d="M675.67,-274.98C640.93,-265.54 584.98,-250.33 548.34,-240.38"/>
<polygon fill="#63b8ff" stroke="#63b8ff" points="549.12,-236.96 538.55,-237.72 547.29,-243.72 549.12,-236.96"/>
</g>
<!-- Node27&#45;&gt;Node23 -->
<g id="edge49" class="edge">
<title>Node27&#45;&gt;Node23</title>
<path fill="none" stroke="#63b8ff" d="M687.08,-274.98C666.95,-266.38 635.62,-252.99 612.59,-243.15"/>
<polygon fill="#63b8ff" stroke="#63b8ff" points="613.86,-239.88 603.29,-239.17 611.1,-246.32 613.86,-239.88"/>
</g>
<!-- Node27&#45;&gt;Node24 -->
<g id="edge47" class="edge">
<title>Node27&#45;&gt;Node24</title>
<path fill="none" stroke="#63b8ff" d="M702.27,-274.74C688.36,-248.98 647.42,-173.13 628.62,-138.33"/>
<polygon fill="#63b8ff" stroke="#63b8ff" points="631.59,-136.44 623.75,-129.31 625.43,-139.77 631.59,-136.44"/>
</g>
<!-- Node28&#45;&gt;Node29 -->
<g id="edge51" class="edge">
<title>Node28&#45;&gt;Node29</title>
<path fill="none" stroke="#63b8ff" d="M1050.59,-330.68C1082.17,-321.73 1134.14,-307 1170.12,-296.8"/>
<polygon fill="#63b8ff" stroke="#63b8ff" points="1171.15,-300.15 1179.81,-294.06 1169.24,-293.42 1171.15,-300.15"/>
</g>
<!-- Node30&#45;&gt;Node14 -->
<g id="edge54" class="edge">
<title>Node30&#45;&gt;Node14</title>
<path fill="none" stroke="#63b8ff" d="M295.61,-329.95C301.64,-297.88 323.02,-184.2 331.5,-139.12"/>
<polygon fill="#63b8ff" stroke="#63b8ff" points="334.95,-139.7 333.36,-129.22 328.07,-138.4 334.95,-139.7"/>
</g>
<!-- Node31 -->
<g id="node31" class="node">
<title>Node31</title>
<g id="a_node31"><a xlink:title=" ">
<polygon fill="#e0e0e0" stroke="#999999" points="266,-294 222,-294 222,-275 266,-275 266,-294"/>
<text text-anchor="middle" x="244" y="-282" font-family="Helvetica,sans-Serif" font-size="10.00">ctime</text>
</a>
</g>
</g>
<!-- Node30&#45;&gt;Node31 -->
<g id="edge53" class="edge">
<title>Node30&#45;&gt;Node31</title>
<path fill="none" stroke="#63b8ff" d="M285.74,-329.75C278.54,-322.11 267.89,-310.82 259.15,-301.56"/>
<polygon fill="#63b8ff" stroke="#63b8ff" points="261.51,-298.96 252.1,-294.09 256.42,-303.76 261.51,-298.96"/>
</g>
</g>
</svg>
        <g id="navigator" transform="translate(0 0)" fill="#404254">
                <rect fill="#f2f5e9" fill-opacity="0.5" stroke="#606060" stroke-width=".5" x="0" y="0" width="60" height="60"/>
                <use id="zoomplus" xlink:href="#zoomPlus" x="17" y="9" onmousedown="handleZoom(evt,'in')"/>
                <use id="zoomminus" xlink:href="#zoomMin" x="42" y="9" onmousedown="handleZoom(evt,'out')"/>
                <use id="reset" xlink:href="#resetDef" x="30" y="36" onmousedown="handleReset()"/>
                <g id="arrowUp" xlink:href="#dirArrow" transform="translate(30 24)" onmousedown="handlePan(0,-1)">
                  <use xlink:href="#rim" fill="#404040">
                        <set attributeName="fill" to="#808080" begin="arrowUp.mouseover" end="arrowUp.mouseout"/>
                  </use>
                  <path fill="none" stroke="white" stroke-width="1.5" d="M0,-3.0v7 M-2.5,-0.5L0,-3.0L2.5,-0.5"/>
                </g>
                <g id="arrowRight" xlink:href="#dirArrow" transform="rotate(90) translate(36 -43)" onmousedown="handlePan(1,0)">
                  <use xlink:href="#rim" fill="#404040">
                        <set attributeName="fill" to="#808080" begin="arrowRight.mouseover" end="arrowRight.mouseout"/>
                  </use>
                  <path fill="none" stroke="white" stroke-width="1.5" d="M0,-3.0v7 M-2.5,-0.5L0,-3.0L2.5,-0.5"/>
                </g>
                <g id="arrowDown" xlink:href="#dirArrow" transform="rotate(180) translate(-30 -48)" onmousedown="handlePan(0,1)">
                  <use xlink:href="#rim" fill="#404040">
                        <set attributeName="fill" to="#808080" begin="arrowDown.mouseover" end="arrowDown.mouseout"/>
                  </use>
                  <path fill="none" stroke="white" stroke-width="1.5" d="M0,-3.0v7 M-2.5,-0.5L0,-3.0L2.5,-0.5"/>
                </g>
                <g id="arrowLeft" xlink:href="#dirArrow" transform="rotate(270) translate(-36 17)" onmousedown="handlePan(-1,0)">
                  <use xlink:href="#rim" fill="#404040">
                        <set attributeName="fill" to="#808080" begin="arrowLeft.mouseover" end="arrowLeft.mouseout"/>
                  </use>
                  <path fill="none" stroke="white" stroke-width="1.5" d="M0,-3.0v7 M-2.5,-0.5L0,-3.0L2.5,-0.5"/>
                </g>
        </g>
        <svg viewBox="0 0 15 15" width="100%" height="30px" preserveAspectRatio="xMaxYMin meet">
         <g id="arrow_out" transform="scale(0.3 0.3)">
          <a xlink:href="language_8h__incl_org.svg" target="_base">
           <rect id="button" ry="5" rx="5" y="6" x="6" height="38" width="38"
                fill="#f2f5e9" fill-opacity="0.5" stroke="#606060" stroke-width="1.0"/>
           <path id="arrow"
             d="M 11.500037,31.436501 C 11.940474,20.09759 22.043105,11.32322 32.158766,21.979434 L 37.068811,17.246167 C 37.068811,17.246167 37.088388,32 37.088388,32 L 22.160133,31.978069 C 22.160133,31.978069 26.997745,27.140456 26.997745,27.140456 C 18.528582,18.264221 13.291696,25.230495 11.500037,31.436501 z"
             style="fill:#404040;"/>
          </a>
         </g>
        </svg>
</svg>
