<?xml version="1.0" encoding="UTF-8" standalone="no"?>
<!DOCTYPE svg PUBLIC "-//W3C//DTD SVG 1.1//EN"
 "http://www.w3.org/Graphics/SVG/1.1/DTD/svg11.dtd">
<!-- Generated by graphviz version 2.43.0 (0)
 -->
<!-- Title: TranslatorChinesetraditional Pages: 1 -->
<svg width="197pt" height="485pt"
 viewBox="0.00 0.00 197.00 485.00" xmlns="http://www.w3.org/2000/svg" xmlns:xlink="http://www.w3.org/1999/xlink">
<g id="graph0" class="graph" transform="scale(1 1) rotate(0) translate(4 481)">
<title>TranslatorChinesetraditional</title>
<!-- Node1 -->
<g id="node1" class="node">
<title>Node1</title>
<g id="a_node1"><a xlink:title=" ">
<polygon fill="#999999" stroke="#666666" points="154,-19 0,-19 0,0 154,0 154,-19"/>
<text text-anchor="middle" x="77" y="-7" font-family="Helvetica,sans-Serif" font-size="10.00">TranslatorChinesetraditional</text>
</a>
</g>
</g>
<!-- Node2 -->
<g id="node2" class="node">
<title>Node2</title>
<g id="a_node2"><a xlink:href="../../d4/d2e/class_translator_adapter__1__8__15.html" target="_top" xlink:title=" ">
<polygon fill="white" stroke="#666666" points="148.5,-75 5.5,-75 5.5,-56 148.5,-56 148.5,-75"/>
<text text-anchor="middle" x="77" y="-63" font-family="Helvetica,sans-Serif" font-size="10.00">TranslatorAdapter_1_8_15</text>
</a>
</g>
</g>
<!-- Node2&#45;&gt;Node1 -->
<g id="edge1" class="edge">
<title>Node2&#45;&gt;Node1</title>
<path fill="none" stroke="#63b8ff" d="M77,-45.3C77,-36.41 77,-26.28 77,-19.25"/>
<polygon fill="#63b8ff" stroke="#63b8ff" points="73.5,-45.58 77,-55.58 80.5,-45.58 73.5,-45.58"/>
</g>
<!-- Node3 -->
<g id="node3" class="node">
<title>Node3</title>
<g id="a_node3"><a xlink:href="../../de/dde/class_translator_adapter__1__8__19.html" target="_top" xlink:title=" ">
<polygon fill="white" stroke="#666666" points="148.5,-131 5.5,-131 5.5,-112 148.5,-112 148.5,-131"/>
<text text-anchor="middle" x="77" y="-119" font-family="Helvetica,sans-Serif" font-size="10.00">TranslatorAdapter_1_8_19</text>
</a>
</g>
</g>
<!-- Node3&#45;&gt;Node2 -->
<g id="edge2" class="edge">
<title>Node3&#45;&gt;Node2</title>
<path fill="none" stroke="#63b8ff" d="M77,-101.3C77,-92.41 77,-82.28 77,-75.25"/>
<polygon fill="#63b8ff" stroke="#63b8ff" points="73.5,-101.58 77,-111.58 80.5,-101.58 73.5,-101.58"/>
</g>
<!-- Node4 -->
<g id="node4" class="node">
<title>Node4</title>
<g id="a_node4"><a xlink:href="../../d3/d2e/class_translator_adapter__1__9__2.html" target="_top" xlink:title=" ">
<polygon fill="white" stroke="#666666" points="145.5,-187 8.5,-187 8.5,-168 145.5,-168 145.5,-187"/>
<text text-anchor="middle" x="77" y="-175" font-family="Helvetica,sans-Serif" font-size="10.00">TranslatorAdapter_1_9_2</text>
</a>
</g>
</g>
<!-- Node4&#45;&gt;Node3 -->
<g id="edge3" class="edge">
<title>Node4&#45;&gt;Node3</title>
<path fill="none" stroke="#63b8ff" d="M77,-157.3C77,-148.41 77,-138.28 77,-131.25"/>
<polygon fill="#63b8ff" stroke="#63b8ff" points="73.5,-157.58 77,-167.58 80.5,-157.58 73.5,-157.58"/>
</g>
<!-- Node5 -->
<g id="node5" class="node">
<title>Node5</title>
<g id="a_node5"><a xlink:href="../../d0/d33/class_translator_adapter__1__9__4.html" target="_top" xlink:title=" ">
<polygon fill="white" stroke="#666666" points="145.5,-243 8.5,-243 8.5,-224 145.5,-224 145.5,-243"/>
<text text-anchor="middle" x="77" y="-231" font-family="Helvetica,sans-Serif" font-size="10.00">TranslatorAdapter_1_9_4</text>
</a>
</g>
</g>
<!-- Node5&#45;&gt;Node4 -->
<g id="edge4" class="edge">
<title>Node5&#45;&gt;Node4</title>
<path fill="none" stroke="#63b8ff" d="M77,-213.3C77,-204.41 77,-194.28 77,-187.25"/>
<polygon fill="#63b8ff" stroke="#63b8ff" points="73.5,-213.58 77,-223.58 80.5,-213.58 73.5,-213.58"/>
</g>
<!-- Node6 -->
<g id="node6" class="node">
<title>Node6</title>
<g id="a_node6"><a xlink:href="../../dd/dba/class_translator_adapter__1__9__5.html" target="_top" xlink:title=" ">
<polygon fill="white" stroke="#666666" points="145.5,-299 8.5,-299 8.5,-280 145.5,-280 145.5,-299"/>
<text text-anchor="middle" x="77" y="-287" font-family="Helvetica,sans-Serif" font-size="10.00">TranslatorAdapter_1_9_5</text>
</a>
</g>
</g>
<!-- Node6&#45;&gt;Node5 -->
<g id="edge5" class="edge">
<title>Node6&#45;&gt;Node5</title>
<path fill="none" stroke="#63b8ff" d="M77,-269.3C77,-260.41 77,-250.28 77,-243.25"/>
<polygon fill="#63b8ff" stroke="#63b8ff" points="73.5,-269.58 77,-279.58 80.5,-269.58 73.5,-269.58"/>
</g>
<!-- Node7 -->
<g id="node7" class="node">
<title>Node7</title>
<g id="a_node7"><a xlink:href="../../db/d6c/class_translator_adapter_base.html" target="_top" xlink:title="Base of the translator adapter tree.">
<polygon fill="white" stroke="#666666" points="140.5,-355 13.5,-355 13.5,-336 140.5,-336 140.5,-355"/>
<text text-anchor="middle" x="77" y="-343" font-family="Helvetica,sans-Serif" font-size="10.00">TranslatorAdapterBase</text>
</a>
</g>
</g>
<!-- Node7&#45;&gt;Node6 -->
<g id="edge6" class="edge">
<title>Node7&#45;&gt;Node6</title>
<path fill="none" stroke="#63b8ff" d="M77,-325.3C77,-316.41 77,-306.28 77,-299.25"/>
<polygon fill="#63b8ff" stroke="#63b8ff" points="73.5,-325.58 77,-335.58 80.5,-325.58 73.5,-325.58"/>
</g>
<!-- Node8 -->
<g id="node8" class="node">
<title>Node8</title>
<g id="a_node8"><a xlink:href="../../d8/dfb/class_translator.html" target="_top" xlink:title="Abstract base class for all translatable text fragments.">
<polygon fill="white" stroke="#666666" points="105.5,-477 40.5,-477 40.5,-458 105.5,-458 105.5,-477"/>
<text text-anchor="middle" x="73" y="-465" font-family="Helvetica,sans-Serif" font-size="10.00">Translator</text>
</a>
</g>
</g>
<!-- Node8&#45;&gt;Node7 -->
<g id="edge7" class="edge">
<title>Node8&#45;&gt;Node7</title>
<path fill="none" stroke="#63b8ff" d="M73.63,-447.65C74.51,-421.22 76.07,-374.26 76.71,-355.05"/>
<polygon fill="#63b8ff" stroke="#63b8ff" points="70.12,-447.76 73.29,-457.87 77.12,-447.99 70.12,-447.76"/>
</g>
<!-- Node9 -->
<g id="node9" class="node">
<title>Node9</title>
<g id="a_node9"><a xlink:href="../../d6/d78/class_translator_english.html" target="_top" xlink:title=" ">
<polygon fill="white" stroke="#666666" points="189,-421 89,-421 89,-402 189,-402 189,-421"/>
<text text-anchor="middle" x="139" y="-409" font-family="Helvetica,sans-Serif" font-size="10.00">TranslatorEnglish</text>
</a>
</g>
</g>
<!-- Node8&#45;&gt;Node9 -->
<g id="edge9" class="edge">
<title>Node8&#45;&gt;Node9</title>
<path fill="none" stroke="#63b8ff" d="M91.55,-451.32C103.38,-441.65 118.29,-429.45 128.2,-421.33"/>
<polygon fill="#63b8ff" stroke="#63b8ff" points="89.13,-448.78 83.6,-457.82 93.56,-454.2 89.13,-448.78"/>
</g>
<!-- Node9&#45;&gt;Node7 -->
<g id="edge8" class="edge">
<title>Node9&#45;&gt;Node7</title>
<path fill="none" stroke="#9a32cd" stroke-dasharray="5,2" d="M123.48,-394.48C111.51,-382.12 95.4,-365.49 85.63,-355.41"/>
<polygon fill="#9a32cd" stroke="#9a32cd" points="121.17,-397.12 130.64,-401.87 126.19,-392.25 121.17,-397.12"/>
<text text-anchor="middle" x="130.5" y="-376" font-family="Helvetica,sans-Serif" font-size="10.00"> english</text>
</g>
</g>
</svg>
