<?xml version="1.0" encoding="UTF-8" standalone="no"?>
<!DOCTYPE svg PUBLIC "-//W3C//DTD SVG 1.1//EN"
 "http://www.w3.org/Graphics/SVG/1.1/DTD/svg11.dtd">
<!-- Generated by graphviz version 2.43.0 (0)
 -->
<!-- Title: /home/runner/work/doxygen/doxygen/src/docbookgen.h Pages: 1 -->
<!--zoomable 170 -->
<svg id="main" version="1.1" xmlns="http://www.w3.org/2000/svg" xmlns:xlink="http://www.w3.org/1999/xlink" xml:space="preserve" onload="init(evt)">
<style type="text/css"><![CDATA[
.edge:hover path { stroke: red; }
.edge:hover polygon { stroke: red; fill: red; }
]]></style>
<script type="text/javascript"><![CDATA[
var edges = document.getElementsByTagName('g');
if (edges && edges.length) {
  for (var i=0;i<edges.length;i++) {
    if (edges[i].id.substr(0,4)=='edge') {
      edges[i].setAttribute('class','edge');
    }
  }
}
]]></script>
        <defs>
                <circle id="rim" cx="0" cy="0" r="7"/>
                <circle id="rim2" cx="0" cy="0" r="3.5"/>
                <g id="zoomPlus">
                        <use xlink:href="#rim" fill="#404040">
                                <set attributeName="fill" to="#808080" begin="zoomplus.mouseover" end="zoomplus.mouseout"/>
                        </use>
                        <path d="M-4,0h8M0,-4v8" fill="none" stroke="white" stroke-width="1.5" pointer-events="none"/>
                </g>
                <g id="zoomMin">
                        <use xlink:href="#rim" fill="#404040">
                                <set attributeName="fill" to="#808080" begin="zoomminus.mouseover" end="zoomminus.mouseout"/>
                        </use>
                        <path d="M-4,0h8" fill="none" stroke="white" stroke-width="1.5" pointer-events="none"/>
                </g>
                <g id="dirArrow">
                        <path fill="none" stroke="white" stroke-width="1.5" d="M0,-3.0v7 M-2.5,-0.5L0,-3.0L2.5,-0.5"/>
                </g>
               <g id="resetDef">
                       <use xlink:href="#rim2" fill="#404040">
                               <set attributeName="fill" to="#808080" begin="reset.mouseover" end="reset.mouseout"/>
                       </use>
               </g>
        </defs>

<script type="text/javascript">
var viewWidth = 6457;
var viewHeight = 170;
var sectionId = 'dynsection-1';
</script>
<script xlink:href="../../svgpan.js"/>
<svg id="graph" class="graph">
<g id="viewport">
<title>/home/runner/work/doxygen/doxygen/src/docbookgen.h</title>
<!-- Node1 -->
<g id="node1" class="node">
<title>Node1</title>
<g id="a_node1"><a xlink:title=" ">
<polygon fill="#999999" stroke="#666666" points="2443.5,-162 2289.5,-162 2289.5,-132 2443.5,-132 2443.5,-162"/>
<text text-anchor="start" x="2297.5" y="-150" font-family="Helvetica,sans-Serif" font-size="10.00">/home/runner/work/doxygen</text>
<text text-anchor="middle" x="2366.5" y="-139" font-family="Helvetica,sans-Serif" font-size="10.00">/doxygen/src/docbookgen.h</text>
</a>
</g>
</g>
<!-- Node2 -->
<g id="node2" class="node">
<title>Node2</title>
<g id="a_node2"><a xlink:href="../../d8/d29/docbookgen_8cpp.html" target="_top" xlink:title=" ">
<polygon fill="white" stroke="#666666" points="161,-30 0,-30 0,0 161,0 161,-30"/>
<text text-anchor="start" x="8" y="-18" font-family="Helvetica,sans-Serif" font-size="10.00">/home/runner/work/doxygen</text>
<text text-anchor="middle" x="80.5" y="-7" font-family="Helvetica,sans-Serif" font-size="10.00">/doxygen/src/docbookgen.cpp</text>
</a>
</g>
</g>
<!-- Node1&#45;&gt;Node2 -->
<g id="edge1" class="edge">
<title>Node1&#45;&gt;Node2</title>
<path fill="none" stroke="#63b8ff" d="M2279.08,-144.56C2054.43,-140.51 1438.6,-127.22 926.5,-96 589.85,-75.47 505.32,-70.61 170.5,-30 167.52,-29.64 164.48,-29.25 161.42,-28.85"/>
<polygon fill="#63b8ff" stroke="#63b8ff" points="2279.1,-148.06 2289.16,-144.74 2279.23,-141.06 2279.1,-148.06"/>
</g>
<!-- Node3 -->
<g id="node3" class="node">
<title>Node3</title>
<g id="a_node3"><a xlink:href="../../dc/d05/docbookvisitor_8cpp.html" target="_top" xlink:title=" ">
<polygon fill="white" stroke="#666666" points="3339,-96 3166,-96 3166,-66 3339,-66 3339,-96"/>
<text text-anchor="start" x="3174" y="-84" font-family="Helvetica,sans-Serif" font-size="10.00">/home/runner/work/doxygen</text>
<text text-anchor="middle" x="3252.5" y="-73" font-family="Helvetica,sans-Serif" font-size="10.00">/doxygen/src/docbookvisitor.cpp</text>
</a>
</g>
</g>
<!-- Node1&#45;&gt;Node3 -->
<g id="edge2" class="edge">
<title>Node1&#45;&gt;Node3</title>
<path fill="none" stroke="#63b8ff" d="M2454,-142.8C2599.92,-136.93 2902.05,-122.56 3156.5,-96 3159.6,-95.68 3162.75,-95.33 3165.93,-94.96"/>
<polygon fill="#63b8ff" stroke="#63b8ff" points="2453.62,-139.31 2443.77,-143.2 2453.9,-146.3 2453.62,-139.31"/>
</g>
<!-- Node4 -->
<g id="node4" class="node">
<title>Node4</title>
<g id="a_node4"><a xlink:href="../../dc/d98/doxygen_8cpp.html" target="_top" xlink:title=" ">
<polygon fill="white" stroke="#666666" points="333.5,-30 179.5,-30 179.5,0 333.5,0 333.5,-30"/>
<text text-anchor="start" x="187.5" y="-18" font-family="Helvetica,sans-Serif" font-size="10.00">/home/runner/work/doxygen</text>
<text text-anchor="middle" x="256.5" y="-7" font-family="Helvetica,sans-Serif" font-size="10.00">/doxygen/src/doxygen.cpp</text>
</a>
</g>
</g>
<!-- Node1&#45;&gt;Node4 -->
<g id="edge3" class="edge">
<title>Node1&#45;&gt;Node4</title>
<path fill="none" stroke="#63b8ff" d="M2279.11,-141.53C1916.04,-122.89 536.67,-51.31 342.5,-30 339.64,-29.69 336.74,-29.34 333.8,-28.97"/>
<polygon fill="#63b8ff" stroke="#63b8ff" points="2279.13,-145.04 2289.3,-142.05 2279.49,-138.05 2279.13,-145.04"/>
</g>
<!-- Node5 -->
<g id="node5" class="node">
<title>Node5</title>
<g id="a_node5"><a xlink:href="../../d2/db9/outputlist_8h.html" target="_top" xlink:title=" ">
<polygon fill="white" stroke="#666666" points="3147.5,-96 2993.5,-96 2993.5,-66 3147.5,-66 3147.5,-96"/>
<text text-anchor="start" x="3001.5" y="-84" font-family="Helvetica,sans-Serif" font-size="10.00">/home/runner/work/doxygen</text>
<text text-anchor="middle" x="3070.5" y="-73" font-family="Helvetica,sans-Serif" font-size="10.00">/doxygen/src/outputlist.h</text>
</a>
</g>
</g>
<!-- Node1&#45;&gt;Node5 -->
<g id="edge4" class="edge">
<title>Node1&#45;&gt;Node5</title>
<path fill="none" stroke="#63b8ff" d="M2453.69,-138.07C2592.46,-125.46 2861.36,-101.01 2993.47,-89"/>
<polygon fill="#63b8ff" stroke="#63b8ff" points="2453.16,-134.61 2443.52,-139 2453.79,-141.58 2453.16,-134.61"/>
</g>
<!-- Node5&#45;&gt;Node2 -->
<g id="edge12" class="edge">
<title>Node5&#45;&gt;Node2</title>
<path fill="none" stroke="#63b8ff" d="M2982.93,-80.11C2561.24,-80.39 737.06,-78.72 170.5,-30 167.51,-29.74 164.46,-29.45 161.39,-29.12"/>
<polygon fill="#63b8ff" stroke="#63b8ff" points="2983.22,-83.61 2993.22,-80.1 2983.22,-76.61 2983.22,-83.61"/>
</g>
<!-- Node5&#45;&gt;Node4 -->
<g id="edge13" class="edge">
<title>Node5&#45;&gt;Node4</title>
<path fill="none" stroke="#63b8ff" d="M2983.18,-80.08C2577.39,-80.2 873.1,-77.8 342.5,-30 339.64,-29.74 336.73,-29.45 333.79,-29.12"/>
<polygon fill="#63b8ff" stroke="#63b8ff" points="2983.39,-83.58 2993.39,-80.08 2983.38,-76.58 2983.39,-83.58"/>
</g>
<!-- Node6 -->
<g id="node6" class="node">
<title>Node6</title>
<g id="a_node6"><a xlink:href="../../de/d89/classdef_8cpp.html" target="_top" xlink:title=" ">
<polygon fill="white" stroke="#666666" points="5586.5,-30 5432.5,-30 5432.5,0 5586.5,0 5586.5,-30"/>
<text text-anchor="start" x="5440.5" y="-18" font-family="Helvetica,sans-Serif" font-size="10.00">/home/runner/work/doxygen</text>
<text text-anchor="middle" x="5509.5" y="-7" font-family="Helvetica,sans-Serif" font-size="10.00">/doxygen/src/classdef.cpp</text>
</a>
</g>
</g>
<!-- Node5&#45;&gt;Node6 -->
<g id="edge5" class="edge">
<title>Node5&#45;&gt;Node6</title>
<path fill="none" stroke="#63b8ff" d="M3157.74,-66.1C4162.58,21.31 4423.52,-118.86 5423.5,-30 5426.36,-29.75 5429.27,-29.45 5432.21,-29.13"/>
<polygon fill="#63b8ff" stroke="#63b8ff" points="3157.41,-62.62 3147.75,-66.98 3158.02,-69.59 3157.41,-62.62"/>
</g>
<!-- Node7 -->
<g id="node7" class="node">
<title>Node7</title>
<g id="a_node7"><a xlink:href="../../d6/d10/classlist_8cpp.html" target="_top" xlink:title=" ">
<polygon fill="white" stroke="#666666" points="5758.5,-30 5604.5,-30 5604.5,0 5758.5,0 5758.5,-30"/>
<text text-anchor="start" x="5612.5" y="-18" font-family="Helvetica,sans-Serif" font-size="10.00">/home/runner/work/doxygen</text>
<text text-anchor="middle" x="5681.5" y="-7" font-family="Helvetica,sans-Serif" font-size="10.00">/doxygen/src/classlist.cpp</text>
</a>
</g>
</g>
<!-- Node5&#45;&gt;Node7 -->
<g id="edge6" class="edge">
<title>Node5&#45;&gt;Node7</title>
<path fill="none" stroke="#63b8ff" d="M3158.1,-66.07C4238.84,27.36 4519.45,-125.01 5595.5,-30 5598.36,-29.75 5601.27,-29.45 5604.21,-29.13"/>
<polygon fill="#63b8ff" stroke="#63b8ff" points="3157.41,-62.62 3147.75,-66.97 3158.01,-69.59 3157.41,-62.62"/>
</g>
<!-- Node8 -->
<g id="node8" class="node">
<title>Node8</title>
<g id="a_node8"><a xlink:href="../../da/d1f/code_8l.html" target="_top" xlink:title=" ">
<polygon fill="white" stroke="#666666" points="5930.5,-30 5776.5,-30 5776.5,0 5930.5,0 5930.5,-30"/>
<text text-anchor="start" x="5784.5" y="-18" font-family="Helvetica,sans-Serif" font-size="10.00">/home/runner/work/doxygen</text>
<text text-anchor="middle" x="5853.5" y="-7" font-family="Helvetica,sans-Serif" font-size="10.00">/doxygen/src/code.l</text>
</a>
</g>
</g>
<!-- Node5&#45;&gt;Node8 -->
<g id="edge7" class="edge">
<title>Node5&#45;&gt;Node8</title>
<path fill="none" stroke="#63b8ff" d="M3157.97,-66.09C4315.01,33.45 4615.22,-131.18 5767.5,-30 5770.36,-29.75 5773.27,-29.46 5776.21,-29.13"/>
<polygon fill="#63b8ff" stroke="#63b8ff" points="3157.41,-62.62 3147.75,-66.97 3158.01,-69.6 3157.41,-62.62"/>
</g>
<!-- Node9 -->
<g id="node9" class="node">
<title>Node9</title>
<g id="a_node9"><a xlink:href="../../d8/d0a/conceptdef_8cpp.html" target="_top" xlink:title=" ">
<polygon fill="white" stroke="#666666" points="6104,-30 5949,-30 5949,0 6104,0 6104,-30"/>
<text text-anchor="start" x="5957" y="-18" font-family="Helvetica,sans-Serif" font-size="10.00">/home/runner/work/doxygen</text>
<text text-anchor="middle" x="6026.5" y="-7" font-family="Helvetica,sans-Serif" font-size="10.00">/doxygen/src/conceptdef.cpp</text>
</a>
</g>
</g>
<!-- Node5&#45;&gt;Node9 -->
<g id="edge8" class="edge">
<title>Node5&#45;&gt;Node9</title>
<path fill="none" stroke="#63b8ff" d="M3157.73,-66.11C4391.17,39.57 4710.86,-136.23 5939.5,-30 5942.55,-29.74 5945.65,-29.43 5948.78,-29.09"/>
<polygon fill="#63b8ff" stroke="#63b8ff" points="3157.41,-62.62 3147.75,-66.97 3158.01,-69.6 3157.41,-62.62"/>
</g>
<!-- Node10 -->
<g id="node10" class="node">
<title>Node10</title>
<g id="a_node10"><a xlink:href="../../db/d12/context_8cpp.html" target="_top" xlink:title=" ">
<polygon fill="white" stroke="#666666" points="6276.5,-30 6122.5,-30 6122.5,0 6276.5,0 6276.5,-30"/>
<text text-anchor="start" x="6130.5" y="-18" font-family="Helvetica,sans-Serif" font-size="10.00">/home/runner/work/doxygen</text>
<text text-anchor="middle" x="6199.5" y="-7" font-family="Helvetica,sans-Serif" font-size="10.00">/doxygen/src/context.cpp</text>
</a>
</g>
</g>
<!-- Node5&#45;&gt;Node10 -->
<g id="edge9" class="edge">
<title>Node5&#45;&gt;Node10</title>
<path fill="none" stroke="#63b8ff" d="M3158.04,-66.09C3828.88,-10.45 5462.39,-86.64 6113.5,-30 6116.36,-29.75 6119.28,-29.46 6122.21,-29.14"/>
<polygon fill="#63b8ff" stroke="#63b8ff" points="3157.42,-62.63 3147.75,-66.96 3158.01,-69.61 3157.42,-62.63"/>
</g>
<!-- Node11 -->
<g id="node11" class="node">
<title>Node11</title>
<g id="a_node11"><a xlink:href="../../d3/dea/definition_8cpp.html" target="_top" xlink:title=" ">
<polygon fill="white" stroke="#666666" points="6448.5,-30 6294.5,-30 6294.5,0 6448.5,0 6448.5,-30"/>
<text text-anchor="start" x="6302.5" y="-18" font-family="Helvetica,sans-Serif" font-size="10.00">/home/runner/work/doxygen</text>
<text text-anchor="middle" x="6371.5" y="-7" font-family="Helvetica,sans-Serif" font-size="10.00">/doxygen/src/definition.cpp</text>
</a>
</g>
</g>
<!-- Node5&#45;&gt;Node11 -->
<g id="edge10" class="edge">
<title>Node5&#45;&gt;Node11</title>
<path fill="none" stroke="#63b8ff" d="M3157.85,-66.11C3866.69,-7.41 5596.24,-89.73 6285.5,-30 6288.36,-29.75 6291.28,-29.46 6294.21,-29.14"/>
<polygon fill="#63b8ff" stroke="#63b8ff" points="3157.42,-62.63 3147.75,-66.96 3158.01,-69.61 3157.42,-62.63"/>
</g>
<!-- Node12 -->
<g id="node12" class="node">
<title>Node12</title>
<g id="a_node12"><a xlink:href="../../d8/d52/dirdef_8cpp.html" target="_top" xlink:title=" ">
<polygon fill="white" stroke="#666666" points="505.5,-30 351.5,-30 351.5,0 505.5,0 505.5,-30"/>
<text text-anchor="start" x="359.5" y="-18" font-family="Helvetica,sans-Serif" font-size="10.00">/home/runner/work/doxygen</text>
<text text-anchor="middle" x="428.5" y="-7" font-family="Helvetica,sans-Serif" font-size="10.00">/doxygen/src/dirdef.cpp</text>
</a>
</g>
</g>
<!-- Node5&#45;&gt;Node12 -->
<g id="edge11" class="edge">
<title>Node5&#45;&gt;Node12</title>
<path fill="none" stroke="#63b8ff" d="M2983.3,-79.96C2593.64,-79.5 1009.32,-74.89 514.5,-30 511.64,-29.74 508.73,-29.44 505.79,-29.11"/>
<polygon fill="#63b8ff" stroke="#63b8ff" points="2983.38,-83.46 2993.39,-79.97 2983.39,-76.46 2983.38,-83.46"/>
</g>
<!-- Node13 -->
<g id="node13" class="node">
<title>Node13</title>
<g id="a_node13"><a xlink:href="../../d6/ddc/filedef_8cpp.html" target="_top" xlink:title=" ">
<polygon fill="white" stroke="#666666" points="677.5,-30 523.5,-30 523.5,0 677.5,0 677.5,-30"/>
<text text-anchor="start" x="531.5" y="-18" font-family="Helvetica,sans-Serif" font-size="10.00">/home/runner/work/doxygen</text>
<text text-anchor="middle" x="600.5" y="-7" font-family="Helvetica,sans-Serif" font-size="10.00">/doxygen/src/filedef.cpp</text>
</a>
</g>
</g>
<!-- Node5&#45;&gt;Node13 -->
<g id="edge14" class="edge">
<title>Node5&#45;&gt;Node13</title>
<path fill="none" stroke="#63b8ff" d="M2983.11,-79.81C2609.59,-78.75 1145.48,-71.96 686.5,-30 683.64,-29.74 680.73,-29.44 677.79,-29.11"/>
<polygon fill="#63b8ff" stroke="#63b8ff" points="2983.3,-83.31 2993.31,-79.84 2983.32,-76.31 2983.3,-83.31"/>
</g>
<!-- Node14 -->
<g id="node14" class="node">
<title>Node14</title>
<g id="a_node14"><a xlink:href="../../d9/d74/fileparser_8cpp.html" target="_top" xlink:title=" ">
<polygon fill="white" stroke="#666666" points="849.5,-30 695.5,-30 695.5,0 849.5,0 849.5,-30"/>
<text text-anchor="start" x="703.5" y="-18" font-family="Helvetica,sans-Serif" font-size="10.00">/home/runner/work/doxygen</text>
<text text-anchor="middle" x="772.5" y="-7" font-family="Helvetica,sans-Serif" font-size="10.00">/doxygen/src/fileparser.cpp</text>
</a>
</g>
</g>
<!-- Node5&#45;&gt;Node14 -->
<g id="edge15" class="edge">
<title>Node5&#45;&gt;Node14</title>
<path fill="none" stroke="#63b8ff" d="M2983.01,-79.65C2626.43,-77.95 1281.77,-69.05 858.5,-30 855.64,-29.74 852.73,-29.43 849.79,-29.1"/>
<polygon fill="#63b8ff" stroke="#63b8ff" points="2983.25,-83.15 2993.27,-79.69 2983.28,-76.15 2983.25,-83.15"/>
</g>
<!-- Node15 -->
<g id="node15" class="node">
<title>Node15</title>
<g id="a_node15"><a xlink:href="../../d9/d5b/fortrancode_8l.html" target="_top" xlink:title=" ">
<polygon fill="white" stroke="#666666" points="1021.5,-30 867.5,-30 867.5,0 1021.5,0 1021.5,-30"/>
<text text-anchor="start" x="875.5" y="-18" font-family="Helvetica,sans-Serif" font-size="10.00">/home/runner/work/doxygen</text>
<text text-anchor="middle" x="944.5" y="-7" font-family="Helvetica,sans-Serif" font-size="10.00">/doxygen/src/fortrancode.l</text>
</a>
</g>
</g>
<!-- Node5&#45;&gt;Node15 -->
<g id="edge16" class="edge">
<title>Node5&#45;&gt;Node15</title>
<path fill="none" stroke="#63b8ff" d="M2983.14,-79.45C2644.52,-77.08 1418.25,-66.14 1030.5,-30 1027.64,-29.73 1024.73,-29.43 1021.79,-29.09"/>
<polygon fill="#63b8ff" stroke="#63b8ff" points="2983.35,-82.95 2993.37,-79.52 2983.4,-75.95 2983.35,-82.95"/>
</g>
<!-- Node16 -->
<g id="node16" class="node">
<title>Node16</title>
<g id="a_node16"><a xlink:href="../../db/d41/ftvhelp_8cpp.html" target="_top" xlink:title=" ">
<polygon fill="white" stroke="#666666" points="1193.5,-30 1039.5,-30 1039.5,0 1193.5,0 1193.5,-30"/>
<text text-anchor="start" x="1047.5" y="-18" font-family="Helvetica,sans-Serif" font-size="10.00">/home/runner/work/doxygen</text>
<text text-anchor="middle" x="1116.5" y="-7" font-family="Helvetica,sans-Serif" font-size="10.00">/doxygen/src/ftvhelp.cpp</text>
</a>
</g>
</g>
<!-- Node5&#45;&gt;Node16 -->
<g id="edge17" class="edge">
<title>Node5&#45;&gt;Node16</title>
<path fill="none" stroke="#63b8ff" d="M2983.09,-79.22C2662.95,-76.13 1554.77,-63.24 1202.5,-30 1199.64,-29.73 1196.73,-29.42 1193.79,-29.09"/>
<polygon fill="#63b8ff" stroke="#63b8ff" points="2983.21,-82.72 2993.24,-79.32 2983.28,-75.72 2983.21,-82.72"/>
</g>
<!-- Node17 -->
<g id="node17" class="node">
<title>Node17</title>
<g id="a_node17"><a xlink:href="../../d6/d42/groupdef_8cpp.html" target="_top" xlink:title=" ">
<polygon fill="white" stroke="#666666" points="1365.5,-30 1211.5,-30 1211.5,0 1365.5,0 1365.5,-30"/>
<text text-anchor="start" x="1219.5" y="-18" font-family="Helvetica,sans-Serif" font-size="10.00">/home/runner/work/doxygen</text>
<text text-anchor="middle" x="1288.5" y="-7" font-family="Helvetica,sans-Serif" font-size="10.00">/doxygen/src/groupdef.cpp</text>
</a>
</g>
</g>
<!-- Node5&#45;&gt;Node17 -->
<g id="edge18" class="edge">
<title>Node5&#45;&gt;Node17</title>
<path fill="none" stroke="#63b8ff" d="M2982.68,-78.94C2681.45,-75.08 1691.28,-60.32 1374.5,-30 1371.64,-29.73 1368.73,-29.42 1365.79,-29.08"/>
<polygon fill="#63b8ff" stroke="#63b8ff" points="2983.06,-82.45 2993.1,-79.08 2983.15,-75.45 2983.06,-82.45"/>
</g>
<!-- Node18 -->
<g id="node18" class="node">
<title>Node18</title>
<g id="a_node18"><a xlink:href="../../da/db0/htmldocvisitor_8cpp.html" target="_top" xlink:title=" ">
<polygon fill="white" stroke="#666666" points="1555.5,-30 1383.5,-30 1383.5,0 1555.5,0 1555.5,-30"/>
<text text-anchor="start" x="1391.5" y="-18" font-family="Helvetica,sans-Serif" font-size="10.00">/home/runner/work/doxygen</text>
<text text-anchor="middle" x="1469.5" y="-7" font-family="Helvetica,sans-Serif" font-size="10.00">/doxygen/src/htmldocvisitor.cpp</text>
</a>
</g>
</g>
<!-- Node5&#45;&gt;Node18 -->
<g id="edge19" class="edge">
<title>Node5&#45;&gt;Node18</title>
<path fill="none" stroke="#63b8ff" d="M2983.06,-80.55C2751.27,-81.25 2102.03,-78.37 1564.5,-30 1561.59,-29.74 1558.64,-29.45 1555.66,-29.13"/>
<polygon fill="#63b8ff" stroke="#63b8ff" points="2983.13,-84.05 2993.12,-80.51 2983.11,-77.05 2983.13,-84.05"/>
</g>
<!-- Node19 -->
<g id="node19" class="node">
<title>Node19</title>
<g id="a_node19"><a xlink:href="../../d8/d6e/htmlgen_8cpp.html" target="_top" xlink:title=" ">
<polygon fill="white" stroke="#666666" points="1727.5,-30 1573.5,-30 1573.5,0 1727.5,0 1727.5,-30"/>
<text text-anchor="start" x="1581.5" y="-18" font-family="Helvetica,sans-Serif" font-size="10.00">/home/runner/work/doxygen</text>
<text text-anchor="middle" x="1650.5" y="-7" font-family="Helvetica,sans-Serif" font-size="10.00">/doxygen/src/htmlgen.cpp</text>
</a>
</g>
</g>
<!-- Node5&#45;&gt;Node19 -->
<g id="edge20" class="edge">
<title>Node5&#45;&gt;Node19</title>
<path fill="none" stroke="#63b8ff" d="M2983,-80.46C2769.44,-80.78 2204.76,-76.71 1736.5,-30 1733.64,-29.71 1730.73,-29.39 1727.8,-29.05"/>
<polygon fill="#63b8ff" stroke="#63b8ff" points="2983.21,-83.96 2993.2,-80.44 2983.2,-76.96 2983.21,-83.96"/>
</g>
<!-- Node20 -->
<g id="node20" class="node">
<title>Node20</title>
<g id="a_node20"><a xlink:href="../../db/d14/index_8cpp.html" target="_top" xlink:title="This file contains functions for the various index pages.">
<polygon fill="white" stroke="#666666" points="1899.5,-30 1745.5,-30 1745.5,0 1899.5,0 1899.5,-30"/>
<text text-anchor="start" x="1753.5" y="-18" font-family="Helvetica,sans-Serif" font-size="10.00">/home/runner/work/doxygen</text>
<text text-anchor="middle" x="1822.5" y="-7" font-family="Helvetica,sans-Serif" font-size="10.00">/doxygen/src/index.cpp</text>
</a>
</g>
</g>
<!-- Node5&#45;&gt;Node20 -->
<g id="edge21" class="edge">
<title>Node5&#45;&gt;Node20</title>
<path fill="none" stroke="#63b8ff" d="M2983.33,-79.77C2789.56,-78.48 2308.6,-71.03 1908.5,-30 1905.64,-29.71 1902.73,-29.38 1899.8,-29.03"/>
<polygon fill="#63b8ff" stroke="#63b8ff" points="2983.43,-83.27 2993.45,-79.83 2983.47,-76.27 2983.43,-83.27"/>
</g>
<!-- Node21 -->
<g id="node21" class="node">
<title>Node21</title>
<g id="a_node21"><a xlink:href="../../d1/d4e/latexdocvisitor_8cpp.html" target="_top" xlink:title=" ">
<polygon fill="white" stroke="#666666" points="2091.5,-30 1917.5,-30 1917.5,0 2091.5,0 2091.5,-30"/>
<text text-anchor="start" x="1925.5" y="-18" font-family="Helvetica,sans-Serif" font-size="10.00">/home/runner/work/doxygen</text>
<text text-anchor="middle" x="2004.5" y="-7" font-family="Helvetica,sans-Serif" font-size="10.00">/doxygen/src/latexdocvisitor.cpp</text>
</a>
</g>
</g>
<!-- Node5&#45;&gt;Node21 -->
<g id="edge22" class="edge">
<title>Node5&#45;&gt;Node21</title>
<path fill="none" stroke="#63b8ff" d="M2983.14,-78.23C2812.93,-74.17 2425.09,-61.96 2100.5,-30 2097.57,-29.71 2094.59,-29.4 2091.58,-29.06"/>
<polygon fill="#63b8ff" stroke="#63b8ff" points="2983.22,-81.73 2993.3,-78.47 2983.39,-74.73 2983.22,-81.73"/>
</g>
<!-- Node22 -->
<g id="node22" class="node">
<title>Node22</title>
<g id="a_node22"><a xlink:href="../../d4/d42/latexgen_8cpp.html" target="_top" xlink:title=" ">
<polygon fill="white" stroke="#666666" points="2263.5,-30 2109.5,-30 2109.5,0 2263.5,0 2263.5,-30"/>
<text text-anchor="start" x="2117.5" y="-18" font-family="Helvetica,sans-Serif" font-size="10.00">/home/runner/work/doxygen</text>
<text text-anchor="middle" x="2186.5" y="-7" font-family="Helvetica,sans-Serif" font-size="10.00">/doxygen/src/latexgen.cpp</text>
</a>
</g>
</g>
<!-- Node5&#45;&gt;Node22 -->
<g id="edge23" class="edge">
<title>Node5&#45;&gt;Node22</title>
<path fill="none" stroke="#63b8ff" d="M2982.93,-77.34C2835.79,-72.25 2529.8,-58.93 2272.5,-30 2269.64,-29.68 2266.74,-29.33 2263.81,-28.95"/>
<polygon fill="#63b8ff" stroke="#63b8ff" points="2983.13,-80.85 2993.24,-77.7 2983.37,-73.86 2983.13,-80.85"/>
</g>
<!-- Node23 -->
<g id="node23" class="node">
<title>Node23</title>
<g id="a_node23"><a xlink:href="../../d0/d7e/lexcode_8l.html" target="_top" xlink:title=" ">
<polygon fill="white" stroke="#666666" points="2435.5,-30 2281.5,-30 2281.5,0 2435.5,0 2435.5,-30"/>
<text text-anchor="start" x="2289.5" y="-18" font-family="Helvetica,sans-Serif" font-size="10.00">/home/runner/work/doxygen</text>
<text text-anchor="middle" x="2358.5" y="-7" font-family="Helvetica,sans-Serif" font-size="10.00">/doxygen/src/lexcode.l</text>
</a>
</g>
</g>
<!-- Node5&#45;&gt;Node23 -->
<g id="edge24" class="edge">
<title>Node5&#45;&gt;Node23</title>
<path fill="none" stroke="#63b8ff" d="M2982.87,-75.27C2861.6,-68.2 2635.91,-53.18 2444.5,-30 2441.65,-29.65 2438.74,-29.28 2435.81,-28.89"/>
<polygon fill="#63b8ff" stroke="#63b8ff" points="2983.01,-78.78 2993.2,-75.86 2983.42,-71.79 2983.01,-78.78"/>
</g>
<!-- Node24 -->
<g id="node24" class="node">
<title>Node24</title>
<g id="a_node24"><a xlink:href="../../d7/de7/mangen_8cpp.html" target="_top" xlink:title=" ">
<polygon fill="white" stroke="#666666" points="2607.5,-30 2453.5,-30 2453.5,0 2607.5,0 2607.5,-30"/>
<text text-anchor="start" x="2461.5" y="-18" font-family="Helvetica,sans-Serif" font-size="10.00">/home/runner/work/doxygen</text>
<text text-anchor="middle" x="2530.5" y="-7" font-family="Helvetica,sans-Serif" font-size="10.00">/doxygen/src/mangen.cpp</text>
</a>
</g>
</g>
<!-- Node5&#45;&gt;Node24 -->
<g id="edge25" class="edge">
<title>Node5&#45;&gt;Node24</title>
<path fill="none" stroke="#63b8ff" d="M2983.18,-71.74C2891.65,-62.76 2743.73,-47.35 2616.5,-30 2613.65,-29.61 2610.75,-29.2 2607.83,-28.78"/>
<polygon fill="#63b8ff" stroke="#63b8ff" points="2982.94,-75.23 2993.23,-72.72 2983.62,-68.26 2982.94,-75.23"/>
</g>
<!-- Node25 -->
<g id="node25" class="node">
<title>Node25</title>
<g id="a_node25"><a xlink:href="../../d0/d72/memberdef_8cpp.html" target="_top" xlink:title=" ">
<polygon fill="white" stroke="#666666" points="2783.5,-30 2625.5,-30 2625.5,0 2783.5,0 2783.5,-30"/>
<text text-anchor="start" x="2633.5" y="-18" font-family="Helvetica,sans-Serif" font-size="10.00">/home/runner/work/doxygen</text>
<text text-anchor="middle" x="2704.5" y="-7" font-family="Helvetica,sans-Serif" font-size="10.00">/doxygen/src/memberdef.cpp</text>
</a>
</g>
</g>
<!-- Node5&#45;&gt;Node25 -->
<g id="edge26" class="edge">
<title>Node5&#45;&gt;Node25</title>
<path fill="none" stroke="#63b8ff" d="M2983.39,-64.77C2922.78,-54.17 2842.6,-40.15 2783.78,-29.86"/>
<polygon fill="#63b8ff" stroke="#63b8ff" points="2982.87,-68.23 2993.33,-66.51 2984.08,-61.34 2982.87,-68.23"/>
</g>
<!-- Node26 -->
<g id="node26" class="node">
<title>Node26</title>
<g id="a_node26"><a xlink:href="../../d6/d18/membergroup_8cpp.html" target="_top" xlink:title=" ">
<polygon fill="white" stroke="#666666" points="2973,-30 2802,-30 2802,0 2973,0 2973,-30"/>
<text text-anchor="start" x="2810" y="-18" font-family="Helvetica,sans-Serif" font-size="10.00">/home/runner/work/doxygen</text>
<text text-anchor="middle" x="2887.5" y="-7" font-family="Helvetica,sans-Serif" font-size="10.00">/doxygen/src/membergroup.cpp</text>
</a>
</g>
</g>
<!-- Node5&#45;&gt;Node26 -->
<g id="edge27" class="edge">
<title>Node5&#45;&gt;Node26</title>
<path fill="none" stroke="#63b8ff" d="M3020.72,-62.59C2991.46,-52.36 2954.96,-39.59 2927.57,-30.01"/>
<polygon fill="#63b8ff" stroke="#63b8ff" points="3019.75,-65.96 3030.34,-65.95 3022.06,-59.35 3019.75,-65.96"/>
</g>
<!-- Node27 -->
<g id="node27" class="node">
<title>Node27</title>
<g id="a_node27"><a xlink:href="../../d0/d14/memberlist_8cpp.html" target="_top" xlink:title=" ">
<polygon fill="white" stroke="#666666" points="3149.5,-30 2991.5,-30 2991.5,0 3149.5,0 3149.5,-30"/>
<text text-anchor="start" x="2999.5" y="-18" font-family="Helvetica,sans-Serif" font-size="10.00">/home/runner/work/doxygen</text>
<text text-anchor="middle" x="3070.5" y="-7" font-family="Helvetica,sans-Serif" font-size="10.00">/doxygen/src/memberlist.cpp</text>
</a>
</g>
</g>
<!-- Node5&#45;&gt;Node27 -->
<g id="edge28" class="edge">
<title>Node5&#45;&gt;Node27</title>
<path fill="none" stroke="#63b8ff" d="M3070.5,-55.54C3070.5,-46.96 3070.5,-37.61 3070.5,-30.16"/>
<polygon fill="#63b8ff" stroke="#63b8ff" points="3067,-55.8 3070.5,-65.8 3074,-55.8 3067,-55.8"/>
</g>
<!-- Node28 -->
<g id="node28" class="node">
<title>Node28</title>
<g id="a_node28"><a xlink:href="../../d7/d1c/namespacedef_8cpp.html" target="_top" xlink:title=" ">
<polygon fill="white" stroke="#666666" points="3341,-30 3168,-30 3168,0 3341,0 3341,-30"/>
<text text-anchor="start" x="3176" y="-18" font-family="Helvetica,sans-Serif" font-size="10.00">/home/runner/work/doxygen</text>
<text text-anchor="middle" x="3254.5" y="-7" font-family="Helvetica,sans-Serif" font-size="10.00">/doxygen/src/namespacedef.cpp</text>
</a>
</g>
</g>
<!-- Node5&#45;&gt;Node28 -->
<g id="edge29" class="edge">
<title>Node5&#45;&gt;Node28</title>
<path fill="none" stroke="#63b8ff" d="M3120.55,-62.59C3149.97,-52.36 3186.67,-39.59 3214.21,-30.01"/>
<polygon fill="#63b8ff" stroke="#63b8ff" points="3119.17,-59.36 3110.88,-65.95 3121.47,-65.98 3119.17,-59.36"/>
</g>
<!-- Node29 -->
<g id="node29" class="node">
<title>Node29</title>
<g id="a_node29"><a xlink:href="../../db/dd8/outputlist_8cpp.html" target="_top" xlink:title=" ">
<polygon fill="white" stroke="#666666" points="3513.5,-30 3359.5,-30 3359.5,0 3513.5,0 3513.5,-30"/>
<text text-anchor="start" x="3367.5" y="-18" font-family="Helvetica,sans-Serif" font-size="10.00">/home/runner/work/doxygen</text>
<text text-anchor="middle" x="3436.5" y="-7" font-family="Helvetica,sans-Serif" font-size="10.00">/doxygen/src/outputlist.cpp</text>
</a>
</g>
</g>
<!-- Node5&#45;&gt;Node29 -->
<g id="edge30" class="edge">
<title>Node5&#45;&gt;Node29</title>
<path fill="none" stroke="#63b8ff" d="M3157.73,-64.75C3219.09,-54.02 3300.46,-39.79 3359.43,-29.48"/>
<polygon fill="#63b8ff" stroke="#63b8ff" points="3156.92,-61.34 3147.67,-66.51 3158.13,-68.23 3156.92,-61.34"/>
</g>
<!-- Node30 -->
<g id="node30" class="node">
<title>Node30</title>
<g id="a_node30"><a xlink:href="../../d9/db4/pagedef_8cpp.html" target="_top" xlink:title=" ">
<polygon fill="white" stroke="#666666" points="3685.5,-30 3531.5,-30 3531.5,0 3685.5,0 3685.5,-30"/>
<text text-anchor="start" x="3539.5" y="-18" font-family="Helvetica,sans-Serif" font-size="10.00">/home/runner/work/doxygen</text>
<text text-anchor="middle" x="3608.5" y="-7" font-family="Helvetica,sans-Serif" font-size="10.00">/doxygen/src/pagedef.cpp</text>
</a>
</g>
</g>
<!-- Node5&#45;&gt;Node30 -->
<g id="edge31" class="edge">
<title>Node5&#45;&gt;Node30</title>
<path fill="none" stroke="#63b8ff" d="M3158.17,-65.98C3320.92,-45.28 3364.18,-50.67 3522.5,-30 3525.35,-29.63 3528.25,-29.23 3531.18,-28.82"/>
<polygon fill="#63b8ff" stroke="#63b8ff" points="3157.26,-62.56 3147.79,-67.31 3158.15,-69.51 3157.26,-62.56"/>
</g>
<!-- Node31 -->
<g id="node31" class="node">
<title>Node31</title>
<g id="a_node31"><a xlink:href="../../d3/ded/pycode_8l.html" target="_top" xlink:title=" ">
<polygon fill="white" stroke="#666666" points="3857.5,-30 3703.5,-30 3703.5,0 3857.5,0 3857.5,-30"/>
<text text-anchor="start" x="3711.5" y="-18" font-family="Helvetica,sans-Serif" font-size="10.00">/home/runner/work/doxygen</text>
<text text-anchor="middle" x="3780.5" y="-7" font-family="Helvetica,sans-Serif" font-size="10.00">/doxygen/src/pycode.l</text>
</a>
</g>
</g>
<!-- Node5&#45;&gt;Node31 -->
<g id="edge32" class="edge">
<title>Node5&#45;&gt;Node31</title>
<path fill="none" stroke="#63b8ff" d="M3157.81,-66.05C3396.89,-39.46 3460.1,-56.87 3694.5,-30 3697.36,-29.67 3700.26,-29.32 3703.19,-28.94"/>
<polygon fill="#63b8ff" stroke="#63b8ff" points="3157.32,-62.59 3147.77,-67.18 3158.1,-69.54 3157.32,-62.59"/>
</g>
<!-- Node32 -->
<g id="node32" class="node">
<title>Node32</title>
<g id="a_node32"><a xlink:href="../../d0/d9c/rtfgen_8cpp.html" target="_top" xlink:title=" ">
<polygon fill="white" stroke="#666666" points="4029.5,-30 3875.5,-30 3875.5,0 4029.5,0 4029.5,-30"/>
<text text-anchor="start" x="3883.5" y="-18" font-family="Helvetica,sans-Serif" font-size="10.00">/home/runner/work/doxygen</text>
<text text-anchor="middle" x="3952.5" y="-7" font-family="Helvetica,sans-Serif" font-size="10.00">/doxygen/src/rtfgen.cpp</text>
</a>
</g>
</g>
<!-- Node5&#45;&gt;Node32 -->
<g id="edge33" class="edge">
<title>Node5&#45;&gt;Node32</title>
<path fill="none" stroke="#63b8ff" d="M3158.11,-66.04C3473.05,-33.54 3556.13,-63.04 3866.5,-30 3869.36,-29.7 3872.27,-29.36 3875.2,-29"/>
<polygon fill="#63b8ff" stroke="#63b8ff" points="3157.34,-62.6 3147.76,-67.12 3158.07,-69.56 3157.34,-62.6"/>
</g>
<!-- Node33 -->
<g id="node33" class="node">
<title>Node33</title>
<g id="a_node33"><a xlink:href="../../d2/dda/sqlcode_8l.html" target="_top" xlink:title=" ">
<polygon fill="white" stroke="#666666" points="4201.5,-30 4047.5,-30 4047.5,0 4201.5,0 4201.5,-30"/>
<text text-anchor="start" x="4055.5" y="-18" font-family="Helvetica,sans-Serif" font-size="10.00">/home/runner/work/doxygen</text>
<text text-anchor="middle" x="4124.5" y="-7" font-family="Helvetica,sans-Serif" font-size="10.00">/doxygen/src/sqlcode.l</text>
</a>
</g>
</g>
<!-- Node5&#45;&gt;Node33 -->
<g id="edge34" class="edge">
<title>Node5&#45;&gt;Node33</title>
<path fill="none" stroke="#63b8ff" d="M3157.94,-66.07C3549.17,-27.53 3651.95,-69.22 4038.5,-30 4041.36,-29.71 4044.27,-29.39 4047.2,-29.03"/>
<polygon fill="#63b8ff" stroke="#63b8ff" points="3157.36,-62.61 3147.76,-67.08 3158.06,-69.57 3157.36,-62.61"/>
</g>
<!-- Node34 -->
<g id="node34" class="node">
<title>Node34</title>
<g id="a_node34"><a xlink:href="../../d7/d56/tooltip_8cpp.html" target="_top" xlink:title=" ">
<polygon fill="white" stroke="#666666" points="4373.5,-30 4219.5,-30 4219.5,0 4373.5,0 4373.5,-30"/>
<text text-anchor="start" x="4227.5" y="-18" font-family="Helvetica,sans-Serif" font-size="10.00">/home/runner/work/doxygen</text>
<text text-anchor="middle" x="4296.5" y="-7" font-family="Helvetica,sans-Serif" font-size="10.00">/doxygen/src/tooltip.cpp</text>
</a>
</g>
</g>
<!-- Node5&#45;&gt;Node34 -->
<g id="edge35" class="edge">
<title>Node5&#45;&gt;Node34</title>
<path fill="none" stroke="#63b8ff" d="M3157.81,-66.08C3625.31,-21.49 3747.76,-75.39 4210.5,-30 4213.36,-29.72 4216.27,-29.4 4219.21,-29.06"/>
<polygon fill="#63b8ff" stroke="#63b8ff" points="3157.37,-62.61 3147.76,-67.05 3158.05,-69.58 3157.37,-62.61"/>
</g>
<!-- Node35 -->
<g id="node35" class="node">
<title>Node35</title>
<g id="a_node35"><a xlink:href="../../df/d2d/util_8cpp.html" target="_top" xlink:title=" ">
<polygon fill="white" stroke="#666666" points="4545.5,-30 4391.5,-30 4391.5,0 4545.5,0 4545.5,-30"/>
<text text-anchor="start" x="4399.5" y="-18" font-family="Helvetica,sans-Serif" font-size="10.00">/home/runner/work/doxygen</text>
<text text-anchor="middle" x="4468.5" y="-7" font-family="Helvetica,sans-Serif" font-size="10.00">/doxygen/src/util.cpp</text>
</a>
</g>
</g>
<!-- Node5&#45;&gt;Node35 -->
<g id="edge36" class="edge">
<title>Node5&#45;&gt;Node35</title>
<path fill="none" stroke="#63b8ff" d="M3157.82,-66.09C3701.48,-15.44 3843.61,-81.55 4382.5,-30 4385.36,-29.73 4388.27,-29.42 4391.21,-29.08"/>
<polygon fill="#63b8ff" stroke="#63b8ff" points="3157.38,-62.61 3147.75,-67.03 3158.04,-69.58 3157.38,-62.61"/>
</g>
<!-- Node36 -->
<g id="node36" class="node">
<title>Node36</title>
<g id="a_node36"><a xlink:href="../../d5/d6a/vhdlcode_8l.html" target="_top" xlink:title=" ">
<polygon fill="white" stroke="#666666" points="4717.5,-30 4563.5,-30 4563.5,0 4717.5,0 4717.5,-30"/>
<text text-anchor="start" x="4571.5" y="-18" font-family="Helvetica,sans-Serif" font-size="10.00">/home/runner/work/doxygen</text>
<text text-anchor="middle" x="4640.5" y="-7" font-family="Helvetica,sans-Serif" font-size="10.00">/doxygen/src/vhdlcode.l</text>
</a>
</g>
</g>
<!-- Node5&#45;&gt;Node36 -->
<g id="edge37" class="edge">
<title>Node5&#45;&gt;Node36</title>
<path fill="none" stroke="#63b8ff" d="M3157.83,-66.09C3777.66,-9.38 3939.44,-87.72 4554.5,-30 4557.36,-29.73 4560.27,-29.43 4563.21,-29.09"/>
<polygon fill="#63b8ff" stroke="#63b8ff" points="3157.39,-62.61 3147.75,-67.02 3158.03,-69.58 3157.39,-62.61"/>
</g>
<!-- Node37 -->
<g id="node37" class="node">
<title>Node37</title>
<g id="a_node37"><a xlink:href="../../de/dea/vhdldocgen_8cpp.html" target="_top" xlink:title=" ">
<polygon fill="white" stroke="#666666" points="4893.5,-30 4735.5,-30 4735.5,0 4893.5,0 4893.5,-30"/>
<text text-anchor="start" x="4743.5" y="-18" font-family="Helvetica,sans-Serif" font-size="10.00">/home/runner/work/doxygen</text>
<text text-anchor="middle" x="4814.5" y="-7" font-family="Helvetica,sans-Serif" font-size="10.00">/doxygen/src/vhdldocgen.cpp</text>
</a>
</g>
</g>
<!-- Node5&#45;&gt;Node37 -->
<g id="edge38" class="edge">
<title>Node5&#45;&gt;Node37</title>
<path fill="none" stroke="#63b8ff" d="M3157.78,-66.1C3853.84,-3.3 4035.14,-92.64 4726.5,-30 4729.43,-29.73 4732.4,-29.43 4735.41,-29.1"/>
<polygon fill="#63b8ff" stroke="#63b8ff" points="3157.39,-62.62 3147.75,-67.01 3158.03,-69.59 3157.39,-62.62"/>
</g>
<!-- Node38 -->
<g id="node38" class="node">
<title>Node38</title>
<g id="a_node38"><a xlink:href="../../d1/d86/vhdljjparser_8cpp.html" target="_top" xlink:title=" ">
<polygon fill="white" stroke="#666666" points="5070,-30 4911,-30 4911,0 5070,0 5070,-30"/>
<text text-anchor="start" x="4919" y="-18" font-family="Helvetica,sans-Serif" font-size="10.00">/home/runner/work/doxygen</text>
<text text-anchor="middle" x="4990.5" y="-7" font-family="Helvetica,sans-Serif" font-size="10.00">/doxygen/src/vhdljjparser.cpp</text>
</a>
</g>
</g>
<!-- Node5&#45;&gt;Node38 -->
<g id="edge39" class="edge">
<title>Node5&#45;&gt;Node38</title>
<path fill="none" stroke="#63b8ff" d="M3157.75,-66.1C3931.79,2.91 4133.16,-98.81 4902.5,-30 4905.27,-29.75 4908.09,-29.47 4910.94,-29.16"/>
<polygon fill="#63b8ff" stroke="#63b8ff" points="3157.4,-62.62 3147.75,-67 3158.02,-69.59 3157.4,-62.62"/>
</g>
<!-- Node39 -->
<g id="node39" class="node">
<title>Node39</title>
<g id="a_node39"><a xlink:href="../../dc/dc1/xmlcode_8l.html" target="_top" xlink:title=" ">
<polygon fill="white" stroke="#666666" points="5242.5,-30 5088.5,-30 5088.5,0 5242.5,0 5242.5,-30"/>
<text text-anchor="start" x="5096.5" y="-18" font-family="Helvetica,sans-Serif" font-size="10.00">/home/runner/work/doxygen</text>
<text text-anchor="middle" x="5165.5" y="-7" font-family="Helvetica,sans-Serif" font-size="10.00">/doxygen/src/xmlcode.l</text>
</a>
</g>
</g>
<!-- Node5&#45;&gt;Node39 -->
<g id="edge40" class="edge">
<title>Node5&#45;&gt;Node39</title>
<path fill="none" stroke="#63b8ff" d="M3157.81,-66.1C4010.21,9.15 4231.91,-106.53 5079.5,-30 5082.36,-29.74 5085.27,-29.44 5088.21,-29.12"/>
<polygon fill="#63b8ff" stroke="#63b8ff" points="3157.4,-62.62 3147.75,-66.99 3158.02,-69.59 3157.4,-62.62"/>
</g>
<!-- Node40 -->
<g id="node40" class="node">
<title>Node40</title>
<g id="a_node40"><a xlink:href="../../d0/dc3/xmlgen_8cpp.html" target="_top" xlink:title=" ">
<polygon fill="white" stroke="#666666" points="5414.5,-30 5260.5,-30 5260.5,0 5414.5,0 5414.5,-30"/>
<text text-anchor="start" x="5268.5" y="-18" font-family="Helvetica,sans-Serif" font-size="10.00">/home/runner/work/doxygen</text>
<text text-anchor="middle" x="5337.5" y="-7" font-family="Helvetica,sans-Serif" font-size="10.00">/doxygen/src/xmlgen.cpp</text>
</a>
</g>
</g>
<!-- Node5&#45;&gt;Node40 -->
<g id="edge41" class="edge">
<title>Node5&#45;&gt;Node40</title>
<path fill="none" stroke="#63b8ff" d="M3158.02,-66.08C4086.44,15.21 4327.8,-112.69 5251.5,-30 5254.36,-29.74 5257.27,-29.45 5260.21,-29.12"/>
<polygon fill="#63b8ff" stroke="#63b8ff" points="3157.4,-62.62 3147.75,-66.98 3158.02,-69.59 3157.4,-62.62"/>
</g>
</g>
</svg>
        <g id="navigator" transform="translate(0 0)" fill="#404254">
                <rect fill="#f2f5e9" fill-opacity="0.5" stroke="#606060" stroke-width=".5" x="0" y="0" width="60" height="60"/>
                <use id="zoomplus" xlink:href="#zoomPlus" x="17" y="9" onmousedown="handleZoom(evt,'in')"/>
                <use id="zoomminus" xlink:href="#zoomMin" x="42" y="9" onmousedown="handleZoom(evt,'out')"/>
                <use id="reset" xlink:href="#resetDef" x="30" y="36" onmousedown="handleReset()"/>
                <g id="arrowUp" xlink:href="#dirArrow" transform="translate(30 24)" onmousedown="handlePan(0,-1)">
                  <use xlink:href="#rim" fill="#404040">
                        <set attributeName="fill" to="#808080" begin="arrowUp.mouseover" end="arrowUp.mouseout"/>
                  </use>
                  <path fill="none" stroke="white" stroke-width="1.5" d="M0,-3.0v7 M-2.5,-0.5L0,-3.0L2.5,-0.5"/>
                </g>
                <g id="arrowRight" xlink:href="#dirArrow" transform="rotate(90) translate(36 -43)" onmousedown="handlePan(1,0)">
                  <use xlink:href="#rim" fill="#404040">
                        <set attributeName="fill" to="#808080" begin="arrowRight.mouseover" end="arrowRight.mouseout"/>
                  </use>
                  <path fill="none" stroke="white" stroke-width="1.5" d="M0,-3.0v7 M-2.5,-0.5L0,-3.0L2.5,-0.5"/>
                </g>
                <g id="arrowDown" xlink:href="#dirArrow" transform="rotate(180) translate(-30 -48)" onmousedown="handlePan(0,1)">
                  <use xlink:href="#rim" fill="#404040">
                        <set attributeName="fill" to="#808080" begin="arrowDown.mouseover" end="arrowDown.mouseout"/>
                  </use>
                  <path fill="none" stroke="white" stroke-width="1.5" d="M0,-3.0v7 M-2.5,-0.5L0,-3.0L2.5,-0.5"/>
                </g>
                <g id="arrowLeft" xlink:href="#dirArrow" transform="rotate(270) translate(-36 17)" onmousedown="handlePan(-1,0)">
                  <use xlink:href="#rim" fill="#404040">
                        <set attributeName="fill" to="#808080" begin="arrowLeft.mouseover" end="arrowLeft.mouseout"/>
                  </use>
                  <path fill="none" stroke="white" stroke-width="1.5" d="M0,-3.0v7 M-2.5,-0.5L0,-3.0L2.5,-0.5"/>
                </g>
        </g>
        <svg viewBox="0 0 15 15" width="100%" height="30px" preserveAspectRatio="xMaxYMin meet">
         <g id="arrow_out" transform="scale(0.3 0.3)">
          <a xlink:href="docbookgen_8h__dep__incl_org.svg" target="_base">
           <rect id="button" ry="5" rx="5" y="6" x="6" height="38" width="38"
                fill="#f2f5e9" fill-opacity="0.5" stroke="#606060" stroke-width="1.0"/>
           <path id="arrow"
             d="M 11.500037,31.436501 C 11.940474,20.09759 22.043105,11.32322 32.158766,21.979434 L 37.068811,17.246167 C 37.068811,17.246167 37.088388,32 37.088388,32 L 22.160133,31.978069 C 22.160133,31.978069 26.997745,27.140456 26.997745,27.140456 C 18.528582,18.264221 13.291696,25.230495 11.500037,31.436501 z"
             style="fill:#404040;"/>
          </a>
         </g>
        </svg>
</svg>
