<?xml version="1.0" encoding="UTF-8" standalone="no"?>
<!DOCTYPE svg PUBLIC "-//W3C//DTD SVG 1.1//EN"
 "http://www.w3.org/Graphics/SVG/1.1/DTD/svg11.dtd">
<!-- Generated by graphviz version 2.43.0 (0)
 -->
<!-- Title: DefinitionImpl Pages: 1 -->
<svg width="695pt" height="427pt"
 viewBox="0.00 0.00 695.00 427.00" xmlns="http://www.w3.org/2000/svg" xmlns:xlink="http://www.w3.org/1999/xlink">
<g id="graph0" class="graph" transform="scale(1 1) rotate(0) translate(4 423)">
<title>DefinitionImpl</title>
<!-- Node1 -->
<g id="node1" class="node">
<title>Node1</title>
<g id="a_node1"><a xlink:title=" ">
<polygon fill="#999999" stroke="#666666" points="354,-19 268,-19 268,0 354,0 354,-19"/>
<text text-anchor="middle" x="311" y="-7" font-family="Helvetica,sans-Serif" font-size="10.00">DefinitionImpl</text>
</a>
</g>
</g>
<!-- Node2 -->
<g id="node2" class="node">
<title>Node2</title>
<g id="a_node2"><a xlink:href="../../dd/d50/class_definition_impl_1_1_i_m_p_l.html" target="_top" xlink:title="Private data associated with a Symbol DefinitionImpl object.">
<polygon fill="white" stroke="#666666" points="368.5,-85 253.5,-85 253.5,-66 368.5,-66 368.5,-85"/>
<text text-anchor="middle" x="311" y="-73" font-family="Helvetica,sans-Serif" font-size="10.00">DefinitionImpl::IMPL</text>
</a>
</g>
</g>
<!-- Node2&#45;&gt;Node1 -->
<g id="edge1" class="edge">
<title>Node2&#45;&gt;Node1</title>
<path fill="none" stroke="#9a32cd" stroke-dasharray="5,2" d="M311,-55.58C311,-43.63 311,-28.72 311,-19.41"/>
<polygon fill="#9a32cd" stroke="#9a32cd" points="307.5,-55.87 311,-65.87 314.5,-55.87 307.5,-55.87"/>
<text text-anchor="middle" x="331" y="-40" font-family="Helvetica,sans-Serif" font-size="10.00"> m_impl</text>
</g>
<!-- Node3 -->
<g id="node3" class="node">
<title>Node3</title>
<g id="a_node3"><a xlink:href="../../d5/dcc/class_definition.html" target="_top" xlink:title="The common base class of all entity definitions found in the sources.">
<polygon fill="white" stroke="#666666" points="64,-419 0,-419 0,-400 64,-400 64,-419"/>
<text text-anchor="middle" x="32" y="-407" font-family="Helvetica,sans-Serif" font-size="10.00">Definition</text>
</a>
</g>
</g>
<!-- Node3&#45;&gt;Node2 -->
<g id="edge2" class="edge">
<title>Node3&#45;&gt;Node2</title>
<path fill="none" stroke="#9a32cd" stroke-dasharray="5,2" d="M28.72,-389.74C21.69,-343.55 9.71,-222.33 61,-143 80.04,-113.55 95.92,-114.63 129,-103 169.21,-88.86 216.98,-82.26 253.49,-79.18"/>
<polygon fill="#9a32cd" stroke="#9a32cd" points="25.29,-390.49 30.36,-399.79 32.2,-389.36 25.29,-390.49"/>
<text text-anchor="middle" x="50.5" y="-301.5" font-family="Helvetica,sans-Serif" font-size="10.00"> def</text>
<text text-anchor="middle" x="50.5" y="-290.5" font-family="Helvetica,sans-Serif" font-size="10.00">outerScope</text>
</g>
<!-- Node11 -->
<g id="node11" class="node">
<title>Node11</title>
<g id="a_node11"><a xlink:href="../../de/db0/class_file_def.html" target="_top" xlink:title="A model of a file symbol.">
<polygon fill="white" stroke="#666666" points="135.5,-357.5 84.5,-357.5 84.5,-338.5 135.5,-338.5 135.5,-357.5"/>
<text text-anchor="middle" x="110" y="-345.5" font-family="Helvetica,sans-Serif" font-size="10.00">FileDef</text>
</a>
</g>
</g>
<!-- Node3&#45;&gt;Node11 -->
<g id="edge13" class="edge">
<title>Node3&#45;&gt;Node11</title>
<path fill="none" stroke="#63b8ff" d="M51.28,-393.79C66.24,-382.38 86.46,-366.96 98.85,-357.51"/>
<polygon fill="#63b8ff" stroke="#63b8ff" points="49,-391.13 43.18,-399.98 53.25,-396.69 49,-391.13"/>
</g>
<!-- Node4 -->
<g id="node4" class="node">
<title>Node4</title>
<g id="a_node4"><a xlink:href="../../d1/df9/class_section_refs.html" target="_top" xlink:title="class that represents a list of constant references to sections.">
<polygon fill="white" stroke="#666666" points="222,-213 148,-213 148,-194 222,-194 222,-213"/>
<text text-anchor="middle" x="185" y="-201" font-family="Helvetica,sans-Serif" font-size="10.00">SectionRefs</text>
</a>
</g>
</g>
<!-- Node4&#45;&gt;Node2 -->
<g id="edge3" class="edge">
<title>Node4&#45;&gt;Node2</title>
<path fill="none" stroke="#9a32cd" stroke-dasharray="5,2" d="M181.44,-183.6C178.43,-161.44 177.31,-124.95 197,-103 204.9,-94.19 229.22,-87.91 253.38,-83.68"/>
<polygon fill="#9a32cd" stroke="#9a32cd" points="178.02,-184.42 183.08,-193.73 184.93,-183.3 178.02,-184.42"/>
<text text-anchor="middle" x="227.5" y="-111.5" font-family="Helvetica,sans-Serif" font-size="10.00"> sectionRefs</text>
</g>
<!-- Node5 -->
<g id="node5" class="node">
<title>Node5</title>
<g id="a_node5"><a xlink:href="../../d3/d3b/class_group_list.html" target="_top" xlink:title=" ">
<polygon fill="white" stroke="#666666" points="303.5,-213 240.5,-213 240.5,-194 303.5,-194 303.5,-213"/>
<text text-anchor="middle" x="272" y="-201" font-family="Helvetica,sans-Serif" font-size="10.00">GroupList</text>
</a>
</g>
</g>
<!-- Node5&#45;&gt;Node2 -->
<g id="edge4" class="edge">
<title>Node5&#45;&gt;Node2</title>
<path fill="none" stroke="#9a32cd" stroke-dasharray="5,2" d="M266.44,-183.97C261.26,-162.96 256.21,-128.34 270,-103 274.3,-95.11 282.06,-89.21 289.69,-85.01"/>
<polygon fill="#9a32cd" stroke="#9a32cd" points="263.13,-185.12 269.14,-193.84 269.88,-183.28 263.13,-185.12"/>
<text text-anchor="middle" x="304.5" y="-111.5" font-family="Helvetica,sans-Serif" font-size="10.00"> partOfGroups</text>
</g>
<!-- Node6 -->
<g id="node6" class="node">
<title>Node6</title>
<g id="a_node6"><a xlink:title=" ">
<polygon fill="white" stroke="#666666" points="325,-363 219,-363 219,-333 325,-333 325,-363"/>
<text text-anchor="start" x="227" y="-351" font-family="Helvetica,sans-Serif" font-size="10.00">std::vector&lt; const</text>
<text text-anchor="middle" x="272" y="-340" font-family="Helvetica,sans-Serif" font-size="10.00"> GroupDef * &gt;</text>
</a>
</g>
</g>
<!-- Node6&#45;&gt;Node5 -->
<g id="edge5" class="edge">
<title>Node6&#45;&gt;Node5</title>
<path fill="none" stroke="#63b8ff" d="M272,-322.4C272,-290 272,-234.61 272,-213.25"/>
<polygon fill="#63b8ff" stroke="#63b8ff" points="268.5,-322.82 272,-332.82 275.5,-322.82 268.5,-322.82"/>
</g>
<!-- Node7 -->
<g id="node7" class="node">
<title>Node7</title>
<g id="a_node7"><a xlink:href="../../d7/dd5/struct_doc_info.html" target="_top" xlink:title="Data associated with a detailed description.">
<polygon fill="white" stroke="#666666" points="503,-213 449,-213 449,-194 503,-194 503,-213"/>
<text text-anchor="middle" x="476" y="-201" font-family="Helvetica,sans-Serif" font-size="10.00">DocInfo</text>
</a>
</g>
</g>
<!-- Node7&#45;&gt;Node2 -->
<g id="edge6" class="edge">
<title>Node7&#45;&gt;Node2</title>
<path fill="none" stroke="#9a32cd" stroke-dasharray="5,2" d="M466.61,-184.84C459.23,-172.12 448.04,-155.14 435,-143 405.32,-115.37 361.99,-95.61 335.2,-85.13"/>
<polygon fill="#9a32cd" stroke="#9a32cd" points="463.76,-186.91 471.68,-193.95 469.88,-183.51 463.76,-186.91"/>
<text text-anchor="middle" x="439" y="-117" font-family="Helvetica,sans-Serif" font-size="10.00"> details</text>
<text text-anchor="middle" x="439" y="-106" font-family="Helvetica,sans-Serif" font-size="10.00">inbodyDocs</text>
</g>
<!-- Node8 -->
<g id="node8" class="node">
<title>Node8</title>
<g id="a_node8"><a xlink:href="../../d9/d45/class_q_c_string.html" target="_top" xlink:title="This is an alternative implementation of QCString.">
<polygon fill="white" stroke="#666666" points="505.5,-357.5 446.5,-357.5 446.5,-338.5 505.5,-338.5 505.5,-357.5"/>
<text text-anchor="middle" x="476" y="-345.5" font-family="Helvetica,sans-Serif" font-size="10.00">QCString</text>
</a>
</g>
</g>
<!-- Node8&#45;&gt;Node2 -->
<g id="edge14" class="edge">
<title>Node8&#45;&gt;Node2</title>
<path fill="none" stroke="#9a32cd" stroke-dasharray="5,2" d="M446.35,-333.84C419.65,-320.34 381.67,-296.69 362,-264 324.73,-202.07 372.21,-167.2 339,-103 335.37,-95.99 329.14,-89.81 323.47,-85.18"/>
<polygon fill="#9a32cd" stroke="#9a32cd" points="445.09,-337.13 455.62,-338.36 448.16,-330.83 445.09,-337.13"/>
<text text-anchor="middle" x="401" y="-256" font-family="Helvetica,sans-Serif" font-size="10.00"> briefSignatures</text>
<text text-anchor="middle" x="401" y="-245" font-family="Helvetica,sans-Serif" font-size="10.00">defFileExt</text>
<text text-anchor="middle" x="401" y="-234" font-family="Helvetica,sans-Serif" font-size="10.00">defFileName</text>
<text text-anchor="middle" x="401" y="-223" font-family="Helvetica,sans-Serif" font-size="10.00">docSignatures</text>
<text text-anchor="middle" x="401" y="-212" font-family="Helvetica,sans-Serif" font-size="10.00">id</text>
<text text-anchor="middle" x="401" y="-201" font-family="Helvetica,sans-Serif" font-size="10.00">localName</text>
<text text-anchor="middle" x="401" y="-190" font-family="Helvetica,sans-Serif" font-size="10.00">name</text>
<text text-anchor="middle" x="401" y="-179" font-family="Helvetica,sans-Serif" font-size="10.00">qualifiedName</text>
<text text-anchor="middle" x="401" y="-168" font-family="Helvetica,sans-Serif" font-size="10.00">ref</text>
<text text-anchor="middle" x="401" y="-157" font-family="Helvetica,sans-Serif" font-size="10.00">symbolName</text>
<text text-anchor="middle" x="401" y="-146" font-family="Helvetica,sans-Serif" font-size="10.00">...</text>
</g>
<!-- Node8&#45;&gt;Node7 -->
<g id="edge7" class="edge">
<title>Node8&#45;&gt;Node7</title>
<path fill="none" stroke="#9a32cd" stroke-dasharray="5,2" d="M476,-328.04C476,-296.75 476,-235.53 476,-213.05"/>
<polygon fill="#9a32cd" stroke="#9a32cd" points="472.5,-328.09 476,-338.09 479.5,-328.09 472.5,-328.09"/>
<text text-anchor="middle" x="486.5" y="-301.5" font-family="Helvetica,sans-Serif" font-size="10.00"> doc</text>
<text text-anchor="middle" x="486.5" y="-290.5" font-family="Helvetica,sans-Serif" font-size="10.00">file</text>
</g>
<!-- Node9 -->
<g id="node9" class="node">
<title>Node9</title>
<g id="a_node9"><a xlink:href="../../d0/da7/struct_brief_info.html" target="_top" xlink:title="Data associated with a brief description.">
<polygon fill="white" stroke="#666666" points="580.5,-213 521.5,-213 521.5,-194 580.5,-194 580.5,-213"/>
<text text-anchor="middle" x="551" y="-201" font-family="Helvetica,sans-Serif" font-size="10.00">BriefInfo</text>
</a>
</g>
</g>
<!-- Node8&#45;&gt;Node9 -->
<g id="edge9" class="edge">
<title>Node8&#45;&gt;Node9</title>
<path fill="none" stroke="#9a32cd" stroke-dasharray="5,2" d="M490.08,-330.52C493.88,-325.69 497.81,-320.28 501,-315 522.69,-279.15 540.87,-232.26 547.89,-213.16"/>
<polygon fill="#9a32cd" stroke="#9a32cd" points="487.22,-328.49 483.6,-338.45 492.64,-332.92 487.22,-328.49"/>
<text text-anchor="middle" x="534" y="-307" font-family="Helvetica,sans-Serif" font-size="10.00"> doc</text>
<text text-anchor="middle" x="534" y="-296" font-family="Helvetica,sans-Serif" font-size="10.00">file</text>
<text text-anchor="middle" x="534" y="-285" font-family="Helvetica,sans-Serif" font-size="10.00">tooltip</text>
</g>
<!-- Node9&#45;&gt;Node2 -->
<g id="edge8" class="edge">
<title>Node9&#45;&gt;Node2</title>
<path fill="none" stroke="#9a32cd" stroke-dasharray="5,2" d="M542.79,-184.6C530.91,-161.09 506.53,-120.72 472,-103 440.25,-86.7 400.75,-80.03 368.82,-77.45"/>
<polygon fill="#9a32cd" stroke="#9a32cd" points="539.73,-186.32 547.23,-193.8 546.03,-183.27 539.73,-186.32"/>
<text text-anchor="middle" x="512" y="-111.5" font-family="Helvetica,sans-Serif" font-size="10.00"> brief</text>
</g>
<!-- Node10 -->
<g id="node10" class="node">
<title>Node10</title>
<g id="a_node10"><a xlink:href="../../db/dab/struct_body_info.html" target="_top" xlink:title="Data associated with description found in the body.">
<polygon fill="white" stroke="#666666" points="130,-213 70,-213 70,-194 130,-194 130,-213"/>
<text text-anchor="middle" x="100" y="-201" font-family="Helvetica,sans-Serif" font-size="10.00">BodyInfo</text>
</a>
</g>
</g>
<!-- Node10&#45;&gt;Node2 -->
<g id="edge10" class="edge">
<title>Node10&#45;&gt;Node2</title>
<path fill="none" stroke="#9a32cd" stroke-dasharray="5,2" d="M104.66,-184.03C111.45,-161.14 126.38,-122.74 154,-103 169.74,-91.75 215.22,-84.88 253.2,-80.96"/>
<polygon fill="#9a32cd" stroke="#9a32cd" points="101.23,-183.31 101.96,-193.88 107.98,-185.16 101.23,-183.31"/>
<text text-anchor="middle" x="168" y="-111.5" font-family="Helvetica,sans-Serif" font-size="10.00"> body</text>
</g>
<!-- Node11&#45;&gt;Node10 -->
<g id="edge11" class="edge">
<title>Node11&#45;&gt;Node10</title>
<path fill="none" stroke="#9a32cd" stroke-dasharray="5,2" d="M108.67,-328.04C106.47,-296.75 102.18,-235.53 100.6,-213.05"/>
<polygon fill="#9a32cd" stroke="#9a32cd" points="105.18,-328.36 109.37,-338.09 112.17,-327.87 105.18,-328.36"/>
<text text-anchor="middle" x="126" y="-296" font-family="Helvetica,sans-Serif" font-size="10.00"> fileDef</text>
</g>
<!-- Node12 -->
<g id="node12" class="node">
<title>Node12</title>
<g id="a_node12"><a xlink:href="../../d0/d46/class_definition_mutable.html" target="_top" xlink:title=" ">
<polygon fill="white" stroke="#666666" points="186,-419 82,-419 82,-400 186,-400 186,-419"/>
<text text-anchor="middle" x="134" y="-407" font-family="Helvetica,sans-Serif" font-size="10.00">DefinitionMutable</text>
</a>
</g>
</g>
<!-- Node12&#45;&gt;Node11 -->
<g id="edge12" class="edge">
<title>Node12&#45;&gt;Node11</title>
<path fill="none" stroke="#63b8ff" d="M126.74,-390.5C122.32,-379.55 116.89,-366.07 113.43,-357.51"/>
<polygon fill="#63b8ff" stroke="#63b8ff" points="123.57,-392.01 130.56,-399.98 130.07,-389.39 123.57,-392.01"/>
</g>
<!-- Node13 -->
<g id="node13" class="node">
<title>Node13</title>
<g id="a_node13"><a xlink:href="../../d1/d7d/class_member_vector.html" target="_top" xlink:title="A vector of MemberDef object.">
<polygon fill="white" stroke="#666666" points="687,-213 599,-213 599,-194 687,-194 687,-213"/>
<text text-anchor="middle" x="643" y="-201" font-family="Helvetica,sans-Serif" font-size="10.00">MemberVector</text>
</a>
</g>
</g>
<!-- Node13&#45;&gt;Node2 -->
<g id="edge15" class="edge">
<title>Node13&#45;&gt;Node2</title>
<path fill="none" stroke="#9a32cd" stroke-dasharray="5,2" d="M630.57,-185.7C611.73,-161.84 573.41,-119.24 529,-103 476.9,-83.94 413.6,-77.99 368.67,-76.4"/>
<polygon fill="#9a32cd" stroke="#9a32cd" points="627.94,-188.02 636.8,-193.83 633.5,-183.76 627.94,-188.02"/>
<text text-anchor="middle" x="625.5" y="-117" font-family="Helvetica,sans-Serif" font-size="10.00"> referencedByMembers</text>
<text text-anchor="middle" x="625.5" y="-106" font-family="Helvetica,sans-Serif" font-size="10.00">referencesMembers</text>
</g>
</g>
</svg>
