<?xml version="1.0" encoding="UTF-8" standalone="no"?>
<!DOCTYPE svg PUBLIC "-//W3C//DTD SVG 1.1//EN"
 "http://www.w3.org/Graphics/SVG/1.1/DTD/svg11.dtd">
<!-- Generated by graphviz version 2.43.0 (0)
 -->
<!-- Title: /home/runner/work/doxygen/doxygen/src/mandocvisitor.h Pages: 1 -->
<svg width="843pt" height="313pt"
 viewBox="0.00 0.00 842.50 313.00" xmlns="http://www.w3.org/2000/svg" xmlns:xlink="http://www.w3.org/1999/xlink">
<g id="graph0" class="graph" transform="scale(1 1) rotate(0) translate(4 309)">
<title>/home/runner/work/doxygen/doxygen/src/mandocvisitor.h</title>
<!-- Node1 -->
<g id="node1" class="node">
<title>Node1</title>
<g id="a_node1"><a xlink:title=" ">
<polygon fill="#999999" stroke="#666666" points="381.5,-305 221.5,-305 221.5,-275 381.5,-275 381.5,-305"/>
<text text-anchor="start" x="229.5" y="-293" font-family="Helvetica,sans-Serif" font-size="10.00">/home/runner/work/doxygen</text>
<text text-anchor="middle" x="301.5" y="-282" font-family="Helvetica,sans-Serif" font-size="10.00">/doxygen/src/mandocvisitor.h</text>
</a>
</g>
</g>
<!-- Node2 -->
<g id="node2" class="node">
<title>Node2</title>
<g id="a_node2"><a xlink:title=" ">
<polygon fill="#e0e0e0" stroke="#999999" points="217.5,-239 157.5,-239 157.5,-220 217.5,-220 217.5,-239"/>
<text text-anchor="middle" x="187.5" y="-227" font-family="Helvetica,sans-Serif" font-size="10.00">iostream</text>
</a>
</g>
</g>
<!-- Node1&#45;&gt;Node2 -->
<g id="edge1" class="edge">
<title>Node1&#45;&gt;Node2</title>
<path fill="none" stroke="#63b8ff" d="M274.2,-274.99C255.86,-265.58 231.82,-253.24 213.72,-243.95"/>
<polygon fill="#63b8ff" stroke="#63b8ff" points="214.83,-240.59 204.34,-239.14 211.64,-246.82 214.83,-240.59"/>
</g>
<!-- Node3 -->
<g id="node3" class="node">
<title>Node3</title>
<g id="a_node3"><a xlink:href="../../d7/d5c/qcstring_8h.html" target="_top" xlink:title=" ">
<polygon fill="white" stroke="#666666" points="523,-129 458,-129 458,-110 523,-110 523,-129"/>
<text text-anchor="middle" x="490.5" y="-117" font-family="Helvetica,sans-Serif" font-size="10.00">qcstring.h</text>
</a>
</g>
</g>
<!-- Node1&#45;&gt;Node3 -->
<g id="edge2" class="edge">
<title>Node1&#45;&gt;Node3</title>
<path fill="none" stroke="#63b8ff" d="M357.19,-274.86C401.97,-260.24 461.95,-232.53 490.5,-184 498.45,-170.49 497.57,-152.4 495.22,-138.98"/>
<polygon fill="#63b8ff" stroke="#63b8ff" points="498.6,-138.05 493.05,-129.02 491.75,-139.53 498.6,-138.05"/>
</g>
<!-- Node13 -->
<g id="node13" class="node">
<title>Node13</title>
<g id="a_node13"><a xlink:href="../../d2/d3c/docvisitor_8h.html" target="_top" xlink:title=" ">
<polygon fill="white" stroke="#666666" points="370,-184 297,-184 297,-165 370,-165 370,-184"/>
<text text-anchor="middle" x="333.5" y="-172" font-family="Helvetica,sans-Serif" font-size="10.00">docvisitor.h</text>
</a>
</g>
</g>
<!-- Node1&#45;&gt;Node13 -->
<g id="edge14" class="edge">
<title>Node1&#45;&gt;Node13</title>
<path fill="none" stroke="#63b8ff" d="M305.56,-274.63C311.34,-254.12 321.95,-216.47 328.31,-193.93"/>
<polygon fill="#63b8ff" stroke="#63b8ff" points="331.7,-194.8 331.04,-184.23 324.96,-192.9 331.7,-194.8"/>
</g>
<!-- Node15 -->
<g id="node15" class="node">
<title>Node15</title>
<g id="a_node15"><a xlink:href="../../de/d2b/docnode_8h.html" target="_top" xlink:title=" ">
<polygon fill="white" stroke="#666666" points="303,-239 236,-239 236,-220 303,-220 303,-239"/>
<text text-anchor="middle" x="269.5" y="-227" font-family="Helvetica,sans-Serif" font-size="10.00">docnode.h</text>
</a>
</g>
</g>
<!-- Node1&#45;&gt;Node15 -->
<g id="edge17" class="edge">
<title>Node1&#45;&gt;Node15</title>
<path fill="none" stroke="#63b8ff" d="M293.76,-274.84C289.35,-266.78 283.79,-256.62 279.11,-248.06"/>
<polygon fill="#63b8ff" stroke="#63b8ff" points="282.17,-246.36 274.3,-239.27 276.03,-249.72 282.17,-246.36"/>
</g>
<!-- Node4 -->
<g id="node4" class="node">
<title>Node4</title>
<g id="a_node4"><a xlink:title=" ">
<polygon fill="#e0e0e0" stroke="#999999" points="834.5,-19 790.5,-19 790.5,0 834.5,0 834.5,-19"/>
<text text-anchor="middle" x="812.5" y="-7" font-family="Helvetica,sans-Serif" font-size="10.00">string</text>
</a>
</g>
</g>
<!-- Node3&#45;&gt;Node4 -->
<g id="edge3" class="edge">
<title>Node3&#45;&gt;Node4</title>
<path fill="none" stroke="#63b8ff" d="M523.16,-112.69C528.61,-111.76 534.22,-110.83 539.5,-110 595.82,-101.13 750.29,-111.18 793.5,-74 806.31,-62.99 810.67,-43.73 812.07,-29.3"/>
<polygon fill="#63b8ff" stroke="#63b8ff" points="815.58,-29.2 812.66,-19.02 808.59,-28.8 815.58,-29.2"/>
</g>
<!-- Node5 -->
<g id="node5" class="node">
<title>Node5</title>
<g id="a_node5"><a xlink:title=" ">
<polygon fill="#e0e0e0" stroke="#999999" points="648.5,-74 584.5,-74 584.5,-55 648.5,-55 648.5,-74"/>
<text text-anchor="middle" x="616.5" y="-62" font-family="Helvetica,sans-Serif" font-size="10.00">algorithm</text>
</a>
</g>
</g>
<!-- Node3&#45;&gt;Node5 -->
<g id="edge4" class="edge">
<title>Node3&#45;&gt;Node5</title>
<path fill="none" stroke="#63b8ff" d="M510.75,-109.98C531.2,-101.38 563.03,-87.99 586.44,-78.15"/>
<polygon fill="#63b8ff" stroke="#63b8ff" points="588.03,-81.27 595.89,-74.17 585.32,-74.82 588.03,-81.27"/>
</g>
<!-- Node6 -->
<g id="node6" class="node">
<title>Node6</title>
<g id="a_node6"><a xlink:title=" ">
<polygon fill="#e0e0e0" stroke="#999999" points="716,-74 667,-74 667,-55 716,-55 716,-74"/>
<text text-anchor="middle" x="691.5" y="-62" font-family="Helvetica,sans-Serif" font-size="10.00">cctype</text>
</a>
</g>
</g>
<!-- Node3&#45;&gt;Node6 -->
<g id="edge5" class="edge">
<title>Node3&#45;&gt;Node6</title>
<path fill="none" stroke="#63b8ff" d="M522.8,-109.98C559.52,-100.3 619.24,-84.56 656.89,-74.63"/>
<polygon fill="#63b8ff" stroke="#63b8ff" points="658.11,-77.92 666.89,-71.99 656.33,-71.16 658.11,-77.92"/>
</g>
<!-- Node7 -->
<g id="node7" class="node">
<title>Node7</title>
<g id="a_node7"><a xlink:title=" ">
<polygon fill="#e0e0e0" stroke="#999999" points="784.5,-74 734.5,-74 734.5,-55 784.5,-55 784.5,-74"/>
<text text-anchor="middle" x="759.5" y="-62" font-family="Helvetica,sans-Serif" font-size="10.00">cstring</text>
</a>
</g>
</g>
<!-- Node3&#45;&gt;Node7 -->
<g id="edge6" class="edge">
<title>Node3&#45;&gt;Node7</title>
<path fill="none" stroke="#63b8ff" d="M523.37,-112.52C574.96,-103.09 673.57,-84.91 724.48,-74.1"/>
<polygon fill="#63b8ff" stroke="#63b8ff" points="725.26,-77.51 734.29,-71.98 723.78,-70.67 725.26,-77.51"/>
</g>
<!-- Node8 -->
<g id="node8" class="node">
<title>Node8</title>
<g id="a_node8"><a xlink:title=" ">
<polygon fill="#e0e0e0" stroke="#999999" points="321.5,-74 275.5,-74 275.5,-55 321.5,-55 321.5,-74"/>
<text text-anchor="middle" x="298.5" y="-62" font-family="Helvetica,sans-Serif" font-size="10.00">cstdio</text>
</a>
</g>
</g>
<!-- Node3&#45;&gt;Node8 -->
<g id="edge7" class="edge">
<title>Node3&#45;&gt;Node8</title>
<path fill="none" stroke="#63b8ff" d="M459.66,-109.98C424.63,-100.32 367.71,-84.6 331.73,-74.67"/>
<polygon fill="#63b8ff" stroke="#63b8ff" points="332.3,-71.2 321.73,-71.91 330.44,-77.95 332.3,-71.2"/>
</g>
<!-- Node9 -->
<g id="node9" class="node">
<title>Node9</title>
<g id="a_node9"><a xlink:title=" ">
<polygon fill="#e0e0e0" stroke="#999999" points="389,-74 340,-74 340,-55 389,-55 389,-74"/>
<text text-anchor="middle" x="364.5" y="-62" font-family="Helvetica,sans-Serif" font-size="10.00">cstdlib</text>
</a>
</g>
</g>
<!-- Node3&#45;&gt;Node9 -->
<g id="edge8" class="edge">
<title>Node3&#45;&gt;Node9</title>
<path fill="none" stroke="#63b8ff" d="M470.26,-109.98C449.81,-101.38 417.97,-87.99 394.57,-78.15"/>
<polygon fill="#63b8ff" stroke="#63b8ff" points="395.69,-74.82 385.12,-74.17 392.98,-81.27 395.69,-74.82"/>
</g>
<!-- Node10 -->
<g id="node10" class="node">
<title>Node10</title>
<g id="a_node10"><a xlink:title=" ">
<polygon fill="#e0e0e0" stroke="#999999" points="505.5,-19 455.5,-19 455.5,0 505.5,0 505.5,-19"/>
<text text-anchor="middle" x="480.5" y="-7" font-family="Helvetica,sans-Serif" font-size="10.00">cstdint</text>
</a>
</g>
</g>
<!-- Node3&#45;&gt;Node10 -->
<g id="edge9" class="edge">
<title>Node3&#45;&gt;Node10</title>
<path fill="none" stroke="#63b8ff" d="M473.61,-109.95C460.8,-102.43 444.12,-90.15 436.5,-74 428.05,-56.09 443.99,-37.71 458.99,-25.37"/>
<polygon fill="#63b8ff" stroke="#63b8ff" points="461.26,-28.04 467.07,-19.17 457,-22.48 461.26,-28.04"/>
</g>
<!-- Node11 -->
<g id="node11" class="node">
<title>Node11</title>
<g id="a_node11"><a xlink:title=" ">
<polygon fill="#e0e0e0" stroke="#999999" points="503,-74 446,-74 446,-55 503,-55 503,-74"/>
<text text-anchor="middle" x="474.5" y="-62" font-family="Helvetica,sans-Serif" font-size="10.00">ostream</text>
</a>
</g>
</g>
<!-- Node3&#45;&gt;Node11 -->
<g id="edge10" class="edge">
<title>Node3&#45;&gt;Node11</title>
<path fill="none" stroke="#63b8ff" d="M487.86,-109.75C485.74,-102.72 482.69,-92.62 480.04,-83.84"/>
<polygon fill="#63b8ff" stroke="#63b8ff" points="483.34,-82.65 477.1,-74.09 476.64,-84.67 483.34,-82.65"/>
</g>
<!-- Node12 -->
<g id="node12" class="node">
<title>Node12</title>
<g id="a_node12"><a xlink:href="../../db/d7c/utf8_8h.html" target="_top" xlink:title="Various UTF8 related helper functions.">
<polygon fill="white" stroke="#666666" points="566,-74 521,-74 521,-55 566,-55 566,-74"/>
<text text-anchor="middle" x="543.5" y="-62" font-family="Helvetica,sans-Serif" font-size="10.00">utf8.h</text>
</a>
</g>
</g>
<!-- Node3&#45;&gt;Node12 -->
<g id="edge11" class="edge">
<title>Node3&#45;&gt;Node12</title>
<path fill="none" stroke="#63b8ff" d="M499.26,-109.75C506.97,-102.03 518.41,-90.6 527.72,-81.28"/>
<polygon fill="#63b8ff" stroke="#63b8ff" points="530.32,-83.64 534.91,-74.09 525.37,-78.69 530.32,-83.64"/>
</g>
<!-- Node12&#45;&gt;Node4 -->
<g id="edge13" class="edge">
<title>Node12&#45;&gt;Node4</title>
<path fill="none" stroke="#63b8ff" d="M566.18,-57.26C569.3,-56.46 572.48,-55.69 575.5,-55 648.42,-38.49 734.94,-23.36 780.6,-15.72"/>
<polygon fill="#63b8ff" stroke="#63b8ff" points="781.21,-19.16 790.5,-14.07 780.06,-12.26 781.21,-19.16"/>
</g>
<!-- Node12&#45;&gt;Node10 -->
<g id="edge12" class="edge">
<title>Node12&#45;&gt;Node10</title>
<path fill="none" stroke="#63b8ff" d="M533.38,-54.98C524.07,-47.15 510.03,-35.34 498.77,-25.86"/>
<polygon fill="#63b8ff" stroke="#63b8ff" points="500.72,-22.93 490.81,-19.17 496.21,-28.29 500.72,-22.93"/>
</g>
<!-- Node13&#45;&gt;Node3 -->
<g id="edge16" class="edge">
<title>Node13&#45;&gt;Node3</title>
<path fill="none" stroke="#63b8ff" d="M358.73,-164.98C384.86,-156.16 425.9,-142.31 455.24,-132.41"/>
<polygon fill="#63b8ff" stroke="#63b8ff" points="456.73,-135.6 465.08,-129.08 454.49,-128.96 456.73,-135.6"/>
</g>
<!-- Node14 -->
<g id="node14" class="node">
<title>Node14</title>
<g id="a_node14"><a xlink:title=" ">
<polygon fill="#e0e0e0" stroke="#999999" points="120.5,-74 62.5,-74 62.5,-55 120.5,-55 120.5,-74"/>
<text text-anchor="middle" x="91.5" y="-62" font-family="Helvetica,sans-Serif" font-size="10.00">memory</text>
</a>
</g>
</g>
<!-- Node13&#45;&gt;Node14 -->
<g id="edge15" class="edge">
<title>Node13&#45;&gt;Node14</title>
<path fill="none" stroke="#63b8ff" d="M318.4,-164.86C295.64,-152.01 251.01,-127.52 211.5,-110 183.66,-97.65 151.21,-85.76 127.09,-77.39"/>
<polygon fill="#63b8ff" stroke="#63b8ff" points="128.22,-74.07 117.63,-74.13 125.94,-80.69 128.22,-74.07"/>
</g>
<!-- Node15&#45;&gt;Node3 -->
<g id="edge22" class="edge">
<title>Node15&#45;&gt;Node3</title>
<path fill="none" stroke="#63b8ff" d="M303.12,-225.21C354.04,-219.56 447.36,-206.42 471.5,-184 483.75,-172.63 488.21,-153.73 489.79,-139.5"/>
<polygon fill="#63b8ff" stroke="#63b8ff" points="493.29,-139.55 490.52,-129.32 486.31,-139.05 493.29,-139.55"/>
</g>
<!-- Node15&#45;&gt;Node13 -->
<g id="edge23" class="edge">
<title>Node15&#45;&gt;Node13</title>
<path fill="none" stroke="#63b8ff" d="M279.79,-219.98C289.34,-212.07 303.78,-200.11 315.29,-190.58"/>
<polygon fill="#63b8ff" stroke="#63b8ff" points="317.56,-193.24 323.03,-184.17 313.1,-187.85 317.56,-193.24"/>
</g>
<!-- Node15&#45;&gt;Node14 -->
<g id="edge20" class="edge">
<title>Node15&#45;&gt;Node14</title>
<path fill="none" stroke="#63b8ff" d="M235.71,-221.79C232.6,-221.18 229.49,-220.58 226.5,-220 142.12,-203.67 105.62,-235.08 36.5,-184 8.09,-163.01 -10.71,-140.26 7.5,-110 17.39,-93.57 35.61,-82.89 52.56,-76.12"/>
<polygon fill="#63b8ff" stroke="#63b8ff" points="54.11,-79.28 62.32,-72.57 51.72,-72.7 54.11,-79.28"/>
</g>
<!-- Node16 -->
<g id="node16" class="node">
<title>Node16</title>
<g id="a_node16"><a xlink:title=" ">
<polygon fill="#e0e0e0" stroke="#999999" points="66.5,-129 16.5,-129 16.5,-110 66.5,-110 66.5,-129"/>
<text text-anchor="middle" x="41.5" y="-117" font-family="Helvetica,sans-Serif" font-size="10.00">stdio.h</text>
</a>
</g>
</g>
<!-- Node15&#45;&gt;Node16 -->
<g id="edge18" class="edge">
<title>Node15&#45;&gt;Node16</title>
<path fill="none" stroke="#63b8ff" d="M235.76,-221.8C174.29,-209.59 50.3,-184.86 49.5,-184 38.53,-172.18 37.43,-153.34 38.53,-139.25"/>
<polygon fill="#63b8ff" stroke="#63b8ff" points="42.02,-139.53 39.74,-129.19 35.07,-138.7 42.02,-139.53"/>
</g>
<!-- Node17 -->
<g id="node17" class="node">
<title>Node17</title>
<g id="a_node17"><a xlink:title=" ">
<polygon fill="#e0e0e0" stroke="#999999" points="257,-74 210,-74 210,-55 257,-55 257,-74"/>
<text text-anchor="middle" x="233.5" y="-62" font-family="Helvetica,sans-Serif" font-size="10.00">vector</text>
</a>
</g>
</g>
<!-- Node15&#45;&gt;Node17 -->
<g id="edge19" class="edge">
<title>Node15&#45;&gt;Node17</title>
<path fill="none" stroke="#63b8ff" d="M267.57,-219.74C261.93,-194.2 245.41,-119.43 237.64,-84.23"/>
<polygon fill="#63b8ff" stroke="#63b8ff" points="241.02,-83.32 235.45,-74.31 234.19,-84.83 241.02,-83.32"/>
</g>
<!-- Node18 -->
<g id="node18" class="node">
<title>Node18</title>
<g id="a_node18"><a xlink:title=" ">
<polygon fill="#e0e0e0" stroke="#999999" points="240,-184 189,-184 189,-165 240,-165 240,-184"/>
<text text-anchor="middle" x="214.5" y="-172" font-family="Helvetica,sans-Serif" font-size="10.00">variant</text>
</a>
</g>
</g>
<!-- Node15&#45;&gt;Node18 -->
<g id="edge21" class="edge">
<title>Node15&#45;&gt;Node18</title>
<path fill="none" stroke="#63b8ff" d="M260.42,-219.75C252.41,-212.03 240.55,-200.6 230.88,-191.28"/>
<polygon fill="#63b8ff" stroke="#63b8ff" points="233.05,-188.51 223.42,-184.09 228.19,-193.55 233.05,-188.51"/>
</g>
<!-- Node19 -->
<g id="node19" class="node">
<title>Node19</title>
<g id="a_node19"><a xlink:href="../../de/d9c/docparser_8h.html" target="_top" xlink:title=" ">
<polygon fill="white" stroke="#666666" points="132,-184 59,-184 59,-165 132,-165 132,-184"/>
<text text-anchor="middle" x="95.5" y="-172" font-family="Helvetica,sans-Serif" font-size="10.00">docparser.h</text>
</a>
</g>
</g>
<!-- Node15&#45;&gt;Node19 -->
<g id="edge24" class="edge">
<title>Node15&#45;&gt;Node19</title>
<path fill="none" stroke="#63b8ff" d="M241.55,-219.98C212.21,-211.05 165.91,-196.94 133.32,-187.02"/>
<polygon fill="#63b8ff" stroke="#63b8ff" points="134.26,-183.65 123.68,-184.08 132.22,-190.34 134.26,-183.65"/>
</g>
<!-- Node20 -->
<g id="node20" class="node">
<title>Node20</title>
<g id="a_node20"><a xlink:href="../../d7/d50/growvector_8h.html" target="_top" xlink:title=" ">
<polygon fill="white" stroke="#666666" points="202.5,-129 122.5,-129 122.5,-110 202.5,-110 202.5,-129"/>
<text text-anchor="middle" x="162.5" y="-117" font-family="Helvetica,sans-Serif" font-size="10.00">growvector.h</text>
</a>
</g>
</g>
<!-- Node15&#45;&gt;Node20 -->
<g id="edge39" class="edge">
<title>Node15&#45;&gt;Node20</title>
<path fill="none" stroke="#63b8ff" d="M237.32,-219.97C217.92,-213.24 194.2,-201.93 179.5,-184 169.22,-171.45 165.11,-153.25 163.5,-139.55"/>
<polygon fill="#63b8ff" stroke="#63b8ff" points="166.96,-139 162.64,-129.32 159.99,-139.58 166.96,-139"/>
</g>
<!-- Node22 -->
<g id="node22" class="node">
<title>Node22</title>
<g id="a_node22"><a xlink:href="../../d0/d73/htmlattrib_8h.html" target="_top" xlink:title=" ">
<polygon fill="white" stroke="#666666" points="462.5,-184 388.5,-184 388.5,-165 462.5,-165 462.5,-184"/>
<text text-anchor="middle" x="425.5" y="-172" font-family="Helvetica,sans-Serif" font-size="10.00">htmlattrib.h</text>
</a>
</g>
</g>
<!-- Node15&#45;&gt;Node22 -->
<g id="edge32" class="edge">
<title>Node15&#45;&gt;Node22</title>
<path fill="none" stroke="#63b8ff" d="M294.57,-219.98C320.53,-211.16 361.31,-197.31 390.46,-187.41"/>
<polygon fill="#63b8ff" stroke="#63b8ff" points="391.9,-190.61 400.24,-184.08 389.65,-183.99 391.9,-190.61"/>
</g>
<!-- Node23 -->
<g id="node23" class="node">
<title>Node23</title>
<g id="a_node23"><a xlink:href="../../db/dc6/htmlentity_8h.html" target="_top" xlink:title=" ">
<polygon fill="white" stroke="#666666" points="632,-184 557,-184 557,-165 632,-165 632,-184"/>
<text text-anchor="middle" x="594.5" y="-172" font-family="Helvetica,sans-Serif" font-size="10.00">htmlentity.h</text>
</a>
</g>
</g>
<!-- Node15&#45;&gt;Node23 -->
<g id="edge35" class="edge">
<title>Node15&#45;&gt;Node23</title>
<path fill="none" stroke="#63b8ff" d="M303.06,-223.03C361.02,-213.58 480.06,-194.16 546.68,-183.3"/>
<polygon fill="#63b8ff" stroke="#63b8ff" points="547.59,-186.7 556.9,-181.63 546.47,-179.79 547.59,-186.7"/>
</g>
<!-- Node19&#45;&gt;Node3 -->
<g id="edge27" class="edge">
<title>Node19&#45;&gt;Node3</title>
<path fill="none" stroke="#63b8ff" d="M132.31,-168.56C205.72,-158.71 369.96,-136.67 447.89,-126.22"/>
<polygon fill="#63b8ff" stroke="#63b8ff" points="448.41,-129.68 457.85,-124.88 447.48,-122.74 448.41,-129.68"/>
</g>
<!-- Node19&#45;&gt;Node14 -->
<g id="edge26" class="edge">
<title>Node19&#45;&gt;Node14</title>
<path fill="none" stroke="#63b8ff" d="M95.18,-164.66C94.53,-147.17 93.07,-107.8 92.2,-84.27"/>
<polygon fill="#63b8ff" stroke="#63b8ff" points="95.69,-84.02 91.82,-74.16 88.7,-84.28 95.69,-84.02"/>
</g>
<!-- Node19&#45;&gt;Node16 -->
<g id="edge25" class="edge">
<title>Node19&#45;&gt;Node16</title>
<path fill="none" stroke="#63b8ff" d="M86.59,-164.75C78.72,-157.03 67.07,-145.6 57.58,-136.28"/>
<polygon fill="#63b8ff" stroke="#63b8ff" points="59.84,-133.6 50.25,-129.09 54.94,-138.59 59.84,-133.6"/>
</g>
<!-- Node19&#45;&gt;Node20 -->
<g id="edge28" class="edge">
<title>Node19&#45;&gt;Node20</title>
<path fill="none" stroke="#63b8ff" d="M106.27,-164.98C116.27,-157.07 131.39,-145.11 143.43,-135.58"/>
<polygon fill="#63b8ff" stroke="#63b8ff" points="145.87,-138.12 151.54,-129.17 141.53,-132.63 145.87,-138.12"/>
</g>
<!-- Node20&#45;&gt;Node14 -->
<g id="edge30" class="edge">
<title>Node20&#45;&gt;Node14</title>
<path fill="none" stroke="#63b8ff" d="M151.1,-109.98C140.39,-102 124.16,-89.88 111.34,-80.31"/>
<polygon fill="#63b8ff" stroke="#63b8ff" points="113.23,-77.35 103.12,-74.17 109.04,-82.96 113.23,-77.35"/>
</g>
<!-- Node20&#45;&gt;Node17 -->
<g id="edge29" class="edge">
<title>Node20&#45;&gt;Node17</title>
<path fill="none" stroke="#63b8ff" d="M173.91,-109.98C184.61,-102 200.84,-89.88 213.67,-80.31"/>
<polygon fill="#63b8ff" stroke="#63b8ff" points="215.97,-82.96 221.89,-74.17 211.78,-77.35 215.97,-82.96"/>
</g>
<!-- Node21 -->
<g id="node21" class="node">
<title>Node21</title>
<g id="a_node21"><a xlink:title=" ">
<polygon fill="#e0e0e0" stroke="#999999" points="192,-74 139,-74 139,-55 192,-55 192,-74"/>
<text text-anchor="middle" x="165.5" y="-62" font-family="Helvetica,sans-Serif" font-size="10.00">iterator</text>
</a>
</g>
</g>
<!-- Node20&#45;&gt;Node21 -->
<g id="edge31" class="edge">
<title>Node20&#45;&gt;Node21</title>
<path fill="none" stroke="#63b8ff" d="M163,-109.75C163.39,-102.8 163.96,-92.85 164.45,-84.13"/>
<polygon fill="#63b8ff" stroke="#63b8ff" points="167.95,-84.27 165.02,-74.09 160.96,-83.88 167.95,-84.27"/>
</g>
<!-- Node22&#45;&gt;Node3 -->
<g id="edge34" class="edge">
<title>Node22&#45;&gt;Node3</title>
<path fill="none" stroke="#63b8ff" d="M435.95,-164.98C445.65,-157.07 460.32,-145.11 472,-135.58"/>
<polygon fill="#63b8ff" stroke="#63b8ff" points="474.33,-138.2 479.87,-129.17 469.91,-132.78 474.33,-138.2"/>
</g>
<!-- Node22&#45;&gt;Node17 -->
<g id="edge33" class="edge">
<title>Node22&#45;&gt;Node17</title>
<path fill="none" stroke="#63b8ff" d="M410.12,-164.84C376.75,-146.08 297.54,-101.52 257.52,-79.01"/>
<polygon fill="#63b8ff" stroke="#63b8ff" points="259.13,-75.9 248.7,-74.05 255.7,-82 259.13,-75.9"/>
</g>
<!-- Node23&#45;&gt;Node3 -->
<g id="edge38" class="edge">
<title>Node23&#45;&gt;Node3</title>
<path fill="none" stroke="#63b8ff" d="M577.79,-164.98C561.29,-156.57 535.8,-143.59 516.62,-133.81"/>
<polygon fill="#63b8ff" stroke="#63b8ff" points="518.02,-130.59 507.52,-129.17 514.84,-136.83 518.02,-130.59"/>
</g>
<!-- Node23&#45;&gt;Node4 -->
<g id="edge37" class="edge">
<title>Node23&#45;&gt;Node4</title>
<path fill="none" stroke="#63b8ff" d="M632.33,-168.75C683.61,-160.05 773.37,-136.32 813.5,-74 821.99,-60.82 820.74,-42.69 817.95,-29.18"/>
<polygon fill="#63b8ff" stroke="#63b8ff" points="821.26,-27.97 815.43,-19.12 814.47,-29.67 821.26,-27.97"/>
</g>
<!-- Node24 -->
<g id="node24" class="node">
<title>Node24</title>
<g id="a_node24"><a xlink:title=" ">
<polygon fill="#e0e0e0" stroke="#999999" points="641,-129 548,-129 548,-110 641,-110 641,-129"/>
<text text-anchor="middle" x="594.5" y="-117" font-family="Helvetica,sans-Serif" font-size="10.00">unordered_map</text>
</a>
</g>
</g>
<!-- Node23&#45;&gt;Node24 -->
<g id="edge36" class="edge">
<title>Node23&#45;&gt;Node24</title>
<path fill="none" stroke="#63b8ff" d="M594.5,-164.75C594.5,-157.8 594.5,-147.85 594.5,-139.13"/>
<polygon fill="#63b8ff" stroke="#63b8ff" points="598,-139.09 594.5,-129.09 591,-139.09 598,-139.09"/>
</g>
</g>
</svg>
