<?xml version="1.0" encoding="UTF-8" standalone="no"?>
<!DOCTYPE svg PUBLIC "-//W3C//DTD SVG 1.1//EN"
 "http://www.w3.org/Graphics/SVG/1.1/DTD/svg11.dtd">
<!-- Generated by graphviz version 2.43.0 (0)
 -->
<!-- Title: TranslatorAdapter_1_8_2 Pages: 1 -->
<svg width="2304pt" height="378pt"
 viewBox="0.00 0.00 2304.00 378.00" xmlns="http://www.w3.org/2000/svg" xmlns:xlink="http://www.w3.org/1999/xlink">
<g id="graph0" class="graph" transform="scale(1 1) rotate(0) translate(4 374)">
<title>TranslatorAdapter_1_8_2</title>
<!-- Node1 -->
<g id="node1" class="node">
<title>Node1</title>
<g id="a_node1"><a xlink:title=" ">
<polygon fill="#999999" stroke="#666666" points="1451,-56 1314,-56 1314,-37 1451,-37 1451,-56"/>
<text text-anchor="middle" x="1382.5" y="-44" font-family="Helvetica,sans-Serif" font-size="10.00">TranslatorAdapter_1_8_2</text>
</a>
</g>
</g>
<!-- Node10 -->
<g id="node10" class="node">
<title>Node10</title>
<g id="a_node10"><a xlink:href="../../de/d49/class_translator_adapter__1__8__0.html" target="_top" xlink:title="Adapter class for languages that only contain translations up to version 1.8.0.">
<polygon fill="white" stroke="#666666" points="1624,-93 1487,-93 1487,-74 1624,-74 1624,-93"/>
<text text-anchor="middle" x="1555.5" y="-81" font-family="Helvetica,sans-Serif" font-size="10.00">TranslatorAdapter_1_8_0</text>
</a>
</g>
</g>
<!-- Node1&#45;&gt;Node10 -->
<g id="edge9" class="edge">
<title>Node1&#45;&gt;Node10</title>
<path fill="none" stroke="#63b8ff" d="M1437.35,-58.15C1460.84,-63.23 1488.04,-69.12 1510.32,-73.94"/>
<polygon fill="#63b8ff" stroke="#63b8ff" points="1438.05,-54.72 1427.54,-56.03 1436.57,-61.56 1438.05,-54.72"/>
</g>
<!-- Node30 -->
<g id="node30" class="node">
<title>Node30</title>
<g id="a_node30"><a xlink:href="../../d9/d82/class_translator_croatian.html" target="_top" xlink:title=" ">
<polygon fill="white" stroke="#666666" points="1608.5,-56 1502.5,-56 1502.5,-37 1608.5,-37 1608.5,-56"/>
<text text-anchor="middle" x="1555.5" y="-44" font-family="Helvetica,sans-Serif" font-size="10.00">TranslatorCroatian</text>
</a>
</g>
</g>
<!-- Node1&#45;&gt;Node30 -->
<g id="edge29" class="edge">
<title>Node1&#45;&gt;Node30</title>
<path fill="none" stroke="#63b8ff" d="M1461.19,-46.5C1475.16,-46.5 1489.41,-46.5 1502.44,-46.5"/>
<polygon fill="#63b8ff" stroke="#63b8ff" points="1461.08,-43 1451.08,-46.5 1461.08,-50 1461.08,-43"/>
</g>
<!-- Node31 -->
<g id="node31" class="node">
<title>Node31</title>
<g id="a_node31"><a xlink:href="../../de/d82/class_translator_polish.html" target="_top" xlink:title=" ">
<polygon fill="white" stroke="#666666" points="1602.5,-19 1508.5,-19 1508.5,0 1602.5,0 1602.5,-19"/>
<text text-anchor="middle" x="1555.5" y="-7" font-family="Helvetica,sans-Serif" font-size="10.00">TranslatorPolish</text>
</a>
</g>
</g>
<!-- Node1&#45;&gt;Node31 -->
<g id="edge30" class="edge">
<title>Node1&#45;&gt;Node31</title>
<path fill="none" stroke="#63b8ff" d="M1437.35,-34.85C1460.84,-29.77 1488.04,-23.88 1510.32,-19.06"/>
<polygon fill="#63b8ff" stroke="#63b8ff" points="1436.57,-31.44 1427.54,-36.97 1438.05,-38.28 1436.57,-31.44"/>
</g>
<!-- Node2 -->
<g id="node2" class="node">
<title>Node2</title>
<g id="a_node2"><a xlink:href="../../de/d2f/class_translator_adapter__1__8__4.html" target="_top" xlink:title=" ">
<polygon fill="white" stroke="#666666" points="1278,-56 1141,-56 1141,-37 1278,-37 1278,-56"/>
<text text-anchor="middle" x="1209.5" y="-44" font-family="Helvetica,sans-Serif" font-size="10.00">TranslatorAdapter_1_8_4</text>
</a>
</g>
</g>
<!-- Node2&#45;&gt;Node1 -->
<g id="edge1" class="edge">
<title>Node2&#45;&gt;Node1</title>
<path fill="none" stroke="#63b8ff" d="M1288.1,-46.5C1296.69,-46.5 1305.39,-46.5 1313.85,-46.5"/>
<polygon fill="#63b8ff" stroke="#63b8ff" points="1288.08,-43 1278.08,-46.5 1288.08,-50 1288.08,-43"/>
</g>
<!-- Node3 -->
<g id="node3" class="node">
<title>Node3</title>
<g id="a_node3"><a xlink:href="../../d4/d2e/class_translator_adapter__1__8__15.html" target="_top" xlink:title=" ">
<polygon fill="white" stroke="#666666" points="1105,-56 962,-56 962,-37 1105,-37 1105,-56"/>
<text text-anchor="middle" x="1033.5" y="-44" font-family="Helvetica,sans-Serif" font-size="10.00">TranslatorAdapter_1_8_15</text>
</a>
</g>
</g>
<!-- Node3&#45;&gt;Node2 -->
<g id="edge2" class="edge">
<title>Node3&#45;&gt;Node2</title>
<path fill="none" stroke="#63b8ff" d="M1115.12,-46.5C1123.77,-46.5 1132.5,-46.5 1140.98,-46.5"/>
<polygon fill="#63b8ff" stroke="#63b8ff" points="1115.02,-43 1105.02,-46.5 1115.02,-50 1115.02,-43"/>
</g>
<!-- Node4 -->
<g id="node4" class="node">
<title>Node4</title>
<g id="a_node4"><a xlink:href="../../de/dde/class_translator_adapter__1__8__19.html" target="_top" xlink:title=" ">
<polygon fill="white" stroke="#666666" points="926,-56 783,-56 783,-37 926,-37 926,-56"/>
<text text-anchor="middle" x="854.5" y="-44" font-family="Helvetica,sans-Serif" font-size="10.00">TranslatorAdapter_1_8_19</text>
</a>
</g>
</g>
<!-- Node4&#45;&gt;Node3 -->
<g id="edge3" class="edge">
<title>Node4&#45;&gt;Node3</title>
<path fill="none" stroke="#63b8ff" d="M936.49,-46.5C944.97,-46.5 953.54,-46.5 961.89,-46.5"/>
<polygon fill="#63b8ff" stroke="#63b8ff" points="936.22,-43 926.22,-46.5 936.22,-50 936.22,-43"/>
</g>
<!-- Node5 -->
<g id="node5" class="node">
<title>Node5</title>
<g id="a_node5"><a xlink:href="../../d3/d2e/class_translator_adapter__1__9__2.html" target="_top" xlink:title=" ">
<polygon fill="white" stroke="#666666" points="747,-56 610,-56 610,-37 747,-37 747,-56"/>
<text text-anchor="middle" x="678.5" y="-44" font-family="Helvetica,sans-Serif" font-size="10.00">TranslatorAdapter_1_9_2</text>
</a>
</g>
</g>
<!-- Node5&#45;&gt;Node4 -->
<g id="edge4" class="edge">
<title>Node5&#45;&gt;Node4</title>
<path fill="none" stroke="#63b8ff" d="M757.47,-46.5C765.89,-46.5 774.42,-46.5 782.75,-46.5"/>
<polygon fill="#63b8ff" stroke="#63b8ff" points="757.27,-43 747.27,-46.5 757.27,-50 757.27,-43"/>
</g>
<!-- Node6 -->
<g id="node6" class="node">
<title>Node6</title>
<g id="a_node6"><a xlink:href="../../d0/d33/class_translator_adapter__1__9__4.html" target="_top" xlink:title=" ">
<polygon fill="white" stroke="#666666" points="574,-56 437,-56 437,-37 574,-37 574,-56"/>
<text text-anchor="middle" x="505.5" y="-44" font-family="Helvetica,sans-Serif" font-size="10.00">TranslatorAdapter_1_9_4</text>
</a>
</g>
</g>
<!-- Node6&#45;&gt;Node5 -->
<g id="edge5" class="edge">
<title>Node6&#45;&gt;Node5</title>
<path fill="none" stroke="#63b8ff" d="M584.1,-46.5C592.69,-46.5 601.39,-46.5 609.85,-46.5"/>
<polygon fill="#63b8ff" stroke="#63b8ff" points="584.08,-43 574.08,-46.5 584.08,-50 584.08,-43"/>
</g>
<!-- Node7 -->
<g id="node7" class="node">
<title>Node7</title>
<g id="a_node7"><a xlink:href="../../dd/dba/class_translator_adapter__1__9__5.html" target="_top" xlink:title=" ">
<polygon fill="white" stroke="#666666" points="401,-56 264,-56 264,-37 401,-37 401,-56"/>
<text text-anchor="middle" x="332.5" y="-44" font-family="Helvetica,sans-Serif" font-size="10.00">TranslatorAdapter_1_9_5</text>
</a>
</g>
</g>
<!-- Node7&#45;&gt;Node6 -->
<g id="edge6" class="edge">
<title>Node7&#45;&gt;Node6</title>
<path fill="none" stroke="#63b8ff" d="M411.1,-46.5C419.69,-46.5 428.39,-46.5 436.85,-46.5"/>
<polygon fill="#63b8ff" stroke="#63b8ff" points="411.08,-43 401.08,-46.5 411.08,-50 411.08,-43"/>
</g>
<!-- Node8 -->
<g id="node8" class="node">
<title>Node8</title>
<g id="a_node8"><a xlink:href="../../db/d6c/class_translator_adapter_base.html" target="_top" xlink:title="Base of the translator adapter tree.">
<polygon fill="white" stroke="#666666" points="228,-56 101,-56 101,-37 228,-37 228,-56"/>
<text text-anchor="middle" x="164.5" y="-44" font-family="Helvetica,sans-Serif" font-size="10.00">TranslatorAdapterBase</text>
</a>
</g>
</g>
<!-- Node8&#45;&gt;Node7 -->
<g id="edge7" class="edge">
<title>Node8&#45;&gt;Node7</title>
<path fill="none" stroke="#63b8ff" d="M238.49,-46.5C246.95,-46.5 255.56,-46.5 263.94,-46.5"/>
<polygon fill="#63b8ff" stroke="#63b8ff" points="238.26,-43 228.26,-46.5 238.26,-50 238.26,-43"/>
</g>
<!-- Node9 -->
<g id="node9" class="node">
<title>Node9</title>
<g id="a_node9"><a xlink:href="../../d8/dfb/class_translator.html" target="_top" xlink:title="Abstract base class for all translatable text fragments.">
<polygon fill="white" stroke="#666666" points="65,-56 0,-56 0,-37 65,-37 65,-56"/>
<text text-anchor="middle" x="32.5" y="-44" font-family="Helvetica,sans-Serif" font-size="10.00">Translator</text>
</a>
</g>
</g>
<!-- Node9&#45;&gt;Node8 -->
<g id="edge8" class="edge">
<title>Node9&#45;&gt;Node8</title>
<path fill="none" stroke="#63b8ff" d="M75.54,-46.5C83.6,-46.5 92.2,-46.5 100.75,-46.5"/>
<polygon fill="#63b8ff" stroke="#63b8ff" points="75.3,-43 65.3,-46.5 75.3,-50 75.3,-43"/>
</g>
<!-- Node11 -->
<g id="node11" class="node">
<title>Node11</title>
<g id="a_node11"><a xlink:href="../../da/d24/class_translator_adapter__1__7__5.html" target="_top" xlink:title="Adapter class for languages that only contain translations up to version 1.7.5.">
<polygon fill="white" stroke="#666666" points="1797,-167 1660,-167 1660,-148 1797,-148 1797,-167"/>
<text text-anchor="middle" x="1728.5" y="-155" font-family="Helvetica,sans-Serif" font-size="10.00">TranslatorAdapter_1_7_5</text>
</a>
</g>
</g>
<!-- Node10&#45;&gt;Node11 -->
<g id="edge10" class="edge">
<title>Node10&#45;&gt;Node11</title>
<path fill="none" stroke="#63b8ff" d="M1580.82,-98.34C1601.35,-110.4 1631.83,-127.2 1660,-138.5 1668.93,-142.08 1678.77,-145.26 1688.12,-147.95"/>
<polygon fill="#63b8ff" stroke="#63b8ff" points="1582.51,-95.27 1572.13,-93.17 1578.93,-101.29 1582.51,-95.27"/>
</g>
<!-- Node26 -->
<g id="node26" class="node">
<title>Node26</title>
<g id="a_node26"><a xlink:href="../../da/db8/class_translator_armenian.html" target="_top" xlink:title=" ">
<polygon fill="white" stroke="#666666" points="1784.5,-130 1672.5,-130 1672.5,-111 1784.5,-111 1784.5,-130"/>
<text text-anchor="middle" x="1728.5" y="-118" font-family="Helvetica,sans-Serif" font-size="10.00">TranslatorArmenian</text>
</a>
</g>
</g>
<!-- Node10&#45;&gt;Node26 -->
<g id="edge25" class="edge">
<title>Node10&#45;&gt;Node26</title>
<path fill="none" stroke="#63b8ff" d="M1610.35,-95.15C1633.84,-100.23 1661.04,-106.12 1683.32,-110.94"/>
<polygon fill="#63b8ff" stroke="#63b8ff" points="1611.05,-91.72 1600.54,-93.03 1609.57,-98.56 1611.05,-91.72"/>
</g>
<!-- Node27 -->
<g id="node27" class="node">
<title>Node27</title>
<g id="a_node27"><a xlink:href="../../d9/dc1/class_translator_catalan.html" target="_top" xlink:title=" ">
<polygon fill="white" stroke="#666666" points="1779.5,-93 1677.5,-93 1677.5,-74 1779.5,-74 1779.5,-93"/>
<text text-anchor="middle" x="1728.5" y="-81" font-family="Helvetica,sans-Serif" font-size="10.00">TranslatorCatalan</text>
</a>
</g>
</g>
<!-- Node10&#45;&gt;Node27 -->
<g id="edge26" class="edge">
<title>Node10&#45;&gt;Node27</title>
<path fill="none" stroke="#63b8ff" d="M1634.15,-83.5C1648.8,-83.5 1663.76,-83.5 1677.28,-83.5"/>
<polygon fill="#63b8ff" stroke="#63b8ff" points="1634.08,-80 1624.08,-83.5 1634.08,-87 1634.08,-80"/>
</g>
<!-- Node28 -->
<g id="node28" class="node">
<title>Node28</title>
<g id="a_node28"><a xlink:href="../../d7/d21/class_translator_danish.html" target="_top" xlink:title=" ">
<polygon fill="white" stroke="#666666" points="1777.5,-56 1679.5,-56 1679.5,-37 1777.5,-37 1777.5,-56"/>
<text text-anchor="middle" x="1728.5" y="-44" font-family="Helvetica,sans-Serif" font-size="10.00">TranslatorDanish</text>
</a>
</g>
</g>
<!-- Node10&#45;&gt;Node28 -->
<g id="edge27" class="edge">
<title>Node10&#45;&gt;Node28</title>
<path fill="none" stroke="#63b8ff" d="M1610.35,-71.85C1633.84,-66.77 1661.04,-60.88 1683.32,-56.06"/>
<polygon fill="#63b8ff" stroke="#63b8ff" points="1609.57,-68.44 1600.54,-73.97 1611.05,-75.28 1609.57,-68.44"/>
</g>
<!-- Node29 -->
<g id="node29" class="node">
<title>Node29</title>
<g id="a_node29"><a xlink:href="../../df/dc8/class_translator_indonesian.html" target="_top" xlink:title=" ">
<polygon fill="white" stroke="#666666" points="1787.5,-19 1669.5,-19 1669.5,0 1787.5,0 1787.5,-19"/>
<text text-anchor="middle" x="1728.5" y="-7" font-family="Helvetica,sans-Serif" font-size="10.00">TranslatorIndonesian</text>
</a>
</g>
</g>
<!-- Node10&#45;&gt;Node29 -->
<g id="edge28" class="edge">
<title>Node10&#45;&gt;Node29</title>
<path fill="none" stroke="#63b8ff" d="M1612.42,-70.32C1616.44,-68.6 1620.35,-66.67 1624,-64.5 1643.72,-52.77 1640.2,-39.1 1660,-27.5 1665.86,-24.07 1672.39,-21.28 1679.01,-19.01"/>
<polygon fill="#63b8ff" stroke="#63b8ff" points="1610.97,-67.13 1602.86,-73.95 1613.46,-73.67 1610.97,-67.13"/>
</g>
<!-- Node12 -->
<g id="node12" class="node">
<title>Node12</title>
<g id="a_node12"><a xlink:href="../../d3/da1/class_translator_adapter__1__6__0.html" target="_top" xlink:title="Adapter class for languages that only contain translations up to version 1.6.0.">
<polygon fill="white" stroke="#666666" points="1970,-204 1833,-204 1833,-185 1970,-185 1970,-204"/>
<text text-anchor="middle" x="1901.5" y="-192" font-family="Helvetica,sans-Serif" font-size="10.00">TranslatorAdapter_1_6_0</text>
</a>
</g>
</g>
<!-- Node11&#45;&gt;Node12 -->
<g id="edge11" class="edge">
<title>Node11&#45;&gt;Node12</title>
<path fill="none" stroke="#63b8ff" d="M1783.35,-169.15C1806.84,-174.23 1834.04,-180.12 1856.32,-184.94"/>
<polygon fill="#63b8ff" stroke="#63b8ff" points="1784.05,-165.72 1773.54,-167.03 1782.57,-172.56 1784.05,-165.72"/>
</g>
<!-- Node24 -->
<g id="node24" class="node">
<title>Node24</title>
<g id="a_node24"><a xlink:href="../../d5/d43/class_translator_persian.html" target="_top" xlink:title=" ">
<polygon fill="white" stroke="#666666" points="1952,-167 1851,-167 1851,-148 1952,-148 1952,-167"/>
<text text-anchor="middle" x="1901.5" y="-155" font-family="Helvetica,sans-Serif" font-size="10.00">TranslatorPersian</text>
</a>
</g>
</g>
<!-- Node11&#45;&gt;Node24 -->
<g id="edge23" class="edge">
<title>Node11&#45;&gt;Node24</title>
<path fill="none" stroke="#63b8ff" d="M1807.26,-157.5C1822.06,-157.5 1837.18,-157.5 1850.81,-157.5"/>
<polygon fill="#63b8ff" stroke="#63b8ff" points="1807.08,-154 1797.08,-157.5 1807.08,-161 1807.08,-154"/>
</g>
<!-- Node25 -->
<g id="node25" class="node">
<title>Node25</title>
<g id="a_node25"><a xlink:href="../../dd/d80/class_translator_turkish.html" target="_top" xlink:title=" ">
<polygon fill="white" stroke="#666666" points="1951,-130 1852,-130 1852,-111 1951,-111 1951,-130"/>
<text text-anchor="middle" x="1901.5" y="-118" font-family="Helvetica,sans-Serif" font-size="10.00">TranslatorTurkish</text>
</a>
</g>
</g>
<!-- Node11&#45;&gt;Node25 -->
<g id="edge24" class="edge">
<title>Node11&#45;&gt;Node25</title>
<path fill="none" stroke="#63b8ff" d="M1783.35,-145.85C1806.84,-140.77 1834.04,-134.88 1856.32,-130.06"/>
<polygon fill="#63b8ff" stroke="#63b8ff" points="1782.57,-142.44 1773.54,-147.97 1784.05,-149.28 1782.57,-142.44"/>
</g>
<!-- Node13 -->
<g id="node13" class="node">
<title>Node13</title>
<g id="a_node13"><a xlink:href="../../d4/d2b/class_translator_adapter__1__4__6.html" target="_top" xlink:title="Adapter class for languages that only contain translations up to version 1.4.6.">
<polygon fill="white" stroke="#666666" points="2143,-315 2006,-315 2006,-296 2143,-296 2143,-315"/>
<text text-anchor="middle" x="2074.5" y="-303" font-family="Helvetica,sans-Serif" font-size="10.00">TranslatorAdapter_1_4_6</text>
</a>
</g>
</g>
<!-- Node12&#45;&gt;Node13 -->
<g id="edge12" class="edge">
<title>Node12&#45;&gt;Node13</title>
<path fill="none" stroke="#63b8ff" d="M1917.01,-211.8C1935.54,-232.78 1969.59,-267.79 2006,-287.5 2012.29,-290.91 2019.27,-293.7 2026.28,-295.98"/>
<polygon fill="#63b8ff" stroke="#63b8ff" points="1919.46,-209.28 1910.27,-204 1914.17,-213.86 1919.46,-209.28"/>
</g>
<!-- Node18 -->
<g id="node18" class="node">
<title>Node18</title>
<g id="a_node18"><a xlink:href="../../d3/d65/class_translator_afrikaans.html" target="_top" xlink:title=" ">
<polygon fill="white" stroke="#666666" points="2129.5,-278 2019.5,-278 2019.5,-259 2129.5,-259 2129.5,-278"/>
<text text-anchor="middle" x="2074.5" y="-266" font-family="Helvetica,sans-Serif" font-size="10.00">TranslatorAfrikaans</text>
</a>
</g>
</g>
<!-- Node12&#45;&gt;Node18 -->
<g id="edge17" class="edge">
<title>Node12&#45;&gt;Node18</title>
<path fill="none" stroke="#63b8ff" d="M1926.03,-209.31C1946.52,-221.7 1977.35,-239.11 2006,-250.5 2014.11,-253.73 2023,-256.56 2031.59,-258.97"/>
<polygon fill="#63b8ff" stroke="#63b8ff" points="1927.74,-206.26 1917.39,-204.01 1924.08,-212.22 1927.74,-206.26"/>
</g>
<!-- Node19 -->
<g id="node19" class="node">
<title>Node19</title>
<g id="a_node19"><a xlink:href="../../de/df7/class_translator_finnish.html" target="_top" xlink:title=" ">
<polygon fill="white" stroke="#666666" points="2124,-241 2025,-241 2025,-222 2124,-222 2124,-241"/>
<text text-anchor="middle" x="2074.5" y="-229" font-family="Helvetica,sans-Serif" font-size="10.00">TranslatorFinnish</text>
</a>
</g>
</g>
<!-- Node12&#45;&gt;Node19 -->
<g id="edge18" class="edge">
<title>Node12&#45;&gt;Node19</title>
<path fill="none" stroke="#63b8ff" d="M1956.35,-206.15C1979.84,-211.23 2007.04,-217.12 2029.32,-221.94"/>
<polygon fill="#63b8ff" stroke="#63b8ff" points="1957.05,-202.72 1946.54,-204.03 1955.57,-209.56 1957.05,-202.72"/>
</g>
<!-- Node20 -->
<g id="node20" class="node">
<title>Node20</title>
<g id="a_node20"><a xlink:href="../../d9/ddf/class_translator_macedonian.html" target="_top" xlink:title=" ">
<polygon fill="white" stroke="#666666" points="2136.5,-204 2012.5,-204 2012.5,-185 2136.5,-185 2136.5,-204"/>
<text text-anchor="middle" x="2074.5" y="-192" font-family="Helvetica,sans-Serif" font-size="10.00">TranslatorMacedonian</text>
</a>
</g>
</g>
<!-- Node12&#45;&gt;Node20 -->
<g id="edge19" class="edge">
<title>Node12&#45;&gt;Node20</title>
<path fill="none" stroke="#63b8ff" d="M1980.28,-194.5C1991,-194.5 2001.88,-194.5 2012.24,-194.5"/>
<polygon fill="#63b8ff" stroke="#63b8ff" points="1980.08,-191 1970.08,-194.5 1980.08,-198 1980.08,-191"/>
</g>
<!-- Node21 -->
<g id="node21" class="node">
<title>Node21</title>
<g id="a_node21"><a xlink:href="../../d5/d0a/class_translator_serbian.html" target="_top" xlink:title=" ">
<polygon fill="white" stroke="#666666" points="2125,-167 2024,-167 2024,-148 2125,-148 2125,-167"/>
<text text-anchor="middle" x="2074.5" y="-155" font-family="Helvetica,sans-Serif" font-size="10.00">TranslatorSerbian</text>
</a>
</g>
</g>
<!-- Node12&#45;&gt;Node21 -->
<g id="edge20" class="edge">
<title>Node12&#45;&gt;Node21</title>
<path fill="none" stroke="#63b8ff" d="M1956.35,-182.85C1979.84,-177.77 2007.04,-171.88 2029.32,-167.06"/>
<polygon fill="#63b8ff" stroke="#63b8ff" points="1955.57,-179.44 1946.54,-184.97 1957.05,-186.28 1955.57,-179.44"/>
</g>
<!-- Node22 -->
<g id="node22" class="node">
<title>Node22</title>
<g id="a_node22"><a xlink:href="../../dc/d03/class_translator_serbian_cyrillic.html" target="_top" xlink:title=" ">
<polygon fill="white" stroke="#666666" points="2142,-130 2007,-130 2007,-111 2142,-111 2142,-130"/>
<text text-anchor="middle" x="2074.5" y="-118" font-family="Helvetica,sans-Serif" font-size="10.00">TranslatorSerbianCyrillic</text>
</a>
</g>
</g>
<!-- Node12&#45;&gt;Node22 -->
<g id="edge21" class="edge">
<title>Node12&#45;&gt;Node22</title>
<path fill="none" stroke="#63b8ff" d="M1958.42,-181.32C1962.44,-179.6 1966.35,-177.67 1970,-175.5 1989.72,-163.77 1986.2,-150.1 2006,-138.5 2011.86,-135.07 2018.39,-132.28 2025.01,-130.01"/>
<polygon fill="#63b8ff" stroke="#63b8ff" points="1956.97,-178.13 1948.86,-184.95 1959.46,-184.67 1956.97,-178.13"/>
</g>
<!-- Node23 -->
<g id="node23" class="node">
<title>Node23</title>
<g id="a_node23"><a xlink:href="../../df/d20/class_translator_vietnamese.html" target="_top" xlink:title=" ">
<polygon fill="white" stroke="#666666" points="2136,-93 2013,-93 2013,-74 2136,-74 2136,-93"/>
<text text-anchor="middle" x="2074.5" y="-81" font-family="Helvetica,sans-Serif" font-size="10.00">TranslatorVietnamese</text>
</a>
</g>
</g>
<!-- Node12&#45;&gt;Node23 -->
<g id="edge22" class="edge">
<title>Node12&#45;&gt;Node23</title>
<path fill="none" stroke="#63b8ff" d="M1963.48,-180.18C1965.77,-178.76 1967.96,-177.21 1970,-175.5 1998.06,-152.04 1977.78,-124.76 2006,-101.5 2010.12,-98.11 2014.81,-95.35 2019.77,-93.1"/>
<polygon fill="#63b8ff" stroke="#63b8ff" points="1961.48,-177.27 1954.21,-184.97 1964.7,-183.49 1961.48,-177.27"/>
</g>
<!-- Node14 -->
<g id="node14" class="node">
<title>Node14</title>
<g id="a_node14"><a xlink:href="../../d3/de9/class_translator_arabic.html" target="_top" xlink:title=" ">
<polygon fill="white" stroke="#666666" points="2285,-370 2190,-370 2190,-351 2285,-351 2285,-370"/>
<text text-anchor="middle" x="2237.5" y="-358" font-family="Helvetica,sans-Serif" font-size="10.00">TranslatorArabic</text>
</a>
</g>
</g>
<!-- Node13&#45;&gt;Node14 -->
<g id="edge13" class="edge">
<title>Node13&#45;&gt;Node14</title>
<path fill="none" stroke="#63b8ff" d="M2110.94,-318.57C2130.87,-325.81 2156.25,-334.88 2179,-342.5 2187.43,-345.33 2196.6,-348.26 2205.09,-350.92"/>
<polygon fill="#63b8ff" stroke="#63b8ff" points="2111.94,-315.2 2101.35,-315.06 2109.54,-321.78 2111.94,-315.2"/>
</g>
<!-- Node15 -->
<g id="node15" class="node">
<title>Node15</title>
<g id="a_node15"><a xlink:href="../../dc/d53/class_translator_lithuanian.html" target="_top" xlink:title=" ">
<polygon fill="white" stroke="#666666" points="2295.5,-333 2179.5,-333 2179.5,-314 2295.5,-314 2295.5,-333"/>
<text text-anchor="middle" x="2237.5" y="-321" font-family="Helvetica,sans-Serif" font-size="10.00">TranslatorLithuanian</text>
</a>
</g>
</g>
<!-- Node13&#45;&gt;Node15 -->
<g id="edge14" class="edge">
<title>Node13&#45;&gt;Node15</title>
<path fill="none" stroke="#63b8ff" d="M2153.53,-314.22C2162.27,-315.2 2171.05,-316.18 2179.46,-317.12"/>
<polygon fill="#63b8ff" stroke="#63b8ff" points="2153.64,-310.71 2143.31,-313.08 2152.86,-317.67 2153.64,-310.71"/>
</g>
<!-- Node16 -->
<g id="node16" class="node">
<title>Node16</title>
<g id="a_node16"><a xlink:href="../../dd/d38/class_translator_norwegian.html" target="_top" xlink:title=" ">
<polygon fill="white" stroke="#666666" points="2296,-296 2179,-296 2179,-277 2296,-277 2296,-296"/>
<text text-anchor="middle" x="2237.5" y="-284" font-family="Helvetica,sans-Serif" font-size="10.00">TranslatorNorwegian</text>
</a>
</g>
</g>
<!-- Node13&#45;&gt;Node16 -->
<g id="edge15" class="edge">
<title>Node13&#45;&gt;Node16</title>
<path fill="none" stroke="#63b8ff" d="M2153.38,-296.31C2162,-295.29 2170.66,-294.27 2178.96,-293.29"/>
<polygon fill="#63b8ff" stroke="#63b8ff" points="2152.83,-292.85 2143.31,-297.5 2153.65,-299.8 2152.83,-292.85"/>
</g>
<!-- Node17 -->
<g id="node17" class="node">
<title>Node17</title>
<g id="a_node17"><a xlink:href="../../dd/d0b/class_translator_slovene.html" target="_top" xlink:title=" ">
<polygon fill="white" stroke="#666666" points="2289.5,-259 2185.5,-259 2185.5,-240 2289.5,-240 2289.5,-259"/>
<text text-anchor="middle" x="2237.5" y="-247" font-family="Helvetica,sans-Serif" font-size="10.00">TranslatorSlovene</text>
</a>
</g>
</g>
<!-- Node13&#45;&gt;Node17 -->
<g id="edge16" class="edge">
<title>Node13&#45;&gt;Node17</title>
<path fill="none" stroke="#63b8ff" d="M2127.12,-293.03C2132.54,-291.34 2137.92,-289.49 2143,-287.5 2159.85,-280.91 2162.35,-275.58 2179,-268.5 2187.13,-265.04 2196.11,-261.81 2204.51,-259.02"/>
<polygon fill="#63b8ff" stroke="#63b8ff" points="2125.98,-289.71 2117.38,-295.9 2127.96,-296.43 2125.98,-289.71"/>
</g>
</g>
</svg>
