<?xml version="1.0" encoding="UTF-8" standalone="no"?>
<!DOCTYPE svg PUBLIC "-//W3C//DTD SVG 1.1//EN"
 "http://www.w3.org/Graphics/SVG/1.1/DTD/svg11.dtd">
<!-- Generated by graphviz version 2.43.0 (0)
 -->
<!-- Title: /home/runner/work/doxygen/doxygen/src/dotincldepgraph.h Pages: 1 -->
<!--zoomable 588 -->
<svg id="main" version="1.1" xmlns="http://www.w3.org/2000/svg" xmlns:xlink="http://www.w3.org/1999/xlink" xml:space="preserve" onload="init(evt)">
<style type="text/css"><![CDATA[
.edge:hover path { stroke: red; }
.edge:hover polygon { stroke: red; fill: red; }
]]></style>
<script type="text/javascript"><![CDATA[
var edges = document.getElementsByTagName('g');
if (edges && edges.length) {
  for (var i=0;i<edges.length;i++) {
    if (edges[i].id.substr(0,4)=='edge') {
      edges[i].setAttribute('class','edge');
    }
  }
}
]]></script>
        <defs>
                <circle id="rim" cx="0" cy="0" r="7"/>
                <circle id="rim2" cx="0" cy="0" r="3.5"/>
                <g id="zoomPlus">
                        <use xlink:href="#rim" fill="#404040">
                                <set attributeName="fill" to="#808080" begin="zoomplus.mouseover" end="zoomplus.mouseout"/>
                        </use>
                        <path d="M-4,0h8M0,-4v8" fill="none" stroke="white" stroke-width="1.5" pointer-events="none"/>
                </g>
                <g id="zoomMin">
                        <use xlink:href="#rim" fill="#404040">
                                <set attributeName="fill" to="#808080" begin="zoomminus.mouseover" end="zoomminus.mouseout"/>
                        </use>
                        <path d="M-4,0h8" fill="none" stroke="white" stroke-width="1.5" pointer-events="none"/>
                </g>
                <g id="dirArrow">
                        <path fill="none" stroke="white" stroke-width="1.5" d="M0,-3.0v7 M-2.5,-0.5L0,-3.0L2.5,-0.5"/>
                </g>
               <g id="resetDef">
                       <use xlink:href="#rim2" fill="#404040">
                               <set attributeName="fill" to="#808080" begin="reset.mouseover" end="reset.mouseout"/>
                       </use>
               </g>
        </defs>

<script type="text/javascript">
var viewWidth = 1348;
var viewHeight = 588;
var sectionId = 'dynsection-0';
</script>
<script xlink:href="../../svgpan.js"/>
<svg id="graph" class="graph">
<g id="viewport">
<title>/home/runner/work/doxygen/doxygen/src/dotincldepgraph.h</title>
<!-- Node1 -->
<g id="node1" class="node">
<title>Node1</title>
<g id="a_node1"><a xlink:title=" ">
<polygon fill="#999999" stroke="#666666" points="1101.68,-580 931.68,-580 931.68,-550 1101.68,-550 1101.68,-580"/>
<text text-anchor="start" x="939.68" y="-568" font-family="Helvetica,sans-Serif" font-size="10.00">/home/runner/work/doxygen</text>
<text text-anchor="middle" x="1016.68" y="-557" font-family="Helvetica,sans-Serif" font-size="10.00">/doxygen/src/dotincldepgraph.h</text>
</a>
</g>
</g>
<!-- Node2 -->
<g id="node2" class="node">
<title>Node2</title>
<g id="a_node2"><a xlink:title=" ">
<polygon fill="#e0e0e0" stroke="#999999" points="1045.68,-129 987.68,-129 987.68,-110 1045.68,-110 1045.68,-129"/>
<text text-anchor="middle" x="1016.68" y="-117" font-family="Helvetica,sans-Serif" font-size="10.00">memory</text>
</a>
</g>
</g>
<!-- Node1&#45;&gt;Node2 -->
<g id="edge1" class="edge">
<title>Node1&#45;&gt;Node2</title>
<path fill="none" stroke="#63b8ff" d="M1016.68,-549.67C1016.68,-528.14 1016.68,-486.17 1016.68,-450.5 1016.68,-450.5 1016.68,-450.5 1016.68,-338.5 1016.68,-300.28 1042.51,-295.65 1074.68,-275 1118.67,-246.75 1155.88,-281.25 1186.68,-239 1191.65,-232.18 1190.88,-227.33 1186.68,-220 1158.7,-171.22 1096.52,-144.05 1055.62,-130.86"/>
<polygon fill="#63b8ff" stroke="#63b8ff" points="1056.56,-127.48 1045.97,-127.88 1054.49,-134.17 1056.56,-127.48"/>
</g>
<!-- Node3 -->
<g id="node3" class="node">
<title>Node3</title>
<g id="a_node3"><a xlink:href="../../d7/d5c/qcstring_8h.html" target="_top" xlink:title=" ">
<polygon fill="white" stroke="#666666" points="298.18,-129 233.18,-129 233.18,-110 298.18,-110 298.18,-129"/>
<text text-anchor="middle" x="265.68" y="-117" font-family="Helvetica,sans-Serif" font-size="10.00">qcstring.h</text>
</a>
</g>
</g>
<!-- Node1&#45;&gt;Node3 -->
<g id="edge2" class="edge">
<title>Node1&#45;&gt;Node3</title>
<path fill="none" stroke="#63b8ff" d="M931.61,-561.9C710.31,-555.3 133.68,-530.44 133.68,-450.5 133.68,-450.5 133.68,-450.5 133.68,-228.5 133.68,-179.09 189.75,-148.21 228.81,-132.69"/>
<polygon fill="#63b8ff" stroke="#63b8ff" points="230.22,-135.9 238.33,-129.08 227.73,-129.36 230.22,-135.9"/>
</g>
<!-- Node13 -->
<g id="node13" class="node">
<title>Node13</title>
<g id="a_node13"><a xlink:href="../../d4/d3a/filedef_8h.html" target="_top" xlink:title=" ">
<polygon fill="white" stroke="#666666" points="847.68,-514 791.68,-514 791.68,-495 847.68,-495 847.68,-514"/>
<text text-anchor="middle" x="819.68" y="-502" font-family="Helvetica,sans-Serif" font-size="10.00">filedef.h</text>
</a>
</g>
</g>
<!-- Node1&#45;&gt;Node13 -->
<g id="edge14" class="edge">
<title>Node1&#45;&gt;Node13</title>
<path fill="none" stroke="#63b8ff" d="M969.49,-549.99C935.29,-539.83 889.63,-526.27 857.74,-516.8"/>
<polygon fill="#63b8ff" stroke="#63b8ff" points="858.49,-513.37 847.91,-513.88 856.5,-520.09 858.49,-513.37"/>
</g>
<!-- Node31 -->
<g id="node31" class="node">
<title>Node31</title>
<g id="a_node31"><a xlink:href="../../d8/d3b/dotnode_8h.html" target="_top" xlink:title=" ">
<polygon fill="white" stroke="#666666" points="1163.18,-349 1098.18,-349 1098.18,-330 1163.18,-330 1163.18,-349"/>
<text text-anchor="middle" x="1130.68" y="-337" font-family="Helvetica,sans-Serif" font-size="10.00">dotnode.h</text>
</a>
</g>
</g>
<!-- Node1&#45;&gt;Node31 -->
<g id="edge68" class="edge">
<title>Node1&#45;&gt;Node31</title>
<path fill="none" stroke="#63b8ff" d="M1023.98,-549.68C1044,-510.43 1099.7,-401.23 1121.63,-358.23"/>
<polygon fill="#63b8ff" stroke="#63b8ff" points="1124.8,-359.73 1126.22,-349.23 1118.56,-356.55 1124.8,-359.73"/>
</g>
<!-- Node34 -->
<g id="node34" class="node">
<title>Node34</title>
<g id="a_node34"><a xlink:href="../../d0/daa/dotgraph_8h.html" target="_top" xlink:title=" ">
<polygon fill="white" stroke="#666666" points="1297.18,-294 1228.18,-294 1228.18,-275 1297.18,-275 1297.18,-294"/>
<text text-anchor="middle" x="1262.68" y="-282" font-family="Helvetica,sans-Serif" font-size="10.00">dotgraph.h</text>
</a>
</g>
</g>
<!-- Node1&#45;&gt;Node34 -->
<g id="edge82" class="edge">
<title>Node1&#45;&gt;Node34</title>
<path fill="none" stroke="#63b8ff" d="M1101.87,-554.65C1164.48,-542.49 1238.68,-514.56 1238.68,-450.5 1238.68,-450.5 1238.68,-450.5 1238.68,-393.5 1238.68,-361.28 1248.98,-324.91 1256.09,-303.66"/>
<polygon fill="#63b8ff" stroke="#63b8ff" points="1259.46,-304.63 1259.44,-294.04 1252.85,-302.33 1259.46,-304.63"/>
</g>
<!-- Node4 -->
<g id="node4" class="node">
<title>Node4</title>
<g id="a_node4"><a xlink:title=" ">
<polygon fill="#e0e0e0" stroke="#999999" points="852.68,-19 808.68,-19 808.68,0 852.68,0 852.68,-19"/>
<text text-anchor="middle" x="830.68" y="-7" font-family="Helvetica,sans-Serif" font-size="10.00">string</text>
</a>
</g>
</g>
<!-- Node3&#45;&gt;Node4 -->
<g id="edge3" class="edge">
<title>Node3&#45;&gt;Node4</title>
<path fill="none" stroke="#63b8ff" d="M280.47,-109.97C309.27,-93.42 370.98,-58.31 381.68,-55 459.79,-30.85 709.09,-16.49 798.44,-12.02"/>
<polygon fill="#63b8ff" stroke="#63b8ff" points="798.7,-15.51 808.52,-11.52 798.36,-8.52 798.7,-15.51"/>
</g>
<!-- Node5 -->
<g id="node5" class="node">
<title>Node5</title>
<g id="a_node5"><a xlink:title=" ">
<polygon fill="#e0e0e0" stroke="#999999" points="454.68,-74 390.68,-74 390.68,-55 454.68,-55 454.68,-74"/>
<text text-anchor="middle" x="422.68" y="-62" font-family="Helvetica,sans-Serif" font-size="10.00">algorithm</text>
</a>
</g>
</g>
<!-- Node3&#45;&gt;Node5 -->
<g id="edge4" class="edge">
<title>Node3&#45;&gt;Node5</title>
<path fill="none" stroke="#63b8ff" d="M290.9,-109.98C317.03,-101.16 358.07,-87.31 387.41,-77.41"/>
<polygon fill="#63b8ff" stroke="#63b8ff" points="388.9,-80.6 397.25,-74.08 386.66,-73.96 388.9,-80.6"/>
</g>
<!-- Node6 -->
<g id="node6" class="node">
<title>Node6</title>
<g id="a_node6"><a xlink:title=" ">
<polygon fill="#e0e0e0" stroke="#999999" points="522.18,-74 473.18,-74 473.18,-55 522.18,-55 522.18,-74"/>
<text text-anchor="middle" x="497.68" y="-62" font-family="Helvetica,sans-Serif" font-size="10.00">cctype</text>
</a>
</g>
</g>
<!-- Node3&#45;&gt;Node6 -->
<g id="edge5" class="edge">
<title>Node3&#45;&gt;Node6</title>
<path fill="none" stroke="#63b8ff" d="M298.31,-111.42C335.69,-103.25 399,-89.24 462.96,-74.13"/>
<polygon fill="#63b8ff" stroke="#63b8ff" points="463.89,-77.5 472.81,-71.79 462.27,-70.69 463.89,-77.5"/>
</g>
<!-- Node7 -->
<g id="node7" class="node">
<title>Node7</title>
<g id="a_node7"><a xlink:title=" ">
<polygon fill="#e0e0e0" stroke="#999999" points="202.68,-74 152.68,-74 152.68,-55 202.68,-55 202.68,-74"/>
<text text-anchor="middle" x="177.68" y="-62" font-family="Helvetica,sans-Serif" font-size="10.00">cstring</text>
</a>
</g>
</g>
<!-- Node3&#45;&gt;Node7 -->
<g id="edge6" class="edge">
<title>Node3&#45;&gt;Node7</title>
<path fill="none" stroke="#63b8ff" d="M251.54,-109.98C237.89,-101.77 216.99,-89.18 200.9,-79.49"/>
<polygon fill="#63b8ff" stroke="#63b8ff" points="202.44,-76.33 192.07,-74.17 198.83,-82.33 202.44,-76.33"/>
</g>
<!-- Node8 -->
<g id="node8" class="node">
<title>Node8</title>
<g id="a_node8"><a xlink:title=" ">
<polygon fill="#e0e0e0" stroke="#999999" points="266.68,-74 220.68,-74 220.68,-55 266.68,-55 266.68,-74"/>
<text text-anchor="middle" x="243.68" y="-62" font-family="Helvetica,sans-Serif" font-size="10.00">cstdio</text>
</a>
</g>
</g>
<!-- Node3&#45;&gt;Node8 -->
<g id="edge7" class="edge">
<title>Node3&#45;&gt;Node8</title>
<path fill="none" stroke="#63b8ff" d="M262.04,-109.75C259.1,-102.65 254.84,-92.4 251.17,-83.56"/>
<polygon fill="#63b8ff" stroke="#63b8ff" points="254.31,-81.98 247.24,-74.09 247.84,-84.67 254.31,-81.98"/>
</g>
<!-- Node9 -->
<g id="node9" class="node">
<title>Node9</title>
<g id="a_node9"><a xlink:title=" ">
<polygon fill="#e0e0e0" stroke="#999999" points="334.18,-74 285.18,-74 285.18,-55 334.18,-55 334.18,-74"/>
<text text-anchor="middle" x="309.68" y="-62" font-family="Helvetica,sans-Serif" font-size="10.00">cstdlib</text>
</a>
</g>
</g>
<!-- Node3&#45;&gt;Node9 -->
<g id="edge8" class="edge">
<title>Node3&#45;&gt;Node9</title>
<path fill="none" stroke="#63b8ff" d="M272.94,-109.75C279.22,-102.18 288.46,-91.05 296.11,-81.84"/>
<polygon fill="#63b8ff" stroke="#63b8ff" points="298.85,-84.02 302.55,-74.09 293.46,-79.55 298.85,-84.02"/>
</g>
<!-- Node10 -->
<g id="node10" class="node">
<title>Node10</title>
<g id="a_node10"><a xlink:title=" ">
<polygon fill="#e0e0e0" stroke="#999999" points="73.68,-19 23.68,-19 23.68,0 73.68,0 73.68,-19"/>
<text text-anchor="middle" x="48.68" y="-7" font-family="Helvetica,sans-Serif" font-size="10.00">cstdint</text>
</a>
</g>
</g>
<!-- Node3&#45;&gt;Node10 -->
<g id="edge9" class="edge">
<title>Node3&#45;&gt;Node10</title>
<path fill="none" stroke="#63b8ff" d="M232.72,-117.94C169.19,-116.1 33.51,-108.16 4.68,-74 -8.71,-58.14 10.15,-38.27 27.17,-25.01"/>
<polygon fill="#63b8ff" stroke="#63b8ff" points="29.24,-27.83 35.23,-19.09 25.1,-22.19 29.24,-27.83"/>
</g>
<!-- Node11 -->
<g id="node11" class="node">
<title>Node11</title>
<g id="a_node11"><a xlink:title=" ">
<polygon fill="#e0e0e0" stroke="#999999" points="71.18,-74 14.18,-74 14.18,-55 71.18,-55 71.18,-74"/>
<text text-anchor="middle" x="42.68" y="-62" font-family="Helvetica,sans-Serif" font-size="10.00">ostream</text>
</a>
</g>
</g>
<!-- Node3&#45;&gt;Node11 -->
<g id="edge10" class="edge">
<title>Node3&#45;&gt;Node11</title>
<path fill="none" stroke="#63b8ff" d="M232.77,-110.68C192.39,-101.08 124.03,-84.84 81.23,-74.66"/>
<polygon fill="#63b8ff" stroke="#63b8ff" points="82,-71.25 71.46,-72.34 80.38,-78.06 82,-71.25"/>
</g>
<!-- Node12 -->
<g id="node12" class="node">
<title>Node12</title>
<g id="a_node12"><a xlink:href="../../db/d7c/utf8_8h.html" target="_top" xlink:title="Various UTF8 related helper functions.">
<polygon fill="white" stroke="#666666" points="134.18,-74 89.18,-74 89.18,-55 134.18,-55 134.18,-74"/>
<text text-anchor="middle" x="111.68" y="-62" font-family="Helvetica,sans-Serif" font-size="10.00">utf8.h</text>
</a>
</g>
</g>
<!-- Node3&#45;&gt;Node12 -->
<g id="edge11" class="edge">
<title>Node3&#45;&gt;Node12</title>
<path fill="none" stroke="#63b8ff" d="M240.93,-109.98C214.62,-100.93 172.88,-86.56 143.99,-76.62"/>
<polygon fill="#63b8ff" stroke="#63b8ff" points="144.94,-73.25 134.35,-73.3 142.67,-79.87 144.94,-73.25"/>
</g>
<!-- Node12&#45;&gt;Node4 -->
<g id="edge13" class="edge">
<title>Node12&#45;&gt;Node4</title>
<path fill="none" stroke="#63b8ff" d="M134.28,-56.91C137.42,-56.17 140.61,-55.5 143.68,-55 393.23,-14.18 699.52,-10.44 798.33,-10.37"/>
<polygon fill="#63b8ff" stroke="#63b8ff" points="798.55,-13.87 808.55,-10.37 798.55,-6.87 798.55,-13.87"/>
</g>
<!-- Node12&#45;&gt;Node10 -->
<g id="edge12" class="edge">
<title>Node12&#45;&gt;Node10</title>
<path fill="none" stroke="#63b8ff" d="M101.55,-54.98C92.24,-47.15 78.21,-35.34 66.94,-25.86"/>
<polygon fill="#63b8ff" stroke="#63b8ff" points="68.89,-22.93 58.98,-19.17 64.38,-28.29 68.89,-22.93"/>
</g>
<!-- Node14 -->
<g id="node14" class="node">
<title>Node14</title>
<g id="a_node14"><a xlink:title=" ">
<polygon fill="#e0e0e0" stroke="#999999" points="803.68,-239 771.68,-239 771.68,-220 803.68,-220 803.68,-239"/>
<text text-anchor="middle" x="787.68" y="-227" font-family="Helvetica,sans-Serif" font-size="10.00">set</text>
</a>
</g>
</g>
<!-- Node13&#45;&gt;Node14 -->
<g id="edge15" class="edge">
<title>Node13&#45;&gt;Node14</title>
<path fill="none" stroke="#63b8ff" d="M819.68,-494.82C819.68,-476.48 819.68,-432.44 819.68,-395.5 819.68,-395.5 819.68,-395.5 819.68,-338.5 819.68,-305.71 805.95,-269.54 796.48,-248.49"/>
<polygon fill="#63b8ff" stroke="#63b8ff" points="799.54,-246.77 792.13,-239.2 793.2,-249.74 799.54,-246.77"/>
</g>
<!-- Node15 -->
<g id="node15" class="node">
<title>Node15</title>
<g id="a_node15"><a xlink:href="../../df/da1/definition_8h.html" target="_top" xlink:title=" ">
<polygon fill="white" stroke="#666666" points="563.18,-294 492.18,-294 492.18,-275 563.18,-275 563.18,-294"/>
<text text-anchor="middle" x="527.68" y="-282" font-family="Helvetica,sans-Serif" font-size="10.00">definition.h</text>
</a>
</g>
</g>
<!-- Node13&#45;&gt;Node15 -->
<g id="edge16" class="edge">
<title>Node13&#45;&gt;Node15</title>
<path fill="none" stroke="#63b8ff" d="M803.98,-494.95C764.94,-473.32 661.18,-413.51 585.68,-349 568.91,-334.68 552.19,-315.75 541.04,-302.3"/>
<polygon fill="#63b8ff" stroke="#63b8ff" points="543.6,-299.9 534.57,-294.35 538.17,-304.32 543.6,-299.9"/>
</g>
<!-- Node21 -->
<g id="node21" class="node">
<title>Node21</title>
<g id="a_node21"><a xlink:href="../../dd/d78/memberlist_8h.html" target="_top" xlink:title=" ">
<polygon fill="white" stroke="#666666" points="326.68,-459 244.68,-459 244.68,-440 326.68,-440 326.68,-459"/>
<text text-anchor="middle" x="285.68" y="-447" font-family="Helvetica,sans-Serif" font-size="10.00">memberlist.h</text>
</a>
</g>
</g>
<!-- Node13&#45;&gt;Node21 -->
<g id="edge33" class="edge">
<title>Node13&#45;&gt;Node21</title>
<path fill="none" stroke="#63b8ff" d="M791.34,-500.69C705.6,-492.18 448,-466.61 337.23,-455.62"/>
<polygon fill="#63b8ff" stroke="#63b8ff" points="337.28,-452.1 326.98,-454.6 336.58,-459.07 337.28,-452.1"/>
</g>
<!-- Node26 -->
<g id="node26" class="node">
<title>Node26</title>
<g id="a_node26"><a xlink:href="../../d5/d75/containers_8h.html" target="_top" xlink:title=" ">
<polygon fill="white" stroke="#666666" points="941.18,-294 864.18,-294 864.18,-275 941.18,-275 941.18,-294"/>
<text text-anchor="middle" x="902.68" y="-282" font-family="Helvetica,sans-Serif" font-size="10.00">containers.h</text>
</a>
</g>
</g>
<!-- Node13&#45;&gt;Node26 -->
<g id="edge67" class="edge">
<title>Node13&#45;&gt;Node26</title>
<path fill="none" stroke="#63b8ff" d="M822.93,-494.95C835.17,-462.81 878.61,-348.72 895.7,-303.83"/>
<polygon fill="#63b8ff" stroke="#63b8ff" points="899.07,-304.81 899.35,-294.22 892.53,-302.32 899.07,-304.81"/>
</g>
<!-- Node16 -->
<g id="node16" class="node">
<title>Node16</title>
<g id="a_node16"><a xlink:title=" ">
<polygon fill="#e0e0e0" stroke="#999999" points="626.18,-129 579.18,-129 579.18,-110 626.18,-110 626.18,-129"/>
<text text-anchor="middle" x="602.68" y="-117" font-family="Helvetica,sans-Serif" font-size="10.00">vector</text>
</a>
</g>
</g>
<!-- Node15&#45;&gt;Node16 -->
<g id="edge17" class="edge">
<title>Node15&#45;&gt;Node16</title>
<path fill="none" stroke="#63b8ff" d="M529.08,-274.62C531.24,-262.1 535.96,-238.71 543.68,-220 556.37,-189.2 577.38,-156.55 590.6,-137.37"/>
<polygon fill="#63b8ff" stroke="#63b8ff" points="593.52,-139.3 596.4,-129.1 587.79,-135.28 593.52,-139.3"/>
</g>
<!-- Node17 -->
<g id="node17" class="node">
<title>Node17</title>
<g id="a_node17"><a xlink:href="../../d9/d49/types_8h.html" target="_top" xlink:title="This file contains a number of basic enums and types.">
<polygon fill="white" stroke="#666666" points="453.18,-239 400.18,-239 400.18,-220 453.18,-220 453.18,-239"/>
<text text-anchor="middle" x="426.68" y="-227" font-family="Helvetica,sans-Serif" font-size="10.00">types.h</text>
</a>
</g>
</g>
<!-- Node15&#45;&gt;Node17 -->
<g id="edge18" class="edge">
<title>Node15&#45;&gt;Node17</title>
<path fill="none" stroke="#63b8ff" d="M511.45,-274.98C495.49,-266.61 470.9,-253.7 452.3,-243.95"/>
<polygon fill="#63b8ff" stroke="#63b8ff" points="453.68,-240.72 443.2,-239.17 450.43,-246.92 453.68,-240.72"/>
</g>
<!-- Node18 -->
<g id="node18" class="node">
<title>Node18</title>
<g id="a_node18"><a xlink:href="../../d1/d02/reflist_8h.html" target="_top" xlink:title=" ">
<polygon fill="white" stroke="#666666" points="639.18,-239 586.18,-239 586.18,-220 639.18,-220 639.18,-239"/>
<text text-anchor="middle" x="612.68" y="-227" font-family="Helvetica,sans-Serif" font-size="10.00">reflist.h</text>
</a>
</g>
</g>
<!-- Node15&#45;&gt;Node18 -->
<g id="edge20" class="edge">
<title>Node15&#45;&gt;Node18</title>
<path fill="none" stroke="#63b8ff" d="M541.33,-274.98C554.51,-266.77 574.7,-254.18 590.24,-244.49"/>
<polygon fill="#63b8ff" stroke="#63b8ff" points="592.14,-247.43 598.77,-239.17 588.43,-241.49 592.14,-247.43"/>
</g>
<!-- Node17&#45;&gt;Node3 -->
<g id="edge19" class="edge">
<title>Node17&#45;&gt;Node3</title>
<path fill="none" stroke="#63b8ff" d="M413.77,-219.84C386.22,-201.36 321.37,-157.86 287.36,-135.05"/>
<polygon fill="#63b8ff" stroke="#63b8ff" points="288.89,-131.86 278.64,-129.2 285,-137.67 288.89,-131.86"/>
</g>
<!-- Node18&#45;&gt;Node2 -->
<g id="edge23" class="edge">
<title>Node18&#45;&gt;Node2</title>
<path fill="none" stroke="#63b8ff" d="M639.18,-221.41C708.63,-202.85 896.1,-152.73 977.77,-130.9"/>
<polygon fill="#63b8ff" stroke="#63b8ff" points="978.89,-134.22 987.65,-128.26 977.09,-127.46 978.89,-134.22"/>
</g>
<!-- Node18&#45;&gt;Node3 -->
<g id="edge24" class="edge">
<title>Node18&#45;&gt;Node3</title>
<path fill="none" stroke="#63b8ff" d="M585.84,-224.86C545.25,-218.9 466.13,-205.53 401.68,-184 396.11,-182.14 330.97,-151.43 292.9,-133.41"/>
<polygon fill="#63b8ff" stroke="#63b8ff" points="294.4,-130.24 283.86,-129.13 291.4,-136.57 294.4,-130.24"/>
</g>
<!-- Node18&#45;&gt;Node16 -->
<g id="edge21" class="edge">
<title>Node18&#45;&gt;Node16</title>
<path fill="none" stroke="#63b8ff" d="M611.86,-219.66C610.24,-202.17 606.59,-162.8 604.41,-139.27"/>
<polygon fill="#63b8ff" stroke="#63b8ff" points="607.88,-138.79 603.48,-129.16 600.91,-139.44 607.88,-138.79"/>
</g>
<!-- Node19 -->
<g id="node19" class="node">
<title>Node19</title>
<g id="a_node19"><a xlink:title=" ">
<polygon fill="#e0e0e0" stroke="#999999" points="854.18,-129 761.18,-129 761.18,-110 854.18,-110 854.18,-129"/>
<text text-anchor="middle" x="807.68" y="-117" font-family="Helvetica,sans-Serif" font-size="10.00">unordered_map</text>
</a>
</g>
</g>
<!-- Node18&#45;&gt;Node19 -->
<g id="edge22" class="edge">
<title>Node18&#45;&gt;Node19</title>
<path fill="none" stroke="#63b8ff" d="M628.3,-219.84C662.19,-201.08 742.64,-156.52 783.28,-134.01"/>
<polygon fill="#63b8ff" stroke="#63b8ff" points="785.19,-136.95 792.24,-129.05 781.8,-130.83 785.19,-136.95"/>
</g>
<!-- Node20 -->
<g id="node20" class="node">
<title>Node20</title>
<g id="a_node20"><a xlink:href="../../da/de1/linkedmap_8h.html" target="_top" xlink:title=" ">
<polygon fill="white" stroke="#666666" points="487.18,-184 410.18,-184 410.18,-165 487.18,-165 487.18,-184"/>
<text text-anchor="middle" x="448.68" y="-172" font-family="Helvetica,sans-Serif" font-size="10.00">linkedmap.h</text>
</a>
</g>
</g>
<!-- Node18&#45;&gt;Node20 -->
<g id="edge25" class="edge">
<title>Node18&#45;&gt;Node20</title>
<path fill="none" stroke="#63b8ff" d="M586.33,-219.98C558.91,-211.13 515.78,-197.19 485.11,-187.28"/>
<polygon fill="#63b8ff" stroke="#63b8ff" points="485.82,-183.83 475.23,-184.08 483.67,-190.49 485.82,-183.83"/>
</g>
<!-- Node20&#45;&gt;Node2 -->
<g id="edge28" class="edge">
<title>Node20&#45;&gt;Node2</title>
<path fill="none" stroke="#63b8ff" d="M487.27,-169.9C590.71,-160.25 873.35,-133.87 977.48,-124.16"/>
<polygon fill="#63b8ff" stroke="#63b8ff" points="977.93,-127.63 987.56,-123.22 977.28,-120.66 977.93,-127.63"/>
</g>
<!-- Node20&#45;&gt;Node3 -->
<g id="edge32" class="edge">
<title>Node20&#45;&gt;Node3</title>
<path fill="none" stroke="#63b8ff" d="M419.27,-164.98C388.28,-156.01 339.3,-141.82 305,-131.89"/>
<polygon fill="#63b8ff" stroke="#63b8ff" points="305.89,-128.5 295.31,-129.08 303.94,-135.23 305.89,-128.5"/>
</g>
<!-- Node20&#45;&gt;Node4 -->
<g id="edge29" class="edge">
<title>Node20&#45;&gt;Node4</title>
<path fill="none" stroke="#63b8ff" d="M463.81,-164.91C486.59,-152.13 531.26,-127.73 570.68,-110 651.29,-73.74 749.43,-38.5 798.9,-21.34"/>
<polygon fill="#63b8ff" stroke="#63b8ff" points="800.1,-24.62 808.41,-18.05 797.82,-18.01 800.1,-24.62"/>
</g>
<!-- Node20&#45;&gt;Node5 -->
<g id="edge30" class="edge">
<title>Node20&#45;&gt;Node5</title>
<path fill="none" stroke="#63b8ff" d="M446.55,-164.66C442.32,-147.09 432.77,-107.45 427.12,-83.95"/>
<polygon fill="#63b8ff" stroke="#63b8ff" points="430.5,-83.06 424.76,-74.16 423.7,-84.7 430.5,-83.06"/>
</g>
<!-- Node20&#45;&gt;Node6 -->
<g id="edge31" class="edge">
<title>Node20&#45;&gt;Node6</title>
<path fill="none" stroke="#63b8ff" d="M452.69,-164.66C460.73,-146.93 478.97,-106.73 489.59,-83.32"/>
<polygon fill="#63b8ff" stroke="#63b8ff" points="492.8,-84.71 493.75,-74.16 486.43,-81.82 492.8,-84.71"/>
</g>
<!-- Node20&#45;&gt;Node16 -->
<g id="edge27" class="edge">
<title>Node20&#45;&gt;Node16</title>
<path fill="none" stroke="#63b8ff" d="M473.42,-164.98C499.43,-156.03 540.51,-141.9 569.36,-131.97"/>
<polygon fill="#63b8ff" stroke="#63b8ff" points="570.69,-135.21 579.01,-128.65 568.41,-128.59 570.69,-135.21"/>
</g>
<!-- Node20&#45;&gt;Node19 -->
<g id="edge26" class="edge">
<title>Node20&#45;&gt;Node19</title>
<path fill="none" stroke="#63b8ff" d="M487.44,-167.78C550.9,-158.41 677.27,-139.75 750.86,-128.89"/>
<polygon fill="#63b8ff" stroke="#63b8ff" points="751.51,-132.33 760.89,-127.41 750.48,-125.41 751.51,-132.33"/>
</g>
<!-- Node21&#45;&gt;Node5 -->
<g id="edge35" class="edge">
<title>Node21&#45;&gt;Node5</title>
<path fill="none" stroke="#63b8ff" d="M264.5,-439.95C231.53,-425.06 171.68,-391.07 171.68,-340.5 171.68,-340.5 171.68,-340.5 171.68,-228.5 171.68,-195.61 184.35,-185.98 209.68,-165 245.41,-135.4 265.47,-148.27 307.68,-129 340.86,-113.85 377.48,-92.84 400.28,-79.21"/>
<polygon fill="#63b8ff" stroke="#63b8ff" points="402.11,-82.19 408.87,-74.03 398.5,-76.19 402.11,-82.19"/>
</g>
<!-- Node21&#45;&gt;Node16 -->
<g id="edge34" class="edge">
<title>Node21&#45;&gt;Node16</title>
<path fill="none" stroke="#63b8ff" d="M273.8,-439.88C252.43,-423.26 209.68,-384.52 209.68,-340.5 209.68,-340.5 209.68,-340.5 209.68,-228.5 209.68,-199.04 206.13,-183.96 228.68,-165 279.73,-122.06 487.02,-119.3 569.04,-119.95"/>
<polygon fill="#63b8ff" stroke="#63b8ff" points="569.04,-123.45 579.08,-120.05 569.11,-116.45 569.04,-123.45"/>
</g>
<!-- Node21&#45;&gt;Node17 -->
<g id="edge65" class="edge">
<title>Node21&#45;&gt;Node17</title>
<path fill="none" stroke="#63b8ff" d="M288.88,-439.92C299.01,-413.52 332.28,-331.82 376.68,-275 385.31,-263.95 396.91,-253.43 406.77,-245.4"/>
<polygon fill="#63b8ff" stroke="#63b8ff" points="409.17,-247.96 414.86,-239.03 404.84,-242.46 409.17,-247.96"/>
</g>
<!-- Node21&#45;&gt;Node20 -->
<g id="edge64" class="edge">
<title>Node21&#45;&gt;Node20</title>
<path fill="none" stroke="#63b8ff" d="M280.39,-439.9C269.95,-422.07 247.68,-379.46 247.68,-340.5 247.68,-340.5 247.68,-340.5 247.68,-283.5 247.68,-214.6 340.47,-189.47 399.96,-180.44"/>
<polygon fill="#63b8ff" stroke="#63b8ff" points="400.51,-183.89 409.92,-179.03 399.53,-176.96 400.51,-183.89"/>
</g>
<!-- Node22 -->
<g id="node22" class="node">
<title>Node22</title>
<g id="a_node22"><a xlink:href="../../d4/d46/memberdef_8h.html" target="_top" xlink:title=" ">
<polygon fill="white" stroke="#666666" points="498.68,-404 416.68,-404 416.68,-385 498.68,-385 498.68,-404"/>
<text text-anchor="middle" x="457.68" y="-392" font-family="Helvetica,sans-Serif" font-size="10.00">memberdef.h</text>
</a>
</g>
</g>
<!-- Node21&#45;&gt;Node22 -->
<g id="edge36" class="edge">
<title>Node21&#45;&gt;Node22</title>
<path fill="none" stroke="#63b8ff" d="M313.31,-439.98C342.19,-431.09 387.69,-417.07 419.88,-407.15"/>
<polygon fill="#63b8ff" stroke="#63b8ff" points="421.3,-410.37 429.82,-404.08 419.24,-403.68 421.3,-410.37"/>
</g>
<!-- Node30 -->
<g id="node30" class="node">
<title>Node30</title>
<g id="a_node30"><a xlink:href="../../d9/d11/membergroup_8h.html" target="_top" xlink:title=" ">
<polygon fill="white" stroke="#666666" points="715.18,-294 620.18,-294 620.18,-275 715.18,-275 715.18,-294"/>
<text text-anchor="middle" x="667.68" y="-282" font-family="Helvetica,sans-Serif" font-size="10.00">membergroup.h</text>
</a>
</g>
</g>
<!-- Node21&#45;&gt;Node30 -->
<g id="edge66" class="edge">
<title>Node21&#45;&gt;Node30</title>
<path fill="none" stroke="#63b8ff" d="M326.9,-444.32C417.43,-434.18 628.71,-404.88 668.68,-349 677.89,-336.12 676.45,-317.71 673.41,-304.02"/>
<polygon fill="#63b8ff" stroke="#63b8ff" points="676.76,-303.02 670.8,-294.26 670,-304.82 676.76,-303.02"/>
</g>
<!-- Node22&#45;&gt;Node2 -->
<g id="edge38" class="edge">
<title>Node22&#45;&gt;Node2</title>
<path fill="none" stroke="#63b8ff" d="M498.88,-391.63C543.19,-388.11 614.56,-378.01 668.68,-349 699.42,-332.52 704,-322.1 724.68,-294 746.59,-264.22 734.58,-244.03 762.68,-220 801.44,-186.83 824.03,-202.25 871.68,-184 913.41,-168.01 960.63,-146.71 989.53,-133.3"/>
<polygon fill="#63b8ff" stroke="#63b8ff" points="991.01,-136.47 998.59,-129.07 988.05,-130.13 991.01,-136.47"/>
</g>
<!-- Node22&#45;&gt;Node15 -->
<g id="edge41" class="edge">
<title>Node22&#45;&gt;Node15</title>
<path fill="none" stroke="#63b8ff" d="M469.29,-384.75C479.54,-376.5 494.27,-363.3 503.68,-349 512.78,-335.15 519.13,-317.36 522.99,-304.13"/>
<polygon fill="#63b8ff" stroke="#63b8ff" points="526.43,-304.85 525.67,-294.28 519.67,-303.01 526.43,-304.85"/>
</g>
<!-- Node22&#45;&gt;Node16 -->
<g id="edge37" class="edge">
<title>Node22&#45;&gt;Node16</title>
<path fill="none" stroke="#63b8ff" d="M460.56,-384.71C463.4,-375.79 467.75,-361.54 470.68,-349 478.26,-316.48 471.2,-305.97 483.68,-275 507.07,-216.94 558.74,-162.16 585.64,-136.21"/>
<polygon fill="#63b8ff" stroke="#63b8ff" points="588.28,-138.52 593.14,-129.1 583.47,-133.44 588.28,-138.52"/>
</g>
<!-- Node22&#45;&gt;Node17 -->
<g id="edge40" class="edge">
<title>Node22&#45;&gt;Node17</title>
<path fill="none" stroke="#63b8ff" d="M428.54,-384.87C411.32,-378.1 390.94,-366.79 380.68,-349 360.93,-314.78 391.29,-270.47 411.34,-246.92"/>
<polygon fill="#63b8ff" stroke="#63b8ff" points="414.14,-249.04 418.15,-239.24 408.9,-244.4 414.14,-249.04"/>
</g>
<!-- Node23 -->
<g id="node23" class="node">
<title>Node23</title>
<g id="a_node23"><a xlink:title=" ">
<polygon fill="#e0e0e0" stroke="#999999" points="461.68,-349 389.68,-349 389.68,-330 461.68,-330 461.68,-349"/>
<text text-anchor="middle" x="425.68" y="-337" font-family="Helvetica,sans-Serif" font-size="10.00">sys/types.h</text>
</a>
</g>
</g>
<!-- Node22&#45;&gt;Node23 -->
<g id="edge39" class="edge">
<title>Node22&#45;&gt;Node23</title>
<path fill="none" stroke="#63b8ff" d="M452.39,-384.75C447.96,-377.42 441.51,-366.73 436.06,-357.7"/>
<polygon fill="#63b8ff" stroke="#63b8ff" points="439.03,-355.84 430.86,-349.09 433.03,-359.46 439.03,-355.84"/>
</g>
<!-- Node24 -->
<g id="node24" class="node">
<title>Node24</title>
<g id="a_node24"><a xlink:href="../../df/d9b/arguments_8h.html" target="_top" xlink:title=" ">
<polygon fill="white" stroke="#666666" points="315.68,-184 237.68,-184 237.68,-165 315.68,-165 315.68,-184"/>
<text text-anchor="middle" x="276.68" y="-172" font-family="Helvetica,sans-Serif" font-size="10.00">arguments.h</text>
</a>
</g>
</g>
<!-- Node22&#45;&gt;Node24 -->
<g id="edge42" class="edge">
<title>Node22&#45;&gt;Node24</title>
<path fill="none" stroke="#63b8ff" d="M431.54,-384.9C412.79,-377.68 387.91,-365.83 370.68,-349 323.57,-303 294.21,-228.27 282.5,-193.89"/>
<polygon fill="#63b8ff" stroke="#63b8ff" points="285.77,-192.63 279.32,-184.23 279.13,-194.82 285.77,-192.63"/>
</g>
<!-- Node25 -->
<g id="node25" class="node">
<title>Node25</title>
<g id="a_node25"><a xlink:href="../../d1/da6/classdef_8h.html" target="_top" xlink:title=" ">
<polygon fill="white" stroke="#666666" points="659.18,-349 594.18,-349 594.18,-330 659.18,-330 659.18,-349"/>
<text text-anchor="middle" x="626.68" y="-337" font-family="Helvetica,sans-Serif" font-size="10.00">classdef.h</text>
</a>
</g>
</g>
<!-- Node22&#45;&gt;Node25 -->
<g id="edge45" class="edge">
<title>Node22&#45;&gt;Node25</title>
<path fill="none" stroke="#63b8ff" d="M484.83,-384.98C513.2,-376.09 557.91,-362.07 589.54,-352.15"/>
<polygon fill="#63b8ff" stroke="#63b8ff" points="590.82,-355.41 599.31,-349.08 588.72,-348.73 590.82,-355.41"/>
</g>
<!-- Node24&#45;&gt;Node3 -->
<g id="edge44" class="edge">
<title>Node24&#45;&gt;Node3</title>
<path fill="none" stroke="#63b8ff" d="M274.86,-164.75C273.42,-157.8 271.35,-147.85 269.54,-139.13"/>
<polygon fill="#63b8ff" stroke="#63b8ff" points="272.92,-138.17 267.46,-129.09 266.06,-139.59 272.92,-138.17"/>
</g>
<!-- Node24&#45;&gt;Node16 -->
<g id="edge43" class="edge">
<title>Node24&#45;&gt;Node16</title>
<path fill="none" stroke="#63b8ff" d="M316,-167.11C380.54,-156.61 507.84,-135.92 568.71,-126.02"/>
<polygon fill="#63b8ff" stroke="#63b8ff" points="569.61,-129.42 578.92,-124.36 568.49,-122.51 569.61,-129.42"/>
</g>
<!-- Node25&#45;&gt;Node14 -->
<g id="edge47" class="edge">
<title>Node25&#45;&gt;Node14</title>
<path fill="none" stroke="#63b8ff" d="M652.16,-329.85C672.77,-322.2 701.97,-309.79 724.68,-294 743.89,-280.63 762.32,-261 774.22,-247.1"/>
<polygon fill="#63b8ff" stroke="#63b8ff" points="777.01,-249.22 780.74,-239.3 771.64,-244.73 777.01,-249.22"/>
</g>
<!-- Node25&#45;&gt;Node15 -->
<g id="edge56" class="edge">
<title>Node25&#45;&gt;Node15</title>
<path fill="none" stroke="#63b8ff" d="M610.77,-329.98C595.13,-321.61 571.02,-308.7 552.79,-298.95"/>
<polygon fill="#63b8ff" stroke="#63b8ff" points="554.34,-295.8 543.87,-294.17 551.04,-301.98 554.34,-295.8"/>
</g>
<!-- Node25&#45;&gt;Node16 -->
<g id="edge46" class="edge">
<title>Node25&#45;&gt;Node16</title>
<path fill="none" stroke="#63b8ff" d="M620.77,-329.96C609.67,-313.37 586.1,-275.19 577.68,-239 569.4,-203.48 583.82,-161.7 593.97,-138.44"/>
<polygon fill="#63b8ff" stroke="#63b8ff" points="597.25,-139.7 598.24,-129.15 590.89,-136.78 597.25,-139.7"/>
</g>
<!-- Node25&#45;&gt;Node24 -->
<g id="edge57" class="edge">
<title>Node25&#45;&gt;Node24</title>
<path fill="none" stroke="#63b8ff" d="M594.14,-330.55C564.68,-322.85 520.39,-309.99 483.68,-294 412.28,-262.9 334.07,-213.54 297.59,-189.54"/>
<polygon fill="#63b8ff" stroke="#63b8ff" points="299.51,-186.61 289.24,-184.01 295.64,-192.45 299.51,-186.61"/>
</g>
<!-- Node25&#45;&gt;Node26 -->
<g id="edge48" class="edge">
<title>Node25&#45;&gt;Node26</title>
<path fill="none" stroke="#63b8ff" d="M659.42,-332.21C707.54,-322.97 797.71,-305.66 853.72,-294.9"/>
<polygon fill="#63b8ff" stroke="#63b8ff" points="854.61,-298.29 863.77,-292.97 853.29,-291.42 854.61,-298.29"/>
</g>
<!-- Node25&#45;&gt;Node30 -->
<g id="edge58" class="edge">
<title>Node25&#45;&gt;Node30</title>
<path fill="none" stroke="#63b8ff" d="M633.45,-329.75C639.24,-322.26 647.73,-311.28 654.81,-302.13"/>
<polygon fill="#63b8ff" stroke="#63b8ff" points="657.68,-304.14 661.03,-294.09 652.14,-299.86 657.68,-304.14"/>
</g>
<!-- Node26&#45;&gt;Node4 -->
<g id="edge50" class="edge">
<title>Node26&#45;&gt;Node4</title>
<path fill="none" stroke="#63b8ff" d="M941.5,-280.68C1001.94,-273.94 1111.68,-251.26 1111.68,-175.5 1111.68,-175.5 1111.68,-175.5 1111.68,-118.5 1111.68,-65.7 936.61,-28.97 862.84,-15.83"/>
<polygon fill="#63b8ff" stroke="#63b8ff" points="863.18,-12.34 852.73,-14.06 861.97,-19.23 863.18,-12.34"/>
</g>
<!-- Node26&#45;&gt;Node14 -->
<g id="edge51" class="edge">
<title>Node26&#45;&gt;Node14</title>
<path fill="none" stroke="#63b8ff" d="M884.2,-274.98C864.93,-266.1 834.59,-252.12 813.07,-242.2"/>
<polygon fill="#63b8ff" stroke="#63b8ff" points="814.42,-238.97 803.88,-237.97 811.49,-245.33 814.42,-238.97"/>
</g>
<!-- Node26&#45;&gt;Node16 -->
<g id="edge49" class="edge">
<title>Node26&#45;&gt;Node16</title>
<path fill="none" stroke="#63b8ff" d="M891.72,-274.84C875.18,-261.97 842.57,-237.45 812.68,-220 751.23,-184.13 674.78,-150.46 633.16,-132.98"/>
<polygon fill="#63b8ff" stroke="#63b8ff" points="634.43,-129.72 623.85,-129.1 631.73,-136.18 634.43,-129.72"/>
</g>
<!-- Node26&#45;&gt;Node19 -->
<g id="edge54" class="edge">
<title>Node26&#45;&gt;Node19</title>
<path fill="none" stroke="#63b8ff" d="M941.39,-277.48C981.88,-269.37 1036.94,-252.09 1016.68,-220 983.45,-167.39 913.97,-142.02 864.23,-130.19"/>
<polygon fill="#63b8ff" stroke="#63b8ff" points="864.78,-126.72 854.25,-127.93 863.23,-133.55 864.78,-126.72"/>
</g>
<!-- Node27 -->
<g id="node27" class="node">
<title>Node27</title>
<g id="a_node27"><a xlink:title=" ">
<polygon fill="#e0e0e0" stroke="#999999" points="1177.68,-239 1139.68,-239 1139.68,-220 1177.68,-220 1177.68,-239"/>
<text text-anchor="middle" x="1158.68" y="-227" font-family="Helvetica,sans-Serif" font-size="10.00">map</text>
</a>
</g>
</g>
<!-- Node26&#45;&gt;Node27 -->
<g id="edge52" class="edge">
<title>Node26&#45;&gt;Node27</title>
<path fill="none" stroke="#63b8ff" d="M941.49,-276.43C986.09,-268.14 1061.4,-253.68 1125.68,-239 1126.94,-238.71 1128.23,-238.41 1129.53,-238.1"/>
<polygon fill="#63b8ff" stroke="#63b8ff" points="1130.66,-241.43 1139.52,-235.62 1128.98,-234.63 1130.66,-241.43"/>
</g>
<!-- Node28 -->
<g id="node28" class="node">
<title>Node28</title>
<g id="a_node28"><a xlink:title=" ">
<polygon fill="#e0e0e0" stroke="#999999" points="945.68,-239 859.68,-239 859.68,-220 945.68,-220 945.68,-239"/>
<text text-anchor="middle" x="902.68" y="-227" font-family="Helvetica,sans-Serif" font-size="10.00">unordered_set</text>
</a>
</g>
</g>
<!-- Node26&#45;&gt;Node28 -->
<g id="edge53" class="edge">
<title>Node26&#45;&gt;Node28</title>
<path fill="none" stroke="#63b8ff" d="M902.68,-274.75C902.68,-267.8 902.68,-257.85 902.68,-249.13"/>
<polygon fill="#63b8ff" stroke="#63b8ff" points="906.18,-249.09 902.68,-239.09 899.18,-249.09 906.18,-249.09"/>
</g>
<!-- Node29 -->
<g id="node29" class="node">
<title>Node29</title>
<g id="a_node29"><a xlink:title=" ">
<polygon fill="#e0e0e0" stroke="#999999" points="1007.18,-239 964.18,-239 964.18,-220 1007.18,-220 1007.18,-239"/>
<text text-anchor="middle" x="985.68" y="-227" font-family="Helvetica,sans-Serif" font-size="10.00">stack</text>
</a>
</g>
</g>
<!-- Node26&#45;&gt;Node29 -->
<g id="edge55" class="edge">
<title>Node26&#45;&gt;Node29</title>
<path fill="none" stroke="#63b8ff" d="M916.01,-274.98C928.76,-266.84 948.23,-254.41 963.35,-244.76"/>
<polygon fill="#63b8ff" stroke="#63b8ff" points="965.55,-247.5 972.1,-239.17 961.79,-241.6 965.55,-247.5"/>
</g>
<!-- Node30&#45;&gt;Node2 -->
<g id="edge61" class="edge">
<title>Node30&#45;&gt;Node2</title>
<path fill="none" stroke="#63b8ff" d="M673.95,-274.86C684.18,-261.35 705.74,-235.19 729.68,-220 735.23,-216.48 906.49,-157.99 981.76,-132.37"/>
<polygon fill="#63b8ff" stroke="#63b8ff" points="982.96,-135.66 991.3,-129.13 980.7,-129.03 982.96,-135.66"/>
</g>
<!-- Node30&#45;&gt;Node16 -->
<g id="edge59" class="edge">
<title>Node30&#45;&gt;Node16</title>
<path fill="none" stroke="#63b8ff" d="M665.48,-274.74C662.28,-262.37 655.93,-239.16 648.68,-220 637.54,-190.6 621.62,-157.71 611.73,-138.07"/>
<polygon fill="#63b8ff" stroke="#63b8ff" points="614.82,-136.43 607.16,-129.11 608.58,-139.61 614.82,-136.43"/>
</g>
<!-- Node30&#45;&gt;Node17 -->
<g id="edge62" class="edge">
<title>Node30&#45;&gt;Node17</title>
<path fill="none" stroke="#63b8ff" d="M628.95,-274.98C583.28,-264.94 507.93,-248.37 463.22,-238.54"/>
<polygon fill="#63b8ff" stroke="#63b8ff" points="463.88,-235.1 453.36,-236.37 462.38,-241.94 463.88,-235.1"/>
</g>
<!-- Node30&#45;&gt;Node18 -->
<g id="edge63" class="edge">
<title>Node30&#45;&gt;Node18</title>
<path fill="none" stroke="#63b8ff" d="M658.59,-274.75C650.58,-267.03 638.72,-255.6 629.05,-246.28"/>
<polygon fill="#63b8ff" stroke="#63b8ff" points="631.22,-243.51 621.59,-239.09 626.36,-248.55 631.22,-243.51"/>
</g>
<!-- Node30&#45;&gt;Node27 -->
<g id="edge60" class="edge">
<title>Node30&#45;&gt;Node27</title>
<path fill="none" stroke="#63b8ff" d="M715.2,-278.37C815.62,-267.53 1046.91,-242.56 1129.06,-233.7"/>
<polygon fill="#63b8ff" stroke="#63b8ff" points="1129.63,-237.16 1139.2,-232.6 1128.88,-230.2 1129.63,-237.16"/>
</g>
<!-- Node31&#45;&gt;Node16 -->
<g id="edge69" class="edge">
<title>Node31&#45;&gt;Node16</title>
<path fill="none" stroke="#63b8ff" d="M1117.97,-329.73C1106.14,-321.26 1088.33,-307.74 1074.68,-294 1045.23,-264.35 1051.84,-242.58 1016.68,-220 892.78,-140.42 711.02,-124.44 636.47,-121.27"/>
<polygon fill="#63b8ff" stroke="#63b8ff" points="636.39,-117.76 626.27,-120.89 636.13,-124.76 636.39,-117.76"/>
</g>
<!-- Node31&#45;&gt;Node27 -->
<g id="edge70" class="edge">
<title>Node31&#45;&gt;Node27</title>
<path fill="none" stroke="#63b8ff" d="M1132.97,-329.66C1137.52,-312.09 1147.8,-272.45 1153.89,-248.95"/>
<polygon fill="#63b8ff" stroke="#63b8ff" points="1157.31,-249.72 1156.43,-239.16 1150.53,-247.96 1157.31,-249.72"/>
</g>
<!-- Node32 -->
<g id="node32" class="node">
<title>Node32</title>
<g id="a_node32"><a xlink:title=" ">
<polygon fill="#e0e0e0" stroke="#999999" points="1130.18,-294 1083.18,-294 1083.18,-275 1130.18,-275 1130.18,-294"/>
<text text-anchor="middle" x="1106.68" y="-282" font-family="Helvetica,sans-Serif" font-size="10.00">deque</text>
</a>
</g>
</g>
<!-- Node31&#45;&gt;Node32 -->
<g id="edge71" class="edge">
<title>Node31&#45;&gt;Node32</title>
<path fill="none" stroke="#63b8ff" d="M1126.71,-329.75C1123.46,-322.57 1118.76,-312.18 1114.72,-303.27"/>
<polygon fill="#63b8ff" stroke="#63b8ff" points="1117.88,-301.75 1110.57,-294.09 1111.5,-304.64 1117.88,-301.75"/>
</g>
<!-- Node33 -->
<g id="node33" class="node">
<title>Node33</title>
<g id="a_node33"><a xlink:title=" ">
<polygon fill="#e0e0e0" stroke="#999999" points="1293.68,-239 1233.68,-239 1233.68,-220 1293.68,-220 1293.68,-239"/>
<text text-anchor="middle" x="1263.68" y="-227" font-family="Helvetica,sans-Serif" font-size="10.00">iostream</text>
</a>
</g>
</g>
<!-- Node31&#45;&gt;Node33 -->
<g id="edge72" class="edge">
<title>Node31&#45;&gt;Node33</title>
<path fill="none" stroke="#63b8ff" d="M1141.56,-329.66C1164.27,-311.22 1216.95,-268.45 1245.12,-245.57"/>
<polygon fill="#63b8ff" stroke="#63b8ff" points="1247.46,-248.18 1253.01,-239.16 1243.04,-242.75 1247.46,-248.18"/>
</g>
<!-- Node31&#45;&gt;Node34 -->
<g id="edge73" class="edge">
<title>Node31&#45;&gt;Node34</title>
<path fill="none" stroke="#63b8ff" d="M1151.88,-329.98C1173.41,-321.34 1206.96,-307.87 1231.5,-298.02"/>
<polygon fill="#63b8ff" stroke="#63b8ff" points="1233.11,-301.14 1241.08,-294.17 1230.5,-294.65 1233.11,-301.14"/>
</g>
<!-- Node34&#45;&gt;Node3 -->
<g id="edge76" class="edge">
<title>Node34&#45;&gt;Node3</title>
<path fill="none" stroke="#63b8ff" d="M1275.05,-274.84C1291.97,-261.97 1318.53,-237.45 1302.68,-220 1268.62,-182.52 500.11,-134.44 308.6,-123.02"/>
<polygon fill="#63b8ff" stroke="#63b8ff" points="308.56,-119.51 298.37,-122.41 308.14,-126.5 308.56,-119.51"/>
</g>
<!-- Node34&#45;&gt;Node27 -->
<g id="edge75" class="edge">
<title>Node34&#45;&gt;Node27</title>
<path fill="none" stroke="#63b8ff" d="M1245.97,-274.98C1229.46,-266.57 1203.98,-253.59 1184.8,-243.81"/>
<polygon fill="#63b8ff" stroke="#63b8ff" points="1186.19,-240.59 1175.69,-239.17 1183.01,-246.83 1186.19,-240.59"/>
</g>
<!-- Node34&#45;&gt;Node33 -->
<g id="edge74" class="edge">
<title>Node34&#45;&gt;Node33</title>
<path fill="none" stroke="#63b8ff" d="M1262.84,-274.75C1262.97,-267.8 1263.16,-257.85 1263.32,-249.13"/>
<polygon fill="#63b8ff" stroke="#63b8ff" points="1266.82,-249.15 1263.51,-239.09 1259.83,-249.02 1266.82,-249.15"/>
</g>
<!-- Node35 -->
<g id="node35" class="node">
<title>Node35</title>
<g id="a_node35"><a xlink:href="../../df/d9c/dir_8h.html" target="_top" xlink:title=" ">
<polygon fill="white" stroke="#666666" points="1217.68,-184 1179.68,-184 1179.68,-165 1217.68,-165 1217.68,-184"/>
<text text-anchor="middle" x="1198.68" y="-172" font-family="Helvetica,sans-Serif" font-size="10.00">dir.h</text>
</a>
</g>
</g>
<!-- Node34&#45;&gt;Node35 -->
<g id="edge77" class="edge">
<title>Node34&#45;&gt;Node35</title>
<path fill="none" stroke="#63b8ff" d="M1287.06,-274.83C1314.32,-263.76 1352.56,-243.24 1335.68,-220 1311.24,-186.37 1260.79,-177.65 1228.4,-175.67"/>
<polygon fill="#63b8ff" stroke="#63b8ff" points="1228.31,-172.17 1218.17,-175.23 1228.01,-179.16 1228.31,-172.17"/>
</g>
<!-- Node35&#45;&gt;Node2 -->
<g id="edge79" class="edge">
<title>Node35&#45;&gt;Node2</title>
<path fill="none" stroke="#63b8ff" d="M1179.54,-167.93C1150.22,-159.39 1093.56,-142.89 1055.43,-131.78"/>
<polygon fill="#63b8ff" stroke="#63b8ff" points="1056.26,-128.38 1045.68,-128.95 1054.3,-135.1 1056.26,-128.38"/>
</g>
<!-- Node35&#45;&gt;Node4 -->
<g id="edge78" class="edge">
<title>Node35&#45;&gt;Node4</title>
<path fill="none" stroke="#63b8ff" d="M1202.94,-164.9C1208.53,-152.31 1216.76,-128.39 1208.68,-110 1194.11,-76.89 1181.4,-70.42 1148.68,-55 1098.43,-31.32 933.73,-17.54 863.2,-12.6"/>
<polygon fill="#63b8ff" stroke="#63b8ff" points="863.33,-9.1 853.11,-11.91 862.85,-16.08 863.33,-9.1"/>
</g>
<!-- Node36 -->
<g id="node36" class="node">
<title>Node36</title>
<g id="a_node36"><a xlink:href="../../df/d45/fileinfo_8h.html" target="_top" xlink:title=" ">
<polygon fill="white" stroke="#666666" points="1199.18,-129 1140.18,-129 1140.18,-110 1199.18,-110 1199.18,-129"/>
<text text-anchor="middle" x="1169.68" y="-117" font-family="Helvetica,sans-Serif" font-size="10.00">fileinfo.h</text>
</a>
</g>
</g>
<!-- Node35&#45;&gt;Node36 -->
<g id="edge80" class="edge">
<title>Node35&#45;&gt;Node36</title>
<path fill="none" stroke="#63b8ff" d="M1193.89,-164.75C1189.92,-157.49 1184.15,-146.95 1179.24,-137.98"/>
<polygon fill="#63b8ff" stroke="#63b8ff" points="1182.25,-136.18 1174.38,-129.09 1176.11,-139.54 1182.25,-136.18"/>
</g>
<!-- Node36&#45;&gt;Node4 -->
<g id="edge81" class="edge">
<title>Node36&#45;&gt;Node4</title>
<path fill="none" stroke="#63b8ff" d="M1166.35,-109.81C1160.48,-95.74 1146.85,-68.19 1125.68,-55 1082.28,-27.96 930.35,-16.16 863.11,-12.18"/>
<polygon fill="#63b8ff" stroke="#63b8ff" points="863.26,-8.68 853.08,-11.6 862.86,-15.67 863.26,-8.68"/>
</g>
</g>
</svg>
        <g id="navigator" transform="translate(0 0)" fill="#404254">
                <rect fill="#f2f5e9" fill-opacity="0.5" stroke="#606060" stroke-width=".5" x="0" y="0" width="60" height="60"/>
                <use id="zoomplus" xlink:href="#zoomPlus" x="17" y="9" onmousedown="handleZoom(evt,'in')"/>
                <use id="zoomminus" xlink:href="#zoomMin" x="42" y="9" onmousedown="handleZoom(evt,'out')"/>
                <use id="reset" xlink:href="#resetDef" x="30" y="36" onmousedown="handleReset()"/>
                <g id="arrowUp" xlink:href="#dirArrow" transform="translate(30 24)" onmousedown="handlePan(0,-1)">
                  <use xlink:href="#rim" fill="#404040">
                        <set attributeName="fill" to="#808080" begin="arrowUp.mouseover" end="arrowUp.mouseout"/>
                  </use>
                  <path fill="none" stroke="white" stroke-width="1.5" d="M0,-3.0v7 M-2.5,-0.5L0,-3.0L2.5,-0.5"/>
                </g>
                <g id="arrowRight" xlink:href="#dirArrow" transform="rotate(90) translate(36 -43)" onmousedown="handlePan(1,0)">
                  <use xlink:href="#rim" fill="#404040">
                        <set attributeName="fill" to="#808080" begin="arrowRight.mouseover" end="arrowRight.mouseout"/>
                  </use>
                  <path fill="none" stroke="white" stroke-width="1.5" d="M0,-3.0v7 M-2.5,-0.5L0,-3.0L2.5,-0.5"/>
                </g>
                <g id="arrowDown" xlink:href="#dirArrow" transform="rotate(180) translate(-30 -48)" onmousedown="handlePan(0,1)">
                  <use xlink:href="#rim" fill="#404040">
                        <set attributeName="fill" to="#808080" begin="arrowDown.mouseover" end="arrowDown.mouseout"/>
                  </use>
                  <path fill="none" stroke="white" stroke-width="1.5" d="M0,-3.0v7 M-2.5,-0.5L0,-3.0L2.5,-0.5"/>
                </g>
                <g id="arrowLeft" xlink:href="#dirArrow" transform="rotate(270) translate(-36 17)" onmousedown="handlePan(-1,0)">
                  <use xlink:href="#rim" fill="#404040">
                        <set attributeName="fill" to="#808080" begin="arrowLeft.mouseover" end="arrowLeft.mouseout"/>
                  </use>
                  <path fill="none" stroke="white" stroke-width="1.5" d="M0,-3.0v7 M-2.5,-0.5L0,-3.0L2.5,-0.5"/>
                </g>
        </g>
        <svg viewBox="0 0 15 15" width="100%" height="30px" preserveAspectRatio="xMaxYMin meet">
         <g id="arrow_out" transform="scale(0.3 0.3)">
          <a xlink:href="dotincldepgraph_8h__incl_org.svg" target="_base">
           <rect id="button" ry="5" rx="5" y="6" x="6" height="38" width="38"
                fill="#f2f5e9" fill-opacity="0.5" stroke="#606060" stroke-width="1.0"/>
           <path id="arrow"
             d="M 11.500037,31.436501 C 11.940474,20.09759 22.043105,11.32322 32.158766,21.979434 L 37.068811,17.246167 C 37.068811,17.246167 37.088388,32 37.088388,32 L 22.160133,31.978069 C 22.160133,31.978069 26.997745,27.140456 26.997745,27.140456 C 18.528582,18.264221 13.291696,25.230495 11.500037,31.436501 z"
             style="fill:#404040;"/>
          </a>
         </g>
        </svg>
</svg>
