<?xml version="1.0" encoding="UTF-8" standalone="no"?>
<!DOCTYPE svg PUBLIC "-//W3C//DTD SVG 1.1//EN"
 "http://www.w3.org/Graphics/SVG/1.1/DTD/svg11.dtd">
<!-- Generated by graphviz version 2.43.0 (0)
 -->
<!-- Title: TranslatorAdapter_1_7_5 Pages: 1 -->
<svg width="2304pt" height="304pt"
 viewBox="0.00 0.00 2304.00 304.00" xmlns="http://www.w3.org/2000/svg" xmlns:xlink="http://www.w3.org/1999/xlink">
<g id="graph0" class="graph" transform="scale(1 1) rotate(0) translate(4 300)">
<title>TranslatorAdapter_1_7_5</title>
<!-- Node1 -->
<g id="node1" class="node">
<title>Node1</title>
<g id="a_node1"><a xlink:title="Adapter class for languages that only contain translations up to version 1.7.5.">
<polygon fill="#999999" stroke="#666666" points="1797,-93 1660,-93 1660,-74 1797,-74 1797,-93"/>
<text text-anchor="middle" x="1728.5" y="-81" font-family="Helvetica,sans-Serif" font-size="10.00">TranslatorAdapter_1_7_5</text>
</a>
</g>
</g>
<!-- Node12 -->
<g id="node12" class="node">
<title>Node12</title>
<g id="a_node12"><a xlink:href="../../d3/da1/class_translator_adapter__1__6__0.html" target="_top" xlink:title="Adapter class for languages that only contain translations up to version 1.6.0.">
<polygon fill="white" stroke="#666666" points="1970,-130 1833,-130 1833,-111 1970,-111 1970,-130"/>
<text text-anchor="middle" x="1901.5" y="-118" font-family="Helvetica,sans-Serif" font-size="10.00">TranslatorAdapter_1_6_0</text>
</a>
</g>
</g>
<!-- Node1&#45;&gt;Node12 -->
<g id="edge11" class="edge">
<title>Node1&#45;&gt;Node12</title>
<path fill="none" stroke="#63b8ff" d="M1783.35,-95.15C1806.84,-100.23 1834.04,-106.12 1856.32,-110.94"/>
<polygon fill="#63b8ff" stroke="#63b8ff" points="1784.05,-91.72 1773.54,-93.03 1782.57,-98.56 1784.05,-91.72"/>
</g>
<!-- Node24 -->
<g id="node24" class="node">
<title>Node24</title>
<g id="a_node24"><a xlink:href="../../d5/d43/class_translator_persian.html" target="_top" xlink:title=" ">
<polygon fill="white" stroke="#666666" points="1952,-93 1851,-93 1851,-74 1952,-74 1952,-93"/>
<text text-anchor="middle" x="1901.5" y="-81" font-family="Helvetica,sans-Serif" font-size="10.00">TranslatorPersian</text>
</a>
</g>
</g>
<!-- Node1&#45;&gt;Node24 -->
<g id="edge23" class="edge">
<title>Node1&#45;&gt;Node24</title>
<path fill="none" stroke="#63b8ff" d="M1807.26,-83.5C1822.06,-83.5 1837.18,-83.5 1850.81,-83.5"/>
<polygon fill="#63b8ff" stroke="#63b8ff" points="1807.08,-80 1797.08,-83.5 1807.08,-87 1807.08,-80"/>
</g>
<!-- Node25 -->
<g id="node25" class="node">
<title>Node25</title>
<g id="a_node25"><a xlink:href="../../dd/d80/class_translator_turkish.html" target="_top" xlink:title=" ">
<polygon fill="white" stroke="#666666" points="1951,-56 1852,-56 1852,-37 1951,-37 1951,-56"/>
<text text-anchor="middle" x="1901.5" y="-44" font-family="Helvetica,sans-Serif" font-size="10.00">TranslatorTurkish</text>
</a>
</g>
</g>
<!-- Node1&#45;&gt;Node25 -->
<g id="edge24" class="edge">
<title>Node1&#45;&gt;Node25</title>
<path fill="none" stroke="#63b8ff" d="M1783.35,-71.85C1806.84,-66.77 1834.04,-60.88 1856.32,-56.06"/>
<polygon fill="#63b8ff" stroke="#63b8ff" points="1782.57,-68.44 1773.54,-73.97 1784.05,-75.28 1782.57,-68.44"/>
</g>
<!-- Node2 -->
<g id="node2" class="node">
<title>Node2</title>
<g id="a_node2"><a xlink:href="../../de/d49/class_translator_adapter__1__8__0.html" target="_top" xlink:title="Adapter class for languages that only contain translations up to version 1.8.0.">
<polygon fill="white" stroke="#666666" points="1624,-93 1487,-93 1487,-74 1624,-74 1624,-93"/>
<text text-anchor="middle" x="1555.5" y="-81" font-family="Helvetica,sans-Serif" font-size="10.00">TranslatorAdapter_1_8_0</text>
</a>
</g>
</g>
<!-- Node2&#45;&gt;Node1 -->
<g id="edge1" class="edge">
<title>Node2&#45;&gt;Node1</title>
<path fill="none" stroke="#63b8ff" d="M1634.1,-83.5C1642.69,-83.5 1651.39,-83.5 1659.85,-83.5"/>
<polygon fill="#63b8ff" stroke="#63b8ff" points="1634.08,-80 1624.08,-83.5 1634.08,-87 1634.08,-80"/>
</g>
<!-- Node3 -->
<g id="node3" class="node">
<title>Node3</title>
<g id="a_node3"><a xlink:href="../../d2/d75/class_translator_adapter__1__8__2.html" target="_top" xlink:title=" ">
<polygon fill="white" stroke="#666666" points="1451,-93 1314,-93 1314,-74 1451,-74 1451,-93"/>
<text text-anchor="middle" x="1382.5" y="-81" font-family="Helvetica,sans-Serif" font-size="10.00">TranslatorAdapter_1_8_2</text>
</a>
</g>
</g>
<!-- Node3&#45;&gt;Node2 -->
<g id="edge2" class="edge">
<title>Node3&#45;&gt;Node2</title>
<path fill="none" stroke="#63b8ff" d="M1461.1,-83.5C1469.69,-83.5 1478.39,-83.5 1486.85,-83.5"/>
<polygon fill="#63b8ff" stroke="#63b8ff" points="1461.08,-80 1451.08,-83.5 1461.08,-87 1461.08,-80"/>
</g>
<!-- Node4 -->
<g id="node4" class="node">
<title>Node4</title>
<g id="a_node4"><a xlink:href="../../de/d2f/class_translator_adapter__1__8__4.html" target="_top" xlink:title=" ">
<polygon fill="white" stroke="#666666" points="1278,-93 1141,-93 1141,-74 1278,-74 1278,-93"/>
<text text-anchor="middle" x="1209.5" y="-81" font-family="Helvetica,sans-Serif" font-size="10.00">TranslatorAdapter_1_8_4</text>
</a>
</g>
</g>
<!-- Node4&#45;&gt;Node3 -->
<g id="edge3" class="edge">
<title>Node4&#45;&gt;Node3</title>
<path fill="none" stroke="#63b8ff" d="M1288.1,-83.5C1296.69,-83.5 1305.39,-83.5 1313.85,-83.5"/>
<polygon fill="#63b8ff" stroke="#63b8ff" points="1288.08,-80 1278.08,-83.5 1288.08,-87 1288.08,-80"/>
</g>
<!-- Node5 -->
<g id="node5" class="node">
<title>Node5</title>
<g id="a_node5"><a xlink:href="../../d4/d2e/class_translator_adapter__1__8__15.html" target="_top" xlink:title=" ">
<polygon fill="white" stroke="#666666" points="1105,-93 962,-93 962,-74 1105,-74 1105,-93"/>
<text text-anchor="middle" x="1033.5" y="-81" font-family="Helvetica,sans-Serif" font-size="10.00">TranslatorAdapter_1_8_15</text>
</a>
</g>
</g>
<!-- Node5&#45;&gt;Node4 -->
<g id="edge4" class="edge">
<title>Node5&#45;&gt;Node4</title>
<path fill="none" stroke="#63b8ff" d="M1115.12,-83.5C1123.77,-83.5 1132.5,-83.5 1140.98,-83.5"/>
<polygon fill="#63b8ff" stroke="#63b8ff" points="1115.02,-80 1105.02,-83.5 1115.02,-87 1115.02,-80"/>
</g>
<!-- Node6 -->
<g id="node6" class="node">
<title>Node6</title>
<g id="a_node6"><a xlink:href="../../de/dde/class_translator_adapter__1__8__19.html" target="_top" xlink:title=" ">
<polygon fill="white" stroke="#666666" points="926,-93 783,-93 783,-74 926,-74 926,-93"/>
<text text-anchor="middle" x="854.5" y="-81" font-family="Helvetica,sans-Serif" font-size="10.00">TranslatorAdapter_1_8_19</text>
</a>
</g>
</g>
<!-- Node6&#45;&gt;Node5 -->
<g id="edge5" class="edge">
<title>Node6&#45;&gt;Node5</title>
<path fill="none" stroke="#63b8ff" d="M936.49,-83.5C944.97,-83.5 953.54,-83.5 961.89,-83.5"/>
<polygon fill="#63b8ff" stroke="#63b8ff" points="936.22,-80 926.22,-83.5 936.22,-87 936.22,-80"/>
</g>
<!-- Node7 -->
<g id="node7" class="node">
<title>Node7</title>
<g id="a_node7"><a xlink:href="../../d3/d2e/class_translator_adapter__1__9__2.html" target="_top" xlink:title=" ">
<polygon fill="white" stroke="#666666" points="747,-93 610,-93 610,-74 747,-74 747,-93"/>
<text text-anchor="middle" x="678.5" y="-81" font-family="Helvetica,sans-Serif" font-size="10.00">TranslatorAdapter_1_9_2</text>
</a>
</g>
</g>
<!-- Node7&#45;&gt;Node6 -->
<g id="edge6" class="edge">
<title>Node7&#45;&gt;Node6</title>
<path fill="none" stroke="#63b8ff" d="M757.47,-83.5C765.89,-83.5 774.42,-83.5 782.75,-83.5"/>
<polygon fill="#63b8ff" stroke="#63b8ff" points="757.27,-80 747.27,-83.5 757.27,-87 757.27,-80"/>
</g>
<!-- Node8 -->
<g id="node8" class="node">
<title>Node8</title>
<g id="a_node8"><a xlink:href="../../d0/d33/class_translator_adapter__1__9__4.html" target="_top" xlink:title=" ">
<polygon fill="white" stroke="#666666" points="574,-93 437,-93 437,-74 574,-74 574,-93"/>
<text text-anchor="middle" x="505.5" y="-81" font-family="Helvetica,sans-Serif" font-size="10.00">TranslatorAdapter_1_9_4</text>
</a>
</g>
</g>
<!-- Node8&#45;&gt;Node7 -->
<g id="edge7" class="edge">
<title>Node8&#45;&gt;Node7</title>
<path fill="none" stroke="#63b8ff" d="M584.1,-83.5C592.69,-83.5 601.39,-83.5 609.85,-83.5"/>
<polygon fill="#63b8ff" stroke="#63b8ff" points="584.08,-80 574.08,-83.5 584.08,-87 584.08,-80"/>
</g>
<!-- Node9 -->
<g id="node9" class="node">
<title>Node9</title>
<g id="a_node9"><a xlink:href="../../dd/dba/class_translator_adapter__1__9__5.html" target="_top" xlink:title=" ">
<polygon fill="white" stroke="#666666" points="401,-93 264,-93 264,-74 401,-74 401,-93"/>
<text text-anchor="middle" x="332.5" y="-81" font-family="Helvetica,sans-Serif" font-size="10.00">TranslatorAdapter_1_9_5</text>
</a>
</g>
</g>
<!-- Node9&#45;&gt;Node8 -->
<g id="edge8" class="edge">
<title>Node9&#45;&gt;Node8</title>
<path fill="none" stroke="#63b8ff" d="M411.1,-83.5C419.69,-83.5 428.39,-83.5 436.85,-83.5"/>
<polygon fill="#63b8ff" stroke="#63b8ff" points="411.08,-80 401.08,-83.5 411.08,-87 411.08,-80"/>
</g>
<!-- Node10 -->
<g id="node10" class="node">
<title>Node10</title>
<g id="a_node10"><a xlink:href="../../db/d6c/class_translator_adapter_base.html" target="_top" xlink:title="Base of the translator adapter tree.">
<polygon fill="white" stroke="#666666" points="228,-93 101,-93 101,-74 228,-74 228,-93"/>
<text text-anchor="middle" x="164.5" y="-81" font-family="Helvetica,sans-Serif" font-size="10.00">TranslatorAdapterBase</text>
</a>
</g>
</g>
<!-- Node10&#45;&gt;Node9 -->
<g id="edge9" class="edge">
<title>Node10&#45;&gt;Node9</title>
<path fill="none" stroke="#63b8ff" d="M238.49,-83.5C246.95,-83.5 255.56,-83.5 263.94,-83.5"/>
<polygon fill="#63b8ff" stroke="#63b8ff" points="238.26,-80 228.26,-83.5 238.26,-87 238.26,-80"/>
</g>
<!-- Node11 -->
<g id="node11" class="node">
<title>Node11</title>
<g id="a_node11"><a xlink:href="../../d8/dfb/class_translator.html" target="_top" xlink:title="Abstract base class for all translatable text fragments.">
<polygon fill="white" stroke="#666666" points="65,-93 0,-93 0,-74 65,-74 65,-93"/>
<text text-anchor="middle" x="32.5" y="-81" font-family="Helvetica,sans-Serif" font-size="10.00">Translator</text>
</a>
</g>
</g>
<!-- Node11&#45;&gt;Node10 -->
<g id="edge10" class="edge">
<title>Node11&#45;&gt;Node10</title>
<path fill="none" stroke="#63b8ff" d="M75.54,-83.5C83.6,-83.5 92.2,-83.5 100.75,-83.5"/>
<polygon fill="#63b8ff" stroke="#63b8ff" points="75.3,-80 65.3,-83.5 75.3,-87 75.3,-80"/>
</g>
<!-- Node13 -->
<g id="node13" class="node">
<title>Node13</title>
<g id="a_node13"><a xlink:href="../../d4/d2b/class_translator_adapter__1__4__6.html" target="_top" xlink:title="Adapter class for languages that only contain translations up to version 1.4.6.">
<polygon fill="white" stroke="#666666" points="2143,-241 2006,-241 2006,-222 2143,-222 2143,-241"/>
<text text-anchor="middle" x="2074.5" y="-229" font-family="Helvetica,sans-Serif" font-size="10.00">TranslatorAdapter_1_4_6</text>
</a>
</g>
</g>
<!-- Node12&#45;&gt;Node13 -->
<g id="edge12" class="edge">
<title>Node12&#45;&gt;Node13</title>
<path fill="none" stroke="#63b8ff" d="M1917.01,-137.8C1935.54,-158.78 1969.59,-193.79 2006,-213.5 2012.29,-216.91 2019.27,-219.7 2026.28,-221.98"/>
<polygon fill="#63b8ff" stroke="#63b8ff" points="1919.46,-135.28 1910.27,-130 1914.17,-139.86 1919.46,-135.28"/>
</g>
<!-- Node18 -->
<g id="node18" class="node">
<title>Node18</title>
<g id="a_node18"><a xlink:href="../../d3/d65/class_translator_afrikaans.html" target="_top" xlink:title=" ">
<polygon fill="white" stroke="#666666" points="2129.5,-204 2019.5,-204 2019.5,-185 2129.5,-185 2129.5,-204"/>
<text text-anchor="middle" x="2074.5" y="-192" font-family="Helvetica,sans-Serif" font-size="10.00">TranslatorAfrikaans</text>
</a>
</g>
</g>
<!-- Node12&#45;&gt;Node18 -->
<g id="edge17" class="edge">
<title>Node12&#45;&gt;Node18</title>
<path fill="none" stroke="#63b8ff" d="M1926.82,-135.34C1947.35,-147.4 1977.83,-164.2 2006,-175.5 2014.93,-179.08 2024.77,-182.26 2034.12,-184.95"/>
<polygon fill="#63b8ff" stroke="#63b8ff" points="1928.51,-132.27 1918.13,-130.17 1924.93,-138.29 1928.51,-132.27"/>
</g>
<!-- Node19 -->
<g id="node19" class="node">
<title>Node19</title>
<g id="a_node19"><a xlink:href="../../de/df7/class_translator_finnish.html" target="_top" xlink:title=" ">
<polygon fill="white" stroke="#666666" points="2124,-167 2025,-167 2025,-148 2124,-148 2124,-167"/>
<text text-anchor="middle" x="2074.5" y="-155" font-family="Helvetica,sans-Serif" font-size="10.00">TranslatorFinnish</text>
</a>
</g>
</g>
<!-- Node12&#45;&gt;Node19 -->
<g id="edge18" class="edge">
<title>Node12&#45;&gt;Node19</title>
<path fill="none" stroke="#63b8ff" d="M1956.35,-132.15C1979.84,-137.23 2007.04,-143.12 2029.32,-147.94"/>
<polygon fill="#63b8ff" stroke="#63b8ff" points="1957.05,-128.72 1946.54,-130.03 1955.57,-135.56 1957.05,-128.72"/>
</g>
<!-- Node20 -->
<g id="node20" class="node">
<title>Node20</title>
<g id="a_node20"><a xlink:href="../../d9/ddf/class_translator_macedonian.html" target="_top" xlink:title=" ">
<polygon fill="white" stroke="#666666" points="2136.5,-130 2012.5,-130 2012.5,-111 2136.5,-111 2136.5,-130"/>
<text text-anchor="middle" x="2074.5" y="-118" font-family="Helvetica,sans-Serif" font-size="10.00">TranslatorMacedonian</text>
</a>
</g>
</g>
<!-- Node12&#45;&gt;Node20 -->
<g id="edge19" class="edge">
<title>Node12&#45;&gt;Node20</title>
<path fill="none" stroke="#63b8ff" d="M1980.28,-120.5C1991,-120.5 2001.88,-120.5 2012.24,-120.5"/>
<polygon fill="#63b8ff" stroke="#63b8ff" points="1980.08,-117 1970.08,-120.5 1980.08,-124 1980.08,-117"/>
</g>
<!-- Node21 -->
<g id="node21" class="node">
<title>Node21</title>
<g id="a_node21"><a xlink:href="../../d5/d0a/class_translator_serbian.html" target="_top" xlink:title=" ">
<polygon fill="white" stroke="#666666" points="2125,-93 2024,-93 2024,-74 2125,-74 2125,-93"/>
<text text-anchor="middle" x="2074.5" y="-81" font-family="Helvetica,sans-Serif" font-size="10.00">TranslatorSerbian</text>
</a>
</g>
</g>
<!-- Node12&#45;&gt;Node21 -->
<g id="edge20" class="edge">
<title>Node12&#45;&gt;Node21</title>
<path fill="none" stroke="#63b8ff" d="M1956.35,-108.85C1979.84,-103.77 2007.04,-97.88 2029.32,-93.06"/>
<polygon fill="#63b8ff" stroke="#63b8ff" points="1955.57,-105.44 1946.54,-110.97 1957.05,-112.28 1955.57,-105.44"/>
</g>
<!-- Node22 -->
<g id="node22" class="node">
<title>Node22</title>
<g id="a_node22"><a xlink:href="../../dc/d03/class_translator_serbian_cyrillic.html" target="_top" xlink:title=" ">
<polygon fill="white" stroke="#666666" points="2142,-56 2007,-56 2007,-37 2142,-37 2142,-56"/>
<text text-anchor="middle" x="2074.5" y="-44" font-family="Helvetica,sans-Serif" font-size="10.00">TranslatorSerbianCyrillic</text>
</a>
</g>
</g>
<!-- Node12&#45;&gt;Node22 -->
<g id="edge21" class="edge">
<title>Node12&#45;&gt;Node22</title>
<path fill="none" stroke="#63b8ff" d="M1958.42,-107.32C1962.44,-105.6 1966.35,-103.67 1970,-101.5 1989.72,-89.77 1986.2,-76.1 2006,-64.5 2011.86,-61.07 2018.39,-58.28 2025.01,-56.01"/>
<polygon fill="#63b8ff" stroke="#63b8ff" points="1956.97,-104.13 1948.86,-110.95 1959.46,-110.67 1956.97,-104.13"/>
</g>
<!-- Node23 -->
<g id="node23" class="node">
<title>Node23</title>
<g id="a_node23"><a xlink:href="../../df/d20/class_translator_vietnamese.html" target="_top" xlink:title=" ">
<polygon fill="white" stroke="#666666" points="2136,-19 2013,-19 2013,0 2136,0 2136,-19"/>
<text text-anchor="middle" x="2074.5" y="-7" font-family="Helvetica,sans-Serif" font-size="10.00">TranslatorVietnamese</text>
</a>
</g>
</g>
<!-- Node12&#45;&gt;Node23 -->
<g id="edge22" class="edge">
<title>Node12&#45;&gt;Node23</title>
<path fill="none" stroke="#63b8ff" d="M1963.48,-106.18C1965.77,-104.76 1967.96,-103.21 1970,-101.5 1998.06,-78.04 1977.78,-50.76 2006,-27.5 2010.12,-24.11 2014.81,-21.35 2019.77,-19.1"/>
<polygon fill="#63b8ff" stroke="#63b8ff" points="1961.48,-103.27 1954.21,-110.97 1964.7,-109.49 1961.48,-103.27"/>
</g>
<!-- Node14 -->
<g id="node14" class="node">
<title>Node14</title>
<g id="a_node14"><a xlink:href="../../d3/de9/class_translator_arabic.html" target="_top" xlink:title=" ">
<polygon fill="white" stroke="#666666" points="2285,-296 2190,-296 2190,-277 2285,-277 2285,-296"/>
<text text-anchor="middle" x="2237.5" y="-284" font-family="Helvetica,sans-Serif" font-size="10.00">TranslatorArabic</text>
</a>
</g>
</g>
<!-- Node13&#45;&gt;Node14 -->
<g id="edge13" class="edge">
<title>Node13&#45;&gt;Node14</title>
<path fill="none" stroke="#63b8ff" d="M2110.94,-244.57C2130.87,-251.81 2156.25,-260.88 2179,-268.5 2187.43,-271.33 2196.6,-274.26 2205.09,-276.92"/>
<polygon fill="#63b8ff" stroke="#63b8ff" points="2111.94,-241.2 2101.35,-241.06 2109.54,-247.78 2111.94,-241.2"/>
</g>
<!-- Node15 -->
<g id="node15" class="node">
<title>Node15</title>
<g id="a_node15"><a xlink:href="../../dc/d53/class_translator_lithuanian.html" target="_top" xlink:title=" ">
<polygon fill="white" stroke="#666666" points="2295.5,-259 2179.5,-259 2179.5,-240 2295.5,-240 2295.5,-259"/>
<text text-anchor="middle" x="2237.5" y="-247" font-family="Helvetica,sans-Serif" font-size="10.00">TranslatorLithuanian</text>
</a>
</g>
</g>
<!-- Node13&#45;&gt;Node15 -->
<g id="edge14" class="edge">
<title>Node13&#45;&gt;Node15</title>
<path fill="none" stroke="#63b8ff" d="M2153.53,-240.22C2162.27,-241.2 2171.05,-242.18 2179.46,-243.12"/>
<polygon fill="#63b8ff" stroke="#63b8ff" points="2153.64,-236.71 2143.31,-239.08 2152.86,-243.67 2153.64,-236.71"/>
</g>
<!-- Node16 -->
<g id="node16" class="node">
<title>Node16</title>
<g id="a_node16"><a xlink:href="../../dd/d38/class_translator_norwegian.html" target="_top" xlink:title=" ">
<polygon fill="white" stroke="#666666" points="2296,-222 2179,-222 2179,-203 2296,-203 2296,-222"/>
<text text-anchor="middle" x="2237.5" y="-210" font-family="Helvetica,sans-Serif" font-size="10.00">TranslatorNorwegian</text>
</a>
</g>
</g>
<!-- Node13&#45;&gt;Node16 -->
<g id="edge15" class="edge">
<title>Node13&#45;&gt;Node16</title>
<path fill="none" stroke="#63b8ff" d="M2153.38,-222.31C2162,-221.29 2170.66,-220.27 2178.96,-219.29"/>
<polygon fill="#63b8ff" stroke="#63b8ff" points="2152.83,-218.85 2143.31,-223.5 2153.65,-225.8 2152.83,-218.85"/>
</g>
<!-- Node17 -->
<g id="node17" class="node">
<title>Node17</title>
<g id="a_node17"><a xlink:href="../../dd/d0b/class_translator_slovene.html" target="_top" xlink:title=" ">
<polygon fill="white" stroke="#666666" points="2289.5,-185 2185.5,-185 2185.5,-166 2289.5,-166 2289.5,-185"/>
<text text-anchor="middle" x="2237.5" y="-173" font-family="Helvetica,sans-Serif" font-size="10.00">TranslatorSlovene</text>
</a>
</g>
</g>
<!-- Node13&#45;&gt;Node17 -->
<g id="edge16" class="edge">
<title>Node13&#45;&gt;Node17</title>
<path fill="none" stroke="#63b8ff" d="M2127.39,-219.07C2132.72,-217.37 2138.01,-215.52 2143,-213.5 2159.97,-206.65 2162.18,-200.72 2179,-193.5 2186.31,-190.37 2194.34,-187.51 2202.03,-185.03"/>
<polygon fill="#63b8ff" stroke="#63b8ff" points="2126.37,-215.72 2117.79,-221.94 2128.38,-222.42 2126.37,-215.72"/>
</g>
</g>
</svg>
