<?xml version="1.0" encoding="UTF-8" standalone="no"?>
<!DOCTYPE svg PUBLIC "-//W3C//DTD SVG 1.1//EN"
 "http://www.w3.org/Graphics/SVG/1.1/DTD/svg11.dtd">
<!-- Generated by graphviz version 2.43.0 (0)
 -->
<!-- Title: xmlcodeYY_state Pages: 1 -->
<!--zoomable 262 -->
<svg id="main" version="1.1" xmlns="http://www.w3.org/2000/svg" xmlns:xlink="http://www.w3.org/1999/xlink" xml:space="preserve" onload="init(evt)">
<style type="text/css"><![CDATA[
.edge:hover path { stroke: red; }
.edge:hover polygon { stroke: red; fill: red; }
]]></style>
<script type="text/javascript"><![CDATA[
var edges = document.getElementsByTagName('g');
if (edges && edges.length) {
  for (var i=0;i<edges.length;i++) {
    if (edges[i].id.substr(0,4)=='edge') {
      edges[i].setAttribute('class','edge');
    }
  }
}
]]></script>
        <defs>
                <circle id="rim" cx="0" cy="0" r="7"/>
                <circle id="rim2" cx="0" cy="0" r="3.5"/>
                <g id="zoomPlus">
                        <use xlink:href="#rim" fill="#404040">
                                <set attributeName="fill" to="#808080" begin="zoomplus.mouseover" end="zoomplus.mouseout"/>
                        </use>
                        <path d="M-4,0h8M0,-4v8" fill="none" stroke="white" stroke-width="1.5" pointer-events="none"/>
                </g>
                <g id="zoomMin">
                        <use xlink:href="#rim" fill="#404040">
                                <set attributeName="fill" to="#808080" begin="zoomminus.mouseover" end="zoomminus.mouseout"/>
                        </use>
                        <path d="M-4,0h8" fill="none" stroke="white" stroke-width="1.5" pointer-events="none"/>
                </g>
                <g id="dirArrow">
                        <path fill="none" stroke="white" stroke-width="1.5" d="M0,-3.0v7 M-2.5,-0.5L0,-3.0L2.5,-0.5"/>
                </g>
               <g id="resetDef">
                       <use xlink:href="#rim2" fill="#404040">
                               <set attributeName="fill" to="#808080" begin="reset.mouseover" end="reset.mouseout"/>
                       </use>
               </g>
        </defs>

<script type="text/javascript">
var viewWidth = 508;
var viewHeight = 262;
var sectionId = 'dynsection-0';
</script>
<script xlink:href="../../svgpan.js"/>
<svg id="graph" class="graph">
<g id="viewport">
<title>xmlcodeYY_state</title>
<!-- Node1 -->
<g id="node1" class="node">
<title>Node1</title>
<g id="a_node1"><a xlink:title=" ">
<polygon fill="#999999" stroke="#666666" points="286.5,-19 185.5,-19 185.5,0 286.5,0 286.5,-19"/>
<text text-anchor="middle" x="236" y="-7" font-family="Helvetica,sans-Serif" font-size="10.00">xmlcodeYY_state</text>
</a>
</g>
</g>
<!-- Node2 -->
<g id="node2" class="node">
<title>Node2</title>
<g id="a_node2"><a xlink:href="../../db/d8e/class_output_code_list.html" target="_top" xlink:title="Class representing a list of different code generators.">
<polygon fill="white" stroke="#666666" points="92,-196.5 0,-196.5 0,-177.5 92,-177.5 92,-196.5"/>
<text text-anchor="middle" x="46" y="-184.5" font-family="Helvetica,sans-Serif" font-size="10.00">OutputCodeList</text>
</a>
</g>
</g>
<!-- Node2&#45;&gt;Node1 -->
<g id="edge1" class="edge">
<title>Node2&#45;&gt;Node1</title>
<path fill="none" stroke="#9a32cd" stroke-dasharray="5,2" d="M47.51,-167.12C51.13,-135.15 63.23,-70.57 103,-37 115.41,-26.52 153.09,-19.64 185.19,-15.52"/>
<polygon fill="#9a32cd" stroke="#9a32cd" points="44,-167.01 46.52,-177.3 50.97,-167.68 44,-167.01"/>
<text text-anchor="middle" x="116.5" y="-95" font-family="Helvetica,sans-Serif" font-size="10.00" fill="grey"> code</text>
</g>
<!-- Node3 -->
<g id="node3" class="node">
<title>Node3</title>
<g id="a_node3"><a xlink:href="../../d9/d45/class_q_c_string.html" target="_top" xlink:title="This is an alternative implementation of QCString.">
<polygon fill="white" stroke="#666666" points="169.5,-196.5 110.5,-196.5 110.5,-177.5 169.5,-177.5 169.5,-196.5"/>
<text text-anchor="middle" x="140" y="-184.5" font-family="Helvetica,sans-Serif" font-size="10.00">QCString</text>
</a>
</g>
</g>
<!-- Node3&#45;&gt;Node1 -->
<g id="edge2" class="edge">
<title>Node3&#45;&gt;Node1</title>
<path fill="none" stroke="#9a32cd" stroke-dasharray="5,2" d="M136.63,-167.21C132.24,-136.37 128.35,-74.66 159,-37 165.78,-28.67 175.32,-22.95 185.39,-19.02"/>
<polygon fill="#9a32cd" stroke="#9a32cd" points="133.23,-168.09 138.27,-177.41 140.14,-166.98 133.23,-168.09"/>
<text text-anchor="middle" x="195.5" y="-150" font-family="Helvetica,sans-Serif" font-size="10.00" fill="grey"> CurrScope</text>
<text text-anchor="middle" x="195.5" y="-139" font-family="Helvetica,sans-Serif" font-size="10.00" fill="grey">args</text>
<text text-anchor="middle" x="195.5" y="-128" font-family="Helvetica,sans-Serif" font-size="10.00" fill="grey">classScope</text>
<text text-anchor="middle" x="195.5" y="-117" font-family="Helvetica,sans-Serif" font-size="10.00" fill="grey">curClassName</text>
<text text-anchor="middle" x="195.5" y="-106" font-family="Helvetica,sans-Serif" font-size="10.00" fill="grey">exampleFile</text>
<text text-anchor="middle" x="195.5" y="-95" font-family="Helvetica,sans-Serif" font-size="10.00" fill="grey">exampleName</text>
<text text-anchor="middle" x="195.5" y="-84" font-family="Helvetica,sans-Serif" font-size="10.00" fill="grey">fileName</text>
<text text-anchor="middle" x="195.5" y="-73" font-family="Helvetica,sans-Serif" font-size="10.00" fill="grey">name</text>
<text text-anchor="middle" x="195.5" y="-62" font-family="Helvetica,sans-Serif" font-size="10.00" fill="grey">parmName</text>
<text text-anchor="middle" x="195.5" y="-51" font-family="Helvetica,sans-Serif" font-size="10.00" fill="grey">parmType</text>
<text text-anchor="middle" x="195.5" y="-40" font-family="Helvetica,sans-Serif" font-size="10.00" fill="grey">...</text>
</g>
<!-- Node4 -->
<g id="node4" class="node">
<title>Node4</title>
<g id="a_node4"><a xlink:href="../../d5/dcc/class_definition.html" target="_top" xlink:title="The common base class of all entity definitions found in the sources.">
<polygon fill="white" stroke="#666666" points="366,-254 302,-254 302,-235 366,-235 366,-254"/>
<text text-anchor="middle" x="334" y="-242" font-family="Helvetica,sans-Serif" font-size="10.00">Definition</text>
</a>
</g>
</g>
<!-- Node4&#45;&gt;Node1 -->
<g id="edge3" class="edge">
<title>Node4&#45;&gt;Node1</title>
<path fill="none" stroke="#9a32cd" stroke-dasharray="5,2" d="M357.99,-229.45C380.34,-214.81 412.22,-189.62 426,-158 447.49,-108.7 461.3,-77.57 426,-37 408.29,-16.65 336.91,-11.44 286.88,-10.36"/>
<polygon fill="#9a32cd" stroke="#9a32cd" points="355.96,-226.59 349.36,-234.88 359.69,-232.51 355.96,-226.59"/>
<text text-anchor="middle" x="457.5" y="-190" font-family="Helvetica,sans-Serif" font-size="10.00" fill="grey"> currentDefinition</text>
<text text-anchor="middle" x="457.5" y="-179" font-family="Helvetica,sans-Serif" font-size="10.00" fill="grey">searchCtx</text>
</g>
<!-- Node5 -->
<g id="node5" class="node">
<title>Node5</title>
<g id="a_node5"><a xlink:href="../../de/db0/class_file_def.html" target="_top" xlink:title="A model of a file symbol.">
<polygon fill="white" stroke="#666666" points="261.5,-196.5 210.5,-196.5 210.5,-177.5 261.5,-177.5 261.5,-196.5"/>
<text text-anchor="middle" x="236" y="-184.5" font-family="Helvetica,sans-Serif" font-size="10.00">FileDef</text>
</a>
</g>
</g>
<!-- Node4&#45;&gt;Node5 -->
<g id="edge6" class="edge">
<title>Node4&#45;&gt;Node5</title>
<path fill="none" stroke="#63b8ff" d="M309.76,-229.77C291.43,-219.39 266.84,-205.47 251.2,-196.61"/>
<polygon fill="#63b8ff" stroke="#63b8ff" points="308.26,-232.95 318.69,-234.83 311.71,-226.85 308.26,-232.95"/>
</g>
<!-- Node7 -->
<g id="node7" class="node">
<title>Node7</title>
<g id="a_node7"><a xlink:href="../../da/d09/class_member_def.html" target="_top" xlink:title="A model of a class/file/namespace member symbol.">
<polygon fill="white" stroke="#666666" points="368,-196.5 294,-196.5 294,-177.5 368,-177.5 368,-196.5"/>
<text text-anchor="middle" x="331" y="-184.5" font-family="Helvetica,sans-Serif" font-size="10.00">MemberDef</text>
</a>
</g>
</g>
<!-- Node4&#45;&gt;Node7 -->
<g id="edge8" class="edge">
<title>Node4&#45;&gt;Node7</title>
<path fill="none" stroke="#63b8ff" d="M332.99,-224.75C332.48,-215.3 331.88,-204.28 331.48,-196.79"/>
<polygon fill="#63b8ff" stroke="#63b8ff" points="329.5,-225.03 333.53,-234.83 336.49,-224.65 329.5,-225.03"/>
</g>
<!-- Node5&#45;&gt;Node1 -->
<g id="edge4" class="edge">
<title>Node5&#45;&gt;Node1</title>
<path fill="none" stroke="#9a32cd" stroke-dasharray="5,2" d="M236,-166.9C236,-129.14 236,-46.26 236,-19.22"/>
<polygon fill="#9a32cd" stroke="#9a32cd" points="232.5,-167.06 236,-177.06 239.5,-167.06 232.5,-167.06"/>
<text text-anchor="middle" x="271" y="-95" font-family="Helvetica,sans-Serif" font-size="10.00" fill="grey"> sourceFileDef</text>
</g>
<!-- Node6 -->
<g id="node6" class="node">
<title>Node6</title>
<g id="a_node6"><a xlink:href="../../d0/d46/class_definition_mutable.html" target="_top" xlink:title=" ">
<polygon fill="white" stroke="#666666" points="284,-254 180,-254 180,-235 284,-235 284,-254"/>
<text text-anchor="middle" x="232" y="-242" font-family="Helvetica,sans-Serif" font-size="10.00">DefinitionMutable</text>
</a>
</g>
</g>
<!-- Node6&#45;&gt;Node5 -->
<g id="edge5" class="edge">
<title>Node6&#45;&gt;Node5</title>
<path fill="none" stroke="#63b8ff" d="M233.35,-224.75C234.03,-215.3 234.83,-204.28 235.37,-196.79"/>
<polygon fill="#63b8ff" stroke="#63b8ff" points="229.85,-224.6 232.62,-234.83 236.83,-225.11 229.85,-224.6"/>
</g>
<!-- Node7&#45;&gt;Node1 -->
<g id="edge7" class="edge">
<title>Node7&#45;&gt;Node1</title>
<path fill="none" stroke="#9a32cd" stroke-dasharray="5,2" d="M330.27,-167.01C328.54,-131.44 323.04,-56.57 307,-37 300.16,-28.66 290.42,-22.94 280.33,-19.02"/>
<polygon fill="#9a32cd" stroke="#9a32cd" points="326.79,-167.6 330.72,-177.43 333.79,-167.29 326.79,-167.6"/>
<text text-anchor="middle" x="378" y="-95" font-family="Helvetica,sans-Serif" font-size="10.00" fill="grey"> currentMemberDef</text>
</g>
</g>
</svg>
        <g id="navigator" transform="translate(0 0)" fill="#404254">
                <rect fill="#f2f5e9" fill-opacity="0.5" stroke="#606060" stroke-width=".5" x="0" y="0" width="60" height="60"/>
                <use id="zoomplus" xlink:href="#zoomPlus" x="17" y="9" onmousedown="handleZoom(evt,'in')"/>
                <use id="zoomminus" xlink:href="#zoomMin" x="42" y="9" onmousedown="handleZoom(evt,'out')"/>
                <use id="reset" xlink:href="#resetDef" x="30" y="36" onmousedown="handleReset()"/>
                <g id="arrowUp" xlink:href="#dirArrow" transform="translate(30 24)" onmousedown="handlePan(0,-1)">
                  <use xlink:href="#rim" fill="#404040">
                        <set attributeName="fill" to="#808080" begin="arrowUp.mouseover" end="arrowUp.mouseout"/>
                  </use>
                  <path fill="none" stroke="white" stroke-width="1.5" d="M0,-3.0v7 M-2.5,-0.5L0,-3.0L2.5,-0.5"/>
                </g>
                <g id="arrowRight" xlink:href="#dirArrow" transform="rotate(90) translate(36 -43)" onmousedown="handlePan(1,0)">
                  <use xlink:href="#rim" fill="#404040">
                        <set attributeName="fill" to="#808080" begin="arrowRight.mouseover" end="arrowRight.mouseout"/>
                  </use>
                  <path fill="none" stroke="white" stroke-width="1.5" d="M0,-3.0v7 M-2.5,-0.5L0,-3.0L2.5,-0.5"/>
                </g>
                <g id="arrowDown" xlink:href="#dirArrow" transform="rotate(180) translate(-30 -48)" onmousedown="handlePan(0,1)">
                  <use xlink:href="#rim" fill="#404040">
                        <set attributeName="fill" to="#808080" begin="arrowDown.mouseover" end="arrowDown.mouseout"/>
                  </use>
                  <path fill="none" stroke="white" stroke-width="1.5" d="M0,-3.0v7 M-2.5,-0.5L0,-3.0L2.5,-0.5"/>
                </g>
                <g id="arrowLeft" xlink:href="#dirArrow" transform="rotate(270) translate(-36 17)" onmousedown="handlePan(-1,0)">
                  <use xlink:href="#rim" fill="#404040">
                        <set attributeName="fill" to="#808080" begin="arrowLeft.mouseover" end="arrowLeft.mouseout"/>
                  </use>
                  <path fill="none" stroke="white" stroke-width="1.5" d="M0,-3.0v7 M-2.5,-0.5L0,-3.0L2.5,-0.5"/>
                </g>
        </g>
        <svg viewBox="0 0 15 15" width="100%" height="30px" preserveAspectRatio="xMaxYMin meet">
         <g id="arrow_out" transform="scale(0.3 0.3)">
          <a xlink:href="structxmlcode_y_y__state__coll__graph_org.svg" target="_base">
           <rect id="button" ry="5" rx="5" y="6" x="6" height="38" width="38"
                fill="#f2f5e9" fill-opacity="0.5" stroke="#606060" stroke-width="1.0"/>
           <path id="arrow"
             d="M 11.500037,31.436501 C 11.940474,20.09759 22.043105,11.32322 32.158766,21.979434 L 37.068811,17.246167 C 37.068811,17.246167 37.088388,32 37.088388,32 L 22.160133,31.978069 C 22.160133,31.978069 26.997745,27.140456 26.997745,27.140456 C 18.528582,18.264221 13.291696,25.230495 11.500037,31.436501 z"
             style="fill:#404040;"/>
          </a>
         </g>
        </svg>
</svg>
